<?xml version="1.0" encoding="iso-8859-1"?>
<!-- Generator: Adobe Illustrator 30.2.1, SVG Export Plug-In . SVG Version: 9.03 Build 0)  -->
<svg version="1.1" id="Layer_1" xmlns="http://www.w3.org/2000/svg" xmlns:xlink="http://www.w3.org/1999/xlink" x="0px" y="0px"
	 viewBox="0 0 286.322 266.87" style="enable-background:new 0 0 286.322 266.87;" xml:space="preserve">
<g id="T4e3Ac.tif">
	<g>
		<path d="M180.58,142.649l-0.662,2.189c-1.234,0.334-2.016,1.361-1.819,2.707c-0.271,0.435-0.749,1.147-0.939,1.552l-0.832,1.78
			l-1.163,2.484c-0.093,0.198-0.102,0.792-0.115,0.975c-1.307,2.042-1.085,2.095-2.34,4.677c-1.03,2.12-0.371,2.381-2.054,5.874
			l-0.948,1.968c-0.209,0.434-0.6,1.046-0.923,1.26c-0.396,0.263-1.373,0.284-1.834,0.133l-1.804-0.589
			c-0.45-0.147-0.99-0.433-1.423-0.551c-2.365-0.648-2.941-0.171-4.004-0.932c-0.405-0.29-0.85-1.417-0.523-1.79
			c3.009-3.439,0.442-0.337,2.532-3.832c0.669-1.119,1.78-3.791,2.322-5.167l0.797-2.022c0.159-0.403,0.35-1.317,0.567-1.711
			l1.497-2.724c2.488-4.528,1.797-4.779,2.646-6.485c0.264-0.53,0.707-1.254,0.709-1.693l0.009-1.553
			c0.003-0.523,0.02-1.619,0.258-2.044l0.938-1.671c0.181-0.323,1.33-0.275,1.589-0.005c0.37,0.388,1.167,1.552,1.011,2.092
			l-0.996,3.447c-0.19,0.658-0.33,1.251-0.558,1.773l-1.493,3.417l-1.124,2.273l-0.786,1.797l-0.585,1.434l-1.023,2.41
			c-0.211,0.498-0.815,1.299-0.958,1.767l-0.544,1.787c-1.197,3.931-1.827,3.781-2.228,5.124c-0.081,0.272,0.507,0.788,0.807,0.859
			l1.924,0.457l1.21-1.011l0.27-1.139l0.754-1.531l0.846-1.709l1.343-2.42c0.27-0.487,0.472-0.996,0.728-1.54l1.17-2.489
			l0.816-1.645c0.523-1.055,0.806-2.039,1.431-2.931l1.159-1.657l-0.017-1.428l-0.378-0.538c0.205-0.345,0.591-1.073,0.837-1.397
			c0.752-0.99,2.361-0.466,3.438-0.325L180.58,142.649z"/>
		<g>
			<path d="M32.957,247.514c-0.609,0.518-2.096,0.583-3.158-0.207l-2.629-1.954l-1.411-1.131l-0.491-1.208l-1.014-0.679
				c-3.753-4.048-4.935-3.172-5.853-3.595c-1.043-0.481-2.02-1.228-3.015-1.824c-0.858-0.514-2.136-1.067-2.655-1.822
				c-1.17-1.701-1.072-1.666-3.532-2.333l-2.287-0.62l0.433-2.186l2.893-1.419c1.459-0.715,2.327-2.494,3.43-3.642
				c2.069-2.153-0.198-0.686,2.827-2.557l1.64-1.014c0.758-0.468,2.088-1.663,2.732-2.368l1.249-1.368
				c0.775-0.849,1.411-1.906,1.913-2.96l1.613-1.448c2.112-1.896,0.959-1.311,3.529-2.787l0.673-0.726
				c2.889-0.916,3.203-2.226,5.312-3.232c0.585-0.279,0.954-0.566,1.462-0.878l2.46-1.515c1.023-0.63,1.811-1.449,2.263-2.639
				l1.649-0.913c0.42-0.233,1.271-0.493,1.885-0.689c0.478,0.234,1.458,0.811,1.806,1.214l1.747,2.023
				c1.89,2.188,2.996-1.138,5.732,0.145l0.269,2.157c0.102,0.813-2.782,4.815-3.85,5.306c-2.801,1.289-0.469-0.365-3.773,1.983
				c-0.553,0.393-1.032,0.828-1.599,1.286c-0.558,0.451-1.757,0.87-2.264,1.352l-1.806,1.715c-1.694,1.608-1.238,1.855-3.483,3.608
				l-1.771,1.383l-2.55,2.024c-1.787,1.418-1.363,1.489-4.375,2.595l1.701,1.654c0.378,0.368,1.126,1.007,1.6,1.153l1.547,0.479
				c3.18,0.984,6.671,1.24,8.57,3.958l1.094,1.565c0.467,0.606-1.622,4.333-2.069,4.911l-1.146,1.483
				c-0.367,0.475-0.985,1.262-1.543,1.532l-1.728,0.836l-1.437,1.178l-1.551,1.29L32.957,247.514z M37.9,238.924l0.958-1.716
				c0.189-0.338,0.619-0.918,0.453-1.181c-0.749-1.182-1.981-1.921-3.663-2.005c-0.553-0.028-1.053-0.447-1.664-0.611l-2.681-0.722
				c0.494,0.133-3.267-1.499-3.672-1.949l-1.278-1.422c-0.28-0.311-1.111-0.69-1.595-0.9c-1.081-0.469-1.96-1.502-1.597-2.263
				c0.182-0.38,0.715-1.183,1.097-1.341l3.985-1.645c0.593-0.245,1.599-0.516,2.07-0.824l2.59-1.689
				c0.674-0.44,1.496-1.036,2.083-1.554l2.294-2.024l2.667-2.498c0.427-0.4,1.275-0.999,1.773-1.262
				c2.98-1.576,1.776-1.491,5.296-3.844c0.7-0.468,1.396-0.825,2.266-1.35l-0.925-0.791l-1.619-0.994l-2.209-2.066
				c-2.526,2.402-1.166,1.245-3.695,2.656l-1.478,0.825l-2.834,1.739l-2.121,1.336l-1.117,0.773l-1.849,0.781
				c-0.291,0.123-0.799,0.17-1.052,0.299c-0.21,0.107-0.416,0.713-0.539,0.95l-1.06,0.374c-2.029,3.005-1.669,0.609-3.753,3.88
				c-0.397,0.623-0.706,0.977-1.2,1.483c-0.375,0.384-0.78,0.942-1.156,1.392l-1.191,1.423c-0.517,0.618-1.963,1.754-2.773,2.252
				l-1.291,0.794c-0.984,0.605-1.632,1.57-2.293,2.544c-0.444,0.653-1.209,1.442-1.287,2.195c-0.049,0.479,0.859,1.262,1.154,1.624
				c0.816,1.003,1.73,1.995,2.851,2.569l3.036,1.554l1.566,0.801c0.687,0.352,2.018,1.054,2.542,1.653l2.118,2.416l1.351,1.55
				c0.698,0.801,1.623,1.846,2.858,1.216l3.415-1.745C35.421,241.253,37.381,239.853,37.9,238.924z"/>
			<g>
				<path d="M128.01,230.982c-3.733,2.943-5.481,2.273-9.623,3.583c-0.631,0.2-1.305,0.462-1.896,0.586l-2.096,0.44
					c-0.669,0.14-1.523,0.279-2.224,0.365l-2.576,0.314l-2.008,0.277l-1.785,0.244c-1.423,0.194-3.233,0.211-4.578-0.09
					c-0.612-0.137-1.1-0.283-1.692-0.29l-1.066-0.29l-2.625,0.251c-0.737,0.07-1.932-0.732-1.967-1.42
					c1.018-1.089,1.49-2.297,2.076-3.526c0.608-1.274,1.222-2.37,1.664-3.779c0.355-1.132,2.016-2.178,3.084-2.36
					c0.32,0.008,1.133,0.154,1.415,0.264l0.908,0.353c1.133-0.35,3.42,0.214,4.342,0.021c2.009-0.421,3.711-0.736,5.598-1.663
					l1.938-0.951c2.399-1.178,0.785-0.198,3.125-1.439c1.033-0.548,2.327-0.637,3.558-0.772l2.508-0.274
					c0.373-0.041,1.426-0.362,1.571-0.035l0.859,1.937c-2.243,1.606-4.107,1.044-5.412,1.41l-2.894,0.811
					c-1.902,0.533,0.668-0.107-2.399,1.332l-1.773,0.832c-0.96,0.45-1.872,0.763-2.971,1.062c-0.552,0.151-1.444,0.735-1.955,0.788
					l-1.338,0.139c-3.33,0.346-3.335-0.41-7.036-0.228c-0.265,0.69-0.598,1.45-0.723,2.034l-0.462,2.157l1.197,0.197
					c3.777,1.505,1.998,0.073,7.166,0.204c0.768,0.019,1.987-0.224,2.607-0.41c0.224-0.067,0.904,0.019,1.116-0.021l2.747-0.513
					c0.563-0.105,1.533-0.165,2.004-0.33l2.52-0.884c0.56-0.197,1.415-0.662,1.905-0.774c1.943-0.227,3.919-0.942,5.587-1.981
					c0.624-0.389,1.762-0.587,2.194,0.141C129.049,229.448,128.597,230.518,128.01,230.982z"/>
				<path d="M58.981,233.924l2.686,0.18c0.512,0.034,1.421,0.136,1.905,0.272l4.928,1.383c2.728,0.766,5.25,0.835,7.069,1.833
					c0.549,0.301,0.668,1.756,0.656,2.428c-1.14,0.007-2.093,0.081-3.149-0.059l-1.99-0.262l-2.85-0.391l-2.577-0.966
					c-0.628-0.235-1.116-0.297-1.712-0.7c-0.574-0.387-1.854,0.098-2.508-0.042c-2.937-0.632-4.17-1.2-7.599-0.336l-2.515-0.522
					l-1.476-0.233c-0.238-0.037-0.793-0.361-0.863-0.56c-0.164-0.464-0.035-2.308,0.823-2.696c0.198-0.41,0.45-1.27,0.619-1.837
					l0.861-2.88l0.156-1.478l1.621-0.789c0.33-0.16,0.879-0.34,1.278-0.391c2.509-0.322,2.203,0.738,4.192,1.238l1.81,0.455
					l4.82,1.215c0.545,0.137,1.493,0.135,2.134,0.225c2.875,0.405,2.634-0.727,5.676-0.355l1.132,0.986
					c0.948,0.825,0.858,2.787,0.407,3.448c-0.977-0.316-1.808-0.123-2.608,0.377l-1.699-1.502c-1.892,0.577-3.587,0.489-5.44,0.133
					l-2.717-0.523l-1.771-0.341c-0.385-0.074-1.036-0.243-1.372-0.248l-1.482-0.019c-0.633-0.197-1.793-0.557-2.385-0.526
					c-0.198,0.01-0.018,0.891-0.076,1.094l-0.527,1.843c0.507,0.176,1.375,0.334,2.042,0.379L58.981,233.924z"/>
			</g>
		</g>
		<path d="M157.848,185.728l-1.612,2.786c-0.36,0.622-1.055,1.526-1.588,2.09c-0.277,0.294-0.095,1.379-0.252,1.804l-1.145,3.107
			c-0.169,0.457-0.654,1.068-1.008,1.539l-0.234,1.462c-1.081,1.124-1.902,4.155-2.341,5.752c-0.126,0.46-0.542,1.157-0.811,1.641
			l-1.767,3.167c-0.648,0.334-2.211-0.039-2.914-0.052c-2.811-0.053-2.747-0.761-5.619-2.491c-0.5-0.301-1.183-0.743-1.226-1.281
			c-0.057-0.724-0.247-1.521-0.086-1.92l0.703-1.738c2.34-5.79,0.557-1.7,3.508-5.944c2.309-3.32,0.164-1.201,1.44-2.737
			c0.42-0.505,0.673-0.893,0.916-1.469c1.168-2.763,0.736-0.264,1.614-2.928l0.578-1.754c0.934-2.836,1.81-2.927,1.66-6.435
			c-0.028-0.645,1.795-1.136,2.223-0.628c0.746,0.887,1.543,1.823,1.026,3.218l-1.765,4.765c-0.12,0.323-0.611,0.932-0.753,1.24
			l-0.904,1.956c-0.263,0.569-0.586,1.054-0.984,1.601c-0.538,0.739-0.94,1.747-1.427,2.537c-0.861,1.398-2.021,2.876-2.435,3.837
			l-0.89,2.063c-0.334,0.774-0.59,2.009-0.418,2.689l1.601,1.097c0.411,0.282,1.605,0.793,1.926,0.437
			c0.43-0.476,0.972-1.184,1.207-1.616l1.037-1.907c0.256-0.47,0.699-1.031,1.083-1.503l0.509-1.481l1.559-1.896
			c1.404-1.707,0.118-1.174,1.169-3.593l1.064-2.449l0.706-1.564c0.129-0.285,0.728-0.872,0.804-1.187l0.347-1.445l0.448-1.864
			c0.148-0.616,1.763-0.687,2.234-0.405L157.848,185.728z"/>
		<path d="M199.864,97.172c0.362,1.407,0.552,2.567,0.5,3.798l-0.815,1.87c-1.297,2.977,0.111,0.486-1.181,3.579l-1.111,2.66
			c-0.443,1.061-1.089,2.308-1.333,3.396l-0.908,4.051c-0.502,1.339-0.824,2.682-1.108,4.086l-0.424,2.098l-0.353,1.75
			c-0.291,1.443-3.893,0.722-5.27-0.026l-3.739-2.028c-0.661-0.358-1.498-0.858-2.153-1.265l-0.408-1.793l0.638-1.599l1.176-3.092
			l0.799-1.598c1.156-2.313-0.206-0.431,1.166-3.039c0.378-0.719,0.741-1.303,1.201-2.003l0.257-1.486l0.861-2.9
			c0.274-0.924,0.834-1.973,1.235-2.912l0.866-2.026l0.221-2.244c0.097-0.984,0.529-5.387,1.529-5.711
			c0.621-0.201,1.478,0.339,1.713,0.872c1.369,1.038,0.004,4.292-0.589,5.672l-1.727,4.018l-0.668,1.593l-1.173,3.137l-0.542,1.492
			c-0.349,0.962-0.693,1.936-0.967,2.943l-0.456,1.679c0.463,3.318-0.161,1.201-0.821,4.804c-0.07,0.38-0.305,1.415-0.063,1.702
			c1.043,1.235,2.021,2.274,3.53,2.601c0.215-0.222,0.719-0.715,0.787-0.957l0.639-2.267c0.124-0.44,1.103-1.004,1.305-1.41
			l0.813-1.691l0.085-2.307c0.052-1.41,2.02-0.896,1.448-2.539l0.331-1.474c0.082-0.366,0.527-1.024,0.782-1.407l0.345-1.46
			l0.833-3.165c0.51-1.056,0.641-2.338-0.112-3.356l0.362-1.506L199.864,97.172z"/>
		<g>
			<path d="M215.785,0l0.662,0.879c0.491,0.652,0.762,4.197,0.697,5.024l-0.143,1.792c-0.201,2.526-2.125,1.067-0.728,7.189
				c0.067,0.293-0.067,1.063-0.111,1.401c-0.437,3.29-0.844,1.7-1.048,3.645l-0.215,2.049l-0.871,4.78l2.896,0.281l0.841-1.708
				c0.484-0.982,1.002-1.952,1.202-3.019l0.419-2.229l0.463-2.327l0.623-1.326l0.332-1.475l0.537-2.658
				c0.093-0.462,0.006-1.278,0.03-1.77c0.079-1.62,0.356-3.294-0.492-4.812c-0.401-0.718-0.853-1.698-0.833-2.43l1.489-1.445
				c0.72,0.433,1.229,0.923,1.73,1.558c1.288,1.632,0.743,6.479,0.091,8.344c-0.045,2.046-1.238,3.652-1.155,4.26
				c0.097,0.717,0.174,2.107,0,2.847l-0.509,2.169c-0.25,1.067-0.503,2.164-0.686,3.249l-0.384,2.273l-0.319,1.976l-0.319,2.354
				c-0.084,0.617-1.46,1.34-2.031,1.032c-0.613-0.331-1.246-0.742-1.662-0.885l-2.247-0.77c-2.003-0.686-0.858,0.715-3.024-0.393
				c-0.399-0.204-0.866-1.126-0.681-1.496l1.049-2.1c0.177-1.172,0.443-2.107,1.23-2.878c-1.209-2.421-0.279-1.342,0.12-3.639
				c0.644-3.705-0.278-2.917-0.074-6.658c0.026-0.481,0.471-1.339,0.621-1.908c0.201-0.759,0.119-2.057,0.382-2.723
				c1.13-2.864-0.13-1.839-0.317-5.522l-0.096-1.905L214.358,0H215.785z"/>
			<path d="M215.764,54.466l-1.286,2.201c-1.719,2.943-0.388,2.459-1.48,3.844c-1.577,1.999-0.187,0.662-1.69,3.836
				c-1.646,3.475,0.315,2.054-1.369,6.008l-0.34,2.029c-0.248,1.48-0.259,2.813-0.485,3.461l-0.585,1.674l-0.187,0.535
				c-0.197,0.563-2.11-0.309-2.761-0.734l-1.832-1.196L201.798,74l-1.493-0.944c-1.944-1.229,0.806-4.44,0.858-5.648
				c0.024-0.556-0.284-1.503-0.105-1.923c0.332-0.778,0.757-1.709,0.949-2.5l0.443-1.833l1.448-4.009
				c0.622-1.723,0.306-1.545,0.9-3.638l0.638-2.249c0.928-3.269-0.234-1.929,0.756-4.578c0.358-0.958,0.902-1.559,1.829-1.878
				l0.892,1.469c0.16,0.263-0.159,1.133-0.184,1.464l-0.169,2.212c-0.036,0.469-0.404,1.416-0.592,1.895l-0.644,1.641l-1.404,3.468
				c-0.313,0.772-0.531,1.521-0.802,2.352l-0.757,2.321c-0.898,2.752-0.634,2.873-1.399,5.202c-0.588,1.79-0.281,2.525,0.98,4.401
				c0.404,0.601,0.973,1.048,1.73,1.593l0.906-2.049c0.119-0.268,0.208-0.971,0.347-1.182c0.218-0.331,0.527-0.954,0.588-1.29
				l0.302-1.68l1.197-2.849l1.729-4.25c1.022-2.511,2.151-3.898,2.279-4.298l0.77-2.403l0.583-1.716
				c-0.454-1.505-0.476-3.132,0.347-4.486c0.325-0.535,1.321-0.934,1.646-0.498c0.328,0.439,0.815,1.043,0.983,1.403
				c0.265,0.57,0.248,2.029,0.065,2.644l-0.667,2.236C216.577,52.973,216.064,53.953,215.764,54.466z"/>
		</g>
		<path d="M213.669,188.46c-1.276-1.26-0.397-1.17-1.951-2.564l-0.9-1.46c-0.15-0.243-0.087-0.91,0.146-1.068l0.678-0.46
			c0.152-0.103,1.554,1.103,1.846,1.418l1.262,1.362l1.448,1.445l0.61,1.419c0.114,0.264,2.981,3.648,3.824,3.906l2.576,2.971
			c0.165,0.19,0.287,0.944,0.337,1.246c0.042,0.254,0.787,0.44,1.046,0.356l2.478-0.8l0.811-0.662l2.046-0.096
			c0.171-0.094,0.145-1.184-0.102-1.466l-1.6-1.826c-0.35-0.4-0.915-0.841-1.315-1.227c-1.822-1.756-0.362-0.097-2.357-1.935
			c-0.514-0.891-1.187-1.875-1.821-2.729c-0.419-0.564-0.825-1.298-1.218-1.914l-1.029-1.612c-0.853-1.336-2.21-1.023-2.112-3.025
			l1.589-0.995l1.626,1.005l0.964-0.202c0.15,0.765,0.329,1.973,0.689,2.457l1.15,1.544c0.247,0.331,0.741,0.736,1.144,1.109
			c0.646,0.598,1.246,1.729,1.898,2.27l1.451,1.204c0.392,0.326,0.774,0.743,1.134,1.122l2.229,2.345l1.273,0.989l2.805,2.779
			c-0.202,0.808-0.185,1.205-0.072,2.031c-0.105,0.252-1.358,0.767-1.864,0.66l-2.109-0.447c-0.421-0.089-1.455,0.139-1.86,0.283
			l-1.695,0.603l-0.829,0.781c-2.207,0.601-1.297,2.099-4.205,1.507c-1.678-0.342-3.145-1.581-2.981-2.815l0.21-1.586
			c-2.402,1.12-2.518-2.615-3.846-3.586C214.258,191.419,217.237,191.984,213.669,188.46z"/>
		<path d="M255.067,104.006c-2.728,2.46-0.576,1.273-2.678,3.061c-2.103,1.789-1.829,1.188-2.557,3.284
			c-0.221,0.637-1.468,1.431-1.83,1.987c-0.738,1.136-1.368,2.008-2.363,2.871l-0.507,0.938c-1.487,0.862-0.525,3.585-3.42,3.168
			c-2.295-0.33-2.517-3.307-3.675-4.063l-2.533-1.654c-1.283-0.837-2.573-0.967-2.879-3.442c-0.044-0.36,0.226-1.269,0.404-1.597
			c0.325-0.597,1.743-0.046,2.417-0.986l1.206-1.682c0.307-0.428,1.542-0.748,1.783-1.249c0.403-0.837,0.965-1.29,1.642-1.93
			c0.506-0.479,1.086-1.172,1.593-1.775c1.99-2.365,0.952-2.109,2.974-3.607c0.432-0.32,1.066-1.067,1.48-1.256l1.604-0.733
			c0.29,0.268,0.833,0.806,1.183,1.187c0.244,0.265-0.261,1.166-0.496,1.438l-1.08,1.248c-1.661,1.918-0.943,0.329-2.632,2.469
			c-1.056,1.338-3.077,3.437-4.401,4.475c-0.487,0.382-0.697,0.734-1.097,1.283c-0.39,0.536-1.092,1.18-1.484,1.812
			c-1.195,1.927,1.562,2.081,3.319,4.287c1.7,0.156,2.477-0.761,3.462-2.005c2.514-3.176,0.562,0.028,3.69-4.017l1.161-1.501
			c0.338-0.437,0.808-0.846,1.332-1.255l0.398-1.207c0.642-0.307,1.314-0.672,1.734-1.104l1.421-1.458l2.278,0.774
			C256.004,102.772,255.632,103.497,255.067,104.006z"/>
		<g>
			<path d="M260.069,240.798l0.724-2.487c-0.158-1.269-0.2-2.499-0.05-3.769l0.278-2.361c0.284-0.558,0.674-1.273,0.749-1.796
				l0.507-3.519c0.053-0.369,0.522-1.092,0.488-1.424l-0.207-2.036c-1.205,0.592-2.266,0.493-3.22-0.458l-2.956-0.096l-0.419,2.601
				l-0.326,2.268c-0.123,0.853-0.361,1.931-0.64,2.724l-0.518,1.476l-0.856,2.18c-1.342,3.415-1.171,2.143-2.422,6.288l-0.742,2.46
				c-0.175,0.581-0.651,1.479-0.922,2.03c1.022,1.203,0.409,1.366-0.149,3.6c-0.364,1.457-0.754,2.736-1.271,4.181
				c-0.053,1.18-0.595,2.933-1.903,3.235c-0.708,0.164-2.143-0.331-2.668-0.759c-1.993-1.625-2.066-1.2-3.911-2.433
				c-0.89-0.595-1.655-1.165-2.641-1.637c-0.461-0.221-0.855-0.471-1.175-0.798l-5.096-5.203c-0.504-0.515-1.06-0.991-1.663-1.499
				c-1.848-1.559,0.092-0.462-2.945-2.754l-1.056-0.345l-1.723-1.176c-0.571-0.39-1.185-0.723-1.816-0.985l-1.581-0.658l-1.075,0.62
				c-1.78,1.027-1.443,2.083-3.069,1.491c-0.4-0.146-1.418-0.734-1.413-1.157c0.006-0.509,0.525-1.292,0.812-1.685l1.097-1.503
				c0.715-0.98,1.658-1.493,2.921-1.424c0.698,0.038,1.826-0.002,2.365,0.271l2.514,1.274c0.648,0.328,1.444,1.346,2.072,1.737
				c0.536,0.333,1,0.612,1.404,0.928l2.138,1.671c2.684,2.098,1.481,2.352,2.237,2.54c0.52,0.129,1.202,0.64,1.532,0.991
				l1.156,1.228c1.386,1.472,1.927,0.835,3.271,2.653c0.196,0.265,0.622,1.072,0.905,1.218l2.947,1.521
				c0.6,0.31,0.989,0.462,1.744,0.679l1.001,0.967c0.294-0.683,0.519-1.222,0.761-1.875l0.704-1.903
				c1.276-3.446,0.071-0.88,1.058-3.735c0.111-0.321,0.128-1.184,0.257-1.498l0.663-1.617c0.289-0.704,0.515-1.365,0.678-2.153
				c0.406-1.963,1.158-2.227,2.303-5.048l0.928-2.286c0.221-0.544,0.358-1.574,0.557-2.31c0.838-3.109-1.603-3.739,0.667-6.75
				l0.167-1.607c0.049-0.476,1.016-1.185,1.5-1.258l2.006-0.303l3.535,0.607c0.773,0.133,1.715,0.481,2.612,0.708l1.366-0.692
				c0.345-0.175,0.969-0.664,1.313-0.936l1.485,0.936c0.788,2.3,0.257,2.662-0.411,4.705c-0.429,1.312-0.665,2.557-0.908,4.007
				c-0.411,2.454-0.573-0.678-1.108,3.68c-0.367,2.994-0.468,0.121-1.123,5.123l-0.264,2.013l-0.303,2.301l-0.116,1.934
				l-0.267,2.044l-0.751,4.536l-0.297,2.884l-0.175,1.715c-0.034,0.33,0.036,1.131-0.054,1.496c-0.691,2.796-1.371,3.38-1.546,5.624
				c-0.156,1.987-1.841,2.502-2.685,2.218l-2.029-0.682l-2.161,0.741l-2.369,0.81c-2.706,0.925-3.774,3.4-7.689,0.163l-2.032-1.68
				c-0.609-0.503-3.663-1.773-4.275-2.234l-2.016-1.518c-2.128-1.602-0.285,0.042-2.811-2c-2.992-2.419-1.539-0.736-3.793-3.133
				c-0.434-0.462-1.661-0.9-2.107-1.474c-0.837-1.079-1.86-0.835-4.627-2.012c-3.139-1.335-2.536-0.582-2.88-1.771
				c-0.51-1.759-3.955,1.638-5.646-2.311l1.716-2.565c0.256-0.383,0.558-1.395,0.737-1.785c0.607-0.281,0.919-0.581,1.142-1.277
				c0.336-0.322,1.076-0.867,1.655-1.231c3.079,1.144,0.17,4.254,1.254,5.508c0.152,0.176,3.13,2.354,3.755,2.078l1.326,0.579
				c0.732,0.32,1.355,0.672,1.944,1.236c1.643,1.577,1.886,0.062,2.666,1.898l0.962,0.745c0.429,0.374,0.816,0.688,1.268,1.026
				l1.448,1.085l1.971,1.495c0.486,0.368,1.148,0.789,1.719,1.094l2.038,1.089c0.69,0.368,1.712,0.627,2.334,1.068l1.9,1.347
				c0.387,0.274,1.148,0.575,1.702,0.863c0.539,0.28,1.568,0.941,2.111,0.868l2.084-0.279l1.121-0.782
				c3.719-0.127,1.516-0.803,5.463-1.425c0.407-0.064,1.564-0.138,1.721-0.524l0.684-1.678c-0.182-0.772-0.09-1.318,0.234-1.998
				c1.811-3.797,0.359-1.639,0.916-4.417l0.537-2.674l0.385-2.184c0.084-0.477,0.155-1.097,0.276-1.462
				C260.616,241.998,259.067,244.24,260.069,240.798z"/>
			<path d="M230.329,218.778l-0.743-2.313c-0.692-0.533-2.256-3.422-1.147-4.041c0.386-0.216,1.327,0.358,1.722,0.639
				c1.146,0.816,1.628,1.889,2.023,3.215l0.518,1.733c0.123,0.413,0.568,1.078,0.736,1.464l1.224,2.8
				c0.389,0.89,0.672,1.957,1.23,2.734l0.877,1.222l0.216,1.216l1.665,0.173l1.884-0.336l1.823,0.215
				c-0.068-2.269-0.824-4.4-1.593-6.456l-0.579-1.549c-0.599-1.602-1.813-3.177-1.871-3.409c-0.596-2.371-1.401-1.424-2.846-4.335
				l0.394-1c0.177-0.45,0.426-1.032,0.734-1.181c0.307-0.148,1.096,0.024,1.385,0.206l1.446,0.913
				c0.052,1.951,0.092,1.863,1.063,3.773l1.177,2.315l0.779,1.532l0.58,0.716l0.562,1.474l1.081,2.565l1.123,2.905l0.893,2.337
				c0.294,0.77,0.207,1.638-0.216,2.451c-0.891,1.713-4.535,1.454-4.822,0.107c-3.057-0.065-3.25,0.998-6.849,0.545
				c-0.415-0.604-0.776-1.095-1.193-1.58c0.366-2.131-0.15-1.572-1.514-4.423C230.061,221.163,231.799,223.355,230.329,218.778z"/>
		</g>
		<path d="M220.29,101.164l1.155,0.791l-1.281,2.059c-0.777,1.249,0.044,0.74-0.768,3.128l-0.791,2.326l-0.968,2.848
			c-0.681,2.006-2.325,2.34-1.714,3.213c0.173,0.247,0.443,0.449,0.4,0.536c-0.065,0.132-0.285,0.41-0.328,0.553l-0.356,1.183
			l-0.576,1.903l-0.878,2.91c-0.106,0.351-0.404,0.976-0.569,1.38l-0.75,1.833c-1.162,2.84-0.773,2.881-1.772,5.385
			c-0.5,1.254-0.514,2.433-0.826,3.811l-0.7,3.093l-0.141,1.99c-0.426,0.752-0.703,1.922-0.359,2.602
			c1.311,0.005,2.768,0.007,3.735-0.12c0.968-0.127,1.057-1.831,5.131-0.296c0.901,0.34,1.802,1.747,2.772,1.459l1.871-0.555
			l1.634-0.424c0.682-0.177,1.905-0.052,2.495,0.339l1.829,1.214c0.403,0.267,1.352-0.168,1.885-0.366l2.553-0.95
			c1.647-0.613,2.642-1.965,5.251-1.63c0.863,0.111,1.29,0.091,1.952-0.185l1.696-0.706l1.144-2.236
			c0.217-0.424,0.369-1.46,0.555-1.927l1.07-2.677l-1.498-0.596c-0.466-0.185-1.393-0.672-1.868-0.656l-3.781,0.123l-3.172,0.2
			c-1.469,0.092-3.046,0.344-4.3,0.801c-2.038,0.742-4.925,1.247-7.091,0.674c-0.993,1.225-2.136,1.184-3.414,1.941
			c-0.706,1.158-2.015,1.524-2.859,1.327c-0.267-0.062-0.579-0.714-0.622-1.026c-0.184-1.356,0.653-2.287,1.383-3.241
			c3.062-4.001,1.053-4.284,3.825-6.496l-0.485-0.757c-0.226-0.352-0.066-1.357,0.243-1.686l1.291-1.372
			c-0.434-0.398-0.739-1.445-0.316-1.883c1.93-1.998,0.174-2.428,1.387-4.662l-0.096-0.984l0.693-3.386
			c0.1-0.49,0.243-1.013,0.117-1.468c-0.575-2.083-0.257-3.79,0.762-5.468c-0.904-3.466,1.419-5.574-0.981-8.088
			c-0.594-0.622-1.148,0.408-3.575-0.736c-0.381-0.18-0.862-0.935-0.857-1.332c0.006-0.525,0.474-1.099,1.213-1.408
			c1.203-0.503,0.472,1.031,4.181,0.236c0.425,0.196,1.342,0.599,1.692,0.902c0.528,0.457,1.252,1.515,1.445,2.177
			c0.163,0.557,0.1,1.571,0.217,2.153c0.085,0.425,0.546,1.386,0.448,1.796l-0.773,3.239c-0.169,0.711-0.268,1.323-0.295,1.955
			l-0.108,2.572l-0.65,3.698c-0.192,1.092-0.114,1.889-0.559,3.032c-0.283,0.726-0.16,2.146-0.407,2.944
			c-1.17,3.783-0.338,1.215-1.071,4.365l-0.54,2.321c-0.32,1.376-0.687,3.161-1.352,4.303c0.193-0.332-1.748,1.191-0.688,2.612
			c1.122-0.351,3.869-0.433,4.795-0.422l2.341,0.028c1.341,0.016,2.075-0.971,3.827-1.222c0.939,0.209,1.333,0.073,2.206-0.127
			c2.972-0.681,5.349,0.408,8.149,0.012l2.577,0.34c1.19,0.157,2.239,0.697,2.736,1.957c0.154,0.389-0.106,1.168-0.287,1.597
			c-1.108,2.63-0.857,1.494-2.103,4.549l-0.754,1.847c-0.098,0.24-0.043,0.935-0.071,1.208l-0.162,1.603l-3.171,0.564
			c-0.78,0.139-1.71,0.267-2.5,0.342l-2.323,0.218c-0.291,0.027-0.93,0.147-1.191,0.267l-2.367,1.092l-1.823,0.82
			c-1.328,0.597-2.745,1.214-4.137,1.352l-1.708-0.732c-0.334-0.143-0.952-0.663-1.383-1.032l-4.604,1.14
			c-1.072,0.265-2.332-0.331-2.935-1.115c-0.25-0.325-1.191,0.031-1.545,0.031l-7.523,0c-1.403-1.372-3.402-0.945-3.872-2.728
			l1.685-5.063c0.519-1.56,0.02-1.575,1.065-4.878l0.487-1.541l0.882-2.779c0.451-1.42,2.726-2.612,1.558-4.183l1.344-3.221
			c0.589-1.411,0.944-2.827,1.52-4.27l0.707-1.772c0.222-0.555,0.429-1.109,0.604-1.653l0.584-1.819
			c0.243-0.756,1.005-1.803,1.169-2.599c0.207-1.006,0.366-1.909,0.748-2.745l1.898-4.156c1.536-3.363,0.206-2.691,0.938-3.774
			l0.69-1.021c0.159-0.236,1.207,0.093,1.213,0.374l0.045,2.129L220.29,101.164z"/>
		<path d="M190.354,167.268l-1.689-1.794c-1.462-0.985-2.719-0.321-3.111-2.118l0.618-1.546c0.746,0.002,1.415,0.143,2.065,0.392
			l1.743,0.67c0.35,0.135,2.91,2.497,3.466,3.038c2.375,2.314,1.003,1.756,3.382,4.299l1.265,1.352
			c0.305,0.326,0.707,0.785,1.028,0.878c0.893,0.26,2.773-1.903,3.173-3.011l1.411-1.386c0.187-0.183,0.169-1.156-0.021-1.341
			l-2.096-2.033l-1.226-1.164c-0.735-0.698-1.614-1.377-2.485-2.052c-0.307-0.238-1.162-0.571-1.357-0.877
			c-0.34-0.536-0.845-1.238-1.266-1.58l-2.729-2.221c-0.37-0.301-0.982-1.103-1.187-1.64c-0.161-0.42,0.421-1.302,0.826-1.492
			c1.403-0.657,1.739,0.345,3.288,1.74c0.618,0.557,1.226,1.832,1.799,2.429c0.301,0.313,1.114,0.763,1.469,1.068
			c1.495,1.288,2.127,1.27,2.823,1.795c0.705,0.533,1.358,1.703,2.118,2.074c1.677,0.819,2.904,1.771,3.973,3.259l0.635,0.883
			c-0.038,0.55-0.058,1.118,0.005,1.53c0.189,1.234-1.433,1.449-2.139,1.422c-0.256,0.001-0.692,0.699-0.869,0.888l-1.788,1.91
			c-2.501,2.671-0.294,0.594-2.525,3.948l-1.642,0.234c-0.4,0.057-1.073,0.073-1.433-0.031c-0.323-0.093-0.568-0.839-0.792-1.092
			l-1.235-1.389c-0.278-0.312-0.608-1.028-0.852-1.415c-0.266-0.421-0.716-0.968-0.821-1.377c-0.535-2.082-0.386-0.385-2.341-2.584
			L190.354,167.268z"/>
		<path d="M286.322,71.485c-1.089,1.393-2.743,1.48-3.854,3.396c-0.752,1.297-1.589,2.204-2.785,3.036
			c-0.511,0.778-1.095,1.5-1.74,2.184l-1.815,1.925l-1.382,1.479l-1.826,1.892l-2.439,2.408l-1.042,1.042
			c-0.814,0.538-2.606,0.412-3.319-0.23l-1.63-1.47l-1.265-0.211c-0.757-0.405-3.395-0.985-4.184-0.591
			c-0.501-0.249-1.308-0.659-1.873-1.03c-0.85-0.559-0.111-1.88,0.481-2.301c0.614-0.437,1.112-0.834,1.62-1.281l1.678-1.479
			c2.244-1.978,1.725-1.004,3.543-3.086c1.057-1.21,1.162-0.373,3.405-2.767l1.279-1.364l1.457-1.317
			c0.707-0.639,1.04-1.417,1.947-1.823c0.734-0.329,1.149-1.073,1.277-1.828c0.467-0.653,1.038-1.355,1.376-1.998l0.813-1.551
			c0.304-0.581,1.911-2.706,2.503-2.935c0.226-0.206,0.66-0.854,0.775-1.149c0.037-0.968,1.409-3.345,2.251-3.808l0.644-1.904
			c0.132-0.389,0.182-1.479,0.549-1.682l1.369-0.757l1.441,0.955c1.059,0.702-0.247,3.835-0.655,4.491l-1.59,2.557
			c-0.109,0.175-0.262,0.809-0.316,0.971c-2.092,2.823-1.397,0.807-3.178,3.7c-0.793,1.289-0.595-0.191-1.763,2.186l-1.008,0.417
			l-0.402,1.059l-1.159,0.275c0.021,0.743-0.415,1.988-0.935,2.348c-0.11,0.076-0.679-0.183-0.764-0.079l-0.503,0.623l-1.162,1.439
			c-0.813,1.007-1.821,1.964-2.776,2.882l-1.176,1.131c-1.003,0.965-1.831,2.062-2.172,2.362c-1.157,1.018-2.14,2.005-3.014,3.322
			c0.734,0.381,1.059,0.555,1.532,0.756l1.674,0.709c0.489,0.207,1.654,0.449,2.107,0.165c0.803-0.504,1.967-1.201,2.504-1.762
			l1.879-1.959c0.399-0.416,1.297-0.989,1.649-1.415l1.818-2.197l1.581-1.868c1.47-1.736,1.428-0.899,3.94-4.036
			c1.369-1.71,1.344-2.582,3.183-2.601c0.709-0.007,1.399,0.537,1.349,1.079C286.163,70.402,286.171,70.475,286.322,71.485z"/>
		<g>
			<path d="M0,72.779v-0.285l0.433-0.85c0.643-1.261,2.161,0.09,4.15-1.103l2.914,0.598c1.322,0.271,3.99,0.142,5.019,0.293
				l2.898,0.426l2.683,0.448c4.43,0.74,3.999,1.816,7.298,1.937l4.04,1.068c0.46,0.122,1.511,0.167,1.988,0.182l1.682,0.054
				c1.427-0.231,2.849-0.217,4.298-0.016l1.828,0.254l1.357,0.45c1.15-2.202,1.34-1.447,2.235-2.953
				c0.079-0.132-0.327-0.623-0.468-0.683l-1.914-0.803l-2.07-0.815c-3.903-1.536-3.444-2.253-7.654-3.165
				c-3.639-0.789-1.573-0.325-5.344-0.496c-0.516-0.024-1.459-0.332-1.926-0.563c-2.532-1.251,0.14,0.078-3.138-0.93
				c-0.413-0.127-1.23-0.064-1.723-0.087l-2.642-0.125c-2.674-0.126-2.488,1.263-4.422,0.261l-3.284-1.701l0.37-1.93
				c3.126-1.44,4.946,0.145,5.96,0.174l6.267,0.182c0.772,0.022,2.962,1.119,6.259,1.44l2.326,0.227
				c0.522,0.051,1.294,0.253,1.857,0.403c4.052,1.079,2.099-0.039,6.553,2.216c2.184,1.106,3.56,1.417,5.131,2.616l1.426,0.264
				c1.196,1.244,3.153,1.078,3.179,2.133c0.014,0.558,0.093,0.963,0.371,1.538c-0.058,1.178-1.136,1.59-2.662,2.646l-0.938,0.649
				l-0.488,1.606l-0.533,1.569c-3.324,0.465-3.557-2.057-5.207-1.893L36.233,78.2c-0.493,0.049-1.26,0.182-1.627,0.086l-1.457-0.381
				c-1.045-0.273-2.462,0.117-3.384-0.104l-2.605-0.624c-0.543-0.13-1.15-0.293-1.739-0.4l-1.815-0.332
				c-0.413-0.075-1.357,0.04-1.789-0.099l-2.641-0.849c-0.2-0.064-0.72-0.301-0.948-0.398c-1.045-0.055-2.354,0.056-3.336-0.106
				l-3.949-0.652c-2.583-0.426-0.927,0.731-3.59-0.195l-1.407-0.113L4.72,73.933c-0.491-0.04-1.076,0.209-1.537,0.57
				c-0.939,0.734-2.451,0.124-2.844-0.868L0,72.779z"/>
			<path d="M63.726,88.391L61.8,87.648c-0.443-0.171-1.237-0.713-1.718-1.014l-1.468-0.919c-0.344-0.215-0.799-0.943-0.737-1.325
				c0.253-1.564,2.796-1.437,3.929-1.296c0.742,0.645,1.453,1.194,2.227,1.511l4.285,1.755c0.351,0.144,1.135,0.355,1.611,0.448
				c3.158,0.615,2.804-0.326,5.076,0.885c4.186,0.689,3.901,1.449,7.33,2.995l2.219,1.168c1.463,0.771,3.001,1.149,4.597,0.794
				c0.44-0.741,0.8-1.404,1.215-2.02l1.572-2.333c-2.869-2.81-1.566-1.513-4.178-3.095l-1.608-0.974l-0.579-0.841l-2.269-1.163
				c-0.182-0.093-0.683-0.477-0.917-0.509c-3.731-0.515-2.894-1.28-5.267-1.405c-0.505-0.026-0.843-0.089-1.256-0.21l-4.7-1.382
				c-0.801-0.236-1.59-0.501-2.449-0.851c-0.682-0.277-0.014-1.726,0.569-2.009c3.027-1.468,3.092,0.15,5.936,0.778l2.371,0.524
				l2.85,0.863c0.986,0.298,2,0.674,2.982,1.017l1.896,0.662c1.481,0.517,2.656,1.673,4.004,2.491
				c1.774,1.075,3.7,1.468,4.802,3.168l1.67,0.933c0.621,0.347,1.211,0.845,1.74,1.475c0.589,0.702,0.05,1.999-0.338,2.48
				c-0.449,0.557-1.851-0.18-2.842,0.602c-1.363,1.076-0.837,1.062-2.29,3.179l-1.193,1.738c-0.424,0.618-1.502,1.146-2.238,0.915
				l-2.307-0.726l-1.791-0.949c-0.85-0.45-1.59-0.813-2.315-1.44l-1.22-0.463l-1.8-0.782l-1.814-0.785
				c-1.8-0.779-3.696-1.116-5.619-1.235c-1.306-0.848-1.809-0.115-3.179-0.494l-3.396-0.938
				C64.756,88.751,64.15,88.555,63.726,88.391z"/>
		</g>
		<g>
			<path d="M107.938,107.285c-3.018-2.011-3.134-0.184-4.4-2.241c-0.36-0.586-0.588-1.835,0.169-2.151
				c0.337-0.141,1.276-0.375,1.674-0.46l2.811,1.125c1.542,0.617,2.889,1.385,4.089,2.487l2.035,0.558
				c0.88,0.241,1.724,0.678,2.576,1.109c2.859,1.444,2.456,0.723,4.409,1.864l2.559,1.496c0.486,0.284,1.118,1.206,1.674,1.365
				l1.88,0.536c0.443,0.126,1.388,0.507,1.703,0.183l1.971-2.02l1.892-1.939c-1.177-0.616-2.404-1.414-3.528-2.278
				c-2.827-0.821-2.116-1.444-5.386-3.193c-2.356-1.26-0.425-0.345-3.006-2.772c-0.441-0.415-1.765-1.875-1.67-1.894l-0.933,0.182
				l-0.631-1.351c-0.425-0.602-0.853-2.019-0.185-2.419c0.519-0.312,2.008-0.148,2.339,0.306c0.234,0.321,0.666,1.094,0.811,1.452
				l0.48,1.191c1.343,0.391,3.778,3.11,4.431,3.455l2.721,1.438c0.622,0.329,1.279,0.59,1.932,0.963l1.545,0.88l2.417,1.112
				c1.184,0.545,2.231,1.222,2.659,2.541c0.113,0.349,0.495,1.329,0.207,1.554l-2.038,1.592l-2.696,2.534
				c-1.596,1.499-0.481,3.301-2.905,3.174c-0.599-0.031-1.184-0.316-1.553-0.698l-4.861-2.602c-2.372-1.27-1.672-1.427-4.002-2.514
				l-2.964-1.383c-0.482-0.225-1.34-0.85-1.817-0.982l-3.397-0.937C110.247,107.526,109.124,107.178,107.938,107.285z"/>
			<path d="M146.711,128.99c-0.779-0.757-1.382-0.9-1.955-2.943l-1.964-1.387c-0.138-0.097-0.498-0.528-0.421-0.678
				c0.77-1.504,2.877-1.455,3.229-1.085c1.026,1.079,1.783,2.06,2.675,3.137l1.038,1.254c0.27,0.326,1.108,0.723,1.507,0.982
				l1.5,0.973c0.365-0.323,0.96-0.784,1.229-1.085l1.229-1.378c0.868-0.974,2.416-2.149,2.18-2.819
				c-0.383-1.091-1.166-1.968-1.801-2.73l-0.023-0.816c-0.005-0.193-0.556-0.374-0.828-0.474c-1.368-0.503-0.24-1.543-1.597-1.493
				c-0.643,0.024-1.113-0.262-1.328-1.015l-2.991-0.637c-0.726-0.155-1.659-0.218-2.159-0.61l-1.243-0.976
				c0.296-0.488,0.883-1.499,1.402-1.52l1.485-0.06c0.211-0.009,0.746,0.275,0.967,0.361l1.662,0.65
				c0.46,0.18,1.297,0.396,1.631,0.617l1.587,1.051l1.92,1.211l1.821,1.111c1.262,0.77,3.201,3.785,3.385,4.685
				c0.074,0.362,0.057,1.298,0.036,1.718c-0.033,0.638-2.125,1.809-3.621,3.639l-1.176,1.438l-1.183,1.387
				c-0.744,0.873-1.517,1.48-2.71,1.455c-0.993-0.021-1.567-0.549-2.28-1.169c-0.561-0.487-1.349-0.989-1.874-1.499L146.711,128.99z
				"/>
		</g>
	</g>
</g>
</svg>
