<?xml version="1.0" encoding="iso-8859-1"?>
<!-- Generator: Adobe Illustrator 30.2.1, SVG Export Plug-In . SVG Version: 9.03 Build 0)  -->
<svg version="1.1" id="Layer_1" xmlns="http://www.w3.org/2000/svg" xmlns:xlink="http://www.w3.org/1999/xlink" x="0px" y="0px"
	 viewBox="0 0 275.317 336.981" style="enable-background:new 0 0 275.317 336.981;" xml:space="preserve">
<g id="VZsInf.tif">
	<g>
		<g>
			<path d="M243.101,169.647l-1.459,2.123l-1.556,2.148c-0.274,0.379-0.542,0.791-0.815,1.203l-1.246,1.884
				c-1.193,1.804-2.434,2.813-3.154,3.956l-1.991,3.165c-1.802,2.864-0.956,2.232-2.86,4.59c-0.945,1.17-2.118,0.046-2.706,0.936
				c-0.31,0.469-0.795,1.366-1.154,1.708l-1.875,1.786c-2.779,1.438-0.883,0.852-3.917,3.555c-0.916,0.816-1.961,1.516-2.756,2.396
				l-1.236,1.367l-0.089,2.734l0.597,0.618l-0.806,1.487c-0.107,0.197-0.556,0.492-0.758,0.583c-0.201,0.09-0.695-0.449-0.699-0.683
				l-0.051-3.08c-0.202-0.013-0.865,0.155-1.088,0.297l-2.252,1.428c-0.31,0.197-0.857,0.916-1.162,1.133
				c-4.859,3.461-4.094,1.728-6.451,3.493l-1.324,0.992l-2.39,1.71c-0.485,0.347-1.627,0.645-2.198,0.789l1.427,2.258l1.352,2.033
				c2.073,3.118-0.494,1.378,3.988,7.124c0.719,0.922,2.113,1.665,3.485,0.97c0.528-0.267,1.072-0.556,1.447-0.846l2.427-1.878
				l2.613-1.071c0.797-0.327,1.188-0.885,1.899-1.348c0.867-0.565,1.62-1.742,2.409-2.324c1.115-0.823,2.425-1.4,3.442-2.34
				l2.659-2.459l1.391-1.194l2.63-2.259c0.412-0.354,0.828-0.915,1.228-1.323l1.963-2c0.197-0.201,0.775-0.476,0.984-0.6
				c0.431-0.523,1.183-1.609,1.727-2.034l1.521-1.186c0.37-0.289,0.763-0.728,1.121-1.142c2.354-2.73,3.02-1.978,6.017-5.386
				l1.742-1.981c1.599-1.818,0.762-1.163,2.519-2.92c0.297-0.297,0.703-1.091,1.006-1.505l1.533-2.091l-0.498-0.573l1.001-0.207
				l0.866-1.701c0.333-0.655,0.813-1.231,1.367-1.762l0.419-1.006l1.471-1.752c0.308-0.366,1.451-0.161,1.817,0.17l1.264,1.142
				c0.311,0.281,1.071,1.086,1.48,1.005l1.833-0.359c1.549,1.642,3.622,1.472,4.258,4.745l-1.337,1.749
				c-1.064,3.56-1.097,1.778-2.385,5.141l-0.766,2l-1.14,2.979c-0.161,0.42-0.262,0.838-0.386,1.37
				c-0.234,0.998-1.181,1.798-1.802,2.683c-0.653,0.93-1.145,2.129-1.719,3.132l-1.281,2.239c-0.281,0.491-1.191,1.216-1.573,1.709
				l-1.019,1.314l-1.985,2.566c-0.509,0.658-0.996,1.262-1.565,1.887c-2.69,2.956-1.017,0.925-2.902,2.78l-3.042,2.994
				c-0.381,0.375-0.964,0.81-1.378,1.142l-1.919,1.539l-1.587,1.29c-1.155,0.939-1.714,1.994-2.785,2.857l-2.409,1.94
				c-0.846,0.681-1.823,1.213-2.776,1.815c-1.879,1.188-3.176,2.413-4.922,3.261c-2.639,1.281-0.913,0.867-4.445,2.451
				c-2.655,1.191-1.504,1.257-4.821,3.077c-0.393,0.216,0.721,2.281,1.052,2.861c0.375,0.658,0.555,1.352,0.831,2.082
				c0.628,1.664,2.003,3.106,2.973,4.616l0.806,1.254c0.197,0.307,0.411,0.682,0.407,0.929c-0.015,1.021-1.178,0.34-2.844,1.815
				l-1.714,1.517c-0.323,0.286-0.925,0.724-1.291,0.97c-1.137-0.647-1.863-1.42-2.457-2.424l-1.111-1.879
				c-0.613-1.038-1.024-2.18-1.574-3.326l-0.815-1.697l-0.752-1.52l-0.709-1.05c0.28-0.533,0.127-0.544-0.312-0.136l-2.31,0.809
				c-1.995,0.698-3.922,1.348-5.871,2.162l-2.638,1.101l-2.266,0.888l-2.065,0.734l-1.864,0.678c-0.479,0.174-0.962,0.393-1.409,0.6
				l-2.549,1.184c-1.163,0.54-2.422,1.013-3.648,1.446l-2.551,0.903l-1.7,0.618c-1.872,0.681-3.884,0.857-5.844,1.352
				c-0.571,0.144-1.433,0.554-2.05,0.752l-5.685,1.821c-0.775,0.248-1.838,0.265-2.581,0.378c-0.462,0.197-4.004,1.033-4.375,1.069
				l-3.423,0.333c-0.581,0.056-1.26,0.079-1.759,0.188l-2.372,0.518c-0.586,0.128-1.574,0.406-2.123,0.404l-4.862-0.011
				c-1.192-0.003-2.477,0.118-3.729,0.274l-2.076,0.258c-3.027,0.376-2.805,0.573-6.427,0.269c-3.162-0.265-1.197,0.238-5.698-0.266
				l-3.373-0.378c-0.318-0.036-0.983,0.088-1.303,0.099l-3.468,0.124c-0.695,0.025-1.79-0.567-2.392-0.643
				c-0.546-0.069-1.308-0.088-1.825-0.239c-2.184-0.641-4.109-0.654-7.332-1.318c-0.416-0.086-1.274-0.587-1.699-0.726l-1.949-0.637
				l-1.191-0.391c-0.79-0.26-2.097-0.354-3.163-0.996l-2.638-1.589c-2.334,0.03-3.099-1.042-5.443-2.293l-2.077-1.109l-2.344-1.312
				c-4.784-2.677-5.86-5.039-7.228-5.678l-2.372-1.107c-0.615-0.287-1.245-0.511-1.912-0.64l1.223,2.328
				c0.255,0.486,0.961,1.2,1.301,1.706l0.717,1.066c0.388,0.576,0.762,1.152,1.109,1.762l2.085,3.663
				c0.251,0.441,0.868,1.087,1.201,1.568c0.986,1.427,2.027,3.541,2.315,3.936l1.589,2.181c1.497,2.055,1.073,1.918,2.267,3.699
				l1.735,2.588l1.067,1.476l0.959,1.39l1.357,1.65l1.165,1.751c1.817,2.73,0.484,1.297,2.739,4.102l1.788,2.224l1.034,1.303
				c0.375,0.473,0.695,1.223,1.058,1.798c0.36,0.57,0.927,1.146,1.319,1.78l0.864,1.397l1.508,1.897l0.886,1.157
				c0.306,0.399,0.64,0.895,0.917,1.315l2.384,3.629c1.149,1.75,1.196,0.799,2.474,2.628l1.419,2.03
				c0.756,1.081,1.492,2.114,2.305,3.136l0.608,0.764c0.336,0.422,1-0.207,1.671,0.108l1.184,0.556l1.135,0.532
				c0.644-0.015,1.337-0.046,1.921,0.017l2.362,0.253c0.931,0.1,2.157,0.16,3.065,0.015l1.987-0.316
				c0.597-0.095,1.463-0.277,2.003-0.232l2.628,0.222l2.507,0.215c0.743,0.064,1.442,0.094,2.165,0.06l1.012-0.047l1.717-0.211
				c1.188-0.146,2.335-0.185,3.514-0.181c4.176,0.015,2.038,0.39,4.679,0.483l2.141,0.075c0.47,0.017,4.884-0.501,5.942-0.511
				l11.424-0.109l1.187-0.052l1.568-0.079l1.528-0.369l2.297-0.242c1.796-0.189,3.611-0.305,5.409-0.022l2.5,0.393l1.551,0.043
				l6.517,0.165l2.559,0.204l2.586,0.182l2.835,0.2l2.864,0.191l2.865,0.175l3.974,0.21c1.843,0.098,0.354-0.387,3.676-0.235
				c1.431,0.066,2.669,0.071,4.087-0.02c0.45-0.029,1.384,0.164,1.942,0.201l5.147,0.341l2.566,0.24l1.709,0.119l2.311,0.098
				c0.662,0.028,1.439,0.037,2.033,0.177l3.188,0.75c1.557,0.367,1.878,0.409,3.371,0.324l3.383-0.193
				c0.732-0.042,1.525-0.143,2.192-0.144l4.256-0.006c4.459-0.006,1.501,0.881,5.782,0.417c1.47-0.159,3.023-0.297,4.496-0.068
				c2.21,0.343,4.433,0.62,6.378,1.625l1.536,0.794l2.484,1.189c0.25,0.12,0.867,0.56,1.122,0.568l2.072,0.064l1.036,0.032
				c0.429,0.013,0.178,0.93,0.514,1.447l0.198,0.305c0.154,0.238-0.182,0.614-0.09,0.734l0.681,0.886
				c0.073,0.095,0.125,0.158,0.031,0.183l-0.613,0.164c-0.2,0.054-0.652,0.577-0.702,0.78l-0.784,3.208
				c0.048-0.196,0.42,1.286,0.222,1.416l-0.81,0.535l-0.36,0.24c-2.205,1.469-0.801,0.301-2.567,1.377l-0.352,0.214
				c-0.062,0.038-0.358,0.169-0.449,0.194l-10.264,2.811c-0.08,0.022-0.391,0.06-0.531,0.079l-1.222,0.163
				c-0.171-0.689-0.183-0.635-0.093,0.014l-1.179,0.447l-1.411,0.535c-2.113,0.801-3.953,1.343-6.2,1.775l-2.861,0.55l-3.169,0.599
				l-3.293,0.149l-2.732,0.438l-3.882,0.604c-0.749,0.117-1.539,0.199-2.29,0.248l-2.277,0.15c-3.257,0.215-1.828,0.328-4.84,0.509
				l-2.877,0.173l-3.135,0.188l-2.826,0.435l-2.887,0.282l-2.021,0.267c-1.109,0.146-2.502-0.007-3.526,0.229
				c-0.678,0.156-1.183,0.33-1.781,0.246c-2.696-0.376-0.526,0.211-3.817,0.376l-1.979,0.099l-2.053,0.098l-2.556,0.102
				l-7.627,0.066l-1.215-0.28c-1.38-0.317-3.318-0.044-4.714,0.091l-1.829,0.177c-0.333,0.032-1.145,0.264-1.546,0.264
				l-10.987-0.005c-0.741,0-1.763-0.242-2.275-0.073c-1.566,0.518,0.733,0.001-1.965,0.209c-1.2,0.093-2.284,0.169-3.476,0.197
				l-2.516,0.06l-1.448,0.035c-2.365,0.057-3.722-0.223-6.879-0.05l-1.661,0.091l-2.077,0.122c-0.764,0.045-1.527,0.151-2.259,0.292
				l-2.002,0.386c-1.326,0.255-2.674,0.136-4.022,0.07l-2.051-0.099l-2.186,0.333l-2.596-0.103l-3.103-0.13l-1.802-0.072
				l-8.18-0.165l-1.728-0.2l-1.818-0.11l-1.415-0.096c-1.9-0.129-3.464-0.16-5.302,0.017l-2.934-0.694
				c-2.514-0.595-0.331-0.47-4.317-1.035c-0.743-0.105-1.474-0.178-2.197-0.239c-0.551-0.046-0.964-0.197-1.595-0.271l-2.062-0.245
				l-2.229-0.651c-3.034-0.886-0.714,0.067-2.923-0.675c-0.143-0.048-0.37-0.171-0.438-0.135l-0.553,0.292
				c-0.384-0.048-1.249-0.096-1.621-0.196l-4.061-1.097c-2.257-0.61-4.157,0.065-4.298-0.786l-0.291-1.757l-0.278-1.704
				l-0.363,0.099l-0.555,0.154c-0.114,0.031-0.274-0.436-0.28-0.561l-0.063-1.458c-0.021-0.479-0.656-4.197-0.605-4.02l-0.892-3.104
				c-0.177-0.617-0.066-1.391-0.078-2.003c-0.024-1.272,0.768-1.91,1.872-2.221c0.996-0.281,0.565-1.085,3.553-2.626l3.033-1.565
				c0.325-0.168,1.046-0.29,0.784-0.793l-0.869-1.668c-1.662-3.189-2.315-2.521-4.485-7.228l-1.989-4.315l-0.662-1.433
				c-0.269-0.582-0.66-1.217-0.758-1.768c-0.366-2.053,0.067,0.473-0.797-1.454l-1.578-3.517c-0.524-1.168-1.261-2.176-1.886-3.267
				l-2.829-4.941c-0.224-0.391-0.474-1.34-0.695-1.779l-0.802-1.586c-0.173-0.343-0.33-1.003-0.527-1.521
				c-0.213-0.558-0.809-1.309-1.131-1.87l-0.963-1.676l-1.514-2.774l-1.361-2.679l-0.898-1.615l-0.828-1.512l-1.161-1.97
				l-1.561-2.345l-1.343-2.127c-0.795-1.258-1.828-3.277-2.333-4.633c-0.237-0.637-0.472-1.307-0.823-1.876l-1.432-2.324
				l-0.842-1.436l-1.681-3.736l-0.852-1.496l-1-1.803l-1.81-3.318l-1.242-2.23l-0.616-1.354l-2.183-4.104l-0.9-1.663l-1.415-2.663
				l-1.018-1.705l-0.863-1.788c-0.355-0.736-0.747-1.563-1.144-2.257l-1.561-2.734c-0.303-0.53-0.557-1.149-0.814-1.779
				c-0.128-0.314-0.566-0.862-0.747-1.167l-2.167-3.646l-1.858,0.476c-0.402,0.103-1.394,0.342-1.755,0.537l-3.123,1.696
				c-0.425,0.231-1.168,0.892-1.515,1.252c-1.882,1.951-4.056,1.249-4.085,0.748l-0.084-1.483c-0.04-0.7-0.254-1.569-0.504-2.184
				l-0.606-1.49c-0.39-0.958,0.048-1.977,0.562-2.79l1.135-1.796c1.459-2.308,2.473-2.396,3.913-4.021l1.113-1.257
				c0.419-0.473,0.748-1.225,0.474-1.77l-1.469-2.925l-2.214-4.678l-1.285-2.398c-0.699-1.304-1.426-2.567-2.01-3.92l-0.6-1.39
				l-0.829-1.764l-1.093-2.383c-0.2-0.435-0.528-1.065-0.78-1.461c-2.487-3.903-1.244-3.642-2.563-6.232l-1.167-2.292l-0.983-1.903
				c-0.36-0.697-0.629-1.696-0.951-2.476l-1.855-4.497c-0.214-0.519-0.742-1.281-0.893-1.827l-0.382-1.388
				c-0.215-0.781-0.611-1.437-1.327-1.838c-0.303-0.121-0.292-0.102-0.222-0.152c0.09-0.064,0.39-0.278,0.489-0.36l1.432-1.196
				c0.371-0.31,1.389-0.405,1.884-0.626l2.526-1.129c1.163-0.52,2.417-0.637,3.401-1.423c1.278-1.021,2.639-1.824,4.227-1.11
				l1.324,2.094c0.304,0.481,0.728,1.106,0.945,1.539l1.92,3.852l1.457,2.924c0.258,0.518,0.816,1.424,1.175,1.886l2.258,2.905
				c1.275,1.64,2.428,3.292,3.476,5.079l1.375,2.345c0.227,0.387,0.493,0.941,0.711,1.272l2.39,3.632
				c0.244,0.37,0.549,0.836,0.729,1.198l0.77,1.553c0.245,0.494,0.531,0.998,0.814,1.448l0.573,0.911l0.3,0.488
				c0.077,0.125,0.275-0.323,0.228-0.457c-0.049-0.14-0.383-0.674-0.406-0.819c-0.719-4.491-1.655-3.045-2.282-7.733
				c-0.116-0.869-0.54-1.81-0.904-2.665l-0.625-1.465c-1.271-2.98-0.931-3.095-2.081-6.161l-0.788-2.101l-1.056-2.684
				c-0.219-0.558-0.41-1.348-0.512-1.97l-0.533-3.247c-0.088-0.538-0.504-1.319-0.655-1.899l-0.538-2.059
				c-0.473-1.812-0.864-3.589-1.124-5.425l-0.251-1.771c-0.105-0.741-0.196-1.527-0.224-2.276l-0.075-2.014l-0.097-2.592
				c-0.041-1.1-0.305-3.088-0.265-3.664l0.185-2.638l-0.165-2.496c-0.077-1.161,0.133-2.1-0.048-3.242
				c-0.158-0.998,0.047-2.073,0.096-3.08l0.196-3.95c0.144-2.904-0.296-0.157,0.068-3.23l0.224-1.892l0.245-2.053
				c0.086-0.722,0.206-1.509,0.33-2.225l0.6-3.46c0.138-0.798,0.368-1.736,0.579-2.545l0.521-1.999l0.627-2.214
				c0.184-0.651,0.403-1.298,0.562-1.947l0.561-2.291l0.654-2.536l0.43-1.572l0.965-3.654l0.56-1.982
				c0.413-1.463,0.831-3.194,1.088-3.959l0.797-2.374l0.684-1.862l0.547-1.448l0.564-1.471c0.471-1.227,0.942-2.405,1.536-3.594
				l0.857-1.716l1.619-2.998l1.093-1.741c1.04-1.657,0.259-0.944,1.878-3.767c0.376-0.656,0.747-1.407,1.174-1.979l1.109-1.487
				l2.2-2.936c0.652-0.87,1.404-1.64,2.139-2.442l1.226-1.337l1.237-1.35l1.489-1.676c1.883-2.12,1.723-2.883,3.234-4.12
				l1.428-1.168c1.101-2.544,1.671-1.734,3.397-3.43l2.765-2.718c0.543-0.534,1.228-1.391,1.837-1.77
				c2.941-1.834,3.123-2.473,3.896-3.014l1.344-0.94c1.92-1.344,0.457-0.87,2.948-2.832c0.62-0.488,1.405-1.488,2.026-1.801
				l1.984-1.001c2.113-1.066,1.55-1.11,2.972-1.791c0.525-0.251-0.232-0.573-1.242-1.946l-1.231-1.674l-0.423-1.302l-2.065-2.364
				c-0.074-0.085-0.279-0.653-0.423-0.835l-0.258-0.328c-0.056-0.072-0.297-0.402-0.363-0.34c-0.098,0.093-0.407,0.381-0.487,0.492
				l-0.741,1.027l-2.026,0.724c-0.204,0.073-0.535-0.169-0.815-0.091l-0.531,0.148c-0.158,0.044,0.016,0.408,0.121,0.589l0.96,1.661
				c1.38,2.386,0.712,1.727,1.948,3.7l1.132,1.808c0.383,0.611,0.446,1.496-0.141,2.009c-0.121,0.106-0.495,0.325-0.56,0.242
				c-0.097-0.124-0.339-0.441-0.414-0.585l-0.975-1.879c-0.692-1.334-1.587-3.74-1.831-4.114l-0.948-1.452
				c-0.195-0.298-0.445-0.921-0.633-1.397L65.56,9.129c-0.105-0.266,0.773-0.84,1.027-0.799l2.435,0.389
				c0.841,0.134,1.47-1.192,1.821-1.823c0.243-0.378,1.375-0.698,1.921-0.707c1.454,1.077,2.124,2.765,3.247,4.472l1.137,1.727
				l0.925,1.406c0.243,0.369,0.665,0.788,1.067,1.185l0.699,1.067c0.82-0.123,1.695-0.289,2.37-0.567l1.872-0.772l-0.149-0.621
				c0.828,0.168,1.479,0.121,2.053-0.209l1.877-1.082c0.517-0.298,1.143-0.648,1.676-0.858l1.695-0.666
				c1.246-0.49,2.51-1.416,3.789-1.782c0.756-0.217,1.737-0.22,2.374-0.533c2.525-1.243,1.11-0.175,4.575-1.407l1.29-0.459
				l1.093-0.413c0.818-0.309,1.702-0.584,2.532-0.648l2.107-0.161c0.496-0.038,1.461-0.509,2.008-0.751
				c3.725-1.647,4.883-0.418,7.157-1.064l1.815-0.516c4.034-1.146,1.554-0.585,6.414-0.792c0.454-0.019,1.201-0.227,1.688-0.28
				l2.868-0.309l2.346-0.214c0.591-0.054,1.149-0.23,1.815-0.423c1.881-0.545,1.428,0.326,4.959-0.186l2.285-0.332
				c0.456-0.066,1.373-0.357,1.791-0.358c1.165,0.006,2.404,0.055,3.346-0.304c0.332-0.215,0.538-0.349,0.518-0.336l0.851,0.659
				c-0.174,0.523,0.314,2.01-0.491,1.886l-1.494-0.23c-0.693-0.107-1.775-0.138-2.433-0.033L142.433,2.6l-2.34,0.3
				c-0.866,0.111-1.644,0.079-2.535,0.069c-4.033-0.044-1.958,0.698-5.71,0.728c-2.385,0.019-2.844,0.421-4.009,0.468l-3.462,0.142
				c-1.364,0.056-4.844,0.919-7.185,1.209c-2.777,0.345-2.306-0.222-3.844,0.529c-5.474,2.674-5.318,1.152-8.306,2.238
				c-1.266,0.46-2.396,0.853-3.653,1.228l-2.003,0.599c-0.573,0.171-1.304,0.474-1.864,0.575c-1.234,0.223-2.288,0.465-3.339,1.008
				l-3.043,1.574l-1.498,0.784c-3.429,1.795-0.311,1.277-5.274,2.361c-2.811,0.614-1.391,0.935-5.243,2.222
				c-0.818,0.273-0.544,1.072-4.488,2.359c-2.085,0.681-0.901,1.057-2.336,1.876c-2.407,1.373-0.344,1.135-3.169,2.625
				C68.453,25.853,68,26.403,67.464,27c-0.782,0.869-2.22,1.183-3.072,2.055l-2.074,2.122c-1.037,1.061-2.036,1.658-3.025,2.791
				c-0.456,0.522-1.969,0.915-2.349,1.543c-0.244,0.403-0.489,1.246-0.761,1.527l-1.866,1.928c-1.285,1.328-2.255,3.041-3.525,4.429
				l-1.369,1.496l-1.226,1.34l-1.748,1.96c-0.777,0.871-1.701,1.851-2.293,2.734l-2.217,3.306c-0.898,1.34-1.363,3.002-2.192,4.424
				l-2.191,3.76c-0.457,0.785-0.488,1.463-1.706,3.457c-1.247,2.041-1.685,3.666-2.925,6.253c-0.115,0.241-0.205,0.621-0.295,0.91
				l-0.912,2.933c-0.148,0.475-0.358,1.063-0.472,1.529l-0.715,2.918c-0.036,0.148-0.52,0.623-0.542,0.773
				c-0.08,0.538-0.148,1.733-0.269,2.269l-0.524,2.338c-0.197,0.881-0.366,2.012-0.625,2.788l-1.367,4.104l-0.658,1.974
				c-0.073,0.218-0.104,0.644-0.144,1.018c-0.097,0.91-0.403,1.938-0.603,2.89l-0.949,4.519l-0.546,2.594
				c-0.199,0.948-0.08,2.29-0.186,3.311l-0.298,2.883c-0.07,0.675-0.099,1.354-0.096,1.991l0.008,1.752
				c0.002,0.422-0.052,1.127-0.142,1.714l-0.411,2.695c-0.051,0.335,0.453,1.209,0.453,1.581c-0.001,1.676-0.01,3.675-0.111,5.314
				c-0.053,0.857-0.074,1.56,0.002,2.371l0.298,3.164l0.167,3.092l0.271,2.58l0.273,2.603c0.126,1.204,0.514,3.372,0.863,4.474
				l1.298,4.1l0.173,1.915c-0.022-0.243,1.362,4.733,1.575,5.255c0.632,1.543,1.252,2.965,1.738,4.537
				c0.246,0.795,0.44,1.663,0.733,2.409l2.237,5.695l0.998,3.598c0.29,1.048,0.735,1.961,1.047,2.995l0.533,1.772l1.101,3.108
				c1.308,3.692,0.3,0.367,1.531,3.392c1.555,3.821,0.288,3.205,0.906,4.146l2.161,3.288c0.433,0.659,0.876,1.756,1.129,2.515
				c1.095,3.28,1.691,1.716,2.11,3.534c0.507,0.673,1.426,1.462,1.89,2.18l1.822,2.823c0.566,0.877,1.117,1.735,1.646,2.635
				l2.854,4.855c0.275,0.468,0.581,0.945,0.903,1.361l1.374,1.776c0.391,0.505,0.801,1.149,1.136,1.689l0.998,1.607l0.891,1.433
				c1.058,1.702-0.223,0.281,0.684,1.78l0.925,1.53c0.729,1.206,0.673,0.41,2.253,2.791l2.401,3.619
				c0.405,0.611,1.078,1.351,1.335,1.979c1.595,3.902,2.684,4.202,3.77,5.958l1.438,2.323c0.409,0.661,0.927,1.416,1.559,1.839
				l2.782,1.857c0.559,0.373,1.198,0.685,1.835,1.016l1.681,0.873c0.556,0.289,1.211,0.73,1.679,1.135l1.851,1.601l2.485,2.124
				c0.327,0.28,1.075,0.813,1.451,0.994c0.906,0.438,1.887,1.001,2.777,1.571c5.389,3.45,6.802,2.757,8.506,3.712l1.532,0.858
				c3.482,1.95,1.71,0.221,4.495,1.432l2.06,0.896c0.938,0.408,1.92,0.855,2.945,0.979l3.535,0.426
				c1.1,0.133,2.123,0.443,3.176,0.843l1.898,0.208c5.209,0.57,5.634-0.267,11.096,0.556c0.297,0.045,0.924,0.193,1.185,0.194
				l3.757,0.004c0.277,0,0.912-0.096,1.192-0.13c0.904-0.107-0.182,0.517,1.954,0.232l2.261-0.302l2.868-0.308
				c2.971-0.319,2.089,0.056,5.417-0.25c0.894-0.082,1.89-0.12,2.703-0.267l2.671-0.484l2.894-0.449l2.219-0.137l2.032-0.227
				c0.192-0.021,0.664-0.209,0.837-0.278l0.464-0.186c0.039-0.016,0.388,0.053,0.429,0.044l2.843-0.612
				c0.684-0.147,0.154,0.34,1.194-0.042l1.9-0.698c3.439-1.264,5.019-2.081,8.612-2.503c0.215-0.025,0.805-0.34,1.032-0.403
				l2.184-0.608c0.833-0.232,1.604-0.468,2.369-0.762l2.122-0.815l1.502-0.483l2.776-1.221l1.577-0.729l1.54-0.725
				c1.072-0.505,2.158-1.093,3.242-1.335l1.93-0.431l6.148-2.622l1.983-0.816l3.045-1.265c2.525-1.049,2.297-1.8,4.833-2.58
				l0.581-0.179c0.117-0.036-0.171-0.297-0.281-0.43l-0.67-0.809l-0.124-0.641l1.806-0.152c0.179-0.015,0.626-0.008,0.725,0.093
				l0.542,0.549c0.154,0.156,0.722,0.09,0.892-0.049l0.987-0.808c0.858-0.703,1.804-1.286,2.791-1.779l3.058-1.528l2.285-1.334
				c0.382-0.223,0.923-0.384,1.096-0.611c1.302-1.715,3.012-2.087,4.366-3.072l2.693-1.959c0.909-0.661,2.166-1.789,2.984-2.704
				l1.053-1.176c0.07-0.078,0.465-0.288,0.555-0.366l1.087-0.944c0.707-0.614,1.835-1.35,2.577-1.894
				c0.395-0.29,1.414-1.859,2.084-2.466l2.577-2.334c1.008-0.913,1.995-1.789,2.8-2.893l1.201-1.648l1.225-1.657l1.937-2.35
				c0.738-0.895,1.307-2.188,1.841-3.248l0.69-1.37l1.937-2.839c0.13-0.19,1.632-4.458,1.816-5.105l0.369-1.298
				c0.07-0.248,0.202-0.947,0.337-1.169l0.952-1.566c0.303-0.499,0.541-0.981,0.785-1.523l0.62-1.372
				c1.621-1.266-2.13-0.709-2.596-0.662l-3.901,0.392l-2.487,0.25l-0.801-0.377c-0.103-0.048-0.357-0.081-0.393,0.028
				c-0.036,0.109-0.155,0.54-0.221,0.637l-1.799,2.662c-0.337,0.499-0.774,0.994-1.132,1.469l-1.212,1.611l-1.056,0.977
				l-1.225,1.613c-0.263,0.347-0.646,0.743-0.947,1.071c-2.634,2.864-2.28,2.099-5.115,4.562l-2.294,1.993l-1.996,1.73l-1.57,1.279
				c-1.165,0.949-2.591,2.367-3.614,3.507l-0.962,1.073c-0.423,0.471-0.939,0.944-1.452,1.376l-1.247,1.051l-2.074,1.937
				c-0.521,0.486-1.262,0.901-1.802,1.323l-2.241,1.752l-1.582,1.267l-1.753,1.435c-2.281,1.867-2.445,1.314-4.446,2.634
				c-2.318,1.529-2.359,1.516-4.769,2.705l-2.487,1.226c-1.328,0.655-0.075,0.643-3.204,2.15c-0.764,0.368-1.566,0.766-2.294,1.062
				l-4.493,1.83l-3.531,1.368l-2.468,0.936l-2.306,0.814l-3.008,1.045c-1.476,0.513-2.854,1.024-4.354,1.374l-2.547,0.594
				l-1.632,0.359c-2.391,0.526-1.219,0.615-2.77,0.939l-4.327,0.904c-1.082,0.226-2.256,0.542-3.335,0.861l-2.014,0.594
				c-0.532,0.157-1.348,0.49-1.786,0.529l-1.222,0.108l-1.991,0.222c-0.407,0.045-0.962,0.061-1.321,0.132l-1.143,0.226
				c-1.545,0.306-2.887,0.54-4.642,0.624c-3.636,0.174-1.759-0.202-3.819,0.094c-0.865,0.124-5.394,0.43-6.235,0.419l-3.091-0.042
				l-2.58-0.054c-0.69-0.014-1.737,0.144-2.517,0.217l-2.31,0.216l-2.329,0.154c-0.578,0.038-1.503-0.115-2.266-0.189
				c-2.578-0.249-0.531-0.506-3.535-0.431c-0.703,0.018-1.714-0.267-2.489-0.3l-4.216-0.178c-0.533-0.022-1.519-0.505-2.082-0.715
				c-3.547-1.322-3.305-0.006-7.18-1.631l-3.233-1.356c-1.035-0.434-2.633-0.356-3.622-0.911l-1.893-1.061
				c-0.193-0.108-4.534-2.027-5.125-1.758l-1.076-0.557c-0.777-0.402-1.482-0.955-2.165-1.52l-1.606-1.328
				c-0.982-0.813-2.839-0.905-4.104-3.323c-0.47-0.899-1.004-0.428-2.413-2.031l-1.895-2.155l-1.225-1.393
				c-0.355-0.403-0.914-0.826-1.339-1.209l-1.53-1.375c-0.437-0.393-0.925-1.138-1.365-1.736c-1.218-1.654-1.223-0.127-2.008-1.998
				l-0.818-0.845c-0.416-0.429-0.807-1.234-1.225-1.624c-0.86-0.804-2.128-1.448-2.821-2.269c-0.881-1.043-1.555-1.789-2.554-2.697
				c-0.776-0.706-1.832-2.173-2.036-3.321c-2.202-1.095-0.463-1.835-2.282-3.433c-1.853-1.629-0.263-1.854-1.998-3.426
				c-0.556-0.504-0.921-1.047-1.097-1.768c-0.183-0.749-0.578-1.21-0.997-1.892c-0.631-1.027-0.786-2.677-1.313-3.823l-0.825-1.793
				c-0.849-1.844,0.055-0.588-0.832-3.044l-0.762-2.11l-0.94-2.757l-0.793-2.444c-0.7-2.159,0.261-1.49-2.046-5.907
				c-0.564-1.08-0.954-2.217-1.227-3.39l-0.487-2.095c-1.159-4.982-0.832-0.259-2.006-7.742l-0.622-3.96
				c-0.06-0.381-0.057-0.864-0.115-1.138l-0.232-1.103l-0.794-4.241l-0.624-3.289l-0.389-1.954c-0.106-0.533-0.18-1.128-0.215-1.652
				l-0.214-3.132c-0.032-0.475-0.379-1.436-0.55-1.906c-0.581-1.6,0.449-0.085-0.254-2.024c-0.982-2.711,0.354-0.43-0.507-3.258
				c-0.075-0.247-0.106-0.808-0.167-1.135l-0.126-0.686l-0.161-1.655l-0.254-2.587c-0.098-0.997-0.198-4.337-0.146-5.409
				c0.236-4.848-0.576-4.937-0.03-8.578l0.298-1.988l0.3-2.294c0.097-0.744,0.203-1.548,0.254-2.262l0.22-3.088
				c0.076-1.068,0.097-2.097,0.07-3.138l-0.065-2.497c-0.018-0.703,0.094-1.512,0.247-2.23l0.181-0.852
				c0.121-0.555,0.189-1.081,0.21-1.714l0.24-0.878c0.946-3.461,0.481-3.048,1.689-7.097c0.191-0.64,0.373-1.371,0.613-1.955
				l0.762-1.854c0.22-0.535,0.403-1.423,0.653-1.937c1.357-2.792,1.115-2.814,2.508-5.468l0.51-0.971
				c0.272-0.519,0.507-0.998,0.722-1.516c0.885-2.138,1.12-1.971,1.812-3.048l1.243-1.936l1.057-1.444
				c0.535-0.731,0.988-1.472,1.576-2.154l1.081-1.256l1.158-1.398c0.362-0.437,0.83-1.688,2.037-3.064l1.626-1.855
				c1.086-1.239,1.11-1.942,3.34-4.321l0.988-1.054l2.127-2.095c0.373-0.367,0.85-1.256,1.196-1.655l1.623-1.871
				c0.256-0.295,0.58-0.835,0.874-1.127l0.838-0.833c0.325-0.322,0.76-1.129,1.162-1.426c2.602-1.919,3.325-3.472,3.917-3.806
				l0.361-0.203l0.349-0.191l0.374-0.202l2.019-1.093l0.148-0.317l-0.424-0.253l-0.401-0.236l-0.009-0.389l0.49,0.034
				c0.002,0.009-0.017-0.064-0.101-0.371l0.203-0.643c0.856-0.093,1.537,0.139,2.076,0.828c0.589-0.347,1.351-0.873,2.034-1.199
				l1.983-0.948c2.102-1.005,1.452-1.828,5.617-2.836c0.277-0.067,0.858-0.701,1.112-0.792c3.128-1.121,1.699-0.144,5.499-1.822
				c0.533-0.236,6.077-2.449,6.099-2.455l2.21-0.574c1.186-0.308,3.044-1.962,4.538-2.304l2.124-0.487
				c2.401-0.55,2.21-0.753,4.299-1.227c1.163,0.059,2.184,0.202,3.263-0.103c1.071-0.302,2.294-0.236,3.346-0.461l4.303-0.919
				c0.711-0.152,1.856-0.889,2.632-1.153l2.363-0.801c0.581-0.197,1.364-0.42,1.959-0.541l4.529-0.917
				c1.206-0.244,2.429-0.476,3.575-0.804l1.73-0.496l3.566-1.061c1.77-0.527,6.207-1.641,7.864-0.956l1.858-0.437
				c0.221-0.052,0.531-0.611,0.553-0.866l0.164-1.886c0.019-0.22-0.129-0.986-0.348-0.953c-0.576,0.087-1.805,0.331-2.389,0.361
				l-1.26,0.063l-1.391,0.063l-2,0.076c-0.882,0.033-1.704,0.031-2.63,0.115c-4.094,0.37-3.885-0.648-8.331,0.512
				c-3.522,0.919-2.405-0.095-7.44,1.114c-2.834,0.68-4.668,0.589-6.795,1.513l-1.916,0.134c-1.53,0.107-2.958,1.116-4.406,1.471
				l-3.72,0.913c-1.29,0.317-0.523,0.636-3.061,1.442c-0.927,0.295-1.71,0.559-2.573,0.885l-1.748,0.661
				c-0.521,0.197-1.056,0.433-1.595,0.575l-7.239,1.902c-0.502,0.132-1.099,0.296-1.534,0.471l-2.24,0.899
				c-0.658,0.264-1.398,0.546-2.063,0.774l-2.783,0.953l-1.734,0.592c-0.493,0.168-1.51,0.382-2.018,0.528
				c-1.474,0.423-0.117,0.685-2.148,1.028c-0.205,0.035-0.555,0.581-0.753,0.701c-0.692,0.419-1.865,0.893-2.72,1.252
				c-3.253,1.366-0.774,0.914-3.154,2.201l-2.08,1.124c0.183-0.099-2.1,1.747-2.385,0.863c-0.091-0.282,0.106-1.039,0.374-1.237
				c0.433-0.321,1.385-1.143,1.873-1.436c1.134-0.68,2.267-1.077,3.097-2.104c0.713-0.882,1.681-1.071,2.623-1.367l1.567-0.494
				c1.706-0.538,0.709-0.851,3.337-1.687c0.709-0.226,1.252-0.432,1.871-0.703l2.05-0.9l2.945-0.723
				c1.813-0.445,3.239-1.373,5.03-1.897l2.166-0.633l2.395-0.682l2.755-0.696c0.341-0.086,0.904-0.195,1.165-0.285l2.805-0.963
				l1.549-0.671l2.548-0.964c0.515-0.195,1.392-0.941,1.929-1.062c3.541-0.798,3.411-0.579,6.593-2.079
				c1.707-0.804,0.521-0.125,3.325-0.59l1.977-0.328l2.611-0.466c1.171-0.209,2.354-0.484,3.507-0.791
				c0.345-0.091,1.097-0.152,1.564-0.186l1.745-0.125c3.568-0.256,0.7-0.626,3.123-0.32l0.598-0.199
				c0.242-0.081,0.767-0.074,1.161-0.094c0.591-0.03,1.545-0.282,2.047-0.262l3.058,0.125c0.827,0.034,1.754-0.112,2.615-0.208
				c2.656-0.298,4.764,0.125,5.686-0.007l0.519-0.074l1.736-0.249l0.563-0.081c0.122-0.018,0.626-0.023,0.554-0.079
				c-1.324-1.012,0.068-2.1,0.012-3.128c-0.037-0.691-3.61-0.462-4.237-0.444c-0.507,0.014-3.069,1.994-3.825,0.746l-0.729-1.202
				c-0.013,0.012,0.082-0.075,0.192-0.176l0.544-0.489c0.161-0.145,0.681,0.128,1.023,0.238l1.913-0.802l3.341-0.168
				c0.71-0.036,1.344-0.182,2.001,0.155c0.734,0.376,1.846,1.36,1.735,2.21l-0.307,2.369c-0.038,0.294,0.699,0.658,0.977,0.676
				l1.915,0.122c0.967,0.062,0.952,0.687,0.879,0.716l-0.787,0.309c-0.479,0.188-1.099,0.253-1.652,0.302l-0.452,0.04l-0.645,0.074
				c-1.006,0.116,0.03,1.791-0.217,4.418c-0.028,0.295-0.585,0.985-0.841,1.003l-1.648,0.114c-0.387,0.027-0.95,0.158-1.42,0.272
				c-2.828,0.689-2.196-0.821-4.053-0.175c-0.417,0.145-1.081,0.373-1.385,0.368l-2.059-0.034c-0.409-0.007-0.777,0.678-2.933,1.264
				l-3.474,0.944c-3.516,0.956-1.53-0.217-4.395,0.775c-0.987,0.342-2.224,0.609-3.395,0.869c-0.761,0.169-4.325,1.296-4.93,1.579
				c-1.719,0.802-3.449,1.385-5.332,1.555l-2.116,0.192c-1.176,0.106-2.763,0.817-3.856,0.732c-1.507-0.117-2.455-0.346-3.807,0.437
				c-0.71,0.411-1.871,0.464-2.822,0.628c-3.135,0.539-2.399,1.214-5.518,2.408l-2.083,0.797l-1.84,0.716l-3.025,1.06
				c-1.227,0.43-2.919,1.58-3.538,1.682l-1.793,0.295l-1.922,0.321l-0.171,0.456c-1.447,0.488-2.934,1.104-4.384,1.843
				c-0.115,0.326-0.264,0.748-0.133,0.376l1.546,1.684l2.303,2.507c0.45,0.49,1.567,3.587,3.072,4.606
				c3.254,2.201,2.15,4.819,3.158,4.385l1.481-0.637l1.502-0.529c0.34-0.27,0.988-0.962,1.381-1.161l1.926-0.972l1.706-0.837
				l3.983-2.022c0.834-0.423,1.633-0.865,2.487-1.222c0.663-0.277,1.453-0.525,2.054-0.813l2.915-1.397
				c0.827-0.396,1.807-1.248,2.644-1.512l1.787-0.563c1.125-0.354,2.625-0.433,3.672-0.894l2.797-1.234
				c2.021-0.892,2.482-0.996,4.501-1.24l2.314-0.279c1.608-0.194,3.189-0.988,4.766-1.414l2.76-0.746l1.843-0.588
				c2.279,0.394,0.229-0.035,3.751-0.643l7.269-1.255c1.448-0.25,2.92-0.387,4.326-0.781l2.759-0.775
				c0.408-0.115,1.05-0.185,1.49-0.203l2.431-0.099l2.3-0.094l1.761-0.107c0.856-0.052,1.927-0.15,2.752-0.035l2.292,0.319
				l3.68,0.586l1.481,0.236c0.67,0.107,1.615,0.184,2.202,0.338l3.401,0.894l3.716,0.917c0.545,0.135,1.476,0.349,1.938,0.538
				l3.283,1.342c0.886,0.362,1.875,0.582,2.878,0.803c1.445,0.318,2.761,0.965,4.106,1.555l3.019,1.325l1.394,0.612
				c0.602,0.264,1.385,0.583,1.895,0.899l1.622,1.005l2.963,1.913c0.437,0.282,0.96,0.527,1.437,0.774l2.647,1.374
				c0.364,0.189,0.82,0.711,1.246,1.16l0.917-0.531l0.431-0.249c0.086-0.05,0.257-0.114,0.316-0.042
				c1.656,2.008-1.628,0.841,2.364,3.757c1.091,0.797,2.174,1.745,3.08,2.674c2.43,2.493,2.281,0.973,2.9,2.202
				c1.015,2.014,1.266,0.928,3.307,2.983c0.504,0.508,0.963,0.966,1.484,1.398l3.601,2.987c0.518,0.43,1.121,1.013,1.567,1.545
				c2.645,3.156,0.993,2.441,3.56,5c0.055,0.055,0.23,0.259,0.262,0.31l0.242,0.395c1.843,3.007,0.426,2.38,1.577,3.842
				c0.358,0.454,1.043,1.266,1.243,1.739l1.3,3.079l0.174,0.415l0.169,0.397l0.229,0.35l0.221,0.338
				c0.069,0.106,0.203,0.298,0.23,0.354l0.252,0.52c0.045,0.092,0.159,0.075,0.152-0.031c-0.009-0.12-0.046-0.524-0.057-0.575
				l-0.095-0.448l-0.111-0.499c-0.015-0.069,0.006-0.515,0.041-0.576l0.273-0.485c0.068-0.122,1.098,0.129,1.503,2.428l0.563,3.191
				c0.037,0.211,0.049,0.593,0.055,0.765c0.008,0.215,0.836-0.086,1.032-0.132l0.508,0.086l0.453,0.655l-0.956,0.946
				c-0.105,0.103-0.254,0.62-0.211,0.758l0.651,2.113c0.854,2.773,0.713,0.453,1.394,3.479c0.875,3.888,1.281,2.546,1.636,4.992
				l0.378,2.602l0.509,2.282c0.122,0.547,0.033,1.179-0.019,1.721l-0.195,2.038c-0.234,2.451,0.462,1.471-0.068,4.897
				c-0.151,0.977,0.052,2.018,0.174,3.062l0.221,1.894c0.392,3.353-0.659,1.798-0.026,5.315c0.099,0.547,0.352,1.441,0.358,1.913
				l0.053,4.326c0.006,0.453,0.596,1.314,0.828,1.71c-0.331,0.438-1.106,1.418-1.01,1.936l0.328,1.763
				c0.221,1.188,0.05,2.444-0.135,3.697l-0.55,3.719c-0.109,0.737-0.24,1.442-0.431,2.107l-0.656,2.293
				c-0.192,0.672-0.349,1.391-0.478,2.091l-0.631,3.423c-0.101,0.547-0.375,1.374-0.573,1.913l-0.622,1.692l-1.079,2.897
				l-0.682,1.604c-1.067,2.508-1.344,3.706-1.887,6.439c-0.517,2.601,0.351,0.574-0.516,3.393c-1.3,4.227-1.134,1.652-1.978,3.44
				c-0.257,0.544-0.593,1.255-0.882,1.708L243.101,169.647z M199.185,55.917c0.53-0.788,1.227-1.252,2.01-1.713l1.467-0.865
				l2.482-2.247c0.782-0.708,1.889-0.973,2.666-1.655l3.058-2.685l1.692-1.454l2.078-1.646c0.734-0.582,1.351-1.252,2.024-1.903
				l-1.665-1.1l-1.268-0.698c-3.054-1.681-1.559-0.397-3.348-1.781c-2.35-1.818-2.841-1.743-3.909-2.422l-1.043-0.662l-4.152-1.773
				l-3.042-1.285c-0.417-0.176-1.224-0.333-1.748-0.507l-2.966-0.984c-0.22-0.073-0.766-0.481-0.968-0.533l-1.752-0.453
				c-1.402-0.363-2.711-0.7-4.038-1.19c-1.087-0.401-3.406-0.995-4.538-1.114l-3.658-0.383c-1.54-0.161-1.199-0.61-3.637-0.885
				l-1.813-0.204c-2.755-0.311-2.976,0.405-5.491,0.279l-1.754-0.088c0.289,0.599,0.496,1.087,0.55,1.527
				c0.041,0.335-0.645,0.669-0.95,0.952l-1.361,1.265c-2.461,2.286-0.353-0.107-2.287,1.997c-1.086,1.181-2.862,1.54-4.145,2.408
				c-1.005,0.68-1.946,1.527-2.99,2.124l-2.24,1.283c-0.626,0.358-1.383,1.402-1.991,1.874l-2.258,1.75l2.155,0.848
				c0.533,0.21,1.118,0.459,1.679,0.5l2.688,0.195c0.287,0.021,0.835,0.352,1.241,0.6c1.352,0.826,0.856-0.662,4.914,1.235
				c0.664,0.31,1.316,0.663,1.973,0.873l2.437,0.777l2.32,0.777l2.603,0.773c1.172,0.348,2.404,0.605,3.563,1.039l4.586,1.717
				c0.868,0.325,1.727,0.724,2.564,1.126l1.924,0.925l2.083,1.068c1.01,0.518,1.997,1.089,3.039,1.523l2.208,0.921
				c0.549,0.229,1.104,0.441,1.604,0.677l2.571,1.217c0.697,0.33,1.389,0.285,2.042-0.27
				C198.117,56.203,198.109,57.518,199.185,55.917z M131.19,37.157l1.751,0.246l2.312,0.311c1.309,0.176,2.689,0.682,3.985,1.066
				l2.845,0.844c0.424,0.126,1.531-0.045,1.912,0.153c0.897,0.468,2.136,0.614,3.057,0.002l1.91-1.27l1.626-1.228
				c1.685-1.272,2.665-2.514,4.043-3.303l2.049-1.174c0.587-0.336,1.504-0.74,1.962-1.114l1.764-1.438l2.712-2.137
				c0.403-0.318,0.703-0.581,0.931-0.833l1.208-1.334l-2.28-0.001c-1.118,0.758-1.924,0.978-3.22,1.208l-3.763,0.667l-2.977,0.223
				l-4.01,0.635c-1.841,0.291-4.537,0.937-6.289,1.614c-2.556,0.988-1.87,0.506-4.435,1.508c-0.553,0.216-1.375,0.514-1.904,0.606
				l-2.051,0.356c-0.669,0.116-2.089-0.169-2.737,0.089l-2.868,1.14l-2.454,1.011l-0.369,1.504c0.79,0.068,1.405,0.077,1.826,0.139
				L131.19,37.157z M91.709,49.324c1.599-1.078,1.34-0.655,3.292-1.935l1.389-0.911c-0.678-2.784-2.157-2.315-3.732-4.719
				l-2.089-3.189c-0.351-0.536-1.184-1.17-1.675-1.665l-1.176-1.185c-0.512-0.516-1.091-1.491-1.414-1.984
				c-2.243,1.31-3.273,0.894-4.584,2.426l1.176,2.201c1.013,1.896,0.93,3.074,1.799,4.405c0.671,1.028,1.162,1.904,1.713,2.934
				l1.379,2.578l1.478,2.692L91.709,49.324z M190.999,222.126c-1.67-2.404-0.52-1.318-2.273-3.291
				c-0.322-0.362-1.319-1.137-1.797-1.006l-2.612,0.717l-3.47,0.786l-3.741,0.897c-0.049,0.267-0.079,0.424-0.075,0.405l0.85,0.901
				c-0.048,0.087-0.597,0.625-0.746,0.61l-3.06-0.295c-0.406-0.039-1.184,0.498-1.56,0.647l-2.488,0.986
				c-0.267,0.118-0.598,0.265-0.448,0.198l0.809,0.382c0.05,0.024,0.354-0.013,0.485-0.023c1.939-0.147,0.725,0.298,3.603-0.107
				c0.397-0.056,0.792,0.043,1.013,0.312c-2.782,1.866-9.381,0.257-11.101,0.773l-2.311,0.693l-1.666,0.202
				c-0.746,0.278-1.485,0.478-2.288,0.548l-2.328,0.203l-2.312,0.216c-3.842,0.359-2.825-0.513-5.655-0.279
				c-0.63,0.052-1.487,0.229-1.926,0.21l-1.879-0.081l-2.209-0.155c-0.975-0.068-1.853-0.132-2.778-0.149
				c-1.282-0.024-2.74-0.252-3.962-0.11c-1.004,0.116-1.53,0.693-4.31-0.027c-0.593-0.154-1.609-0.554-2.13-0.552l-2.599,0.011
				c-0.833,0.004-1.81,0.055-2.573-0.125l-2.173-0.512c-0.545-0.129-1.434-0.196-2.024-0.128c-6.244,0.72-3.204-0.185-5.936-0.175
				l-2.023,0.007c-0.47,0.002-1.469-0.131-1.934-0.291l-2.294-0.787c-1.324-0.455-2.672-0.718-3.973-1.229
				c-0.544-0.214-1.321-0.79-1.842-0.912c-0.621-0.145-1.448-0.265-1.816-0.514c-3.653-2.466-2.924-0.743-5.529-3.266l-0.327-1.006
				c-0.053-0.162-0.703-0.178-0.811-0.309c-2.794-3.369-0.943-0.472-3.805-3.527l-1.247-1.332c-0.683-0.729-1.739-1.437-2.279-2.218
				c-1.354-1.956-1.636-2.273-3.267-3.953c-1.781-1.835-0.867-1.336-3.433-3.695c-0.867-0.798-2.234-2.321-2.931-3.372
				c-0.354-0.534-1.029-1.252-1.277-1.754c-0.708-1.435-1.311-2.729-1.892-4.159c-0.342-0.841-0.563-1.925-1.104-2.556l-1.121-1.307
				c-0.441-0.514-0.676-1.205-0.884-1.944c-0.468-1.66-1.214-3.223-2.086-4.738l-1.855-1.42c0.594-2.425-0.488-3.076-0.638-3.422
				l-0.967-2.235l-1.062-2.4l-0.707-1.618c-0.425-0.974-0.593-1.94-1.058-2.97l-1.091-2.417l-0.753-2.52
				c-0.264-0.884-0.595-1.803-0.691-2.737l-0.213-2.089l-0.155-1.72c-0.474-0.546-0.479-0.804-0.596-1.426
				c-0.071-0.375-0.351-1.081-0.505-1.557l-0.64-1.981c-0.201-0.622-0.306-1.421-0.426-2.121l-0.354-2.061
				c-0.054-0.315,0.103-0.904,0.307-1.271c-1.077-2.034-1.551-7.943-1.551-7.944l-0.379-1.551l-0.181-1.605
				c-0.065-0.571-0.143-1.202-0.235-1.745l-0.316-1.867l-0.42-2.477c-0.195-1.152-0.263-2.475-0.272-3.68l-0.036-4.414
				c-0.021-2.556,0.379-1.399,0.138-4.562c-0.135-1.78,0.257-4.685,0.598-6.362l0.876-4.298l0.911-4.234
				c0.323-1.5,0.905-2.912,1.32-4.342l1.176-4.047l0.8-2.878c0.166-0.599,0.315-1.165,0.524-1.796
				c1.021-3.086,0.85-4.142,2.311-6.817l1.414-2.589c0.657-1.202,1.187-2.605,2.103-3.575c1.223-1.295,1.417-2.118,2.151-2.997
				l1.84-2.204l1.035-1.264c0.66-0.806,1.175-1.603,1.769-2.562c0.282-0.455,0.98-0.987,1.355-1.43
				c0.376-0.444,0.752-1.241,1.206-1.616l1.414-1.167l3.651-3.519c0.423-0.408,1.433-0.842,1.999-1.099
				c0.727-0.331,1.256-0.902,1.893-1.268l1.486-0.853c0.826-0.474,1.92-1.848,2.551-2.494c0.269-0.276-0.105-1.266-0.242-1.61
				l-0.752-1.884c-0.179-0.449-0.613-1.144-0.91-1.608c-2.173-3.401,0.057-0.86-2.254-4.034c-0.29-0.399-0.637-1.022-0.785-1.473
				l-0.801-2.439c-0.233-0.71-0.812-1.758-1.155-2.396c-1.618,1.369-3.272,1.473-4.29,2.699c-0.585,0.704-1.026,1.286-1.617,1.884
				c-1.312,1.325-2.463,1.861-3.655,3.424l-1.755,2.302l-1.124,1.474c-0.82,1.075-3.216,2.776-4.272,4.248l-1.786,2.491l-1.3,1.58
				l-1.172,1.426c-1.92,2.335-0.527,1.361-2.601,3.912l-1.93,2.374l-1.179,1.449c-0.378,0.464-0.679,1.228-1.009,1.808
				c-1.314,2.31-4.407,6.025-4.911,8.637c-0.057,0.296-0.481,0.841-0.647,1.148L46.3,79.491c-0.294,0.545-0.605,1.166-0.796,1.759
				l-1.253,3.894c-0.811,2.521-0.465,2.913-1.645,6.342c-0.93,2.703-0.077,0.885-0.615,4.183l-0.497,3.045
				c-0.064,0.395,0.022,1.28,0.041,1.669c0.141,2.876,0.13,1.965-0.129,4.652l-0.301,3.117l-0.28,2.901
				c-0.062,0.645-0.3,1.633-0.308,2.23l-0.109,8.592c-0.007,0.576-0.119,1.324-0.081,1.854l0.216,3.011l0.266,3.718l0.47,3.11
				c0.116,0.769,0.026,1.803,0.191,2.421c0.183,0.686,0.328,1.223,0.416,1.841l0.256,1.799l0.403,2.78l0.264,2.018
				c0.62,4.73,0.647,1.954,1.172,5.976c0.095,0.73,0.221,1.484,0.356,2.186l0.46,2.38l0.399,2.211
				c0.114,0.63,0.406,1.404,0.469,2.059l0.284,2.936c0.484,5.003,0.574,1.695,1.777,6.738c0.477,1.999,1.069,3.587,1.923,5.413
				l0.928,1.984c0.212,0.454,0.429,1.336,0.575,1.913l0.994,3.908c0.199,0.781,0.51,1.568,0.769,2.333l0.504,1.491l0.614,1.982
				l1.217,3.398l0.883,2.32c1.31,3.442,1.455,1.251,2.101,3.816c0.184,0.728,0.524,1.299,0.908,1.917
				c0.575,0.926,1.066,2.058,1.691,2.854c1.748,2.224,0.321,1.044,2.264,3.756c0.973,1.358,1.55,2.611,1.861,2.962l1.638,1.844
				c0.869,0.978,1.702,1.844,2.75,2.667c2.662,2.093,1.132,1.422,3.1,3.167l1.988,1.761c2.393,2.121,0.145,0.662,2.811,3.13
				c1.996,1.848,1.888,2.484,2.601,3.148l2.666,2.483l2.087,2.195c1.472,1.549,1.97,1.41,3.698,2.827l1.751,1.436
				c1.959,1.606,2.886,1.458,4.083,1.945l3.221,1.311l1.817,0.763c0.73,0.306,1.552,0.543,2.327,0.821l3.151,1.132
				c5.459,1.962,3.27,0.806,7.12,1.731c3.263,0.784,2.131,1.039,5.988,1.104c0.892,0.015,1.729,0.064,2.649,0.132l2.408,0.179
				c1.4,0.104,5.932,1.362,8.033,0.724l1.609-0.488l12.475-0.068l1.668-0.124c3.143-0.234,2.186,0.389,5.412-0.224l2.079-0.395
				l2.053-0.299l1.979-0.289c1.937-0.283,2.028,0.052,3.312-0.385l2.198-0.747c0.709-0.241,1.634-0.315,2.376-0.518l1.937-0.531
				l2.676-0.591c0.7-0.155,1.606-0.455,2.327-0.706l2.166-0.751c0.62-0.215,1.364-0.331,2.062-0.476l3.496-0.724
				c0.593-0.123,1.25-0.282,1.776-0.486l2.887-1.117l2.275-0.835l2.148-0.754l2.909-1.125l2.347-0.854l2.053-0.735
				c1.309-0.469-0.426-2.123-0.912-2.494l-1.651-1.259c-0.785-0.598-1.464-1.426-2.032-2.243L190.999,222.126z M125.943,54.645
				l2.835-1.866l0.033-0.301l-2.916-1.539c-0.572-0.302-1.374-0.553-2.004-0.834c-1.246-0.555-2.418-1.156-3.639-1.784
				c-1.038-0.535-2.067-0.935-3.157-1.418l-2.169-0.962c-0.608-0.269-1.21-0.49-1.882-0.688l-3.28-0.969
				c-0.305-0.09-1.153-0.169-1.298-0.428c-0.164-0.293,0.221-1.232,0.39-1.325l1.762,0.328l1.605,0.611
				c1.915,0.327,3.425,1.225,5.23,1.96l2.401,0.978l1.94,0.972l3.243,1.341c1.011,0.418,4.294,2.093,5.23,2.823
				c2.307-0.352,0.663-0.692,3.273-1.677c1.713-0.646-0.467-0.261,2.853-2.51l1.699-1.152l1.692-1.141l1.338-0.918
				c0.431-0.296,1.015-0.587,1.364-0.895l1.374-1.214c-0.274-0.146-0.767-0.369-1.095-0.456l-2.452-0.652
				c-0.993-0.264-1.883-0.532-2.854-0.872c-3.397-0.285-1.09-0.505-3.621-0.67c-1.182-0.077-2.107-0.249-3.234-0.465l-2.771-0.532
				c-0.51-0.098-1.712,0.083-2.245,0.159l-2.056,0.294c-0.934,0.134-1.965,0.455-2.903,0.7l-2.097,0.549
				c-1.394,0.365-2.691,0.166-3.701-0.57c-0.544,0.261-1.208,0.533-1.847,0.72c-0.7,0.205-1.286,0.565-1.992,0.843l-1.025,0.404
				l-2.239,1.154c-3.316,1.708-1.377,1.116-4.047,2.55l-1.903,1.022l-1.609,0.909c-3.104,1.752-3.085,1.241-5.453,2.858
				c1.875,1.528-0.286,0.968,2.399,5.78l0.808,1.448l1.035,1.87c0.399,0.72,0.82,1.45,1.294,2.109l1.335,1.854
				c1.883,2.615,0.385,1.406,2.361,4.165l1.113,1.554c0.865-0.003,1.812-0.608,2.494-1.073l1.878-1.278l3.388-2.347
				c0.674-0.467,1.34-0.973,2.005-1.405l1.56-1.012c3.125-2.026,1.745-1.785,3.525-3.008l1.895-1.302l2.42-1.581L125.943,54.645z
				 M174.148,72.552l4.167-2.651c0.474-0.06,1.183-0.285,1.443-0.532c3.414-3.24,1.864-1.479,4.424-3.3l2.68-1.906l2.002-1.417
				l1.35-1.018c0.383-0.289,1.397-0.648,1.789-0.979l1.789-1.506l-1.521-0.726c-0.59-0.281-1.208-0.518-1.867-0.765l-2.195-0.824
				c-0.973-0.365-1.837-0.753-2.745-1.248l-2.604-1.42c-0.44-0.24-1.05-0.526-1.511-0.729l-2.807-1.236l-2.008-0.895
				c-0.734-0.327-1.54-0.576-2.326-0.807l-1.749-0.513l-2.273-0.611l-1.829-0.452c-1.865-0.461-3.668-1.194-5.474-1.859
				l-4.861-1.792c-1.549-0.571-0.878,0.003-3.761-0.667l-5.16-1.2c-1.598-0.372-2.398-1.368-3.92-0.291l-1.724,1.22L142.1,45.34
				c-0.795,1.056-1.349,0.882-3.223,2.211l-2.352,1.668l-1.335,0.947l-1.669,1.187c-0.345,0.245-0.818,0.96-1.178,1.379l3.065,1.601
				c0.557,0.291,1.471,0.451,2.016,0.789l1.941,1.204l3.036,1.851l2.001,1.117l6.093,3.347c0.435,0.239,0.916,0.645,1.302,0.967
				l1.423,1.191c0.456,0.382,0.895,0.81,1.423,1.088c2.634,1.383,2.206,1.496,4.842,3.159l2.284,1.44l0.875,0.552l1.305,0.996
				l1.293,0.996l1.446,1.139c0.67,0.528,1.447,1.101,2.116,1.569c0.656-0.35,1.223-0.635,1.618-0.891l1.935-1.254L174.148,72.552z
				 M230.003,89.589l1.591-0.709l2.002-0.836c0.602-0.252,1.733-0.509,2.066-0.951c0.246-0.327,0.58-0.906,0.798-1.056l1.854-1.278
				c0.562-0.388,1.03-0.65,1.646-0.96c2.284-1.149,2.058-1.557,4.53-2.791l2.674-1.334c0.221-0.11,0.704-0.457,0.971-0.651
				c-0.275-0.946-0.723-2.055-1.213-2.829l-1.227-1.938c-0.172-0.272-1.215-2.93-2.302-4.842l-0.944-1.662
				c-1.596-2.809-0.581-1.955-2.857-5.117l-1.575-2.187c-0.256-0.356-0.619-1.269-0.917-1.579l-1.962-2.038
				c-0.683-0.487-1.303-0.981-1.922-1.526l-2.595-2.286l-1.488-1.366c-0.657-0.603-1.507-1.167-2.215-1.757l-1.562-1.303
				l-1.379-1.204c-0.551-0.481-1.166-1.25-1.685-1.648l-1.687-1.295c-0.41-0.315-1.218-0.787-1.765-1.097
				c-0.343,0.01-1.239,0.455-1.544,0.691l-1.931,1.487l-2.371,1.919c-3.259,2.638-1.415,0.39-3.81,2.456l-2.166,1.868
				c-2.72,2.345,0.016,0.878-3.049,2.639l-2.403,1.382l-2.351,2.048l-2.42,1.367l2.095,1.34c0.744,0.476,1.513,1.144,2.254,1.676
				l1.664,1.197l2.68,1.928c0.525,0.378,2.88,2.48,3.456,3.091l1.487,1.577l0.604,0.9l1.247,1.299l3.613,3.732l-0.016,0.6
				c0.86,0.684,2.823,2.82,2.89,3.791c0.972,1.026,3.241,4.219,3.799,5.289l1.974,3.783c0.675,1.294,0.601,2.953,1.686,2.299
				C227.314,91.054,228.813,90.223,230.003,89.589z M89.344,78.623c1.668-0.844,2.151-1.657,3.861-2.518l3.447-1.735
				c1.412-0.711,1.149-0.81,3.134-1.979l1.043-0.614c1.047-0.617,1.872-1.229,2.768-1.976l-1.38-1.987
				c-0.672-0.967-1.241-1.991-1.853-3.014l-1.704-2.852l-2.171-3.5l-0.575-0.924c-0.844-1.357-1.521-2.761-1.917-4.324l-0.628-2.48
				l-1.986,1.059c-0.755,0.402-1.034,1.519-0.995,2.384l-2.624,0.089c-0.333,1.038-3.333,3.872-4.328,4.036l-1.214,5.364
				l-0.24,1.852c-0.073,0.566-0.201,0.997-0.22,1.519c-0.018,0.479-0.018,1.062-0.06,1.414l-0.303,2.568
				c-0.092,0.781,0.001,1.747-0.017,2.534c-0.079,3.371,0.378,4.036,0.337,5.479l-0.103,3.678l2.868-1.551l2.643-1.398
				L89.344,78.623z M137.298,94.662l2.794-1.643l1.813-1.065c0.526-0.309,1.179-0.819,1.7-1.058l2.377-1.088
				c0.567-0.26,1.138-0.557,1.614-0.954l2.035-1.693c0.366-0.305,1.55-0.377,1.976-0.597c2.397-1.236,0.599-0.835,2.609-1.944
				l1.661-0.916c1.295-0.714,2.598-1.381,3.824-2.189c0.558-0.368,1.057-0.666,1.637-0.94l2.649-2.202
				c0.926-0.77,1.912-1.229,3.11-1.889l-2.442-2.041l-1.601-1.275l-0.787-0.864l-1.636-0.939l-1.842-1.064
				c-0.461-0.266-0.998-0.702-1.474-1.058c-2.399-1.795-2.313-1.258-3.471-2.212l-2.026-1.669l-1.865-1.345
				c-1.005-0.724-2.42-1.226-3.554-1.843l-1.88-1.023l-1.864-0.982c-3.11-1.639-2.429-2.028-6.02-3.656l-3.138-1.422
				c-1.091-0.495-1.998-1.966-4.037-0.7l-1.604,0.996l-2.561,1.728l-2.302,1.418c-1.278,0.787-2.48,1.677-3.632,2.631l-1.744,1.444
				c-0.392,0.325-1.102,0.71-1.589,0.949c-0.277,0.136-0.722,0.806-1.005,1.008l-2.483,1.769c-0.724,0.516-1.472,1.047-2.215,1.46
				l-1.517,0.843c-0.737,0.409-1.932,1.267-2.153,1.968l1.432,2.482c0.304,0.527,0.627,1.15,0.938,1.624l2.395,3.645
				c0.302,0.459,0.601,1.146,0.863,1.673l0.858,1.73l0.85,1.725c0.162,0.266,0.623,0.824,0.822,1.103l1.548,2.17l1.197,1.679
				c0.795,1.115,1.65,2.124,2.586,3.13c0.138,0.254,0.43,0.908,0.587,1.149l1.801,2.761l1.031,1.583
				c0.285,0.438,0.721,0.947,1.107,1.46l1.545,2.053c0.119,0.158,0.837,0.177,0.976,0.043c3.001-2.9,1.931-0.573,3.99-2.21
				c1.322-1.051,2.728-1.863,4.2-2.68L137.298,94.662z M203.296,104.907c0.404-0.301,1.356-0.569,1.821-0.806l2.463-1.257
				c1.163-0.594,2.258-1.312,3.35-2.037l2.243-1.49l1.283-0.714c1.064-0.823,2.083-1.581,3.258-2.173l1.538-0.775l2.378-1.18
				l2.435-1.391c0.266-0.15,0.232-1.007,0.091-1.285l-0.902-1.78c-0.29-0.573-0.588-1.662-0.894-2.156
				c-1.156-1.867-2.402-3.531-3.42-5.422c-0.868-1.612-1.83-2.767-3.132-4.063c-1.237-1.231-1.466-2.652-3.402-4.026
				c-0.627-0.445-1.061-1.327-1.554-1.863c-0.707-0.769-1.557-1.465-2.241-2.298c-0.569-0.693-1.201-1.256-1.885-1.826l-1.566-1.307
				c-1.866-1.556-1.865-1.727-4.14-3.04c-0.35-0.202-0.994-0.661-1.243-0.918l-0.697-0.717c-0.868-0.463-1.578-0.881-2.374-1.378
				l-1.326-0.828l-1.316,0.898l-2.724,1.857l-2.023,1.391l-1.696,1.156l-2.069,1.389l-1.921,1.456l-2.361,1.352l-1.877,1.262
				l-4.017,2.564l-3.27,1.947c-0.406,0.242-1.101,0.818-1.698,1.235c-0.305,0.213,0.397,0.725,0.701,1.028l5.438,5.415l1.714,1.715
				c0.865,0.866,1.741,1.68,2.56,2.584l1.356,1.497l1.894,2.08l1.32,1.553l1.966,2.311l2.431,2.999
				c0.741,0.914,2.806,3.959,3.473,5.093c0.337,0.572,0.678,0.969,1.06,1.477l3.094,4.125l2.384-1.522
				C202.666,105.209,200.368,107.089,203.296,104.907z M58.774,96.577l1.687-0.993l1.213-1.024l2.232-1.207l3.465-2.3
				c2.445-1.623,1.746-1.697,2.425-4.086c0.462-1.625,0.115-1.453,0.703-3.576l1.804-6.515c0.093-0.337,0.321-0.873,0.372-1.148
				l0.265-1.429c0.092-0.499,0.356-1.496,0.538-1.937l1.697-4.106c0.48-1.161,1.086-2.451,1.757-3.572l1.094-1.828
				c0.204-0.341,0.33-0.742,0.367-1.275c-0.398,0.461-0.75,1.08-1.108,1.42l-2.97,2.818c-2.1,1.993-1.342,2.485-3.361,3.762
				l-0.359,1.1c-0.07,0.214-0.715,0.412-0.855,0.496c-0.062,0.4-0.198,0.948-0.411,1.253l-2.028,2.907l-1.887,2.706
				c-2.295,3.292-0.569,2.199-2.676,4.657c-0.359,0.418-0.498,1.428-0.655,1.982l-1.078,3.811c-0.318,1.123-0.656,2.184-0.93,3.329
				c-0.205,0.856-0.402,1.696-0.64,2.505L58.774,96.577z M76.293,86.217l2.92-1.796c0.991-0.609,1.553-1.427,0.962-2.583
				c-0.676-1.324,0.077-0.876-0.101-2.568l-0.173-1.648L79.897,71.9l0.112-1.394l-0.018-1.538c-0.007-0.56,0.067-1.252,0.124-1.912
				l0.196-2.261c0.033-0.382-0.165-1.146-0.29-1.821c-0.557,0.626-1.002,1.262-1.36,2.033l-0.723,1.557
				c-0.821,1.769-1.444,1.423-1.981,3.959c-0.677,3.197-0.557,0.942-1.613,4.409l-1.367,4.491c-0.504,1.657-0.441,3.569-1.244,5.191
				c-0.181,0.365-0.393,0.912-0.425,1.25l-0.26,2.747l2.753-1.324C74.521,86.939,75.568,86.663,76.293,86.217z M100.296,115.548
				c2.769-1.173,0.583-0.687,2.708-1.621c0.608-0.267,1.197-0.563,1.635-0.912l1.318-1.047l0.53,0.447
				c0.075,0.063,0.437-0.127,0.545-0.197c2.806-1.824,1.679-1.711,4.192-2.454c4.545-1.343,0.758-0.009,3.598-2.056
				c0.708-0.51,1.533-0.779,2.417-1.081c0.427-0.153,1.279-0.776,1.581-1.14l0.608-0.734c0.102-0.123,0.667,0.213,0.81,0.139
				c0.579-0.299,1.725-0.965,2.227-1.448l2.036-1.963c-0.249-0.434-0.735-1.219-1.091-1.718l-1.32-1.856l-2.356-3.638l-2.007-2.866
				l-1.008-1.264l-1.149-1.434l-1.603-2.115c-0.352-0.464-0.744-1.036-1.016-1.522l-1.45-2.589
				c-0.495-0.883-0.866-1.777-1.348-2.677l-0.696-1.299l-1.087-1.426l-2.641-4.763c-0.176-0.317-1.024-0.958-1.147-1.024
				l-2.257,1.149l-0.965,0.642l-1.832,1.088l-1.662,1.126l-2.032,1.145l-2.347,1.374l-1.574,0.99l-2.056,1.377l-2.315,1.411
				c-0.534,0.325-1.078,0.693-1.618,0.953l-3.134,1.509c-1.256,0.605-0.335,1.453,0.022,4.047l0.375,2.73
				c0.08,0.581,0.148,1.261,0.257,1.781l0.497,2.354c0.507,2.402-0.254,1.507,0.921,4.218c0.651,1.503,1.084,2.975,1.464,4.573
				c0.413,0.707,0.669,1.532,0.749,2.402l0.902,3.09c0.303,1.038,0.639,2.136,1.089,3.144l0.708,1.584
				c0.298,0.668,0.541,1.374,0.802,2.092l1.374,3.781c2.2-2.084,1.387-0.172,4.011-2.181c0.717-0.549,1.713-1.016,2.582-1.384
				L100.296,115.548z M192.518,153.622l1.405-1.071c0.7-0.534,1.531-0.969,2.35-1.341l1.607-0.729l2.065-1.027
				c2.997-1.49,0.599-0.929,3.958-2.328l4.251-1.772c0.656-0.273,1.527-0.899,1.93-1.409l-0.584-2.137
				c-0.321-1.174-1.676-5.997-1.999-6.97l-1.039-3.128l-0.555-1.822c-0.472-1.55-2.391-5.188-2.867-7.452
				c-0.113-0.537-0.233-0.8-0.547-1.301c-1.252-1.995-1.643-3.511-2.061-4.222l-1.191-2.023c-0.342-0.58-0.605-1.613-0.779-2.263
				c-1.532-1.297-0.195-0.876-1.704-2.362c-0.271-0.267-1.112,0.43-1.427,0.679c-1.07,0.847-2.513,1.709-3.816,2.398l-2.261,1.194
				l-2.584,1.393l-4.444,2.404l-2.83,1.694c-1.294,0.774-1.994,1.01-3.344,1.81l-4.31,2.555l-2.07,1.316l-5.697,2.959
				c-0.467,0.243-0.971,0.314-1.711,0.234c0.861-0.657,1.618-1.103,2.538-1.593l1.215-0.647l3.816-2.161l2.744-1.554l2.592-1.457
				l2.609-1.659c0.429-0.273,1.041-0.477,1.62-0.698l1.053-0.812c2.192-0.384,1.327-1.859,3.386-1.319
				c0.467-0.383,1.25-1.194,1.743-1.479l2.066-1.194l2.162-1.316c1.815-1.104,0.621-0.054,2.962-1.555l1.595-1.023
				c0.591-0.379,1.375-0.769,2.011-1.061l-1.22-1.775c-0.194-0.283-0.521-0.996-0.762-1.257l-1.522-1.65
				c-0.236-0.256-0.434-0.952-0.44-1.242l-0.821-0.504c-0.173-0.64-0.495-1.252-0.871-1.71l-2.086-2.536l-1.406-1.715l-1.031-1.303
				c-0.336-0.424-0.844-1.257-1.189-1.602c-0.971-0.971-1.933-1.906-2.802-2.928l-1.715-2.02c-0.839-0.988-1.859-1.976-2.848-2.823
				c-2.719-2.331-1.726-1.712-4.069-4.229l-1.532-1.646c-0.568-0.61-1.403-1.329-2.144-1.823l-1.426-0.95l-2.115,1.144
				c-0.528,0.285-1.1,0.623-1.603,0.942l-1.587,1.002c-2.312,1.46-1.599,1.362-3.39,2.28c-2.346,1.202-0.614,0.521-3.654,2.142
				l-3.147,1.678c-0.193,0.171-0.708,0.585-0.928,0.738l-2.6,1.379c-0.499,0.265-0.963,0.56-1.421,0.855l-1.252,0.804l-2.656,1.649
				l-3.166,1.932l-4.461,2.648l-1.469,0.808l-1.682,0.924l-2.253,1.228l-2.032,1.104l-1.119,0.798
				c-0.998,0.712-0.169,1.428,0.804,2.863l1.057,1.56l2.092,3.034c0.207,0.3,0.517,1.05,0.749,1.294
				c1.312,1.379,4.304,5.408,5.235,7.048l1.131,1.993l1.248,1.924l1.954,2.875l0.955,1.339l0.801,1.204l2.036,3.116l0.914,1.311
				c0.583,0.837,1.069,1.829,1.728,2.542l1.075,1.161l2.697-1.384l2.606-1.37c0.507-0.266,0.981-0.502,1.56-0.735l1.716-0.692
				c0.098-0.04,0.437,0.278,0.346,0.337c-0.09,0.059-0.354,0.236-0.445,0.312l-0.885,0.75c-0.724,0.301-1.32,0.571-1.962,0.887
				l-1.575,0.774l-1.529,0.76c-0.708,0.352-1.347,0.839-1.939,1.348l0.765,1.184l1.616,2.398l1.62,2.333l1.036,1.541l0.883,1.445
				c0.324,0.531,0.637,1.073,0.914,1.631l0.863,1.742c0.215,0.433,0.531,1.037,0.78,1.454l1.725,2.888l1.006,1.558l1.186,1.865
				l0.397,1.201l1.594,2.556c0.249,0.4,0.498,1.112,0.72,1.554c1.224,2.447,1.233,1.661,2.199,4.223l2.121-1.168l2.948-1.652
				c0.51-0.286,1.235-0.53,1.775-0.806l1.66-0.852l2.754-1.249l1.884-0.909l3.059-1.519l2.736-1.243l2.782-1.251
				C191.844,153.769,191.264,153.598,192.518,153.622z M244.953,126.368c0.403-0.063,0.997-0.229,1.34-0.427l1.695-0.977
				l1.822-1.049c0.343-0.197,1.227-0.128,1.56-0.274l2.054-0.9c0.265-0.116,0.496-0.849,0.543-1.142l0.38-2.362
				c0.085-0.529-0.231-1.594-0.243-2.153c-0.006-0.292,0.113-0.872,0.021-1.073c-0.832-1.812-0.262-0.366-0.322-2.966l-0.034-1.45
				l-0.126-4.013c-0.023-0.735-0.293-1.778-0.243-2.52l0.171-2.551c-0.262-1.931,0.043-2.053,0.157-4.906l0.076-1.892l-0.601-1.67
				c-0.892-2.478,0.271-1.996-0.827-3.946c-1.254-2.228-1.565-4.025-1.855-6.44c-0.025-0.211-0.526-0.699-0.587-0.887l-0.689-2.122
				c-2.144,0.861-2.006,0.306-3.302,1.748l-0.868-0.114c-0.378,0.341-0.677,0.609-0.966,0.802l-2.268,1.52l-2.713,1.257
				l-2.295,1.401c-0.326,0.199-0.883,0.942-1.227,1.113L232,90.165l-2.783,1.482l-2.992,1.585c0.202,0.555,0.563,1.426,0.885,2.106
				l1.294,2.739l1.371,2.94c0.291,0.624,0.596,1.329,0.808,1.971l1.832,5.564c0.03,0.905,0.222,1.762,0.516,2.689
				c0.945,2.977,0.073,2.288,0.905,4.469l0.064,0.906c0.704,2.226,0.457,2.905,0.836,5.13l1.111,6.536
				c0.131,0.773,0.309,1.512,0.518,2.278l0.814-0.369c1.318-0.598,2.504-1.247,3.809-1.896l2.087-1.039L244.953,126.368z
				 M71.576,131.789l1.576-0.953l1.6-0.965l4.113-2.217c0.675-0.364,1.515-0.976,2.19-1.447l1.358-0.948
				c0.812-0.566,1.621-1.005,2.546-1.48c1.057-0.543,2.076-1.317,3.083-1.968l2.311-1.494l-1.454-3.767l-1.028-2.662
				c-0.342-0.885-0.601-1.917-0.903-2.845l-0.405-1.244l-0.6-2.065l-0.731-2.103l-1.185-3.413c-0.359-1.033-0.663-2.05-0.86-3.108
				l-0.323-1.73l-0.827-4.284l-0.343-1.953c-0.118-0.673-0.356-1.407-0.451-2.074l-0.352-2.493c-0.035-0.245-0.4-0.864-0.586-0.739
				l-0.649,0.434c-3.559,2.382-4.353,2.13-8.153,4.129c-0.554,0.292-1.037,0.982-1.174,1.617l-0.669,3.09
				c-0.124,0.574-0.301,1.192-0.458,1.76l-0.931,3.36l-0.592,2.057c-0.194,0.673-0.371,1.443-0.41,2.133l-0.101,1.807l-0.072,1.658
				l-0.045,1.423l0.01,6.87c0-0.083,0.468,2.895,0.521,3.957l0.096,1.94c-0.66,0.84,0.053,1.244,0.047,3.137
				c-0.002,0.795,0.004,1.394,0.041,2.139l0.181,3.681c-0.004-0.087,0.286,3.234,0.732,2.509L71.576,131.789z M58.386,139.999
				l1.223-0.694l1.274-0.756l1.427-0.866c0.666-0.404,1.347-0.906,2.014-1.402l2.568-1.908l-0.283-3.624l-0.275-1.993
				c0.378-2.908-0.227-2.372-0.027-5.094c0.326-4.454-0.6-3.999-0.643-5.222l-0.15-4.278l-0.088-1.646
				c-0.064-1.19-0.109-2.338-0.032-3.498l0.114-1.727c0.069-1.049,0.076-2.135,0.303-3.135l0.789-3.477l0.798-2.926
				c0.218-0.8,0.462-1.667,0.645-2.478l0.528-2.347c0.066-0.293,0.153-0.72,0.141-0.671l-1.557,0.931l-1.775,1.062
				c-0.597,0.357-1.165,0.73-1.743,1.11l-4.822,3.173c-0.826,0.543-1.125,0.879-1.417,1.844c-1.222,4.034-0.982,5.512-1.652,8.513
				l-0.735,3.297c-0.189,0.847-0.171,1.678-0.196,2.537l-0.061,2.027l-0.222,2.262l-0.16,3.668c-0.019,0.445-0.023,1.067,0,1.529
				l0.165,3.353l0.284,2.564l0.324,2.418l0.336,2.902c0.16,1.38,0.374,2.721,0.627,4.158l0.252,1.428
				C57.063,140.714,57.664,140.409,58.386,139.999z M213.799,142.308l2.361-1.216l3.079-1.727l5.345-2.642l2.672-1.071
				c0.242-0.097,0.646-0.527,0.973-0.812c0.371-0.322,1.347-0.627,1.846-0.913l1.833-1.053c1.324-0.761,2.926-1.197,2.948-1.806
				c0.012-0.325-0.059-0.967-0.123-1.298l-0.604-3.114l-0.308-1.807c-0.171-0.771-0.272-1.432-0.335-2.172l-0.386-4.506
				l-0.434-0.836c0.045-0.259,0.166-0.916,0.1-1.187l-0.965-3.987l-1.111-3.813l-0.581-2.028l-0.44-1.532
				c-0.473-1.645-1.056-3.251-1.748-4.782l-0.729-1.613l-1.071-2.082l-0.879-1.675c-0.086-0.164-0.484-0.523-0.681-0.427
				l-3.751,1.813l-1.6,0.744c-0.887,0.412-1.633,1.012-2.454,1.541l-3.158,2.034l-1.721,1.11l-1.579,1.017
				c-0.47,0.303-1.029,0.779-1.517,1.001l-1.976,0.9c-0.841,0.383-1.651,0.778-2.435,1.234l-2.373,1.38
				c-0.637,0.37-1.69,0.699-2.239,1.117l-1.784,1.361l1.646,3.095l1.079,2.08l2.087,4.209c0.266,0.536,0.566,1.21,0.766,1.725
				l0.739,1.909l1.297,3.336c0.406,1.044,1.015,2.065,1.381,3.137l0.95,2.784l0.863,2.57c0.312,0.929,0.615,1.849,0.882,2.801
				l1.719,6.126l1.739-0.279C213.266,142.931,213.651,142.385,213.799,142.308z M117.621,153.046
				c0.384-0.266,0.85-0.429,1.316-0.737l3.029-2.002c0.744-0.492,1.87-0.673,2.566-1.144c0.662-0.448,1.265-0.893,1.91-1.241
				l2.402-1.297c2.497-1.349,2.112-1.615,4.442-2.67l1.426-0.646c0.501-0.227,1.125-0.591,1.603-0.929l2.5-1.768
				c0.394-0.279,1.519-0.395,1.874-0.685l0.936-0.764c0.634-0.232,1.366-0.379,1.879-0.742l1.325-0.937l3.411-1.68l-1.702-2.381
				l-1.163-1.693c-0.331-0.482-0.646-1.069-0.955-1.614c-1.49-2.626-1.005-1.191-2.947-4.186l-1.799-2.775l-0.904-1.383
				l-1.488-2.184l-1.782-2.817l-1.955-2.914c-1.246-1.857-1.82-2.173-2.818-3.76l-1.731-2.752l-1.163-1.185l-1.314-1.835
				l-0.966-1.345l-1.142,0.647l-2.004,1.136l-2.413,1.335l-2.355,1.319l-1.83,1.039c-0.601,0.341-1.203,0.708-1.818,1.014
				l-2.112,1.049c-0.494,0.245-1.034,0.518-1.488,0.781l-1.83,1.062c-0.658,0.382-1.317,0.761-1.995,1.105l-2.299,1.166
				l-1.445,0.802l-1.364,0.87l-6.635,3.412l-1.497,0.823c-0.333,0.183-1.029,0.735-1.18,0.903l0.593,1.518l0.901,2.199l1.368,3.138
				c0.14,0.32,0.319,0.919,0.522,1.309c0.662,1.27,1.175,2.452,1.74,3.752c1.473,3.396,0.38,1.883,1.546,4.344l0.768,1.62
				l1.031,2.666c0.147,0.38,0.9,1.031,1.106,1.45l0.947,1.929c1.511,3.077,0.33,2.352,3.292,6.635
				c0.564,0.816,1.196,1.74,1.657,2.564l1.42,2.544c2.814-1.065,3.22-1.695,5.943-3.024
				C117.411,152.901,115.845,154.275,117.621,153.046z M85.92,167.832l2.409-0.904l2.385-1.063l1.98-0.893
				c0.555-0.25,1.091-0.597,1.603-0.902l1.679-1c0.346-0.206,1.095-0.299,1.429-0.294c0.611-0.812,2.151-1.153,2.564-1.374
				c2.22-1.191,2.412-1.694,4.273-2.307c0.843-0.67,1.434-1.043,2.723-1.577c-0.072-0.333-0.422-1.239-0.698-1.787l-1.573-3.126
				c-0.445-0.884-1.49-1.864-1.832-2.837c-1.002-2.849-1.668-3.31-2.757-5.835l-1.113-2.58l-1.05-2.445l-0.818-1.707l-0.736-1.832
				c-0.499-1.243-0.906-2.443-1.509-3.632L94.1,130.2c-0.263-0.52-0.496-1.317-0.736-1.884l-0.745-1.763l-0.717-1.861l-1.033-2.682
				l-1.602,1.011l-1.577,0.996l-1.773,1.076l-2.105,1.265l-1.796,1.074l-2.541,1.518l-1.374,1.095l-1.645,0.939l-3.366,1.798
				c-0.866,0.462-1.769,0.927-2.569,1.445l-1.806,1.17c-0.027,0.689,0.204,1.791,0.444,2.569l-0.065,1.233l0.607,2.879l0.444,2.36
				c0.287,1.522,0.577,3.011,0.95,4.495l0.922,3.671l0.613,2.591c0.173,0.73,0.843,1.752,1.077,2.51l0.638,2.07
				c0.125,0.405,0.593,1.15,0.764,1.603c0.359,0.95,0.701,1.757,1.156,2.604l1.427,2.656c0.208,0.388,0.907,0.968,1.057,1.426
				c0.213,0.653,0.648,1.095,1.184,1.444l0.276,1.084l2.389-1.186C83.648,168.884,84.737,168.276,85.92,167.832z M239.395,170.552
				l1.314-0.527l0.572-1.492c0.151-0.394,0.639-0.97,0.925-1.351c1.851-2.469,1.258-2.251,2.586-4.01
				c1.64-2.171,1.271-4.315,1.631-5.817l0.561-2.343c0.478-1.997,1.867-4.343,2.691-6.948l0.616-1.946
				c0.23-0.728,0.697-1.687,0.845-2.3l0.432-1.79l0.552-2.2c0.303-1.205,0.385-2.158,0.82-3.286c0.191-0.495,0.36-1.25,0.463-1.829
				l0.317-1.783l0.31-1.926c0.126-0.781,0.178-1.475,0.167-2.228l0.297-0.88l-0.609-2.786c-0.084-0.081-0.416-0.402-0.222-0.214
				l-3.26,1.186c-0.961,0.35-1.998,0.797-2.958,1.228l-2.376,1.068c-1.905,0.856-3.659,1.766-5.521,2.787l-2.711,1.485
				c-0.269,0.147-0.072,0.956-0.056,1.257l0.185,3.365l0.45,1.963l0.242,2.633l0.192,2.005l0.116,1.431
				c0.081,0.996,0.059,2.109-0.007,3.116l-0.318,4.864c-0.137,2.096-0.501,2.668-0.843,5.116c-0.117,0.838-0.197,1.74-0.363,2.533
				l-0.483,2.302l-0.275,1.741l-0.359,3.116c-0.18,1.56-0.484,2.89-0.444,4.328l1.583-1.038
				C238.109,170.303,239.314,170.585,239.395,170.552z M219.214,178.605l2.714-0.941c0.853-0.296,1.811-0.842,2.643-1.286
				l3.007-1.606c1.266-0.676,2.575-1.18,3.969-1.425c0.836,0.516,1.82-0.093,1.892-0.976l0.111-1.353l0.275-2.265
				c-0.223,1.839,0.809-7.835,0.632-4.77l0.122-2.115l1.075-4.963c0.106-0.491,0.16-1.061,0.214-1.557l0.225-2.056l0.259-2.869
				l0.164-2.513c0.035-0.533-0.028-1.245-0.078-1.822c0.127-1.211,0.116-2.423-0.029-3.673l-0.331-2.856l-0.254-2.279l-0.253-2.566
				l-0.145-1.469c-0.489,0.039-1.167,0.092-1.478,0.283l-1.927,1.182c-0.411,0.363-0.899,0.722-1.341,0.924l-1.798,0.824
				l-1.958,0.919c-1.052,0.494-2.139,1.159-3.222,1.528c-0.609,0.207-1.209,0.351-1.647,0.667c-1.041,0.751-1.991,1.249-3.105,1.819
				l-2.41,1.234c-0.631,0.323-1.276,0.642-1.877,0.998l-2.642,1.568l0.401,2.337l0.714,2.384c0.378,1.262,0.534,2.533,0.797,3.82
				l0.483,2.359c0.357,1.062,0.717,2.141,0.992,3.231l1.09,4.313c0.195,0.772,0.415,1.831,0.498,2.599l0.392,3.647
				c0.054,0.498,0.018,1.356,0.035,1.925l0.143,4.894c0.021,0.708-0.071,1.382-0.105,2.364
				C218.092,178.929,218.607,178.815,219.214,178.605z M70.588,176.423l1.842-1.434l1.486-1.131c0.6-0.457,1.553-1.06,2.229-1.379
				l2.603-1.229c-0.213-0.425-0.418-0.855-0.595-1.116l-1.744-2.572c-0.849-1.252-1.556-2.52-2.051-3.944l-1.029-2.957
				c-0.636-1.826-1.19-2.756-1.571-4.06l-0.845-2.89l-0.541-1.937l-0.338-1.233c-0.205-0.748-0.332-2.939-0.615-4.006l-0.845-3.191
				l-0.434-1.801c-0.184-0.766-0.093-1.762-0.211-2.455l-0.434-2.544c0.072-0.018-0.811-0.089-1.097-0.079
				c-0.228,0.008-0.405,0.558-0.571,0.747l-2.95,1.945c-1.341,0.884-2.62,1.766-4.002,2.555l-1.3,0.743
				c-0.268,0.153-0.85,0.492-0.816,0.768l0.157,1.251l0.319,2.54l0.27,2.08c0.294,2.267,1.396,2.705,1.608,5.554l0.398,0.967
				l0.313,1.964l0.383,2.053c0.192,1.031,0.463,2.02,0.838,3.022l1.031,2.75c0.231,0.615,0.43,1.199,0.638,1.896
				c0.24,0.805,0.741,1.527,1.081,2.273c1.076,2.358,2.016,5.466,2.795,6.985l0.917,1.788c0.188,0.367,1.06-0.335,1.394-0.598
				L70.588,176.423z M129.153,184.944l1.594-0.748l5.366-2.633l1.782-0.787c1.686-0.745,0.737-0.565,3.284-1.867l4.371-2.234
				l1.864-1.171l1.727-0.88l3.093-1.786l1.141-0.295l1.638-0.974c0.33-0.196,1.23-0.129,1.562-0.289l2.564-1.237l1.336-0.905
				c1.558-1.055,3.301-1.678,5.02-2.435l0.807-0.355l-1.516-3.195l-1.107-2.322c-1.923-4.034-3.158-4.699-4.881-7.964l-1.98-3.75
				l-1.404-2.599l-0.612-1.107c-0.377-0.683-0.926-1.363-1.36-2.007l-2.31-3.428c-1.007-1.495-0.508-1.349-1.839-2.711l-0.529-0.542
				c-0.117-0.119-0.625,0.082-0.782,0.164l-2.048,1.081c-1.003,0.529-1.859,1.082-2.894,1.721c-0.554,0.342-1.784,0.661-2.403,0.965
				c-0.176,0.086-0.428,0.659-0.61,0.592l-0.682-0.251c0.016,0.343,0.063,0.717-0.102,0.811l-1.818,1.028l-1.48,0.858l-1.598,0.957
				l-1.265,0.789l-1.954,1.194l-2.485,1.49l-3.083,1.778l-2.171,1.248l-2.001,1.155c-2.116,1.222-1.622,0.826-3.616,2.059
				c-0.634,0.392-1.389,0.746-2.079,1.092l-2.315,1.159l-1.384,0.823l-2.512,1.167c0.932,1.253,1.746,2.485,2.421,3.726l1.434,2.638
				c0.372,0.685,1.018,1.468,1.448,2.159l1.428,2.298c0.235,0.378,0.53,0.901,0.771,1.213l1.638,2.123l2.119,2.745l3.081,3.737
				l1.324,1.556C125.744,181.496,128.533,185.235,129.153,184.944z M180.972,187.9l1.509,2.37l0.34,1.359
				c0.215,0.212,0.982,0.612,1.121,0.872l0.939,1.762c2.909-0.537,3.006-1.406,5.426-2.424c2.954-1.242,0.969-1.336,4.412-2.417
				c0.702-0.22,1.711-0.372,2.162-0.668l1.461-0.959c0.482-0.317,1.104-0.643,1.646-0.909l3.648-1.795
				c0.368-0.181,1.025-0.663,1.383-0.799l1.941-0.733l1.845-0.752c0.564-0.23,1.381-0.383,2.038-0.494l3.058-1.509
				c0.85-0.419,2.4-0.825,2.412-1.606c0.017-1.082,0.035-3.012-0.071-4.161l-0.217-2.353c-0.059-0.642,0.125-1.666,0.049-2.218
				l-0.321-2.338l-0.237-2.059c-0.057-0.5-0.331-1.258-0.432-1.753l-1.223-5.966c-0.066-0.32-0.165-0.98-0.272-1.262
				c-1.758-4.655-0.383-1.439-1.097-3.917c-0.36-1.25-0.73-2.398-0.939-3.665l-0.329-1.997c-0.069-0.422-0.402-1.263-0.683-1.677
				c-0.92,0.084-1.705,0.763-2.582,1.114l-2.032,0.815l-2.373,1.459c-0.172,0.106-0.842-0.285-0.948-0.114l-0.429,0.688
				c-0.229,0.367-1.203,0.608-1.608,0.869c-0.736,0.475-1.418,0.928-2.167,1.278l-2.921,1.369c-0.736,0.345-1.426,0.86-2.172,1.197
				l-2.791,1.257c-0.304,0.137-0.839,0.675-1.178,0.822l-1.799,0.779l-1.792,0.786c-0.342,0.15-1.025,0.349-1.303,0.513
				l-1.717,1.018c-0.301,0.179-1.051,0.282-1.332,0.342c-0.321,0.278-0.927,0.815-1.306,0.982l-3.023,1.328l-2.101,0.999
				l-1.753,0.83c-0.244,0.116-0.758,0.512-0.98,0.637l-1.309,0.738l-2.466,1.393l1.21,2.137l0.926,1.661
				c0.341,0.612,0.666,1.24,1.037,1.796l1.052,1.58c0.508,0.763,0.902,1.789,1.368,2.61l1.141,2.012l1.141,1.986
				c0.503,0.422,0.751,0.894,1.104,1.471l2.599,4.249L180.972,187.9z M112.537,308.477c0.64-0.037,1.496-0.168,2.007-0.308
				l2.014-0.549l0.481-0.982c0.045-0.092-0.137-0.346-0.226-0.295c-0.053,0.03-0.517,0.356-0.563,0.329l-1.745-1.029
				c-0.555-0.327-2.014-2.196-2.212-2.598l-0.703-1.434c-0.178-0.364-0.921-0.819-1.352-1.123l-0.294-1.369
				c-0.636-0.484-1.234-0.962-1.633-1.508l-1.473-2.018c-0.396-0.543-0.766-1.127-1.132-1.708l-1.228-1.946l-0.877-1.094
				c-0.708-0.883-1.189-1.86-1.734-2.85l-0.777-0.36l-2.493-3.769l-0.81-1.179l-1.54-2.214c-0.704-1.013-1.646-2.053-2.373-2.975
				c-1.379-1.75-0.249-1.382-1.119-2.282c-0.748-0.774-1.419-1.545-1.981-2.362l-1.049-1.526l-1.687-2.32
				c-2.75-3.781-0.341-1.406-2.297-4.208l-0.717-1.028c-0.427-0.409-0.771-0.795-1.043-1.248l-0.998-1.658
				c-0.233-0.387-0.756-0.952-1.109-1.414c-1.541-2.014-0.3-1.178-1.655-3.129l-1.881-2.708l-1.628-2.412
				c-0.198-0.293-0.374-0.982-0.54-1.282l-1.769-3.199c-0.924-1.671-1.639-2.426-2.862-4.572c-0.36-0.632-0.693-0.92-1.14-1.5
				l-1.673-2.171c-0.482-0.626-1.029-0.774-1.122-1.548c-0.129-1.074-0.701-1.851-1.292-2.709c-1.841-2.673-1.045-2.061-2.538-4.27
				l-1.524-2.255l-0.939-1.341l-1.695-2.344c-0.438-0.605-0.831-1.19-1.238-1.862l-1.403-2.313l-1.08-2.091
				c-0.29-0.562-0.641-1-0.951-1.59c-0.378-0.72-0.849-1.408-1.324-2.067l-1.193-1.659l-1.132-1.489
				c-0.252-0.331-0.583-0.967-0.833-1.388l-2.238-3.768l-1.305-2.166c-0.425-0.705-1.091-1.388-1.611-2.063
				c-1.332-1.729-2.845-3.917-3.875-5.77l-2.065-3.715c-0.424-0.763-1.018-1.443-1.592-2.107c-0.777-1.949-0.729-0.759-1.763-2.781
				l-1.642-3.211c0.07,0.137-1.365-1.784-2.207-3.265l-1.052-1.85l-1.536-2.714c-0.253-0.447-0.562-1.076-0.81-1.434
				c-1.048-1.515-1.607-2.017-2.209-3.967c-0.133-0.432-1.096-0.891-1.294-1.302c-0.261-0.541-0.593-1.253-0.892-1.707l-1.838-2.792
				c-0.503-0.764-1.49-2.649-1.929-3.169l-1.875-2.222c-0.326-0.386-0.811-1.194-1.072-1.697l-0.978-1.885
				c-0.298-0.574-0.57-1.133-0.888-1.667l-1.836-3.076c-0.18-0.302-1.18-2.938-2.222-2.426c-0.561,0.276-1.545,1.057-2.094,1.214
				l-1.855,0.529c-1.642,0.468-3.025,1.109-4.177,2.409l0.701,2.076c0.041,0.501,0.08,1.18,0.212,1.55l0.789,2.211
				c0.174,0.486,0.606,1.071,0.935,1.647c0.31,0.543,0.502,1.637,0.738,2.327l0.533,1.562c0.513,1.504,1.824,3.172,2.344,5.096
				l0.49,1.811l1.607,3.436l1.124,2.277l2.981,6.152l0.791,1.821l1.635,3.478l1.033,1.524l1.287,2.757l1.115,2.592
				c0.166,0.386,0.851,1.117,1.002,1.518l0.571,1.517c0.281,0.745,0.883,1.579,1.285,2.325l0.911,1.69
				c0.692,1.284,1.447,2.741,2.263,3.72c0.515-0.212,1.46-0.092,1.335,0.215c-0.238,0.584-0.554,1.058-0.537,1.389
				c0.014,0.276,0.34,0.759,0.512,1.08l1.595,2.975c0.31,0.578,0.583,1.074,0.956,1.619c0.8,1.167,1.445,2.357,2.173,3.581
				c1.419,2.389,0.981,2.775,1.377,3.392c0.292,0.455,1.082,1.128,1.268,1.552c0.278,0.633,0.553,1.243,0.839,1.784l1.697,3.203
				l0.983,1.929c1.304,2.559-0.15,0.133,1.18,2.462l2.375,4.159l0.913,1.681l1.682,3.185l0.56,0.849l1.267,2.449l0.508,1.21
				l3.005,5.587l0.991,1.851l2.1,3.625l0.745,1.246l0.977,1.583l1.293,2.128l0.845,1.461l1.366,2.645l1.842,2.927l0.892,1.697
				l1.18,2.244l1.156,2.303c0.483,0.962,1.018,1.83,1.487,2.809l0.737,1.537l1.379,2.584l0.805,1.475l1.111,2.029l0.995,1.872
				l0.979,1.838l1.113,2.087c0.335,0.629,0.618,1.247,0.936,1.943c1.311,2.868,0.524,0.08,1.861,3.826
				c0.526,1.475,1.749,3.773,2.601,5.079l1.913,2.928l2.537,4.077c0.318,0.512,0.682,0.98,1.068,1.476l0.788,1.251l3.48,0.016
				c0.667,0.003,1.393,0.206,2.028-0.016l1.997-0.698c2.314-0.809,1.324,0.085,4.187-0.298l2.57-0.343
				c2.265-0.302,3.437,0.229,4.778,0.024l1.806-0.276l2.492-0.407c0.755-0.123,1.531-0.251,2.28-0.295L112.537,308.477z
				 M108.05,196.684c0.531-0.382,1.375-0.693,1.925-1.019c1.311-0.777,2.547-1.617,3.759-2.513c1.687-1.247,1.522-0.881,3.976-2.267
				c0.311-0.176,1.084-0.428,1.378-0.621l3.111-2.043l1.953-1.256c0.657-0.422,1.552-0.76,2.231-0.788
				c0.136-0.069,0.614-0.368,0.543-0.491c-0.992-1.704-0.495-0.487-1.608-2.156c-1.642-2.462-1.466-0.785-3.205-3.334l-0.961-1.41
				c-0.381-0.559-0.78-1.092-1.202-1.638l-1.128-1.458c-2.374-3.071-0.388-0.858-2.064-3.326c-1.198-1.765-0.188-0.122-2.023-2.306
				c-0.364-0.432-0.834-0.973-1.085-1.414l-0.868-1.528c-0.382-0.673-1.096-1.518-1.344-2.21c-0.335-0.936-0.578-1.676-1.119-2.415
				c-1.719-2.347-1.675-3.575-2.676-3.135l-1.601,0.705c-0.851,0.375-1.83,0.707-2.599,1.118l-3.165,1.691l-1.75,0.818
				c-1.033,0.483-2.015,1.007-3.019,1.53l-3.96,2.063c-1.778,0.926-3.513,1.627-5.403,2.346c-0.319,0.121-0.899,0.465-1.256,0.633
				l-1.796,0.848c-0.427,0.202-1.086,0.709-1.499,1.083l0.939,1.537l0.78,1.23l1.012,1.558c0.518,0.798,1.057,1.611,1.633,2.366
				c0.436,0.57,1.05,1.17,1.339,1.756l0.692,1.403c0.533,1.081,3.442,4.265,4.061,5.039l1.771,2.213
				c1.533,1.917,5.128,4.871,6.148,6.132c0.731,0.904,1.614,1.578,2.592,2.263l0.544,0.831l1.328,0.753l1.991-1.415L108.05,196.684z
				 M152.442,208.253c0.888,0.496,2.273-0.351,3.005-0.708l1.61-0.786l2.678-1.325l4.948-2.446l1.353-0.667l1.065-0.478
				c2.939-1.32,2.091-0.618,4.732-1.706l2.456-1.012c3.157-1.3,1.095-0.036,4.501-1.737l1.927-0.963l2.755-1.381
				c0.083-0.803-1.168-1.72-2.367-3.988l-1.404-2.654c-0.35-0.663-1.082-1.393-1.561-2.092c-1.513-2.212,0.216-1.007-1.675-3.171
				c-0.364-0.417-0.762-0.978-1.085-1.441l-0.96-1.381c-0.263-0.379-0.521-0.814-0.763-1.253l-0.911-1.653l-1.362-2.291
				l-2.165-3.792c-0.174-0.305-1.22-2.845-2.208-3.479c-0.193-0.124-0.789,0.108-1.01,0.197l-1.862,0.745l-1.847,0.739
				c-0.607,0.243-1.362,0.791-1.939,1.086l-2.14,1.093l-2.498,1.213c-0.683,0.332-1.538,0.616-2.151,0.963l-2.379,1.347
				l-3.042,1.569l-1.473,1.01l-1.278,0.738c-0.66,0.381-1.344,0.752-2.015,1.099l-3.409,1.761l-4.138,2.166l-1.509,0.79
				l-3.382,1.771c-0.196,0.103-0.684,0.481-0.579,0.674l0.371,0.685c0.789,1.455,1.764,2.075,3.247,3.87
				c0.758,0.917,1.428,1.811,2.287,2.592c1.458,1.326,2.81,2.668,4.152,4.11c0.355,0.381,0.735,0.844,1.085,1.177l1.341,1.275
				c0.38,0.362,0.806,0.677,1.218,1.057l2.069,1.903l2.933,2.525c0.297,0.256,0.894,0.864,1.215,1.043L152.442,208.253z
				 M233.99,178.784l1.089-1.057c0.191-0.185,0.494-0.772,0.665-1.011l1.563-2.183c0.425-0.594,0.772-1.125,1.022-1.897
				c-1.333,0.459-2.941,1.389-3.761,2.188c-0.178,0.174-0.359,0.965-0.42,1.21l-0.561,2.243l-0.148,0.593
				C233.407,178.99,233.896,178.876,233.99,178.784z M89.473,210.295l1.47-1.115l2.805-2.053c0.576-0.422,1.162-0.948,1.704-1.415
				l2.008-1.732c0.605-0.522,1.276-1.035,1.958-1.427l1.48-0.851l1.849-1.097l-1.995-1.985l-6.66-6.758
				c-0.506-0.513-1.095-1.272-1.548-1.843l-1.287-1.618c-0.664-0.835-1.626-1.74-2.431-2.396c-0.358-0.291-0.716-1.22-0.954-1.585
				l-1.38-2.118c-1.841-2.824-1.145-1.066-2.237-2.857l-1.296-2.125c-1.059-1.738-0.801-0.668-2.25-3.458
				c-0.133-0.257-0.587-0.925-0.845-0.88c-0.412,0.073-1.225,0.292-1.562,0.458l-3.07,1.508l-0.77,0.63
				c-1.97,1.611-1.232,1.303-3.626,3.221l-2.052,1.644c0.028,0.552,0.552,1.66,0.906,2.391l1.114,2.297
				c0.139,0.286,0.216,1.22,0.321,1.541l1.861,2.905c0.284,0.443,1.068,1.085,1.264,1.493l0.848,1.76
				c0.51,1.259,1.093,2.452,1.908,3.536l2.856,3.797c0.97,1.289,0.377-0.42,2.873,2.82c0.204,0.265,0.749,0.718,0.968,0.971
				l3.586,4.145c0.301,0.348,0.704,0.938,1.007,1.195L89.473,210.295z M218.143,195.941l2.13-1.891
				c0.7-0.621,1.719-1.216,2.36-1.883l2.661-2.769c0.391-0.407,0.79-0.985,1.185-1.363l2.064-1.977l1.607-1.54
				c0.506-0.485,0.968-1.048,1.126-1.721l0.386-1.642l0.412-1.868l0.881-3.834l-0.593-0.584c-1.179,0.353-2.574,0.52-3.404,1
				l-3.49,2.017c-0.68,0.393-1.515,0.89-2.229,1.135l-2.383,0.819l-2.579,0.885c-0.998,0.342-0.702,1.003-1.065,3.126l-0.539,3.159
				c-0.108,0.63-0.302,1.598-0.309,2.269l-0.074,7.294c-0.001,0.107-0.29,0.491-0.226,0.556l0.367,0.381L218.143,195.941z
				 M194.108,208.502c1.221,1.434,2.013,2.405,3.515,1.538c2.808-1.62,2.818-1.89,4.923-3.139l1.959-1.162l1.35-0.416l1.66-0.913
				c0.362-0.199,0.975-0.954,1.303-1.192l1.674-1.209l3.599-2.467c0.834-0.572,0.684-1.653,0.694-2.587
				c0.006-0.543,0.125-1.305,0.214-1.935c0.372-2.638-0.051-1.169,0.02-4.272l0.034-1.507c0.012-0.534,0.038-1.428,0.136-1.96
				l0.718-3.874c0.121-0.655,0.118-1.591,0.091-2.141c-0.484,0.438-0.916,0.885-1.223,1.003l-4.747,1.824
				c-1.591,0.611-3.128,1.159-4.657,1.915c-3.307,1.635-3.573,1.284-6.709,3.256c-0.301,0.189-1.015,0.647-1.357,0.72l-2.757,0.588
				c-0.988,0.211-1.685,0.623-2.308,1.436c-0.351,0.066-1.136,0.144-1.396,0.31l-1.219,0.826c-0.988,0.669-2.038,1.203-3.149,1.694
				l-1.049,0.464l1.219,2.207c0.465,0.842,1.001,1.639,1.522,2.458l0.898,1.412l1.828,2.756l0.519,1.444
				c0.429,0.404,0.946,0.874,1.286,1.273L194.108,208.502z M257.409,185.219c0.474-0.15,1.14-0.244,1.345-0.495l0.366-0.447
				c0.059-0.072-0.242-0.466-0.323-0.51l-2.324-1.255c-0.435-0.235-1.123-0.492-1.318-0.217l-0.982,1.386l-1.091,1.536
				c-0.137,0.193-0.273,0.74-0.128,0.916c0.144,0.175,0.704,0.275,0.926,0.205L257.409,185.219z M134.33,215.971
				c2.828,1.164,2.018,1.296,3.321,0.553c2.513-1.431,3.135-1.452,5.742-2.835c0.454-0.24,0.939-0.599,1.396-0.873l1.621-0.972
				l3.402-1.945c0.131-0.075,0.476-0.21,0.59-0.253c0.114-0.043-0.168-0.321-0.279-0.417l-1.694-1.473l-1.375-1.193l-1.657-1.493
				l-2.603-2.214l-1.347-1.327c-0.435-0.429-1-1.437-1.362-1.852c-0.528-0.275-1.074-0.599-1.41-0.94l-1.616-1.643l-2.138-1.813
				c-0.289-0.245-0.751-0.949-0.957-1.271l-0.673-1.052c-0.78-0.617-1.496-1.23-2.033-2l-1.319-1.896
				c-0.274-0.394-0.931-1.098-1.373-1.421c-0.743-0.544-3.129,0.584-3.932,1.026l-2.385,1.315l-1.287,1.248l-1.485,0.846
				l-3.431,1.958l-2.179,1.244l-1.599,0.944l-1.43,0.874l-1.993,1.156l-2.225,1.507c-0.197,0.134-0.55,0.558-0.535,0.776
				c0.044,0.626,0.937,0.948,2.03,1.862c1.713,1.434,1.504,0.967,2.746,2.07l2.004,1.78c0.41,0.365,0.854,0.64,1.386,0.86
				l2.245,0.926c0.706,0.291,1.471,0.648,2.147,0.976l2.489,1.209l4.158,1.84l1.53,0.724c0.771,0.365,1.569,0.74,2.348,1.061
				L134.33,215.971z M166.403,216.621c2.321,1.238,3.185,0.994,5.654,2.075c3.668,1.604,1.504,0.755,4.497-0.136l3.732-1.11
				l2.339-0.657c0.804,0.192,1.604,0.09,2.396-0.275c2.449-1.131,4.687-1.794,6.572-2.878l2.812-1.618l-1.417-1.767
				c-0.712-0.887-1.245-2.277-1.757-3.316c-0.565-0.445-0.965-0.968-1.286-1.581l-3.02-4.709c-0.833-1.299-1.658-2.597-2.262-3.985
				l-0.315-0.723c-0.069-0.159-0.701-0.166-0.874-0.085l-2.654,1.248l-2.514,1.235c-0.669,0.328-1.445,0.681-2.151,0.962
				l-2.693,1.07l-3.239,1.302l-1.495,0.552c-0.454,0.168-0.954,0.518-1.335,0.906l-2.805,1.472l-1.484,0.775
				c-0.231,0.12-0.949,0.229-1.203,0.3l-2.443,1.52c-2.358,1.467-4.792,1.819-4.979,2.921l2.629,1.571
				c0.481,0.288,1.076,0.666,1.542,0.987l1.712,1.179C162.293,215.185,163.108,214.864,166.403,216.621z M21.628,208.023
				l2.629-0.987c0.603-0.226,1.267-0.5,1.751-0.781l-1.292-2.365l-0.9-1.646l-1.03-1.865l-0.713-1.271
				c-1.505,0.854-2.082,1.686-3.945,3.224c-3.845,3.173-2.313,4.506-1.454,8.445l1.184-0.713l1.805-1.077
				C20.193,208.67,20.947,208.278,21.628,208.023z M121.283,223.18c2.993,0.151,1.449,1.316,6.979,0.883l2.647-2.587
				c0.291-0.284,0.989-0.71,1.29-0.963l1.107-0.929l1.866-1.564l-2.861-0.979c-0.345-0.118-1.029-0.271-1.304-0.408l-2.124-1.056
				l-2.323-1.14c-0.786-0.385-1.468-0.755-2.342-1.042c-1.774-0.582-3.327-1.516-4.968-2.434c-1.855-1.038-2.836-0.923-5.124-2.274
				l-1.464-0.864c-0.506-0.299-1.004-0.673-1.479-1.075c-2.005-1.698-1.057-0.279-3.156-2.244l-1.392-1.302
				c-0.514-0.481-1.733-1.002-2.494-1.374l-1.464,0.765l-3.427,1.727c-0.278,0.14-0.806,0.539-1.008,0.723l-3.302,3.021
				c-0.25,0.228-0.661,0.578-0.902,0.743l-1.369,0.939l-2.326,1.596l1.777,1.641l1.893,1.75c0.556,0.514,1.301,0.611,1.339,1.615
				c0.071,1.865,2.194,0.724,4.559,2.886c0.638,0.375,2.187,0.404,2.885,0.75c3.927,1.949,2.058,0.788,5.155,2.014
				c3.695,1.462,1.229,0.03,4.735,0.994c0.595,0.164,5.441,0.271,6.568,0.084L121.283,223.18z M165.03,223.085l1.519-0.588
				c0.508-0.197,1.176-0.338,1.78-0.454l1.932-0.37c0.329-0.063,0.92-0.417,1.465-0.706l-1.095-0.632
				c-0.372-0.214-0.907-0.453-1.34-0.61l-3.124-1.133c-0.765-0.277-1.554-0.532-2.281-0.85l-1.792-0.784
				c-1.344-0.588-2.699-1.216-3.848-2.148l-1.266-1.028c-0.217-0.176-0.938-0.393-1.186-0.555l-2.588-1.697
				c-0.764-0.501-1.37-0.791-2.303-0.354c-1.175,0.55-2.243,1.119-3.34,1.804l-2.814,1.758l-1.239,0.775
				c-0.798,0.499-1.746,0.947-2.586,1.398l-1.344,0.79c1.68,1.217,5.013,1.86,7.37,2.265l1.531,0.264l2.207,0.343
				c3.375,0.525,2.511,1.245,4.847,1.686l2.729,0.515l3.012,0.614C161.947,223.527,163.998,223.485,165.03,223.085z
				 M200.274,227.083l0.133,1.419c0.693-0.157,1.164-0.418,1.712-0.871l1.662-1.375c-0.752-1.355-1.665-2.484-2.757-3.759
				c-0.475-0.554-0.671-1.915-1.025-2.636c-1.473-3.001-1.353-1.587-2.393-3.585l-0.993-1.908c-0.447-0.859-1.411-0.983-2.19-0.49
				l-2.962,1.875c-0.384,0.243-1.254,0.448-1.72,0.647l0.873,1.164c0.788,1.05,1.432,2.233,1.999,3.405l1.322,1.87
				c0.344,0.486,0.951,1.246,1.413,1.642C196.312,225.31,199.02,227.077,200.274,227.083z M156.921,224.644l0.593-0.076
				c1.108-0.142-2.2-0.668-2.709-0.837l-1.932-0.644l-2.461-0.821c-0.653-0.218-1.316-0.46-2.005-0.519l-1.734-0.148
				c-2.628-0.225-3.323-0.364-5.964-1.51l-1.469-0.638c-0.495-0.215-1.29-0.633-1.807-0.537c-0.388,0.072-0.987,0.493-1.368,0.817
				l-1.414,1.204c-0.908,0.773-2.658,1.892-3.003,2.394l-0.728,1.06c3.659,0.861,3.805-0.548,8.576,0.148l2.337,0.341
				c0.137,0.02,2.179-0.035,2.477-0.05l2.409-0.116l2.542-0.062C152.145,224.579,151.235,225.375,156.921,224.644z M216.495,252.437
				c1.083-0.096,2.282-1.008,1.678-1.927c-0.737-1.12-1.424-2.106-1.9-3.392l-1.498-4.048c-0.204-0.552-0.505-1.291-0.772-1.891
				c-1.396-0.332-5.048,1.793-4.594,2.458l0.435,0.637c0.419,0.614,0.886,1.238,1.242,1.836l0.975,1.644l2.377,3.913l0.903,1.685
				L216.495,252.437z M163.788,324.889c2.6-0.466,5.046-0.756,7.664-0.997c1.908-0.176,2.075,0.255,4.373,0.2l2.541-0.061
				c0.854-0.02,1.717-0.121,2.561-0.198l2.221-0.202c2.49-0.226,3.6-0.197,6.077-0.078c3.695,0.177,1.125-0.625,5.342-0.339
				l1.766-0.384c0.429-0.093,1.055-0.145,1.468-0.157l3.435-0.102c1.278-0.038,2.715-0.512,3.997-0.715l2.282-0.362
				c0.581-0.092,1.177-0.335,1.811-0.441l1.996-0.336c0.634-0.107,1.231-0.355,1.807-0.45l2.004-0.33l2.337-0.239l3.977-0.474
				l2.58-0.34c0.883-0.116,1.666-0.156,2.599-0.33l2.315-0.43c1.685-0.313,4.349,0.105,5.374-0.04l1.967-0.278l5.408-0.131
				l1.035-0.068l1.589,0.031c0.297,0.006,1.027,0.056,1.282-0.071c2.915-1.449,0.423-0.039,3.717-1.046l2.22-0.679l2.885-0.235
				c0.794-0.065,1.385-0.342,2.145-0.479l2.128-0.384c0.786-0.142,1.636-0.281,2.428-0.368l2.602-0.286l2.005-0.279l1.825-0.256
				c0.006-0.167,0.013-0.366,0.012-0.348l-1.533-1.271c-0.633-0.525-1.549-0.921-2.394-1.283c-1.126-0.482-2.361-0.571-3.656-0.675
				c-2.281-0.183-1.742-0.558-3.888-0.463l-2.738,0.122c-0.645,0.029-1.707-0.175-2.463-0.224l-1.497-0.098l-2.817-0.144
				c-0.865-0.044-1.747,0.066-2.573,0.132c-2.834,0.227-4.452,0.199-7.427,0.124c-0.809-0.02-1.933-0.461-2.771-0.608
				c-1.732-0.303-3.405-0.467-5.146-0.61l-2.055-0.169l-2.583-0.194l-2.265-0.17l-1.669-0.123l-2.008-0.146
				c-0.262-0.019-0.968-0.4-1.253-0.51l-2.409,0.454l-2.654-0.051l-2.511,0.005l-1.835-0.035l-7.328-0.17
				c-0.443-0.01-1.221-0.141-1.738-0.2l-1.791-0.205c-0.705-0.081-1.521-0.19-2.154-0.21l-2.115-0.066l-5.668-0.178l-2.291-0.204
				l-1.752-0.226l-9.592-0.017c-0.32-0.001-1.122,0.222-1.467,0.244l-2.027,0.128l-1.416,0.081l-3.948,0.182
				c-2.435,0.112-2.885-0.33-5.437-0.039l-2.055,0.235c-0.694,0.079-1.562,0.247-2.222,0.247l-5.191-0.002
				c-0.39,0-0.98-0.053-1.335-0.095l-2.042-0.243c-0.478-0.057-0.972-0.024-1.486-0.101l-1.618-0.24l-2.56,0.579
				c-0.602,0.136-1.453-0.027-2.129-0.057l-3.665-0.165l-1.368-0.087c-0.911-0.058-1.804-0.144-2.67,0.068
				c-7.039,1.725-7.321-0.323-8.913-0.067l-1.562,0.251l-0.807,0.128c-0.417,0.066,0.74,1.438-0.152,2.057
				c-0.213,0.147-0.693,0.094-0.999,0.172l-2.862,0.731c-0.661,0.169-1.693,0.332-2.343,0.341l-2.089,0.031
				c-0.433,0.006-1.275-0.064-1.649,0.04l-1.831,0.509c-1.885,0.524-4.277,0.973-6.095,0.575l-1.687,0.244l-1.784,0.294
				c-1.271,0.21-2.474,0.238-3.753,0.025l-1.287,0.341c-3.377,0.895-3.238,0.253-5.367,0.621c-0.413,0.072-1.079,0.326-1.415,0.282
				l-1.377-0.181c-0.76-0.1-1.832-0.509-2.511-0.664l-1.764-0.141l-1.325,0.549c-0.743,0.308-1.479,0.797-2.074,1.318
				c-1.884,1.651-2.495,1.61-2.122,3.271c0.126,0.562,0.456,1.454,0.872,1.688c1.03,0.578,1.98,1.06,3.029,1.287
				c5.13,1.107,2.043-0.159,6.256,0.567c0.735,0.127,1.404,0.328,2.093,0.482l3.991,0.892l4.607,0.893
				c0.505,0.098,2.339,0.94,3.536,0.935l7.442-0.03l2.284-0.07l3.158-0.157c2.186-0.109,3.128-0.52,5.325-0.215l1.801,0.25
				l3.139,0.535l3.15,0.537c0.659,0.112,1.634,0.242,2.252,0.256l5.111,0.109c0.285,0.006,0.945,0.166,1.179,0.15l1.646-0.112
				c3.526-0.239,1.315,0.575,4.194,0.035c1.194-0.224,2.394,0.013,3.611,0.081c2.284,0.128,4.534,0.162,6.831,0.048l1.413-0.07
				l2.589-0.178l2.593-0.212C160.689,324.628,160.877,325.411,163.788,324.889z M269.64,320.497l1.055-0.755l0.8-3.004l0.516-2.078
				l-1.225-0.701l-0.483,0.533c0.656,1.771-0.289,0.723-0.423,2.612L269.64,320.497z M95.098,332.121l2.233,0.356l2.019,0.31
				c2.848,0.438,4.947,1.661,7.885,1.53l2.644-0.118c0.452-0.02,1.354,0.15,1.881,0.177l2.131,0.108l4.517,0.17l1.701,0.024
				c0.292,0.004,1.042,0.207,1.346,0.281l3.248-0.108c0.78-0.026,1.774,0.211,2.546,0.243c2.218,0.091,4.366,0.117,6.555,0.019
				l3.222-0.145c0.91-0.041,1.912-0.395,2.836-0.542c0.779-0.124,1.655-0.165,2.463-0.242c2.966-0.282,1.318,0.137,4.886-0.245
				c0.973-0.104,1.884-0.284,2.886-0.23l2.828,0.154c-1.196-0.065,6.217-0.105,4.873,0.112l2.842-0.459l3.96-0.179
				c0.716-0.032,1.367-0.02,2.108,0.017c2.543,0.125,5.072,0.129,7.655,0.029l3.369-0.13l2.442-0.149l2.012-0.119
				c4.047-0.239,7.42,0.406,11.845,0.09l2.875-0.205l2.584-0.192l2.525-0.171l2.3-0.273l2.301-0.273l1.698-0.13l1.952-0.193
				l2.062-0.181c3.16-0.278,2.306-0.573,4.53-0.604l2.256-0.031c0.859-0.012,1.897,0.089,2.725-0.105
				c1.022-0.239,2.051-0.589,3.004-0.668l2.617-0.216l5.135-0.343c0.91-0.061,1.793-0.26,2.674-0.438l2.664-0.539
				c0.354-0.072,1.08-0.133,1.496-0.149l3.192-0.125c0.593-0.023,1.587-0.322,2.251-0.433l2.683-0.449
				c1.625-0.272,3.12-0.744,4.532-1.464l-0.29-1.007l0.665-3.287c0.057-0.28,0.567-0.705,0.834-0.796
				c0.268-0.091,1.048,0.384,0.991,0.693l-0.617,3.336c-0.024,0.132,0.072,0.692,0.191,0.658c0.119-0.034,0.489-0.134,0.612-0.185
				l2.455-1.016c0.975-0.404,2.948-0.114,2.949-0.831l0.002-1.115l0.181-2.052c0.041-0.462,0.067-1.041,0.078-1.586
				c0.008-0.384,0.537-0.985,0.922-0.998c0.506-0.016,1.244,0.209,1.63,0.398l-0.692,1.059l0.005,4.005
				c0.322-0.046,0.929-0.094,1.15-0.178l3.724-1.42c0.398-0.152,0.833-0.311,0.841-0.625c0.01-0.381,0.045-1.321,0.116-1.66
				l0.596-2.869c0.04-0.192,0.046-0.542,0.053-0.842l-0.582,0.016l-2.1,0.315c-0.596,0.089-1.454,0.391-2.026,0.408l-2.3,0.069
				c-0.472,0.014-1.012,0.066-1.525,0.134l-2.22,0.293c-1.063,0.14-1.99,0.222-2.982,0.507c-1.933,0.555-3.049,0.32-3.871,0.502
				c-1.623,0.358-3.187,1.189-4.838,1.315l-3.188,0.242c-2.77,0.21-2.746-0.1-4.914,0.087l-1.982,0.171l-3.637,0.18l-1.101,0.076
				c-0.713-0.066-1.405-0.077-2.083,0.033l-1.99,0.323l-1.986,0.296l-1.999,0.269l-2.287,0.302l-1.997,0.249l-2.86,0.329
				l-1.709,0.27l-2.165,0.38l-1.98,0.351l-5.843,1.04l-1.923,0.044l-2.002,0.332c-0.665,0.11-1.349,0.201-2.035,0.272l-2.338,0.243
				c-0.831,0.087-1.998,0.478-2.812,0.488l-9.721,0.121l-2.821,0.285l-1.682,0.1c-3.221,0.192-1.471-0.105-4.515,0.008
				c-0.556,0.02-1.096,0.017-1.642-0.067c-3.044-0.47-3.704,0.375-7.011,0.711c-0.859,0.087-1.804,0.237-2.582,0.25l-8.01,0.138
				c-0.74,0.013-1.784,0.284-2.517,0.244l-2.142-0.117c-0.524-0.029-1.581,0.327-2.172,0.342c-1.965,0.051-3.797,0.067-5.73-0.021
				l-2.448-0.112l-1.309-0.053l-7.916-0.104l-1.116-0.117c-1.043,0.126-2.154,0.152-3.188,0.061l-1.451-0.128
				c-0.759-0.067-1.518-0.187-2.259-0.327l-2.527-0.476l-2.612-0.488c-0.854-0.16-1.754-0.153-2.588-0.097l-2.253,0.153
				l-2.371,0.175c-3,0.221-8.392,0.199-11.657,0.079c-2.502-0.092-4.925-1.266-7.41-1.569c-0.873-0.107-1.726-0.174-2.473-0.372
				l-2.778-0.734c-1.058-0.28-2.171-0.426-3.28-0.467l-1.751-0.065l-1.657-0.126c-0.019,0.642-0.24,1.746-0.138,2.267l0.572,2.932
				c0.116,0.592,0.395,1.443,0.72,1.783l2.878,0.891c0.778,0.241,2.181-0.018,2.969,0.151l3.304,0.708l2.335,0.5L95.098,332.121z
				 M78.55,328.855l-0.337-2.854l-0.24-2.038l-0.192-1.607l-1.725-0.595c-0.31-0.107-0.758-0.455-1.341-0.86l0.196,2.85l0.164,3.048
				c0.424-0.202,1.313,0.047,1.443,0.437l0.546,1.638L78.55,328.855z"/>
			<path d="M159.04,252.092l-4.976-0.068c-0.708-0.01-1.7-0.809-2.41-1.327c0.316-0.323,0.734-0.626,1.015-0.628l6.236-0.057
				c0.838-0.008,2.046-0.665,2.862-0.784l2.867-0.417c0.54-0.078,1.342-0.35,1.959-0.527c5.778-1.658,4.964-0.692,7.513-1.24
				l2.647-0.57l3.255-0.641l2.031-0.451c0.718-0.159,1.663-0.618,2.417-0.872l1.926-0.647l3.366-0.998
				c0.538-0.159,1.387-0.877,1.898-1.151l1.703-0.912c0.483-0.259,1.788-0.262,2.237-0.613l1.786-1.398l1.036-0.085
				c2.003-1.202,1.618-0.102,4.343-1.911c2.88-1.912,2.048-0.807,3.63-2.084c1.894-1.53,1.638-0.936,3.945-2.333l1.643-0.995
				c1.118-0.677,2.727-1.499,3.867-2.003l0.937,0.03l2.012-1.725c0.623-0.534,1.274-1.003,1.942-1.48l0.806-0.606
				c0.804-0.605,1.549-1.311,2.238-2.071l1.403-1.145c2.557-2.086,4.178-2.622,6.61-5.357l1.192-1.116l2.358-2.203l2.941-2.761
				l1.701-1.502c0.485-0.428,0.905-1.226,1.325-1.774l1.256-1.636c1.398-1.822,1.912-1.436,3.425-3.368l0.863-1.102
				c0.609-0.981,1.206-1.8,1.866-2.727l2.152-3.026l1.453-1.919c0.521-0.688,0.91-1.374,1.405-2.035l1.844-2.465l0.8-1.052
				c0.185-0.244,1.067-0.074,1.25,0.177c0.341,0.469-0.128,1.432-0.501,1.834c-0.234,0.253-0.503,1.07-0.699,1.337l-1.079,1.471
				l-1.223,1.671l-1.235,1.615l-1.185,1.342c-0.606,0.687-1.032,1.744-1.632,2.319c-0.411,0.394-0.922,0.777-1.175,1.137
				l-1.324,1.881c-0.251,0.357-0.69,0.987-0.964,1.241l-1.962,1.822c-0.485,0.451-1.057,0.882-1.608,1.262
				c-0.414,0.922-0.992,2.013-1.764,2.718l-1.828,1.669l-1.173,1.104l-1.43,1.404l-1.305,1.31c-0.391,0.393-0.944,0.744-1.388,1.161
				l-4.838,4.545l-1.836,1.333c-0.612,0.444-1.77,0.914-2.231,1.429l-0.972,1.087l-1.742,1.371l-2.404,1.897
				c-1.213,0.957-2.577,1.859-3.951,2.549l-2.111,1.059c-1.005,0.504-1.998,1.02-2.946,1.626l-2.81,1.797
				c-1.027,0.657-2.003,1.263-3.102,1.778c-0.978,0.688-1.986,1.304-3.095,1.72l-2.322,0.869c-0.459,0.172-1.057,0.452-1.541,0.687
				l-1.764,0.858c-0.638,0.31-1.211,0.662-1.92,0.866c-2.208,0.632-1.477,1.041-4.721,2.404c-0.866,0.364-1.989,0.541-2.877,0.859
				l-1.92,0.688l-2.093,0.762l-1.513,0.541c-0.403,0.144-1.175,0.143-1.655,0.104l-3.84,0.886c-2.914,0.672-4.286,0.228-5.487,0.484
				l-2.825,0.601c-1.209,0.912-2.612,1.049-4.078,1.183l-2.336,0.212C160.675,251.061,159.716,251.707,159.04,252.092z"/>
			<path d="M31.28,102.952c-0.564,1.998-1.529,7.184-0.193,9.03l-1.034,0.816l-1.158-1.619c-0.194-0.272-0.253-1.185-0.212-1.533
				l0.533-3.697l0.455-2.896c0.298-1.896,0.599-3.716,1.001-5.555l0.408-1.869l0.478-2.342l0.461-2.023
				c0.187-0.703,0.363-1.399,0.591-2.049l0.741-2.114c0.597-1.705,0.97-3.507,1.766-5.126l0.875-1.779
				c0.153-0.311,0.314-0.861,0.428-1.221l0.623-1.959c0.393-1.236,1.208-2.389,1.77-3.56l0.944-1.968
				c1.415-2.949,0.662-0.733,1.691-2.819l1.338-2.71c0.284-0.576,0.758-1.182,1.102-1.737l1.871-3.015
				c0.302-0.487,0.662-1.127,1-1.526l1.596-1.882c0.153-0.181,4.368-5.702,4.145-5.308l1.303-2.296l2.478-2.505
				c2.043-2.065,0.803-1.876,4.208-4.876c2.356-2.076,2.825-3.343,3.201-3.649l2.042-1.664c0.098,0.317,0.066,0.995-0.119,1.22
				l-1.189,1.446l-1.43,1.742c-0.372,0.453-0.819,0.896-1.257,1.299l-1.228,1.13l-2.093,2.028c-0.17,0.165-0.279,1.013-0.374,1.245
				c-0.611,0.617-1.679,1.66-2.398,2.315c-1.943,1.771-0.501,1.094-2.392,3.6l-1.863,2.469l-0.858,1.206
				c-0.284,0.399-0.77,0.922-1.141,1.344l-1.344,1.53c-0.892,1.015-1.69,1.996-2.186,3.238l-2.151,3.032l-1.22,2.708
				c0.007-0.016-2.717,4.167-2.925,5.684c-1.884,2.584-2.09,4.69-3.401,7.946l-1.153,2.864l-0.709,1.9L33.155,90.5
				c-0.202,0.539-0.198,1.723-0.295,2.278l-0.352,2.019l-0.149,2.192c-0.043,0.631-0.981,1.856-0.851,3.895
				C31.56,101.693,31.488,102.212,31.28,102.952z"/>
			<path d="M136.165,253.335c0.453,0.254,0.672,0.662,0.195,0.796c-1.522,0.618-2.623,0.626-4.067,0.299
				c-0.526-0.119-1.594,0.082-2.1,0.005l-2.182-0.331l-2.159-0.385l-4.072-0.729c-1.561-0.28-3.476,0.195-5.022-0.168
				c-1.584-0.371-3.075-0.991-4.651-1.276c-0.631-0.114-1.397-0.168-1.885-0.359l-3.114-1.221c-0.518-0.203-1.329-0.423-1.888-0.592
				l-4.334-1.31l-1.439-0.399l-2.387-0.748l-1.369-0.437l-1.412-0.842l-1.775-1.059l-2.074-1.298l1.104-0.612l3.9,1.587
				c0.359,0.146,0.945,0.479,1.289,0.594l2.344,0.788c0.607,0.204,1.383,0.366,1.951,0.61l1.854,0.795
				c0.748,0.321,1.903,0.448,2.698,0.726l2.171,0.76l2.702,1.206c0.477,0.213,1.726-0.071,2.223,0.052
				c2.363,0.582,2.399,1.198,4.55,1.577l2.76-0.283c0.224-0.023,3.312,0.455,3.776,0.555l3.254,0.701
				c1.84,0.397,2.519,0.439,4.227,0.499l2.04,0.072C134.162,252.937,135.006,253.109,136.165,253.335z"/>
		</g>
		<g>
			<path d="M102.783,302.937c-0.184-0.276-0.443-1.045-0.553-1.302c-1.392-1.086-1.098-1.434-2.263-3.145l-1.392-2.045l-1.051-1.533
				c-0.608-0.887-1.237-1.781-1.947-2.615l-1.547-1.818l-1.011-1.301c-1.97-3.031-1.907-2.124-3.871-5.263l-1.312-2.097
				c-0.531-0.849-1.126-1.502-1.771-2.259l-1.32-1.548c-0.496-0.581-0.945-1.149-1.37-1.764c-2.039-2.955-2.448-2.905-4.474-6.08
				l-1.333-2.089l-0.802-1.199l-1.056-1.532c-0.292-0.423-0.655-0.864-0.983-1.269l-1.571-1.939c-0.347-0.428-0.67-1.065-0.92-1.598
				c-0.949-0.938-1.944-2.214-2.495-3.441c-0.411-0.917-0.916-1.469-1.469-2.301l-1.926-2.897l-1.104-1.492L64,248.73
				c-0.817-1.105-0.661-1.948-1.454-3.281l-0.881-1.482c-0.335-0.563-0.796-1.446-1.166-1.884l-1.603-1.895
				c-0.802-0.947-1.503-1.983-2.098-3.055l-1.462-1.653l-0.775-0.892l-0.376-1.841c-0.064-0.001,0.642,0.009,0.734,0.011
				c0.301,0.746,0.862,1.672,1.382,2.271l1.762,2.028l1.361,1.771c0.508,0.661,1.02,1.284,1.459,1.964l1.243,1.927l0.781,1.476
				l1.921,3.48c0.315,0.571,0.615,1.057,1.099,1.496l4.212,6.334l1.021,1.537l2.118,3.032l1.293,1.85l1.307,1.823l1.334,1.804
				l3.02,4.133l0.987,1.549l1.227,1.652l1.475,1.961l1.752,2.263l1.019,1.27l1.579,1.786l1.712,2.3
				c0.437,1.131,1.075,2.098,1.86,3.001l1.755,2.248l1.784,2.234l1.027,1.294c1.35,1.702,0.788,2.093,2.351,3.288l2.068,2.805
				l1.068,1.528c1.818,2.6,0.617,2.835,3.87,5.077l0.668,2.356c0.065,0.229-0.275,0.854-0.492,0.913
				c-0.896,0.247-0.674-0.541-1.591-1.921L102.783,302.937z"/>
			<path d="M42.395,205.489c0.089,0.088,0.061,0.696-0.056,0.651c-1.37-0.533-1.868-2.265-3.447-4.457l-1.524-2.116
				c-0.221-0.307-0.441-1.167-0.628-1.458l-1.001-1.563l-2.014-3.184l-2.122-2.34c-0.791-0.872-2.398-4.51-3.909-6.389
				c-0.377-0.469-0.878-0.977-1.134-1.424l-1.574-2.748l-0.757-1.51c-1.567-3.125-3.163-3.705-4.491-6.273l-1.584-3.063
				c-2.065-3.994-0.199-0.481-2.439-3.861l-1.62-2.444c-0.152-0.229-0.296-0.768-0.356-1.065c-0.537-0.504-1.275-1.214-1.819-1.836
				c-2.23-2.552-0.906-1.865-3.174-4.839l-2.422-3.176c-0.129-0.169-0.144-0.74-0.018-0.868c0.919-0.934,2.345,0.77,2.765,1.394
				l0.836,1.243c0.292,0.434,0.667,0.929,0.897,1.364l1.611,3.043c0.488,0.921,2.027,2.702,3.274,4.685
				c2.214,3.521,1.586,1.658,3.196,5.107c0.384,0.824,0.898,1.715,1.362,2.568c0.667,1.226,1.493,2.249,2.382,3.314
				c1.806,2.164,2.39,4.029,3.868,6.122l1.548,2.193l1.19,1.695c1.731,2.466,1.007,1.768,2.689,4.411l0.66,1.038
				c0.678,1.066,1.931,2.615,2.016,2.775l1.624,3.049l1.013,1.812c1.715,3.067,3.105,4.368,4.312,7.33
				C41.642,204.855,42.166,205.263,42.395,205.489z"/>
			<path d="M85.882,327.897c-0.2,0.204-1.192-0.202-1.182-0.452l0.09-2.226c0.018-0.455,0.151-1.003,0.406-1.202
				c0.255-0.198,1.193,0.216,1.345,0.521C86.99,325.439,86.639,327.124,85.882,327.897z"/>
		</g>
	</g>
</g>
</svg>
