<?xml version="1.0" encoding="iso-8859-1"?>
<!-- Generator: Adobe Illustrator 30.2.1, SVG Export Plug-In . SVG Version: 9.03 Build 0)  -->
<svg version="1.1" id="Layer_1" xmlns="http://www.w3.org/2000/svg" xmlns:xlink="http://www.w3.org/1999/xlink" x="0px" y="0px"
	 viewBox="0 0 310.286 366.857" style="enable-background:new 0 0 310.286 366.857;" xml:space="preserve">
<g id="n4VfTh.tif">
	<g>
		<path d="M310.286,348.3v0.856c-2.158,1.9-4.921-1.048-8.578,0.99l-0.142,2.145c-0.035,0.525,0.392,1.587,0.611,2.114l0.345,0.832
			c0.077,0.187-0.298,0.79-0.49,0.852l-2.098,0.672c-0.676,0.43-1.409,0.892-2.152,1.017c-6.225,1.049-2.052-0.197-6.097,0.395
			l-2.257,0.33l-1.613,0.238c-0.616,0.091-1.474-0.025-2.116,0.006l-2.241,0.108l-1.831,0.089c-1.693,0.082-3.276,0.231-5.032,0.44
			c-3.886,0.464-2.149-0.851-4.957,0.162c-0.362,0.131-1.137,0.185-1.576,0.237l-2.323,0.276l-2.886,0.46l-2.188,0.109l-3.655,0.644
			c-0.864,0.152-3.124,0.409-4.102,0.463l-1.941,0.107c-0.608,0.033-1.221,0.007-1.803,0.067l-1.921,0.196
			c-0.633,0.065-1.225,0.07-1.859,0.09l-1.037,0.033l-3.165,0.133c-0.537,0.022-1.344,0.188-1.949,0.256l-1.688,0.19l-1.747,0.265
			c-3.292-0.543-1.193,0.091-5.263-0.034l-2.731-0.084l-2.325-0.025l-1.654,0.118l-1.798,0.024l-6.805,0.137l-1.639,0.08
			l-2.354,0.146l-2.868,0.183l-6.004,0.159c-2.77,0.073,0.659-0.569-3.664,0.026c-1.287,0.177-2.504,0.205-3.732,0.099l-2.584,0.09
			c-0.872,0.03-1.703,0.123-2.574,0.277l-16.471,0.043c-0.555,0.071-1.039,0.106-1.533,0.135l-2.566,0.147
			c-0.667,0.038-1.827-0.2-2.381-0.111c-0.778,0.125-1.673,0.354-2.388,0.383l-1.841,0.074l-1.694,0.105l-3.052,0.187l-2.591,0.283
			c-0.828,0.091-1.545,0.202-2.345-0.058l-8.786,0.029l-1.975,0.058c-0.828,0.024-1.568,0.028-2.364-0.004l-5.318-0.215
			c-0.63-0.026-1.263-0.062-1.864-0.05l-1.333,0.027c-2.276,0.046-3.393,0.387-3.967,0.388l-5.454,0.002l-1.422-0.003l-3.105-0.031
			c-0.343-0.003-1.046-0.223-1.309-0.096c-1.521,0.736-1.428,0.3-4.46,0.645c-3.883,0.442-5.003,0.515-9.046,0.268
			c-0.75-0.046-1.462-0.108-2.145-0.083l-0.806,0.03l-5.424,0.198c-1.972,0.072-2.639-0.961-3.108,0.239H81.354l-0.627-0.734
			c-0.137-0.16,0.273-0.771,0.412-0.928c1.325-1.492,1.748-1.797,1.808-4.256l0.038-1.555l0.144-5.955
			c0.011-0.459,0.06-1.187,0.101-1.565c0.189-1.74,2.628-1.579,4.234-2.597l2.669-1.692c0.766-0.485,1.926-2.469,1.787-2.896
			l-0.453-1.398c-1.598-2.182-1.981-3.864-3.533-6.723l-0.696-1.281l-1.711-3.152l-0.565-1.166l-1.219-2.439
			c-0.251-0.501-0.519-0.996-0.817-1.461l-2.253-3.509l-1.035-1.483l-0.771-1.305c-0.566-0.959-1.102-1.923-1.584-2.954
			l-0.833-1.782l-1.036-1.71c-0.679-1.12-1.068-2.37-1.753-3.439l-1.7-2.653c-0.791-1.235-1.749-2.422-2.453-3.768l-1.661-3.179
			l-0.765-1.48l-1.863-3.625c-0.347-0.675-0.567-1.284-0.856-2.091c-0.225-0.627-0.801-1.471-1.109-2.129l-0.656-1.4l-0.861-1.708
			l-0.581-1.152c-0.262-0.519-0.531-1.063-0.751-1.563l-0.432-0.982l-0.688-1.592c-0.724-1.676,0.061,0.402-0.912-1.296
			l-0.844-1.472l-1.611-2.928l-1.796-3.366c-0.296-0.555-0.621-1.168-0.861-1.722l-0.962-2.225c-0.269-0.621-0.58-1.439-0.861-1.956
			l-0.718-1.321l-1.472-2.492l-0.922-1.343c-0.311-0.453-0.626-1.124-0.917-1.65l-0.911-1.647c-0.221-0.399-1.451-2.918-1.576-3.233
			l-0.993-2.505c-0.91-2.296-2.215-4.534-3.686-6.618c-0.4-0.567-0.744-1.62-1.108-2.284l-0.974-1.772
			c0.047,0.017-0.268-0.095-0.313-0.112l-1.154,0.154c-0.046,0.006-0.407-0.095-0.451-0.082c-0.665,0.19-2.008,0.515-2.753,0.777
			l-3.327,1.172c-1.728,0.609-0.024-0.385-1.925,0.739c-0.362,0.214-1.224,0.671-1.575,0.508c-0.727-0.337-1.013-1.51-1.314-2.175
			l-1.221-2.695c-0.268-0.592-0.992-0.062-1.013-1.286l-0.01-0.611l-0.01-0.584c-0.001-0.062,0.125-0.465,0.164-0.512l1.237-1.487
			c0.036-0.044,0.266-0.221,0.34-0.276l1.474-1.097l1.488-1.108l1.624-1.209c0.718-0.534,1.648-2.069,0.921-3.23l-1.01-1.613
			c-0.712-1.137-1.331-2.266-1.939-3.473l-0.55-1.091l-1.168-2.559c-0.278-0.609-0.488-1.417-0.798-2.091l-0.964-2.093l-1.094-3.008
			c-0.205-0.564-0.529-1.24-0.798-1.769l-1.632-3.217l-0.87-1.931l-1.077-2.362c-1.13-2.48-1.367-3.966-2.26-5.451l-1.507-2.506
			c-0.351-0.584-0.736-1.168-1.142-1.687l-1.783-2.274c-0.271-0.346-1.923-2.943-2.087-3.272l-1.162-2.328l-0.793-1.419
			l-1.918-3.821c-0.921-1.835-0.363-0.488-2.546-3.154l-2.185-2.668c-0.19-0.232-0.53-0.841-0.678-1.137
			c-0.281-0.563,0.645-1.698,1.838-1.855c0.83-0.109,1.903-0.185,2.409-0.441l1.151-0.582c-0.783,0.396,3.859-1.437,4.741-1.834
			l2.016-0.91c0.467-0.211,1.204-0.59,1.593-0.877l2.021-1.49c0.418-0.308,0.956-0.785,1.357-1.147l1.362-1.23l3.099-2.91
			c0.843-0.791,1.89-1.052,3.613-2.915l1.114-1.205c0.94-1.016,1.736-2.076,3.15-1.628l0.291-0.313l-0.367-2.061l-0.165-0.862
			l-0.311-1.508c-0.437-2.114-0.058-1.399-0.038-3.348l0.014-1.404l-0.124-1.295l-0.029-6.803l0.253-1.209l0.095-3.68l0.302-2.202
			c0.091-0.666,0.043-1.204,0.187-1.855c0.2-0.904,0.179-1.802,0.238-2.654l0.181-2.621l0.075-1.066
			c0.18-2.55-0.431-0.415-0.073-3.181c0.397-3.068-0.162-0.68,0.211-2.918l0.388-2.331l0.524-1.954l0.248-2.313
			c0.165-1.536,0.597-2.97,1.02-4.408l0.843-2.867c0.179-0.61,0.718-1.506,0.967-2c0.244-1.101,0.517-2.175,0.823-3.246l1.104-3.861
			c0.12-0.421,0.146-1.339,0.3-1.699l0.856-2.003l0.825-1.729l0.83-1.769c1.215-2.589,0.246-1.04,1.673-3.989l0.827-1.709
			c0.503-1.04,0.893-2.086,1.538-3.041l1.82-2.693l1.213-2.259l0.795-1.467l0.691-1.34l1.163-2.063l0.801-1.423
			c0.601-1.069,1.26-2.18,1.914-3.213c0.164-0.26,0.722-0.792,0.912-1.061l1.907-2.698l1.212-2.136l1.496-1.967
			c0.843-1.109,1.568-1.944,2.69-2.792c1.358-1.027-0.306-0.247,1.199-2.379c0.617-0.873,1.125-1.582,1.742-2.33l2.473-2.993
			c0.559-0.676,1.537-1.531,2.099-2.037l0.752-1.105c0.458-0.673,1.206-1.343,1.873-1.793c1.708-1.153-0.029-0.171,2.045-2.528
			l1.619-1.84c2.439-2.772,0.438,0.375,3.094-3.157c2.247-2.987,1.438-1.183,3.958-4.041c0.316-0.358,0.679-0.753,0.973-0.963
			l1.367-0.975l1.806-1.365l1.996-1.479c0.393-0.291,1.104-0.951,1.478-1.341c0.061-0.207-0.325-0.866-0.32-1.144l0.035-1.854
			c0.018-0.935-0.778-2.609-1.496-3.663c-0.567-0.832-2.016-3.819-1.694-4.349c1.141-1.885,0.214-0.413,2.056-1.767
			c3.706-2.725,1.851-2.371,3.966-4.097c1.364-1.113,2.443,0.017,4.286,1.354c0.393,0.285,0.987,0.841,1.318,1.203l1.365,1.493
			l1.655,1.813c0.534,0.585,1.323,1.564,2.108,1.303l2.05-0.682c0.399-0.133,1.131-0.734,1.497-0.987l1.554-1.074
			c1.486-1.027,4.302-2.145,6.093-2.743l1.76-0.587c0.47-0.157,1.16-0.52,1.658-0.8l1.892-1.063
			c0.329-0.185,1.058-0.222,1.524-0.055c0.234,0.084,0.716-0.504,0.98-0.58c2.462-0.714,4.333-0.916,5.576-1.258
			c1.018-0.28,1.914-0.584,2.946-0.76c2.616-0.447,3.255,0.283,6.254-1.129c3.81-1.795,1.857-0.56,5.525-0.422
			c0.815,0.031,1.69-0.185,2.447-0.451c2.192-0.77,1.656-0.263,4.761-0.659c4.281-0.545,3.257,0.906,6.22,0.781
			c0.575-0.024,1.238,0.108,1.566,0.531c0.25,0.323,0.247,0.952,0.222,1.51l-0.172,3.902c-0.019,0.42-0.411,1.312-0.525,1.711
			l1.483,2.37l-0.779,0.996c-0.133,0.17-0.618,0.263-0.854,0.359l-1.284,0.528c-0.669-0.074-1.813-0.222-2.484-0.212l-2.267,0.034
			c-4.061,0.06-1.462,0.081-5.47,0.611l-2.024,0.268c-0.668,0.088-1.619,0.425-2.257,0.451l-3.469,0.141
			c-0.627,0.026-1.833,0.224-2.428,0.331c-4.025,2.416-2.803-0.573-9.301,2.664l-1.533,0.764l-1.691,0.853
			c-0.224,0.113-0.882,0.239-1.169,0.31l-2.364,0.581c-0.646,0.159-1.472,1.081-2.186,1.446l-4.972,2.546
			c-0.143,0.073-0.331,0.518-0.263,0.617l0.635,0.924c0.227,0.33,0.908,0.882,1.201,1.238l1.436,1.746
			c1.498,1.822,0.811,1.281,2.768,2.926l1.763,1.482c0.359,0.302,0.8,1.149,1.132,1.681l1.332,1.057
			c3.123-0.729,3.551-1.476,6.411-2.489l1.712-0.607l1.582-0.679c2.17-0.931,4.502-1.244,6.832-1.73l1.874-0.391
			c1.32-0.275,2.56-0.632,3.852-1.036c4.628-1.447,2.129-0.47,5.429-1.088l2.874-0.538l2.907-0.544l2.199-0.391
			c0.581-0.103,1.417-0.243,1.943-0.261l4.046-0.136c0.522-0.018,1.354-0.18,1.94-0.276l2.049-0.336l1.583-0.278
			c3.844-0.676,1.317-0.021,3.858-0.359l2.554-0.34l1.771-0.253c0.542-0.077,1.414-0.303,1.887-0.316l4.33-0.119l1.534-0.156
			c0.699-0.071,1.479,0.042,2.214,0.098l2.79,0.214l2.294,0.176l2.584,0.221l2.858,0.274l2.53,0.181l2.859,0.275l2.299,0.201
			c0.715,0.063,1.384,0.111,2.051,0.198l2.258,0.294c0.897,0.117,1.793,0.257,2.643,0.494l2.033,0.567
			c1.149,0.32,2.592,0.452,3.611,0.97c1.41,0.717,2.647,1.103,4.178,1.331l1.469,0.219c1.64,0.244,3.202,0.477,4.869,0.6l2.58,0.19
			c2.823,0.208,3.218,0.199,5.767,1.064c1.352,0.459,2.972,0.643,4.206,1.207l1.782,0.815c0.814,0.372,1.392,0.756,2.144,1.295
			c0.124,0.088,2.198,1.058,3.527,1.845l2.172,1.288c0.477,0.283,1.395,0.587,1.994,0.84l5.067,2.142
			c0.642,0.271,1.498,0.861,2.137,1.227l1.834,1.049l3.098,1.821c0.526,0.309,3.218,3.039,3.878,3.758
			c0.783,0.853,1.645,1.551,2.508,2.34l1.052,0.961c0.754,0.689,1.615,1.498,2.223,2.273l1.535,1.953l0.884,1.128
			c0.715,0.913,1.357,1.888,1.908,2.96l1.022,1.987l0.784,0.601l2.192,4.416l0.848,1.771l1.206,2.563
			c0.473,1.006,0.827,2.042,1.264,3.071l0.755,1.779c0.146,0.344,0.272,0.835,0.408,1.253l0.755,2.327l0.313,1.234l0.507,1.79
			l0.854,3.137c0.926,3.403,0.596,3.028,1.437,6.462l0.558,2.276l0.87,3.722l0.347,1.655l1.093,5.144l0.566,2.896l0.631,3.399
			c0.162,0.871,0.047,2.109,0.168,3.017l0.27,2.026l0.293,2.881l0.313,2.25l0.141,1.736l0.162,1.985
			c0.305,3.748-0.11,1.937,0.172,5.705l0.197,2.643c0.053,0.708-0.087,1.69-0.07,2.42l0.045,2.025
			c0.016,0.704-0.014,1.394-0.055,2.109l-0.161,2.81l-0.07,1.394l-0.319,3.144l-0.224,2.87l-0.268,2.557l-0.279,2.297
			c-0.296,2.437-0.091,2.663-0.408,4.333l-0.547,2.889l-0.309,1.999c-0.178,1.154-0.471,2.304-0.86,3.391l-0.474,1.324
			c-0.244,0.682-0.375,1.533-0.571,2.281c-0.51,1.946-1.03,3.809-1.67,5.699l-0.937,2.765l-0.596,1.661
			c-0.254,0.707-0.493,1.45-0.774,2.118l-1.094,2.601l-0.766,1.822l-1.095,2.6l-0.695,1.593l-0.656,1.411l-1.537,3.286l-0.875,2.001
			c-0.45,1.029-0.958,2.046-1.488,3.047l-0.796,1.502l-1.847,3.305c-1.094,1.958-3.414,4.67-4.986,6.396l-1.525,1.675
			c-0.35,0.384-1.063,0.883-1.48,1.3l-1.157,1.161c-1.074,1.077-2.133,2.285-3.306,3.217l-2.727,2.166l-2.373,1.897l-2.431,1.871
			l-2.383,1.884l-1.43,1.15c-0.597,0.48-1.16,0.91-1.793,1.361l-1.968,1.404c-0.087,0.062-0.376,0.372-0.331,0.465l0.209,0.43
			l0.483,0.986c0.385,0.786,0.858,1.574,1.316,2.347l1.482,2.502c0.317,0.536,0.617,1.107,0.974,1.593l1.121,1.525
			c1.071,1.457,2.159,2.362,2.602,3.284c0.405,0.844,0.784,1.456,1.489,2.108l2.888-2.43l2.115-1.859
			c0.708-0.623,1.478-1.133,2.324-1.728c0.907-0.638,1.768-1.687,2.648-2.401l1.437-1.165c0.522-0.423,1.03-0.861,1.532-1.317
			l1.796-1.632l1.522-1.384c3.431-3.119,0.225,0.496,3.749-3.888l1.298-1.615l0.624-1.896l0.965-2.204l0.638-1.401
			c0.503-1.105,1.14-2.301,1.789-3.308l1.319-2.046c1.383-1.692,0.034-0.71,1.564-2.712l1.016-1.329
			c0.138-0.18,0.431-0.676,0.576-0.837l1.361-1.516c0.383-0.427,0.919-0.921,1.078-1.411c1.238-3.828,0.826-1.395,1.962-3.905
			l1.293-0.395c1.429,0.73,2.264,2.333,3.354,2.512l2.398,0.393c0.788,0.129,3.091-0.858,3.553-0.3l1.083,1.308
			c0.408,0.492,1.515,1.04,2.098,1.455c0.384,3.826-0.417,1.212-0.146,3.259l0.277,2.09c0.079,0.595-1,1.479-1.435,1.906
			l-1.742,1.713c0.199-0.196-1.742,2.22-1.757,2.236l-2.651,2.817c-0.311,0.33-0.731,0.915-1.05,1.165
			c-2.057,1.617-1.312,1.291-3.271,3.67c-0.269,0.327-0.517,0.768-0.757,1.237c-1.102,2.149-0.81,0.228-0.971,1.799
			c-0.042,0.413-0.591,1.123-0.75,1.571c-0.685,1.926-1.511,3.807-2.705,5.582c-0.449,0.668-0.922,1.699-1.45,2.155l-1.278,1.105
			l-1.394,1.179l-1.742,1.393l-2.578,1.997l-2.199,1.526c-0.392,0.272-0.963,0.694-1.262,0.991l-3.462,3.445
			c-0.188,0.187-0.53,0.696-0.731,0.943l-1.161,1.425l-1.167,1.435c-1.468,1.805-3.246,2.771-3.206,3.426l1.167,0.572
			c0.378,0.458,1.113,1.114,1.618,1.469l1.869,1.313c1.31,0.921,0.865,2.917-0.202,3.813c-0.484,0.407-1.029,0.84-1.491,1.074
			l-1.599,0.81c-0.653,0.331-1.852,1.021-2.247,1.562l-1.263,1.732c-0.297,0.407-0.969,1.135-1.394,1.384
			c-0.058,0.034-1.472,0.652-1.906,0.255c-3.004-2.747-1.276-0.811-3.424-2.489l-1.331-1.04c-0.379-0.296-0.778-0.704-1.19-1.088
			l-1.312-1.223c-0.123-0.114-0.629-0.093-0.775,0.001c-1.248,0.796-2.774,1.732-4.067,2.436l-2.986,1.625
			c-0.594,0.323-1.178,0.69-1.754,1.069l-3.105,2.042c-2.115,1.391-3.06,1.85-5.296,2.987l-1.5,0.762l-3.901,2.105
			c-0.336,0.181-1.004,0.476-1.37,0.605l-2.811,0.991l-2.098,0.749l-1.376,0.545l-3.852,1.58c-1.434,0.588-2.962,0.948-4.471,1.338
			c-2.198,0.568-2.949,0.45-4.314,0.799l-3.163,0.809l-2.392,0.594c-1.365,0.339-2.586,0.61-3.895,1.045
			c-3.628,1.206-4.407,1.459-8.152,2.114l-1.963,0.343l-3.73,0.711l-1.659,0.36l-2.651,0.599c-0.509,0.115-1.169,0.256-1.63,0.301
			l-2.383,0.232c-0.467,0.045-1.067,0.072-1.58,0.089l-1.436,0.048c-1.023,0.034-2.119,0.024-3.102,0.13l-2.333,0.252
			c-0.534,0.058-1.112,0.044-1.707,0.058c-0.9,0.022-2.194,0.472-3.071,0.422l-1.999-0.115c-0.922-0.053-1.778-0.168-2.714-0.077
			l-1.663,0.162l-6.528,0.121l-1.422,0.027l-1.162,0.175c-1.329,0.2-2.923,0.183-4.227-0.042l-3.656-0.633
			c-0.437-0.076-1.106-0.057-1.614-0.058c-0.414-0.001-1.252-0.36-1.708-0.426l-1.409-0.205l-2.376-0.432
			c-0.24-0.044-0.831-0.582-0.984-0.682c-0.647,0.122-1.624,0.158-2.169-0.093l-1.819-0.836l-2.399-1.102
			c-0.34-0.156-1.113-0.234-1.502-0.291l-2.406-0.35c-4.627-0.673-1.235-0.349-4.816-1.358l-1.258-0.354l-2.302-0.647
			c-2.906-0.817-2.548-1.177-5.904-2.038c-2.743-0.704-3.975-1.347-6.412-2.78c-2.488-1.463-0.928-0.867-3.494-2.287l-3.33-1.842
			l-1.428-0.811l-1.613-0.943l-2.003-1.168c-0.351-0.205-1.039-0.63-1.345-0.914l-1.473-1.363c-1.692-1.566-1.342-0.507-3.65-2.91
			l-1.17-0.546l-1.337-1.235l-1.316-1.222l-2.209-2.112l-1.165-1.114l-1.167-1.117l-1.009-0.981l-2.383-2.506l-1.939-1.745
			c-0.544-0.489-0.951-1.182-1.387-1.764l-1.835-2.454c-0.252-0.337-1.013-0.897-1.249-1.269c-0.354-0.56-0.688-1.463-1.013-1.822
			c-0.442-0.488-0.953-1.025-1.366-1.535c-1.737-2.144-0.773-0.022-2.281-2.273l-0.7-1.046c-1.496-2.234-1.195-0.339-2.499-2.282
			c-0.222-0.331-0.47-0.7-0.682-0.663c-0.212,0.037-0.713,0.452-0.759,0.602c1.058,1.238,1.7,2.188,2.356,3.663l0.979,2.202
			l0.733,1.513l0.774,1.53c1.068,2.112,0.82,2.078,1.891,4.074l0.902,1.684l1.017,1.9c0.287,0.536,0.709,1.186,1.052,1.727
			l0.908,1.432l0.642,1.301l1.731,2.857l0.92,1.656l0.955,1.589l0.848,1.413l1.372,2.336c0.43,0.732,0.799,1.426,1.359,2.094
			c1.442,1.72,1.223,2.758,1.768,3.42c1.21,1.471,2.731,3.136,3.675,4.806l0.832,1.472l1.63,2.405l0.936,1.345
			c0.599,0.861,1.089,1.768,1.652,2.651l1.875,2.942l1.877,2.689c1.582,2.267,0.604,1.467,1.568,3.236l1.216,2.231l1.581,2.983
			l0.757,1.515l1.411,2.875l0.379,0.773c0.549,0.46,0.973,0.956,1.296,1.565l1.305,2.458c0.785,1.478,1.673,2.908,2.744,4.045
			l2.779,2.95l1.404,1.485c1.546,1.636,0.799,1.284,2.591,2.834c0.631,0.546,1.576,1.272,2.031,1.857
			c2.623,3.375,1.651,0.931,4.026,3.445l1.557,1.648c0.454,0.48,1.154,0.977,1.654,1.435l1.957,1.794l1.204,1.1
			c0.17,0.156,0.708,0.225,0.972,0.269l2.054,0.341c1.775,0.294,2.68-0.151,5.555,0.503l2.548,0.58l1.943,0.401
			c1.185,0.244,2.056,0.504,3.308,0.42c1.682-0.113,3.427-0.132,5.103-0.002l2.594,0.201l2.529,0.198
			c3.222-0.828,1.703-0.267,2.703-0.148c1.547,0.184,3.331-0.49,4.39-0.489l1.799,0.002l2.536,0.162l2.327-0.088l2.033-0.098
			l3.076-0.205l2.587-0.193l2.307-0.203c1.138-0.1,2.534-0.157,3.638-0.008l2.285,0.309c0.506,0.069,1.079,0.101,1.548,0.081
			l0.955-0.04l1.601-0.066c0.661-0.027,1.52-0.143,2.129-0.126l2.122,0.061c1.217,0.035,4.766-0.553,6.203-0.278l1.213,0.232
			l3.897,0.145c0.726,0.027,1.48,0.155,2.118,0.113l1.74-0.114l3.568-0.141l1.277-0.245l4.224,0.042
			c-1.535-0.015,4.725,0.53,4.844,0.54l2.595,0.205c0.891,0.07,1.862,0.054,2.779-0.012c0.603-0.044,1.136,0.012,1.787,0.002
			l2.767-0.043l2.36,0.119c0.721,0.036,1.612,0.198,2.252,0.154l2.605-0.179c1.038-0.071,2.172,0.267,3.106,0.413
			c0.528,0.082,1.665-0.194,2.137,0.011c1.614,0.702-0.666,0.228,2.492,0.386c1.878,0.094,3.754,0.146,5.581-0.046
			c4.197-0.442,4.129,0.316,6.608,0.221l2.329-0.09c0.88-0.034,1.821-0.076,2.618-0.051l3.779,0.119
			c0.639,0.02,1.285,0.028,1.922,0.114l2.24,0.302c2.275,0.307,3.942,0.232,5.972,0.186l1.392-0.032
			c0.689-0.016,1.366,0.025,2.111,0.087l1.013-0.083l2.052,0.284l1.988,0.308c0.56,0.087,1.167,0.044,1.806-0.008
			c4.632-0.381,5.158,0.416,8.24-0.007c3.523-0.483,3.002,0.306,5.097,0.498c0.702,0.064,1.817-0.009,2.312,0.201l2.687,1.137
			c0.44,0.186,1.262,0.807,1.698,1.126l3.85,0.175c0.478,0.022,1.486,0.377,1.956,0.428c0.236,0.026,0.971-0.313,1.178-0.215
			L310.286,348.3z M303.366,212.144c0.1-0.908-1.073-0.451-1.918-1.684c-0.787-1.148-0.691-0.495-2.298-0.51
			c-3.323-0.032-2.782-0.3-5.805-1.612l-0.592,0.518l-0.549,1.776c-2.404,2.337-1.75,2.138-4.217,4.601
			c-1.779,1.778-0.348,1.142-2.225,1.581l0.556,0.683c-0.234,0.418-0.437,0.77-0.607,1.106l-1.166,2.312l-1.384,2.651
			c-0.189,0.362-0.537,0.907-0.671,1.247l-0.837,2.128c-0.225,0.573-0.611,1.336-0.919,1.867l-1.187,2.053
			c-0.315,0.544-1.108,1.222-1.638,1.707l-2.533,2.315l-1.668,1.485c-0.435,0.387-1.178,0.906-1.477,1.265
			c-0.422,0.507-0.805,1.088-1.201,1.407l-1.773,1.43l-2.647,2.216c-0.685,0.574-1.885,1.094-2.438,1.769
			c-0.683,0.835-1.239,1.408-2.05,1.999l-2.149,1.566l-1.328,0.989c-1.932,1.438-3.802,2.879-5.975,3.975l-1.916,0.966
			c-0.436,0.22-0.962,0.584-1.395,0.831l-1.857,1.06l-2.163,1.264l-1.967,1.184l-2.498,1.49c-0.579,0.345-2.801,1.337-3.526,1.581
			l-1.529,0.515c-2.497,0.842-3.191,1.655-5.788,2.679l-1.679,0.662c-1.257,0.495-2.546,0.936-3.867,1.307l-2.003,0.563
			l-1.981,0.585l-2.584,0.835l-1.773,0.573l-1.655,0.576c-0.565,0.197-1.319,0.51-1.851,0.588c-3.986,0.581-2.481,0.808-6.466,1.661
			l-3.274,0.701c-0.472,0.101-1.33,0.097-1.916,0.132c-1.73,0.104,0.469,0.292-3.797,0.506c-0.358,0.018-1.075,0.274-1.462,0.358
			l-4.303,0.933l-3.342,0.659l-2.228,0.377l-2.003,0.335c-3.084,0.516-0.842-0.374-2.645,0.169c-2.024,0.61-3.901,0.548-5.957,0.494
			c-1.137-0.03-2.613,0.408-3.687,0.141c-0.362-0.09-0.699-0.252-0.882-0.145c-1.442,0.851-0.742-0.002-1.934,0.236l-2.524,0.503
			c-0.818,0.163-1.625,0.3-2.372,0.374l-1.679,0.165c-0.783,0.077-1.524,0.163-2.308,0.201l-5.427,0.262
			c-1.295,0.062-2.719,0.102-3.969-0.022l-2.352-0.233c-3.849-0.381-1.864-1.002-4.811-1.14c-0.777-0.036-1.458-0.211-2.178-0.34
			l-4.399-0.786l-1.812-0.37l-4.315-0.927l-3.905-0.842c-0.29-0.062-0.87-0.643-1.124-0.671c-0.382-0.041-1.283-0.027-1.646-0.122
			l-2.497-0.652c-5.505-1.437-2.342-0.864-6.508-2.623l-1.985-0.838l-1.567-0.695c-1.069-0.474-2.116-0.892-3.25-1.331
			c-1.169-0.452-2.293-1.11-3.425-1.621c-2.128-0.96-2.468-1.199-4.352-2.553l-1.847-1.327c-0.282-0.203-0.888-0.648-1.19-0.787
			l-2.725-1.252c-1.098-1.676-0.395,0.037-2.534-1.457c-0.646-0.452-1.244-0.917-1.865-1.287c-0.692-0.411-1.656-0.712-2.277-1.163
			c-1.763-1.279-3.52-1.982-3.792-2.175l-3.366-2.391l-1.842-1.302l-1.882-1.321c-0.57-0.4-2.402-2.964-1.83-4.133
			c-1.4-1.357-3.369-4.125-4.379-5.847c-0.797-1.36-1.408-2.893-2.424-4.15l-1.29-1.595c-0.526-0.65-1.151-1.435-1.453-2.163
			l-0.773-1.863c-0.733-1.767-2.182-3.41-2.458-4.054l-1.364-3.183c-0.636-1.483-1.135-2.936-2.047-4.299
			c-0.46-0.688-0.892-1.414-1.273-2.134l-0.914-1.73l-0.328-1.044c-0.382-0.705-0.675-1.619-0.684-2.195
			c0.359-0.332,0.396-0.366,0.304-0.281c-0.293-0.275-0.414-0.374-0.439-0.424l-0.476-0.943l-0.197-0.387l-0.193-0.378l-0.188-0.371
			c-0.307-0.605-0.156-0.215-0.312-0.83l-0.124-0.489c-0.252-0.995-0.481-0.648-1.225-2.412c-0.227-0.539-0.527-1.191-0.657-1.577
			l-1.6-4.746l-0.67-2.167c-0.089-0.287-0.126-1.077-0.172-1.359c-0.384-0.53-1.509-3.732-1.549-4.019l-0.371-2.655l-0.289-1.889
			l-0.348-2.038c-0.065-0.382,0.042-1.286-0.089-1.621l-0.793-2.03c-0.324-0.829-0.597-1.759-0.601-2.602l-0.007-1.507
			c-0.003-0.555-0.585-1.663-0.617-2.237l-0.156-2.876c-0.036-0.659-0.358-1.551-0.457-2.284c-0.083-0.613-0.003-1.681-0.144-2.167
			c-0.354-1.224-0.671-2.267-0.854-3.443l-0.316-2.035c-0.111-0.714-0.104-1.413,0.007-2.161c0.165-1.107,0.014-2.186-0.025-3.348
			c-0.019-0.589,0.125-1.531,0.158-2.228l0.081-1.74l0.059-1.301l0.06-1.195c0.054-1.062-0.025-2.13-0.082-3.234l-0.101-1.944
			l-0.141-2.545c-0.038-0.684-0.051-1.347,0.019-2.043l0.293-2.888c0.036-0.359-0.171-1.254-0.104-1.609l0.329-1.757
			c-0.133-1.104-0.111-2.07,0.076-3.153l-0.428-1.167c0.091-0.846,0.16-1.665,0.191-2.569c0.115-3.398,0.481-1.487,0.747-5.364
			c0.031-0.445,0.057-0.947,0.136-1.256l0.639-2.516c0.081-0.32,0.221-0.972,0.274-1.312l0.671-4.303l0.383-1.806l0.424-1.819
			l0.682-3.048c0.142-0.634,0.228-1.312,0.414-1.834l0.915-2.559l0.294-1.417c1.897-1.929,0.403-1.664,1.304-3.273
			c0.487-0.87,0.967-1.807,1.372-2.668l1.108-2.355l0.829-1.709l0.867-1.726c0.32-0.637,0.625-1.246,0.909-1.918l0.769-1.817
			c0.682-1.611,1.489-3.227,2.38-4.689c0.21-0.344,0.479-0.734,0.638-1.053l0.778-1.565c0.255-0.513,0.644-1.029,1.046-1.509
			l0.253-1.159l0.961-1.388c1.202-1.736,0.847-2.334,1.781-3.832l1.455-2.333c0.305-0.49,0.552-1.093,0.774-1.614l0.955-1.745
			l0.934-1.63c0.38-0.664,0.751-1.402,1.167-2.002l1.973-2.844l0.671-1.62l1.755-2.547l1.587-2.112l1.82-2.468
			c0.45-0.611,0.873-1.199,1.35-1.787l1.295-1.596c0.346-0.427,0.839-1.27,1.187-1.578c0.846-0.747,1.528-1.332,2.202-2.155
			c1.314-1.606,3.29-2.991,4.968-4.205l1.617-1.17c0.977-0.707,1.885-1.315,2.804-2.058l1.439-1.163
			c0.522-0.422,1.29-0.857,1.904-1.204l2.958-1.667l1.519-0.714l3.034-1.843l1.615-0.953l1.685-0.922
			c0.88-0.481,2.101-0.975,2.96-1.247c0.243-0.077,0.681-0.48,0.873-0.587l1.853-1.037l2.803-1.489
			c0.974-0.518,1.891-1.048,3.023-1.299l1.547-0.344l2.569-1.119l1.368-0.637l1.931-0.964c0.542-0.27,1.435-0.674,2.103-0.713
			l2.453-0.143c1.768-0.103,3.457-1.111,5.166-1.288l2.902-0.302l2.011-0.251l2.08-0.258l3.656-0.616
			c0.994-0.167,2.297-0.026,3.367-0.137l2.896-0.301c0.444-0.145,0.619-1.28,0.754-1.738l0.312-1.054l0.455-1.518l-0.445-1.624
			c-0.285-1.041-0.54-0.754-2.983-1.807c-1.332-0.574-3.001,0.213-4.394,0.215c-0.755,0.001-1.601-0.098-2.364,0.086l-3.31,0.799
			c-0.578,0.14-2.865-0.604-3.777-0.264l-2.189,0.815c-2.971,1.106-3.087-0.24-7.336,1.161c-3.96,1.306-1.228,0.233-4.852,1.138
			c-0.648,0.162-1.292,0.452-1.927,0.645l-2.876,0.871c-2.77,0.839-2.487,1.573-3.791,1.906c-1.277,0.326-2.853,0.753-3.983,1.395
			l-1.518,0.863c-0.374,0.213-1.105,0.613-1.406,0.836c-2.129,2.134-2.624,1.454-5.194,3.581c-0.928-0.191-1.287,0.148-1.93,0.713
			l-1.225,1.077c-0.667,0.587-1.504,1.201-2.268,1.687l-2.448,1.559c-0.605,0.385-1.328,0.853-1.836,1.295l-1.383,1.205
			l-1.237,1.055l-2.524,2.062l-1.332,1.225c-1.729,1.591-1.648,0.893-4.301,3.12c-2.665,2.237-1.077,1.375-2.885,3.09l-1.616,1.533
			c-0.552,0.523-1.051,1.013-1.564,1.576l-2.178,2.388l-2.013,2.275l-1.732,1.957l-1.269,1.571l-1.413,1.483
			c-2.618,2.746-2.231,1.602-4.039,5.017c-0.3,0.566-0.573,1.229-0.93,1.668l-2.064,2.538l-1.643,2.098
			c-1.903,2.429-1.527,3.304-3.112,4.785c-2.346,2.193,0.411-0.017-2.541,3.3c-0.359,0.404-0.755,1.185-1.028,1.726l-0.861,1.706
			l-1.81,3.409c-0.315,0.593-0.58,1.465-0.747,2.134c-0.116,0.461-0.943,1.143-1.197,1.544l-1.694,2.661
			c-1.208,1.898-3.035,6.972-4.414,9.851c-0.987,2.062-1.729,4.075-2.316,6.272l-0.843,3.154l-0.558,2.069
			c-0.547,2.025-1.313,3.554-1.941,5.703c-0.549,1.88-1.073,3.802-1.304,5.745l-0.25,2.094c-0.075,0.632-0.3,1.589-0.311,2.195
			l-0.093,5.106l-0.228,1.231l-0.061,1.888c-0.034,1.05-0.116,1.99-0.286,3.061l-0.287,1.817c-0.098,0.618-0.154,1.211-0.178,1.807
			l-0.08,1.948l-0.091,2.234l-0.087,2.097l-0.147,3.386c-0.02,0.453-0.011,0.946-0.002,1.411l0.124,6.304
			c0.017,0.849,0.657,4.588,0.313,5.153l-0.4,0.657c-0.055,0.09,0.31,0.169,0.66,0.295l0.022,0.569
			c0.47,3.29,0.534,1.47,0.458,5.077c-0.008,0.389,0.292,1.163,0.356,1.601l0.369,2.543l0.672,3.434
			c0.12,0.613,0.321,1.359,0.401,2.026l0.313,2.613c0.092,0.767,0.108,1.53,0.088,2.268l-0.045,1.705
			c-0.01,0.385,0.088,1.256,0.165,1.711l0.452,2.656l0.707,4.161c0.482,2.837,0.289,1.059,0.784,3.777l0.376,2.067
			c0.09,0.492,0.192,0.982,0.319,1.475l0.439,1.714c0.221,0.861,0.217,1.803,0.345,2.689c0.095,0.658,0.353,1.757,0.741,2.529
			l1.08,2.147c0.464,0.922,0.478,1.871,0.77,2.781l0.504,1.569c0.124,0.386,0.43,1.072,0.627,1.529l0.852,1.977l1.06,2.464
			c1.327,3.085,1.41,1.647,1.994,3.501c0.194,0.617,0.351,1.623,0.68,1.993l1.145,1.287c0.263,0.295,0.121,1.266,0.053,1.697
			l1.66,3.015l0.941,1.936l1.024,1.849l0.802,1.487c0.401,0.744,0.785,1.473,1.225,2.196l1.414,2.324
			c2.728,4.483,1.239,0.849,3.238,3.646c1.683,2.355-1.612,0.553,1.941,4.238l1.445,1.498c0.489,0.507,1.31,1.139,1.683,1.611
			c1.455,1.84,4.581,4.933,5.225,6.018l0.836,1.409c0.413,0.696,0.875,1.197,1.361,1.799c2.119,2.627,0.533,0.044,2.297,2.628
			c0.093,0.136,1.861,2.089,2.135,2.344l1.938,1.803l2.198,2.069c0.492,0.463,0.995,0.929,1.445,1.409l1.262,1.345
			c0.462,0.493,1.047,1.07,1.61,1.5l1.456,1.111l1.311,0.981c1.43,1.07,2.744,2.132,4.11,3.319c1.4,1.218,1.989,1.348,2.582,1.965
			c2.043,2.126,0.626,0.221,4.513,2.937c1.639,1.146,2.456,1.241,3.551,2.145l1.39,0.663c2.217,1.057,1.263,1.084,4.083,2.428
			l3.12,1.487c0.617,0.294,1.804,0.385,2.465,0.622l1.715,0.616c0.624,0.224,1.234,0.444,1.876,0.631l2.406,0.702
			c2.202,0.642,3.895,1.599,5.306,1.815l1.989,0.304l2.109,0.27c0.537,0.069,1.323,0.393,1.871,0.633l1.873,0.822
			c0.517,0.227,1.298,0.762,1.846,0.861l3.437,0.621l1.831,0.388l2.716,0.456l3.989,0.635c2.601,0.414,2.725,0.327,5.134,0.291
			l6.587-0.099l1.424-0.02l1.157-0.195l8.252-0.05c0.412-0.003,1.033-0.044,1.346-0.088l1.783-0.251
			c0.445-0.063,1.024-0.064,1.491-0.085l2.535-0.115l2.061-0.051c1.286-0.032,2.598,0.07,3.915-0.187l3.66-0.714l4.74-0.933
			l3.388-0.575c1.191-0.202,2.37-0.427,3.529-0.766l2.876-0.843l2.788-0.698l1.757-0.507l2.036-0.599l2.754-0.858l2.017-0.558
			c3.004-0.831,4.514-0.652,5.142-0.861c4.146-1.377,1.471-0.005,4.868-1.676c0.709-0.349,1.604-0.852,2.308-1.094l6.002-2.064
			c0.413-0.142,0.998-0.391,1.382-0.584l1.933-0.97l2.858-1.433l2.233-1.18c0.453-0.239,1.392-0.507,1.785-0.745l3.412-2.064
			c0.373-0.225,0.912-0.621,1.324-0.9l2.912-1.971c1.708-1.156,2.329-0.99,3.485-1.96c0.334-0.281,0.865-0.457,1.187-0.62
			l2.399-1.218c0.288-0.146,0.836-0.637,1.124-0.806l2.19-1.287l4.301-2.328c0.864-0.468,2.642-1.9,3.522-2.649l2.164-1.84
			l1.388-1.214c0.269-0.235,0.8-0.704,0.976-0.955l0.96-1.37c1.602-2.286,3.014-3.579,5.066-5.488l1.785-1.66l1.364-0.614
			l2.491-2.089l1.559-1.307c0.485-0.407,1.04-0.923,1.533-1.261c1.544-1.056,2.608-2.233,3.582-3.866l0.956-1.604
			c0.178-0.298,0.436-1.033,0.581-1.408l0.637-1.653c0.844-2.192,1.125-2.162,2.345-4.885c0.668-1.491,1.082-1.313,2.896-3.334
			l3.373-3.759l1.3-1.54l1.607-1.837l1.113-1.192C303.419,215.39,303.041,215.086,303.366,212.144z M93.717,19.356
			c0.683-0.504,1.305-0.938,1.864-1.393l1.768-1.439c0.4-0.326,1.233-0.8,1.636-1.223c0.253-0.266-0.461-1.146-0.785-1.314
			c-2.358-1.225-1.236-2.895-5.859-5.064c-0.38-0.179-1.16,0.571-1.41,0.904l-0.749,0.999c-0.645,0.859-1.237,1.435-2.222,2.232
			c-0.072,0.35,0.101,1.176,0.336,1.611l0.736,1.363c2.277,4.214,0.967,6.068,2.767,4.74L93.717,19.356z M105.624,31.469
			c-0.348-0.38-1.528-2.209-1.268-2.853l0.486-1.199l1.861,1.56c0.664,0.557,2.224,2.662,2.881,3.63l1.154,1.703
			c1.317,1.943,1.516,1.723,3.062,2.887c0.259,0.195,0.613,0.591,0.825,0.515l0.951-0.342l1.335-0.446
			c0.271-0.091,0.615-0.84,0.453-1.075c-0.13-0.188-0.39-0.436-0.652-0.686l-2.359-2.249c-0.42-0.4-0.755-0.912-1.203-1.367
			l-1.65-1.676l-1.052-1.315l-0.498-0.903l-1.359-0.982c-0.417-0.301-1.272-1.276-1.796-1.182c-0.792,0.142-1.531,0.801-2.141,1.2
			l-2.458,1.606l-1.649,0.728l-3.505,2.101l-1.771,1.044c0.535,0.916,0.987,1.674,1.089,2.507l0.324,2.65l0.845,1.379
			c0.879,1.435-0.415,0.172,1.438,3.574l1.032,1.895l1.425-0.717c2.026-1.02,0.812-0.276,2.882-1.363
			c1.705-0.895,3.38-1.775,5.134-2.545l2.69-1.18c-1.58-1.008-2.594-1.642-3.236-3.079c-0.287-0.642-0.673-0.983-1.127-1.479
			L105.624,31.469z M155.245,243.837l0.397,1.866l0.941,3.647l0.651,2.226c0.091,0.312-0.005,1.004-0.172,1.247
			c-0.167,0.243-0.917,0.555-1.214,0.474l-2.939-0.801c-0.561-0.153-1.076-0.672-1.552-1.032c-1.085-0.821-2.048-1.45-3.279-2.257
			c-1.558-1.021-0.34-2.196-2.345-3.074c-1.53-2.515-3.393-1.731-4.787-3.15c-0.462-0.47-1.219-1.515-1.477-2.122l-0.858-2.023
			l-0.857-2.082c-1.176-2.857,0.251-1.167-0.83-3.114c-0.487-0.878-0.702-2.482-0.648-2.887l0.237-1.775
			c0.124-0.927,0.357-4.94,0.325-5.142l-0.525-3.291l-1.838-1.601c-2.229-1.942-0.309-1.632-1.332-2.579
			c-2.896-2.68-0.779-3.295-4.479-3.34l-2.399-0.029l-0.771,0.459c-3.612,0.693-0.505,0.707-4.881,2.583
			c-0.376,0.161-1.034,0.598-1.457,0.821c-0.188,0.1-0.787,0.195-0.979,0.271l-1.508,0.596c-1.193,0.472-1.756-0.379-2.522-1.017
			l-1.28-1.068c-0.831-0.693-2.458-0.414-3.482-0.092c-3.432,1.081-2.075,0.88-5.511,2.297c-0.783,0.323-1.53-0.378-2.044-0.749
			l-2.514-1.817c-1.533-1.108-0.812-1.617-2.374-2.123l-1.808-0.586c-0.443-0.144-1.219-0.885-1.557-1.209
			c-0.743-0.711-1.875-0.216-2.13-0.791c-0.217-0.491-0.395-1.565-0.416-2.11l-0.089-2.295l-0.062-1.579l-0.034-2.267l-0.287-2.18
			l-0.113-2.556l-0.4-0.835l-0.014-1.583c-0.036-4.193-1.236-1.71-1.303-4.068l-0.052-1.825l-0.039-1.422l-0.024-0.823
			c-0.035-0.799-0.014-1.551,0.043-2.374l0.214-3.066l0.247-2.292l0.165-1.683c0.058-0.593-0.052-1.362-0.148-2.051l-0.219-1.567
			l-2.739-2.083l-1.934-1.569c-0.447-0.363-1.437-1.042-1.964-0.989l-2.427,0.244c-0.831,0.084-2.257,1.182-3.858,0.273
			c-2.748-1.561-0.986,0.667-3.804-1.974c-0.812-0.762-2.364,0.19-4.585-0.833l-1.494,0.287c-0.476,0.091-1.016-0.48-1.176-0.993
			l-1.426-4.568c-0.292-0.936-0.624-1.812-1.007-2.721c-0.88-2.09-0.995-2.822-2.725-4.329c-0.068-0.059-0.019,0.408-0.006,0.504
			l0.407,2.956l0.266,2.026c0.081,0.617,0.238,1.341,0.283,1.921l0.16,2.08l0.133,1.657c0.071,0.877,0.094,1.708,0.296,2.587
			l0.426,1.851c0.333,1.448,0.537,2.893,0.741,4.393l0.24,1.762l0.522,2.877l0.368,2.241l1.237,6.195l0.952,4.126
			c1.061,4.602,1.905,5.304,3.512,9.429l1.129,2.898l0.361-0.007l1.157-0.917c-0.009,0.007,0.691-0.398,0.77-0.471l1.551-1.443
			c0.04-0.037,0.416-0.161,0.464-0.186c0.886-0.471,1.36-1.829,2.594-2.467c0.376-0.194,1.539-0.118,1.905,0.086
			c0.232,0.129,0.764,0.546,1.016,0.657c1.021,0.449,2.352,1.051,2.538,2.38c0.124,0.886-0.926,1.684-1.417,2.237l-1.628,1.838
			l-2.22,2.366c-0.343,0.365-0.841,1.155-1.202,1.597l-0.915,1.123c-0.303,0.372-1.218,1.191-1.161,1.672
			c0.135,1.118,0.888,2.378,1.438,3.295l1.087,1.814l0.859,1.473c0.351,0.602,0.86,1.201,1.308,1.78l1.385,1.792l1.364,1.774
			c0.44,0.572,0.887,1.25,1.348,1.766l2.021,2.265c0.778,0.872,1.569,1.65,2.444,2.423l2.734,2.415
			c0.771,0.681,1.639,1.213,2.473,1.818c2.363,1.713,4.649,3.349,7.254,4.708c3.048,1.59,3.363,2.161,6.23,3.751l2.023,1.123
			l2.755,1.245c0.5,0.226,1.002,0.607,1.468,0.828l3.707,1.759c0.64,0.304,1.292,0.614,1.945,0.884l3.04,1.258
			c1.46,0.604,6.528,1.63,8.339,1.962c0.43,0.079,1.31,0.375,1.714,0.583c1.291,0.664,2.619,0.817,4.115,1.089l4.51,0.822
			c0.657,0.12,1.351,0.138,2.052,0.192l2.3,0.178l2.539,0.179l2.885,0.273l2.751,0.28c0.526,0.054,1.27,0.151,1.801,0.161
			l5.41,0.097c0.193,0.003,0.744,0.098,0.923,0.122c1.399-0.151,2.765-0.012,4.214-0.043l1.355-0.029l1.251,0.071
			c0.609,0.034,1.302-0.034,1.981-0.071l3.686-0.201c1.496-0.082,2.853-0.194,4.343-0.047l1.947-0.35l3.411-0.146l2.3-0.259
			l2.585-0.284l1.787-0.193l0.54-0.313c-0.21-0.369-0.356-0.594-0.35-0.646l0.151-1.189c0.003-0.026,0.395-0.751,0.71-1.003
			l0.338-0.271l0.31-0.257l0.318-0.26c0.038-0.031,0.337-0.18,0.412-0.204l1.951-0.616c0.662-0.209,2.161-0.121,2.855-0.155
			c0.835-0.041-0.201-0.269,2.224-0.397c1.402-0.074,5.312-1.966,6.314-3.419c1.68-2.436,0.455-3.164,1.361-4.901l0.008-2.137
			c0.004-1.2,0.068-2.076,0.829-3.006l0.8-0.976c0.226-0.276,0.513-0.738,0.745-0.861l0.89-0.473
			c0.293-0.156,0.841-0.234,1.32-0.231l2.614-1.136c1.089-0.473,1.296,0.255,3.89-1.537c0.427-0.295,1.233-0.902,1.487-1.276
			l1.081-1.594c1.389-2.049,0.208-1.861,1.528-2.685c1.062-0.663,2.011-0.854,3.109-0.28c2.057,1.077,4.303,2.179,6.716,2.022
			c1.909-0.124,5.103-0.659,5.811-2.657c0.678-1.915,1.969-1.197,3.319-1.992l1.853,0.118c0.716,0.046,0.628-0.925,2.565-2.371
			l1.991-1.487c0.63-0.471,1.336-0.981,2.024-1.383l1.433-0.835c0.09-0.052,1.957-0.513,2.267-0.313l0.377,0.243
			c1.761-0.329,1.815,0.215,3.491,0.448l3.747-0.76c0.872-0.177,1.595-0.38,2.187-0.95l1.124-1.081l0.607,0.272l0.138,2.029
			l5.394-5.413l0.831-1.162l1.526-1.662c0.702-0.764,1.389-1.721,1.897-2.634l1.335-2.403l1.315-2.391
			c0.316-0.574,0.717-1.26,0.975-1.817l1.545-3.345l1.256-2.747l1.565-3.539l1.078-2.648l2.29-5.701l0.617-1.703l0.964-2.718
			c0.295-0.833,0.587-1.73,0.823-2.606l0.601-2.225l1.2-4.231c0.646-2.28,0.382-1.964,1.089-4.303
			c0.084-0.279,0.054-0.929,0.115-1.382c0.377-2.819,0.435,0.757,0.694-3.881l0.103-1.838l0.187-2.212l0.29-2.569l0.296-2.537
			c0.083-0.71,0.106-1.418,0.134-2.108l0.091-2.272l0.497-2.205l0.103-5.702l0.005-1.224l-0.005-2.808l-0.293-4.142l0.002-0.548
			l0.008-1.969c0.003-0.616-0.092-1.43-0.168-2.144c-0.362-3.36,0.266-0.546-0.243-4.013l-0.467-3.18l-0.289-2.038
			c-0.095-0.671,0.03-1.833-0.101-2.489l-1.472-7.405c-0.12-0.604-0.191-1.418-0.254-2.002c-0.083-0.203-0.351-0.771-0.4-0.984
			l-1.157-5.077c-0.043-0.187-0.187-2.558-0.558-2.546l-0.732,0.025c-0.503,0.017-1.558-0.243-1.772-0.696l-1.034-2.184
			c-1.077-2.275-3.742-3.66-3.847-3.446l-0.234,0.476c-0.53,1.075-0.458,1.644-0.468,2.682l-0.037,3.904
			c-0.003,0.308-0.324,1.065-0.375,1.386l-0.236,1.495c-0.344,2.181-3.633,2.197-5.298,1.96c-0.947-0.134-1.822-0.801-2.78-1.153
			l-2.536-0.933c-2.795-1.028-0.538,0.232-3.154-0.294c-1.102-0.221-0.742,0.322-1.583,1.08l-1.615,1.455l-1.819,1.642l-3.104,2.929
			c-0.785,0.741-2.267,0.873-3.417,0.782l-1.074-2.175c-0.328-0.663-1.189-1.918-1.623-2.493c-0.166-0.219-0.918-0.53-1.178-0.644
			l-2.229-0.979l-1.289,1.059c1.781,2.136,1.05,2.874,2.986,3.926c0.46,0.25,0.972,0.598,1.314,0.928l1.31,1.268
			c0.978,0.946,1.769,1.763,2.877,2.625c1.789,1.392,1.487,2.86,2.246,2.538c0.489-0.208,1.311-0.697,1.677-0.943l1.388-0.934
			l1.382-0.931c1.233-0.831,2.589-1.985,3.81-1.183c0.624,0.411,0.88,1.13,0.38,1.757c-0.665,0.836,0.403,0.942-0.115,2.586
			l-0.704,2.239c-0.637,2.024,0.778-0.148-1.037,3.494c-0.162,0.324,0.007,1.209-0.054,1.625l-0.626,4.272
			c-0.665,4.535-1.871,2.448-1.381,7.018c0.451,4.213-0.121,2.121-0.387,5.783l-0.188,2.598c-0.269,3.714,0.272,1.647-0.471,5.228
			l-0.878,4.233c-0.348,1.679-0.686,3.261-1.13,4.92c-0.897,3.345-0.683,5.689-1.997,7.769c-0.217,0.343-0.718,1.042-1.005,1.253
			l-1.801,1.322c-0.678,0.498-1.07,0.964-1.78,1.475c-1.187,0.856-1.868,3.35-2.273,4.942l-1.317,5.179l-0.417,1.726l-0.558,2.011
			l-0.56,2.309c-0.287,1.185-0.739,2.239-1.174,3.351l-1.876,4.793c-0.067,0.171-1.132,2.222-1.656,1.979l-1.371-0.636l-0.691-0.315
			c-0.105-0.048,0.161-0.49,0.214-0.643c0.946-2.729-0.125-1.469,0.763-4.465c-0.874-2.157-0.013-0.735-0.134-4.657
			c-0.007-0.214,0-0.447,0.01-0.783c0.253-8.94-0.314-3.356-1.18-9.581c-0.43-3.089,0.109-2.618-0.655-5.321
			c-0.985-3.487-0.516-3.504-0.685-4.304l-0.32-1.512l-0.228-1.641c-0.022-0.159,0.274-0.644,0.173-0.752l-0.528-0.567
			c-0.37-0.397-0.439-1.498-0.672-2.171c-0.188-0.545-0.609-1.278-0.895-1.883c-1.327-2.813,0.216-2.404-2.326-7.024
			c-0.435-0.792-2.004,0.628-3.342,0.457l-1.824-0.233c-0.584-0.075-1.218-0.067-1.797-0.085l-2.588-0.08
			c-4.5-0.138,0.951-1.11-6.127,0.384c-2.937,0.62-2.193,2.024-4.515,3.37l-1.89,1.095c-0.715,0.415-1.577,1.05-2.515,0.883
			l-2.438-0.435c-0.538-0.788-1.108-1.288-1.937-1.51l-2.304-0.619c-0.538-0.145-1.336-0.407-1.834-0.376l-2.557,0.16
			c-1.037,0.065-2.324-0.697-3.129-1.303l-1.822-1.371l-1.503-1.085c-1.15-0.83-2.389-1.295-3.817-1.642
			c-1.545-0.376-1.165-1.473-1.294-2.384l-0.282-1.995l-0.234-1.667c-0.268-1.905-0.394-0.018,0.358-3.786l0.425-2.128l0.399-1.888
			l0.642-3.042c0.094-0.447,1.082-0.92,1.478-0.846c1.136,0.211-0.194,0.49,2.144-2.344l1.945-2.358l1.042-0.963
			c0.003-0.003,2.536-2.583,2.395-2.582c0.235-0.002-0.603-0.399-0.654-0.802l-0.146-1.141c-0.049-0.383,0.131-1.185,0.333-1.495
			l0.962-1.478c-0.002-0.512,0.059-0.992,0.2-1.248l0.763-1.383l0.942-1.707c0.938-1.7,1.276,0.408,2.94-0.033l1.714-0.454
			c1.139-0.302,1.997,0.06,3.007,0.718c3.526-0.891,2.245,0.123,4.542-1.692l1.406-1.111l1.836-1.378
			c2.289-1.719,1.765-0.737,3.818-1.229l4.203-1.006c2.996-5.112,5.614-0.276,7.14-5.18c0.209-0.672,0.457-1.41,0.597-2.129
			c0.142-0.725-1.075-2.336-1.781-2.12c-2.905,0.887-3.105,0.604-5.476-0.403c-1.532-0.651-2.972-1.313-4.311-2.219l-2.39,0.701
			c-0.984,0.289-1.91,0.777-2.301,1.688l0.658,0.991l0.036,2.897c0.008,0.673-0.186,2.205-0.78,2.515
			c-0.757,0.395-1.617,0.881-2.287,1.157l-3.095,1.274c-0.548,0.226-3.725,0.607-4.39-0.152c-0.051-1.058-0.251-2.184,0.049-3.134
			l0.594-1.884l0.231-2.435l0.166-1.29c0.103-0.001-0.041,0.001-0.42,0.005l-0.769,1.83c-0.695,1.654-2.54,1.276-2.66,1
			l-0.337-0.771c-1.506,1.046-1.996,2.627-2.574,4.174l-0.851,2.276c-0.264,0.705-0.631,1.408-1.034,2.122
			c-1.123,1.987,0.268,1.075-0.843,3.089l-1.713,3.106l-1.109,1.242c-0.525,0.588-0.777,1.522-1.169,2.299l-1.629,1.207
			c-0.854,0.633-2.001,1.469-3.142,0.513c-1.306-1.094-0.468-2.243-3.468-3.38l-0.503-1.981c-0.633-2.494,0.413-0.745,0.214-2.416
			c-0.121-1.022,0.835-2.4,1.429-3.054c2.278-2.507,4.133-2.709,4.787-6.177l0.941-4.996l-0.978-1.107l-1.234-1.394
			c-1.26-1.423-0.712-1.323-2.566-1.476c-0.188-0.275-0.568-1.197-0.47-1.56c0.142-0.525,1.083-1.391,1.608-1.45
			c4.016-0.449,3.151-0.492,6.629-1.365l2.065-0.518l0.308-1.423l1.724-0.675c0.527-0.206,0.74-1.67,0.534-2.249
			c-0.748-2.097-1.926-5.112-0.442-7.064c0.669-0.88,2.892,1.082,4.401,1.229l1.515-0.993c0.305-0.2,1.093-0.672,1.263-0.989
			l1.009-1.882c0.297-0.554,0.679-1.641,0.133-2.01l-1.597-1.078l-1.398-0.962c-0.41-0.282-1.013-1.26-0.933-1.647
			c1.109-1.664-0.178-1.354,1.395-3.511c0.378-0.519,0.534-0.752,0.445-1.552c-0.392,0.485-0.668,0.857-0.951,1.337l-0.868,1.474
			c-0.327,0.555-0.639,1.33-0.826,1.964l-0.486,1.655c-0.352,1.199-1.854,0.429-3.557,1.683c-0.969,0.713-1.734,1.198-2.762,1.615
			c-1.695,0.687-4.303,1.81-6.082,1.395c-0.464-0.108-1.433-0.892-1.469-1.375c-0.335-4.541,0.086-3.206,0.743-5.212
			c1.519-4.635,2.696-3.9,3.683-5.707c1.095-2.003,1.5-3.182,1.978-5.325l0.218-0.976c0.209-0.937,0.444-1.934,0.738-2.805
			l0.734-2.177c0.243-0.721,1.427-2.955,2.079-3.442l1.364-1.017c2.095-1.563,2.483-2.692,4.791-1.923
			c0.664,0.221,1.74,0.167,2.453,0.492l2.004,0.916l2.116,0.549c2.663,0.691,2.605,0.11,3.768,2.227
			c0.879,1.6,2.594,2.304,4.325,2.498c0.495-0.804,0.993-1.447,1.319-2.203l0.695-1.609c0.438-1.015,2.049-2.922,1.349-3.839
			l-0.857-1.123c-0.579-0.759-0.9-1.378-1.137-2.359l-0.584-2.419c-0.079-0.326,0.542-1.069,0.674-1.191
			c-0.821-0.244-1.662-0.499-2.433-0.794l-1.904-0.727c-0.857-0.327-1.768-0.544-2.691-0.763c-3.407-0.808-4.152-1.164-7.777-1.518
			l-2.837-0.277l-2.891-0.276l-2.813-0.16l-3.165-0.29l-3.854-0.353l-1.567-0.144l-1.79-0.186c-1.034-0.108-2.257-0.117-3.318-0.019
			l-2.311,0.213l-2.304,0.207l-3.108,0.158l-2.864,0.463c-0.843,0.136-1.963-0.036-2.725,0.119l-5.468,1.109
			c-0.381,0.077-1.075,0.156-1.504,0.174l-3.709,0.152l-2.315,0.162c-2.952,0.206-1.504,0.415-4.553,0.82
			c-0.714,0.095-1.408,0.154-2.047,0.275l-4.151,0.785c-0.844,0.16-2.338,0.776-3.712,1.085l-2.817,0.634l-3.955,0.86
			c-1.884,0.41-3.626,0.97-5.431,1.676l-1.86,0.727l-2.847,1.191l-1.813,0.772c-2.66,1.132-1.942,0.591-4.629,1.642l-2.456,0.961
			l-2.878,1.075c-1.237,0.462-3.425,0.684-5.151,1.994l-0.995,0.755l-2.59,1.383c-0.636,0.339-2.308,0.724-3.416,1.666l-1.739,1.477
			c-1.048,0.89-2.235,1.819-3.398,2.545l-2.685,1.678c-1.261,0.788-0.289,0.327-2.213,2.321c-1.88,1.946-2.314,3.3-3.56,3.197
			c-0.399-0.033-1.138-0.518-1.41-0.845c-0.1-0.121,0.051-0.529,0.113-0.795c0.255-1.082,2.083-2.026,3.668-4.166
			c0.354-0.478,0.602-1.246,1.063-1.469l2.748-1.328c0.771-0.372,1.177-0.859,1.484-1.667l0.619-1.63l1.606-0.559
			c-0.115-1.632-0.667-2.893-1.335-4.342c-0.695-1.509-0.513-2.338-1.415-4.909l-0.514-1.465c-0.502-1.43-1.011-0.279-3.334,1.395
			l-2.36,1.701c-0.5,0.361-1.074,0.839-1.566,1.245l-1.606,1.329c-0.35,0.289-0.813,0.924-1.172,1.315l-0.932,1.014
			c-0.326,0.524-0.613,0.952-0.955,1.365l-1.179,1.421l-1.006,1.261l-2.498,3.243l-1.016,1.273
			c-0.643,0.805-1.208,1.653-1.733,2.537l-0.957,1.611l-2.219,3.426l-1.16,1.992L69.13,62.56l-1.428,2.588
			c-0.324,0.588-0.722,1.159-1.1,1.763c-0.671,1.073-1.124,2.253-1.687,3.495c-0.257,0.567-0.864,1.227-1.303,1.819
			c-0.274,0.369-0.497,1.381-0.735,1.774c-0.269,0.444-0.514,0.859-0.723,1.292l-0.848,1.753l-1.624,3.258
			c-0.307,0.616-0.794,1.35-1.055,1.952l-1.23,2.831l-1.124,2.58c-1.332,3.059-3.272,6.115-4.376,9.062l-0.945,2.522
			c-0.226,0.603-0.403,1.317-0.576,1.978l-0.598,2.284c-0.145,0.556-0.342,1.176-0.446,1.712l-0.706,3.627
			c-0.132,0.677-0.333,1.359-0.503,2.041c-0.335,1.348-0.507,2.755-0.767,4.157l-1.162,6.269c-0.133,0.72-0.24,1.558-0.251,2.271
			l-0.034,2.248c-0.012,0.833-0.039,1.669-0.078,2.518l-0.101,2.173l-0.061,2.536c-0.068,2.813-0.51,2.301-0.197,6.471l0.138,1.841
			c0.021,0.284,0.066,0.768,0.064,1.049l-0.033,6.304l-0.291,2.051l-0.128,2.614c-0.012,0.247,0.066,0.814,0.078,1.101l0.165,3.971
			c0.027,0.66,0.137,1.567,0.25,2.26l0.7,4.282c-0.146-0.891,0.208,3.385,0.169,3.114l0.291,2.018
			c0.164,1.14,0.353,2.294,0.577,3.398l0.97,4.786l0.405,2.104l0.786,4.037c0.117,0.601,0.316,1.196,0.452,1.803l0.37,1.653
			l0.512,2.384c0.096,0.446,0.448,1.072,0.703,1.583c1.319,2.648,0.366,2.406,1.608,6.559c0.202,0.675,0.425,1.208,0.816,1.809
			l0.287,1.183c0.447,0.611,1.08,1.38,1.348,1.997l1.15,2.65l1.324,3.249c0.176,0.431,0.143,1.487,0.343,1.869l0.999,1.913
			l1.075,2.14c0.266,0.53,0.709,1.16,1.07,1.767c0.509,0.857,0.776,2.002,1.084,2.943c0.138,0.421,0.6,1.176,0.819,1.652
			c1.751,3.805,1.188,1.49,2.166,3.491l1.065,2.179c1.331,2.723-0.173,0.965,2.237,3.986l1.294,1.622
			c1.652,2.07,0.502,2.022,2.686,4.685c1.087,1.326,1.974,3.04,3.246,4.122c6.047,5.143,1.654,3.912,4.485,6.113l1.315,1.022
			l1.298,0.979c0.27,0.203,0.877,0.684,1.194,0.835l3.221,1.529c0.644,0.306,1.283,0.677,1.796,1.071l1.5,1.153
			c1.227,0.943,3.332,1.475,5.232,2.688l1.242,0.792l1.636,0.94l1.615,0.928c3.004,1.727,2.211,1.744,4.885,3.09
			c0.927,0.467,1.915,1.056,2.827,1.411l3.515,1.37l1.87,0.724l3.031,1.298c0.405,0.174,1.107,0.826,1.539,0.982l2.081,0.753
			c0.499,0.18,1.201,0.386,1.735,0.521l2.607,0.664c0.567,0.144,1.273,0.496,1.852,0.618l5.965,1.25l2.355,0.75
			c0.821,0.262,1.663,0.297,2.507,0.388l2.037,0.22c8.059,0.871,6.957,2.721,16.812,2.211l1.749-0.091l1.937-0.306
			c0.618-0.098,1.191,0.008,1.73-0.055l2.037-0.238c2.151-0.251,3.869-0.66,5.087-0.685l1.965-0.04
			c3.484-0.07,1.292-0.287,5.07-0.123c0.81,0.035,1.958-0.359,2.86-0.447l1.823-0.177l3.437-0.265
			c1.09-0.084,2.143-0.245,3.187-0.489l3.748-0.873c0.474-0.11,1.209-0.197,1.746-0.29l5.058-0.877l3.05-0.443
			c3.269-0.474,0.116,0.265,3.7-0.596l2.787-0.669l1.4-0.586l3.535-0.866l2.007-0.475c0.834-0.197,1.734-0.543,2.565-0.834
			l1.92-0.67c1.672-0.584,3.282-1.067,4.986-1.551l1.735-0.493l3.388-1.007c0.804-0.239,1.848-1.201,2.641-1.492l2.571-0.943
			l3.009-1.064c0.237-0.084,0.977-0.05,1.175-0.165l1.761-1.026c1.068-0.622,2.041-1.183,3.038-1.872l0.315-0.471l-0.801,0.004
			l-0.685,0.004c-0.786,0.005-1.529-0.315-2.218-0.791l-0.366-0.253l-0.34-0.246l-0.303-0.256l-0.309-0.263
			c-0.103-0.088-0.234-0.204-0.279-0.239l-0.355-0.268l-0.325-0.251l-0.312-0.246c-0.104-0.082-0.272-0.229-0.322-0.255
			l-0.371-0.189l-0.383-0.191c-0.129-0.064-0.335-0.149-0.388-0.189l-0.33-0.253c-0.156-0.119-0.411-0.709-0.886-0.825l-0.452-0.111
			l-0.463-0.117c-0.147-0.037-0.368-0.076-0.434-0.11l-0.386-0.204l-0.316-0.259l-0.31-0.255l-0.318-0.267
			c-0.042-0.036-0.293-0.18-0.341-0.197l-0.448-0.156c-1.198-0.418-0.349-0.403-1.547-0.719l-0.464-0.122l-0.438-0.116
			c-0.074-0.02-0.269-0.129-0.393-0.191l-0.372-0.184l-0.383-0.192c-0.692-0.346-0.581-1.163-1.229-0.903l-0.428,0.172l-0.405,0.168
			c-0.291,0.121-0.562,0.533-0.729,0.605l-8.744,3.807c-0.178,0.077-0.409,0.138-0.512,0.166l-0.427,0.115l-0.513,0.289
			l-6.659,1.921c-1.528,0.441-2.851,0.821-4.343,1.117l-2.633,0.522l-2.622,0.493l-0.685,0.01l-2.442,0.6
			c-0.552,0.136-1.189,0.232-1.747,0.298l-2.825,0.333l-0.452,0.053l-1.591,0.18l-2.891,0.29l-2.208,0.303
			c-0.759,0.104-1.525,0.142-2.337,0.205l-2.578,0.198l-1.794,0.167c-0.419,0.039-1.181,0.175-1.614,0.175l-10.856,0.004
			l-1.428,0.001l-6.795-0.047l-1.741-0.072l-2.602-0.138l-2.575-0.2l-1.962-0.175l-2.299-0.275
			c-2.929-0.351-2.458-0.037-4.909-0.411l-1.98-0.302l-1.993-0.268c-1.148-0.154-2.136-0.395-3.252-0.75l-1.439-0.378l-1.742-0.501
			l-2.277-0.639c-0.491-0.138-1.005-0.268-1.539-0.383l-1.765-0.38c-2.24-0.482-3.83-0.863-5.968-1.861
			c-1.246-0.581-2.646-1.022-3.807-1.649l-2.23-1.204l-1.733-0.835l-3.219-1.623l-1.699-0.896c-0.455-0.24-1.01-0.554-1.423-0.826
			l-1.405-0.926c-1.522-1.003-3.103-1.872-4.746-2.639c-0.159-0.138-0.584-0.53-0.756-0.637l-2.639-1.648l-1.95-1.214
			c-1.16-0.722-2.214-1.596-3.224-2.463l-1.086-0.931l-3.938-3.513c-0.973-0.868-2.671-2.992-3.544-4.151l-2.947-3.91l-1.266-1.581
			c-0.472-0.59-1.069-1.338-1.414-1.942l-1.264-2.214c-0.411-0.719-0.801-1.514-1.297-2.118c-0.535-0.652-0.616-1.094-0.851-1.833
			c-0.389-1.227-1.092-2.414-1.696-3.664c-0.263-0.545-0.343-1.553-0.617-2.075l-0.818-1.56l-0.903-2.552
			c-0.877-2.478-2.078-4.82-2.47-6.132l-0.533-1.782l-0.942-3.642l-0.456-1.814c-0.601-2.391,0.305-1.02-0.549-3.671
			c-0.901-2.798,0.055-1.702-0.355-3.086l-0.523-1.767c-0.926-3.131-0.478-2.723-0.87-4.174c-0.155-0.575-0.39-1.38-0.413-1.861
			l-0.131-2.719c-0.475-0.365-0.78-0.791-0.803-1.196l-0.121-2.167l-0.011-0.943c-0.252-0.519-0.403-1.084-0.367-1.606l0.129-1.861
			l-0.558-0.677c-0.118-0.143-0.022-0.518-0.048-0.794c-0.346-3.713,0.681-1.407-0.188-3.456c-0.857-2.021,0.426,0.247-0.668-2.792
			c-0.216-0.601-0.104-1.896-0.034-2.557c-0.656-0.613-0.388-3.408-0.29-4.282c0.372-3.295-0.313-2.613-0.218-4.635l0.082-1.744
			c0.059-1.25-0.02-2.5,0.116-3.698l0.263-2.325c0.221-1.953-0.444-5.299,0.281-10.229l0.295-2.006l0.294-1.967
			c0.524-3.503,0.622-2.578,0.958-5.434c0.296-2.513,1.005-3.567,1.504-6.235l0.735-3.925c0.31-1.656,0.628-3.195,1.168-4.793
			l0.509-1.508l0.385-1.141c0.741-2.198,0.688-2.462,1.587-5.136l0.668-1.988c0.166-0.495,0.431-1.096,0.673-1.59l1.175-2.399
			c0.972-1.985,1.613-4.448,2.246-6.795c0.08-0.298,0.504-0.912,0.71-1.209l2.215-3.197l1.537-2.812l0.864-1.93
			c0.607-1.356,1.687-2.302,2.594-3.444l1.27-1.601c0.473-0.596,0.973-1.341,1.379-2.017l0.954-1.587
			c0.269-0.447,0.513-1.096,0.788-1.492l2.019-2.9c0.179-0.257,0.565-0.691,0.63-0.931c0.079-0.292,0.23-0.922,0.474-1.072
			l1.642-1.011c0.324-0.2,1.176-0.019,1.13,0.313c-0.074,0.531-0.146,1.172-0.032,1.479c0.448,1.208,4.635,0.674,6.031,4.388
			c0.151,0.403,0.259,1.465,0.177,1.89l-0.407,2.108c-0.106,0.549-0.811,1.136-1.339,1.43l-1.278,0.713
			c-0.668,0.372-1.104,0.715-1.638,1.264l-1.521,1.307l-1.108,0.944c-0.581,0.495-1.445,1.096-2.153,1.592l0.095,1.333
			c0.233,3.251-0.665,1.876,0.166,3.815c0.342,0.799,0.673,1.301,1.375,2.003l0.973-1.193l1.038-1.272
			c0.568-0.697,1.255-1.462,2.003-1.945l1.408-0.909l1.71-1.11l1.609-1.002c0.712-0.443,1.483-0.807,2.237-1.202l1.422-0.744
			c0.756-0.396,1.93-1.084,2.713-1.231l2.726-0.514c0.544-0.103,0.977-0.233,1.548-0.498c3.327-1.546,4.363,0.53,5.624,2.179
			l1.232,1.612c1.646,2.153,0.5,1.457,1.772,3.028l1.931,2.386l1.852,2.166c0.292,0.341,0.51,1.269,0.521,1.81
			c0.054,2.559-5.228,2.584-4.899,4.106c0.811,3.755,1.827,1.94,1.583,7.066l-0.093,1.96c-0.027,0.567-0.07,1.461-0.18,1.891
			l-0.661,2.587c-0.085,0.332-0.375,1.019-0.596,1.24l-1.209,1.209c-0.449,0.449-1.929,0.072-2.596,0.053
			c-0.591-0.017-1.386-0.009-1.806-0.187l-1.659-0.704c-0.089-1.325-1.034-1.819-2.192-1.899l-1.012-0.07
			c-0.692,0.375-1.322,0.618-2.103,0.844l-1.965,0.569c-0.99,0.287,0.029,2.5-2.566,3.722c-1.817,2.248-1.574,2.453-2.254,5.167
			c-0.32,1.278-0.589,2.477-0.797,3.775c-0.512,3.189-1.167,4.981,1.515,6.38c0.285,0.452,0.874,1.301,1.01,1.752l0.608,2.015
			c0.158,0.523,0.262,1.553,0.329,2.187l0.304,2.879c0.347,3.286-0.254,2.419,0.3,5.668c-0.655,1.81-2.882,1.445-3.511,0.994
			l-1.368-0.983c-0.566-0.407-1.164-1.37-1.752-1.885c-1.753-1.534-1.013-0.254-2.732-2.415c-2.088-2.622-0.834-2.406-4.015-6.247
			c-0.791-0.956-1.593-2.395-3.307-1.567l-2.34,1.132c-1.18,0.57-1.535,2.514-2.406,3.484l-1.566,0.956l-1.497,0.863
			c-2.596,1.498-2.219,2.099-2.246,4.299l-0.041,3.395l0.075,2.722c0.071,2.587,0.171,1.562,0.152,3.906l-0.024,2.978
			c0.152,0.365,0.494,1.38,0.783,1.712c0.57,0.654,1.806,1.506,2.6,1.844c5.441,2.319,2.646,1.059,8.23,2.036
			c1.481,0.259,2.665,0.692,3.689,1.826l1.649,1.828c0.312,0.346,0.904,0.822,1.307,1.214c0.765,0.744,1.636,1.491,2.549,1.992
			c0.356,0.195,1.219,0.637,1.616,0.692c4.186,0.579,3.919-0.914,8.381,0.448l2.822,0.861l1.079,1.258
			c0.677,0.224,1.797,0.552,2.388,0.613c1.74-0.533,3.755,0.12,5.113-0.426l2.028-0.814c0.945-0.379,3.092-0.843,3.449-0.668
			l1.551,0.759l4.071,1.923l1.401,0.642c0.454,0.208,1.212,0.812,1.583,1.033c0.719,0.057,1.14,0.253,1.605,0.913
			c1.08,1.533,0.619-0.398,2.243,2.824c0.358,0.709,0.816,1.547,1.262,2.188l1.834-0.303c0.581-0.096,1.591,0.89,2.174,0.926
			c2.46,0.152,0.302-0.128,3.637,0.916c3.546,1.111,2.872,0.023,5.46-0.894c0.925-0.328,1.912-0.752,2.886-0.741
			c3.258,0.036,1.973-0.116,4.185,1.323c1.284,0.835,0.727,1.182,1.292,3.575c0.806,3.414-0.104,1.802-0.323,4.819l-0.169,2.328
			l-0.149,3.434c-0.01,0.238-0.144,0.82-0.178,1.126l-0.258,2.302c-0.173,1.548-0.129,3.255,0.002,4.801l0.201,2.364
			c0.147,1.725,1.046,2.159,0.44,5.23c-0.561,2.841-0.258,3.228-0.94,4.456l0.366,0.704c-0.199,0.72-0.337,1.328-0.36,1.986
			c-0.033,0.942-0.25,2.022-0.228,2.878l0.048,1.856c0.033,1.279,0.116,2.555,0,3.852c-0.057,0.637-0.056,1.2-0.045,1.842
			l-0.268,1.47c0.196,1.164,0.677,2.458,0.624,3.626l-0.092,2.017c-0.015,0.331,0.2,0.984,0.242,1.315
			c0.181,1.412,0.346,3.032,0.644,4.511l0.535,2.653c0.449,2.23-0.134,0.856,0.569,4.486L155.245,243.837z M241.641,166.565
			l0.066,2.16c0.027,0.875,0.575,2.099,0.717,3.055l0.308,2.077c0.396,2.673-0.012,2.032,0.054,4.786l0.05,2.071
			c0.021,0.861,0.044,1.754-0.091,2.621l-0.274,1.758c-0.016,0.1,0.008,0.488,0.049,0.572l0.251,0.509
			c0.206,0.418,1.416-1.603,1.421-1.618l1.184-3.309c0.238-0.666,0.586-1.539,0.722-2.068l0.895-3.467
			c0.13-0.503,0.258-1.098,0.427-1.629l0.838-2.643c0.087-0.273,0.242-0.738,0.289-0.97l0.41-2.018
			c0.104-0.513,0.143-1.136,0.152-1.66c1.243-1.345,0.004-1.071,0.811-2.143c0.67-0.889,1.496-1.648,2.291-2.316l2.537-2.132
			c0.94-0.79,1.32-2.821,1.522-4.075l0.286-1.775c0.078-0.486,0.34-1.068,0.435-1.528l0.989-4.765
			c0.642-3.095-0.151-0.284,0.427-2.631l0.802-3.253l0.327-1.454c0.079-0.353,0.015-1.105,0.08-1.56
			c0.106-0.747,0.09-1.441-0.034-2.178l-0.277-1.646c-0.039-0.231,0.193-0.903,0.19-1.182l-0.067-4.843
			c-0.012-0.896-0.603-2.51-0.074-3.227c0.465-0.631,0.977-1.193,1.275-1.85l1.222-2.695l0.118-1.642
			c0.062-0.859,0.435-1.704,0.659-2.48l0.456-1.579c0.671-2.327,1.688-2.335,0.451-5.411l-0.512-0.185l-3.115,1.85
			c-1.427,0.847-2.976,1.923-5.04,1.05c-0.567-1.116-1.263-2.506-2.05-3.347l-1.425-1.523l-1.239-1.344
			c-0.856-0.928-3.595-1.525-3.671-2.142c-0.255-0.559-0.551-1.426-0.895-1.744l-1.389-1.282c-0.184-0.17-0.047-0.803,0.056-1.06
			l0.833-2.071c0.227-0.565,1.208-1.48,1.774-1.435l2.092,0.164c1.136,0.089,2.534,0.658,3.208,1.548l1.881,2.486
			c0.294,0.388,0.605,0.925,0.899,1.435c0.066,0.038,0.377,0.214,0.375,0.212l1.279-0.88c0.164-0.113,0.542-0.555,0.702-0.692
			l1.996-1.714l2.031-1.744c1.163-0.999,0.506-1.083,2.002-2.461l1.333-1.227l1.649,0.317c1.869-0.24,0.42-0.024,3.017,0.867
			l2.594,0.89c0.767,0.263,1.525,1.481,4.605,0.844c0.483-0.1,0.579-1.416,0.659-1.88c0.512-2.946,0.564-0.717,0.781-3.711
			l0.291-4.014c0.047-0.654,0.184-1.644,0.337-2.199l2.028-0.638l2.641,1.67c1.396,0.883,2.237,2.455,3.325,3.831l0.184-0.416
			l-0.586-3.169c-0.109-0.589-0.32-1.135-0.509-1.778l-0.662-2.254l-0.548-1.949c-0.228-0.81-0.392-1.751-0.708-2.49l-1.296-3.031
			l-0.569-1.934l-1.014-2.117c-0.638-1.331-1.092-2.669-1.822-3.928l-0.743-1.283l-1.069-1.809l-1.176-1.991
			c-0.327-0.554-0.89-1.221-1.277-1.773l-1.104-1.575c-0.655,0.38-1.032,0.617-1.373,0.73l-2.45,0.815
			c-0.427,0.142-1.33,0.346-1.75,0.362c-0.869-0.355-2.884-0.046-3.712,0.161l-5.97,1.491c-0.609,0.152-1.338,0.419-1.939,0.627
			l-2.41,0.83c-0.41,0.141-1.324,0.502-1.754,0.68c-0.477,0.198-0.213,0.812-0.625,1.878l-0.23,0.596
			c-0.172,0.446,1.211-0.279,2.39-0.601l3.155-0.86c0.664-0.181,1.97-0.316,2.719-0.341l4.039-0.133
			c0.322-0.011,1.05-0.075,1.353-0.159l1.922-0.536c0.567-0.158,1.278-0.642,1.811-0.944l2.265-1.28l2.319-1.31
			c0.226-0.128,0.931,0.052,1.063,0.256c0.133,0.205,0.19,1.019-0.013,1.153c-2.17,1.435-6.151,3.658-8.676,4.069l-2.018,0.328
			c-0.632,0.103-1.34,0.135-2.038,0.187l-2.606,0.195c-2.965,0.221-5.441,1.904-7.63,3.868c-0.4,0.15-1.292,0.408-1.739,0.469
			c-0.352,0.048-1.111-0.73-1.066-1.091l0.189-1.491c0.183-1.439,1.295-1.309,0.048-5.379c3.629-2.194,5.359-1.511,8.34-2.381
			l3.607-1.053c1.542-0.45,3.205-0.931,4.831-1.065c2.394-0.197,4.366-0.484,6.446-1.923l-1.348-2.125
			c-0.477-0.753-1.232-1.373-1.981-2.012l-2.547-2.168c-0.219-0.186-0.509-1-0.712-1.169l-1.957-1.628
			c-0.426-0.355-0.886-1.077-1.27-1.309l-2.184-1.318l-1.944-1.151l-2.214-1.224c-0.843-0.466-1.772-0.929-2.66-1.292l-1.444-0.591
			l-1.788-0.767l-2.009-0.862c-0.711-0.305-1.432-0.601-2.093-1.043l-1.514-1.015l-3.71-2.051c-0.452-0.25-1.154-0.762-1.589-0.94
			c-1.679-0.688-6.397-2.108-7.969-2.276l-2.335-0.249l-2.588-0.278c-1.36-0.146-2.823-0.095-4.324-0.027
			c-0.727,0.401-0.539,1.995-0.174,2.687l0.951,1.808c0.196,0.372,0.927,0.577,1.653,0.718c-1.074,2.991-1.502,1.784-1.928,3.788
			l-0.546,1.345l-1.087,2.678c-0.634,1.561-1.345,3.184-3.342,3.369c-0.36,0.033-1.285-0.157-1.606-0.329l-2.21-1.183l-1.701-0.907
			c-0.971-0.518-0.521-2.24-2.24-2.525c-1.577-0.262-2.865-0.812-4.241-1.375l-1.567-0.01l-2.377,0.014l-1.621,1.167l-2.538,1.824
			c-0.393,0.613-0.975,1.911-1.162,2.665l-0.863,3.469l-0.499,2.121c-0.301,1.281-0.809,2.496-1.386,3.731
			c-1.747,3.741-1.286,0.951-2.919,4.279c-0.375,0.765-1.185,1.793-1.201,2.503c-0.017,0.718-0.016,1.192-0.096,1.814l-0.246,1.899
			c-0.037,0.306,1.042,0.487,1.333,0.37l2.844-1.144c3.022-1.216,2.365-1.974,3.432-2.191c1.061-0.216,2.294-0.378,2.691-1.312
			l0.786-1.851l0.412-1.357c0.148-0.489,0.7-1.165,0.852-1.596c0.996-2.837,3.254-2.693,3.57-2.378l1.063,1.061
			c0.155,0.82-0.032,1.865-0.351,2.582l-0.83,1.865c-0.174,0.391-0.336,1.117-0.476,1.733l1.263,0.737l1.989,1.093
			c1.703,0.936,1.449,2.506,0.806,3.941c-0.625,1.395-1.019,3.001-2.231,4.124l-2.049,1.899c-0.373,0.145-1.403,0.551-1.791,0.463
			l-2.713-0.611l-0.275,1.428c0.156,0.28,0.615,0.948,0.687,1.267c0.698,3.122,0.875,2.923-0.072,5.843l-1.901,1.026
			c-0.722,0.39-2.176,0.379-2.978,0.664l-2.131,0.757c-2.558,0.909-1.6,0.319-3.925,1.276l2.237,2.368
			c2.406,2.548,1.57,3.154,0.976,5.653l-0.933,3.926c-0.154,0.646-0.637,1.473-1.104,1.956c-3.516,3.637-4.196,2.148-5.024,6.194
			c0.928,2.815,2.328,2.49,2.741,3.728l0.495,1.485l0.969-1.068l0.935-1.059l1.202-1.389c1.879-2.171,2.577-4.087,2.596-7.027
			l1.148-1.238c0.34-0.367,0.818-1.266,0.996-1.728l0.897-2.328c0.489-1.27,1.091-2.934,2.052-3.658
			c3.143-2.371,2.978,0.109,4.154-1.824c0.387-0.637,1.974-3.351,3.068-2.381l0.958,0.85l0.304,1.989
			c0.02,0.132,0.2,0.495,0.242,0.617c0.043,0.121-0.436,0.409-0.435,0.537l0.02,2.715c-0.005-0.661-0.46,3.216-0.818,2.846
			c-0.006,0.121,0.971,0.686,1.317,0.587l2.485-0.709c0.186-0.053,2.433-1.21,2.507-2.153l0.117-1.499
			c0.068-0.868-0.603-1.883-1.01-2.805c-0.548-1.242,2.749-3.282,3.443-3.518l2.788-0.947c0.312-0.106,1.087,0.127,1.359,0.256
			l1.025,0.488l3.096,1.467l2.52,1.194l0.518-0.224c0.032-0.919,0.619-1.684,1.332-1.805c0.566-0.096,1.475,0.358,1.803,0.827
			l0.872,1.251c0.13,0.186,0.499,0.63,0.655,0.503l0.631-0.511c0.822,0.516,1.429,1.895,0.768,2.844
			c-1.377,1.979-0.34,1.875-0.957,4.469l-2.481,2.424c-1.041,1.018-3.312-0.112-4.24,1.052l-1.325,1.662
			c-0.876,1.098-3.197,0.764-5.213,1.348l-2.226,0.645c-0.497,0.144-0.899,0.495-1.337,0.895c-0.801,0.73-1.698,1.33-2.555,2.025
			l-1.089,0.882l-1.236,1.001c-1.226-0.311-2.462-0.173-3.712,0.418l-2.205-0.835c-0.773,0.243-1.653,0.508-2.35,0.775l-2.086,0.801
			c-0.379,0.145-0.888,0.79-1.05,1.142l-0.611,1.325l-0.07,1.934c-0.019,0.517,0.08,1.209-0.014,1.775
			c-0.152,0.915-0.91,1.615-1.387,2.345c-0.706,1.081-1.432,1.927-2.526,2.624l-0.956,1.338c-0.967,1.355-1.386,0.72-1.421,1.825
			l-1.557,1.774c-1.463,1.668-1.059,1.71-1.55,3.608c-0.054,0.21-0.325,0.803-0.359,1.03l-0.295,1.967
			c-0.085,0.565-0.128,1.36-0.127,1.89l0.004,2.61c0.001,0.589,0.316,1.802,0.567,2.394c0.127,0.299,0.989,0.566,1.31,0.73
			l1.281,0.655c0.844,0.431,1.445,0.95,2.197,1.55l1.733,1.385c3.129,2.501,2.833-0.22,4.873,1.176
			c0.52,0.195,1.704,0.067,2.335,0.183l3.706,0.68c1.39,0.255,1.666,1.801,4.397,1.69c3.52-1.853,3.011-2.023,5.884-4.787
			c0.489-0.471,1.299-0.418,2.011-0.364c2.488,0.189,2.141-1.094,5.219-0.525l1.345,0.248c1.037,0.192,2.084,0.048,3.207,0.019
			c0.597-0.015,1.538,0.107,2.247,0.162l1.365,0.105c0.649-0.445,1.862-1.104,2.557-0.979c0.464,0.083,1.104,0.945,1.42,1.37
			c1.523,2.049,1.382,4.25,2.196,7.43c0.776,3.034,1.668,4.323,2.121,6.707l0.888,4.669
			C241.162,163.721,241.592,164.95,241.641,166.565z M151.854,185.294c1.021-2.136-0.802-1.986,0.464-3.596
			c0.13-0.805,0.186-2.075,0.064-2.929l-0.298-2.093c-0.098-0.69-1.169-1.823-1.845-1.847l-1.997-0.071l-3.602,1.384
			c-4.059,1.559-3.771-0.134-7.783-0.738l-2.202-0.331c-1.213-0.183-2.957,1.333-3.91-0.007c-0.83-1.168,0.948-1.547-3.079-6.135
			c-1.089-1.24-4.56-1.781-5.782-2.464c-0.785-1.271-3.226-2.391-4.898-1.837l-2.62,0.869c-0.824,0.273-2.366-0.037-3.274,0.122
			l-2.013,0.352c-0.685,0.12-1.883,0.306-2.438,0.093l-1.871-0.718c-0.778-0.639-1.524-1.079-2.43-1.382
			c-0.463-0.155-1.4-0.891-1.893-0.902l-3.406-0.078c-0.524-0.012-1.519,0.22-1.988,0.166c-2.141-0.248-5.793-0.778-6.56-2.987
			c-3.77-3.259-1.202-3.568-5.193-5.092c-2.503-0.956-5.26-0.546-6.458-1.004l-3.528-1.349c-0.496-0.19-1.364-0.675-1.789-0.966
			l-1.516-1.039l-0.186-1.922c-0.351-3.631,0.005-5.33-0.011-8.377l-0.009-1.69c-0.002-0.42-0.109-1.26-0.069-1.692
			c0.437-4.706-0.727-3.699,0.376-6.086c0.807-1.748,1.877-0.733,3.18-1.88l1.125-0.99c0.245-0.216,1.049-0.504,1.106-0.813
			l0.231-1.256l0.967-1.355c0.885-1.24,2.709-1.633,3.958-2.272c1.708-0.874,3.072-0.674,4.241,0.854l1.724,2.254
			c0.616,0.805,1.266,1.604,1.745,2.515c0.306,0.581,0.633,1.653,1.027,2.067l1.839,1.934c0.476,0.5,2.482,2.286,2.995,2.661
			l1.33,0.971c0.134-0.353,0.258-0.717,0.267-0.969l0.068-1.953c0.015-0.428,0.2-1.349,0.16-1.74l-0.252-2.459
			c-0.047-0.455-0.039-1.322-0.152-1.713l-0.739-2.546c-0.29-0.999-1.48-1.633-2.224-2.245l-0.969-0.797
			c-0.227-0.187-0.67-0.444-0.638-0.658l0.148-1.004c0.08-0.545,0.1-1.379,0.206-1.85l0.79-3.482l0.41-2.224
			c0.325-1.762,0.948-3.386,1.733-5.11c0.475-1.044,1.648-2.027,2.452-2.909c0.113-0.289,0.286-1.017,0.456-1.245l0.881-1.181
			c0.281-0.376,1.525-0.34,1.96-0.555l2.844-1.409c0.215-0.107,0.595-0.662,0.805-0.576l0.94,0.384
			c0.994,0.406,1.85,0.045,2.789,1.182c0.446,0.54,1.132,1.419,1.557,1.759l2.361-0.168c2.01-0.143,2.163-6.626,2.11-6.439
			c0.198-0.688,0.462-1.896,0.215-2.721c-0.654-2.186-0.549-0.561-1.475-2.286l-0.82-1.528c-0.014-0.342,0.083-1.379,0.256-1.799
			l0.749-1.813c0.184-0.446,1.09-0.933,1.589-0.938l1.868-0.02l0.473-0.863l-1.198-1.709l-1.19-1.697l-1.627-2.422
			c-0.186-0.276-0.336-1.014-0.421-1.331c-0.194-0.295-0.646-0.964-0.888-1.24l-1.884-2.152l-1.52-0.618l-2.072,0.233
			c-0.771,0.087-1.589,0.271-2.369,0.483c-2.317,0.629-0.5-0.531-2.534,0.545l-3.2,1.693l-1.523,0.764
			c-0.322,0.162-1.034,0.478-1.28,0.684l-1.237,1.039l-2.026,1.702c-0.879,0.739-1.658,1.585-2.347,2.494l-1.238,1.634
			c-0.605,0.798-1.632,1.383-2.549,0.664l-1.761-1.382l-0.288-1.456c-0.585-2.96,0.389-0.712-0.277-4.562
			c-0.136-0.787-0.338-1.912,0.174-2.475c1.952-2.148,1.9-1.01,3.648-2.361l1.98-1.532l2.088-1.611
			c0.295-0.228,1.038-0.738,1.203-1.044c0.292-0.54,0.649-1.816,0.658-2.46c0.007-0.52-0.407-1.66-0.611-2.192l-2.347-0.83
			c-1.382-0.489-3.203-1.589-3.576-1.036c-0.322,0.478-1.204,1.264-1.46,1.756l-2.02,3.879c-0.336,0.646-0.777,1.139-1.29,1.646
			c-1.902,1.882-0.106,0.701-2.441,3.53l-1.82,2.206c-0.645,0.782-1.046,1.68-1.458,2.603l-0.787,1.764
			c-1.104,2.477-1.763,2.756-2.55,4.822c-0.956,2.507-0.642,2.622-1.522,4.711c-0.721,1.711-1.418,3.281-2.229,4.949
			c-0.455,0.936-0.785,1.907-1.1,2.916l-1.634,5.218l-0.892,2.847c-0.317,1.011-0.809,2.161-0.966,3.17l-0.358,2.306l-0.353,2.269
			c-0.173,1.109-0.403,2.235-0.659,3.316l-0.814,3.436c-0.223,0.941-0.405,1.856-0.696,2.769c-0.24,0.754-0.325,1.436-0.157,2.222
			c-0.057,0.206-0.365,0.906-0.385,1.173l-0.163,2.196l-0.248,2.623c-0.089,0.939-0.116,1.869-0.098,2.778l0.038,1.952l0.051,1.467
			c0.037,1.07-0.014,2.117-0.125,3.212l-0.226,2.229c-0.232,2.288,0.157,1.958,0.088,5.404l-0.064,3.22l-0.048,1.005l-0.11,1.79
			c1.913-0.669,2.838,1.329,3.266,2.478l0.525,1.409l0.985,2.763l0.821,2.307c0.111,0.313,0.213,1.105,0.377,1.372l0.952,1.552
			l2.345,0.632c0.478,0.129,0.807,0.197,1.288,0.183l2.725-0.075l1.258,1.617l1.55,0.225c0.568,0.311,1.167,0.468,1.729,0.342
			l3.124-0.699c0.605-0.135,1.621-1.132,2.311-0.882l5.362,5.303c0.354,0.35,1.574,0.531,2.067,0.514
			c0.264-0.009,0.924-0.181,1.031,0.035l0.669,1.353c-0.602,0.928-0.955,2.066-1.098,3.273l-0.142,1.2l-0.272,2.295
			c-0.081,0.683-0.264,1.61-0.282,2.234l-0.151,5.172c-0.019,0.638-0.037,1.279,0.126,1.845l0.441,1.528
			c0.459,0.328,0.861,0.732,0.9,1.062l0.175,1.487l0.148,2.054l0.116,2.305l0.072,1.467l0.203,4.184
			c0.131,2.71-0.349,2.276,0.598,5.282c0.411,0.151,1.246,0.359,1.488,0.587l1.626,1.53l1.78,0.133l1.422,1.192l2.02,1.72
			c0.581,0.494,1.137,0.89,1.832,1.337c1.049,0.675,1.06,0.12,3.251-1.086c2.599-1.431,1.346-0.034,4.414-0.987
			c3.309-1.028,3.785,2.116,5.855,2.486l1.43-0.584l1.459-0.596l1.927-0.873c3.335-1.512-1.029-0.479,4.796-2.85
			c0.364-0.148,1.316-0.27,1.695-0.242l2.856,0.207c0.562,0.041,1.253,1.262,1.647,1.676l1.955,2.053l-0.03,0.845
			c3.117,3.319,2.952,1.503,3.507,4.934l0.391,2.416c0.241,1.491,0.23,2.866,0.046,4.352c-0.23,1.859-0.05,6.141,0.56,7.738
			l0.807,2.115c0.602,1.577,1.957,4.292,3.554,5.002l2.145,0.955l1.906,2.439l1.126,1.438l1.675,2.112
			c1.372,1.73,0.174-0.723,3.482,2.176c0.219,0.192,0.914,0.167,1.174,0.029c0.883-0.472-0.317-1.432,0.425-2.216
			c-0.252-0.674-0.691-1.721-0.871-2.536l-0.536-2.427c-0.073-0.332,0.11-1.21,0.051-1.572c-0.22-1.354-0.837-3.076-1.251-4.522
			c-0.105-0.367-0.128-1.202-0.242-1.518c-0.108-0.3-0.413-0.952-0.462-1.247l-0.329-1.985c-0.303-1.833-0.259-3.089-0.346-3.827
			l-0.359-3.051l-0.016-2.029l-0.017-3.741l0.339-1.875c0.116-0.642,0.054-1.071,0.326-1.656l-0.314-1.27
			c0.074-0.479,0.338-1.32,0.326-1.716l-0.046-1.558c-0.039-1.319-0.072-2.625-0.023-3.959l0.071-1.902
			c0.017-0.459-0.175-1.454-0.042-1.883l0.693-2.232c-0.261-0.69-0.455-1.266-0.556-1.845l-0.351-2.006
			c-0.52-2.972,0.365-3.842,0.23-6.022l-0.126-2.03l-0.086-1.225C152.543,186.13,150.931,187.226,151.854,185.294z M40.738,211.211
			c-0.034-3.102-0.707-1.725-1.473-4.07l-0.588-1.801l-0.772-2.362c-0.576-1.763-1.019-3.311-1.301-4.998l-0.295-1.758l-0.557-1.327
			l-0.25-0.597c-0.05-0.12,0.299-0.411,0.346-0.529l-0.361-2.002c-0.729-1.215-0.965-2.897-1.083-4.092
			c-0.044-0.446-0.462-1.315-0.522-1.714l-0.308-2.05c-0.052-0.347-0.338-1.132-0.426-1.452c0.209-0.985,0.182-1.915,0.073-2.888
			l-0.324-2.88l-0.131-2.497l-0.484-3.295c-0.064-0.439-0.089-0.866-0.124-1.417c-0.068-1.062-0.444-2.221-0.685-3.423l-1.064-5.308
			c-0.017-0.23,0.097-0.928,0.126-1.254c0.025-0.283-0.912-0.251-1.155-0.103c-0.244,0.148-0.473,0.564-0.688,0.973
			c-0.151,0.287-0.975,0.471-1.266,0.685l-3.278,2.4c-2.172,1.591-0.673-0.634-3.251,2.873c-0.405,0.551,0.567,1.581,0.774,2.095
			l0.827,2.052l0.691,1.92l0.939,2.565c1.188,3.245,1.188,1.317,2.085,6.027c0.085,0.445,0.401,1.207,0.576,1.776
			c1.336,4.337,2.102,1.567,2.835,6.151c0.081,0.506,0.327,1.46,0.521,1.92c1.611,3.806,0.996,0.848,2.246,4.365l0.911,2.562
			c0.213,0.6,0.651,1.402,0.981,2.051c2.02,3.967,1.221,0.391,2.814,5.508c0.153,0.491,0.467,1.424,0.729,1.793L40.738,211.211z
			 M105.035,344.117l1.281,0.083c1.74,0.113,4.062-0.811,5.758-1.362c2.213-0.719,2.559,0.732,4.213-0.433
			c1.063-0.749,2.742-0.982,3.494-0.39c0.083,0.065,0.237-0.61,0.161-0.685l-1.381-1.374l-1.302-1.293l-2.183-2.135l-2.034-1.927
			l-2.261-2.044l-1.338-1.219l-1.165-1.11l-4.616-4.535c-0.331-0.325-0.603-0.676-0.918-1.102c-2.072-2.805-1.062-0.174-3.447-3.927
			c-0.283-0.445-0.676-0.978-0.872-1.337l-1.237-2.266l-1.809-3.065c-0.219-0.372-0.527-1.175-0.744-1.504
			c-2.023-2.768-0.632-1.371-2.706-5.019l-1.05-1.845c-1.673-2.942-0.343-1.942-1.922-3.952l0.028-0.856
			c-0.426-0.301-0.891-0.636-1.165-0.936c-2.22-2.436-0.533-1.57-1.942-3.508c-0.376-0.517-0.707-1.599-1.07-2.025l-1.874-2.196
			c-1.768-2.072,0.202-0.42-2.485-4.027l-1.212-1.627l-1.744-2.581c-0.238-0.352-0.732-0.957-0.926-1.333l-1.285-2.49
			c-0.202-0.391-0.567-1.063-0.804-1.409l-2.456-3.586c-0.523-0.764-0.905-1.54-1.366-2.411c-0.805-1.523-1.686-2.714-2.359-4.117
			l-1.381-2.879c-0.426-0.331-0.86-0.755-1.117-1.155l-1.362-2.118c-0.327-0.509-0.681-1.068-0.947-1.601l-1.061-2.132
			c-0.562-1.128-0.668-1.889-1.763-4.143l-1.425-2.932c-1.144-2.354,0.053-1.48-1.917-3.455c-0.835-0.837-1.409-1.643-1.91-2.696
			l-0.727-1.528c-0.211-0.444-0.307-1.626-0.568-2.049c-1.236-1.526-1.855-2.606-2.712-4.422l-1.196-2.534
			c-0.259-0.549-0.631-0.71-1.358-0.643l-1.213-1.372c-1.219-1.379,0.215-3-1.739-7.018c-1.426-2.933-1.118-1.732-0.919-3.386
			c0.049-0.409-0.402-1.14-0.611-1.622c-0.445-1.025-0.894-1.896-1.716-2.587l-1.249-1.051c-0.214-0.18-0.396-0.954-0.577-1.169
			c-0.8-0.948-1.316-2.109-1.984-3.174l-0.862-1.375c-1.237-1.972-2.138-2.123-2.534-4.385l-0.42-2.398
			c-0.198-1.129-1.663-0.971-2.057-3.361l-0.695-0.998c-0.32-0.459-0.604-0.823-1.006-1.336c-0.477-0.608-0.255-2.166-0.558-2.834
			l-1.066-2.349l-0.783-0.731l-0.773-3.7c-0.26-1.243-1.674-2.121-2.257-4.072l-0.917-3.066l-1.584-4.125
			c-0.368-0.957-0.928-1.975-1.239-2.924c-0.223-0.681-0.395-1.376-0.651-1.943l-0.814-1.801c-0.329-0.728-1.696-3.317-2.216-3.111
			c-0.156,0.062-0.461,0.266-0.614,0.397l-1.722,1.478c-2.264,1.943-0.48,0.278-3.415,1.941l-1.679,0.951l-1.716,0.262l-3.119,1.228
			l-1.583,0.649c-0.318,0.13-0.901,0.718-0.764,0.984c0.349,0.541,0.978,1.677,1.37,2.104l1.5,1.636
			c2.299,2.507,0.391,0.908,1.941,3.685l0.947,1.696c1.735,3.108,1.753,3.782,3.686,6.309l0.63,0.824l1.268,1.594
			c0.703,0.884,1.406,1.893,1.933,2.878l1.808,3.38c0.381,0.712,0.661,1.713,0.922,2.537l0.689,2.182
			c0.135,0.428,0.616,1.275,0.839,1.671l1.66,2.95c1.599,2.644,0.524,1.588,1.996,4.524c0.381,0.76,0.488,1.716,0.955,2.535
			l1.086,1.902l1.025,2.472l0.996,2.5l0.739,1.834l0.779,1.145c0.556,0.818,1.094,1.83,1.759,2.479
			c2.603,2.54,0.406,1.14,1.898,3.229l2.165,3.031c0.51,0.714,0.985,1.499,1.438,2.271l0.853,1.454l1.403,3.152l2.107,3.915
			l1.227,2.178l1.223,2.183c0.278,0.496,0.576,1.226,0.765,1.734l0.795,2.132l0.763,2.044c0.208,0.558,0.401,1.156,0.677,1.61
			l1.743,2.876l0.986,1.566l1.353,2.439l0.724,1.782l1.384,2.629l0.931,1.939l0.826,1.729c0.334,0.699,0.692,1.389,1.069,2.066
			c1.659,2.976,0.558,1.988,1.732,3.637l1.577,2.213c1.408,1.977,1.195,2.666,1.341,2.997l1.121,2.532
			c0.947,2.14,2.187,3.378,3.645,6.859c0.243,0.581,0.449,1.332,0.731,1.807l1.079,1.823c1.434,2.423,1.132,3.032,2.854,5.395
			l0.983,1.348c1.787,2.451,1.477,2.011,2.739,4.52l1.119,2.225c0.419,0.834,0.834,1.614,0.854,2.552l0.903,1.308l1.302,1.9
			c0.485,0.707,0.821,1.922,1.28,2.722c0.282,0.492,0.409,0.802,0.495,1.356l1.108,1.057c0.295,0.282,0.596,0.717,0.84,1.108
			l1.551,2.49l0.99,1.229c0.875,1.086,1.578,2.87,1.71,4.353l1.062,1.181c0.281,0.312,0.481,1.258,0.666,1.62
			c1.095,1.316,1.755,2.861,2.078,4.46c0.7,0.295,2.806,4.317,3.065,4.925c0.238,0.558,0.423,1.418,0.701,1.845l1.948,2.988
			c0.108,0.165,0.338,0.648,0.437,0.502l0.34-0.504c0.29-0.43,1.078-1.302,1.55-1.488l4.565-1.799
			C103.575,344.031,104.434,344.077,105.035,344.117z M74.46,209.121l1.447-1.594l2.39-2.507c0.442-0.464,0.895-1.266,1.217-1.872
			l0.757-1.427l-1.551-0.679c-0.923-0.404-1.505,0.793-2.014,1.226l-1.893,1.607l-1.329,0.909l-2.048,2.318l0.721,1.993
			c0.165,0.457,0.778,1.252,1.034,1.614C73.667,210.096,74.021,209.605,74.46,209.121z M192.217,252.798l-0.837,2.142
			c0.884-0.035,1.537-0.131,2.369-0.303c1.344-0.278,3.843-0.51,4.54-0.688c1.35-0.346,2.438-0.621,3.82-0.802
			c0.656-0.086,1.443-0.414,2.103-0.583l1.476-0.378l4.875-1.125c2.496-0.576,3.289-1.213,6.314-2.227
			c0.221-0.074,0.617-0.21,0.795-0.297l2.857-1.405l2.956-1.35c2.411-1.101,2.479-1.658,4.704-2.696
			c0.559-0.261,1.005-0.506,1.475-0.791l2.138-1.293l2.112-1.314l2.283-1.451c0.516-0.328,1.072-0.669,1.561-1.025
			c2.1-1.529,4.125-2.87,6.337-4.247c3.774-2.351,0.795-0.549,4.126-3.228l1.311-1.054l1.658-1.137l2.183-1.834l1.865-1.574
			c0.507-0.428,1.059-0.822,1.604-1.232l1.296-0.978l2.118-1.625c0.325-0.25,0.787-0.621,1.069-0.886l1.647-1.545
			c-1.296,0.456-2.245,0.769-3.43,1.038l-2.038,0.462c-1.781,0.404-2.497-0.541-4.843-0.638c-2.039-0.084-3.066,0.985-4.446,1.803
			c-4.812,2.853-2.609,3.46-6.104,4.289l-1.232,0.292c-3.557-0.146-2.892,3.539-7.034,3.921l-1.752,0.161
			c-0.61,0.056-1.453-0.172-2.094-0.251c-0.649-0.081-1.546-0.011-2.285-0.175c-0.537-0.119-1.328-0.595-1.754-0.709l-2.163-0.576
			c-0.333-0.089-0.852-0.199-1.073-0.06c-0.667,0.421-1.097,3.558-4.382,5.812c-1.087,0.746-3.053,1.031-4.645,1.588l-2.322,0.812
			c-0.969,0.339-1.873,0.778-2.382,1.629c-1.607,2.683-0.372,3.556-0.963,6.804l-0.434,2.387c-0.076,0.42-0.719,1.233-1.052,1.473
			l-1.69,1.222c-1.431,1.035-2.954,1.464-4.682,1.939C196.344,252.149,195.871,251.741,192.217,252.798z M32.407,242.426
			l1.978-0.779c0.768-0.302,1.508-0.731,2.258-1.156l-0.875-1.694c-0.273-0.529-0.7-1.19-1.079-1.7l-1.097-1.475l-0.992-1.311
			c-0.11-0.146-0.343-0.684-0.426-0.531c-0.424,0.784-1.727,2.067-2.412,2.605l-1.339,1.05c-0.851,0.667-1.801,1.526-2.45,2.43
			c0.148,0.614,0.493,1.563,0.773,1.957l1.122,1.581C29.608,243.821,31.284,242.869,32.407,242.426z M245.599,254.638l4.407-2.309
			c1.114-0.584,2.268-1.195,3.312-1.832l2.811-1.716l-0.951-1.542c-0.277-0.449-0.81-0.957-1.122-1.386l-1.577-2.169l-0.95-1.328
			l-0.801-1.754l-1.117-1.499c-0.81-1.086-1.387-2.236-2.02-3.414l-0.86-1.6c-0.098-0.02-0.891,0.232-1.118,0.405l-1.633,1.243
			c-0.995,0.758-1.988,1.443-3.03,2.136l-3.76,2.501l-2.17,1.519c-2.639,1.848-3.565,1.91-6.01,3.508l2.494,1.901
			c1.211,0.923,3.364,1.068,6.448,3.189c3.213,2.21,1.649,1.869,2.809,2.636c1.606,1.062,1.177-0.384,3.979,0.563
			C244.981,253.771,245.38,254.361,245.599,254.638z M260.52,270.966l1.937,0.818c2.848-1.154,2.667-3.898,6.032-4.382
			c0.425-0.265,1.798-1.079,1.592-1.484c-0.076-0.15-0.269-0.41-0.428-0.581l-2.217-2.378c-0.611-0.655-1.082-1.343-0.876-2.274
			l-2.463,1.758l-1.814,1.328c-2.376,1.739-0.752,0.53-3.803,2.171l-1.493,0.803c-0.047,0.052-0.065,0.668,0.033,0.762l2.39,2.297
			C259.867,270.242,260.22,270.618,260.52,270.966z M245.829,350.232c0.518,0.083,0.851,0.077,1.281,0.063l3.467-0.115l1.631-0.046
			l2.717-0.192c2.51-0.177,3.613-0.907,5.079-0.814l2.564,0.161c0.432,0.027,1.393,0.046,1.791-0.04l2.456-0.533l3.396-0.668
			c2.969-0.584,4.364,0.249,5.096,0.14l4.458-0.663c0.349-0.052,1.234,0.018,1.579,0.093l1.183,0.256
			c0.365-0.099,1.156-0.392,1.498-0.358l1.988,0.198c0.724,0.072,1.682,0.218,2.262,0.189l2.714-0.137
			c0.633-0.032,1.253-0.085,1.862-0.079l3.953,0.038c0.424,0.092,0.206-0.251-0.12-0.573l-1.539-0.118l-1.431-0.11
			c-2.672-0.205-2.859,0.047-4.714-0.184c-2.901-0.36-2.309,0.489-3.013-0.053l-0.394-0.303c-0.067-0.051-0.292,0.291-0.38,0.29
			l-1.425-0.008c-0.668-0.004-1.33,0.066-2.093,0.138l-1.659-0.157c-0.804-0.076-1.6-0.129-2.343-0.25l-2.933-0.479
			c-0.432-0.071-1.398-0.168-1.809-0.114l-2.072,0.268c-0.525,0.068-1.142,0.043-1.694,0.021l-4.252-0.169l-1.734-0.215
			l-2.935-0.184c-0.986-0.062-2.013-0.006-3.018-0.01l-2.461-0.011c-0.906-0.004-1.821,0.038-2.732,0.146
			c-0.238-0.027-0.904-0.161-1.154-0.166l-4.836-0.099c-1.624-0.033-5.84,0.193-6.825-0.016l-2.269-0.48l-2.918-0.207l-5.405-0.151
			l-1.085-0.08c-0.925,0.051-1.761-0.038-2.691-0.051l-11.643-0.162c-0.663-0.009-1.564-0.179-2.267-0.244l-1.804-0.169
			c-1.523-0.142-3.197-0.141-4.75-0.014l-2.59,0.21l-2.301,0.144l-1.806,0.069c-1.101,0.042-2.086-0.013-3.141-0.354l-0.987-0.014
			c-0.895-0.063-1.754-0.085-2.637-0.033l-1.981,0.118l-2.569,0.158c-0.308,0.019-0.929-0.118-1.223-0.118l-2.214,0.003
			c-0.779,0.001-1.86,0.209-2.509,0.172l-2.614-0.146l-2.864-0.168l-1.437-0.087c-0.881-0.054-1.942-0.063-2.802,0.032l-2.603,0.289
			c-1.645,0.183-2.529,0.021-3.153,0.068l-2.842,0.213c-0.56,0.042-1.157,0.064-1.699,0.045l-1.732-0.06
			c-1.719-0.059-3.404-0.29-5.084,0.014l-2.388,0.432c-2.637,0.477-9.154-0.386-12.512-0.435l-2.292-0.033
			c-1.194-0.017-2.356-0.194-3.516-0.418l-4.836-0.933c-0.946-0.183-2.225-0.109-3.205-0.117c-0.506,1.304-1.444,1.209-2.534,0.916
			l-2.927,0.447c-0.372,0.057-1.382-0.323-1.704-0.121c-2.706,1.697-2.854-0.164-7.369,1.222c-0.563,0.173-0.753,0.611-2.703,0.642
			l-4.298,0.069c-2.092,1.632-4.2,1.291-5.14,4.322c-0.411,1.326-2.67,2.023-2.997,1.323l-1.883-4.031
			c-2.125,2.132-0.726,1.349-4.016,2.856l-2.958,1.354c-0.334,0.153-0.757,0.834-0.823,1.153l-0.055,0.735
			c-0.055,0.746,2.59-0.359,3.302-0.304l3.42,0.266c0.621,0.048,1.187,0.126,1.79,0.206c3.333,0.44,2.419-0.306,4.465,0.41
			c1.919,0.672,0.793-0.205,3.726-0.361l2.303-0.122l1.718-0.068l3.122-0.158c1.297-0.065,2.522-0.125,3.796-0.145l2.499-0.04
			l2.507-0.055l2.352-0.054l1.131-0.014l1.957,0c3.714,0,3.507,0.451,7.806-0.398c0.469-0.093,1.464,0.09,1.912,0.064l2.052-0.117
			c0.446-0.025,1.274-0.026,1.665,0.044l2.014,0.363c0.844,0.152,6.852-0.459,8.963,0.089c1.475,0.383,3.295,0.885,4.967,0.573
			l3.783-0.706c0.315-0.059,1.08-0.05,1.405-0.048l3.45,0.023c0.535,0.004,1.159,0.035,1.664-0.015l2.361-0.234
			c1.017-0.101,2.181-0.149,3.164-0.138l2.558,0.028c2.895,0.032,0.705,0.73,3.733,0.405c1.146-0.123,2.428-0.126,3.571-0.01
			c3.858,0.391,0.569-0.384,4.955,0.07c3.162,0.327-0.803,0.522,3.447,0.247l3.366-0.218l2.566-0.187l2.358-0.046l2.821,0.023
			c0.377,0.003,1.16,0.307,1.496,0.395c0.491-0.006,1.404-0.128,2-0.236l2.904-0.523c0.356-0.064,1.093-0.071,1.553-0.119
			l2.87-0.303c0.655-0.069,1.388-0.174,1.975-0.203l1.741-0.086c3.858-0.19,2.354,0.288,5.456,0.122l1.669-0.09l2.599-0.138
			c0.605-0.032,1.596-0.359,2.242-0.435l2.344-0.277l1.974-0.307c3.214-0.499,4.239-0.39,7.379-0.386l7.162,0.009
			C244.169,350.55,245.269,350.143,245.829,350.232z M96.574,364.162l1.34-0.012l1.8-0.064l5.256-0.09l1.304,0.296l4.735-0.067
			l1.666-0.124l2.374-0.176c2.221-0.164,2.004-0.459,4.828-0.503l2.805-0.044l2.634-0.047l1.482-0.03
			c0.646-0.013,1.268-0.035,1.939-0.094l2.024-0.179c-0.828,0.073,5.015-0.01,4.854-0.011l1.683,0.004l2.013,0.022l3.986,0.12
			l2.304,0.09c0.375,0.015,0.931-0.002,1.326-0.022l2.392-0.122c0.557-0.028,1.136-0.039,1.673-0.019l3.434,0.126l1.683,0.062
			c0.439,0.016,0.995,0.003,1.465-0.038l4.781-0.416l2.411-0.137l3.614-0.164l1.216-0.193c1.176-0.186,2.671-0.007,3.934-0.124
			l2.313-0.214l1.788-0.176c1.325-0.131,2.829-0.195,4.178-0.025l2.051,0.259c0.377,0.048,0.947,0,1.415-0.004l6.485-0.066
			l1.273-0.23l4.216-0.07l1.09-0.102l2.107-0.058l13.077-0.14l2.279-0.246l1.765-0.19l8.512-0.166l3.731-0.224l1.939,0.132
			l2.357-0.126l2.427,0.162l2.105-0.182l3.988-0.341l2.574-0.202l2.299-0.137l1.707-0.084c1.027-0.051,2.119-0.03,3.106-0.132
			l2.863-0.296l2.573-0.266l2.611-0.27l2.798-0.457l2.905-0.262c1.05-0.095,2.035-0.252,3.107-0.377l2.226-0.262l3.481-0.389
			c0.941-0.105,1.88-0.153,2.866-0.21l2.866-0.167l3.688-0.224c5.733-0.347,2.91,0.407,8.839-0.965
			c0.331-0.076,1.099-0.076,1.417-0.12l2.269-0.31l1.482-0.201c0.163-0.022,0.661-0.317,0.75-0.464
			c0.89-1.462-0.431-1.701-0.031-2.743l0.324-0.845c0.071-0.185-0.539-0.447-0.757-0.474l-2.918-0.359l-1.255-0.177
			c-0.308-0.043-0.898,0.028-1.401,0.091c-0.542,0.067-1.336-0.022-1.888,0.001l-2.563,0.108c-0.687,0.029-1.55-0.113-2.194-0.118
			c-3.601-0.03-0.943-0.403-3.768-0.248l-3.124,0.171l-2.604,0.286c-3.724,0.409-4.795-0.306-6.411,0.048l-2.868,0.628l-2.118,0.447
			l-2.217,0.408c0.049-0.009-3.149-0.326-4.557-0.112l-1.77,0.268l-1.982,0.328c-0.978,0.162-1.963,0.055-2.984,0.125l-1.816,0.126
			l-2.414-0.08c-0.775-0.026-1.757,0.174-2.53,0.209l-4.234,0.193l-1.868,0.085l-1.029,0.053l-6.036,0.07
			c-1.275,0.015-2.591,0.264-3.851,0.372l-2.703,0.233c-0.947,0.082-4.488,0.731-5.092,0.739l-7.168,0.103l-1.019,0.036
			c-1.033,0.036-5.001,0.19-5.732,0.304l-3.222,0.501l-2.568,0.364c-1.264,0.179-2.47,0.163-3.728-0.011l-1.667-0.231
			c-0.965-0.133-1.898-0.078-2.904,0.039l-2.599,0.301c-4.43,0.513-4.566-0.418-6.556-0.32l-3.699,0.181l-1.01,0.108
			c-1.821-1.014-1.062,0.081-2.945-0.218c-0.901-0.143-2.064-0.346-2.896-0.323l-5.938,0.161l-1.451,0.091
			c-0.943,0.059-1.875,0.148-2.873,0.113l-2.586-0.092c-0.924-0.033-3.138,0.165-4.276,0.316l-2.006,0.267l-2.333,0.248
			c-0.553,0.059-1.624-0.261-2.272-0.364l-3.072-0.489c-0.343-0.055-1.176-0.063-1.535-0.037l-3.795,0.276
			c-0.205,0.015-0.845,0.116-1.092,0.083l-3.533-0.465c-0.824-0.108-3.439-0.118-4.334-0.034l-2.297,0.215
			c-1.396,0.131-2.8,0.077-4.23-0.001c-0.503-0.027-1.044,0.084-1.516,0.103l-2.153,0.086l-2.452,0.043
			c-0.253,0.004-0.753-0.055-1.116-0.084c-3.549-0.283-2.87,0.116-5.914,0.221l-2.314,0.08c-0.654,0.023-1.347,0.028-2.024,0.096
			l-2.198,0.221c-0.707,0.071-1.373,0.078-2.076-0.013l-3.112,0.417l-1.656,0.221c-1.69-0.768-3.398-0.907-5.209-0.607l-1.397-0.114
			c-0.672-0.055-1.424-0.099-1.987-0.101l-3.684-0.015c-0.433-0.002-1.437,0.481-1.444,0.902l-0.055,3.158l-0.246,1.205
			l-0.009,2.495l1.651,0.446c0.371,0.1,1.078-0.003,1.542-0.044c3.331-0.294,3.49,0.455,6.515,0.115L96.574,364.162z"/>
		<g>
			<path d="M123.152,148.883l-1.407,0.559c-0.602,0.239-1.497,0.478-1.942,0.867c-1.403,1.226-3.144,1.187-4.816,0.718
				c-0.71,0.183-1.98,0.835-2.626,0.724l-1.482-0.255c-0.516-0.711-1.418-1.878-2.132-2.021l-2.053-0.411l-1.118,0.575l-1.781-1.371
				c0.588-0.756,1.087-1.319,1.357-1.961l0.954-2.27c1.148-2.732,0.215-1.571,1.191-3.61c1.255-2.622,0.048-1.175,0.97-4.713
				c0.785-3.012,0.245-2.11,0.803-5.466l0.295-1.773l0.46-2.885l0.317-1.987l0.323-1.986l0.343-2.285l0.516-3.074l1.329-0.144
				c1.256-2.315,0.543-1.262,2.199-2.379l1.91-1.288c0.495-0.334,1.179-0.758,1.726-0.957c0.483-0.176,1.59,0.332,1.785,0.848
				c0.338,0.896,0.121,1.889,0.01,2.769l-0.559,4.437l-0.488,2.316l-0.241,2.938c-0.098,1.194-0.417,2.424-0.569,3.656l-0.286,2.327
				c-0.406,3.297-1.511,4.507-1.337,7.462c1.068-0.236,1.758-0.32,2.355-0.532l2.976-1.057c0.795-0.282,1.767-0.604,2.593-0.758
				l5.104-0.953c1.172-0.219,5.152-0.24,6.099,0.639l6.79,0.057c0.619,0.899,0.219,2.188-0.221,3.108l-0.668,1.398l-1.018,1.899
				c-0.307,0.573-0.765,1.188-0.936,1.838c-0.16,0.606-0.575,1.598-1.084,1.666l-2.099,0.282c-4.319,0.581-4.245-1.573-8.264,0.888
				c-1.061,0.65-2.312,0.99-3.466,1.448L123.152,148.883z M138.948,141.142l0.584-1.032l0.584-1.959
				c0.23-0.771-1.761-0.477-2.516-0.59l-2.28-0.34c-0.882-0.132-2.242-0.781-3.066-0.696l-2.685,0.276
				c-1.234,0.127-2.58,0.416-3.779,0.715l-2.084,0.52c-2.47,0.616-2.022,0.519-4.091,1.605c-1.278,0.671-4.598,2.143-5.837,0.914
				l0.59-2.2l1.061-1.431c0.159-0.214,0.232-0.864,0.289-1.123l0.645-2.932c0.231-1.053,0.848-4.383,0.808-5.136l-0.136-2.61
				l0.473-0.895c-1.011-2,2.163-8.869,0.411-9.91c-0.953-0.567-3.633,1.996-3.851,2.603l-0.98,2.728
				c-0.36,1.001-0.555,1.98-0.788,2.991c-0.36,1.554-0.953,3.141-1.165,4.694l-0.419,3.076c-0.081,0.592-0.178,1.157-0.233,1.76
				l-0.218,2.385c-0.037,0.403-0.344,1.157-0.509,1.539l0.346,0.96l-0.631,2.992l-0.6,2.574l-0.459,1.778l-0.623,2.464
				c3.043,1.254,1.659-0.047,4.36,2.248c0.661,0.562,2.286-0.051,3.138-0.031c1.126,0.026,2.244,0.111,3.121-0.331l4.038-2.034
				c0.588-0.296,1.597-0.482,2.301-0.599c0.912-0.566,6.619-2.817,7.077-2.738l2.003,0.344
				C138.288,144.485,138.691,141.595,138.948,141.142z"/>
			<path d="M134.685,93.335c-1.181,1.881-3.411,3.086-5.19,2.268c-0.507-0.233-1.024-1.19-1.154-1.864l-0.619-3.219
				c-0.591-3.074-1.373-3.405-1.282-5.453c0.031-0.698-0.131-1.237-0.407-1.854c-0.727-1.623-0.422-2.208-0.928-4.379l-0.344-1.476
				c-0.398-1.707-0.906-3.052-1.716-4.479c-2.054,0.41-4.415-3.049-5.588-4.518c-0.642-0.804-1.268-1.664-1.647-2.62l-0.751-1.895
				c-0.103-0.259-0.468-0.667-0.764-0.877c-0.866-0.613-0.276-1.449,0.183-2.179c0.4-0.635,0.86-1.786,1.66-1.88
				c0.293-0.035,1.012,0.289,1.258,0.166c0.996-0.495,0.635-1.046,1.887-1.929l1.564-1.103c1.074-0.758,2.255-1.66,3.422-2.198
				l2.57-1.185l2.113-1.064c0.789-0.397,1.839-1.071,2.647-1.242c2.324-0.49,3.468-0.406,5.707-0.359
				c4.012,0.085,0.921-0.383,4.617,0.683l1.833,0.529c0.721,0.208,1.749,0.657,2.302,1.08c0.65,2.9,0.462,7.332,0.023,10.2
				l-0.441,2.88l-0.292,2.306l-0.261,2.066c-0.091,0.717-0.084,1.639,0.043,2.364c0.386,2.206,0.286,0.547-1.364,3.424l-1.244,2.17
				c-0.785,1.37-1.001,2.983-2.151,4.234c-0.212,0.231-0.289,0.909-0.429,1.173l-1.407,2.647l-0.831,1.651
				c0.651-0.812-2.307,4.798-1.452,3.437L134.685,93.335z M129.805,91.654c0.127,0.38,0.364,0.86,0.578,1.284
				c0.181,0.359,1.267,0.551,1.558,0.244l1.404-1.48c0.986-2.309,1.216-0.972,2.497-3.498l0.945-1.863
				c1.224-2.51,1.27-2.197,2.656-5.113l1.186-2.496c0.415-0.874,0.729-1.967,1.317-2.688c1.133-1.385,0.986-1.932,1.009-3.875
				l0.028-2.292c0.009-0.745,0.395-1.652,0.787-2.268c-0.048-0.562-0.098-1.369,0.007-1.917l0.391-2.038
				c0.159-0.827,0.272-1.695,0.312-2.559l0.087-1.876c0.404-0.796,0.439-1.587,0.308-2.464l-0.527-3.508l-1.674-0.615l-2.604-0.957
				c-0.565-0.208-1.747-0.179-2.444-0.048l-2.1,0.396c-1.406-0.126-4.531,0.931-6.023,1.49l-2.538,1.533
				c-0.505,0.305-1.546,0.53-2.042,0.795l-1.471,0.786l-1.904,1.014c-0.661,0.352-1.283,0.983-1.835,1.548l-1.274,1.304
				c-0.733,0.75-1.376,1.269-1.722,2.296c0.346,0.863,0.591,1.532,0.935,2.271l0.832,1.785l0.885,0.981
				c0.236,0.453,0.524,1.002,0.793,1.232c3.921,3.361,5.046,1.334,5.542,4.22l0.634,3.687l0.834,4
				c0.294,0.851,0.492,1.698,0.628,2.562l0.462,2.927c0.077,0.486,0.21,1.203,0.345,1.607L129.805,91.654z"/>
			<path d="M136.044,166.688c-0.666-0.044-1.275-1.007-1.559-1.391l-1.377-1.86c-0.597-0.806-0.44-1.875-0.261-2.679
				c0.113-0.509-0.967-1.752-0.185-2.049l2.126-0.806c4.176-1.583,0.563,0,3.615-2.072c1.243-0.844,2.429-1.56,3.725-2.303
				l1.979-1.135l1.76-1.075c0.729-0.445,3.866-1.915,4.616-1.704c0.793,0.223,4.084,3.39,3.28,4.042l-0.855,0.693l-1.434,1.147
				c-0.448,0.359-0.988,0.779-1.447,1.083l-1.917,1.268c-0.481,0.318-0.946,0.756-1.396,1.176l-1.713,1.149
				c-0.83,0.557-1.608,1-2.48,1.544l-1.196,0.747c-1.002,0.626-1.851,1.318-2.759,2.115l-1.032,0.687
				C137.251,165.62,136.61,166.725,136.044,166.688z M136.453,163.309l2.119-1.557c0.475-0.349,1.093-0.709,1.588-0.975l1.153-0.621
				l1.838-1.038l1.628-0.964c0.485-0.287,1.125-1.041,1.607-1.437l2.197-1.806l2.169-1.758c-0.98-1.432-4.282,0.38-5.66,1.068
				l-3.286,1.64c-0.972,0.485-2.058,1.27-2.612,1.619l-2.668,1.685c-0.413,0.261-0.835,0.914-1.104,1.449l-1.014,0.593l0.878,1.558
				C135.428,163.015,136.182,163.508,136.453,163.309z"/>
			<path d="M143.621,117.307l1.799,0.561c0.413,0.129-0.165,1.129-0.454,1.385l-1.378,1.222c-1.759,1.56-4.264,2.892-6.438,3.912
				c-1.071,1.752-1.123,1.151-3.365,3.415c-1.05,1.06-2.444,1.772-3.893,2.11c-1.08,0.252-2.086-0.373-2.344-1.377l-0.546-2.126
				c0.188-0.444,1.342-1.039,1.649-1.497l1.922-2.861c1.335-1.987,2.565-3.351,4.568-4.55l2.173-1.301l1.559-0.978
				c1.235-0.775,2.354-1.607,3.453-2.554l1.116-0.961c0.256-0.221,1.072,0.213,1.198,0.536l1.464,3.739
				c0.092,0.235,0.201,0.697,0.298,1.059c-0.228,0.182-1.096,0.464-1.245,0.187l-0.764-1.427c0.027,0.05-0.668-1.47-1.259-1.049
				l-0.751,0.535l-1.326,0.946c-0.24,0.171-1.024,0.306-1.285,0.458l-3.236,1.888c-0.37,0.216-1.078,0.832-1.402,1.156l-1.448,1.445
				c-0.894,0.892-1.721,2.104-2.46,3.186l-0.934,1.368c-0.172,0.252-0.109,1.093-0.049,1.262c3.417-1.181,2.022-0.867,4.078-2.671
				c4.934-4.329,4.246-2.646,6.954-4.713C142.148,118.95,142.69,118.357,143.621,117.307z"/>
			<path d="M262.182,183.413c-0.382,0.088-1.236-0.221-1.636-0.49c-0.005-0.596,1.309-4.767,1.453-5.12l1.245-3.044l0.815-2.375
				c0.264-0.77,0.626-1.974,0.782-2.618c0.051-0.211-0.693-0.893-0.562-1.058c0.327-0.411,1.021-1.091,1.405-1.475
				c0.267-0.267,0.672-1.096,1.004-1.246c0.494-0.224,1.34,0.148,2.632-0.842l1.298-0.994c1.411-1.08,2.59-2.298,4.596-2.339
				c0.673-0.014,1.546,0.386,1.836,0.929c0.33,0.619-0.023,1.409-0.372,2.057c-0.39,0.725-1.076,2.67-1.327,3.518l-0.873,2.949
				c-0.832,2.81-1.498,3.044-2.624,4.982c-0.711,1.224-1.088,2.839-2.17,3.78l-2.046,1.778c-0.743,0.646-1.922,0.797-2.981,1.04
				L262.182,183.413z M264.862,180.805c1.109-0.132,2.794-1.569,3.565-2.289c1.114-1.04,3.243-4.88,3.843-6.381l1.876-4.699
				c0.099-0.249,0.228-0.854,0.324-1.142l0.53-1.584c0.065-0.194,0.062-0.603-0.081-0.735c-0.495-0.458-4.511,2.284-5.31,2.865
				l-1.958,1.423c-0.104,0.323-0.306,0.983-0.439,1.294l-1.213,2.838l-1.463,3.426l-1.074,2.674c-0.354,0.88-0.55,1.427-0.639,2.552
				L264.862,180.805z"/>
			<path d="M175.631,98.202l1.132,1.079c-1.43,1.265-2.215,0.726-3.769,1.721l-1.08,0.692l-2.246,1.511
				c-0.781,0.526-1.881,0.852-3.228,1.564l-2.643,1.397c-2.242,1.185-1.308,1.97-3.348,2.11c-1.185,0.081-1.881-0.665-2.132-1.712
				l-1.456-1.102c-0.292-0.221-0.706-1.034-0.897-1.462c-0.229-0.515,0.817-1.475,1.324-1.725l1.974-0.974l2.281-1.189
				c0.405-0.211,1.006-1.06,1.412-1.337l2.734-1.861l4.624-3.097l1.823-1.348c1.007-0.745,1.803-1.681,3.158-2.051
				c0.341-0.093,1.182,0.433,1.265,0.771l0.374,1.509c0.258,1.04,2.048,2.534,0.795,3.147c-0.63,0.308-1.347-0.472-1.688-0.983
				l-1.062-1.595c-0.49,0.195-1.545,0.781-2.27,1.224l-3.576,2.187l-1.737,1.093l-1.426,0.9c-2.491,1.572-2.31,1.966-5.592,4.117
				c-0.42,0.276-1.077,0.951-1.355,1.225l1.254,1.646c0.341-0.123,1.125-0.447,1.478-0.652l1.871-1.088
				c0.462-0.269,1.29-0.455,1.804-0.734l3.282-1.786l2.884-1.419l1.785-0.795L175.631,98.202z"/>
			<path d="M170.571,145.706c-1.241,1.371-4.676,5.229-6.718,4.389c-0.332-0.376-0.199-1.431-0.215-2.002
				c-0.037-1.331-1.612-2.1-2.858-2.239l-0.95-1.473c-0.174-0.269,0.593-0.904,0.913-1.048c1.629-0.734,4.391-2.613,5.932-3.741
				l1.036-0.758c0.397-0.291,1.594,0.17,2.093,0.08c0.963-0.173,2.364-0.701,3.338-0.368l2.591,0.885
				c0.4,0.137,1.062,1.173,0.937,1.592c-0.182,0.612-1.152,1.157-1.724,1.372l-0.7,0.72l-1.534,1.086
				C172.08,144.649,171.055,145.171,170.571,145.706z M168.67,144.975c2.71-1.843,0.195-0.107,2.628-2.224
				c0.725-0.631,1.372-0.948,2.382-1.469c-0.565-1.506-6.439,0.516-7.539,0.99c-0.885,0.381-1.748,1.257-2.697,1.902l2.031,2.031
				c0.141,0.141,0.363,0.697,0.506,0.6l0.634-0.431L168.67,144.975z"/>
			<path d="M216.158,117.621c-0.467-0.002-1.444-0.389-1.68-0.736c0.163-2.194,1.148-2.289,2.522-4.347l1.041-1.559
				c0.173-0.26,0.753-0.558,1.037-0.513c0.284,0.045,0.582,0.918,0.413,1.168l-1.332,1.977l-1.195,1.988
				c2.119,0.835,1.212-0.393,3.209,0.199l2.797,0.828c0.488,0.144,1.678-0.077,2.22-0.197l2.381-0.527
				c0.484-0.107,1.611,0.216,1.586,0.862c-0.018,0.462-0.694,1.144-1.021,1.453l-1.342,1.271c-2.363,2.24-1.06,0.191-2.04,1.922
				l-0.737,1.301c-0.293,0.518-0.732,1.53-0.883,2.142l-0.986,3.999c-0.092,0.374,1.071,0.228,1.448,0.155
				c0.475-0.093,1.63,0.094,1.832-0.555l0.842-2.7c0.126-0.405,0.612-1.276,0.905-1.591l3.859-4.138
				c0.695-0.746,1.11-1.369,1.34-2.443c0.449-2.095,2.387-1.568,2.289-3.717c-0.014-0.297-0.814-0.462-1.137-0.527l-1.568-0.318
				c-5.898-1.197-3.791-0.809-10.201-0.782c-0.592,0.002-1.515-0.489-1.375-1.136c0.078-0.363,0.769-1.151,1.129-1.125l1.421,0.1
				c0.573,0.04,1.47,0.242,1.969,0.236c3.485-0.339,2.478-0.013,5.443,0.471l2.146,0.35c4.046,0.661,2.442-1.572,5.243,0.557
				c0.092,0.401,0.031,1.385-0.142,1.77l-0.884,1.97l-1.61,1.438c0.181-0.161-0.984,2.499-2.042,3.705l-2.024,2.308
				c-0.449,0.512-0.989,1.146-1.378,1.729l-1.137,1.705c-0.463,0.695-0.217,3.068-0.997,4.454c-0.198,0.352-1.326,0.42-1.725,0.446
				l-2.306,0.151l-2.816,0.239l-1.403-0.888c-0.285-3.039,0.508-0.108,1.254-4.84c0.2-1.27,0.464-2.124,1.501-2.906l-0.418-0.379
				l0.972-1.347c0.287-0.397,0.684-0.964,0.967-1.293l1.426-1.653c-0.727,0.002-1.033,0.017-1.25-0.026l-2.19-0.439
				c-0.283-0.057-0.921-0.186-1.182-0.188L216.158,117.621z"/>
			<path d="M194.349,135.583l-0.095-1.581c0.079-1.262,0.097-2.383,0.03-3.62l1.63-1.226c0.421-0.317,1.151-0.66,1.527-1.029
				c1.961-1.921,1.261-1.045,3.576-2.187c0.697-0.344,1.561-0.526,2.433-0.814c0.25-0.083,2.584-1.115,2.306-1.166
				c0.444,0.082,1.177,0.31,1.256,0.964c0.034,0.281-0.315,0.85-0.569,0.984l-0.527,0.278c-0.121,0.064,0.063,0.345,0.163,0.452
				c0.094,0.1,0.459-0.047,0.62-0.17l1.777-1.352l1.47-1.118l1.113-0.884l3.319-1.181c0.358-0.127,1.308,0.164,1.572,0.393
				c0.596,0.519,0.151,2.324-0.071,2.815l-0.816,1.801c-0.209,0.46-1.025,1.274-1.509,1.569c-0.907,0.553-4.021,0.618-5.042,1.504
				l-1.656,1.437l-1.57,1.056l-2.753,1.853c-0.581,0.391-1.648,0.774-2.145,1.181l-1.463,1.2c-0.841,0.69-1.771,1.286-2.699,1.738
				l-1.234-1.25C194.711,136.946,194.377,136.06,194.349,135.583z M196.998,135.237l2.058-1.039
				c0.621-0.313,1.346-0.547,2.059-0.726l2.02-1.436l1.349-1.118l2.084-1.372c0.358-0.235,1.186-0.552,1.517-0.751
				c0.708-0.424,1.199-0.822,1.903-1.308c0.457-0.315,1.672-0.578,2.132-0.969l1.443-1.229l-0.466-0.507l-2.843,1.385l-1.791,0.994
				c-2.062,1.145-0.892,1.965-3.653,1.46l-0.225-1.666c-0.44,0.105-1.062,0.259-1.532,0.433l-1.937,0.718l-2.625,1.066
				c-0.367,0.294-1.112,1.01-1.417,1.345l-0.309,1.275C196.586,132.536,195.761,134.318,196.998,135.237z"/>
			<path d="M236.574,77.759l1.072-0.041l0.696,1.026c-0.257,0.189-1.126,0.706-1.458,0.621l-3.823-0.978
				c-3.363-0.86-0.486-0.981-3.334-0.844l-3.9,0.188c-0.332,0.016-1.156,0.36-1.49,0.411l-1.787,0.275
				c-0.333,0.051-1.048,0.417-1.442,0.601c-0.36,0.168-1.135-0.251-1.65-0.56l0.845-2.244c-0.17-0.538-0.422-1.902-0.027-2.312
				c1.679-1.741,2.968-1.114,4.914-2.528c2.34-1.701,3.442-0.878,6.259-1.483l3.486-0.749l1.963-0.142l2.503-0.632
				c0.497-0.125,1.432,0.55,1.442,0.999c0.014,0.597,0.033,1.312-0.077,1.753l-0.705,2.827c-0.88,0.169-1.684-0.297-1.704-1.083
				l-0.035-1.351c-2.015,0.047-1.525-0.822-4.127-0.296l-1.501,0.304l-3.12,0.604c-0.335,0.065-1.243-0.145-1.61,0.001
				c-7.817,3.097-5.125,4.045-5.177,4.065c0.57-0.219,1.689-0.404,2.423-0.423l1.779-0.046l1.384,0.138
				c1.937-0.378,4.222,0.533,6.048,1.16L236.574,77.759z"/>
			<path d="M103.851,189.803c-2.14,1.415-1.298,2.011-2.654,4.125l-1.733-0.147c-1.577-2.297-0.809-1.795-2.962-3.371
				c-0.607-0.444-1.235-1.06-1.352-1.714l-0.12-0.669c-0.06-0.332,1.397-0.236,2.463-1.097c0.542-0.437,0.925-0.807,1.408-1.251
				c0.417-0.384,1.171-0.864,1.531-1.246c1.025-1.09,1.963-2.028,3.039-2.999c1.714-2.358,0.21-2.358,1.682-3.109l1.758-0.896
				c0.412-0.21,1.524-0.146,1.895-0.049l0.409,1.021c1.083-0.167,1.861-0.251,2.732-0.196l1.038,0.065l2.078,0.143
				c0.281,0.019,1.06,0.593,0.902,0.913c-0.407,0.824-1.113,1.789-1.816,2.485l-1.462,1.446c-0.439,0.434-1.092,0.828-1.618,1.204
				l-2.5,1.786C106.513,187.716,106.365,188.14,103.851,189.803z M99.521,189.811c0.202,0.192,0.407,0.401,0.482,0.329l0.408-0.393
				c0.466-0.45,1.046-0.891,1.627-1.23l2.508-1.463c0.346-0.202,0.912-0.757,1.282-1.027l5.794-4.166
				c0.344-0.247,0.843-1.017,1.151-1.384l-2.047-0.166c-0.574-0.047-4.911,0.304-5.498,1.433c-0.923,1.851-1.897,2.117-2.877,3.105
				l-1.864,1.879c0.038-0.038-2.237,1.874-1.714,2.372L99.521,189.811z"/>
		</g>
	</g>
</g>
</svg>
