<?xml version="1.0" encoding="iso-8859-1"?>
<!-- Generator: Adobe Illustrator 30.2.1, SVG Export Plug-In . SVG Version: 9.03 Build 0)  -->
<svg version="1.1" id="Layer_1" xmlns="http://www.w3.org/2000/svg" xmlns:xlink="http://www.w3.org/1999/xlink" x="0px" y="0px"
	 viewBox="0 0 255.863 290.288" style="enable-background:new 0 0 255.863 290.288;" xml:space="preserve">
<g id="kZ9pRl.tif">
	<g>
		<g>
			<path d="M220.878,202.692c-1.278-0.732-2.408-1.588-3.569-2.595c0.215-0.319,0.502-0.847,0.766-0.859
				c0.353-0.016,1.198,0.278,1.508,0.491l3.626,2.485c0.878,0.602,1.998,1.386,2.787,1.869c1.495-1.845,2.561-2.308,4.865-2.726
				c-0.654-0.768-1.402-1.599-2.134-2.358l-1.631-1.691c-0.798-0.827-1.242-1.796-0.639-2.971l4.765,4.543
				c0.523,0.498,1.794,1.27,2.196,1.984c0.476,0.846-1.084,2.188-1.878,2.332l-2.716,0.493c-0.606,1.143-1.663,2.668-2.606,3.071
				l-2.998-2.264C222.46,203.923,221.71,203.169,220.878,202.692z"/>
			<g>
				<path d="M99.373,0l0.869,0.52l1.051,0.632c0.213,0.128-0.853,0.848-0.873,1.098c-0.135,1.691-0.266,4.999,0.017,6.819
					l0.639,4.114l-4.793,0.995c-0.822,0.171-2.294,1.048-3.108,1.339l-4.496,1.608l-3.926,1.409
					c-0.559,0.201-1.438,0.83-2.416,1.464c1.278,1.492,7.422,6.442,7.96,6.078l1.338-0.907c0.961-0.652,2.2-1.18,3.367-1.706
					c6.808-3.069,3.864-2.592,12.544-5.114l8.171-2.374c4.274-1.242,8.571-2.139,12.944-2.792l6.121-0.913
					c1.21-0.181,2.869-0.557,4.037-0.564l10.758-0.067l3.599,0.372l8.46,0.163c1.095,0.021,2.758,0.345,3.942,0.543
					c4.642,0.773,7.624,1.69,12.005,3.292l5.51,2.016l3.602,1.46c1.16,0.47,7.419,3.524,8.059,3.945l5.896,3.881l3.62,2.463
					c1.363,0.927,2.724,1.922,4.005,2.981l2.813,2.327c2.205,1.824,7.311,7.058,8.822,9.194l4.073,5.758
					c0.32,0.453,1.2,1.316,1.428,1.76l4.116,8c0.943,1.832,1.895,3.818,2.486,5.762l0.875,2.881l1.535,4.099
					c2.106,5.626,0.89,3.503,2.186,8.914l0.895,3.736c0.359,1.499,0.757,3.019,0.999,4.549l0.522,3.288
					c0.132,0.833,0.537,2.328,0.535,3.089l-0.043,14.914c-0.003,1.193-0.413,2.853-0.512,4.111l-0.331,4.227l-0.29,3.814
					l-0.559,6.412c-0.107,1.223-0.189,2.572-0.485,3.707l-3.178,12.193c-0.71,2.724-2.084,5.261-3.429,7.706l-3.144,5.718
					c-0.347,0.631-1.385,1.699-1.831,2.301l-3.981,5.374l-2.271,2.762l-1.563,1.287c-2.136,2.482-4.096,4.609-6.756,6.897
					l2.017,2.604c0.638,0.824,1.471,1.887,2.106,2.498l2.149,2.069l1.125,1.053c0.332,0.31,1.604-0.143,1.981-0.453l6.08-5.016
					c3.161-2.607,5.021-7.158,5.997-8.333l1.966-2.365c0.865-1.04,1.669-2.401,2.482-3.519c2.437-3.351,4.146-6.737,4.976-10.889
					c1.236-6.188,1.396-2.522,3.197-7.002c0.272-0.675,1.473-1.84,2.204-1.695l7.31,1.451l1.083,0.688v1.393
					c-0.677,0.727-1.333,1.813-1.717,2.832l-1.777,4.721l-2.307,6.097l-1.117,2.623l-1.745,3.908l-2.401,5.053
					c-0.339,0.713-0.87,2.153-1.37,2.703l-3.348,3.673c-0.573,0.629-1.445,1.521-2.031,2.046l-3.732,3.346
					c-1.316,1.18-4.79,3.763-6.326,4.747l-5.417,3.469c-1.223,0.783-2.631,1.926-3.899,2.46c-1.848,0.779-3.484,1.428-5.097,2.399
					l-4.381,2.638l-3.904,2.152l-6.154,3.673l-3.383,2.564c-1.809,1.371-3.761,2.191-5.786,3.065l-5.167,2.229
					c-5.446,2.35-6.234,3.464-11.514,5.122l-6.422,2.017l-3.464,1.137l-8.475,2.296c-4.065,1.101-3.006,0.767-6.818,1.144
					c-1.484,0.147-3.166,0.544-4.527,0.609l-2.515,0.121c-3.033,0.145-6.116,0.373-9.176-0.007l-4.12-0.511
					c-2.32-0.288-4.067,0.266-7.015-0.312l-10.897-2.139l-2.486-0.466c-5.111-0.958-10.334-1.579-15.09-3.78l-4.723-2.185
					c-1.497-0.693-2.843-1.422-4.195-2.273l-6.875-4.328l-4.877-3.076c-1.202-0.758-2.395-1.983-3.521-2.916
					c-0.994-0.824-2.222-1.633-3.068-2.438l-1.954-1.859c-1.425-1.356-2.831-2.737-4.143-4.188l-1.991-2.201l-1.953-2.213
					l-2.808-3.295c-0.674-0.791-1.315-1.758-1.81-2.791c-0.466-0.974-1.168-1.516-1.831-2.377l-4.268-5.546
					c0.568,1.586,1.144,2.812,1.85,4.296l0.691,1.451c0.894,1.878,1.894,1.012,3.857,4.146l3.607,5.756
					c0.601,0.959,1.235,1.725,1.973,2.647c1.797,2.246,3.368,4.709,4.959,7.165l3.27,5.049l2.177,3.439l1.567,2.582l1.906,3.219
					l1.723,2.91l2.268,3.788c0.864,1.443,1.624,2.698,2.42,4.193c0.338,0.634,0.95,1.472,1.386,2.166l1.443,2.299l1.802,2.885
					c0.915,1.464,1.746,2.872,2.567,4.377l1.84,3.372c0.552,1.012,1.69,2.432,2.445,3.454l2.379,3.221l1.189,1.574l2.242,3.288
					c1.771,0.081,3.604,0.076,5.178-0.049l2.31-0.183c0.813-0.064,1.95-0.093,2.661-0.21l4.735-0.782
					c1.018-0.168,2.211-0.364,3.192-0.452l4.221-0.379l5.573-0.497l7.388-0.281c0.909-0.035,1.938-0.102,2.747-0.002l3.388,0.417
					l2.625,0.323c0.815,0.1,1.682,0.156,2.471,0.187l4.176,0.167l4.531,0.782l6.1,0.196c0.682,0.022,1.79,0.16,2.443,0.273
					l3.942,0.686l2.835,0.402c4.244,0.601,8.2,1.814,12.283,3.006c5.106,1.491,1.16-0.136,6.192,1.176l8.148,2.124
					c1.354,0.353,2.786,0.957,4.11,1.496l4.987,2.031c3.564,1.451,7.766,3.876,11.012,6.121c0.691,0.478,1.737,1.74,2.475,2.136
					c1.207,0.648,3.405,1.12,4.763,1.163l3.201,0.102c0.681,0.022,2.385,0.789,2.234,1.404c-0.682,2.789-1.375,0.546-1.885,4.185
					c-0.583,4.162-6.107,4.849-10.029,5.401c-1.599,0.225-3.14-0.018-4.773,0.09l-2.721,0.181l-15.748-0.09l-2.355-0.242
					c-1.117-0.115-2.154,0.049-3.292,0.192l-3.709,0.466c-2.483,0.312-4.939,0.133-7.446,0.083l-1.734-0.034l-5.632-0.125
					l-3.246,0.232l-4.277-0.393c-5.939-0.545-4.333,0.459-8.739,0.357l-4.206-0.097l-5.615-0.061l-2.903-0.166
					c-2.126-0.122-5.179-0.631-7.194-0.155l-2.063,0.488l-6.338-0.085c-0.792-0.011-1.696-0.072-2.307-0.009l-3.793,0.389
					l-3.616,0.37c-4.184,0.428-5.093-0.754-11.167-0.05c-1.67,0.193-17.716-0.227-17.584-0.202l-2.063-0.391l-9.217-0.079
					l-3.192-0.656l-4.233,0.343c-0.872,0.071-1.845,0.01-2.776-0.008l-9.135-0.178c-3.626-2.247-2.517-1.494-4.503-5.469
					c3.817-4.43,2.282-0.982,6.669-4.762c0.63-0.543,2.296-1.237,3.098-1.163l1.119,0.103c0.148,0.014,0.284-0.589,0.374-0.723
					l1.536-2.28c0.339-0.503,0.975-1.829,1.437-2.179l2.411-1.823c1.12-0.847,2.073-1.97,3.082-2.942l2.83-2.727l-2.042-4.64
					c-0.964-2.191-2.937-5.764-4.269-7.895c-0.965-1.544-2.022-2.982-2.726-4.654l-1.102-2.617l-2.332-4.766l-2.254-4.611
					l-1.259-2.336l-3.017-5.908l-1.63-2.884c-0.813-1.438-1.535-2.788-2.445-4.121c-0.629-0.921-1.286-1.899-1.774-2.817
					l-3.23-6.071l-2.153-4.011c-0.353-0.658-1.228-1.724-1.755-2.378c-0.286-0.354-0.658-1.451-0.9-1.881l-4.841-8.585l-1.911-3.694
					c-1.172-2.265-2.351-4.456-3.421-6.778c-2.097-4.547-2.687-4.685-5.103-9.341l-1.926-3.71l-2.56-4.279l-2.564-4.457
					l-2.049-3.548c-2.031-3.517-2.006-4.323-3.701-6.956c-1.436-2.232-2.784-4.459-3.801-6.907l-2.207-5.315
					c-0.616-1.483-1.222-2.738-1.52-4.549c4.905-2,1.958-0.256,7.154-2.648l3.269-1.506l2.124-0.978l3.397,4.701
					c1.188,1.644,2.373,3.161,3.509,4.857l1.681,2.51c1.512,2.257,2.892,4.507,4.234,6.882l1.536,2.719
					c0.607,1.075,1.461,2.05,2.402,3.116c0.041-1.333,0.027-2.447-0.192-3.442l-0.846-3.861c-0.243-1.109-0.442-2.356-0.625-3.533
					l-0.461-2.957c-0.306-1.962-0.562-3.802-0.729-5.811l-0.313-3.748l-0.302-3.739l-0.31-4.606l-0.279-3.75
					c-0.385-5.183-0.814-3.113-0.986-6.893l-0.168-3.693l-0.102-2.479l-0.104-2.693c-0.12-3.107-0.193-6.224,0.036-9.303
					l0.453-6.081c0.105-1.417,1.475-6.622,2.13-8.44l1.86-5.162c2.331-6.469,4.203-10.306,7.262-16.357l1.245-2.463l2.205-4.26
					l2.017-3.7c1.381-2.534,0.699-3.683,2.583-6.027l1.919-2.389l1.872-2.333c0.556-0.693,1.314-1.633,1.886-2.198l2.384-2.354
					c0.783-0.773,1.657-1.471,2.788-1.921l-4.251,4.674c-1.557,1.712-4.961,6.409-6.333,8.588c-1.237,1.965-1.955,4.478-3.103,6.661
					l-2.515,4.783l-4.352,9.658l-1.339,3.343l-2.075,4.88l-3.277,8.366c-0.694,1.772-1.608,6.745-1.723,9.007l-0.159,3.13
					l-0.228,3.891c-0.053,0.901-0.052,1.84-0.039,2.73l0.186,12.948c0.015,1.025,0.566,2.766,0.703,3.848l0.463,3.669l0.259,6.445
					l0.444,5.175l0.469,4.592l0.496,3.641c0.209,1.531,0.442,3.209,0.746,4.571l1.139,5.095c0.581,2.596,1.335,4.9,2.329,7.392
					c1.106,2.771-0.5,1.553,2.58,6.747l1.559,2.628c0.513,0.865,1.039,1.733,1.595,2.527l2.883,4.119l2.491,3.501
					c2.034,2.858,2.25,2.769,4.757,6.043c0.851,1.111,2.17,2.322,2.88,3.447c0.85,1.347,1.541,2.531,2.43,3.656l2.718,3.441
					c0.453,0.574,1.195,1.317,1.748,1.915c3.467,3.743,1.106,1.735,5.021,5.208l2.21,1.96l3.443,3.078
					c5.06,4.522,2.723,2.22,8.499,5.843l6.34,3.977l2.735,1.892c3.224,2.231,11.285,4.62,15.469,5.464l8.009,1.616l7.924,1.4
					l4.24,0.911c3.534,0.759,3.456-0.288,7.867,0.331l2.657,0.373c2.196,0.308,7.08,0.215,9.432,0.022l3.671-0.302
					c-0.206,0.017,8.909-1.347,7.803-0.981l4.876-1.617l3.841-0.728l5.639-1.862l3.821-1.26c8.44-2.783,7.718-3.711,14.034-6.366
					l3.294-1.385c0.869-0.365,1.933-0.874,2.764-1.359l4.723-2.752c1.401-0.816,2.692-1.987,4.131-2.75
					c1.354-0.718,2.473-1.502,3.788-2.261l4.155-2.395l2.84-1.784l3.216-1.951l4.819-2.094l4.725-3.117
					c3.297-2.175,3.033-1.547,6.877-4.753l2.543-2.121l2.801-2.347c0.668-0.56,1.464-1.387,2.056-2.058l3.103-3.515
					c0.485-0.549,1.025-1.521,1.372-2.251l3.752-7.871l1.566-3.994c1.86-4.744,3.588-8.928,5.291-13.87
					c-1.55-0.573-2.747-0.939-4.2-1.121l-2.152-0.27l-2.992,4.706c-1.51,2.375-1.284,5.947-2.775,8.365l-3.008,4.879
					c-3.45,5.596-2.916,3.672-5.943,8.02c-0.901,1.294-1.653,3.097-2.673,4.231c-1.664,1.851-3.31,3.481-5.137,5.13
					c-2.449,2.21-3.645,2.139-4.945,4.898c-0.355,0.061-1.884,0.148-2.394,0.353c-4.012,1.61-6.475,4.104-11.927,6.55
					c-1.635,0.734-3.118,1.489-4.681,2.301l-4.954,2.573c-4.394,2.282-8.707,4.392-13.382,6.038l-7.248,2.55l-2.291,0.939
					l-6.018,1.968l-2.377,0.792l-3.165,1.035c-1.676,0.548-3.375,0.969-5.105,1.351l-3.415,0.753
					c-1.863,0.411-4.295,1.126-6.266,1.132l-21.186,0.063c-0.635,0.002-2.086-0.339-2.785-0.46l-4.315-0.746
					c-5.89-1.019-12.177-2.884-17.703-5.047c-1.698-0.665-3.522-1.115-5.409-1.696c-1.386-0.427-2.945-1.467-4.295-2.001
					c-2.516-0.995-4.818-1.894-7.11-3.169l-3.641-2.024l-4.77-2.711c-0.57-0.324-6.662-4.931-7.614-5.765L65.295,191
					c-0.711-0.624-1.543-1.56-2.232-2.331l-4.823-5.404l-2.656-2.976c-1.349-1.512-2.208-3.733-3.418-5.375l-1.954-2.652
					c-0.26-0.354-1.119-1.193-1.305-1.566l-5.671-11.378l-1.272-3.009l-1.18-2.547c-1.149-2.481-1.573-4.933-2.18-7.616l-1.333-5.89
					l-0.816-4.756c-0.484-2.819,0.079-5.21-0.509-8.479c-0.315-1.751-0.486-3.165-0.665-4.767l-0.425-3.792l-0.37-4.247
					c-0.169-1.937-0.188-4.007-0.076-6.005l0.103-1.849l0.118-2.874l0.092-2.241l0.279-6.394l0.258-4.202l0.442-2.852
					c0.221-1.427,0.424-2.457,0.933-3.763c1.287-3.304,0.64-3.521,2.481-8.257c0.308-0.792,0.887-1.879,1.061-2.6l1.404-5.825
					c0.222-0.92,1.275-2.48,1.815-3.451l1.313-2.358l1.471-2.797c2.998-5.698,3.533-5.266,5.863-8.996l2.86-4.579
					c0.72-1.154,1.418-2.271,2.256-3.287l2.973-3.603l5.185-6.448l3.375-3.542c0.592-0.621,1.423-1.604,2.043-2.018l4.233-2.826
					l3.549-2.497l2.652-2.013c1.663-1.262,2.64-1.834,4.508-2.483l7.308-2.537l3.995-1.484c0.496-0.184,1.954-0.724,1.943-1.316
					l-0.114-6.365c-0.011-0.639-0.326-1.676-0.495-2.503l-6.449,2.236c-0.487,0.169-1.465,0.785-1.855,0.958
					c-1.178,0.165-2.587,0.502-3.618,0.987l-3.157,1.484c-2.322,1.092-4.39,1.879-6.344,3.477l-3.609,2.952
					c-0.782,0.64-1.706,1.561-2.527,1.994c-3.379,1.78-3.148,2.559-6.836,5.773l-2.748,2.394l-2.534,2.209
					c-0.693,0.604-1.663,2.348-2.269,3.036c-0.135,0.153-1.295-0.087-1.21-0.272l0.391-0.856c1.029-2.255,2.635-4.112,4.498-5.69
					l2.025-1.716l2.549-2.157c0.887-0.75,2.008-1.864,2.862-2.721l-1.63-3.725l-1.338-3.787c-0.259-0.732-1.573-2.359-1.195-3.042
					c0.426-0.77,1.781-1.63,2.496-2.147c2.188-1.582,3.414-3.313,4.51-1.708c1.543,2.26,2.828,4.002,4.632,5.749l2.201,2.13
					c3.312-3.622,2.251-1.592,7.608-4.425c0.53-0.28,1.676-0.871,2.243-0.975l2.409-0.44c1.018-0.779,2.149-1.489,3.272-1.774
					l2.651-0.673C96.47,1.232,97.683,0.663,98.444,0H99.373z M74.748,11.029c0.079,0.06,0.474-0.88,0.264-0.626l-2.04-2.105
					l-4.231-4.33c-1.276,0.486-2.629,1.489-3.37,2.46c0.18,0.631,0.503,1.775,0.763,2.295l3.136,6.265
					C70.697,14.827,72.022,12.405,74.748,11.029z M139.719,199.196l5.21,0.374c3.1,0.222,6.538,0.417,9.561-0.047l6.082-0.934
					c2.308-0.355,4.6-0.93,6.869-1.474l2.928-0.703l4.547-0.991c0.782-0.171,1.644-0.482,2.467-0.779l7.577-2.73l2.606-1.009
					c2.012-0.779,3.95-1.546,5.736-2.647l6.639-4.094l4.916-3.051c2.08-1.291,5.912-5.795,9.021-8.544
					c2.526-2.234,6.019-5.635,7.919-8.278l3.133-4.358c0.555-0.773,1.235-1.633,1.695-2.427l2.416-4.168
					c2.591-4.47,4.685-9.225,5.549-14.379l0.551-3.286c0.238-1.42,1.052-3.228,1.124-4.669l0.231-4.627l0.43-4.249
					c0.173-1.712,0.299-3.31,0.341-5.096c0.155-6.616,1.43-1.815,0.846-11.573c-0.234-3.91,0.847-4.148-0.223-9.87l-2.213-11.836
					c-0.202-1.081-0.889-2.366-1.074-3.614l-0.429-2.911c-0.294-1.992-4.323-13.259-5.448-15.286l-2.286-4.12
					c-1.183-2.132-2.073-4.38-3.44-6.334l-1.556-2.225l-2.693-3.832c-1.638-2.33-3.852-4.51-6.002-6.456l-1.721-1.558l-1.952-1.778
					c-2.364-2.153-2.366-2.132-4.965-3.88c-2.304-1.55-4.506-3.279-6.907-4.617l-5.694-3.171c-0.698-0.388-1.733-0.823-2.51-1.171
					l-5.136-2.297c-0.177,2.641,0.467,5.315,1.331,7.729c-0.257,0.858-0.586,2.054-0.741,2.922l-0.647,3.629
					c-0.445,2.497-3.554,0.126-4.752,1.637l-1.613,0.165l0.106-1.713c0.023-0.366,1.017-0.724,1.376-0.775l2.893-0.408
					c0.415-1.21,1.195-3.239,1.06-4.279l-0.498-3.835l-0.43-3.309c-0.084-0.647-0.103-1.454-0.136-2.357
					c-1.004-0.66-2.614-1.306-3.981-1.798l-4.452-1.602c-1.371-0.493-5.716-1.716-7.125-1.964l-4.391-0.775
					c-0.495-0.087-1.591-0.288-2.109-0.287l-23.146,0.054c-1.03,0.002-2.826,0.611-3.853,0.736l-3.691,0.448
					c-1.939,0.235-3.757,0.516-5.635,0.9l-2.333,0.477l-4.288,0.82c-2.006,0.384-3.785,0.978-5.733,1.702
					c-2.609,0.969-5.551,1.469-8.112,2.642c-2.99,1.371-5.81,2.76-8.673,4.387c-1.648,0.937-3.298,2.295-4.906,3.375l-4.191,2.815
					l-2.834,1.879c-0.554,0.367-1.373,1.111-1.969,1.61l-2.541,2.128l-2.802,2.346c-2.02,1.692-4.036,4.249-5.459,6.601
					c-0.609,1.006-1.417,2.16-1.859,3.132l-1.46,3.212c-0.572,1.257-1.063,2.677-1.759,3.819l-2.166,3.555
					c-1.255,2.061-2.48,3.997-3.614,6.373c3.398-1.31,5.831-2.304,9.08-2.903c0.568-0.105,1.428-0.204,1.68-0.553l1.542-2.138
					c-5.048-1.781-4.421,0.611-6.659,0.938c-0.358,0.052-0.901-1.16-0.657-1.429c0.62-0.684,2.56-1.569,3.483-1.559l3.462,0.038
					c0.914,0.01,2.553,0.418,3.24,0.82c0.593,0.347-1.481,2.285-2.444,3.842c-2.076,3.357-2.643,0.892-8.094,2.63
					c-3.789,1.208-1.558,2.247-5.091,2.097l-2.789,7.694c-1.318,3.635-1.18,5.6-2.8,10.222c-0.721,2.056-0.748,4.027-1.34,6.198
					L50.3,96.201l-1.01,6.037c-0.898,5.369-0.893,1.814-0.704,6.065l0.325,7.289c0.034,0.757,0.208,1.995,0.339,2.825l0.823,5.198
					c0.156,0.984,0.389,2.047,0.622,3.023l2.062,8.634c0.345,1.444,0.846,2.855,1.294,4.267l1.031,3.248l0.816,2.982
					c2.106,7.702,2.536,8.014,6.602,14.695c0.85,1.396,1.818,2.837,2.798,4.209c2.617,3.663,9.903,10.834,13.546,13.742l3.661,2.922
					c0.817,0.652,1.798,1.342,2.705,1.874l3.555,2.085c3.963,2.324,3.889,3.217,8.604,5.29c2.198,0.967,4.628,2.131,6.909,2.706
					l10.077,2.541c2.395,0.604,4.934,1.012,7.407,1.392l3.674,0.565c0.894,0.137,2.205,0.187,3.064,0.165
					C134.133,197.812,134.505,198.822,139.719,199.196z M84.649,30.081l2.496-1.463c0.307-0.18,0.939-1.167,0.651-1.39l-0.981-0.758
					c-0.793-0.612-1.917-1.364-2.564-1.977l-3.444-3.263l-4.534,2.985c-0.247,0.163-0.695,0.808-0.549,1.017l0.488,0.7l2.536,3.601
					c0.579,0.823,2.208,2.769,3.08,2.314L84.649,30.081z M208.599,191.973c-2.945-1.072-4.619-1.861-6.653-3.347
					c-0.635-0.043-1.954,0.025-2.288-0.395l-0.805-1.012c-0.169-0.212-0.903,0.132-1.161,0.278l-4.495,2.546
					c-2.274,1.288-4.498,2.209-7.039,3.143l-5.46,2.007c-1.709,0.628-3.437,1.258-5.208,1.702l-5.577,1.399l-2.518,0.657
					c-3.975,1.038-3.552,0.951-7.683,1.594l-5.204,0.81c-3.201,0.498-6.781,0.309-10.049,0.067l-3.767-0.279
					c-0.998-0.074-2.065-0.135-2.938-0.288l-5.958-1.047l-4.958-0.174l-3.295-0.466l-3.231-0.478l-5.609-0.901
					c-1.73-0.278-3.657-1.095-5.389-1.456l-5.433-1.133c-3.041-0.634-6.209-2.053-8.877-3.607l-2.371-1.381l-2.308-1.379
					l-4.558-2.895l-3.664-2.419c-1.252-0.827-2.587-1.772-3.707-2.73l-2.52-2.156l-3.749-3.249c-1.35-1.17-2.728-2.59-3.869-3.95
					l-1.931-2.302c-0.745-0.887-1.54-1.91-2.192-2.853l-1.732-2.505l-2.974-4.48c-3.985-6.003-1.68-3.904-4.655-10.138
					l-4.891-18.287c-0.885-3.309-1.462-6.709-1.973-10.091l-0.508-3.357c-0.787-5.203-0.115-3.895-1.027-7.488
					c-0.623-2.454,0.206-3.879,0.753-6.057c1.251-4.978,0.246-5.43,1.032-7.323c1.538-3.703,0.932-4.768,2.929-10.609l1.776-5.196
					c0.086-1.878,0.538-3.514,1.172-5.244l1.016-2.774l1.621-4.424c0.465-1.268,0.799-3.033,1.424-4.124l3.581-6.251l1.694-2.972
					c1.268-2.225,2.069-5.526,4.836-9.954c0.868-1.389,2.118-3.111,3.229-4.096l2.267-2.01l2.484-2.179l3.447-3.222l-3.526-4.238
					c-0.547-0.657-1.461-1.975-2.347-2.307c-0.789-0.295-2.599,0.782-3.095,1.435l-2.477,3.254l-2.948,2.897
					c-1.71,1.68-2.824,3.64-4.316,5.46l-3.161,3.855c-1.516,1.85-2.795,4.003-4.234,5.967c-0.621,0.848-1.449,1.822-1.948,2.605
					l-1.858,2.913c-1.263,1.98-2.237,3.931-3.257,6.109c-1.745,3.725-2.501,2.558-4.471,8.83l-0.894,2.845l-0.965,3.242
					c-0.526,1.767-1.047,3.682-1.383,5.445l-0.911,4.772l-0.596,3.545l-0.834,5.225c-0.349,2.188,0.131,5.044-0.25,7.223
					l-0.348,1.991l-0.173,6.888c-0.024,0.953-0.063,1.906,0.074,2.778c0.753,4.769,0.287,3.321,0.847,7.932l0.452,3.728l0.513,4.221
					c0.15,1.234-0.151,3.352,0.098,4.547l2.241,10.777c0.17,0.817,0.201,2.403,0.507,3.122l1.684,3.953l1.969,4.619
					c0.849,1.992,1.893,3.914,2.901,5.882c0.826,1.613,2.203,5.365,2.507,5.778l3.183,4.314c1.889,2.559,2.028,3.588,3.693,5.539
					l2.162,2.533l4.233,4.568l2.403,2.726c1.086,1.232,2.42,2.225,3.712,3.236l2.874,2.248l5.686,4.079
					c0.83,0.595,1.627,1.185,2.541,1.586c2.798,1.227,5.333,2.629,7.896,4.15c2.412,0.863,4.608,1.77,6.934,2.896
					c0.967,0.468,2.061,0.74,3.124,1.125l7.363,2.668c2.152,0.78,4.24,1.245,6.39,2.052l10.131,1.949l4.208,0.851
					c2.968,0.6,6.551-0.131,10.146,0.071c1.976,0.111,3.984,0.157,5.956,0.049l3.702-0.202l3.764-0.268
					c0.742-0.053,1.943-0.264,2.694-0.438l4.823-1.118c6.168-1.43,3.337-1.144,8.886-2.8l3.177-0.948
					c1.348-0.402,2.553-0.857,3.853-1.309l4.516-1.569c2.243-0.779,4.403-1.699,6.601-2.604l4.313-1.776
					c2.03-0.836,3.974-1.852,5.931-2.875l2.432-1.271l3.096-1.585l5.563-2.846C206.626,193.507,207.905,192.744,208.599,191.973z
					 M82.038,258.583l5.43-1.628c0.791-0.237,2.12-0.234,3.481-0.328c0.116-0.203-0.278-1.162-0.695-1.752l-5.373-7.617l-1.491-3.17
					l-1.21-1.766c-1.657-2.419-3.639-5.022-5.119-7.794l-1.786-3.343c-0.767-1.436-1.714-2.875-2.578-4.291l-1.404-2.304
					l-1.577-2.613l-2.269-3.794l-1.583-2.571l-1.812-2.839l-3.873-5.895c-0.42-0.639-0.98-1.155-1.425-1.925l-1.656-2.864
					l-3.209-4.291c-1.015-1.358-1.907-2.679-2.824-4.134c-3.692-5.857-3.744-4.101-5.707-7.753l-2.094-3.896l-1.431-2.708
					l-1.617-3.054c-0.857-1.619-1.69-3.141-2.778-4.655l-1.395-1.94c-3.521-4.898-4.566-9.601-6.038-12.028l-2.959-4.881
					l-1.661-3.053c-0.588-1.08-1.23-2.136-1.905-3.144l-1.699-2.538l-1.539-2.12l-1.787-2.413l-1.806-2.439
					c-1.878-2.536-1.746-1.557-4.174-5.38c-4.682,1.279-5.092,2.683-9.144,3.672c-0.328,0.08-1.101,0.267-1.01,0.51l0.44,1.173
					l1.805,4.81c0.479,1.275,1.228,2.859,1.878,4.033l2.003,3.619c2.454,4.434,2.242,4.682,5.027,9.338l2.815,4.705l1.394,2.283
					c0.778,1.275,1.42,2.6,2.111,3.934l1.577,3.043l1.776,3.284l1.322,2.411l1.278,2.431c0.471,0.896,0.909,1.932,1.293,2.861
					l1.391,3.361c0.346,0.836,0.859,1.379,1.823,1.99c0.354,0.576,0.963,1.839,1.314,2.627l2.036,4.56
					c0.316,0.707,1.338,1.72,1.708,2.383l3.035,5.438c1.015,1.819,2.034,3.509,2.954,5.383c0.364,0.74,0.724,1.419,1.112,2.088
					l2.727,4.71l2.029,3.572l1.67,2.941l1.368,2.362l2.712,4.334c0.296,0.473,0.735,1.592,1.033,2.185l2.191,4.365l2.093,4.414
					l1.921,4.05l0.892,1.882l1.351,2.899c0.929,1.196,1.87,2.464,2.602,3.831l1.153,2.154l2.217,3.603l2.312,4.597
					c1.43-0.254,2.566-0.681,3.79-1.383C75.01,261.809,81.695,258.686,82.038,258.583z M210.291,191.04
					c0.303-0.141,1.331-0.69,1.667-0.872l5.237-2.819c-1.251-1.333-2.492-2.24-3.211-3.176l-3.107-4.045
					c-0.261-0.34-0.855-0.833-1.207-0.923c-0.264-0.067-0.726,0.437-1.018,0.712c-1.565,1.477-3.212,2.633-5.023,3.822l-2.545,1.67
					c4.199,2.302,1.953,2.9,7.764,3.808L210.291,191.04z M136.791,278.77l12.234-0.257l5.168-0.366l3.144-0.167
					c1.096-0.058,2.168-0.108,3.228-0.068l2.318,0.087c1.544,0.058,2.958,0.185,4.501,0.071c4.074-0.301,3.135-1.366,10.352-0.615
					c1.402,0.146,2.531,0.072,3.946,0.011l5.802-0.253l2.111-0.391l13.288,0.097l3.532,0.216l4.634,0.126
					c-0.553-0.903-1.112-1.584-1.808-2.054l-4.24-2.861c-1.296-0.875-2.703-1.64-4.184-2.265l-5.242-2.213l-3.294-1.386
					c-1.811-0.762-3.926-1.121-5.858-1.603l-9.299-2.321l-5.591-1.32l-3.726-0.887c-1.405-0.334-2.817-0.627-4.234-0.875
					l-3.894-0.682c-1.01-0.177-2.18-0.326-3.201-0.435l-4.2-0.448l-4.684-0.498c-0.709-0.075-2.06-0.461-2.664-0.478l-6.974-0.201
					l-3.831-0.724c-3.969-0.75-7.944-0.539-12.019-0.009l-3.647,0.474l-2.859,0.112c-1.062,0.042-2.451,0.227-3.56,0.405
					l-3.969,0.636c-1.163,0.186-2.409,0.453-3.621,0.5l-5.986,0.229l-3.204,0.425l-1.409,0.701l-3.275-0.375l-1.568-1.041
					l-5.068,1.392c-1.516,0.416-2.908,1.09-4.311,1.73l-3.908,1.784c-1.546,0.706-4.693,3.167-5.232,3.317
					c-0.464,0.129-1.552,0.355-1.863,0.659l-4.009,3.923c-0.587,0.574-2.189,1.313-2.675,1.901l-2.114,2.556l-1.517,2.911
					l4.852-0.355l2.816-0.245c0.829-0.072,1.838,0.006,2.739,0.018l12.543,0.169l2.316,0.001c7.198,0.004,6.435-0.822,13.047-0.27
					l5.243,0.438c0.746,0.062,1.818,0.147,2.607,0.153l19.905,0.131c0.498,0.003,6.85,0.697,6.97,0.693L136.791,278.77z
					 M164.014,287.233l5.881-0.368c2.912-0.182,5.307,0.425,10.628,0.029l2.988-0.222c0.318-0.024,0.988-0.088,1.295-0.088
					l18.982-0.005c0.96,0.751,2.167-0.125,3.009-0.133c1.719-0.017,4.786,0.245,7.053-0.509l4.693-1.561
					c0.839-0.279,1.499-2.278,1.807-3.108l0.741-2.003l-2.313-0.342c-2.671-0.395-11.726,0.66-13.825,0.215l-2.19-0.465
					l-14.631,0.076l-5.648,0.324c-2.131,0.122-4.292,0.072-6.385-0.062l-2.45-0.157c-2.527-0.161-6.379,0.675-6.94,0.68
					l-12.895,0.115l-2.112,0.392l-14.579,0.072c-1.721,0.528-3.168,0.398-4.896,0.133c-0.794-0.121-1.734-0.027-2.744-0.172
					l-2.781-0.398l-20.356-0.138l-2.339-0.037c-0.66-0.011-1.709,0.01-2.246-0.049l-4.226-0.462
					c-1.768-0.193-3.515-0.361-5.23-0.228l-3.168,0.245l-5.179,0.434c-0.78,0.065-1.838,0.119-2.689,0.116l-11.61-0.037
					c-0.94-0.003-1.878-0.073-2.766-0.029l-4.237,0.21c-1.781,0.089-4.187,1.196-7.258,0.853l-1.025-1.569
					c-0.969,0.648-2.03,1.514-2.793,1.884l-3.449,1.672c2.156,4.244,2.09,3.219,5.146,3.739c5.559,0.946,2.313-1.276,6.543,0.445
					c1.242,0.506,2.865,0.226,4.386-0.026c1.706-0.283,3.645,0.104,5.415,0.223l4.689,0.314c1.834-0.199,3.678-0.15,5.567,0.107
					l2.301,0.313c1.961,0.267,3.723,0.349,5.701,0.007c5.473-0.947,4.272,1.058,7.81,0.504l3.779-0.592
					c4.132-0.647,4.169,0.731,10.61,0.109l3.617-0.349l2.245-0.205c0.974,0.545,1.519,0.612,2.522,0.559l6.833-0.362l3.043-0.142
					l1.684-0.103l21.371-0.104c0.815-0.004,1.979-0.096,2.749-0.156C162.16,286.191,155.972,287.735,164.014,287.233z"/>
				<path d="M212.133,115.998l-2.229-9.68c-1.133,0.043-2.482,0.491-3.16,0.948l0.437,4.253c0.554,5.397,1.085,5.926,3.067,10.681
					l1.437,3.449c0.345,0.827-1.331,1.605-2.38,1.269c-0.682-0.219-2.415,0.29-3.196,0.196c-2.281-0.273-4.789-0.463-7.068,0.327
					l-2.849,0.987c-2.667,0.924-4.294,1.127-7.255,1.326l0.674,1.074l0.853,1.354c0.241,0.382-1.048,1.311-1.297,0.961
					c-0.617-1.365-4.915-4.468-3.111-4.935c4.741-1.227,3.004,0.701,5.915-0.178l4.671-1.411l5.935-1.647
					c0.722-0.201,2.469,0.304,3.191,0.233l3.305-0.327l-2.334-6.591c-1.71-4.827-0.693-5.989-2.419-10.989
					c-0.272-0.787-0.49-1.565-0.083-2.184c0.397-0.604,1.521-0.209,2.485-0.236c1.111-0.03,2.881-0.548,4.186-0.871
					c1.767-0.437,1.058,2.195,1.564,4.406c0.501,2.191,0.713,4.924,1.606,6.727c1.023,2.066,2.096,3.652,2.518,5.89
					c0.82,4.35,1.831,6.698,3.839,10.367c0.106,0.194,0.333,1.133,0.155,1.204l-1.189,0.478c-2.924,1.176-1.216,2.995-4.985,2.296
					c-4.095-0.76-9.027,0.695-13.534-0.875c-1.8,0.128-3.654,0.17-5.506-0.047c-4.065-0.479-1.478,0.725-5.741,0.698
					c-0.284-0.002-0.272-1.404,0.005-1.478l1.194-0.323l1.65-0.417c1.237-0.313,2.644-0.393,3.941-0.444
					c6.487-0.255,4.967,0.56,8.344,0.737c5.938,0.312,6.243-0.281,11.183-0.22c0.247-0.212,1.491-2.223,1.321-2.999l-1.622-6.036
					l-0.927-3.462C214.321,119.008,213.212,117.392,212.133,115.998z"/>
				<path d="M101.221,133.596c-1.766,3.277-1.931-0.732-6.028-3.48l-2.573-1.726c-4.097-2.748-5.863-3.231-10.442-4.918
					c-1.959-0.722-2.438-3.31-4.967-4.748c-0.913-0.519-1.627-2.482-0.736-2.979l2.234-1.246c9.803-5.466,8.216-9.566,12.132-11.512
					c1.46-0.725,2.146-1.799,3.052-3.081l2.113-2.992c2.07-2.931,1.766,0.488,5.882,2.83l-3.847,5.717
					c-3.975,5.908-5.219,6.007-10.375,10.901c2.988,3.648,5.173,2.981,8.213,5.053l2.816,1.919c0.806,0.549,1.675,1.156,2.494,1.627
					l2.994,1.722c0.5,0.288,0.978,0.612,1.241,0.876c1.282,1.286-1.868,1.702-2.772,3.381L101.221,133.596z M100.559,130.663
					l2.105-2.349l-3.011-2.289c-6.233-4.738-6.483-3.52-13.019-7.382l-2.409-0.469l3.103-3.516c2.271-2.573,2.754-1.538,6.205-5.772
					c0.779-0.956,1.55-1.834,2.275-2.877l2.815-4.048c0.309-0.445,0.327-1.644,0.144-2.07c-0.183-0.426-1.3-1.144-1.72-0.948
					c-0.863,0.401-1.852,1.801-2.393,2.682c-2.228,3.629-3.341,2.012-5.675,5.42l-1.955,2.855c-0.992,1.449-4.804,4.352-7.05,5.451
					c-0.545,0.267-1.724,1.463-1.37,1.945c1.431,1.441,3.303,3.94,4.931,4.686l6.19,2.836l2.841,1.449
					C99.478,129.79,98.438,133.029,100.559,130.663z"/>
				<path d="M193.117,86.417c-2.118,0.237-0.886,1.085-2.616,2.605c-0.24,0.211-1.133-0.219-1.366-0.472l-1.56-1.695
					c-3.624-3.938-2.428-3.407-5.572-7.374l-1.874-2.365c-2.616-3.301-2.37-1.99-3.674-4.045c-0.446-0.702,1.579-1.11,3.475-3.635
					c0.455-0.605,1.091-1.717,1.527-2.159l5.322-5.397l3.027-1.15l5.036-5.158c0.471-0.482,0.965-1.173,1.391-1.341
					c1.842-0.727,0.845,2.433,2.588,4.206c0.68,0.691,0.999,2.045,0.336,2.691l-4.091,3.989c-0.638,0.623-1.909,1.315-2.639,1.907
					l-3.098,2.512l-2.425,1.941c2.009,1.268,2.743,2.294,3.557,4.284c0.627,1.532,2.486,2.856,3.417,4.335
					c0.898,1.426,1.509,3.193,2.233,4.984C195.452,85.832,194.317,86.282,193.117,86.417z M188.897,76.813
					c-3.266-5.956-2.83-1.674-4.684-5.473l2.884-2.165l2.407-1.805l3.489-2.616c1.996-1.496,4.665-2.997,4.227-4.611l-1.701-2.263
					l-3.239,3.077c-1.049,0.996-2.785,1.678-4.301,2.146c-1.798,1.718-3.682,3.448-5.295,5.349l-2.779,3.275
					c-0.221,0.261-0.882,0.717-0.722,0.939l0.715,0.99l3.719,5.154c1.246,1.727,2.567,2.627,3.753,5.093
					c0.354,0.735,1.635,2.28,2.355,1.963l3.478-1.529C193.375,81.377,190.574,79.871,188.897,76.813z"/>
				<path d="M62.424,110.854c3.613,4.045,2.895,2.414,5.675,3.079c2.693,0.644-3.534,3.344-6.868-1.422
					c-0.732-1.758-1.844-3.089-3.674-3.841c-2.756-1.132-0.308-3.231-1.54-4.328l0.055-2.606c0.065-3.097,1.408-5.64,4.738-6.235
					c2.55-0.456,5.454,0.258,7.639,2.413c1.046,1.031,3.511,1.167,6.732,2.894l1.948,1.044c0.807-1.825,1.637-2.669,3.449-3.941
					l-3.508-2.687l-3.556-2.933l-0.953-3.262c-0.847-2.898,2.672-2.605,7.045-8.441c0.92-1.228,1.595-2.845,2.693-3.926l3.541,0.672
					c1.68,0.319,2.992,1.092,4.666,0.178l4.403-2.406c0.299,0.343,0.746,0.87,0.753,0.853c0.009-0.024-0.564,0.514-0.708,0.6
					l-3.988,2.377c-0.664,0.396-2.337,0.769-3.144,0.883c-1.433-0.555-3.652-1.063-4.991-0.794
					c-0.546,0.109-0.964,1.774-1.353,2.166l-3.83,3.863c-0.824,0.831-2.045,2.139-2.684,2.921c-0.625,0.765,0.325,3.082,0.995,3.718
					l2.631,2.499c2.489,2.364,3.796,2.026,4.002,3.654c0.217,1.715-2.413,2.305-3.114,3.448c-0.571,0.93-1.478,2.443-2.831,2.257
					c-0.702-0.097-1.888-1.377-2.537-1.568l-3.26-0.959c-5.443-1.601-2.557-1.7-6.334-3.48c-2.513-1.185-5.772-0.021-6.368,2.852
					c-0.127,0.612-0.268,1.816-0.245,2.401l0.166,4.122c0.589,0.459,2.04,1.34,2.555,1.917L62.424,110.854z"/>
				<path d="M108.784,184.449c0.93,0.987,1.689,1.726,2.592,2.272l2.564,1.551c-0.647,0.323-1.096,0.614-1.296,0.581
					c-3.546-0.575-3.554-2.169-6.047-3.851l-3.937-2.656c-1.071-0.723-1.323-2.834-3.431-3.027
					c-0.632-2.065-0.841-4.065-1.089-6.145l-0.771-6.482c-0.237-1.992-1.224-4.185-1.928-6.251l-2.869-0.339
					c-3.72-2.567-4.546,1.885-7.32,2.588l-4.255,1.079c-1.756,0.445-3.53,0.064-4.376-1.752c-4.547-1.762-2.831-5.492-6.529-8.083
					c-1.957-1.372-3.604-3.236-3.288-5.726l1.059-8.341l0.821-5.261c0.076-0.487,0.721-1.363,1.172-1.4
					c0.45-0.037,1.239,0.842,1.064,1.251c-1.05,2.467-1.486,4.14-1.873,6.613l-0.453,2.895c-0.377,2.413-0.728,4.868,0.457,7.155
					l2.593,2.003c4.397,3.396,0.611,3.177,5.204,6.916l2.031,1.654c0.439,0.358,1.84,0.675,2.398,0.756l3.358-1.205
					c3.764-1.351,3.313-4.327,7.048-3.031c1.175,0.408,2.619,0.596,4.05,0.772c0.913,0.112,1.644,1.933,1.956,2.875l0.942,2.851
					c0.26,0.787,0.516,2.046,0.635,2.959l0.446,3.414l0.769,5.683c0.091,0.671,1.567,1.697,1.912,2.251l1.076,1.727
					c1.445,0.659,2.676,1.577,3.725,2.75L108.784,184.449z"/>
				<path d="M125.781,194.207c-0.915,1.564-2.267,1.495-3.305,0.495c-4.62-4.452-5.838-3.802-6.027-8.737
					c-2.131-2.516-1.381-0.772-1.585-5.822l-0.272-6.693l-1.087-0.728c-0.157-0.105-0.55-2.949,0.946-4.686l1.374-1.595
					c2.983-3.463,4.659-7.707,5.945-11.99c-1.358-1.148-2.612-2.602-2.751-4c-0.142-1.427,0.643-3.668,1.633-5.074l1.965-2.792
					c0.566-0.804,1.55-2.861,1.557-3.847l-0.232-4.347c-0.75-0.053-1.514-0.11-2.222-0.203l-3.822-0.499
					c-2.472-0.323-3.549-1.015-4.572-3.711c-0.163-0.43,1.386-1.159,1.614-0.766l1.454,2.508l6.627,1.088l1.959-0.273
					c0.496-0.069,1.337,1.081,1.268,1.624c-0.519,4.064,0.182,4.521-1.415,7.332l-2.409,4.242c-0.661,1.164-1.727,2.832-1.565,4.236
					c0.169,1.465,1.511,2.899,2.53,3.878l-0.936,3.091c-0.407,1.346-1.078,2.962-1.737,4.176l-1.684,3.101
					c-0.372,0.685-0.901,1.574-1.387,2.305l-2.412,3.628c-0.319,0.48,0.503,1.867,0.616,2.423l0.454,5.194l0.887,5.292
					c0.268,1.597,0.996,4.258,1.408,5.736c0.196,0.705,1.672,1.588,2.187,2.036C124.345,193.932,121.76,192.667,125.781,194.207z"/>
				<path d="M165.163,196.723l-1.094-1.266l3.36-1.585c1.615-0.762,2.943-2.099,3.401-3.977c0.215-0.88-0.578-3.31-1.463-3.448
					l-4.52-0.357c-0.062-0.331,0.427-1.423,0.75-1.78l2.48-2.739l3.827-4.117c1.963-2.112,2.138-4.733,4.538-5.055l3.31-0.444
					c1.535-0.206,3.411-0.119,4.914-0.101l2.393,3.365c1.542-0.697,2.74-1.332,4.003-2.2l3.569-2.455
					c2.546,0.024,4.188-0.825,5.924-2.504c2.683-2.596,6.201-1.529,8.104-2.087c0.841-0.246,2.077-0.728,2.701-0.42l2.664,1.31
					c0.382,0.188,0.792,0.42,1.025,0.562c0.234,0.143-0.242,1.196-0.488,1.322c-2.501,1.273-3.044-2.394-4.81-1.365
					c-0.969,0.564-1.89,0.706-2.794,0.586l-2.036-0.151c-1.077-0.186-2.065-0.027-2.819,0.848c-4.718,5.468-5.523,2.088-9.435,5.04
					c-1.746,1.317-6.416,4.91-7.722,2.157c-0.855-1.803-2.941-3.359-5.112-2.369c-0.856,0.39-2.319,0.646-3.406,0.763
					c-3.264,4.792-4.802,5.43-8.376,10.01l2.216,0.875c1.053,0.416,2.466,2.595,2.358,3.736
					C172.297,192.312,169.359,196.538,165.163,196.723z"/>
				<path d="M109.873,59.591c-0.996-0.296,0.972-2.745-0.195-7.59c-0.17-0.705-0.464-1.643-0.64-2.158
					c-3.479-0.4-4.753-1.019-6.944-3.79c-1.965-2.485-1.318-3.904-0.116-6.214c1.028-0.407,2.194-0.8,3.055-1.211l6.638-3.164
					c1.411-0.673,2.575-1.825,4.325-1.679l5.288-1.846c0.642-0.224,2.176,0.584,2.582,1.108c1.981,0.583,3.085,1.94,2.979,4.135
					c-0.061,1.261-0.192,2.857-0.638,3.957l-2.292,5.653c-1.328,3.275-2.622,5.538-4.86,8.199c-0.647,0.77-1.469,1.829-2.182,2.381
					l-4.007,3.108L109.873,59.591z M115.688,56.587l2.188-1.884c2.077-1.789,3.195-4.349,3.648-6.973l1.91-4.233
					c0.965-2.138,1.833-6.152,1.401-8.304l-2.003-0.689c-1.159-0.504-2.338-0.744-3.545-0.256l-5.041,2.042l-3.162,1.419l-7.64,3.18
					c-1,0.416-0.977,2.849-0.463,3.704c2.634,4.384,3.639,3.308,6.618,3.388c2.141,0.057,2.223,6.192,2.137,7.08l-0.298,3.075
					C113.121,58.148,114.421,57.678,115.688,56.587z"/>
				<path d="M221.943,111.483c-1.144,6.928,0.194,4.819-0.165,7.452c-0.062,0.458-1.575,0.555-1.614,0.101l-0.243-2.808
					c-0.405-4.673,0.564-5.879,0.581-7.545l0.116-11.53c0.004-0.436,0.321-1.535,0.408-1.924l-1.661-2.667
					c-0.323-0.518-0.602-1.544-0.837-2.441l-2.863,1.646c-1.385,0.796-3.168,1.545-4.562,1.912c-2.47,0.651-4.034-2.353-4.736-3.339
					c-0.718-1.009-1.65-2.27-2.418-3.186c-0.617-0.735-2.6-1.849-2.491-3.02c0.035-0.369,1.318-0.764,1.588-0.512
					c0.268,0.25,0.756,0.782,1.058,1.024l1.796,1.436l2.231,3.017c0.455,0.615,1.465,2.201,2.235,2.156
					c7.09-0.416,7.085-4.605,9.615-3.328c0.682,0.344,0.946,2.215,1.268,2.897l1.635,3.467l-0.075,9.761
					C222.8,105.361,222.206,109.893,221.943,111.483z"/>
				<path d="M103.978,61.575l-0.619,1.195c-0.117,0.226-0.967-0.521-1.13-0.697l1.604-2.779c0.395-0.684,0.253-2.727,0.047-3.34
					l-2.702-1.533c-0.439-0.249-1.029-1.631-1.509-1.759l-3.185-0.849l-0.637-1.648c-1.137,0.398-2.897,0.769-3.324,0.104
					c-0.406-0.632-0.92-1.471-1.358-1.526c-0.714-0.091-1.472-0.164-1.79-0.349c-0.393-0.229-0.593-1.436-0.958-1.723
					c-1.307-1.026-3.38,0.622-4.539,1.315l-3.585,2.146c-0.658,0.394-1.681,0.99-2.142,1.529c-1.297,1.516-3.57,2.574-5.337,1.334
					c-0.42-0.295-1.277-1.105-1.768-1.557l0.047-4.159c0.018-1.627,1.47-3.429,2.632-4.782c0.582,0.431,1.115,0.825,1.081,0.805
					c-1.884,2.625-2.217,7.691-0.703,8.261c1.563,0.589,1.598-1.061,5.428-3.162c5.556-3.047,4.023-3.9,8.323-3.994
					c1.219-0.027,2.574,1.028,2.719,1.895c0.297,1.77,2.162-1.003,3.951,2.29l2.087-0.131c0.515-0.032,1.154,1.034,1.572,1.577
					c1.328,1.724,0.649-0.919,4.475,2.851c0.733,0.722,2.856,1.603,2.96,2.586l0.259,2.456L103.978,61.575z"/>
				<path d="M182.043,119.259c0.415,0.237,0.438,1.694,0.02,1.833c-0.426,0.142-1.396-0.094-1.623-0.476
					c-0.126-0.211-0.362-0.846-0.532-0.81c-1.538,0.321-2.847,1.48-4.02,2.689c-2.832,2.92-4.017,0.246-5.648,3.174
					c-0.868,1.557-1.223-0.241-5.724,1.33c-2.584,0.902-1.688-0.713-5.24-1.122c-0.828-0.095-2.288-0.446-2.565-1.054l-1.449-3.186
					c-0.96-2.111-1.763-3.979-2.863-6.06c-0.398-0.753-1.67-3.451-0.824-3.714l1.376-0.428c0.469,1.301,0.694,1.942,1.141,2.834
					l1.561,3.116l1.589,3.165l1.242,2.491c0.999,2.003-0.587-0.223,4.052,1.89c2.165,0.986,0.423,0.069,5.57-0.521
					c2.553-0.292,0.697-1.997,5.394-2.408c0.459-0.373,1.444-1.526,1.965-1.807l4.22-2.283L182.043,119.259z"/>
				<path d="M214.335,145.15l-3.35,5.612c-1.066,1.785-3.369,3.25-4.564,5.04c-0.663,0.993-1.45,2.34-2.587,2.551
					c-1.365,0.253-0.498-2.295-0.575-6.041c-0.025-1.218,0.321-2.865-0.724-3.622c-0.51-0.369-1.376-1.084-1.402-1.517
					c-0.091-1.55-0.158-4.579-1.124-5.687l-2.157-2.473c0.104-0.158,1.298-0.89,1.791-0.845c2.342,0.214,3.394,5.941,3.452,7.97
					c4.492,1.387,0.195,4.593,2.327,7.573c5.965-4.366,3.81-3.945,5.81-7.394c0.7-1.207,1.501-2.356,2.06-3.467l1.681-3.34
					C216.987,140.376,214.939,144.137,214.335,145.15z"/>
				<path d="M117.136,74.812l-4.714-1.454c-2.024-0.624-4.109-1.172-6.036-1.912l-2.719-1.044l-0.13-0.912
					c-0.041-0.286,0.921-0.708,1.204-0.655c0.575,0.107,1.506,0.677,2.285,1.11c4.087,2.273,2.332,0.32,7.689,2.461
					c1.956,0.782,4.349,1.567,6.301,1.913l1.831-2.596l-6.383-3.345c-1.646-0.863-3.674-0.255-4.738-2.765
					c0.918-0.142,1.753,0.14,2.714,0.561l3.936,1.725l2.66,1.114l4.815,1.905c0.342,0.135,1.252,1.146,0.97,1.341
					c-2.107,1.453-3.091-0.121-3.376,1.92c-0.074,0.53-0.846,2.158-1.365,2.052C120.733,75.953,118.406,75.204,117.136,74.812z"/>
				<path d="M156.294,91.279l-0.242,3.013c-0.098,1.217-0.351,2.345-0.631,3.447l-0.971,3.826c-0.136,0.537-0.348,1.576-0.121,1.976
					c0.227,0.4,1.144,0.908,1.593,1.017c0.61-1.08,1.435-2.532,1.673-3.411l1.036-3.813l0.974-3.584
					c0.489-1.8-0.486-2.737,0.873-3.68c0.224-0.156,1.138,0.228,1.111,0.484l-0.556,3.27l-1.766,8.837
					c-0.352,1.761-1.164,3.824-3.38,4.08c-0.905,0.105-2.548-0.912-3.269-1.477l-0.733-0.575c-0.133-0.104,0.28-0.623,0.333-0.832
					l1.847-7.382c0.512-2.048-0.127-4.251,0.502-5.738C154.749,90.302,156.337,90.74,156.294,91.279z"/>
				<path d="M170.943,47.618c-0.784,2.615-1.335,4.78-1.838,7.226l-0.701,3.401l-0.51,2.453c-0.084,0.405-0.477,1.167-0.767,1.395
					c-0.363,0.285-1.423,0.009-1.957-0.193c-3.671-1.385-3.758,0.165-4.276-1.275l1.927-7.032l1.591-5.987
					c0.092-0.345-0.71-1.68-0.353-1.749l2.015-0.391c0.253,1.133,0.157,2.948-0.252,4.181l-1.156,3.483l-1.86,6.038l2.8,0.949
					l1.414-4.082l1.28-3.916c1.114-3.408,1.195-5.341,2.386-6.271C171.247,46.851,171.163,46.885,170.943,47.618z"/>
				<path d="M164.374,69.066c0.02,3.158-0.307,1.538-0.98,6.162l-0.82,5.632c-0.112,0.769-0.365,1.912-0.588,2.721l-5.326,0.033
					c-0.209,0.001-1.023-0.342-0.961-0.481l0.416-0.946c0.478-1.087,0.704-2.37,0.966-3.638l1.182-5.71
					c0.164-0.791,0.308-2.392,0.274-3.121l-0.126-2.747c3.506-1.696,0.99,8.415,0.682,9.847l-0.783,3.646
					c-0.081,0.375,0.302,1.443,0.68,1.405c0.594-0.06,1.34-0.595,1.462-1.095l0.849-3.477l1.806-7.329
					C162.904,69.57,163.06,69.404,164.374,69.066z"/>
				<path d="M134.632,81.288l3.288,1.793l3.051,1.669c0.796,0.435,2.605,1.218,3.542,1.62c0.527,0.226,1.342-0.835,1.805-1.65
					l-2.923-2.524c-0.628-0.542-1.698-1.111-2.622-1.56c-4.564-2.214-3.78,0.271-5.904-2.244c1.091-0.665,1.794-0.557,2.852-0.315
					c2.658,0.607,4.756,1.414,7.035,2.88l3.9,2.509c0.502,0.323,0.173,1.455-0.105,1.833l-2.315,3.145
					c-0.517,0.702-2.542,0.053-3.127-0.639l-5.487-2.924l-4.311-2.313C132.884,82.342,134.178,81.04,134.632,81.288z"/>
				<path d="M136.431,52.103c-1.267,1.136-2.922,1.938-5.25,1.789l-0.716,2.4c-0.132,0.443,1.354,0.834,1.831,0.877l2.121,0.192
					c-1.482,2.372-3.899,1.845-5.687,1.034l0.024-2.227c0.008-0.736,0.324-2.235,0.565-3.142c0.365-1.377,4.057-0.775,4.763-1.234
					l3.357-2.184c0.964,1.421,1.883,1.919,3.744,2.073c0.655,1.188,1.337,3.348,0.714,4.825c-0.479,1.135-2.225,1.782-3.285,2.241
					l-2.538,1.099c-0.305,0.132-1.411,0.175-1.487-0.111l-0.391-1.461c2.083-0.091,5.589-1.095,6.021-2.887
					c0.169-0.701-0.665-2.086-1.311-2.334L136.431,52.103z"/>
				<path d="M174.938,22.956l-0.311,3.517l-0.334,3.761c-0.179,2.018-0.458,4.083-0.94,6.001c-1.032-0.085-2.276-0.317-2.911-0.28
					l-4.33,0.253l0.843-3.596c0.589-2.511,1.521-5.311,1.585-8.474l0.098-4.844c0.004-0.178,0.534-0.667,0.651-0.801
					c0.827-0.952,0.902,2.133,0.807,3.269l-0.276,3.295l-0.4,4.247c-0.143,1.518-0.501,2.983-0.836,4.603l3.07-0.051
					c0.204-0.548,0.718-1.688,0.793-2.144l1.107-6.786c0.064-0.394-0.388-1.466-0.188-1.758
					C173.567,22.877,174.388,22.887,174.938,22.956z"/>
				<path d="M132.225,112.155c1.66-0.416,8.897-3.09,10.16-1.084c-1.045,1.053-5.779,1.184-6.674,1.534
					c-2.374,0.929-3.734,2.328-8.095,2.078c-0.616-0.035-0.622-1.746-0.597-2.332c0.122-2.882-0.367-4.429,0.503-5.146
					c3.155-2.6,5.69,1.515,8.896-0.305l0.891-0.506c0.222-0.126,0.702,0.33,1.04,0.676c-1.52,2.011-3.665,1.795-6.357,1.458
					l-2.901-0.364l0.016,4.772L132.225,112.155z"/>
				<path d="M70.607,131.693c-1.331,0.221-1.86,0.095-1.046-0.632l0.689-5.046c-0.997-0.249-2.344-0.434-2.775-0.834l-3.295-3.06
					c-1.106,0.285-2.088,0.566-2.939,0.715l-3.064,0.535c-2.383,0.416-8.025-3.441-6.28-6.623l1.816,2.261
					c0.567,0.706,2.143,1.939,2.969,2.098c8.57,1.043,6.536-2.851,10.516,1.181c0.716,0.725,1.604,1.221,2.634,1.593
					C72.656,124.899,71.562,128.92,70.607,131.693z"/>
				<path d="M79.974,66.636c0.223,0.27-0.271-0.328-0.785-0.948c1.641-0.772,3.182-0.746,4.967-0.322
					c1.353,0.321,2.658,0.433,4.049,0.723l4.368,0.908l1.392-2.775c0.11-0.22,0.274-0.636,0.349-0.825
					c0.075-0.189-0.691-0.265-0.93-0.302l-3.345-0.517c-5.169-0.798-4.103,0.358-5.396-1.207c-0.208-0.251,0.445-0.836,0.772-0.907
					l3.693,0.47l3.807,0.485c1.149,0.146,4.31,0.65,5.123,1.975l-2.094,1.577c-0.661,0.498-1.17,2.235-1.436,3.192
					c-0.387,1.395-4.037-0.239-7.648-0.877L82.86,66.58C82.219,66.466,81.489,66.508,79.974,66.636z"/>
				<path d="M168.19,102.87c0.351-0.77,1.594-0.67,2.194-0.256l3.392,2.343c0.773,0.534,2.635,1.493,3.297,1.352l2.394-2.462
					l-4.045-2.544l-3.315-2.085c-0.193-0.121-0.622-0.817-0.751-1.005s0.828-0.641,1.024-0.526l5.361,3.144
					c3.132,1.837,4.748,1.876,4.849,3.015c0.135,1.526-2.202,0.584-2.678,1.823c-0.431,1.121-1.884,2.995-2.812,3.546
					C173.352,106.106,170.85,106.159,168.19,102.87z"/>
				<path d="M116.076,116.716l-4.135,0.306c-5.29,0.391-2.764,0.648-6.949,1.062l-4.647,0.459c-0.271-1.677-0.378-2.553-0.345-3.811
					l0.037-1.415c0.008-0.323,0.922-0.752,1.285-0.833l3.76-0.843c-0.754,0.169,6.899-0.751,6.718-0.355
					c-1.419,1.518-2.498,1.363-4.074,1.625l-4.399,0.732c-0.566,0.094-1.315,1.192-1.303,1.747c0.012,0.555,1.229,1.561,1.806,1.453
					l5.413-1.017c1.189-0.223,2.758-0.136,4.058-0.296l2.923-0.359C116.628,115.121,116.497,116.685,116.076,116.716z"/>
				<path d="M188.073,115.518l-2.809-1.721c-0.599-0.082-0.434-0.511,0.414-1.391c1.035,0.57,2.274,1.247,3.26,1.892l4.84,3.165
					c1.23,0.804,2.909,0.583,4.01-0.201c-2.603-3.928-3.714-3.253-5.18-5.56c-0.673-1.06,2.537-0.682,6.341,4.196
					c0.488,0.626,2.218,1.73,2.023,2.536c-0.324,1.335-2.516,1.474-3.677,1.015l-2.796,1.337l-3.478-3.007
					C190.166,117.04,189.106,116.15,188.073,115.518z"/>
				<path d="M220.76,77.519l7.06,0.716c1.108,0.112,2.939,1.132,3.428,1.968c0.124,0.213-0.555,1.264-0.763,1.128l-1.021-0.664
					c-3.961-2.577-7.615-0.131-12.549-2.036l0.394-3.45c0.096-0.841,0.365-2.311,0.675-3.009c0.278-0.625,2.042-0.558,2.682-0.366
					l5.395,1.618l-0.378,1.332l-2.73-0.575c-0.951-0.2-2.266-0.326-3.175-0.402l-0.497,2.979
					C219.223,77.099,220.11,77.453,220.76,77.519z"/>
				<path d="M207.183,76.42l2.855,0.432c-0.294,1.964-4.119,1.269-6.063,0.464c-3.665-1.518-5.564,1.209-7.363-0.344
					c1.85-4.494,0.913-4.572,0.943-5.977c0.008-0.409,0.953-1.251,1.377-1.269c5.459-0.235,3.468,0.648,6.527-0.029
					c0.244-0.054,0.731,0.829,0.745,1.087c-1.586,1.739-6.398-0.304-6.444,1.102l-0.108,3.296
					C205.815,75.139,202.299,75.681,207.183,76.42z"/>
				<path d="M166.411,87.711l-0.651-0.667c-0.191-0.196,0.203-1.073,0.454-1.184l2.857-1.263c0.458-0.203,1.418,1.041,1.821,1.45
					c0.939-0.851,2.046-2.024,2.937-2.627l2.839-1.919l0.97-0.657c0.273-0.185,0.889,1.282,0.623,1.472l-3.984,2.847
					c-0.137,0.098-2.621,3.847-3.601,3.161l-1.674-1.172C168.45,86.767,167.084,87.405,166.411,87.711z"/>
				<path d="M218.821,82.092c-0.316,1.388-0.437,1.509-0.837,1.511l-6.687,3.946c-0.841,0.496-2.377-1.326-2.534-2.379
					c-0.319-2.133-2.344-1.054-2.233-3.297l2.62-0.254l2.057,3.847C212.8,85.239,215.153,82.586,218.821,82.092z"/>
				<path d="M158.393,37.574l1.75,5.165c0.068,0.202,0.267,1.167,0.065,1.203l-1.645,0.289l-1.189-3.879
					c-0.35-1.142-0.746-3.271-0.203-4.417c0.638-1.348,4.503-3.281,6.225-3.592c0.221-0.04,0.717,1.198,0.535,1.291l-3.337,1.703
					C159.977,35.65,159.09,36.725,158.393,37.574z"/>
				<path d="M171.938,70.537c-4.614-0.383-2.92,6.465-4.943,6.673c-2.475,0.254-0.106-4.674,0.361-5.423l1.509-2.416
					c0.365-0.584,2.073-0.758,2.871-0.516C172.189,68.992,172.392,70.574,171.938,70.537z"/>
				<path d="M156.898,62.177c0.11,0.535-1.436,1.348-1.646,0.897c-0.68-1.458-1.289-3.934-1.041-5.421
					c0.111-0.668,2.484-2.982,3.403-2.862c0.356,0.047,0.851,0.947,0.595,1.175C156.009,57.926,156.167,58.626,156.898,62.177z"/>
			</g>
		</g>
	</g>
</g>
</svg>
