<?xml version="1.0" encoding="UTF-8"?>
<svg id="Layer_1" xmlns="http://www.w3.org/2000/svg" version="1.1" viewBox="0 0 424.59 563.46">
  <!-- Generator: Adobe Illustrator 30.2.1, SVG Export Plug-In . SVG Version: 2.1.1 Build 1)  -->
  <g id="naYp67.tif">
    <g>
      <path d="M6.28,563.46H0v-5.71c.83-1.41.39-3.16.71-4.72.15-.7.31-1.3.26-1.83l-.18-2.06c-.21-2.4,2.15-2.9,1.49-3.3l-.4-.24-.37-.22c-.65-.39-.37-1.41-.28-2.03l.09-.55c0-.06.02-.29.04-.46l.28-3.17c.33-3.68-.55-2.94-.16-6.23.11-.9.23-1.71.25-2.61.05-2.6-.46-2.25-.19-3.55.31-1.47.85-3.31,1.39-4.52.33-.73-.44-2.81-.36-2.71l-.33-.4-.26-1.07-.13-.55c-.65-2.75,1.14-1.64.15-4.32-.16-.44-.28-.95-.35-1.4l-.09-.58c-.43-2.78.87-1.05.24-3.48-.27-1.06.26-.85.34-1.54l.27-2.29c.08-.69.05-1.23-.16-1.8l-.8-2.2c-.26-.7.14-1.81.83-2.4l.55-.48c.13-.11-.07-.69-.2-.78l-1.14-.81c-.05-.04-.14-.47-.13-.53l.06-.56.06-.52c.86-.47,1.22-1.32,1.13-2.32l-.26-2.91c-.01-.14-.04-.36-.07-.55l-.1-.69s-.43-.29-.43-.34l.03-1.21c0-.33,0-.86-.06-1.1l-.12-.54-.26-1.24c-.21-1,1.15-.87.45-2.73-.08-.22-.17-.92.06-.95l.95-.11.08-.64-.81-.57s-.08-.34-.06-.39l.15-.47c.02-.05.04-.34.04-.39l-.07-.42v-.38c-.01-.48.36-.32-.14-1.25l-.2-.37s.06-.2.09-.23l.32-.32.3-.31s.04-.38.03-.43l-.13-.45c-.13-.45-.2-.43-.08-.95l.11-.47.13-.47.03-.56-.04-.61-.02-.46c0-.06-.22-.52-.22-.57l-.06-4.05c0-.36.12-.68.39-.8l.39-.17.39-.18c.07-.03.25-.16.44-.28.24-.15.06-.89-.16-1.08l-.34-.29c-.95-.81-.17-.11-.43-2.61l-.06-.61c-.06-.6.03-.53-.19-1.08l.46-1.61c-.05-.1-.29-.53-.28-.58l.44-2.31c.15-.78.22-3.55.03-4.05l-.17-.45c-.1-.26-.42-.91-.21-1.05l.82-.51c.11-.07.22-.45.15-.54l-.38-.5-.25-.33c-.04-.05-.15-.39-.15-.45v-.52s0-.58,0-.58v-.58s0-.57,0-.57v-.58s0-.61,0-.61c0-.1-.02-.41-.03-.49l-.09-.52c-.01-.08-.04-.36-.04-.43l.21-3.83.89-.02c.23,0,.11-.84.04-1.06l-.15-.49c-.02-.06-.01-.46.02-.51l.22-.37.25-.35c.43-.61-.34-.58-.44-1.59l-.06-.59c-.11-.98-.56-.74-.5-1.16l.16-1.18c.18-1.36.04-2.7.99-3.62l.51-.5c.13-.13-.14-.93-.38-1.12-.84-.7-1.94-1.58-1.62-2.92l.43-1.78c.34-1.43-.91-1.01-.76-2.85l.28-3.41c0-.08-.02-.39-.03-.55l-.07-.98c-.02-.33.45-.33-.04-1.43l-.17-.38c-.06-.13-.16-.36-.19-.43l.93-1.26c.23-.31-1.1-.59-.51-2.72l.53-1.9c.56-2.02-.38-1.38-.12-4.05l.22-2.3c.33-3.4-.39-1.45.51-4.7.47-1.69-.27-2.18.4-3.35.11-.2.33-.82.27-1.03l-.51-2.03-.15-.58c-.32-1.21.91-.92.67-2.45l-.37-2.37c-.1-.64-.22-1.57-.06-2.14l.97-3.41-.19-1.37c-.1-.72-.25-1.39-.46-2.22-.35-1.37.64-.26.73-2.27.17-3.51.51-1.91-.1-3.97-.15-.52-.28-1.5-.23-2.04l.24-2.35.24-2.33-.1-1.83.24-1.51c.05-.34-.13-1.23.13-1.36l.92-.49c.22-.12.05-.89-.11-1.09-.12-.16-1.22-.91-1-1.47.5-1.22,1.1-.99,1.11-1.26l.08-2.51c-.04,1.29-.43-2.23-.13-2.88l.91-1.99c.16-.36-.22-1.14-.38-1.66s0-1.65-.1-2.2c-.15-.92-.24-1.83-.34-2.8l-.16-1.56c-.04-.39-.05-1.02.11-1.37,1.2-2.63-.72-2.54-.32-3.6l.19-.5.16-.44c.35-.96,1.1-1.12.31-2.55-.39-.7-.09-1.73-.13-2.5-.06-1.3-.06-2.48.04-3.76l.22-3.13c.06-.91.2-1.68-.12-2.53-.84-2.23.61-1.15-.24-4.3l.73-1.54c.58-1.22-.48.28.18-2.05l.45-1.59c.02-.08.07-.49.06-.56l-.08-.51-.18-.53c-.12-.36,0-1.17.32-1.32.53-.26,1.03-.53,1.24-.78.17-.21.01-.92-.03-1.21l-.07-.52c-.11-.77-.22-1.47-.45-2.1l-.58-1.58c-.16-.44-.22-1.37-.05-1.76l.47-1.06c.31-.69-.79-.37.12-1.87.96-1.58,0-1.74.13-2.04l.55-1.27c.02-.05.22-.35.21-.39l-.75-2.44c-.38-1.24.5-1.1-.01-2.88l-.53-1.84c-.33-1.16.32-.03.48-2.71l.17-2.81.15-2.36c.25-3.9.9-1.57.3-4.03-.11-.46-.05-1.2-.09-1.68l-.25-2.85-.17-1.14-.25-2.29-.3-3.19c-.09-.96-.26-4.06.19-4.86.85-1.52-.15-1.03.06-3.02.06-.56.16-1.34,0-1.75l-.64-1.69c.37-.52.73-1.19.43-1.39s-.79-.7-.76-.94l.24-2.11c.19-1.63,0,0-.55-2.96l-.18-.99c-.04-.21.9-.34.82-.8l-.08-.5c-.3-1.81.99-2.18,1.13-3.05l-.21-3.34-.48-1.63c.58-2.22-.62-1.43.2-3.74.14-.4.27-.81.31-1.12l.2-1.32c.42-2.78-.17-.9.38-2.71.84-2.77-.43-.34.98-4.45.96-2.79-.29-1.7,1.23-3.21,1.03-1.02-.82-2.45,2.37-6.04.46-.52,1.03-1.48,1.57-1.81,1.92-1.19,2.61-.3,4.14-1.62,2.3-1.99-.55.74,2.56-1.49,2.2-1.58,1.97.23,3.29-1.81l.78-1.2c2.8-1.2,1.38-1.13,3.61-2.44.19-.11.52-.33.66-.45l.96-.79c.54-.45,1.17-1.02,1.51-1.55l.46-.71s.36-.16.42-.18c2.23-.83,1.95-.36,3.68-2.34.27-.31,1.11-.83,1.3-1.19,1.24-2.29,1.5-.11,2.71-2.24.24-.43.98-.87,1.3-1.2l2.11-2.25c1.45-1.55.77-.06,3.02-2.04l1.7-1.5c.96-.85,3.17-2.2,3.35-2.38l1.94-1.96,1-.78.93-.74,1.11-.91c.48-.39,1.3-.76,1.66-1.16,2.63-2.88,2.91-2.19,5.68-4.34l1.95-1.5,1.92-1.54c1-.8,2.35-1.39,3.53-1.81.25-.33.75-1.07,1.08-1.29l2.33-1.59,1.57-1.04c2.82-1.87,2.29-.26,3.45-1.66.32-.39.76-.68,1.19-.84l1.64-.6c.83-.31.05-.51,1.72-1.72.73-.53,1.26-.96,1.94-1.56,1.34-1.18,1.42-.6,3.44-2.21.99-.79,1.84-1.81,3.13-2,2.18-.31.88-.99,2.86-2.82l1.86-1.31,1.21-.85c.39-.27.9-.71,1.28-.91.45-.24,1.03-.49,1.25-.74l1.55-1.71.31-.34c.07-.07.24-.3.31-.36l1.15-.87.34-.26.33-.25.33-.25.32-.23c.06-.04.19-.21.27-.31l.32-.36c.2-.23.77-.52,1.06-.46l.93.21c.17.04.39-.42.42-.6l.1-.61c.15-.91,1.43-.75,1.61-.96l1.12-1.31c.25-.3.57.19,1.59-1,1.82-2.12,1.89-1.36,4.6-3.72l2.45-2.13,2.03-1.04c.8-.41,1.28-1.27,1.95-1.82.79-.64,2.03-1.15,2.69-1.8.51-.5.9-.88,1.39-1.25l1.32-.98,2.84-2.06c.44-.32,1.12-1.2,1.58-1.45l2.23-1.22c2.13-3.18,2.72-1.42,3.65-2.38l1.96-2c.92-.93,1.71-1.4,2.63-2.2.73-.64.02-.44,1-1.06l1.36-.85c2.39-1.49.85-.61,3.09-2.41,1.68-1.35-.39-.38,1.69-1.96l2-1.53,2.28-1.35,1.93-1.57c.31-.25.81-.55,1.18-.8l2.91-1.94,1.38-.92,2.51-1.72,1.93-1.24,1.73-1.14c2.48-1.63,1.88-2.09,4.34-3.08l.82-.33c2.05-.83,1.09-1.63,3.78-2.74,1.98-.82.08-.28,2.38-1.92l.87-.62c2.77-1.96,1.14.4,2.69-1.9.43-.64,1.11-1.31,1.73-1.94,1.04-1.04.96-.6,2.71-1.83l1.49-1.05c.05-.04.24-.23.3-.3,1.34-1.53.27-.08,1.8-1.03l1.44-.9c.33-.2.56-1.16.72-1.53l1.08-.94c2.44-2.11,2.25-.22,2.95-2.19l1.03-1.01c.57-.56,1.65-.83,2.26-1.4l2.81-2.58,2.14-1.62c3.24-2.46,1.41-.41,4.3-2.83.83-.7,1.79-1.21,2.79-1.81,1.14-.69,1.63.4,1.95-.1.86-1.37-.05-1.14,1.24-2.35l1.97-1.84c.98-.92,2.58-1.9,4.05-2.1.14-.25.4-.77.55-.94l1.88-2.13,1.74-1.86.82-.15c.5-.09.53-.32.67-.72l.16-.47c.56-1.67,2.26-1.56,2.81-1.77s1.66-.6,2.21-.56l2.07.16c.25-.7.41-1.29.63-1.74l.76-1.58c.53-1.09.75-.16,1.05-2.37l.32-2.33c.08-.61.76-1.54,1.21-2.17,1.14-1.61-.48-2.45,1.29-3.16l.46-.18s.3-.2.33-.25l.21-.31-.18-3.12c-.03-.47-.28-1.14-.57-1.64-.7-1.23-1.5-.67-4.8-1.46-2.57-.62-2.8.34-3.72-1.43l-.63-1.21c-.23-.44.35-1.51.94-1.55,1.27-.1,2.36.04,3.54.26l1.76.33,2.17.41c2.19.42,4.02-.21,5.7-.27,3.07-.11.23-.1,3.42-1.01s.73.35,4.11-.94c.86-.33,1.61-.63,2.43-1.07,2.44-1.3.47,1.36,3.82-1.62l1.32-1.18c.15-.13.29-.8.23-.97l-.43-1.29c-.18-.53-.33-1.53-.74-1.74-2.07-1.09-2.89-.57-6.22-.78-.72-.05-1.35-.07-2.03.08l-2.38.51-1.8.24-2.94.54c-2.54.47-1.94-.74-3.63.21-2.37,1.33-1.26.55-3.46,1.79s-.64-.33-2.61.97c-.13.08-.39.26-.41.31l-.54,1.15c-.51,1.09-1.09-.29-2.43,1.26l-1.33,1.53c-.71.81-.96,1.72-.59,2.74l.63,1.73c.55,1.51.72.64.98,1.26l.16.38c.05.12.18.4.19.46,2.46,1.68,1.73,2.43,3.83,3.55l.95,1.04c-.31,1.04-1.76.57-2.29.35l-2.48-1.04-2.58-1.15c-.48-.21-1.01-.69-1.49-1.08-1.41-1.13-1.87-.37-2.9-3.39-.51-1.49-1.64-.9-1.04-2.89.54-1.8,1.46-3.2,3.13-4.1,1.25-.68,1.95-2.28,4.74-4.03l1.97-1.23c.5-.31,1.27-.82,1.75-.99l2.41-.82,2.12-.77c3.42-1.24,3.4.04,4.55-.52l1.24-.6c.41-.2,1.34-.26,1.92-.33l2.3-.27.85-.44c2.79.64,1.55-.1,3.63-.46,2.2-.38,2.81-.17,4.73-.01l1.13.09c.54.04,1.28.23,1.7.47l1.15.67c.62.36,1.4,1.08,1.85,1.8l1.12,1.8c.77,1.24.97,2.21.35,3.41l-.62,1.21c-.95,1.85-1.36.19-2.23,2.35-.19.46-.88,1.22-1.38,1.39l-2.16.78-1.12.52-2.12.72-2.66.81-1.6.63c-1.89.74-3.71,1.26-5.58,2.15l-.7.33c-.11.05-.07.52-.05.65l.07.62c.02.19.11.81.04.99l-.82,2.16-.82,2.39c-.23.68-.56,1.35-.85,2l-.89,1.98-.71,1.67c-.73,1.71.07,2.59-.46,3.7l-.96,2c-.94,1.94-.84,2.05.03,4.15.14.35.34,1.01.5,1.25l.82,1.25c.14.22.54.64.77.89.94,1.05,1.86,1.91,3.01,2.69l1.36.93c1.92,1.31.17.26,1.71,1.96.44.49.95,1.04,1.34,1.51,1.64,2.04.12-.05,2.51,2.06l1.55,1.37c.89.79,1.75,1.65,2.55,2.55,2.11,2.41,2.83,2.02,3.33,2.38l3.68,2.63c.37.26.72.6,1.07.91l1.08.96c.31.28.67.65.97,1.02,1.97,2.47,1.37-.22,3.9,2.99.49.63,1.48,1.22,2.17,1.79l2.15,1.78c.25.2.61.99.83,1.21,2.38,2.44,2,2.59,3.42,4.92l1.15,1.89c.65,1.06,1.14,2.01,1.95,2.94.46.53,1.01,1.17,1.37,1.71l1.17,1.72c.16.23.6.81.83.94l1.97,1.12c.94.53,1.71,1.12,2.65,1.66l1.83,1.06c.68.39.71,1.24,1.89,2.04,3.01,2.06.63.98,3.27,3.02l1.47,1.14,1.79,1.37,2.17,1.74c.8.64.08,1.04,1.7,2.33,3.45,2.75,2.02.64,4.86,3.4l.74.72,3.23,3.07,1.38,1.14,2.98,3.07c.48.49,1.01,1.43,1.53,1.81,3.35,2.43.9,1.28,3.87,3.63l1.6,1.27,1.4,1.16c2.76,2.29,3.88,2.36,5.85,4.1l2.15,1.89,2.28,2,2.22,2.04,2.32,2.05c1.32,1.17-.09.68,1.49,2.41l1.94,2.13,1.46,1.91,2.13,2.16,2.13,2.16,1.13,1.14c2.26,2.29,1.03.5,2.64,2.88.74,1.08,1.92,2.03,2.8,3.1.4.49.9,1.43,1.33,1.78l1.61,1.31c2.98,2.42,3.39,2.12,6.59,5.19,1.49,1.43.84-.21,2.99,2.34l1.32,1.57c1.27,1.51,2.39,1.11,4.4,3.88.18.25.67.91.91,1.08l1.66,1.15,1.4.97c1.83,1.27,1.16.13,2.47,1.76,1.15,1.42.11.14,2.4,1.58l2.13,1.33,3.66,2.38c.44.29,1.01.93,1.39,1.37l1.08,1.24c.68.78,1.46,1.4,2.33,1.95,3.02,1.91.82.83,2.89,2.19l1.28.84c.9.59,2.99.6,5.95,3.69l1.43,1.49,1.93,2.19c.14.16.84.41,1.02.52.81.45-.13,1.09,2.04,2.36,1.63.95-.35-1.02,4.08.94,2.01.89,3.41.13,5.37,1.64.65,3.04.62,1.81,1.4,4.17.51,1.54-.2,1.3-.09,3.51.14,2.9-2.41,3.53-2.81,4.59l-.51,1.32c-.34.89-.84,2.66-.01,3.49.9.9.02.03.32,3.53.17,2,.18,1.89-.51,3.91s.54,1.44.28,2.72l-.25,1.27-.11.54c-.05.25-.1.87-.08,1.11l.06.56c.02.16.02.33.02.41l-.02.37.46,1.02.12.62c.21,1.15.65,2.72.57,3.98l-.23,3.6c-.07,1.17-.73,2.31-1.18,3.36-.54,1.26.3,2.22.08,3.18-.05.21-.48.87-.48,1.11l-.04,6.55c-.84.25-.54,3.35-.49,3.83l.3,2.65c.08.74.16,2.04.4,2.63,1.66,2.76-.51,2.21.69,5.89.08.26.05.85-.02,1.08l-.41,1.39c-.13.42-1.33,1.1-.79,1.82.6.8.87,1.8.11,2.7-.56.65-.13,1.63-.12,2.44l.05,3.74c0,.5-.45,1.37-.68,1.91-.84,1.96,1,1.73.3,5.1-.04.17-.48.64-.36.75.05.05.34.38.38.44l.2,5.23c0,.1.14.5.13.55-.15.87-1.24,1.93.02,4-.06.27-.24.93-.24,1.21l-.07,3.92c-.02,1.19-.65,2.54-1.03,3.53-.56,1.46,1.83,1.65.94,3.98l-.75,1.97c-.14.36-.06,1.21-.12,1.59l-.6,3.46c-.2,1.16-.6,2.69-.11,3.67.11.22.17.83.13,1.02-.68,3.97-1.31,1.96-.83,6.72.05.47-.18,1.46-.26,1.99-.51,3.22.16,2.12,0,3.79l-.04.43-.03.37c-.16,1.75.53,1.44.1,3.91-.2,1.14-.41,2.22-.42,3.24v1.77c-.02,1.6-.09,3.18.06,4.71.37,3.75-.88,1.57-.05,4.08.29.87.07,1.78.04,2.68l-.18,5.32c-.02.57-.54,1.54-.7,2.16-.19.74.07,1.73.1,2.51l.14,3.97.03,1.1c.03.97.94,1.71.37,3.59l-.56,1.83c-1.56,5.08-.07,1.6-.58,4.75-.56,3.46.57.63-.1,5.03-.08.54-.15,1.68,0,2.17l.8,2.66c-.11.48-.46,1.48-.51,2l-.26,2.36c-.07.6-.34,1.62-.31,2.14.23,3.68.26,1.23.5,4.04l.22,2.67-.41,2.77c-.22,1.45,1.02,3.14.62,4.99-.78,3.66.83,2.54.25,6.16l-.38,2.35c-.26,1.59.64,1.47.61,2.27l-.13,2.71-.07,1.85c-.01.3-.05.72-.08,1.12-.37,4.55.6,2.41.57,4.45-.01.8,0,1.79-.14,2.29l-.67,2.3c-.08.27.1.77.26,1.21.2.53.21,1.54.29,2.29.13,1.19.28,2.3.03,3.41l-.49,2.21c-.25,1.13-.1,2.5-.08,3.67.02.95-.42,1.89.78,2.46l-.14,1.02c-.39,2.98.3,2.04-.1,3.06-1.23,3.09.91,2.81-.59,6.19-.14.32.44.89.87,1.09,1.02.48.14.45.41,3.14l.32,3.19c.38,3.75.59,1.33-.07,3.28-.76,2.22.91,3.68-.3,5.66.2.32.66,1.11.7,1.54l.16,1.69c.1,1.02.1,1.95,0,2.97l-.26,2.74c-.07.74-.17,1.41.11,2.06.7,1.62-.61.7-.14,3.23.34,1.8.11,6.09-.11,7.81l-.37,2.84.66.38c.15.09.35.68.33.88l-.28,2.35.19,1.59-.43,2.22c-.5,2.64,1.15,1.71.56,3.95-.21.77.15,1.72.2,2.48l.14,2.37c.14,2.32-.6,1.76.07,3.61s1.14,3.71.91,5.69l-.2,1.78c-.61,5.37.84,5.56,1.06,10.5l.08,1.85c.01.27.6.89.95.91,2.42.09,3.24,2.45,2.73,2.98-.3.31-1.07,1.04-1.2,1.13-2.19-1.53.21.91-5.71.8-4.59-.08-2.67,1.62-6.29.6-2.06-.58-.78-.08-2.57-.06l-1.99.02c-2.74.03-1.3.3-3.98.44-3.09.16-.24-.23-3.23.08-4.47.47-2.25-.51-6.83,0-1.04.12-2.63.3-3.62.09l-1.27-.28h-7.57c-.27,0-.99.23-1.25.25-.75.04-2.02,0-2.75.16-.63.15-1.44.54-1.98.45l-2.36-.39c-1.36-.23-2.65-.02-4.03,0l-10.81.2c-1.39.03-2.66.21-4.03,0l-2.02-.32c-.63-.1-1.64-.29-2.22-.29l-6.89-.1c-.41,0-.97-.04-1.34-.08l-2.09-.21-1.65-.17c-1.27.21-2.23.14-3.54.05-.94-.06-2.31.33-3.33.42l-2.64.24c-1.37.12-3.17-.14-4.49.11l-1.25.24-5.95.04c-.42,0-1.32.32-1.77.5-2.42.98-1.55-.29-5.01.14-.73.09-1.37.04-2.11.01l-6.45-.21-2.62-.11-2.03-.09c-1.63-.08-3.26.38-4.85.41l-2.89.06-3.62.21c-.27.02-.83.09-1.06.05-3.33-.55-1.6.75-3.44.37-.97-.2-1.57-.07-2.47-.04l-8.14.24c-1.64.05-3.16.74-4.82.31-2.43-.64-1.26.41-4.98.41-2.88,0-1.33,1.24-3.65.18-.49-.23-1.42-.06-2.08,0l-2.51.22c-3.34.3-3.94-.13-7.33.31-3.2.42-.2-.39-4.16.02l-2.22.23c-.58.06-1.65.74-2.27.72s-1.74-.54-2.29-.47l-2.27.3c-.52.07-1.16.04-1.68.07l-1.43.07c-1.03.05-2.06.05-3.1-.07-1.25-.14-2.49-.05-3.71-.1l-2.69-.11c-.53-.02-1.52.3-1.97.25l-2.57-.26-2.34-.22c-2.71-.25,0-.27-3.65-.93l-2.32-.42-3.38-.14-2.32-.27c-.27-.03-.89-.18-1.17-.19l-3.4-.11c-.58-.02-1.11-.01-1.71.02-3.99.2-2.49-.42-4.98-.07-.74.1-5.91-.37-6.92-.16l-1.3.28-8.18.02c-.38,0-1.24.35-1.58.44l-3.06-.23c-.65-.05-1.79-.52-2.44-.67-2.42,1.13-6.73-.11-8.35.4-1.4.45-2.55-.06-3.26-1.07-1.31,1.23-.46-.55-2.51.22-.57.21-1.12.18-1.71.14l-4.19-.22c-.62-.03-1.23-.1-1.78.06-2.92.89-1.97-.26-5.62.75-1.6.44-.88-.71-2.4-.27-5.86,1.71-5.3.43-7.41.87l-2.93.62c-2.44.52-3.66-.59-5.94-.06l-1.04.02-3.2.06c-3.36.07-4.35-.48-8.78-.14l-1.54.12-3.11.09-2.59.18-5.02.17c-.55.02-1.52.84-2,.74l-2.03-.43c-1.44-.31.02.08-3.2.52-3.02.41-1.85.77-6.51.44-.51-.04-1.27-.19-1.66-.13-2.8.47-.9-.1-4.97.06l-2.05.08c-2.17.08-4.3.09-6.51.02-2.81-.09-2.68.52-4.3.57l-4.54.14-4.28.77c-.67.12-1.66,0-2.14.14-3.36,1.02-.87-.08-4.69.78-.65.15-1.33.16-1.98.14l-.88.24c-.81-.06-1.51-.04-2.32.05l-2.6.29-4.27.15-2.77.49c-.23.04-1.01-.24-1.25-.25l-1.9-.09c-.63-.03-1.69.16-2.27,0-.83-.22-1.86-.73-2.53-.65-3.98.43-2.63-.47-6.38-.09-2.69.27-2.16.73-4.86,1.43-2.46.63-.09.43-2.55,1.14l-.88.25ZM191.14,194.31l3-.18,2.32-.18c3.59-.28,0-.47,3.5-.51.41,0,1.14-.2,1.69-.26,1.14-.14,2.47-.01,3.59-.21,1.71-.3,1.65-1.1,4.86-.52l2.41-.2c2.59-.21.69-.71,2.54-.64,1.21.05,2.46.08,3.65-.03l2.62-.24c1-.09,1.98.18,3.04.44.36.09,1.13,0,1.53.02l2.56.13c.76.04,1.53.15,2.28.26l2.54.38,2.26.33,3.26.66c1.28.26,2.91-.14,4.19.12l1.2.25c1.6.33,5.61-.44,7.76-.08.57.09,1.34-.04,1.96-.08l3.37-.21c4.55-.29,1.68.15,6.02-.01l2.28-.09,2.55-.33,15.94-.11c.84,0,2.04-.36,2.69.24l1.16-.24c.74-.16,2.39.17,3.18-.07,1.5-.46,2.64-.42,4.14-.39.67.01,1.78-.33,2.48-.26.73.08,1.22.06,1.87.04l5.65-.2,2.56-.18,2.66-.1,1.68-.09c.7-.04,1.79.22,2.47.12,5.44-.78,3.52,1.01,5.82.09.61-.25,1.32-.1,1.96-.14l2.9-.2c.58-.04,1.63.27,2.21.28l8.33.08c.58,0,2.32.58,2.77.61l1.82.11,3.08.2,2.89.26,3.17.26c.56.05,1.4-.18,2.03-.24,3.52-.36,3.45.17,6.19.21l2.24.03c2.23.03,3.4.11,5.74.58,2.58.52.3-.5,3.91.37,1.46.35,2.84.58,4.29.31,3.05-.57,1.08.45,3.86-.04l2.54-.45c3.78-.67,3.87.04,7.97.41l2.31.21,1.76.19,2.24.28,3.2.4,2.2.2,2.37.28c.99.12,2.87.06,3.79.05.79-.01-1.52-1.94-1.55-1.96l-1.57-1.34-1.91-1.6c-.37-.31-1.26-.7-1.79-1.02l-.69-1.25c-1.22-.51-2.18-1.14-3.21-1.98l-1.07-.6-1.26-1.65c-2.14-2.79-1.66-.26-4.33-3.3l-1.65-.62c-.63-.86-1.29-1.59-2.14-2.26-1.68-1.33-2.22-.56-2.57-1.39-.88-2.07-.72-.53-2.65-2.14l-1.27-1.06c-.94-.79-1.06.05-1.68-.92-.37-.57-1.32-1.19-1.69-1.63l-1.88-2.22c-.36-.43-.92-1.19-1.31-1.44l-1.61-1.04-1.2-1.09-2.37-1.61-2.91-1.97c-3.05-2.07-2.03-.73-4.2-3.58l-.95-1.25c-1.41-1.85-.53.24-2.37-1.89l-1.62-1.88c-.4-.47-.78-1.72-1.19-2.14-2.59-2-1.84-2.07-4.08-3.97-.69-.59-1.41-1.33-2.11-1.81s-1.3-.8-1.76-1.48l-2.65-3.95c-.6-.9-2.18-1.18-2.78-2.35-1.24-2.43-1.74-1.76-3.37-3.72l-2.44-2.94c-.34-.41-2.33-1.99-2.71-2.2l-2.04-1.12c-2.52-1.39-.75-1.29-3.46-2.29-2.3-.84-1.9-3.17-3.86-4.65l-1.18-.19-1.24-1.11c-.43-.39-.95-.83-1.32-1.22l-1.7-1.77-1.42-1.48c-.58-.6-1.36-1.44-1.79-2.15-.17-.28-.92-.62-1.18-.84-2.42-2.06-2.65-3.29-3.62-3.95-2.42-1.67-.67-1.84-2.71-1.84-.36,0-.96-.65-1.29-.84l-1.99-1.15c-.5-.29-1.04-1.29-1.43-1.73-2.61-2.96-1.81-.75-3.19-3.45l-1.46-1.06c-.66-.48-1.47-1.11-2.08-1.59-.26-.21-1.17-.45-1.41-.69l-2.27-2.2c-.31-.3-1.19-.4-1.55-.51-.68-.66-1.75-1.67-2.53-2.27l-1.47-1.14-.81-.63c-.8-.62-1.56-1.35-2.05-2.21l-.84-1.5-.89-1.64c-.79-.76-1.54-1.75-1.83-2.78-.2-.71-1.73-1.21-2.39-2.72l-.68-1.56-1.43-.83c-.33-.57-.71-1.1-1.13-1.45l-2.06-1.7-1.28-1.07c-1.72-1.43.22-.61-3.61-3.17-1.48-.99-1.21-1.35-2.22-2.04l-1.38-.94c-.68-.46-1.33-.97-1.95-1.48l-1.59-1.29c-2.4-1.95-2.56-.58-3.7-2.59-.84-1.49-1.03-.29-3.03-1.76l-1.37-1.01c-.82-.6-1.57-1.43-2.35-2.18-.67-.65-1.19-1.52-1.82-2.2-.84-.9-3.21-1.91-4.71-3.55-.23-.25-.66-.64-.91-.58-1.15.27-.66,1.29-1.75,1.84l-2.28,1.13c-.3.15-1.18.24-1.45.04l-1.35-.97c-.25-.18-.51-.81-.41-1.06l.65-1.73c.34-.9,1.55-.64.79-3.07-.19-.6-.65-1.01-1.25-1.39-1.41-.88-2.5,1.37-2.7,1.62-.92,1.14-2.03,2.14-3.07,3.19l-1.32,1.34c-.59.59-2.04.99-2.61,1.52-1.12,1.04-2.08,1.94-3.26,2.8l-1.35.99c-2.21,1.61-.21-.36-4.22,2.62-1.39,1.03-3.15,2.01-4.66,2.68-.14.19-.47.74-.65.88l-2.22,1.65-2.15,1.63c-.47.35-.93.78-1.38,1.18l-1.53,1.37c-.29.26-.79.57-1.14.84l-1.44,1.13-1.82,1.56-2.1,1.64-2.4,1.93c-.72.58-2.65,1.86-3.44,2.23-.19.09-.73.3-.75.48-.25,1.7-2.24.61-2.31,1.29-.03.31-.15,1.28-.4,1.43l-2.59,1.61-2.6,2.17c-.56.46-1.28.73-1.77,1.12l-2.12,1.67c-.34.27-1.27.63-1.6.93l-1.39,1.23c-.73.64-1.54,1.1-2.36,1.62l-1.74,1.11c-.67.42-1.31.94-1.97,1.41l-2.52,1.8-2.39,1.63c-3.53,2.41-2.99.47-4.4,2.76-.29.46-1.49.84-1.96,1.14-1.67,2.53-3.71,3.12-6.58,5.68-.46.41-.96,1.05-1.43,1.39l-1.83,1.34c-2.44,1.79-3.18,1.85-5.11,3.73l-1.32,1.29-1.24.19c-1.84,2.64-1.77,1.54-3.25,2.96l-1.68,1.61c-.53.51-1.87,1.33-2.55,1.6-.44.18-2.2-.79-2.41.04-.37,1.48.79,1.39-.42,2.24-.84.59-1.42,1.06-2.16,1.63l-1.61,1.25-2.86,2.05-1.6,1.47-2.4,1.64c-2.69,1.84-3.15.65-3.43,2.25-.14.79-.62,1.51-1.26,1.86l-2.64,1.49c-2.51,1.42-1.64,1.44-3.82,3.19l-1.47,1.18c-.54.43-1.17,1.44-1.75,1.83-.44.3-1.43.54-1.72.87l-1.26,1.4c-.25.28-.97.67-1.32.93l-1.34.97c-1.97,1.43-1.72,1.73-4.15,1.75-1.39,2.71-.85,2.73-3.86,4.15-.36.17-1.25.3-1.49.54-3.23,3.28-.78.48-3.76,3.1l-1.82.72c-.65.78-1.31,1.41-2.17,1.83l-2.49,1.21c-.39.19-1.39.3-1.64.61-1.78,2.16-.93.25-2.27,1.76-.35.4-.68.64-1.11.93-2.11,1.41-1.98,1.55-4.35,3.06-.62.4-1.26.84-1.79,1.33l-1.51,1.38c-2.51,2.29-3.64,2.1-4.39,2.93l-1.14,1.25c-.29.32-.82.89-1.15,1.1l-2,1.23c-.42.26-1.05.94-1.41,1.38-1.58,1.93-1.61-.04-2.86,2.6l-1.6.91c-2.29,1.31-.7.79-3.01,2.74l-1.87,1.59c-.39.33-1.08,1.14-1.62,1.15-1.1.02-1.03,1.21-1.53,1.63l-2.33,1.96-1.42,1.18c-.78.64-1.61,1.27-2.33,1.93-.52.48-.98.91-1.56,1.3l-1.59,1.03-1.28,1.29c-1.4,1.41-1.51-.25-2.62,1.95-.73,1.45-.6.38-2.43,1.8l-1.95,1.51-1.77,1.4c-.42.33-1.23.86-1.45,1.26l-.78,1.39,1.28-.51c1.14-.46,3.45-1.11,4.69-1.31l2.03-.34,2.8-.97,2.38-.29c2.75-.34,4.55.59,6.79.81l2.1.2c4.3.42,3.31-.78,5.59-.53l2.34.25,2.29.27,1.65.2c.65.24,1.33.46,2,.49l2.35.1,2.02.09,1.67-.16,3.14-.3,2.59-.25c2.36-.23,4.75-.15,7.11.01l2.6.18,2.3.21c3.56.32,2.96,1.07,7.89.55,3.58-.38,2.54.81,4.23-.37.37-.26,1.01-.17,1.58-.26l2-.34c.28-.05,1.03.07,1.3.09.72-.19,1.6-.4,2.35-.5l2.02-.27,2.88-.32c1.63-.18,3.21-.21,4.81.02,2.88-.56,2.54.23,6.31.13l5.42-.15,2.59-.22,2.57-.35c.56-.08.97-.14,1.57-.3,1.68-.43.86.12,3.72-.64s4-.49,4.36-.57c.96-.22,2.37-.61,3.37-.77l1.75-.28,2.05-.33,2.22-.05c1.48-.03,3.15-.52,4.62-.78l2.33-.4c.77-.13,1.62-.11,2.34-.1,1.51,0,2.95-.11,4.49-.15l5.15-.15,1.34-.04,1.02-.17,5.02-.03.78-.37c.65,0,1.26-.02,1.88-.07l2.5-.21,2.58-.26,2.3-.23,2.01-.2,2.86-.3,2.11-.26ZM186.6,230.01c1.02-.27,2.2-.84,3.84-.89l4.26-.14,2.87-.31c1.21-.13,2.21-.05,3.49,0l5.16.21c.31.01,1.07.5,1.36.46.99-.14,2.08.42,2.95.64l3.7.93c1.69.42,3.8-.03,5.54.22l1.81.26c.21.03.46.05.46.06-.18-.35.04.95.37.92l.66-.07c.98-.11,1.82-.51,2.66-1.14l3.2-.17c.37-.02,1.17-.32,1.54-.39l2.47-.47c1.05-.2,2.11-.2,3.16.03l.89-.45c1.23.38,1.78-.82,2.3-.23l.92,1.03c.82.92,1.09-.87,2.12.01,1.37,1.17,1.66-1.07,3.43-1.18l2.4-.16s4.4.68,4.97.81l2.16.47c.52.11,1.03.26,1.53.43l1.79.62c2.05-.43,1.95.22,4.26.27l1.9.04,2.68-.34c.52-.07,1.21.13,1.77.21l2.55.35c1.28.18,2.23,1.45,3.24.24.17-.2.8-.69,1.11-.68l3.8.12c.31.01,1.03.94,1.28.81l1.73-1.55,2.15.97c.36.57.69.86,1.26.97l.56-1.03,1.77.26c.72.11,1.55.23,2.26.27l3.94.2c3.28.17,3.45-.39,4.25-.29l2.07.25,2.63.31c.61.07,1.44-.08,2.08-.12,1.15-.07,2.22-.22,3.34-.35,3.52-.41,6.97-.07,10.57-.23,1.4-.06,1.01,2.03,2.04,1.49l1.49-.79c.26-.13.94-.39,1.27-.39h2.96c1.66-.02,1.65,1.81,4.25.98,2.35-.75,2.02-1.12,2.6-1.15l2.73-.18c4.38-.28,3.39,1.27,4.64.13,1.47-1.33.91-.06,2.8-.91,1.01-.45,1.98-.35,2.99.19,1.43.75,1.76-.99,2.21-1.03s1.48-.14,1.94-.15l2.59-.04c3.54-.05,2.77.4,5.71.01,4.22-.56,1.43-.86,4.83-.77l3.19.09c1.72.05.76.7,3.05.85l2.19.14c.6.04,1.17.46,1.54,1l.58-.18.37-.6c.03-.05.37-.06.51-.08l.54-.04c.05,0,.35-.14.39-.18l.29-.29s.33-.24.38-.25c.59-.07,1.85-.26,2.38-.61l2.76-1.83,2.57-1.23c.6-.29,1.09-.67,1.67-.9l1.87-.74c.34-.13,1-.67,1.25-.94l1.45-1.53.07-.75-2.2-.75-1.19-.39c-2.29-.75-2.47-1.03-3.69-.85l-1.84.27c-.88.36-1.65.54-2.53.28-3.96-1.17-2.8.6-5.46-1.4-.3-.22-.92-.6-1.14-.88-.41-.52-1.03-1.11-1.74-1.12l-1.68-.04c-.84-.56-1.89-.42-2.77.05l-2.53-.14c-1.15-.06-1.91-.28-3.02-.76-.67-.29-2.16.03-2.92-.15l-3.07-.74c-.31-.08-.99,0-1.33.12-1.05.35-1.91.59-2.92.87-2.61.72-.45-.01-3.22.68-1.37.35.16-.02-2.06.19l-2.35.22c-1.36.13-5.61.03-6.19.24l-2.61.98c-.67.25-1.24.4-1.89.78l-1.81-.26c-.3-.04-.91-.51-1.29-.77.54-.68,1.11-1.48,1.63-1.85l2.38-1.71c1.99-1.43,1.6-1.02,3.48-.93.94-.41,2-.51,3.05.05,1.31.7,3.04.02,4.47.16l1.62.16,1.44-.32c1.98.12,2.9-.09,4.49-.83,2.43-1.13,3.1-.17,5.58-.64l1.55-.29c1.15-.22,1.14.86,2.54.95.9.05,1.73.11,2.6.21l2.13.24c5.63.63,4.5-.54,6.37-.23,3.24.53,2.69.16,4.95,2,.67.54,1.47.73,2.37.81l3.16.27,3.44.29,2.81.7c1.13.28,2.25.33,3.18.89l2.22.05c.22,0,.64-.53.79-.69l.7-.76c.31-.34.67-.83.99-1.24l1.26-1.61,1.53-1.89c.24-.29.89-.85,1.19-1.04,3.13-1.89-1.06-.65,4.27-1.77,2.25-.47,4.3.33,4.9-.53.18-.26.42-.6.59-.76.41-.41,1.25.74,2.32.64l1.9-.19c.26-.03.52-.92.71-1.09l1.83-1.58c.33-.29.21-1.42-.06-1.76l-1.03-1.33c-.41-.53-1.22-.19-1.18-.37l-.18.77c-.03.14-.08.43-.12.47l-.71.98-.57.78c-.13.18-.72.02-.99-.01l-1.86-.21c-.22-.02-.87.1-.84-.08l.11-.72c.04-.22-.03-.85-.17-1.08-.81-1.35-2.51-1.74-4.03-1.31-.69.19-1.99.17-2.71.05l-2.18-.37c-1.75.62-2.46-.94-3.79-.64-3.28.73-2.21-.25-4.57-.77-2.22-.49-1.86.48-2.86.03l-1.8-.82c-.57-.26-1.33-.12-2.05-.04-3.28.35-3.83-.12-7.08-.22-.91-.03-1.97.2-2.83.24l-4.27.16c-3.34.13-3.31-.95-4.22-.77l-2,.38c-3.05-1.11-1.31-.04-4.9-.91-.92-.22-1.93-.1-2.9-.08-.78.01-1.53,0-2.33.07-4.71.43-2.78-.63-7.69,0-4.1.53-4.26-.46-7.93-.6l-3.91-.15-2.95-.32c-1.01-.11-1.93-.08-2.88-.2l-2.31-.3c-1.38-.18-3.1.09-4.39-.23-.89-.22-1.27-.45-2.06-.07-1.32.64-2.77-.02-4.08-.14-.52-.05-1.25-.02-1.83-.11-.66-.1-1.13.02-1.76.34l-1.8.26c-.78.11-1.57.06-2.38,0l-3.32-.25c-.82-.06-1.57-.08-2.4,0l-2.98.27c-.33.03-1.11.4-1.45.35-.67-.09-1.47-.06-2.12-.03l-5.04.22-2.1.04h-1.42s-1.94.36-1.94.36l-3.69.16-1.82.08-1.36.02c-1.12.01-2.19.08-3.33-.05-.73-.08-1.4.03-2.19.04l-9,.11-1.25.26h-5.91s-1.2-.24-1.2-.24l-2.84-.11c-.71-.03-1.84-.36-2.49-.16-1.04.32-2.16.89-3.12.74-.65-.1-1.54-.5-2.01-.45-1.22.15-2.19.19-3.29.18-1.17-.01-2.68.18-3.75-.13-3.97-1.14.16.59-3.76-.53-.9-.26-2.51-.26-3.4,0s-1.38.37-2.21.22l-4.91-.87c-1.3-.23-3.11.15-4.43-.11l-1.26-.25c-2.48-.49-5.77-.52-8.37.13l-2.09.52c-1.42.35-2.81.3-4.19.07-.8-.13-1.28-.09-2.07.2-.34.12-.98.11-1.51.23l-3.17.72-6.19.26c-.56.02-1.39.45-1.97.46l-2.66.06c-1.33.03-2.17-.05-3.34-.47-2.98-1.07-4.38,1.39-5.24,1.45l-3,.19c-1.45.09-2.66.46-4.06.56l-2.59.19-2.29.11-2.34.08c-1.86.06-3.73.12-5.58-.01-.75-.06-1.39-.08-2.11-.02l-2.23.2-3.19.25-2.54.73-5.69.16c-.59.02-1.77.51-2.35.74-2.79,1.11-2,.37-4.4.8l-2.94.54-2.28.46-2.3.34-1.71.4-2.63.28c-.66.07-1.63.28-2.23.3l-6.88.12c-.57.01-1.15.03-1.7,0l-2.53-.15-1.55-.12c-.98-.07-2.06-.11-3.06-.05l-1.43.08-2.31.14c-.92.06-1.74.31-2.69.43l-2.58.33c-1.03.13-1.97.44-2.99.46l-2.01.03c-.43,0-1.27.3-1.75.4l-2.15.45c-2.41-.89-1.45.1-3.19-.36-1.23-.33-2.25-.31-3.44-.06l-1.22-.33c-.54.02-1.24.02-1.66-.11l-2.92-.92c-2.92-.92-.5.49-4.99.43-.67,0-1.27-.03-1.83.03l-1.91.22c-.83.1-1.74.26-2.5.29l-1.89.07-5.62.19c-.4.01-.81-.03-1.22-.06l-1.64-.13-3.44-.56c-2.55-.42.14.4-4.25-.3-.62-.1-1.22-.12-1.8.08-.86.3-1.66.18-2.54.19s-1.76.06-2.61-.04l-1.84-.22c-.54-.49-1.09-.81-1.8-.79-4.56.1-2.2-.59-5.58.76l-1.94.78-1.28.2-1.33.5c-3.39,1.27-.41-.34-5.06.82l-2.12.53c-.51.13-1.56.58-2.03.84-.3.17.09,1.21.34,1.53l1.58,2.08c.31.41,1.04,1.06,1.48,1.39.2.15.02.89.11,1.14.15.43.79,1.15,1.07,1.59.76,1.25,1.53,2.25,2.42,3.35l1.33,1.64c1.36,1.67-1.51.89,2.51,3.14.6.34.83,1.25,1.15,2.06.24.62,1.77.7,2.31,1.01.81.47,1.34.87,2.31.49l1.53.04c.51.01,1.05.15,1.22.52l1.1,2.27-.87.39c-.28.37.91,1.82,1.49,1.44,1.3-.85-.47-.46,1.53-2.91.48-.59,1.11-1.13,1.71-1.38,1.26.93,1.1.57,2.75.8.68-.2,1.93-.62,2.69-.79l1.91-.41c.53-.12,1.39-.27,1.89-.29l3.97-.17c2.07-.09,3.89.31,5.45.05l2.6-.44,1.65-.19c.81-.42,2.9-.82,3.69-.67.67.12,1.77.38,2.22.08.67-.44,1.68-1.23,2.36-1.17l2.37.22,1.71.17c.9.09,1.74.29,2.6.47l2.67.58,2.58.32c.97.12,1.73.33,2.73.43.77.08,1.52.28,2.33.43,1.06.2,2.5,0,3.49.26,2.07.55,2.97.78,5.39-.13l1.16,1.08,1.07-.17c1.23-1.56,5.33-1.21,7.1-1.02l2.9.32c.36.04,1.1.37,1.47.48l2.91.87c.59.18,1.13.48,1.7.87l1.31.24c-.15.49-.37.94-.19,1.06s.78.32,1,.32c3.19-.01,2.01-1.27,4.19-.8,2.63.56,1.72-.56,5.2-.01.87.14,1.33.03,2.22-.23.69-.2,1.84-.15,2.67-.23l2.07-.21c.58-.06,1.15-.24,1.82-.45.99-.3,2.48.03,3.51.08.42.02,1.31-.21,1.72-.26l2.58-.35c.64-.09,1.43-.03,2.07-.06l2.54-.1c.87-.03,1.73-.11,2.57-.22l2.29-.3,1.27.12c1.07-.77,4.2-.06,4.79-.38,2.09-1.12,2.73.74,4.05.11.34-.16,1.03-.77,1.43-.77l11.49.05c2.41.01,2.76-.09,5.23-.02l1.39.04c.28,0,1.05.38,1.34.3ZM81.72,412.74c-.25,1.02-.37,2.03-.39,3.09l-.03,1.27-.02.88c0,.06-.2.43-.19.49l.12.73c.64,3.95-.52,1.02.28,3.9l.65,2.34c-1.07,4.63.23,2.45-.29,7.13l-.12,1.05c0,.06.26.48.26.54l.3,2.19.27,1.96.5.27.32-.08,1.07-.97s.5,0,.61,0h.59s.52-.02.52-.02c.06,0,.32-.1.44-.15l.41-.14c.65-.23.67-.23,1.09-.63l.29-.27s.34-.21.39-.21h.53s.59,0,.59,0h.59c.57-.01.46.06.89-.23l.34-.23s.39-.12.45-.12h.58s.59-.02.59-.02h.5s.28-.23.31-.27l.27-.33.25-.31c.34-.42.23-.21.39-.74l.14-.45.13-.45s.25-.25.29-.27l.43-.19.44-.19-.24-.31-.33-.24c-.26-.19-.74-.49-.75-.98v-.34s.04-.4.04-.4l.06-.52.07-.56.06-.49c0-.08.08-.3.12-.45l.12-.45.12-.46c.12-.46.11-.48.11-1.02v-.58s0-.57,0-.57v-.57s0-.58,0-.58v-.55c0-.31.15-.65.25-.92l.16-.41.16-.44c.02-.05-.05-.37-.09-.41l-.26-.34c-.38-.51-.24-2.4-.18-2.62l.76-2.83.28-2.36c.41-3.53-.11-2.66.24-6.56l.17-1.92c.09-.97.6-.43.4-1.7-.18-1.11-.12-2.15-.02-3.27l.22-2.5.13-1.18c.07-.66.05-1.59.18-2.17l.93-4.27c.55-2.52.32-2.54.81-4.83l.61-2.89c.3-1.44.63-2.14,1.12-3.34.15-.37.06-1.47.25-1.82.59-1.09,2.07-3.17,2.91-4.17l.95-1.13c.19-.23.49-.73.58-1l.72-2.24c.18-.55.73-1.82.34-2.25l-1.39-1.55c-.85-.95-.74-2.47-.88-3.69l-.29-2.62c-.05-.44-.05-1.04.01-1.42l.4-2.32c.3-1.74,1.91-4.71,3.13-6.27,1.61-2.05.06-2.84,2.05-3.54.12-.04.5-.14.55-.16l3.61-1.77c1.21-.6,1.81.36,3.15.09l2.29-.45.32-.52c.07-.12.71-.08.91-.03,3.15.8.87-1.79,4.54-1.58,2.1.12.68-1.07,3.65-.32l3.07.77c.42.11,1.35-.28,1.59-.63.41-.62.61-1.29,1.94-1.52l1.41-.24s.27-.26.36-.34c1.87-1.89.62-.05,2.85-.99,1.5-.63,3-.24,4.03.87,1.35,1.44.58,2.64,1.75,2.68.58.02,1.13.03,1.31.21l1.28,1.26s.23.42.27.45l1.35,1.19c.38.34.8.94,1.11,1.41l.68,1.04c.17.26.7.93,1.02.99l2.11.44,3.19.88c.33.09.92.32,1.24.38l5.99,1.17,1.99.03,2.29.33c2.37.34,3.6.59,5.79,1.23.15.04.57.41.73.54,1.11.88,1.72.09,2.39.99.75,1,1.02,2.43,1.14,3.75.26,2.76.73,1.6.61,4.31l-.21,4.97-.09,1.74-.42,1.23c-.18.53-.56,1.71-.46,2.26l.41,2.24c-.63,2.49.62,3.28-.02,6.24-.1.45-.44,1.13-.36,1.49.29,1.27.13,2.72.01,4.08-.14,1.57-.09,3.21-.09,4.89,0,1.31-1.34,1.18-.68,5.44.36,2.36-.24,1.33.39,4.23.1.45.19,1.07.14,1.4l-.29,1.89c-.18,1.16-.54,2.35-.35,3.45l.45,2.65.38,2.53c.41,2.68-.37,1.19.93,3.62.11.2.34.85.49,1.04l1.35,1.76c.12.16.27.63.22.83l-.14.51c-.02.06,0,.61-.04.66l-2,2.07s-.58.05-.64.07c-1.35.41-.13.44-1.46,1.87s-2.84,1.54-4.78,1.67c-.67.04-1.94.46-2.59.64-1.69.47-.67-.36-1.94.96h-.76c-.41,0-.37-.75-1.51-.33-.26.1-.37.87-.29,1.14l.15.49c.12.41.28,1.05-.08,1.4l-.3.29-.3.29c-.59.58-1.23.58-.93.85l.57.5c.89.79.31,1.18.36,1.51l.37,2.54.08.52c.05.31.12.8.04,1.12l-.12.47-.13.46c-.15.52.07.63.2.84l.22.35s.15.39.14.45l-.03.57-.03.61c-.04.86.32,1.81,1.14,1.91.27.03.49.06.59.08l1.13.25c.06.01.37.18.4.21l.27.3c.15.16.64,1.49,1.55,1.25l.56-.15c.24-.06.47-.22.8.01l1.32.91c4.57.81,2.62,1.59,7.01,2.49.59.12,1.14.29,1.78.48,1.41.41,2.38,0,3.55,1.29l.45.5.32.35v.64s.02.62.02.62c.05,2,.44.38.06,2.51l-.1.58-.08.48c-.15.84-.1.1,0,.78l.07.48.08.56c.17,1.26.63,1.86-.48,2.93l-.32.31.74,4.25c.14.82.06,2.13.07,3.13.01,1.11-.74,1.04-.61,1.75l.14.76.07.41c-.23.72-.48,1.54-.49,2.08v.67s-.02.53-.02.53c0,.07-.12.33-.15.4l-.19.4c-.68,1.39.73.56.31,3.39,0,.06-.2.49-.19.55l.33,2.39.14,1c.05.34-.84.63-.75,1.08l.31,1.63c.01.06-.07.54-.1.61l-.46,1.16.49.62c.83,1.05-.42,2.88,1.08,6.96.2.55-.24,1.03-.78,1.52l-.14.48c-.03.12-.13.41-.13.49l-.18,1.86c-.1,1.04-.64,2.55-.53,3.47.03.28.59.97.57,1.24-.02.24-.58.86-.52,1.09.35,1.41,1.11,2.55,1.65,4.59.22.82.17,1.92.53,2.63,1.03,2.09,1.51,2.99,1.2,5.16-.06.44.21,1.6-.21,1.82l-2.97,1.57c-.2.1-.93.31-1.04.25l-.94-.49s-.23-.19-.32-.26l-.37-.31c-.82-.69.17-1.33.05-1.67l-.79-2.23s-.33-.27-.38-.31c-1.32-1.22-.26-2.37-.04-3.9.14-.95.41-3.71.29-4.32l-.12-.6c-.89-4.5,1.36-2.9.25-4.41l-.24-.32s-.27-.4-.27-.46l.26-2.17c.03-.21.04-.41.05-.57l.04-.61c0-.15.03-.4.04-.47l.09-.48.09-.48.09-.52.09-.47c.08-.41.46-.88-.48-1.13-.36-1.38-.25-3.1.02-4.62-.02-.06-.14-.47-.14-.53l.27-2.38c.04-.33.38-1.09.48-1.42l.17-.55c.05-.15.08-.49-.05-.58l-.45-.3-.34-.22c-.4-.26-.53-.72-.45-1.22l.4-2.47.08-.48c.23-1.44-.68-1.26.09-2.65l.31-.55c.7-1.24-.41-1.64-.29-2.41l.07-.47c.43-2.79,2.12-3.34,1.5-3.84l-.73-.59-.32-.26s-.27-.41-.26-.47l.35-2.03.08-.51c0-.06.02-.41.02-.47-.8-1.78-.33-2.41-.64-5.45l-.05-.52-.3-2.87c-.21-2.01.36-2.46-1.37-3.25l-2.2-1c-2.31-1.06-1.23-.14-2.79-.94-2.2-1.12-1.81.02-2.74-1.05-.12-.14-.34-.44-.39-.46l-3.33-1.59c-.06-.03-.57.04-.64.06l-.78.25c-.16.05-.36-.24-.52-.45l-.62-.78s-.42-.3-.48-.28l-1.16.32c-.55.15-2.46.93-3.34-.31-.51-.72-.12-5.4-.74-5.36l-.93.06c-.19.01-.54.21-.91.22h-.56s-.6.03-.6.03c-.97.03-.97.27-1.41.27h-.55s-.58,0-.58,0h-.57c-2.17.05-.62-.23-2.52-.59l-2.48-.47c-3.09-.59-1.87-.64-3-1.21l-1.36-.68c-2.23-1.12-2.28.12-4.07-.97-.48-.29-.88-.57-1.25-.76l-1.79-.91c-.31-.16-.79-.78-.65-1.08.09-.2.22-.48.26-.53l.77-1.17s.27-.24.31-.28l.27-.29.34-.37c1.82-.45,4.24.22,5.75,1.16.46.28.48.06.92.36.19.13.33.71.48.76l1.82.65c.83.29,1.74.77,2.54,1.16l1.95.1c2.29.12,2.15,1.18,5.56.13.76-.23,1.78-.51,2.24-1.27s.13-2-.09-2.9c-.55-2.19.36-.25-.17-3.17l-.1-.55-.28-1.44c-.08-.41-1.56-1.03-2.23-1.12l-.64-.08c-3.94-.52-4.01.66-6.83-.75l-1.9-.95c-.37-.19-1.27-.5-1.69-.68-.12-.54-.26-1.46-.28-1.96l-.05-1.62c0-.28-.17-.8.03-.8h1.03c2.37-.05,1.99.04,4.1,1.61l1.81.19,1.5.16c.66.07,1.35.17,1.94.33l1.87.52c.43.12,1.42-.1,1.98-.19.74-.12,2.71.54,4.15.14l2.37-.66c1.82-.51,3.43-.71,5.08-1.57,2.01-1.05,1.4-.24,3.78-1.97.66-.48-.58-2.13.14-3.73.13-.28.55-.79.38-.92-.85-.63-.95-.57-1.12-1.66l-.08-.54c-.64-4.33.58-1.71.1-3.37l-.56-1.93c-.12-.43.05-1.34.2-1.95.09-.39-.32-1.19-.42-1.62-.62-2.87-.24-2.26-.64-5.14l-.18-1.33c-.04-.3-.09-.84-.06-1.07.38-3.05-.47-.49.05-4.18l.23-1.63.27-2.04.23-2.32c.03-.33.07-.98.19-1.22,1.32-2.57.26-3,.55-5.19.07-.53-.05-1.29-.08-1.9l-.17-3.1c-.01-.26-.05-.75-.02-.97l.2-1.82c.1-.91.11-1.79.13-2.69l.04-1.95c.03-1.22.81-1.56-.13-2.99l-.27-1.74c-.1-.6-.17-1.46-.32-1.95l-.54-1.78s.33-1.11-1.05-2.01l-1.4-.9-.71-.46-1-.71c-3.31.92-5.1-1.91-8.43-.96-.75.21-1.67-.12-2.56-.34-.55-.14-1.78-.12-2.37-.19-.27-.03-.99-.47-1.26-.47l-2.45-.06c-.57-.01-.62.93-1.34.8l-1.32-.24c-1.99-.36-1.79-1.38-2.84-1.39l-2.58-.04-1.8-.21-.86.49c-.83.47-.48,1.36-1.02,1.21l-.47-.13c-.61-.17-.32-.24-.85-.05l-1.36.5c-1.32.48-1.09-1.37-3.22-1.33h-.58c-2.87.07-1.9-.96-3.23-.11l-.4,1.37c-1.32.66-2.49,1.49-4.13.39-.37-.25-1.12.29-1.59.56l-1.62.96s-.27.33-.31.38c-1.67.49-2.7,1.43-3.9,2.68-.52.55-1.35,1.12-1.99,1.68-1.36,1.19-1.68.57-2.1,1.89-1.38,4.32-2.65,2.74-3.4,5.15l-.63,2.03c-.23.74-.75,2.13-1.03,2.85-.09.24-.79.63-.97.82-.36.36-.85.97-1.25,1.44-1.09,1.32-1.02.31-1.87,4.03-.36,1.57-1.05,3.07-1.64,4.6l-1.05,2.72c-.87,2.26.73.83-.7,3.78-1.99,4.11.33,2.88-1.08,6.34-.17.42-.31.94-.37,1.34-.35,2.3-.74.49-.35,2.38.14.7.06,1.6-.14,2.21l-.46,1.4c-.69,2.1.71,1.64-.15,4.3-1.1,3.38-.02,1.66-.33,3.38l-.27,1.52c-.03.19-.17.61-.25.84-.47,1.34-.77,5.62-.57,6.52l.28,1.25v7.08c0,1.91-1.16,3.82-.36,5.45l.4.81c.03.06-.11.4-.13.58l-.15,1.76c-.05.62-.59,1.42-.82,2.01l-.64,1.69c-.09.24-.71.6-.96.7l-1.32.5c-3.31,1.25-3.09-2.14-6.03-1.43l-3.62.86c-2.56.61.16,1.52-4.82,2.36-2.53.43-1.33-.27-2.88,0-2.3.39-2.58-1.28-3.56-.04l-.34.44c-1.1,1.4-1.08.38-2.76,1.32l-.41.23-.39.21c-.83.44-.76.77-1.22,2.25-.43,1.39-.16,2.86-.15,4.25,0,.76-.09,1.6.11,2.37.22.84-.06,1.7-.59,2.02-.23.29-.56,1.26-.62,1.55l-.86,4.18c-.43,2.12.03,4.49-.26,6.63-.09.66-.09,1.3-.13,1.91l-.15,2.43c-.02.37-.06.93-.15,1.2l-.17.53s.06.39.05.44l-.23,1.92c-.16,1.32-.32.02-.55,1.66l-.08.6-.59,4.04c-.06.44-.54,1.25-.86,1.51l-.48.39c-.24.2-.02.86.22,1.2l.29.41s.03.38.02.43l-.11.44-.11.47v.57c0,3.24-.31,2.09-.46,3.24l-.06.47-.23,2.2c-.03.24-.09.61-.12.79l-.11.56c-.03.16-.09.46-.1.54l-.22,2.75-.28.58c.11-.23-.9,5.75-.92,6.55l-.06,2.64c-.08,3.24-.68.44-.39,4.81l.14,2.03.06.51c.23,2.05-.35,1.42-.09,2.27l.14.46c.06.19.23.69.34.81l.29.29.31.29c.33.32.43.76.34,1.36l-.22,1.32c0,.05.03.41.03.49l.07,1.68c0,.08.03.31.08.68.08.69,1.17.82,2,.68l.5-.09.43-.15.43-.16c.06-.02.36-.1.41-.1l.54-.07c.17-.02.44-.06.54-.08l2.49-.63c.12-.03,1.06-.39.84-.39l2.4-.05c.18,0,.5-.02.57-.05l1.31-.6c.67-.03,1.45-.09,2.03-.23l.5-.12.48-.12c.07-.02.48-.06.59-.06l2.98.17c.58.03,1.11.05,1.66,0l2.97-.23c.48-.04,1.32.14,1.96.24.9.14,1.79.05,2.76.02.51-.02,4.02.33,3.38.43l1.68-.27c.11-.02.39-.03.53-.04h.61s.55-.01.55-.01l.47-.11.47-.11c.06-.01.41-.03.47-.02l.47.06c.61.07-.14.11.75,0l.55-.07c.07,0,.34,0,.52,0h.59s.6,0,.6,0c.07,0,.4-.04.47-.06l.46-.11c.61-.15.31-.12,1-.12h.61s.56,0,.56,0c.26,0,.69.15.86.28l.33.25.34.26c.37.28.75-.11.81-.14l.37-.22c.05-.03.33-.12.39-.14l.48-.12.46-.13c.07-.02.42-.04.51-.04h.58s.58,0,.58,0h.57s.58,0,.58,0h.6s.54-.02.54-.02c.07,0,.32-.07.47-.1l.45-.08.51-.09.51-.09.46-.08c.15-.03.38-.07.44-.07l.58-.05.54-.04c.05,0,.36-.11.41-.14l.39-.2.41-.17c.06-.03.36,0,.53,0h.59s.58-.04.58-.04c.06,0,.31-.05.44-.08l.47-.1.48-.11.47-.11.48-.1c.07-.02.4-.05.46-.05h.61s.59,0,.59,0h.59c.53,0,.52,0,.92-.19l.4-.2c.07-.03.34-.15.39-.15l.54-.03.58-.02c.7-.03.29.04.98-.15l.44-.12.45-.12c.12-.03.36-.1.43-.11l.55-.05.59-.05.43-.08.48-.1.49-.04.58-.04c.17-.01.43-.01.52-.03l.45-.11c1.5-.38,2.12.08,2.51.11l.5.04.6.03c.2,0,.4,0,.57.02l.45.08.46.08.51.09.51.1.45.08.48.09h.54s.59,0,.59,0h.6c.07,0,.38.05.45.06l.49.1.48.1.49.1c.14.03.38.06.46.09l.42.17.42.16c.06.02.38.05.43.03l.43-.11c.71-.18.21-.12,1.02-.13h.59s.58,0,.58,0h.57s.57,0,.57,0h.58s.63,0,.63,0c.07,0,.35.03.48.04l.47.06c.45.06.12.08.75-.02l.52-.08.5-.08.47-.09.5-.09c.07-.01.41-.04.5-.04h.61c.08,0,.42.06.49.08l.48.12c.76.18.15.19.91,0l.47-.12c.07-.02.41-.07.48-.07h.59s.58,0,.58,0h.59s.57,0,.57,0c.12,0,.35-.04.51-.06l.39-.05c.05,0,.28,0,.33,0l.47.07.54.08.47.08.47.09.49.09c1.27.24.94.54,1.71.55h.58s.56.02.56.02c.08,0,.39.08.46.1l.47.12.46.12c.14.03.31.08.43.1l.5.1.49.1c.15.03.37.06.45.09l.43.15.42.15.42.14c.14.05.35.13.42.14l.5.09c.08.02.36.01.55.01h.59s.61,0,.61,0c.07,0,.4.02.48.04l.46.13.44.12.44.12.46.13c.34.09.71.08,1.03,0l.47-.13c.07-.02.44-.11.54-.11h5.59s.61,0,.61,0h.6c.16,0,.38,0,.53-.02l.54-.04.44-.03,2.44-.17.59-.05,2.26-.22,1.97-.16c.5-.04,1.22-.18,1.74-.18l3.42.02c.22,0,.94.23,1.19.24l2.42.15,1.59.09,6.24.15c.58.01,1.13.02,1.7,0l.62-.03c.1,0,.34,0,.54,0h1.74s6.28-.06,6.28-.06c1.86-.02.91-.38,2.07-.48l3.02-.28,1.38-.16,1.76-.26,1.72-.26,3.16-.51c.49-.08,1.3-.22,1.73-.23l4.56-.15c.41-.01,1.14-.14,1.47-.09l.83.12c.55.08,1.1.21,1.66.35,2.51.66,1.3-.95,5.58.62,3.92,1.44,3.07.23,6.1,1.13,1.95.58.33-.23,2.37.53,1.53.57.72.06,2.45.33l1.78.28,1.97.31c.84.13,1.71.13,2.64.22l1.74.18,4.78.15,1.73.25c.22.03.86-.34,1.08-.43.18-.08.74.08.96.09l6.54.05h.61c.07,0,.34.04.52.06,3.03.36,2.66.08,5.73.41l1.1.12c.16.02.55.27.8.42,1.7,1.03,1.16-.12,3.77.09l3.15.25c.62.05,1.38.13,1.84.22,1.31.9.8-.28,3.12.22l.53.11.51.1h.61c.12,0,.38-.03.52-.04l.59-.05,3.08-.27c.12-.01.51.02.63.04l.58.09c2.17.32,2.38-.31,3.38-.33,2-.04,3.77-.06,5.68.06.91.06,2.39.49,3.34.38l1.15-.14s.57.34.97.24l.54-.15c1.44-.39.86.3,2.3.11l2.04-.27.5-.07.49-.07c1.8-.24.22.41,1.99-.24,1.02-.37,1.95-.62,2.99-.77l2.7-.4c.08-.01.42-.13.47-.12l1.13.26c.07.02.5.02.6,0l2.75-.4c.79-.11,1.62-.28,2.36-.34l1.63-.14c.68-.06,1.64-.3,1.85-.94l.17-.53c.31-.95.2-.15.18-.77l-.11-2.9c-.04-1.05-.14-2.37-.24-3.35s1.16-1.82.87-3.51l-.3-1.76c-.21-1.2.77-.74.44-1.86l-.57-1.98c-.8-2.75-.86-1.87-.6-4.02l.18-1.47.29-2.58c.07-.65.16-1.34.18-1.99l.07-2.62c.02-.78.51-1.82.63-2.65.07-.52-.01-1.35.02-1.91l.09-1.35.09-1.46.1-.57.22-3.48c.05-.81.65-1.96.77-2.81.73-5.25-.08-4.97-.02-6.53l.14-3.65.08-1.77c.13-2.78-1.11-1.72-1.68-6.6l-.24-2.03s.09-.82-.54-.86l-.6-.04c-.06,0-.38.1-.41.16l-.21.38-.51.94c-2.3,4.25-.49,3.51-1.48,4.7-2.96,3.53-.02,2.39-2.26,3.83-1.44.92-.59,2.54-5.32,3.91-.79.23-2.28.73-2.91.22l-1.49-1.22-.98-3.57c-.03-.11.08-.76.15-.84l.56-.64c.08-.1.26-.33.22-.43l-.23-.59.28-1.14.11-.46.11-.46c.14-.56.12-.32.12-1.02v-.58s0-.58,0-.58v-.54c0-.32-.5-.83-1.09-.52-.8,1.4-1.61,2.68-2.56,3.96l-.87,1.19-1.4,1.78c-.25.32-1.3.39-1.71.54-1,.36-2.06,1.03-2.93.58l-1.42-.73c-.45-1.96-.52-3.95.21-5.7.83-1.99.25-.33-.17-2.25l-.56-2.58c-.02-.1.18-.44.24-.56,1.25-2.36.39-1.47,1.77-2.71.51-.46.17-1.5-.48-2.02-.49-.4-.9.11-1.08.39l-.23.34c-.07.11-.18.34-.23.36l-.38.15-.46.16s-.24.23-.26.28l-.32,1.06c-.03.11-.42-.1-1.05.72-1.09,1.42-1.37,1.16-2.14,2.31-1.22,1.84-2.28,3.47-3.91,4.76l-.83.66c-2.31,1.82-5.28-.63-5.3-.95l-.04-.68c0-.08-.04-.29-.07-.46l-.2-1.23c-.26-1.58.9-.8.98-4.5.02-.94.24-1.77.68-2.45,1.69-2.56.02-2.71,1.37-4.36,1.63-2,.44-1.88,1.39-3.17,1.62-2.21,2.35-5.59,2.53-8.29l-1.94-.78c-.7-.28-1.36-.5-2.13-.76-1.95-.67-.24-.49-1.19-.86-3.14-1.22-1.16.2-3.31-1.1l-1.47-.88-.92-.56c-.74-.44-1.73-.81-2.53-1l-1.88-.46c-.06-.02-.41-.16-.48-.17l-1.98-.28c-2.26-.32-2.66-2.4-2.8-4.34l-.12-1.67c-.02-.28.09-.76.18-1.1l.4-1.46c.08-.3.07-1.03.02-1.36l-.27-1.87c-.76-5.23.96-3.38.71-5.94l-.25-2.66c-.11-1.15-.76-1.11-.85-1.51l-.11-.47-.13-.56c-.43-1.87,1.25-2.97.57-6.24l.5-1.49c.43-1.27-1.07-.68.05-2.92.04-.09.25-.52.24-.58-.32-2.13-1.08.99-1.6-4.17l-.22-2.17c-.06-.59.68.15.9-1.44,0-.06-.7-.6-.71-.65l-.43-2.02c-.08-.37.28-1.08.12-3.52l-.22-3.38c-.09-1.33-.21-2.56-.11-3.89.13-1.81-.33-.89-.34-1.79l-.06-7.1c0-.53-.25-1.31-.19-1.67.07-.45.16-1.05.05-1.3-.99-2.22.22-1.8-.13-2.98l-.37-1.25c-.68-2.28.96-1.34-.78-3.37l-.48-1.28-.93-2.47c-.1-.28-.58-.76-.84-.83l-.91-.23c-.1-.02-.4-.5-.5-.54l-2.85-1.27-2.41-1.07c-2.4-1.07-1.31-1.89-2.42-1.84l-4.17.17c-.55.02-1.08.1-1.56.1h-1.79c-2.17.02-1.55.76-2.46.54-1.7-2.12-2.75.84-4.71-1.27-.62-.67-1-.09-1.88-.52-.54-.26-1.79-.56-2.4-.31l-1.94.78c-.89.36-1.83.53-2.82.64l-1.5.17c-.99.11-1.96,1.13-3.62,1.36-5.39-.84-1.7,1.64-6.5,2.56-1.25.24-.21.57-2.82,2.25-.26.17-.93.42-1.12.61-.35.33-.96.91-1.32,1.22l-1.74,1.44-1.55,1.3c-.99.83-1.91,1.6-3.15,2.01-2.42,1.56-2.06,4.2-2.81,5.12-1.85,2.3-.47-.1-1.25,3.88l-.43,2.18c-.11.55-.18,1.19-.26,1.8l-.29,2.3-.31,1.98c-.81,5.26-1.08,1.3-1.71,6.34l-.35,2.79c-.09.74-.14,1.67-.42,2.29-1.35,3.04-.54,1.34-1.09,4.91s-.78,1.23-.45,4.63c.1,1.07.13,2.51.14,3.63.02,1.26-.8,1.23-.5,2.11l.93,1.2c-.67.87-.76,1.49-.8,2.38l-.09,2.28c-.03.83.22,2.83.47,3.99.41,1.85-.03-.05-.03,2.85,0,.91.8,1.59,1.63,1.48l.63-.08c-.2-1.08.43-2.13,1.53-2.41l3-.78c2.43-.64,1.69.34,4.39-.05l1.93-.28c.15-.02.69.1.85.12l1.39.14,1.58.16c.34.03,1.05.45,1.03.8-.02.42-.04.71-.05.91l-.24,2.37c-.2,2.03-1.35,1.72-1.37,2.87l-.1,4.47c-.06,2.53-1.89,2.54-.83,5.09l2.34.41c1.38.24,1.39-1.37,3.7-.3.84.39,1.86.24,2.85.07,2.79-.46,2.25-.98,3.15-.97l6.01.07c.59,0,5.66,1.62,4.03,2.6l-.35.21-.35.22s-.23.2-.29.25l-.31.28c-.08.07-1.19,2.17-2.34,1.38-.51-.35-1.29-.86-1.75-.79l-2.13.34c-.54.09-1.09.22-1.61.34l-1.73.41-3.67.87c-2.65.63-1.3.14-4.16.85-.52.13-1.36.26-1.79.25h-.73c-.1-.01-.27.3-.25.4l.12.45c.07.28.22.46.04.92l-.17.43-.16.42-.12.46c-.45,1.71.53,1.98.54,3.58.02,4.7.53.99.95,5.17l.24,2.41c.05.52-.55,1.52-1.01,1.73l-1.29.58c-2.19.98-3.61-1.29-5.42.85-1.06,1.25-1.86.88-2.92,1.54l-2.6,1.64c-1.42.22-2.38.47-3.77.86s-4.35-.21-4.7.42l-.25.45-1.76.96c-.26.14-.95-.21-1.75.8l-.29.37c-.37.48-.75.96-1.07,1.44l-.76,1.14c.01.17.03.34.05.47l.07.56c.02.18.07.62.06.72l-.32,2.5c-.36,2.87,1.15,2.04-.36,4.77l-1.01,1.83s.07.42.1.46c1.06,1.34-.62,2.07.53,2.69l.43.23.38.21s.12.34.1.39l-.49,2.22-.12.54-.12.53c-.24,1.09.76.43.43,2.01l-.1.46-.1.5c-.18.86-1.23,1.55-.11,3.03.36.48.27,1.42.17,2.07l-.26,1.56c-.47,2.81.59,2.64-.05,3.87-1.17,2.24.86.99,0,4.62-.95,4.02.4,1.84-.34,4.82-.29,1.18-.29,2.29-.05,3.47l.3,1.45c.17.82-.31.93-.24,1.18l.23.88c.79,3.02.02,1.24.55,4.22l.26,1.48c.03.19,0,.68-.05.83l-.18.45-.75,2.09c-.1.27-.84.6-1.12.59l-.67-.03-2.31-.12c-.05,0-.39-.24-.44-.27l-.36-.17s-.37-.41-.36-.46l.66-3.81c.6-3.46-.56-1.81.19-4.07.33-1,.32-.97.03-1.56l-.21-.42c-.03-.05-.03-.5,0-.54l.96-1.56c.36-.58.15-.39-.13-.81-.73-1.14.01-1.22,0-3.92v-2.85c0-.2.14-.82.16-1.01.16-1.35-.2-.12-.09-1.34l.17-1.94c.32-3.7.28-.35.7-3.95l.17-1.47.14-1.59c.02-.21.1-.8,0-.98-.53-.96-.64-2.88.09-4.13s.36-2,.02-2.83c-.57-1.42,0-.49-.1-1.89l-.17-2.72c0-.05.36-.38.43-.43.8-.53,1.11-1.74.26-2.77-.38-.46-.27-1.45-.15-2.09l.48-2.48c.1-.51.26-2.76.23-2.89l-.33-1.76-.17-2.05c-.03-.32-.03-.88-.12-1.14l-.71-2.16c-.02-.06.11-.65.16-.68l1.62-1.17,1.55-1.22c2.89-.79,3.79-2.16,6.13-2.19l1.76-.03,1.25-.02c4.25-.06,5.65-.69,9.45-2.28.9-.38,1.67-.74,2.22-1.58,1.07-1.63,1.41-.78,1.39-1.81l-.06-3c0-.06-.13-.44-.15-.51l-.12-.47c-.01-.05.08-.34.13-.48,1.34-3.6-.56-2.78-.12-4.27.16-.53.51-1.39.53-1.8l.09-3.17c.02-.64.49-1.8.32-2.32l-.37-1.1-.09-1.31c0-.09,0-.38.01-.52l.08-2.77c.02-.56-.05-.9.67-1.28l1.52-.32c.17-.64.39-1.32.25-1.63l-.9-1.78c-.19-.37-.38-1.31-.45-1.75-.22-1.37-5.74-1.97-5.21-2.06-2.54.45-2,.33-4.31,1.29-.33.14-1.02.49-1.24.73l-1.8,1.97c-.95,1.04-1.16.33-1.95,1.41-.16.22-.32.64-.48.61l-.77-.17-.47-.1c-.05-.01-.4.05-.46.08l-.48.21c-.55.24-1.24.31-1.71-.2-.54-.59.07-4.9.6-5.86l.22-.39.31-.56c.07-.12-.33-.5-.34-.63l-.18-1.79-.07-.67c-.22-2.09.89-1.35.45-3.07l-.42-1.62c.13.51.34-1.02.28-1.99l-.11-1.82c-.11-1.84.08-.4,1.21-3.61l.52-1.47c.33-.92-.26-.93-.61-3.25-.58-3.9.73-3.29.53-4.76-.15-1.17.11-2.19,1.05-2.97l.23-1.41c-1.14-1.25-.72-2.17-.57-3.9.23-2.55.2-.51.44-3.16l.21-2.28c.1-1.04.18-2.01.42-2.97l1.06-4.15,1.36-5.02c.36-1.34-1.05-2.15.55-3.64,1.06-.98-.53-1.72,1.22-3.35l1.09-1.01c.7-.66.83-2.99,3.49-4.51,1.32-.75,2.53.9,3.87-1.15l.82-1.26c.34-.52,3.65-1.56,3.03-2.22l-.41-.43-.45.31-.38.28c-.57.42-1.66.7-2.36.54l-.53-.13-.49-.11c-.23-.05-.69-.13-.71-.3l-.1-.86c-.18-1.52-1.01-1.65-1.1-2.58-.11-1.17.07-2.55.09-3.61l.03-1.55c.04-2.16-.16-.79-.62-3.13l-.4-2.02c-.64-3.27.81-.25.06-5.45-.29-2,.4-1.89-.66-3.04-.88-.95-1.59.35-2.4.53-.21.05-.59-.28-.81-.45l-.4-.28c-.17-.12-.72,0-.97.13-2.66,1.42-1.91,2.99-3.7,3.42-.08.02-.48.06-.53.09l-1.79,1.02c-.44.25-.38-.28-1.92-1.06-.76-.38-1.57-.81-1.39-1.59.86-3.79-.55-3.61-.59-5.24-.05-2.08.04-4.01-.15-5.95-.14-1.38-.19-2.25.31-3.61.32-.89-.07-2.39-.48-3.35-1.15-2.65,1.07-2.33-.07-4.22-.44-.73-.71-1.58-.97-2.49l-.69-2.39c-.42-1.43,1.65-.81,1.07-3.3l-.65-2.79c-.21-.92.56-.24.84-2.38l.24-1.85c.03-.23.24-.78.31-1.04l.75-2.76c.3-1.11,1.63-1.25,2.29-3.3.09-.27-.93-2.21.39-5.44.46-1.12-.05-1.82.73-3.76.15-.38.6-1.04.62-1.37.13-1.72-.42-1.76,1.14-4.28l1.11-1.79c.23-.36.58-.9.7-1.22l.41-1.08c.38-1,.85-1.94,1.36-2.9.98-1.82,1.64-2.64,3.41-3.78.36-.23.72-.59,1.09-.89l2.41-1.92c1-.8,1.47-.08,2.54-.76.1-.06.47-.36.57-.39l2.28-.77c.66-.22,1.54-.59,2.09-.69l2.31-.41,3.87-.64c3.68-.6.82-.81,4.9-1.49.79-.13,1.71-.19,2.45-.03,3.95.85,2.38.19,5.18,2.5.03.03.61,1.44,1.21,1.36l1.24-.17c1.27-.18,3.16.47,4.4.94s3.14,2.67,4.38,2.67h3.45c.86,0,1.32.79,3.05,1.84l1.26.77c.27.17.71.85.81,1.16l.85,2.56c.46,1.41.85,2.61,1.49,4.03.61,1.34-.73.92.51,2.55.37.48.57.94.74,1.57.67,2.36,1.31.68.82,2.72l.55,1.28c.16.38,1.09.75,1.09,1.45v.77c0,.12-.36.12-.57.18l-.77.23c-.84.25,1.93.93,2.14,2.02l.76,3.91c.08.43.13,1.33.27,1.68l.67,1.66c.81,2.01-.04,1.05.54,3.7.19.87.29,1.57.41,2.5.16,1.27.59,2.55.93,3.81.25.96.5,1.87,1.1,2.66.57.75-.15,1.35-.25,2.11-.62,4.66.45,4.58.79,5.35l.87,1.95c1,2.23,2,2.99,1.65,3.96l-.31.85c-.32.88,2.55.17,2.38.17l6.22-.09.53-.04,1.51-.09,2.58-.16c2.34-.14,1.94,1.45,4.38,1.1.41-.06.77-.07,1.08-.06l1.59.07c.34.02,1.06.24,1.48.3l1.71.24c1.14.16-.08-.42,1.4.06l1.12.37c.1.03.4.31.5.37l1.23.78c1.62,1.02,2.03-.77,3.09-.85l.41-.03c1.96-.14,1.61-.96,2.52-.49l.53.27c.62.32,1.55.86,1.37,1.88-.07.41-.13,1.09.02,1.41s1.06.29,1.46.41c.41.13.97.48,1.24.37l.48-.2.44-.18c.61-.26.53.29,3.09.06l3.25-.29c1.02-.09,2.05-.15,3.02.07l2.04.45c.13.03.47.14.61.19l.51.17c.72-.4,2.74.52,3.14.85l1.13.94,1.44,1.21c1.14.96.58,1.48,1.32,2.57l1.18,1.73c1.36,2,.21,2.67.03,3.98l-.24,1.75c-.12.87-.58,1.6-1.43,2.09-.34,2.47.76.88-.15,3.12l-.46,1.12c-.14.34-.31,1.15-.33,1.67-.02.37,1.05.57,1.4.5l1.7-.32c1.79,4.43.21,2.25.58,4.96s-.67,2.02-.56,2.55l.23,1.21c.04.21-.17.84-.17,1.1l-.03,13.32c0,.72-.12,1.41-.18,2.09-.22,2.48.17,2.7-.41,4.25s.24.77,0,2.22c-.68,4.01.57,1.71-.14,5.46l-.56,2.92c-.48,2.51.46.8-.8,5.77-.03.12.11.53.17.65,1.18,2.5-.41,1.2.88,2.84,1.17,1.49.21.38,1.35,3.24.86,2.15-.23,1.5.38,3.24l.39,1.12c.02.06.09.44.09.5l-.03.54c-.04.63-.2.2-.11.91.6,4.89-.76,2.83.16,7.05.14.66.25,1.31.36,1.98l.28,1.74c.78,4.78-.52,4.58-.25,7.29l.24,2.46c.07.71.2,1.58.12,2.19l-.28,2.19c-.2,1.53,1.42,2.36.58,3.05l-.44.36c-.41.33.56,2.21.66,2.35l1.41,2.03c.23.33.7,1.08.92,1.42.47.73-2.02.63-1.45,2.99.11.47.24,1.19-.07,1.53l-.27.29c-.05.06-.32.3-.32.35l-.22,2.24-.23,2.17c-.11.99-.66,2.18-.91,3.23-.22.93-.49,1.95-1.03,2.66l-1.06,1.4c1.22,1.32.17-1.02,2.66.23.27.14,1.06.33,1.11.95l.18,2.09c.2,2.39,1.44,1.91.44,3-.07.08-.29.28-.3.33l-.19,1.16c-.06.36.47.19.58,1.18l.06.57c.02.16.03.43.06.48l.19.39.19.38c.14.27.11.69.1,1.05v.57s0,.57,0,.57v.58s0,.59,0,.59c0,.07-.04.41-.06.49l-.12.45c-.11.41-.2.48-.07.96l.13.48.11.43c.01.06-.18.5-.18.58l-.3,5.42-.03.66c-.04.8-.37,2.21-.55,3.01-.05.23.15.91.08,1.11l-.3.91-.07,1.75-.08,2.02c-.07,1.75.94-.25-.32,4.81-.13.52-.1,1.13-.04,1.72l.2,1.97c.06.6.06,1.2.01,1.79-.09,1.25.51,1.46-.27,2-.56.4-.88,1.08-.6,1.35l.39.39c.05.05.24.27.26.32l.35,1.06c.07.2-.26.96-.26.97l.08,3.28c.03,1.04-.22,2.34.06,3.3.35,1.18.4,1.92.27,3.07-.73,6.5,1.12,5.5.87,6.86l-.37,1.98c-.03.16-.08.61,0,.7l.52.5c.96.92-.5,1.67-.2,1.88l.45.31c.07.05.36.24.44.23l1.05-.17.52-.09c.09-.02.38,0,.58,0h.58s.56,0,.56,0l.52.07.45.11.48.12c.07.02.48.04.56.02l.51-.1.47-.09.45-.07.56-.08.52-.07.46-.07c.13-.02.36-.07.41-.06l.45.11c.11.03.35.08.41.07l.43-.11.48-.12c.07-.02.47-.02.54,0l.48.1.46.1.49.1.51.1c.07.01.31.08.39.11l.45.16c.42.15.46.13.62.48l.2.45.2.45.29-.26.28-.3.28-.29c.33-.36.83-.43,1.4-.36l.56.07c.57.08,1.34.18,1.74.1l.51-.1c.06-.01.38.05.43.07l.42.19c.19.09.76.49.97.49l2.5.06c3.23.08,2.54-1.88,4.75-.19l1.6,1.23.33.26c2.63,2.03.39,1.7,2.44,2.7.09.05.32.16.37.19l.82.58c.4.28.52.69,1.09.64l.53-.05.19-2.99c.05-.77-.56-1.9-.9-4.16l-.34-2.27c-.35-2.32-.61-1.8-.56-3.59l.03-1.04v-2.25c0-.06-.04-.32-.07-.37-.88-1.84.69-1.07.22-3.49-.12-.6-.23-1.28-.18-1.67l.14-1.07c0-.05-.31-.32-.34-.36l-.5-.94c-.03-.06.15-.45.2-.49l.34-.24c1-.7-.45-.31,1.57-2.14.18-.17.76-.4.85-.22l.33.67.2.42.2.4.19.37c.04.07.12.22.11.26l-.12.4-.14.45-.16.52.81,3.78c.03.12.04.55.02.61l-.13.48-.12.47c-.12.46-.08.59,0,.99l.11.49c.03.14.08.39.09.45l.04.57c.01.18.01.44.03.53l.12.46.16.4c.03.06.21.45.21.51l.05,3.21v.62c.01.09-.05.44-.07.51l-.19.56c-.48,1.44.95,1.54.97,2.5-.17.97-.12,1.87.05,2.76l.52,2.75c1.13,5.99-.81,4.48,2.54,6.76,1.46.99,2.37,1.3,2.93,1.96l1.17,1.39c.34.41.71.84.99,1.27,1.38,2.1.53.53,2.23,1.74.36.25.89.69,1.2.8l1.08.41.98.35c.16.06.47-.39.46-.57l-.04-.64c-.01-.17-.03-.5-.02-.6l.13-1.31.04-.39.03-.32.03-.35c0-.07.09-.47.08-.53l-.27-2.03c.04.32.59-.83.01-4.13-.42-2.39-.56-.88-.61-3.18l-.07-3.02c0-.11-.15-.57-.13-.67.05-.34.2-1.11.16-1.43l-.23-1.71-.21-2.33-.22-3.07c-.05-.76-.12-1.43,0-2.17.46-2.84-.84-1.85.22-3.71.09-.16.22-.42.21-.47l-.3-1.14c-.04-.16-.12-.4-.12-.46l-.02-.42-.06-1.66c0-.07.03-.41.05-.45l.64-.97c.7-1.05-.17-1.07.04-2.04.24-1.11.37-1.31.09-2.27l-.54-1.83c-.8-2.72.46-2.94-.37-5.67l.47-.97c.1-.21,0-.76-.11-1.11-.27-.82-.22-1.6-.25-2.44-.16-4.45.64-1.73.49-5.13-.03-.66-.51-.71-.53-1.21l-.3-3.62c.09-.69.82-.57.33-1.22l-.27-.36s-.11-.38-.12-.44v-.58s0-.6,0-.6c0-.14-.02-.39-.03-.56l-.29-4.56-.02-.52c-.01-.27-.27-.78-.23-.98l.45-2.24s-.07-.24-.12-.37c-.65-1.87-.12-2.15-.44-4.89l-.15-1.28c-.22-1.87-.69-2.88.18-4.77.24-.52-.31-1.16-.21-2.91l.12-2.2.09-1.16c.02-.2.1-.58.17-.85l.14-.55c.01-.06-.23-.44-.22-.5l.14-1.15c0,.06.45-.62.42-.78l-.09-.44-.1-.46-.1-.49-.11-.51c-.01-.06-.08-.3-.12-.4l-.14-.39s-.44-.4-.44-.45l.06-4.2.02-3.5c0-1.1-.34-2.36.16-3.35.24-.48.51-1.3.45-1.72-.58-4.36.91-.94-.55-4.25-.1-.23-.22-.92-.21-1.18v-.76c.01-.1.16-.04.4,0l.51.14-.21-.36c-.1-.05-.48-.2-.51-.25-.29-.39-.21-1.5.09-1.87l.45-.56c-2.03-2.3.59-2.59-.45-4.07-.03-.05-.23-.38-.23-.44l-.22-2.23-.17-2.25c0-.1.02-.52.06-.58l.84-1.08c.69-.9-1.18-.76-1.16-3.46v-2c.02-.23-.21-.97-.18-1.2.13-1.02.25-3.05.45-3.38l.24-.4c.03-.05.08-.44.07-.51l-.09-1.59c0-.06-.07-.31-.11-.53-.37-1.77.65-1.05.47-2.36-.47-3.4.06-1.92-.7-4.76-.26-.96-.47-2.56.76-2.97l.73-.24-.05-.4-.79-.73-.31-.28s-.14-.3-.13-.35l.09-.41.11-.47.11-.49.1-.46.11-.48c.02-.07-.03-.43-.05-.49l-.13-.47c-.16-.59-.12-.34-.12-1.02v-.58s0-.57,0-.57v-.57s0-.57,0-.57v-.57s0-.57,0-.57v-.57s0-.57,0-.57v-.56c0-.7.58-1.03.59-1.73v-.57s0-.57,0-.57c0-.09-.05-.44-.07-.51l-.12-.46-.12-.46s.17-.35.21-.37l.43-.17.7-.27-1.3-1.64c-.5-.63-.45-2.23-.37-3.23.2-2.45,1.01-2.19.56-4.56-.82-4.3.62-3.71.22-5.09-.49-1.69-.93-3.85-.22-5.52.91-2.16-.04-.59.15-3.49.01-.19.03-.41.03-.47-.22-2.74.18-1.83.17-5.39,0-.19-.24-.81-.2-.97l.6-2.37c.06-.23.01-.83-.02-1.03-.28-1.51.35-1.82.39-2.88l.18-4.18c.1-2.31-.09-.57.03-2.26.15-2.11-.01-2.84.22-4.32l.35-2.25c.32-2.09-.21.06.21-2.01l.4-1.98c.12-.62.13-1.48.09-2.16l-.11-2.05c-.02-.44-.05-1,.01-1.38l.26-1.64c.07-.42.85-.89,1.41-1.06l.09-.43c-.36-.47-.23-.4-.69-.54l-.45-.14c-.06-.02-.45-.18-.45-.23l-.02-1.84v-.6s0-.59,0-.59c0-.16.02-.47,0-.55l-.12-.47-.11-.46c-.1-.43-.07-.54-.07-1.07v-.58s0-.62,0-.62c0-.69-.02-.38.12-.97l.11-.45.04-.48.02-.61c0-.19,0-.48.01-.57l.11-.47.12-.47c.09-.37.11-.6,0-1l-.13-.46c-.18-.67-.19-.76.07-1.44l.15-.41.16-.43c.02-.06.09-.41.07-.47l-.1-.47-.1-.44c-.01-.06.02-.28.02-.39l.02-.35c0-.06-.03-.25-.04-.4l-.06-.53-.07-.53-.07-.5c-.11-.75-.12-.03,0-.79l.08-.48c.03-.17.06-.44.09-.51l.15-.43.17-.38c.14-.3.28-.39.19-.93l-.08-.49-.07-.4.03-.37c.05-.59.1-.08-.09-.82l-.12-.46-.1-.4c-.09-.33.32-.76.54-.99l.29-.3s.16-.28.15-.33l-.11-.41-.13-.48c-.15-.57.09-1.03.29-1.43l.17-.33s-.04-.29-.06-.32l-.21-.38-.2-.37-.21-.39c-.19-.34-.11-.59.19-.77l.38-.22s.23-.3.23-.36v-.57c.01-.06-.07-.42-.11-.47l-.24-.33-.23-.32-.2-.38c-.08-.15-.12-.85-.1-1.06l.06-.57.05-.46.03-.32c.02-.22.02-.44.17-.65l.56-.76c.28-.39-.8-.43-.92-1.75l-.3-3.17c-.22-2.29-.43-4.33.04-6.63.4-1.96-.57-.59-.04-4.24l.37-2.56.34-2.32c.04-.25.12-.63.2-.87l.49-1.54c.09-.28-.02-1.01-.06-1.31l-.28-2.09c-.14-1.06.46-1.94.35-2.68l-.3-1.98c-.45-2.98-.02-1.82-.02-4.23v-1.37s.05-2.05.05-2.05c.07-3.37-.75-1.22.23-3.99.27-.76.07-1.85-.06-2.79-.52-3.66.87-2.27.16-3.86-.03-.06-.2-.47-.21-.52l-.08-3.55c-.01-.65-.56-1.98-.94-2.56-.05-.08-.31.32-.39.37l-.34.22-.39.19c-.24.11-.75.09-1.05.09h-4.31c-.08,0-.42-.04-.48-.06l-.47-.12c-.26-.06-.49-.21-.92-.03l-.42.17c-.13.05-.35.15-.42.16l-.44.08-.53.08c-.14.02-.48.07-.52.1l-1.04.95c-.41.38-.81.91-1.2,1.4-1.22,1.54-2.95,2.88-2.76,5.11.04.51.37,1.39.57,1.95.7,1.93.25.27.04,1.67l-.39,2.63c-.11.77-.17,1.58-.22,2.36l-.12,1.87-.11,3.12-.21,1.45-.08,4.42c0,.13-.22.54-.33.57l-.46.13-.45.13c-.24.07-.52.24-.63.49l-.21.49-.35-.3-.22-1.7-.27-2.28c-.66-5.53.56-2.23.18-5.8-.17-1.65.05-3.56-.04-3.68-1.66-2.36-.12-.61-1.67-2.67-.21-.28-.93.24-1.16.44l-1.42,1.23c-2.01,1.74-1.38.52-2.64,1.56l-.96.79s-.46.05-.54.06l-.8.18c-.12.03.04.55.13.63l.28.28.29.28.29.28.29.3c.05.05.26.24.3.25l.46.1.58.13-.24.21-.66-.02-.61-.02c-.05,0-.22.23-.23.28l-.05.58c-.03.36-.15,1.09-.5,1.23l-1.38.55-.41.16c-.06.02-.44.1-.51.1l-.59-.03-.6-.04c-1.06-.07-1.72.4-2.1,1.34l-.17.4c-.03.08-.19.39-.2.45l-.2,2-.21,2.43-.05.56c-.22,2.76.42,2.72.02,7.11l-.29,3.19c-.13,1.41-.16,2.07-.73,2.7-.06.06.32.21.37.27l.27.32s.15.38.15.43l.02.58c0,.1,0,.42-.02.5l-.08.57-.23,1.64c0,.06.19.47.2.53l.09.46.1.48.1.46c.03.14.11.4.11.48v.54s0,.58,0,.58v.58s0,.57,0,.57v.57s0,.58,0,.58v.54c0,.08-.08.35-.12.48l-.12.47c-.1.39-.1.6,0,1l.13.47c.18.65.15.29,0,.89l-.12.47c-.02.06-.02.35-.04.51l-.04.58-.04.51c0,.09-.08.31-.11.45l-.11.47v.54s0,.59,0,.59v.58s0,.57,0,.57c0,.72-.58,1-.58,1.72v.57c-.03,2.65.64,1.46.11,4.49l.53,1.28c.18.43.06,1.35.09,1.9.2,3.91-.44,3.71-.07,7.68.19,2.1.35,2.84.12,5.18l-.22,2.31-.15,1.57c-.06.62,0,1.42,0,2.07-.01.74-.09,1.54.01,2.23.4,2.78-.3,2.86-.63,6.11-.12,1.18-.21,2.21-.43,3.34-.04.19-.19.72-.13.87l.77,1.78c.01,1.23-.03,2.78.11,3.93s.23,2-.32,3.06c-.88,1.71.55.96-.05,2.15-.5.99-.36,2.1.01,3.15.44,1.24.15,2.66.04,3.99-.1,1.18-.21,2.2-.47,3.34-.65,2.83.36,1.4-.1,3.69-.12.6.2,1.22.36,1.9.22.96.06,2.31.22,3.28l.32,1.99c.07.46.11.99.15,1.53.18,2.6.77,3.16-.36,4.57-.13.25.32.87.62,1.29l-.18,2.69c-.02.3.21,1.12.21,1.42l.07,13.73c0,1.32.47,2.51-.26,3.87-.24.45.04,1.53.19,2.12.6,2.4.08,2.95.39,5.69.28,2.53.01,5.75-.47,8.26-.16.82-.04,1.54,0,2.43.13,3.18.1,6.63.07,9.83,0,.28-.34,1.01-.36,1.27l-.09,1.23c-.13,1.77.66.44.34,3.15-.04.3.06.88.09,1.3.31,4.19-.79,2.94.09,5.94.53,1.79.01.33-.04,2.87-.02,1.1,0,2.13-.09,3.15l-.22,2.6-.14,1.35c-.26,2.58,1.39-.35.3,4.77-.43,2.02.2,2.68-.53,6.65l-.1.52c-.12.65-.09,1.56.03,2.3.67,4.02-.75,3.1.24,4.77.52.87-.09-.28.12,1.71.42,4.15-.87,1.45.25,5.26.08.29,0,.9-.13,1.21-1.26,2.86.4,3.53.13,5.42l-.08.57-.19,1.4c-.44,3.23.77-.33.23,4.1-.35,2.92.47,2.49-.08,3.28l-.28.4-.22.34c.97,1.14,1.03,3.12.65,4.66-.42,1.67-.1,1.45.37,2.44l.2.42c.52,1.11.38,1.8.32,2.67l-.09,1.28c-.14,2.04.38,1.34.2,2.98l-.21,1.96c-.07.66.26,1.49.26,2.22v2.31s.26,1.59.26,1.59c.08.51-.11,1.37-.39,1.9-.58,1.06.22.74.3,1.5l.12,1.07c.07.65.53.8.52,1.52l-.04,3.93c-.01.92.12,1.59.57,2.32,1.23,2.01.22,2.81.18,4.59l-.04,1.71-.08,1.68c-.04.8.05,2.02-.15,2.7l-.72,2.38c-.07.23-.56.66-.76.76l-1.22.57c-.52.24-1.72.16-2.36-.02l-1.34-.38s-.59-.96-.59-.99l.11-.84c0-.05.14-.3.2-.41l.2-.39.2-.4c1.29-2.56,1.31-3.11,1.69-5.71l.33-2.19c.15-.98-.48-.65-.38-2.1l.11-1.56c.02-.25-.05-.85-.06-1.08l.07-2.91c.02-.99.07-2.07-.02-3.1-.05-.58-.22-1.42-.06-1.82,1.05-2.55-.36-.51-.47-5.66-.05-2.31-.36-.36-.09-2.36.07-.51.13-1.14.03-1.48-.81-3.01.82-2.66.59-3.74l-.1-.48-.11-.49-.09-.47c-.01-.06-.17-.25-.24-.35l-.24-.35c-.74-1.09.25-2.99-.36-6.21-.16-.86-.36-1.89.18-2.37l.38-.33c.1-.09,1.34-1.28.88-.97l-.58-.33-.37-.21s-.29-.22-.3-.27l-.13-.43-.14-.48s-.05-.31-.03-.35l.29-.52c.08-.13.41-.41.36-.53l-.28-.6c-.05-.1-.17-.37-.17-.42v-.54c-.02-1.17-.04-2.33-.32-3.37-.66-2.46.03-.2-.18-2.62l-.05-.57-.21-2.58c-.13-1.6-.68-.53-.25-1.84l.16-.49c1.23-3.71-1.44-4.24.11-4.75,1.46-.48-.82-2.42-.35-4.25.64-2.47-.62-2.84-.41-3.81s.97-1.49.5-2.7c-.8-2.04-.4-.11-.24-3.06.2-3.72-.55-4.27-.12-6.67l.7-3.91c.12-.66.05-1.73.07-2.5l.05-2.03c.1-3.9.84-2.5.08-3.8.9-3.49-.51-1.14-.46-6.12.01-1.08.88-.79.51-2.77l-.73-3.9c-.07-.4-.07-1.18-.14-1.65-.18-1.3-.17-2.47-.02-3.75l.31-2.64c.04-.35.2-1.08.27-1.46.28-1.35-.9-.73-.35-3.12l.56-2.43c.18-.77.2-1.7.05-2.49-.59-3.16.49-2.56.07-6.37l-.29-2.66c-.02-.16-.06-.41-.08-.51l-.12-.48c-.01-.06.21-.57.21-.64l.02-3.97.04-2.08c.05-2.75-1.26-2.07-.29-3.71s-.34-2.69-.31-3.65c.08-2.99.47-2.31.21-4.2-.06-.45-.08-.93.08-1.16l.3-.43c.04-.06.06-.46.03-.52-.87-1.84-.44-.77-.7-2.8-.4-3.1.64-1.48-.12-3.75l-.48-1.45c-.51-1.52.71-1.3.27-3.25-.32-1.42,0-2.57.35-4,.16-.65.09-2.01.1-2.71,0-.74,1.27-1.98.2-3.67-.18-.29-.14-1.01-.08-1.4.56-3.54-.51-2.62.95-5.63.23-.46-.12-1.5-.34-2.1-.57-1.57.51-1.54-.03-2.76-1.41-3.14-.53-2.16-.91-5.13-.46-3.63.78-2.93-.04-6.84-.28-1.32.93-1.07-.04-4.8l.63-1.97c.64-2.01-.36-.64.1-2.93l-.09-1.33c.67-3.35-.25-2.24-.06-6.04.04-.8.95-2.07.45-2.51l-.69-.6c-.07-.54-.32-1.61-.27-2.07l.3-2.75c.04-.38.07-.93.03-1.21l-.35-2.59-.17-1.28c-.08-.61.86-2.37.88-2.78.1-1.82.09-3.86.1-5.58,0-.32.48-1.06.44-1.33l-.4-2.69c-.07-.5-.08-1.23-.16-1.59l-.56-2.39c-.28-1.19-.17-2.53.02-3.76l.25-1.63c.1-.67.05-1.38-.07-2.15l.13-1.16c.32-2.83.91-1.94.34-2.98-.03-.06-.23-.39-.23-.45l-.22-1.94-.19-1.67-.14-1.29c.27-.51.62-1.35.5-1.75l-.57-1.87c.09-1.62,2.07-5.1,1.54-5.7l.39-1.23c.09-.28.02-1.15-.19-1.36-1.1-1.09-2.34-.29-4.64-.67l-3.45-.58-2.82-.57c-1.84-.37-3.8-.45-5.68-.1l-1.76.33c-.73,0-1.53-.01-2.28.11l-1.8.29c-.16.03-.71-.36-.87-.34-3.41.36-2.51-.52-3.92.03-2.41.94-3.99-.44-5.53.2l-1.87.78c-2.34.97-2.03-.92-3.48.54-.78.79-.43-.17-3.29-.04l-3.97.17c-.82.04-1.78.25-2.61.19l-2.54-.17c-1.28-.08-1.37.65-4.67.29l-1.65-.18c-.95-.11-1.07-1.19-1.28-1.06l-.42.27s-.39.19-.44.19l-2,.21-1.57.17-1.55.16-4.41.21c-.48.02-1.5.35-1.87.11l-1.14-.73-.6.52c-.29.25-1.35.09-1.43-.3l-.29-1.53-.51-.08-.19.77-.13.48c-.02.08-.11.33-.13.38l-.27.54-2.51-.24c-1.26-.12-.16.86-2.7-.19-.29-.12-1.16.11-1.48.09l-3.39-.23c-.74-.05-2.1-.36-2.75-.48-.73-.14-.02.25-1.36.11-.81-.09-3.75-.28-4.42-.27l-4.52.03-1.96-.02c-.25,0-.71.16-.98.35-1.83,1.33-1.58-1.66-5.74-.1-1.03.39-5.43.57-6.74.36l-3.65-.6-1.55-.2-3.8-.68c-.42-.07-1.16-.67-1.41-.86-.96.28-2.2.49-3.24.42l-1.23-1.23-2.98.63c-.73.16-1.76-.24-2.61-.35-1.18-.15-4.6.71-6.63.3-3.1,1.2-2.99.32-4.51.8-.66.21-1.17.39-1.8.42l-3.2.19-3.68.2c-1.32.07-2.67.36-3.98.23l-2.62-.24-2.24-.21c-3.44-.32-.27.82-4.15-.58-.33-.12-.85-.26-.99-.44l-.69-.97c-.16-.22-.87-.11-1.1.04-1.55,1.03-1.25-.43-4.27.22l-1.6-.3c-.76-.14-1.61-.02-2.45.05-1.75.15-3.52.13-5.31.04-.52-.03-1.53-.41-1.84-.09-.4.4-.85.76-1.26.76-2.18-.02-4.03-.14-6.07.06l-2.87.28c-1.48.15-2.82.15-4.28.09-1.17-.05-2.64.32-3.78-.07-3.18-1.07-2.19.07-4.81.08-3.33.02-2.47-.33-5.9-.13-2.46.14-.82-.79-2.52-.1l-1.59.65c-1.98.8-1.81-1.02-5.45.76l-2.73.1-1.21.24c-1.69.33-4.77-.46-5.82-.16-2,.56-3.79.74-5.85.83l-2.54.11c-.82.04-1.94.34-2.85.45l-2.31.28c-.74.09-1.53.19-2.27.21l-2.4.07c-.67.02-1.75,0-2.45-.1l-3.75-.54c-1.48-.21-2.9-.69-3.22-.67-.27.01-1.11.2-1.28,0l-1.55-1.85-3.64-.07-1.45-.02c-.57,0-1.17-.06-1.74-.12l-2.49-.24c-2.74-.26.02.93-3.86.19-.37-.07-1.13.08-1.67.14-3.66.44-2.89-.51-6.16-.12-.34-.07-1.12-.29-1.47-.31l-2.85-.15-2.67-.19c-1.66-.12-.62-.92-2.16-.86-1.04.04-2.08-.08-2.79-.63-1.19-.91-.09-.36-2.67-.45l-4.8-.18c-1.03-.04-1.83-.11-2.81.15l-2.82.75-2.3.58c-.67.17-1.38.29-2.11.39l-2.1.3c-.44.06-1.16.11-1.67.14l-4.19.18c-2.29.1-1.12-.19-3.8.1l-2.1.22-1.32.69c-.56.29-1.99.07-2.57.28-3.72,1.32-3.49-1.86-6.24-.51l.04,8.54.03,1.79c0,.37.16,1.22.21,1.63-.43,1.87-.36,3.48.15,5.3l-.3,2.87c.39.84.47,1.93.24,2.73,1.05,3.86.15,3.75.24,6.61l.07,2.13c.07,2.12-.23,3.04-.05,6.37.14,2.51-.15,1.99-.13,4.35.03,4.44.43,3.28.18,7.96l-.18,3.42c-.04.71-.45,1.82-.42,2.41l.08,1.59c.03.54-.03,1.16-.06,1.75l-.18,3.4c-.03.58-.22,1.55-.38,2.12-1.09,3.84.35,1.91-.21,6.11-.2,1.49-.16,2.83-.1,4.28l.05,1.51.07,1.67.15,2.55.19,2.59.23,2.6c.43,4.96-.94,2.35-.4,4.67l.85,3.69s-.65,3.56-.26,4.86l.55,1.87c.16.55.2,1.64.13,2.14-.36.28-.68.47-.8.66-.34.59.83,1.95.82,2.43l-.02,3.59c0,.41-.6,1.41-.53,1.8l.51,2.82c.54,3.01-.5,7.87-.38,8.4.17.74.2,1.68.09,2.37l-.28,1.78-.35,2.27c-.44,2.81.33.45-.22,4.88-.09.77-.46,1.83-.41,2.44.08.96.1,1.63.02,2.47l-.23,2.21c-.05.46-.03,1.01,0,1.5l.21,2.81c.08,1.11.12,2.11.13,3.23,0,.63.19,1.5.27,2.21l.28,2.59.14,3.4c.03.73.39,1.83.41,2.52.04,1.3-1.06,1.54-.06,3.41.52.97-.29.64-.38,1.81l-.2,2.48.12,1.17.19,2.55c.13,1.8-.36,11.66-.1,13.04l.25,1.28c.11.58.13,1.52.11,1.97l-.08,2.11c-.06,1.42-1.07,1.67-.88,2.06l.35.73c.21.45.39,1.4.41,1.92l.03,1.05c.09,3.28-.31.51-.1,4.35l.11,2.12c.07,1.29.09,2.66-.03,3.9l-.2,2.08-.18,1.8c-.12,1.25-.32,3.11-.52,4.24-.04.24-.45.87-.41,1.1.12.7.28,2.05.3,2.79l.06,1.73.08,1.75c.05,1.05.03,2.07-.1,3.15l-.31,2.63c-.29,2.42.3,2.38-.38,4.56-.05.17-.02.52-.02.92l.05,6c0,.63-.58.42-.47,1.19l.17,1.14-.43.46.21,1.31.28,1.8c.05.34-.5,1.14-.46,1.47l.2,1.92c.11,1.02.21,1.98.16,2.94l-.15,2.58c-.03.51.19,1.48.32,2.15.15.85,0,1.77,0,2.65.04,2.07.42,3.74.46,5.69.02.83-.33,1.76-.22,2.61l.44,3.3c.07.54-.11,1.14,0,1.43.78,2,.79,2.54.98,4.62l.2,2.31.25,2.31c.08.74-.01,1.46-.4,2.12-.91,1.54.56.84.07,4.34-.27,1.95-.58,3.23.63,4.9.58.8,1.28.99,2.14.72.44-.13,1.37.02,1.78-.04l2.12-.3,2.05-.28c.6-.08,1.35-.25,1.92-.29l2.34-.18c1.25-.1,3.49,1.02,5.67-.03.93-.45.43-2.01.57-2.75l.74-3.98-.45-1.99c-.05-.23.15-.97.18-1.21-.82-4.39.73-3.41.2-6.28-.1-.54-.25-1.4-.21-1.86l.19-2.38.21-2.59c.1-1.33,1.04-.18.72-1.58-.88-3.84,1.44-4,.84-6.22-.19-.71-.22-1.91.08-2.44,1.52-2.61-.2-1.94,1.24-3.36.24-.23.54-.6.48-.78l-.36-1.15-.16-.53c-.06-.19.26-.59.45-.67.03-.01.32.06.35.04l.28-.16c.75-.43-.2-2.01-.29-2.32l-.53-1.76c.54-.35.7-.31.87-.77l.46-1.3c-.14-.35-.5-1.15-.49-1.5l.09-3.45.09-1.46c.02-.33.25-1.05.29-1.37-.42-2.25.28-.81.22-2.15l-.11-2.48c-.02-.48.09-1.27.2-1.74l.45-1.89c.32-1.37-.13.21.03-2.12l.12-1.71c.07-.96.42-1.66,1.29-2.23-.19-.94-1.43-1.48-.8-3.24,1.22-3.38,1.07-1.61.9-4.07-.1-1.46.69-3.16.9-4.67.13-.97.2-1.84.49-2.7,1-2.97,2.81-2.47,4.6-3.4l3.25-1.68c1.25-.65,2.23-1.19,2.32-2.5l.19-2.59.22-4.21c.04-.85.1-1.54-.02-2.42-.55-4.1,1.2-3.34.62-4.83l-.66-1.7c-.37-.94.86.46.4-3.55-.08-.74-.09-1.41-.11-2.13-.08-3.52.56-2.8-.23-4.39l.38-2.2c.11-.63.09-1.56.24-2.11.52-1.91.42-4.16.24-6.08-.04-.43.46-1.2.6-1.65.67-2.17-.69-1.67.65-5.04,1.03-2.58-.29-.9-.03-3.72.38-4.01-.47-4.22.01-6.27,1.38-5.88.64-3.05.96-7.93.06-.91,2.06-1.23,1.75-2.15-.25-.72-1.53-1.17-1.24-1.99.5-1.4,1.31-.37.69-3.04.18-.48.5-1.22.64-1.72l.59-2.03.19-1.93.25-2.59.77-1.11.12-2.01c.03-.5.7-1.5.65-1.98-.16-1.62-.64-2.19.95-3.3.09-1.53-.11-3.65.17-5.24.24-1.34,1.23-2.63,1.29-4.03.02-.65.1-1.48.32-1.9l.91-1.77c.21-.4.24-1.43.37-1.88l1.46-2.33c.32-.51.86-1.09,1.12-1.66,1.16-2.56.52-.06,1.92-3.07.6-1.29.74-.4,2.66-3.01.89-1.2.84-.02,2.68-1.27s.64-1.75,6-2.51c.65-.09,3.01,0,3.87-.51l2.26-1.34c.85-.5,1.53-.88,2.33-1.47.39-.29.98-.55,1.49-.76l2.25-.92c2-.82.65,2.38,5.81-1.87.71-.59,1.15-1.32.84-2.32l.96-1.18-.14-2.28c-.05-.86.14-1.91.35-2.75l.68-2.72c.24-.97.54-2.17,1.05-2.95.67-1.04-.46-.1.18-3.55l.46-2.48.95-3.91c.56-2.3.16-2.98,1.38-6.62l.7-2.09c.09-.27-.2-1.15-.19-1.28.78-1.06,1.49-3.23,1.83-4.51.21-.81.21-2.12.65-2.74l1.43-2.02,1.6-2.71c.26-.44.53-1.33.86-1.61.45-.39.81-.78.91-1.11l.49-1.58c.99-3.2,2.53-4.29,5.56-6.16l1.72-1.06c.65-.4,1.38-.68,2.08-1.12,3.1-1.94.21.65,3.52-2.46l1.37-1.29c.36-.34,1.6-.26,2.08-.41l2.24-.69c.46-.14,1.79-1.49,3.18-1.6l2.97-.24,3.09-.61c.65-.13,1.22-.02,1.78-.42.69-.5,1.37-.55,2.22-.72l1.94-.39c.85.23,1.47.38,2.38.55,2.5.47,1.98,1.84,6.45.7,1.04-.26,1.85-.27,2.81.31,1.02.61.77-1.59,2.22-.61.74.5,1.36.47,2.07-.08.61-.46,3.24-.71,4.35-.58,1.03.13,1.93.07,2.93.07h2.56s2.63.11,2.63.11c1.01.05,1.98.81,2.75,1.44l1.46,1.2c.33.27,1.19.7,1.52.93.37.56.72,1.07,1.11,1.5l1.43,1.58c.29.32.4,1.08.58,1.63l.89,2.79c-.37,1.42.29,1.89,1.41,3.23.32.38.68,1.24.97,1.85.75,1.55,0,.6.79,4.02.26,1.12.43,2.98.11,4.01l-.47,1.57c-.42,1.4.13,3.34-.2,4.7-1.15,4.7-.35,3.08-1.11,7.19l-.54,2.92-.65,2.64c-.18.72-.27,1.67-.67,2.17-.52.66-.62,1.13-.48,1.85l.31,1.6c.57,2.89-1.91,2.04-.68,6.08-.54,3.99-1.34,1.76-1.03,5.16l.28,3.02c.07.74.17,1.55-.31,2.07l-1.57,1.69c-.4.43-.85.77-1.4,1.16-.65.46-1.57,1.39-2.24,1.56l-3.62.88c-.42.1-.93.02-1.76-.17l-.43.49c2,1.64,2.02,3.59,1.62,5.84l-.58,3.17c-.9,4.97.38,1.59-.27,5.99l.27,1.77c.63-.44,1.03-.78,1.36-.88l1.77-.57c2.61-.84.06-.51,4.19-1.9,1.65-.55,2.45.36,2.92-1.32.03-.13.32-.46.37-.36l.29.62c.73,1.53,2.74-.84,4.09,1.27.49.77-1.42,2.8-2.8,3.2l-2.94.84c-4.01.56-2.82-.29-6.41,1.9-1.32.81-.42,2.46-2.15,3.21-2.33,1.01.5,0-3.07,1.9-1.35.72-1.29-.49-3.3.09-.19.03-.36-.57-.4-.96l-.21-2.38c-.07-.84-.1-2.19-.13-3.1-.04-1.14,1.88-.92,1.99-1.97l.27-2.59c.35-3.33-.35-3.78-.3-4.9l.11-2.84c.02-.64-.24-1.83-.12-2.39l.53-2.6c.04-.19.1-.83-.08-.82l-.65.03c-.6-.04-4.54-2.18-3.73-2.6l.74-.39c.29-.15.63-.77.79-1.28.35-1.1,1.84,1.24,2.39,0,.81-1.85,2.71-.57,3.56-1.3,1.98-1.68,2.88.75,4.16-2.2l.76-1.75.85-2c.68-1.6-.57-1.36.08-3.59s1.93-2.28.96-3.95c-.84-1.44.42-1.69.56-3.11l.23-2.33.17-3.13c.04-.69.99-1.91,1.22-2.5-.22-1.09-.22-2.02.27-3.05l.25-1.82c.12-.87.09-1.76.06-2.64-.02-.54.37-1.62.38-2.21l.05-2.55c.02-1.2,0-2.14.47-3.31l-.71-2.86c-.97-3.92.42-3.58-1.14-5.17l-.16-2.04-1.76-1.89-.88-2.66c-.19-.58-1.93-3.45-1.79-3.34l-1.29-1.03c-.38-.3-.93-.58-1.42-.86l-1.93-1.13c-4.23.21-2.88-.98-4.67-.46-.9.26-2.21-.11-2.94.03-1.16.23-2.07.42-3.23.49s-4.11.55-5.31.81l-1.5.33c-.94.21-2.26.36-3.04-.2-2.94-2.14-2.28-1.32-4.59-.71l-5.91,1.56-2.32.24c-.7.07-1.22.39-1.88.41-.97.03-1.48.44-2.27.88-2.9,1.62-3.33,1.07-5.71,2.86l-1.81,1.36c-3.7,2.78-4.12,1.23-6.17,4.08-.37.51-.73,1.07-.96,1.61-2.23,5.17-1.03.9-2.7,4.5-.6,1.28-1.82,3.57-2.62,4.39l-1.22,1.25c-.17.18-.39.62-.48.89-1.24,3.49.32,1.93-2.27,8.83l-.79,2.1c-.2.52-.4,1.16-.54,1.7l-.61,2.3-.57,2.01c-.17.59-.3,1.18-.42,1.82l-.81,4.05c-.16.82-.57,1.97-.5,2.68.23,2.25.07,4.16-.98,6.15-.79,1.5.45.82.68,3.64l.24,2.93c.08.94-.47,2.19-1.51,2.14-.59-.03-1.34-.05-1.82.22-5.88,3.37-4.52.62-6.29,2.34-1.14,1.11-.08.06-2.74,1.21l-3.83,1.65c-1.7.73-1.23,1.17-5.03,2.63s-2.15,1.4-4.9,1.38c-.81,0-1.94,1.07-2.74,1.57-2.36,1.47-2.51.18-3.47,1.62l-1.49,2.25c-.5.75-.97,1.75-1.8,2.25-.62,1,.81,1.65-.22,2.33-.94.62-2.32,1.73-2.37,2.97l-.19,4.24c-.48.61-1.22,1.57-1.62,2.28l-1.04,1.89-.69,1.01.47,2.42c.06.33-.43,1.21-.44,1.57l-.06,3.13c0,.39-.04,1.09-.11,1.44l-.64,3.17-.13,3.62c-.05,1.29-2.13,4.62-2.13,4.63l-.12,2.24-.96,5.06-.03,1.32c-.02,1.02-.66,2.63-.22,3.74.51,1.27.37,2.35.21,3.65l-.33,2.58c-.19,1.53.36,2.28-1.23,4.46l-.57.78c-.12.17.52.68.54.89.07.86.09,2.53,0,3.44l-.14,1.46-.17,1.79c-.12,1.26.09,2.47-.12,3.71l-.55,3.26c-.47,2.76.72,1.76-.03,4.79ZM20.68,519.08c-.27.82.2,4.4.27,4.63.26.93.63,1.97.73,2.88l.21,2.12c.1.97.49,1.95.76,2.9l.67,2.3c.67,2.28.07,4.02.98,3.93.62-.06,1.87-.44,2.35-.7l.33-1.47c1.56-.45,1.77-1.86,2.49-3.01,1.76-2.82,3.84-2.52,3.64-5.71-.23-3.53,1.02-3.01,1.09-5.47l.08-2.59c.02-.65-.2-1.56-.23-2.25l-.13-3.34c-.04-1.05-1.52-1.76-1.18-2.6l.3-.77c.27-.69.34-1.54.39-2.47.09-1.84.71-.56.48-2.71l-.22-2.09-.13-1.39c-.51-5.51.91.54-.85-7.64-.36-1.69.58-.6-.21-2.05-.37-.69-.47-1.38-.37-2.08l.27-1.93c.47-3.38-.66-1.81-.34-3.41.62-3.14-.44-1.13.06-3.87l.4-2.2c.35-1.91-.42-.29,1.03-3.06.55-1.06-.42-.96-.65-1.79l-.34-1.24c-.09-.34.25-1.04.5-1.4,1.07-1.51-.77-1.75.51-4.83l.52-1.25c.05-.11.12-.64.02-.7-1.79-1.22-.15-3-.24-5.09-.03-.59-.32-1.74-.03-2.18.49-.73.54-1.66,0-2.26l-.25-1.28c-.23-1.21-.14-3.12,0-4.39.38-3.49.21-1.14.78-4.49.72-4.23-.82-2.04.29-5.27l.69-2.02c.13-.37-.14-1.04-.45-1.45l.73-2.54c.22-.77-.87-2.16-.76-3l.42-3.32c.1-.75-.16-1.51-.01-2.15l.58-2.56c-.25-.54-.86-1.62-.99-2.19l-.45-1.93c-.13-.58-.17-1.41-.23-2.17-.3-3.9,1.31-2.97,1.21-3.61l-.13-.87c-.03-.21-.02-.76,0-1.02.08-1.27-.86-.32-.49-2.22.27-1.36-1.13-.46-.32-3.72.14-.57.27-1.13.34-1.65l.19-1.39c.03-.22,0-.76-.13-.97-.92-1.44.42-.85.06-2.28l-.49-1.94c-.45-1.77-1.02-3.57-.63-5.34-.67-2.84,1.35-1.02.05-3.66-.74-1.5-.96-2.97-.68-4.68l.42-2.57-.71-2.05.37-2.46c.51-3.37.37-3.63.92-6.95l.53-3.21c.34-2.07.07-4.04-.29-6.14-.61-3.63,1.33-1.76.82-5.26l-.37-2.55c-.1-.7-.03-1.7.06-2.47.46-3.59-.99-.76.94-4.33-.47-1.81.24-3.78-.07-4.75l-.63-1.93c-.82-2.54.22-1.75-.13-6.16l-.21-2.62c-.06-.76-.19-1.34-.44-2.12-.68-2.06.97-3.29.3-5.42-.53-1.69-.87-4.14-.62-5.79-.07-.34-.35-1.15-.36-1.51l-.05-4.79-.22-1.21c-.18-1-.03-2.33-.16-3.31-.15-1.19-.17-2.01.24-3.08l1.21-3.22c-.48-.75-.7-1.71.08-2.42.99-.9-.74-.89-.62-2.17l.18-1.93.11-1.16c.14-1.44.37.17.1-1.77l-.17-1.22c-.06-.41.04-.82.31-1.22.08-.11.18-.44.22-.57l.3-.99c.49-1.65-.8-.66-.66-2.23l.13-1.49c.06-.71.03-1.35-.07-2.13-.51-4.15.45-2.97.37-4.18-.03-.51-.05-1.53-.07-2.15-.14-3.53-.57-.05-.14-4.41l.26-2.63c.41-4.23-.94-5.18.37-7.99.13-.28.27-.72.09-.84-1.61-1.15.08.03-.54-3.46-.12-.65-.34-1.67-.2-2.15l.61-2.12c.07-.24-.27-.78-.49-.81l-.95-.09c.04-.65.08-1.4.22-2.05l.4-1.9c.05-.22-.32-.68-.53-.93-1.16-1.44-.05-.9-.98-2.64-.14-.26-.39-.76-.36-.97.16-1.33.54-2.49-.37-3.2-.46-.36-1.36-.98-1.66-1.39-.4-.56-1-1.11-1.6-.81-.38.19-.39,1.03-.36,1.5l.12,1.95c.05.73-.68,1.89-1.12,2.51-.7,1.01.33.38.14,2.9l-.27,3.53c-.04.47-.46,1.37-.46,1.87v2.94s-.03,4.38-.03,4.38c0,.85.28,2.06.22,2.86-.12,1.58-.07,2.87.02,4.39l.19,3.12c.17,2.84.72,2.72,1.16,3.82l.78,1.99c.12.31.11.94.04,1.38-.56,3.67.8-.19-1.08,4.66-.15.39-.1,1.29-.1,1.91s-.31,1.44-.43,2.1c-.52,2.93.34,3.97-.62,6.69l.59,3.4c.11.65.05,1.36.05,2.06,0,4.2.97,1.47-.05,6.07-.52,2.34.49,3.65-.77,5.89l-.58.25-1-2.12c-.11-.24-.75-3.89-.76-3.97l-.33-2.85c-.09-.78-.37-1.34-.32-2.02.12-1.49-.25-3.24,0-6.11l.2-2.31c.06-.65-.02-1.63.14-2.13,1.15-3.69-.36-4-.13-5.31l.52-2.93c-.39-.54-.7-1.03-.91-1.49l-.88-1.95c-.12-.26-.19-.99-.08-1.22l.74-1.62c1.27-2.8-.94-2.03-.41-3.69,1.12-3.5-.32-2.65.25-4.08l.69-1.72c.41-1.03.48-2.12-.08-3.1-.26-.46.31-3,.34-4.16l.1-4c.07-2.89-.48-2.3-.2-6.79.02-.4.06-.9.03-1.19l-.2-1.69c-.08-.68-.06-1.39-.08-2.08l-.06-1.99c-.08-2.58-1.64-1.52-1.83-4.19l-.52-.98c.07-.51.28-1.54.54-1.93l.85-1.26-1.61-1.97c-.47-.58-.8-1.22-1.11-2.04-.27-.73-1.51-1.39-1.83-1.99-.37-.7-.61-1.52-1.17-2.08-1.26-1.28-1.25-2.72-1.98-2.27-.17.1-.49.54-.51.73l-.22,1.84c-.35,2.95.95,1.46-1.05,3.6-.32.34-.21,1.16-.32,1.69l-.39,2-.23,2.36-.15,3.32c-.02.5-.49,1.49-.64,1.97-.34,1.05.2.08.29,1.9.03.58.05,1.35.12,1.77l.32,1.85.39,2.53c.51,3.24-.75,1.65.21,3.42.12.22.28.92.22,1.18l-.54,2.38c1.56,2.37-.67,2.58.71,4.33l.21,1.24c.11.64.16,1.34.21,2.04l.18,2.62c.12,1.67.09,3.67.12,5.33.05.26.48,1.01.49,1.26l.08,2.52,1.11,1.71c.25,2.14-.39,4.42-.3,5.7l.19,2.6c.05.66-.81,1.82-1.01,2.52l-.95,3.2c-.11.36-.04,1.21-.07,1.61l-.11,1.84c-.21,3.63-.96-.34.05,4.45l1.05,1.02c.16,1.3-.38,3.84-.74,5.21-.8,3.04-.12,1.61-.61,4.47l-.29,1.7c-.49,2.82-1.39,1.37-.75,3.98l.57,2.34c.2.8.23,3.32-.09,4.25-.42,1.24-.56,3.28-.61,4.6-.02.5-.42,4.22-.54,4.5-.76,1.87.54.17.37,2.57l-.14,2c-.04.53-.22,1.52-.19,1.99.12,1.55.06,3.02,0,4.59l-.17,3.99c-.02.42-.25,1.18-.29,1.66l-.29,3.48-.44,3.1-.27,3.21c-.27,3.25-.6.2-.54,4.18l.03,1.93c0,.67-.45,2.03-.65,2.72-.29,1.02,2.09,1.5.04,5.23-.35.64.07,1.29.56,1.91.4.51.12,1.8,0,2.6-.46,3.12.43,1.86.03,4.55l-.34,2.27-.29,2.01-.11,2.78-.31,2.3-.33,2.26c-.11.76-.07,1.48.07,2.33l-.72,1.59c-.23.51-.29,1-.23,1.57l.28,2.48c.34,3.1-.02.56-.64,4.69-.22,1.49,1.51,2.19.46,3.27-1.13,1.16-.18.29-.41,2.69l-.21,2.26-.25,2.02c-.07.52-.04,1.11-.01,1.72l.14,3.33c.02.4.52,1.25.59,1.55l.06,3.14c.02.84-.1,1.86-.14,2.85-.06,1.45-.95,1.55-.42,1.92.47.33.93,1.45.58,2.1l-.76,1.42c.68.46.89.75.89,1.32v5.12c.01.25.3.96.21,1.17-.31.73-1.33,3.28-1.16,4.09l.47,2.22c.15.71-.42,2-.43,2.84-.01.64.25,1.58.21,2.04l-.24,2.53-.26,2.32-.19,1.66c.28,1.32.26,2.47-.02,3.82l.38,2.31c.07.41-.49,1.26-.5,1.68-.01.49-.03,1.39.04,1.88l.39,2.82-1.22.79c.31.24.82.56.85.76.46,2.95-1.25,3.56-.29,7.96l.41,1.87c.14.62-.36,2.69-.32,4.77,0,.46.1,1.21.06,1.64l-.2,2.28-.2,2.29-.13,2.01s.26,3.26.26,3.18c-.06,1.04-.21,2.3-.18,3.38.06,2.22.1,4.35-.06,6.51-.08,1.04,0,1.95,0,3l.1,10.78-.05,1.48v3.16s.05,2.22.05,2.22c.05,2.95.19,1.32.21,4.62v3.43c.02,1.3-.04,2.59-.09,3.95l-.21,5.68c-.04,1.21-.2,2.3-.03,3.48l-.33,1.07c.58,2.56-.56,1.54.04,4.63l-.23,1.3-.37,2.1c.16,1.45.22,2.52-.15,4.03l1.22,1.35c1.49.17,2.87.04,4.14-.59l2.17-1.08c.55-.27.1-1.87-.25-2.36-1.56-2.17,1.29-2.66,1.55-4.28l1.1-.85,1.51-1.93c.46-.59.86-1.45,1.53-1.88.87-.56,2.15-1.02,2.62-1.98.39-.8-.64-2.25-.96-2.92l.74-1.63c.37-.82.42-1.93.26-2.88l-1.99-.22.45-1.79.46-1.74c.16-.6-.32-1.45-.66-1.95l.5-4.12c.06-.52.28-1.54.14-1.99l-1.05-3.25c-.16-.5.13-1.63.18-2.19l.26-2.61.18-2.81.33-3.41-.07-1.5c-.04-.77.46-1.74.82-2.56.25-.57.11-.9-.18-1.59-.63-1.48.67-3.38-.01-5.93-.96-3.59.14-.71-.85-4.02-.72-2.4,1.04-2.45-1.72-5.16-.45-.45-.66-2.03-.29-2.55l1.1-1.57c2.23.01,2.7.98,3.26,2.87l.46,1.56.64,2.59c.06.24.25.77.33.99-.25,1.33-.17,2.6,0,4.02l-.68,3.23c.05.27.51.98.43,1.24l-.42,1.5-.05,1.69-.09,3.31-1.02.39c-.39,2.1.7.4.56,2.91-.08,1.41-.09,2.8-.03,4.24.02.47.15,1.31.04,1.67l-.53,1.63ZM335.49,429.91c1.31,1.04,2.55.85,3.91.41l1.96-.64,1.41-.35c1.66-.65,4.57-.94,6.39-.86,2.76.11,3.12.55,4-.38.16-.17.51-.83.33-.96l-.82-.6,1.21-1.51c.41-.51-.03-1.91,0-2.56l.07-1.77.17-2.57c.08-1.11.42-3.14-.53-4.06s-.79-1.95-.35-3.03l.68-1.65c.56-1.38-.73-.48-.32-2.51.16-.8.37-1.74.38-2.42l.03-2.1c.03-2.03-.74-2.3-1.06-3.36-.69-2.31.13.44-1.27-2.25-1.3-2.5-1.53-2.17-1.32-5.16.02-.25.23-.95.23-1.19l.04-4.29c.01-1.44.88-.92.74-3.4l-.1-1.77c-.07-1.15-.15-2.48-.02-3.61l.32-2.62c.11-.89,0-1.7-.01-2.66l-.1-13.21-.28-1.34.04-5.07c.02-2.51,1.18-2.39.68-4.95-.32-1.64-1.46-1.55-1.42-1.62l-.41.6c-.31.46-.63.89-.97,1.32l-1.79,2.24c-.74.92-1.61,1.75-2.46,2.68-.38.41-.88,1.43-1.31,1.78l-2.41,1.93c-.54.43-1.12.91-1.78,1.06-1.45.34-3.84,1.03-4.39-.45l-.5-1.34c-.62-1.66.22-1.87.76-3.48l.65-1.94.33-1.43c.29-.43.8-1.14.92-1.57l.88-2.9.54-1.61-.64-.38c-.15-.08-.42.3-.56.45l-1.23,1.37c-.47.53-2.24,2.67-1.96,2.44-.06.05-1.4-.72-2.73,1.37-.15.24-.95.45-1.22.58-.59.3-1.51.88-2.08.93l-2.31.18c-1.19.09.09-.08-2.86-1.34-.99-.42-.32-2.89.06-3.48l.93-1.47.89-1.41c2.23-3.52.35-1.83,2.24-4.32-.58-.92,1.74-4.57.35-3.27l-2.61,2.44c-.38.36-.65.71-.98,1.13l-1.49.98-1.22,1.21c-.34.34-1.24.52-1.82.72-.76.26-1.91.84-2.7.96-.15.02-4.49-.97-4.83-1.4-.12-3.21.04-1.72.48-3.43l.47-1.85.6-2.32c.66-2.56,1.12-1.14,1.93-4.31.32-1.27.9-2.2,1.92-2.99,1.08-2.5,1.59-1.52,2.44-2.67l1.5-2.03c.07-.23-.3-1.06-.59-1.16l-1.83-.57c-1.5-.46-1.41,1.19-2.82.02-.54-.45-1.18-.44-1.86-.24l-1.24-.12c-1.79,1.45-1.23-.7-2.82.75-.64.59-2.15.11-3.35.18l-2.27.13c-.78.04-1.51.14-2.29.23l-1.1-.17-2.3.29-2.33.24c-2.01.21-1.5.87-5.26.44-.55-.06-1.77-.73-1.78-1.3l-.08-3.46c-.04-1.71-1.18-2.01-1.21-4.52l-.43-1.4.35-2.9c.13-1.05.27-2.2.02-3.19l-.57-2.35-.54-2.17c-.17-.67-.67-1.58-1.02-2.35l.26-1.56-.99-2.26c-.63-1.44-1.16-4.7-1.35-6.37l-.28-2.52-1.02-1.03-.08-3.26c-.01-.48-.71-1.33-.87-1.72-.66-1.65-.73-2.83-1.76-5.14l-1.15-2.6c-1.55-3.5.87-.31-1.33-3.76-.69-1.08-.83-3.55-1.36-4.43-2.77-.37-2.3-1.24-5.64-1.41l-1.37-.07c-1.39-.07-2.27-1.71-3.3-2.4-1.7-1.14-3.45-.99-4.25-1.41-2.7-1.41-.56.21-3.32-.94l-2.5-1.04c-.84-.35-1.93-.29-2.85-.09l-2.43.54-2.35.72-1.78.54c-.25.08-.73.11-1.11.16-4.53.6-4.57,2.17-9.17,3.52-.21.17-.71.61-.96.75-3.04,1.74-1.83,2.2-3.33,4.61l-1.21,1.95c-.58.94-1.21,1.84-1.89,2.7-1.45,1.84.17-.42-.98,2.92l-1.06,3.06c-.26.75-.62,1.57-.76,2.31l-.4,2.02-.31,1.57c-.52,2.6-.3,3.54-1.55,5.59.1,3.75-2.2,3.8-1.26,7.08-.57,2.53-.05,3.37.46,6.26.44,2.48-.44,1.6-.08,3.38.14.67.49,1.55.5,2.06l.07,4,.24,1.2c.53,2.68-1.06,4.58.39,7.06l.39,1.5c1.64.93.28,1.85,1.1,2.19.72.3,2.5.24,3.06-.3s.97-.7,1.61-.54c1.25.31,2.21-.45,2.42-1.58l1.9-.3c.41-.06,1.43.22,1.75.47l1.27,1.02.3,1.49c.3,1.46.6,1.79.16,3.83l1.27.41c1.52.49,2.97.77,4.53.29l2.02-.62c1.14-.35,1.93-2.32,4.13-2.19l1.98-1.27c-.93.6,2.8-1,3.59-.54.6.35.16,1.22-.23,1.49l-2.22,1.55-2.16,1.26c-.52.3-.95.69-1.48.76-1.78.23-1.68.84-3.94,2.46-.62.45-2.1.72-2.92.62l-2.58-.32c-.3-.04-.85-.55-1.16-.79l.11,2.3.07,2.01c.05,1.62.28,3.11.84,4.61l.5,1.32c.29.76.41,1.73.61,2.58.24,1.01.69,2.09.81,3.09l.29,2.45c3.4-.92.33-.37,3.54-1.94.95-.46,1.94-1.12,2.95-1.49l1.29-.48c.55.1,1.49.2,1.84-.1,2.59-2.21,1.49-.39,3.33-2.13l6.32-1.45c.71-.16,1.84-.95,2.53-1.02l2.09-.22,2.23-.22c.57-.06,1.52-.16,1.89.14,1.44,1.16,2.65.71,4.23.66l6.7-.21c.91-.03,1.83-.24,2.69-.03,1.11.27,5.12,1.34,5.53,2.22l1.54.25c2.8.45,1.69.51,4.83,1.21.55.12,1.47.81,1.72,1.26l1.27,2.24c.39.69,1.03,1.96,1.17,2.66l.65,3.27c.2,1.01.33,1.96.46,3.01.7,5.45-.55,1.99-.2,5.51.3,3.09-.1,3.77.03,5.92l.14,2.33c.04.62.36,1.56.46,2.26.64,4.37-.16.77.23,4.62.12,1.17.12,2.42.02,3.58l-.15,1.74c-.02.24.05.8.06,1.12l.09,2.87c.02.76.35,1.73.5,2.55l.58,3.17c.09.52.04,1.2-.03,1.79l.33,1.07c-.03.64-.03,1.19.03,1.81.31,3.42-.14,1.72.83,5.59.15.59.78,1.68,1.09,2.17.48.77,1.58-.25-.19,3.53-.28.6-.15,1.44.03,2.16l-.41,1.66c.23,2.45-.32,5.26-.11,8.2.09.26.53.99.53,1.26l.06,2.21,2.44,1.3c.99.53,1.98,1.08,3.01,1.51.43.18,1.12.35,1.41.59,2.08,1.72,1.73.61,4.47,1.91.41.2.97,1.08,1.29,1.42,2.52.2,2.71,1.96,4.26,1.58.33-.08.63-.8.92-1.03l1.81-1.39c.45-.35,1.46-.98,2-.99l2.67-.06c.54-.01,1.07-.68,1.22-1.34.95-.26,1.93.15,2.71.81l1.38,1.17,1.5,1.2ZM321.23,335.51c1.57-.68,2.37-1.85,3.28-2.92l2.13-2.51c.61-.72,2.01-1.37,2.71-1.99.31-.78.71-1.18,1.3-1.65l1.91-1.51c.16-.12.49-.5.42-.65-.6-1.24-.79-.64-1.05-1.44l-.78-2.42-3.8,1.91c-.53.26-1.16.75-1.58,1.2-2.66,2.85-.52.46-2.86,2.55-2.15,1.92-2.56,1.66-3.3,3.03-.71,1.13-1.23,2.15-1.77,3.41-.26.62-.96,1.59-1.07,2.2l-.32,1.78,2.56.29c.91.1,1.77-.52,2.26-1.27ZM348,331.97l.1,1.99c.08,1.66-1.86,1.65-1.83,3.94l-1.4,1.95-1.4.64-1.11,4.52c-.09.36-.03,1.27-.05,1.61l-1.09.51c-.1.27-.02,1.4.33,1.53.97.36,2.67-.76,3.36-2.22.91-1.91,2.21-1.24,3.02-5.47,1.74-.53.48-.72,1.51-2.26l1.07-1.6c.4-.6.38-1.75.19-2.41-.1-.35.28-1.19.29-1.52.09-3.07.38-2.1.27-3.89-.26-4.36-1.02-2.44-2.23-4.02l-1.05-1.38c-.8-1.05-2.83-1.72-4.01-1.5l-2.42.46c-2.56.49-2.14-.79-5.81.32-.89.27-1.38.28-2.18,1.12l2.68.61c.47.11,1.92,2.85,1.54,3.4l-1.96,1.01-.1,1.57c-1.6.94-1.55.47-1.72,2.33l-.92.76-1.04,2.17c-.44.92-.85,2.09-1.38,2.87-.6.88-.97,1.5-1.39,2.43l-.61,1.35c-.12.26.12,1.13.41,1.1.23-.02.72-.18.95-.31l1.68-.91c.32-.17,1.14-.39,1.4-.6,1.92-1.51,1.68-2.58,3.88-2.62,1.15-2.42,1.88-2.15,4.22-4.68l1.39-1.51c.88-.95,1.97-1.57,3.28-1.85.55-.57,2.07-.44,2.12.58ZM146.64,346.15c.38-.03.9-.84.73-1.09l-1.77-2.62-1.65.98-2.09-1.83c-.99-.87-1.5.21-3.72-.13-.3-.05-1.15.37-1.08.66s.7.93.83,1.23l1.1,2.59c.14.33,1.07.55,1.47.53l2.82-.11c.41-.02.97,0,1.41-.04l1.95-.17ZM133.5,346.67l.17-1.32-2.07-.06c-2.34-.34-4.26-2.4-5.81-.98-.49.45-.61,1.38-.12,1.67.68.41,1.02.68,1.51,1.23.53.6,1.85.9,2.58.48,2.66-1.5,3.68-.47,3.75-1.03ZM117.2,354.56c.42-.32,1.27-.66,1.61-.98l2.36-2.18c.34-.32,1.42-.53,1.77-.8l1.16-.89c.22-.17.12-.99.02-1.27-3.65-1.68-4.83.15-6.54-2.33-1.45-.03-3.23.09-4.38,1.02-.52.42-.65,1.94-.8,2.57-.05.2-.63.61-.74.81-.48.8-1.07,2.08-1.45,3.04-.5,1.26-.18,2.27.15,3.58.2.77.14,2.06.23,3.1.04.46,1.32,0,1.54-.47.68-1.45,1.63-2.83,2.97-3.56,2.76-1.52-.26.11,2.11-1.66ZM344.06,444c.19-.2,1.19-.35,1.32-.35l1.73.87c.53.27.87,1.8.52,2.28l-1.12,1.52c-.53.72-.86,1.64-1.17,2.56-1.23,3.66.52.86-1.33,3.79-.32.51-.45,1.78-.71,2.37-.43.99-.78,1.75-.39,2.76l-.48,1.75c-.57.52-.8,1.14-.56,1.85.81,2.32.22,3.47.79,3.32.45-.12,1.44-.81,1.56-1.31.63-2.69.93-1.9,1.78-3.05l1.15-1.54c.54-.73.56-1.7.67-2.81.13-1.33.73-3.44,1.21-4.56,1.94-.94,2.18-3.24,2.25-3.35l1.38-2.17.83-3.22.69-2.42c.14-.5.25-1.37.35-1.96l.35-1.94-.46-.75.44-1.09c-.33-.42-.75-.95-.81-1.29-.33-1.68-1.21-1-3.7-1.23-.43-.04-1.43-.47-1.75-.77-.23-.21-.65-.81-.97-1.21l-3.19,1.31-2.27.92c-3.29,1.33-1.25.21-4.33.77-2.62.48-.11-.16-3.75-.29-.41-.01-1.08-.62-1.41-.97-.6-.64-1.19-1.07-1.89-1.57l-1.09-.77c-2.18,1.37-1.36,1.94-3.69,2.62-1.49,3.26-.14,1.08-2.54,3.16-.32.27-.91.91-.98,1.27l-.31,1.48-.78,1.69c-.28.62-.5,1.19-.95,1.64-2.07,2.07.38,2.47-2.86,5.67.06,3.41-1.57,3.06-1.08,5.13l.32,1.33,1.42-1.74c.54-.65,1.15-1.36,1.8-1.85l1.15-.88,2.06-1.67,1.73-1.45c3.92-3.29,3.18-5.33,4.48-6.93s2.75-2.09,4.64-2.72c1-.33,1.62,1.05,1.33,1.95-.18.57.03,1.4.17,1.86-.22.36-.78,1.21-.86,1.66l-.54,2.96-.63,2.95c-.22,1.03-.45,1.81-1.32,2.47l-.29,2.31-.28,2.27c-.3.96-1.04,2.01.12,2.77.48-.8.92-1.47,1.44-2.08l1.08-1.27c.47-.55.86-1.22,1.28-1.85l1.02-1.53,1.28-1.94c.28-.43.96-1.19,1.38-1.63l1.98-2.07,1.51-1.62,1.29-1.37ZM180.85,551.24l4.41-.15,2.31-.08c1.25-.04,2.5.11,3.76.07l1.13-.04,1.68.2,2.59.3c.65.08,1.31.12,1.91.15l2.62.13c.41.02,1.19-.03,1.58.07l2.56.62c.51.12,1.5.12,2.11.18l1.49.16,2.13.2c.62.06,1.83.61,2.52.62l9.59.14h1.76s8.81-.13,8.81-.13c-.43,0,2.82-.15,2.29-.03,2.93-.67,1.48.95,3.36.04.31-.15,1.01-.47,1.37-.48l5.5-.15,2.45-.11,2.19-.3,7.11-.13,1.51-.14,2.56-.09,1.73-.18,3.98-.17c-.06,0,2.76-.39,3.98-.51l2.26-.21,6.32-.12c.64-.01,1.6-.34,2.33-.46,2.69-.43,1.16.45,5.08.04l2.87-.31c1.53-.16,3.23-.11,4.75.03,2.79.26,1.63-.2,5.7-.04.49.02,1.13-.08,1.76-.17,1.3-.18,4.68.31,5.7.1l1.3-.27,4.98-.04c-.53,0,3.66-.51,3.15-.51h7.45c.46,0,1.04.08,1.44.05.9-.08,1.7-.18,2.51-.21l1.61-.06c2.2-.08.92.59,2.2-.07.21-.11.82-.34,1.07-.34l4.83.04,1.23.24,6.46.11c2.38.04,3.47.96,4.86.83l2.65-.26c3.62-.35,3.97.22,5.68.22l8-.02.8-.09h3.43c1.17-.02,2.32.06,3.47-.08l1.68-.21c3.92-.5,1.83.78,3.33.31,3.06-.96.77-.06,3.82-.8,1.69-.41,2.89.38,4.03.37l2.87-.03c.84,0,1.74-.11,2.57-.29,4.45-.97,2.91.31,5.09-.01.71-.1,1.25-.14,1.93-.2.85-.07,2.08-.62,2.81-.56,3.1.27.25-.29,4.75-.61.3-.02,1.02-.63.86-.9-.99-1.65-1.96-1.13-2.66-1.9-.26-.29-.6-.83-.81-.95l-1.5-.82c-1.61-2.72-4.59-3.19-6.49-4.62l-2.14-1.6-1.47-1.12c-2.3-1.75-.47.3-4.5-3.18l-1.73-1.49c-.7-.6-1.53-.82-3.12-1.97-2.16-1.57-2.1-.75-2.87-.81l-2.17-.18-1.74-.3-1.57-.07c-.34-.02-.83-.05-1.1,0-2.54.46-1.93-.36-5.3-.67-3.71-.34-3.45.42-6.04.06l-1.95-.26c-.37-.05-1.21.16-1.65.25-3.53.73-2.17-1.07-3.64-.09l-1.25.83s-.39.17-.44.18l-1.61.34c-.22.05-.91.45-1.15.43l-2.62-.28c-3.21-.35-1.72,1.66-5.86.44-.48-.14-1.28-.25-1.69-.16l-3.13.66c-1.56.33-3.26.36-4.02.55-1.06.27-1.8.52-2.85.36-1.68-.26.09.06-1.89.16l-1.76.09c-2.96.14-.02-.36-3.09.02-4.73.58-.79.21-5.9-.2l-2.09-.17c-1.43-.11-3-.16-4.41,0l-1.5.17-2.04.23c-1.32.15-2.86.11-4.17-.02l-1.78-.18-2.32-.16-1.71-.09c-.47-.02-1.27-.09-1.64-.13-2.32-.79-3.18-1.24-5.56-1.17-1.77.05-1.52-.11-4.01-.1-3.01.01-3.36-1.05-4.31-.52-2.01,1.14-.72-.32-4.4.25-3.07.48-1.76-1.24-5.28.09-3.14-1.11-3.93-.01-6.85-.32-1.6-.17-3.13-.56-4.58-1.18l-1.55-.27c-2.49-.44-.89.77-4.02-.17-4.09-1.23-3.9-.36-7.17-1.24-.22,0-.96.22-1.16.12l-1.74-.83-9.36.08-2.07.19c-.73.07-1.41.21-2.11.4l-1.83.51c-.19.05-.69.02-.96.01l-4.48-.08c-.34,0-.95.4-1.18.61-.85.8-1.04.42-3.75.82-1.55.23-2.08.14-3.7-.33-.34-.1-.98-.02-1.45,0l-5.68.14c-.55.01-1.07-.03-1.68-.07l-2.27-.17c-.26-.02-.81-.33-1.09-.26-3.48.83-3.64-1.15-6.94-.12-.98.31-1.97.35-2.97.12-2.18-.5-1.03.97-3.64.25l-1.06.11c-.92-.3-1.86-.18-2.72.24-.43.21-1.46-.04-1.91-.02l-2.57.15-2.31.18c-.26.02-.89-.22-1.19-.33l-1.22.06c-.73-.09-1.37-.17-2.09-.2l-2.24-.11c-2.08-.1-2.61.1-5.02-.63-.81-.25-1.59-.3-2.47-.45l-2.35-.41c-.59-.1-1.62-.35-2.18-.35l-7.42-.05-1.21.61-6.47-.1-1.84-.05-1.65-.09c-1-.05-1.91-.2-2.73-.76-1.68-1.15-.52.08-3.6-.34l-2.11-.28c-.34-.05-1.2.52-1.53.44l-2.03-.47c-.41-.1-1.15.76-1.51.95-3.59.16-1.91.2-5.32.73l-2.82.45-2.92.27c-.88.08-1.7.3-2.59.52-.56.14-1.49.16-2.03.34-1.11.39-2.26.44-3.36.04l-1.84.81-1.77-1.05-.94.84-2.22.06-2.08.06-1.46.12-10.8.03-1.09-.05c-.37-.02-.94-.14-1.34-.37-1.04-.61-.64,1-2.14.62l-2.59-.66c-1.3.52-1.18.54-2.75.58l-2.39.06c-.58.01-3.16-.21-4.02-.36-1.45-.25-.29.59-2.91,1.25l-2.14.53c-2.01.5-3.31,1.38-4.5,1.22-.79-.1-1.27.05-1.96.11l-2.19.16c-2.64.2-.73.48-3.92,0-4.35-.65-2.69.51-6.81-.01-1.59-.2-4.54.41-6.14.88-.63.18-1.23.31-1.89.36l-3.18.19c-1.02.06-1.71.42-2.55.95l-1.79,1.13c-.86.54-1.85,1.75-2.19,3.04l1.32.59c2.88-1.08,2.26-.49,5.06,1.1,1.73.99,1.77,1.47,2.2,1.24l.67-.35c4.74-1.18,1.03-1.04,5.21-1.27,1.01-.06,2.22-.23,2.96.43,1.88,1.69,1.37-.53,3.88.71,2.25,1.12,2.32-.8,5.24-.26,2.92-.33.7.58,3.79-.02,2.5-.49-.52.97,4.38-.52,2.84-.86.51.41,3.54-.95l3.42,1.42c1.58.66.22,1.03,2.74,1.32.57-.25,1.57-.79,2.06-.72l2.3.31,1.2,1.5,2.45.58c3.3.78,2.93-1.67,4.81-.33l.96.11c.39.05.97,1.47.45,2.19l-1.21,1.68-1.18.31c-.62.16-1.55.03-2.32-.02-.63-.04-2.11.44-2.56-.03-.77-.8-1.57-1.24-2.65-.74-2.99-.76-2.6-1.84-4.83-1.1l-2.23-.48c-.35-.08-1.27-.05-1.59-.22-1.78-.95-3.27-1.59-5.57-1.07l-4.32.98c-.47.11-1.45-.34-1.93-.35l-3.14-.08c-4.12-.1-3.52,1.26-5.04.32-2.21-1.37-2.63,1.25-4.97-1.26-.91-.98-2.1-.03-2.95.3-.93.35-1.96.63-2.75,1.05-.58.31-1.06.57-1.65.64l-1.8.21c-1.42.17-2.24-2.01-3.34-2.11l-2.1-.18-2.13-.18c-1.64-.14-.43,1.14-2.68,1.05-.64-.02-1.52.21-1.88.59l-1.9,1.93-1.51.12-1.33,1.32-.5,1.13-1.47.08c-2.86,5.19.76,3.52-5.13,7.3l2.01.02,2.6.06c3.14.07,2.98.35,5.17.75,1.13.2,2.54-.01,3.64.17l1.2.2,3.13.12c.88.03,2.18.43,2.97.08,1.89-.83,3.57-1.03,5.58-1.14,3.47-.19,1.71.22,3.97,0l2.31-.23c.71-.07,1.55-.17,2.25-.28l3.64-.62,1.48-.25c.28-.05.98-.38,1.25-.45l4.5-.12c.84-.02,1.74-.17,2.56-.28l2.31-.31c1-.13,1.91-.05,2.92-.02l7.87.2,1.82.08c1.06.05,2.08.06,3.15-.04l2.48-.24c.71-.07,1.36.09,2.13-.02l2.4-.36c.65-.1,1.23.06,1.77,0l3.14-.3,2.59-.29,2.01-.29c5.38-.77,6.87.07,8.56-.22l1.38-.24c.83-.15,1.82-.13,2.63.02.23-.02.89-.17,1.12-.17l7.05.07c.66,0,1.22.04,1.84.01l5.07-.19,2.9-.23,2.84-.47,3.66-.14,2.3-.28,1.19-.15c.66-.08,1.61-.28,2.23-.29l5.96-.13c1.42-.03.58-.16,3.2.05,2.79.22,2.28.88,3.56.47,1.95-.63.72.95,2.79,2.09.61.34,1.55.36,2.11.02l1.66-.99c3.45-.44,5.61.07,8.7.14l3.25.08c.88.02,2.12-.41,3.02-.46l2.07-.1,3.39-.15,1.24-.17Z"/>
      <g>
        <g>
          <path d="M325.02,423.47c-.28.48-2.46-2.02-2.85-2.91-.26-.6-.17-2,.07-2.57.3-.69.4-1.29.27-1.98l-.68-3.67c-.15-.8-.04-1.9-.14-2.82-.23-2.32,1.2-.73.5-3.73l-.56-2.39c-.13-.55-.06-1.48-.17-2.14l-.41-2.35c-.96-5.53-.87-1.87-1.69-5.29l-.55-2.31c-.51-2.16.41-2.43-1.06-3.19-1.22-.63.15-.8-1.04-2.88-.51-.88-.39-1.86.12-2.65-.27-1.21-.12-2.18.23-3.46.13-.46.46-4.33,0-4.77l-.86-.82c.75-2.07-1.46-3.36-.54-4.98.3-.53,1.04-1.4.83-1.91-.12-.29-.8-.77-1.1-1.04-.21-.19.01-.93,0-1.22l-.15-2.31,1.79-1.06c.53-.32.95-.25,1.54.03l1.35.58c.54.23.78,1.5.58,2.16l1.08,1.13-1.05,1.65c-.69,1.08.36,3.09.5,4.03l.32,2.18c.13.92-.19,2.35-.57,3.07-.16.3.04,1.2.03,1.51-.23,4.09.28,1.09.2,4.21l-.06,2.23.49.97c.1.82.27,1.81.49,2.61l.54,1.96.77,2.8c.27,1,.55,2.04.65,3.06l.25,2.38.46,3.11.27,2.34c.16,1.43-.03,4.11,0,4.21.15.73.5,2.06.6,2.85.51,3.95.81.82.69,3.51-.07,1.54-.08,2.94-.07,4.56.01,1.38,1.22,1.46-.17,3.82l-.89,1.51Z"/>
          <path d="M252.5,290.42l-.71,1.39c-2.74,1.51-2.76,2.25-5.54,3.65l-.63,1.12c-.2.18-1.17.09-1.47.22l-2.53,1.13c-.94-.27-2.09-.6-2.74-1.02l-1.51-.96c-.79-.5-1.92-1.67-2.47-2.48-.45-.65-.86-2.39-.93-3.34-.04-.57,1.26-3.11,1.99-3.29l1.57.23c.98.14,1.66.93,1.46,1.93l2.57,3.47c.45.6.94.83,1.68.54.52-.21,1.61-.27,2.09-.53l2.77-1.52c.66-.36,1.26-1.04,1.71-1.73l1.13-.34,1.84-1.74c.19-.18,1.07-.15,1.32-.03.21.1-.14.81-.26,1.02l-1.31,2.27Z"/>
          <path d="M253.52,387.48c-1.36.13-6.1.23-6.78-.77-.54-.78-1.24-1.13-2.05-1.49-.39-.25-.91-1.37-.71-1.8l.69-1.48c.32-.69,1.85-.14,2.21.63,2.28.64,5.13.49,6.77,1.11l1.15-.27,3.67-.86c1.15-.27,2.21-.51,3.23-1.13,3.6-.36,2.69-1.36,4.26-1.37.73,0,2.31,1.58,2.13,2.01l-1.05,1.89-1.58.36c-2.52,1.81-2.77.86-4.21,1.76-.49.31-.96.61-1.36.67l-3.76.5-2.62.25Z"/>
        </g>
        <g>
          <path d="M152.69,385.75c-.53,1.51-1.44,1.07-3.84,3.04-.82.68-2.05,1.41-3,1.54l-2.25.3-1.78.24c-.48.06-1.64-.13-2.07-.35-.55-.28-1.29-1.09-1.83-1.18-.87-.14-1.86-.39-2.21-.88l-1.14-1.57-.99-1.29c-.35-1.2-.91-2.17-2.09-2.85l2.17-2.37,1.97-.6c2.67,1.95,1.92,3.31,5.33,6.16l2.23.86c.55.21,2.66.01,3.22-.42,2.31-1.8,2.51-.15,3.55-1.07.41-.36,1.35-.98,1.93-.93.39.04.94,1.02.81,1.37Z"/>
          <path d="M180.5,287.26c1.53.38,2.96,1.77,3.1,3.05.02.23-.62.31-.88.41-2.8,1.15-5.26,2.59-7.79,4.2-1.43.91-3.06,1.28-4.72,1.31-.94.4-1.78.23-2.44-.51-.74-.15-1.85-.53-2.26-1.14l-2.96-4.38,1.27-2,2.22-1.06c.46-.22,1.37.74,1.8,1.01,1.39.86.44-.04,1.69,2.94.25.6,1.06,1.2,1.58.98.83-.35,1.36-.47,2.21-.5,3.65-.14,2.08-1.18,4.05-1.57,1.03-.2,1.74-.67,2.27-1.47l.84-1.28Z"/>
          <path d="M176.15,323.25c.23,1.2-.58,1.68-1.47,2.33l-1.57,1.14c.36-.26-4.82,2.54-4.92,2.57-3.01.72-.99,1.15-7.38.8-.43-.02-3.03-1.48-3.32-2.05l-.9-1.78-1.55-2.02-1.09-2.47c-.44-1,1.34-2.36,2.06-2.62.43-.16,1.22.75,1.48,1.12l.75,1.06c1.1,1.56.59,2.64,1.35,3.73,1.22.79,3.08,2.42,4.58,2.19l2.24-.34c3.11-.48,2.51.36,3.68-1.23l2.53-1.1c.77-.33-.43-.68,3.55-1.33Z"/>
        </g>
      </g>
      <path d="M396.23,493.06l-.68-1.98c-.13-.37.12-1.07.23-1.48l.54-2.04c-1.3-.78-1.48-2.19-.67-3.29.15-.2.28-.72.23-.91l-.36-1.21-.64-1.58,1.04-1.17c-.32-.79-.37-1.28-.39-2l-.08-2.76c-.02-.86-.13-1.69-.21-2.59-.3-3.55.47-2.87-.84-4.97-.2-.32.19-1.31.52-1.44l1.36-.25c.3-.06.31-.88.41-1.34.75.77.95,1.73.29,2.85-.81,1.36,1.3.23.59,3.59s.87,2.72.19,4.14c-.23.47-.18.69,0,1.14.46,1.2.88,2.95.35,4.21-.23.56-1.18,1.4-1.32,2.08l2.01,2.16.31,2.46c.11.87.1,1.94,0,2.84l-.26,2.26c-.03.28-.66.72-.94.8l-1.67.51Z"/>
      <path d="M397.02,463.8l-1.44-.11-.99-2.53.54-2.01c.4-1.51-1.51-1.71.04-3.66l-.25-1.64.31-2.71c-.04-.16.86-.28,1.07-.09s.44.64.58,1l.38,1c-.68,2.46,1.31,2.86.24,4.52-.43.67-.59,1.69-.37,2.45l.63,2.11-.74,1.67Z"/>
      <path d="M398.48,248.87c-.57,1.86-.47,2.46-.78,2.55-.21.06-.59.06-.8,0-.83-.24.32-1.36-.76-1.85-2.94-1.35,1.68-2.06-.23-4.41-.2-.25-.07-.94.14-1.24.32-.47,1.8-.91,1.92-.34.26,1.26.75,4.52.52,5.29Z"/>
      <path d="M396.43,262.45c.37-.06-1.53-.51-.82-2.05.24-.53.39-1.1.41-1.59l.1-2.37c.02-.56.15-1.15.29-1.74,1.6,1.05.99,6.46.55,7.47-.04.08-.54.27-.53.27Z"/>
      <path d="M41.3,221.72c-.7.24-1.91.18-2.61.35s-1.21.3-1.85.43l-1.69.32c-.93.18-2.08.23-3.12.3l-.57.88-1.92,1.01-2.03-1.65,1.18-1.03c2.24-1.96,1.54-2.31,4.76-3.19,2.35-.65,3.69,1.07,5.44-.36h14.42c.28,0,1.01-.25,1.27-.3l2.73.86c1.62-1.05,5.08-.4,5.12.36l.1,1.81c-.91.16-1.36.34-1.94.97l-4.65-.84c-.89-.16-2.23.16-3.03.11-4.38-.3-4.01.37-5.53.29l-2.3-.12c-3.33-.17-1.03-1.14-3.79-.2Z"/>
      <path d="M84.27,221.73c-3.9.59-1.48-.09-4.78-.34l-.58-.04c-.17-.01-.01-.54.06-.74l.58-1.66c.09-.26.95-.32,1.03-.59l.36-1.28c.31.48,1.33,1.46,1.89,1.26l2.41-.87c.33-.12,1.14-.39,1.41-.58l1.91-1.28,1.86.66c-.99,1.13.02,2.05-1.08,2.74l-1.78,1.12c-1.92,1.2-1.83,1.39-3.3,1.62Z"/>
      <path d="M114.66,547.7c-3.97.7-3.14-.36-6.19.24-2.36.47-2.48,1.28-4.25.85-.44-.11-.28-1.22.02-1.54l1.55-1.67c.33-.36.89-.79,1.35-1.22.67-.61,1.63-.7,2.47-.43,1.66-.96,6.91,1.61,6.34,2.28l-.48.55-.82.95Z"/>
    </g>
  </g>
</svg>