<?xml version="1.0" encoding="UTF-8"?>
<svg id="Layer_1" xmlns="http://www.w3.org/2000/svg" version="1.1" viewBox="0 0 753.69 342.76">
  <!-- Generator: Adobe Illustrator 30.2.1, SVG Export Plug-In . SVG Version: 2.1.1 Build 1)  -->
  <g id="lNfmtO.tif">
    <path d="M383.98,0s.27.25.35.31h5.74c.08-.06.36-.31.35-.31h1.23s.27.25.35.3h9.13c.07-.07.36-.31.35-.3h.31s.28.24.36.32h7.88c.07-.06.37-.33.35-.32h.61l.32.3,3.61.04c.31,0,1.03.17,1.3.19l2.76.2c3.98.3,3.01.64,7.34.76l4,.11c.8.02,1.93.3,2.73.26l2.51-.14,1.84-.12,6.99-.15,1.95-.14,5.4-.18c2.46-.08,2.04.01,4.39-.11l4.2-.22,2.52-.11c1.04-.05,2.09,0,3.14.11l2.02.23c.66.07,1.32.11,1.95.15l2.69.14c.86.04,1.68.08,2.51.08h2.81c.85,0,2.05.32,2.98.41l2.82.25,4.21.2,3.79.27c.57.04,1.54-.24,1.98-.41l1.02.13c2.25.28,6.17.26,8.53.11.92-.06,1.69-.03,2.61,0l5.45.14,2.15.03c4.01.05,5.41.3,9.72.24.32,0,1.11-.28,1.36-.26.57.05,1.8.56,2.48.56l10.05-.03h1.89c1.21,0,2.77.17,3.85-.1,1.37-.35,2.2-.47,3.59-.29s3.35.36,4.73.12l1.47-.26,5.95-.09,3.01-.48,2.22.06c.32,0,.94.1,1.25.08l1.81-.08c1.49-.06,2.82-.07,4.33.01,3.02.16,1.41-.28,4.3.07l3.09.37,3.68.25c.86.06,1.92.23,2.71.22h3.09c.84,0,1.67,0,2.51.04l4.21.23,2.49.18c3.35.24,1.35.39,5.2.64l3.11.2,4.52.19,3.08.3,2.8.27c1.43.14,2.86.29,4.29.27l5.17-.09,1.99-.16,5.35-.07,1.42.28c2.48.5,5.72-.06,8.43.12l3.75.25,5.19.35,2.1.13,4.11.21,3.03.15c1.12.05,2.16.16,3.15.52l2.33.85c1.77.64,2.92,2.02,4.02,3.26l1.92,2.16c.68.76,2.2,5.27,2.49,6.65l1.43,6.85.19,1.9c.1.97.44,1.81.7,2.71.69,2.46,1.29,4.82,1.82,7.41.21,1.01-.01,5.83.15,7.88.3,3.86,0,1.84.14,4.72.18,3.62-.16,4.68-.04,7.09.02.34-.12,1.09-.13,1.49l-.11,6.34-.23,1.29c-.22,1.22.08,2.73-.09,3.93l-.81,5.57-.3,2.46-.83,5.07c-.1.62-.22,1.25-.29,1.85l-.39,3.54-.15,1.87-.23,2.43-.22,2.17-.16,2.67-.45,3.18c-.16,1.11-.08,2.39-.08,3.52-.01,4.25.56,5.52.2,9.84l-.31,3.71c-.19,2.24.31,3.06.01,6.41l-.22,2.5-.22,2.49c-.41,4.71-.75,6.33-2.07,10.83l-1.33,4.54c-.41,1.41-.78,2.9-1.34,4.21l-2.02,4.72-1.29,2.79c-2.14,4.62-7.45,6.5-12.29,6.87l-4.02.31-3.67.3-3.11.28-3.6.19-2.5.22-2.19.22c-.74.08-1.72.3-2.42.32-2.51.09-4.86.16-7.34,0l-1.78-.11c-.7-.04-1.52.08-2.25.09l-7.35.15-2.44.23-2.1.13-2.63.11-1.15.03-14.99.09c-.89,0-1.79.18-2.65.07-1.2-.14-2.32.06-3.55.09l-6.93.13-1.39.23-8.18.1-2.46.23-4.94.24-7.66.16c-.71.01-1.68.25-2.42.31l-2.5.22-3.08.24-3.1.3-3.04.39-3.67.39-3.69.46-2.8.27c-3.69.36-3.53.61-6.73.92l-6.74.65-2.48.27-3.38.35-3.34.31-4.01.3-4.86.16-2.5.2-2.8.22-3.31.2-2.52.2c-.6.05-1.55.27-2.15.27l-10.29.06-1.44.28c-.72.14-5.23-.17-7.36-.1-3.97.15-7.86.08-11.86.06h-1.88s-2.73-.02-2.73-.02h-1.87s-6.14.12-6.14.12l-2.72.16-1.89.02-5.51.13c.59-.01-5.36.52-4.31.52l-18.26.06-4.63.04-2.72.07c-.42.01-.95-.05-1.48-.06l-4.41-.09-1.4.3h-5.95s-1.49-.3-1.49-.3h-7.77s-1.36.28-1.36.28l-6.96.05-2.18.24h-4.89s-1.85,0-1.85,0c-2.55,0-4.61.55-5.84.58l-4.49.11-1.44.26h-10.21s-1.38-.26-1.38-.26l-4.51-.15-3.43-.21-3.42-.2-14.34-.21-3.42-.2-2.85-.2c-1.73-.12-4.79-.17-6.48.06l-1.9.26c-.51.4-1.26.96-1.68,1.36l-4.23,4.1-1.75,1.6-2.61,2.64c-.41.41-.89.98-1.29,1.44l-1.61,1.86c-.88,1.01-1.66,4.02-.43,5.34.67.71,4.37.81,5.84.66,1.03-.11,2.31,0,3.28-.16l7.43-1.18,2.99-.39c.59-.08,1.31-.15,1.86-.25l4.13-.79,1.74-.26,4.32-.71,3.14-.53,2.88-.5,1.91-.27c3.12-.45,6.39-2.23,6.98-.94.94,2.08-1.81,1.79-5.06,3.18-1.8.77-3.61,1.51-5.34,2.39l-7.71,3.94c-.42.22-1.03.67-1.48.94l-5.41,3.19-2.84,1.73-3.24,1.99c-1.33.82-2.65,1.6-3.86,2.58l-1.05.85c-.86.7-4.88,3.41-3.25,4.57,3.21,2.28,4.32,2.54,8.28,3.36l6.85,1.42c.57.12,1.27.17,1.86.25l2.2.28,2.42.3,2.49.31,2.7.38,4.28.59c1.01.14,2.13.26,3.1.26l10.08.06,1.57-.02,2.45-.06,1.76-.05,1.55-.1c1.23-.08,2.48.1,3.77.14l6.37.2,2.8.2,3.11.22,5.15.19,2.73.25,4.06.18,3.88.2,2.02.1,7.91.14,1.42.05h1.77s2.01,0,2.01,0l2.79-.1,2.77-.2,4.2-.22,2.52-.11,2.2-.08,1.8-.26,9.14-.13,1.74-.06,1.72-.11c3.2-.2,5.85.13,7.96.01l3.3-.19,1.48-.08,1.11-.06c2.54-.13,5.02-.1,7.58,0l2.2.08,3.35.15,3.08.14,2.46.14h9.17s1.86-.11,1.86-.11c.45-.02,1.1.04,1.45.01l2.82-.25,2.49-.22,2.5-.22,4.83-.17,2.46-.29,3.1-.26,2.8-.18,6.02-.21,2.29-.14,2.74-.27,3.9-.14,1.34-.21,4.82-.14,2.48-.21,2.81-.22,4.16-.14,1.36-.23,4.5-.06,1.35-.23,5.11-.14,3.12-.21,3.13-.21,7.55-.13,1.34-.25,4.82-.05,1.33-.26,6.91-.04,1.4-.27,5.68-.05,1.35-.24,6.33-.13,2.57-.17,3.67-.03,2.76-.28,23.88-.08,3.09-.27c1.2-.11,2.27-.14,3.43-.19l3.91-.2,3.12-.28,2.72-.3,2.45-.34,4.35-.8,2.38-.1,2.79-.32c1.03-.12,2.02-.13,3.11-.22l2.77-.23,9.52-.08,2.14-.21,3.67-.17c.61-.03,1.47-.15,2.13-.25l3.44-.52,2.9-.47,6.98-1.02c1.89-.28,3.96-.12,5.9-.14l2.96-.03,3.64-.15,4.86-.2,1.87-.09c.8-.04,1.59-.06,2.43-.06h1.88s7.03-.11,7.03-.11l1.83-.04c.75-.02,1.44,0,2.2.01l6.95.2,2.88.18c.73.05,1.76.26,2.44.26l8.91.08,2.33.09,1.73.08,6.05.2,2.46.22,3.06.12c1.46.06,2.85-.11,4.26.04l1.89.2,3.36.35c.68.07,1.48.2,2.16.21h2.49c.28.01.92.42,1.01.69.11.32,0,1.02-.16,1.37-.08.16-.7.36-.9.39l-3.69.54-3.16.52c-1.47.24-2.93.56-4.34.95l-2.17.61c-.89.25-1.85.45-2.78.57l-2.2.27-3.41.31-3.04.3-2.79.3-3.99.57c-2.15.31-.53.27-3.36.64l-3.71.49-3.1.32-2.51.26-2.67.18-3.67.48-3.05.19c-1.34.08-2.59.15-3.89.12l-2.15-.05c-.77-.02-1.52-.07-2.3-.01l-4.28.36-2.52.28-1.95.23-2.26.26-1.23.14-4.64.31-3.94.16-2.5.21-2.48.23-2.77.29-3.07.33-2.77.31-2.38.28c-.38.05-1.25-.16-1.6-.14l-1.41.06c-.86.04-1.6.09-2.42.1h-1.11s-4.86.15-4.86.15c-.65.02-1.65.27-2.36.34l-2.24.23-2.18.18-4.58.37-2.78.26-3.68.37c-.54.05-1.58-.04-2.08.05l-6.8,1.18-4,.61-2.07.12-3.91.41-2.28.11-3.38.22-3.42.3c-1.17.1-2.3.33-3.46.53l-3.95.68-2.4.35-2.66.42-1.59.27-5.56.88c-.68.11-1.46.22-2.16.26l-3.3.16-2.78.29-2.79.29-1.86.19-2.48.26-1.5.05-2.8.26-3.07.29c-.43.04-1.03.05-1.51.06l-4.54.13-1.86.23h-5.26s-1.54.24-1.54.24l-4.24.16-3.1.17-5.84.24-6.13.15-1.82.24-3.67.03c-.17,0-.53.1-.65.13-1.21.29-3.39.08-5.46.24l-3.75.29-3.02.31-2.46.28-2.79.32-3.12.47-4.54.13-5.51.82-3.12.3-2.16.27-2.5.31c-.77.1-1.6.22-2.32.27l-5.31.36c-2.2.15-4.43,0-6.64.01h-1.64s-5.74.1-5.74.1l-1.34.22-4.55.11c-.62.02-3.01.53-4.29.54l-12.89.08c-1.04,0-2.3.23-3.38.33-4.34.41-2.84-.11-5.56.16l-2.8.28c-1.58.16-3.56.34-5.1.07l-1.34-.24-5.75-.14c-.9-.02-1.7-.06-2.55-.02l-4.53.17c-.45.02-1.14.05-1.51.1l-2.54.38c-3.34.5-4.63.35-8.61.87-1.06.14-2.58-.02-3.54.16l-1.37.26-8.78-.08-2.53-.5-3.31-.1c-2.44-.07-2.77.22-5.85-.02-3.61-.28-2.9.03-6.44-.29l-2.19-.2-2.8-.24-3.65-.32-3.68-.32-3.41-.28-5.41-.19c-1.67-.06-1.63-.04-3.22-.11l-4.21-.2c-1.03-.05-2.19-.31-3.2-.49l-2.02-.36-6.78-1.25c-.62-.12-1.51-.07-2.12-.04l-.54.03-.51-.12c-.74-.18-.27-.12-1.09-.13h-.62s-.62,0-.62,0h-.61s-.62,0-.62,0h-.61s-.59-.03-.59-.03h-.48s-7.23.06-7.23.06c-.12,0-.37.02-.54.04l-3.71.29c-.12,0-.46-.01-.66-.02l-.63-.02c-.12,0-.58.06-.57.18.02.18.12.71.21.9l1.48,3.09c-.07-.15,2.4,3.13,2.37,3.09l3.55,4.16c.34.4,1,.91,1.39,1.32l1.69,1.72,2.19,2.09c1.37,1.31,2.79,2.55,4.43,3.53,1.07.64,3.65,1.89,2.69,3.54-.3.51-1.21.82-2.03.21-1.1-.82-2.03-1.5-2.99-2.32-1.02-.88-1.95-1.54-3.21-2.07l-3.22-1.36-4.16-1.71-4.06-1.71-4.18-1.68-2.31-.93c-.07-.03-.5-.07-.62-.1l-.53-.1-.77-.14c-.14-.03-.77-.07-.77.08.02,1.76,1.16,5.57,2.08,6.88.98,1.37,1.62,2.69,2.39,4.16.5.96,1.26,2,1.84,2.97l1.62,2.69c.62,1.03,1.22,2.06,1.77,3.12l2.63,5.02,1.09,2,1.8,3.4c.57,1.08,1.06,2.23,1.71,3.22.47.72.91,1.36,1.32,2.07l1.23,2.15,2.21,3.95.78,1.32,1.77,3.54,1.38,2.6,1.83,2.99c.55.9.95,1.68,1.52,2.53.77,1.15,1.46,2.42,2.16,3.65l1.69,2.97c.3.53.28,1.44-.21,1.82-1.31,1.01-2.29-1.02-3.3-2.04s-1.92-1.98-2.97-2.86l-1.67-1.4-1.35-1.11-1.35-1.11-1.69-1.39c-2.64-2.17-2.41-1.53-4.84-3.43-1.59-1.24-4.78-3.93-6.03-5.31l-2.2-2.43-1.12-1.32-2.77-3.39c-.45-.54-1.13-1.22-1.66-1.66l-1.53-1.27-.33-.27-2.03-1.7c-.78-.65-1.79-1.25-2.67-1.89-2.14-1.57-2.9-1.68-3.23-1.91l-7.2-5.02c-.08-.06-.44-.2-.53-.24l-.4-.19-.4-.19-.68-.32c-1.41-.66-.68,3.84-.63,4.26l.35,2.83.49,3.6.88,3.53c.14.54.11,1.21.24,1.66l.93,3.38.67,2.73,1.65,6.35c.32,1.22.04,1.44.75,3.53l.16.46.71,1.98c.02.07.03.6,0,.67l-.14.5c-.05.2-.44.58-.6.63l-.62.16c-.35.09-1.02-.53-1.16-.92l-1.07-2.93c-.58-1.6-1.41-2.92-2.62-4.12-.73-.73-1.36-1.48-2.06-2.26-2.25-2.49-2.94-2.48-4.46-4.4l-1.79-2.25-1.37-1.66-1.52-1.9c-1.58-1.98-.88-.48-2.19-2.34l-.8-1.14c-.16-.22-.45-.55-.67-.8l-.74-.83c-1.29-1.46-.67-.46-3.2-2.28l-3.05-2.2c-2.96-2.13-6.1-3.26-9.02-.68l-1.18,1.04c-.25.22-.97.69-1.16.96l-1.26,1.78c-2.2,3.11-1.31,1.29-3.58,4.74l-1.34,2.03-2.09,3.12-1.23,1.88-4.54,6.79-1.35,2.02-1.2,1.85c-.31.48-.61,1.4-.91,1.79-1.96,2.47-.45.61-1.88,2.79-.67,1.02-1.35,1.95-1.91,3.01l-1.7,3.2-3.33,6.16-2.45,4.64-2.12,4.05-1.14,2.22-1.78,3.72c-.91,1.91-.86,4.11-2.02,4.78h-1.51c-.59-1.64.18-1.73.82-4.01.7-2.5,1.24-4.85,2.11-7.22l1.4-3.84,1.29-3.55.66-1.79,1.15-2.8.99-2.41,1.18-2.81.9-2.17c.29-.71.57-1.51.82-2.25l1.4-4.17c.21-.63.48-1.42.63-2.01l.63-2.51,1.2-5.03.9-3.08.67-2.38.58-2.5.97-4.68c.26-1.25-1.21-2.19-2.29-2.17-3.5.08-3.03-.13-6.72,1.32l-2,.79-2.48.97c-.81.32-1.82,1.11-2.66,1.51l-2.54,1.22-2.32,1.22-1.5.76c-.88.44-1.67,1.17-2.51,1.71l-2.1,1.32-2.68,1.6-1.83.94c-2.17,1.12-1.94,1.42-4.52,2.85l-3.59,1.99-1.89,1.15-1.96,1.14c-.48.28-1.06.62-1.51.92l-5.73,3.77-5.3,3.31-4.44,2.9-2.14,1.24c-2.04,1.18-1.59,1.16-4.08,2.65l-2.89,1.73c-1.08.64-2.05,1.4-3.1,2.12-1.88,1.29-2.34,1.21-4.52,2.83l-3.35,2.5-1.58,1.18c-2.12,1.59-3.46,3.16-5.92,5.12-.3.24-1.16-.04-1.4-.29-.28-.29-.23-1.29.08-1.64l3.33-3.74,1.39-1.67,2.36-2.91c.35-.43.89-.96,1.3-1.41l2.37-2.53,1.45-1.64,1.17-1.29,2.37-2.54,2.48-2.73,1.43-1.64,1.18-1.28,2.23-2.38,1.33-1.4,1.9-2.13c.58-.65,1.18-1.23,1.8-1.87l1.35-1.39,1.93-2.1c.59-.64,1.09-1.3,1.66-2.04.89-1.16,2.09-2.21,3.06-3.34l2.42-2.83,3.4-3.62,1.86-2.47,1.23-1.52,2.08-2.53,1.38-1.68,1.39-1.7c.41-.5.81-1.03,1.17-1.56l3.03-4.37c.57-.82.95-1.69,1.42-2.71-3.67-.48-7.93.95-11.47,2.18l-4.31,1.5-3.38,1.2-2.34.86-2,.73c-4.51,1.65-6.93,2.02-11.2,3.52l-4.3,1.51-6.23,2.06-2.04.63-3.82,1.14c-2.89.86-4.41,1.2-7.42,1.56-3.4.4-3.03.67-5.85.99l-2.13.24-2.53.45-2.54.53-2.72.63-2.49.58-2.73.68c-2.86.71-4.62,1.79-7.91,2.48-1.03.21-1.74.37-2.65.74-4.51,1.85-7.59,1.98-8.68,2.42-.57.23-1.16.48-1.63.58l-2.55.5-3.14.61c-.86.17-1.81.41-2.68.64l-3.65.96-2.88.56-2.44.58-5.49,1.32c-.98.24-2.08.69-3.07.82l-2.19.29-1.92.26c-1.38.18-2.86.36-4.22.68l-9.71,2.27c-.98.23-2.09.6-3.03.94l-3.84,1.36-5.23,1.85c-2.46.87-1.86.06-6.01,1.57l-3.37,1.23-2.22.87-3.95,1.62c-.81.33-2.03.57-2.94.69-4.77.63-3.86,2.16-5.81.7v-1.23l1.5-1.23,2.63-1.99,2.59-2.02c6.3-4.91,7.97-3.57,14.25-6.9l3.61-1.91c3.03-1.61,4.6-1.97,7.17-3.29l4.66-2.39,1.88-.92,3.22-1.41,3.19-1.7,2.01-1.08c1.94-1.04,3.65-1.79,5.74-2.55l3.89-1.4c1.42-.51,3.76-1.8,5.72-2.57.49-.19.94-.36,1.43-.59,2.84-1.37,1.67-.48,4.76-1.66l2.49-.95c.81-.31,1.67-.81,2.48-1.16l3.84-1.66,4.4-1.77c.61-.25,1.32-.61,1.92-.81,2.49-.86,4.1-1,6.1-1.7l4.33-1.51,3.08-.93c1.72-.52,2.44-1.01,4.89-1.82l2.99-.99c2.01-.66,3.87-1.56,5.8-2.43l1.7-.76c1.03-.46,2.3-1.18,3.31-1.49l4.28-1.32,3.3-.99c.89-.27,1.69-.53,2.54-.9,2-.85,4.05-1.31,6.17-1.9,1.45-.41,2.91-1.14,4.33-1.65l4.11-1.45c1.66-.59,3.17-1.56,4.85-2.18l3.84-1.41,4.03-1.23,4.06-1.83c.81-.37,1.7-1.06,2.57-1.69-1.04-1.46-.82.11-4.1-.47-4.34-.77-5.47-1.31-10.04-2.04l-3.16-.5-2.95-.15-2.78-.31-2.76-.3-3.07-.34-2.46-.27-2.78-.28-3.98-.35-2.43-.28-2.15-.31-3.44-.5-2.12-.34-2.12-.41c-3.68-.72-7.23-1.44-10.95-1.89l-1.93-.23-6.18-.87c-1.67-.23-3.34-.51-4.97-.85l-6.34-1.33-5.66-1.34c-2.3-.54-4.6-.82-6.95-1.12l-2.48-.32-3.12-.46-3.16-.52-3.12-.57-5.73-1.29-2.76-.64c-.8-.18-2.18-.21-2.23-1.43-.04-1.06,3.5-1.74,4.36-1.85l2.52-.31,2.41-.32,1.88-.28,3.12-.48,2.21-.31,2.13-.3c.65-.09,1.44-.14,2.09-.18l2.17-.12,2.4-.18,3.14-.24c.91-.07,2.14.29,3.05.29l12.85-.02c.94,0,2.1-.21,3.07-.3l3.67-.33c.79-.07,1.64-.18,2.44-.3l3.12-.46,2.79-.35,1.8-.19,2.77-.24,4.2-.37,2.85-.24c.65-.05,1.43-.18,2.12-.28l2.43-.35c.7-.1,1.45-.14,2.21-.2l2.8-.22,3.35-.32,3.09-.33,2.18-.28,2.65-.15,2.49-.31c.92-.12,2.16-.11,3.02-.3l6.59-1.42,2.81-.78c1.68-.47,3.02-.83,4.81-1.49-.84-2.56-3.08-4.82-5.12-6.48l-1.54-1.24c-.85-.69-1.65-1.43-2.55-2.04l-2.94-1.99-1.85-1.23c-.67-.45-1.37-.89-2.07-1.28l-2.76-1.56-2.12-1.22-4.55-2.52-2.33-1.29-3.55-2.01-3.49-2.02-5.33-3.01-5.61-2.96-2.37-1.32-3.17-1.75-2.13-1.22c-2.05-1.17-3.41-1.1-3.87-2.77l1.72-1.29,1.59.93c4.78,2.8,3.65,1.54,7.74,3.01l2.72.98c4.01,1.44,9.67,2.96,13.89,3.91,3.13.7,4.9,1.45,7.83,2.19l2.69.68c.82.21,1.77.53,2.65.8l3.78,1.19,3,.94,2.6.81,3.05.96,5.38,1.69c.57.18,1.38.25,2.03.36l4.96.85c.52.09,1.51.07,1.98.24,2.61.92.69-.39,5.25.24.78.11,1.56-.04,2.31-.11l2.77-.25,2.16-.3c1.01-.14,1.8-.49,2.72-.94l1.91-.93c2.39-1.16,3.07-2.18,2.55-5.1l-1.63-9.11-.71-4.25-1.64-8.75-1.72-.14-2.81-.23-4.28-.14c-1.28-.04-2.77-.48-3.99-.87l-5.55-1.82c-1.04-.34-1.97-.75-2.98-1.3-1.69-.9-1.76-2.82-1.38-4.66.48-2.31,2.62-3.07,4.7-3.93l3.5-1.43c1.76-.72,3.42-1.11,5.27-1.5l2.49-.53,2.49-.53c.27-.06.77-.64.68-.91l-1.12-3.68-.53-1.92-.65-2.47-.59-2.13-1.71-5.71-.89-2.81-1.78-5.54-.56-1.89-.94-3.08-1.17-4.05c-.8-2.76-.79-2.9-2.17-5.49-.19-.35.35-1.19.73-1.28,2.13-.5,2.67,2.83,2.92,3.48l1.28,3.39c.24.65.7,1.65,1.04,2.22l1.95,3.33.76,1.68,3.79,7.24,1.71,3.23,3.47,6.34c.28.51.59,1.09.81,1.63l2.59,6.32,4.41-.78c2.77-.49,4.82-1.3,6.58-1.45l3.14-.27c2.71-.23,5.6-.95,8.26-1.46.44-.08,1.46.1,1.88.11l3.12-.93,2.19-.59c1.68-.45,2.57-.79,4.03-1.76l1.55-1.03c1.25-.83,2.53-3.44,2.87-5.33.67-3.74,2.35-9.4,2.67-12.33l.33-3.04.31-2.48c.09-.73.29-1.73.31-2.4l.14-5.52c.02-.62,0-1.23,0-1.88l-.17-7.61-.21-3.42-.14-2.36-.13-2.53-.21-5.24c-.02-.53.14-1.47.15-2.05.04-1.59-.08-3.08-.19-4.69l-.21-3.11-.17-3.02-.19-2.8c-.17-2.49-.34-4.86-.67-7.34l-.33-2.51c-.38-2.93.38-4.13.36-7.3l-.02-2.77c-.01-1.6.4-3.93.8-5.53l.81-3.24.59-2.53c.54-2.29,1.66-4.44,2.87-6.53.73-1.26,1.98-2.2,3.13-2.99l2.01-1.39,1.82-1.26,1.81-1.27c1.87-1.31,3.72-2.68,5.76-3.7l3.07-1.54c1.33-.67,2.75-1.42,4.15-1.95l5.15-1.95c.94-.36,2.07-.67,3.06-.9l2.76-.65,2.47-.63c1.04-.27,2.11-.35,3.21-.54l2.51-.43,2.47-.31,2.46-.29,3.33-.4,1.9-.18,3.03-.36,2.79-.32,2.46-.28,3.03-.4c1.22-.16,2.38-.36,3.57-.46l2.84-.25,3.11-.28,3.69-.26,2.39-.11c1.48-.07,2.86-.22,4.33-.21l6.48.04c.36,0,.82-.02,1.16-.03l3.16-.17,4.86-.17,1.85-.05,1.28-.15,8.56-.08,3.62-.03,2.24-.15,6.66-.19,2.01-.08,1.15-.06,4.29-.29,3.96-.12,1.26-.21,3.93-.15,3.12-.27,1.61-.14c1.7-.15,4.11.08,4.21-.41h4.91ZM334.55,142.84c-.82.68-1.51,1.29-2.21,1.92l-2.42,2.18-2.31,1.99-1.84,1.56-1.93,1.74-1.59,1.47c-2.12,1.95-4.11,3.83-6.25,5.73l-2.59,2.3-1.99,1.72-1.51,1.24-2.49,2.11-1.67,1.42-1.28,1.16-2.26,2.08c-.91.83-2.03,1.67-3.03,2.46l-.09.69,1.58-.05h.38s4.98.07,4.98.07l2.89.09,3.04.1,3.27.11,3.09.14,4.26.1,3.96.15,3.1.2,3.09.13,1.85.12,4.82.12,1.36.25c2,.36,6.87-.56,9.36-.2l1.24-.12c.98-.09,1.88-.1,2.87-.2l2.77-.29,3.09-.33c2.3-.24,3.44.07,5.79,0l5.75-.17c.57-.02,1.22-.05,1.79-.07l2.32-.11,35.46-.07c.78,0,1.59-.15,2.31-.1s1.39.11,2.09.11l4.2.02,1.4-.29,5.69-.04,1.34-.27,6.3-.04,1.37-.27,5.97-.04,1.44-.29,4.15.07,1.93.08,1.4.05,1.97-.08,2.76-.12c2.37-.1,1.28.35,4.48.2.52-.02,1-.02,1.5-.03l2.35-.08,12.98-.12,3.19-.05,2.77-.09,2.47-.12c1.59-.08,4.31-.53,4.9-.55l4.86-.13,3.73-.2,3.42-.25,3.61-.2,2.45-.28,2.76-.31,3.4-.31,3.36-.31,2.13-.28,2.46-.31,2.8-.31,3.37-.49,2.49-.27,3.07-.33,2.5-.29,2.68-.32,3.69-.32,3.1-.29,3.07-.3,3.09-.31c1.51-.15,3.3.14,4.82-.13l1.34-.23,6.32-.13,2.8-.21,3.1-.22c2.89-.2,5.69.29,8.59-.09l2.13-.28,12.28-.06h1.85s7.01-.04,7.01-.04l2.07-.1,1.12-.02h1.38c.35,0,.85.03,1.13.01l1.38-.09,2.44-.15c3.08-.19,1.96-.03,4.33-.14l3.04-.14,2.67-.13c.72-.03,1.45-.06,2.18-.05l1.65.03c1.58.03,3.26.29,4.82.14l3.12-.3,1.84-.17,5.23-.34,2.49-.26,3.3-.18,3.09-.47,3.73-.29,2.47-.33c1.89-.25,5.29-1.38,6.38-2.84l1.86-2.49c1-1.34.25-.89,1.36-3.19,1.75-3.61,1.94-4,3.07-7.99l1.37-4.82c.79-2.78,1.8-6.23,1.95-9.1l.26-4.93.16-2.54.2-8.74.18-1.95v-4.45s-.15-2.26-.15-2.26v-3.09c0-.56.12-1.45.18-2.11l.23-2.51.17-3.59.28-2.47.32-2.78.49-3.7.43-2.95.46-3.21.34-2.48.6-3.67c.14-.85.25-1.82.33-2.7l.26-3.13c.17-2.02-.22-4.39.13-6.33l.24-1.35.09-5.73v-1.9s-.1-6.13-.1-6.13v-3.36c.02-2.77.13-4.68-.7-7.5l-.85-2.86c-.41-1.39-.9-2.95-1.08-4.38l-.34-2.79c-.3-2.44-.69-3.99-1.36-6.3-1.01-3.44-1.13-3.92-3.37-6.8-1.1-1.41-2.33-2.91-4.03-3.57-5.7-2.23-4.28-1.04-9.68-1.47l-3.11-.25-2.49-.18-4.23-.2-2.79-.19-3.03-.15-1.65-.08-3.55-.18-3-.15c-4.88-.24-7.1.55-13.01.16l-4.9-.32-2.48-.2-2.49-.2-2.7-.2-2.79-.21-2.79-.21-2.38-.17-1.66-.15-3-.32-3.1-.29-5.75-.18-2.82-.23c-.66-.05-1.54-.21-2.14-.22l-5.19-.14-1.65-.2-14-.03c-.36,0-1.21.25-1.57.27l-4.61.25-9.81.1-1.97.05-.43-.02c-.11,0-.53-.05-.64-.03l-1.89.29h-10.95s-1.44-.28-1.44-.28l-5.66-.04-1.33-.26-17.96-.06c-.58,0-1.24-.12-1.74-.07-1.54.16-2.96-.14-4.49-.05l-3.06.18-3.12-.22-5.41-.2-1.91-.1-2.43-.18-2.49-.22-2.23-.22c-.72-.07-1.68-.25-2.27-.24l-1.96.05-2.54-.13-17.34-.07-1.32.27-6.36.11-2.79.26-2.96.07-2.64-.02h-1.85s-2.76-.01-2.76-.01c-1.28,0-2.61-.02-3.88-.14l-3.07-.31-2.47-.28-2.48-.25-2.48-.21-7-.17-2.48-.13c-1.35-.07-2.65.04-4.04.11-3.66.18-7.3.14-10.97,0l-3.72-.14-2.83-.04c-1.72-.02-3.4.1-5.16.18l-4.05.18-2.1.13-3.32.21-3.1.2-3.12.2-4.51.15-1.33.23-5.37.05-1.38.25-8.5.08-1.76.05-1.68.03-1.93.09-7.52.13-1.36.25-6.01.04-1.37.27-9.92.03-1.39.26-4.79.11-4.69.44-3.65.41-3.06.38-2.45.3-2.42.32-2.19.27-3.1.33-2.69.3-2.84.3-2.68.32-2.19.3-2.85.46c-.78.13-1.54.28-2.3.45-5.75,1.3-6.55,1.4-12.11,3.53-.96.37-1.91.75-2.8,1.2l-7.17,3.65c-.55.28-1.3.82-1.81,1.19l-3.21,2.33-4.63,3.42c-.51.38-1.28,1.32-1.73,1.89-1.71,2.16-2.69,4.77-3.29,7.43l-.73,3.28-.72,3.09c-.09.4-.19,1.26-.21,1.74l-.15,3.36-.13,2.45-.23,3.37c-.04.63-.04,1.3.01,1.94l.21,2.35.31,2.43c.09.73.16,1.45.22,2.21l.2,2.81.33,4.6.12,4.51.25,1.42.05,13.3c0,.83.15,1.71.23,2.53l.26,2.78.16,6.1.12,1.56c.09,1.12-.05,2.24-.08,3.42l-.18,5.78c-.02.58-.21,1.47-.29,2.1l-.34,2.44-.26,2.53c-.07.65-.17,1.46-.32,2.1l-2.08,9.55c-.81,3.73-1.89,6.46-5.42,8.12-.87.41-1.84,1.14-2.76,1.47-2.76.99-5.49,2.04-8.4,2.33l-3.06.31-5.51,1.01c-.98.18-2.03.22-3.05.34l-2.47.29c-1.47.18-2.93.79-4.4,1.03l-2.42.38c-.7.11-1.59.3-2.05.44l1.35,4.12.68,2.07c.41,1.24.99,2.5,1.34,3.77.61,2.22,1.26,4.5,1.93,6.53l2.42.2c3.87.32,4.59,1.08,7.58,1.28l2.43.16,1.77.12c3.84.25.96-.38,5.53.21,1.04.13,2.08.27,3.04.3l1.83.06c.8.03,1.55.05,2.34-.03l2.36-.23,3.09-.31c.99-.1,1.98-.11,3.05,0l3.37-4.22c.74-.93,1.52-1.76,2.18-2.72.51-.74,1-1.46,1.55-2.12l2.78-3.39c.17-.21,5.23-6.73,5.22-6.73l2.04-2.87c.28-.4.95-.89,1.16-1.21l1.01-1.51c.78-1.17,1.66-2.22,2.51-3.35l1.96-2.62,1.53-2.16c.65-.91,1.31-1.7,2.1-2.5l.72-1.13,1.57-2.12,2.22-3,1.45-1.91,1.74-2.25c1.23-1.59,2.38-3.09,3.54-4.77l1.71-2.47c.14-.2,1.06-.42,1.21-.22,1.44,1.81.6,1.64-1.64,5.51-1.62,2.79-1.13,1.47-2.58,4.14l-1.84,3.38-1.12,1.98-1.58,3.32c-.46.97-1.13,1.77-1.6,2.7l-1.16,2.28-1.87,3.29-4.46,8.68-2.37,4.71-1.25,2.45-1.08,2.25c-.64,1.34-1.3,2.56-2.03,3.85l-1.57,2.78-.77,1.34-5.24,10.1c-.4.77-.78,1.68-1.14,2.49l-1.57,3.52,6.3,1.02,2.7.41,1.95.27c5.31.75,5.49-1.93,10.27-6.07.89-.77,1.7-1.55,2.53-2.37l5.28-5.19,1.62-1.44,4.25-4.03c.47-.44,1.03-.84,1.47-1.28l3.71-3.67,2.54-2.36,3.89-3.8.78-.76c.63-.61,1.24-1.19,1.9-1.77l2.11-1.87,1.82-1.58,2.78-2.44,3.24-2.89,1.96-1.74,2.37-1.9,3.77-3.31,1.47-1.29,1.92-1.73,4.57-3.75,4.85-4.05c.65-.54,1.25-1.22,1.94-1.74l3.15-2.36,2.59-2.32,5.87-4.59c.43-.34,1.07-.91,1.63-1.08.62-.19,1.04,1.63.61,2.15l-1.48,1.8-1.42,1.72c-2.25,2.73-1.52,2.29-3.74,4.84l-1.56,1.79-1.53,1.87-1.99,2.33-2.52,3.28-1.54,1.85-1.26,1.52-2.65,3.48-3.76,4.81-3.78,4.81-2.35,2.87-1.69,2-1.4,1.67-1.83,2.16-1.55,1.83-2.23,2.66-1.35,1.72-1.78,2.27c-.39.5-.61,1.04-.84,1.79,1.07-.12,1.8-.2,2.46-.49l5.13-2.25c.94-.41,2.46-1.79,3.82-2.64l2.86-1.78,4.29-2.75,2.47-1.52,6.76-3.98,5.55-3.08,1.7-1.03,2.59-1.42c.58-.32,1.18-.63,1.77-.92l3.69-1.84,1.64-.88,2.36-1.25c.74-.39,1.59-.7,2.3-1.13l4.44-2.65,2.3-1.4c1.04-.64,2.25-1.44,3.42-1.76.45.35.89,1.51.72,1.96l-3,1.9c-1.26.8-2.49,1.58-3.56,2.6l-2.66,2.52-2.39,1.94-2.43,2.02ZM305.32,166.42l1.61-1.34,1.98-1.7,2.14-1.85,2.3-2,2.62-2.28,2.26-2.04,1.9-1.79,1.43-1.32,2.46-2.15,1.8-1.57,1.58-1.48,1.79-1.6,2.1-1.88,1.62-1.45c2.48-2.22,2.87-2.07,4.74-4.15l-2.75,1.28-1.58.82-8.14,4.14-3.74,2.09-3.8,2.04-6.69,4.07-4.96,3.02-2.71,1.87-2.62,1.69-2.79,1.81c-1.16.75-2.4,1.55-3.62,2.15l-3.2,1.57c-.54.27-1.51.41-2.2.51-1.52.22-3.04-.46-3.22-2.02.31-.52.84-1.44,1.18-1.87l2.75-3.44,1.37-1.69,1.25-1.54,2.04-2.21,1.84-2.16,1.4-1.67,1.52-1.82,1.43-1.67c.53-.62,1.09-1.18,1.57-1.81l1.46-1.91,3.02-4.04,1.25-1.49,2.1-2.83,2.03-2.58,1.35-1.71,1.54-1.85,2.64-3.21,3.54-4.43,1.6-2.07c.6-.78,1.01-1.37,1.61-2.37-1.32.48-2.72,1.79-3.55,2.59-2.54,2.41-3.58,2.51-5.29,4.18l-1.42,1.39c-1.97,1.92-.79.63-3.04,2.45l-1.7,1.38-1.71,1.38-2.64,2.48-2.03,1.72-2.01,1.66-1.89,1.51c-.67.54-1.34,1.11-1.96,1.7l-1.59,1.51-2.15,1.81-2.14,1.85-1.82,1.57-3.05,2.75-1.15,1-2.24,2.07-2.39,2.22-1.69,1.68-1.23,1.23-4.67,4.57-1,.78-3.01,2.86-2.07,1.9-4.29,4.01c-1.47,1.37-1.33,1.67-3.75,3.9l-2.55,2.36-1.73,1.68c-.66.64-1.12,1.31-1.66,2.18h4.83s1.52-.14,1.52-.14l3.72-.19c.94-.05,2.09-.44,3.08-.49l2.98-.14,2.49-.31c.76-.09,1.57-.26,2.35-.4,1.28-.24,2.49-.35,3.79-.53l5.56-.77,2.2-.3,2.12-.32,2.15-.29,3.63-.16,2.72-.29c.38-.04,1.06-.82,1.37-1.06l3.94-3.17c.35-.28.86-.84,1.23-1.18l2.95-2.69ZM180.59,143.32l4.09-1.14-2.32-5.7-.67-1.45c-.8-1.72-1.74-3.31-2.7-4.95l-1.25-2.14c-.4-.69-.85-1.44-1.21-2.14l-3.99-7.73c.42,1.94.94,3.54,1.47,5.33l1.61,5.41,1.98,6.9.61,2.2.55,1.88.79,2.88c.07.25.74.75,1.03.67ZM230.83,172.43c-.16.88.15,1.81.4,2.63s1.31,1.78,2.08,1.15l.97-2.11,1.08-2.36c.86-1.87,1.78-3.67,2.75-5.47l2.58-4.79,2.05-3.79,1.2-2.2,2.79-5.74c.81-1.66,1.85-3.07,2.58-4.79l1.01-2.35,1.75-3.2.95-1.78,1.16-2.24,1.04-2.01,1.38-2.61,1.19-2.21,1.62-2.96,2.33-4.46c.15-.29.29-.74.37-1.1l-2.06,2.5-2.17,2.76-1.21,1.83c-.08.12-4.6,6.14-4.99,6.65l-1.89,2.43-1.49,1.85-2.01,2.65c-.31.41-.72,1.29-1.03,1.66l-1.41,1.7-1.5,1.88-1.75,2.24-3.18,4.2-1.5,1.85-2.72,3.43-1.5,1.89c-.58.73-1.19,1.63-1.7,2.34,1.32,1.35,1.89,2.42,1.68,4.36l-.4,3.69-.46,2.48ZM186.29,159.31l3.97.3c-.29-1.49-.62-2.65-1.06-4.09l-.74-2.4-1.25-3.97-1.83-5.23c-.7.06-1.49.17-2.08.31l-3.16.75.85,3.34.53,2.26.65,3.02c.2.94.38,1.9.51,2.84l.36,2.58,3.24.29ZM173.1,158.7c1.29-.27,2.73-.53,3.97-.35l3.7.51c.04-1.27-.05-2.56-.34-3.83-.59-2.67-.81-4.72-1.32-6.63l-.61-2.28c-.08-.32-.69-.73-1.02-.64l-3.22.83-1.91.49c-1.53.39-3.19.71-4.64,1.27l-2.88,1.13c-.98.38-2.13.74-3.07,1.23-1.65.87-1.48,3.85.07,4.68.76.41,1.66.77,2.39.96l2.29.59c1.12.29,4.01,1.74,6.58,2.03ZM399.49,241.25h13.63s2.74.29,2.74.29l3.08-.11,1.68-.1,3.84-.24,3.11-.23c1.81-.13.43-.39,1.76-.26l.44.04c.1.01.35.03.42.02l2.29-.1,11.11-.06c.1,0,.27,0,.39.01l.5.03c1.32.08.56-.13,2.12-.24l.62-.04.6-.05,3.07-.23,2.37-.11,1.95-.15,9.75-.09,3.6-.15,4.47-.18c.17,0,.47-.07.6-.09l.58-.07,2.08-.22.49-.08.53-.07.6-.06,1.87-.2,3.39-.33,3.13-.53,3.52-.25,2.56-.18c.99-.07,1.81-.25,2.83-.48.62-.14,1.62-.13,2.33-.22l2.17-.27c.19-.02.67-.21.9-.3h.25s.43.26.43.26c.04.03.35-.05.39-.09l.35-.24s.28-.07.32-.06l.5.08c.53.09.44.08.96-.1l.46-.17.47-.17c.94-.34.27.48,2,.19l.44-.07.4-.07.52-.09c.09-.02.35-.04.5-.05l.66-.03c.12,0,.45,0,.52.01l.6.09c.71.11.26.14.87.07l.49-.06.56-.07.58-.07.55-.07c.1-.01.29-.03.39-.03h.41c.13-.02.31-.02.37-.03l.51-.06.59-.06c.14-.01.41-.02.55-.03h.7c.08,0,.42.02.5.04l.55.09.44.07c.06,0,.35-.05.41-.07l.45-.16.47-.16.53-.11c.09-.02.39,0,.59,0h.61s.62,0,.62,0h.63c.19,0,.4,0,.58-.02l.56-.04c1.02-.07.1-.05.83,0l.49.03.55.02c.07,0,.37-.07.53-.11l.51-.12.53-.07c.08-.01.4,0,.6,0h.61s.62,0,.62,0h.61s.61,0,.61,0h.61s.61,0,.61,0h.61s.62,0,.62,0h.62s.62,0,.62,0c.09,0,.39-.05.52-.08l.51-.11.52-.11c.09-.02.41,0,.57,0h.63s.62,0,.62,0h.66c.09,0,.42-.01.51-.03l.54-.1.48-.08c.58-.09.06.15,1.3,0l.49-.06c.06,0,.33.07.48.1l.5.1c.94.19.68-.36,2.01-.16l.49.07c.06,0,.35,0,.4,0l.49-.06.6-.08c.07-.01.37,0,.54,0h.63s.61.01.61.01c.72,0,.53.04,1.14-.09l.51-.1c.82-.17.24-.11,1.1-.12h.62s.62,0,.62,0h.62s.57-.05.57-.05l.53-.05.42-.04.4-.03.4-.03.48-.04.59-.05c.15-.01.37-.02.57-.02l.63-.02c.91-.02.14.08,1.11-.12l.52-.11c.1-.02.41-.07.52-.07h.61s.62-.01.62-.01h.58c.27-.01.72-.2,1.02-.23l.55-.05.6-.05c.19-.02.43-.04.51-.05l.54-.1.53-.11c.09-.02.4-.02.54-.02h.64s.62,0,.62,0h.63c.65,0,.44.03,1.09-.12l.52-.12c.07-.02.37-.04.5-.04l.64-.03.6-.03.49-.03.39-.02c.23-.01.66.13.94.07l.52-.11.51-.1c.11-.02.36-.03.54-.05l.6-.06c.18-.02.44-.04.51-.05l.54-.09.52-.11.59-.03.62-.03.51-.05.52-.1c.91-.18.13-.08,1.11-.14l.61-.04c.1,0,.4-.05.48-.07l.5-.13.49-.13c.15-.04.39-.11.45-.11l.56-.08.55-.09.53-.09c.17-.03.33-.06.5-.08l.56-.07.59-.08c.67-.09.17.08.99-.25,1.39-.02,4.37-.97,4.29-.96l2.38-.21.64-.05,3.1-.34c3.46-.38,3.83-.19,7.35-.52l2.55-.25,2.95-.21,2.79-.28,4.92-.84,3.21-.51c2.23-.35,2.22-.16,3.64-.33l1.94-.24,2.57-.25,3.69-.32,2.99-.33,2.54-.22,2.25-.19c.65-.05,1.74-.38,2.35-.38l9.55-.05c.41,0,1.14-.17,1.58-.19l3.61-.16c1.19-.05,4.02-.63,5.85-.77l4.3-.33,2.76-.18,1.34-.08,1.42-.09,3.11-.23,2.68-.19,2.47-.29,2.48-.29c.51-.06,1.09-.14,1.55-.17l3.03-.19,2.23-.14,2.66-.19,2.19-.08,5.07-.15c.9-.03,1.79-.05,2.69-.15l3-.35,3.37-.29,3.61-.26c.44-.03,1.11-.08,1.55-.14l2.7-.41,4.46-.74,1.83-.29,2.46-.33c.79-.11,1.63-.22,2.41-.29l3.43-.28c1.31-.11,2.57-.25,3.87-.45l1.96-.3c.45-.07,1.05-.28,1.57-.42l.53-.14,1.67-.44,2.04-.5.83-.18c.72.15-.01,0-.52-.11h-.65s-.61,0-.61,0h-.61s-.61,0-.61,0h-.63c-1.25-.03-1.17-.25-1.59-.25h-.48s-.43,0-.43,0h-.37s-.5-.03-.5-.03l-.6-.02h-.6s-.62-.02-.62-.02h-.61s-.62,0-.62,0h-.61c-.63.01-.61.04-1.14-.08l-.51-.11-.52-.11c-.1-.02-.42,0-.57,0h-.63s-.62,0-.62,0h-.62s-.61,0-.61,0h-.61c-.09,0-.4-.06-.55-.09l-.51-.09-.5-.09c-.05,0-.32.01-.45.02h-.38c-.11.02-.28,0-.44-.01l-.56-.03c-.19-.01-.39-.02-.59-.02h-.63s-.61,0-.61,0h-.61s-.61,0-.61,0h-.61s-.61,0-.61,0h-.61s-.61,0-.61,0h-.61s-.61,0-.61,0h-.61s-.61,0-.61,0h-.61s-.61,0-.61,0h-.61s-.61,0-.61,0h-.62s-.61,0-.61,0h-.61s-.55-.09-.55-.09l-.51-.08-.52-.08-.57-.09-.55-.08-.51-.08-.56-.09c-.08-.01-.41-.04-.51-.04h-.65s-.62,0-.62,0h-.61s-.61,0-.61,0h-.61s-.62,0-.62,0h-.61s-.61,0-.61,0c-.08,0-.41-.07-.52-.09l-.52-.1c-1.34-.27-.98.3-1.96.12l-.49-.09c-.13-.02-.39-.08-.45-.07l-.48.1-.52.11c-.09.02-.42.02-.55.02h-.64s-.62,0-.62,0h-.61s-.61,0-.61,0h-.61s-.61,0-.61,0h-.61s-.61,0-.61,0h-.61s-.63,0-.63,0h-.6s-.6.04-.6.04l-.49.02-.38.02-.44-.03-.55-.04-.67-.05c-.16-.01-.88.05-1.09.08l-.45.07-.32.05-.37.06-.48.07h-.59s-.63,0-.63,0h-.62s-.61.01-.61.01h-.61s-.61,0-.61,0h-.61s-.61,0-.61,0h-.61s-.61,0-.61,0h-.61s-.61,0-.61,0h-.62s-.61-.01-.61-.01c-.66,0-.6-.03-1.14.09l-.51.11-.53.1c-.07.01-.42.02-.56.02h-.63s-.62,0-.62,0h-.61s-.61,0-.61,0h-.61s-.61,0-.61,0h-.61s-.61,0-.61,0h-.62s-.61-.01-.61-.01c-.88,0-.47-.02-1.15.1l-.51.09c-.16.03-.4.09-.51.09l-.59.03-.62.04c-.08,0-.35.06-.46.08l-.52.11-.52.1-.51.1-.51.1-.52.1-.5.11c-.17.04-.41.11-.51.12l-.56.04-.6.05c-.18.01-.42.04-.52.05l-.53.09-.52.1-.54.09-.52.08-.51.08-.54.09-.53.1-.5.09c-.17.03-.44.1-.53.1h-.57s-.62.01-.62.01h-.64c-.07.01-.38.06-.49.08l-.52.1-.52.1-.59.03-.62.03-.53.04-.5.12-.51.11c-.06.01-.44-.04-.51-.05l-.52-.12c-.7-.16-.19-.18-.98-.01l-.51.11c-.58.12-.44.1-1.14.09h-.61s-.61,0-.61,0h-.61s-.61,0-.61,0h-.61s-.61,0-.61,0h-.61s-.61,0-.61,0h-.62s-.62,0-.62,0h-.65c-.07,0-.35.05-.49.08l-.51.11-.53.11c-.07.02-.4,0-.56,0h-.62s-.62,0-.62,0h-.62s-.61,0-.61,0h-.61c-.09,0-.39.06-.55.08l-.51.08-.52.08-.57.09-.55.09-.51.08-.55.09c-.08.01-.4.03-.52.03h-.65s-.62,0-.62,0h-.62s-.62,0-.62,0h-.62c-.09,0-.45.04-.52.06l-.52.13-.49.12-.5.13c-.15.04-.32.08-.48.11l-.53.1-.51.1-.5.09-.54.09-.54.1-.51.09-.54.1c-.08.01-.39.02-.54.02h-.63s-.62,0-.62,0h-.6s-.55.08-.55.08l-.51.08-.52.09-.54.1-.52.09-.51.09c-.15.03-.44.08-.53.08h-.62s-.62,0-.62,0h-.62s-.62,0-.62,0h-.63s-.57.01-.57.01c-.08,0-.36.08-.52.11l-.53.11c-.07.02-.39.05-.48.05h-.65s-.61.03-.61.03l-.55.07c-1.03.14-.23.08-.9.05l-.45-.02-.43-.02-.38-.02c-.06,0-.24.04-.36.05l-.42.06-.54.09-.53.03h-.65s-.62,0-.62,0h-.61s-.61,0-.61,0h-.61s-.61,0-.61,0h-.61s-.61,0-.61,0h-.61s-.61,0-.61,0h-.61s-.61,0-.61,0h-.61s-.61,0-.61,0h-.61s-.61,0-.61,0h-.61s-.61,0-.61,0h-.61s-.61,0-.61,0h-.61s-.61,0-.61,0h-.61s-.61,0-.61,0h-.61s-.61,0-.61,0h-.61s-.61,0-.61,0h-.61s-.61,0-.61,0h-.61s-.61,0-.61,0h-.61s-.61,0-.61,0h-.62s-.61,0-.61,0c-.79,0-.51-.03-1.14.09l-.52.1c-.16.03-.43.1-.52.1l-.51-.03-.44-.03-.39.02-.49.02-.6.03c-.19,0-.39.01-.59.01h-.63s-.61,0-.61,0h-.61s-.62,0-.62,0h-.63c-.15,0-.48,0-.56.01l-.53.11-.51.11c-.12.02-.46.09-.52.09h-.62s-.61-.01-.61-.01h-.62s-.61,0-.61,0h-.61s-.62,0-.62,0h-.64c-.18,0-.41,0-.57.02l-.56.04c-.15.01-.38.04-.43.03l-.39-.02-.49-.04c-.37-.03-.82-.09-1.18-.01l-.52.11-.51.11c-.12.03-.43.08-.51.08h-.62s-.62,0-.62,0h-.62s-.61,0-.61,0h-.61s-.62,0-.62,0h-.61s-.6,0-.6,0c-.57,0-1.34.29-1.24.29l-6.98.04h-.72c-.81,0-.95.25-1.14.25l-5.1.07-.76.24-5.52.06-2.6.05-.47.09-3.11.18-1.99.13-2.02.1-5.16.15-3.11.2-3.1.2-4.23.21-2.8.21-2.8.21-4.53.2-2.49.2-2.54.2-2.69.14-2.48.19-5.75.19-2.81.24-1.86.19-4.23.19-2.8.23-1.63.13-1.18.09-2.75.29-6.91.11-1.42.26h-4.77s-1.35-.25-1.35-.25l-4.46-.15c-3.02-.1-1.22.07-3.88-.04l-1.49-.07-1.45-.05-3.98-.12c-.63-.02-1.23-.09-1.9,0l-2.72.34-12.56.08-1.19.13-1.91.09-9.5.09-2.16.19-4.6.16-2.14.22-2.81.22c-1.93.15-3.83.13-5.78.13h-1.59s-7.89-.06-7.89-.06l-1.33-.24-5.14-.1-1.6-.08-3.03-.17-3.1-.19-4.23-.22-3.11-.2-2.81-.21-7.23-.12-1.38-.28-8.17.02-1.54.2c-.68.09-8.61.09-9.83,0l-4.31-.3c-.63-.04-1.45-.18-2.12-.28l-2.72-.41-4.33-.57-2.47-.27-2.43-.32-2.86-.46c-.87-.14-1.75-.28-2.59-.49l-2.72-.66-2.45-.62-2.72-.68c-1.98-.5-4.96-1.94-6-3.79-.49-.87-.14-2.19.51-2.73l1.39-1.14,2.85-2.39c.37-.31,1.02-1.05,1.44-1.31l6.63-4.1,4.04-2.45c2.91-1.76,5.7-3.5,8.72-5.05l2.46-1.26,1.67-.83c.4-.2.86-.5,1.3-.8l-4.07.53-2.74.39-9.94,1.73-3.43.59-2.57.46c-1.24.22-2.47.46-3.7.51l-3.36.14c-.63.03-1.25.03-1.88,0l-2.78-.11c-.67-.03-2.01-.62-2.6-.96-.84-.47-2.06-3.25-.8-5.51s2.72-4.15,4.47-5.95l3.03-3.11,1.05-.79,2.36-2.25,1.7-1.69c.28-.29.71-.73.41-.42l-.99-.15c-.15-.02-.54-.07-.66-.06l-3.63.33-.56.15-1.93.19-3.83.55-4.11.65-2.54.25-2.43.31-2.49.32-2.38.3-3.11.32-2.12.28-3.63.19-2.51.2c-4.54.36-2.51-.16-6.46.09-.58.68-.93,1.1-1.38,1.58l-4.91,5.22-1.84,2.13-2.02,2.28-1.33,1.44-2.07,2.25c-1.35,1.47-5.08,4.54-7.15,3.59-.5-.23-1.49-1.2-1.58-1.75-.15-.91-.2-2.68-.05-3.53l.72-3.97c.97-5.39,2.28-6.55,4.07-11.32l-2.09-1.08c-3.18-4.95-1.26-5.12-.99-9.84.02-.3.38-4.47-.7-3.99-.11.05-.46.24-.53.34l-2.15,2.92-1.46,1.97-2.4,3.44-1.12,1.65-1.86,2.75c-1.06,1.57-1.88,3.16-2.96,4.74l-1.72,2.51-2.01,3.52-1.28,2.16c-.79,1.34-2.65,2.35-4.42,1.67-1.29-.49-2.16-1.28-2.86-2.39l-1.3-2.05-2.85-5.46c-.74-1.41-1.32-2.96-1.93-4.47l-.88-2.2c-1.25-3.12-2.73-6.01-4.05-9.11l-1.79-4.2c-1.48-.73-3.87-.44-6.81-.69l-.64-.05c-.09,0-.04.15-.01.32l.33,1.8.89,4.9.91,5,1.47,8.04c.11.6.17,1.29.25,1.94.34,2.69.65,3.51-1.46,5.09-1.6,1.2-3.2,2.01-5.02,2.72l-1.79.69c-2.59,1-6,.93-8.75.83l-4.55-.17-4.02-.53c-1.34-.18-6.41-1.29-7.54-1.65l-2.08-.65-3.22-1.08-3.24-1.04-3.28-1.03-6.17-1.84-1.91-.51-3.38-.9-3.37-.93-2.76-.68c-1.56-.38-3.07-.74-4.6-1.21l-6.87-2.11c-1.11-.34-2.08-.69-3.13-.79l.76.45,3.09,1.84c2.78,1.66,1.31.37,4.61,2.39l1.15.71,3.36,1.9,3.34,1.88,3.93,2.2,3.52,1.97,2.56,1.43,2.77,1.55c.7.39,1.4.83,2.08,1.27l5.03,3.27c1.3.84,2.47,1.82,3.65,2.81l4.01,3.36c.68.57,5.08,5.77,3.82,6.62-1.03.69-3,1.59-4.39,1.91l-10.74,2.5c-.1.02-7.78.99-8.53,1.06l-2.18.22c-4.29.43-2.71-.08-7.19.7-1.38.24-3.03,0-4.46.21l-3.11.47-3.41.31-2.46.27-3.07.32-2.38.17-3.11.28c-.87.08-1.79.21-2.67.34l-1.9.27-2.76.33-2.8.24-2.51.2c-.79.06-1.93.36-2.73.36l-21.75.08c-.9,0-2.14.24-3.03.35l-2.45.31-2.17.29-4.67.82-2.82.49c-.59-.06-.64-.05-.05.15,1.06.4,2.09.8,3.08,1l4.35.87,4.39.87c2.25.45,1.48.1,4.29.57l2.13.36,2.45.35c2.21.32,4.3.98,6.49,1.44l2.07.44,6.06,1.3c1.32.28,2.69.43,4.03.63l3.68.55,2.19.31,3.13.45,2.19.32,2.94.49,3.32.65,2.85.52,2.37.4,3.13.55c.7.12,1.45.2,2.18.29l2.77.31,2.76.3,3.41.31,2.68.31,2.83.3,3.04.3,3.4.31,2.78.32c.58.07,1.3.03,1.88.11l1.92.26,1.77.29,4.62.91,2.91.65c2.21.49,2.1-1.47,3.87-.62l3.55,1.71c.43.21,1.53.94,1.17,1.34-2.04,2.29-3.2,3.02-5.82,4.06l-5.95,2.35c-1.91.76-4.59,1.17-6.6,2.28-1.52.84-2.88,1.49-4.49,2.04l-4.34,1.48c-1.43.49-2.9,1.37-4.36,1.63s-2.69.48-3.97.98l-2.3.89-5.5,1.88c-1.57.54-3.02,1.04-4.69,1.38-.92.19-1.68.68-2.5,1.13-2.97,1.66-4.66,2.28-7.8,3.32l-4.62,1.53c-.59.19-1.28.58-1.86.81-1.67.66-3.35,1.19-5.07,1.72l-4.92,1.52-6.02,1.99-2.54.89c-.28.1-.84.41-1.15.54l-3.26,1.39-1.51.67c-2.1.93-4.07,2.04-6.32,2.6l-2.94.73c-.74.18-1.48.62-2.13.94l-3.12,1.51c-1.25.6-2.49,1.26-3.79,1.71l-2.07.71-2.79.95c-1.12.38-2.38,1.07-3.43,1.67l-1.97,1.13c-1.52.87-3.06,1.64-4.66,2.4l-1.48.7-2.06,1-8.32,3.92-3.4,1.54c-.5.23-1.13.54-1.61.8l-2.59,1.42c-1.22.67-2.44,1.32-3.73,1.77l-3.18,1.11c-3.22,1.12-4.95,2.14-7.45,4.48l-.33.5.73-.14c.27-.05.97-.12,1.3-.25l11.33-4.64c.16-.06.65-.09.72-.1l.55-.08.52-.08.51-.08.53-.08c.08-.01.63,0,.74-.03l4.51-1.44,3.31-1.06c.48-.15,1.03-.41,1.54-.61,3.46-1.39,4.65-1.52,8.15-2.29l2.45-.53,4.15-.91c4.34-.95,4-.08,7.52-.96l3.63-.91,3.29-.78,10.29-2.28,4.29-.97,6.07-1.34c.71-.16,1.66-.28,2.29-.48l3.72-1.13,2.34-.71,6.82-2.14c2.66-.84,5.24-1.57,7.96-2.21l3.7-.87,3.07-.67c1.04-.23,2.08-.31,3.18-.48l5.24-.82,4.01-.64c.64-.1,1.32-.27,1.94-.43l3.94-1.03,1.9-.52,2.14-.64,3.01-.96,3.04-.98,3.23-1.17c1.29-.46,2.51-.95,3.82-1.33l3.8-1.1c1.05-.31,2.09-.75,3.13-1.13l8.18-2.94,2.29-.82,2.03-.72,4.89-1.57,3.98-1.25c2-.63,6.16-.79,7.34,1.75l-.94,1.63c-1.17,2.04-2.15,3.48-3.54,5.34l-2.24,3-1.35,1.72-4.27,5.23-1.26,1.54c-.44.53-.99,1.04-1.46,1.57l-1.44,1.63-2.02,2.29-1.49,1.56c-1.07,1.12-1.91,2.35-3.06,3.39-.63.57-.99,1.19-1.55,1.85l-1.96,2.29c-.76.89-1.51,1.77-2.31,2.61l-1.2,1.25-2.1,2.18-2.27,2.36-1.47,1.6-2.07,2.21-5.54,6.19c-.45.5-1.37,1-2.52,2.62-1.23,1.75-2.91,3.5-4.4,4.66-.14.11-.23.85-.06.79.11-.04.45-.17.57-.26l3.45-2.53,3.25-2.01,5.31-3.58,2.52-1.46,2.08-1.29,9.67-5.98,2.12-1.29,4.08-2.66,3.35-2.18c.75-.49,1.5-.96,2.27-1.4l2.34-1.34,3.39-2.11,1.93-1.16,3.48-2.03,2.7-1.58,2.11-1.28,1.67-1.06,3.28-1.97,1.59-.85,2.55-1.44,2.94-1.66c2.2-1.24,4.21-1.82,6.58-2.69.44-.16,1.26-.61,1.71-.69l3.66-.7c1.09-.21,2.96.29,3.71,1.12l1.2,1.34c.74,5.05-1.36,5.53-2.03,11.22-.08.67-.47,1.53-.56,2.03-.3,1.52-.6,2.99-1.06,4.5-1.07,3.5-1.45,2.99-1.32,5.12.02.33-.46,1.05-.53,1.38-.37,1.56-.7,3.38-1.31,4.85l-2,4.81-1.12,2.08c-.2.37-.42,1.1-.62,1.61l-.64,1.64-.9,2.17c-.47,1.13-.87,2.24-1.25,3.41-.05.16-1.45,2.77-.63,2.71l1.94-3.75,1.63-2.91,2.77-4.85c.95-1.66,1.64-3.44,2.61-5.09l1.48-2.51c.34-.57.69-1.15,1.06-1.7l1.22-1.85,1.23-1.85.93-1.51,1.74-2.58,1.07-1.67,1.56-2.44,3.06-4.62,3.59-5.59c.57-.89,1.1-1.76,1.75-2.56l1.94-2.39c.95-1.17,2.05-2.19,3.24-3.24.67-.59,1.95-1.08,2.9-1.36,3.25-.94,7.14,2.23,9.12,3.52l2.59,1.69,1.83,1.59c.88.76,1.67,1.81,2.46,2.71l2.46,2.78,1.55,1.82,1.54,1.84,1.55,1.86c.78.94,2.54,2.42,4.15,4.16l2.96,3.19c.05.06.51.05.49-.02l-.09-.44-.61-2.82-.92-3.66-.92-3.76-.65-2.8-1.12-5.6-.32-1.77-.54-2.83c-.32-1.69-.2-3.58.67-4.94.79-1.23,1.94-1.03,3-.57.94.4,1.9.72,2.73,1.31l1.77,1.26c1.11.79,2.2,1.47,3.26,2.29.6.46,1.16.91,1.79,1.31l2.81,1.79c1.9,1.21,4.36,2.9,5.92,4.47l4.92,4.94c.38.38.83,1.09,1.19,1.53l1.42,1.69,1.47,1.59c2.59,2.79,2.03,1.76,4.16,3.79.8.77,1.48,1.38,2.36,1.96l3.52,2.34c.49.32,1.05.83,1.51,1.22l1.17.99,1.68,1.41c.65.55,1.29.99,2.24,1.58l-2.59-4.62c-.63-1.12-1.21-2.28-1.79-3.45l-.91-1.85-1.03-2.03-1.3-2.38-2.61-4.41-2.18-3.68c-1.2-2.03-2.31-4.02-3.36-6.15l-1.02-2.07c-.78-1.58-1.55-3.11-2.42-4.63l-1.01-1.75-5.28-8.75-1.44-2.63c-1.66-3.03-3.06-5.9-3-9.5,0-.45,1.08-1.44,1.55-1.28l4.75,1.58,2.49.92c4.74,1.75,6.78,3.2,11.63,4.62-.2-.56-.43-.86-.83-1.23-2.28-2.16-3.88-3.72-5.79-6.16l-2.18-2.79c-.51-.66-1.08-1.65-1.48-2.42l-1.62-3.06c-1.49-2.82,8.14-2.38,9.29-2.43l1.83-.07h8.18s1.43.26,1.43.26l4.5.1c.64.01,1.72.2,2.35.34l3.3.72c.57.12,1.14.21,1.7.3l2.21.36c.64.1,1.51.27,2.1.29l4.83.2,2.19.13,1.89-.09,2.76.15,2.48.2,3.95.36,2.8.26,3.3.2,3.11.27c.81.07,1.72.19,2.5.2l6.58.08c1.12.01,2.28,0,3.42.08l2.85.19,3.11.23,3.07.3c2.51.24,5.09.19,7.59,0l3.73-.28,3.34-.31,2.81-.29,3.39-.5c.85-.13,1.95-.3,2.91-.3ZM225.67,164.64c.28-.39.61-1.04.75-1.34l-3.6.32c-4.15.37-2.29.75-6.46.35l-3.38-.32c-1.47-.14-3.02-.1-4.53-.16l-1.88-.08c-2.33-.09-3.07.21-4.83-.21l-3.24-.76c-1.18-.27-3.43-.58-4.96-.39.18.71.31,1.65.6,2.29l4.12,9.04,2.22,5.48c.89,2.19,2,4.3,3.2,6.29l1.64,2.74c.41.68,1.33,1.4,2.22,1.75.4.16,1.52-.27,1.75-.65l2.76-4.61c.42-.7.88-1.42,1.33-2.07l5.07-7.51c.74-1.1,1.48-2.18,2.26-3.26l3.34-4.64,1.62-2.26ZM238.6,190.83l1.45-1.49,2.8-3.31,2.8-2.76c.64-.63,1.16-1.37,1.66-2.11l-3.29-.19c-.68-.04-1.64-.21-2.36-.34l-4.09-.79-2.6-.53c-.64-.13-1.2.07-1.44.67l-1.52,3.74c-.48,1.19-1.42,4.05-1.6,5.1l-.74,4.26c-.16.94-.06,2.21-.1,3.37-.07,1.97,3.33.31,5.05-1.48l3.99-4.14Z"/>
  </g>
</svg>