<?xml version="1.0" encoding="UTF-8"?>
<svg id="svg1" xmlns="http://www.w3.org/2000/svg" xmlns:svg="http://www.w3.org/2000/svg" xmlns:sodipodi="http://sodipodi.sourceforge.net/DTD/sodipodi-0.dtd" xmlns:inkscape="http://www.inkscape.org/namespaces/inkscape" version="1.1" viewBox="0 0 297.74 351.67">
  <!-- Generator: Adobe Illustrator 30.2.1, SVG Export Plug-In . SVG Version: 2.1.1 Build 1)  -->
  <sodipodi:namedview id="namedview1" bordercolor="#000000" borderopacity="0.25" inkscape:current-layer="layer1" inkscape:cx="397.91667" inkscape:cy="565.625" inkscape:deskcolor="#d1d1d1" inkscape:document-units="mm" inkscape:pagecheckerboard="0" inkscape:pageopacity="0.0" inkscape:showpageshadow="2" inkscape:window-height="872" inkscape:window-maximized="0" inkscape:window-width="1440" inkscape:window-x="0" inkscape:window-y="28" inkscape:zoom="0.48" pagecolor="#ffffff"/>
  <g id="layer1" inkscape:groupmode="layer" inkscape:label="Taso 1">
    <path id="path1" d="M271.36,350.53c-1.32-.62-2.68-1-3.23-.91-.56.1-1.84-.28-3.11-.91-1.19-.59-2.06-.91-1.94-.71.55.89-4.61-.33-6.73-1.6-.31-.19-1.25-.55-2.09-.81-1.95-.6-4.42-2.26-4.11-2.77.13-.22.06-.28-.16-.14-.53.33-1.67-.12-1.4-.55.11-.18-.02-.25-.3-.14-.95.36-2.91-2.14-3.03-3.87-.06-.87-.24-1.49-.4-1.39-.44.27-1.42-2.34-1.42-3.81,0-1.98-3.12-7.83-4.18-7.83-.62,0-2.37-3.39-2.1-4.07.14-.36.14-.53,0-.4-.14.14-.69-.27-1.22-.9l-.97-1.15.54-.38.54-.38-.63.2c-.65.21-1.83-2.02-1.83-3.44,0-.63-1.5-3.06-2.73-4.43-.96-1.06-1.82-3.06-1.82-4.21,0-.56-.21-1.38-.47-1.84-.26-.46-.52-2.19-.57-3.86-.05-1.67-.14-4.26-.19-5.75s-.25-2.62-.43-2.5c-.19.12-.25-.28-.13-.88s.03-1.96-.2-3.02c-.28-1.34-.29-2.54-.02-3.89.21-1.07.24-1.86.06-1.75-.18.11-.31-3.14-.29-7.23.02-4.41.17-7.34.38-7.21.19.12.15-.26-.08-.85-.61-1.51-.76-5.88-.19-5.56.27.15.25.05-.04-.27-.59-.63-.63-4.68-.06-5.74.3-.57.3-.71,0-.52-.63.39-.5-3.73.2-6.43.33-1.25.68-2.83.79-3.51.11-.68.36-1.13.57-1,.21.13.1-.19-.25-.72l-.62-.95.26-2.5c.18-1.75.12-2.67-.21-3.06-.58-.7-.39-4.27.52-9.7.45-2.7.6-5,.46-7.13-.11-1.73-.09-3.07.06-2.98.15.09.21-1.46.15-3.44l-.12-3.61.69-.79c.38-.43.48-.66.22-.51-.6.35-.68-5.26-.1-6.78.21-.55.25-.92.09-.82-.44.27-.24-6.9.26-9.24.42-1.97.55-3.03.71-6,.04-.69.2-1.18.36-1.08.16.1.29-1.81.3-4.25,0-2.43.31-8.39.68-13.25.65-8.59.58-17.19-.14-18.11-.16-.21-.35-2.12-.42-4.24-.07-2.12-.23-3.79-.36-3.71-.13.08-.35-1.85-.49-4.3-.14-2.45-.41-6.07-.61-8.05-.2-1.98-.4-4.66-.46-5.94-.06-1.28-.24-2.25-.41-2.14-.17.1-.26-.55-.19-1.46.09-1.19.27-1.62.66-1.53l.54.12-.52-.62c-.68-.82-.54-8.49.21-10.83.11-.33-.15-.92-.57-1.3-.86-.78-1.04-3.14-.35-4.44.31-.58.3-.85-.03-1.06-.25-.15-.4-.6-.33-1,.06-.39-.02-.94-.19-1.22-1.55-2.48,2.11-5.35,4.18-3.28l.97.97-.13,1.65c-.07.91-.02,1.58.12,1.5.33-.2.76,5.59.59,7.89-.07.98,0,1.7.18,1.59.17-.11.31.17.31.61s-.17.7-.38.57c-.21-.13-.38-.05-.38.17s.17.4.38.4.38.52.38,1.16-.13,1.08-.28.98c-.16-.1-.25,1.81-.2,4.25.04,2.43-.07,4.98-.26,5.66-.2.75-.2,1.15.01,1.02.21-.13.36,1.56.37,4.08.05,12.66-.02,12.51,5.86,12.48,2.64-.02,4.72.1,4.63.26-.29.47,10.87-.09,11.78-.59.46-.25,1.15-.45,1.54-.45s3.1-1.04,6-2.31c2.91-1.27,6.14-2.66,7.19-3.08,1.04-.42,2.67-1.12,3.61-1.55s1.81-.76,1.92-.74c.12.03.26-1.52.31-3.44.05-1.92.24-5.02.41-6.9l.32-3.42-1.1-2.6c-.61-1.43-1.1-2.94-1.1-3.35s-.26-1-.57-1.31-.66-1.03-.77-1.59c-.29-1.42-1.37-4.74-1.7-5.19-.15-.21-.4-1.23-.54-2.28-.15-1.04-.68-2.78-1.19-3.87-.51-1.08-.92-2.26-.92-2.63s-.27-.96-.61-1.33c-.33-.37-.63-1.09-.66-1.61s-.16-.87-.3-.79c-.35.22-1.85-3.43-1.85-4.51,0-.51-.51-2.05-1.14-3.43s-1.14-2.74-1.14-3.03-.34-.83-.76-1.21c-.42-.38-.76-.91-.76-1.18s-.31-.8-.7-1.17c-1.15-1.12-2.89-3.95-3.92-6.37-1.67-3.93-1.86-4.53-1.94-6.33-.05-.96-.21-1.67-.37-1.58-.16.09-.28-.32-.28-.93,0-1.2-1.15-5.83-2.06-8.24-.31-.83-.57-1.88-.58-2.33-.03-1.27-4.85-6.88-7.99-9.28l-2.85-2.18-3.23-.46c-1.77-.25-3.65-.63-4.18-.84-2.11-.84-7.44-1.47-15-1.77-4.38-.17-8.91-.52-10.06-.76-4.73-1.01-9.49-1.54-13.82-1.55-2.52,0-6.13-.19-8.01-.4-1.88-.22-3.59-.39-3.8-.38-.21,0-3.28.11-6.83.23-3.55.12-9.27.55-12.72.96-7.69.91-20.89.92-20.33.01.08-.13-1.17-.13-2.78.01-5.42.47-14.38-.03-13.93-.77.09-.15-1.19-.24-2.84-.19-1.66.04-2.95-.03-2.86-.16s-.63-.18-1.57-.1c-.95.08-1.63-.01-1.52-.19.11-.18-.58-.26-1.54-.19-2.47.2-15.68-.36-15.5-.65.35-.59-9.52-.47-13.04.16-6.86,1.22-13.05,3.1-15.37,4.66-.98.66-1.97,1.09-2.2.95-.25-.16-.3-.08-.12.21.18.29-.31.97-1.33,1.85-4.86,4.16-10.77,14.62-14.26,25.23-.74,2.25-1.46,4.01-1.6,3.93-.14-.09-.27.29-.29.85-.02.55-.4,2.37-.84,4.04-1.75,6.61.52,16.13,3.85,16.13,2.05,0,4.6,3.94,7.63,11.76,1.17,3.03,2.38,6.06,2.69,6.75.31.69.56,1.51.56,1.82s.51,1.77,1.12,3.22c.62,1.45,1.17,3.39,1.23,4.31.06.92.24,1.59.4,1.49.6-.37,3.16,7.16,2.7,7.95-.15.26-.12.34.05.18.33-.3,1.32,1.49,3.19,5.74l1.06,2.41.43-1.09c.24-.6.96-1.77,1.59-2.6.64-.83,1.51-2.07,1.93-2.75.43-.68.96-1.12,1.18-.98.24.15.29.07.13-.2-.32-.52,1.21-3.18,1.67-2.9.17.11.22-.15.12-.56-.14-.55.41-1.37,2.1-3.07l2.3-2.32,1.26.27c1.59.34,1.58.33,1.28,1.53-.16.65-.44.93-.79.8-.35-.13-.46-.02-.32.34.12.3-.06.65-.38.77-.32.12-.77.78-1,1.47-.22.68-.83,1.64-1.35,2.12-.52.48-.94,1.19-.94,1.56s-.48,1.24-1.07,1.93c-1.17,1.36-4.62,8.31-4.63,9.34,0,.35-.49,1.22-1.08,1.93l-1.07,1.29-1.64.04-1.64.04-1.06-2.01c-.58-1.11-1.4-2.45-1.83-2.99-.42-.54-.66-1.15-.52-1.37.13-.22.07-.28-.15-.15-.78.48-1.35-.78-.92-2.03.22-.64.26-1.07.09-.97-.3.18-1.56-3.16-1.56-4.13,0-.26-.34-.78-.76-1.15-.42-.38-.76-.96-.77-1.29,0-.33-.26-.94-.57-1.34s-.56-1.13-.56-1.61-.15-.88-.33-.88c-.32,0-.55,1.38-1.05,6.35-.13,1.3-.34,2.3-.47,2.22s-.27,1.16-.32,2.75-.26,3.72-.47,4.72c-.22,1.01-.39,3.71-.39,6.01,0,3.09-.12,4.11-.44,3.9-.31-.19-.35-.06-.14.45.29.68.32,1.06.23,3-.02.42.07,1.42.21,2.23.13.81.09,1.38-.09,1.27-.19-.11-.36,4.08-.39,9.53-.03,5.35-.26,11.18-.5,12.96-.7,5.02-1.55,11.73-1.79,14.13-.12,1.2-.34,2.1-.48,2.01-.15-.09-.2.3-.12.86.22,1.52-1.66,17.94-2.73,23.91-.51,2.86-1.05,6.09-1.19,7.2-.19,1.46-.5,2.2-1.16,2.72l-.9.71.55,2.79c.3,1.53.72,3.73.92,4.87.2,1.15.74,3.62,1.19,5.5.45,1.88.76,3.96.68,4.62-.08.66,0,1.12.16,1.02.17-.1.3-.08.3.04s.27,1.54.6,3.14c.33,1.6.54,3.46.46,4.13-.08.67,0,1.14.16,1.04.17-.1.3.21.3.69,0,.48.35,2.58.77,4.67,1.62,7.98,1.93,10.07,2.45,16.7.3,3.76.83,8.56,1.19,10.68l.66,3.85-.49,2.22c-.82,3.72-1.37,5.26-1.83,5.17-.27-.05-.35.16-.21.54.16.42.09.54-.2.36-.28-.17-.36-.07-.22.29.13.34-.16.81-.73,1.18-.83.54-1.65,1.71-1.21,1.71.09,0,1.2-.87,2.48-1.93,1.31-1.09,2.55-1.84,2.85-1.72.29.11.65.02.8-.22.15-.25.09-.32-.15-.17-.23.14-.52.09-.64-.12-.34-.54.94-2.33,1.45-2.04.24.14.31.11.16-.05-.61-.67.49-1.72,1.8-1.72h1.31l.25.98c.18.7,0,1.32-.62,2.18l-.86,1.2,1.35-1.28c.74-.7,1.54-1.16,1.76-1.02.24.15.33.04.21-.27-.12-.31.58-1.17,1.7-2.12,1.47-1.24,1.95-1.92,2.12-3.01.12-.78.55-2.1.95-2.93,1.5-3.14,3.28-8.37,3.97-11.68.12-.58.35-.98.5-.89.15.09.31-.37.35-1.03.18-2.74,2.05-14.16,2.96-18.08.32-1.36.57-2.87.57-3.37,0-1.39.85-5.72,1.1-5.57.24.15.39-1.59.38-4.41,0-.97.17-1.88.39-2.01.22-.13.4-1.4.4-2.82,0-2.69.49-4.72,1.4-5.77.34-.4.66-2.28.89-5.31.5-6.57.76-8.71,1.06-8.53.14.09.31-.89.38-2.18.07-1.28.28-2.5.47-2.69.2-.2.36-1.58.36-3.07v-2.71l.7-.63c.38-.35.8-.53.92-.4.13.13.14-.11.03-.53-.11-.41.07-1.81.41-3.1s.6-3.01.6-3.82.17-1.57.38-1.7c.21-.13.38-.64.38-1.14s.15-1,.33-1.11c.18-.11.25-.63.15-1.15-.23-1.23.2-2.96.67-2.67.2.12.27-.02.16-.31-.11-.3.16-1.63.61-2.96.45-1.33.82-3.28.82-4.32,0-1.12.3-2.49.74-3.34.41-.81.63-1.77.5-2.18-.15-.46.09-1.19.62-1.93l.85-1.2.06-3.07c.03-1.69.33-3.93.66-4.97s1.1-3.48,1.7-5.41,1.17-3.45,1.26-3.36c.09.09.21-.67.26-1.68.05-1.01.51-2.78,1.01-3.93s1.04-3.08,1.19-4.29c.31-2.53.79-3.66,1.39-3.29.25.15.31.09.15-.17-.37-.6.55-3.51,1.02-3.22.21.13.27.05.13-.17s.32-1.49,1.02-2.81c.7-1.32,1.39-2.88,1.53-3.46.16-.65.43-.96.69-.8.26.16.32.09.16-.16-.15-.23.02-.86.36-1.39.74-1.13,3.2-1.42,3.2-.37,0,.33.17.49.38.36.72-.45.38,1.17-.89,4.19-.7,1.66-1.73,4.56-2.28,6.44l-1,3.42v5.81c0,3.2-.13,5.73-.28,5.63-.16-.1-.28.39-.28,1.08s.15,1.16.34,1.04c.2-.12.24.41.1,1.27-.13.82-.25,2.22-.25,3.12s-.13,1.56-.29,1.46c-.16-.1-.29,1.13-.3,2.73-.02,5-.66,17.11-.9,16.97-.12-.08-.17,2.7-.11,6.18s-.05,7-.27,7.84-.49,2.34-.62,3.33-.35,1.74-.49,1.65c-.14-.09-.26.4-.26,1.09s.1,1.19.22,1.12c.26-.16.04,6.54-.36,11.09-.15,1.71-.15,3.03,0,2.94.15-.09.24,1.87.21,4.35-.04,2.49-.15,4.47-.25,4.4-.1-.06-.19.54-.19,1.33s.11,1.38.25,1.29c.28-.17.16,8.66-.13,10.09-.11.52-.12.65-.03.28.75-3.02,1.52,7.69,1.1,15.32-.13,2.38-.33,6.54-.45,9.25-.12,2.71-.34,6.08-.5,7.47-.16,1.4-.18,2.47-.04,2.39.45-.28.42,13.06-.03,13.91-.32.6-.32.73.02.52.33-.21.37.19.16,1.57-.16,1.01-.26,3.21-.24,4.88.05,3.41-.2,5.6-.6,5.36-.15-.09-.21.66-.14,1.66.15,2.15-.6,6.18-1.1,5.87-.19-.12-.25.04-.13.36.58,1.52-2.52,9.38-6.67,16.92-.4.73-1.09,2.15-1.52,3.15-.87,2-1.78,2.62-2.46,1.69l-.44-.6-.51.83-.51.83.6-.49.6-.49.29.47c.18.29-.17.85-.94,1.49l-1.22,1.02.61.23c.34.13.51.08.39-.13-.29-.47.63-.66,5.69-1.15,2.3-.22,5.97-.58,8.16-.79,2.46-.24,6.05-.27,9.36-.08,2.96.17,5.31.2,5.23.08-.08-.13.58-.55,1.46-.95l1.6-.72,6.74.06,6.74.06v-.67c0-2.07,2.91-7.95,3.62-7.31.17.15.17.05.01-.23-.6-1.04,2.9-3.46,5.04-3.48,2.11-.02,4.12,3.79,4.33,8.22l.1,1.97,2.85-.11c1.57-.06,3.75,0,4.85.15,2.93.37,3.19.06,3.32-4.01.38-11.44.57-15.81.79-18,.14-1.36.28-6.22.32-10.81.1-11.04.3-14.77.85-15.42.3-.36.33-.73.09-1.1-.56-.86.02-6.42.84-8.04.39-.77.71-1.71.71-2.07s.24-1.36.53-2.2c.95-2.74,1.47-5.78,1.2-7.08-.61-2.97-.69-4.23-.26-3.96.23.14.42.67.42,1.17s.15.99.32,1.1c.33.2.18-1.38-.23-2.43-.12-.31-.27-1.39-.32-2.39l-.1-1.82.54.45c.3.25.54.3.53.12,0-.48-.74-1.54-.75-1.09-.03,1.03-.76-1-.97-2.72-.26-2.1.11-5.93.55-5.66.15.09.2-.4.12-1.09-.28-2.42,2.07-5.36,4.06-5.07.63.09,1.05.03.95-.14-.11-.17.33-.31.97-.31.76,0,1.16.19,1.16.55,0,.3.2.67.44.82.26.16.34.1.18-.14-.14-.23-.1-.5.08-.62.85-.52,2.96,7.58,2.59,9.9-.11.7-.09,1.2.06,1.11.15-.09.57,2.42.94,5.59.37,3.17.86,6.89,1.09,8.27.41,2.48.21,4.72-.4,4.34-.17-.11-.22.27-.1.84l.22,1.03.13-.85c.22-1.42.86-.96.79.57-.03.78.15,2.7.4,4.27.85,5.17,1.13,8.11,1.14,12.09l.02,3.94-.66-.51-.66-.51.68.8.68.8-.39,2.42c-.22,1.33-.39,2.56-.4,2.73,0,.17-.13.23-.29.13-.16-.1-.3.19-.33.64-.06,1.07-.09,5.39-.05,7.08.07,3.06-.23,6.3-.62,6.81-.33.42-.31.48.05.26.37-.22.47.47.47,3.06,0,1.84.12,4.97.28,6.95l.29,3.6,1.14.1c2.18.2,8.74,1.28,9.76,1.6l1.03.33.23-1.4c.31-1.91.87-3.19,1.28-2.94.19.12.26-.11.16-.5-.48-1.82,2.81-5.36,4.99-5.36h1.29l1.36,1.59c1.39,1.63,2.36,4.15,1.88,4.93-.15.25-.1.33.13.19.23-.14.85.86,1.48,2.41l1.09,2.65,1.96.57c1.78.52,7.81,1.62,12.38,2.26,1.16.16,1.72.4,1.55.67-.15.24-.08.31.17.15.5-.31,6.54.57,6.32.92-.08.13.88.08,2.14-.11,3.79-.57,4.66,1.35,1.84,4.09l-1.53,1.5-3.02.14-3.02.14v-1.31l-.59.49-.59.49-3.57-.7c-1.96-.39-3.51-.8-3.43-.92.07-.12-.92-.21-2.2-.21-2.72,0-9.81-1.66-9.47-2.21.13-.21.03-.25-.23-.09-.56.34-2.77-.5-2.49-.95.11-.18.47-.21.8-.09l.6.23-.7-.81c-.45-.53-.83-.68-1.07-.44-.66.66-1.75-.75-1.75-2.27,0-1.02-.31-1.74-1.17-2.69l-1.17-1.3.27,2.54.27,2.54-1.02,1.02c-.75.75-1.13.91-1.45.59-.58-.58-.91-.54-1.18.16-.12.32-.07.49.12.37.19-.12.45-.06.56.13.24.38-.62.8-1.62.8-.35,0-.95-.47-1.33-1.04-.38-.57-.59-.74-.48-.38.24.78.01.81-1.61.25-.68-.24-1.09-.59-.95-.82.14-.22.09-.3-.11-.18-.2.12-1.63-.02-3.19-.32-1.56-.3-3.32-.54-3.92-.54h-1.08s.24-.62.24-.62l.24-.62-.52.43c-.59.49-2.95.17-3.36-.46-.17-.26-.47-.22-.87.12-1,.83-1.61-.08-.95-1.4.86-1.72.86-1.86,0-.86l-.82.95.24-1.09c.13-.6.49-1.34.79-1.64l.55-.55.03.69c.02.38.11.48.22.23.1-.25,0-.77-.21-1.14-.22-.37-.4-.46-.41-.2,0,.26-.15.47-.33.47-.37,0-.28-5.79.1-6.41.14-.23.09-.42-.11-.42-.73,0-.91-2.91-.25-3.93l.62-.95-.43-.79c-.24-.45-.43-2.66-.44-5.05,0-2.34-.01-5.37-.02-6.73,0-1.36.18-4.17.4-6.26.78-7.18.93-10.44.5-11.31-.53-1.08-1.32-7.89-1.4-12.12-.04-1.82-.18-3.43-.32-3.57-.14-.14-.26-.65-.26-1.12s-.26-1.85-.57-3.06c-.32-1.21-.47-2.75-.34-3.44.13-.69.06-1.46-.15-1.72-.21-.26-.51-1.63-.66-3.05l-.27-2.58.67-.74c.45-.5.52-.74.19-.74-.3,0-.41-.29-.28-.76.11-.42.07-.68-.09-.58-.16.1-.4-.7-.52-1.77-.46-3.87-1.82-3.32-1.44.59.33,3.39.09,15.12-.33,15.61-.19.23-.25.79-.14,1.24.12.45-.15,2.01-.59,3.45-.44,1.45-.8,3.07-.8,3.59s-.2,1.44-.44,2.03c-.24.59-.4,2.07-.35,3.29s-.06,2.13-.24,2.02c-.18-.11-.26.39-.17,1.12s.03,2.94-.12,4.92l-.27,3.6-.59-.49-.59-.49.37.76c.22.45.34,5.41.3,12.33-.11,18.24-.13,19.04-.55,18.78-.21-.13-.38.04-.38.38,0,.36.18.5.43.35.31-.19.37.3.2,1.78-.34,3.03-.38,6.42-.08,7.93.39,1.99-.59,4.04-2.08,4.37-1.31.29-1.97-.05-1.11-.58.42-.26.35-.33-.31-.28-.52.04-.79.25-.67.55.27.71-1.2.96-4.67.77-1.68-.09-2.98-.04-2.89.11.24.39-2.24.74-5.27.74h-2.6s.22-.57.22-.57c.14-.37-.01-.57-.45-.57-.37,0-.9-.21-1.18-.47l-.51-.47.23.65c.13.36.04.77-.19.91-.24.15-.32.09-.17-.15.14-.22.09-.46-.11-.53-.22-.08-.25-.98-.07-2.31.16-1.2.19-2.18.05-2.18s-.52-.55-.85-1.23l-.6-1.23-.42,1.07c-.23.59-.53,2.29-.66,3.79-.13,1.5-.41,2.94-.61,3.2-.56.71-1.11.17-.67-.66.21-.39.36-1.28.33-1.97l-.05-1.26-.27,1.64c-.24,1.5-.65,2.08-1.73,2.46-.23.08-.2.36.09.71l.47.57-.96.44c-1.07.49-3.49.56-6.53.19l-2-.24.48-.61.48-.61-.67.52c-.47.37-1.15.45-2.28.26-2.55-.42-4.02-.26-7.87.83l-3.61,1.02-6.64.02c-5.83.02-11.51.4-17.56,1.19-1.84.24-2.67-.4-.95-.73.56-.11.38-.18-.5-.22-1.01-.04-1.56.19-2.18.9-.87,1-2.58,1.34-2.24.44.11-.28-.05-.51-.34-.51s-.53.14-.53.32c0,.56-1,.33-1.65-.38-1.74-1.92.68-6.26,4.35-7.81,1.14-.48,2.16-1.62,3.15-3.56.35-.69.8-1.15,1-1.02.2.12.27-.02.15-.31-.28-.73,2.64-6.55,3.22-6.42.26.06.35-.08.21-.31-.14-.23.01-.71.34-1.07.82-.91,2.01-5.06,2.29-7.98.13-1.34.42-2.66.65-2.94.23-.28.5-2,.59-3.83.22-4.22.39-5.03,1.07-5.03.37,0,.52-.36.47-1.1-.04-.61-.21-1.02-.37-.92-.16.1-.39-.09-.52-.42-.28-.72.14-2.59.53-2.35.37.23.28-3.59-.28-11.75l-.48-6.87.48-3.38c.57-3.96.57-4.01.02-7.87l-.42-2.98.82-1.46c.45-.8.92-1.4,1.05-1.32.12.08.12-1.85-.02-4.28-.13-2.43-.15-5.47-.04-6.74.13-1.51.04-2.41-.24-2.58-.56-.34-.55-2.22,0-2.78.33-.33.32-.71-.03-1.56-.26-.62-.41-1.63-.35-2.25.06-.62-.11-1.4-.39-1.73-.33-.4-.43-1.16-.29-2.23.12-.89.24-3.62.28-6.07s.2-4.37.36-4.27c.16.1.2-.19.08-.64-.12-.45-.06-.72.13-.61.19.12.34-.61.34-1.61s-.12-1.75-.28-1.65c-.15.09-.27-1.97-.25-4.59.01-2.62.14-4.69.28-4.61.14.09.2-1.49.13-3.51-.11-3.38.43-6.72,1.03-6.34.13.08.23-.43.23-1.12s-.17-1.23-.38-1.2c-.21.03-.44-.42-.5-1.02-.07-.64.03-.99.25-.85.22.13.29-.09.17-.53-.11-.42-.03-.97.17-1.23.65-.84.86-1.8.37-1.7-.35.07-.45-1.17-.4-4.94l.06-5.03.75-1.27c.43-.73.63-1.5.47-1.8-.58-1.1-.78-4.44-.32-5.45.36-.78.36-1.28,0-2.26-.5-1.39-.23-2.64.51-2.36.36.14.4-.15.15-1.21-.42-1.79-.43-4.34-.03-4.09.17.11.13-.78-.09-1.97l-.41-2.16-.12,2.09c-.06,1.15-.28,2.25-.47,2.45-.2.2-.36.75-.36,1.23s-.3,1.17-.67,1.54c-.49.49-.64,1.16-.56,2.56.12,2.15-.72,6.1-1.28,6-.35-.07-.51.66-.53,2.42,0,.46-.17.94-.37,1.06s-.26.71-.15,1.3c.12.61.03,1.19-.2,1.34-.23.14-.42,1.1-.42,2.12,0,1.66-1.09,4.46-1.55,4-.09-.09-.19.21-.24.67-.23,2.42-.77,5.09-1.17,5.82-.26.48-.35,1.34-.21,2.05l.25,1.23-.53-.3-.53-.3.47.51c.62.67.58,2.21-.09,3.39-.3.52-.56,1.46-.58,2.09-.04,1.28-1.26,5.25-1.52,4.98-.1-.09-.19.45-.2,1.22-.02.77-.38,2.93-.82,4.81-.43,1.88-.9,4.06-1.03,4.85-.14.79-.38,1.35-.54,1.25-.16-.1-.22.28-.14.84.17,1.13-.62,6.82-1.8,12.97-.42,2.19-.76,4.81-.76,5.81s-.13,1.75-.28,1.65c-.16-.1-.3.28-.31.83-.02.55-.31,2.63-.65,4.61-.34,1.98-.88,5.57-1.21,7.97-.86,6.31-1.38,9.13-1.66,8.95-.14-.08-.29.56-.34,1.42-.22,3.65-2.93,14.46-3.53,14.08-.19-.12-.25.05-.12.38.34.88-.18,2.57-.68,2.25-.27-.17-.32-.09-.13.22.17.28.08.62-.23.82l-.52.34.53.34c.3.19.43.61.29.97-.16.41-.09.54.18.37.46-.28.32,1.16-.37,3.78-.21.81-.25,1.75-.08,2.09.17.34.51,1.04.75,1.56.24.52.69,1.38,1,1.9s.51,1.49.44,2.16c-.07.68.03,1.11.23.99.22-.13.28,1.46.16,4.11-.2,4.45-.29,4.79-2.6,8.99-.93,1.69-4.59,5.01-5.54,5.01-.3,0-.92.25-1.38.55-.46.3-1.74.66-2.83.81l-1.99.26v-.9c-.01-.64-.11-.76-.33-.4-.18.28-.43.49-.56.47-.67-.09-.86.06-1.48,1.15l-.67,1.18-.51-.43c-.39-.32-.64-.27-1.04.22-.31.38-.34.54-.07.37.55-.33,1.25.86,1.25,2.13,0,.5.35,1.92.77,3.14s.68,2.46.57,2.74c-.11.28-.05.42.12.31.43-.27,1.65,2.38,1.33,2.89-.14.23-.08.3.15.16.97-.6,3.89,6.86,3.89,9.94v1.53l-1.73,1.17c-2.01,1.36-2,1.36-3.11.43-.98-.81-1.12-1.34-.28-1.02.31.12.57.05.57-.15s-.34-.39-.76-.42c-.42-.03-.97-.07-1.23-.09-.26-.02-.42.2-.36.49l.11.53-2.92-.19c-1.61-.1-3.62-.03-4.47.16-1.59.36-6.42.03-6.15-.41.38-.61-4.63.21-5.86.96-.73.44-2.57,1.12-4.09,1.51l-2.76.7-1.04-.64c-.61-.38-1.03-.96-1.01-1.41.04-.95-.43-1.01-.93-.12l-.37.66-1.29-.47c-.71-.26-1.97-.47-2.79-.47s-1.91-.29-2.41-.63c-.56-.39-.79-.44-.6-.13l.31.5-1.67-.28c-.92-.15-3.98-.48-6.8-.72s-5.34-.58-5.6-.75c-.68-.44-.61-2.54.08-2.54.34,0,.47-.22.34-.57-.12-.31.09-1.21.48-1.99.54-1.1.67-2.09.57-4.41l-.13-2.99.52.31.52.31-.51-.63c-.28-.34-.38-.83-.23-1.08.18-.28.12-.36-.15-.19-.4.25-.56-3.58-.39-9.45.08-2.94.06-4.66-.23-16.32-.16-6.47-.34-18.59-.41-26.94-.07-8.35-.31-17.31-.54-19.92-.58-6.6-1.13-15.2-1.37-21.21-.11-2.8-.28-5.23-.39-5.39-.1-.17-.26-2.83-.35-5.92-.17-5.84-.45-9.77-.81-11.63-.14-.72-.08-1.01.19-.84.25.15.21-.24-.1-1-.38-.94-.43-2.27-.22-5.42.19-2.71.15-4.34-.1-4.65-.21-.26-.47-2.82-.57-5.69q-.26-7.25-.53-7.07c-.25.16-.66-4.67-.81-9.58-.04-1.49-.18-2.65-.3-2.58-.12.07-.17-1.1-.12-2.6s-.09-3.33-.32-4.06c-.36-1.14-.57-4.73-.7-12.14-.05-2.92.47-6.84.87-6.59.21.13.09-.21-.26-.74-1.13-1.72-1.95-8.58-2.27-18.8-.12-3.83-.32-7.4-.46-7.93-.16-.62-.1-.88.15-.72.26.16.3-.22.09-1.18-.38-1.8-.7-7.69-.41-7.51.36.22.08-16.78-.42-25.41-.25-4.38-.47-8.51-.48-9.17-.01-.66-.15-1.12-.3-1.02-.15.1-.17-.6-.05-1.54.26-1.92-.38-10.71-1.26-17.3-.32-2.4-.73-5.82-.9-7.59-.18-1.77-.5-4.16-.73-5.31-.43-2.21-.88-7.24-.93-10.49-.02-1.08-.13-1.89-.25-1.82-.29.18-1.11-3.36-1.11-4.82,0-.62.15-1.04.33-.93.18.11.18-.51,0-1.4-.18-.88-.44-4.03-.57-7l-.25-5.39.5-.61c.28-.33.98-.86,1.57-1.16l1.07-.55,3.77.3c2.07.17,3.7.19,3.62.05s.66-.34,1.64-.45c6.34-.73,12.05-1.82,13.84-2.66,1.99-.92,5.66-1.48,10.22-1.56,1.18-.02,2.07-.16,1.97-.32-.1-.16-.04-.29.13-.29s2.7-.26,5.62-.57c6.57-.7,16.67-.74,16.27-.07-.21.35-.14.35.28,0,.53-.43,8.55-.84,19.58-1,2.54-.04,4.54-.18,4.46-.32-.23-.37,4.64-.83,5.19-.49.28.17.37.13.22-.11-.16-.26.71-.45,2.45-.55,3.39-.19,5.35.02,5.02.55-.16.25-.06.28.27.08.28-.17,2.06-.45,3.95-.61,1.89-.16,5.49-.48,7.99-.72,6.08-.57,13.85-.67,13.56-.18-.12.21.02.18.32-.07.66-.53,12.43-.83,13.23-.33.34.21.44.18.28-.07-.36-.58,13.52-.98,22.72-.66,6.54.23,21.8.26,25.49.06.66-.04,1.12-.2,1.02-.35-.1-.16.73-.29,1.84-.3,1.91-.01,5.28-.38,9-.97,1.13-.18,1.59-.14,1.43.13-.17.27.26.28,1.37.03.89-.2,5.91-.39,11.16-.43,5.25-.04,9.48-.18,9.39-.32-.12-.2,9.58-.5,13.52-.41,8,.18,27.13.11,28.24-.11,1.13-.22,1.41-.17,1.19.19-.23.36-.11.38.49.05.97-.52,2.35-.54,2.35-.04,0,.21.26.38.57.38s.57-.14.57-.32,2.2-.3,4.9-.28c2.69.02,4.81-.11,4.7-.29-.11-.18.83-.26,2.09-.19,1.26.07,2.22.02,2.14-.11-.08-.13,1.17-.35,2.79-.48,1.61-.13,3.65-.34,4.52-.47.88-.12,2.21-.02,2.98.24l1.39.46,1.14,2.43c.85,1.82,1.1,2.84,1,4.1-.07.92,0,1.58.18,1.47.17-.11.27.12.22.51s.02,1.47.16,2.41c.75,5.04,1.18,23.66.74,32.5-.17,3.37-.17,6.05-.02,5.95.42-.26.35.56-.13,1.46-.23.43-.25.68-.05.55.57-.36.84,8.48.55,18.03-.15,4.73-.16,8.53-.03,8.45.36-.22.64,11.53.58,23.8-.03,5.98.07,10.79.23,10.7.16-.1.28.19.28.63s-.13.72-.28.63c-.16-.1-.28.39-.28,1.08s.11,1.19.24,1.1c.29-.18.06,7.52-.45,14.83-.47,6.68-.63,9.44-1.12,19.35-.22,4.38-.48,9.47-.58,11.31-.1,1.84-.36,6.62-.58,10.62-.22,4.01-.67,9.07-1,11.27s-.74,5.18-.9,6.64c-.16,1.46-.49,4.11-.73,5.88-.24,1.77-.46,4.03-.48,5.01-.02.98-.14,1.72-.26,1.65-.12-.08-.16,1.32-.1,3.09.07,1.78-.02,3.14-.19,3.04-.17-.11-.31,1.03-.31,2.52,0,2.78-.74,10.18-1.38,13.91-.2,1.15-.32,4.99-.26,8.54.06,3.55.11,7.84.11,9.55,0,1.7.15,3.01.32,2.9.17-.1.25,1.95.19,4.55s.01,4.66.17,4.57c.16-.1.29,1.33.3,3.17.01,1.84.11,6.56.22,10.5.11,4.05.05,7.07-.13,6.95-.36-.22-.33.67.11,3.88l.28,2.05-.53-.3-.53-.3.47.51c.52.56.7,9.27.19,8.96-.16-.1-.25.79-.21,1.97.04,1.18.18,5.82.31,10.3.13,4.49.29,9.7.34,11.57.06,1.88.22,3.69.38,4.03.15.34.22,2.84.16,5.56s0,4.87.15,4.78c.15-.09.23,2.9.19,6.64-.04,3.74.07,6.72.24,6.61.29-.18.14,2.11-.37,5.69l-.21,1.44-.82-.25-.82-.25.46.48.46.48-.65.49c-.91.69-1.35.63-1.05-.15.19-.51.15-.56-.19-.22-.32.32-.76.33-1.55.05l-1.11-.39-.69.8-.69.8h-3.3c-2.1,0-3.21-.14-3.07-.38.13-.21-.03-.38-.36-.38s-.59.17-.59.38-.33.38-.74.38-.84-.17-.97-.38c-.13-.21-.41-.38-.61-.38s-.27.17-.14.38c.42.67-1.08.34-3.42-.76h0ZM274.21,350.72c0-.1-.09-.19-.19-.19s-.19.09-.19.19.09.19.19.19.19-.09.19-.19ZM276.76,350.68c-.13-.13-.45-.14-.73-.03-.3.12-.21.21.23.23.4.02.62-.07.5-.2h0ZM280.66,350.72c0-.1-.09-.19-.19-.19s-.19.09-.19.19.09.19.19.19.19-.09.19-.19ZM284.46,350.72c0-.1-.09-.19-.19-.19s-.19.09-.19.19.09.19.19.19.19-.09.19-.19ZM43.39,348.06c0-.1-.09-.19-.19-.19s-.19.09-.19.19.09.19.19.19.19-.09.19-.19ZM69.77,347.49c.13-.21-.04-.38-.38-.38s-.51.17-.38.38c.13.21.3.38.38.38s.25-.17.38-.38ZM36.56,347.3c0-.1-.09-.19-.19-.19s-.19.09-.19.19.09.19.19.19.19-.09.19-.19ZM286.71,346.91c.21-.21.48-2.86.6-5.88.27-7.19.27-7.81-.03-10-.19-1.41-.14-1.78.21-1.57.32.2.4.07.27-.43-.11-.39-.3-1.18-.43-1.75-.28-1.27-1.24-12.11-1.23-13.95,0-.73-.13-5.26-.3-10.06-.18-5.23-.17-9.26.05-10.06.21-.8.23-5.36.05-11.38-.16-5.53-.37-13.9-.46-18.59-.09-4.7-.35-10.76-.57-13.47-.97-11.8-.88-20.06.34-31.31.22-1.98.66-6.17.98-9.3s.75-7.06.94-8.73c.2-1.67.35-4.36.34-5.97,0-1.61.26-4.09.59-5.5.91-3.83.92-3.92.48-3.65-.26.16-.32-.19-.18-1.04.12-.71.34-2.48.48-3.94.15-1.52.51-2.94.84-3.32l.58-.67-.47-1.58c-.52-1.73-.22-7.36.41-7.75.2-.12.25-.56.11-.99s-.03-1.53.23-2.46l.47-1.69-.49-2.04c-.36-1.49-.38-2.45-.1-3.58.22-.85.24-1.45.06-1.34-.33.2-.13-2.52.31-4.39.13-.52.19-1.18.14-1.45-.05-.28.2-.94.55-1.47.35-.53.43-.84.19-.69-.56.34-.33-6.54.32-9.67.24-1.15.42-3.45.4-5.12-.04-3.59-.04-3.46.19-10.23.18-5.3.67-7.64,1.49-7.15.24.14.18-.05-.13-.43-.42-.52-.57-2.04-.64-6.43-.04-3.16-.19-7.64-.32-9.95l-.24-4.21.59-.49c.32-.27.59-.9.59-1.41s.16-.83.35-.71c.19.12.09-.3-.22-.94-.32-.64-.48-1.42-.36-1.74.28-.73-.43-7.21-1.11-10.21-.94-4.12-1.06-6.08-.39-6.75.37-.37.45-.69.22-.84-.58-.36-.46-2.36.23-3.7.44-.85.51-1.37.24-1.8-.65-1.05-.98-4.52-.48-5.13.26-.32.32-.75.13-1.03-.17-.27-.45-2.11-.61-4.1-.16-1.98-.38-4.37-.49-5.31-.11-.94-.29-3.36-.41-5.37l-.21-3.66.65-1.37c.62-1.31,1.05-6.79.51-6.45-.37.23-.74-4.68-.89-11.88-.08-3.59-.24-6.7-.37-6.91-.13-.2-.15-2.15-.06-4.32l.17-3.95-2.34-.38c-1.52-.25-3.79-.26-6.46-.04-2.27.19-8.85.28-14.62.2s-12.6-.17-15.18-.19c-2.58-.02-4.6-.17-4.5-.34.22-.35-4.22-.31-4.57.04-.49.49-7.38.26-7.08-.24.22-.37.16-.37-.26-.04-.38.3-3.63.44-10.61.46-5.53.01-13.31.23-17.27.48-3.97.25-8.69.47-10.5.49-1.81.02-3.2.18-3.09.36.11.18-.75.26-1.9.19-1.15-.07-2.04-.03-1.96.09.5.81-12.78,1.27-33.43,1.17-8.77-.04-19.87.11-24.68.34s-9.95.36-11.45.29c-1.49-.07-2.64,0-2.54.15.1.16-.1.28-.44.28s-.54-.13-.44-.28-1.07-.28-2.6-.28-2.7.12-2.61.26-.57.35-1.46.46c-.89.11-3.16.41-5.04.66-1.88.25-5.49.47-8.03.49-2.54.01-4.53.15-4.44.31s-1.59.3-3.74.31c-2.15.01-5.88.14-8.28.28s-6.19.26-8.41.26-3.96.14-3.86.3c.1.17-2.97.25-6.83.19s-6.95,0-6.87.14c.08.14-2.9.22-6.64.19-3.74-.03-6.74.03-6.67.14.2.33-7.3,1.63-8.14,1.41-.49-.13-.69-.06-.54.19.16.26-.11.33-.75.21-.55-.1-.92-.06-.82.09.1.16-.64.4-1.62.54-.99.14-3.08.58-4.65.98s-4.81.99-7.21,1.32-5.77.94-7.5,1.37-3.33.65-3.57.5c-.27-.17-.34-.11-.17.17.17.28-.02.44-.52.44-.44,0-.87.21-.96.47-.32.88-.76,11.98-.47,11.8.26-.16.34.41.49,3.47.03.63.27,2.09.54,3.25.26,1.16.42,2.89.34,3.85-.08.96-.03,1.68.1,1.6.13-.08.43,1.86.67,4.31.23,2.45.62,6.34.86,8.65.24,2.31.35,4.73.26,5.39s-.05,1.12.09,1.02c.15-.09.28.52.29,1.36.01.84.21,2.42.43,3.5.38,1.86.83,7.94,1.52,20.76.16,3.03.15,5.9-.03,6.38-.18.48-.19.79-.02.68.43-.27.47,11.41.04,12.54-.21.54-.21.84,0,.72.2-.13.36,3.74.38,9.37.02,5.27.14,10.82.28,12.33.18,2.06.11,2.91-.29,3.39-.41.51-.42.58-.02.34l.5-.3-.13,3.04c-.07,1.67,0,2.96.16,2.86.16-.1.29.73.29,1.84,0,1.11.26,4.15.58,6.76.31,2.61.66,7.3.76,10.44.11,3.13.34,7.66.53,10.06.38,5.03.51,8.06.56,13.72.02,2.22.18,3.95.36,3.84.18-.11.28.63.22,1.65s0,2.1.13,2.42c.13.31.42,2.68.64,5.27.22,2.58.58,5.4.8,6.26.25,1,.27,2.34.05,3.73-.19,1.19-.2,2.08-.02,1.97.18-.11.32.97.33,2.39s.18,4.29.39,6.38c.42,4.14.9,15.84.92,22.26,0,2.22.14,3.96.3,3.87.16-.1.29.22.29.7,0,.48.11,2.06.25,3.5l.25,2.62-.54-.32-.54-.32.52.64c.34.42.57,2.09.68,4.91.09,2.35.31,6.41.48,9.02.17,2.61.34,10.38.37,17.27.03,6.89.12,14.19.21,16.22.11,2.74.04,3.63-.29,3.44-.33-.2-.33-.13,0,.28.62.79,1.01,18.68.39,18.31-.24-.15-.19.05.13.43l.57.7v20.75h1.45c.86,0,1.35.15,1.21.38-.13.21,0,.29.29.18.29-.11,2.56.07,5.05.41,2.49.33,5.9.76,7.57.95,1.67.19,3.69.53,4.49.76,1.03.3,1.79.31,2.61.02.63-.22,1.33-.29,1.55-.16.22.13.28.06.15-.15-.43-.7.91-.92,8.38-1.42,4.03-.27,7.53-.67,7.81-.9.31-.26,1.25-.33,2.41-.19l1.91.23.24-.63c.13-.35.1-.54-.08-.43-.97.6-2.29-3.03-1.45-3.98l.45-.51-.61.46-.61.46-.38-.48c-.68-.85-1.7-4.47-1.44-5.13.13-.35.13-.53,0-.39-.4.4-2.14-1.9-2.2-2.91-.03-.5-.2-.88-.37-.85-.6.12-1.12-1.15-.87-2.13.31-1.23,2.08-3.36,2.67-3.23.25.06.47-.05.5-.24.03-.19.32-.5.65-.68s.6-.53.6-.77.55-1,1.21-1.69c1.24-1.28,1.19-1.72-.27-2.15-.74-.22-1.66.55-5.23,4.39-1.24,1.33-3.86,2.07-5.06,1.43-.55-.29-1.58-.38-2.8-.24-1.18.14-1.84.09-1.7-.13.13-.2-.24-.18-.84.05-1.5.58-5.52.11-7.14-.84l-1.33-.79v-2.76c0-3.89,1.84-8.47,6.27-15.57.65-1.04,1.4-2.43,1.66-3.08l.47-1.19-.98-1.06c-.54-.58-1.07-1.5-1.16-2.04-.1-.54-.54-2.34-.98-4.01-.44-1.67-.83-3.75-.85-4.61-.03-.87-.16-1.51-.3-1.43-.38.23-.7-.9-.7-2.46,0-.78-.2-1.61-.44-1.85-.26-.26-.5-2.12-.59-4.53-.13-3.75-.64-6.51-1.72-9.34-.4-1.06-.66-3.08-.79-6.19-.04-.87-.17-1.51-.3-1.43-.32.2-.8-2.63-.87-5.15-.03-1.15-.26-2.46-.52-2.92-.25-.46-.46-1.3-.46-1.87s-.33-1.74-.72-2.59c-.69-1.47-1.13-3.36-1.29-5.59-.04-.56-.24-.98-.45-.95-.21.03-.49-.79-.63-1.83-.14-1.04-.45-2.67-.7-3.6-.24-.94-.38-2.17-.3-2.73s0-.94-.16-.83c-.17.11-.31-.31-.31-.92s-.27-1.75-.59-2.53c-.67-1.6-.6-3.47.12-3.33.65.13.6-.49-.09-1.18-1.13-1.13-1.41-2.15-3.03-10.87-.33-1.77-.52-3.68-.41-4.24.1-.56-.08-1.56-.42-2.22-.33-.66-.65-1.66-.7-2.21-.05-.55-.18-1.26-.28-1.57-.22-.67-1.43-6.88-1.42-7.33,0-.17.22-.18.48-.01.26.16.16-.19-.23-.78-.4-.61-.62-1.47-.53-1.99.1-.5.03-1.01-.15-1.12s-.33-.47-.33-.8-.27-.8-.61-1.05l-.61-.45.42-2.7c.45-2.91.05-8.91-.69-10.29-1.22-2.28.37-4.6,3.16-4.6h1.36l.75,1.48c.49.96,1.16,1.62,1.92,1.88.64.22,1.07.26.96.07s-.03-.39.18-.46c.21-.07.66-1.24,1-2.59.34-1.36.79-2.58,1-2.71.26-.16.23-1.02-.07-2.57-.25-1.28-.35-2.49-.22-2.69.13-.21.05-.38-.18-.38-.68,0-1.91-2.39-1.91-3.72,0-2.66,4.45-4.35,6.39-2.42l.69.69.46,6.04c.25,3.32.62,7.5.82,9.27.38,3.38.7,6.83.93,10.11.07,1.07.33,2.32.57,2.77.24.45.39,1.19.34,1.65-.06.46.14,1.26.43,1.78.51.93,1.18,4.11,1.28,6.13.03.56.22.98.42.95.2-.03.42.36.49.89.11.89.72,2.9,2.46,8.11.46,1.37.66,2.73.54,3.52-.12.71-.07,1.2.1,1.09.17-.11.41.19.52.66.11.47.65,2.73,1.19,5.02s1.13,4.69,1.31,5.31l.33,1.14.04-1.17c.02-.65.36-1.47.76-1.83,1.22-1.1,1.71-6.03.99-9.83l-.28-1.45.8-.75c.44-.41.81-.96.81-1.21,0-.25.35-2.59.76-5.2.74-4.7,1.05-10.07.6-10.52-.13-.13-.23-.9-.23-1.72v-1.49l.77-.2.77-.2-.61-.94c-.61-.93-.47-4.89.16-4.5.14.09.31-.89.37-2.16.06-1.28.26-2.6.45-2.94.4-.74.47-5.71.17-11.8l-.21-4.41.84-1.61.84-1.61.09-4.8c.05-2.64.21-5.44.36-6.22l.27-1.42-.6-.23c-.64-.24-.64-.71-.04-6.77.16-1.66.52-3.45.8-3.98.28-.54.51-1.6.51-2.37,0-1.74.34-2.66.86-2.34.22.14.29.07.14-.16-.14-.23-.34-2.24-.44-4.49l-.19-4.08.65-.71.65-.71-.5-1.21c-.28-.67-.54-2.67-.59-4.44l-.08-3.23-1.75-4.15c-.96-2.28-1.64-4.31-1.52-4.52.13-.21.03-.25-.21-.1-.29.18-.75-.38-1.3-1.55-.55-1.19-2.08-3.01-4.37-5.22-2.13-2.05-3.44-3.59-3.32-3.91.11-.29.04-.42-.16-.3-.5.31-1.26-1.25-.97-2,.13-.34.13-.51-.01-.37-.14.14-.68-.55-1.21-1.53l-.96-1.78-.03-3.6c-.04-3.99.28-5.9,1.33-8.13.39-.82.71-1.71.71-1.98,0-.69,3.97-10.89,5.29-13.6.61-1.25,1.21-2.59,1.32-2.96.12-.38.34-.61.5-.51.16.1.31-.21.34-.68.03-.47.31-1.44.62-2.15s.68-1.6.81-1.99c.14-.43.46-.62.8-.49.31.12.54.09.52-.06-.11-.75.09-1.24.42-1.03.21.13.28,0,.17-.29-.31-.8.51-2.64,1.03-2.33.28.17.34.1.16-.18-.29-.47,4.57-6,5.13-5.84.17.05.23-.13.13-.4-.11-.3.43-.76,1.39-1.18.86-.38,1.94-1.12,2.38-1.63,1.02-1.18,2.79-2.12,3.35-1.77.26.16.32.09.15-.18-.37-.59,1.81-1.48,5.25-2.15,1.48-.29,3.6-.8,4.7-1.13,1.1-.33,3.01-.64,4.23-.68s2.16-.19,2.08-.32c-.22-.36,4.23-.87,6.87-.79,3.51.11,15.72,1.35,15.58,1.59-.07.11.64.14,1.59.07,2.12-.17,11.33.53,17.19,1.3,4.77.63,12.95.91,12.65.43-.1-.16.98-.16,2.41,0,4.47.51,15.51.27,21.2-.47,11.21-1.46,46.15-.63,45.1,1.07-.13.21-.05.27.18.12.23-.14,1.58-.07,3,.16,1.42.23,5.32.47,8.66.54,6.27.12,9.42.45,9.1.97-.1.16.14.21.54.11.4-.1,1.89.01,3.32.26,1.43.25,3.15.54,3.83.65.68.11,1.14.34,1.02.53-.11.18.06.23.4.1,1.59-.61,5.67,1.16,8.28,3.6,5.64,5.27,11.78,15.82,10.75,18.49-.12.32-.07.48.11.37.31-.19,2.07,6.07,2.09,7.44,0,.35.12.57.26.48.41-.25,1.97,4.29,1.65,4.8-.17.28-.13.36.11.22.61-.38,2.25,4.34,1.78,5.11-.16.27-.11.34.13.19.52-.32,2.08,1.63,1.83,2.29-.1.27,0,.45.23.41.57-.12,4.22,8.31,4.26,9.83.02.66.19,1.1.38.98.19-.12.24.08.1.44-.14.36-.1.56.08.45.43-.27,2.81,5.79,2.54,6.48-.12.3-.06.45.13.34.19-.12.63.77.98,1.97.35,1.2.81,2.61,1.03,3.13.21.52.8,2.23,1.31,3.79.51,1.57,1.07,3.12,1.26,3.46.95,1.73,2.35,6.62,2.22,7.75-.08.69-.01,1.18.15,1.08.17-.1.3,2.31.3,5.36s-.15,5.46-.32,5.35c-.18-.11-.24.22-.14.74.23,1.18-1.61,4.12-2.38,3.83-.3-.12-.46,0-.37.25.21.6-2.78,2.65-3.48,2.38-.3-.12-.45-.05-.33.14.24.38-.36.61-2.64,1-1.55.27-6.8,2.09-8.04,2.79-1.48.83-3.64,1.53-4.01,1.3-.22-.14-.29-.07-.15.15.46.74-4.27,2.17-7.21,2.18-1.49,0-2.64.14-2.54.29.1.16-.09.28-.42.28s-.59-.19-.59-.43c0-.3-.14-.31-.49-.02-.33.27-1.88.32-4.65.14-2.29-.15-5.3-.21-6.69-.15l-2.53.11-.13,2.04c-.07,1.12.01,1.95.19,1.84.18-.11.26.92.19,2.28-.07,1.42.02,2.38.22,2.26.71-.44-.63,23.44-2.05,36.33-.22,1.98-.39,5.54-.39,7.9,0,2.36-.13,4.21-.29,4.11-.16-.1-.23,1.11-.15,2.68.08,1.57,0,2.77-.18,2.66-.18-.11-.35,1.62-.39,3.84-.1,6.99-.57,13.51-1.03,14.08l-.44.55.52-.31.52-.31-.21,1.47c-.31,2.16-.69,10.41-.66,14.56.04,6.21-.4,12.91-.83,12.65-.26-.16-.27-.06-.05.29.19.29.36,1.64.38,3,.32,19.63.63,30.96.83,31.29.23.36.75,9.08.95,15.83.04,1.39.23,2.5.43,2.47.2-.03.43.27.52.67.09.4.59,1.38,1.11,2.18.57.86.87,1.75.75,2.21-.11.42-.05.68.12.57.45-.28,1.22,1.26.89,1.78-.15.24-.1.33.12.19.4-.25,2.86,3.69,5.04,8.07.67,1.34,1.62,3.05,2.12,3.8s1.15,2.13,1.46,3.06c1.13,3.43,2.36,6.66,2.96,7.77,1.88,3.51,9.82,7.58,19.28,9.87,2.22.54,6.5,1.74,7.97,2.24,1.05.35,10.96.04,11.36-.36h0ZM46.43,346.92c0-.1-.09-.19-.19-.19s-.19.09-.19.19.09.19.19.19.19-.09.19-.19ZM290.79,346.28c-.12-.3-.21-.21-.23.23-.02.4.07.62.2.5.13-.13.14-.45.03-.73h0ZM55.92,346.55c0-.1-.09-.19-.19-.19s-.19.09-.19.19.09.19.19.19.19-.09.19-.19ZM57.69,346.48c-.14-.14-.37-.14-.51,0-.14.14-.03.25.25.25s.39-.11.25-.25h0ZM63,346.1c-.14-.14-.37-.14-.51,0-.14.14-.03.25.25.25s.39-.11.25-.25h0ZM64.65,346.17c0-.1-.09-.19-.19-.19s-.19.09-.19.19.09.19.19.19.19-.09.19-.19ZM72.24,345.79c0-.1-.09-.19-.19-.19s-.19.09-.19.19.09.19.19.19.19-.09.19-.19ZM16.82,345.03c0-.1-.09-.19-.19-.19s-.19.09-.19.19.09.19.19.19.19-.09.19-.19ZM253.33,344.27c0-.1-.09-.19-.19-.19s-.19.09-.19.19.09.19.19.19.19-.09.19-.19ZM90.09,343.51c0-.1-.09-.19-.19-.19s-.19.09-.19.19.09.19.19.19.19-.09.19-.19ZM290.78,342.31c-.14-.14-.25-.03-.25.25s.11.39.25.25c.14-.14.14-.37,0-.51ZM86.92,341.93c-.14-.14-.25-.03-.25.25s.11.39.25.25c.14-.14.14-.37,0-.51h0ZM96.54,342.37c0-.1-.09-.19-.19-.19s-.19.09-.19.19.09.19.19.19.19-.09.19-.19ZM98.33,342.33c-.13-.13-.45-.14-.73-.03-.3.12-.21.21.23.23.4.02.62-.07.5-.2h0ZM65.03,341.99c0-.1-.09-.19-.19-.19s-.19.09-.19.19.09.19.19.19.19-.09.19-.19ZM101.38,341.92c-.37-.1-.96-.1-1.33,0-.37.1-.07.17.66.17s1.03-.08.66-.17ZM103.37,341.99c0-.1-.09-.19-.19-.19s-.19.09-.19.19.09.19.19.19.19-.09.19-.19ZM114.76,341.61c0-.1-.09-.19-.19-.19s-.19.09-.19.19.09.19.19.19.19-.09.19-.19ZM20.61,341.23c0-.1-.09-.19-.19-.19s-.19.09-.19.19.09.19.19.19.19-.09.19-.19ZM109.93,341.17c-.26-.1-.77-.11-1.14-.01-.37.1-.16.18.47.19.63,0,.93-.07.67-.17h0ZM119.95,341.17c-.14-.14-.37-.14-.51,0-.14.14-.03.25.25.25s.39-.11.25-.25h0ZM121.21,340.85c0-.1-.09-.19-.19-.19s-.19.09-.19.19.09.19.19.19.19-.09.19-.19ZM248.39,340.88c0-.09-.2-.29-.44-.44-.27-.17-.34-.1-.17.17.27.44.61.59.61.27h0ZM290.78,340.41c-.14-.14-.25-.03-.25.25s.11.39.25.25c.14-.14.14-.37,0-.51h0ZM87.43,340.47c0-.1-.09-.19-.19-.19s-.19.09-.19.19.09.19.19.19.19-.09.19-.19ZM136.4,340.47c0-.1-.09-.19-.19-.19s-.19.09-.19.19.09.19.19.19.19-.09.19-.19ZM137.54,340.47c0-.1-.09-.19-.19-.19s-.19.09-.19.19.09.19.19.19.19-.09.19-.19ZM140.77,340.29c.13-.21.06-.38-.14-.38s-.49.17-.61.38c-.13.21-.06.38.14.38s.49-.17.61-.38ZM227.89,340.1c0-.1-.09-.19-.19-.19s-.19.09-.19.19.09.19.19.19.19-.09.19-.19ZM231.94,340.03c-.14-.14-.37-.14-.51,0-.14.14-.03.25.25.25s.39-.11.25-.25h0ZM247.25,340.1c0-.1-.09-.19-.19-.19s-.19.09-.19.19.09.19.19.19.19-.09.19-.19ZM124.88,339.65c-.14-.14-.37-.14-.51,0-.14.14-.03.25.25.25s.39-.11.25-.25h0ZM130.33,339.74c0-.09-.17-.27-.38-.4-.21-.13-.38-.05-.38.17s.17.4.38.4.38-.08.38-.17ZM225.51,339.68c-.13-.13-.45-.14-.73-.03-.3.12-.21.21.23.23.4.02.62-.07.5-.2h0ZM233.08,339.65c-.14-.14-.37-.14-.51,0s-.03.25.25.25.39-.11.25-.25h0ZM290.53,339.72c0-.1-.09-.19-.19-.19s-.19.09-.19.19.09.19.19.19.19-.09.19-.19ZM127.67,339.34c0-.1-.09-.19-.19-.19s-.19.09-.19.19.09.19.19.19.19-.09.19-.19ZM128.81,338.96c0-.1-.09-.19-.19-.19s-.19.09-.19.19.09.19.19.19.19-.09.19-.19ZM291.29,338.96c0-.1-.09-.19-.19-.19s-.19.09-.19.19.09.19.19.19.19-.09.19-.19ZM91.98,338.58c0-.1-.09-.19-.19-.19s-.19.09-.19.19.09.19.19.19.19-.09.19-.19ZM220.68,338.58c0-.1-.09-.19-.19-.19s-.19.09-.19.19.09.19.19.19.19-.09.19-.19ZM93.12,337.58c0-.21-.17-.27-.38-.14-.21.13-.38.41-.38.61s.17.27.38.14c.21-.13.38-.41.38-.61ZM151.68,338.14c-.26-.11-.69-.11-.95,0s-.05.19.47.19.74-.09.47-.19ZM153.1,338.2c0-.1-.09-.19-.19-.19s-.19.09-.19.19.09.19.19.19.19-.09.19-.19ZM154.9,338.16c-.13-.13-.45-.14-.73-.03-.3.12-.21.21.23.23.4.02.62-.07.5-.2h0ZM217.51,338.14c-.14-.14-.37-.14-.51,0-.14.14-.03.25.25.25s.39-.11.25-.25h0ZM218.78,338.2c0-.1-.09-.19-.19-.19s-.19.09-.19.19.09.19.19.19.19-.09.19-.19ZM234.6,338.14c-.14-.14-.37-.14-.51,0s-.03.25.25.25.39-.11.25-.25h0ZM156.52,337.82c0-.1-.09-.19-.19-.19s-.19.09-.19.19.09.19.19.19.19-.09.19-.19ZM157.28,337.44c0-.1-.09-.19-.19-.19s-.19.09-.19.19.09.19.19.19.19-.09.19-.19ZM248.01,337.06c0-.1-.09-.19-.19-.19s-.19.09-.19.19.09.19.19.19.19-.09.19-.19ZM148.06,334.88c-.09-.47-.17-.18-.17.66,0,.83.07,1.22.17.86.1-.36.1-1.05,0-1.52h0ZM167.34,336.49c.13-.21.15-.38.04-.38s-.3.17-.42.38c-.13.21-.15.38-.04.38s.3-.17.42-.38ZM209.54,336.62c-.14-.14-.37-.14-.51,0-.14.14-.03.25.25.25s.39-.11.25-.25h0ZM235.48,336.68c0-.1-.09-.19-.19-.19s-.19.09-.19.19.09.19.19.19.19-.09.19-.19ZM96.73,334.6c.13-.21.15-.38.04-.38s-.3.17-.42.38c-.13.21-.15.38-.04.38s.3-.17.42-.38ZM246.49,334.78c0-.1-.09-.19-.19-.19s-.19.09-.19.19.09.19.19.19.19-.09.19-.19ZM168.29,334.41c0-.1-.09-.19-.19-.19s-.19.09-.19.19.09.19.19.19.19-.09.19-.19ZM198.91,333.58c-.14-.14-.25-.03-.25.25s.11.39.25.25c.14-.14.14-.37,0-.51h0ZM63.89,333.65c0-.1-.09-.19-.19-.19s-.19.09-.19.19.09.19.19.19.19-.09.19-.19ZM97.3,333.65c0-.1-.09-.19-.19-.19s-.19.09-.19.19.09.19.19.19.19-.09.19-.19ZM189.93,333.27c0-.1-.09-.19-.19-.19s-.19.09-.19.19.09.19.19.19.19-.09.19-.19ZM203.97,333.27c0-.1-.09-.19-.19-.19s-.19.09-.19.19.09.19.19.19.19-.09.19-.19ZM144.44,331.02c-.21-.39-.76.77-.79,1.68-.01.31.21.14.48-.38.28-.52.42-1.11.31-1.3ZM199.42,332.89c0-.1-.09-.19-.19-.19s-.19.09-.19.19.09.19.19.19.19-.09.19-.19ZM63.38,332.07c-.14-.14-.25-.03-.25.25s.11.39.25.25c.14-.14.14-.37,0-.51h0ZM97.87,332.32c.13-.21.15-.38.04-.38s-.3.17-.42.38c-.13.21-.15.38-.04.38s.3-.17.42-.38ZM147.79,332.53c0-.09-.17-.27-.38-.4-.21-.13-.38-.05-.38.17s.17.4.38.4.38-.08.38-.17h0ZM183.09,332.17c0-.08-.27-.25-.59-.38-.34-.13-.49-.07-.36.15.22.36.95.53.95.23h0ZM199.67,331.69c-.14-.14-.25-.03-.25.25s.11.39.25.25c.14-.14.14-.37,0-.51h0ZM63,330.93c-.14-.14-.25-.03-.25.25s.11.39.25.25c.14-.14.14-.37,0-.51h0ZM141.71,330.99c0-.1-.09-.19-.19-.19s-.19.09-.19.19.09.19.19.19.19-.09.19-.19ZM147.03,330.99c0-.1-.09-.19-.19-.19s-.19.09-.19.19.09.19.19.19.19-.09.19-.19ZM167.8,328.24c-.09-.57-.16-.1-.16,1.04s.07,1.62.16,1.04.09-1.51,0-2.09ZM206.88,330.17c-.14-.14-.25-.03-.25.25s.11.39.25.25c.14-.14.14-.37,0-.51h0ZM144.75,330.23c0-.1-.09-.19-.19-.19s-.19.09-.19.19.09.19.19.19.19-.09.19-.19ZM146.65,330.08c0-.19-.34-.74-.76-1.23l-.76-.9.59,1.23c.59,1.22.92,1.54.92.9h0ZM199.29,329.79c-.14-.14-.25-.03-.25.25s.11.39.25.25c.14-.14.14-.37,0-.51h0ZM99.71,328.9c.37-.63.59-1.14.49-1.14s-.55.51-1,1.14c-.45.63-.67,1.14-.49,1.14s.63-.51,1-1.14ZM17.96,329.47c0-.1-.09-.19-.19-.19s-.19.09-.19.19.09.19.19.19.19-.09.19-.19ZM62.37,329.47c0-.1-.09-.19-.19-.19s-.19.09-.19.19.09.19.19.19.19-.09.19-.19ZM151.21,329.47c0-.1-.09-.19-.19-.19s-.19.09-.19.19.09.19.19.19.19-.09.19-.19ZM206.76,329.08c-.12-.32-.31-.5-.41-.4-.1.1-.07.36.07.59.37.61.59.49.34-.18h0ZM145,329.03c-.14-.14-.37-.14-.51,0-.14.14-.03.25.25.25s.39-.11.25-.25h0ZM199.21,327.6c-.14-.76-.34-1.31-.43-1.22-.09.09-.05.79.09,1.55.14.76.34,1.31.43,1.22.09-.09.05-.79-.09-1.55ZM97.3,328.33c0-.1-.09-.19-.19-.19s-.19.09-.19.19.09.19.19.19.19-.09.19-.19ZM201.32,327.95c0-.1-.09-.19-.19-.19s-.19.09-.19.19.09.19.19.19.19-.09.19-.19ZM97.68,327.57c0-.1-.09-.19-.19-.19s-.19.09-.19.19.09.19.19.19.19-.09.19-.19ZM181.2,327.57c0-.1-.09-.19-.19-.19s-.19.09-.19.19.09.19.19.19.19-.09.19-.19ZM200.18,327.2c0-.1-.09-.19-.19-.19s-.19.09-.19.19.09.19.19.19.19-.09.19-.19ZM205.37,326.37c-.14-.14-.25-.03-.25.25s.11.39.25.25c.14-.14.14-.37,0-.51ZM290.41,326.18c-.12-.3-.21-.21-.23.23-.02.4.07.62.2.5.13-.13.14-.45.03-.73h0ZM200.81,325.99c-.14-.14-.25-.03-.25.25s.11.39.25.25c.14-.14.14-.37,0-.51h0ZM59.59,325.61c-.14-.14-.25-.03-.25.25s.11.39.25.25c.14-.14.14-.37,0-.51h0ZM167.78,325.61c-.14-.14-.25-.03-.25.25s.11.39.25.25c.14-.14.14-.37,0-.51h0ZM164.49,325.68c0-.1-.09-.19-.19-.19s-.19.09-.19.19.09.19.19.19.19-.09.19-.19ZM198.91,325.23c-.14-.14-.25-.03-.25.25s.11.39.25.25c.14-.14.14-.37,0-.51ZM205.11,325.7c0-.09-.2-.29-.44-.44-.27-.17-.34-.1-.17.17.27.44.61.59.61.27h0ZM179.17,324.86c-.14-.14-.25-.03-.25.25s.11.39.25.25c.14-.14.14-.37,0-.51h0ZM290.53,324.54c0-.1-.09-.19-.19-.19s-.19.09-.19.19.09.19.19.19.19-.09.19-.19ZM102,323.76c.13-.34.07-.49-.15-.36-.21.13-.38.39-.38.59,0,.55.27.43.52-.23h0ZM167.78,323.72c-.14-.14-.25-.03-.25.25s.11.39.25.25c.14-.14.14-.37,0-.51h0ZM197.52,323.78c0-.1-.09-.19-.19-.19s-.19.09-.19.19.09.19.19.19.19-.09.19-.19ZM181.58,323.02c0-.1-.09-.19-.19-.19s-.19.09-.19.19.09.19.19.19.19-.09.19-.19ZM102.61,322.64c0-.1-.09-.19-.19-.19s-.19.09-.19.19.09.19.19.19.19-.09.19-.19ZM67.28,319.99c0-.21-.25-.05-.56.36-.31.41-.55,1-.54,1.33.01.64,1.1-1.02,1.1-1.69ZM54.78,321.53c0-.09-.2-.29-.44-.44-.27-.17-.34-.1-.17.17.27.44.61.59.61.27h0ZM50.98,321.12c0-.1-.09-.19-.19-.19s-.19.09-.19.19.09.19.19.19.19-.09.19-.19ZM64.27,321.12c0-.1-.09-.19-.19-.19s-.19.09-.19.19.09.19.19.19.19-.09.19-.19ZM179.3,321.12c0-.1-.09-.19-.19-.19s-.19.09-.19.19.09.19.19.19.19-.09.19-.19ZM52.12,320.74c0-.1-.09-.19-.19-.19s-.19.09-.19.19.09.19.19.19.19-.09.19-.19ZM57.06,320.74c0-.1-.09-.19-.19-.19s-.19.09-.19.19.09.19.19.19.19-.09.19-.19ZM71.48,320.57c0-.2-.26-.27-.57-.15s-.57.29-.57.37.26.15.57.15.57-.17.57-.37h0ZM53.26,320.36c0-.1-.09-.19-.19-.19s-.19.09-.19.19.09.19.19.19.19-.09.19-.19ZM57.82,320.36c0-.1-.09-.19-.19-.19s-.19.09-.19.19.09.19.19.19.19-.09.19-.19ZM168.17,319.72c-.12-.3-.21-.21-.23.23-.02.4.07.62.2.5.13-.13.14-.45.03-.73h0ZM68.45,319.61c0-.1-.09-.19-.19-.19s-.19.09-.19.19.09.19.19.19.19-.09.19-.19ZM74.52,319.61c0-.1-.09-.19-.19-.19s-.19.09-.19.19.09.19.19.19.19-.09.19-.19ZM104.13,319.61c0-.1-.09-.19-.19-.19s-.19.09-.19.19.09.19.19.19.19-.09.19-.19ZM18.33,319.23c0-.1-.09-.19-.19-.19s-.19.09-.19.19.09.19.19.19.19-.09.19-.19ZM41.11,319.23c0-.1-.09-.19-.19-.19s-.19.09-.19.19.09.19.19.19.19-.09.19-.19ZM237.76,319.23c0-.1-.09-.19-.19-.19s-.19.09-.19.19.09.19.19.19.19-.09.19-.19ZM77.23,318.37l.52-.66-.66.52c-.63.5-.83.81-.52.81.08,0,.38-.3.66-.66ZM168.18,316.67c-.09-.47-.17-.18-.17.66,0,.83.07,1.22.16.86.09-.36.1-1.05,0-1.52h0ZM287.11,318.47c0-.1-.09-.19-.19-.19s-.19.09-.19.19.09.19.19.19.19-.09.19-.19ZM41.11,317.71c0-.1-.09-.19-.19-.19s-.19.09-.19.19.09.19.19.19.19-.09.19-.19ZM290.15,317.71c0-.1-.09-.19-.19-.19s-.19.09-.19.19.09.19.19.19.19-.09.19-.19ZM60.47,317.33c0-.1-.09-.19-.19-.19s-.19.09-.19.19.09.19.19.19.19-.09.19-.19ZM102.11,316.89c-.14-.14-.25-.03-.25.25s.11.39.25.25c.14-.14.14-.37,0-.51h0ZM104.89,317.33c0-.1-.09-.19-.19-.19s-.19.09-.19.19.09.19.19.19.19-.09.19-.19ZM55.2,316.27c.71-.48,1.83-1.09,2.49-1.36.66-.27,2.01-1.27,3.01-2.23l1.81-1.73-.9-.73-.9-.73-1.92.23c-2.52.31-4.77,1.27-4.51,1.93.22.57-1.47,1.15-2.13.74-.73-.45-.47-2.79.36-3.24.5-.27.76-.79.76-1.55,0-.63.13-1.06.3-.96.16.1.3-.14.3-.55,0-.99-.06-.95-1.21.79-1.09,1.65-2.63,2.08-3.06.85-.5-1.4-.89-1.6-1.66-.83-.4.4-.73.86-.74,1.02,0,.16-.42,1.31-.94,2.56-1.78,4.32-1.33,5.23,3.03,6.11,3.41.68,4.51.62,5.93-.34h0ZM78.7,316.95c0-.1-.09-.19-.19-.19s-.19.09-.19.19.09.19.19.19.19-.09.19-.19ZM104.89,316.57c0-.1-.09-.19-.19-.19s-.19.09-.19.19.09.19.19.19.19-.09.19-.19ZM164.87,316.57c0-.1-.09-.19-.19-.19s-.19.09-.19.19.09.19.19.19.19-.09.19-.19ZM41.11,316.19c0-.1-.09-.19-.19-.19s-.19.09-.19.19.09.19.19.19.19-.09.19-.19ZM66.04,315.75c-.14-.14-.25-.03-.25.25s.11.39.25.25c.14-.14.14-.37,0-.51h0ZM74.59,315.77c1.63-.4,2.47-.78,2.36-1.07-.1-.25.17-.77.6-1.15s.77-.98.77-1.31.29-1.02.64-1.52.46-.8.24-.66c-.26.16-.38-.51-.35-1.92.03-1.5-.1-2.17-.43-2.17-.85-.01.1-2.87,1.23-3.7.24-.17.2-.28-.09-.28-.26,0-.73.55-1.05,1.23-.32.68-1.02,1.96-1.55,2.85s-.8,1.61-.6,1.61.48-.45.62-1c.16-.66.38-.87.62-.63.53.53-.15,2.13-1.28,3.01-.5.4-1.12,1.11-1.38,1.58s-.62.76-.82.64c-.2-.12-.26.02-.15.31.11.3-.18.8-.67,1.15-2.08,1.46-2.24,1.68-1.99,2.68.29,1.17.09,1.15,3.27.38h0ZM77.18,316.19c0-.1-.09-.19-.19-.19s-.19.09-.19.19.09.19.19.19.19-.09.19-.19ZM102.1,315.15c-.11-.26-.19-.05-.19.47s.09.74.19.47c.11-.26.11-.69,0-.95ZM105.27,315.81c0-.1-.09-.19-.19-.19s-.19.09-.19.19.09.19.19.19.19-.09.19-.19ZM180.06,315.81c0-.1-.09-.19-.19-.19s-.19.09-.19.19.09.19.19.19.19-.09.19-.19ZM65.03,315.43c0-.1-.09-.19-.19-.19s-.19.09-.19.19.09.19.19.19.19-.09.19-.19ZM78.51,314.48c.38-.42.6-.76.5-.76s-.5.34-.88.76c-.38.42-.6.76-.5.76s.5-.34.88-.76ZM80.59,314.4c0-.22-.24-.19-.57.09-.31.26-.57.53-.57.6s.26.03.57-.09.57-.39.57-.6ZM168.26,312.82c-.36-.33-.41-.27-.22.27.14.38.27,1.07.3,1.52.04.58.1.5.22-.27.09-.6-.05-1.28-.3-1.52h0ZM64.65,314.67c0-.1-.09-.19-.19-.19s-.19.09-.19.19.09.19.19.19.19-.09.19-.19ZM105.52,314.23c-.14-.14-.25-.03-.25.25s.11.39.25.25c.14-.14.14-.37,0-.51h0ZM102.72,313.35c.11-.42.07-.76-.1-.76s-.38.42-.48.94c-.21,1.1.29.95.58-.17ZM69.96,313.91c0-.1-.09-.19-.19-.19s-.19.09-.19.19.09.19.19.19.19-.09.19-.19ZM178.92,313.53c0-.1-.09-.19-.19-.19s-.19.09-.19.19.09.19.19.19.19-.09.19-.19ZM81.35,313.16c0-.1-.09-.19-.19-.19s-.19.09-.19.19.09.19.19.19.19-.09.19-.19ZM105.9,312.33c-.14-.14-.25-.03-.25.25s.11.39.25.25c.14-.14.14-.37,0-.51h0ZM178.79,312.33c-.14-.14-.25-.03-.25.25s.11.39.25.25c.14-.14.14-.37,0-.51h0ZM79.65,312.21c.13-.21.05-.38-.17-.38s-.4.17-.4.38.08.38.17.38.27-.17.4-.38ZM82.11,312.4c0-.1-.09-.19-.19-.19s-.19.09-.19.19.09.19.19.19.19-.09.19-.19ZM289.77,312.4c0-.1-.09-.19-.19-.19s-.19.09-.19.19.09.19.19.19.19-.09.19-.19ZM63.66,311.24c.13-.34.07-.49-.15-.36-.21.13-.38.39-.38.59,0,.55.27.43.52-.23h0ZM42.5,310.82c-.14-.14-.25-.03-.25.25s.11.39.25.25c.14-.14.14-.37,0-.51h0ZM179.3,311.28c0-.09-.2-.29-.44-.44-.27-.17-.34-.1-.17.17.27.44.61.59.61.27h0ZM69.86,310.45c-.13-.13.26-.65.87-1.16.61-.51,1.98-2.46,3.05-4.33s2.07-3.33,2.21-3.23c.15.09.28-.12.29-.47.01-.35.15-.94.31-1.3.21-.5.11-.66-.44-.66-.4,0-.97-.21-1.27-.47l-.55-.47.47.54c.63.74-.14,1.76-.87,1.15-.37-.31-.45-.24-.32.28.2.81-3.38,4.5-4,4.12-.24-.15-.31-.01-.17.34.15.39,0,.59-.41.59-.35,0-.52.18-.38.4.14.22-.04.72-.38,1.1-1.37,1.51-.61,3.22,1.67,3.77.09.02.05-.07-.07-.19h0ZM82.68,310.31c.13-.21.15-.38.04-.38s-.3.17-.42.38c-.13.21-.15.38-.04.38s.3-.17.42-.38ZM43.01,310.12c0-.1-.09-.19-.19-.19s-.19.09-.19.19.09.19.19.19.19-.09.19-.19ZM71.86,310.12c0-.1-.09-.19-.19-.19s-.19.09-.19.19.09.19.19.19.19-.09.19-.19ZM168.3,307.93l-.18-1.99-.13,1.46c-.11,1.29.07,2.52.38,2.52.06,0,.03-.9-.07-1.99h0ZM178.92,309.74c0-.1-.09-.19-.19-.19s-.19.09-.19.19.09.19.19.19.19-.09.19-.19ZM56.09,309.2c.12-.19-.13-.25-.55-.15-.89.23-1,.49-.21.49.3,0,.64-.15.76-.34h0ZM72.81,309.17c.13-.21.15-.38.04-.38s-.3.17-.42.38c-.13.21-.15.38-.04.38s.3-.17.42-.38ZM231.69,309.36c0-.1-.09-.19-.19-.19s-.19.09-.19.19.09.19.19.19.19-.09.19-.19ZM58.58,308.98c0-.1-.09-.19-.19-.19s-.19.09-.19.19.09.19.19.19.19-.09.19-.19ZM44.89,306.7c0-.41-.52.28-1.16,1.52-.26.5-.13.44.38-.19.43-.52.78-1.12.78-1.33h0ZM54.02,308.6c0-.1-.09-.19-.19-.19s-.19.09-.19.19.09.19.19.19.19-.09.19-.19ZM60.73,308.53c-.14-.14-.37-.14-.51,0-.14.14-.03.25.25.25s.39-.11.25-.25h0ZM106.67,307.96c-.12-.3-.21-.21-.23.23-.02.4.07.62.2.5.13-.13.14-.45.03-.73h0ZM54.78,308.22c0-.1-.09-.19-.19-.19s-.19.09-.19.19.09.19.19.19.19-.09.19-.19ZM104,308.16c-.14-.14-.37-.14-.51,0-.14.14-.03.25.25.25s.39-.11.25-.25h0ZM50.22,307.84c0-.1-.09-.19-.19-.19s-.19.09-.19.19.09.19.19.19.19-.09.19-.19ZM80.21,307.84c0-.1-.09-.19-.19-.19s-.19.09-.19.19.09.19.19.19.19-.09.19-.19ZM51.12,307.08c-.12-.31-.29-.57-.37-.57s-.15.26-.15.57.17.57.37.57.27-.26.15-.57ZM74.14,306.89c.22-.42.32-.76.22-.76s-.37.34-.6.76c-.22.42-.32.76-.22.76s.37-.34.6-.76ZM179.68,307.08c0-.1-.09-.19-.19-.19s-.19.09-.19.19.09.19.19.19.19-.09.19-.19ZM46.43,306.7c0-.1-.09-.19-.19-.19s-.19.09-.19.19.09.19.19.19.19-.09.19-.19ZM104.13,306.72c0-.09-.17-.27-.38-.4-.21-.13-.38-.05-.38.17s.17.4.38.4.38-.08.38-.17h0ZM289.39,306.7c0-.1-.09-.19-.19-.19s-.19.09-.19.19.09.19.19.19.19-.09.19-.19ZM65.41,305.94c0-.1-.09-.19-.19-.19s-.19.09-.19.19.09.19.19.19.19-.09.19-.19ZM80.21,305.94c0-.1-.09-.19-.19-.19s-.19.09-.19.19.09.19.19.19.19-.09.19-.19ZM68.07,305.56c0-.1-.09-.19-.19-.19s-.19.09-.19.19.09.19.19.19.19-.09.19-.19ZM75.09,305.37c.13-.21.15-.38.04-.38s-.3.17-.42.38c-.13.21-.15.38-.04.38s.3-.17.42-.38ZM45.54,304.74c-.14-.14-.25-.03-.25.25s.11.39.25.25c.14-.14.14-.37,0-.51h0ZM66.72,304.34l.23-.59-.54.45c-.42.35-.58.34-.73-.04-.1-.27-.17-.12-.15.32.04.9.83.81,1.19-.14h0ZM79.84,305.21c0-.09-.2-.29-.44-.44-.27-.17-.34-.1-.17.17.27.44.61.59.61.27h0ZM107.04,304.74c-.14-.14-.25-.03-.25.25s.11.39.25.25c.14-.14.14-.37,0-.51h0ZM178.92,305.21c0-.09-.2-.29-.44-.44-.27-.17-.34-.1-.17.17.27.44.61.59.61.27h0ZM289.39,305.18c0-.1-.09-.19-.19-.19s-.19.09-.19.19.09.19.19.19.19-.09.19-.19ZM48.33,304.8c0-.1-.09-.19-.19-.19s-.19.09-.19.19.09.19.19.19.19-.09.19-.19ZM49.84,304.8c0-.1-.09-.19-.19-.19s-.19.09-.19.19.09.19.19.19.19-.09.19-.19ZM64.65,304.8c0-.1-.09-.19-.19-.19s-.19.09-.19.19.09.19.19.19.19-.09.19-.19ZM68.83,304.8c0-.1-.09-.19-.19-.19s-.19.09-.19.19.09.19.19.19.19-.09.19-.19ZM56.9,300.19c.13-.7.39-1.37.58-1.48.19-.11.34-.72.34-1.35,0-.76.14-1.05.44-.87.27.17.34.1.17-.17-.32-.52.09-2.04.48-1.8.26.16.01-2.55-.53-5.75-.16-.96-.12-1.8.12-2.09.25-.3.27-1.17.07-2.38-.17-1.04-.33-3.12-.34-4.61-.02-2.74-1.27-12.11-1.93-14.55-.5-1.85-.46-3.92.11-4.55l.47-.53-.65.49-.65.49-.18-.89c-.1-.49-.28-1.66-.4-2.59-.12-.94-.48-2.82-.8-4.17-2.34-9.9-2.97-12.76-3.46-15.94-.31-1.98-.58-3.89-.61-4.24-.03-.35-.17-.56-.31-.47-.14.09-.38-.72-.53-1.79-.3-2.18-1.04-4.18-2.12-5.69-.39-.55-.72-1.3-.72-1.66s-.3-1.48-.66-2.51l-.66-1.86.53-.85.53-.85-.63.52-.63.52v-.64c0-.35.19-1.01.43-1.47.24-.46.29-.7.12-.53-.3.28-.58-.51-1.68-4.85-.27-1.04-.8-2.7-1.19-3.68-.39-.98-.71-2.21-.71-2.73s-.35-1.2-.81-1.52c-.49-.35-.83-1.01-.85-1.69-.02-.62-.14-1.06-.27-.98-.13.08-.23-.67-.23-1.65,0-.98-.29-2.73-.64-3.88-.49-1.62-.54-2.3-.22-3.03.3-.67.3-.98,0-1.08-.23-.08-.41-.78-.41-1.58s-.23-1.63-.51-1.86c-.33-.27-.6-1.7-.75-3.94-.13-1.93-.5-4.41-.83-5.51s-.5-2.17-.37-2.37c.13-.2.07-.37-.13-.37s-.44.32-.55.72c-.19.73-4.58,3.08-5.74,3.08-.74,0-.76-.45.17,4.39.61,3.16.69,4.3.38,5.21-.22.64-.27,1.26-.1,1.38.95.67,3.45,12.75,3.48,16.8.01,1.4.17,2.94.36,3.42.19.48.56,1.64.83,2.58.27.94.63,1.89.79,2.12.17.23.58,2.87.9,5.88.72,6.64,1.2,9.78,2.09,13.99.38,1.76.58,3.37.46,3.57-.12.2-.05.25.16.12.45-.28,2,4.32,2.02,6.01,0,.62.26,2.15.56,3.4.3,1.25.55,2.95.56,3.76,0,.82.42,3.12.93,5.12,1.8,7.04,2.94,12.57,2.72,13.15-.12.32-.08.49.11.38.18-.11.53,1.2.78,2.92.24,1.72.6,3.81.78,4.64.7,3.19,1.23,7.38,1.01,7.96-.14.36-.08.52.14.38.21-.13.38-.13.38,0,0,2.3,2.15,9.57,2.97,10.03l.63.35.07,3.63c.04,1.99.18,3.8.31,4.01.42.68,3.57-2.63,3.84-4.03h0ZM55.92,304.42c0-.1-.09-.19-.19-.19s-.19.09-.19.19.09.19.19.19.19-.09.19-.19ZM75.53,303.98c-.14-.14-.25-.03-.25.25s.11.39.25.25c.14-.14.14-.37,0-.51h0ZM168.29,304.42c0-.1-.09-.19-.19-.19s-.19.09-.19.19.09.19.19.19.19-.09.19-.19ZM80.59,304.04c0-.1-.09-.19-.19-.19s-.19.09-.19.19.09.19.19.19.19-.09.19-.19ZM46.43,303.67c0-.1-.09-.19-.19-.19s-.19.09-.19.19.09.19.19.19.19-.09.19-.19ZM49.09,303.67c0-.1-.09-.19-.19-.19s-.19.09-.19.19.09.19.19.19.19-.09.19-.19ZM69.95,303.49c.38-.2.8-.67.95-1.03.19-.5-.01-.43-.81.27-.59.52-1.14.98-1.22,1.03-.47.28.51.04,1.09-.27h0ZM180.82,303.67c0-.1-.09-.19-.19-.19s-.19.09-.19.19.09.19.19.19.19-.09.19-.19ZM80.59,303.29c0-.1-.09-.19-.19-.19s-.19.09-.19.19.09.19.19.19.19-.09.19-.19ZM76.42,302.91c0-.1-.09-.19-.19-.19s-.19.09-.19.19.09.19.19.19.19-.09.19-.19ZM79.84,302.91c0-.1-.09-.19-.19-.19s-.19.09-.19.19.09.19.19.19.19-.09.19-.19ZM105.52,302.46c-.14-.14-.25-.03-.25.25s.11.39.25.25c.14-.14.14-.37,0-.51ZM178.42,302.27c-.12-.3-.21-.21-.23.23-.02.4.07.62.2.5.13-.13.14-.45.03-.73h0ZM57.63,302.34c.13-.21.15-.38.04-.38s-.3.17-.42.38c-.13.21-.15.38-.04.38s.3-.17.42-.38ZM168.17,301.89c-.12-.3-.21-.21-.23.23-.02.4.07.62.2.5.13-.13.14-.45.03-.73h0ZM65.79,302.15c0-.1-.09-.19-.19-.19s-.19.09-.19.19.09.19.19.19.19-.09.19-.19ZM81.63,302.11c-.13-.13-.45-.14-.73-.03-.3.12-.21.21.23.23.4.02.62-.07.5-.2h0ZM165.63,302.15c0-.1-.09-.19-.19-.19s-.19.09-.19.19.09.19.19.19.19-.09.19-.19ZM59.9,301.58c.13-.21.15-.38.04-.38s-.3.17-.42.38c-.13.21-.15.38-.04.38s.3-.17.42-.38ZM69.21,301.39c0-.1-.09-.19-.19-.19s-.19.09-.19.19.09.19.19.19.19-.09.19-.19ZM165.51,300.75c-.12-.3-.21-.21-.23.23-.02.4.07.62.2.5.13-.13.14-.45.03-.73h0ZM107.04,299.97c-.11-.26-.19-.05-.19.47s.09.74.19.47c.11-.26.11-.69,0-.95ZM70.15,300.44c.13-.21.15-.38.04-.38s-.3.17-.42.38c-.13.21-.15.38-.04.38s.3-.17.42-.38ZM72.62,300.63c0-.1-.09-.19-.19-.19s-.19.09-.19.19.09.19.19.19.19-.09.19-.19ZM168.29,300.63c0-.1-.09-.19-.19-.19s-.19.09-.19.19.09.19.19.19.19-.09.19-.19ZM60.85,300.25c0-.1-.09-.19-.19-.19s-.19.09-.19.19.09.19.19.19.19-.09.19-.19ZM49.09,299.49c0-.1-.09-.19-.19-.19s-.19.09-.19.19.09.19.19.19.19-.09.19-.19ZM61.23,299.49c0-.1-.09-.19-.19-.19s-.19.09-.19.19.09.19.19.19.19-.09.19-.19ZM66.36,298.92c.13-.21.15-.38.04-.38s-.3.17-.42.38c-.13.21-.15.38-.04.38s.3-.17.42-.38ZM68.06,298.94c.31-.19.48-.43.38-.53-.1-.1-.51.06-.92.36-.81.59-.36.74.54.17h0ZM107.17,299.11c0-.1-.09-.19-.19-.19s-.19.09-.19.19.09.19.19.19.19-.09.19-.19ZM168.17,298.47c-.12-.3-.21-.21-.23.23-.02.4.07.62.2.5.13-.13.14-.45.03-.73h0ZM181.45,298.67c-.14-.14-.37-.14-.51,0-.14.14-.03.25.25.25s.39-.11.25-.25h0ZM77.18,298.35c0-.1-.09-.19-.19-.19s-.19.09-.19.19.09.19.19.19.19-.09.19-.19ZM49.84,297.97c0-.1-.09-.19-.19-.19s-.19.09-.19.19.09.19.19.19.19-.09.19-.19ZM66.93,297.97c0-.1-.09-.19-.19-.19s-.19.09-.19.19.09.19.19.19.19-.09.19-.19ZM72.62,297.97c0-.1-.09-.19-.19-.19s-.19.09-.19.19.09.19.19.19.19-.09.19-.19ZM76.42,297.97c0-.1-.09-.19-.19-.19s-.19.09-.19.19.09.19.19.19.19-.09.19-.19ZM107.43,296.75c-.1-.37-.18-.16-.19.47,0,.63.07.93.18.67.1-.26.11-.77.01-1.14h0ZM181.96,297.59c0-.1-.09-.19-.19-.19s-.19.09-.19.19.09.19.19.19.19-.09.19-.19ZM59.34,296.45c0-.1-.09-.19-.19-.19s-.19.09-.19.19.09.19.19.19.19-.09.19-.19ZM229.03,296.45c0-.1-.09-.19-.19-.19s-.19.09-.19.19.09.19.19.19.19-.09.19-.19ZM230.93,296.45c0-.1-.09-.19-.19-.19s-.19.09-.19.19.09.19.19.19.19-.09.19-.19ZM166.01,295.32c0-.1-.09-.19-.19-.19s-.19.09-.19.19.09.19.19.19.19-.09.19-.19ZM182.21,294.87c-.14-.14-.25-.03-.25.25s.11.39.25.25c.14-.14.14-.37,0-.51h0ZM62.75,294.56c0-.1-.09-.19-.19-.19s-.19.09-.19.19.09.19.19.19.19-.09.19-.19ZM231.31,294.56c0-.1-.09-.19-.19-.19s-.19.09-.19.19.09.19.19.19.19-.09.19-.19ZM80.09,293.74c-.14-.14-.25-.03-.25.25s.11.39.25.25c.14-.14.14-.37,0-.51h0ZM168.55,293.16c-.12-.3-.21-.21-.23.23-.02.4.07.62.2.5.13-.13.14-.45.03-.73h0ZM182.71,293.8c0-.1-.09-.19-.19-.19s-.19.09-.19.19.09.19.19.19.19-.09.19-.19ZM76.29,292.38c-.11-.26-.19-.05-.19.47s.09.74.19.47c.11-.26.11-.69,0-.95ZM107.96,293.06c.19.12.24-.07.1-.41l-.24-.62-.32.51c-.18.28-.31.68-.3.89.01.21.11.16.22-.1.11-.26.35-.38.54-.27h0ZM60.47,293.04c0-.1-.09-.19-.19-.19s-.19.09-.19.19.09.19.19.19.19-.09.19-.19ZM182.34,293.04c0-.1-.09-.19-.19-.19s-.19.09-.19.19.09.19.19.19.19-.09.19-.19ZM231.69,293.04c0-.1-.09-.19-.19-.19s-.19.09-.19.19.09.19.19.19.19-.09.19-.19ZM80.59,292.66c0-.1-.09-.19-.19-.19s-.19.09-.19.19.09.19.19.19.19-.09.19-.19ZM60.47,291.9c0-.1-.09-.19-.19-.19s-.19.09-.19.19.09.19.19.19.19-.09.19-.19ZM77.23,290.67l.52-.66-.66.52c-.37.29-.66.59-.66.66,0,.31.31.11.81-.52h0ZM182.6,289.53c-.1-.37-.17-.07-.17.66s.08,1.03.17.66.1-.96,0-1.33h0ZM60.23,290.38c-.12-.31-.29-.57-.37-.57s-.15.26-.15.57.17.57.37.57.27-.26.15-.57ZM230.93,290.76c0-.1-.09-.19-.19-.19s-.19.09-.19.19.09.19.19.19.19-.09.19-.19ZM16.82,290.38c0-.1-.09-.19-.19-.19s-.19.09-.19.19.09.19.19.19.19-.09.19-.19ZM81.73,290.38c0-.1-.09-.19-.19-.19s-.19.09-.19.19.09.19.19.19.19-.09.19-.19ZM107.82,287.82c-.09-.47-.16-.09-.16.85s.07,1.32.16.85c.09-.47.09-1.24,0-1.71h0ZM77.81,288.58c-.11-.26-.19-.05-.19.47s.09.74.19.47c.11-.26.11-.69,0-.95ZM80.97,289.25c0-.1-.09-.19-.19-.19s-.19.09-.19.19.09.19.19.19.19-.09.19-.19ZM231.02,287.73c-.1-.52-.25-.95-.33-.95s-.15.43-.15.95.15.95.33.95.25-.43.15-.95ZM80.59,288.11c0-.1-.09-.19-.19-.19s-.19.09-.19.19.09.19.19.19.19-.09.19-.19ZM289.77,288.11c0-.1-.09-.19-.19-.19s-.19.09-.19.19.09.19.19.19.19-.09.19-.19ZM78.32,287.73c0-.1-.09-.19-.19-.19s-.19.09-.19.19.09.19.19.19.19-.09.19-.19ZM169.31,287.09c-.12-.3-.21-.21-.23.23-.02.4.07.62.2.5.13-.13.14-.45.03-.73h0ZM104.13,286.97c0-.1-.09-.19-.19-.19s-.19.09-.19.19.09.19.19.19.19-.09.19-.19ZM182.71,286.97c0-.1-.09-.19-.19-.19s-.19.09-.19.19.09.19.19.19.19-.09.19-.19ZM78.95,285.39c-.14-.14-.25-.03-.25.25s.11.39.25.25c.14-.14.14-.37,0-.51h0ZM182.5,284.33c-.14-.76-.34-1.31-.43-1.22-.09.09-.05.79.09,1.55.14.76.34,1.31.43,1.22.09-.09.05-.79-.09-1.55ZM81.35,285.45c0-.1-.09-.19-.19-.19s-.19.09-.19.19.09.19.19.19.19-.09.19-.19ZM169.43,285.45c0-.1-.09-.19-.19-.19s-.19.09-.19.19.09.19.19.19.19-.09.19-.19ZM79.57,284.12c.11-.42.04-.66-.15-.55-.19.12-.34.46-.34.76,0,.79.26.67.49-.21h0ZM81.73,284.69c0-.1-.09-.19-.19-.19s-.19.09-.19.19.09.19.19.19.19-.09.19-.19ZM169.31,284.05c-.12-.3-.21-.21-.23.23-.02.4.07.62.2.5.13-.13.14-.45.03-.73h0ZM107.55,284.31c0-.1-.09-.19-.19-.19s-.19.09-.19.19.09.19.19.19.19-.09.19-.19ZM59.59,283.49c-.14-.14-.25-.03-.25.25s.11.39.25.25c.14-.14.14-.37,0-.51h0ZM230.93,283.55c0-.1-.09-.19-.19-.19s-.19.09-.19.19.09.19.19.19.19-.09.19-.19ZM104.51,283.17c0-.1-.09-.19-.19-.19s-.19.09-.19.19.09.19.19.19.19-.09.19-.19ZM169.43,283.17c0-.1-.09-.19-.19-.19s-.19.09-.19.19.09.19.19.19.19-.09.19-.19ZM59.71,282.44c0-.09-.2-.29-.44-.44-.27-.17-.34-.1-.17.17.27.44.61.59.61.27h0ZM82.49,282.42c0-.1-.09-.19-.19-.19s-.19.09-.19.19.09.19.19.19.19-.09.19-.19ZM104.01,281.77c-.12-.3-.21-.21-.23.23-.02.4.07.62.2.5.13-.13.14-.45.03-.73h0ZM169.3,281.97c-.14-.14-.25-.03-.25.25s.11.39.25.25c.14-.14.14-.37,0-.51ZM179.3,282.04c0-.1-.09-.19-.19-.19s-.19.09-.19.19.09.19.19.19.19-.09.19-.19ZM83.06,280.92c0-.54-.14-.79-.34-.59-.18.18-.23.6-.11.93.32.83.44.74.44-.33h0ZM107.55,281.28c0-.1-.09-.19-.19-.19s-.19.09-.19.19.09.19.19.19.19-.09.19-.19ZM59.34,280.52c0-.1-.09-.19-.19-.19s-.19.09-.19.19.09.19.19.19.19-.09.19-.19ZM107.43,279.29c-.1-.37-.18-.16-.19.47,0,.63.07.93.18.67.1-.26.11-.77.01-1.14h0ZM169.43,280.14c0-.1-.09-.19-.19-.19s-.19.09-.19.19.09.19.19.19.19-.09.19-.19ZM289.26,279.7c-.14-.14-.25-.03-.25.25s.11.39.25.25c.14-.14.14-.37,0-.51h0ZM181.58,279.38c0-.1-.09-.19-.19-.19s-.19.09-.19.19.09.19.19.19.19-.09.19-.19ZM181.58,278.62c0-.1-.09-.19-.19-.19s-.19.09-.19.19.09.19.19.19.19-.09.19-.19ZM81.35,278.24c0-.1-.09-.19-.19-.19s-.19.09-.19.19.09.19.19.19.19-.09.19-.19ZM104.38,277.42c-.14-.14-.25-.03-.25.25s.11.39.25.25c.14-.14.14-.37,0-.51h0ZM81.61,277.04c-.14-.14-.25-.03-.25.25s.11.39.25.25c.14-.14.14-.37,0-.51h0ZM170.11,276.71c-.12-.12-.33.09-.47.47l-.26.68.47-.47c.26-.26.38-.56.26-.68ZM59.34,276.72c0-.1-.09-.19-.19-.19s-.19.09-.19.19.09.19.19.19.19-.09.19-.19ZM178.54,276.72c0-.1-.09-.19-.19-.19s-.19.09-.19.19.09.19.19.19.19-.09.19-.19ZM167.91,276.34c0-.1-.09-.19-.19-.19s-.19.09-.19.19.09.19.19.19.19-.09.19-.19ZM82.11,275.97c0-.1-.09-.19-.19-.19s-.19.09-.19.19.09.19.19.19.19-.09.19-.19ZM170.45,274.95c-.12-.3-.21-.21-.23.23-.02.4.07.62.2.5.13-.13.14-.45.03-.73h0ZM168.16,274.16c-.11-.26-.19-.05-.19.47s.09.74.19.47c.11-.26.11-.69,0-.95ZM181.2,275.21c0-.1-.09-.19-.19-.19s-.19.09-.19.19.09.19.19.19.19-.09.19-.19ZM84.27,274.19c-.12-.3-.21-.21-.23.23-.02.4.07.62.2.5.13-.13.14-.45.03-.73h0ZM107.93,274.83c0-.1-.09-.19-.19-.19s-.19.09-.19.19.09.19.19.19.19-.09.19-.19ZM230.17,274.45c0-.1-.09-.19-.19-.19s-.19.09-.19.19.09.19.19.19.19-.09.19-.19ZM17.58,273.31c0-.1-.09-.19-.19-.19s-.19.09-.19.19.09.19.19.19.19-.09.19-.19ZM170.83,272.29c-.12-.3-.21-.21-.23.23-.02.4.07.62.2.5.13-.13.14-.45.03-.73h0ZM107.98,270.37c-.14-2.32-.46-2.3-.38.02.04,1.09.16,1.88.27,1.77.11-.11.16-.92.11-1.79h0ZM82.49,271.79c0-.1-.09-.19-.19-.19s-.19.09-.19.19.09.19.19.19.19-.09.19-.19ZM105.65,271.79c0-.1-.09-.19-.19-.19s-.19.09-.19.19.09.19.19.19.19-.09.19-.19ZM169.3,270.59c-.14-.14-.25-.03-.25.25s.11.39.25.25c.14-.14.14-.37,0-.51ZM290.15,271.03c0-.1-.09-.19-.19-.19s-.19.09-.19.19.09.19.19.19.19-.09.19-.19ZM82.87,270.65c0-.1-.09-.19-.19-.19s-.19.09-.19.19.09.19.19.19.19-.09.19-.19ZM180.7,269.63c-.12-.3-.21-.21-.23.23-.02.4.07.62.2.5.13-.13.14-.45.03-.73h0ZM83.13,269.83c-.14-.14-.37-.14-.51,0-.14.14-.03.25.25.25s.39-.11.25-.25h0ZM171.58,269.45c-.14-.14-.25-.03-.25.25s.11.39.25.25c.14-.14.14-.37,0-.51ZM104.51,268.56c-.22-.42-.49-.76-.6-.76s0,.34.22.76c.22.42.49.76.6.76s0-.34-.22-.76ZM17.2,268.38c0-.1-.09-.19-.19-.19s-.19.09-.19.19.09.19.19.19.19-.09.19-.19ZM82.87,268.38c0-.1-.09-.19-.19-.19s-.19.09-.19.19.09.19.19.19.19-.09.19-.19ZM85.53,268.38c0-.1-.09-.19-.19-.19s-.19.09-.19.19.09.19.19.19.19-.09.19-.19ZM171.96,267.93c-.14-.14-.25-.03-.25.25s.11.39.25.25c.14-.14.14-.37,0-.51h0ZM83.63,268c0-.1-.09-.19-.19-.19s-.19.09-.19.19.09.19.19.19.19-.09.19-.19ZM177.4,268c0-.1-.09-.19-.19-.19s-.19.09-.19.19.09.19.19.19.19-.09.19-.19ZM180.52,267.05c-.09-.63-.23-1.14-.31-1.14s-.15.51-.15,1.14.14,1.14.31,1.14.24-.51.15-1.14ZM85.91,267.62c0-.1-.09-.19-.19-.19s-.19.09-.19.19.09.19.19.19.19-.09.19-.19ZM104.36,266.29c-.02-.63-.17-1.14-.33-1.14-.34,0-.37.85-.05,1.68.33.87.42.74.38-.54h0ZM107.93,267.24c0-.1-.09-.19-.19-.19s-.19.09-.19.19.09.19.19.19.19-.09.19-.19ZM172.18,266.48c.1-.52.03-.95-.15-.95s-.33.43-.33.95.07.95.15.95.23-.43.33-.95ZM83.63,266.86c0-.1-.09-.19-.19-.19s-.19.09-.19.19.09.19.19.19.19-.09.19-.19ZM230.05,265.84c-.12-.3-.21-.21-.23.23-.02.4.07.62.2.5.13-.13.14-.45.03-.73h0ZM170.06,265.66c-.14-.14-.25-.03-.25.25s.11.39.25.25c.14-.14.14-.37,0-.51ZM57.44,265.34c0-.1-.09-.19-.19-.19s-.19.09-.19.19.09.19.19.19.19-.09.19-.19ZM83.89,263.94c-.12-.3-.21-.21-.23.23-.02.4.07.62.2.5.13-.13.14-.45.03-.73h0ZM172.34,264.14c-.14-.14-.25-.03-.25.25s.11.39.25.25c.14-.14.14-.37,0-.51h0ZM230.17,264.58c0-.1-.09-.19-.19-.19s-.19.09-.19.19.09.19.19.19.19-.09.19-.19ZM105.27,264.2c0-.1-.09-.19-.19-.19s-.19.09-.19.19.09.19.19.19.19-.09.19-.19ZM177.02,264.2c0-.1-.09-.19-.19-.19s-.19.09-.19.19.09.19.19.19.19-.09.19-.19ZM180.06,264.2c0-.1-.09-.19-.19-.19s-.19.09-.19.19.09.19.19.19.19-.09.19-.19ZM172.35,261.64c-.09-.47-.17-.18-.17.66,0,.83.07,1.22.16.86.09-.36.1-1.05,0-1.52h0ZM84.39,262.68c0-.1-.09-.19-.19-.19s-.19.09-.19.19.09.19.19.19.19-.09.19-.19ZM179.68,261.46l-.44-.68.22.7c.12.38.23.89.25,1.14.02.32.08.32.22-.02.1-.25,0-.77-.25-1.14h0ZM106.03,261.92c0-.1-.09-.19-.19-.19s-.19.09-.19.19.09.19.19.19.19-.09.19-.19ZM108.69,261.17c0-.1-.09-.19-.19-.19s-.19.09-.19.19.09.19.19.19.19-.09.19-.19ZM230.55,261.17c0-.1-.09-.19-.19-.19s-.19.09-.19.19.09.19.19.19.19-.09.19-.19ZM169.81,260.41c0-.1-.09-.19-.19-.19s-.19.09-.19.19.09.19.19.19.19-.09.19-.19ZM179.52,259.24c-.14-.56-.34-.93-.44-.82-.1.1-.08.64.06,1.2s.34.93.44.82c.1-.1.08-.64-.06-1.2h0ZM108.56,258.6c-.11-.26-.19-.05-.19.47s.09.74.19.47c.11-.26.11-.69,0-.95ZM172.73,258.03c-.1-.37-.17-.07-.17.66s.08,1.03.17.66.1-.96,0-1.33h0ZM176.13,259.2c-.14-.14-.25-.03-.25.25s.11.39.25.25c.14-.14.14-.37,0-.51h0ZM87.43,258.51c0-.1-.09-.19-.19-.19s-.19.09-.19.19.09.19.19.19.19-.09.19-.19ZM179.18,256.73c-.12-.3-.21-.21-.23.23-.02.4.07.62.2.5.13-.13.14-.45.03-.73h0ZM172.94,256.23c.1-.52.03-.95-.15-.95s-.33.43-.33.95.07.95.15.95.23-.43.33-.95h0ZM85.53,256.23c0-.1-.09-.19-.19-.19s-.19.09-.19.19.09.19.19.19.19-.09.19-.19ZM55.92,255.47c0-.1-.09-.19-.19-.19s-.19.09-.19.19.09.19.19.19.19-.09.19-.19ZM105.65,255.47c0-.1-.09-.19-.19-.19s-.19.09-.19.19.09.19.19.19.19-.09.19-.19ZM178.92,255.47c0-.1-.09-.19-.19-.19s-.19.09-.19.19.09.19.19.19.19-.09.19-.19ZM169.43,254.71c0-.1-.09-.19-.19-.19s-.19.09-.19.19.09.19.19.19.19-.09.19-.19ZM172.6,254.32c-.12-.32-.31-.5-.41-.4-.1.1-.07.36.07.59.37.61.59.49.34-.18h0ZM16.31,253.89c-.14-.14-.25-.03-.25.25s.11.39.25.25c.14-.14.14-.37,0-.51h0ZM169.1,253.29l-.47-.47.26.68c.14.37.35.58.47.47.12-.12,0-.42-.26-.68ZM87.81,253.58c0-.1-.09-.19-.19-.19s-.19.09-.19.19.09.19.19.19.19-.09.19-.19ZM108.57,252.35c-.1-.37-.18-.16-.19.47,0,.63.07.93.18.67.1-.26.11-.77.01-1.14h0ZM178.59,252.53c-.12-.77-.25-.98-.35-.55-.14.65.12,1.78.41,1.78.07,0,.05-.55-.06-1.23h0ZM176.26,253.2c0-.1-.09-.19-.19-.19s-.19.09-.19.19.09.19.19.19.19-.09.19-.19ZM88.07,251.8c-.12-.3-.21-.21-.23.23-.02.4.07.62.2.5.13-.13.14-.45.03-.73h0ZM289.01,252.06c0-.1-.09-.19-.19-.19s-.19.09-.19.19.09.19.19.19.19-.09.19-.19ZM169.05,251.68c0-.1-.09-.19-.19-.19s-.19.09-.19.19.09.19.19.19.19-.09.19-.19ZM176.26,251.28c0-.45-.72-.45-.89,0-.14.37-.03.48.34.34.3-.12.55-.27.55-.34h0ZM86.29,251.3c0-.1-.09-.19-.19-.19s-.19.09-.19.19.09.19.19.19.19-.09.19-.19ZM178.16,250.92c0-.1-.09-.19-.19-.19s-.19.09-.19.19.09.19.19.19.19-.09.19-.19ZM54.65,250.1c-.14-.14-.25-.03-.25.25s.11.39.25.25c.14-.14.14-.37,0-.51ZM108.31,250.54c0-.1-.09-.19-.19-.19s-.19.09-.19.19.09.19.19.19.19-.09.19-.19ZM169.05,250.16c0-.1-.09-.19-.19-.19s-.19.09-.19.19.09.19.19.19.19-.09.19-.19ZM178.54,250.16c0-.1-.09-.19-.19-.19s-.19.09-.19.19.09.19.19.19.19-.09.19-.19ZM86.67,249.4c0-.1-.09-.19-.19-.19s-.19.09-.19.19.09.19.19.19.19-.09.19-.19ZM108.18,248.96c-.14-.14-.25-.03-.25.25s.11.39.25.25c.14-.14.14-.37,0-.51h0ZM172.09,249.4c0-.1-.09-.19-.19-.19s-.19.09-.19.19.09.19.19.19.19-.09.19-.19ZM175.5,249.02c0-.1-.09-.19-.19-.19s-.19.09-.19.19.09.19.19.19.19-.09.19-.19ZM178.16,249.02c0-.1-.09-.19-.19-.19s-.19.09-.19.19.09.19.19.19.19-.09.19-.19ZM86.92,247.44c-.14-.14-.25-.03-.25.25s.11.39.25.25c.14-.14.14-.37,0-.51ZM173.11,246.84c.1.26.45.47.79.47h.61l-.72-.53c-.93-.68-1.71-.37-1.68.66l.02.81.4-.95c.24-.56.47-.75.58-.47h0ZM175.12,247.88c0-.1-.09-.19-.19-.19s-.19.09-.19.19.09.19.19.19.19-.09.19-.19ZM177.65,247.44c-.14-.14-.25-.03-.25.25s.11.39.25.25c.14-.14.14-.37,0-.51ZM89.25,246.73c-.12-.12-.33.09-.47.47l-.26.68.47-.47c.26-.26.38-.56.26-.68ZM169.81,247.5c0-.1-.09-.19-.19-.19s-.19.09-.19.19.09.19.19.19.19-.09.19-.19ZM177.4,245.61c0-.1-.09-.19-.19-.19s-.19.09-.19.19.09.19.19.19.19-.09.19-.19ZM53.51,244.78c-.14-.14-.25-.03-.25.25s.11.39.25.25c.14-.14.14-.37,0-.51h0ZM90.09,244.85c0-.1-.09-.19-.19-.19s-.19.09-.19.19.09.19.19.19.19-.09.19-.19ZM86.92,244.02c-.14-.14-.25-.03-.25.25s.11.39.25.25c.14-.14.14-.37,0-.51h0ZM89.71,244.09c0-.1-.09-.19-.19-.19s-.19.09-.19.19.09.19.19.19.19-.09.19-.19ZM107.8,243.65c-.14-.14-.25-.03-.25.25s.11.39.25.25c.14-.14.14-.37,0-.51h0ZM177.02,243.73c0-.09-.2-.29-.44-.44-.27-.17-.34-.1-.17.17.27.44.61.59.61.27h0ZM53.26,243.33c0-.1-.09-.19-.19-.19s-.19.09-.19.19.09.19.19.19.19-.09.19-.19ZM87.81,242.19c0-.1-.09-.19-.19-.19s-.19.09-.19.19.09.19.19.19.19-.09.19-.19ZM107.93,242.19c0-.1-.09-.19-.19-.19s-.19.09-.19.19.09.19.19.19.19-.09.19-.19ZM89.71,241.43c0-.1-.09-.19-.19-.19s-.19.09-.19.19.09.19.19.19.19-.09.19-.19ZM52.88,241.05c0-.1-.09-.19-.19-.19s-.19.09-.19.19.09.19.19.19.19-.09.19-.19ZM87.68,240.61c-.14-.14-.25-.03-.25.25s.11.39.25.25c.14-.14.14-.37,0-.51h0ZM107.93,241.05c0-.1-.09-.19-.19-.19s-.19.09-.19.19.09.19.19.19.19-.09.19-.19ZM89.96,240.23c-.14-.14-.25-.03-.25.25s.11.39.25.25c.14-.14.14-.37,0-.51h0ZM107.8,239.85c-.14-.14-.25-.03-.25.25s.11.39.25.25c.14-.14.14-.37,0-.51h0ZM87.68,238.71c-.14-.14-.25-.03-.25.25s.11.39.25.25c.14-.14.14-.37,0-.51h0ZM90.35,237.93c-.1-.37-.18-.16-.19.47,0,.63.07.93.18.67.1-.26.11-.77.01-1.14h0ZM104.39,238.51c-.12-.3-.21-.21-.23.23-.02.4.07.62.2.5.13-.13.14-.45.03-.73h0ZM107.55,237.64c0-.1-.09-.19-.19-.19s-.19.09-.19.19.09.19.19.19.19-.09.19-.19ZM228.27,236.12c0-.1-.09-.19-.19-.19s-.19.09-.19.19.09.19.19.19.19-.09.19-.19ZM88.57,235.74c0-.1-.09-.19-.19-.19s-.19.09-.19.19.09.19.19.19.19-.09.19-.19ZM89.52,234.79c.13-.21.15-.38.04-.38s-.3.17-.42.38c-.13.21-.15.38-.04.38s.3-.17.42-.38ZM91.22,233.84c0-.1-.09-.19-.19-.19s-.19.09-.19.19.09.19.19.19.19-.09.19-.19ZM90.09,232.7c0-.1-.09-.19-.19-.19s-.19.09-.19.19.09.19.19.19.19-.09.19-.19ZM91.6,232.7c0-.1-.09-.19-.19-.19s-.19.09-.19.19.09.19.19.19.19-.09.19-.19ZM35.04,232.33c0-.1-.09-.19-.19-.19s-.19.09-.19.19.09.19.19.19.19-.09.19-.19ZM91.48,231.12c-.14-.14-.25-.03-.25.25s.11.39.25.25c.14-.14.14-.37,0-.51h0ZM50.6,231.19c0-.1-.09-.19-.19-.19s-.19.09-.19.19.09.19.19.19.19-.09.19-.19ZM90.09,230.81c0-.1-.09-.19-.19-.19s-.19.09-.19.19.09.19.19.19.19-.09.19-.19ZM107.55,230.43c0-.1-.09-.19-.19-.19s-.19.09-.19.19.09.19.19.19.19-.09.19-.19ZM90.09,230.05c0-.1-.09-.19-.19-.19s-.19.09-.19.19.09.19.19.19.19-.09.19-.19ZM91.86,229.01c-.11-.26-.19-.05-.19.47s.09.74.19.47c.11-.26.11-.69,0-.95ZM91.98,228.15c0-.1-.09-.19-.19-.19s-.19.09-.19.19.09.19.19.19.19-.09.19-.19ZM49.84,227.79c0-.09-.2-.29-.44-.44-.27-.17-.34-.1-.17.17.27.44.61.59.61.27h0ZM90.46,227.01c0-.1-.09-.19-.19-.19s-.19.09-.19.19.09.19.19.19.19-.09.19-.19ZM49.46,226.63c0-.1-.09-.19-.19-.19s-.19.09-.19.19.09.19.19.19.19-.09.19-.19ZM90.34,225.05c-.14-.14-.25-.03-.25.25s.11.39.25.25c.14-.14.14-.37,0-.51h0ZM48.2,224.67c-.14-.14-.25-.03-.25.25s.11.39.25.25c.14-.14.14-.37,0-.51h0ZM108.31,224.36c0-.1-.09-.19-.19-.19s-.19.09-.19.19.09.19.19.19.19-.09.19-.19ZM47.44,223.54c-.14-.14-.25-.03-.25.25s.11.39.25.25c.14-.14.14-.37,0-.51h0ZM50.98,223.98c0-.1-.09-.19-.19-.19s-.19.09-.19.19.09.19.19.19.19-.09.19-.19ZM55.16,223.6c0-.1-.09-.19-.19-.19s-.19.09-.19.19.09.19.19.19.19-.09.19-.19ZM90.46,223.6c0-.1-.09-.19-.19-.19s-.19.09-.19.19.09.19.19.19.19-.09.19-.19ZM52.88,223.22c0-.1-.09-.19-.19-.19s-.19.09-.19.19.09.19.19.19.19-.09.19-.19ZM53.07,221.95c-.24-.24-1.71.35-1.71.68,0,.17.41.12.92-.12.51-.24.86-.49.79-.57h0ZM90.84,222.08c0-.1-.09-.19-.19-.19s-.19.09-.19.19.09.19.19.19.19-.09.19-.19ZM53.13,220.5c-.14-.14-.25-.03-.25.25s.11.39.25.25c.14-.14.14-.37,0-.51h0ZM52.5,220.18c0-.1-.09-.19-.19-.19s-.19.09-.19.19.09.19.19.19.19-.09.19-.19ZM53.64,218.67c0-.1-.09-.19-.19-.19s-.19.09-.19.19.09.19.19.19.19-.09.19-.19ZM91.6,216.77c0-.1-.09-.19-.19-.19s-.19.09-.19.19.09.19.19.19.19-.09.19-.19ZM105.27,216.77c0-.1-.09-.19-.19-.19s-.19.09-.19.19.09.19.19.19.19-.09.19-.19ZM16.82,216.01c0-.1-.09-.19-.19-.19s-.19.09-.19.19.09.19.19.19.19-.09.19-.19ZM54.4,216.01c0-.1-.09-.19-.19-.19s-.19.09-.19.19.09.19.19.19.19-.09.19-.19ZM54.78,215.25c0-.1-.09-.19-.19-.19s-.19.09-.19.19.09.19.19.19.19-.09.19-.19ZM46.05,214.11c0-.1-.09-.19-.19-.19s-.19.09-.19.19.09.19.19.19.19-.09.19-.19ZM54.65,212.53c-.14-.14-.25-.03-.25.25s.11.39.25.25c.14-.14.14-.37,0-.51h0ZM92.36,211.08c0-.1-.09-.19-.19-.19s-.19.09-.19.19.09.19.19.19.19-.09.19-.19ZM54.4,208.8c0-.1-.09-.19-.19-.19s-.19.09-.19.19.09.19.19.19.19-.09.19-.19ZM47.57,208.04c0-.1-.09-.19-.19-.19s-.19.09-.19.19.09.19.19.19.19-.09.19-.19ZM43.64,206.84c-.14-.14-.25-.03-.25.25s.11.39.25.25c.14-.14.14-.37,0-.51h0ZM54.4,206.9c0-.1-.09-.19-.19-.19s-.19.09-.19.19.09.19.19.19.19-.09.19-.19ZM94.26,206.9c0-.1-.09-.19-.19-.19s-.19.09-.19.19.09.19.19.19.19-.09.19-.19ZM32.76,206.52c0-.1-.09-.19-.19-.19s-.19.09-.19.19.09.19.19.19.19-.09.19-.19ZM108.69,205c0-.1-.09-.19-.19-.19s-.19.09-.19.19.09.19.19.19.19-.09.19-.19ZM290.78,204.56c-.14-.14-.25-.03-.25.25s.11.39.25.25c.14-.14.14-.37,0-.51h0ZM55.92,202.73c0-.1-.09-.19-.19-.19s-.19.09-.19.19.09.19.19.19.19-.09.19-.19ZM94.64,201.97c0-.1-.09-.19-.19-.19s-.19.09-.19.19.09.19.19.19.19-.09.19-.19ZM56.3,199.69c0-.1-.09-.19-.19-.19s-.19.09-.19.19.09.19.19.19.19-.09.19-.19ZM233.08,198.87c-.14-.14-.25-.03-.25.25s.11.39.25.25c.14-.14.14-.37,0-.51h0ZM58.58,198.93c0-.1-.09-.19-.19-.19s-.19.09-.19.19.09.19.19.19.19-.09.19-.19ZM95.4,198.93c0-.1-.09-.19-.19-.19s-.19.09-.19.19.09.19.19.19.19-.09.19-.19ZM40.16,192.29c.13-.21.15-.38.04-.38s-.3.17-.42.38c-.13.21-.15.38-.04.38s.3-.17.42-.38ZM106.41,191.34c0-.1-.09-.19-.19-.19s-.19.09-.19.19.09.19.19.19.19-.09.19-.19ZM57.44,190.96c0-.1-.09-.19-.19-.19s-.19.09-.19.19.09.19.19.19.19-.09.19-.19ZM56.93,188.62c-.14-.14-.37-.14-.51,0-.14.14-.03.25.25.25s.39-.11.25-.25h0ZM25.55,186.03c0-.1-.09-.19-.19-.19s-.19.09-.19.19.09.19.19.19.19-.09.19-.19ZM60.09,185.65c0-.1-.09-.19-.19-.19s-.19.09-.19.19.09.19.19.19.19-.09.19-.19ZM109.7,184.45c-.14-.14-.25-.03-.25.25s.11.39.25.25c.14-.14.14-.37,0-.51h0ZM107.93,183c0-.1-.09-.19-.19-.19s-.19.09-.19.19.09.19.19.19.19-.09.19-.19ZM57.82,180.34c0-.1-.09-.19-.19-.19s-.19.09-.19.19.09.19.19.19.19-.09.19-.19ZM99.83,180.28c-.14-.14-.37-.14-.51,0s-.03.25.25.25.39-.11.25-.25h0ZM100.34,179.2c0-.1-.09-.19-.19-.19s-.19.09-.19.19.09.19.19.19.19-.09.19-.19ZM31.62,177.3c0-.1-.09-.19-.19-.19s-.19.09-.19.19.09.19.19.19.19-.09.19-.19ZM58.58,175.79c0-.1-.09-.19-.19-.19s-.19.09-.19.19.09.19.19.19.19-.09.19-.19ZM232.07,175.79c0-.1-.09-.19-.19-.19s-.19.09-.19.19.09.19.19.19.19-.09.19-.19ZM13.02,167.44c0-.1-.09-.19-.19-.19s-.19.09-.19.19.09.19.19.19.19-.09.19-.19ZM35.67,166.62c-.14-.14-.25-.03-.25.25s.11.39.25.25c.14-.14.14-.37,0-.51h0ZM58.96,167.06c0-.1-.09-.19-.19-.19s-.19.09-.19.19.09.19.19.19.19-.09.19-.19ZM35.42,164.78c0-.1-.09-.19-.19-.19s-.19.09-.19.19.09.19.19.19.19-.09.19-.19ZM107.72,163.24l.64-.98-.79.42c-.43.23-.79.67-.79.98,0,.79.2.7.93-.42ZM58.45,159.41c-.14-.14-.25-.03-.25.25s.11.39.25.25c.14-.14.14-.37,0-.51h0ZM33.29,157.82c.11-.17-.05-.32-.34-.32s-.45.14-.34.32c.11.17.26.32.34.32s.23-.14.34-.32ZM59.71,154.54c0-.1-.09-.19-.19-.19s-.19.09-.19.19.09.19.19.19.19-.09.19-.19ZM62.75,150.36c0-.1-.09-.19-.19-.19s-.19.09-.19.19.09.19.19.19.19-.09.19-.19ZM62.75,149.6c0-.1-.09-.19-.19-.19s-.19.09-.19.19.09.19.19.19.19-.09.19-.19ZM107.98,148.37l.52-.66-.66.52c-.37.29-.66.59-.66.66,0,.31.31.11.81-.52h0ZM254.46,140.5c0-.1-.09-.19-.19-.19s-.19.09-.19.19.09.19.19.19.19-.09.19-.19ZM235.1,139.74c0-.1-.09-.19-.19-.19s-.19.09-.19.19.09.19.19.19.19-.09.19-.19ZM293.19,134.8c0-.1-.09-.19-.19-.19s-.19.09-.19.19.09.19.19.19.19-.09.19-.19ZM233.21,133.67c0-.1-.09-.19-.19-.19s-.19.09-.19.19.09.19.19.19.19-.09.19-.19ZM230.55,126.46c0-.1-.09-.19-.19-.19s-.19.09-.19.19.09.19.19.19.19-.09.19-.19ZM277.62,126.46c0-.1-.09-.19-.19-.19s-.19.09-.19.19.09.19.19.19.19-.09.19-.19ZM88.57,120c0-.1-.09-.19-.19-.19s-.19.09-.19.19.09.19.19.19.19-.09.19-.19ZM278,119.63c0-.1-.09-.19-.19-.19s-.19.09-.19.19.09.19.19.19.19-.09.19-.19ZM296.98,107.86c0-.1-.09-.19-.19-.19s-.19.09-.19.19.09.19.19.19.19-.09.19-.19ZM296.6,98.75c0-.1-.09-.19-.19-.19s-.19.09-.19.19.09.19.19.19.19-.09.19-.19ZM45.67,79.4c0-.1-.09-.19-.19-.19s-.19.09-.19.19.09.19.19.19.19-.09.19-.19ZM292.81,75.23c0-.1-.09-.19-.19-.19s-.19.09-.19.19.09.19.19.19.19-.09.19-.19ZM292.81,52.84c0-.1-.09-.19-.19-.19s-.19.09-.19.19.09.19.19.19.19-.09.19-.19ZM225.23,32.35c0-.1-.09-.19-.19-.19s-.19.09-.19.19.09.19.19.19.19-.09.19-.19ZM67.69,11.48c0-.1-.09-.19-.19-.19s-.19.09-.19.19.09.19.19.19.19-.09.19-.19ZM189.55,6.55c0-.1-.09-.19-.19-.19s-.19.09-.19.19.09.19.19.19.19-.09.19-.19ZM202.08,5.41c0-.1-.09-.19-.19-.19s-.19.09-.19.19.09.19.19.19.19-.09.19-.19ZM226.37,2.37c0-.1-.09-.19-.19-.19s-.19.09-.19.19.09.19.19.19.19-.09.19-.19ZM66.36,346.73c-.13-.21-.05-.38.17-.38s.4.17.4.38-.08.38-.17.38-.27-.17-.4-.38ZM142.25,339.85c-.17-.27-.1-.34.17-.17.44.27.59.61.27.61-.09,0-.29-.2-.44-.44h0ZM204.35,334.78c0-.1.09-.19.19-.19s.19.09.19.19-.09.19-.19.19-.19-.09-.19-.19ZM65.41,323.02c0-.1.09-.19.19-.19s.19.09.19.19-.09.19-.19.19-.19-.09-.19-.19ZM82.36,97.05c-3.29-.59-4.43-2.97-1.99-4.13l1.11-.53,1.74.47c.96.26,2.63.55,3.72.65l1.98.18,1.78-.89c1.02-.51,3.03-2.19,4.67-3.92,1.58-1.66,3.68-3.8,4.66-4.74.98-.95,1.83-2.14,1.9-2.66l.12-.95,1.22-.12c1.87-.18,2.77.48,2.77,2.05,0,3.86-11.43,14.75-14.32,13.65-.29-.11-.43-.05-.32.13.48.77-6.01,1.35-9.03.8h0ZM84.39,94.2c0-.1-.09-.19-.19-.19s-.19.09-.19.19.09.19.19.19.19-.09.19-.19ZM86.29,94.2c0-.1-.09-.19-.19-.19s-.19.09-.19.19.09.19.19.19.19-.09.19-.19ZM102.61,82.06c0-.1-.09-.19-.19-.19s-.19.09-.19.19.09.19.19.19.19-.09.19-.19Z"/>
  </g>
</svg>