<?xml version="1.0" encoding="UTF-8"?>
<svg id="Layer_1" xmlns="http://www.w3.org/2000/svg" version="1.1" viewBox="0 0 504.04 537.49">
  <!-- Generator: Adobe Illustrator 30.2.1, SVG Export Plug-In . SVG Version: 2.1.1 Build 1)  -->
  <g id="_x32_NcsEV.tif">
    <g>
      <path d="M309.58,0l.55.3c.29.16.86.44,1.05.63l1.18,1.19c.45.46.94,1.17,1.34,1.75l1.3,1.88c1.68,2.43.06.25,1.38,2.3l1.13,1.77c.48.75,1.1,1.55,1.66,2.29,1.19,1.54-.49-.08,1.6,2.43.4.49.74,1.14,1.13,1.74l.51.79c.1.16.6-.12.69-.3l.22-.45.22-.43c.14-.27.64-.72.93-.94l.34-.27c.09-.07.32-.27.38-.3.92-2.11,2.6-2.18,2.73-2.36l.49-.64c-.2-.5-.21-.52-.21-.52l.63.12.47.1c.88.19.65-.06,1.33.66l.3.32c.36.38.97.21,1.4.1l.45-.11.45-.12.46-.12.47-.12c.15-.04.31-.08.43-.12l.44-.14.42-.13.45-.14c.07-.02.42-.05.49-.05h.6s.58,0,.58,0h.57s.58-.01.58-.01c.09,0,.39.07.49.09l.47.1c.14.03.38.07.46.08l.57.05c.18.01.47.03.53.05l.45.13.42.13c.14.04.29.09.42.13l.47.12.46.12.46.13c.07.02.35.11.4.15l.33.25.32.24.33.25.33.25.32.24.32.24c.62.47.48.35.68,1.04l.13.45c.08.27.34.45.43.71l.14.42.12.49c.02.07.1.38.1.45v.56s0,.59,0,.59c.01.63-.06.59-.23.9-.93,1.65-.84,2.12-2.8,3.5l-1.65,1.16c-.13.09-.19.63-.05.69l.74.3c1.14.46,1.28,1.05,1.11,1.99,0,.05-.19.22-.27.29l-.29.28-.29.27c-.09.08-.25.27-.3.29l-.43.12-.46.13-.45.12-.46.12c-.07.02-.4.07-.47.07l-3.58.07c-.32.33-.89.92-1.16,1.17l-1.21,1.11c-.1.09-.21.21-.3.27l-.33.25c-.44.34-.82.69-1.12,1.1l-1.38,1.89c-.44.6-.16,1.41.15,2.22.27.7.66,1.08,1.34,1.27l2.79.78c.45.13,1.37-.03,1.81-.2l1.31-.5c.31-.12.72-.27.98-.4l1.72-.9c.47-.24,1.3-.87,1.76-1,1.32-.37,2.37-1.01,3.11-2.09.52-.14,2.44-.99,2.17-1.46l-.37-.65s-.23-.22-.32-.3l-.3-.27c-.02-.38-.05-.88-.26-1.02l-.44-.29c-.63-.42-1.74.24-3.37-1.31l1.11-.5c.97-.44.65-1.9,1.74-1.48.46.17,1.28.39,1.58.58l3.25,2.07c.28.18.83.85.9,1.15l.32,1.46c.22,1.02.21,1.93-.68,2.43-.58.33-.37.57-.56.72-1.55,1.19-1.25-.68-2.94,1.55-.34.4-3.58,1.1-3.29,1.86l.41,1.05c.28.72.35,1.3.05,1.81-.14.23-.76.45-1.07.49l-2.06.26c-.4.05-.94.77-1.25.98l-1.37.93-.38.25c-.68.45-.38.56-1.54,2.18-.87,1.21-.92,3.05-.08,4.12l.31.39c.07.09.45.29.57.27l.71-.16.48-.1c.16-.04.42-.08.5-.11l.43-.18,2.22-.89c2.04-.82.61-1.11,2.31-.88.87.12,1.67-.69,3.36-1.28l1.81-.63c.22-.08.57-.18.75-.17l.57.05.56.05.09-1.72c.02-.36.71-1.19.43-1.41l-1.21-.97s-.38-.04-.63-.06l-.35-.45c.5-.55-.15-1.57.31-1.8l1.22-.61.39-.19c.36-.18.56-.43,1.3-.05l.39.2.38.19.39.19.34.21.35.23.44.3c.3,1.18.36,2.9-.19,4.07l-.83,1.79c-.02.05-.16.44-.2.46l-1.5.95c-.12.08-.31.19-.34.24l-.25.36c-.58.86-1.12-.22-1.55.23l-.62.66s-.41.14-.46.17l-.37.21c-.1.06-.36.22-.41.24l-1.87.66-1.86.65c-.51.18-2.27.56-2.49,1.94-.03.21.24.7.36.9l1.11,1.82c.3.49.64,1.31.88,1.9l.53,1.28c.12.29.24.95.36,1.33l.89,2.88c.2.66.6,1.5.88,2.19,1.19,3.02,1.2,3.61,2.28,6.53l1.77,4.81c.14.38.27,1.17.49,1.45l.9,1.15c.55.71-.9-.03,1.85,3.61,1.36,1.8,1.95-.61,3.89,4.8.39,1.08.86,2.02.83,3.21-.02,1.34.99,2.53,1.39,3.74.35,1.07.62,2.01,1.16,2.95.86,1.49-.09.29,1.01,3.21,1.46,3.87,1.16,1.71,2.23,5.59.31,1.11.89.7,1.31,1.54.21.43.74,1.41.86,1.88l.47,1.91c.06.23-.14,1.03-.35,1.15-.33.19-1.25.33-1.77.34-.33,0-.58-.83-.77-1.16l-1.04-1.79c-.1-.18-.77-.52-.85-.7-.95-2.1.27-1.51-.87-3.06l-.87-1.18c-.65-.89.07-.72-.79-2.31-.46-.85-1.88-3.89-2.03-4.5-.69-2.83-.1-2.66-1.34-3.78l-.32-.29c-.41-.37.55-.13-.39-.98l-.34-.31s-.19-.31-.2-.37l-.34-1.07c-1.03-3.23-1.28-2.28-2.92-4.79l-.27-.42c-1.81-2.76.18-.57-1.58-3.15-.13-.19-.37-.79-.38-1.02l-.03-.6c-.04-.94-.76-.85-1.08-1.81l-.99-2.94-1.32-2.72c-.23-.47-.43-1.12-.57-1.66l-.48-1.9-.49-1.73c-.08-.28.74-1.01.13-1.6-.5-.48-1.49-1.57-1.66-2.26l-.47-1.89c-.24-.97-.47-.37-.87-1.41l-.85-2.2c-.2-.53-.9-.73-.72-1.1l.47-.97c.61-1.25-1.98-1.25-2.86-2.23l-.87-.98c-.99-1.12-2.27.72-2.99.05-.44-.4-1.22-.85-1.38-1.21l-.56-1.29c-.88-2.02-.08-2.37-.3-3.34-.08-.36-.3-.93-.24-1.17.08-.34.32-1.28.54-1.55l2.29-2.77c.25-.3.51-.85.73-1.26-.67-.76-1.09.28-2.68,0-6.49-1.13-.84.51-5.86-2.39-1.58-.91.54-1.01-1.67-2.87l.51-1.82c.01-.05.26-.34.3-.4l.56-1.01c.13-.24-.29-.85-.45-1.09l-1.02-1.6-1.01-1.56c-.71-1.1-1.91-.72-2.43-1.29l-1.24-1.35c-.6-.65-.73-2.84-.51-3.78l.24-1.02c.05-.19-.43-.32-.68-.53-1.67-1.41-1.53-2.16-3.1-4.28l-1.96-2.65c-.49-.67-1.03-1.29-1.39-2.04l-.93-1.96c-.24-.51-1.06-1.05-2.15-2.36l-1.3-1.57-.75-.9-1.37-1.54-.26-.29-.35-.3c-.22-.19-.94-.34-1.13-.13l-.31.36c-1,1.16-.97.88-1.96,1.46l-.32.6c-.13.24-.48.69-.69.95l-1.32,1.6c-.32.39-.68,1.39-.73,1.88.01-.13,1.64,2.16,1.75,2.32,1.97,2.76.74.45,3.03,3.83.44.65,1.01,1.39,1.34,2.01l1.02,1.93.98,1.9,2.09,4.18.47.64s.05.38.08.56c.31,1.88.85.29.93,2.44.02.4-.04.81.13.85l.58.16c.13.03.41.1.44.15l.32.49.24.37c1.98,3.09-.21,1.46,1.81,3.01l1.18.9c1.69,1.29,2.87.88,2.65,1.57l-.19.6c-.11.36.4.94.18,1.29-.13.21-.5.48-.8.38l-.51-.18c-2.27-.82-.3.42-3.23-.57l-1.48-2.06c-1.02-1.42-2.12-2.89-2.89-4.45l-.86-1.73-.21-1.02c-.21-1.02-1.17-.09-1.3-1.82l-.03-.44c0-.07-.16-.55-.2-.59l-.46-.4c-.09-.08-.37-.35-.43-.46l-.77-1.3c-1.11-1.87.35.08-1.21-2.26l-1.25-1.88c-.19-.29-.48-1.03-.64-1.39-.33-.77-.48,0-1.37-1.15l-.87-1.13-2.54-3.16c-1.7-2.11-2.42-.25-3.22-1.04l-1.08-1.06c1.36-2.86-4-3.73-6.01-3.9-2.53-.22-2.11-.61-3.32.37l-1.74,1.41c0,2.79-2.1,2.73-2.1,3.59v1.3c-.01.32.37.98.6,1.27l.92,1.18c.19.25.52.99.74,1.21l1.38,1.43c.82.86-.14.74,1.35,1.77.14.1.4.26.43.3l1.03,1.72,1.14,1.91c-1.68-2.81,3.13,4.34.58,1.05.45.58.83.23,1.29,1.21l1.99,4.24c.02.05.12.41.11.46l-.04.44c-.09.99.59.56,1.44,2.2.48.91,1.31,2.73,2.36,3.12l1.43.52c.09.03.39.12.42.16l.64.77c.05.06-.08.53-.1.63l-.31,1.74c-.06.33-.71.83-1.03.86l-.58.06c-.05,0-.26.17-.34.23l-.34.27c-3.88-1.95-1.29-1.68-4.19-5.5-1.06-1.4-.04-1.78-.6-2.5-.27-.35-.89-1.05-1.12-1.43l-1.31-2.12c-.37-.6-.66-1.19-1.04-1.9-.18-.34-.71-.88-.94-1.22l-.96-1.41c-.45-.67-.95-1.41-.83-2.04l.1-.52c-.24-.05-.38-.09-.42-.07l-.42.13-.76-.56-.32-.24c-.39-.29-.28-.12-.57-.57l-.23-.36c-.06-.1-.15-.24-.2-.32l-.22-.38-.21-.37c-.32-.56-.01-.17-.5-.65l-.28-.28s-.22-.28-.24-.33l-.16-.42-.15-.41c-.05-.14-.12-.34-.16-.4l-.21-.36c-.08-.13-.16-.31-.21-.37l-.28-.31s-.22-.16-.32-.23l-.34-.23c-.28-.2-.39-.17-.57-.56l-.19-.42c-.04-.09-.16-.33-.21-.34l-.45-.12c-1.32-.35-3.55-3.05-6.93-1.5-.79.36-2.21.35-2.92.75l-2.43,1.36c-1.9,1.06-2.19.49-4.1,1.8l.57,2.05c.08.29.44.88.68,1.33s.86.73,1.37.82l1.16.2s.32.28.36.32l1.49,1.65c1.55,1.72.42,2.29,1.93,4.29l1.03,1.37,1.15-1.02.35,1.99c.03.18.26.73.39.85l1.6,1.43c1.98,1.78.66,1.75,2.14,3.83l1.35,1.89c.49.69,1.32,1.44,1.7,2.2,1.27,2.54,1.48,2.28,2.69,4.22.09.15.4.55.53.62l1.57.93c1.13.67,1.83,1.41,2.3,2.62l1.12,2.88c.05.12.67.43,1.1,3.1.08.52.17,1.38.27,1.8.68.63,2.02,1.67,2.21,2.5l.69,3.09c.07.33.46.96.71,1.06l1.88.7c2.71,1,4.69.81,7.48.02,2.46-.7,1.24.26,2.38-.23,2.62-1.12,3.3.35,4.82.11l1.69-.27c.45-.07,1.42.37,1.78.75,1.25,1.32.91,4.36-.4,5.34-.49.37-1.08.74-1.42,1.12l-2.06,2.28c-.63.7-1.18,1.21-2.08,1.67l-.9.74-1.56,1.08c-.76.53-1.8.82-2.77,1.26-.91.42-.76.9-2.6,1.58l-1.9.7c-.3.11-.94.51-1.16.34l-.59-.48c-.07-.06-.23.19-.41.38l.33.39,1.93,2.3c.05.06.23.37.26.4l1.32.88c.6.4,1.42-.25,1.87,1.26.59,1.95.97,1.78.56,2.49-.22.38-.59,1.02-.84.99l-1.49-.19c-.86-.11-1.56-.45-2.17-.98l-1.41-1.24c-1.89-1.66-1.12-1.58-2.81-3.16-.84-.78-2.04-1.14-3.11-.53-.5.29-.98.73-1.45,1.1l-2.74,2.14c-.13.1-.45.3-.56.38l-.35.22-.43-.36c-1.31-1.1-1.79,0-2.75.03l-2.71.07.89,1.26s.1.26.18.5c.21.62.83,1.2,1.24,1.76l1.73,2.37,1.45,2.1c.87,1.26-1,2.11.46,3.92l1.18,1.46c.49.6,1.05,1.27,1.64,1.75,3.33,2.7.87,1.38,2.9,2.86,1.32.95,2.26,2.26,3.17,3.73.85,1.37.95.41,1.62,1.45.91,1.44,2,1.37,3.38,2.9.65.71.86,1.83,1.86,2.12.6.17,1.02.47,1.47.83l1.61,1.3c.25.2.7.58.82.82,1.04,2.09,1.07.48,3.69,2.63,3.09,2.54,5.61.51,6.74,4.07l.54.08.4-.32.29-.19.22.47.18.4.16.34s.47.36.52.34l1.88-.89c.06-.03.51-.14.58-.14h.66c.29,0,.96.26,1.12.49l.31.43,1.58,1.55c.41.41.62,1.33.78,2.01l.54,2.33c.2.86.44.33,1.52,2.43l1.36,2.64.51.84.86,2.06.98,2.19,1.14,2.57c.47,1.06.91,2.12,1.32,3.19l1.28,3.31,1.22,3.1,1.05,2.39.7,1.58,1.3,2.99.86,1.99,1.96,4.34,1.45,3.09.67,1.66c.09.21.24.52.37.74.44.74.77,1.47,1.17,2.26l1.3,2.62,1.29,3.08.89,2.01c.52,1.16,1.22,2.35,1.83,3.52l1.28,2.45c.28.53.58,1.2.87,1.68l1.29,2.17c1.79,3.02-.08,1.55,1.58,3.22,1.45,1.45,1.2,1.93,3.03,4.13.43.51.68,1.02.96,1.67.21.5,1.1,1.23,1.37,1.67l1.38,2.36,1.49,2.54c1.06,1.8-.17,1.11.9,2.08.47.42.85,1,1.2,1.79l1.06,2.35.68,1.39c.17.34.36,1,.55,1.48.11.29.57.87.72,1.14l.92,1.72,1.42,2.59,1.7,2.87,1.35,2.37,1.53,2.78.72,1.23c.74,1.26,1.49,2.47,2.34,3.67.23.33.68.83.83,1.13l.55,1.16,1.52,3.07c.53,1.07,1.13,2.05,1.76,3.1,1.08,1.81-.29.05,1.15,2.25l.81,1.24c.46.7.87,1.44,1.26,2.19l1.35,2.62c.05.11.26.43.32.53,1.08,1.88-.53-.36,1.37,2.59l3.26,5.06,1.23,1.88,2.61,3.99.8,1.21c.61.92-.17,1.12.56,1.95.63.72,1,.72,1.59,1.83l1.01,1.91,1.81,3.33,1.14,1.98,1.2,2.22.71,1.3.74,1.28c.93,1.61,1.52,3.16,2.49,4.65l1.02,1.57,1.13,1.75c1.52,2.36.67,1.37,1.95,3.4l1,1.58c.22.35.6.89.78,1.22l2.11,3.93c.28.53.63,1.12.85,1.67l.56,1.39c.02.05.34.25.37.29l.34.5,1.45,2.03c.4.55.64,1.62,1.18,2.16.63.63,2.21,2.72,2.33,3.08l.55,1.56s3.17,4.42,3.32,4.58l1.02,1.07c.49.52.93,1.13,1.35,1.78l1.56,2.41c.1.15.42.41.51.5,1.02.98.21.48,1.01,1.4l2.3,2.64c.49.57,1.42,1.61,2.2,2.01l.37.19.38.19s.27.24.28.29l.12.52c.35,1.46,1.49,1.03,1.28,1.69-.05.16-.27.52-.41.61l-.38.25-.33.22c-.06.04-.2.2-.29.29l-.29.29s-.27.11-.39.16l-.42.18-.41.17-.4.17c-1.87-.99-1.35-.08-2.84.01-2.69.16-5.35.59-7.99,1.4l-1.58.48c-2.16.66-2.71,1.21-3.92,1.42l-1.28.23c-.35.06-1.04.46-1.39.56l-5.56,1.57c-1.34.38-2.59.79-3.94,1.2l-3.59,1.08c-1.06.32-2.11.8-3.19,1.03-.41.09-.89.17-1.14.27l-3.52,1.31c-1.45.54-2.77,1.14-4.18,1.83-1.13.55-2.55.79-3.53,1.59-1.38,1.13-.92.34-2.01.92l-1.49.79c-.77.41-1.58.62-2.4,1.08l-1.92,1.09-2.5.99-2.5,1.18-1.03.43c-.5.21-1.12.49-1.55.72l-2.41,1.33-4.7,2.44-1.48.8c-.95.51-1.85,1.02-2.87,1.39-.52.19-1.17.45-1.5.72-2.19,1.82-1.08.2-4.11,1.97-.6.35-1.48.83-2.02.98-.26.07-.98-.24-1.12-.03l-.61.94s-.35.15-.42.19l-1.99,1.18c-.45.27-1.48.62-2,.85-.89.39-.21.53-1.77,1.34l-1.51.79-1.51.79c-.79.41-1.77.75-2.64,1.07l-1.71.61-.9.43-3.14,1.15-2.16.75c-1.81.63-.63.05-2.4.69l-2.31.83c-.39.14-.92.28-1.36.41l-1.73.52c-.79.24-1.52.53-2.32.79l-2.42.77-2.01.85-2.38,1.05-4.39,1.93c-2.15.95-2.55,1.66-5.56,2.89-.89.37-1.61.79-2.47,1.24l-2.45,1.26-2.53,1.22c-1.31.63-2.64,1.13-3.89,1.86-1.4.81-2.95,1.25-4.45,1.89l-3.15,1.36-1.67.67c-.25.1-.62.29-.9.44l-.56.29c-.52.27-1.02.53-1.48.8-1.96,1.17-.12.02-1.94.95-1.01.52-2.01,1.06-3.04,1.47l-1.72.68c-2.32.91-1.32-.29-2.89.83-1.91,1.37-2.11,0-3.5,1.06-.46.35-1.02.39-1.8.5-.84.12-1.81.64-2.65.95l-2.51.92-1.71.58-1.48.5c-1.25.42-.05-.27-1.54.49-.3.15-.69.35-.94.44l-3.18,1.14-1.33.5c-.86.32-1.9.93-2.7,1.51-2.43,1.77-1.88-.91-3.25,1.14l-.09-.78-.06-.48c0-.05-.27-.25-.32-.27l-.47-.21.02-.33.39-.28c.05-.04.21-.25.25-.31l.25-.34c1.04-1.39,2.34-2.97,4.23-2.9,1.11.04,2.08-.51,3.11-.77.58-.15,1.46-.23,1.94-.4l1.92-.68,1.7-.6,3.23-1.07,2.94-.91c.25-.08.33-.61.86-.65l.59-.04c.83-.05,1.73-.27,2.58-.5l1.78-.47,3.77-.93,1.83-.45c1.27-.31.37-.94,1.92-1.41l1.84-.55c1.7-.51,3.52-2.46,5.37-2.83.13-.03.49-.06.54-.09l.81-.53,4-1.75,4.24-1.81,3.11-1.41,1.01-.4c.43-.39.88-.74,1.34-.93l1.82-.78c.92-.4,1.89-.8,2.76-1.26l2.41-1.28c.21-.11.85-.21,1.04-.27l1.91-1.36c.26-.18.78-.56,1.04-.65l1.83-.7c.99-.38,1.93-.74,2.87-1.16l1.42-.63,1.76-.74,3.95-1.49,2.95-.83c.65-.18,1.07-.35,1.69-.44,2.94-.44,3.5-1.4,5.59-1.94.4-.1,1.12-.18,1.41-.31,3.64-1.7,1.37-.99,5.42-2.02.32-.08.95-.31,1.19-.45l1.1-.66,1.09-.66c2.1-1.27.73.03,2.14-.91l1.06-.71c.62-.41,1.31-.87,1.91-1.17l1.76-.89,1.22-.69,1.74-.88,2.26-1.19c.46-.24,1-.61,1.43-.81l3.32-1.58,1.76-.8c.79-.36,1.55-.71,2.3-1.13l1.84-1.03,3.11-1.75c1.44-.81,1.2-.49,3.38-1.75,3.56-2.06,5.44-2.18,8.3-3.74,3.4-1.85,1.97-.43,4.68-2.16,2.09-1.34,1.49-.36,3.36-1.71,1.38-.99,1.38-.98,2.82-1.54l2.19-.85,1.95-.69,1.7-.61,2.66-.98,3.78-1.13,2.93-1.11c.59-.23,1.22-.48,1.8-.74,3.04-1.34.71.08,3.29-.9l2.76-1.05,2.01-.84c2.15-.9,2.64-.4,3.67-.93l1.65-.86c.07-.03.36-.16.41-.17l1.46-.24,1.79-.84c4.04-1.91,2.33-.27,5-1.77.27-.15.35-.86-.25-1.4-2.14-1.91-.7-.83-2.21-2.59l-1.74-2.02-1.71-2-1.17-1.41c-.24-.29-.5-.66-.71-.97l-.72-1.05c-.39-.56-.79-1.31-1.13-1.96l-.9-1.71c-1.1-2.07-1.29-1.88-2.7-4.43l-.92-1.66-1.72-2.78-1.03-1.87-.61-1.09-1.43-2.56c-.92-1.65.38.26-.9-1.69-.5-.77-.97-1.53-1.41-2.31l-1.14-2.01-1.12-2.01-.51-.93c-1.38-2.51-.95-1.04-1.77-2.78l-1.19-2.52-.83-1.7c-.11-.23-.32-.59-.43-.76l-1.89-3.02c-1.11-1.77-.51-2.07-3.02-5.47l-.76-1.03c-.3-.41-.65-1.06-.93-1.59l-1.19-2.22-.9-1.68-.52-1.17-.99-1.33c-.24-.32-.63-.85-.8-1.13l-1.52-2.52c-1.69-2.8-1.73-2.37-3.37-5.53-.64-1.22-1.47-2.24-2.31-3.41-.41-.57-.73-1.66-1.08-2.31l-1.4-2.64-1.32-2.39-1.15-2.01c-.54-.95-.96-1.85-1.43-2.86.11.25-4.55-7.65-4.22-7.17l-.91-1.32-1.01-1.87-.92-1.64c-1.22-2.17-2.75-3.84-3.26-4.98l-1.08-2.43c-.16-.37-.38-.77-.58-1.14l-1.49-2.8-1.37-2.63-1.57-3.29c-.29-.6-.65-1.23-.97-1.8l-1.66-2.94-1.26-2.16c-.3-.52-.62-1.17-.95-1.63l-1.95-2.69c-.81-1.12-1.46-2.6-2.31-3.67l-.89-1.1-1.58-2.97-1.07-1.79c-.25-.42-.49-1.07-.74-1.55l-.95-1.9-1.16-2.25-1.46-2.87c-.31-.61-.57-1.66-.91-2.22-2.11-3.47-.68-2.26-2.34-4.78-.28-.42-.57-.86-.74-1.27l-1.24-2.83-1.04-2.09c-.58-1.15-1.1-2.3-1.59-3.49l-1.16-2.8-1.41-3.15-.61-1.43-1.56-3.31c-.62-1.33-.92-2.86-1.5-4.24l-.95-2.27c-.3-.72-.5-1.41-.84-2.13l-.93-1.95-.83-1.77-1.08-2.31c-.27-.58-.53-1.23-.82-1.76l-.81-1.48c-.46-.84-.93-1.73-1.51-2.47l-1.15-1.45-1-1.32c-1.45-1.91-.04-1.69-4.1-2.01-.5-.04-1.49.05-2.05-.08-.83-.19-.35-1.62-.75-1.93l-1.94-1.47c-.52-.39-1.07-1.18-1.63-1.78-1.04-1.12-3.05-.39-4.04-1.24l-1.44-1.24-1.79-.79c-.5-.22-2.73-2.98-3.74-3.62-1.16-.73-2.17-1.4-2.94-2.5-1.94-2.73-2.22-1.55-5.26-5.62-.7-.94-.2-1.67-.73-2.12-2.08-1.76-.46-.03-2.76-1.78-1.99-1.52-.59-.01-2.07-1.33l-1.53-1.36-1.56-1.33c-1.44-1.23-1.89-1.94-2.89-3.37l-1.42-2.04-1.19-1.63-.71-.98c-.2-.22-.43-.48-.31-.34l.53-.36,1.21-.79c.11-.07.28-.16.35-.22l.32-.26s.1-.43.09-.49l-.13-.54c-1.33-.96-2.76-2.65-3.56-3.95-.05-.08-.43-.43-.48-.42l-4.08.61-1.79.27c-.99.15-1.48-.85-2.96.16l-.96.06c-.29.02-.91-.06-1.18-.2l-1.43-.72c-.57-.29-.69.42-2.75.89-1.78.41-.31-.4-2.08.12l-2.48.74-1.78.52c-2.69.78-3.78.68-5.32,2.04l-1.18.27c-1.6,1.56-4.79,1.11-5.05,1.23l-2.18.93-2.63,1.13c-2.6,1.11-.96.16-2.93.98l-3.45,1.43-2.27.94c-.52.22-1.36.86-1.85,1.23-.09.07-2.34.77-2.89.85-4.52.71-1.64.73-4.5,1.82-4.09,1.56-2.43.06-5.83,1.6-1.33.6-.9-.2-1.45.23l-.79.61c-.21.17-.35-.15-1.05.18-3.02,1.43-1.69.54-4.26,1.67-.47.21-.92.39-1.44.57-4.07,1.42-2.05,1.48-4.64,1.97-.56.11-1.14.48-1.68.83l-1.27.43c-.28.48-.83,1.24-1.31,1.23h-1.8c-.32,0-.84.72-1,.97-1.05.18-2.27.47-3.38.83l-1.75.38-1.86.39c-.47.1-1.03.27-1.53.5-.29.13-1.03.1-1.35.17-1.68.37-3.48.81-5.16,1.33-.57.18-1.29,1.27-2.1.77-.37-.23-1.29-.21-1.65-.1l-2.25.65c-3.17.91.43.15-2.7,1.09l-3.06.91-1.74.52c-.71.21-1.49.41-2.27.59l-4.87,1.09c-.38.08-.91.64-1.19.92-.3.3-1.35-.08-1.76.03l-3.88,1.09c-.24.25-.75.87-1.09.92-.96.13-2.52.49-3.47.73l-5.07,1.26c-.38.09-1.17.52-1.55.57-1.05.15-2.66.04-3.8.06-.55,0-1.58.34-2.2.48l-2.41.55c-.49.11-1.26.44-1.8.66l-2.07.82-1.02.41c-.82.32-.46,1.71-1.31,1.45l-.55-.17c-.1-.03-.57-.07-.66-.03l-3.06,1.34c-2.63,1.15-1.2.11-3.4,1.22-2.3,1.16-2.13-.25-2.83,1.59h-2.52c-.39,0-1.1.23-1.56.37l-2.43.74c-.47.14-1.7-.05-2.17.14l-1.84.73-1.04.59-1.27.42-2.05.63c-.45.14-1.18.41-1.62.63l-2.14,1.03c-.38.18-.95.97-1.35,1.1-3.52,1.14-5.02,2.17-7.63,2.96l-1.76.53-2.72,1.03-2.73,1.73-5.08,2.11c-.35,1.5-2.75,1.43-2.44,2.58l.64,2.35c.1.36.27.74.54,1.12.67.93.86,2.22,1.29,3.26l1.17,2.81.58,1.45c.73,1.83,1.45,1.15.88,2.92l1.19,2.15c.27.49.9,1.24.92,1.7.01.43.03,1.11.18,1.37l1.53,2.55c2.03,3.38,1.59,1.55,2.67,4.88.18.56.82,1.51,1.15,2.12,1.38,2.52.47,1.16,1.82,3.61,1.69,3.08,1.48,3.75,2.3,5.1l1.44,2.37,1.83,3c1.42,2.33,1.81,2,2.22,4.39l1.38,1.6c.41.94.82,1.63,1.33,2.5s.9,1.95,1.36,2.88l1.81,3.63c.49.99.9,2.15,1.32,3.23.36.93.82,1.56,1.37,2.37.67.98,1.33,2.15,1.92,3.21.27.49.43,1.66.79,2.12,2.31,2.96,1.78,3.82,2.21,4.42l1.27,1.77.96,1.35,1.15,1.7,1.16,1.75c1.06,1.61-.03.57,1.84,3.52l1.01,1.59,1.01,1.57,1.71,3.12,1.57,2.44c.59.92,1,2.13,1.57,2.97,2.09,3.09,1.5,2.49,3.28,5.54.12.2.52.64.61.85l.74,1.79c.26.62.57,1.1.96,1.67.49.71.84,1.72,1.25,2.47l1,1.83.73,1.3,1.08,1.68,2.1,3.96.83,1.5c.29.52.66,1.07.99,1.57.7,1.04,1.13,2.05,1.77,3.13l1.36,2.26c.16.27.29,1.08.48,1.34.77,1.07,1.36,2.52,1.97,3.7l1.56,3,.91,2.03c.81,1.81,1.47,1.93,2.36,4.08.79,1.92.94,2.93,1.52,3.88l1.77,2.88.9,1.94,1.02,1.8,1.62,2.97,1.57,2.74c1.16,2.03-.3.47,1.35,2.61.51.66.95,1.36,1.37,2.07l1.19,1.97,1.63,2.69c.21.35.86.99,1.03,1.39.35.83.67,1.4,1.13,2.05l1.44,2.03c1.56,2.2,1.18,2.43,2.36,3.89.44.55,1.01,1.25,1.3,1.79l1.11,2.05,1.29,2.48c.77,1.49,1.43,2.86,2.32,4.31l.92,1.5c.47,1.46,1.19,2.57,1.84,3.9l1.13,2.31,1.05,1.85,1.7,2.88c.6,1.02,1.07,1.99,1.4,3.17.28,1,.88,1.89,1.39,2.82.23.42.49,1.22.72,1.57.46.7.88,1.26,1.23,1.95l.97,1.93c.3.59.66,1.62.99,2.08,1.27,1.76,2.37,3.28,3.55,5.1s-.41.62,1.72,3.14,1.08,2.5,2.22,3.17c2.03,1.19.98,1.51,2.88,3.68l1.43,1.64,2.49,2.15.9.73c.21.17-.09.78-.38,1.18.14,1.42-.02,1.7.64,2.62l.94,1.32c.04.06.29.33.35.36,1.63.95.53,1.75,1.53,2.67,3.18,2.92.66,1.57,3.32,3.53,1.36,1.98.13,1.14,2,2.85.16.15.79.34.99.24l1.72-.9c.35-.18,1.39-.15,1.83-.16,1.14-.03-.22-.92,2.5-1.17l1.36-.13c.62-.06,1.33-.1,1.89,0l1.35.23c2.7.46,1.56,0,5.17.02,2.68.02,2.19-.93,5.26.87,1.12.65,2.36,1.34,3.33,2.06.19.14.57.66.78.74l1.65.63c.47.18,1.47.27,2.11.39l2.34.44c1.6.3,1.78-.22,4.18,1.36l2.24,1.47.37.25c.44.3.88.75.79,1.12l-.17.65c-.15.58-.62,1.16-1.23,1.24l-2.11.3c-1.69.24-.99.04-2.79-1.25l-1.39-1c-.98-.71-2.66-.58-4.88-1.35l-1.92-.67-1.02-.36c-.11-.04-.44-.02-.75,0-1.13.11-1.84-1.84-3.05-2.34-2.49-1.02-3.14-1.19-5.96-.85-3.08.37-3.31.34-6.2-.31-.91-.21-2.2.34-3.16.6-1.2.33-2.12.78-2.78,1.85l-.8-.04c-.16,0-.59.08-.74.14l-2.37.84-.42.15c-.08.03-.41.09-.49.09l-.55.05-.47.04-.34.03-.33.02-.4.03c-.4.03-.9.22-1.28.47l-.32.21c-.44.29-.32.19-.57.58l-.22.35c-.43.68-.55.16-1.96,1.14l-1.38.96c-1.39.96-2.79,1.77-4.21,2.65l-2.84,1.75c-.35.22-.91.42-1.34.61l-2.54,1.09-3.31,1.39c-.22.09-.55.17-.85.23-1.31.26-.96.47-2.63,1.72-.35.26-.9,1.05-1.3,1.13l-2.06.39c-.46.09-.99.6-1.15,1.16-.13.47.04,1.14.33,1.36l2.02,1.54c.35.27,1.26.64,1.71.58l2.11-.25c1.07-.13,2.1.73,5.13.84.55.02,1.22-.02,1.76.04l2.76.31,1.9-.36c3.1.68,2.53-.2,4.11-.23h.68s2.14-.12,2.14-.12c.88-.04,1.73-.12,2.57-.23l1.77-.24c.67-.09,1.47-.15,2.07-.29,2.13-.48,2.39-.32,3.25-.68,2.61-1.08,3.14-1.37,5.75-.91l1.68.3c2.1.37,2.09-1.35,4.18-.15.32.19.87.49,1.07.69l1.54,1.54c.51.51.08.56.83,1.23l.47.42c.69.61,1.51,1.18,2.35,1.62l2.02,1.05c.11.06.47.21.56.25.08.04.04.13-.02.21-.27.35-.47.34-.1,1.13.96,2.11.8.09,2.27,4.33l.8,2.32c1.68,2.26,2.47,4.54,3.09,7.27l.43,1.89c.45,1.99.79-.68,1.51,3.87.07.43.69,1.22.84,1.63l.63,1.75-.22.22-.3-.31-.31-.24-.33-.26-.32-.25c-.33-.26-.28-.32-.71-.43l-.52-.13s0-.35,0-.39l.43-.23.4-.21v-.39c-.68-.35-.37-.13-.7-.54l-.27-.33c-.75-.91-1.03-.27-.84-1.08l.11-.47c.2-.81-.31-1.34-.44-1.82l-.13-.45-.13-.47-.13-.43-.13-.42c-.14-.42-.18-.42-.18-.93v-.61c0-.22,0-.42-.01-.6l-.05-.46s-.36-.06-.5-.09l-.47-.1c-.5-.11.02-.38-1.43-.86l-.43-.14s-.21-.27-.22-.33l-.11-.49c-.17-.76.08-.16-.33-.82l-.21-.34-.22-.36c-.18-.3-.28-.95-.29-1.4l-.02-.58v-.55c-.01-.05-.16-.33-.2-.36l-.31-.3c-.07-.07-.26-.26-.27-.31l-.06-.48-.06-.54c-.06-.51-.27-.44-.57-.56l-.42-.18c-.06-.03-.29-.13-.35-.17l-.38-.25s-.24-.17-.28-.22l-.31-.28c-.55-.5-.1-.14-.62-.5l-.35-.25c-.11-.08-.3-.19-.34-.24l-.23-.34-.23-.34c-.24-.36-.15-.34-.55-.57l-.38-.22-.37-.21-.35-.21c-.5-.29-.15-.17-.74-.36l-.46-.15c-1.31-.42-.91-.61-1.42-.87l-.37-.19-.38-.19-.38-.2c-.35-.18-.43-.28-.76-.26l-.37.02c-.29.01-.27-.04-.61-.29l-.33-.24c-.38-.27-.33-.3-.74-.38l-.51-.1c-.16-.03-.39-.06-.46-.09l-.38-.19-.37-.2-.46-.13-.46-.13-.43-.12c-.13-.04-.31-.12-.37-.11l-.34.04-.47.07c-.79.12-.4,0-.89.28l-.37.21c-.06.04-.3.06-.46.09l-.54.11-.4.11c-.17.05-.49.33-.79.34h-.53c-1.4.05-2.67.09-4.05.24l-2.71.28c-.06,0-.42-.05-.48-.06-1.59-.35-1.53.21-3.86.36l-2.77.17c-3,.18-1.63.82-3.22.8l-6.95-.06c-1.11,0-4.86-1.09-5.58-1.04l-1.83.12c-2.07.13-4.56-1.45-6.25-2.75-1.8-1.39-.73-5.03,1.63-6.84.18-.14.58-.74.77-.82l2.14-.93c2.66-1.15.6.13,3.94-1.5,2.25-1.1.82-.3,2.98-1.29l6.27-2.87c1.17-.54,3.03-1.71,4.04-2.5,2.06-1.62-.19.39,2.89-1.69l1.9-1.28c.65-.44,1.25-.84,1.91-1.22l.93-.53c.35-.2,1.24-.39,1.63-.59l1.95-.96c.22-.11.83-.43.75-.67-.31-.87-1.29-1.61-2.08-1.93l-.92-1.13-1.45-1.68-1.38-1.56c-.14-.16-.24-.27-.3-.33l-.31-.31c-.31-.49-.64-1.07-.92-1.42l-1.42-1.76c-1.55-1.92-1.73-2.36-2.86-4.31.13.22-1.3-2.04-1.18-1.92-2.81-3-.49-2.4-2.34-3.15-.25-.1-.61-.57-.78-.85l-1.31-2.14c-1.51-2.46-.75-.69-2.14-3.56-.25-.51-.52-1.01-.83-1.46-2.65-3.74-.63-1.15-2.03-3.93l-.97-1.91c-.12-.24-.59-.74-.79-.95-.66-.69-.06-1.01-.33-1.45l-1.04-1.71-.9-1.41-1.47-2.3c-1.24-1.94.2-.44-1.59-3.22-.55-.86-.9-1.74-1.34-2.68l-.82-1.74c-.4-.86-.78-1.66-1.16-2.54l-.94-2.22c-.12-.28-.44-.75-.67-.99-1.66-1.76-.51-.43-1.82-3.06-.39-.77-.72-1.72-1.04-2.49-.23-.56-.98-1.42-1.27-2l-.88-1.72-.88-1.72-.82-1.42-1.47-2.56c-.28-.49-.68-1.07-1.02-1.52l-1.16-1.49c-.3-.39-.67-1.08-.97-1.57l-1.19-1.95-.82-1.45-1.48-2.21-2.02-3.12c-.88-1.36-1.7-2.69-2.5-4.09-.97-1.71-2.53-3.68-2.81-4.62l-.6-1.98c-.83-.59-1.35-1.33-1.73-2.3-1.44-1.88-.54-1.48-1.98-3.7-1.64-2.53-1.03-1.98-2.42-4.73l-.97-1.92-1.65-3.14c-.27-.52-.45-1.22-.7-1.89-.18-.5-.71-1.06-.98-1.55l-2.11-3.92-2-3.71-1.07-2.01-1.49-2.83-1.51-2.86-1.52-2.85c-.29-.55-1-1.35-1.27-1.98-.84-1.98-1.45-2.56-2.67-4.82l-1.71-3.15-.91-1.66-.82-1.47-1.87-3.27-2.25-4.06-1.58-3.3c-.19-.39-.77-1.06-1.01-1.46l-.98-1.62-.65-1.11-.85-1.48c-.82-1.43-1.35-1.09-2.22-3.71-.2-.61-.47-.92-.91-1.42-.97-1.1-1.56-2.63-2.35-3.91-1.38-2.22-2.76-4.33-3.84-6.71-.27-.61-.54-1.17-.83-1.73l-2.94-5.64c-.65-1.24-1.4-2.44-1.96-3.71-1.65-3.73-1.04-2.66-3.18-6.28-.2-.34-.44-.97-.64-1.35l-.7-1.33-1-1.85c-.39-.72-1.21-1.46-1.41-2.22-.72-2.8-1.64-.8-2.04-3.2-.05-.31-.39-.74-.64-1.07-1.02-1.37-1.92-3.82-2.69-5.3-1.36-2.63-.58-2.01-2.08-4.44l-1-1.61-.99-1.58-1.5-2.51-1.61-2.72c-.65-1.1-1.31-2.5-1.69-3.64-.12-.35-.63-.94-.78-1.23l-.9-1.67-.96-1.88-1.13-2.36c-.38-.79-.71-1.56-1.02-2.41-1.39-3.86.04-.37-1.71-3.39-1.3-2.24-2.41-2.48-2.86-3.95l-.54-1.77c-.13-.43-.32-1.32-.42-1.8.47-.84,1.09-1.57,1.79-2.29,1.44-1.46.96.2,2.44-1.52.21-.24.73-.46,1.09-.68l2.38-1.44c.79-.08,1.55-.16,2.21-.41l3.6-1.36,1.76-.71,2.9-1.14,1.64-.64,2.27-.86,1.45-.32c.58-.27,1.21-.57,1.78-.76l1.29-.42c1.67-.55,4.56-1.69,6.16-2.42.74-.34,1.49-.63,2.29-.87l2.21-.66,2.36-.8c1.69-.58,3.33-1.07,5.08-1.49l1.34-.32c.82-.2,1.6-.45,2.42-.69l1.14-.34,2.51-.91c.93-.34,2.23-.51,3.1-.91l2.37-1.09,1.56-.71c.2-.09.61.24,1.13.58.68-.08-.25-.82.73-1.25.43-.19,1.31-.67,1.72-.8l2.83-.91,2.19-.69,5.37-1.2c.63-.14,1.29-.58,1.9-.71,3.4-.77,2.47-.27,5.91-1.16l1.2-.31,3.73-.85c.85-.19,1.65-.53,2.54-.82.63-.21,2.1-.35,3.96-.87l3.37-.93,1.78-.49,2.66-.8c3.23-.97.89.02,4.42-1.28,1.71-.63,3.47-1.16,5.26-1.59l3.05-.74c1.7-.41,3.25-.83,4.95-1.15.6-.11,1.38-.29,2.02-.46l3.38-.89,2.02-.55c2.66-.72.75-.32,3.46-1.36.83-.32,1.65-.63,2.43-1l1.35-.63,3.4-1.52c.57-.26,1.27-.45,1.92-.7.95-.36,2-1.13,2.99-1.43,1.09-.33,2.12-.58,3.1-.96,1.56-.61,3.06-1.38,4.64-1.87l2.86-.89,1.5-.49,1.91-.66,5.24-1.89,1.7-.61,1.67-.6c.28-.1.89-.23,1.1-.36.3-.18.94-.65,1.25-.74l2.04-.61c.65-.2,1.55-.58,2.16-.89l1.92-.97,1.92-.95c.47-.23,1.23-.38,1.72-.57,1.49-.58,2.88-1.11,4.41-1.55,1.42-.4,2.86-.86,4.12-1.56l1.7-.95c2.81-1.57.69-.13,3.44-1.61l1.95-1.05c.39-.21,1.32-.09,1.79-.3l2.87-1.28c.74-.33,2.2-.08,3.31-.14,1.3-.07.95,2.08,1.47,1.98,1.61-.32,2.23-.36,4.11-.18l2.33.22,2.2.13c.52.03,1.4-.97,1.91-1.13.68-.21,1.64-.41,2.23-.65l1.8-.75c.06-1.16,1.31-2.16,1.93-1.92l2.09.81c.4.15,1.01.76,1.4.72.33-.03,1-.37,1.29-.6l1.62-1.3c1.51-1.2,2.11-1.29,4.02-1.7l1.57-.34c.93-.2,1.77-.46,2.66-.76l2.21-.75,2.08-.78,2.77-1.19c.27-.12,1.1-.17,1.27-.41,2.17-2.85.61-.35,2.92-3.11,1.29-1.54,3.25-2.68,2.51-3.53-.36-.42-.83-.92-1.12-1.21-4.43-1.08-2.71-.11-5.64.16l-2.6.23-2.5.23c-3.86.35-.58-.21-4.19,0-.52.03-1.35-.57-1.86-1.02-.99.75-2.34,1.63-3.6,1.05-1.46-.67-3.21-2.73-1.96-4.84l.88-1.47c-.31-.5-.74-1.19-.89-1.68l-.61-2.04c-.18-.61-.39-1.41-.59-1.97-.55-1.51-1.18-2.76-.94-4.42-.25-.28-.73-.81-.99-.97l-1.3-.79c-.93-.57-1.56-1.49-2.19-2.37l-1.06-1.48c-.34-.47-.61-.78-1.15-1.26l-.45-1.73c-.29-1.12-1-.43-1.51-1.39l-1.33-2.54c-.54-.39-1.62-.78-1.93-1.22l-.83-1.18.14-1.39-3.36-1.26c-.91-.34-2.25.02-3.21.01-.73,0-1.62-.14-2.19.14l-1.8.86-2.38,1.07c-.64.29-1.34.6-1.92.91l-1.49.82-1.79,1.06c-1.07.17-2.65.31-3.83.06l-3.55-.74c-1.55,1.06-3.52,1.43-5.25,1.75l-1.74.32-1.67.35c-2.04-.53-1.28.81-3.84.23l-1.64.51c-.56.17-1.49.57-1.91.83l-1.47,1.77c-.17.2-.48.64-.35.82l.52.67c-.25.27-.92,1.06-1.35,1.31l-2.9,1.71c-2.25,1.33-1.28-.32-2.97,1.53-2.22-.39-3.42,1.41-5.34,2-1.04.32-1.8.65-2.76,1l-1.75.64c-3.87,1.42-1.28-.23-6.66.91-3.65.78-1.34.91-5.68,1.77-2.9.57-2.19-.13-4.3.48l-1.76.51-3.74.98-2.25.78c-1.02.35-2.05.47-3.03.79-1.8.59-3.24.98-5.07.76l-1.4.49c-1.94.68-3.05,1.47-4.97,1.76l-2.31.35c-1.23.19-2.62.6-3.8,1.04l-2.28.84-1.49.32c-.8.17-1.86.83-2.63.94l-1.87.26c-.49.07-1.18.33-1.72.49l-1.93.6c-.73.22-1.59.33-2.23.63l-3.69,1.79c-.71.34-1.62.67-2.43.99l-1.48.34c-1.83.42-5.32.84-6.64,1.31l-2.66.96-2.49.76c-.56.17-1.14.39-1.71.52l-3.52.77c2.18-.48-5.93,1.5-2.81.61l-4.41,1.26c-4.23,1.21-1.41,1.18-6.9,2.55l-3.91.98c-.56.14-1.33.23-1.93.31l-2.01.26c-.83.11-1.69.21-2.48.39l-5.33,1.26-2.31.56-2.04.76-3.58,1.02-1.58.44c-1.46.41-2.95.71-4.46.99l-2.2.41c-.63.12-1.45.48-2.09.64-1.33.32-2.51.5-3.95.73s-.45.44-3.42,1.35c-.94.29-2.06.49-2.81.91-2.29,1.3-.85.06-3.85,1.03l-1.75.57-1.78.58c-.64.21-1.26.36-2.01.52-1.05.22-2.4.92-3.42.98l-4,.24c-.39.02-1.12-.05-1.51.03-2,.39-3.87.67-5.77,1.19-1.69.46-3.23,1.09-4.98,1.3l-2.05.24c-1.26.15-4.24.76-4.75,2.13l-1.54.15c-.7.29-1.51,1.03-2.09,1.58-1.54,1.48-2.48,1.44-4.65,2.18-1.42.48-2.83.95-4.17,1.58l-1.58.73c-3.83,1.78-1.15.67-4.22,2.35l-1.86,1.02c-1.71.94-2.7.28-3.79,1.82l-1.67,2.36-1.78-.66.66-2.17c.1-.33.82-.95,1.02-1.28,1.39-2.29,2.29-.47,2.62-1.43.78-2.29,2.67.6,4.61-2.78.9-.45,2.33-.85,3.14-1.36,1.2-.75,2.37-1.29,3.68-1.54.36-.07,1.03-.43,1.36-.53,2.51-.79,4.39-1.25,6.02-3.19l1.21-1.45c.3-.36,1.07-.72,1.6-.86l2-.52,2.81-.72c4.18-1.07,4.15-.64,6.26-1.09,2.32-.49,4.8-1.65,6.18-1.62,1.15.03,1.89-.25,3.04-.33l4.57-.31c1.05-.07,2.18-1.02,3.19-.89.75.09,1.06.08,1.68-.23l1.78-.24,2.45-.66c2.64-.71.26-.76,4.22-1.73.63-.16,1.24-.3,1.78-.49l2.58-.89,3-1.03,1.4.33,3.53-1.37c.43-.16,1.5-.17,1.93-.28l1.86-.48,1.71-.28,2.01-.63,3.72-1.16,2.59-.77,3.35-.97c3.23-.94,1.81.37,5.19-1.06l1.73-.31c2.28-1.05,1.33.33,4.06-.51,3.04-.95,3.2-.81,6.01-1.88l2.93-1.11,3.06-1.02c1.89-.63,3.73-1.06,5.68-.5,3.3-2.4,2.94-1.39,5-2.17.75-.28,1.4-.54,2.11-.75l2.43-.74,2.39-.78c2.65-.86.88.15,3.79-.69s1.43-.06,4.8-1.54l4.2-1.84c1.2-.53,2.29-.76,3.58-1.06l3.47-.79c.68-.16,1.55-.51,2.26-.76l1.93-.68c1.04-.37,2.08-.52,3.13-.93l1.76-.69c1.22-.48,2.79-.85,4.03-.88l3.32-.98c.64-.19,1.37-.03,1.96-.3l2.45-1.11,2.76-.15.91-.71c.64-.03,1.03-.09,1.51-.21l2.16-.52c1.37-.33,2.76-.66,4.08-1.09l2.19-.72c.83-.27,1.8-.27,2.66-.47l5.55-1.29c1.19-.28,2.34-.59,3.54-.76l2.33-.32c.45-.06.91-.08,1.26-.2l1.4-.46,2.34-.84,1.52-.69c.31-.14,3.24-1.48,3.16-1.42l.98-.86,4.06-1.47c.96-.35-.59-.71,3.12-3.19.24-.16,1.06-.33,1.27-.57.88-1,2.46-1.94,3.67-2.53,3.39-1.63,2.34,1.54,4.42-.56.45-.45,1.77-.1,2.56-.05.52.03,1.51-.7,2.03-.85,3.55-1,1.41-.03,3.9-1.9,2.9-2.19,4.5.43,6.2-.05l3.63-1.02,1.71-.8,1.58-.49c2.79-.86,1.07-.79,4.25-1.69l2.42-.69c1.48-.42,2.18.42,3.11-.55.31-.32-.71-.48-1.61-1.98l-.97-1.61c-.18-.29-1.04-.55-1.39-.59l-2.57-.3c-.82-.8-1.53-1.97-2.09-3.05-.91-1.74-.7-4.47.38-5.62l1.4-1.5c.58-.62,3.26-1.04,4.78-1.77l3.62-1.75c-.26.13,3.71-.85,4.69-1.15.46-.14,1.49-.74,1.96-.6l4,1.13,1.11-1.17c.99-1.05,2.01-3.58,2.62-4.13l1.55-1.39c.34-.31,1.37-.66,1.87-.66l4.63.08c3.33.06,7,2.67,7.77,2.51.21-.04.42-.43.64-.71.75-.94,1.69-1.72,2.58-2.54l2.39-2.2c.75-.69,1.58-1.26,2.3-1.68h2.86ZM334.04,25.21l1.69-.79c.93-.43,1.87-.84,2.86-1.12l2.26-.64c.52-.15,1.46-.83,1.87-1.22l1.08-1.02c.54-.51.84-2.12.5-2.87-.46-1.02-1.69-1.51-2.47-2.1-.31-.23-.78-1.08-1.13-1.12-.61-.07-1.74-.28-2.27-.28l-6.26-.08-.38,1.72c-.16.75-.71,1.68-1.24,1.95l-1.79-.16c-.38-.04-1.37-.12-1.73.09-.88.51-1.1,2.34-.75,3.23l-.21,2.38c-.03.36.24,1.16.52,1.36.66.47,1.33.13,3.53.59l2.27.47c.34.07,1.27-.23,1.62-.39ZM331.37,31.21l1.19-1.63-1.86-.46c-.36-.09-.89-.29-1.15-.2s-.56.57-.75.98c-.15.32.08,1.07.34,1.28l.89.71c.21-.04,1.12-.37,1.34-.67Z"/>
      <path d="M504.04,329.82v5.43l-.67.79c-.63.74.76,2.25-2.05,6.18l-.84,1.18c-.15.21-.39.68-.48.92l-.74,1.88c-.57,1.44-.91,2.05-1.84,3.26l-1.15,1.48c-.28.37-.73.79-1.12,1.11l-1.89,1.51c-.22.18-.7.74-.93.86-4.03,2.01-2.1,1.44-2.81,2.05l-1.05.89s-.36.15-.45.19c-1.68,2.17-1.9-.34-3.18,2.26l-3.2,1.36c-.35.15-1,.6-1.38.83-1.64.99-.4.58-1.81,1.28-2.68,1.33-.03.52-2.91,2.29l-.37.23-1.63.95-3.01,1.82c-.83.5-1.65,1-2.36,1.59-.13.11-.41.37-.5.42l-1.31.65-.41.2c-.1.05-.33.16-.36.19l-.32.27-.3.26-.31.27-.4.14-.48.12c-.54.13-.37,0-.84.28l-.37.22c-.11.07-.28.16-.33.19l-.43.19c-.96.42-.16,1.1-4.08,3.36-.06.03-.2.19-.27.26l-.34.33c-.98.96-.73.21-1.62.87l-.48.36-.83.62-3.1,2.27c-.07.05-.24.21-.33.28l-1.71,1.44-.31.26-.32.27c-.07.06-.23.18-.31.23l-2.05,1.4c-.37.25-.78.57-1.15.86-2.56,1.98-.84.38-2.56,1.63-.25.18-.53.4-.67.48l-2.02,1.14-1.66.94c-1.3.73-.18.06-1.53.78l-5.22,2.79-.52.3-2.66,1.61-2.66,1.65-1.1.58s-.22.37-.24.42l-2.73,1.48-2.01,1.13-3.05,1.54-1.35.66c-.34.17-.84.39-1.18.51l-2.37.83-2.14.75c-1.68.59-2.47-.23-2.63.62l-.11.57c0,.05-.21.33-.25.35l-1.23.71-.35.22c-.11.07-.21.18-.32.27l-.31.25c-.1.08-.26.22-.33.26l-.36.19-.38.19-.39.2-.34.22-.35.23c-.05.04-.33.18-.39.18l-.54.03-.62.03c-.98.05-.59,1.06-1.47,1.57l-.93.54-.35.2-.36.21-.37.21-.37.21-.37.23-4.13,2.62c-1.25.79-3.36,1.71-4.68,2.23l-2.22.88-2.05.82-1.69.66c-2.8,1.1-2.85.87-5.01,1.77-.66.28-1.53.57-1.96.87l-.87.61c-.05.04-.46.07-.51.1l-.52.31c-1.27.77-2.6,1.17-4.8,2.33-.73.39-1.58.74-2.38,1.05l-2.28.87-4.93,1.34c.86-.24-3.45,1.3-3.12,1.13l-2.52,1.24c-.38.19-.81.54-1.23.82-.65.43-1.78.75-2.49,1.16l-1.65.95c-.75.43-2.55,1.34-3.23,1.56l-1.31.42-2.26.72c-.37.12-1.1.49-1.58.68-1.08.42-.33-.27-1.74.22-1.49.52-.29-.15-1.22.21l-.39.15c-.08.03-.28.07-.44.11l-1.62.44-2.2.64c-.18.13-.64.5-.83.58l-1.22.51-1.43.6-.83.35c-.25.1-.67.25-.89.27l-.43.05c-.06,0-.33.15-.4.18-1.46.72-.23.63-3.47,1.95-.96.39-1.81.8-2.75,1.23l-1.43.67c-.76.36-1.52.56-2.36.79l-2.18.58-3.41.91c-.5.13-1.51.17-2.05.19l-1.72.06c-2.23.07-.53-.88-2.66-.04-.33.13-1.04,0-1.51-.03l-1.98-.13c-2.11-.14-1.28-.43-3.34-.18l-2.07.25c-.23.03-.75.28-.96.39l-1.38.7c-.93.47-4.02,1.63-5.05,1.71l-1.41.11c-.32.03-.96.48-1.29.7l-1.67,1.15c-.54.37-.79,1.27-.79,1.75v.66c0,.65-.27,1.5-.57,2.16l-1.09,2.42c-.85,1.9-.28-.82-2.04,3.38-.19.45-.46.97-.7,1.24l-1.65,1.87c-1.72,1.95-.13.75-1.7,2.26-1.48,1.43-.33.42-1.39,1.5-2.02,2.05.21,2.4.2,4.3l-.02,2.44.47,1.67c.63,2.25.89,1.85.9,2.94.02,1.4.72,2.18.42,5.39l-1.11,1.25c-.22.24-.96.5-1.3.63l-1.73.64c-4.06,1.52-3.76-.31-4.43.21l-.4.32-.32.25c-.31.24-.39.32-.72.39l-.51.11-.48.1c-.15.03-.4.09-.46.09h-.45c-.06,0-.52-.13-.57-.13l-5.42.76c-.07.01-.52-.04-.58-.06l-.46-.12c-.13-.03-.37-.09-.43-.09l-.59-.04-.58-.04-.48-.08-1.09-.18c-.24-.04-.18,1.18-.04,1.48,1.08,2.4-.05,2.2.2,2.82.14.35.7,1.16.73,1.55l.2,2.93c.04.62.15,1.23.25,1.78l.7,3.91.77,3.47.28,2.34.25,2.94c.05.54-.22,1.51-.43,2.04l-1.02,2.53c-.18.44-.74,1.07-1.15,1.37-2.17,1.62-.83,1.46-4.53,2.11-1.26.22-2.54.19-3.79-.02l-2.02-.35-1.5-.3c-.83-.17-1.99-1.01-2.57-1.63-1.4-1.52-1.85.07-3.01-1.21l-1.74-1.93c-.78-.86-.97.1-2.48-2.1-.11-.16-.59.34-.64.54-.01.05.15.39.14.45l-.11,1.03-.06.56c-.64,6.04-1.45,4.22-1.7,5.51l-.41,2.09c-.11.58-.26,1.58-.55,1.98-1.3,1.78-3.26,1.12-4.28,1.62-.36.17-.26-.05-.72.03l-.93.16c-2.66.47-3.13-2.23-4.57-1.53-.65.32-1.22.87-1.49,1.42-2.45,4.94-.7,1.02-2.9,4.28l-1.11,1.64c-.37.54-2.03.68-2.6,1.16l-.98.83c-.42.36-1.87.39-2.24-.03-.3-.33-.81-.78-1.07-.66l-.52.24-.4.18-.29.13-1.74-1.72c-.44-.43-1.04-.88-1.51-1.3l-1.54-1.35-.3-.28c-.55-.5-1.13-.93-1.77-1.36l-2.38-1.59c-.77-.52-1.72-1.04-2.4-1.59l-3.03-2.46c-.66-.54-1.35-1.34-1.93-2.03-1.17-1.4-.04-.77-1.17-1.66-2.28-1.79-1.2-1.88-2.68-3.29l-2.81-2.67c-.23-.22-.49-.48-.73-.69l-1.07-.95c-1.3-1.16-1.97-2.43-3-2.75-1.12-.35-1.87-.07-2.95.47l-1.45.73c-.77.39-1.86.35-2.89.1-1.34-.32-.26.04-2.69.31-1.27.14-2.55.24-3.79-.03-2.67-.59-.25.04-1.74.09l-1.9.07c-3.69.14-5.99.35-8.72-1.96l-.47-.39-1.03-.52s-.24-.2-.32-.27l-.31-.28c-.08-.07-.25-.21-.29-.26l-.26-.33-.25-.31-.26-.33c-.04-.06-.09-.29-.14-.42l-.15-.43-.14-.43-.15-.43-.14-.42-.14-.43c-.19-.58-.13-.61,0-.97l.64-1.9c.21-.64.41-1.3.66-1.87l.98-2.25c.17-.39.76-1.04,1.06-1.41l.92-1.15c.09-.11.31-.39.23-.46l-.38-.38s-.29,0-.45.02l-1.71.23s-.94-.09-1.19-.02l-.48.12c-.58.15-.3.18-.82.05l-.47-.12c-1.52-.38-1.18.44-3.8-.48-.73-.26-2.04-.89-2.62-.78l-.76.14c-.3.05-1.01-.43-1.29-.62-.75-.51-.08-1.73-.01-1.93l.78-2.13.92-2.52c.31-.84.56-1.73.81-2.62.45-1.62,1.05-2.49.06-2.88-.35-.14-1.11-.26-1.66-.39-2.16-.5-2.16.42-3.09.03l-1.61-.67c-1.4-.59-2.23-1.24-2.48-3.2l-.29-2.25c1.32-1.77.49-2.03,2.39-3.84l1.78-1.7,2.63-2.52c.39-.37.68-.73,1.09-1.23.34-.4,1.07-.86,1.53-1.3l3.04-2.88,4.15-3.16c-.19-.2-.61-.62-.78-.72l-1.47-.86c-.72-.42-1.3-1.23-1.65-2.05l-.73-.41c-.82-.46-.97-.66-1.6-1.48l-2.16-2.76-1.09-1.69c-.63-.59-1-1.06-1.52-1.71l-1.26-1.6c-.76-3.59-3.41-4.28-2.83-6.07l-1.74-3.9c-.22-.49-.41-1.18-.57-1.74l-1.16-4.02c-.72-2.5-.12-1.37-.56-2.79l-.89-2.89c-.29-.95-.74-1.53-.21-2.66.77-1.63-1.07-.75-.67-4.03l.32-2.6.3-1.96c.09-.62.2-1.41.11-1.96-.6-3.56.38-1.32-.1-3.62-.12-.57-.19-1.03-.24-1.54l-.1-1.12c.77-2.2-.52-1.75-.4-2.93l.18-1.66c.02-.18-.13-.62-.27-.72l-.39-.28c-.06-.04-.36-.18-.38-.23l-.39-1.06c-.07-.19-.51-.49-.71-.71-1.1-1.24-.65-1.98-1.12-2.61-.37-.49-1.14-1.48-1.57-2.09-.84-1.2-.18-2.1-.58-3.09l-.67-1.64-.75-1.84c-.85-2.07-.21-1.19-1.15-3.32l-1.08-2.43c-.21-.47-.53-1.01-.78-1.49l-1.52-2.95c-.1-.19-.27-.8-.37-.96l-1.39-2.26c-.32-.52-.38-1.84-.76-2.27-1.72-1.95.27-.94-1.17-1.92l-.54-.37s-.26-.36-.28-.41l-.16-.4-.17-.44c-.99-2.52-.11-2.63-1.11-3.89-.45-.56-.8-1.03-1.06-1.56l-.88-1.75c-.95-1.88-.74-.5-.71-1.64,0-.07.14-.58.12-.63l-.96-2.66c-.03-.09-.11-.51-.14-.56l-1.02-1.72-.88-1.71-2.31-4.61c-1.45-2.9.1-1.53-2.16-4.08l-.41-1.03c-.66-.99-1.08-1.9-1.55-3.07-.81-2.02-1.85-2.39-2.92-4.73l-1.99-4.34c-.92-2-2.22-3.28-2.47-4.21-.15-.57-.27-1.07-.42-1.35l-1.29-2.35c-.25-.46-.95-.8-.93-1.48.03-.74-.3-1.33-.73-1.83-1.12-1.28-.11-.6-1.12-2.8-1.81-3.91-3.47-4.78-4.77-9.61l-.61-2.25-.54-.82-.91-1.4-1.13-1.73-.98-1.6-1.59-2.68c-.18-.3-.38-1.19-.59-1.47l-1.65-2.24c-.57-.78.47-1.09-1.2-2.64-.76-.71-1.2-1.86-1.68-2.82l-1.25-2.49-1.54-3.06c-1.61-3.2-.14-1.5-1.54-4.15l.12-1.01-.69-.97c-.32-.45-.72-1.07-.98-1.58l-1.6-3.18-.34-1.48-.96-1.89c-.63-1.23-1.24-2.54-2.17-3.56l-1.21-1.33c-.99-1.09-.44-1.84-2.21-3.52l-.59-.93-.34-.54-.24-.37c-.66-1.35-.41-1.08-1.48-2.33l-.27-.31c-.13-.15-.61-.34-.61-.55v-.54s0-.6,0-.6v-.56c0-.05-.21-.29-.26-.31l-.41-.17-.4-.17s-.22-.29-.24-.34l-.87-2.27c-.47-1.24-.86-2.39-1.21-3.67-.67-2.47-.53-.41-1.31-2.32l-.19-.47-.16-.38-.99-2.15c-.8-1.75-.91-2.59-1.23-4.2-.05-.25-.56-.87-.64-1.11l-.64-1.94c-.08-.25-.44-.78-.64-1.06l-.4-.56c-.96-1.34-.18-.66-1.33-1.94-.47-.51-1.01-1.06-1.29-1.56l-1.35-2.45c-.16-.29-1.7-4.18-1.74-4.37-.89-4.08-.81-2.29-1.76-5.77-.85-3.13-1.04-1.58-1.67-3.18l-.5-1.28c-.13-.34-.36-.8-.52-1.13-.65-1.37.12-.82-.55-2.03l-1.44-2.59-1.46-2.21c-.16-.24-.34-.54-.44-.67l-.78-.98c-.18-.23-.51-.83-.61-1.11l-.49-1.46c-1.03-3.09-.93-2.02-2.12-5.7-.39-1.21-.81-2.34-1.27-3.57.16.41-2.24-3.85-1.81-3.27l-2.7-3.64c-.36-.48-.29-1.29-.06-1.98l-.49-.6c-.53-.65-.08-1.46-1.22-4.13-1.94-4.55-2.08-2.07-3.16-6.93-.22-.98-1.12-4-1.44-4.95-.05-.14.03-.5.02-.65s-.24-.42-.37-.51l-.37-.24c-.1-.07-.3-.2-.35-.25l-1.03-.92s-.08-.44-.09-.51c-.21-4.63-.4-1.66-.6-3.88l-.06-.64c-.01-.17-.04-.39-.05-.46l-.11-.47-.11-.53c-.41-1.91-1.83-1.65-2.08-3.48l-.08-.63c-.06-.44-.35-1.21-.62-1.5l-.75-.84c-1.04-1.16-1.51-2.94-1.54-4.7l-.09-4.73c0-.36-.47-1.16-.53-1.54-.26-1.47-1.36-.77-1.5-3.19-.03-.5-.09-.89-.21-1.3l-.48-1.63c-.31-1.07.15-1.52.2-2.95l.08-1.99c.01-.29.13-.85.23-1.11l.56-1.55c.94-2.6,1.35-1.4,1.97-3.1l.57-1.56c.12-.33.54-.77.9-.98l1.78-1.03c.62-.36,1.6.63,1.41,1.1-.83,2.01-.78-.02-1.98,3.38l-.85,2.38c-.6,1.7-1.65,4.84-1.06,6.44l.56,1.54c.95,2.62,1.92,1.77,1.88,3.18l-.02.66c0,.07,1.59,1.58,1.1,2.32l-.27.4-.28.41.41,2.75c.01.1.07.33.11.47l.12.45.11.46.11.46.12.48c.01.05.12.31.16.41.73,1.63,1.22,3.05,1.84,4.78.39,1.08,1.35,2.81,1.77,3.72-.37-.81.53,3.28.53,3.27l.59,2.65c.09.41.49,1.34.76,1.75l1.26,1.98-.18,1.44.75.44c.09.05.48.44.49.54l.25,2.48c.01.12,0,.6.02.66l1.58,3.37c.16.35.17,1.39.26,1.77l.66.21c.26.08.51.08.52.2l.05.67.18,1.77.06.52.07.56c.09.73-.06.3.28.87l1.49,2.57c.38.66.88,1.38,1.23,2.11l1.12,2.33.45.95.82,1.75.78,1.51.2.39.24.41c.16.28.35.82.3,1.1-.41,2.04,1,1.02,1.28,2.28.08.34.21.98.32,1.22l.99,2.34,1.07,2.67c.26.64.55,1.38.9,1.93l1.39,2.13c.57.88,1.07,1.73,1.53,2.72l1,2.15c1.15,2.48-.17,3.1,1.56,5.32.5.64.74,1.81.76,2.63.04,1.31.58.23.94,2.11.13.7.29,1.13.51,1.79l.78,2.32c.38,1.14.34.05,1.63,1.85l1.45,2.03.57.83,1.14,1.78c1.51,2.35.52,1.44,2.18,4.75.79,1.58-.64,2.94.12,3.38,2.69,1.55,1.7,3.75,1.77,3.82l1.61,1.71c.16.17.35.86.38,1.08l.24,2.02c.04.37.39,1.15.63,1.42l1.5,1.7c.33.38.76,1.2,1.07,1.72l1.29,2.13.56,2.28c.19.77.93,1.46,1.39,2.05l.88,1.12c.06.08.36.32.46.4l.52.42c.27.22.32,1.08.18,1.55-.09.29.24.68.54,1.01l1.15,1.27c.91,1,.27,1.96,2.55,3.96.4.35-.18,2.12,1.3,3.21,1.28.94.24.93.57,1.54l1.05,1.96c.03.06.21.29.27.37l.23.34.23.34c.59.86-.11.84.64,1.55,1.2,1.14.11.07,1.03,1.63l.87,1.47c1.76,2.97.2,2.41,1.2,3.59.07.08.42.44.45.53l.85,2.72c.18.59.42,1.2.67,1.57l.63.89.94,1.34.21,1.21c.16.91.46.08,1.4,1.78l1.77,3.19c.42.77-.23.75.71,1.42.35.25,1.04.78,1.19,1.12l1.15,2.6,1.11,2.52c.04.09.35.41.42.5l.63.79,1.03,1.36c.43.57.57,1.98.87,2.74l.73,1.88.89,2.29c.22.57.54,1.21.72,1.78l.44,1.35c.07.21.38.7.6.69l.43-.03.36-.04c.11.36.29,1.13.44,1.46l1.21,2.58c.88,1.87-.14,1.96.74,2.87,1.97,2.03.91,1.19,1.38,1.83.12.16.56.58.64.77l.69,1.54.1,1.4.88,1.61,1.24,2.54c.22.46.6,1.09.97,1.17l.62.14c.15.03.46.39.52.54l.4,1.07c.02.06.1.35.11.42.49,3.66.89,1.66,1.6,3.78l.67,1.99c.14.42.53,1,.78,1.44l.54.96c.43.77.85,1.67,1.24,2.51.96,2.07-.35,2.35,1.31,2.74l.94,1.54.28,1.46c.08.42.75.44.73,1.23v.58s-.03.59-.03.59c0,.04.27.23.32.24l.54.06s.28.19.3.24l.12.48c.32,1.24,1.24.42,1.36,1.52l.36,3.18c1.06,2.49,1.11.9,1.76,2.89l.59,1.79c.13.4.48,1.09.75,1.44,1.73,2.29,2.14,1.7,2.05,2.93-.02.25.24.77.4.89l.37.26s.21.32.22.38l.47,1.83c.09.34.67,1.02.81,1.35l.69,1.65c1.01,2.4-.06.66.6,2.19l.2.45c.94,2.19,1.47.91,1.66,1.81l.51,2.35c.02.1.16.39.2.47l.21.43c.24.5-.24,1.03.89,1.77l.35.23c.4.26.6,1.47,1.18,3.01l1.46,3.88.26.43.33.85c.24.64.58-.07,1.37,1.39l.25.46c.11.21.38.65.45.88l.58,1.76c.9,2.76-.07,2.21.63,3.37.18.29.51.96.47,1.3-.12.95,0,2.27-.02,3.33l-.02,1.08c-.06,2.89,1.83,3.64.38,5.04-.15.15-.13.7.07.75l.8.22-.36,1.71c-.01.05-.23.34-.28.39-1.34,1.53-.43,1-.57,2.28-.04.36-.11,1.15-.06,1.49.51,3.34-.22,1.84.3,6.58.11,1.03.18,2.01.1,2.98l.07.35.5.21s.29.24.31.29l.12.43.12.43.3,1.14c.02.07.05.34.07.49l.07.52.06.49c0,.08.1.37.13.44l.17.41c.09.23.34.43.52.61l.27.28,1.12,3.15c.35.97.71,1.92,1.18,2.83,1.42,2.71.79,1.94,2.78,3.88,1.35,1.32.34,1.38,1.36,2.53.37.43.8.99.89,1.35l.19.74,1.37,1.24c1.77,1.61,1.21.73,2.71,1.81l2.36,1.7,1.89,1.42c.12.09.48.87,1.01,1.63.11.16.87.01,1.03-.09l1.82-1.2c.05-.03.42-.04.61-.06,1.62-.15.4-.51,1.67-1.09l1.35-.62,1-.55c2.64-1.75,2.17-.8,4.12-1.51l1.97-.72c1.14-.42,1.95-.64,3.2-.2.22.08.37.64.35.88l-.05.73,1.07.59,1.59,1.88c.8.94.82,2.44.83,3.69l.45,1.15-.36,2.29-.21,1.35c-.28,1.83-1.18,3.37-2.33,4.82-2.22,2.79-3.14,2.75-4.75,4.32-.15.15.24.8.45.74.33-.09.55-.16.61-.16l1.21-.02c1.74-.03,2.69.34,4.3,1.28,2.07,1.21,4.7,2.37,4.01,5.02-.87,3.35-3.22,4.76-5.75,7.48-.42.45-.94,1.32-1.44,1.66-1.56,1.07-3.04,2.18-4.66,3.02l-3.59,1.87-1.15.6-1.25.65c0-.05,0,.2-.01.26l.36.62c.1.17.25,1.09-.29,1.27l-.44.14c-.12.04-.37.13-.43.14l-.49.05-.55.06-.58.06-1.81,2.57s-.35.28-.39.31c-.73.64.05.12-.76,2.05-.29.7-.51,1.41-.51,2.05v.65s0,.67,0,.67c0,1.11,2.08,3.22,3.98,3.94l2.48.94c2.7,1.02,2.09-.3,3.05.62l.33.32s.32.02.37,0l.47-.22c.22-.11.8-.09,1.09,0,1.64.47.88-.11,4.06-.2.43-.01,1.44.04,1.69-.18l.45-.39c.71-.6,1.08,1.07,1.91.37l.32-.27s.24-.12.35-.18l.4-.2.38-.18c.18-.09.49-.48.7-.43l.47.1c.26.06.53.13.61,0,.22-.37.18-.41.54-.76l.34-.33c.3-.29.83-1.07,1.2-1.31l2.29-1.49c1.06-.69.55-2.5.13-3.46l-.8-1.8c-.38-.87-.72-1.69-1.37-2.33l-1.03-1.02-.89-.86c-.49-.47-.97-1.14-1.35-1.74l-.77-1.22c-1.39-2.22-.88.16-2.42-1.78l-.29-.36.43-1.41c.05-.18-.35-.64-.42-.82s.07-.58.2-.79c.04-.06.43-.02.48.02l.31.27,1.37,1.21s3.92,3.92,2.92,3.11l2.16,1.75c1.9,1.54.26.45,1.84,1.89.3.27.72.61.87.82l.74,1.05c.45.64.83,1.24,1.18,1.98,1.21,2.54,2.12,3.74,1.04,6.21-.37.85-1.1,1.99-.66,2.46l.3.34c.06.07.19.22.23.27l.26.37,1.12,1.46,1.85,2.58c.04.05.16.41.18.47l.32,1.31c.01.05.6.12.64.16l1.58,1.98c.38.48,1.34,1.91,1.76,2.54l1.47,2.26c.9,1.39,1.64,1.06,2.39,1.84.27.27.7.73.96.82l1.87.68c1.07.39,1.91,1.09,2.8,1.76s1.77,1.18,2.43,2.22c.47.75,2.16,2.27,3.35,1.56.95-.57,2.15-.46,2.95,0l1.21.68c.46.26,1.77.11,2.1-.32l1.29-1.68c1.5-1.94,1.29-2.59.86-3.97l-.99-3.17c-.18-.59-1-1.45-1.26-2.04l-.9-2c-1.14-2.55-1.4-1.38-1.23-2.37.26-1.48-.07-.84-.49-3.72-.14-.96-.6-2.52.47-3.08l1.17-.62,2.07.88.66,1.14c.06.11.17.49.16.6l-.05.45,1.46,3.41.65,2.17c.24.81,1.07,1.71,1.47,2.46l.18,1.42c1.29.77.58.46,1.96,2.18.75.93,1.62,1.96,2.79,2.37l2.09.73c.12.04.63-.05.75-.11l.41-.22c.26-.14.91-.41.97-.66.06-.28.01-1.17.12-1.44l.79-1.99c1.21-3.03.88-.4,1.14-2.87.04-.41.21-1.13.21-1.47l.1-4.79c0-.33-.39-1.02-.47-1.3l-.86-3.11c-.23-.82-.41-1.62-.82-2.28l-1.46-2.36c-.95-1.54.34-1.36-.47-2.23l-.34-.36c-.64-.68.63-1.05-.75-3.51-.71-1.27.06-1.58-.51-2.67-.66-1.27-1.2-2.89-.81-4.34s-.97-1-1.99-5.2c-.92-3.82.15-3.37-1.18-5.04-.73-.92.03-1.09-.16-1.58l-.55-1.4c-.05-.14.11-.73.13-.88.01-.1.29.29.38.4l1.37,1.64s.49.38.5.42c.59,1.67,1.8,4.91,2.04,6.87.4,3.26,1.93,2.81,1.56,3.75l-.21.55c-.41,1.05.77.6,1.35,3.23l.52,2.36c.42,1.91.81,1.69,2.56,4.35,1.44,2.2,2.82.03,3.37,6.3.33.42.97,1.17,1.21,1.59,1.72,3.05.09,1.9,1.57,3.3,2.62,2.48,1.44,2.58,3.68,4.34l1.62,1.28c1.34,1.06,1.28.66,3.59,2.12.52.33,1.43.66,1.97.56l2.58-.46c.84-.15,0-.47,1.56.08.22.08,1.81-.63,1.85-.68.55-.54,1.2-1.99,1.45-2.8.47-1.55-.28-1.28-.04-2.05.08-.25.48-.97.51-1.24.07-.73.09-2.26-.04-2.95l-.61-3.14-.29-1.49c-.2-1.04-.58-2.13-.68-3.18-.45-4.43-2.96-4.12-3.52-8.28l-.46-3.44-.28-2.62c-.23-2.18-1.12-2.11-.48-2.89l1.28-1.56s.33-.3.39-.37c.07-.07.11-.21.04-.26l-.44-.31c-.5-.35-.81-1.46-.24-2.44.41-.72.84-1.14,1.46-1.43l.41-.19c.06-.03.27-.3.32-.33.67-.46.08.31,2.19,0l2.17-.32c1.7-.25.25-.62,2.89-1.02,1.68-.25.65-.65,3.56-.99l1.33-.6c.36-.16.81-.45.93-.71l.92-2.03c1.05-2.32.63.77,5.63-2.07l1.48-.84c.37-.21.8-.55,1.06-.87l1.41-1.75,1.46-1.72c1.33-1.57-.17-.71,1.52-2.48.71-.74,1.15-1.83,1.45-2.8.58-1.87,1.35.2,1.96-5.65.05-.53-1.48-2.54.46-3.9,3.47-2.42,1.7-.22,4.27-2.13,1.16-.86,1,.41,2.32.19.37-.06.96-.14,1.21-.11,2.66.32,3.63-.61,4.82-.99l3.73-1.21c.39-.13,1.16-.1,1.58-.1h1.74s1.11-.04,1.11-.04l4.94-.05c.95,0,.35-.65,1.88-.38.57.1,1.31.26,1.68.24.77-.04,1.9-.05,2.54-.19l3.98-.93c.67-.16,1.48-.63,2.17-.91l2.27-.92c3.13-1.27,2.95-1.79,4.97-2.41l1.31-.4c.59-.18,1.23-.46,1.8-.78,2.52-1.46,2.43-.1,3.88-1.21.58-.44,1.39-1.36,1.94-1.41l2.5-.2,1.59-.41c.52-.13,1.07-.3,1.59-.46l1.46-.45.74-.2,1.2-.34c.6-.17,2.56-1.18,3.35-1.6l3.17-1.72,2.87-1.72c1.62-.97,3.54-1.56,5.32-2.11l1.51-.47,1.93-.66,2.37-.8c.64-.21,1.54-.71,2.11-.83l2.24-.49c.44-.1,1.17-.64,1.6-.89l1.48-.86c.53-.37,1.06-.71,1.68-.91l2.32-.75c.37-.12,2-1.28,4.77-2.14l2.84-.88c.53-.17,4.37-1.68,4.86-1.94l2.43-1.31c.82-.44,1.59-1.04,2.29-1.73.95-.93.34.06,2.64-1.3l4.48-2.64c2.89-1.7.61-.98,4.47-2.75l3.54-1.63,2.74-1.4,2.48-.97c2.92-1.14,5.02-1.99,7.66-3.89,1.55-1.11,1.03.2,2.32-1.02.55-.52,1.15-1.07,1.69-1.41l.94-.59c2.34-1.47,2.21-1.05,4.29-2.55,1.15-.83,2.38-1.44,3.66-2.06l1.36-.65,1.33-.68c.95-.49,2.12-.99,2.99-1.55l5.76-3.71c.38-.24.95-.84,1.33-1.15l1.43-1.17,1.58-1.29c.72-.59,1.47-1.21,2.23-1.75,2.18-1.57,3.07-1.84,4.79-3.2l1.28-.72,1.34-.99c.54-.4,1.18-.7,1.82-1.03l.92-.53c1.19-.69,1.41-1.61,4.47-3.13,2.54-1.26,1.05-.77,3.9-2.41l2.02-1.16c1.32-.76,1.1-.91,1.75-1.08,2.34-.61-.26.44,2.04-1.63l1.24-1.11c.17-.16.42-.54.6-.85,1.08-1.89.74.16,1.57-2.13.27-.75.45-.29.99-.78.45-.41,1.38-1.32,1.87-1.7.98-.41,2.17-.83,3.07-1.29,2.9-1.48,1.14.3,2.73-1.18l1.68-1.56c.64-.59,1.27-1.2,1.82-1.89,1.04-1.32,1.31.43,2.68-1.61.57-.84,1.51-1.76,1.77-2.64.36-1.21.8-1.99,1.34-3.03l.89-1.72,1.11-1.84c.35-.57.43-1.65.62-2.55.11-.54.71-1.43,1.02-2.07.23-.48-.43-1.6-.59-2.17-.29-1-.6-2.3-1.15-3.37l-.78-1.53-1.23-2.49c-.41-.83-.87-1.5-1.48-2.22-.38-.44-.86-1.22-1.23-1.58l-1.63-1.56-1.9-1.82c-1.11-1.07-2.06-1.71-2.83-2.55l-1.82-1.96-.72-.93-1.55-1.37-1.47-1.61c-.79-.86-1.38-1.53-1.8-2.62l-1.38-1.89c-.61-.84-.95-1.42-1.7-2.14-.84-.81-1.68-1.98-2.33-3l-.93-1.46c-.21-.33-.72-.79-1.07-1.14l-1.56-1.59-1.11-1.2c-.45-.49-.93-.92-1.46-1.38-2.51-2.17-1.84-2.1-4.16-4.67l-1.5-1.66c-2.01-2.23-.99-1.39-2.77-3.52l-1.19-1.42c-.78-.93.79-.96-1.69-2.6-1.16-.77-.19-.73-1.67-2.52l-1.44-1.74-1.36-1.77-1.31-1.58c-1.43-1.73-1.46-2.21-2.98-4.39l-1.99-2.85c-.7-2.09-.21-.34-1.61-2.67l-1.31-2.18c-1.96-3.27-.59-1.64-2.84-4.55-1.54-1.99-2.43-3.78-4.14-6.17l-1.66-2.33-1.29-1.82-1.19-1.67c-.98-1.37-1.89-2.55-3.03-3.96l.8-.33c.17-.07.16-.73,0-.77l-.82-.22c-.67-.18-1.05-.69-1.51-1.3l-1.22-1.64c-1.16-1.56-1.08-1.87-2.43-3.55-.62-.77-1.2-1.49-1.65-2.36l-.87-1.7-1.52-3.07c-.29-.6-.52-1.11-.81-1.81-.27-.64-.92-1.38-1.31-2l-.99-1.59c-.25-.41-.52-.87-.77-1.23l-1.79-2.54c-1.35-1.91-1.61-2.74-2.38-4.8-.15-.4-.77-1.14-.95-1.52l-.95-1.99-1.29-2.72c-1.52-3.2,0-1.14-1.61-3.76-1.38-2.24-.5-2.12-2.19-5.23-.46-.84-.83-1.61-1.27-2.53-.21-.45-.33-1.58-.61-1.95-.36-.48-1.03-1.17-1.24-1.77-.57-1.62-1.25-3.2-2.37-4.26-.33-.31-.6-1.33-.9-1.66l-1.23-1.39c-.37-.41-.69-1.03-.97-1.57l-1.26-2.44-1.21-2.21c-2.2-4.02-.94-2.71-1.98-4.81l-.96-1.95c-.27-.55-.59-1.11-.9-1.65l-1.14-2.01c-.31-.55-.35-1.92-.73-2.39-.28-.36-.67-.85-.84-1.15l-.9-1.71c-.53-1-1-2.05-1.49-3.12l-1.07-2.35c-.15-.33-.78-.97-.96-1.29l-1.04-1.86-1.83-2.98-.71-1.86c-1.09-.44-1.68-2.41-2.64-4.25l-.89-1.72c-.26-.51-.62-1.1-.93-1.6l-1.76-2.83-1.66-2.67c-.3-.48-.85-1.12-1.09-1.64l-.74-1.61-.84-1.7-1.05-2.12-1.52-2.84-1.72-2.79c-1.62-2.63-.92-.49-2.78-2.68-.47-.55-1.03-1.24-.84-1.8.61-1.83.44-2.29,1-2.32.68-.04,2.26.04,2.66.34-.54.24,2.56,4.05,1.91,3.46l1.45,1.32,1.09,2.03,1.02,1.91.95,2.41.75,1,1.31,2.24c.62,1.06.9,2.17,1.55,3.14l1.15,1.73,1.17,1.76c.33.5.68,1.41.98,2.1,1.54,3.62.82-.36,1.77,4.44l1.2.52,1.11,2.1.28,1.77c.09.55.72,1.24,1.04,1.76l.97,1.59c.38.63.72,1.45,1.13,2.02.81,1.11,1.67,2.52,2.27,3.73l.77,1.56,2.01,3.31,1.28,3.32.95,1.94.81,1.85,1.11,1.91c.17.29.19,1.21.25,1.52,1.68,1.76,1.48,2.78,3.03,5.52l.84,1.47c.62,1.09,1.15,2,1.72,3.2s1.54.48,1.44.94l-.12.58c-.04.21-.11.36-.04.41l.47.27c.18.1.51.56.61.82.97,2.56,1.49,2.83,2.54,5.32l1.12,2.64.54,1.32c.4.97,1.08,2.57,1.3,3.45.06.22-.16.88-.15,1.11s.66.38.79.56c.45.64.84,1.51,1.16,2.25l1.28,3.03c.24.56.52,1.18.81,1.75,1.96,3.87,1.31,1.63,2.72,4.41l.94,1.87c.69,1.37,1.38,2.67,2.53,3.81,1.59,1.59-.5,2.58,1.71,3.45.44.17.9.69,1.08,1.11l1.06,2.43c.29.67.67,1.37,1.05,2.04,1.83,3.18,1.54,1.58,2.07,4.07.11.52.84,1.25,1.23,1.77l1.11,1.51,1.31,1.83c1.9,2.67.41,1.17,1.82,3.26.56.84,1.13,1.54,1.72,2.3l2.53,3.23,2.33,3.36,1.34,1.81,1.61,2.35,2.15,3.25,2.06,3.16,1.64,2.64,1.14,1.72,1.92,2.93c1.38,2.11.95,1.95,1.83,2.98l2.77,3.28c.34.4.75,1.25,1.09,1.72l1.34,1.85,1.52,2.21c.18.27.49.66.71.93l2.21,2.71c.29.35.7,1.2.99,1.51.46.48,1.06,1.01,1.37,1.48l1.17,1.75c.18.26.48.82.74.94.65.33,1.13,1.05,1.6,1.54l2.38,2.49c1.29,1.35,4,4.05,4.98,5.29.57.73.89,1.28,1.74,1.72l.83,1.4,1.52,1.14c1.83,1.37.62,2.19,3.28,4.67,2.87,2.68.7,1.43,3.83,4.17,2.58,2.26,2.24,2.27,4.41,4.17.8.7,1.75,1.37,2.32,2.23l1.01,1.53,1.87,1.88c.37.37.79.78,1.17,1.1l1.87,1.55c2.09,1.73,1.6,3.13,2.46,4.09l.96,1.07.73,1.33c.69,1.26,1.31,2.47,1.9,3.8l.24.55ZM147.65,476.75c2.19-.54,1.54-.72,4.37-2.1l1.74-.85c.53-.26,1.12-.6,1.65-.89l1.46-.81c.72-.4,3.43-2.02,3.88-2.38l3.07-2.45c.44-.35,1.21-1.28,1.6-1.75.32-.39.36-1.5.54-2.06l.38-1.23c.31-1.01.21-2.41.24-3.62.02-1.05-.26-2.1-.72-2.99l-.54-1.04-2.57.22c-.67.06-1.38.5-1.88.94l-1.44-.9c-.88-.55-1.56-.66-2.48-.11-3.89,2.33-1.86.51-4.56,1.99-1.2.66-1.73,1.32-3.14,2.27-2.77,1.86-.02.64-2.7,2.5l-2.05,1.42c-.75.52-1.53,1.36-2.2,2.03-3.22,3.2-.89,0-3.99,3.75l-1.17,1.42-1.18.75c-1.29,2.04-1.23.91-2.86,3.58.29.91.64,2.06,1,2.97.22.55,1.81.63,2.42.72,3.11.49,5.88-.08,8.93-.83l2.21-.54ZM146.94,492.12l1.65.11c1.05.07,2.16-.19,3.12-.74l1.12.23c3.45-.47,7.04-2.81,10.03-4.82.78-.53,1.59-1.59,2.31-2.19.79-.1.93-.47,1.35-.97l1.59-1.92c1.93-2.33,1.28-3.21.1-5.42-.84-.32-1.32-.77-1.77-1.43l-2.04-.22c.55-.69-5.05.07-4.63-.04l-3.23.84c-.6.16-1.41.66-2.02,1l-4.45,2.45c-.38.21-1.12.47-1.57.68l-2.33,1.08c-.73.34-1.51.58-1.91,1.24l-1.44,2.38c-.25.41-.44,1.05-.65,1.62-.17.46-.49.99-.73,1.48l-.83,1.76c-.18.38-.06,1.25-.06,2.03.94.27,1.81.32,2.89.53l2.26.43,1.25-.09ZM258.71,489.37l1.81.04c.61.01,1.64-.29,2.33-.45,3.53-.81.86.08,3.76-1.01l2.29-.86,1.91-.68c-1.3-3.55.08-1.73-1.33-4.83-1.08-2.37.08-1.05-1.37-4.33l-.6-1.35-2.44,1c-.85.35-2.09.72-2.99,1.01-.4.13-1.46.07-1.82.24l-2.49,1.18-1.76.85c-3.67,1.77-2.46,3.49-4.31,5.7l.66,1.51c.4.91,1.89,1.33,2.79,1.67l.76.28c.13.05.55-.41.69-.39.51.09,1.61.41,2.12.42Z"/>
      <g>
        <path d="M136.01,172.18c-4.42.23-4.52-1.18-6.19.97l-.31-.9c-.17-.49-.8.29-1.62-.81l1.39-.84c1.52-.92,1.44-1.18,3.27-1.22l4.61-.08c.64-.01,1.72-.43,2.38-.68,2.53-.95-.14.6,3.46-1.2.65-.32,1.22-1.49,1.8-2.13.78-.87,2.68-.83,4.62-1.35,4.63-1.25,3.83-.56,7.45-2.83.91-.57,1.71-.96,2.76-.97h1.32c1.13-1.86.99-.6,3.48-1.76,3.72-1.73,2.83-.35,4.28-1.04,3.14-1.52.85-.3,3.96-1.21,3.98-1.17,1.27-.53,4.74-1.95,1.26-.51,2.65-1.32,3.88-2.08.3-.18,1.15,0,1.49-.09s1.02-.36,1.38-.38l1.93-.09c.21-.01.78-.55.98-.45l1.74.86c.33.16.71,1.03.83,1.43-1.32,2.02-1.63-.07-4.07.37l-2.25.41c-.49.09-1,.27-1.54.46l-1.56.25-.48,1.16c-.61.44-1.52,1.14-2.18,1.4l-1.9.75-2.81,1.03-3.45,1.28c.07-.03-2.76,1.93-3.71,1.97l-2.48.11c-.43.02-1.36-.12-1.73.04-.69.31-1.79.86-2.48,1.13l-2.52.97c-.95.37-1.92.81-2.86,1.08-2.67.76-3.37,1.15-5.8,2.24l-2.42,1.09c-4.87,2.2-.42.4-6.08.88-.27.49-.61,1.53-1,1.69-.55.22-1.7.47-2.31.5Z"/>
        <path d="M207.92,147.93c-.66.39-3.75,1.91-4.43,1.29l-1.33-1.21,2.23-1.7c.44-.33,1.13-.6,1.69-.84l5.53-2.47,1.76-.83c.66-.31,1.45-.48,2.21-.67l2.04-.52c.49-.12,1.31-.49,1.73-.74l1.45-.86,1.09-.59,3.21-1.66c1.56.53,1.27-.94,4.78-.99l3.31-1.81,2.88-1.45c.38-.19.98-.31,1.53-.48.7-.21,1.53-.73,2.24-1.07l1.92-.92,1.79-.86c1.15-.55,5.15-3.15,6.26-2.71.3.12.77,1.08.65,1.38-.54,1.28-3.02,1.92-4.21,2.61l-3.46,2c-2.53,1.46-2.27.84-4.7,2.13l-2.45,1.3c-2.14,1.14-1.73.66-3.55,1.57l-2.89,1.44-1.31,1.37c-.88-.19-1.62-.15-2.46.19-1.98.8-2.48.01-7.06,2.14-.72.34-1.46.88-2.24,1.11s-1.45.44-2.1.73l-2.4,1.07c-.62.27-1.3.61-1.88.95l-1.82,1.08Z"/>
        <path d="M160.19,184.51c-.1-.13-.35-.48-.25-.34.19-.59.22-.69.08-.71-.18-.03-.62-.01-.76.05l-1.49.72c-.11.05-.26-.77-.16-.82l3.16-1.79,1.89-1.07c.74-.42,1.49-.92,2.32-1.04l1.96-.28c.41-.72.87-1.27,1.48-1.68l1.4-.93,2.29-1.47c.53-.34,1.11-.54,1.79-.8.95-.37,1.94-1.11,2.9-1.55l1.59-.73c1.51-.69,2.21-.94,4.14-.7.77.09,1.73.6,2.52.91.55.21,1.72-.44,2.32-.54l2.31-.39,1.45.41,1.96-.21c3.18-.34,1.72-.1,4.18-1.2,1.33-.59,2.36-.16,3.43-.55l1.68-.61c1.61-.58,6.31-2.01,7.54-.32-.52,1.04-3.08,1.76-4.32,2.06l-2.34.57-2.8.73-1.92.77-2.32.59c-.84.21-1.94.34-2.91.5l-3.46.56c-.96.16-1.98.43-2.89.79l-2.1.83c-.52.21-1.7.31-2.18.09l-1.51-.68c-.62-.28-1.28-1.15-1.9-1.77l-2.35,1.26-1.68.92-2,1.12-2.21,1.24c-.41.23-1.14.41-1.6.68l-.87.49-1.22.51c-.41.59-.87,1.06-1.51,1.37l-2.37,1.18c-.13.06-.65-.27-.74-.16s-.37.46-.5.55l-2.02,1.43Z"/>
        <path d="M172.2,203.84l-2.06-.31.63-1.2-.84-.96c1.28-.34,2.26-.22,3.51-.18l1.92.06,2.62.28c3.3.36,6.34-.33,8.9-2.4l1.6-1.3c1.18-.95,2.49-1.4,3.96-1.78l2.45-.64c.46-.12,1.46-.23,1.91-.21,1.46.06,2.29-.65,3.68-1.06l2.83-.84c.65-.19,1.1-.53,1.73-.56s1.16-.16,1.55-.4l1.8-1.12c.87-.54,1.57-1.19,2.53-1.49l.59-.54,2.36-1.05c.34-.15.98-.75,1.28-1.01,1.72-1.51.06.14,2.09-1.04.42-.24.69-.36,1.4-.62l.33,1.81c.06.31-.39,1.2-.7,1.31l-1.65.59c-.61.22-1.17.51-1.75.82l-1.71.9-3.03,1.55s-2.37,1.72-2.65,1.83l-2,.85-3.67,1.55c-.44.19-1.24.28-1.9.43-2.5.57-1.88,1.47-3.77.84l-.77.53c-2.94.51-.42.41-4.45,1.29-.73.16-1.39.43-2.09.7l-2.07.81c-.29.11-.86.78-1.14.92-4.12,2.04-4.79,1.87-9.92,1.6-2.46-.13-1.62.32-3.52.03Z"/>
        <path d="M178.14,223.71c-.34.13-2.35.08-4.2.46-3.09.63-2.22-.11-3.89.65-.55.25-1.21.54-1.71.59l-1.93.2.89-2.86c.08-.25.69-.57.91-.59l2.02-.2,2.25-.16,2.02-.25c4.89-.61,2.42-.45,4.38-.9,1.23-.29,2.32-.53,3.47-.87l3.18-.93c-.78.23,6.91-2.79,6.88-2.78,2.5-1.07,2.1-1.09,5.23-1.33l2.31-.17c5.61-.42,4.87-2.6,7.32-1.71.61.22,1.35,1.89.67,2.09-.17.05-.61.08-.79.04l-.75-.18c-.15-.04-.31.52-.42.61l-1.36.4-2.62.78c-.22.06-.8.35-1,.38l-1.94.29-2.09.3-1.77.68-1.84.24-1.1.14c-2.7,1.27-2.35.13-3.61,1.46-.98,1.04-.87.33-3.19,1.02-1.78.53-3.38,1.1-5.12,1.77l-2.22.86Z"/>
        <path d="M182.48,246.03c.38-.07-6.23,1.16-4.78.39l.32-1.67,1.21-.74c1.48.46.6-.6,2.13-.7.66-.04,1.66-.11,2.31-.23l8.87-1.73c3.09-.6,2.51-1.08,5.34-.09l2.19-1.03c.77-.37,1.51-.57,2.41-.79l1.97-.47c.23-.05.63-.55.8-.68.24-.18.97.03,1.28-.02.39-.07.95-.17,1.37-.18l.92-.02c.54-.01-.33-1.42,1.11-1.64l2.11-.32c1.39-.21,3.47.53,5.13.16.64,0,.72.24,0,.4l-2.13,1.01c-1.37.2-4.54,1.05-5.82,1.47-.68.22-1.36.74-1.98,1.11l-1.86,1.11c-1.3.77-.86,1.46-3.95,1.43-.41,0-1.29-.46-1.69-.32-1.8.64-3.59.78-5.37,1.06-1.06.16-2.08.7-3.31.63-1-.05-1.55.56-4.01,1.01l-4.55.84Z"/>
        <path d="M228.04,161.21l-.71-.6c-.13-.11.11-.66.23-.79l1.13-1.14c.18-.18,1-.1,1.26-.2l2.79-1.11,2.59-.89c3.41-1.18,1.52-.98,3.89-1.8,1.08-.37,1.93-.82,2.83-1.48l1.16-.27c2.88-2.4,3.74-2.05,6.82-3.18,1.7-.62,1.93-.73,3.74-1.11l2.67-.56c.29-.06.83-.01,1.03.14.48.37.8,1.47.63,2.28-.07.34-.81.71-1.17.72l-1.75.02c-1.96.02-3.55.65-5.06,1.07l-2.11.59c-.47.13-1.02.5-1.51.75l-2.67,1.39c-.83.43-1.65,1.21-2.49,1.77-1.16.77-5.3,2.46-6.48,2.47l-3.05,1.4-1.65.71c-.64.27-1.59.28-2.14-.19Z"/>
        <path d="M241.61,207.27c-.46.3-1.59.47-2.44.64-.66-.39,1-2.99,1.51-3.48.28-.27,2.26-.85,3.27-1.34l1.7-.82c1.26-.61,2.47-1.08,3.7-1.75l2.26-1.23c.47-.26,1.03-.5,1.56-.74,4.08-1.89,3-1.02,5.99-2.01.82-.27,1.58-.54,2.4-.7l1.96-.39c.63-.13,1.37-.06,2.05.2,2.46.95,2.19-.78,3.47-.53.39.08,1.06.64,1.16.99l.3,1.02c-.77.61-2.09,1.07-3.08.99l-2.11-.17-1.78.18-1.65.15c-.54.05-1.36.15-1.85.3l-2.02.63c-.31.1-.98.52-1.29.58-1.18.24-2.15.64-3.14,1.17l-2.07,1.1-2.8,1.49c-2.16,1.15-3.93,1.63-5.38,2.59l-1.71,1.13Z"/>
        <path d="M236.17,287.74l-2.41.36c-.35-.1.11-1.44.56-1.52l3.68-.66c.65-.12,1.8-.05,2.38-.18,1.04-.34,1.86-.56,2.93-.66l.95-.81.63.07c.58.06.71-1.33.94-1.32l.98.02c.83.02,1.36-.31,1.98-.94,1.44-1.48,3.85-.2,6-1.35.66-.35,1.52-.78,2.18-.62l2.32.56,3.9-1.35,2.18-.84c.29-.11.9-.53,1.15-.66l2.59-.71c.62-.17,1.52-.23,2.28-.33,2.32-.31.03-.23,2.59-1.3.08,0,.37.71.23.8l-.81.52c-1.39.88-2.11,1.19-3.64,1.83-2.5,1.03-.84-.5-2.62,1.05-1.92,1.66-1.44.6-3.78,1.86l-1.68.9c-1.52.82-3.18,1.68-4.04.32-.7-1.11-1.58-.49-2.54-.28l-3.86.83c-.24.05-.75.63-.95.68-.65.18-2.04.42-2.68.68-1.08.45-1.96.74-3.1,1l-1.58.88c-.82.46-1.86.74-2.78.93-3.28.68-2.1-.01-3.97.27Z"/>
        <path d="M242.86,181.45l-3.26-.16.08-1.71c.02-.52,1.15-1.21,1.66-1.31l2.39-.47,1.97-.36c.9-.17,1.97-.33,2.73-.68l1.59-.72,1.76-.8c2.75-1.25,3.92-1.16,6.79-1.82.56-.32,1.28-.34,1.96-.12l.78-.63c.42-.34,1.75-.17,1.94.32.39,1.04-.04,2.42-1.08,2.55l-1.62.2-2.84.74c-2.61.68-2.09-.17-4.7,1.05l-1.58.74-1.94.91c-.79.37-1.74.87-2.52,1.11l-2.69.84c-.28.09-1.05.35-1.4.34Z"/>
        <path d="M244.82,229.62c-.1-.48-.43-2.18-.06-2.16l.77.05,1.36-1.36,1.31.33,2.38-1.39.79.53c.46-.65,1.15-1.52,1.81-1.8l2.66-1.15,1.33-.4,1.47-.57c.37.26,1.11.56,1.28.27.33-.57,1.87-1.01,1.89-.49l.11,2.68c-1.95-.42-1.84-.27-4.14.39-1.05.3-2.02.86-2.96,1.35-.51.26-1.73.38-2.19.68l-1.96,1.24c-.9.57-1.95,1.03-2.99,1.23l-2.85.55Z"/>
        <path d="M243.54,295.09c2.5-1.18,3.78-.88,4.31-1.07l1.77-.61c1.26-.43,1.2,1.37,3.22.51,1.76-.74,2.08.1,3.6-.28l3.03-.75c.22-.05.82-.5,1.03-.44l1.58.43c.4-.37,1.23-.99,1.74-1.04.21-.02.65.47.97.78l-1.11.54c-.62.3-1.57.28-2.33.53l-2.49.81-5.38,1.22c-.99.22-2.02.51-3.04.63l-2.32.26-2.51.41c-.88.15-1.63.22-2.59.29-.02-.55.05-2,.5-2.21Z"/>
        <path d="M290.37,215.36c-1.67.59-2.83,1.52-3.88.15l.99-2.43,2.74-.83c3.28-.99,1.19-.25,3.99-.58,1.35-.16,2.11.85,2.25,2.35-3.23,2.5-2.8.18-6.09,1.33Z"/>
        <path d="M291.81,268.3c-.28.11-1.13-.44-1.1-.74.06-.51.39-1.56.57-1.89,1.42-.08,2.28-.67,3.31-1.36l1.71-1.14,1.21-.84c2.42-1.67,1.3.09,2.95-1.44.16-.09.9.15,1.11.39l1.33,1.56-3.73,1.16c-.54.17-3.65,2.45-3.23,2.19l-1.97,1.2c-.48.3-1.6.65-2.17.88Z"/>
        <path d="M145.46,211.24l-1.61,1.13-1.45.94c-.34.22-1.26.28-1.69.2l1.76-3.09,1.62-.96c.58-.35,1.22-.72,1.79-1.02l2.5-1.29c3.9-2.01,3.27-.08,4.56-.21l.73-.07c.15-.02.44.53.31.62s-.48.31-.64.35c-3.71,1.06-.55.16-3.54,1.32l-2.73,1.06c-.41.16-1.13.69-1.61,1.03Z"/>
        <path d="M297.19,280.12l-2.2-2.56c1.95-.31,3.47.77,3.97-.06,1.14-1.92,2.6.21,3.63-.56l1.58-1.18-.57-.68c-.13-.16.31-.66.52-.74l1.79-.66,1.7-.62,1.5.73c.26.13.55.31.82.48-.39.39-.64.65-.87.75l-2,.85-1.31.4c-.97.3-1.77.85-2.6,1.42-2.43,1.67-3.22,1.59-5.96,2.43Z"/>
        <path d="M295.66,187.29c-.49.08-1.46-.35-1.86-.39l-2-.24c-.59-.07-1.15-.17-1.8-.28l-.06-1.49,1.2-1.54c.17-.03.78.3,1.08.51l3.1.12c.64.03,2.72,1.48,2.28,2.99l-1.95.33Z"/>
        <path d="M137.94,194.13l-3.43.08c.1-.45.2-.87.3-1.08l.51-1.04,1.67-.94c.51-.29,1.68.22,2.23.64.38.29.61,1.34.29,1.58-.27.19-1.15.75-1.57.76Z"/>
        <g>
          <path d="M309.29,351.32c-.61.15-3.88,3.22-5.2,1.39-.3-.42-.23-1.59-.1-2.15l2.53-.62c.71-.17.8-1.88,2.55-1.34.53-.92,1.88-1.17,2.89-.95l1.8-.55c1.77-.55,3.91-1.04,5.67-1.44.55-.13,1.51-.66,1.88-.96l1.76-1.45c.2-.17.73-.45.99-.51l1.97-.45c1.08-.24,2.06-.53,3.09-.86,3.36-.13,2.59-.89,5.23-1.13s1.62-1.07,6.34-1.58l1.61-.17,2.01-1.45c.73-.53,1.27-1.74,2.6-2.7l2.4-1.72c.67-.48,1.34-.7,2.18-.97,1.06-.34,2.03-.71,3.14-1.15,1.77-.7,2.44-2.25,3.3-2.28,3.81-.16,1.42-1.08,4.79-1.79l2.41-.51c.61-.13,1.44-.51,1.96-.84l2.63-1.73c.61-.4,1.98-.69,2.45-1.15l1.66-1.6c1.66-1.6.62.07,3.33-1.76.32-.21.9-.68,1.19-.81,1.33-.61,2.88-1.15,4.25-1.27l2.26-.2c.37-.78.94-1.05,1.73-1.19.65-.38,1.48-.54,2.18-.35l.44,1.34-.37.75c-.46.93-1.29,2.04-2.45,1.95-2.4-.19-1.47.95-2.56.64-2.94-.81-5.72.93-7.57,3.45-.56.76-2.01.76-3,1.03-.45.12-1.3.69-1.73.99l-1.56,1.07-1.99,1.37c-.19.13-.62.56-.74.66l-1.56.46-2.65.78c-1.63.48-2.22.33-4.14,1.62-.49.33-.91.59-1.41.89l-2,1.18c-1.09.64-3.96,2.11-5.39,1.75-.61.34-1.25,1.35-1.78,1.85-1.15,1.1-2.29,2.08-3.36,3.23-.41.45-.86.99-1.34,1.15l-2.19.74c-3.37,1.14-3.67.49-4.85.82l-2.14.59c-.42.12-1.19.51-1.71.75-2.97,1.37-2.12.45-6.08,1.27-1.43.3-2.47.74-3.77,1.39l-1.74.87c-.52.26-1.21.55-1.76.75l-1.52.55c-.52.19-1.31.58-1.78.7l-2.31.57-4.46,1.1Z"/>
          <path d="M324.62,332.49l-1.77,1.46-1.35,1.25c-.93.86-1.93,1.65-3.06,2.28l-3.11,1.75c.19-2.62.52-1.55,0-4.45.53-.14,1.45-.45,1.64-.83.27-.53.2-1.38-.02-1.8l-1.59,1.98c-.62.77-1.85.86-3.35,2.7-.59.73-1.3,1.36-1.95,2.04l-1.84,1.92c-.39.41-.92,1.32-1.23,1.76l-1.63-.09c-.33-.02-1.04-.32-1.41-.47-.2-.53-.15-2.2.41-2.46l2.55-1.18.71-1.29,2.14-.46c1.3-2.85,1.57-.96,4.12-4.15l.93-1.17,1.66-1.66c.8-.8,1.4-1.61,2.2-2.43,1.08-1.1,2.32-2.61,2.74-4.13l.9-.75,1.29-2.49c.34-.67.99-1.3,1.37-1.99l1.42-2.58.76-1.1.56-.25c.46.22,1.05.07,1.44-.28.29-.26,1.28.35,1.26.75-.07,1.06-.74,1.69-1.28,2.44-.92,1.29-1.86,2.47-3.02,3.6-1.8,3.9-.65.68-2.75,3.85-1.01,1.52-2.96,2.7-4.13,5.11.17.46.43.91.31,1.08l-.56.77-.54,1.43-.68,1.81c.7-.17,1.16-.3,1.56-.54l2.39-1.4c.73-.43,1.41-1.03,2.09-1.6l2.32-1.96,2.14-1.85,1.69-1.49c.74-.65,2.65-2.08,3.28-.72l.66,1.41c.07.4.11,1.03.26,1.33.17.34,1.15.55,1.44.31.15-.12.48-.48.45-.62l-.17-.72,1.25.48c.6.23,2.25.66,2.33,1.73.02.3-.45.9-.75.94-3.17.47-.82.6-3.65.98l-2.29.3c-.26.03-.98.26-1.17.12-.71-.5.02-2.13-1.4-1.93l-1.71.24-1.67,1.09c-.28.19-.71.48-.94.71l-1.28,1.22Z"/>
          <path d="M346.56,324.97c-.78-.31-1.55-2.92-1.18-3.53l2.6-.6c1.87-1.95,3.75-1.16,3.6-2.4l-.22-1.75c.05-.92,1.38-1.21,2.09-1.22.06-.31.3-1.4.64-1.37,3.11.31,2.68,1.73,5.14.29l2.2-1.29c.51-.3,1.16-.54,1.83-.78l1.27-1.28c1.4-1.41.94.37,3.6-1.55.71-.51,3.53-.41,3.65,1.11.03.36-.41,1.03-.77,1.27-1.96,1.36-1.14-.34-3.74,1.1-1.95,1.08-2.48.71-4.08,2.52-.71.8-1.96.94-2.78,1.49-.74.5-1.46,1.23-2.2,1.81-1.92,1.5-.3-.34-3.12,1.72s-2.43.9-4.06,1.9c-1.51.92-2.85,1.71-4.47,2.54Z"/>
        </g>
      </g>
      <path d="M204.94,511.02c-.37.35-1.4-.57-1.51-1.07l-.54-2.59c-.27-1.3-.82-2.52-1.44-3.67-.11-.81-.32-1.42-.77-2.17-1.03-1.73.32-.19-1-3.57-.66-1.7-.89-2.3-.79-4.33.02-.46-.68-1.27-.77-1.71l-.34-1.72c-.15-.77-.28-1.66-.36-2.45l-.25-2.36c-.1-.96-.11-1.97-.16-2.99l-1.4-1.37.58-1.18c.92.47,1.42,1.14,1.61,2l.81,3.74.36,1.47.84,3.39c.2.8.39,1.64.73,2.35l1.22,2.54.34.68c.07.15.58-.1.89-.14.5-.06.31,1.16.5,1.58l1.24,2.88.16,1.93.75,1.81c.71,1.73,1.52,3.55,1.08,5.25l-1.75,1.69Z"/>
      <path d="M35.99,123.97c-.98,1.09-4.05,4.5-5.2,4.58-.32.02-1.01-.48-.92-.79l.42-1.53c1.97-1.13,2.43-4.57,5.27-3.92l.44,1.66Z"/>
      <path d="M247.14,472.71l-1.4-2.17c-.75-1.16-1.29-2.44-2.65-3.23-.01-.48.07-1.22.17-1.95l-.96-1.13c-.18-3.08-1.26-2.45-.69-3.25.11-.15.67.12.77.29l.9,1.64.95,1.71c.45.82,1.22,1.93,1.36,2.8l.42,2.59,1.33,1.3-.2,1.41Z"/>
    </g>
  </g>
</svg>