<?xml version="1.0" encoding="iso-8859-1"?>
<!-- Generator: Adobe Illustrator 30.3.0, SVG Export Plug-In . SVG Version: 9.03 Build 0)  -->
<svg version="1.1" id="Layer_1" xmlns="http://www.w3.org/2000/svg" xmlns:xlink="http://www.w3.org/1999/xlink" x="0px" y="0px"
	 viewBox="0 0 419.309 605.87" style="enable-background:new 0 0 419.309 605.87;" xml:space="preserve">
<g id="XwSUnr.tif">
	<g>
		<path d="M371.394,0l3.111,3.095c2.702,2.488,3.037,8.195,5.416,10.437l2.801-2.262c3.024-2.442,7.137-3.235,11.083-3.106
			l4.48,0.146c3.916,4.924,1.381,9.457,2.251,18.056c0.099,0.979-0.683,2.797-1.022,4.041c-0.725,2.662,0.074,6.22-0.24,9.179
			l-0.53,4.986l0.459,5.407l8.383,1.228l9.028,2.352l2.694,3.371v2.247l-3.936,4.346c-0.179,0.433-0.523,1.261-0.155,0.38
			c5.213,1.723,4.376,10.621-0.587,14.742c4.497,4.394,3.184,5.664,1.8,9.822l-1.947,5.849c-0.46,1.382-2.051,3.532-2.914,4.97
			c-0.78,1.301-1.867,3.115-2.981,3.719l-5.993,3.252l-2.042,1.567l-6.713,0.115l-1.042,5.056c-0.505,2.45-0.199,5.222-0.17,7.777
			l0.083,7.364l-0.409,14.26l0.334,5.821l-0.275,5.386l-0.566,6.036c-0.318,3.388,0.099,7.69-0.481,10.884l-1.539,8.469
			l-0.247,6.572l-0.582,5.546l-0.551,6.55l-0.668,5.311l-0.843,7.463l-0.708,6.774l-0.337,3.865l-0.392,6.53l-0.358,4.708
			l-0.774,6.033l-0.554,6.883c-1.018,2.913-1.303,4.995-1.306,7.922l-0.007,6.68l-0.777,7.54l-0.776,7.539l-0.784,5.075l-0.93,9.011
			l-0.495,5.352l-0.592,6.044l-0.413,4.621l-0.647,7.995c-0.163,2.016-0.147,4.157,0.066,6.345c0.094,0.964-0.382,2.802-0.672,4.147
			c-0.419,1.949-0.021,4.227-0.308,6.148l-0.886,5.934l-0.231,12.588l-0.997,3.818c0.316,2.79-0.039,5.502-0.114,8.33l-0.377,14.302
			c-0.099,3.774-2.303,6.416-1.519,8.772c1.539,4.626,0.294,8.088,0.018,12.454l-0.497,7.845l-0.727,6.083l-0.71,5.295l-0.575,5.329
			l-0.656,8.177l-0.666,3.915c0.126,0.525,0.575,2.138,0.466,2.787l-0.864,5.136l-0.279,8.987l-0.137,4.633l-0.311,3.631
			l-0.361,5.861l-0.275,4.795l-0.488,10.36l0.058,4.468l0.706,5.176l0.454,9.705l0.062,3.899l-0.202,3.786
			c-0.153,2.874-0.325,6.669,0.159,9.393l1.713,9.631l0.712,5.242l1.018,5.544l0.606,8.274l0.551,7.462l-0.102,3.891
			c-0.038,1.463,0.456,2.867,0.805,4.656c0.643,3.301-1.639,7.606-0.427,11.807c0.6,2.08,0.684,3.9,0.68,5.871l-0.02,9.08
			l-0.121,6.895l-4.623,1.734l-7.478-1.358c-1.837-0.334-5.568-0.01-7.757,0.311l-8.227,1.206l-7.139,0.615l-9.889,0.242
			l-14.467-0.482l-4.475-0.408l-4.143-0.689l-7.559-0.09l-3.746-0.047l-4.797,0.053l-6.843-0.203l-5.105-0.547l-6.75-0.723
			l-5.955-0.737l-7.242-1.136l-8.358-1.331l-4.645-0.548l-6.753-0.522l-8.233-0.779l-3.807-0.327l-4.368-0.024l-4.33-0.575
			l-4.698-0.763l-6.054-1.112l-6.674-0.726l-10.489-0.399l-4.45-0.173l-4.755-0.568l-10.407-0.245l-7.635-1.483l-5.173-1.201
			l-4.01-0.931l-4.457-0.969l-6.89-1.447l-8.526-1.587l-4.443-0.755l-5.417-1.244l-5.991-1.816l-4.115-0.874l-5.206-0.613
			l-1.393,4.949c-0.576,2.047-2.675,5.667-4.267,7.295c-1.559,1.594-4.235,3.217-6.249,4.378c-1.604,0.925-7.288,0.309-8.77-0.555
			l-3.723-2.17l-2.495,7.269l-1.831,4.834l-2.206,4.478c-1.88,3.817-8.654,5.525-10.763,4.286c-2.918-1.713-3.651-5.699-3.337-8.631
			l-1.115-1.526l-1.709,5.404c-0.803,2.539-2.526,4.474-5.312,5.3c-4.739,1.404-9.843-1.51-10.399-3.897l-1.267-5.447l-0.819-3.521
			c-0.508-1.082-2.362-1.352-1.542,0.567c-1.459,2.8-3.475,5.61-5.867,7.229c-1.142,0.773-3.997,1.053-5.572,1.349
			c-1.471,0.277-5.277,1.101-6.227-0.045l-4.611-6.734c-0.692-1.011-0.799-3.945-0.906-5.184l-0.544-6.296l-0.28-5.543l-0.144-7.042
			l0.364-4.764l0.59-4.229c-0.54-1.307-1.377-3.938-1.194-5.183l0.521-3.541l-6.211-1.921c-3.508-1.085-6.336-3.026-8.072-6.381
			l-1.143-2.209c-0.307-0.594,3.06-5.251,8.148-7.974l2.494-1.335c0.665-0.275,1.706-0.706,1.028-0.425l-4.837-1.985
			c-0.966-0.396-2.636-2.582-3.152-3.495l-2.952-5.221l3.985-4.614c0.73-0.845,2.739-2.258,3.724-2.72l2.905-1.362
			c-1.666-0.859-3.83-1.735-4.438-2.684l-2.471-3.861c-0.802-1.254-0.96-4.748-0.19-6.209c1.769-3.357,5.41-4.634,9.015-6.06
			l4.619-1.826c-0.759-1.876-1.314-3.471-1.392-5.116l-0.297-6.232l-0.138-2.923c-0.022-0.469,0.781-1.807,0.816-1.893
			c-0.411-0.814-1.06-2.47-0.994-3.193l0.457-5.03l0.782-5.383l0.581-5.207c-1.453-3.46-1.063-6.921-1.001-10.469l-1.134-6.189
			l-0.581-6.039l-0.117-5.854l0.174-5.43l0.204-5.281l0.121-3.997l0.226-7.929l-0.346-4.292l0.156-4.693l0.084-4.765l-0.926-6.621
			c-0.264-1.886,0.649-4.568,1.452-6.17c-0.564-1.537-1.596-4.28-1.59-6.158l0.035-10.997l0.342-4.252l0.501-11.147
			c0.076-1.693,0.407-3.897-0.077-5.349c-0.368-1.105-1.013-2.856-1.001-3.766l0.125-9.721l0.073-2.846l0.311-5.555l0.553-14.054
			l0.387-7.654l0.031-2.823l0.12-10.456l1.26-3.006l-0.651-6.923l0.498-5.821l-0.256-9.342c-0.08-2.915,0.287-5.825,1.348-8.698
			c1.455-3.941-0.998-4.71,0.846-7.701l0.301-6.722l0.703-4.975l0.642-7.514l0.471-5.993l0.343-6.054l0.243-4.493l0.254-11.105
			l1.471-2.511l-0.231-6.362l-0.241-4.882l0.321-3.544l0.618-6.824l0.481-6.632l0.727-7.513l0.533-6.065l0.414-5.833
			c0.141-1.984-1.891-6.445,1.392-11.642l-0.624-5.586c-0.225-2.015-0.154-4.033,0.075-6.099l0.757-6.847l1.253-11.484
			c0.321-0.73,1.146-2.65,1.22-3.446l0.561-5.975l0.274-10.653c0.038-1.465,0.707-4.555,1.271-5.844
			c1.245-2.002,1.682-3.246,1.222-5.636l1.059-5.697c0.551-2.963,1.027-5.805,1.255-8.691l0.466-5.903
			c0.194-2.451,0.468-4.816,0.953-7.261l1.141-5.755c0.995-5.017,1.874-9.982,3.192-14.839c0.606-2.232,1.274-3.779,0.776-6.153
			l2.026-3.252c6.392,0.149,10.571,3.241,16.58,5.486l10.97,4.097c4.979,1.86,8.371,1.424,10.95,2.389
			c3.363,1.258,5.958,2.174,9.248,2.86l4.381,0.914c1.522,0.318,3.254,0.86,4.679,1.009l5.45,0.57
			c2.286,0.239,4.742,0.581,6.927,1.241l7.035,2.125c1.259,0.38,3.406,1.102,4.579,1.224l6.083,0.633l12.568,0.476l4.545,0.296
			c1.188,0.077,3.899,0.762,4.924,1.323l1.552,0.849c0.299,0.164,1.168-1.005,1.506-0.959l5.474,0.733l3.961,0.079l2.914,0.969
			l6.014,0.765l6.045,0.767l6.236,1.263l5.519,0.99l7.673,0.352l4.455-0.093c6.307-0.132,12.414,0.514,18.687,1.21l6.787,0.754
			l5.216,0.516l3.785,0.34l4.994,0.394l5.541,0.165l4.495,0.233l5.9,0.667l22.3,0.198l3.227,0.552l8.183,0.276l6.614,1.159
			l7.538,0.456l6.791,0.481l5.228,0.268l4.599-0.088l6.766-0.261c2.167-0.084,5.272,0.642,7.113,1.347l1.043-6.556l0.165-4.407
			l0.879-2.17l0.172-6.133l0.336-5.777l0.413-7.715l0.649-5.161l-2.016-2.305c-0.387-0.443-0.862-1.526-1.493-2.822l4.822-3.044
			c3.115-1.967,6.257-3.681,10.24-3.259l4.842,0.514l4.491,1.26c1.113-3.872,2.364-5.741,4.877-7.63H371.394z M90.375,543.295
			l-0.436,5.862l-0.817,5.031l-0.836,3.433l5.788,2.175l8.786,3.422l2.858-2.435l1.882,1.216l-0.264,2.616l8.466,2.123l4.667,1.274
			l11.859,2.518l2.991,0.876l4.724,0.967l6.687,0.945l8.71,2.405l2.947,0.717l6.142,0.917l5.595,1.097l8.891,0.293l11.075,0.527
			l3.808,0.208l7.582,0.504l6.599,0.785l16.449,2.427l5.386,0.304l6.76,0.542l7.486,0.81l5.996,0.67l7.539,0.843l5.163,0.924
			l6.813,0.849l8.146,1.229l23.08,0.309l4.503,0.585l6.137,0.514l6.204,0.508l3.402,0.06l5.551-0.304l4.681-1.122l7.813-0.496
			l5.105-0.215l4.571-0.027l9.44-1.615l7.787-1.342l0.182-9.003c0.521-0.384,1.519-1.066,1.297-1.374l-0.868-1.201
			c-0.493-0.682-0.726-2.9-0.534-3.743l1.513-6.646c-1.203-3.558-0.262-6.741-0.472-9.92l-0.591-8.953l-1.494-9.443l-0.643-4.858
			l-1.042-5.631l-1.2-6.217l-0.294-4.651l-0.712-5.021c-0.242-1.708,0.119-3.732,0.631-5.196c-0.312-1.2-1.161-3.987-1.068-5.338
			l0.395-5.747l0.713-5.845l-0.73-3.216l-0.018-6.263l0.054-3.833l0.206-4.553l0.388-4.525l-0.028-3.629l0.062-8.943l1.054-7.142
			l0.524-10.123l0.43-5.994l0.643-6.803l0.982-6.029l0.554-5.166l0.646-6.01l0.719-6.738l0.393-3.691l0.035-3.136l-0.018-11.093
			l0.384-4.283l0.506-4.706l-0.062-5.288l0.909-11.463l0.549-7.249l0.22-5.074l0.143-5.365l0.176-6.022l0.197-6.635l0.354-4.009
			l1.066-6.693l0.437-6.03l1.259-6.63l0.421-8.917l0.564-6.104l0.665-4.788l1.059-5.565l0.523-5.511l0.649-4.93l0.118-5.347
			l0.69-7.417c-0.731-2.57-0.62-5.373,0.717-7.476c-0.714-3.174-0.523-6.255,0.726-9.378l0.901-5.588l0.325-12.214l0.718-5.074
			l1.16-6.729l0.461-8.926l0.239-4.637l0.519-5.218l0.253-7.538l0.759-6.688l0.418-13.487l0.209-4.369l0.047-7.766l1.252-5.954
			c0.206-0.98-0.049-3.2-0.068-4.359l-0.272-16.541l-0.003-3.655l0.344-6.784c0.05-0.99,0.778-3.245,0.179-4.005l-2.714-3.442
			c-2.041-2.589-1.969-5.979-0.775-9.399c0.77-2.206,3.402-4.071,6.637-5.594l-0.892-2.625c-0.895-0.181-2.565-1.076-2.835-1.714
			l-2.341-5.54l3.175-5.992l-0.546-3.749l0.76-5.166c0.246-1.674,1.807-3.715,2.808-5.129l2.911-4.109l0.464-4.138l0.041-6.117
			l0.071-4.064c2.183-2.948-0.017-4.039,1.149-7.143c1.358-3.619-2.441-6.921-0.223-14.42l-1.861-3.814
			c-0.292-0.599-2.394-0.515-3.085-0.38l-4.625,0.905c-1.437,1.459-3.359,4.47-3.402,6.858l-0.116,6.333l-0.189,5.335
			c-0.022,0.633-0.523,2.13-0.852,2.968c-0.617,1.575-3.831,2.652-5.013,1.415l-0.254-11.271l-0.348-4.853l-0.899-3.724
			c-0.362-1.501-1.471-4.25-2.316-5.589l-2.61-4.134c-0.25-0.396-1.136-1.048-1.509-1.234c-0.248-0.124-1.046,0.955-1.111,1.275
			l-1.542,7.644l-0.56,8.591l-0.498,7.9c-0.064,1.02-1.267,3.131-1.836,4.37l-3.939,0.382l0.345-5.366l0.312-3.67l0.707-6.161
			l0.178-6.558l-2.304-3.619l-4.555-0.596c-1.136-0.149-3.547,1.023-4.432,1.74l-3.515,2.851l-0.463,8.338l-0.741,6.373
			l-1.086,5.473c-0.217,1.093-0.211,1.85,0.015,3.266l-0.284,5.252l-1.148,6.862l-0.453,7.418l-0.712,8.258l-0.402,5.153
			c-0.125,1.607,0.074,3.79,0.344,5.459l0.868,5.353c0.424,2.613-0.181,7.122,1.821,9.507c2.124,2.531,6.702,3.272,9.666,4.319
			l3.093,1.382l4.598,2.316c2.353,1.185,4.207,4.812,3.19,7.464c-1.707,4.452-9.619,7.356-11.698,7.164l-6.608-0.61
			c-3.848-0.355-7.345-0.481-10.101,2.394l-4.878-0.786l-9.833-1.379l-6.813-0.626c0.025,3.528-0.277,6.763,0.361,9.663l1.475,6.697
			l2.574,3.387c0.852,1.121,3.599,2.977,5.019,3.112c1.946,0.185,4.402-0.822,6.412-1.614c2.168-0.853,6.446,0.151,6.443,2.913
			l-0.018,14.127l-1.118,7.969l-0.943,8.572c-0.251,2.284-0.68,4.088-1.021,6.333l-0.845,5.562l-0.537,6.156l-1.125,5.824
			l-0.823,13.574l-0.626,5.325l-1.453,7.604l-0.862,5.796l-0.792,6.158l-1.022,3.826l-0.02,4.807l-0.943,7.762l-0.988,8.133
			l-0.742,6.102l-0.354,5.747l-0.933,6.604l-1.103,7.813l-0.479,4.863l-0.419,5.695l-1.192,7.433l-0.349,8.083l-0.762,6.071
			l-0.714,5.21l-0.845,5.889l-0.64,4.628l-0.72,6.82l-1.277,9.686l-0.672,4.656l-1.005,6.773l-0.746,5.694l-0.862,6.122
			l-0.826,5.919l-0.2,6.948l-0.856,5.779l-0.318,8.871l-0.45,3.222l-0.448,8.041l-0.132,5.038c-0.049,1.861,0.18,3.405-0.006,5.113
			l-1.112,10.206l-0.495,4.737l-0.135,7.248l0.016,3.75l-0.189,16.508l0.016,3.729l-0.13,13.464l-0.107,7.481l-0.392,3.167
			l-0.033,13.189l0.648,3.368l0.384,11.71c0.075,2.291,3.102,4.867,0.116,7.615c-1.416,1.304-4.647,0.49-6.423-0.549l-5.437-0.796
			l-4.548-1.283l-5.773-1.024l-5.751-1.104l-6.349-2.287l-7.654-1.685l-5.688-0.914l-7.317-0.362l-5.35-0.699l-8.274-0.797
			l-8.226-0.659l-4.672-0.394l-28.058-0.656l-11.136-1.622l-6.908-1.166l-4.245-1.01l-9.175-2.101l-4.688-0.489l-10.984-0.393
			l-6.162,0.181l-4.515-0.07l-5.476-0.899l-10.775-0.251l-3.459,0.772l-13.813-0.192c-2.536-0.035-0.015-7.592-1.113-11.59
			l-2.482-9.033c-0.637-2.319-2.765-5.381-4.423-7.244l-5.418-6.089c-0.725-0.815-2.641-1.702-3.698-2.068l-7.258-2.511
			l-4.967-1.694l-8.84-5.187l-6.234,1.725c-2.162,0.598-5.018,4.616-5.084,6.904l-0.189,6.495c-0.106,3.646,5.202,7.362,9.987,8.695
			c1.612,0.449,3.718,0.393,5.327,0.363l3.988-0.075l2.348-2.865c0.49-0.598,2.346-0.019,2.931,0.521l3.138,2.902l0.147,4.24
			l3.49,1.254c1.5,2.48,3.754,5.958,4.351,8.653l1.555,7.023l0.865,6.438l0.095,15.027l-1.327,5.991L90.375,543.295z M60.664,450.72
			l0.275-10.246l0.374-7.671l0.166-5.826l0.187-6.563l0.028-5.99l0.24-3.874l0.188-11.098l0.293-4.596l-0.491-11.306L61.476,376
			l-0.43-7.172c2.705-4.146-0.528-5.138-0.626-8.454l-0.32-10.811l-0.546-5.559l0.077-3.015l0.105-4.838l0.375-24.33l0.714-4.548
			l0.94-6.103c0.25-1.626,0.023-3.324-0.151-5.533c-0.143-1.818,0.853-5.353,0.903-7.293l0.215-8.323
			c0.033-1.287,0.672-3.399,1.14-4.622l0.15-2.68l2.204-14.084l0.397-4.69l0.931-9.777l0.458-5.939l0.7-6.864l0.467-6.418
			c1.099-3.886,1.572-6.944,0.892-10.764l0.269-2.843l0.259-5.194l0.3-5.537l0.597-10.198c0.129-2.204,0.247-4.033-0.064-6.341
			c-1.185-8.807,2.429-10.062,0.243-13.501c1.626-3.031-0.172-5.239,0.72-10.391l0.901-5.204l0.248-4.358l1.355-8.408l0.541-2.859
			l1.397-7.713l0.75-6.456l0.205-7.53l0.32-6.03l0.23-4.276l0.285-6.308c0.113-2.503,0.686-5.01,1.238-7.603l-0.58-5.835
			c-0.258-2.598,1.696-5.728,4.439-4.985c6.04,1.636,8.655,0.945,13.256,2.352l5.722,1.75c0.891,0.272,3.388,0.194,4.353,0.348
			l10.092,1.61l9.217,1.325c4.219,0.607,8.068,1.624,12.242,2.404l3.35,0.626l2.31,0.386c3.347,1.352,6.365,0.62,11.992,1.875
			l11.146,2.486c0.935,0.209,3.012,1.135,3.977,1.165l6.723,0.213l5.456,0.169l5.614,0.755l3.756,0.548
			c3.566,0.52,6.53,0.863,10.277,1.698c2.052,0.458,5.641,0.178,7.835,0.47l6.11,0.812l6.001,0.016l8.971-0.542
			c2.744-0.166,5.005,0.008,7.751,0.358l4.184,0.534l9.753,0.269l3.062,0.399l3.68,0.104l11.226,0.265l5.235,0.777l4.606-0.044
			c4.407-0.042,8.975,0.814,13.369,1.134l11.299,0.825l6.005,0.752l3.486-0.428l8.44,1.623c2.078,0.4,5.36,0.699,6.969,0.093
			c1.986-0.747,2.557-0.759,4.395-0.661l11.695,0.62c3.955,0.21,8.756,1.079,11.252-2.959c0.069-1.561-2.085-4.131-3.64-4.706
			l-6.148-2.275l-3.682-1.453l-9.579-4.864l0.521-5.088l0.411-6.557l-0.058-3.708l0.316-9.936l0.423-7.964l-1.257,0.517
			l-3.863-0.331l-7.738-0.655l-7.795-0.018l-11.772-1.037l-7.274-0.432l-5.199-0.741l-5.343-0.761l-5.982-0.854
			c-1.721-0.246-3.507,0.037-5.548,0.065l-16.039,0.219l-3.245-0.641l-5.225-0.628l-9.577-0.571
			c-1.319-0.079-2.534-0.564-3.765-0.519c-3.335,0.122-6.604,0.282-9.592-0.127l-8.397-1.152l-6.887-0.656l-6.064-0.312
			l-8.708-0.114l-5.282-0.134l-3.807-0.175l-7.785-1.299l-8.819-1.706l-6.005-0.733l-4.429-0.69l-6.685-0.638l-5.199-0.496
			l-10.468-1.438l-5.229-0.448l-5.331-0.155c-3.138-0.091-6.187-0.51-9.217-1.136l-8.233-1.7c-1.994-0.412-4.697-1.469-6.531-2.215
			c-8.408-0.327-18.054-1.912-24.736-5.995c-3.984,3.107-12.899-2.219-18.164-3.69l-5.179-1.448l-9.005-3.608l-2.479,6.573
			c-1.535,4.072-0.723,6.992-1.488,11.746l-1.457,9.065l-0.846,5.262c-0.328,2.043-0.807,4.175-1.413,6.22
			c-0.884,2.984-1.232,5.862-1.676,8.881l-0.536,3.643l-0.856,6.621l-0.58,6.392l-1.681,12.204l-0.85,7.545l-0.641,5.285
			l-0.482,5.022l-0.44,5.236l-0.376,4.591l-0.613,7.603l-0.574,8.145l-0.108,5.881l-0.381,7.656l-0.489,5.87l-0.266,5.33
			l-0.855,7.475l-0.622,6.216l-0.148,4.98l-0.354,7.542l-0.446,6.791l-0.637,7.498l-0.532,4.675l-0.323,3.534l-0.587,6.079
			l-0.354,6.694l-0.107,3.639l-0.75,6.778l-0.666,6.009l-0.613,6.029l-0.483,4.625l-0.71,4.834
			c-0.212,1.442-0.367,2.449-0.369,4.042l-0.014,15.462l-0.659,3.944l-0.319,8.852l-0.184,6.321l-0.426,23.797l0.007,6.124
			l0.088,26.893l0.038,10.55c0.004,1.054-0.556,3.113-0.871,3.903c0.259,0.547,0.934,2.468,0.949,3.508l0.232,15.67
			c0.048,3.266-0.037,5.929,0.029,9.251l0.142,7.161l0.187,5.375l-0.152,8.023c-0.057,2.982-0.388,5.575-0.056,8.531l0.559,4.972
			l0.28,6.99l0.435,4.366l0.584,7.485l-0.145,7.548l-0.204,9.979l0.875,6.51l0.437,8.151l0.646,6.776l7.361,1.075
			c1.935,0.283,4.437-0.3,6.181,0.08l5.976,1.302l7.509,1.866c4.194,1.042,8.918,7.828,6.767,9.353
			c-1.873,1.328-5.291,3.126-7.103,3.869l-6.692,2.743l3.741,1l4.723,0.142c6.365,0.192,12.026,5.752,10.194,7.549l-3.868,3.795
			c-0.846,0.83-2.408,1.982-3.38,2.414l-7.643,3.399c1.879,0.498,4.798,1.121,5.899,1.977l2.547,5.558l-4.993,4.465l-5.19,3.597
			l-7.348,4.286c-1.411,0.823-4.78,1.912-6.418,2.099l-6.242,0.714c-0.656,0.075-2.586,0.547-2.683,1.145l-0.82,5.05l-0.688,5.183
			l-0.438,8.265l-0.571,8.419l0.609,5.886c0.363,3.507,0.86,7.482,4.31,9.374c1.843,1.011,5.96,0.169,7.497-1.56
			c1.088-1.224,1.727-3.674,2.161-5.241l1.641-5.921l1.312-4.491c-0.333-1.318,0.045-4.681,1.322-5.358
			c0.632-0.335,2.762-0.35,3.65-0.307l1.779,6.615l0.612,6.046l0.863,7.063c0.178,1.456,0.863,3.799,1.884,5.201
			c0.852,1.17,4.555,1.628,5.929,1.111l2.288-7.351l1.374-6.91l1.41-3.64c0.127-0.327-0.601-5.768,3.241-10.618
			c1.153,0.148,3.619,1.449,3.93,2.446c0.585,1.876,0.411,4.964,0.319,6.809l-0.183,3.684l-0.03,6.278
			c-0.01,2.144,0.184,3.746,0.89,5.754l-0.048,2.258c-0.009,0.416,1.799,0.97,2.264,0.843c1.66-0.453,3.373-2.956,3.986-4.788
			l1.879-5.616l3.301-9.445l0.423-7.786l1.82-5.963l3.301-11.083c0.178-0.599-0.997-2.461-0.535-2.753l2.427-1.536l-0.85-4.177
			c-0.368-1.805-0.093-4.304,0.095-6.301l0.55-5.853l0.61-6.81l-0.411-5.173l0.362-5.252l0.308-4.543
			c0.078-1.147-0.608-3.373-0.908-4.792l-1.315-6.214l-2.968-7.151c-2.429-1.725-4.507-3.348-6.556-5.872
			c-0.475-0.585-1.862-0.809-2.865-0.991l-3.978-0.723l-1.256,0.828l-7.358-0.723c-3.212-0.316-6.036-2.401-7.386-5.197
			c-2.959-2.348-4.05-6.161-2.516-9.545c-1.934-4.93-0.257-9.109,3.091-12.779c1.246-1.367,2.667-3.054,4.403-3.716
			C59.053,454.638,60.598,453.184,60.664,450.72z M401.387,64.329l8.753-3.081c0.883-0.311,2.106-2.8,1.497-3.415
			c-2.454-1.146-6.689-2.579-9.096-3.021l-6.236,4.631c-1.631,1.211-3.53,7.875-2.508,7.749c0.508-0.063,1.563-0.356,2.142-0.597
			L401.387,64.329z M403.42,83.398c3.707-4.491,9.638-4.657,11.194-12.934l-3.526-1.986c-2.57-1.448-4.109,3.059-8.859-0.095
			l-4.477,2.3l-1.46,2.93l-4.223,1.71c-1.494,3.123,0.392,5.766,2.891,7.473l2.531,1.728L403.42,83.398z M398.17,103.305
			c3.328-0.712,6.714-1.952,9.016-4.753c2.974-3.619,7.018-12.171,4.201-14.689c-3.019,1.759-5.466,3.253-8.505,3.803l-5.315,0.962
			l-4.95,2.999c-0.698,0.423-2.44,1.994-2.439,2.79l0.006,4.651C392.474,98.998,393.78,104.245,398.17,103.305z M298.859,486.504
			l-0.037-2.706l-0.055-16.935l0.767-3.44l-0.22-16.711l-0.084-4.832l0.547-6.652l0.494-6.008l0.496-6.033l0.502-8.091l0.16-2.967
			c0.116-2.142-0.212-4.779,0.027-7.035l0.755-7.15l-0.006-6.294l0.556-7.358l0.682-6.709l0.686-6.107l2.058-10.549l1.11-3.317
			c-0.45-0.848-0.989-2.621-0.823-3.513l3.336-17.873l0.341-6.525l2.031-11.242l0.548-6.998c0.223-2.846,1.941-4.341,0.41-9.776
			l1.195-6.488l0.802-12.105l0.983-5.927l1.118-5.77c0.343-1.771,0.3-3.006,0.55-4.928l0.568-4.359l0.256-4.043l0.916-8.654
			l1.023-6.691l0.502-5.437l0.329-4.935l0.79-5.331l1.073-8.654l0.528-7.52l1.835-13.076l0.63-6.01l0.664-7.936l0.574-5.373
			l0.684-5.392l0.582-6.826l0.599-5.847l0.193-19.538l-4.472,0.121c-4.669,0.931-9.343-0.027-11.644-4.535l-2.144-4.201
			l-2.355-5.287c-0.49-1.099-1.731-3.709-1.761-4.975l-0.191-8.266c-0.431-0.546-2.639-1.352-3.549-1.373l-5.675-0.132
			c-1.355-0.031-2.872-0.773-4.622-0.926l-6.975-0.61l-6.075-0.728l-6.729-0.612l-6.872-0.472l-12.536-0.332l-3.247-0.552
			l-9.505-0.263l-4.549-0.049l-3.715,0.112l-16.574,0.133l-4.357-0.268l-6.896-0.184l-4.319-0.541l-5.174-0.723l-6.078-0.755
			l-6.793-0.8l-9.168-1.686l-4.276-0.188c-3.825-0.168-7.556-0.468-11.11-1.651l-7.635-2.542c-3.781,0.754-7.845-1.321-13.867-1.964
			l-12.349-1.319l-5.545-1.011l-4.901-0.725c-5.107-0.756-9.747-1.231-14.973-1.683l-6.068-1.77l-7.985-0.286l-0.676,7.007
			l-0.542,5.668l-0.499,6.127l-0.468,6.783l-0.445,9.775l-0.932,5.59l-1.259,7.025l-0.999,6.629l-1.297,8.391l-0.097,3.709
			l-0.593,6.06c-0.492,5.028-0.633,9.884-0.698,14.953l-0.087,6.768l-0.119,7.75l-0.333,7.203l-0.359,9.68l-0.557,6.075
			l-0.486,5.293l-0.429,6.617l-0.789,6.737l-0.871,6.796l-0.538,4.463l-0.823,7.488l-0.738,6.742l-0.742,6.779l-0.714,5.081
			l-0.734,5.452l-0.997,7.381l-0.137,3.788l-0.796,8.987l-0.677,7.646l-0.33,10.267l-0.55,3.193l-0.257,17.702l-0.292,3.893
			l0.187,4.608l0.477,4.436l-0.082,6.882c-0.018,1.502,0.549,3.699,0.717,5.316l0.458,4.416l0.303,12.485l0.665,3.096l-0.086,21.714
			l0.009,3.743l-0.062,14.989l0.012,4.497l-0.183,9.549l-0.192,8.293l0.231,4.746l0.372,5.661c1.438,0.178,3.737,0.646,4.702,1.247
			l7.052,4.386c4.282,2.663,9.446,1.708,15.083,5.943l3.357,3.914l2.461,1.386l3.764,5.3c1.568,2.208,2.48,5.123,3.504,7.776
			c1.548,4.013,2.854,7.712,2.64,12.368c-0.047,1.033,1.7,3.041,2.83,2.957l5.318-0.396c3.725-0.278,6.93-0.319,10.619-0.022
			l10.416,0.837l23.918,0.491l6.643,1.388l5.226,0.869l9.019,1.892l7.333,1.002l10.067,1.963l4.384-0.042l20.892,0.316l4.709,0.203
			l5.869,0.475l4.16,0.45l10.078,0.97l7.51,0.485l8.386,1.376l6.92,1.478l4.356,1.401l12.005,2.499l5.11,0.271l2.828,0.519
			l0.234-5.654l0.168-4.063l0.241-5.143l0.35-7.381L298.859,486.504z M34.444,509.714l9.612-2.203l5.791-2.317
			c0.436-0.174,1.242-0.952,1.258-1.396c0.092-2.606-5.684-4.195-10.187-5.265l-7.442-1.769c-1.307-0.31-3.282,0.105-4.57,1.114
			c-1.325,1.037-2.835,0.304-4.247,0.194l-4.818-0.374c-5.105-0.397-11.157,3.999-10.926,6.743c0.157,1.859,4.74,4.372,6.842,4.695
			l5.306,0.816C25.136,510.579,30.439,510.632,34.444,509.714z M34.21,530.588l9.063-1.897c1.924-0.403,4.01-1.476,5.638-2.535
			l7.038-4.582c-1.259-1.342-2.738-2.59-3.748-2.875l-5.479-1.544c-1.944-0.548-4.91-1.273-6.861-1.097l-8.852,0.795l-2.201-2.803
			l-6.619,1.576l-9.637,2.467c-1.236,0.316-3.994,2.028-4.193,3.273c-0.205,1.287,1.643,3.29,2.323,4.272l2.619,3.781l3.06,0.402
			l6.119,0.804C26.242,531.119,30.019,531.465,34.21,530.588z M23.987,549.387l6.903-0.446c1.629-0.105,5.072-1.296,6.469-2.177
			l6.097-3.846l4.405-2.964c0.667-0.449,1.312-2.798,0.665-3.258l-3.13-2.225c-0.749-0.532-3.242-1.014-4.173-0.983l-7.379,1.12
			l-4.655,0.572l-11.97,0.654c-2.663,0.146-7.154,3.033-9.281,4.405c-0.554,0.358-0.35,2.849,0.229,3.256
			C13.152,547,17.749,549.79,23.987,549.387z M100.528,573.33l1.131-3.695l-3.908-1.479l-7.201-2.361l-3.327-0.818l-2.926,5.314
			c-0.334,0.607-0.585,2.349-0.083,2.679l1.966,1.291l-0.602,3.029c1.475,1.877,4.492,4.021,6.731,4.743l3.325-1.886
			C97.315,579.191,99.92,575.314,100.528,573.33z"/>
		<g>
			<path d="M196.575,242.27l-5.5,1.35l-6.657,0.782l-3.962,0.173l-3.916,0.173l-13.988,0.156l-4.744-1.118l-2.251-3.328l-4.48,0.489
				c-9.169,1.001-14.554-1.05-20.346,0.081c-1.177,0.23-2.972-0.337-4.772-1.171l3.692-2.427c0.873-0.574,3.326-1.15,4.373-1.132
				l3.844,0.064l7.6,1.297c1.347,0.23,4.343-0.562,5.745-0.767l6.307-0.922c4.01-0.586,4.351,3.67,7.713,4.028l6.237,0.663
				l4.258,0.254l6.23-0.238l5.347-0.151c5.469-0.155,8.11-2.012,8.45-1.549l0.812,1.109
				C196.754,240.344,196.884,242.195,196.575,242.27z"/>
			<path d="M269.659,245.159c-1.406,0.444-4.156,1.237-5.284,1.228l-10.511-0.089l-5.772-0.837l-4.884-0.263l-14.105-0.331
				l-4.638-0.241l-8.087,0.07c-0.399,0.003-1.346-1.368-1.498-1.743c-0.151-0.372,0.626-1.538,1.083-1.788
				c3.385-1.854,8.381-1.117,12.494-0.977l10.307,0.351l2.592,0.48l6.272-0.995l4.833,0.465l5.94,1.972l8.072,0.307l2.695-1.707
				C270.152,241.382,270.809,244.796,269.659,245.159z"/>
			<path d="M147.276,158.937l-4.427-1.563c-2.368-0.836-3.963-0.607-6.352-0.028l-8.163,1.977c-1.252,0.303-3.812,1.91-5.033,1.501
				l-4.193-1.405c-0.44-0.147-1.088-1.277-0.831-1.638c0.257-0.361,1.241-1.233,1.682-1.252l5.141-0.216l8.935-1.96
				c2.479-0.544,4.997-1.034,7.114-1.907l3.867-1.595c0.583-0.24,2.594,0.1,2.657,0.736l0.246,2.496l4.963,0.789l6.847,1.433
				l3.439,0.587c2.238,0.382,4.865,0.378,7.065,0.123l2.059-0.239c1.441-0.167,2.005,4.289-9.801,3.243l-4.409-0.391l-6.795-0.352
				C150.365,159.23,148.194,159.261,147.276,158.937z"/>
			<path d="M202.281,216.158c-3.155-1.199-5.748,0.78-11.91,0.115c-1.404-0.151-2.703-0.219-4.05-0.055l-5.249,0.639l-6.542-0.451
				l0.045-3.872l7.579-0.421l3.484,0.174c3.226,0.161,5.944,0.265,9.099-0.016l6.706-0.596c1.926-0.171,5.497,2.199,7.535,2.286
				l11.814,0.504c1.335,0.057,4.165,1.488,5.437,1.986c0.55,0.216,0.998,1.997,0.701,2.515c-0.296,0.518-1.872,1.38-2.428,1.196
				l-5.475-1.82c-2.296-0.763-6.037-0.113-8.433-0.252l-4.149-0.603C205.313,217.324,203.946,216.791,202.281,216.158z"/>
			<path d="M230.305,167.909l-8.09-1.189l-13.243-1.093l-5.968-1.036l-6.826-0.642l-10.342-0.781l-1.786-3.079
				c1.694-2.115,4.614-2.378,7.042-1.452l3.367-0.488c0.821,1.57,2.406,2.579,3.803,2.19c5.858-1.629,10.703-0.917,16.147,1.351
				c2.07,0.266,6.382-0.201,8.304,0.487l6.126,2.192C229.32,164.541,229.614,165.287,230.305,167.909z"/>
			<path d="M155.279,187.698l-2.285-0.917l-9.773-1.784c-8.02,4.742-13.067-0.56-19.326,2.848l-2.193-2.274l4.185-1.727l5.25-0.922
				c4.811,1.152,8.924,0.794,13.406-1.838c1.326-0.778,4.379-0.423,5.784,0.158l4.564,1.89c6.424,2.66,13.234,1.657,11.995,4.278
				l-3.397,2.435c-0.528-0.465-3.237-1.831-4.548-1.915L155.279,187.698z"/>
			<path d="M150.521,214.472c-5.73-0.853-10.855,1.296-17.021,0.369l-5.327-0.801l-4.511-0.676
				c-0.308-0.046-1.697,0.289-1.866,0.032l-1.2-1.818c1.883-2.423,4.626-2.948,7.8-2.236l7.49,1.681
				c3.456,0.775,12.252,0.543,15.785-2.27l1.873,3.717L150.521,214.472z"/>
			<path d="M233.377,192.775c-8.097-0.102-10.641,3.515-13.379-0.14c0.999-2.157,3.268-2.499,5.293-2.605l4.42-0.233
				c3.392-1.55,7.143-1.748,10.73,1.018c-0.008,0.672-1.794,2.026-2.742,2.014L233.377,192.775z"/>
			<path d="M199.402,189.826c-2.557,1.942-4.963-1.602-9.987-1.79c-1.964-0.074-3.002-0.629-5.178-1.95
				c-0.424-0.403-0.568-2.033-0.102-1.724l3.882-1.467l3.018,1.18l6.012,0.828c0.803,0.111,2.19,1.048,2.657,1.635
				C200.171,187.126,199.999,189.372,199.402,189.826z"/>
			<path d="M255.69,220.653l-5.085,0.077l-6.131-1.372c-0.428-0.096-1.602-1.511-1.297-1.829l1.442-1.504
				c0.768-0.801,3.436-1.262,4.522-0.969l4.001,1.08l5.972,0.752l-0.091,3.267L255.69,220.653z"/>
			<path d="M273.061,199.831l-5.218-0.335l-7.438-0.269l-1.447-2.945c5.488-2.985,14.288-2.097,17.396,2.879
				C275.375,199.54,273.816,199.88,273.061,199.831z"/>
			<path d="M250.596,173.577l-2.088-2.68c2.81-1.948,5.391-1.839,8.57-1.058l5.543-0.792l3.326-0.475
				c-1.186,4.676-6.03,6.079-9.974,4.652C254.568,174.369,251.786,175.104,250.596,173.577z"/>
			<path d="M279.981,223.849l-0.984,3.237l-5.502-0.397c-0.934-0.067-1.667-2.659-1.198-3.473c0.691-1.197,2.769-1.744,4.041-1.129
				L279.981,223.849z"/>
			<g>
				<path d="M228.135,412.776l-5.21,2.82l-3.651,2.841l-4.398,2.614l-2.856,2.16l-2.172,1.831l-3.51,2.425
					c-2.049,1.416-4.764,1.596-7.381,0.051c1.186-3.96,5.343-5.209,5.737-9.319l-3.878,1.375l-7.273,2.579
					c-1.17,0.415-2.769,0.913-3.951,1.086l-3.917,0.571l-6.222,2.229l-7.654,3.004c-1.815,0.712-3.973-0.242-4.832-1.908
					c-0.355-0.688-0.842-1.596-0.578-1.908l1.208-1.428l4.001-4.931l7.14-9.41l4.076-5.534l3.87-5.453l1.126-4.765l-4.541,2.373
					l-9.734,5.935l-11.256,7.55l-5.076,3.737l-4.081,3.638l-4.612,3.47l-3.911,3.175c-1.255,1.019-4.745,1.498-6.153,0.787
					c-0.404-0.204-1.028-1.918-0.786-2.3c0.322-0.51,1.081-1.411,1.613-1.738l3.787-2.327l7.001-3.727
					c1.214-0.646,3.238-2.627,4.257-3.582c3.229-1.462,5.442-3.464,8.421-5.25l7.95-4.766l6.334-4.648l7.162-3.584l7.163-4.657
					c0.4-0.26,2.036-0.946,2.264-0.565l1.399,2.339c0.788,1.318,0.136,3.996-0.773,5.26l-2.935,4.085l-2.872,3.817l-4.213,5.527
					l-4.8,6.638l-3.339,3.883l-3.072,5.238l4.122-1.218c3.859-1.141,7.268-3.019,11.233-3.725l5.148-0.917l5.582-0.75
					c0.151-0.146,1.627-1.482,2.264-1.805l6.789-3.45l3.479-1.866l2.33,3.941l-0.48,2.559c1.115-0.375,2.598-0.928,3.34-1.41
					l6.031-3.915c4.563-2.962,10.389-4.227,11.206-2.308c1.267,2.976,0.247,6.338-1.14,9.509l-2.57,5.875l9.312,1.009l6.968-0.676
					c1.914-0.186,4.683,2.663,6.439,3.449c4.626,2.071,9.696,1.936,14.585,1.27l2.572,1.454l-1.375,3.385l-9.892,0.522
					c-2.128,0.112-6.213-0.632-8.55-1.59l-7.34-3.01c-1.451-0.595-4.706-0.541-6.372-0.503l-5.349,0.122
					c-5.521,0.126-8.002-3.254-7.59-4.92c0.214-0.866,1.169-2.003,1.773-3.229l2.964-6.013l0.595-1.33
					C229.247,414.099,228.648,413.394,228.135,412.776z"/>
				<path d="M270.131,447.252c2.177,0.173,2.923,3.963,1.377,4.866c-1.016,0.594-3.482-0.055-4.681-0.618
					c-2.837-1.331-6.668,0.873-12.543-3.245l-6.556-0.95l-6.762-1.652l-9.012-0.137L227.617,445l-17.846-1.863l-7.052-1.742
					c-1.11-0.274-2.513-0.637-3.373-0.679l-6.269-0.305l-6.643,0.619l-9.496-0.065l-5.638-0.383l-6.692,0.366l-5.612,0.773
					l-5.031-0.003l-5.948-1.01l-3.941-0.826l-7.609,0.039l-4.783,0.319l-1.315-0.957c-0.256-0.186-0.239-1.771-0.088-2.049
					c0.467-0.856,2.612-1.713,3.618-1.728l5.611-0.084l4.308,0.401l7.685,1.324l6.294,0.667l5.568-0.056
					c2.942-1.723,4.179-0.344,9.021-0.83c3.919-0.393,7.868-0.081,11.877,0.411l4.609-0.44l10.891-0.183l3.261,0.505l8.423,2.169
					l7.871,0.403l3.921,0.145l4.66,0.366c1.24,0.097,3.109,1.281,4.313,2.277c0.281-0.119,2.46-1.308,3.172-1.295l8.605,0.157
					l5.079,1.495l5.807,0.673c1.957,0.227,5.273,2.327,7.227,3.513l3.025-0.271L270.131,447.252z"/>
			</g>
		</g>
	</g>
</g>
</svg>
