<?xml version="1.0" encoding="UTF-8"?>
<svg id="svg1" xmlns="http://www.w3.org/2000/svg" xmlns:svg="http://www.w3.org/2000/svg" xmlns:sodipodi="http://sodipodi.sourceforge.net/DTD/sodipodi-0.dtd" xmlns:inkscape="http://www.inkscape.org/namespaces/inkscape" version="1.1" viewBox="0 0 149.59 428.55">
  <!-- Generator: Adobe Illustrator 30.2.1, SVG Export Plug-In . SVG Version: 2.1.1 Build 1)  -->
  <sodipodi:namedview id="namedview1" bordercolor="#000000" borderopacity="0.25" inkscape:current-layer="layer1" inkscape:cx="380.68182" inkscape:cy="569.31818" inkscape:deskcolor="#d1d1d1" inkscape:document-units="mm" inkscape:pagecheckerboard="0" inkscape:pageopacity="0.0" inkscape:showpageshadow="2" inkscape:window-height="754" inkscape:window-maximized="0" inkscape:window-width="1095" inkscape:window-x="135" inkscape:window-y="25" inkscape:zoom="0.44" pagecolor="#ffffff"/>
  <g id="layer1" inkscape:groupmode="layer" inkscape:label="Taso 1">
    <path id="path1" d="M61.04,427.52c-.19-.52-1.73-5.32-3.43-10.69-5.21-16.44-11.88-31.25-14.29-31.72-.66-.13-4.1,1.99-7.66,4.7-4.23,3.23-7.57,5.17-9.66,5.63-1.76.38-4.11.92-5.22,1.18-2.22.53-1.97,1.02-3.56-7.02-.99-5.04-1-18.75-.01-27.53,1.39-12.33,5.64-29.68,9.57-39,1.16-2.75,2-6.39,2.17-9.38.32-5.65.32-5.15-.19-16.87-.25-5.71,0-12.42.71-18.36,1.09-9.22,1.18-9.51,6.43-20.05,4.15-8.33,6.35-11.79,9.95-15.64,6.92-7.4,8.8-8.14,19.35-7.61,10.96.55,28-1.05,34.12-3.2,3.25-1.14,6.4-1.59,11.34-1.63,8.2-.05,10.68.97,13.33,5.54,2.91,5,11.22,32.13,13.26,43.31.49,2.68,1.73,8.25,2.77,12.38,3.3,13.18,3.89,16.56,3.28,18.83-1.04,3.9-2.68,2.64-3.16-2.42-.24-2.53-.82-6.07-1.28-7.88-.46-1.8-1.73-7.33-2.83-12.28-4.1-18.54-7.34-29.97-11.48-40.5-3.56-9.06-5.37-11.86-8.37-12.94-3.34-1.2-12.91-.55-18.63,1.28-6.12,1.95-7.61,2.18-19.22,2.99-8.24.58-11.52.52-15.25-.28-6.19-1.32-9.02-.53-13.71,3.85-4.99,4.67-8.13,9.7-11.84,18.97-1.73,4.33-3.45,8.55-3.82,9.38-1.63,3.62-2.41,16.03-1.88,29.99l.54,14.28-2.61,6.74c-3.37,8.71-4.67,12.81-6.54,20.61-4.35,18.16-5.07,49.65-1.13,49.64,5.54,0,8-1.1,14.7-6.54,3.8-3.08,7.52-5.6,8.27-5.6.83,0,1.94,1.11,2.8,2.81,4.86,9.56,15.85,39.92,15.85,43.79,0,2.21-1.95,3.1-2.64,1.21h0ZM47.47,319.37c-2.88-1.24-4.75-3.77-4.24-5.73.62-2.36,1.58-2.43,4.11-.29,1.86,1.57,2.91,1.92,4.82,1.61,3.63-.59,6.95-3.43,8.67-7.44,1.34-3.11,2.85-4.7,2.85-3,0,3.83-4.07,10.44-8.12,13.17-3.75,2.53-5.35,2.86-8.09,1.68h0ZM73.58,212.48c-4.7-1.14-5.85-4.79-2.88-9.17l1.77-2.61-1.77.34c-2.64.5-2.14-.88,1.13-3.14,4.05-2.81,7.66-3.69,11.22-2.73,2.46.66,3.02,1.21,3.76,3.68.48,1.6.87,4.13.87,5.62,0,2.45-.39,2.97-3.94,5.31-4.52,2.97-6.68,3.55-10.17,2.7h0ZM82.71,207.15c2.46-1.93,2.63-5.29.39-7.53-1.3-1.3-2.13-1.5-4.62-1.1q-4.09.65-4.69,5.02c-.61,4.42-.03,5.13,4.22,5.15,1.62,0,3.51-.61,4.69-1.54h0ZM71.2,178.67c-4.28-1.81-6.02-6.03-3.39-8.21,1.56-1.3,1.4-2.25-.38-2.25-3.77,0-.91-2.08,7.53-5.47,5.44-2.19,10.16.03,12.86,6.04,1.24,2.76,1.3,3.48.46,5.25-.54,1.13-2.25,2.68-3.81,3.44-3.37,1.65-10.66,2.31-13.27,1.2h0ZM83.36,174.87c1.79-.96,1.67-2.93-.39-5.98-1.42-2.11-2.22-2.58-4.69-2.71-1.64-.09-2.55.03-2.04.25.52.22.94,1.05.94,1.85,0,1.14-.54,1.44-2.6,1.44-3.19,0-4.86,2.22-2.9,3.86,3.29,2.74,7.99,3.27,11.67,1.3h0ZM73.43,138.54c-4.42-1.25-8.33-1.82-12.75-1.83-7.46-.03-14.45-1.37-20.67-3.97-2.45-1.02-6.56-2.4-9.13-3.05-7.09-1.8-11.89-4.59-17.39-10.11-5.66-5.69-7.51-9.47-11.26-23.06-2.71-9.83-2.9-15.09-.84-24.21.8-3.56,1.85-9,2.34-12.09.48-3.09,1.13-5.96,1.44-6.38s.75-1.59.98-2.62c2.18-9.76,9.69-23.6,16.83-31.01,4.03-4.18,6.04-5.4,15.57-9.45.82-.35,3.36-1,5.62-1.44s6.75-1.35,9.96-2.01c6.18-1.27,9.46-1.13,5.04.22-1.44.44-5.24,1.39-8.44,2.11-4.04.91-5.6,1.56-5.13,2.13.44.53-.66,3.25-3.05,7.58-4.25,7.68-6.26,10.12-8.36,10.12-1.32,0-1.41-.32-.88-3.19.32-1.75.62-4.54.66-6.19.06-2.47.33-3,1.56-3,1.07,0,1.6.63,1.88,2.22l.38,2.22,1.31-2c.72-1.1,1.31-2.23,1.31-2.52s.9-1.7,2-3.15l2-2.63-2.57.5c-12.29,2.39-24.42,16.19-30.45,34.61-1.08,3.3-2.33,6.47-2.79,7.05-.45.57-1.23,3.78-1.73,7.12-.49,3.34-1.33,8.95-1.85,12.45-1.29,8.66-1.11,13.06.73,18.38.86,2.47,1.77,6.19,2.02,8.25.51,4.13,3.9,13.12,4.96,13.12.37,0,.67.26.67.58,0,1.34,8.05,9.09,9.94,9.57,1.13.28,2.06.79,2.06,1.13s1.1.82,2.44,1.08c1.34.26,3.62.95,5.06,1.53s4.12,1.44,5.94,1.9c2.43.62,3.03,1.02,2.25,1.52-.82.52-.68.68.6.69.92,0,2.93.72,4.48,1.59,2.6,1.46,3.52,1.54,12.21,1.08,9.33-.5,14.5.14,20.51,2.51,2.61,1.03,13.26,1.06,17.65.04,5.07-1.17,18.41-7.94,23.18-11.78,7.14-5.73,15.27-15.31,18.05-21.26,1.37-2.94,3.57-9.44,4.87-14.45,2.13-8.14,2.36-10.1,2.24-18.55-.07-5.2-.5-11.49-.96-13.99-.99-5.48-6.04-17.82-9.49-23.24-1.38-2.16-3.52-5.93-4.75-8.37-2.72-5.39-13.19-16.57-15.52-16.57-1.65,0-5.03-1.25-10.74-3.95-2.73-1.29-4.82-1.6-11.25-1.63-4.35-.02-10.43.24-13.53.57-7.68.84-5.99-.54,2.25-1.85,13.17-2.08,26.92-.29,35.66,4.65,4.74,2.68,13.48,11.65,15.07,15.46.66,1.58,2.89,5.74,4.96,9.25,2.07,3.51,4.23,7.71,4.81,9.34.58,1.63,1.88,4.46,2.9,6.28,1.02,1.83,1.86,3.84,1.86,4.48s.53,1.75,1.18,2.47c.97,1.07,1.02,1.62.28,3-.76,1.42-.69,1.85.45,2.68,1.19.87,1.23,1.21.33,2.9-.88,1.65-.84,2.41.31,5.6.75,2.08,1.07,4.12.73,4.66-.33.53-.71,3.14-.85,5.8-.14,2.66-.73,5.69-1.31,6.75-1.11,2.02-4.86,13.77-4.86,15.23,0,2.23-7.04,12.15-13.05,18.39-7.6,7.89-13.36,11.95-24.79,17.48-11.58,5.6-19.9,6.48-31.16,3.28h0ZM85.43,132.73c0-.54.28-1.3.62-1.69.34-.39,1.73-3.41,3.08-6.71,1.35-3.3,2.8-6.42,3.23-6.94,1-1.23,1.42-7.64.6-9.11-.42-.75.07-2.55,1.47-5.31,1.16-2.3,2.22-5.22,2.35-6.51.48-4.59-2.89-7.88-6.79-6.64-.86.27-4.17.81-7.37,1.2-3.2.39-7.05.91-8.57,1.15-2.27.37-3.34.04-6.12-1.87-4.32-2.97-6.33-6.29-6.94-11.42-.43-3.64-.16-4.87,2.3-10.82,4.01-9.68,4.42-10.43,5.96-10.72,1.7-.33,1.56.23-2.19,8.7-1.52,3.42-2.93,8.03-3.17,10.3-.4,3.89-.28,4.27,2.36,7.49,1.53,1.86,3.22,3.39,3.76,3.39,1.54,0,2.96,2.01,1.76,2.49-.6.24-.46.41.38.45.74.03,2.37-.47,3.62-1.11,1.25-.64,4.35-1.31,6.9-1.47,2.55-.16,6.08-.52,7.84-.78,1.76-.27,4.38-.27,5.81,0,5.05.95,6.12,7.04,2.5,14.14-1.08,2.12-1.6,4.64-1.67,8.05-.08,4.25-.55,5.86-3.28,11.22-1.75,3.44-3,6.45-2.77,6.68.23.23,2.08-.52,4.12-1.66,3.95-2.22,4.59-1.03.68,1.27-1.23.73-3.77,2.65-5.65,4.27-3.57,3.09-4.82,3.6-4.82,1.98h0ZM32.5,120.7c-.21-.56.09-2.33.67-3.94,4.77-13.26,4.55-12.26,3.03-14.05-2.68-3.14-3.1-4.55-2.5-8.41.32-2.05.48-3.83.36-3.95-.12-.13-1.74.85-3.61,2.17-4.55,3.21-10.42,3.94-11.75,1.46-.81-1.51-.99-1.55-2.19-.47-1.64,1.49-5.38,2.2-6.75,1.29-1.77-1.18-.36-3.1,2.28-3.1,1.32,0,2.98-.52,3.69-1.16,1.16-1.05,1.54-1.02,4.06.4,2.47,1.39,3.08,1.46,5.53.61,1.51-.52,4.53-2.37,6.71-4.12,5.42-4.33,7.95-2.98,6.21,3.3-1.25,4.51-.99,8.27.7,9.96,2.08,2.08,1.91,3.7-1.31,12.93-2.62,7.51-4.14,9.61-5.12,7.06h0ZM107.18,114.33c0-.49,1.39-3.58,3.09-6.87,2.54-4.91,4.01-6.72,8.25-10.15,2.84-2.29,5.16-4.48,5.16-4.86,0-1.11,2.61-2.2,3.68-1.54,1.56.96-.74,3.7-6.32,7.54-4.03,2.77-5.39,4.27-7.56,8.35-2.58,4.86-6.3,9.3-6.3,7.52h0ZM7.15,87.77c-.25-.93-.46-2.64-.46-3.8,0-1.6.31-2.06,1.27-1.87,1.3.25,2.72,4.61,2.09,6.43-.54,1.55-2.42,1.06-2.9-.75h0ZM114.68,86.23c0-.95,1.02-3.33,2.26-5.29,2.09-3.3,2.18-3.69,1.12-5.19-1.2-1.72-1.54-5.45-.55-6.06.32-.2.46-1.74.3-3.42-.21-2.16-.64-3.06-1.47-3.06-.65,0-2.22-.33-3.48-.72-1.27-.4-3.23-.91-4.35-1.14-1.45-.29-2.19-1.01-2.54-2.46-1.05-4.38-1.55-4.79-4.43-3.59-5.47,2.29-14.01,4.31-14.81,3.51-1.47-1.47.82-2.83,6.38-3.8,3-.52,6.12-1.23,6.95-1.57.82-.34,3.14-.78,5.14-.97l3.64-.35,1.46,3.29c.8,1.81,1.95,3.29,2.55,3.29s1.09.31,1.09.7c0,.58,1.19.6,4.46.1.19-.03-.07-.46-.56-.95-1.27-1.27-1.12-5.48.23-6.61,1.52-1.26.34-2.65-3.26-3.8-4.19-1.35-4.46-1.71-1.71-2.27,2.52-.52,6.29.33,8.22,1.85.72.56.88,1.79.56,4.21-.39,2.91-.23,3.55,1.09,4.38,1.03.64,1.39,1.43,1.1,2.37-.25.77-.13,1.6.25,1.83.85.52,2.73,10.09,2.1,10.71-.24.24-.77-.4-1.16-1.43-.84-2.22-3.07-3.3-3.94-1.92-.9,1.42-.78,2.49.63,5.45,1.23,2.57,1.21,2.75-.42,5.46-.93,1.54-2.36,4.24-3.18,5.99-1.62,3.46-3.67,4.28-3.67,1.46h0ZM127.62,81.77c.5-1.52,3.71-2.79,7.08-2.8,1.73,0,3.35-.35,3.61-.76.59-.95,3.37-.99,3.37-.04,0,1.05-.99,1.5-6.75,3.09-6.1,1.69-7.74,1.8-7.31.51h0ZM124.89,77.02c-.25-.65-.46-2.02-.46-3.03v-1.84l1.99,1.84c1.81,1.68,1.88,1.95.8,3.03-1.48,1.48-1.77,1.48-2.34,0ZM8.93,73.8c0-.36.51-1.08,1.12-1.59.62-.51,1.12-1.26,1.12-1.66,0-1.08,2.99-5.09,3.8-5.09,1.53,0,.55,2.9-1.98,5.87-2.56,2.99-4.07,3.91-4.07,2.48h0ZM20.33,65.31c-.49-.49-.9-1.68-.9-2.62s-.34-1.72-.75-1.72c-1.14,0-.9-1.15.63-3.04.94-1.16,1.81-1.54,2.73-1.19,1.29.5,1.29.57,0,2-.92,1.01-1.04,1.48-.38,1.48s.84.76.54,2.59l-.42,2.59,2.3-2.62c1.42-1.62,2.55-3.96,2.95-6.12.71-3.83,1.56-5.14,2.83-4.36.99.61,1.07,4.17.15,6.55-.91,2.36-6.04,7.36-7.55,7.36-.67,0-1.63-.4-2.12-.9ZM75.11,56.27c.17-.52,1.63-1.03,3.25-1.14,2.75-.19,2.85-.13,1.49.94-1.78,1.39-5.17,1.53-4.74.2h0ZM17.98,52.21c-1.73-1.21-1.98-3.29-.69-5.71.47-.89.9-2.8.94-4.26.06-2.15.4-2.7,1.76-2.89.92-.13,2.86-1.68,4.31-3.45,2.06-2.51,2.63-3.88,2.63-6.28,0-1.69.34-3.27.75-3.53.82-.5,4.44,3.22,4.48,4.61.04,1.27-6.42,8.2-9.29,9.98-2.01,1.24-2.58,2.15-2.92,4.69-.54,4.02.39,5.86,2.65,5.28,1.47-.38,1.57-.28.74.74-1.42,1.73-3.61,2.07-5.36.84h0ZM70.69,50.06c-.28-.73-.12-2.8.36-4.6.48-1.8.87-4.27.87-5.5,0-1.73,1.01-3.23,4.55-6.74,4.84-4.79,7.68-5.81,8.42-3,.4,1.54-1.85,3.46-3.13,2.67-.34-.21-1.71.96-3.04,2.62-1.87,2.33-2.51,3.97-2.84,7.29l-.42,4.29,1.98-1.82c2.33-2.14,3.45-1.59,1.73.85-2.58,3.67-3.37,4.35-5.63,4.8-1.83.37-2.46.18-2.86-.86h0ZM107.61,48.29c-.23-.37.09-1.08.71-1.59.93-.77,1.12-.66,1.12.67,0,1.61-1.07,2.15-1.82.93h0ZM91.85,47.53c-.77-1.24.31-2.67,3.53-4.66,3.43-2.12,9.92-3.39,10.72-2.09.88,1.43-2.09,3.84-4.21,3.41-2.02-.4-5.13.84-7.15,2.86-1.32,1.32-2.27,1.47-2.89.48ZM92.69,29.72c-.27-.27.03-.87.66-1.33.88-.64,1.03-1.6.64-4.01-.28-1.74-.87-3.17-1.3-3.17s-.07-.67.81-1.5c2.6-2.42,6.85-1.5,4.75,1.03-.57.69-.54,1.33.14,2.25.87,1.18,1.16,1.19,3.71.13,3.48-1.45,4.32-1.46,4.32,0,0,1.09-5.74,4.1-7.82,4.1-.52,0-1.56.68-2.3,1.5-1.38,1.52-2.73,1.9-3.61,1.01h0ZM54.68,24.25c0-.9,4.72-4.54,5.88-4.54,1.35,0,1.02,2.63-.5,4.01-1.47,1.33-5.38,1.71-5.38.53ZM86.18,23.57c0-.77,2.27-1.83,2.8-1.31.18.18-.37.71-1.23,1.17-.86.46-1.56.52-1.56.14h0ZM115.45,19.9c-2.54-4.05-2.75-5.09-1.12-5.72.78-.3,1.92.65,3.55,2.96,2.35,3.34,2.81,3.51,5.99,2.2,2.32-.95,1.5,1.73-.9,2.98-3.7,1.91-5.08,1.47-7.52-2.42ZM80.93,20.57c0-1.62.97-3.12,2.01-3.12,1.58,0,.94,3.3-.69,3.61-.72.14-1.31-.08-1.31-.49h0ZM101.93,17.81c0-.22.46-1.49,1.02-2.81,1.34-3.18,3.83-5.35,5.43-4.74,1.16.44,1.16.58.04,1.83-.67.74-1.43,2.42-1.7,3.73-.4,2.02-.81,2.39-2.63,2.39-1.19,0-2.16-.18-2.16-.4h0Z"/>
  </g>
</svg>