<?xml version="1.0" encoding="UTF-8"?>
<svg id="Layer_1" xmlns="http://www.w3.org/2000/svg" version="1.1" viewBox="0 0 664.29 578.57">
  <!-- Generator: Adobe Illustrator 30.2.1, SVG Export Plug-In . SVG Version: 2.1.1 Build 1)  -->
  <g id="TKEuZJ.tif">
    <g>
      <path d="M503.78,0l.79,4.22,4.9-.74c8.88-1.35,6.69,2.5,15.48,2.98,1.5.08,3.12,1.55,2.59,3.19l-1.16,3.58c-.61,1.88-.13,4.58-.36,6.52l-.89,7.55-.59,5.88c-.12,1.2,0,2.89-.14,3.92-.46,3.35-.8,6.36-1.03,9.77-.39,5.71-.99,11.22-1.74,16.81l-.76,5.69-.61,4.12c-.14.96-.16,1.94-.19,3.1-.07,2.82-.55,5.68-1.01,8.55l-.64,4.02-1.14,7.02c-.2,1.24-.27,2.63-.42,4.14-.12,1.1-.94,3.17-.98,4.23l-.22,6.25c-.35,9.7-1.08,6.99-1.74,13.65-.16,1.59.08,3.55-.34,4.95-.47,1.58-1.44,4.39-.37,5.67,1.87,1.14,4.68.9,6.72,1.52l5.7,1.71c3.93,1.18,6.1,2.33,8.88,5.08l1.9,4.89.12,1.91c1.35,3.47,1.75,7.58,1.91,11.46l.22,5.23c.13,2.96.12,5.88.07,8.81l-.1,7.1.51,7.21c.12,1.65-.02,3.55.23,5.13.86,5.52,1.12,7.13.37,13.09-.1.75-.17,1.64,0,2.19l1.78,5.73c.39,1.24.77,3.3.92,4.63l.43,3.7c.06.55.1,2.16-.26,2.49-4.67,4.26-9.49,4.06-14.14,9.93l.22,4.8c.08,1.68.65,3.32,1.3,4.88l2.37,5.64c1.78,4.23-4.69,4.09-7.76,7.81.93.84,2.08,1.42,3.18,1.65l4.94,1.04c.8.17,1.8,1.95,1.86,2.76.48,6.57-.71,2.81-.53,9.25.07,2.41.27,3.75.96,7.05l5.45-4.09,2.55-1.88,4.39-3.11c1.64-1.16,3.26-2.85,4.9-4.11l3.28-2.53,3.55-2.69,6.83-5.29,5.19-4,4.97-4.62,5.45-4.4c.98-.79,2.13-2.71,3.11-3.59,4.88-4.35,7.5-5.47,11.62-9.66,3.31-3.37,3.85-1.97,8.4-1.11l6.55,1.24c4.58.87,17.45,2.61,18.78,8.25.38,1.6-1.43,3.88-2.85,4.54-1.3.61-2.01,1.1-3.04,1.96-5.31,4.44-14.76,2.59-17.51,3.97-.96.48,3.64,1.54,5.05,5.27l1.66,1.72c1.11,3.23,7.19,4.98,7.92,7.62l1.17,4.27,1.23,4.25c.3,1.04-.89,3.58-2.09,3.72-3.37.41-5.77-2.39-7.19-.99-1.03,1.02,1.02,6.89-3.23,6.85-.92,0-2.33-.86-3.7-1.56-.24.33-.92,1.99-.96,2.66-.15,2.38-1.88,4.22-4.47,3.7l-4.9-.99c-1.35-.27-3.08-.94-4.49-1.47l-4.14-1.58-2.28,2.22c-1.08,1.05-2.11,2.2-2.96,3.42l-3.77,5.38c-3.02,4.3-2.67,5.31-5.31,8.81l-3.01,3.99-2.17,2.94-3.84,5.33-4.77,6.59-8.09,9.66-3.2,4.17-3.25,4.29c-.2.26-.65.92-.42.97l1.26.24c5.18.98,10.62,3.52,12.59,4.05l6.44,1.73,5.23,2.08,3.6,1.95,3.94,1.83,6.18,2.99c3.42,1.65,6.63,3.41,10.24,4.66,2.16.74,5.05,1.08,6.91,2.17l6.16,3.61c1.99,1.17,3.84,2.63,5.98,3.65,2.75,1.32,5.07,2.63,7.52,4.51,1.17.89,3,1.38,4.45,1.18l6.54-.89c15.11-2.05,17.63-7.49,29.22-9.61.8-.15,2.26.92,2.58,1.3v3.73c-.9,1.09-1.95,2.4-2.75,3.73-1.41,2.37-2.92,4.17-4.51,6.37l-2.63,3.65c-.69.95-1.74,2.89-2.58,3.47l-3.45,2.38-10.55,7.13c-4.94,3.34-14.98,6.91-17.6,9.7-.33.35.42,1.54.78,1.87l2.58,2.44c2.11,1.99,1.81,3.84.5,6.13l-2.7,4.73-1.62,2.96c-.62.79-3.16,1.31-4.21.84-5.12-2.28-10.86-3.67-10.94-3.71l-7.49-3.44c-1.74-.8-9.28-3.89-10.46-3.74l-5.22.64c-2.16.26-4.17.64-6.22,1.11l-.43,2.66c-.63.99-1.41,2.47-1.98,3.12l-2.93,3.4c-9.46,11-1.19,3.03-11.43,10.15-1.52,1.06-3.19,2.87-4.74,3.61l-4.01,1.91c-.8.38-1.46.74-2.66,1.38.45.31,1.27.59,2.18.8l1.2,1.84c5.8,8.93,1.94,12.42,3.4,18.9.78,3.46,1.55,6.45,1.37,10.04l-.33,6.54c-.06,1.1,2.83,2.72,3.55,2.11l1.12-5.62c-.97-3.09-.3-7.57.56-10.82.12-3.72-1.34-5.14-1.59-8.74-.16-2.27.12-4.68-.38-6.78-.9-3.79-2.74-6.35-3.29-10.32.73-.53,3.05-1.14,3.67-.5,1.77,1.86,3.8,9.97,3.95,13.02l.17,3.46c.18,3.74,1.46,4.2,1.1,8.57-.26,3.12-.49,6.08-.58,9.22l-.19,6.77c0,.3.16,1.5.44,1.39l1.25-.46c2-.74,2.95-2.31,3.1-4.27l.32-4.14c.12-1.62-.29-3.09-.39-4.82l-.6-10.52-1.7-7.4-1.32-5.36c-1.55-6.28-.07-4.5-1.74-10.29-.15-.3,1.54-.62,1.98-.37,2.35,1.34,2.63,3.7,3.16,6.21l1.75,8.34c.54,2.6.94,5.1,1.66,7.8,1.35,5.05-.44,1.74.53,9.72.35,2.91,1.85,13.62-.55,15.02l-5.17,3c-.44.26-2.22.28-2.33.77l-.69,3.03c-.61.59-2.88.99-3.54.4l-3.4-3.06c-.82-.73-2.21-1.07-3.44-.82-3.83.77-2.14-5.76-1.59-7.72,1.18-4.18.13-7.62-.63-11.53-.71-3.63-.16-7.39-.09-11.2-.83-2.06-2.15-4.75-3.24-6.85l-1.77-3.44c-.27-.52-.7-1.28-.66-1.08-3.43,1.53-5.86,2.2-9.11,3.2l-4.36,1.34c-2.69.83-5.34,1.51-8.12,2.05l-7.34,1.41c-2.76.53-5.35.61-8.16.68-5.79.14-12.87,1.42-14.78,1.43l-6.74.03h-7.93c-.76,0-2.33-.46-2.99-.4l-4.34.39,1.52,2.27-.63,5.12-.77,6.28c-.17,1.4-.34,2.87-.38,4.35l-.21,7.2v6.87c0,3.08-.14,6.08-.45,9.13l-1.33,13.14c-.72,7.07-1.14,5.08-.95,10.94l.13,3.98.1,4.01c.02.92-.54,2.93-.69,3.64l2.74,1.59c-2.27,3.1-1.4,2.65-5.47,3.39l-4.31.78c-5.43.98.2,1.06-10.12,2.62-5.95.9-6.17,1.64-11.1,2.56l.23-2.38-3.83-2.37c-1.2-.74-2.43-1.79-3.29-2.75-3.31-3.71-4.22-2.67-8.96-3.96-10.87-2.96-10.71-5.82-20.31-11.12-2.05-1.13-4.33-3.36-6.43-4.13-3.13-1.15-5.75-1.91-8.57-3.55-2.14-1.25-4.72-1.71-6.93-2.96l-4.64-2.64c-1.8-1.02-3.83-1.64-5.7-2.19-3.9-1.13-7.3-2.36-11-4.02-7.05-3.16-7.24-1.66-10.25-2.68l-6.09-2.07-5.82-2.16-5.01-1.8-8.75-3.35-3.52-2.02c-1.57-.9-3.29-1.39-4.95-2.03-5.83-2.27-3.34-1.84-9.36-4.88-5.95-2.99-5.89-4.33-10.64-6.99-2.36-1.32-4.66-2.47-6.8-4.04-5.02-3.71-4.21-2.08-7.14-5.42-.88-1-1.87-1.57-3.11-2.24l-3.36-1.8c-3.27-1.75-2.36-5.25-6.74-4.01-2.74.78-3.42-1.7-4.4-1.24l-1.42.67-2.31-2.08-3.32-3.01c-1.16-1.05-2.5-1.5-4.18-1.32l-2.8-1.42c-6.96-3.54-3.59-3.79-8.88-5.68l-5.38-1.92c-.35-.13-1.3,1.26-1.4,1.67l-1.25,5.17-.43,3.29c-.18,1.4-.63,2.75-.77,3.88-.44,3.54-.83,6.9-1.48,10.41l-1.81,9.68-.82,4.81-.7,4.2-.93,3.42-1.19,8.05-.74,5.12c-.19,1.29-.83,3.18-.9,4.59l-.24,5.13c-.23,4.86-.54,6.28,2.58,9.03l3.9,3.45c.98.87,2.33,1.58,3.53,2.27l3.27,1.86,6.33,3.41c1.28.69,2.87,1.69,4.29,1.96l5.26,1,4.33.84,5.22,1.13,5.02.96c1.4.27,3.31,1.2,4.82,1.73,4.14,1.47,9.58,2.15,9.67,3.94.08,1.58-1.28,2.87-2.61,2.79l-8.7-.53-9.85-.76c-1.97-.15-4.24-.57-6.16-.5l-6.35.21-5.76.19c-1.79.06-3.77.4-5.72.61-7.08.73-5.65-1.33-14.52.25-2.25.4-4.75.17-7.05.02-9.52-.63-2.79,1.22-12.82-1.35-2.88-.74-5.61-.36-8.46-.64l-8.47-.83c-6.14-.6-3.88.86-11.73-1.04-1.56-.37-.65-6.12-1.69-8.43l-2.09-4.62-1.32-.05-2.44,5.26c-.88,1.89-.02,4.26-1.29,5.16-.42.3-1.28.27-2.69.31l-.55,1.07c8.7,5.82,8.86,3.99,17.08,10.06,1.27.94,2.5,1.85,3.76,2.62l5.01,3.04,4.69,2.76c4.21,2.48,8.68,4.09,13.31,5.58l3.86,1.24c1.83.59,3.41,1.31,5.41,2.11,5.1,2.02,8.06.85,8.54,3.04l.45,2.05c.09.41-.64,1.36-1.07,1.34-6.96-.45-1.26-.98-8.96-.99h-8.33s-8.82-.02-8.82-.02c-2.58,0-5.03-.22-7.72-.13-1.63.05-3.05-.02-4.7-.09-5.89-.27-11.14,2.74-18.69,3.12l-6.4.32-7.66.43c-2.32.13-5-.37-7.35-.36h-3.89c-.9,0-2.81.74-3.8.81l-7.55.54-2.87.34-4.28.43-5.42.6c-.1.01-.91.56-1.03.59l-5.88,1.37c-.31.07-.95.27-1.09.27l-2.86.03-.52.57h-.57s-.5-.46-.64-.57h-10.15c-.14.11-.64.57-.64.57h-12.57l-.54-.54c-1.19-.17-2.45-.43-3.46-.46l-6.83-.26-5.4-.5-4.83-.48c-1.41-.14-3.89-1.42-5.33-2.41-1.31-.89-2.07-4.04-2.07-5.53l-.02-3.55-.03-5.68c0-.77-.67-2.08-1.3-3.08-1.66,1.54-3.09,2.84-4.22,4.47l-2.65,3.83c-.9,1.3-2.44,3.79-2,5.17.51,1.62,1.17,3.19-.63,3.91-1.36.55-3.75-.25-5.21-.09l-6.46.72c-7.9.88-9.15-2.34-19.21,1.48-3.81,1.45-5.54.79-8.63-.43v-1.71c4.23-1.95,5.84-6.7,6.94-11.2.32-1.32,2.67-7.15,3.58-8.59l4.44-6.98c4.25-6.68,3.7-9.7,6.98-14.11l5.88-7.91.85-3.21,1.8-4.04c1.28-2.87,1.89-3.16,3.93-6.82l1.61-2.88c1.08-1.93,2.09-4.08,3.23-5.9l4.45-7.07c.68-1.08,1.31-2.66,1.92-3.78l3.04-5.53c.45-.83,1.52-2.04,2.08-2.96l2-3.28c1.4-2.3,5.15-6.37,6.45-9.24,1.15-3.69,2.17-7.01,4.44-10.06l3.88-5.22,2.19-2.97c1.37-1.86,2.36-4.23,3.44-6.27l2.81-5.29c.87-1.63,1.88-3.4,2.97-4.92l2.15-2.99c.49-.67.88-1.62,1.28-2.39l1.86-3.54c.99-1.89,1.97-3.63,3.18-5.38l2.84-4.12c.87-1.27,1.88-2.72,2.65-4.01l3.08-5.14c.62-1.03,1.23-2.64,1.84-3.79l2.4-4.5c.29-.55.81-1.85,1.13-2.32l2.75-4.02c-4.35.81-7.64-.56-9.73.51-7.08,3.66-9.6-.28-15.02-.6-1.61-.1-4.36.14-5.34-.74l-3.32-3.01c-1.88-1.7-2.56-2.99-2.13-5.54.54-3.23.44-6.49.68-9.89.1-1.43,1.31-3.87,1.6-5.47.72-3.94,2.68-6.71,4.78-9.87,1.73-2.59-2.25,1.01,5.25-8.07.4-.48,1.1-1.24,1.59-1.69l4.84-4.47c.53-.49,1.98-1.08,2.7-1.53l4.64-2.89c4.63-2.89,2.96-.31,7.97-4.57,4.22-3.6-.57-.63,2.04-9.98.69-2.48,1.04-4.87,2.15-7.1l3.26-6.55c1.37-2.75,3.08-5.6,4.86-8.17,1.09-1.57,2.56-2.61,4.14-3.77,3.1-2.29,5.61-5,8.39-7.76,1.37-1.36,3.8-2.37,5.43-3.53,2.79-1.99,5.42-3.75,8.29-5.53,1.74-1.08,2.85-1.84,5.26-.47,1.56-6.27-.12-9.12,1.92-13.61.77-1.69,1.74-3.64,2.03-5.31l.95-5.5,1.7-9.58c-2.5-.47-3.88-.73-5.66-.6l-7.37.54c-1.14.08-2.79.41-3.99.39l-5.83-.11c-1.2-.02-12.02,2.4-10.02-1.53,1.37-2.69,2.38-5.11,3.25-7.8l1.84-5.7,1.2-3.85c2.89-9.27,2.89-4.2,4.05-10.27.43-2.23,1.31-4.33,1.91-6.54l1.2-4.45c.66-2.46,1.28-4.67,2.1-7.12,2.06-6.2.51-5.25,1.71-8.44.49-1.3,1.12-2.68,1.39-3.77l1.16-4.64,1.69-5.67,2.01-6.74,1.55-3.18c-.03.06,1.44-7.35,4.13-12.14l5.37-9.58c3.19-5.68,10.09-9.05,16.27-10.76l16.68-4.6c5.53-1.53,3.25,1.21,9.83-.28,9.97-2.25,5.38-.52,13.7-1.69,10.65-1.51,2.47-.54,11.73.68,6.19.81,9.27.44,15.24.19,3.29-.14,6.59-.02,9.82-.49l4.75-.69c8.29-1.2,7.77,1.56,10.59,1.29l7.29-.68c.44-.04,1.38.27,1.76.35l3.42.7c1.89.39,3.73.59,5.66.84l4.23.56c5.15.68,7.79,2.08,12.08,4.49l3.3,1.85c1.62.91,3.21,1.65,4.74,2.61,5.16,3.26,5.41,3.2,7.85,7.91l2.57,4.98,3.91-3.24,4.89-4.27c.73-.63,2.06-1.48,2.95-2.08l4.81-3.2c2.35-1.56,4.12-3.36,6.78-5.21l9.13-6.33c3.86-2.68,2.74-2.48,6.98-5.54l3.36-2.43,6.09-4.72,3.81-3.06c.96-.77,1.84-1.42,3.03-2.12.89-.54,1.9-1.72,2.76-2.36l13.12-9.67c1.46-1.08,2.79-2.16,4.19-3.32l8.08-6.68c1.64-1.35,3.48-2.74,4.93-4.24l6.49-6.74c.83-.87,1.62-1.77,2.46-2.74,4.8-5.58,3.15-1.78,7.01-6.7,5.39-6.85,3.68-3.6,8.95-9.19l2.56-2.71,7.75-7.6c3.12-3.06,6.19-5.92,9.48-8.8,1.23-1.08,2.43-2.14,3.57-3.28l3.16-3.16c1.03-1.03,2.47-2.1,3.61-3.11l2.52-2.24c2.38-2.12,4.68-4.35,7.21-6.26,1.36-1.02,2.71-1.92,3.97-3.02,1.68-1.47,3.24-2.82,4.98-4.15l12.28-9.38,4.63-3.43c4.51-3.35,3.85-.4,5.24-3.33h2.86ZM324.88,309.88c-.58.58-1.46,2.16-2.03,2.58-1.06.76-2.72,1.87-3.57,2.74l-3.41,3.51c-1.4,1.44-2.74,2.93-4.24,4.27-3.32,2.97-4,2.94-6.29,5.1l-4.79,4.52c-4.51,4.25-6.73,4.66-12.4,9.78-3.82,3.45-3.86,3.45-8.94,5.76-1.35.62-5.01-.56-8.75,6.88l-2.17,4.33c-.84,1.67-2.13,3.4-3.52,4.94l-5.81,6.46c-.41.46-.8,2.29-.95,2.61-5.87,4.05-4.49,4.36-7.24,7.67s-5.85,3.6-8.62,9.96c.6.45,1.81,1.23,1.96,1.69.29.88-.86,2.7-1.65,3.46l.06,1.18c2.26.42,5.16.85,6.81,2.05l3.17,2.31c.75.54,1.82,1.46,2.4,2.03-2.27,4.51-11.38-7-13.18-1.34l-1.63,5.11c-.36,1.14-.72,2.53-.97,3.74l-1.3,6.35-1.07,5.34c-.59,2.94-.86,6.01-1.59,8.86l-.53,2.07c-.19.72,2.12.46,5.49,2.3l4.57,2.49c1.22.66,2.35,1.7,3.54,2.55,7.53,5.35,4.63,1.15,10.27,5.13,1.93,1.36,6.86,4.98,8.78,1.93.73.06,2.42.6,3.09,1.06l3.9,2.65c1.2.82,2.54,3.57,3.6,4.57,5.62,2.71,8.28,6.93,11.01,8.53l4.65,2.73c2.32,1.36,4.56,2.48,6.73,4.19,1.32,1.04,2.79,2.34,4.1,3.22l6.53,4.38,3.61,2.3c1.45.92,3.39,1.22,4.97,1.95l11.65,5.39,5.54,2.48c1.01.45,2.16,1.04,3.1,1.31l8.65,2.45,2.54.73c2.58.74,5.7,1.16,8,2.23,4.35,2.01,1.33.7,7.91,2.44,2.93.78,5.79,1.63,8.52,2.85l3.18,1.41,6.75,3c1.68.75,3.7,1.34,5.25,2.17,1.87,1,3.54,1.87,5.43,2.56l3.06,1.13c2.03.75,4.1,1.82,5.9,2.97l4.95,3.17c1.99,1.27,4.14,2.98,6.28,3.9l6.87,2.94c1.85.79,4.96.78,6.63,1.83l4.96,3.15c.52.33,1.6.86,2.37,1.17l1.78-4.66c-.38-2.2-.57-3.95-.24-5.87l1.13-6.51c.41-2.33.58-4.68.72-7.01l.27-4.73.29-4.05.57-6.78.44-5.78c.12-1.64.19-3.24.44-4.92.9-5.98.47-12.18,1.39-17.55l.57-3.35.65-5.8,1.06-11.07c.47-4.97.92-9.85,1.62-14.79l.57-4.06c.23-1.66.15-3.5.37-5.26l1.2-9.58c.1-.76.14-2.12.16-2.78,1.69-3.58.73-5.23,1.65-11.48l.74-5.01.68-4.81.88-6.79.7-4.96.57-3.49.62-3.85,1.04-6.55c.17-1.08.15-2.24.27-3.23l.52-4.47.23-4.96c.08-1.71.4-3.66.69-5.37l1.22-6.99,1.01-6.4.61-3.86.51-3.02c0-2.11.07-3.92.4-5.85l.52-3.07.7-5.31.47-4.18c.17-1.5.79-3.47.85-4.89l.15-3.62.73-10.29.87-6.23c.3-2.14.41-4.22.82-6.28.32-1.61,1.18-3.74,1.2-5.19.08-5.74.42-8.98,1.65-14.72,1.17-5.48.51-10.26,1.05-14.35l.93-6.93,1.14-7.96,1.08-7.67c.18-1.27.69-3.06.73-4.22.16-5.4,1.37-10.06,2.02-15.29l.88-7.12c.24-1.94,1.12-4.03,1.31-5.74l.69-6.21.59-7.04.86-9.47.31-3.38c.27-2.87,1.01-5.64,1.1-8.35.05-1.43-.03-3.01.19-4.34l1.36-7.98c.51-2.97.74-5.91.96-8.9.13-1.81.85-4.14.86-5.86.02-3.06.28-5.68.75-8.7l.73-4.73.83-5.37c.24-1.53.42-3.06.56-4.65l.63-6.93.7-6.28.72-5.12.33-5.54.67-5.22c.08-.66.15-1.58.18-2.3l.36-6.82c.05-.87.31-2.13.42-3.08.16-1.42.23-3,.51-4.32.29-1.39.62-2.71.76-4.05l1.81-16.52.19-3.97.6-3.82c.32-2.02,1.13-4.41,1.07-6.46-.04-1.44-.11-2.75.08-4.05l.83-5.66c.11-.77-.22-3.37-.94-3.1-3.53,1.3-13.19,8.38-16.13,10.89l-6.43,5.5-2.91,2.32c-1.54,1.22-3.4,2.38-4.82,3.7l-4.44,4.12-2.76,2.46-5.14,4.52-6.26,5.75-5.97,5.49-3.82,3.56-9.23,9.07-3.76,3.66-6.82,6.88c-5.66,5.72-10.23,11.82-16.75,16.88l-3.56,2.76-7.15,6.09c-1.89,1.61-3.98,3.21-6.05,4.68l-7.36,5.21c-1.65,1.17-3.27,2.53-4.78,3.81-2.85,2.42-5.61,4.54-8.59,6.8l-3.24,2.45-3.58,2.76-8.77,6.63-5.93,4.36-2.96,2.18c-4.95,3.64-3.79,3.39-9.48,7.08-1.05.68-2.9,1.75-3.64,2.51l-5.22,5.36c-1.47,1.51-3.76,3.38-5.52,4.66-.03.42.1,1.77.14,2.35.98,14.77.14,2.51,3.55,16.53,2.92-1.63,5.69-3.73,8.14-5.83l4.69-4.03c.39-.34,1.45-.68,1.94-.56s1.3,1.48.88,1.78l-2.7,1.87c-.86.59-1.34,2.33-5,4.5l-4.71,2.79-2.87,1.59.57,7.66c.36,4.88,0,10.9.58,14.98,1.77,12.48.16,4.87,0,15.95l-2.13,1.99-.46,5.76c-.21,2.64-.95,4.72-1.71,7.16-.9,2.86-1.35,6.02-2.82,8.77l-2.78,5.24c-.47.89-.72,3.1-1.08,3.96l-2.58,6.09c-.37.86-1.22,6.56-1.85,8.49-2.82,8.56-.21,6.22-2.69,11.48l-4.82,10.2c-.45.95-.58,2.53-.39,3.57l6-5.11,2.67-2.39c1.87-1.67,3.61-3.09,5.57-4.69l5.07-4.15c.78-.64,1.75-1.8,2.53-2.58l3.71-3.72c1.24-1.24,2.48-3,3.81-4.07,1.21-.96,1.74-1.64,2.57-2.89l2.71-4.1,2.42-2.59,4.67-6.82,2.71-4.22c1.23-1.92,1.39-6.1,1.36-8.35-.37-.88-1.89-2.45-1.63-3.28,1.96-6.09-1.93-2.93,2.12-11.47.83-1.76,2.34-10.09,3.69-12.43,1.17-2.03,4.03-3.05,6.06-4,1.75-.82,3.71-1.92,5.4-2.06s3.08-.31,4.06-1.76l5.09-7.56c3.44-5.1,8.14-8.63,13.86-11.7,5.42-.35,6.39.9,11.26.51,2.3-.18,6.75-.93,8.15,2.94.53,1.47.13,3.66-.75,4.79l-2.31,2.95c-5.21,2.48-8.72,4.12-12.95,8.17l-1.77,1.69-3.91,5.3c-2.62,3.54-6.4,13.58-5.34,17.94l-.81,3.7c-.23,1.06.55,2.97,1.29,4.45l5.39-4.49c2.62-2.18,5.09-4.48,7.47-6.9l-.56-6.96c-.11-1.39-.74-3.48-.17-4.48l2.42-4.25c.59-1.03,2.4-2.55,3.47-3.41,5.12-4.1.4-2.59,7.99-7.02,7.03-4.11,6.03-.06,8.25-4.44l4.01-.36c1.94-.17,3.89-.13,5.83-.12l5.06.02c2.25.01,4.08.7,5.66,2.53,2.84,3.27,4.72,6.31,5.81,10.58l1.29,5.05c.5,1.96.69,4.38.58,6.36l-.28,5.3c-.04.76.2,2.42.26,3.19-.72,1.54-1.58,3.94-2.7,5.11-3.51,3.69-6.8,3.99-9.78,7.21-2.61,2.82-5.84,2.35-9.32,2.39-3.22.04-3.77,2.86-9.61-1.05-4.36-2.92-4.35.75-8.71-3.7-.75-.77-2.42-1.79-2.95-1.71l-4.95,5.17c-2.17,2.27-5.69,4.98-5.04,5.8l6.94.76,5.94-.06c1.68-.02,3.06.25,4.64.29,9.72.27,3.77.49,10.59,1.17,1.55.16,3.96.8,4.75,2.11.47.78.65,3.11.17,3.9-3.65,5.95-5.73,6.92-12,7.7l-3.84.48-5.94.68c-4.86.56-8.96-.72-11.74,1.89l-3.83,3.6-6.33,5.74c-1.08.98-2.64,2.8-3.72,3.4l-5.24,2.92c-2.6,1.45-4.48,3.18-6.25,3.83-5.67,2.07-7.93,2.64-12.89,6.05-.37.26-1.59.93-1.93,1.33l-7.03,8.2c-.85,1-1.61,1.84-2.45,2.65l-6.74,6.45-3.95,3.91ZM522.11,18.48l-.05-2.25.71-5.49c.31-2.4-2.38-.08-7.16-3.27-.89-.59-3.21-1.7-4.34-1.51l-8.12,1.36-1.22,8.32c-.03,1.03.09,2.39.91.54,1.43-1.19,9.63,1.26,11.16,1.8.41.14,8.18,3.3,8.11.51ZM521.24,32.29l1.03-8.26c.46-3.66-3.76-.39-7.09-1.89-3.54-1.59-9.05-3.33-12.45-3.06-.66.05-1.32,1.9-1.45,2.62l-.84,4.71c-.32,1.78-.34,3.6-.44,5.72l2.36-.85c5.97,3.06,12.04,2.07,18.89,1.02ZM447.2,459.57l-.54,4.21c-.03.22.2.96.24,1.17s.44-.32.77-.71c2.43-.84,4.89-1.57,7.44-2.15l2.75-.62c7.51-1.71,3.86-4.1,10.1-4,2.33.04-.35-3.84.19-6.59l1.25-6.35,1.15-5.85c.25-1.29.62-2.77.79-4.01l.77-5.72c.36-2.69.33-4.93-.38-7.59-.36-1.33,1.96-2.31,3.18-2.43l1.43-6.23c.19-.84.31-2.23.31-3.17v-8.06c0-2.26,0-4.82.38-6.97l1.07-6.18.91-6.75.15-3.62.65-6.22.46-4.58.73-9.82c.04-.59.3-1.89.38-2.46,3.39-3.39-1.63-4.68.91-12.15,1.68-4.94-.7-5.13.6-9.06,3.68-11.19,1.46-11.38,3.31-21.89l.87-4.97c.8-4.55,1.25-9.01,1.75-13.66.74-6.9,1.86-7.82,2.14-12.72.17-2.84.41-5.38.72-8.11l.65-5.82.61-5.48c.26-2.32.51-4.31.95-6.58l-.34-2.99.56-3.56.57-3.79.62-3.99,1.14-7.34c.09-.57.7-2,.73-2.63.08-1.93-.02-4.85.3-6.67l1.03-5.84c.68-3.83,1.08-7.41,1.3-11.29.32-5.62,1.84-5.65,2.02-11.6.09-2.83.64-5.43,1.13-8.12l.74-4.06c1.35-7.39,1.22-1.68,1.4-6.61.22-6.08,1.42-5.71,1.63-10.87.14-3.41.48-6.48.82-9.73l.43-4.08.63-6.23,1.25-10.53.59-5.1.72-6.75,1.12-5.7c.59-2.97-.05-10.65,1.43-15.12-.18-.54-.27-1.3-.19-1.9l.86-6.89,2.15-11.95c.53-2.94.4-6.06.89-8.9l1.12-6.5,1.26-9c.18-1.3.2-2.74.31-4.17l.46-6.3.74-9.18c.04-.54-.93-1.36-1.49-1.33l-6.86.4c-1.6.09-3.25.16-4.8,0l-3.31-.34c-1.67-.17-3.06-.83-5.06-1.56-.48,1.6-.99,3.9-1.17,5.48l-.87,7.69-.38,3.39c1.26.25,2.37.41,3.16.65l3.93,1.2c.41.99-1.2,2.98-2.33,2.69l-4.05-1.04c-.52-.13-1.74,1.36-1.77,1.96l-.45,7.42c-.07,1.11,0,2.5-.1,3.37l-1.47,11.81-.59,7.99,9.38,1.1c2.37.28,4.81.55,7.23.65.68.03,1.85,1.25,1.64,1.86-.73,2.16-6.22,1.33-6.76,1.18l-6.07-1.63c.16.04-6.08-1.12-6.28,1.22l-.51,6.01c-.36,4.21-.38,8.55-1.26,12.68l-2.11,9.86c-.16.73.14,2.39.07,3.14l-.48,5.69-.43,4.51c-.17,1.82-.5,3.54-.81,5.3l-1.02,5.84-1.94,14.59-.25,3.95-.95,10.86c-.27,3.09-.59,6.13-1.16,9.16l-.99,5.29c-1.19,6.34-.91,7.76-2.13,14.44-.88,4.82-.02,3.07-.68,7.86l-1.35,9.73-.49,3.01-.65,5.28-1.26,6.86-.77,8.66-.15,5.18c-.1,3.5-1.77,11.93-2.37,16.86-.82,6.79-.9,2.07-1.27,8.81-.08,1.38-.38,2.67-.57,3.89-.24,1.52-.27,3.46-.46,5.2l-.55,5.16-.54,5.2-.54,6.6-.32,1.79-.51,5.18-.98,7.17-1.56,10.95-.51,4.85c-.3,2.86-.89,5.66-1.35,8.55l-.87,5.43-1.13,8.84-.72,5.78c-.25,2.03-.32,4.29-.66,6.3l-1.51,8.95-.56,4.6-.77,7.52c-.54,5.28-1.21,9.84-2.23,15.45l2.44-.95c1.57.18,4.08.37,5.66.9.77.26.79,2.75.35,3.22-1.09-.63-2.6-1.36-3.79-1.41l-4.67-.18c-.79,4.87-1.7,9.26-2.06,13.89l-1.28,16.49-.41,3.27-1.04,9.24-1,8.63-.56,4.31ZM219.49,329.71c-4.91,2.82-1.01,2.83-7.09,5.35-1.76.73-3.73,1.89-5.52,2.31-2.1.5-3.95.92-5.77,1.74l-8.74,3.93-3.61,1.62c-.99.45-2.12,1.56-3.35,2.53-1.81,1.44-7.55.05-9.99.18l-6.07.34c-2.42.13-5.21-.49-7.65-.14l-5.75.84c-1.55.23-3.51-.07-5.16-.11l-8.62-.21c-6.47-.16-5.84-1.69-13.78-2.02-2.04-.09-3.89-.46-5.88-.86-2.22-.44-4.47-.61-6.8-.94-2.05-.29-4.36-1.92-6.56-1.98-1.47-.04-3.74,1.85-5.06,2.57-4.9,2.65-8.14,6.23-11.62,10.44-1.27,1.54-3.16,3.07-4.32,4.63l-3.23,4.37c-.89,1.21-3.83,6.53-2.55,8.53l10.43,3.53c2.89.98,5.7,2.5,8.37,1.66l-.21-2.02c-.04-.36,1.19-1.02,1.55-1.05,6.57-.57,5.4.64,12.9-3.03l5.8-11.05,2.83-5.14c2.17-3.95,2.41-6.54,3.76-7.09.69-.28,2.5.19,3.11.82-1.33,2.61-2.6,4.98-3.9,7.23l-3.77,6.56-1.65,3.04-2.14,3.93c-.3.54-.56,2.27-.69,2.71-.89,1.02-1.81,2.23-2.35,3.4l-2.58,5.51c-1.44,3.07-2.82,6.27-4.59,9.11-4.39,7.03-2.39,5.76-7.04,12.9l-2.7,4.14c-1.75,2.68-3.61,5-5.64,7.49.07-.08-5.04,7.53-5.04,7.53l-7.48,13.77-4.89,8.77-1.5,2.44-6,10.01c-1.31,2.18-2.37,4.55-3.57,6.85-2.19,4.17-4.46,7.62-7.23,11.46l-4.31,5.98c-.86,1.19-1.83,2.88-2.56,4.21l-5.03,9.29-1.27,2.3-5.3,9.42-4.13,7.46-3.54,6.71-6.45,11.79-4.29,7.77-3.56,6.63c-.51.96-1.49,2.25-1.94,3.25l-2.67,5.97c-1.03,2.31-2.05,7.31-2.9,9.11l-2.67,5.7,3.7-.74c1.44-.29,3.41-.7,4.8-.62l5.11.29c4.45.25,9.21.69,13.26-1.26,2.98-5.52,2.95-6.07,7.17-10.6,1.82-1.95,1.52-3.81,5.58-6.1,1.83-1.03,4.53-.54,6.17.96,1.87,2.09,1.5,5.45,1.54,8.14l.08,6.33c.03,2.35,1.34,3.77,3.74,3.91,1.42.08,3.19.98,4.76,1.34,2.83.66,6.08,0,9.11.05,2.3.04,4.63.63,6.94.97,7.31,1.08,7.93-.08,13.68-.13,5.34-.05,9.44.68,13.6-.19l4.31-.89c5.39-1.12,10.75-1.5,16.29-2.11l8.55-.94c7.62-.84,12.24.17,17.72-.37l12.02-1.18c6.48-.64,7.74-2.16,15.33-2.53l10.34-.5c2.04-.1,4.18-.07,6.25-.06l4.63.02c.27-.65.43-1.03.21-.51l-7.7-3.3c-1.48-.63-3.02-1.45-4.4-2.34-1.54-.99-3.09-1.41-4.74-2.42l-3.01-1.86c-1.06-.65-2.35-1.17-3.11-1.85l-3.45-3.03c-2.28-2-10.61-4.81-17.98-10.44-2.89-2.21-6.97-4.66-9.09-6.95l-4.43-4.76c-.53-.57-2.42-1.08-2.89-1.62l-2.6-3.01c.74-5.1,2.5-9.53,4.51-14.68.62-1.57,1.73-3.24,2.58-4.77,1.4-2.52,2.8-5.11,4.71-7.24l4.3-4.78,2.45-2.66c4.35-4.72,3.85-5.36,7.22-8.85l4.49-4.63c1.62-1.67,3.22-3.12,4.97-4.73,3.5-3.21,1.97-2.86,4.96-5.18l1.92-2.09,3.54-3.43c3.79-3.67.15-1.98,2.7-4.01,3.66-2.91,2.54-3.91,6.4-8.59l1.82-2.2,4.97-6.02c.48-.59,1.23-2.01,1.63-2.81,1.55-3.07,3.89-5.04,6.07-7.67l4.32-5.21,2.69-2.63,1.65-1.67,4.24-4.45,2.7-2.87,4.46-4.73c4.28-4.54.6-2.02,3.89-4.61,3.65-2.87.73-2.85,4.12-5.63.35-.29.98-1.38.67-1.58l-2.98-1.91c-.54-.34.62-1.78,1.13-2.2,1.94-1.62,3.25-3.73,4.94-5.45l3.96-4.02,4.31-4.29,3.19-3.7,3.83-4.15,5.68-7.4c1.76-2.3,3.67-4.05,4.94-6.67l2.23-4.59c.61-1.25,1.38-2.21,1.68-3.61.62-2.87,2.12-5.22,3.46-7.74l2.41-4.54c3.35-6.32,5.34-12.12,7.45-19.01.78-2.54,3.24-6.24,5.2-11.69l1.87-5.2c.27-.76.1-1.61-.53-2.45,1.22-1.06,3.12-2.99,3.8-4.91l4.23-11.87,2.36-5.12c.25-.54.78-1.82.85-2.37,1.35-11.45.93-3.35,2.46-10.26.56-2.53,1.1-4.98,1.87-7.26l2.32-6.83c.42-1.22.78-2.8,1.22-3.84l1.74-4.1c.6-1.42,1.14-3.02,1.57-4.47l2.36-8.02c.24-.83.32-2.64.46-3.71l.66-5.17c.15-1.14.1-2.65.02-4.02.15-.28,1.97-1.24,2.45-1.75,1.94-2.09.08-8.92,0-11l-.48-11.79-.14-4.03c-.05-1.3-.02-3.31-.22-4.33l-1.02-5.07c-.5-2.51-1.13-4.88-1.92-7.3-2.13-6.53-.57-5.77-2.96-13.41l-1.37-4.37c-1.18-3.76-3.59-5.91-6.77-7.93-2.22-1.41-4.39-2.92-6.77-4.06l-3.54-1.69c-2.15-1.03-7.07-2.94-9.19-3.17l-6.92-.78c-3.18-.36-6.31-1.65-9.47-1.62-8.35.08-6.81-1.11-15.57-.72-1.51.07-3.01.23-4.7.46-4.29.59-8.57.52-12.95.67-5.7.2-10.94-.09-16.61-1.16-2.4-.45-5.2.09-7.57.19l-3.87.15c-6.98.28-7.59,4.42-16.59,1.42l-6.79,1.74-5.56,1.71-8.44,2.57c-2.67.81-7.05,4.01-8.66,6.29-3.58,5.03-3.52,5.6-6.23,10.54l-2.87,5.23c-.58,1.06-.93,2.64-1.37,3.89l-2.34,6.67c-1.23,3.5-2.28,6.88-3.33,10.44l-1.65,5.53c-.22.73,1.03,2.04,1.78,2.06l5,.13,3.88.14,8.89.49,1.56-5.13-1.01-2.27c2.38-1.99,14.86-5.5,16.53-5.25l3.99.59c1.55.23,3.71.63,5.08.96,1.52,1.24,3.55,2.33,5.19,2.85.69.28,1.68,1.75,2.24,2.28,2.65,2.48,4.58,5.13,4.22,9.7l4.52-1.13c4.57-1.15,2.84-.03,9.99-.81l5.14-.56,4.08-.44c2.9-.32,6.1-.33,9.06-.06l4.32.39,4.56.51c8.95,1,6.72-1.86,10.07.43.82.56,4.61-.37,7.27-.46l3.54-.11c8.31-.27,8.78-2.06,13.26-1.1,8.65,1.85,9.87-1.04,16.34.37,1.28.28,3.33,1.12,4.28,1.77l3.17,2.16c1.7,1.16,2.84,3.79,3.41,5.94,2,7.49,1.74,8.33-1.44,15.13-.88.04-2.69-.48-3.27-1.04.67-4.24,3.28-3.9,1.77-9.63l-1.23-4.68c-1.21-4.61-4.65-5.03-5.15-5.32-7.86-4.55-2.98-.71-14.06-1.12l-2.7-.1c-1.51-.06-3.75-.52-5.21-.27-3.58.63-6.84,1.5-10.22,1.45l-6.55-.1-5.64-.48c-2.72-.23-6.53,1.11-10.72.37-4.8-.85-8.36-1.48-13.45-1.03l-8.57.75c-5.7.5-7.46-.36-10.86,1.04l-5.36,2.21-2.78.76c-4.01,6.75-8.11,10.33-16.1,10.69l-4.85.22c-5.59.25-13.67-5.48-14.42-9.8l-.91-5.21c-.15-.84-2.2-1.14-3.23-1.21l-16.63-1.15c-.63.85-1.13,2.33-1.27,3.45-.31,2.56-1.07,4.57-1.59,7.01l-1.65,7.59c-.29,1.35-.85,2.73-1.29,3.93l-3.35,9.13-1.46,4.24-1.54,4.73-1.7,5.23c-.62,1.9-1,3.99-1.23,6.17l7.15.39c5.04.28,12.42-.8,17.71-1.84,1.93-.38,4.03-.72,5.94.24,1.12.57,1.33,3.21,1.04,4.35l-2.33,9.09c4.17-.56,7.89-2.23,11.66-1.6l5.31.89,3.09.35c.12,1.93-1.73,3.1-3.6,2.8l-4.95-.8c-2.4-.39-5.34.46-7.78,1.28l-4.31,1.46c-1.32.45-3.05,5.35-1.19,7.94l-1.37,2.42c-1.53,2.71-2.21,12.42-2.24,16.48-.02,2.3-.94,5-1.6,7.39l-1.13,4.08-1.5,3.01c-.6,1.21-.93,3.56-1.23,5.01l-1.4,6.82-1.08,4.82c-.35,1.56-3.88,5.77-2.47,11.13-1.28,1.16-5.87,2.5-5.44.47l.64-3.04c1.05-5,3.28-9.28,5.15-14.17.33-.86.59-5.69,2.38-10.67l1.81-5.03,1.66-4.8c-.45-.94-.87-1.49-.91-.38l-4.14,3.13c-.98.74-2.23,1.52-3.37,2.1l-3.15,1.62c-4.13,2.13-3.43,4.82-7.66,3.92l-3.04,5.64c-2.35,4.37-4.87,8.75-4.71,14.01,1.65,6.41,2.16,7.92,8.83,9.28l6.74,1.37c2.01.41,3.87.84,5.97.82l6.39-.05c1.05,0,3.22-1.06,4.2-.88s2.8.75,3.69.67c2.31-.2,5.05-.34,7.31-.8l7.48-1.52,4.6-.7,4.1-.69c2.51-.42,4.98-.65,7.35-1.38,1.4-.44,3.16-1.22,4.43-1.21,5.96.01,3.72,1.8,11.45-3.49l3.11-2.13c6.2-4.24,5.41-6.18,12.72-9.47,2.08-.94,3.49-2.64,5.08-4.22,2.92-2.91,7.76-6.77,9.26-8.37l3.91-4.19c2.43-2.61,5-4.77,7.37-7.43l4.88-5.47,7.54-7.22c1.84-1.76,3.59-3.71,5.2-5.67l2.05-2.49,4.87-5.49c1.05-1.18,2.14-3.14,2.97-4.32.41-.58,1.59-1.61,1.94-2.17l2.01-3.15c1.13-1.76,2.07-3.65,3.1-5.57,1.19-2.22,1.84-4.81,2.43-7.32.17-.73,1.24-2.31,1.01-3.01l-1.26-3.82c-.59-1.78-2.45-3.15-4.14-2.01-1.14.77-2.87,1.65-4.1,1.59l-3.67-.18c-1.88-.09-4.85-1.21-5.25-3.29-.26-1.38-.47-3.11-.59-4.26l5.05-9.94c.42-.82,3.33-5.34,4.53-6.01,4.11-2.31,4.94-2.77,9.45-1.84l4.33.9c.94.19,2.78.86,3.67,1.29.69.33,1.39,2.36,1.11,3.1l-2.36,6.38c-.21.56-1.52,1.85-1.32,2.4.12.33,1.5.88,1.8,1.13,4.24,3.5,2.52,6.5,4.92,10.06,2.25,3.34,2.43,7.35,1.48,11.17-.4,1.61-.65,3.74-1.17,5.03l-1.66,4.14c-1.03,2.57-2.02,3.03-4.55,6.75l-2.32,3.42-2.23,2.89-2.39,3.88-3.65,4.26c-1.65,1.93-2.93,3.88-4.52,5.72l-6.93,8.03c-.57.66-2.4,5.41-8.26,8.78l-1.28,2.07-2.96,2.87-8.95,8.37c-1.04.98-1.77,3.71-3.13,4.5-7.63,4.39-6.48,6.56-10.98,8.94-5.77,3.05-4.7,2.97-10.13,6.1ZM553.56,326.44c1.01-1.25,2.12-2.49,2.91-3.57l3.64-5.02,2.64-3.65c1.51-2.09,2.88-4.39,4.49-6.34,1.25-1.51,2.77-2.87,3.52-4.53l1.41-3.09c.64-1.4,1.27-3.08,2-4.4,3.2-5.77,5.88-7.8,7.91-13.08,1.72-2.91,6.8-2.4,8.14-1.77l5.08,2.4c2.06.97,4.91.93,7.5.78l-.34-3.28c-.16-1.57-.65-2.67-1.71-3.66-1.61-1.5-2.97-2.73-4.69-4.11-.51-.41-1.56-1.21-1.54-1.76.02-.63,1.22-1.93,1.84-1.86,3.03.35,2.3,3.87,9.88,7.49.82.39,3.07,1.17,3.64.48l2.55-3.08-3.35-2.96c-.61-.54-2.53-.6-3.32-.85l-3.58-1.12c-.21-.07-.78-.69-.85-.9-.27-.74,3.29-3.5,5.05-2.34,5.45,3.6,2.19.04,8.05,4.76,1.23.99,2.27,1.5,4.22,2.36l-.55-4.52c-.52-4.29-1.28-2.15-4.52-5.49l-2-2.06-2.79-3.02c-1.26-1.37-2.72-2.88-4.37-3.67l-5.78-2.75c1.55-3.21,4.63-4.42,7.9-4.5l6.38-.16c10.02-.26,5.02-1.74,11.47-2.51,1.34-.16,1.9-3.82.66-4.76-4.29-3.23-7.69-3.7-13.01-4.59l-4.05-.68c-5.22-.88-8.03-1.17-11.95,2l-5.72,4.63c-1.9,1.54-3.41,2.91-5.01,4.88-.68.83-2.15,1.67-3.08,2.44-2.23,1.83-4.29,3.65-6.43,5.63-.84.78-1.94,2.2-2.77,2.73-1.35.86-2.87,1.58-3.88,2.49-1.61,1.43-2.75,3.11-4.58,4.05l-5.61,2.87-6.46,5.62-2.46,2.22c-.92.83-2.03,1.9-2.96,2.55l-5.13,3.55c-2.45,1.69-4.27,3.63-6.22,5.97-2.54,3.05-4.92,3.01-10.68,9.8l-5.79,6.83c-1.29,1.53-3.35,4.89-5.44,3.17l-.86-.71c.46.38,1.67-3.25,3.06-4.66l6.55-6.61,2.57-2.69c1.29-1.35,3.29-3.03,4.88-4.2.09-.49-.13-2.16-.11-2.83l.16-5.46-.23-9.85c-.01-.58-.17-2.34-.67-2.52l-2.83-1.01c-2.39-.85-5.54-1.62-8.15-1.95-.47-.06-1.3-1.16-1.1-1.6.16-.35.74-1.08,1.12-1.38l6.66-5.19c5.24-4.08-.27-5.38-.15-12.48.05-2.7-1.66-1.33-.59-8.12.22-1.42,2.8-2.33,4.05-2.82l3.91-1.55c1.53-1.6,3.09-2.74,5.12-3.97,1.83-1.11,1.18-3.77.8-5.55l-1.21-5.68c-.28-1.3-.41-3.21-.48-4.57l-.17-3.4-.37-7.33-.54-3.95-.02-5.39-.5-3.77v-5.69s.13-5.74.13-5.74l-.39-10.25-.27-5.24c-.09-1.74-.39-3.5-.58-5.12-.47-4.02-1.69-7.18-4.54-10.43-2.37-2.71-7.27-4.09-10.85-4.86l-5.85-1.25c-.13.99-.09,2.38.13,3.05l.52,1.56c-.87.63-1.37,1.32-1.44,2.09l-1.39,14.37-.1,6c-.04,2.33-1.55,6.94-1.91,9.45l-.97,6.66c-.22,1.54-.69,3.21-.85,4.76l-.86,8.54c-.24,2.35-.96,4.84-1.58,7.24-.87,3.31-.63,6.68-1.43,10.07l-1.43,6.03-1.02,9.89c-.17,1.65-.35,3.21-.6,4.77l-.95,6.09-1.66,9.71-1.15,8.15c-.24,1.72-.34,3.34-.43,5.06-.23,4.69-.68,9.21-1.15,13.92-.91,9.02,1.05-.04-1.24,10.76l-.8,3.76c-1.51,7.09-.33,9.5-2.49,20.28-2.11,10.52.23,9.53-2.65,20.24-.55,2.04-.53,4.12-.54,6.36-.02,2.5-.95,5.47-.82,7.81l.42,7.69c.05.93.45,1.9,1.04,3.12l-2.66,3.05-.97,6.38c-.24,1.55-.36,3.29-.49,4.92l-.26,3.33-.54,8.05c-.1,1.43-.3,3.07-.53,4.55l-.69,4.49-1.08,5.74-.45,2.36c.66,3.1.67,6.06.26,9.27l-.34,2.61-1.1,8.51,5.1,2.51,10.82-.15,11.79.25c2.49.05,5.09.44,7.58.3l5.44-.3,13.93-.57c3.02-.12,6.15.43,9.19.23l5.81-.39c4.38-.3,3.78-3.86,5.97-2.51l2.67,1.65,13.08-3.71,6.92-1.96c6.24-1.77,5.12-.07,9.74-2.15,1.55-.7,4.33-1.56,5.64-1.09,1.24,1.75,2.22,2.81,4.12,3.68l7.17,3.29c.41.19,1.51,1.34,1.94,1.45,1.86.47,5.28,1.21,7.35,1.63l3.44.69c1.57-1.66,3.83-3.9,4.34-5.9,1.18-4.64-5.87-5.77-6.92-6.89-.34-.36-.09-2.06.35-2.27l6.6-3.32c.85-.43,1.94-1.15,2.58-1.39l4.22-1.61c4.64-1.77,12.19-7.21,16.55-10.21,4.12-2.84,5.65-3.07,8.95-7.97l1.78-2.63,2.35-3.48c1.18-1.75,2.01-3.2,2.15-5.65-12.07,2.72-10.79,5.76-24.07,7.64-5.6.79-7.23.57-11.93,2.92l-3.46,1.72c-.56.28-2.13.42-2.69.17-.47-.2-1.18-1.2-1-1.68.29-.75,1.62-1.85,2.55-2.72-.7-.66-2.2-2.22-3.06-2.71l-7.34-4.16c-3.47-1.96-6.57-4.76-10.29-6.22l-7.07-2.78c-1.73-.68-3.57-1.44-5.23-2.2l-10.57-4.83c-6.81-3.11-6.16-4.37-13.35-5.39-8.48-1.2-3.78-2.42-15-4.14l-3.11-.48-1.69,2.84c-1.15.62-3.14,1.44-4.26,1.78-.57.17-2.09-1.23-1.9-1.81.35-1.05,1.68-2.3,2.42-3.06l4.62-4.74c.86-.88,1.77-2.66,2.57-3.63l3.63-4.39,4.97-6.14ZM166.76,200.94l2.58-3.15c2.65-4.01,5.54-7.55,8.65-11.3l2.08-2.51c.28-.34.44-1.32.26-1.7-.13-.29-1.11-.71-1.45-.68-.95.08-2.36,1.54-2.82,2.53-2.2,2.75-4.13,5.35-6.07,8.24l-1.65,2.46c-.55.82-1.91,2.6-2.59,3.47-.38.49.4,1.88.99,2.64ZM171.41,205.51l2.71-3.5,5.58-6.97c1.43-1.79,2.94-3.48,4.53-5.1l3.54-3.59c.67-.68-.67-3-1.51-2.69-1.89.71-4.24,1.78-5.12,2.99l-2.02,2.77-2.19,3.02c-.55.75-1.45,1.8-1.93,2.55l-4.7,7.41c-.21.34-.61,1.55-.33,1.8l1.45,1.31ZM329.38,301.23l2.37-2.66,3.74-4.24c3.46-3.92,4.7-6.34,8.87-9.79l3.3-2.74c1.99-1.65,7.93-2.81,9.62-3.73l6.79-3.72c1.58-.87,3.46-1.96,4.79-3.18l3.8-3.48c2.48-2.27,4.86-4.27,7.14-6.72,3.81-4.08,7.41-5.49,13.21-4.95,2.4.22.79,1.16,7.02.07l7.25-1.28c2.77-.49,4.77-2.46,6.23-5.57-5.91-1.44-2.54,1.22-8.07-.86-3.19-1.2-6.7-1.11-10.2-1.33-2.47-.15-4.97-.51-7.39-.52-2.87-.02-8.24-.4-10-2.3l-2.51-2.7c-3.75-4.04-3.75-5.33-4.62-10.17-.36-2.01-.41-4.21.43-5.96.35-.74-.19-2.56-.13-3.31.62-7.32,1.98-6.22,3.76-12.2.37-1.24,1.21-3,1.94-3.96l2.53-3.35c.8-1.06,1.71-2.68,2.54-3.48l3.87-3.66c6.33-5.99,13.3-4.94,12.01-10.74-.06-.28-.76-.17-1.28-.18-7.64-.02-4.35-1.18-11.29-.19-1.94.28-3.53,1.44-4.91,2.81-1.03,1.02-2.71,2.01-3.99,2.92-.88.63-1.86,2.67-2.53,3.62l-3.37,4.77c-.79,1.11-1.85,2.54-2.44,3.64l-2.68,5c-1,1.86-1.54,4.3-2.44,6.17l-1.26,2.61c-1.06,2.2-1.45,4.38-2.82,6.38-.84,1.23-.83,2.9-1.27,4.21s-2.83,6.55-3.64,8.01l-3.29,5.95c-1.24,2.25-4,6.04-5.9,8.06l-2.59,2.77c-.73.78-1.49,2.64-2.13,3.51l-4.39,5.96c-.89,1.21-1.96,2.66-2.96,3.75l-6.28,6.87-3.03,3.31c-.84.92-3.43,1.99-4.34,2.87-3.48,5.65-6.3,4.44-9.23,8.02-1.82,2.22-3.6,3.9-5.74,5.69l-6.16,5.15c-1.9,1.59-3.66,2.58-4.49,5.05l-2.46,7.31-1.38,3.63-2.21,6.44-1.91,4.8-1.82,4.98c-1.11,3.04-2.18,6.14-3.66,8.98-1.57,3.02-3.18,5.56-4.42,8.86,5.04-2.1,8.32-4.79,11.88-7.86l14-11.12,3.06-2.62c1.32-1.13,2.71-2.32,3.91-3.5l8.6-8.52,9.74-9.05c.87-.81,2.02-1.65,2.83-2.56ZM170.96,185.66l.28-1.66c-4.27.73-4.37,4.91-3.71,4.51l.83-.51,2.6-2.34ZM180.81,207.1c.93-.41,1.68-2.8,2.24-3.66l4.06-6.21c1.76-2.69,4.07-5.58,5.96-8.12.16-.57-1.81-2.22-2.3-1.79-3.46,3.37-7.17,7.39-9.88,11.43l-2.71,4.03-3.05,4.49c1.88.54,3.68.7,5.68-.17ZM195.97,192.77l-2.16-.34-3.07,5.24c-3.53,6.02-3.18,3.01-4.78,8.63,4.11.6,9.66-9.57,10-13.53ZM434.79,224.16l1.11-2.55.61-1.38c.35-.79-2.38-.35-1.85-3.25.93-5.01-.33-1.88-.66-7.72-.25-4.39-.77-.2-1.59-5.86-.2-1.42-1.28-2.43-2.04-3.56-3.67-5.47-4.27-6.22-13.16-5.11l4.51,3.38c4.02,3.02,8.71,8.55,9.09,13.7.2,2.8.09,9.27-.66,11.23-2.99,7.82-4.27,6.2-7.49,11.79,2.8-1,3.82-2.74,5.64-4.07l3.73-2.74c1.12-.82,2.1-2.38,2.75-3.87ZM410.01,232.36c2.41.15,1.98,4.43,4.11,2.88,3.92-2.85,7.04-5.02,9.6-9.3s3.21-9.49,2.48-14.57c-.3-2.09-1.91-3.9-3.06-5.48s-2.34-3.1-3.83-4.37c-2.81-2.37-7.43-5.98-11.31-4.82-1.56.47-3.63,1.45-4.91,2.37l-3.71,2.68c-.7.51-1.34,2.61-1.96,3.2-1,.95-3.05,2.4-3.74,3.67-2.74,5.02-.18,12.12,2.42,16.61l2.15,1.88c.99,2.69,8.44,8.6,11.77,5.25ZM349.02,234.22l2.76-4.83c1.05-1.83,1.41-4.78,3.47-8.97l2.71-5.53c.62-1.27.87-2.97,1.43-4.37l2.23-5.58-2.78.66c-2.42.57-6.47,4.04-6.94,5.78l-1.26,4.63c-.34,1.23-.36,3.11-.66,4.58s-1.9,3.69-1.99,4.98l-.35,5.3c-.07,1.08.35,2.15,1.37,3.37ZM279.69,223.72l3.53-4.58c1.38-1.8,2.01-4.19,2.65-6.88l-6.65-1.83c-1.33-.37-4.63.52-5.42,1.65l-3.98,5.63c-.38.54-.74,2.22-1.06,2.8-.77,1.42-1.98,3.54-2.51,5.4-.44,1.54,1.44,3.58,2.66,3.97,2.82.91,8.84-3.63,10.78-6.15ZM129.44,294.4l-4.6,4.61c-5.85,5.86-4.1-.06-8.77,9.03l-1.79,3.49c-.85,1.66-1.65,3.33-2.34,5.12l-2.24,5.78c-.79,2.03-1.68,4.89-1.48,7.01l.56,5.99c.12,1.29,1.07,2.42,2.25,3.11,4.76,2.76,6.18,3.51,11.72,4.03,2.09.2,4.26.61,6.28.64,3.04.04,5.38.44,8.26,1.03,5.1,1.05,10.3,1.25,15.56,1.68s5.99-1.14,14.18-.94c6.77.17,4.49-.46,11.19-.23,1.15.04,2.96.04,3.78-.28l5.81-2.3,5.56-2.31c1.8-.75,3.49-1.5,5.21-2.41,3.35-1.78,5.31-1.11,9.64-3.39l4.53-2.39c3.92-2.07,2.35-2.54,8.81-6.69,4.8-3.08,5.15-1.95,8.71-5.54l3.76-3.79c.77-.78,1.8-1.61,2.66-2.39l4.01-3.6,5.2-5.43c.97-1.02,2.48-1.91,3.38-2.91l4.71-5.19,2.8-2.76,3.09-3.31c.87-.93,1.52-1.83,2.27-3.02,1.7-2.68,3.67-5.25,5.69-7.77l4.87-6.08,2.72-3.48c2.88-3.68,4.32-7.33,7.93-11.48.79-.91,2.26-2.1,2.64-3.02l2.85-7.05c.79-1.95,1.84-4.49,1.81-6.52l-.08-4.67c-.02-1.03-1.7-2.82-2.06-3.81l-1.06-2.93c-.3-.81-.64-2.86-1.26-3.43l-2.6-2.39-3.52,3.68,2.2,1.67c2.97,2.25,3.38,6.85,1.73,10.92-1.09,2.7-1.78,5.77-3.19,8.24-1.78,3.11-3.31,6.07-5.5,8.89l-2.43,3.13c-1.18,1.52-2.2,3.02-3.46,4.43l-5.97,6.65-3.39,4.1c-3.41,4.13-5.8,3.2-13.27,13.04-.98,1.29-2.39,2.5-3.62,3.69-4.05,3.94-4.47,5.17-8.72,9-2.16,2.07-4.3,3.87-6.7,5.8-1.95,1.56-3.67,3.52-5.51,5.34-3.22,3.19-5.79,3.91-10.18,7.56-6.1,5.08-9.09,8.88-17.55,11.33l-3.36.97c-1.25.36-3.97-.68-5.35-.4l-3.84.79-4.27.88c-.94.19-2.21.51-3.01.6l-4.87.51c-1.54.16-3.11.63-4.74.95-2.3.45-4.94.5-7.4.72-6.18.55-5.02,0-9.48.66-3.13.46-8.18.62-11.28.17l-4.33-.62c-1.21-.17-2.43-.31-3.68-.57l-7.61-1.59-2.48-2.06c-1.28-1.06-2.4-2.14-2.94-3.66l-1.63-4.61c-1.26-3.58,3.94-13.15,5.89-16.62l2.17-3.86c.83-1.47,3.33-3.97,4.62-5.05.44-.36,2.29.21,2.86.2l6.69-3.43c1.82-.93,4.07-2.72,5.49-4.23l3.84-4.08c.81-.86,1.45-4.36.28-4.93-6.73,5.86-9.53,4.63-16.65,11.76ZM380.74,241.19l5.49-5.16c2.45-2.31,4.64-4.68,6.9-7.39l-2.16-3.16-2.54,2.55c-1.18,1.18-3.09,2.25-4.51,3.4-1.24,1.01-2.6,2.58-3.79,3.4l-3.4,2.33,4.01,4.02ZM108.26,386.11l5.13-10.29c-1.06.33-2.01.76-2.43,1.16l-2.94,2.86c-2.89,2.17-10.88,1.06-14.07.37-.75-.16-2.26-1.16-2.94-1.36l-4.08-1.21-5.07-1.66c-2.02-.66-4.36-2.27-4.41-4.8-.02-1.03.71-3.19,1.26-4.05l2.53-3.95c.95-1.49,2.03-3.35,3.15-4.58l8.3-9.08c.48-.53,1.34-2.01,1.93-2.4l3.45-2.25,6.57-4.38c.55-.36.57-2.67.09-2.45l-6.12,3.08-4.03,1.86c-1.46.67-3.41,2.15-4.65,3.26l-3.35,3.01-2.84,2.29c-2.49,2.01-3.37,5.6-4.92,8.33-.94,1.65-1.82,3.19-2.63,4.86l-2.27,4.69c-1.02,2.11-.94,4.05-.92,6.48,0,1.16-.29,3-.45,4.34l-.62,5.17,4.01,4.06c.51.52,2.06.68,2.88.68,8.62.05.42,2.84,13.85.36,6.28-1.16,2.39.22,8.89.05,1.43-.04,2.19.07,3.62.59.83-1.27,2.28-3.44,3.09-5.07ZM196.32,536.3l5.2,1.01c2.02.39,4.41,1.14,6.31,1.19l4.23.11c3.89.1,5.45.88,7.12.6l7.67-1.28c.89-.15,6.62.41,7.88.32l10.32-.78,14.38-.85c-.88-.39-2.41-1.04-3.46-1.26l-12.73-2.74c-1.85-.4-3.89-1.78-5.61-2.69l-4.58-2.43c-2.21-1.17-4.3-2.01-6.78-3.05-1.65-.68-3.28-2.81-4.69-4.06-5.96-5.27-2.87-8.98-2.77-13.26l.09-3.91,1.2-6.44c.16-.88.02-2.85.15-3.81l1.09-7.8c.37-2.63,1.67-5.25,1.62-8.34-.06-3.84.86-.97,1.88-7.76l.97-6.47.67-5.17c.21-1.61.47-3.37.83-4.91l.94-4.1.78-5c.31-2.01.57-4.32,1.16-6.2l1.39-4.37c2.3-7.23-.73-2.4,1.82-9.83.06-.52.2-1.73.29-2.28l.65-4.08,1.71-7.93c.16-.76.81-2.32,1.27-3.45l-.79-1.99c-3.07,2.1-7.96,10.15-10.15,11.51l-3.56,2.21-4.15,4.38-3.42,3.6c-1.82,1.92-1.85,3.58-3.87,5.79l-6.35,6.97c-.69.75-.17,3.67-5.23,8.18-9.31,8.3-1.75,3.57-10.17,12.14l-3.39,3.45c-2.06,2.1-3.57,4.39-5.55,6.57l-4.02,4.42-3.67,4.37-6.91,6.86c-1.06,1.06-1.9,2.86-2.72,4.13-5.53,8.66-3.25,2.28-5.9,15.35l-1.25,6.18c-.27,1.34-.54,2.79-.73,4.13l-.53,3.76c-.21,1.47-.13,3.15-.26,4.68l-.53,6.51c-.15,1.81,2.7,4.38,4.67,3.81,1.54-.45,2.19-3.34,3.77-7.04l2.1-4.94c.64-1.5,2.21-5.16,4.76-3.98.61.28,1.43,1.51,1.65,2.24,2.6,8.58,2.78,5.28,4.01,11.41l.98,4.86,6.71.6,6.75.78c2.03.24,4.68-.34,6.74.06ZM474.21,450.57l3.42.13,12.41.46c2.54.09,10.65-1.23,14.27-1.19,3.21.04,6.41.52,9.4-.08l4.83-.97,6.12-1.24c1.62-.33,3.46-.78,5.04-1.27l9.22-2.88c1.67-.52,13-5.84,14.25-6.85l5.06-4.06c2.03-1.63,4.6-2.77,6.09-4.89.47-.66,1.04-2.02,1.47-2.49l3.78-4.21c.23-.26.69-1.56.39-1.63s-1.18-.2-1.56-.1l-8.3,2.24c-1.7.46-4.37.16-5.9,1.02-4.97,2.79-3.58,3.89-8.36,6.52l-5.61,3.09c-1.13.62-3.7,1.46-5.02,1.57l-6.62.53c-1.41.11-3.72,1.42-5.05,1.43l-3.92.06c-6.82.1-8.57,1.42-19.26,1.35-7.32-.04-4.21.54-11.55,1.55l-7.17.99c-1.47.2-3.22.33-4.6.66l-3.49.82-1.8,6.4c-.19.69-.28,2.27.16,2.73.35.37,1.33.27,2.3.3ZM473.81,437.65l4.95-.88c.99-.18,4.57.74,12.88-1.48,2.24-.6,4.16-1.01,6.39-1l7.48.04c1.92,0,3.88-.13,5.71-.37l11.98-1.58,6.71-1.17c3.12.3,6.22-.14,9.06-1.85l6.71-4.03c.44-.26,1.07-1.9.97-2-3.22.17-6.09.55-9.15.45l-8.62-.27c-2.23-.07-4.59.32-6.84.46l-8,.49c-2.64.16-5.37-.09-8-.19l-8.56-.32c-2.29-.08-4.52,0-6.82.15l-5.2.33c-2.06.13-5.42-.3-7.37-.58s-.82,3.85-3.47,5.31c-.5,2.69-.72,5.46-.8,8.48ZM451.57,516.7l-3.83-.6c-1.24-.19-3.1.02-4.39.54l-.34,7.13c-.03.54.09,1.74.13,2.2l4.44-1.22c2.43-.67,4.93-1.09,7.45-1.04,6.13.13,4.64-2.86,9.14-2.98l.76-5.99c.37-2.93.82-5.77.99-8.72l.5-8.57.35-6.55.2-4.75.29-6.98c.19-4.55.55-8.76.97-13.3.09-.92-.37-2.82-.36-3.72l.06-4.14-1.5,1.98-6.06,3.8c-1.15.72-3.61.69-5.02,1.13l-9.15,2.84-.14,3.99-.53,7.51c-.1,1.42-.46,3.21-.49,4.5l-.12,6.27c-.04,2.1-.31,4-.69,6.53l1.31,1.03c1.71-.02,4.19.9,4.81,2.6-.97,1.07-2.98,1.09-4.37.84l-1.23-.22c-.25-.04-.53.92-.57,1.26l-.9,9.04c-.37,3.72,1.93.66,6.75,1.85l3.79.94c.5.12.33,1.56-.06,1.92-.33.3-1.69.94-2.2.86ZM149.5,527.77l1.03-4.55c-.33-3.59.13-6.97.74-10.45.11-.65.06-2.19.23-2.8l1.85-6.58c.08-.29-.97-1.59-1.16-1.34-2.19,2.77-1.98,2.61-3.41,5.57l-1.88,3.9c-.45.94-.86,2.73-1.22,3.91l-1.39,4.54c-.43,1.41.13,3.5,1.02,4.49l4.19,3.32ZM447.31,537.4l5.74-.73c1.76-.22,3.43-1.06,4.89-2.1l3.58-.61,1.31-5.65c.37-1.6.87-3.01.51-4.64-7.48,5.07-8.16,2.1-16.33,4.3-1.36.37-2.86.22-4.31-.06l-1.22,5.16c-.44,1.84-.77,3.58-.53,5.27l6.36-.92Z"/>
      <g>
        <path d="M346.47,401.6c-3.17.46-2.88-7.07-2.67-8.4l.87-5.53c-2.29-.91-4.08-1.53-6.18-2.16l-4.51-1.35c-4.54-1.36-5.41,2.44-9.03-1.06,1.93-.91,7.83-2.76,9.37-2.14l4.17,1.68c1.19.48,3.13.42,4.33.78,1.02.3,3.04,1.59,4.05,2.09,1.82.89-.33,3.63-.38,6.17l-.07,3.99.05,5.95Z"/>
        <path d="M374.16,385.06c.59.17.41,2.29-.19,2.36l-4.27.47c-2.13.23-4.82,1.24-6.98.82l-12.7-2.49c-.44-.09-1.04-.65-1.23-.9s.91-1.13,1.26-1.15c6.52-.32,8.96,1.63,16.4,1.77,1.24.02,3.54-1.31,4.84-1.72l2.88.85Z"/>
        <path d="M393.8,387.79c0,1.68-8.63,1.36-10.6,1.07l-4.52-.66c-.69-.1-2.15-1.31-1.61-1.66,1.94-1.24,4.51-.97,6.71-.77,5.46.5,10.04-.68,10.03,2.03Z"/>
        <path d="M413.73,117.32l-2.22,1.25c-.61.34-1.85.37-2.91.25.73-2.19,8.06-7.86,9.77-8.59l4.59-1.97c.68-.29,2.32-.45,2.92-.28.02,3.68-3.26,1.33-8.66,5.81-1.34,1.11-2.37,2.21-3.49,3.54Z"/>
        <path d="M350.92,373.65c-.09,1.49-.38,4.23-.74,5.6-.14.52-2.08.89-2.4.63l1.01-15.75c.04-.57,1.28-1.38,1.77-1.34.59.05,1.08,1.34,1.02,2.03l-.43,5.04-.24,3.78Z"/>
        <path d="M279.92,375.5l-4.12,2.46c-1.09.65-3.81-.09-5.24-.3-1.06-.16-3.11.18-4.06-.18l-4.92-1.84c1.85-1.96,4.09-1.32,6.38-.91l3.57.64c3.38.6,4.93.65,8.39.13Z"/>
        <path d="M377.76,403.01c-.09.33-1.16,1.01-1.45.86s-1.23-.88-1.22-1.19l.15-6.34c.03-1.21-.11-2.45-.29-3.8l3.2-.81c.42-.11.78,1.16.7,1.6-1.1,6.26-.03,5.93-1.09,9.67Z"/>
        <path d="M445.12,99.86c-.67.39-2.32.56-3.66.63-.17-.71.49-1.97,1.07-2.21l8.79-3.7c.16-.07.96-.17,1.03-.02l.39.82-3.03,1.78-4.59,2.71Z"/>
        <path d="M409.05,390.13l-7-1.21c-.28-.05-1.28-.57-1.08-.74,2.51-2.2,6.54-.76,9.74-.46-.02.58-.98,2.41-1.66,2.41Z"/>
        <path d="M270.11,410.43l-2.18,1.12-6.23-4.2,2.77-.82c1.67,1.74,2.98,2.6,5.64,3.9Z"/>
        <path d="M416.67,211.12c-3.59,7.9-5.91,11.78-15.62,9.91l-1.42-8.14c-.31-1.8,2.17-4.02,3.48-4.89,2.59-1.71,4.9-1.07,7.04.76l4.08.9c.61.14,1.8.91,2.44,1.46ZM412.31,213.23c-.15-.72-1.98-1.56-2.8-1.72l-3.64-.69c-.4-.08-1.22-.09-1.59-.04s-.6,1.31-.55,1.72l.75,5.95c4.21.41,5.84-1.13,7.82-5.22Z"/>
        <g>
          <path d="M483.15,509.26c-.08,1.66-.75,4.44.24,5.78.66.85,3.5.4,4.53.07l2.24-.72c.96-.31-.09-3.88-.06-5.43l.08-4.19.85-18.72c.12-2.59,1.12-5.2,1.55-7.59l1.26-7.02.56-3.22.63-3.79c.42-2.54,1.41-5.66,2.57-8.02.34-.69,2.31-1.24,2.74-.7l1.64,2.04c-2.62.5-3.88,8.18-4.31,10.48l-1.77,9.7c-.31,1.7-.9,3.78-1.01,5.36l-1.29,17.72c-.14,1.94-.03,4.07-.08,6.04-.05,1.82-.07,3.32.47,4.91l.93,2.76c1.74-1.98,1.13-4.45,1.4-6.95l.61-5.55c.64-5.82,1.15-5.98,1.73-11.5.67-6.29-.13-10.31,2.94-14.91,1.97-2.95.21-.83,1.69-7.65l.7-3.21,1.04-4.44c.37-1.58,2.51-4.09,3.81-5.33.5-.48,2.47,1.04,2.17,1.75l-2.14,5.12c-.97,2.31-2.34,4.25-2.58,6.68l-.61,6.27c-.31,3.23-2.48,6.02-2.87,9.29l-.5,4.23c-.34,2.87-.81,5.6-1.45,8.47l-.84,3.74c.54,1.85.19,3.14.16,5.1l-.11,7.62c-.04,2.47-3.11,4.1-4.87,5.65-3.28,2.89-5.1-1.39-6.97-.78l-6.8,2.25c-.41.13-1.69.08-2.02-.18-.4-.33-.28-1.24-.11-2.16.66-3.69-.61,1.98-.09-6.06l.56-8.79.03-3.71,1.28-14.92c.2-2.31.92-4.52,1.54-6.89.51-1.93.15-4.62.41-6.63l.84-6.35c.19-1.46.49-2.84.97-4.17l1.39-3.88c.22-.61,1.68-1.61,2.16-1.13,1.39,1.4.99,3.6.61,5.33l-.76,3.43-1.04,4.73c-.51,2.32-.64,4.74-.95,7.1l-1.91,14.57c-.22,1.69-.43,3.42-.52,5.09l-.43,8.29-.24,4.99Z"/>
          <path d="M558.51,227.84c-4.1,4.98-6.72,13.94-10.03,10.44.05-2.29,5.55-9.63,6.95-11.35l5.88-7.28c.59-.73,3.87-5.27,5.21-3.43.28.38.65.94.83,1.23-3.45,2.78-2.87,3.11-6.01,6.93l-2.83,3.45Z"/>
          <path d="M561.88,243.81c-1.27,1.5-5.4,5.29-7.53,4.33.48-2.2,1.37-2.76,2.73-4.01l6.32-5.75c1.36-1.23,2.01-2.06,3.95-2.86-.02,1.52-.25,2.12-.92,2.9l-4.56,5.39Z"/>
          <path d="M582.38,193.5c-.32-.25.31-1.56.63-1.85,3.6-3.27,3.82-5.31,6.95-4.97-.94,2.74-2.36,6.89-4.62,7.57-.74.22-2.3-.23-2.96-.75Z"/>
          <path d="M646.82,189.49c-.34,4.29-7.81,7.24-8.43,5.77-.11-.26-.2-1.24.02-1.43l2.9-2.49c1.68-1.44,3.19-2.26,5.51-1.85Z"/>
          <path d="M608.94,166.29c-2.57,2.48-2.8,2.8-5.7,1.87-.16-.05-.58-.44-.5-.58.12-.22.57-.84.78-1.01l3.16-2.56c.4-.32,1.61-.39,2.07-.16.56.27.63,2.01.18,2.44Z"/>
          <path d="M586.11,222.28c-.24.14-1.73.33-1.76.06l-.11-1.24,3.93-2.84c.41-.3,2.06-.87,2.29-.45l.8,1.41-5.16,3.05Z"/>
          <path d="M615.5,201.66c-1.27.23-3.3.38-4.29.3-2.24-.19,2.06-3.38,5.15-3.05.26.9-.16,2.63-.86,2.75Z"/>
          <path d="M525.18,198.25c.09.6-.7,1.82-1.26,2-.66.21-2.33-.52-2.5-1.2-1.65-6.78-1.98-6.54-1.83-13.89.42-.54,2.61-1.27,3.32-.84,2.04,1.21.89,4.97,1.65,9.9l.62,4.03Z"/>
        </g>
      </g>
    </g>
  </g>
</svg>