<?xml version="1.0" encoding="UTF-8"?>
<svg id="Layer_1" xmlns="http://www.w3.org/2000/svg" version="1.1" viewBox="0 0 529.07 548.26">
  <!-- Generator: Adobe Illustrator 30.2.1, SVG Export Plug-In . SVG Version: 2.1.1 Build 1)  -->
  <g id="zM3DUM.tif">
    <g>
      <path d="M425.07,416.69l-4.77-1.22c-.65-.17-.85-2.24-.26-2.31,2.81-.35,5.73-.13,6.7,2.24.18.45-1.14,1.43-1.66,1.3Z"/>
      <g>
        <path d="M469.05,0h.5c1,3.03,1.62,2.65,3.98,5.23.04,2.25,0,4.55-.07,6.82l-.2,5.53c-.04,1.24-.15,2.74-.3,4.02l-.48,4.07-.57,5.06c-.19,1.71-.26,3.41-.24,5.05l.07,8.06c0,1.04-.09,2.37-.15,3.57l-.21,4.14.52,8.95-.34,5.07c-.09,1.42.24,2.79.36,4.19.22,2.52.09,5.13.13,7.63l.1,6.15c.08,4.92-.76,9.46.41,13.03-.06.63-.15,1.71-.13,2.45l.1,5,.2,4.38c.06,1.24.21,2.43.17,3.54l-.08,1.91c-.24,5.54,1.4.98.64,10.09-.11,1.31-.11,2.52-.15,3.77l-.21,7.47-.19,5.05-.24,5.05c-.35,7.25.5,4.72.12,12.14l-.31,5.98c-.05,1,.03,2.04.03,3.08v12.53s-.06,3.6-.06,3.6c0,.37.21,1.26.5,1.34l1.15.29,6.16,2.76c1.12.5,3.78.51,3.33,2.69l-.76,3.66-.78,3.8c-.28,1.36-.56,2.82-.72,4.13l-.6,5.06-.43,3.55-.5,5.03-.33,9.38-.25,3.58c-.12,1.69.18,3.41.27,5.2l.25,4.88.13,3.3.19,3.37c.25,4.62.23,9.96-.1,14.47-.13,1.8-.44,3.34.42,5.01,1.55,3.02.5,9.72-2.72,10.43-.35.08-1.37-.33-1.67-.47-1.71-.76-.58,3.81-.55,4,.79,5.72-.74,5.5-.75,12.69v7.74s-.02,2.64-.02,2.64c0,.36-.81,1.34-1.24,1.45-1.6-2.18-.67-4.32-.97-8.29l-.46-6.24-.24-3.24-.33-5.4c-.07-1.2-.31-2.69-.52-3.9l-.55-3.27c-1.79.66-3.34,1.41-4.93,2.5l-2.75,1.88-.39,6.17c-.09,1.5-.09,2.78.03,4.3.31,3.8.17,6.15.1,10.06l-.18,9.38c-.04,1.87.11,3.61-.03,5.44-.12,1.6.04,3.16.12,4.78l.33,6.98.15,3.05.2,5.56.29,7.06c.22,5.34-.58,4.09-.2,8.82l.31,3.87c.31,3.95-.62,4.06-.03,9.5.77,7.16,1.56,2.26.92,10.13-.06.73-.05,1.65-.03,2.46l.1,3.95c.04,1.45,2,3.23-.35,5.34-.83.75-.69,2.53-.64,3.84l.32,9.54.26,5.79c.02.45.3,1.54.26,1.99-.16,2.02-.67,4.96.5,6.6,1.1,1.54,5.44,2,6.48.5s2.09-3.69,2.67-5.35l1.21-3.48c.93-2.68-1.26-5.22.59-10.64.78-2.3-.1.29-.68-4.42l-.43-3.52c-.04-.31,1.05-.87,1.29-.74.67.35,1.33,1.74,1.25,2.44-.15,1.17-.16,1.88-.1,2.79l.29,4.97c.14,2.47.99,4.95.95,7.32-.03,1.52.04,2.59.86,3.91,3.99,6.39,2.64,7.8.66,15.63-.63,2.48-2.54,3.85-5.17,3.38-3.19-.57-9.32,1.02-11.09,2.58l-2.15,1.9c-.63.55-.95-.64-2.74-3.13-.51-.71.76-2.53,1.77-2.88,3.96-1.38,1.75,1.33,6.07.08l4.77-1.38c1.84-.53,5.68.92,6.36-2.04l.76-3.32c.85-3.67.78-1.98-.33-5.77-.13-.44-.84-1.41-1.14-1.79-.37-.32-.67-.66-.75-.47l-.36.77c-.77,1.65-1.58,3.52-2.61,4.99-1.5,2.14-5.03,2.48-7.11,1.58l-3.12-1.35-2.97,2.64c-.52.47-2.2.92-2.82.78l-2.38-1.37c-.42,1.46-.76,2.71-1.33,3.71-1.09,1.92-4.42.92-5.8-1.21l-2.94-4.56c-1.12-1.74-1.78-4.5-.61-3.88.17.09.78.43.92.61l5.47,6.85c1.11,1.39,1.76-1.98,1.8-2.42.39-4.34.06-4.51-1.03-8.87-.59-2.35-3.56-2.84-1.67-5.58.36-.53,1.47-1.2,2.01-1.07s1.52,1.02,1.7,1.58c.69,2.15,1.48,4.43,1.96,6.58l1.01,4.43c.1.45,1.05,1.49,1.44,1.72.84.5,1.03-3.36.83-4.09l-.77-2.88-1.02-4.06-.7-2.8c-.06-.25-.37-1.1-.19-1.21.51-.31,1.37-.75,1.84-.91,1.76-.6,2.84,6.03,3.01,7.05l.42,2.5c-.08.13.3-.5.52-.87.09-.97.31-2.27.27-2.93l-.2-3.44-.29-4.71-.15-4.59c-.11-3.54-.43-4.36-.58-8.8l-.21-6.14c-.02-.62-2.92-2.29-1.58-2.4l2.39-.18.07-3.61c.02-1.11-.17-2.7-.52-3.69-.15-.56.49-1.99.5-2.62l.13-5.41c.04-1.54-.07-3.02-.14-4.52l-.09-1.89c-.06-1.4-.02-2.74.08-4.24.04-.54-.18-1.77-.19-2.37l-.19-7.57-.07-5.04.08-2.88v-3.77s-.85-6.44-.85-6.44c-.38-2.88.21-16.93.3-16.5-.4-1.97-.4-3.89,0-5.88.14-.7-.23-2.2-.25-2.95l-.21-10.98-.04-1.86c-.03-1.33.06-2.65-.14-3.9l-.46-2.82c-.06-.38-.45-1.37-.81-1.34l-1.81.16c-.74.07-2.19-.54-2.8-1.14l-3.15-3.12c-2.99-2.96-7.49-3.1-7.41-4.69l.2-3.98c.06-1.26.09-2.38-.1-3.53l-.59-3.56-1.02-6.59c-1.34-8.66.76-4.63-.22-10.81-.28-1.74-.01-3.67-.06-5.4l-.15-5.49c-.17-6.06-.93-6.71-.37-14.04.14-1.85.46-3.63.16-5.39-.25-1.5-.36-3.06-.09-4.44l1.61-8.04.44-2.72,1.89-.93c-.19-1.4.54-2.99,1.81-3.8l3.23-2.05c.52-.33,1.89-.31,2.53-.1l3.85,1.29c1.69-5.5.77-6.23,1.44-12.69l.29-2.81c.09-.84-.22-2.42-.36-3.6-.12-1-.08-2.2-.14-3.17l-.26-4.58c-.25-4.51.47-9.72-.12-11.93-.65-2.46-1.17-4.3-.29-6.78.25-.7.62-2.16.29-2.69-.25-.41-1.22-1.38-1.26-1.85l-.39-4.52c-.41-4.77.05-7.1-.04-11.6l-.22-11.58c-.02-1.28-.37-3.1-.52-4.45l-.46-4.12-.13-2.99-.38-4.7c-.08-1.02.88-2.94.92-3.92l.31-7.54c.04-.91.13-2.01.24-2.84l.57-4.37c.17-1.33.33-3.08.3-4.28l-.08-3.67c-.04-1.99-.9-7.27,1.67-7.64.57-.08,1.93.69,2.03,1.3l.96,5.92c.14.84.07,2.57.03,3.37l-.27,4.66c-.07,1.23-.36,2.44-.73,3.72-1.67,5.84.98,5.02-.99,11.15-.86,2.67.38,5.19.49,7.91l.36,9.37c.09,2.45.64,4.97.04,7.29-.52,1.99.2,2.87,1.41,4.43.86,1.11.22,3.98.28,5.44.1,2.47.05,4.67-.21,7.12-.68,6.4-1.37,4.27-.41,7.36.37,1.17.04,2.9.02,4.36-.03,2.15.87,5.85.72,6.44l-.96,3.75c-.21.81.32,1.66,1.28,2.16l-.43,2.78c1.24,3.42.32,1.83.37,7.6,0,1.02-.46,2.73-.55,3.87l-.24,3.27c-.49,6.53.95,7.67.37,10.53l-.85,4.17c.47.04,1.47.1,2.11.11l6.31.08c1.6-5.38.17-1.08-.55-7.98l-.22-2.11-.11-18.18c-.01-2.06.12-4.69.3-6.51.05-.46-.24-1.66-.24-2.06l.03-18.6c0-.18.72-2.98.74-7.59.03-5.4-.48-5.08-.37-10.7.04-1.86-.2-3.62-.25-5.5l-.22-8.53v-3.56s.07-7.33.07-7.33l-.49-2.93.08-7.77c0-.6.28-1.87.24-2.43-.22-2.96-.26-4.08-.1-6.92l.22-3.76.28-2.87c-2.01-3.19-.92-4.89-.86-8.87l.21-13.54c.02-1.02.23-2.35.28-3.39l.14-3.25c.11-2.51.6-5.04.61-7.6.03-6.26-1.64-4.5.41-8.66-.56-.87-.57-1.81-.43-3.05.29-2.56-1.75-5.3.4-10.88ZM475.15,191.07l2.39-2.16c-1.74-.84-3.16-1.42-4.65-1.91-.5,1.38-.85,2.52-1.33,3.09-.95,1.15-2.96-.22-3.09-1.36-.04-.38-.64-1.5-.99-1.53l-3.79-.32c-.48-.04-1.77.79-2.26.78l-6.83-.1c-.62,0-2.17-.95-2.73-.99-1.09.28-2.87,1.2-3.52,1.88l-1.4,1.48c4.17.92,4.23,2.67,7.92,2.8,5.39.18,2.84-.84,8.73,2.41,2.05,1.13,4.64-.26,6.32-.99,1.83-.79,3.71-1.69,5.23-3.08ZM465.19,270.19l.06-5.42-.06-3.48-.21-4.51-.89-3.26c-.45-1.67.3-10.27.15-10.94l-.97-4.34c-.12-.55.24-1.81.24-2.4v-5.34c-.02-1.41.16-2.76.34-4.18.89-7.11-1.41-5.57.21-11.78.02-1.41.16-2.8.44-4.15l.96-4.64c.15-.73.22-2.34.19-3.03l-.21-4.21c-2.28-.57-3.97-1.23-5.83-2.47-3.14-2.1-3.47.62-8.5-1.13l-5.12-1.78-1.46,2.49c.23,1.63.2,2.68-.06,4.33-.68,4.42,1.1.7.2,8.24-.15,1.26-.28,2.42-.36,3.67l-.26,4.12.29,4.42-.14,4.61-.09,3.18-.08,1.75c-.09,1.99-.13,3.75.11,5.78.66,5.55-.54,5.58.28,8.24.53,1.72,1.18,3.55,1.29,5.25l.3,4.47c.14,2.04.35,4.04.29,6.1-.07,2.36.82,3.76,2.82,4.89l3.54,2c.92.52,2.46,2.25,3.53,2.44l6.5,1.12c.7.12,2.45.06,2.48,0ZM476.99,270.75c.67-1.38.48-2.63.34-4.06l-.46-4.47c-.07-.67,1.01-3.24.61-9.91l-.22-3.63-.24-4.06c-.04-.75-.38-2.25-.29-2.92.31-2.18.33-4.12.1-6.17.75-3.54-.6-6.7-.44-9.58l.38-7.04c.05-.97.18-2.13.32-3.1l.64-4.42.59-4.04c.16-1.12.01-2.32-.05-3.73-.05-1.16.56-3.1.74-4.42l.54-4.06c.04-.33.1-1.46-.21-1.41-3.27.53-.37.59-6.03,2.35-1.41.44-2.85.58-4.37.43l-.11,2.71-.17,3.08c-.34,6.05-.57,3.25-.81,6.43l-.39,5.16c-.14,1.9-.65,4.13-.62,5.89.04,2.19.06,4.08-.14,6.22l-.37,3.95c-.18,1.95-.37,3.89-.17,5.8l.68,6.44c.28,2.63-.2,5.81.23,8.4l.37,2.23.19,9.42.62,5.2v1.38c.01-.18,1.06,1.62,4.46-.07,1.66-.82.88,1.78,4.25,1.99Z"/>
        <path d="M529.07,418.48v1.07l-1.05,1.9-4.44-.99c.25-1.65,1.04-3.34,2.41-3.14,1.06.15,2.25.73,3.08,1.16Z"/>
        <path d="M493.84,419.1l-1.28-4.64-1.71,4.28c-.67,1.68-1.82,3.18-3.37,3.76l-1.62-1.56c-1.09,2.03-1.04,6.85-2.62,7.81l-3.83,2.32c-1.54.94-3.03,1.64-4.7,2.39-4.24,1.9-4.33.89-10.42,2.15-1.38.28-2.71-.24-2.84-2.06.63-.35,2.18-.92,2.89-.97l4.74-.36c2.93-.22,5.79-1.2,8.28-2.69,3.41-2.04,3.96-2.58,4.94-5.71l1.08-3.44c.33-1.07.59-2.98.67-4.31l.24-3.96c.08-1.33.38-2.52.68-4.12.14-.78,2.71.17,2.69.98l-.08,4.25c-.02,1.23.4,2.83.77,3.93,1.9-3.91,1.8-4.49,4.2-7.34.33-.39,1.81-.56,2.03-.13,2.01,3.87.4,2.94,1.87,8.21.34,1.22,1.94,2.54,3.01,2.02l3.2-1.56,1.57-1.91c.26-.31,1.05-.85,1.43-.89.48-.05,1.38.49,1.81.89l3.42,3.26c.49.47-.09,1.93-.67,2.16-2.45.96-2.56-1.79-5.25-1.95-.52-.03-1.6,1.06-2.09,1.29l-3.81,1.8c-1.12.53-2.4-.16-3.07-1.04l-2.18-2.87Z"/>
        <path d="M476.28,382.55c-.15.21-1.47.1-1.42-.15l.25-1.41-.66-4.17c-1.34-8.49,1.71-2.76.16-11.31l-.47-2.56c-.13-.71.31-2.2.43-2.99l.49-3.21c.4-2.61.15-2.58-.13-5.62l-.56-6.06c-.59-6.39.47-3.01-.16-10.17-.14-1.58-.12-3.42-.37-4.87-1.29-7.39-.42-4.79-1.16-11.82-.12-1.14-.22-2.42-.26-3.48l-.21-5.07c-.02-.37.15-1.28.26-1.61.13-.41,1.54.25,1.68.65,1.02,2.89-.09,1.98.59,6.88.12.85.09,2.03.16,2.84l.77,8.86c.07.84.08,1.91.2,2.81.13.95.62,2.5.64,3.28l.16,6.6c.02.91-.14,5.38-.44,5.86-.76,1.23-.79,3.34.44,4.6.8.82.09,3.11.03,4.13l-.3,4.65c-.05.81.24,2.41.25,3.43l.04,3.55-.04,3.52-.12,7.11c-.07,4.16.65,4.42-.26,5.75Z"/>
        <path d="M519.15,420.88c-.69.96-3.47,1.41-3.57-.37-.08-1.33,2.19-2.77,3.29-3.41l1.9-1.11,1.05,1.19-2.66,3.71Z"/>
        <path d="M452.65,225.25c-1.26-.89-2.26-2.23-3.15-3.49-1.2-1.71-1.47-3.67-1.53-5.68-.07-2.16-.2-4.46.11-6.52l.55-3.61c.08-.54.49-1.95,1.01-2.11s1.34-.31,2.2-.48l1.49-1.79c.67-.3,2.57-.65,3.32-.42,7.34,2.32,7.43,14.68,2.36,21.33-.54.71-1.59,1.61-2.32,2.29s-3.23,1.05-4.04.47ZM451.2,218.64l2.45,3.02c.25.3,1.1.78,1.43.65,3.59-1.45,7.16-15.29.46-17.64-1.8,2.62-1.43,6.95-2.76,6.52l-1.75-.58-.52,3.64c-.11.74.17,2.1.36,2.93l.34,1.46Z"/>
      </g>
      <g>
        <g>
          <path d="M291.43,548.26h-2.97c-4.98-2.28-3.8-.48-9.84-4.21-1.24-.77-3.23-1.08-4.54-1.61l-3.5-1.44c-2.1-.86-4.04-1.9-5.99-3.11l-3.11-1.92-2.31-.84c-.87-.38-1.5-.63-2.43-.89-1.52-.42-3.22-1.79-4.65-2.33l-3.78-1.41c-3.78-1.41-4.55-.7-7.9-3.54-1.7-.36-3.18-1.15-4.68-2.08l-4.7-2.94-5.17-3.38c-3.05-1.99-6.38-3.39-9.59-5.1l-3.61-1.93c-5.56-2.96-4.06-1.09-11.31-4.67l-4.44-2.19-3.04-1.5-2.78-1.34c-.97-.47-2-1.23-2.94-1.47-1.64-.43-2.33-1.3-1.95-2.98.77-3.36-.03-1.05-.19-4.98l-.23-5.6-.35-8.63c-.04-.98-.2-2.29-.33-3.25l-.64-4.79-.55-4.56c-.15-1.25-.42-2.61-.65-3.85l-.86-4.69c-.31-1.68-.63-3.46-.76-5.09l-.32-3.95c-.4-4.92.24-3.71-.4-8.59l-.54-4.09c-1.04-7.92,1.06-3.55-.33-8.97-.2-.78-.71-2.11-.77-2.81l-.55-6.7-.21-2.75c-.09-1.25-.21-2.44-.37-3.64l-.53-4c-.18-1.35-.34-2.96-.82-4.1l-1.56-3.66c.42-.82,2.3-2.63,3.44-2.93l4.43-1.16c.66-1.54,1.42-2.85,2.88-3.33l6.45-2.17,9.86-3.77c4.41-1.69,3.11-3.86,5.99-2.51l2.85,1.33.29-4.3c4.45-4.47,9.9-.17,10.58-2.12s1.44-5.49,1.64-7.48l-3.72-2.65c-6.07-4.32-1.98-8.78-4.57-10.44-.98-.63-2.74-1.5-3.23-2.31l-1.79-2.91c-.67-1.09-1.22-3.08-1.24-4.38-.04-1.71-.28-3.02-.56-4.68l-.68-4.01c-.22-1.29-.37-2.57-.75-3.79l-1.53-4.91c-.85-2.72-1.18-5.66-1.66-8.48-.18-1.06.61-3.32.54-4.39l-.31-4.58-.2-3.01-.35-5.11c-.1-1.48.24-3.22.22-4.63l-.1-7.11c-.01-.8-.42-2.21-.3-3.11.15-1.1-.1-2.07-.19-3.13-.25-2.82,1.04-8.44.35-15.17l-.47-4.6c-.14-1.33-.2-2.67-.2-3.95v-4.71s-.59-3.44-.59-3.44l-.19-6.63c0-.25-1.18-5.1-1.28-7.53l-.34-7.93c-.06-1.42-.27-2.91-.04-4.23l.79-4.56c.42-2.41,3.77-6.92,5.56-8.91l2.41-2.68c1.09-1.22,2.35-2.33,3.57-3.47l2.08-1.96,2.26-2.23-.38-4.9c-.34-4.41-1.84-7.73-2.02-9.43l-.5-4.68c-.27-2.5-.86-5.03-1.45-7.5-.52-2.19-.79-4.67-1.49-6.7-.79-2.3-.92-3.96-1.04-6.41-.07-1.38-.47-3.4-.72-4.95l-.91-5.62-.48-3.55-.81-5.09c-.44-2.78-.27-4.93.02-7.29-.66-1.11-1.3-2.81-.93-3.91l1.55-4.65,1.01-3.04c2.27-6.8,3.57-5.65,5.07-6.67,3.23-2.19,3.37-3.92,8.96-7.61l3.36-2.22c1.78-1.17,3.52-2.51,5.18-3.84l2.84-2.27c7.27-5.81,1.79-1.38,7.33-4.71,1.56-.94,2.98-1.82,4.61-2.53l4.24-1.84,6.82-3.13,2.53-1.07c1.06-.83,2.12-1.7,3.26-2.29l9.69-5.04c4.08-2.12,2.44-1.56,7.2-3.3l3.63-1.33c8.17-2.99,8.98-5.42,15.87-5.59l4.11-.11c3.31-.08,6.8,1.64,9.95,2.91,3.95,1.59,7.59,4.07,10.31,7.29,3.75,4.43,6.05,7.92,7.62,13.48l1.15,4.07c.42,1.5.54,3.13.83,4.78l.66,3.64c.9,5,1.69,5.71,2.11,10l.45,4.62.51,5.04.42,4.02c.11,1.08.26,1.97.45,3.11.25,1.5.13,3.26.4,4.87l.76,4.63c.59,3.58-.21,7.4.39,10.93.82,4.8.52,3.63,1.13,7.84,2.2-.34,3.26.83,5.07,1.48,1.21.43,3.73.32,5.2.66l4.18.96,4.01,1.06,3.46,1.03c.69.21,2.44.31,3.13.43l3.4,2.35c.6.41,2.06.56,2.81.87l4.01,1.63c3.18,1.29,7.62,4.63,9.24,7.44l1.53,2.66c.57.99,1.19,3.12,1.37,4.5.96,7.46-.81,3.54-.59,9.05l.35,8.54.36,5.59.1,4.32c.03,1.25.16,2.5.25,3.81l.26,3.49.25,4.06.43,5.02-.08,3.61,1.1,8.04.82,5.71.98,6.69,1.27,7.82c.25,1.57.18,3.64.28,5.3l.19,3.16.22,3.06c.1,1.47.45,3.29.89,4.63,1.44,4.42,1.18,8.78,1.96,13.3l.63,3.68.43,4.15c.14,1.33.23,2.67.29,3.98l.2,4.63c.08,1.89-1.27,4.3-2.35,5.98-3.83,5.93-2.59,1.5-2.06,5.88.15,1.27-.24,3.18-.27,4.57l-.05,2.67.26,2.03.02,7.42c-5.32,7.04-1.31,4.47-7.72,10.46l-2.13,1.99c-.96.9-1.88,1.7-2.98,2.61l-.03,3.2v4.05s.17,5.33.17,5.33c.11,3.72.76,3.37.69,8.34l-.08,4.97-.08,4.95c-.02,1.29.03,2.75-.09,4.05l-.58,6.58c-.04.51.08,1.51.12,2.19.36,5.52-.15,3.89-.25,8.95l-.06,3.33c-.04,2.03.16,4.14.45,6.25l.67,5.01c.92,6.93-.7,5.18-.06,13.6l.35,4.61c.13,1.76.18,3.42.4,5.08l.49,3.58c.22,1.58.73,2.93.91,4.59l.41,3.82,1.14,4.21c.24.9-.38,3.1-.81,3.93l-3.36,4.33c3.21,4.07,3.92,2.4,7.86,5.78,4.96,4.26.33,1.12,5.72,4.53,1.62,1.03,3.2,2.34,5.07,2.9,5.9,1.77,8.75-.07,10.65,3.25-.11.8-.44,2.22-.41,2.9l.18,3.59c.18,3.52,1.28,6.15-.35,7.41l-5.6.32c-8.49.48-2.96-.18-9.12-.48l-3.09-.15-5.54-.45-4.47-.29-4.6-.31c-5.99-.4-6.02-1.38-10-.82l2.34,1.97c2.38,2.01,5.35,3.05,8.69,2.83,1.38-.09,3.38.6,3.16,2.13l-.57,3.94-.18,11.63c-2.6,2.94-6.33.45-9.35.71l-4.63.41-4.52.31c-2.67.18-4.51-.83-7.64-1.13-1.25-.12-4.2.53-7.29-1.54-2.24.14-4.88.31-7.19.05l-3.73-.41c-1.79-.2-3.81-.9-5.63-1.22-4.57-.81-3.7-.32-8.65-1.97l-3.56-1.18.5,3.73.49,3.61,1.11,5.27c.2.95-2.34,1.81-3.29,1.95-2.52.38-4.71,1.16-6.92,2.11l-2.85,1.23c-5.94,2.56-5.05,2.42-8.98,6.2-1.49,1.43-2.89,2.77-4.24,4.3l-2.12,2.41.08,1.84-1.85,1.01ZM259.31,207.65c-2.51,1.27-4.17,2.34-6.67,3.89,1.22,1.51,6.27,2.13,8.08,2.37l6.17.83c5.6.75.83,1.62,8.95,1.81.95.02,2.31-.06,3.08.12l4.24.95c1.04.23,2.79.66,3.75.68l7.17.14c2.98.06,3.84,1.72,9.39,1.79l3.71.04c8.72.1,6.7,1.76,14.12,2.38,4.62.39,3.62.14,8.13,1.92l3.53-7.7c2.49-5.43,2.97-6.43,4.2-12.38l1.04-5.06c1.43-6.95.11-5.83,1.01-9.88l1.05-4.79c-4.07-.28-2.59-3.03-3.03-9.19l-.37-5.1-.14-4.03-.79-4.99-.14-6.53c-.03-1.35-.13-2.73-.27-4.15l-.4-4.01-.42-3.91-.4-3.12-.87-6.14c-.18-1.24-.04-3.14-.34-4.21-.32-1.18-.66-2.22-.8-3.23l-.72-5.28c-.72-5.33-1.07-5.74-1.72-10.32l-1.25-6.05c-.19-.92-.18-2.72-.44-3.51l-1.66-5.02c-.58-1.75-3.48-7.03-4.67-8.28-1.81-1.9-3.54-3.99-5.62-5.43-5.71-3.95-14.01-5.5-20.5-4.02-4.89,1.11-3.61,1.69-9.68,4.09l-2.38.94-5.58,2.26c-.97.39-2.04.87-2.98,1.37l-4.57,2.46-4.29,2.36-3.5,2.05c-2.79,1.63-4.73,2.73-7.69,4l-5.28,2.27c-3.35,1.44-7.85,3.71-10.77,5.75l-2.39,1.67-2.65,1.92-4.72,3.38c-2.02,1.45-4.16,2.94-6.04,4.49l-5.01,4.11-4.27,3.18c-2.94,8.71-2.94,5.94-2.47,15.54l.12,2.52c.05.99.11,1.88.25,2.73l.86,5.12.79,5.29c.19,1.28.42,2.63.69,3.87.98,4.48.87,6.06,2,11.08.5,2.24,1.1,4.41,1.4,6.64l.58,4.36c.26,1.97.64,3.95,1.04,6l.6,3.08.69,3.78.59,4.07,1.27,7.09.45,3.75c.08.68-.05,2.01-.05,2.79l.02,3.57c0,1.34.13,3.04.29,4.42l.61,5.37,6.09-4,2.94-2.11c2.36-1.7,4.7-3.3,7.24-4.83,1.01-.61,2.85-1.07,3.68-1.81,4.78-4.23,5.78-3.69,10.68-6.58,2.34-1.39,7.61-4.91,9.95-3.42.51.33,1.02,1.89.6,2.33-1.31,1.37-3.82,1.54-5.49,2.38ZM346.98,229.19c1,.42,2.11.75,2.76.85l1.06-4.87c.21-.97.13-2.55.22-3.74l.33-4.61.36-7.44c.43-8.72-.07-3.38-.34-11.16l-.16-4.73c-.02-.69.05-1.6.16-2.52.85-7.45-.44-3.61-2.42-11.75-.64-2.61-2.61-5.67-4.32-7.85-2.53-3.24-.67-3.02-1.97-3.31l-1.6-.37.09,3.03c.07,2.24-.54,5.63.04,9.34l2.28,1.11c2.02,5.47-.03,2.08-.05,8.94,0,1.78-.07,3.47-.33,5.1l-.9,5.65-.72,4.54c-.14.9-.7,2.28-1.07,3.24l-2.55,6.56-1.82,4.4c-.87,2.1-1.75,3.76-2.14,5.98,6.39,2.93,6.99,1.03,13.09,3.6ZM331.23,488.16l4.11-.58,4.63-.81c.93-.16,2.86,0,3.64-.38l4.15-2.05c.07-.99.43-2.2,1.07-2.86.34-.35,1.76-.15,1.99.27l.43.78c.09.16.42.64.59.58l.81-.3.61-.37,3.83-2.4-1.78-6.19-.45-2.61-.6-2.46c-.38-1.57-.82-3.19-1.1-4.78l-1.76-9.95c-.27-1.54-.15-3.16-.19-4.71l-.13-4.99c-.06-2.05-.21-4.03-.39-6.04l-.5-5.63c-.11-1.17-.51-2.86-.53-3.94l-.2-9.01c-.02-.73-.62-8.51-.6-8.46l-1.1-4.11c-.25-.95.01-2.58.01-3.7v-3.02c-.02-3.49-1.33-3.78-.41-7.19.69-2.58.68-4.92.64-7.5l-.06-4.05c-.02-1.1.08-2.66.19-3.91.09-.96,2.49-1.94,3.27-1.24.48.43.43,2.01.34,2.81l-.66,5.61.27,2.56c.09.87-.02,1.93.02,2.77.41,7.34-.44,4.84-.03,9.4.36,3.94-.47,3.79.52,7.57l.87,3.33c.18.71-.11,2.15-.05,3.06l.33,5.01.16,11.4.82,2.41.29,7.66.17,4.2.13,4.58c.08,2.73.39,6.08.89,8.68l1.52,7.97,3.14,2.58c.62.51,2.47.88,3.25,1.28,1.64.83,2.95,1.25,4.76,1.14,4.26-.26,1.31-1.16,3.68-.43.95.29,3.19.24,3.96-.41l2.52-2.12c.23-.2.21-1.33.03-1.59l-.68-.98c-.1-.15.03-.15.66-.53l1.67,1.29,1.52-1.71c.31-.35.03-1.55,0-2.21-.08-1.36.17-3.34-.08-4.45-.54-2.47-1-4.52-1.29-6.86l-.45-3.63c-.16-1.29-.49-2.89-.5-4.04l-.06-6.67.09-3.87c.03-1.21-.13-2.49-.2-3.75l-.35-6.41-.27-3.38-.36-4.24c-.62-7.34.43-6.05.01-10.47-.16-1.66-.1-3.08.05-4.79.76-8.1-.75-10,.06-15.04.11-.71-.29-2.26-.27-3,.05-1.68.81-3.87.71-5.39-.12-1.97-.22-3.54-.15-5.34l.11-2.83c.03-.72-.31-2.23-.08-2.87.25-.71.6-1.67.57-2.23l-.15-3.01-.21-10.54v-3.08s.05-6.56.05-6.56c0-.69-.39-2.01-.59-3.01l-.37-.2-.58.62c-1.08,1.16-.74,2.41-1.89,4.14l-3.63,5.49c-.65.98-1.14,2.66-2.84,2.2l-7.83-2.08c-8.2-2.18-5.68-2.06-11.62-4.23-1.88-.69-2.01,2.97-3.68,4.22-1.89,1.41-1.77,2.99-2.22,4.9-1.35,5.7-1.12,5.07-3.72,8.41-3.09,3.97-7.14,6.3-12.13,7.12l-5.99.98c-2.65.44-5.56.12-8.39.3-1.31.08-3.31.85-4.56.86l-13.1.13-2.15.06-5.35.21-2.63.08-7.1.15c-1.75.04-3.63-.45-5.37-1,.88-2.2,2.53-2.28,4.45-2.26l3.89.04,5.66.03,5.46.02c1.18,0,2.47-.12,3.73-.23l4.4-.36c1.15-.09,2.45-.13,3.54.04l3.25.49c1.85.28,4.09-.45,6.06-.59l7.17-.48,6.55-1.1,2.78-.42c1.29-.2,2.55-1.63,3.39-2.97l2.68-1.26,2.36-3.74c1.57-2.49,1.37-4.68,5.15-10.17,2.34-3.39,2.84-7.48,4.26-11.75l1.9-5.72c.18-.55,1.11-1.56,1.91-1.48.48.05,1.12,1.23.97,1.67-.12.35-.4,1.08-.49,1.47l-1.31,5.53c-.21.87-.34,2.1-.41,3.06.38.26,1.54.95,2.04,1.17l6.3,2.7,3.75,1.69,2.57.61,2.37.77c1.09.35,3.36-4.21,5.04-6.4,2.14-2.79,2.18-2.61,4.15-6.03,3.2-5.57,3.95-3.7,2.85-11.85-.14-1.08-.55-2.58-.55-3.55l-.08-10.89c0-.47.58-1.9.52-2.44l-.88-7.27c-.07-.58.28-2.02.14-2.67l-.66-3.04-.2-13.97c-.01-.96-.53-2.62-.62-3.5l-.29-3.12c-.52-5.64.41-4.1-.6-8.2-.15-.6-.12-1.65-.17-2.39l-.35-5-.52-5.5c-.12-1.26-.42-2.58-.66-3.9-.83-4.53.24-.89-1-7.45-.7-3.72-.69-3.67-.94-7.38-.36-5.18-.37-.37-.67-6.72l-.3-6.36c-.02-.5-1.14-6.11.92-6.13,2.84-.03,2.04,12.31,2.49,15.01l1.31,7.84c.18,1.06.31,2.27.36,3.32l.22,4.21c.05,1.01.93,3.1,1.13,4.1.07.36-.02,1.43,0,1.83l.1,2.63c.17,4.36,1.05,4.12.44,7.65l-.11,2.34c-.04.88.34,2.08.55,3.2.16.85-.23,3.62.6,7.74.3,1.51.88,3.24.78,4.67l-.37,5.15c-.06.8-.04,2.63.08,3.52.4,2.9.69,5.99,1.05,8.96l.54,4.55.09,3.61.15,5.68c.05,2.11-.24,4.62.15,6.66l1.03,5.33c2.18-.05,7.37-1.23,9.04-2.77.55-.51,1.41-2.01,1.85-2.76,1.7-2.83,1.59-5.37,1.34-8.53l-.37-4.61c-.11-1.44-.17-2.8-.35-4.15l-.53-3.99-.49-3.58-.95-5.58-.44-3.75-.58-3.06c-.43-2.26.43-2.1-.3-6.55l-.59-3.56c-1.18-7.18,1.66.86-1.5-9.97-.18-.61-.38-1.55-.45-2.12l-.75-6.46-1.1-5.2-.4-4.23c-.11-1.2-.49-2.76-.54-3.89l-.26-5.46-.24-5.13-.19-9.99c-.04-2.22-.12-4.39-.32-6.65l-.5-5.62c-.56-6.21,1.16-4.72.07-12.63-.53-3.89-2.66-7.6-6.29-9.49-2.04-1.06-4.07-2.43-6.11-3.28-1.8-.75-3.28-1.36-4.99-2.19-1.9-.93-4.08-1.38-6.17-1.98-2.22-.64-4.4-1.33-6.55-2.09-2-.71-3.91-1.55-6.02-.75,2.3,3.59,3.43,6.74,4.54,10.47l1.03,3.45c.14.46.68,1.18.46,1.45-.17.21-.63.81-.84,1.09v9.5c0,2.36,2.57,2.41,1.92,6.92l-.4,2.77-.16,4.29.43,3.25-.45,5.33-.34,4.18-.61,3.1-.27,3.91c-.06.81.45,2.51.16,3.19-.42.97-.8,2.12-.76,2.87l.32,5.62c.07,1.27-.4,3.36-.51,4.79l-.21,2.76-.23,4.49-.83,6.01-.39,5.53c-.08,1.12-.03,2.3-.38,3.33-.63,1.86-.59,3.36-.79,5.2l-.38,3.52c-.1.92.06,1.93-.03,2.66l-.53,4.52c-.17,1.47-.33,3.09-.38,4.49l-.13,3.53-.2,5.99-.25,3.66.36,2.47-2.05,2.13c-3.37-1.66-.59-.17-2.18-5.84l-1.68-6c-.35-1.26-.78-2.47-1.23-3.67l-1.54-4.08c-1.99-5.26-5.11-9.74-8.99-13.75l-2.23-2.31-2.31-2.25-4.08-4c-2.63-2.58-5.1-4.41-7.02-6.58l-2.33-2.63-2.02-1.61c-.34-.27.43-1.5.86-1.6,1.59-.36,3.48.86,4.81,2.45,3.99,4.79,6.32,5.18,9.78,9.46s3.05,2.07,5.87,6.14l.39-7.09.39-3.58.2-3c.08-1.15.12-2.41.31-3.6l.9-5.69-4.53-5.38c-.55-.65-1.19-1.34-1.58-1.93l-.61-.95c-.38-.58-2.17,2.73-1.58,4.35l2.12,1.16c-.3,3.76-8.59,1.66-11.1,1.04-.86-.21-2.88-.03-3.76-.34l-4.73-1.69-6.67-1.62c-1.46-.35-3.32-2.36-4.84-2.43l-5.07-.22c-2.98-.13-5.51-1.59-8.31-2.68-4.28-1.66-7.14.66-12.1-3.12-1.88-1.43-4.67-2.36-7.34-3.99-4.96-1.07-2.32-1.76-7.57-4.76l-3.94-2.25c-2.94-1.68-4.28,1.41-6.11-1.79l-2.08-3.64-2.17,1.34c-2.96,1.82-5.62,3.68-8.41,5.76l-3.21,2.4c-2.9,2.16-6.17,4.38-9.85,5.46-.92.27-2.8-.76-2.76-1.62l.22-4.65.22-5.05-.18-5.05c-.07-1.88-.26-3.67-.55-5.5l-2.5,2.47c-1.38,1.36-2.82,2.58-3.98,4.08l-4.7,6.1c-.83,1.08-1.23,3.7-1.58,5.32-.5,2.29-.19,4.47-.06,6.81.08,1.51-.24,3.46.02,5l1.01,6.16c.21,1.28.26,2.92.32,4.33l.13,3.07.12,5.07c.11,4.47.55,2.62.59,9.16.03,4.66.44,5.71.26,9.59l-.34,6.96c-.09,1.78-.21,3.58-.15,5.3l.12,3.25.07,4.54.07,4.57c.04,2.25-.08,4.64.08,6.71.14,1.85.28,3.47.28,5.28v3.02c0,4.51.52,9.25,1.91,13.53s.58,4.26,1.15,7.02l.87,4.14,1.2,5.91,1.59,3.26c1.95,4.01,1.98.95,4.87,3.76.65.63,1.84,1.49,2.59,1.75l4.94,1.74,10.14,3.15c4.8,1.49,4.92,3.07,7.44,2.48,3.89-.91,2.21,1.16,7.24.22.95-.18,1.8-.25,2.74-.33,1.63-.15,3.32-.57,5.09-.91,2.13-.42,5.04-.13,6.88-1.21,1.42-.83,2.34-1.61,4.13-1.53.71.03,1.95-.73,1.95-1.49l-.07-13.69-.85-6.39c-.17-1.3,0-2.37-.11-3.56l-.39-4.14c-.17-1.75-.33-3.35-.59-5.08-.91-5.98.41-4.83-1.4-12.72-1.4-6.08.04-3.16-1.16-9.89-.85-4.73-.22-2.89-.77-7.73-.77-6.65-1.43-8.22-2.01-15.16l-.37-4.42-.22-2.63c-.41-5-2.12-7.79-2.05-13.39l.04-3.26c.01-.97-.45-3.1-1.24-3.71l-5.21-3.94c-1.4-1.06-2.42-2.39-2.27-4.09l1.91-.45c2.24,2.26,4.65,3.65,7.73,4.87,1.11.44,2.83,2.63,2.88,3.86l.22,5.55.44,4.64,1.36,9.57.54,4.11c.71,5.4-.34,4.21.44,8.04l.79,3.94,1.09,6.02c.19,1.03,0,2.43-.18,3.67l.83,2.52c.22,2.88-.11,6.12.38,8.87,1.18,6.64.22,4.37,1.34,9.35l-.17,2.76c.32,1.56.56,3.02.71,4.65l.5,5.54.28,4.04.59,3.5.36,4.65.38,4.88c.43,5.64-.74,4.12-.04,10.16l-1.31,2.76c-1.18.4-2.85.98-3.65,1.5-.56.36.03,2.3.11,2.99l.48,3.89c.09.73-1.23,2.21-1.55,2.62,2.44,2.5,7.32,11.62,5.17,14.13,2.2,1.57,1.52,11.95,1.18,15.16l.47,2.88.86-.79c.18-.16.63.13,1.07.35,5.61,2.83,1.95,2.96,5.11,4.86,7,4.2,10.31,3.82,13.86,5.85l2.5,1.43,5.73,2.37c2.32.96,4.3,2.01,6.59,3.05l2.49,1.13.12,10.99.2,2.48-.09,3.16c-.03,1.16.69,3.19.73,4.47l.17,5.58-.62,2.71.36,7.2-.13,2.78.24,3.43.34,4.96c.06.82-.22,2.63-.41,3.41l-.65,2.71,1.09,6.46c.04.26-.07,1.17-.09,1.48l3.69.86c.61.14,1.79,1.33,2.4,1.5,2.52.68,6.24,1.07,8.73.72ZM326.58,232.52c.36-.82.82-2.4,1.1-3.24.7-2.09-3.56-3.11-3.94-3.15l-3.53-.41c-1.96-.23-3.75-.82-5.67-1.56-4.83-.24-3.24-1.51-5.95-1.17l-2.62.33c-4.59.58-7.46-.82-12.85-1.6-4.87-.7-4.2.11-8.79-.63l-4.41-.71-4.02-.6c-5.69-.85-5.75-1.43-11.51-2.1l-3.57-.42-6.91-1.19c-1.45-.25-2.61-1.2-3.58-2.63l-3.61,1.19,3.48,2.75c.64.51,1.67,1.02,2.49,1.42l2.73,1.35c1.55.77,3.38,1.78,4.58,2.91,1.62,1.52,3.07,1.76,4.96,2.91l4.46,2.71,3.65,1.4c.64-.72,2.25-1.19,3.09-.61l3.77,2.6c1.77,1.22,4.19,1.08,8.55,2.91s8.22.59,10.47,1.7l4.96,2.46,6.4,1.38c1.86.4,2.54,2.06,6.79,1.31l4.79,1.35,4.69-10.67ZM336.61,243.73l.97-3.39c-.02-2,3.52-8.67,2.63-8.88l-1.34-.32c-1.17-.28-2.69-.54-3.59-.96l-3.21-1.51c-1.04,1.47-2.05,3.44-2.56,5.15l.96,2.74c.44,1.25,1.35,2.6,2.1,3.78l1.67,2.63,2.38.78ZM349.21,260.47l.23-3.26.42-4.55.24-9.54c.01-.58.27-1.86.19-2.42-.75-5.84,1.09-4.96-.21-6.5-4.1.04-4.96-2.11-7.25-1.45-1.91,5.15-.82,5.37-2.74,10.97l1.32,1.3c.39,2.14,1.18,4.02,2.05,6.04l2.6,6.05c.46,1.06.9,2.55,1.25,3.74l.89,3.02,1.01-3.39ZM343.67,288.79l1.59,5.34.38-6.37,1.14-4.91.4-5.56c.08-1.13-.96-3.23-1.05-4.5l-.3-4.41-.55-4.14c-.12-.87-.98-2.48-1.42-3.48-1.51-3.39-.67-3.24-2.39-6.74l-2.72-5.54c-.92-1.88-2.1,3.76-2.06,3.37l-.47,4.3c-.17,1.56-.53,3.43-.38,4.72.54,4.5-.73.7-.67,4.45l.04,2.41c.09,5.13-2.91,1.06,1.69,7.58.69.97,1.33,2.15,1.85,3.17l1.72,3.4,2.63,4.78c.22.4.42,1.68.55,2.12ZM383.87,328.61l4.3-1.51c.96-.34,2.87-3.35,2.46-4.74-.12-.41-1.15-.22-1.65-.06l-5.17,1.64.71,2.19-.63,2.49ZM382.09,349.93l4.87-4.9c1.46-1.47,2.88-4.01,3.21-6.14l.65-4.16c.21-1.34-.28-3.15-.66-5.15l-2.04,1.03-5.69,2.88-.34,3.8-.29,4.14-.21,5.14c-.03.82.27,2.18.5,3.35ZM266.7,365.12l-4.49.3-3.08.15c-4.3.2-3.48,1.58-8.48,1.68l-3.44.07c-.46,0-1.72.74-2.26.81-1.01.12-2.58-.8-3.6-1.17l-5.67-2.05-3.11-.97c-2.08-.65-4.39-1.35-6.3-2.2l-6.04-2.67.3,2.94c1.5,1.46,3.18,3.57,4.88,4.48l6.36,3.37,2.38.84c1.94.69,3.78,1.33,5.79,1.83l8.47,2.11,6.58,1.84,1.12,1.12,4.9-1.14c1-.23,2.76-.76,3.32-1.55l2.98-4.25c1.04-1.49.31-3.89-.59-5.53ZM247.43,403.48c.94,2.82,2.33.28,3.72,3.58.35.84,1.49,2.01,2.25,2.11l2.78.37c-.02-2.07-.05-3.73-.35-5.58l-.73-4.49c-.27-1.64-.03-3.77-.09-5.46-.08-2.72.31-4.77,3.35-5.61.7-.19,1.97-.76,2.72-1.17l3.68-1.98c2.2-1.18,4.3-1.44,7.11-1.61-.11-1.09-3.46-8.56-4.39-7.93-1.44.97-2.97,2.91-4.06,3.17l-5.45,1.29c-1.19.28-2.42.52-3.36.58l-.35-1.62-1.01.93c-.19.17-.75-.08-1.14-.21l-3.5-1.19c-5.08-1.72-2.14-.12-8.75-2.11l-3.56-1.07-4.98-1.51c-1.65-.5-3.02-1.07-4.61-2.17l-1.62,5.11c-.21.66.21,2.23.23,2.93l.17,5.42c.03,1.06-.11,2.85.28,3.75l2.32,5.28c.38.85,1.06,2.63,1.79,3.05l2.62,1.51.09-6.83-.53-3.14-.66-4.41c-.06-.42-.22-1.28.12-1.37l1.54-.38c2.4-.59,1.83,8.1,1.67,9.49-.24,2.2.33,4.12,1.67,5.74l2.32,2.79,2.56,3.08c.69.83,1.5,1.37,3.09,1.79.03-1.36-.14-2.62-.45-3.94-1.27-5.42-.41-3.62-1.6-8.86l-.98-4.31c-.21-.92-.38-2.48.01-3.26.17-.33,1.05-.96,1.37-.83.24.1.91.63,1.01.87,2.49,5.97,0,7.22,3.67,18.2ZM221.96,391.4c.48-.17.81-1.27.76-1.78l-.33-3.33c-.14-1.38-.58-3.01-1.02-4.29l-2.87-.45c-.76-.12-2.26-.18-2.98-.1-.7,1.3-1.81,3.22-1.93,4.36l-.45,3.98c-.37,3.28-.36,7.8-.31,11.01,0,.52,1.13,1.52,1.56,1.68l3.28,1.17c1.62-5.34-1.08-10.39,4.31-12.25ZM307.44,423.52l-5.09-2.59c-2.24-1.14-4.52-1.98-6.77-2.96s-4.46-1.99-6.89-2.71c-5.72-1.7-5.97-2.3-10.94-6.22l.12,3.6c.08,2.23,1.14,6.85-.54,7.91l-3.15,1.99c-1.87,1.18-4.38,2.04-6.59,1.71-1.74-.26-2.35-2.57-2.34-4.04.04-5.93-.27-1.97-.72-7.18-.22-2.45-.47-4.87-1.14-7.33-.46-1.68-3.56-2.99-5.04-2.79-.91.12.95,3.28,1.46,7.12s-5.87,2.62-7.83,1.79c-2.33-.99-2.45-4.82-6.62-3.56-2.96.89-7.49-3.16-9.46-5.08-1.8-1.76-3,1.34-6.39-1.2-1.2-.9-2.61-2.08-3.18-3.29l-1.62-3.48c-.17-.37-1.22-.99-1.53-.77-.23.16-.74.81-.8,1.14l-1,5.92c-.14.84.06,2.66-.16,3.47-.61,2.21-3.51,2.73-5.41,1.63-4.53-2.61-6.91-1.81-7-4.13-.33-8.53.38-5.3.94-12.05l.33-4.01c-2.26-.42-4.79.43-7.06,1.33l-3.64,1.44-6.57,2.51c-6.7,2.56-1.77,1.13-4.95,3.03l-2.84,1.7c-1.02.61-1.75,1.12-2.88,1.9.61.39,1.33.82,1.89,1.02l3.38,1.18,6.1,2.07c.23,2.22,2.67,2.67,4.16,2.55,2.3-.18,1.67,2.3,6.3,3.69,1.07.32,2.19.61,3.11.95l3.66,1.35,3.76,1.38c4.52,1.66,4.62,2.51,8.23,3.67,2.63.85,4.94,1.84,6.92,3.72,2.78.74,5.62,1.35,8.3,2.39,1.85.72,3.79,2.26,5.65,2.68,1.54.35,2.84.6,4.18,1.01l2.55.76c4.59,1.37,5.1,1.09,9.71,2.61l3.8,1.26c1.43.47,3.23,1.43,4.64,1.77,2.56.6,5.28.69,7.67,1.57l3.08,1.14c3.59,1.32,5.4.64,8.98-1.6,1.65-1.03,3.2-1.84,4.92-2.74l4.28-2.21c.8-.41,2.14-1.25,2.84-1.49l6.95-2.34.88-.3c.18-.06-.41-.78-.64-.9ZM271.58,420.7c1-.34,2.62-1.28,2.66-2.04l.2-3.49.15-2.67c.11-1.98,0-3.93-.13-5.97l-.22-3.68c-.07-1.24-.32-2.35-.59-3.77l-1.84-9.54c-.09-.45.23-2.03-.15-2.05-1.09-.06-3.56-.1-4.65-.07l-1.53,1.24c-2.47.5-5.64,1.86-7.3,3.6-.24.66-.61,2.28-.75,2.98-.94,4.52,2.89,3.92,5.62,6.35l3.55,3.15.59,9.42.78,5.29c.19,1.31,1.95,1.79,3.57,1.24ZM287.11,543.11c1.2-7.35.29-.95-.24-8.88l-.21-3.11-.31-4.58-.82-4-.26-9.02-.46-6.11-.41-5.57-.34-4.05-.26-14.08c-.01-.66-1.37-9.46-1.6-10.65l-.96-5v-7.09c-.01-1.49.04-3.08-.1-4.56l-.37-4c-.11-1.23-.4-2.23-.82-3.51-.94-2.86-1.65-5.9-2.35-8.9-.57-.35-1.84-1.15-2.47-1.36l-7.56-2.56c-3.97-1.34-3.67-.89-7.52-2.09l-5.76-1.79-8.54-2.55c-4.74-1.41-9.97-4.37-10.85-4.57-4.2-.97-7.37-2.57-11.27-4.06l-4.06-1.55c-2.91-1.11-5.48-2.4-8.45-3.26-.55-.66-4.19-2.55-4.56-2.7l-7.44-2.84c-1.79-.68-3.58-2.27-4.88-3.71-.68-.33-2.2-.84-2.98-1.09l-2.98-.97-6.49-2.11-.61.17.27,1.69c.18,1.16.46,2.26.58,3.36l.35,3.2-.03,2.19.35,3.08.47,4.16.55,4.41.46,3.62.47,5.11.64,5.94.16,3.15.27,5.47c.07,1.48.18,3.08.44,4.57l1.86,10.6,1.4,10.27c.38,2.81.1,5.94.32,8.83l.38,5.11.32,5.1.23,3.68,4.22,2.6c2.08,1.28,4.1,2.39,6.29,3.34l4.24,1.84,6.04,2.56c1.94.82,4,1.72,5.82,2.67l10.65,5.53c.6.31,1.44,1.04,2.01,1.44l4.84,3.29c-1.75-1.19,9.66,5.85,6.63,4.36,1.19.59,3.34,1.28,4.68,1.86l2.77,1.2c2.37,1.02,4.68,1.67,6.99,2.68,2.56,1.11,5.05,2.29,7.45,3.7,2.82,1.65,7.67,4.1,10.57,4.92l3.22.9c3.48.97,6.87,2.33,10,3.74ZM307.32,529.04c1.07-.42,2.38-.9,3.1-1.12.8,1.25,6.15-1.92,6.06-3.37l-.28-4.53-.33-4.1-.29-4.91-.5-4.57-.49-3.53c-.91-6.63.46-9.2-.79-13.28-.43-1.39-.52-2.21.16-3.58l-.2-2.35-.39-4.6-.35-5.86-.28-4.06-.27-3.54-.27-3.66c-.1-1.3-.23-3.17-.15-4.26.18-2.24,1.4-4.16.06-6.35-.53-.87-.14-2.26.26-3.23.19-.45-.02-1.7-.03-2.3l-.07-5.56-.45-4-.34-8.62-3.74.77c-3.72.76-6.68,1.78-10.06,3.37-1.79.84-4.02,1.47-5.64,2.49-3.22,2.02-6.14,3.54-9.66,5.14-2.17,4.99,2.76,4.39,2.69,11.99l-.03,3.58-.1,13.54c2.7,10.64,2.58,12.59,2.57,23.2v3.07c0,1.89.24,3.73.3,5.6l.24,7.53c.02.61.12,1.46.19,2.09l.58,5.54.32,7.34.33,3.94.4,6.23c.1,1.63.53,3.73.79,5.44l.61,4.09,1.95-2.21,2.42-2.7c.59-.66,2.15-1.45,2.74-2.17,1.56-1.93,3.2-4.18,5.44-5.07l3.51-1.4ZM403.87,496.87c1.09.08,2.42-.29,3.61-.59l-.13-5.08c0-.7-.16-2.14-.51-2.74l-8.13-2.04c-1.86-.47-3.57-1.85-4.87-3.14l-8.13-6.12-4.19-2.22c-.53-.28-1.08-1.7-1.37-2.22l-.61-1.07c-.09-.16-.86.19-1.03.3l-3.32,2.14c-1.89,1.22-2.6-2.12-4.82-.25-4.3.9-6.89-.13-10.64-1.8l-.85-.38c-.17-.08-.26.83-.18,1.01l1.59,3.62c1.38,3.14,2.07,3.44,2.05,4.4,0,.42-.8,1.37-1.22,1.57l-4.3,2.11c-1.37.67-2.54,1.4-3.58,2.11,2.46,5.42,8.69,6.79,13.91,7.63,6.02-1.14,4.34.52,8.43.93,7.66.78,10.95.57,18.35,1.09l4.95.35,5,.38ZM353.29,516.81l5.29.29c1.33.07,2.97.76,4.39.96,1.65.23,3.92-.42,5.66-.48l6.07-.21,2.86-.1.62-4.37.44-3.15c.07-.5.04-1.67,0-2.12-3.27-1.03-7.11-1.39-9.4-3.78l-2.98-3.11c-1.41-1.47-4.02-1.85-5.99-3.06l-4.68-2.86c-1.76-1.07-3.3-1.96-4.22-3.94-.42-.89-1.43-2.24-2.42-2.65-.64-.26-2.18.79-2.83,1.08-2.03.91-4.3,1.33-6.51,1.6l-4.14.5c-3.48.42-6.89,1.39-10.33.55-1.49-.36-3.19-.69-4.43-1.18l-3.71-1.45v3.94c0,1.47.06,2.82.24,4.18l.44,3.31c.09.68-.5,2.38-.23,3,.63,1.46,1.28,3.78,1.6,5.45,2.5,1.58,5.96,3.36,8.97,3.93l9,1.7c1.12.21,2.85.46,3.94.49l7.09.21,5.28,1.25Z"/>
          <path d="M237.41,182.11l-2.37-3.12c-1.29-1.69-3.47-5.92-.47-6.91,4.47-1.47,7.72,7.73,5.82,10.04-.45.55-2.54.56-2.98-.01Z"/>
        </g>
        <g>
          <path d="M31.88,496.54c-2.23-.14-1.61,2.68-2.99,3.21-.58.22-1.9.25-2.43.14l-.54-2.23c-.69.08-2.26.18-2.95-.05l-4.94-1.66c-3.09-1.04-5.9-3-6.83-6.31-.36-1.28-.84-2.41-1.34-3.74-.87-2.27-.83-5.11-1.17-7.55l-.8-5.67c-.77-5.48-.68-.11-1.88-6.79-.13-.73-.47-1.84-.74-2.79-1.94-6.91.01-3.7-2.11-9.4-.32-.85-.6-1.88-.67-2.72l-.37-4.18c-.14-1.59-.25-3.36-.72-4.85l-1.32-4.25c-.16-.52-.02-1.74.3-2.12s1.57-.87,1.94-.55l3.12,2.76,1.47,1.11c1.59,1.2,4.53,4.52,8.34,5.86-.63-2.06-.75-3.42-.33-5.76l-2.9-.33c-.84-.1-2-1.94-1.99-2.86l.09-8.65c.02-1.53,1.25-4.78,1.04-6.99l-.52-5.61-.43-4.59-.33-6.43c-.11-2.13-.26-4.05-.21-6.12.08-3.89.33-4.61,1.98-7.92.47-.94.94-2.83,1.5-3.6l2.13-2.95c1.18-1.63,2.46-3.21,3.76-4.76l2.75-3.27c.18-.95-.74-2.91-1.3-4.02-1.28-2.53-.4-2.24-1.59-7.52-.39-1.72-.44-4.23.07-5.92,2.06-6.87.55-5.67,4.72-10.96,1.48-1.87,3.27-3.46,4.86-5.21l1.97-2.17c.63-.69,1.46-2.64,2.23-3.14,1.29-.85,3.24-1.49,4.11-2.38,2.06-2.1,4.09-3.02,6.77-4.15,1.01-.42,2.93-1.8,4.03-1.5.55.15,1.54,1.39,2.11,1.69,8.48,4.57,10.08,13.65,13.92,22.26.56,1.25,1.59,3.49.25,4.62-.91.77-2.72,1.6-3.46,2.44l-3.86,4.38c-.66.75-1.3,1.67-1.14,2.58l.49,2.77c2.51,2.74.68,3.68,4.17,7.87,1.07,1.28,1.95,2.39,2.88,3.74,3.65,5.31,4.84,3.16,5.1,7.53.13,2.21.67,4.14,1.18,6.33.45,1.91.49,4.13.62,6.1l.22,3.19.2,3,.39,4.93c.19,2.36.4,4.35.81,6.9.36,2.25-2.03,3.39-1.84,5.82s-.78,4.74-3.57,4.74c-.1,1.1-.29,2.48-.25,3.33l.19,5.11.21,5,.3,3.2.31,6.98.25,6.08c.06,1.4.65,3.28,1.15,4.64l.78,2.08c.36.97.63,2.98.27,3.87-.5,1.26-4.29-1-6.52.28l7.02,4.48c1.25.79,3.18,2.51,2.62,4.31-.68,1.01-3.48,1.6-4.78,1.51l-5.67-.4c-2.23-.16-4.12-.01-6.91.03,2.16,3.13,4.42,2.95,6.28,6.57.54,1.05-1.16,3.54-2.27,3.35-7.6-1.31-8.99-2.47-15.6-3.27l-4.08-.49c-1.81-.22-2.82-.52-5.02.5-.24.11.32,1.06.33,1.35l.1,6.44c.03,1.74-1.23,2.85-2.91,2.75ZM40.37,384.22c.34.58,1.01,1.08,1.5,1.07l3.33-.03,1.83-4.42c.38-.92,1.12-2.46,1.66-3.25l3.63-5.27c-.64-2.08-.85-3.55-1.06-5.65l-.31-3.09c-.16-1.54,3.43-2.44,6.01-5.93l2.93-3.97-1.86-4.32-2.17-5.34-3.41-6.8c-.84-1.68-3.58-2.96-5.39-4.05-2.37-1.43-6.88,2.18-8.77,3.83-.88.77-3.2,1.54-3.91,2.43l-4.09,5.11-3.66,4.45c-2.28,2.77-4.2,7.81-3.9,11.19l.31,3.55c.12,1.41.37,3.01.73,4.34l1.79,6.42.87,2.98c1.56.54,3.2,1.19,4.57,1.94l3.31,1.83,2,1.14c2.14,2.27,2.81-.37,4.11,1.84ZM51.62,386.75l1.06-4.22c.14-.55.57-1.48.89-2.15,2.03-4.31-.39-1.87,2.06-5.41l-.62-1.08c-.67.8-1.19,1.41-1.78,2.21-4.27,5.74-1.75,1.14-4.53,7.97l-.73,1.79,3.66.89ZM25.15,451.36c-.38-.04-1.01-.27-1.28-.42s-.26-1.36-.08-1.65c.65-1.09,2.77-2.1,4.42-1.98.92.06,1.94,1.25,2,1.95l.36,4.24.26,10.01.77,5.97c.1.78.24,1.4.46,2.36.21.9,0,2.73.15,3.61l.57,3.13.68,4.06c3.01-.74,6.39-.6,9.39.44,4.32-1.26,8.14,1.03,12.84,2.03l-1.25-1.93c-3.54-4.5-3.13-1.59-6.34-7.38l-3.91-.52c-2.13-.28-4.64-.03-6.66-.46l-3.18-.67c-.66-.14-2.6-1.91-1.14-4.36.15-.26,1.06-.11,1.37.02,8.79,3.49,4.63.56,11.7,2.4,1.28.33,3.62.49,4.68.1.34-.12.05-1.53.02-1.95-.15-2.72.06-6.37-.4-9.09-.78-4.61-1.06-5.92-.16-10.54.12-.6.49-1.3.85-1.59.29-.23,1.46.67,1.48,1.08l.31,6.61.33,4.72c.09,1.34,0,3.55,1,4.43,1.2,1.06,3.3.27,4.64.21l5.95-.29-.33-2.06-.88-4.81c-.18-.97,0-2.51-.02-3.55l-.13-4.08c-.22-6.91,1.25-2.74.49-7.11l-.78-4.45c-.86-4.92,1.1-5.84-1.46-9.47l-1.58,3.82-1.22,2.84c-1.45.55-3.26.09-4.57-.72l-2.92-1.8-.98,3.68c-.18.67-.98,2.04-1.65,2.03l-2.61-.05c-1.07-.02-2.68.1-3.56-.15l-3.32-.97c-1.1-.32-3-.16-4.32-.17l-5.06-.05c-1.11-.01-3.26-1.1-3.99-1.87-.29-.3,0-1.56.37-1.77s1.11-.11,1.8,0c5.64.9,3.64.21,9.17,1.22l4.05.74c1.05.19,5.74.72,6.41-.87.4-.95,1.23-2.72,1.59-3.73.11-.3,1.84-6.82,3.65-5.26.95.81-.85,2.63.16,3.47l2.25,1.88c.31.26,1.63.75,1.78.37l1.59-3.86,1.73-3.93c.35-.79,1.54-2.02,2.1-2.6l.11-3.06.24-3.88.17-2.78c.05-.72-.16-2.13-.26-3.05-.4-3.64.31-.21-.33-5.69l-.5-4.29c-.04-.36-.65-1.27-.76-1.62s.6-.99.98-1.04c.85-.1,2.08,1.24,2.15,2.12l.3,3.7.35,7.9.22,3.75.99,1.98,1.52-.8.24-5.25.19-2.95c-.42-1.45-.75-2.74-.87-4.12l-.33-3.7c-.13-1.46-.7-2.73-1.27-4.35-1.85-5.29-.56-7.73-3.57-8.57-.45-2.7-1.75-5.29-3.63-7.32l-1.97-2.13-1.07,3.19c-.62,1.85-1.36,4.61-1.54,6.43-.06.57.51,2.28.24,2.77-.56,1.04-1.96,2.75-2.7,3.78-.42.59-.18,2.5-.28,3.26l-1.14,8.87c-.22,1.74.16,4.27.3,6.2l.3,4.16c.42,5.72,1.38,3.09,2.15,6.27.12.48-.63,1.3-1.2,1.82-.49.44-2.25.32-2.62-.28-.63-1.02-1.13-1.99-1.68-3.01l-1.95-3.61c-.75-1.38-1.87-3.15-2.26-4.62l-1.56-5.81c-.16-.59.72-1.94,1.32-1.99s1.8.75,1.96,1.43l1.57,6.73c.22.93,1.18,2.09,2.02,2.86.08-.81.02-1.65-.22-2.32-2.07-5.91-.25-2.46-1.04-7.03-.84-4.92-.04-5.5-1.74-6.28-2.11-.98-2.51-2.88-2-5.14.01-.4-.06-.46-.57-.02-.59.29-2.5.25-2.53-.36-.04-.97.71-2.51,1.23-3.35l1.75-2.79-5.65-2.49-2.25-.99c-4.73-.56-5.42-3.82-8.01-3.02l-2.05.63c-1.31.4-2.51-3.71-2.81-4.33l-4.12,5.43c-1.11,1.47-2.17,2.96-2.94,4.65-.65,1.43-1.53,3.03-1.9,4.46-.91,3.53-.74,7.88-.63,11.5l.09,3.1.1,3.59.15,5.28.37,4.22c.08.96-.26,2.21-.36,3.18l-.31,3.04c-.25,2.46-.3,5.72.92,7.93,1.34,2.4,6.48-.13,7.65.16l-.56-3.64c-.11-.74.33-2.25.49-2.9-1.26-3.09.77-1.51-.54-5.05l-.25-1.64c-.35-2.36-.13-4.77,0-7.2l.23-4.61c.12-2.32.05-4.85-.11-7.41-.09-1.49-.57-3.9.03-5.02.35-.65,2.32-.58,2.78-.14l-.11,7.2c-.06,3.6-.49.31-.74,6.02l-.16,3.69c-.08,1.79.21,3.7.37,5.5l.32,3.53c.06.65-.27,1.76-.53,2.59l1.18,1.07c.15,7.92-1.39,2.07.9,7.94.22.57-.47,1.98-.53,2.57-.09.99-.1,2.32-.42,3.22-.9,2.54-3.64,4.4-6.58,5.8,1.19.81,3.19,1.9,4.9,2.73l1.57,7.81.82,4.3.77,3.82c.19.97.44,2.5.47,3.43l.24,7.58c.03,1.09.34,2.71.54,3.88l.67,4,.8,4.15.67,4.26c.04.27.7.79.96.92.17.08.8-.48.82-.68l.61-5.35c.14-1.24.16-2.58-.08-3.58l-.88-3.69c-1-4.18-.48-3.52-.98-5.6-.6-2.47-1.12-4.77-1.43-7.26l-.45-3.63c-.23-1.84-.32-3.72-.28-5.47l.07-3.7c.01-.72-.15-1.9-.24-2.81l-1.96-.22ZM49.54,390.04c-.73-.11-2.58-.17-3.55.06-.63.15-1.01,1.96-.82,2.58,1.05,3.49.65,4.09,1.9,4.32,1.77.32.46-4.26,2.47-6.96ZM21.77,439.09c-1.7-.44-2.82-.45-4.64-.22l.16,2.91c.06,1.17,3.51.21,4.49-2.69ZM25.22,488.44c-.1-1.41-.25-2.6-.42-3.82-.89-6.63-.61.53-1.26-8.42l-.22-3.08-.25-3.5-.23-3.18c-.22-3.06-2.03-3.79-1.68-7.11l-.55-2.38c-.44-1.91-1.07-4.69-2.49-5.86l-2.37-1.94c-1.75-1.44-4.1-2.4-7.83-5.17l-2.81-2.09c-.94,9.06,1.46,10.97,2.58,19.11l.37,2.67c.13.92.55,1.93.82,2.96l2.35,8.94c.92,3.5.55,9.48,3.59,13.97.5.74,2.24,1.93,3.07,2.32l3.95,1.88c.98.46,2.93.63,3.77.37l-.16-2.42-.23-3.25ZM67.35,476.07c-4.49-5.02-6.33-1.77-8.14-5.87l-4.67-.12c.02,2.78-1.1,3.93-3.1,5.61-.73.12,5.98.06,4.51.13l5.11-.25c4.39-.22,4.05,2.13,6.29.5Z"/>
          <path d="M49.08,350.48c-1.84.81-3.02-.51-4.09-1.6s-3.32-3.56-2.07-5.12c.32-.4,1.61-.75,2.2-.55,2.11.71,1.54,1.69,4.2,5.31l.56.76c.17.23-.49,1.08-.79,1.21Z"/>
        </g>
      </g>
    </g>
  </g>
</svg>