<?xml version="1.0" encoding="UTF-8"?>
<svg id="Layer_1" xmlns="http://www.w3.org/2000/svg" version="1.1" viewBox="0 0 521.1 542.38">
  <!-- Generator: Adobe Illustrator 30.2.1, SVG Export Plug-In . SVG Version: 2.1.1 Build 1)  -->
  <g id="lZhAzo.tif">
    <g>
      <path d="M216.06,263.02c-.08.19-.61.61-.79.54-1.56-.61-2.61-3.74-3.16-5.35l-.88-2.59c-.2-.58-1.05-1.33-1.55-1.81-2.97-2.85-1.81-.15-4.52-2.66-.26-.24-.89-.62-1.28-.86-.32-.21.18-1.34.06-1.71-.27-.87-1.27-2.42-1.63-3.36l-.96-2.57c-.47-1.24-1.3-2.21-2.45-2.76l-.79-1.97c-.5-1.25-.56-3.17-1.15-4.32-.72-1.38-1.51-2.61-2.28-3.92l-1.29-2.18c-.45-.76-3.57-3.24-3.94-4.07l-1.65-3.67c-.93-2.07-1.7-1.87-1.55-2.4.47-1.64,3.49-2.78,4.2-1.92l1.81,2.93c.37.59.69,1.26.98,1.88l1.22,2.65,1.43,1.53c1.14,1.22,3.83,5.23,4.21,6.45l1.29,4.14c.41,1.32,1.05,2.32,1.22,3.61,2.48,2.65,1.47,5.23,3.76,5.53,3.6,7.62-.21,2.69,5.22,7.1.29.23.8,1.04,1.04,1.37l-.14,1.08c3.47,3.58.59,2.12,2.59,6.72.65.82,1.44,1.63,1.01,2.61Z"/>
      <path d="M235.97,263.79c.22.36-.47-.45-.54-.73l-.65-2.49.4-2.14c-1.29-1.34-.64-1.11-1.12-4.56l-.38-2.74.61-1.04c-1.81-1.18-1.42-5.57-1.27-7.89.24-3.58.86-3.07.37-6.54-.85-6.05.18-1.45-.3-7.54l-.27-3.4-.31-3.79-.12-2.22c-.03-.62-.19-1.75-.3-2.27-.62-.42-1.31-.94-1.46-1.35l-.4-1.13c-.1-.29.55-1.03.85-1.08l2.29-.39,1.54,1.13.48,3.63c-.37,2.83,1.24,3.37.89,4.6-.82,2.87.36,2.01.73,5.57-.01.29-.2,1.12-.25,1.42l.42,2.68c.1.66.11,1.44.11,2.11.1,1.16,0,2.12-.34,3.34-.26.91-.19,2.13-.29,3.21-.46,4.56-.95,2.24-.15,5.31.31,1.19.13,2.91.29,4.23l.44,3.68.25,2.85.32,2.78c.19,1.7.73,2.52.38,3.37-.31.76-1.26-.16-2.23,1.39Z"/>
      <path d="M251.91,266.23l-.4-2.39.87-2.93c.08-.25,1.91-3.15,2.56-3.52,1.16-4.11,1.92-4.9,3.35-8.75,1.05-2.83.42-1.6,1.55-4.54.4-1.04.74-2.04,1.09-3.13,1.01-3.17-.11-.51,1.16-3.93,1.54-4.17.43-5.47,2.81-7.2l-.39-1.72c-.05-.2.05-.82.11-1.03.08-.28,1.16-.49,1.16-.21l.07,2.72c.02.89.17,2.05-.34,2.52-.79.74.41.28-.49,3.75l-.72,2.78c-.27,1.04-.44,2.07-.6,3.16-.34.77-.82,1.75-1.08,2.52l-1.38,4.14c-.45,1.93-1.17,3.6-1.74,5.5l-1.12,3.74-1.07,2.31c-.64,1.38-1.88.72-2.53,5.37l-2.86.83Z"/>
      <g>
        <path d="M405.97,194.73l-2.82.27c-.65.06-1.52.14-2.06.12s-1.42-1.03-1.3-1.56l.4-1.82,1.72-1.22c.59-.42,1.74-.83,2.49-.9l3.16-.3,1.71-.14,3.11-.24c.85-.07,1.47-.05,2.5.02l.68-.87,1.69-1.08,2.71.56c.23.05.92.53.88.76s-.17.5-.37.86l-1.08,1.98.22,1.37-1.54-.5-.69,1.83c-1.1-.46-1.62-.39-2.45.22l-2.53.17-2.07.14-2.08.14-2.27.2Z"/>
        <path d="M403.39,103.17l-1.26,3.94c-.6.34-1.82,1.22-2.46,1.16l-2.47-.25c0-4.43.62-2.13.71-6.12l.11-4.87c.05-2.37.83-3.78,2.27-5.58.99-1.24,2.23.67,3.52.26l-.3,1.5c.33.29,1.15,1.04.95,1.37-.18.31-.78.98-.85,1.27l-.76,2.96c-.12.47,1.16,2.42.54,4.35Z"/>
      </g>
      <g>
        <path d="M0,226.77v-23.33l.36-.66c.04-.07,0-.49,0-.69v-.71s-.02-.69-.02-.69v-.68s-.01-.69-.01-.69v-.7c0-.11.05-.49.07-.59l.15-.55.13-.58c.02-.09,0-.46,0-.64v-.71s0-.69,0-.69v-.69s0-.69,0-.69v-.69s0-.69,0-.69v-.71c0-.67.28-1.23.28-1.2l.09-2.86c0-.28.02-.53.03-.66l.06-.64c0-.07,0-.31,0-.47-.05-3.48.19-1.59.21-5.46.01-1.96,0-3.81.17-5.68.35-4.11-.73-1.8.18-3.85.55-1.24-.03-1.68.41-2.63l.31-.67c.62-1.34-.46-2.07.2-4.05l-.22-1.33c-.24-1.39,1.39-1.68.75-2.55-.08-.11-.41-.5-.4-.56l.06-.57.18-1.59.04-.55.11-1.63c.11-1.67.66.12.34-2.87-.05-.47.41-1.53.44-2.01l.17-2.38.11-1.49c.06-.78.22-1.59.41-2.56.39-2.04-.34-.19,0-4.71l.27-3.52c.08-1.04.63-1.27.54-2.16l-.09-.96c-.03-.33.22-1.17.45-1.42l.59-.63-.05-.45-.35-.45-.33-.42s-.06-.34-.03-.37l.29-.37c.04-.05.19-.35.18-.41l-.32-1.37c-.02-.07.2-.45.24-.5l.37-.39s.08-.28.05-.33l-.26-.48-.24-.46c-.1-.19-.19-1.08-.14-1.28l.13-.6.12-.58c.01-.06.04-.41.03-.47l-.08-.51v-.45s.08-.55.08-.55c.02-.13.06-.42.06-.55l.04-.73.04-.65c0-.08.12-.41.16-.51l.19-.51c.56-1.54.17-1.49.31-2.47l.08-.59.1-.55c.13-.73-.26-.53-.06-1.41l.14-.61c.02-.09.07-.45.07-.54v-.74s.03-.69.03-.69c0-.07.07-.46.09-.54l.16-.55.15-.54.17-.56c.18-.6.05-.66-.04-1.09l-.1-.49c-.01-.06.05-.31.09-.47l.12-.57.12-.59.12-.57c.03-.13.09-.44.09-.52l.04-.69.05-.64c0-.09.13-.38.18-.51l.2-.48c.06-.13.16-.39.18-.46l.16-.58c.13-.47.24-.7.17-1.06l-.12-.56c-.04-.19.06-2.34.24-2.85l.19-.52c.04-.1.05-.42.08-.6l.08-.63c.06-.48.31-.5.68-.73,1.14-.7-.69-1.08-.28-2.26l.19-.53.18-.51.18-.52.19-.53c.03-.08.08-.35.11-.49l.12-.62.12-.57.12-.57c.02-.09.06-.46.06-.57v-.71s0-.71,0-.71c0-.21-.01-.57,0-.66l.12-.58.12-.54.13-.58.12-.59.12-.53.14-.55.14-.54.14-.57c.02-.1,0-.45,0-.66v-.7s0-.7,0-.7v-.71c0-.09.05-.48.07-.56l.13-.56.13-.57.02-.67.02-.7c0-.19,0-.52.02-.62l.15-.55.14-.53.15-.55.14-.55c.05-.19.12-.41.14-.55l.08-.55,1.19-6.62c-.02-.07-.19-.58-.18-.65l.32-3.15c.06-.57.27-1.35.39-1.91l.46-2.03c.64-2.84.17-1.19.59-3.18l.54-2.57.44-1.84,1.1-4.41c.8-3.23.25-3.27,1.56-7.37l1.27-3.99c.18-.58.35-1.25.46-1.93l.41-2.56c.03-.18.49-.75.56-.91l.87-2.12c.03-.08.1-.45.14-.62l.13-.62.13-.55.53-2.14c.02-.07.19-.39.24-.49l.97-1.79c.4-.74.97-1.56,1.49-2.21l.96-1.2c2-2.48,1.7-1.03,3.75-3.72.17-.23.77-.49,1.07-.64l3.25-1.62c.5-.25,1.43-.43,2.11-.64.5-.15,1.41-.62,1.84-.7l2.42-.47c.6-.12,1.7-.32,2.17-.53l2.38-1.07c.21-.1.88-.08,1.06.04l.88.59c.57.38.69-.59,2.05-.54s.55-.72,1.15-.82l.58-.09.7-.1c1.39-.21,2.82-.05,4.27-.1-7.24.26,9.52-1.03,2.95-.28l2-.23c.18-.02.59-.04.71-.03l3.93.26.62-.24c.1-.04.58-.3.68-.29l2.63.33c.2.03.5.03.73.04l.61.04.55.14c.49.12.49.25,1.15.07l.59-.16c.09-.02.4-.08.47-.07l.53.14c1.09.28.63.18,1.71-.05.91-.19.41.33,1.16.2l6.15-1.08c.1-.02.72.04.82.04l.68-.04.64-.04c2.19-.14.36.08,3.17-.11l.49-.03c4.96-.34,3.04.54,5.95-.14.95-.22,2.01-.3,3.01-.45l2.4-.35c.36-.05.9-.05,1.34-.07l1.52-.07c1.62-.07,3.53.08,5.08-.19,2.51-.45,4.66-.61,7.12-.49.93.04,1.96.05,2.92.16l2.03.23c.65.07,3.15,1.58,3.42,2.25l.7,1.74c.2.51.51,1.24.85,1.51,2.36,1.9.29,1.18,3.27,5.02,1.66,2.14,1.93,2.47,2.3,4.85.54,3.44,1.35,1.9,1.52,5.1l.75,1.19.7,1.81c1.35,3.52-.31.6,1.17,3.63,1.07,2.18.42,2.04,1.03,4.38l.37,1.42c.1.38.28.89.42,1.24l.74,1.76c.17.4.26,1.47.12,1.88l-.69,2.08c-.04.12-.16.4-.13.45l.94,1.47c.87,1.37.69,3.14.52,4.62,0,.39.16,1.44.27,1.82l.56,1.79c.11.33.33.99.5,1.22l.48.67c.09.13-.75.6-.84.97l-.14.54-.14.55-.14.56c-.09.37-.03.82.16,1.1l.28.42c.22.32.38.44.48.86l.15.56c.05.17.13.46.14.55l.06.58.07.71c-.06-.55,1.53,6.69,1.4,5.32l.1,1.1,1.56,4.48c.25.72.58,1.39.76,2.02l1.23,4.3.96,3.61,1.22,4.2,1.06,3.61.12,1.7c.05.79.81,2.16.99,2.93,1.03,4.36.81,2.37,1.81,6.29.88,3.44-.07,2.2,1.23,4.82l.83,1.68c.3.62.57,1.25.81,1.89l.46,1.23.89,2.26c.38.96.56,1.89.76,3.09.11.65.98,1.72,1.22,2.37l1.71,4.57c.21.57.99,1.61,1.16,2.17l1.44,4.75c.38,1.25.76,2.26,1.34,3.49,1.66,5.5,1.54,1.49,3.02,5.58l.38,1.04c.76,2.11-.3.44.72,2.63l1.56,3.35c.6,1.28.38,3.72,2.78,6l1.29,1.23c1.55,1.46.54,4.07.38,4.28-.71.96-1.71,2.19-2.65,2.8l-2.65,1.73c-.76.49-.3,1.03-1.86.98-2.66-.08.5.24-4.11,2.12l-3.94,1.61c-1.7.69-1.64.31-2.79.31-.11,1.39-6.88.58-7.73-.06-.26-.34-.56-.98-.84-.92l-1.29.27c-.19.04-.49.12-.56.1l-1.4-.27-2.67.53c-.52.1-.96-.51-2.32-.11-.42.12-.99.62-1.27.5l-1.01-.41-2.59.62-2.81.67c-.47.15-1.03,1.35-.94,1.86l.29,1.72c.01.08-.29.49-.33.6-.76,2.15.46,1.48.16,2.78l-.13.55c-.27,1.15.62.76.11,3.37l.87.69c.14.11.6.5.64.66l.16.58.77.92c.05.06.09.47.1.57-.75.9-1.24,2.07-1.32,3.11l.59.42c.15.11.5.53.36.66l-.48.45s-.17.39-.15.44l.17.55.17.54.17.56c.31,1.03.47,2.1.57,3.17l.06.62c0,.07.12.34.17.5l.16.5c.3.92.15.16.2,1.17l.04.71c0,.17.03.48.05.57l.11.58.11.58.11.62.1.58.1.56.11.61c.03.18.06.37.08.52l.05.41.05.35c.08.56-.01.36.3.92l.26.46c.04.08.24.46.26.56l1.46,6.18.14.6.14.61.14.63c.25,1.14.35,1.95.28,3.08l.27.4.27.42c.14.22,0,.96.14,1.27l.26.56.27.56c.03.07.15.44.17.51l.15.58c.02.1.03.41.04.57l.04.71c.04.66.16,1.49.28,1.93.02.07.73.2.8.24l2.34,1.28c.91.5-.01.45.4,1.02l.91,1.25-.51.2c-.06.02-.39.23-.44.27l-1.14,1.21c-.09.09-.23.23-.35.34l-.35.34c-.11.1-.28.29-.35.34l-.4.29-.42.29.86,3.88c.28,1.26,1.55,4.1,2.1,5.24.51,1.05-1,1.05.24,2.31,1.17,1.19-.26,2.35,1.46,3.26l4.32,2.28c.89.47,2.44,1.09,3.36,1.34,1.35.36-.39.52,1.59,1.86l2.29,1.56c2,1.36,3.62,1.71,4.08,2.64s.27,1.54,2.41,2.44l2.47,1.05c3.21,1.36,1.12,3.77,5.11,4.18,2.06.21,1.12,1.29,2.45,1.68,3.42,1.01,1.35,2.38,3.19,2.62l2.14.28c.95.12,1.87.75,2.73,1.3,2.43,1.56,1.89.41,4.64,3.63.26.3.77,1.13,1.13,1.34.91.54,2.59,1.27,3.41,1.89l1.63,1.22.98.75c.42.32.95.73,1.35,1l1.91,1.25,2.28,1.47c1.25.81-.19.16,1.74,1.72.72.58.44,1.39.8,1.44l1.08.12c.41.05,1.61-.08,2.28.8l1,1.33.42.35c.32.26.79,1,1.08,1.25l2.25,1.92.39.33,2.05,1.69c.32.27.78,1.09.95,1.44.4.83-.1-.26,1.7,1.31,1.59,1.39-.44-.5,2.54,1.58l1.42.99c.05.04.24.47.25.54l.11.73c.02.14.5.23.58.12l.3-.44c.06-.09.23-.41.27-.45l1.21-1.12s.19-.35.25-.47l.23-.46c.16-.31.94-.63.89-.63l1.69.08c.07,0,.54.43.54.49l-.06.87c-.01.15.6,0,.7-.12.05-.07.22-.3.3-.42l.29-.41c.04-.05.33-.25.39-.26l.61-.11.58-.1.56-.1.59-.1c.9-.16.3.03,1.04-.33l.46-.22c.07-.03.48-.12.56-.12h.68s.7,0,.7,0h.71c.19,0,.56.02.64,0l.58-.15.53-.13c.05-.01.33.05.48.08l.59.11c.09.02.37.04.58.06l.69.07.57.06c.06,0,.35.22.42.28l2.5,1.97c.51.4.2.03.65.73l.27.41.26.41c.28.43.29.44.47.88l.21.5.21.5.2.49.19.47.2.51c.03.08.04.47.04.6v.72s0,.71,0,.71v.72c0,.08-.04.49-.06.58l-.14.56-.14.57c-.02.08-.14.39-.18.47l-.22.47-.21.46-.22.49-.22.49-.21.45-.23.46-.23.46-.23.47c-1.02,2.07-.61,2.91-2.51,5.03-.18.2-.39.8-.25,1.01s.73.44.9.26l.79-.83c.51-.54-.21-.96.96-1.1l.71-.08c1.58-.19,1.31-.94,1.93-1.52l1.85-1.76,2.39-2.12c.61-.54,1.24.1,1.82-1.65.02-.06.23-.32.29-.35l.51-.3c1.57-.94.42-.79,1.81-2.21l1.35-1.38.52-.54c.89-.93,1.78-1.87,2.74-2.7.59-.51,1.18-.94,1.51-1.58,1.06-2.09.41.2,2.75-2.38.47-.52.89-.98,1.34-1.42l1.93-1.89c.24-.23.59-.53.91-.81,2.71-2.38.86-.32,3.23-2.21l4.03-3.21,2.38-2.09,1.71-.99,2.12-2.03c2.27-2.17,1.35.09,3.18-2.71.24-.37.94-.92,1.35-1.29l1.67-1.5,1.46-1.23c.27-.23.67-.84.96-1.19.76-.94,2.1-1.88,2.75-2.97l2.01-3.38c.35-.58,1.59-.74,1.76-1.14l.48-1.22c.32-.8.88-1.6,1.49-2.22l1.9-1.95c.36-.37,1-.93,1.42-1.24l2.61-1.91,1.58-1.2c.42-.32,1.46-.69,2.07-.98,2.37-1.11,1.19-1.03,4.1-3.43,3.76-3.1-.04,1.06,5.16-4.05l1.64-1.61c.42-.41,1.29-.84,1.89-1.07l.66-.74,2.57-2.56c.27-.27,1.18-.67,1.49-.88l.85-.6c.34-.24.75-.6,1.11-.9l2.45-2.07c.52-.44.93-1.01,1.38-1.68l1.77-1.32c.37-.28,1.06-.94,1.41-1.25.43-.37,1.89.12,1.91-.31l.05-.91c.06-1.26,2.92-3.03,3.81-3.61.52-.34,1.83-2.45,2.84-3.37l2.32-2.1c.87-.79.69-.09,1.45-1.02.65-.8.1-.34,1.1-.99l.43-.28.35-.25.42-.37.61-.53.42-.37.41-.36c.06-.06.3-.21.36-.25l.52-.32c.47-.29,1.11-.95,1.62-1.32,2.35-1.7,2.75-1.43,3.91-2.96l1.37-1.81c1.99-2.62,4.85-.5,7.36-5.97l1.4-1.68c.32-.38.64-.75.97-1.1l1.48-1.57,2.63-2.61c.46-.46,1.36-.91,1.87-1.34.76-.65,1.48-2.08,2.38-2.93.85-.81.85-1.53,2.15-3.69,1.43-2.37.45-1.61,1.23-3.24,1.47-3.07,2.02-3.34,4.57-5.72,1.15-1.07,3.1-2.5,4.5-1.5.76.54,1.02,1.31,1.09,2.18l.12,1.41-.98-.03c-1.55-.05-3.4,1.15-3.57,1.82l-.16.62-.56.95c-.12.21.27.54.67,1.05l-.66,1.01c-.42.2-.84.39-1.03.5l-1.43.78c-1.03.57-1.17,2.12-3.64,5.13l-1.67,2.03c-.21.25-.5,1.2-.77,1.39l-2.16,1.49c1.44-.99-3.12,3.14-1.89,1.7-.32.38-.98,1.24-1.34,1.6-2.93,2.99-1.58,1.82-3.53,5.1l-.91,1.54c-1.81,3.06-.13,1.54-2.63,4.57-1.55,1.88-3.35,2.13-4.97,2.88l-1.44.67c-3.2,1.49-1.3,1.41-4.02,2.8l-2.2,1.12c-.76.98-1.6,1.79-2.56,2.33l-1.57.88c-1.9,1.06-.26,1.28-2.48,2.93l-2.03,1.5c-.26.19-.9.53-1.29.78-1.33.84-.52.64-2.37,2.37l-1.1,1.03c-.21.2-.68.58-.92.72l-1.36.77c-1.14.65-.71,1.24-1.11,1.66-2.45,2.61-1.73.81-2.8,2.26-2.1,2.85-1.86.97-3.9,3.29l-2.12,2.41c-1.59,1.8-2.87,1.84-3.73,2.98l-1.07,1.44c-.58.78-1.17,1.59-1.83,2.3l-2.17,2.33c-.48.51-2.01.92-2.56,1.44-2.51,2.35-3.04,2.01-4.74,2.93l-2.4,1.3c-.39.21-1.05.51-1.25.76-2.2,2.66-3.76,2.61-4.89,4.05l-1.22,1.55c-.52.65-1.08,1.21-1.6,1.86l-.3.38-.91,1.15c-1.59,2-.56-.35-2.13,2.66l-.71,1.35c-.84,1.61-2.21,2.69-3.7,3.89l-.95.76c-2.75,2.2.39.39-2.61,2.52-.3.21-.76,1.06-1.05,1.3-.3.25-1.15.72-1.43,1l-1.9,1.94c-1.74,1.79-2.23.39-3.69,2.44-.38.53-.94.9-1.49,1.27l-3.32,2.23c-.33.23-.84.79-1.2,1.12l-2.34,2.2c-1.42,1.33-1.3.13-3.32,2.73-2.67,3.44-.96.26-4.14,3.81-2.64,2.95.58.25-3.11,3.43-.49.42-1.21,1.55-1.59,2.03-.04.05-.55.21-.59.25l-.79.86-2.47,2.68-1.81,1.94-1.2,1.25c-2.35,2.45-.95,2.74-3.37,4.17-.34.2-1.06,1.14-.77,1.42.4.4,1.06.87,1.45,1.04l4.01,1.79c1.01.45,1.99.75,2.89,1.27,3.07,1.77,1.06.14,3.95,2.26,5.87,4.32,1.4,1.15,5.46,4.81l1.3,1.17c.91.82,2.04,1.63,2.84,2.53l1.32,1.48,1.8,1.93.79.99c.8,1,.01-.67,2.59,1.8l1.23,1.18,1.29,1.16c4.53,4.08,4.01,2.72,6.7,4.96.34.29.79,1.2,1.13,1.64.31.4,1.02.9,1.37,1.33l.79.95,2.06,2.08c.24.24,1.12-.26,1.33-.55,1.36-1.86.75-.15,2.91-2.04l-1.1-1.07c-.46-.44-.65-1.61-.3-2.11l.79-1.14c.15-.22.58-.58.84-.74l2.86-1.64c.46-.27,1.13-.58,1.54-.85l1.68-1.11c.93-.61,1.83-1.13,2.84-1.68,5.11-2.78,4.05-3.67,8.79-5.9l1.79-1.38c.45-.34.72.11,1.24-.29l1.37-1.09.42-.31.4-.29.39-.28.4-.29.4-.29.4-.29c.24-.17.5-.97.88-1.19l.44-.26c.62-.37.08-.12.88-.46l.49-.21c.07-.03.37-.23.4-.28l.29-.4.28-.4c.04-.05.36-.26.41-.28l.52-.18c.87-.3.26.01.9-.48l.38-.29.39-.31.39-.3.38-.29c.44-.33.87-.53,1.5-.6l.41-.04s.21.19.32.27l.44.35s.4-.41.41-.42c0,0-.27-.33-.35-.42l-.32-.37c-.02-.09-.11-.41-.11-.4l.56-.33c.06-.03.23-.23.34-.34l.34-.34c.48-.48.06-.17.76-.61l.41-.26c.14-.09.36-.21.42-.27l.34-.36c.07-.07.18-.27.28-.41l.28-.41.27-.39c.22-.31.56-.43.85-.49l.62-.14c.07-.01.41-.19.44-.24,2.16-2.92,1.81-.64,4.65-3.49l2.11-2.13c.58-.58,1.31-1.19,1.98-1.74l1.89-1.55c1.09-.89,2.12-1.72,3.11-2.72,4.24-4.28,3.8-1,4.71-3.78.15-.46.42-.51.82-.64l.52-.17.54-.18c.06-.02.4-.19.41-.25l.08-.64c.03-.28.31-.94.53-1.11l1.01-.75c.32-.24,2.01.02,2.21-.78l.49-1.96c.02-.06.27-.5.32-.54l2.17-1.8c2.5-2.06,2.18-2.52,5.56-4.26.16-.08.47-.58.47-.72l-.03-1.06,1.08-.95c2.8-4.6,2.63-1.97,5.26-5.38.18-.24.69-.6.94-.79l.79-.61c.06-.05.32-.27.37-.32l1.12-1.25,1.62-1.84c.34-.38.81-.86,1.19-1.16l1.39-1.09c2.19-1.72.74-1.45,2.43-2.3l1.88-.95c.86-.43.98-1.15,2.27-2.79l.76-.97,1.03-1.34,1.23-1.53,1.93-2.26c.71-.83,1.4-3.43,2.59-3.77l2.2-.63c.29-.08.88-.57.87-.83,0-.13-.03-.71-.06-.79l-.19-.55c-.72-.68-.93-1.42-1.47-2.37l-.92-1.64c-.35-.63-.58-1.42-.92-1.95s-.94-1.14-1-1.58c-.35-2.52-.3-.73-.85-2.05l-.79-1.89-.76-1.8c-.46-1.08-.1-3.16.71-3.89l.43-.39.34-.44c.22-.28.78-.8,1.12-.73.27.06.95.25,1.13.44l.37.39.5.26c1.73.9,1.11,1.7,1.21,2.16l.48,2.2c.04.16.09.4.1.47l.17,1.63c0,.07.34.44.36.51l.29,1.12c.06.22-.46.34-.2,1.09l.44,1.26c.03.07.08.43.1.6l.09.6c0,.06.17.43.21.48l.28.4.3.4c.04.06.08.37.13.54l.17.67.32-.29.34-.34.35-.34.36-.36s.25-.28.28-.33l.28-.44.26-.41c.03-.05.46-.27.53-.28l2.14-.26c.06,0,.37.31.42.34l.45.29c.94.61,1.46.59,2.44,2.06.25.37.9,1.23.93,1.65l.2,3.29c.25,4.05-.15,4.4-2.13,8.5-.99,2.04-.32,2.62-1.23,3.84-.04.05-.52.28-.51.3.3.95-.78,3.66-.9,4.65-.38,3.17-.78,3.18-.85,4.1l-.21,2.75c-.05.64.12,1.61.01,2.21l-.56,3.31-.41,2.43c-.68,4,.62.97-.11,5.57l-.12.77-.11.73-.22,1.52-.1.65-.08.54-.09.59c.06,1.26,0,2.21-.31,3.38l-.17.66c-.02.08.05.46.08.74l.38,3.24c-.09-.79-.71,1.54-.76,1.79l-.13.66-.11.56c-.01.07-.08.61-.05.68.92,2.3-.24,3-.47,4.32l-.23,1.3c-.12.66.86.78-.09,2.77-.76,1.61.62-.6-.44,3.33l-.15.55c-.02.06.02.44.05.5l.26.61c.19.44.15,1.34.11,1.97l-.24,3.74c-.02.35-.44,3.38-.52,3.77l-.57,2.56-.3,2.43-1.12,5.71.06,1.17c-1.33,3.17-.86,4.74-1.7,6.85l-.34,2.4-.31,2.5c-.08.66-.28,1.6-.48,2.19l-.43,1.27c-.09.26.43,1.09.31,1.38l-.56,1.35c1.02,3.74-1.11,2.81-.09,4.62l.33.59c.04.07-.01.49-.03.57l-.16.6c-.02.08-.06.41-.07.53l-.22,2.58-.3,2.48-.27,2.46c-.05.47.38.99-.51,1.82l-.4.37c1.8,3.67-.54,3.93.34,5.91-.14.82-.25,1.73-.32,2.61l-.13,1.68-.23,2.05-.26,2.34-.26,1.98.1,1.51.15,2.22c-.19,1.02-.52,2.2-.59,3.21l-.28,3.91c-.2,2.72-.9,3.25-.48,4.73l.17.6c.02.09.03.65,0,.72l-.23.49-.22.45c-.3.61-.15.54-.24,1.14l-.23,1.51c-.58,3.8-1.4,7.86-2.39,11.56-.41,1.53.38,1.24-.61,2.92-.42,1.51.47,2.45-.02,2.8l-.71.51c-.06.04-.05.58-.08.66l-1.91,5.99c-.02.07-.15.34-.21.48l-.21.47c-.04.08-.11.46-.12.56l-.08.74-.56,4.91c-.03.27-.43.79-.65,1.54-.02.05.18.54.17.6l-.84,3.66c-.17.73-.99,1.96-1.03,2.67l-.2,4.05-.31,2.77c-.06.54-.14,1.17-.16,1.63l-.04,1.53c-.03,1.15-.02,2.37.01,3.52.05,1.75.54,1.17.08,2.12l-1.01,2.1c-.74,1.55-.56,3.03-1.36,3.74l-1.08.94c-.48.42.16.38-1.84,1.89l-1.79,1.35c-2.54,1.92-1.88.64-3.1,2.35-3.5,4.89-3.55,2.87-6.49,6.24l-.95,1.09c-.59.68-.11-.45-1,.47l-1.99,2.05-.35.39c-.29.33-.67.69-1,1l-1.11,1.02c-1.99,1.82-2.53.98-3.65,2.38-3.25,4.05-2.62,1.82-4.08,3.55l-1.43,1.7c-.75.89-1.7,1.7-2.52,2.53l-1.05,1.04c-.47.47-2.19,1.79-2.96,2.21l-1.35.74-1.5.8c.14-.07-1.22,1.46-1.12,1.38l-1.59,1.43c-.08.07-.61.36-.71.41-1.64,1.87-.34.41-2.04,1.71-1.49,1.14-.48,1.38-3.02,2.75l-.5.27-.41.23c.62-.35-1.95,2.1-2.18,2.24l-2.53,1.52s-.06.52-.64.85c-.34.19-1.41.54-1.62.88-1.39,2.2-1.62,3.45-2.47,4.65-.08.11-.24.33-.28.4l-.24.47-.23.46c-1.45,2.97,1.06-.03-1.53,2.92l-.32.37c-.09.1-.24.27-.34.36l-2.02,1.97c-.05.05-.41.27-.51.33l-1.05.63c-.21.12.21.63.45.62.22,0,.96,0,1.16-.03l2.73-.32.73-.08c.1-.01.44-.06.51-.1l.43-.28c.73-.48,1.42-.46,2.11.09l.4.32c.05.04.49-.02.53-.07l.36-.36c.3-.3.3-.45.81-.54l.62-.11.58-.1.57-.1c.13-.02.48-.1.59-.1h.7s.7,0,.7,0c1.04,0,.38.07,1.22-.16l.54-.15c.06-.01.43.04.48.07l.44.32c.06.05.36.21.42.21l.53-.08c1.69-.25.64.39,1.83-.23l.48-.24c.06-.03.49-.13.54-.1l.43.27.42.27c.06.04.47.16.55.16h.68s.69,0,.69,0h.69s.69,0,.69,0h.73c1.88,0,1.36-.69,2.65-.07.11.06.45.25.53.27l.52.13.57.15.55.15.6.16c.7.19,1.91.28,2.55.13l.63-.14c.16-.04.51-.12.61-.12h.7s.7.02.7.02l.72.02c.13,0,.54-.02.6-.06l.68-.39s.32-.13.38-.12l1.07.06c.51-.66,1.78-.81,2.56-.98l3.35-.74c1.12-.25,3.76,1.12,5.95-.67.54-.45,1.51-.41,2.14-.29l1.03.2c.83.16,1.87.25,2.76.24l4.87-.02c.52,0,1.24.11,1.82.19l1.06.14c.07,0,.54-.39.61-.4l2.59-.34.59-.08c.07,0,.58-.18.66-.18l4.61-.02c.95,0,1.89.14,2.77.26l.67.09.63.09c.66.09,1.46.19,2.08.31l3.7.77c.7.14,1.83.51,2.42.51l2.88.03c.55,0,1.25.09,1.81.17l2.12.31c1.38,1.3,4,1.05,5.56.51l1.54-.53c1.12-.39,2.27-.74,3.32-1.21,3.52-1.6,2.93.34,4.76-1.29l1.31-1.17c.43-.38,1.14-.51,1.53-1.04l2.23-3.08c2.36-3.27.62.44,2.63-3.61.3-.6.77-1.3,1.17-1.85l1.9-2.61c.16-.22.4-.52.61-.75,2.85-3.27.88-1.61,3.63-4.91l2.04-2.45,1.67-2.09c1.22-1.53,2.36-3.54,4.53-3.99l1.8-.38.57-.12c.96-.21,1.14,1.1,1.31,1.31l1.3,1.62c.04.05.13.51.14.59l.09.57.1.62.1.62.09.55c.13.81.18-.11-.03,1.02l-.11.58-.12.62-.1.58-.1.55c-.03.16-.1.5-.1.6v.69s0,.69,0,.69v.68s.01.69.01.69v.69s0,.71,0,.71c0,.1-.04.5-.07.59l-.14.54c-.67,2.58.81,1-.2,3.91-.17.49-.28,1.18-.38,1.75l-.12.69c-.07.42-.03,1.22.06,1.86.28,1.87.25,2.12,1.42,2.77l.44.24.53.3c1.43.79,1.59-.15,2.56.02l.7.12c.31.05,1.04.06,1.38,0l.69-.12c.08-.01.7-.09.78-.05l2.55,1.21c.63.3,2.1.12,2.76.27l2.94.65c.65.14,1.98-.41,2.72-.5l2.85-.37c.56-.07,1.28-.16,1.81-.16h3.58c1.18,0,4.13-1.09,3.67-2.92l-.39-1.51c-.02-.09-.01-.6,0-.73l.09-.68.08-.63c.52-3.91-.36-3.5,1-5.54.37-.56.04-1.9.08-2.61l.2-3.6c0-.1-.01-.43-.02-.66l-.02-.79,1.8-.72c.28-.11-.7-.91-.71-1.06l-.08-2.2c-.07-1.8-.74-1.15.14-2.68.06-.1.2-.38.18-.44l-.27-.72c-.59-1.61.13-.72.23-1.72l.07-.67c.06-.62-.1-1.62.51-2.57l.26-.41.29-.45c.03-.05-.1-.46-.15-.51l-.36-.35-.35-.35c-.38-.38.04-.91.05-.92l.22-.48c.37-.8.31-1.53.14-2.46l-.1-.52c-.01-.06,0-.39,0-.44l.07-.54.09-.62c.09-.65,0-.63.26-1.15l.23-.45c.23-.45.28-.5.2-1.09l-.07-.58c-.02-.15-.06-.36-.05-.43l.07-.5c.02-.13.11-.49.09-.58l-.14-.57-.14-.57c-.02-.08-.07-.47-.07-.57v-.71s-.02-.75-.02-.75c0-.09.03-.48.05-.58l.13-.59.11-.59c.01-.08.07-.45.07-.57v-.7s.01-.71.01-.71v-.64s.12-.58.12-.58l.13-.58.07-.58.08-.69c.02-.14.06-.37.09-.53l.1-.57c.16-.87.1-.24.1-1.3v-.69s0-.71,0-.71v-.66c0-.46.21-.34.32-1.72l.05-.7.05-.61.12-.54c.22-1,.1-.09.15-1.24l.03-.65c0-.06.17-.43.22-.47l.35-.34.37-.34.33-.35c.57-.61-.72-1.18.21-1.8l.43-.28c.74-.49-.62-1.4-.57-3.3l.02-.65c0-.06.21-.42.25-.47l.34-.35.36-.37c-.19-.91-.33-1.93-.02-2.63,1.71-3.85-.26-2.68,1.73-4.29l-.32-.42c-.22-.29-.26-.62-.37-1.04l-.15-.58c-.02-.07-.11-.45-.09-.53l.12-.55.13-.56.13-.58.13-.56.13-.57c.28-1.19-.77-1.52.3-2.95l.36-.47c.17-.23.35-.7.37-1.04l.19-3.25c.05-.83-.85-.46-.14-1.81l.24-.46c.04-.07.12-.51.12-.58v-.68s0-.7,0-.7v-.71c0-.1.05-.49.07-.58l.13-.56.13-.57c.09-.42-.06-1.05.07-1.44l.77-2.21c.03-.08-.24-.84-.22-.96l.65-4.32.1-.67.09-.62c.19-1.32.58.36.5-1.85,0-.18-.04-.3,0-.32l.48-.29.45-.26-.44-.44c-.12-.12-.35-.35-.35-.35,0,0,.18-.27.26-.39l.24-.36-.17-1.85c0-.07.2-.55.22-.62l.11-.59.09-.55.07-.49.04-.35.05-.41.13-.52.14-.56.15-.55c.02-.08.06-.63.04-.75-.73-3.76.96-6.67.65-7.72l-.16-.54-.15-.54c-.21-.75.47-.1.59-2.43,0-.12-.05-.42-.03-.46l.28-.39.3-.42c.37-.52.24-.58.15-.99l-.14-.66c-.15-.7-.1-1.87.04-2.64l.11-.62.11-.63.11-.58.11-.55.12-.55.14-.65c.49-2.25,2.04-1.74.81-3.32-.28-.36-.2-1.34.05-1.75l.32-.52c.97-1.54,2.31-1.45,1.68-2.41-.77-1.17-.83-2.56-.88-3.92-.11-2.62-.55-6.3.69-8.43.09-.15.19-.65.2-.72l.1-.62.09-.55c.15-.94-.89-2.29-.63-4.23l.46-3.49c.54-4.14-.85-3.06-.69-6.09l.14-2.65c.09-1.74-.77-3.11.94-5.22.08-.1.25-.61.27-.73l-.86-2.64c-.1-.32.01-1.21.18-1.5l.29-.48c.22-.36-.21-.81-.5-1.36-.54-1.03,1.02-.97.39-2.28l-.27-.56-.21-.46c-.06-.14-.2-.41-.21-.47l-.11-.59-.1-.64-.11-.66c-.26-1.66.19-.45.19-2.4v-.73s0-.7,0-.7v-.71c0-1.47.18-.95.26-1.78l.32-3.36.33-3.51c.33-3.49,1.59-2.87-.33-7.33-1.52-3.53-.57-1.46-1.09-5.46-.65-5,.69-3.3.39-5.69-.17-1.35-.04-.17.31-1.49l.51-1.95.77-2.91c.03-.13.06-.66.06-.74l-.03-1.83.25-2.01c.19-1.47-.76-4.14-.75-3.88l-.08-1.6c-.07-1.32-.41-1.35-.18-2l.19-.54.33-.94c.02-.05.03-.29.04-.43l.04-.55.06-.69c.01-.13.08-.49.1-.6l.98-4.2c.82-3.5.86-1.11,1.17-6.06l-.53-1.87c-.13-.48-.38-1.51-.37-1.99l.1-3.41c.02-.59,0-1.13-.03-1.78-.24-4.04,1.09-2.34-.34-4.88-.93-1.64-.07-3.46-.07-3.44l-.17-1.46c-.04-.31.02-1.04.04-1.41s-.41-.49-.48-1.24l-.2-2.17c-.04-.46-.07-.87-.07-1.26v-.47s-.01-1.97-.01-1.97v-.68s0-.58,0-.58v-2.16c.01-.07.15-.56.15-.63v-.51c-.01-.07-.19-.32-.27-.46l-.24-.44-.24-.44-.2-.53c-.03-.07-.06-.55-.04-.63l.15-.6c.15-.59.41-1.51,1.03-1.67l.57-.14.53-.13c.42-.1.46-1.3.48-1.59l.05-.66c0-.11.07-.43.09-.55l.12-.58.13-.58.12-.56c.04-.18.12-.45.12-.56l.03-.61.04-.72c.1-1.84.5-3.72.44-5.45-.04-1.29-.05-2.4.07-3.59.06-.62.36-1.71.16-2.07l-.37-.68.28-2.94c.12-1.27.08-2.48.08-3.81.02-4.01,1.85-2.97.73-7.58l.44-2.37c.02-.11-.05-.61-.04-.73l.07-.81c.16-1.93-.33-.34.06-1.98l.14-.58c.02-.08.02-.57,0-.66l-.13-.57c-.03-.15-.12-.41-.1-.47l.1-.48.15-.6c.02-.07.07-.44.07-.51l-.04-6.52-.03-4.28c0-.85.15-1.85.27-2.72l-.16-1.11c-.03-.21-.02-.84,0-1.08l.73-5.43c1.28-.83-.8-.62.13-2.73l.21-.47s.06-.38.05-.43l-.16-.45-.19-.52c-.03-.08-.11-.4-.1-.45l.09-.49.11-.58.11-.63.11-.58.1-.57c.25-1.42-.44-1.37-.25-2.3l.11-.56c.03-.14.08-.38.06-.42l-.19-.39-.24-.47c-.03-.06-.06-.45-.04-.52l.12-.55.12-.57.13-.58.13-.54c.17-.73.13-.46.13-1.23v-.7c0-.25-.02-.53,0-.71l.07-.64.39-3.03.33-3.47.29-3.48c.05-.64.15-1.39.25-2.03l.82-5.13.09-1.7c.05-.91.4-2.12.5-3.09l.22-2.16.37-3.08c.41-3.43,1.41-2.5,1.56-4.68.17-2.47-.56-2.36-.41-3.25l.59-3.61.34-2.85c.11-.94.37-1.87.58-2.88.31-1.48.09-3.34.29-4.87l.29-2.14.42-3.06c.43-3.13-.29.12.24-3.12.18-1.13.35-2.22.45-3.35l.28-3.19.15-1.96-.05-1.76.48-.53.03-1.57v-.69s0-.71,0-.71c0-.09.08-.57.11-.65l.66-1.67c.03-.07.08-.57.08-.68.05-3.49-.39-.47.1-4.49.18-1.47.4-2.83.66-4.23l.39-2.04c.12-.63.32-1.73.34-2.3l.13-5.15v-1.18s-.05-5.21-.05-5.21l.3-1.28c.15-.64.01-2.2.12-2.87l.37-2.29c.11-.7-.35-1.6-.58-2.44-.27-.97-.44-2.23-.79-3.1l-1-2.47-.28-.7c-.04-.11-.42-.39-.52-.45l-.47-.29c-.06-.04-.33-.24-.36-.3l-.24-.45-.23-.45c-.12-.24-.32-.71-.53-.85l-.41-.28-.41-.27c-.36-.23-.48-.22-.67-.7l-.2-.49-.2-.47c-.03-.07-.27-.35-.33-.39l-.39-.28-.4-.29-.43-.3c-.06-.04-.28-.22-.33-.26l-.37-.35c-.1-.09-.32-.3-.33-.36l-.15-.5c-.55-1.8-.33-.56-.94-1.32-2.7-3.4-8-2.86-8.69-4.11l-1.38-2.49c-.25-.45-.77-.97-1.15-1.08l-.65-.19c-.06-.02-.4-.16-.46-.2l-1.5-.88c-.06-.03-.27-.19-.47-.34-1.35-.97-3.84-1.77-5.42-1.03l-1.54.72c-.06.03-.58-.16-.66-.2-5.32-3.09-.31-.73-7.78-2.14-1.13-.21-2.33-.52-3.41-.63l-3.24-.34c-.86-.09-2.19-.04-3.07.07-1.47.18-.31-.66-2.77-.47-.07,0-.58.31-.65.3-4.07-.42-4.87-.15-8.52-.9l-.62-.13c-.14-.03-1.26-.02-1.34-.01l-.68.1c-.09.01-.55.11-.62.11l-3.8-.33-2.58-.36c-.06,0-.58.08-.64.07l-4.34-.95c-.92-.2-.68-1.1-3.47-1.38l-2.18-.22c-.09,0-.56-.13-.64-.12l-1.52.22c1.47-.21-4.94.12-4.25.11-1.29.01-2.51-.05-3.51.61l-1.46.95c-1.02.66-2.96,1.26-4.49,1.98-.22.1-.56.95-.76,1.07l-1.69.99c-2.35,1.38-1.96.47-2.26,1.92-.01.07-.12.4-.17.46l-.31.39-.32.39-1.04,1.28c-.04.05-.42.22-.47.26l-.41.28c-.06.04-.19.3-.27.41l-.28.42-1.75,2.58c-.26.38-.66,1.3-.79,1.67l-1.09,3.11c-.25.71-.6,1.45-.9,2.14l-.75,1.68-1.37,2.75c-1.71,3.43-.58,3.04-1.54,5.72-.42,1.17-.66,2.28-.97,3.57-.24,1-.78,2.16-1.11,3.19-.99,3.15-1.08,4.5-1.77,6.5l-.97,2.84-.6,1.78c-1,2.95-.03,2.86-1.69,4.88-1.29,1.58.19,1.55-1.44,4.93-.08.16-.25.46-.26.52-.4,2.86-.3.88-1.4,4.07l-1.07,3.1c-.48,1.39-.91,1.03-1.66,2.66l-.79,1.72c-2.51,5.5-.97.74-1.54,5.74-.06.56-1.03,1.41-1.38,1.95-.81,1.23-1.33,2.66-1.81,4.04l-1.04,3.06c-.28.83-.6,1.66-.94,2.47l-.96,2.26c-1.6,3.75.18.8-1.56,3.46-.11.17-.39,1.68-.26,1.83.26,1.93-.13.93-.55,2.38l-2.39,8.31-.17.6-.16.55-.15.54-.15.53c-.04.14-.14.45-.16.53l-.44,2.81-.42.52-.22,2.23c-.07.71-1.04,1.76-1.48,2.52-1.27,2.24.92,1.89-.74,5.4l-.15,1.86c0,.12-.56.46-.61.57-.56,1.26-.29,3.51-1.62,6.86-.4,1-.89,2.01-1.06,2.98l-.53,2.91-.41,2.47-.63,3.89-.92,5.17-.48,3.02c.43,1.2.46.33.15,2.12-.19,1.07,1.69,1.75,2.26,1.85l4.17.76c.44.08,1.23.08,1.72.08l2.12-.02c.31,0,.92-.07,1.18-.03,3.51.5,2.39-.11,3.92.49,2.01.79.92,0,3.68.46l2.16.36,4.45.68c.67.1,1.41.2,2.05.33l4.59.9c.53.11,1.7,0,2.35.07l2.99.34c.6.07,1.21.76,1.16.67l.98,1.78c.76,1.38-2.9,2.81-4.9,2.33l-2.99-.72c-1.27-.31-2.43-.58-3.67-.8l-1.79-.32c-1.56-.28-3.23-.76-4.79-.88l-3.54-.27c-1.46-.11-.98-.91-4.69-1.08l-5.11-.24c-1.02-.05-1.82-.06-2.93,0-1.35.08-3.23-1.15-4.74-.72l-2.03-.15c-.29-.02-.95-.3-1.28-.43-2.57-.99-2.93-.56-4.02-2.15-.69-1.01-.71-2.17-.06-3.25.88-1.47-.34-1.68.35-3,1.49-2.84,2.43-6.07,3.18-9.23l.52-2.2.39-1.64.47-2.34.67-2.75c.38-1.57.99-3.09,1.55-4.58l.85-2.27.41-1.25c.97-2.92,1.37-2.5,1.45-3.27l.08-.74c.03-.23.05-.51.07-.6.72-.74,1.15-1.48,1.42-2.4l.62-2.08c.93-3.09.1-2.37,1.09-6.32.76-3.03,1.02-3.72,2.49-6.56,1.01-1.94-.05-1.86.57-3.17,1.63-3.45.26-.26,1.27-3.85l.83-2.95c.18-.64.53-1.32.84-1.98.61-1.34.51-3.45,1.3-4.78,1.46-2.43,0-.56.83-2.68l.87-2.23,1.19-3.18c.03-.08-.05-.71,0-.76l1.12-1.04c.19-.18.22-.69.27-1.14.2-1.71,1.44-4.84,2.21-6.54l1.4-3.1c.39-.87,1.36-2.21,1.58-3.02.35-1.29-.43.87.42-2.46l.38-1.46c1.22-4.74-.58-1.2,2.32-4.8-.53-1.5.94-2.75,1.02-5.82.81-1.49.3-1.14,1.25-2.14l.56-.59c.1-.1.02-.6-.03-.73l-.19-.57c-.02-.06-.03-.52-.02-.58l.38-1.37c.03-.1.13-.38.17-.47l.21-.49c.36-.83.18-.18.22-1.15l.03-.69c0-.08.1-.48.13-.54l.23-.45.23-.44.23-.46.28-.41c.05-.07.75-.65.66-.83l-.59-1.27.88-3.15.44-2.3.8-2.98.93-2.65c.59-1.69,1.12-2.85,1.98-4.34.58-1.02.42-2.97,1.31-4.2,1.29-1.78.28-2.76.91-3.5.05-.06,1.13-.64,1.04-.51l1.79-2.48,1.15-1.59c.15-.21.85-.65.93-.87l.74-2.03c.21-.57.72-1.02,1.35-1.35,2.66-1.38.93-1.16,3.95-2.92l1.77-1.03,2.24-1.3c.34-.2.86.25,1.44-.07l.49-.28c.27-.15.81-.44,1.1-.52l4.97-1.47c.3-.09.33-.43,1.15-.26l.66.13c1.58.32,1.79-.12,2.37-.13l4.23-.05c.05,0,5.46,1.26,5.86,1.39l2.78.92,2.11.63c.47.14,1.44,0,1.9.03l1.73.11c.93.06,1.84,0,2.77-.06l2.05-.13c.4-.02,1.76,1.91,3.53,1.51l.65-.15c3.06.55,1.85-.17,3.5-.2l3.51-.07,2.45.67c1.92.52,1.34-.3,2.86-.1,3.76.48,1.16-.34,3.3.05l2.2.41c1.49.28,2.15.79,3.68,1.19l.62.16.5.14.52.16.51.15,1.67-.95c.36.04,1.36.32,1.73.32l2.79-.02c.7,0,1.58.2,2.16.44l.84.34c1.16.47.97.32,2.3,1.11l1.06.62c.05.03.31.32.38.38l3.54,3.06.76.66.62.54c.4.35,1.25.96,1.71,1.05l2.33.41c.09.02.7-.02.77.02l2.19,1.14c.54.28,1.28.73,1.62,1.09l3.19,3.38c.49.52.99,1.15,1.5,1.53l1.64,1.25c.36.28.86,1.01,1.16,1.5l1.5,2.43,2.44,2.53c.16.69.37,1.87.49,2.6l.26,1.55.46,2.94.24,1.8c.02.16.09.51.06.57l-.6,1.04c-.56.98-.43,11-.09,8.7-.07.48-.22,1.27-.17,1.5l.1.51.12.61c.02.09.07.72.04.89l-1.11,5.95-.05,2.67-.45,2.14c.09,1.03.07,1.86-.09,2.85l-1.74,10.94c-.65,4.11-1.09,3.92-1.54,7.83l-.32,2.81-.35,3.64c-.08.85-.65.56-.62,1.78l.04,1.71c0,.08.09.45.13.58l.16.55c.15.52.03.74-.08,1.18l-.14.54-.15.54c-.05.18-.13.41-.15.55l-.08.59-.08.66c-.15,1.18-.58.84-.59,1.41l-.02.63c-.05,1.66-.1,3.2-.3,4.8l-.35,2.77-.36,2.42-.09.62-.39,2.76-.34,2.39-.36,2.37c-.53,3.51.11,1.6-.6,4.87-.84,3.86.24,3.4-.75,6.36l-.63,1.88c-.07.21-.14.85-.09,1.07l.38,1.79c-.12.11-.64.51-.62.64l.16,1.67c.05.5-.18,1.17-.3,1.84-.36,1.97-.12,5.25-.14,5.34l-.34,1.17c-.18.6-.21,1.27-.24,1.95l-.12,2.71c-.04.96.03,2.16-.09,3.02l-.42,3.02c-.34,2.45.1.2-.01,1.84l-.07,1.05c-.1,1.45-.22,2.86-.71,4.16-.12.33-.27.74-.19.93l.34.85c.03.07.06.42.07.55l.12,2.45c.05,1.07.31,2.31.22,3.35-.06.72-.26,1.63-.16,2.12l.46,2.25c.16.78-.13,2.12-.41,3.09-.1.32.09,1.17.09,1.52l.03,4.35c0,1.32.08,2.79-.07,4.1l-.32,2.85c-.38,3.38.24.34-.05,3.24l-.15,1.52-.19,2.7-.18,2.47-.19,2.58c-.16,2.08.34-.12.08,3.16l-.15,1.87-.12,2.36-.17,2.41.09,1.31c.02.26-.34.93-.45,1.2.11.99.23,2.22.13,3.25l-.26,2.78-.24,2.85c-.05.62-.41,1.69-.42,2.3l-.07,4.7c0,.18-.23.74-.28.87l-.49,1.26c-.03.07.13.54.16.66l.14.55.14.56c.02.09.01.45.01.66v.76c0,.1,0,.53-.02.61l-.14.56-.14.55c-.02.08-.02.49,0,.55l.15.56c.43,1.57-.21,3.78.43,6.88.21,1.02,1.28,1.74.6,3.22-.84,1.85-.43,2.33-.65,4.84-.51,5.76,0,1.23.46,6.17l.27,2.89c.07.75-.62,2.11-.86,3.02-.11.43-.11,1.52-.2,2.04-.06.34-.77,1.01-.85,1.34l-.16.64c-.02.06-.22.41-.27.47-1.37,1.48-.4,2.08-.35,2.81.05.81-.19,2.48-.03,3.27.3,1.54.64,4.5.52,5.42l-.57,4.53c-.1.76-.21,1.62-.35,2.33l-.52,2.57c-.08.38-.32,1.21-.54,1.49-1.82,2.32-.3,4.12-.41,4.91-.09.63-.22,2.07-.02,2.69l.83,2.61c.48,1.52.71,3.04.91,4.62.29,2.29.26.73-.26,3.77-.59,3.46.17,1.99-.6,6.23-.04.21-.06.63-.05.84.18,4.42-.76,1.9-.03,6.32.02.15-.1.7-.12.94-.22,2.21.13,1.03.17,1.98l.08,1.94.12,1.95.1,1.85c.04.68.02,1.73-.19,2.34l-.54,1.54c-.04.11.05.27.11.36,1.18,1.7-.32,3.34.18,5.26l.13.51c.02.09.15.32.22.48l.21.46c.43.93.18.22.29,1.05l.09.68c.82,6.37-.43,3.91.04,9.89.03.36.25,1.28.1,1.6l-.99,2.18c-.37.82-.44,1.16-.26,2.21.1.6-.38,1.59-.55,2.35-.27,1.15.06,2.55.15,3.73.08,1.02.09,2.04.11,3.08v.69c.05,1.83.4.24.17,2.11l-.09.72c-.32,2.59-2.01,1.83-1.39,3.35.12.28.25.56.23.62l-.17.52-.17.53-.14.49-.74,2.71c-.19.68-.07,2.14-.3,2.76-1.38,2.18.4,2.62-.41,3.94l-.31.51-.26.44c-.16.26-.29,3.22-.46,4.59l-.34,2.79c-.39,3.14.4,1.76-.51,5.74-.17.77-.13,1.64-.16,2.43l-.07,1.74c-.02.52-.03,1.5-.16,1.89l-.66,2.03c-.02.05-.33.41-.37.49l-.47,1.08c-.03.06.61.43.6.49l-.25,1.62-.09.53c-.01.07.32.55.3.62l-.3.94c-.09.29-.16.88-.19,1.29l-.81,1.86c.08.58.14,1.23.05,1.53l-.72,2.4c-.08.26-.03,1.07-.09,1.36l-.12.57-.12.55-.07.6c-.01.09.08.71.05.87l-.84,5.23c-.15.96-.19,1.87-.27,2.87-.12,1.5-.38,2.95-.57,4.46l-.08.66-.25,1.82-.38,2.71c-.15,1.06-2.23,1.9-1.27,2.7l.61.51-.95,4.11-.68,3.42.18.67-.42,2.5-.53,3.55c-.14.95-.22,1.85-.4,2.77-.11.61-.18,1.12-.13,1.71.52,7.05-.61,4.42-.61,7.06v2.44c0,.21-.21.94-.23,1.17l-.18,1.96-.06.63c-.19,2.04.77.61-.5,3.16-.17.34-.3.53-.21.66l.39.49c.26.33.03.7-.07,1.04l-.16.57c-.02.08.04.51.06.59l.17.57c.23.78.14.4,0,1.09l-.12.56-.12.58-.13.57c-.04.17-.12.43-.13.56l-.04.62-.06.68c-.04.4.03.59-.29,1.05l-.29.41-.27.4-.28.42-.21.52c-.02.06.04.49.09.54l.41.39c.78.74.8,1.65.6,2.8l-.12.67-.11.59c-.64,3.58-.02.96-.35,5.05l-.24,2.98-.06.64-.28,2.71c-.07.69.34.9.33,3.06,0,.73-.09,1.45-.15,2.22-.34,4.48.69,5.63-2.69,7.69-1,.61-1.96,1.43-3.16,1.12-.44-.12-.97-.36-1.12-.17l-.69.85c-1.14,1.4-3.56.49-4.51.56l-2.92.23c-1.36.11-.37.54-3.16.62l-3.14.09c-3.2.09-1.25-.02-3.75-.64l-1.99-.49c-.06-.01-.41-.21-.58-.28-2.44-1.08-1.69.45-4.09-1.07l-2.5.38c-.68.1-1.38.49-3.09-.25l-3.54-1.54c-.22-.09-.52-.8-.59-.99l-.32-.83.38-2.23c.13-.77.42-1.63.5-2.39l.3-2.8.29-2.13.2-2.01c.41-4.11-.51-1.11.11-4.9.09-.53.18-1.4.1-1.83l-.54-2.64c-.07-.33-.44-1.05-.64-1.31-.24-.31-1.03.44-1.08.5l-.32.38c-.75.87.03,1.45-.98,2.77l-2.86,3.73c-2.31,3.01-2.68.74-3.16,3.72-.15.94-.81,1.89-1.36,2.67l-2.28,3.25-1.5,2.29c-1.43,2.19-1,2.43-1.93,3.2l-1.64,1.36-.35.51-1.62,1.38c-.51.44-1.23,1.08-1.73,1.29l-2.28.93c-2.49,1.02-3.19.68-5,1.12l-2.5.6c-1.84.44-1.55,1.07-3.54.77-.58.25-1.49.52-2.1.34l-2.44-.7c-.97-.28-.73-.98-2.88-.9l-.78.03-.71.03c-.09,0-.62-.04-.69-.07l-.77-.35-.5-.23c-3.87-.02-4.23-1.04-7.45-.93-3.63.12-6.27-1.16-7.99-.1-1.5.93-5.94-.3-7.66.21-3.46,1.02-2.38.04-4.27.22l-.72.07c-.61.06-.49-.55-2.02-.43l-1.47.12c-.27.02-1.11.29-1.38.22-.77-.2-2.49-.69-3.19-.27-2.66,1.61-2.14-1.22-3.11.19l-.61.88c-.37.53-10.64,1.36-9.78,1.22l-.66.11-.46-.05c-3-.31-2.13.44-3.21.21-.62-.13-2.03-.62-2.72-.64l-4.13-.08-3.35.33-8.01.08c-.68,0-1.8.39-2.53.46l-2.88.29-2.47.22c-2.97.27-1.7,1.16-3.68,1.35l-3.14.31-1.95.24c-.39.05-1.34.24-1.71.11l-2.23-.77c.71.25-1.85-1.1-1.63-2.1.98-4.39,1.25-2.12,2.2-3.7,1.48-2.46.32-.81,2.14-2.15,3.78-2.77,3.53-1.08,4.9-3.19.82-1.26,1.86-.41,1.28-1.35l-.62-1c-.03-.06.23-.45.28-.49l.43-.29s.26-.31.28-.36l.21-.56c.21-.54.74-1.45,1.12-1.78l.44-.38.22-.43.23-.46.24-.47s.25-.21.36-.31l.38-.32c.11-.09.33-.25.37-.31l.28-.42.28-.43c.04-.06.23-.32.29-.36,3.42-2.73.87-1.16,2.53-2.48l1.79-1.42,1.73-1.4c2.4-1.94.37-.09,2.98-2.44l1.67-1.5,1.73-1.67c1.78-1.72,3.94-2.94,6.02-4.28l3.13-2.01.88-.55c.26-.16.7-.7.97-1.03,2.49-3.01,1.89-1.43,3.92-3.96l2-2.47c.09-.11.39-.39.5-.47l1.76-1.37,1.82-1.32c1.57-1.14.66-.55,1.68-2.04l.88-1.28c.26-.38.91-.88,1.38-1.26l1.13-.92,3.34-2.57c.71-.55,1.51-1.48,2.2-2.17l3.28-3.26c.82-.81,1.57-1.95,2.48-2.6l1.26-.89c.88-.62,1.78-2.12,2.28-3.12l.93-1.85c.08-.17.21-.8.19-.97l-.3-2.7c-.04-.33.4-1.09.53-1.46.2-.6.57-3.51.57-3.51l.13-5.3c0-.34.59-1.14.71-1.44l.88-2.21c.11-.28.67-1.05.7-1.34l.35-2.95.24-2.02c.33-2.79-.74-.49.36-4.7l.59-2.26c.37-1.4.79-1.1,1.84-4.27l.62-1.87c.79-2.39-.67-2.09.18-3.72.67-1.29.1-.02.38-1.08l1.23-4.64c.59-2.21,0-5.82,1.69-8.86l.07-1.64c.03-.61.09-1.38.18-1.9l.81-4.3c.37-1.98.79-2.71.67-3.35-.65-3.35.07-2.87.4-6.19l.28-2.86.18-2.99.48-3.79c.04-.33-.11-1.05.11-1.25l.66-.61c.12-.11-.55-.38-.52-.87l.03-.47c.08-1.15-.26-.92-.1-1.53l.14-.54c.12-.47.25-.59.13-1.22l-.11-.58c-.15-.8-.17.13-.03-.94l.08-.57.09-.68.63-4.77.27-2.88c.2-2.07-.22.22.17-2.59.15-1.07.25-2.04.31-3.14l.15-2.74c0-.16-.16-.91-.14-1.06l.29-2.02c.07-.49.2-1.08.3-1.45l.87-3c.09-.3.2-.64.33-1.02.61-1.73-.04-2.12.33-3.63l.91-3.63c.1-.4.17-.88.22-1.29l.25-2.03.26-2.48c.06-.6.11-1.22.2-1.77l.61-3.51,1.06-5.1.74-3.35c.05-.24-.05-.84-.13-1.19-.48-2.27,1.11-1.52.48-3.11-1.11-2.78-.39-1.73-.26-4.92.06-1.57.2-4.29.55-5.63l1.24-4.67c.79-2.98-.81.37-.18-4.21l.41-2.99.33-2.83c.37-3.19-.54-2.78.64-4.95.67-1.22-.94-.85-.56-2.55l.63-2.85c.17-.77-.19-2.23-.12-3.01l.35-3.56c.03-.31-.21-1.3-.15-1.66l.87-4.78.58-2.92.7-3.42.81-3.89c.17-.81.28-1.47.58-2.31.34-.94-.05-1.69-.88-2.1l-1.34-.66c-.27-.13-.85.75-1.11.91-.62.4-.53-.51-1.85.02-.06.02-.32.43-.37.47l-.35.34-.36.36c-.72.72.12.7-1.19,2.5-2.25,3.09-1.42,1.01-3.81,4.14l-1.49,1.95c-1.15,1.51-.27-.22-1.82,1.58-.57.67-1,1.27-1.72,1.77l-3.44,2.42-2.16,3.19-2.21,2.37c-2.47,2.64.14,1.07-2.8,3.35-3.83,2.97-1.82.99-3.71,2.33l-.46.33c-.64.46-1.35.97-1.9,1.51l-3.15,3.13c-.47.46-1.3.98-1.94,1.47-2.28,1.76-.04.77-3.35,3.06-.06.04-.56.14-.61.18-1.43,1.12-.64,1.77-4.29,4.58l-1.6,1.23c-.16.13-.56.38-.71.27l-.55-.37c-.4-.27-.08-.28-.69.11l-1.97,2.84-.28.43c-.42.64-.72,1.13-1.51,1.26-1.5.24-.74,2.16-6.02,5.18-.84.48-.44,1.27-1.49,1.29l-1.03.03s.04.14.22.76l-3.4,2.69c-.52.41-1.29,1.19-1.82,1.48l-2.22,1.2c-.07.04-.45.13-.62.17-2.63.6.16,1.1-2.58,2.86-3.19,2.05-2.52,2.11-5.24,4.03l-2.66,1.87c-.73.52-1.6,1.55-2.35,2.01l-3,1.84c-2.61,1.6-2.92,1.88-5.07,3.89-.81.76-2.02,1.46-2.94,2.17l-1.96,1.53c-.16.12-.45.6-.28.57l.83-.13c.97-.16,2.08-.23,2.97-.12l.62.08c1.47.19,2.49.73,3.57,1.65l1.85,1.6c1.47,1.27,1.98,2.33,1.51,4.27-.56,2.29.74.9-.21,3.15-1.19,2.82-.32,3.04-1.29,4.48l-.9,1.33c-.28.41.36,1.48-.19,1.7-1.04.42-.82,0-1.15,1.07l-.17.54c-.13.43-.32.95-.85,1.24l-3.89,2.14-2.28,1.15c-.05.03-.36.38-.41.41l-1.24.76c-.07.04-.48.03-.71.03-.27,0-1.11.21-.96.42l.56.76c.07.1.26.35.28.43l.14.54.14.54c.17.65.17.55.19,1.1l.04.79c.02.35.38.99.58,1.39l.7,1.41,1.37,2.83c1.28,2.66-.73,1.7,1.22,5.54.78,1.55.86,3.17.13,4.74-.84,1.82.87,1.45-.22,4.5-.09.26-.07.98-.22,1.2l-.68,1c-.16.86-.46,1.88-.95,2.42l-1.75,1.92c-.5.55-2.17.4-2.93.22l-2.61-.6c-1.08-.25-2.17-.76-3.2-1.25l-.84-.41c-.17-.08-.63.33-.55.5.59,1.16,4.21,6.09,2.92,9.04l-.99,2.27-.56,2.8c-.01.06-.52.31-.55.36l-.73,1.23c-.23.38-.45.78-.64,1.06l-.86,1.25c-.18.26-.55,1.07-.78,1.33l-1.61,1.77c-.83.92-2.3.92-2.83.71l-4.76-1.87c.14-.24-.11.2-.26.47l.02.72c.01.61-.38,1.02-.55,1.5l-.78,2.32-.18.52-.17.49c-.03.08-.23.36-.28.42l-.35.36c-.05.06-.31.16-.44.23l-.46.23-.46.23-.46.23-.46.23-.46.23-.46.23-.46.23c-.56.28-.38.14-.81.56l-.36.35c-.05.05-.38.24-.45.23l-.53-.12c-1.67-.39-1.48.53-2.22-.06-1.46-1.16-1.3-1.05-2-.96-3.51.46-2.89-.14-4.04-.74-.32-.17-1.26-.22-1.52.04l-.8.82c-.72-.02-2.09-.12-2.91-.23l-3.13-.4-2.75-.39c-.37-.05-.91-.47-1.28-.83-.44-.43-1.79-.68-2.33-1.03l-3.79-2.44-.92-1.01c-2.58-.85-.6-1.58-2.45-2-2-.46-.78-.59-2.36-1.09-1.22-.3-2.22-.87-3.1-1.73l-1.59-1.57c-.42-.42-.91-.83-1.46-1.3l-2.15-1.85c-.14-.12-.2-.93-.2-1.14,0-1.14-.82.89-1.65,1.59l-2.62,2.2c-2.19,1.85-1.54,1.89-3.06,2.8l-1.95,1.16c-2.35,1.4-1.03,1.23-4.86,2-.56.11-1.59.05-2.41.05-1.8,0-1.05,1.75-4.73.81l-1.37.17-3.08-.54c-.76-.13-1.71-.22-2.42-.26l-1.76-.09c-2.14-.11-1.71-.99-2.91-1.81-.4-.27-.96-.68-1.12-1l-.81-1.67c-.31-.65-.84-1.9-.68-2.52l.98-3.64c.31-1.15,3.09-3.67,4.56-4.57l.77-.47c.17-.11-.22-.98-.42-.94-2.75.52-.49,2.04-7.09,1.37-.48-.05-1.37-.42-1.76-.44l-1.47-.07-1.17-.05c-.32.11-.42.15-.4.14l-.19-.85h-.47s-.43.33-.43.33l-.39.29-.51.4-3.57-.6c-.09-.02-.48,0-.53.01l-.58.13-.6.14c-.07.02-.51-.14-.57-.18l-.42-.31c-.49-.36-.41-.27-.92-.12l-.53.16c-1,.3-5.82-2.37-6.88-2.99-1-.59-2.16-5.23-1.97-6.05l.53-2.36.16-.7c.03-.14-.43-.31-.5-.2l-.39.55c-1.83.17-3.63.46-5.36,1.04l-.57.19-2.48.84c-.68.23-1.43-.5-2.08-.75l-3.07-1.19c-.53-.2-1.46-1.02-1.41-1.59l.29-3.25c.09-1,.26-2.29.73-3.04,2.01-3.18.37-1.18,2.17-3.73,2.91-4.11.81-2.75,3.28-5.02,1.74-1.6.8-2.21,2.72-4.38.26-.29.6-1.13.62-1.53l.11-1.97c-.28.19.09-.07.34-.23l.62-.44c.07-.05.28-.24.36-.31l.35-.34s.33-.43.36-.49l1.26-3.05-.7-.1-.4.45c-.12.14-.66.21-.69.04-.35-1.73-.51-.79-1.8-1.84l-2.03-1.65-.3-.58-1.88-1.67c-.05-.05-.17-.64-.21-.69-.97-1.33-1.04.12-2.51-1.39-.16-.17-.37-.4-.43-.42l-2.31-.73c-.36-.11-.96-.92-1.25-1.16l-1.84-1.56c-1.98.19-4.86-2.9-6.05-4.29-.95-1.11-.59.1-2.51-1.31-2.62-1.92-.19.38-2.77-1.66-3.68-2.9-3.86-1.45-5.21-3.31-.45-.62-.99-1.23-1.58-1.53l-3.21-1.65-2.12-1.03-.97-1-1.01-1.03c-.14-.14-.21-.93-.4-.87l-.97.26c-.19.05-.83,0-.96-.14l-1.39-1.38c-1.6-.08-3.12-.78-4.1-2.07l-1.95-2.56c-.36-.47-1.82-.75-2.25-1.17l-1.57-1.5c-1.75-1.67-1.41-.64-1.86-1.55-1.16-2.35.04-.3-2.87-2.56-.9-.7-1.67-1.34-2.4-2.08l-1.39-1.4-2.32-2.2c-.37-.35-.93-1.15-1.33-1.69-1.64-2.25-1.2-.34-2.39-1.75l-1.71-2.01c-.33-.39-.73-1.09-1.13-1.24-1.09-.41-3.5-1.56-3.35-2.43.05-.29.25-.92.06-1l-.86-.37c-.64-.28-1.27-.51-1.89-.89l-1.42-.88c-1.31-.81-3.55-2.19-4.59-3.32-1.41-1.54-2.56-3.09-4.73-3.58-1.91-.43-.58-.7-4.36-2.82-.8-.45-1.44-1.01-2.11-1.6l-1.87-1.67-2.14-1.91c-.24-.22-1.05-.29-1.36-.34-.26-.31-.81-1.04-1.08-1.31l-1.21-1.23-3.42-3.5-1.44-2.23-1.76-1.74c-.51-.5-1.45-1.33-1.99-1.63-1.18-.45-1.81-.86-2.3-1.98l-1.87-1.45c-1.16-2.52-2.7-2.38-2.69-4.77,0-.26.77-.94,1.03-.89,1.63.28,3.07,1.72,4.15,2.79l3.07,3.07,2.8,3.45,2.51,2.55c1.18,1.2,2.17,2.39,3.43,3.46l1.68,1.42c1.24,1.05,2.39,2.14,3.46,3.38l.8.92c.13.15.36.53.49.55,2.12.34,1.07.4,3.84,2.33l2.45,1.71.8,1.35c.59.03,1.18.13,1.48.33l2.38,1.58,1.77,1.53c.57.49,1.37.83,1.84,1.27l1.61,1.51c.29.27,1.35.5,1.71.75,4.35,2.91,2.83,2.3,6.35,5.6l1.78,1.67c.68.64,1.36,1.76,2.14,2.2,1,.56,1.53,1.12,2.32,1.91l1.68,1.68c.1.1.49.34.65.42,2.28,1.21.03.71,2.37,2.38.86.61,1.72,1.15,2.41,1.78,2.87,2.64,2.15,2.67,4.59,4.71l2.03,1.7c.55.47,1.1.95,1.72,1.35,3.19,2.05.38,1.01,3.03,1.81,3.86,1.17,2.93,1.74,5.96,1.68.41,0,1.03.46,1.57.74l2.49,1.25,1.91,1.25c.93.61,3.73,2.98,4.06,3.4l1.61,2.07,2.09,1.12c3.29,1.76,2.84.8,4.01,2.61.83,1.28,1-.21,3.99,1.69,1.17.74,2.69,2.09,3.39,3.12l2.72.99c1.68.61.51,1.93,2.67,3.19l2.02,1.18c.46.27,1.04.56,1.57.79,2.74,1.17.53,2.93,2.09,3.37l.6.17,1.68.48c.11.02.37.39.49.74.45,1.29,2.41,1.81,2.95,1.61l1.62-.59c.94-.34.26-2.05,1.35-1.93,2.88.32.74.44,3.3-.87l1.6-.82c.35-.18,1.38-.19,1.7-.41l1.86-1.26c1.7-1.16.97-.05,3.61-1.82l.41.41c.1.1.68.12.78.01,2.4-2.59,2.14-.56,4.18-1.86,4.5-2.87,3.1-.83,6.18-2.54.98-.54,2.61-.05,3.75-.09,1.76-.08,3.84-.51,5.37.94l1.4,1.33-.3,2.28c-1.2,1.11-2.47.61-3.85.32-1.6-.34-3.3-.71-4.85-1.49-.4-.2-1.19.47-1.61.59-3.79,1.05-.66,1.22-3.7,1.38s-1.63,1.2-3.81,1.87l-1.95.6c-1.3.4-2.48,1.35-3.65,2.12l-2.08,1.35c-.69.45-1.37.92-1.98,1.45l-1.68,1.46c-2.45,2.13-1.95.34-3.17,1.68l-1.9,2.09-1.65,1.9c-.57.65-1.5,1.24-2.31,1.75l-.63,1.48-.68,1.68c-.5,1.25-.75,0-1.54,2.13l-.64,1.73c-.42.45-1.02.96-1.11,1.33l-.19.75c-.27,1.06-1.31,2.67-1.86,3.81l-.99,2.03c-.13.26-.5,1.12-.44,1.43.28,1.43,2.16,2.84,4.58,2.45.74-.12,1.97-.09,2.56-.25l2.72-.75,2.73-.75c1.17-.32,2.15-.6,3.4-.26,1.65.44,1.71-.62,2.39-.73l2.08-.34c.42-.07.87-1,1-1.45,1,.81.79.45,1.23.46h.51s.56.03.56.03c.48-.45,1.22-1.1,1.84-1.37l2.91-1.31,2.21-.91,1.22-1.05c3-1.44,2.77-1.76,5.39-3.29l1.27-.74c.24-.14.75-.57.94-.76l2.64-2.59c1.72-1.69,2.19-.71,5.47-3.76.39-.36.94-1.26,1.25-1.78,1.16-1.88,1.91-.16,2.61-1.54,1.92-3.78,2.01-1.62,2.09-3.35l.09-1.74c.03-.53.2-1.37-.09-1.73-.4-.5-1.04-.69-1.69-.89-.77-.24-2.31-.94-3.03-.75-.45.12-5.35,2.17-5.61-.1-.17-1.49,1.41-1.78,1.88-1.94,3.24-1.03,3.43-.43,5.39-.42l2.63.02c1.51,0,2.95.75,3.65,1.8.14.21,0,1.04-.04,1.31l-.41,3.08c-.1.72-.58,1.69-.92,2.41-2.37,4.94-.54,1.37-2.61,4.35-.53.77-1.27,1.47-2.03,2.07l-2.7,2.12-.57.45c-1.46,1.15.15-.03-1.84.94l-2.73,1.33-1.37,1.07c-1.68,1.31.03,1.14-.88,1.52l-1.05.44s.06.83-.02.86l-1.66.73-.49.22-.41.28-.41.28c-.12.08-.27.2-.37.28l-.39.31-.38.3-.45.26-.46.23c-.53.26-.04.08-.71.28l-3.18,1.67c-3.03,1.59-2.39,1.48-5.85,2.57-.86,2.58-4.36-.24-4.08,2.69-.58.27-1.65.83-2.22.96l-2.1.46c-.24.05-.69.22-.88.31s-.08.72-.01.92l.54,1.65-1.03,1.55c-.04.05.16.56.2.63l1.4,1.89c.04.06.24.5.3.6.81,1.31,2.32-.04,3.51,2.1.25.44.37.7.55.66s.76-.24.93-.21l2.01.28,2.1.29,2.06.27,2.15.26c.35.04,1.18-.04,1.62-.07,3.46-.25,1.54,1.16,4.53.34l2.41-.65c1.49-.41-.18.55,1.81-.34l2.81-1.25c.16-.07.92.46.99.3l.35-.72.23-.46c.03-.05.33-.33.39-.36l1.78-.79c.06-.02.32-.54.37-.57l3.25-2.47c.32-.25.53-.84.68-.97l1.36-1.07c.1-.08.32-.27.35-.32l.32-.5c.76-1.18,1.66-.37,3.28-2.76.2-.29.56-.84.8-.95l1.69-.75c1.36-.61.16-.57,1.26-2.74l.82-1.62c.3-.59,1.12-.13,1.74-1.33l1.54-2.99c.32-.62,1.34-3.92,1.35-3.81l-.17-2.2c-.03-.39-.9-.92-1.28-1.02l-1.83-.48-2.12-.56c-1.89-.5-2.38.84-3.32.72l-2.43-.31c-1.08-.14-1.37-2-.64-2.06,2.2-.19,3.84-.4,5.91-1.02.94-.28,1.81-.47,2.8-.27,1.84.38,3.51,1.13,4.77,2.51,2.73,3.02,1.13,3.91.72,5.29l-.59,2c-.25.86-1.11,1.85-1.71,2.65-.2.47-.36,1.71-.69,2.11l-1.52,1.83-2.25,2.93-1.15,1.61c-.92,1.28-1.94,2.38-2.99,3.56l-2.73,3.05-.91.18c-.92.18.16,1.27-2.77,2.73-.36.18-.85.81-1.18,1.26-.23.31-.95.65-1.4.95l-4.09,2.69c-.37.24-1.4.46-1.83.6l-.94.32c-.17.06-.1.59.06.68l.59.34c.18.1.71.14.93.11l.64-.08c.07,0,.41.13.47.17l.49.25.49.24c.69.35.5-.61,1.55-.01.09.05-.05.34-.13.39l-1,.74-.39.3c-.59.45-.08.2-.89.49l-.51.18c-.76.27-.75.21-1.33.73l-.36.32c-.79.71-2.24,2.26-2.58,3.07l.46.63c.49.66.11,2.52,1.97,3.17l3.11,1.08c.7.24,2.32.24,3.06.24.68,0,.06,1.19,1.35,1.07l.81-.07,2.72-.19c1.82-.12,5.85-1.97,7.7-3.05l2.01-1.17c2.56-1.49,1.49-2.48,2.91-2.38l1.05.07c.51.04.43-1.53.43-1.53l.86-1.19,1.19-1.23,1.44-2.57,1.21-1.96,1.17-2.23,1.95-3.25c.16-.27.63-.8.92-.77l1.24.17-.35-3.13c-.09-.81.63-2.43.47-3.2-.18-.85-.63-1.88-.73-2.6l-.32-2.14c-.02-.14-.03-.56-.03-.71.4-.4.4-.46.54-.41l.91.37c1.26.51,2.13,1.92,2.56,3.2.37,1.12,1.03,1.18.45,2.18-2.42,4.19-.03,2.25-2.29,5.65-.46.69-.78,1.56-1.19,2.32-.8,1.49-1.75,3.4-2.13,4.93-.06.26-.45.62-.62.84l-1.3,1.66c.16.43.13.33-.03-.09l-.78-.34c-.06-.03-.46.33-.44.36l.37.45.33.4s.04.39,0,.44l-.33.4-.32.29c.25.17.44.36.5.36l.58.06.66.07c.06,0,.42.16.46.22l.27.43c.08.13.2.37.26.41l.39.28.42.28.42.26.38.32c.06.05.2.26.3.38l.31.39c.05.06.26.2.39.29l.4.29.39.29.39.29.39.29.4.3c.05.04.38.21.44.23l.56.14c.9.23.47-.23.68.69l.13.56c.01.06.22.37.27.42l.35.34.34.33.35.34.35.35c.1.1.27.26.31.3l.41.32c.7.55.24,0,.65.72l.25.45c.24.41.4.4.79.59l.46.23c.56.28.27.07.86.48l.42.29.41.28.41.27.41.28.41.28.41.28.43.22.47.25.46.23.45.23c.38.19.52.7,1.2.87l.57.14c1.57.38.97-.23,2.05-.02l.56.11.56.1.65.11c.19.03.49.07.54.1l.44.27c.1.06.37.23.44.24l.65.03.7.03.61.03c.8.05,2.57.61,5.19.15,1.16-.21,1.74-.33,2.88-.08l2.42.53c1.86.41,1.37-.51,3.21-1.38,3.38-1.61,2.04-4.69,1.18-7.23l-.46-1.35c-.42-1.24-1.38-.73-1.93-1.46l-1.28-1.69c-2.81-1.66.81.08-2.67-1.92-.33-.19-.8-.97-.96-1.38-1.45-3.79-1.4-2.03-1.33-6.53l2.42-.07c.29,0,1.09.27,1.3.48l2.32,2.33.75,1.11,2.35,2.42c.76.78,1.47,2.16,2.24,2.8l2.5,2.09c2.36,1.98,2.67,3.23,3.59,3.24l1.81.03c.72.01,1.4-.32,1.83-.85s.95-1.11,1.19-1.54l1.65-2.95c1.89-3.37-.3-3.64-.19-5.61.07-1.18.24-2.31-.69-2.97-1.31-.93.8-.42-.71-2.36-.38-.48-.77-1.1-1.05-1.65l-.98-1.9c-.98-1.91-1.59-2.12-2.21-2.8l-1.51-1.64c-.47-.51-1.05-1-1.59-1.47l-2.42-2.1-.93-1.66.27-1.17c.06-.26.45-.83.7-.95l.61-.29c.76-.36,3.27-1.41,3.88-.36.25.43.72,1.23,1.04,1.61l1.6,1.88,2.14,2.44c.56.63,1.9,1.14,2.64,1.67,3.22,2.28,2.2,2.61,5.29,4.08l1.11,1.3c.66.03,1.59.04,2.24-.07l1.23-.2c.2-.03.2.69.24.97.2-.02.51-.06.47-.06l.85-3.05.13-3.19c.01-.28.65-.97.58-1.23l-.5-1.95c.18-1.19.16-2.65-.21-3.78l-.78-2.38c-.34-1.05-.84-1.99-1.62-2.89-1.57-1.81.2-2.95-.61-4.17-.69-1.06-1.84-2.68-2.55-3.51-.18-.21-2.01-1.34-2.2-1.34-.27,0-1,.03-1.29-.01-1.15-.18-2.03-1.42-2.01-2.54.02-.81-.61-1.5-1.19-1.82l-2.08-1.17c-2.07-1.17-2.37.22-3.15-1.16l-1.6-2.82-2.12-3.76c-.27-.48-1.21-1.21-1.4-1.72-.57-1.47-1.54-3.01-2.65-4.19l-2.15-2.28c-1.23-1.31-2.45-2.28-3.69-3.65-.56-.62-1.54-1.17-2.38-1.7-1.9-1.19-1.76-1.29-2.81-3.33s-.89.36-4.01-3.59c-.49-.62-1.5-1.27-2.3-1.79s-1.38-1.88-2-2.34c-.86-.65-1.89-1.11-2.66-1.87-1.9-1.88-1.16-.37-2.51-1.64-1.99-1.88-.07.39-3.41-1.3-.66-.34-1.36-.57-2.06-.77-3.47-.99-1.45-1.22-3.04-1.35-.5-.04-1.55-.07-1.9-.25l-2.68-1.38c-1.03-.53-2.6.56-3.83.86-.64.16-1.56-1.06-1.96-1.64-1.69-2.42.55-2.53-.89-3.15-.06-.02-.52.25-.55.31l-.23.44c-.05.09-.25.45-.3.47l-1.94.75c.13-.05-5.6.54-6.13.57-.7.03-1.46.04-1.96.16l-1.16.28-1.85.45-5.86.17-3.88.25c-1.79.12-1.4,1.21-1.95.54l-.42-.51-.39-.36c-.63-.59-1.15-1.3-1.66-2.11-1.57-2.51.19-1.37-1.14-2.91-.85-.99-1.05-2.27-.85-3.58l.47-3.09c.13-.85,1.43-2.27,2.01-2.91.25-.28,1.34-.65,1.55-.96,1.83-2.67,1.33-2.61,3.11-4.42,2.36-2.4-.3.67,4.17-2.37.54-.37,1.03-.96,1.13-1.71.2-1.4-1.4-.48-3.46-1.69l-2-1.18-2.74-1.66c-1.16-.7-2.3-1.32-3.35-2.19-2.88-2.4-1.83-.31-4.45-2.42-.53-.43-.84-.94-1.16-1.62l-.77-1.63c-.52-1.1.14.4-2.36-1.35l-1.04-.73-1-.72c-.93-.67-1.9-1.29-2.95-1.84-4.59-2.36-2.91-2.98-5.16-4.37l-1.77-1.1c-.5-.31-1.34-.86-1.73-1.23l-1.98-1.89c-3.08-2.94-1.27-.24-5.58-3.62l-1.4-1.09c-.49-.39-1.42-1.11-1.93-1.33l-2.42-1.03c-1.34-2.46-2.25-1.43-3.68-3.27-.75-.97-1.77-1.37-2.82-1.68-1.77-1.67-.28.11-2.59-1.44l-2.08-1.39-2.85-1.98-3.03-2.18c-.5-.36-1.14-1.34-1.77-1.5-1.77-.47-3.08-1.17-4.61-1.97-.58-.31-1.26-.6-1.74-1.03-1.78-1.54-3.28.67-4.02-.69-1.08-2.01,0-3.46-1.32-4.14-2.36-1.22-2.62-1.9-5.54-3.8l-3.15-2.05c-.85-.55-1.46-1.05-2.48-1.32-1.12-.3-1.82-1.06-2.74-1.71l-1.37-.97-1.7-1.44c-1.61-1.36-1.82-.47-3.34-2.53-1.21-1.65-.62.33-2.78-2.32-.46-.57-.96-1.1-1.52-1.63-1.34-1.29.03-1.19-1.38-1.94-.57-.3-1.22-.74-1.61-1.15l-2.2-2.27c-.33-.34-1.18-.88-1.57-1.18l-3.45-2.57c-.37-.14.75-1.6-.09-2.27-.96-.76-1.29-.07-2.1-.5l-.68-.36c-.73-.39-1.51-.79-2.15-1.25l-2.8-2.04c-.25-.18-.75-.57-.92-.81l-1.5-2.22c-.7-1.04-1.47-1.71-2.48-2.37-3.05-1.98-.36.29-3.63-1.85-2.33-1.53-2.42-1.2-4.51-3.76-.97-1.19-1.67-.04-3.05-.65l-1.21-.54c-1.34-.6.73-3.66,2.18-4.01,1.93-.47,4.68.47,6.17,1.79l2.43,2.14c.46.41.93,1.08,1.34,1.75,1.31,2.14.53-.72,4.03,3.47,1,1.2.58-.13,2.01,1.35l1.38,1.42-.27,1.25,2.23,1.59c1.67,1.19,2.99,1.74,3.54,2.21l2.12,1.77c.87.73,1.77,1.67,2.52,2.56,2.21,2.6,1.06.48,2.77,2.35,2.18,2.38.83,1.62,3.14,3.38l1.78,1.36c.4.3,1.26.7,1.73.99l.53.32c.09.06-.03.33-.04.53l-.07.7.43.41c3.12,2.98,1.53.15,3.63,2.88.84,1.09,1.87,1.8,3.17,2.27l2.56.94c1.17.43,3.17.53,4.12,1.23l4.2,3.06c.4.29,1.26.74,1.85,1.01.44.19.57-1.33.44-1.85l-.76-3.01-.65-2.44c-.24-.89-.45-1.92-.76-2.74-.41-1.06-.68-1.89-.12-2.97.82-1.59-.12-.51.08-2.62.26-2.74-.78-.56-.39-2.12.56-2.22.97-2.8.12-3.33-.34-.22-.63-1.02-.44-1.32.24-.36.69-.79.58-1l-.43-.78-1.38-2.51c-.27-.49-.47-1.38-.61-2.04l-2-8.95c-.3-1.33-.47-2.72-.88-3.94-1.11-3.25.56-1.5-.3-2.82-.36-.54-1.06-1.81-1.19-2.46l-.63-3.23c-.12-.6-1.19-1.82-1.8-1.92-2.06-.35-2.6.89-5.98.02-2.49-.64-4.39.03-7.54-1.74-.38-.21-1.39-.1-1.83-.2l-3.01-.71c-.4-.1-1.04-1.08-.92-1.48.35-1.15.99-2.5,1.92-2.97.46-.23,1.72-.4,2.21-.27l2.39.62c1.26.33,2.44.73,3.72.98,1.63.31,3,.84,4.43,1.78,1.02.67,2.92.74,3.62-.54.36-.65.44-2.27.31-3.03l-.61-3.54c-.54-3.11.24-4.02-.18-4.96-.29-.65-.7-1.46-.63-1.96.05-.4.6-.99.98-1.32l1.31-1.12c1.27-1.09,3.72-.93,5.22-.77,3.77.4-.29-.24,3.95.14,1.18.1,2.46.11,3.68.05l1.79-.08c.16,0,.65-.02.75-.08l1.43-.69c4.09-1.97,4.93,1.64,11.39.44l2.23-.41c2.16-.4,3.95-1.02,5.79-2.16l3.86-2.39c.44-.27,1.13-.94,1.15-1.36l.08-1.48c.06-1.11-.56-.49-1.06-1.97l-.85-2.54c-.34-1.01.84-1.89-.08-3.05-.6-.76-.89-1.69-1.27-2.64-2.02-5.1-2.13-2.93-3.47-9.87l-.36-1.84c-1.11-2.85-2.31-1.8-2.55-4.8-.23-2.82-1.68-2.43-1.53-2.94.37-1.3-.32-.85-.49-1.31-.89-2.38-1.42-4.76-2.45-6.34-.72-1.09-.61-2.6-1.14-3.81l-1.07-2.45c-.38-.88-.46-1.46-1-2.19l-.26-1.83c-.39-.93-.77-1.83-.93-2.79-.85-5.09-.9-1.33-1.9-5.7l-.72-3.11c-.47-2.05-1.15-3.31-1.12-4.62.06-2.7-1.57-.32-1.2-3.81.04-.42-.61-1.1-.96-1.64-.86-1.3-.3-1.6-.94-4.16l-.27-1.07c-.02-.07.37-.67.34-.72l-.92-1.86c-.34-.69-.51-1.27-.53-2.23-.01-.5-.58-1.26-.81-1.79-.46-1.07-1.11-2.64-1.47-3.63.38-2.17-.02-2.78-.96-4.61l-1.04-2.04c-.19-.37-.16-1.38-.26-1.91l-.9-4.52c-.03-.14.12-.78.08-.89-1.14-2.88.04-2.51-.71-4.57-1.2-3.3.19-.66-.23-4.56-.33-3.08-.63-.77-1.38-4.56-.14-.73-.22-1.81-.4-2.37l-.97-3.13-1.14-3.58c-.32-1.02-.64-2.23-1.05-3.16-.6-1.37-1.42-2.64-1.73-4.07l-.55-2.62c-.35-1.67-1.44-3.31-2.14-4.9-.28-.63-.56-1.4-.86-1.89l-1.22-1.99c-1.85-3.03-3.39-3.69-4.37-6.68-.32-.58-1.71-.95-2.39-1.22l-1.79-.72c-.34-.14-1.14-.48-1.53-.47h-3.7c-.3,0-1.24-.39-1.52-.34-3.33.61-1.97,1.92-4.12,1.1l-1.84-.71c-.47-.18-1.52.14-2.1.42-1.72.83-1.52-1.05-4.35.43-.32.17-.86.33-1.26.42l-2.54.6c-.29.07-.94-.03-1.36-.08-1.55-.19-3.11.01-4.69.11l-3.74.21c-.75.04-1.54.22-2.38.35-2.05.3-.47-.2-2.03.05-4.56.71-2.67-.87-5.58.18-.23.09-.75.12-1.01.1l-2.84-.16-2.28-.02c-.76,0-1.41-.03-2.12,0l-6.41.2-1.39.1-3.88.16c-2.39.1.71.06-2.98.72-.77.14-1.58.23-2.3.47l-1.77.6-7.14,1.84c-2.35.61-3.6,1.76-5.07,3.41l-1.97,2.21c-.46.52-.77,1.02-.95,1.73-.54,2.02-1.43,3.68-2.26,5.66s.69,3.23-3.14,6.09c-.51.38-1.18,1.7-1.09,2.28.63,3.82-.4,2.07-.42,4.43l-.04,4.81c0,.61-1.04,1.68-1.15,2.23l-.43,2.34c-.4,2.15-.92,4.47-1.9,6.28-.72,1.34-1.32.34-1.06,2.02.29,1.82-.06,3.58-.43,5.44l-.67,3.37c-.11.57.18,1.87,0,2.42l-.7,2.08-.72,2.1c-.5,1.48.27,4.41.16,4.67l-1.46,3.52c-.25.59-.39,1.6-.61,2.3-.8,2.62.45,1.49-.06,3.64-.47,1.97-.79,3.72-1.02,5.6l-.22,1.8c-.16,1.29-.3,2.41-.34,3.85-.06,2.17-1.92,2.65-1.15,3.42l.4.39-.54,3.34c-.29,1.77-1.02,4.45-1.05,5.14l-.12,3.34-.82,4.74c-.56,3.25.88,1.5-.14,5.61-.28,1.13-.46,2.26-.53,3.36l-.16,2.48-.19,2.82-.19,2.38c-.1,1.26,0,2.46-.3,3.71-.25,1.06-.33,1.97-.36,3.14-.02.82-.32,1.69-.48,2.54-.33,1.73-.15,3.78-.3,5.63l-.25,3.14c-.33,4.06-.52.64-.67,4.78s-.5,2.46-.51,6.21c0,1.13.08,2.27-.21,3.37-.96,3.67.32,1.18-.38,6.51-.04.34-.26,1.12-.26,1.41l-.06,7.87c0,.28-.15,1.06-.18,1.33.47,1.73-.29,2.92-.34,5.41l-.03,1.62v3.68s-.1,2.41-.1,2.41l-.24,2.08-.22,5.04-.06,1.57-.09,1.64c-.2,3.75-.14,7.44.02,11.18.04.86.15,1.71.04,2.52l-.28,2.01c-.04.32.28,1.07.33,1.38l.33,1.97c.12.7.02,1.73.05,2.46l.11,2.79.23,3.11.21,3.29c.04.68.82,1.82.98,2.38l.84,2.97c.3,1.08.16,2.29.87,4.3.67,1.9,0,.22.56,3.29.7,3.85.22,3.26.85,6.72l.63,3.42c.24,1.31-.86.9-.6,2.29.09.47.27,1.24.38,1.76.92,4.16-1.25,2.75-.4,8.26l.74,4.82.17,2.67c.09,1.5.57,2.84.17,4.38-.21.81-.05,1.75.28,2.48.69,1.52-.1-.07.19,2.86.09.92.28,1.92.32,2.73l.21,4.76.07,1.77.04,1.6c.04,1.33.32,2.62.67,4.07.49,2.05-.2.14.05,3.33s-.34,5.17.07,6.08c.91,2-.56.28.07,2.61l.41,1.49.5,2c.11.45-.26,1.46-.48,1.92-.51,1.06.76-.04.31,2.69-.22,1.31,1.11.13.38,3.39.08.41.33,1.28.35,1.67l.09,1.57c.17,3.16-.67.5.02,4.65s.68.56.53,3.11c-.07,1.13-.06,2.23,0,3.33l.1,1.82.15,3.44c.04.83.44,1.56.54,2.45l.33,2.8c.11.93.55,1.64.39,2.42-.19.93-.21,1.8-.04,2.63l.71,3.48c.15.71.22,1.76.25,2.59l.06,1.85c.03.93.39,2.27.33,3.14-.07.98-.06,1.63.23,2.38.07,2.5.34.76.6,3.28l.3,2.82c.11,1.05-1.08,1.99-.01,4.61,1.33,3.27-.15.5.93,5.5l.75,3.46.42,2.09.49,2.78c.12.67.11,1.38.28,2.15l.75,3.55.47,3.37c.1.73.11,1.86.3,2.44.22.68.77,1.58.67,2.09-.48,2.64,1.01,1.92,1.38,7.31l.15,2.15.27,2.77c.07.74.04,2.01.22,2.6l.68,2.13c.91,2.87-.84,2.72.25,4.41,1.29,2.01.16.96.93,4.61.27,1.27.37,2.37.45,3.75.25,4.31,1.74,2.83,1.14,4.85-.31,1.04-.02,1.82.4,2.7l.33,2.17c.24.78.34,1.4.45,2.15l.36,2.51.45,2.46c.12.64.17,1.52.4,2.16,1.03,2.83.16,2.88,1.33,6.9l.76,2.6.68,2.54c.15.55.22,1.79.32,2.38.85,1.75,1.25,3.39,1.34,5.29l.09,1.98c.02.45,0,1.32-.02,1.74-.01.34.8.78.91,1.07l.75,2,.75,2.02c.74,2,.71,2.53.86,4.65.03.34.35,1.11.44,1.46.32,1.3.49,2.84.88,4.03,1.68,5.04-.1,1.34,1.17,5.25l.8,2.45c.24.73.56,1.72.5,2.48l-.19,2.7c-.09,1.31.47,2.63-.32,3.73-.35.48-.44,1-.36,1.51l.43,2.79c.08.49.1,1.45.22,1.85l.5,1.59c.42,1.34,1.47.46,1.71,1.97.07.44.01,1.02.23,1.03l.84.03c3.98.13,3.9.78,6.12,1.12,3.97.61,2.14-.15,6.21.66.39.08.97.06,1.43.04l5.79-.17c4.54-.13,2.87-.69,7.55.16.5.09,1.5.09,2.1.12,2.6.11,1.54-.2,5.38-.08l2.54.08c.56.02,1.72-.3,2.32-.48l-.4-2.8-.44-4.09c-.07-.69-.02-1.4,0-2.25.04-1.15-.6-2.77-.72-4.03l-.42-4.46c-.36-3.86-.33-3.69,1.78-6.01.8-.88,2.25,1.31,3.12.81l1.02-.59c.73-.42-.22,1.52,1.5,4.11l1.37,2.06,2.1,3.07,2.2,3.01c1.7,2.33,1.1,3.27,2.37,3.68l1.64.53c1.33.43.33,1.67,1.47,2.94,1.63,1.8,2.01.42,6.36,2.19,3.2,1.3,2.61.43,4.8,2.19,1.28,1.03,3.11,1.52,4.65,2.2.84.37,1.64.72,2.51.95l2.43.64c.26.07,4.67.72,6.71,1.18,1.09.24,2.14.33,3.32.49l6.82.93,2.5.28c.6.07,1.35.16,1.9.26l5.51,1.04c1.21.23,2.5.42,3.69.69l4.75,1.11c.81.19,1.75.43,2.55.44l2.88.06c2.5.05-.15,1.08,4.82.76l4.01-.26,3.48-.29,4.76-.58c-.95.12,5.73.32,4.51.04l3.65.83,2.79-.32,2.42-.33c3.43-.47,4.48-.71,6.92.71,1.5.87,3.68.78,5.35.31l3.01-.85c3.04-.86,2.13-.14,5.34-1.12l3.51-1.07.8-.54c-1.58-4-1.53-.76-2.42-3.43-.65-1.94-1.11-.35-2.8-3.01-.48-.75-1.02-1.51-1.55-2.19l-1.23-1.55c-.28-.35-.62-.71-.96-1.05l-1.1-1.11c-2.02-2.03,1.3-.9-3.6-5.09-.11-.09-.61-.4-.58-.38l1.56-1.14-1.39-.96-1.35.17c-2.43-2.09-.98.11-3.12-1.86-1.45-1.33-.6.56-2.28-1.5-.54-.66-.79.69-4.55-1.58-2.19-1.32-.5-1.13-3.38-2.46-2.05-.95-4.94-2.66-5.88-2.98-1.22-.42-2.54-.67-3.63-1.24-1.97-1.02-3.18-2.49-4.93-3.21l-1.99-.82c-.36-.15-.92-.98-1.07-1.33-1.9-4.43-.76-1.31-2.48-4.71-.45-.89-.9-1.47-1.78-2.11l-.18-1.94c-.06-.61-.49-1.8-.74-2.53-3.49-2.14-1.07-3.88-4.38-8.72-.56-.82-.7-2.29-1.17-3.29l-2.8-5.93c-.29-.61-.14-2.11-.17-2.71-.15-2.59-.16,0-1.28-3.86l-.93-3.19-.3-2.5c-.04-.36-.85-1.02-.81-1.4.02-.21.12-.75.03-.88l-1.08-1.66c.09-1.86-.33-3.68-1.08-5.41-1.36-3.15.02-3.9-1.35-4.85-.87-.6-1.69-2.09-.47-3.03l-.13-.63c-.65-.68-.96-1.24-1.31-1.95l-1.03-2.12c-.23-.47-.45-1.16-.61-1.79-.94-3.73,1.34-3.22.12-5.09l-1.55-2.38-.3-2.14-.81-3.44c.49-.52.65-.64.48-.67-1.32-.24-1.25-1.73-1.36-2.04l-.65-1.82c-.68-1.89.45-.69-.21-2.38l-.4-1.03-1.12-2.64c-.29-.69-1.59-4.99-1.81-6l-.67-3.18c-.13-.61-.44-1.69-.46-2.21l-.14-5.58c-.07-2.88.35.09.81-2.5.02-.14-.34-.28-.52-.37l-.85-.41c-.06-1.09-.11-2.03-.27-2.89l-.46-2.46c-.13-.69.2-1.59.65-2.34l-.64-1.11c-.06-2.29.08-4.75.32-7.06.04-.42-.35-1.19-.51-1.52l-1.07-2.17c-1.13-2.29.18-2.41-.9-5.74l-1.21-3.71c-.28-.87.11-1.99.82-2.5-1.1-1.1-1.6-2.81-1.72-4.6l-.18-2.78c-.2-3.07-.09-2.87-1.17-5.67-.74-1.9-.67-2.57.65-3.37l2.5-1.53c.97,1.71.2,1.03,2.32,2.26l.28,3.09c.27,2.92,1.04,1.37,1.39,6.12.05.66.15,1.35.23,1.98.12.94.13,1.7.68,2.54.79,1.23-.32.45.14,2.54l.76,3.41c.11.48-.36,1.62-.35,2.1l.49,2.99c.32,1.96,1.58,1.07.88,6.07l-.4,2.86c-.24,1.71,1.01,3.46.89,5.44l-.18,2.95.23,1.34c.17.99.16,2.41.23,3.38l.24,3.14c.11,1.48.12,2.81-.03,4.32l1.05.94,1.55,7.31c.11.53.26,1.06.4,1.54l.88,3.04c.91,3.14-1.14,1.91.15,4.48l1.08,2.15c.41.8.12,2.37-.12,3.45l1.52,1.31c2.53,2.17-.2,1.19,1.36,4.14.91,1.71-2,4.2.51,5.62,1.42.8-.11.74.39,4.19l1.63,1.04c-.12,5.17.99,1.87,1.29,8.15.1,2.17,2.45.71,1.11,4.56l1.3,1.03.22,2.42c.62.6,1.1,1.2,1.35,1.84l.9,2.34c.25.66,1.26,1.8,1.43,2.47l.99,3.96c.37,1.47.76,2.78.97,4.24.51,3.58.99,2.49,1.49,3.21.26.38.79,1.32.93,1.78l.98,3.27c.84,2.79-1.24,2.08.37,3.65,1.92,1.86-.56.42,1.71,2.5.35.32.71,1.15.97,1.75,1.58,3.74-.78.56,1.16,3.24l1.99,2.76c.73,1.01,1.32,1.53,1.9,2.71.25.51,1.1,1.27,1.5,1.79l1.52,1.95c3.57,4.58,1.47,1.22,3.38,3.41,2.16,2.48.96.09,3.16,2.79,1.21,1.48,1.37-.46,4.56,2.28,1,.86,2.64,1.55,3.76,2.39.98.73,1.82,1.42,2.86,1.97l1.82.97c1.89,1.01,2.88,2,3.48,2.22,3.55,1.34,1.12,1.05,3.04,1.45.43.09,1.31.32,1.53.59l1.65,2.1,1.39,1.76c.2.26.73.71,1.02.98l1.99,1.84c.39.36.97,1.15,1.39,1.61l1.32,1.46,1.43,1.67c.58.67,1.19,1.29,1.84,1.91l1.6,1.53c.48.46,1.31,1.22,1.78,1.51l1.98.88c1.3.58,2.35,1.76,2.76,3.05.58,1.82.19,3.23-1.12,4.53-.84.83-1.99,1.87-3.07,2.3l-2.47.99c-1.12.45-3.09-.04-4.29.28l-2.47.67c-2.23.6-4.42,1.26-6.75.77-1.98-.42-1.6,1.44-3.51.09-.57-.4-1.26-.54-2.1-.74-.69-.16-1.71-.91-2.45-1.15-1.41-.45-3.14.27-4.56.39l-3.97.33c-.58.05-1.68-.21-2.31-.26l-2.55-.23c-.69-.06-1.4-.27-2.2-.58-.54-.21-1.75.23-2.42.27-1.28.08-2.85-.15-4.08.12-.51.11-1.14.33-1.47.36l-2.82.25c-.43.04-1.25.18-1.61.13-3.44-.45-3.46.7-4.11-.26s-2.14-.75-2.73-.26c-.47.39-1.89-.27-4.6-.43-.91-.05-2.02-.57-2.87-.73l-5.78-1.12c-1.29-.25-2.79-.36-4.21-.35-2.64.02-1.14-1.01-5.42-.89-2.77.07-2.02-1.63-3.32-1.21-1.74.57-1.78-.18-5.48-.79-.81-.13-1.5-.28-2.29-.47-2.04-.49-1.45.43-2.94-.06l-3.43-1.12-2.72.54c-.84.17-5.17-2.25-7.26-2.82l-3.42-.94c-3.21-.88-2.38-1.36-4.63-1.42l-2.1-.06c-2.59-.08-2.55-.74-3.66-2.42-.43-.65-.52-1.18-.25-2.12-1.73-2.01-1.66-1.22-3.75-3.5-.64-.7-1.2-1.89-1.79-2.62.09.11-2.65-2.65-2.84-1.8-.08.36-.27,1.26-.2,1.63l.77,4.13c.1.55.05,1.74.1,2.31,1.05.99,1.31,2.44.37,3.67l-1.38,1.79c-.55.72-2.19.79-3.12.9l-2.81.35c-1.07.13-2.33.18-3.42,0l-3.87-.63-2.81-.38c-.75-.23-1.17-.24-1.95-.22l-8.22.16-2.65.53-2.1.06-3.39.1-3.17.09c-.61.02-1.75-.54-2.39-.79l-1.35.21c-.84-.09-1.64-.14-2.39-.03l-2.9.43c-1.01.15-3.07-.73-3.41-1.78l-.97-3.02c-1.01-3.17-1.24-3.39-1.27-7.26,0-1.09-.11-2.44.18-3.42.16-.54.41-1.28.31-1.7l-.99-3.96c-.26-1.03-.79-2.44-.72-3.38.04-.55.54-1.6.43-2.11l-1.21-5.46-.55-2.13c-.19-.75-.19-1.64-.26-2.47l-.18-2.15c-.22-2.68-1.11-3.54-2.08-7.32l-.56-2.2c-.11-.42.09-1.59-.06-2.04-1.55-4.49-.28-5.11-2.14-11.15l-.57-1.86-1.08-3.77c-.63-2.21,1.01-.62-.58-3.53-.83-1.53.82-1.59-.33-2.92s-.22-.64-1.13-4.75c-.14-.63-.21-1.5-.29-2.22l-.34-3.1c-.08-.76-.2-1.61-.33-2.37l-.41-2.41c-.93-5.44,1.56.08-1.17-6.95-.53-1.38-.74-2.59-.86-4.05-.04-.56-.22-1.54-.15-1.99.33-2.31.52-4.94-1.35-6.75l-.16-2.62c-.14-2.21-.61-1.68-.96-4.06l-.54-3.6c-.2-1.33-.51-2.61-.81-3.96l.62-1.37-.55-1.1c-.95-3.37-.57-4.39-.71-5.35l-.46-3.18-.42-3.02c-.1-.73-.29-1.59-.44-2.31l-1.06-5.15-.61-3.2-.87-3.79.26-1.99c.06-.43-.18-1.28-.13-1.64.55-3.45-.73.14-.27-4.45.08-.83-.39-2.28-.49-3.27l-.21-2.1c-.22-2.22-.81-2.07-.47-2.41l.52-.51-.81-1.29c-.15-.24.14-1.04.11-1.32-.08-.77-.44-2.2-.42-2.91.03-.92.19-1.85.02-2.64s-.75-1.97-.78-2.65l-.16-4.09-.08-2.02-.11-2.71c-.13-.44-.48-1.38-.53-1.83l-.21-2.03-.23-2.38c-.08-.78.08-1.61-.17-2.38-.4-1.25-.11-2.57-.23-3.69l-.54-4.92c-.68-6.23.43-2.55-.11-7.54l-.32-2.94c-.1-.93-.23-1.59.46-2.4l-.88-2.95c-1.1-3.7,1.52-4.15-.42-6.18-.74-.78-.01-2.4-.2-3.24-.37-1.69-.39-2.92-.36-4.61.03-1.39-.49-3.21-.61-4.67l-.21-2.5-.23-2.76-.2-2.7-.34-3.1c-.1-.88-.29-1.87-.33-2.67-.1-2.13-.16-3.5-.86-5.64l.24-1.58c-1.36-2.25-1.25-3.56-1.46-5.89l-.18-2.11-.4-2.32-.25-3.5c-.11-1.52-.02-3.24-.26-4.7-.2-1.21-.48-2.3-.55-3.48l-.2-3.13-.22-4.71c-.01-.32-.18-1.12-.11-1.43.19-.82.19-2.12-.16-3.07-.49-1.34-.23-2.77-.2-4.18.01-.49-.13-4.08-.8-4.09ZM219.38,315.52l2.91.31,3.25-.43c1.2-.16,3.15-.18,3.91-1.08,3.18-3.76,4.72-1.42,5.74-3.56l1.82-3.8c1.44-1.3,1.06-2.16,2.49-4.67.91-1.6.85-3.31-.18-4.64-.69-.89.3-1.42-2.75-2.77-5.24-2.32-4.46-.52-7.04-.55-1.38-.02-3.44.12-4.5.57-.91.71-.46,2.78-1.14,3.11-2.47,1.17-4.14-.69-6.97,2.61-1.34.76-3.09,1.64-3.92,2.82l-1.33,1.86c-1.86,2.62-3.79,4.06-1.46,8.38.75,1.38,2.2.67,4.69,1.09,1.46.24,2.91.58,4.49.74ZM304.8,360.13l3.76-1.83c1.63-.79,2.99-1.74,2.93-3.57-.03-.93.51-1.68.84-2.63.36-1.05.19-3.23.24-4.54.05-1.54-1.53-.66-1.99-2.87l-3.27-1.62-3.16.62c-.24-.13-.98-.66-1.24-.6-3.59.78-3.87,1.11-5.97,4.64l-1.57,2.64c-.25.43-.96,1.32-1.33,1.64l-1.73,1.5c.53,1.09.85,3.21,2.65,3.1,1.2-.07,2.7-.21,3.72.99,3.42,1.28,2.54,4.29,6.11,2.55Z"/>
        <path d="M121.4,104.8c-1.21.46-1.46.62-2.01,1.28-.62.53-1.8.21-2.34-.45l-1.1-1.34c.97-2.96-.38-3.69-.22-5.12.06-.53.29-1.74.04-2.22-.8-1.51-.56-3.15.34-4.54.33-.51,1.58-1.48,2.1-1.09l2.24,1.68-.23,3.09c-.05.6.61,1.61,1.11,2.12l.25,3.93c.06.91.21,2.05-.18,2.64Z"/>
      </g>
      <path d="M182.38,199.11c-.21.19-1.02.11-1.23-.16l-1.99-2.53c-.37-.47-.73-1.48-.95-2.06-1.01-.63-2-1.44-2.73-2.4l-1.34-1.77c-1.48-1.95-2.01-1.03-1.65-1.68.47-.85,3.19-2.5,4.43-3.09l.57,1.84c.16.5.73,1.56,1.12,1.94l2.57,2.54c.46.46,1.18,1.08,1.47,1.53l1.15,1.76c.47.72.66,2.2.05,2.75l-1.47,1.32Z"/>
      <path d="M277.07,261.87c-.3.4-.71,1.47-.94,1.92l-2.46,1.33c-.13-.03-.67-.29-.62-.48.06-.25.26-.86.38-1.1l1.32-2.53c.4-.77,1.27-1.53,1.83-2.23.92-1.14,1.67-2.47,2.73-3.43.94-.86,1.61-1.84,2.37-2.85,2.01-2.69,2.37-4.28,3.66-5.48l1.65-1.53c.74-.69,2.52-1.39,3.56-.03.04.42-.65,1.14-1.05,1.5-1.86,1.7-2.62,2.44-4.11,4.48l-1.29,1.75c-.15.21-.84.65-.97.86-.37.6-.93,2.04-1.43,2.54l-1.58,1.59c-.5.5-1.08,1.05-1.47,1.57l-1.59,2.12Z"/>
      <path d="M279.05,169.71l-1.89,1.38c-.14.1-.75-.25-1.12-.41.78-3.41,2.03-4.36,2.75-7.78.34-1.61.69-2.92,1.89-4.04.35-.33,1.11-.79,1.51-.79.47,0,1.16.55,1.66,1.03l-1.27,1.8c-.33.47-.45,1.62-.63,2.38-.36,1.58-1.64,5.5-2.91,6.43Z"/>
      <path d="M271.11,214.92l-2.12.64c-.03-.72.13-1.63.38-2.39l1.13-3.45.68-2.08.72-2.23c.26-.8.53-1.42.95-2.16.34-.04.63-.11.65,0l.19,1.04c.07.42.5.97,1.04,1.48l-.41,2.73-.95,1.7-1.01,1.81c-.46.82-.84,1.88-1.25,2.91Z"/>
      <path d="M225.7,186.55c.85-3.73-.19-2.82-.07-4.94l.15-2.71c1.13-.26,1.63-.59,2.64-1.55l.97,1.95c.6,1.2.41,2.49.3,3.86-.04.48.21,1.59-.08,1.96-.69.86-3.08,1.87-3.9,1.44Z"/>
      <path d="M311.86,212.02c-.32-2.11.74-2.21,2.04-3.4l1.63-1.89c1.69-1.97,2.02-4.36,4.23-3.46.62.25.15,1.45-.2,1.98l-1.27,1.9c-.19,1.71-3.9,4.83-4.4,4.84l-2.01.04Z"/>
      <path d="M227.91,158c-1.2,1.11-2.44-1.26-3.4-1.62l-.72-.27c-.16-.06.14-.55.31-.54l1,.04c.97.03.53-1.91,1.82-2.14l2.99-.53-.56,1.65.45.78c.15.27-.2,1.08-.45,1.31l-1.45,1.34Z"/>
      <path d="M322.81,183.55c-.37.06-.39-1.24-.06-1.34.59-.18,1.37-.59,1.45-.98.1-.45-.34-1.35-.6-1.7,2.5-.23.81-1.14,2.93-1.51l1.46-.25-.05,3.35-2.56,1.83c-.4.29-1.68.45-2.56.6Z"/>
    </g>
  </g>
</svg>