<?xml version="1.0" encoding="iso-8859-1"?>
<!-- Generator: Adobe Illustrator 30.2.1, SVG Export Plug-In . SVG Version: 9.03 Build 0)  -->
<svg version="1.1" id="Layer_1" xmlns="http://www.w3.org/2000/svg" xmlns:xlink="http://www.w3.org/1999/xlink" x="0px" y="0px"
	 viewBox="0 0 289.714 426.571" style="enable-background:new 0 0 289.714 426.571;" xml:space="preserve">
<g id="XAmwhm.tif">
	<g>
		<g>
			<path d="M125.599,336.045c-0.839-0.765,0.286-2.82,0.172-4.435l-0.104-1.471l-0.176-2.529c-0.084-1.205,0.57-2.78,0.597-4.066
				c0.072-3.436,0.356-0.861,0.264-4.605c-0.056-2.285,0.036-3.937,0.415-6.353c0.917,1.39,0.366,2.822,0.326,4.363l-0.183,7.09
				c-0.039,1.528-0.206,2.796,0.021,4.368c0.129,0.895,0.287,2.805-0.314,3.521l-0.307,1.67
				C126.158,334.431,125.941,335.057,125.599,336.045z"/>
			<path d="M131.263,326.986c-0.021,0.201-0.222,0.543-0.394,0.579c-0.172,0.035-0.399-0.405-0.391-0.595l0.133-3.145l0.102-1.757
				l0.213-2.294l0.329-2.929c0.089-0.793-0.438-1.498-1.195-2.343c0.136-0.28,0.763-0.838,1.147-0.985
				c1.336-0.51,1.857,2.252,1.772,2.812c-0.436,2.891-0.514,1.909-0.886,4.275l-0.312,1.981c-0.106,0.67-0.195,1.349-0.267,2.037
				L131.263,326.986z"/>
			<path d="M126.014,346.445c0.012,0.182-0.18,0.652-0.296,0.777c-0.117,0.126-0.677-0.121-0.714-0.29
				c-0.089-0.415-0.397-1.407-0.365-1.804l0.216-2.686c0.015-0.182,0-0.533,0.003-0.677c0.005-0.191,0.661-0.373,0.733-0.196
				c0.072,0.177,0.143,0.481,0.159,0.727l0.13,2.057L126.014,346.445z"/>
			<path d="M112.25,318.592c-0.139,0.675-0.431,0.949-0.739,0.184l0.039-1.26l0.152-4.81l0.093-1.766
				c0.052-0.977,0.055-1.929-0.075-2.915c-0.03-0.231-0.189-0.812-0.014-0.858l1.189-0.314c0.143,0.594,0.447,1.515,0.368,2.003
				l-0.284,1.761l-0.324,3.154l-0.195,2.302L112.25,318.592z"/>
			<path d="M95.172,317.529c-0.113-0.439-0.405-1.476-0.354-1.997l0.281-2.879l0.188-1.904c0.282-2.861-0.187,0.249-0.065-2.855
				c1.075-2.583-0.248-1.542,0.402-3.428c0.055-0.16,0.672-0.069,0.897-0.011l-0.289,4.169l-0.241,2.606l-0.309,2.475
				L95.172,317.529z"/>
		</g>
		<g>
			<g>
				<path d="M209.793,0l0.597,1.952l-2.48,1.629c-0.454,0.298-1.336,1.019-1.575,1.478l-0.527,1.012
					c-0.254,0.488-1.233,1.276-1.538,1.746l-2.375,3.664l-1.109,1.768l-3.294,5.305l-1.516,2.206
					c-1.358,1.976-2.204,0.824-3.916,0.994l-1.687,0.168l-2.302,0.263c-0.888,0.101-1.804,0.249-2.641,0.495l-1.969,0.579
					c-2.668,0.784-4.156,1.701-6.245,3.53l-2.16,1.892l-1.713,1.592c-0.125,0.116-0.739,0.379-0.761,0.391
					c0.001,0.406-0.161,1.011-0.431,1.272l-1.366,1.316c-0.432,0.263-1.743,0.261-2.246,0.036l-1.323-0.591l-3.384,0.139l-2.57,0.19
					l-3.686,0.148c-0.283,0.011-0.867,0.142-1.167,0.183l-2.036,0.275c-2.843,0.384-3.62-0.368-5.241-0.121l-2.457,0.375
					l-8.246,0.155c-1.289,0.024-1.151,0.529-4.627,0.028l-1.657-0.239l-1.379,0.08c-1.268,0.074-2.517-0.212-3.747-0.074
					l-1.681,0.189l-2.595,0.32c-0.73,0.09-4.825,0.386-5.055,0.37l-2.683-0.188c-0.979-0.068-2.146-0.256-3.093-0.197l-4.875,0.302
					l-2.001,0.118c-0.847,0.05-1.769,0.071-2.602-0.085l-1.566-0.292c-0.796-0.148-5.341-0.897-5.78-0.912l-4.458-0.149
					c-0.946-0.032-2.302-0.3-3.5-0.316l-2.116-0.029l-1.601-0.021l-1.855-0.038c-1.659-0.034-2.187,0.81-4.667,0.395
					c-0.386-0.065-1.41-0.338-1.796-0.109l-3.697,2.195c-1.594,0.947-3.147,2.068-4.544,3.208l-1.443,1.178l-1.209,1.046
					l-2.279,2.028c-0.269,0.239-0.864,0.833-1.091,1.175l-1.008,1.522c-1.263,1.908-1.211,1.569-2.589,2.593l-1.265,0.941
					l-2.476,0.091l-1.258,1.38c-2.209,2.424-1.043,1.865-3.094,3.454c-1.54,1.194-2.781,2.542-3.882,4.126l-1.075,1.546
					c-0.536,0.771-0.972,1.848-1.128,2.81l-0.357,2.199c-0.766,0.78-0.819,1.416-0.555,2.473c-0.095,0.775-0.303,1.911-0.365,2.723
					l-0.126,1.658l-0.075,3.688l0.454,4.648l-0.018,1.843l-0.06,3.104l0.117,2.475l-0.037,2.159l0.054,1.644L41.923,94.2
					l-0.777,0.006l-0.132-3.37c-0.086-2.189,0.144-1.427,0.042-4.314l-0.061-1.721l-0.13-1.394c0.234-1.176,0.305-2.332,0.022-3.462
					l-0.461-1.843c-0.242-0.968-0.484-2.099-0.576-3.129c-0.187-2.095,0.612-3.907,0.22-5.309l0.326-0.679
					c-1.15-2.025,0.281-5.798,1.082-7.913c0.121-0.32,0.281-0.731,0.464-1.063c1.962-3.566,1.809-1.426,2.09-3.461
					c0.319-1.036,4.745-4.631,4.833-4.734l1.084-1.284c1.085-1.286,2.296-2.552,3.78-3.342l1.395-0.229
					c1.673-2.758,0.553,0.451,3.656-3.313c0.486-0.589,1.113-1.191,1.686-1.705l1.666-1.495c1.141-1.024,2.424-1.971,3.685-2.857
					l1.683-1.184l1.847-1.299l1.749-1.12c0.548-0.351,1.1-0.877,1.678-1.175c2.357-1.215,2.461-1.098,4.591-1.354l2.309-0.277
					c3.678-0.442,3.083,0.654,6.214,0.039c0.486,0.071,1.457,0.519,1.929,0.543l1.853,0.096l1.282-0.075
					c3.25,0.669,1.027-0.434,4.717,0.07c0.42,0.057,0.952,0.085,1.401,0.175l6.761,1.357c0.379,0.076,1.344-0.231,1.772-0.228
					l3.351,0.024l1.588,0.009c0.653,0.004,1.443,0.01,2.214-0.116l1.117-0.183l2.323,0.307c0.503,0.066,4.513-0.101,5.076-0.167
					l3.075-0.361l1.852-0.175c0.326-0.031,1.13,0.323,1.268,0.399c1.603-0.492,3.024-0.797,4.705-0.35
					c0.645,0.172,1.323,0.12,1.979,0.137l2.37,0.061l1.593-0.051c1.336-0.043,2.445,0.035,3.764-0.035l3.133-0.165
					c0.374-0.02,1.079,0.012,1.38-0.029l2.777-0.382l2.022-0.278c2.497-0.343,0.676,0.5,3.324,0.024l1.83-0.33
					c0.473-0.085,1.252,0.01,1.827,0.085l1.055-0.049c1.025,0.425,3.542-0.387,4.009-0.388l5.658-0.012
					c0.251-0.001,0.817,0.336,0.937,0.173c1.549-2.091,1.288-1.607,3.303-3.456c0.549-0.503,1.091-0.947,1.727-1.44
					c0.822-0.638,1.649-1.722,2.506-2.254l2.34-1.452c1.41-0.875,3.901-1.596,5.655-2.003c2.745-0.636,3.663-0.297,4.646-0.525
					l2.669-0.618c-0.099,0.023,1.091,0.428,2.444-1.39c0.406-0.546,0.777-1.172,1.152-1.739l0.667-1.009l1.269-1.863l1.895-2.678
					c1.839-2.599,2.535-3.749,4.51-6.332l1.495-1.957l0.995-1.299c0.086-0.112-0.199-0.721-0.065-0.753l0.397-0.095
					c0.136-0.033,0.647,0.137,0.639-0.004c-0.006-0.096,0.003-0.38,0.005-0.44H209.793z"/>
				<path d="M70.723,139.127c-0.854,1.693-2.452,1.057-3.341,0.563l-2.062-1.145c1.658,0.921-8.513-4.13-6.65-3.309l-1.43-0.631
					l-1.577-0.99l-1.568-0.993l-2.411-1.661c-0.403-0.278-1.029-0.878-1.478-0.987c-3.139-0.756-3.465,0.094-4.138-2.287
					c-0.18-0.638-0.997-1.544-1.386-2.169l-1.022-1.643c-0.285-0.459-0.47-1.602-0.53-2.201l-0.212-2.098l-0.338-2.891
					c-0.068-0.578-0.695-6.597-0.488-5.536l-0.508-2.601c-0.124-0.634-0.162-1.35-0.208-2.041l-0.173-2.591l-0.182-3.699
					l-0.058-2.057c-0.011-0.385,0.175-0.969,0.333-1.39l-0.502-0.733c-0.277-0.405,0.747-1.268,0.76-1.251
					c0.084,0.113,0.361,0.475,0.384,0.619c0.52,3.313-0.059,0.452,0.198,3.414l0.194,2.244l0.201,2.342
					c0.049,0.575,0.235,1.159,0.422,1.828c0.141,0.501,0.119,1.485,0.216,2.084l0.604,3.733c0.056,0.347,0.038,0.998,0.058,1.385
					c0.163,3.141-0.448,2.112,0.069,3.219c0.782,1.674,0.086,1.326,0.954,4.786c0.272,1.083,0.562,2.265,1.079,3.24
					c0.167,0.314,1.621,1.698,1.833,2.692c0.25,1.172,1.007,1.833,2.25,2.087c1.776,0.363,3.009,2.104,4.445,2.916l6.581,3.721
					l1.489,0.846c0.874,0.03,1.929,0.608,2.518,1.266c1.826-0.355,1.151,0.912,3.509,1.436L70.723,139.127z"/>
			</g>
			<g>
				<g>
					<path d="M289.714,218.996v0.571l-0.34,0.53c-0.615,0.959-0.906,0.675-1.095,1.973l-0.089,0.613
						c-0.148,1.014-0.121,1.919-0.098,2.882l0.05,2.002l0.028,1.778c0.005,0.342,0.02,1.123-0.031,1.464l-0.671,4.476l-0.112,2.193
						l-0.285,2.038l-0.618,3.676c-0.05,0.3-0.065,0.81-0.075,1.142l-0.039,1.268c-0.069,2.25-0.102,4.465,0.286,6.737l0.303,1.779
						c0.04,0.234-0.306,0.858-0.45,1.038l-0.626,0.786c-0.839,0.395-1.57,0.852-2.228,1.473l-1.348,1.271
						c-0.351,0.331-0.814,0.719-1.213,1.046l-1.876,1.537l-1.429,1.172c-0.369,0.303-0.889,0.683-1.29,0.942l-2.113,1.362
						l-2.018,1.426c-0.53,0.375-1.205,1.016-1.73,1.32l-2.382,1.38l-2.413,1.337c-3.171,1.757-3.671,1.205-6.495,3.74
						c-1.472,1.321-0.296,0.3-1.564,1.577l-1.721,1.733l-1.394,1.449l-1.258,1.305l-1.666,1.763l-1.24,1.319l-1.505,1.641
						l-1.124,1.21c-0.327,0.352-0.911,0.855-1.315,1.176l-2.247,1.787l-1.453,1.16c-0.379,0.302-0.899,0.853-1.251,1.275
						l-2.311,2.773c-0.203,0.244-1.019,0.444-0.991,0.709l0.079,0.744c0.005,0.048-0.237,0.211-0.345,0.282
						c-0.468-0.429-1.225-1.185-1.709-1.322l-1.438-0.407l-0.823-0.227l-2.349-0.595c-0.849-0.215-2.284-0.82-3.995-1.308
						c-3.262-0.931-1.323-1.366-2.683-2.816l-0.181,3.182c-0.155,2.738-1.219,2.631-0.398,3.423l-0.057,1.429l-0.175,4.365
						c-0.031,0.784,0.269,1.875,0.42,2.883c-0.476,0.602-1.47,1.434-2.148,2.014c-0.67,0.573-1.287,1.261-1.944,1.767
						c-2.532,1.953-3.543,2.173-5.588,3.855l-0.63,0.273c-0.233,0.101-0.619,0.331-0.875,0.499l-2.932,1.914
						c-0.458,0.299-0.95,0.585-1.385,0.892l-3.201,2.266c-2.528,1.79-1.936,0.874-3.435,2.518l-2.322,2.547
						c-1.827,2.004-1.572,0.396-5.534,3.016c-0.592,0.392-1.4,0.753-2.067,1.064l-1.756,0.82l-1.379,0.644
						c-1.802,0.842,0.282,3.804-1.592,4.929c-1.231,0.739-0.798-1.036-3.928-2.854l-1.703-0.989
						c-0.685-0.398-1.999-0.539-2.81-0.843l-2.099-0.784l-2.467-0.952l-1.228-0.474l-2.689-1.011l-1.233-0.463l-3.707-1.415
						l-1.969-0.625c-0.487-0.155-0.915-0.403-1.399-0.625c-2.301-1.053-2.429-0.651-5.262-1.559l-2.799-0.897l-0.794-0.387
						l-1.486-0.475l-4.131-1.331c-0.261-0.084-0.855-0.473-1.176-0.528c-0.814-0.141-1.796-0.477-2.621-0.752l-3.277-1.091
						l-2.517-0.902c-0.566-0.203-1.156-0.383-1.753-0.546l-1.266-0.347l-3.166-0.881c-0.54-0.15-1.234-0.545-1.755-0.75
						l-1.943-0.763c-0.527-0.207-1.559-0.261-2.158-0.42c-0.518-0.137-2.437-1.177-2.621-0.37l-0.56,2.459l-0.709,2.776
						c-0.152,0.595-0.133,1.635-0.253,2.307l-0.391,2.187l-0.148,2.71l-0.303,1.986l-0.277,2.044l-0.227,2.332
						c-0.051,0.521-0.178,1.099-0.329,1.587l-0.579,1.872c-0.093,0.3-0.199,0.86-0.255,1.177l-0.22,1.245
						c-0.009,0.053-0.309,0.43-0.31,0.483c-0.011,0.859,0.04,2.6-0.059,3.559l-0.403,3.899l-0.378,2.713
						c-0.072,0.514-0.224,1.253-0.241,1.676l-0.15,3.713c-0.111,2.739-0.734,1.822-0.422,3.347c0.622,3.038-0.107,0.731,0.055,3.997
						l0.09,1.804c0.057,1.143,0.071,2.309-0.142,3.444l-0.428,2.279c-0.231,1.23-0.122,2.495-0.147,3.717l-0.052,2.576
						c-0.02,0.976-0.103,1.912-0.194,2.866c-0.389,4.098-0.772,2.235-0.74,4.31l0.112,7.115c0.019,1.209,0.835,2.295,0.32,3.181
						c-0.027,0.046-0.266,0.326-0.274,0.372l-0.299,1.716c-0.046,0.264,0.601,2.648,1.884,2.746
						c0.209,0.139,0.286,0.191,0.266,0.177l-0.504,0.342l-0.375,0.259c-1.813,1.253-1.254,2.51-1.368,3.774l-0.143,1.587
						l-0.106,1.284c-0.023,0.282,0.668,0.5,0.965,0.643l3.302,1.59l0.389,0.188c0.293,0.146,0.686,0.438,0.741,0.26
						c0.061-0.2,0.308-0.874,0.286-1.054l-0.261-2.189l-0.181-1.693c-0.146-1.363,0.829-3.463,0.754-5.158l-0.093-2.121
						l-0.079-1.837c-0.004-0.088-0.028-0.353-0.015-0.408l0.242-1.005l0.553-2.357c0.317-1.351,0.352-2.845,0.501-4.3l0.236-2.318
						c0.057-0.563,0.215-1.235,0.243-1.745l0.211-3.884l0.117-1.487c0.249-3.165,0.408-2.247,0.397-4.865l-0.024-5.892l0.12-0.868
						l0.081-1.249c0.151-2.31,0.176-3.378-0.452-5.505c-0.093-0.316-0.218-0.81-0.141-1.037c0.806-2.379,1.443-0.363,4.765-2.504
						c0.8-0.515,1.897-0.745,2.922-1.055c2.632-0.797,1.472-0.977,5.01-2.056c1.959-0.597,0.668-0.345,3.472-1.48
						c1.991-0.806,0.186,0.191,2.594-0.74l2.118-0.818c3.146-1.215,2.362-0.638,5.084-1.408l3.394-0.96l1.543-0.441
						c3.16-0.903-0.787-0.613,4.844-1.78c0.585-0.121,1.447-0.994,1.981-1.305l1.866-1.086c1.465-0.853,2.86-1.492,4.468-2.124
						c3.339-1.312,4.467-1.228,6.928,1.078l1.34,1.256c0.25,0.234,0.82,0.672,1.1,0.885c0.727,0.552-0.136,0.738,0.779,1.188
						c0.275,0.135,0.874,0.462,1.088,0.649l1.105,0.972c1.254,1.103,0.32-0.036,2.661,1.585c0.506,0.351,1.259,0.718,1.913,0.939
						l6.162,2.08c1.314,0.444,0.204-0.333,3.074,0.901c1.244,0.535,0.355-0.07,2.447,0.42c0.305,0.071,0.681,0.186,0.896,0.209
						l1.919,0.201c4.671,0.489,2.237,0.857,5.028,1.166l1.246,0.138c1.285,0.142,2.499,0.443,3.74,0.842l1.914,0.205l2.617,0.691
						c0.719,0.19,1.287,0.23,1.689,0.777c0.232,0.316,0.308,1.236,0.025,1.533c-0.914,0.958-1.056,1.942-1.271,3.182
						c-0.306,1.763-1.111,3.587-1.285,5.39l-0.252,2.62c-0.367,3.814-0.418,1.25-0.623,3.341l-0.231,2.362l-0.127,1.41
						c-0.107,1.185,0.501,1.663,1.269,2.214l3.84,2.754c0.25,0.179,0.795,0.734,0.922,1.008l0.343,0.739
						c0.205,0.442,1.277-0.274,2.726-0.808c0.25-0.092,0.93-0.021,1.132-0.196l0.344-0.297l1.915-1.532l0.304-0.252l1.575-1.331
						c0.33-0.279,1.068-0.695,1.499-0.991l1.205-0.828l2.553-1.761c0.278-0.192,0.928-0.467,1.279-0.684
						c2.17-1.343,0.334-0.412,2.568-1.799c2.498-1.551,2.763-2.949,4.702-3.466c2.227-0.594-0.348,0.238,2.248-1.207
						c0.427-0.238,0.951-0.517,1.305-0.645l1.316-0.474c3.006-1.082-0.81-0.23,2.604-1.396l2.95-1.007
						c0.343-0.117,0.796-0.252,1.047-0.363l1.613-0.712c0.56-0.247,1.011-0.605,1.569-0.992l1.171-0.812l1.65-1.232
						c0.415-0.31,0.906-0.633,1.357-0.921l1.916-1.223l2.868-1.978c2.351-1.621,5.032-2.744,5.956-3.431l3.16-2.345
						c0.626-0.464,1.29-0.724,2.131-1.083c0.75-0.321,1.565-1.638,2.302-2.079l2.75-1.644c1.454-0.869,1.303-1.406,2.31-1.773
						l0.415-0.151c0.081-0.03-0.453-0.12-0.539-0.105l-0.481,0.081l-0.388,0.06c0.376-0.059-1.663-0.007-2.047-0.107l-0.462-0.12
						c-0.143-0.037-0.346-0.094-0.408-0.105l-0.527-0.093l-0.519-0.091c-0.113-0.02-0.464-0.113-0.536-0.117l-5.459-0.331
						c-0.165-0.01-0.556-0.012-0.647-0.03L268.423,338l-2.185-0.448c-1.007-0.206-1.958-0.452-2.975-0.722
						c-3.808-1.009-1.138,0.257-5.286-0.92l-1.642-0.466c-0.765-0.217-1.741-0.407-2.555-0.49l-2.344-0.238
						c-2.681-0.273-2.412-0.744-5.43-1.8c-0.687-0.24-1.618-0.65-2.247-0.745l-2.347-0.358c-1.568-0.239-3.043-1.462-5.03-1.675
						l-2.408-0.258c-1.45-0.155-2.806-0.668-4.114-1.285l-2.552-1.203c-0.938-0.442-2.282-0.589-3.36-0.931
						c-1.145-0.362-2.146-1.062-3.252-1.587c-1.959-0.929-3.951-0.906-5.397-1.703c-0.583-0.322-1.154-0.673-1.693-0.88
						l-1.662-0.638l-4.244-1.515l-0.502-0.18c-0.106-0.038,0.142-0.445,0.198-0.546l0.217-0.393
						c0.021-0.038,0.367-0.101,0.454-0.102l1.495-0.023c2.065-0.032,2.309,0.747,2.982,1.017l1.99,0.799l2.049,0.834l1.713,0.616
						l1.863,0.717l2.17,0.758l2.323,1.147l2.475,0.76c1.693,0.52,3.277,1.226,4.892,1.985c3.45,1.623,4.491,0.229,6.496,1.141
						l2.609,1.187c1.107,0.504,2.765,0.171,5.915,1.75l1.731,0.868c0.459,0.23,1.484,0.463,2.028,0.531l2.083,0.262l2.578,0.313
						c1.431,0.174,2.908,0.639,4.317,1.03c2.664,0.74,1.187-0.187,2.829,0.2l3.48,0.82l2.629,0.577
						c0.496,0.109,1.398,0.37,1.864,0.38l3.756,0.08c0.511,0.011,1.137,0.043,1.608,0.089l2.63,0.258
						c1.001,0.098,1.951,0.176,2.896,0.024l1.363-0.219c0.312-0.05,0.851-0.026,1.232,0.003l1.883,0.142
						c0.135,0.01,1.328,0.595,1.223,0.937l-0.167,0.543c-0.43,1.393-5.912,3.544-6.99,4.407l-1.63,1.307
						c-2.371,1.9-0.48-0.009-2.833,2.282c-0.709,0.691-1.06-0.006-2.165,0.961c-0.294,0.257-0.668,0.592-0.936,0.774l-1.728,1.177
						c-1.246,0.849-2.304,1.354-3.699,1.998c-3.388,1.564-0.268-0.137-3.664,2.292l-2.34,1.673l-1.579,1.008l-1.546,1.017
						l-2.31,1.41l-1.405,0.892c-2.518,1.599-1.363,0.726-4.383,2.186c-0.499,0.241-1.1,0.433-1.684,0.63l-1.681,0.567
						c-1.02,0.344-2.068,0.762-3.04,1.204l-2.011,0.915l-1.526,0.694c-0.153,0.07-0.507,0.376-0.648,0.487l-0.962,0.761
						l-1.123,0.883l-2.259,1.761l-1.522,1.044l-1.75,1.322c-0.324,0.245-1.122,0.459-1.526,0.537
						c-0.173,0.033-0.258,0.78-0.401,0.88l-2.74,1.925c-2.126,1.494-1.148,2.126-4.286,3.673l-2.917,1.438l-1.535,0.799
						c-0.264,0.137-1.064,0.114-1.309-0.077l-0.687-0.537c-0.215-0.168-0.659-0.649-0.734-0.896l-0.415-1.373
						c-0.074-0.246-0.6-0.655-0.824-0.831l-1.634-1.28c-0.323-0.253-1.236-0.916-1.506-0.539c-0.723,1.008-0.161,2.495-1.449,2.933
						c-0.225,0.076-0.826-0.124-1.014-0.269c-0.409-0.316-0.043-1.282,0.14-1.732l0.783-1.93c-0.244-0.311-0.914-1.02-1.279-1.198
						l-1.936-0.944c-2.017-0.983-1.092-0.21-3.017-1.212c-0.045-0.023-0.341-0.385-0.394-0.407l-3.918-1.582l-1.718-0.666
						c-1.662-0.644-3.404-1.553-5.174-1.825l-2.497-0.384l-0.593-0.09c-0.284-0.043-0.731-0.157-0.948-0.277
						c-0.173-0.096-0.267-0.683-0.107-0.794l0.416-0.286l0.365-0.259c1.789-1.273,1.427,0.053,2.204-1.048
						c0.262-0.371,0.609-0.806,0.849-0.969l2.053-1.392c2.349-1.593,1.862-0.627,5.26-1.877l2.748-1.011
						c2.96-1.088,3.206-1.625,6.18-2.902l1.853-0.795l1.436-0.737c0.376-0.193,0.841-0.296,0.809-0.523
						c-0.053-0.371-0.089-0.633-0.086-0.612l-1.904-0.744c-1.402-0.548-2.764-0.789-4.186-0.991l-1.762-0.25
						c-0.251-0.036-0.652-0.097-0.872-0.156l-1.684-0.447c-2.652-0.703-0.814-0.12-3.817-0.672l-1.698-0.312l-2.28-0.386
						c-0.742-0.126-1.734-0.358-2.456-0.583l-3.69-1.149c-0.632-0.197-1.292-0.416-1.901-0.65l-2.68-1.031
						c-0.505-0.194-1.139-0.46-1.543-0.738l-2.928-2.008l-1.777-1.536c-0.979-0.846-2.102-1.316-2.986-2.197l-1.025-1.021
						c-0.552-0.549-1.457-1.333-2.184-0.984l-1.388,0.666c-2.107,1.011-1.627,0.183-3.896,0.926
						c-1.733,0.567-3.012,1.903-4.36,3.005c-1.415,1.157-3.455,0.833-5.04,1.356c-0.911,0.301-1.91,0.86-2.841,1.064l-1.787,0.391
						l-3.4,0.76c-0.612,0.137-1.366,0.353-1.962,0.569l-1.683,0.609l-1.451,0.553l-1.261,0.452l-1.009,0.371l-2.283,0.924
						l-2.203,0.913c-2.273,0.942-1.078,0.69-3.149,1.966c-1.538,0.947-2.884,1.511-4.692,2.336c1.648,1.62,2.426,1.18,4.592,3.014
						l2.039,1.727c0.672,0.569,1.669,1.047,2.508,1.431l2.941,1.347l2.516,0.944c0.458,0.172,0.996,0.538,1.432,0.781l1.704,0.95
						c0.583,0.325,1.351,0.64,2.011,0.818l2.907,0.784c1.043,0.281,2.145,0.513,3.166,0.864c0.343,0.118,1.001,0.539,1.35,0.612
						c0.947,0.197,1.996,0.356,2.852,0.627l2.6,0.824l1.526,0.451c3.929,1.161,0.544,0.644,5.161,1.389
						c1.509,0.244-0.366,0.278,2.144,1.27l2.054,0.812c1.163,0.46,2.374,0.888,3.629,1.212l2.247,0.58
						c0.196,0.051,0.63,0.543,0.761,0.748c0.712,1.115,0.771,0.105,2.607,0.744l1.575,0.548c0.372,0.129,0.898,0.378,1.304,0.55
						l2.04,0.863l1.408,0.627c0.395,0.176,1.303,0.361,1.7,0.568l1.923,0.999c1.202,0.625,1.287,0.128,3.397,1.369l2.184,1.285
						c1.196,0.703,2.478,1.4,3.701,1.974c0.249,0.196,0.813,0.708,1.1,0.957c0.168,0.146,0.155,0.754-0.017,0.919l-0.476,0.456
						c-0.07,0.068-0.234,0.234-0.289,0.256l-0.45,0.174l-0.51,0.194c-2.55,0.97,0.101-1.295-3.171,1.486
						c-0.379,0.322-0.934,0.741-1.29,0.945l-1.859,1.066l-1.618,0.978c-1.585,0.959-0.255,0.542-3.236,2.451
						c-0.874,0.56-1.758,1.125-2.645,1.595c-2.784,1.475-2.689,1.825-4.421,2.701l-1.396,0.706c-2.156,1.09-2.4,2.671-4.296,2.645
						c-0.891,0.06,4.986-4.196,4.1-3.658l1.642-0.998c1.8-1.094,0.481-0.354,2.369-1.639l1.177-0.801l1.52-1.085
						c0.613-0.438,1.093-0.907,1.63-1.537l1.618-0.966c2.729-1.629,0.775-1.338,3.123-2.513c0.734-0.367,1.293-0.727,1.958-1.246
						c2.294-1.786,2.142-0.897,2.211-2.045c0.003-0.051-0.279-0.286-0.328-0.325l-0.813-0.656c-0.597-0.482-1.342-0.983-1.993-1.339
						l-2.976-1.627c-0.773-0.422-1.655-0.86-2.47-1.251l-3.485-1.671c-0.88-0.422-1.827-0.865-2.766-1.199l-2.745-0.976
						l-1.804-0.767l-2.606-1.131c-0.524-0.227-1.293-0.426-1.884-0.652l-1.875-0.719l-1.88-0.749
						c-2.919-1.164-2.386-0.583-5.462-1.88c-0.515-0.217-1.127-0.477-1.624-0.628l-4.812-1.466l-1.815-0.508l-1.422-0.39
						c-0.389-0.107-1.159-0.524-1.551-0.572c-1.538-0.188-2.932-0.385-4.252-0.955c-3.743-1.616-2.398-0.126-4.943-2.225
						c-0.356-0.293-0.826-0.495-1.293-0.681l-6.12-2.442c-0.39-0.156-0.824-0.355-1.131-0.569c-1.142-0.796-2.199-1.418-3.394-2.08
						l-1.446-0.8l-3.486-2.062l-0.118,0.379l-0.477,2.711c-0.181,1.031-0.105,2.136-0.113,3.168
						c-0.004,0.566-0.441,1.658-0.416,2.23c0.047,1.038,0.087,2.497,0.012,3.365c-0.016,0.191-0.32,0.842-0.312,0.907l0.033,2.671
						c0.056,4.556-0.888,2.809-0.326,6.604l-0.249,2.192l-0.15,1.306l-0.448,3.876l-0.268,2.284l-0.282,2.009
						c-0.161,1.15-0.065,2.234,0.01,3.489c0.058,0.981-0.391,2.311-0.46,3.337l-0.2,2.973c-0.035,0.514-0.036,1.147,0.045,1.663
						l0.284,1.819c0.02,0.13,0.06,0.543,0.041,0.653l-0.189,1.09c-0.018,0.105,0.505,0.393,0.557,0.488
						c0.085,0.155,0.122,0.577,0.085,0.754l-0.145,0.687c-0.082,0.39,0.483,1.09,0.836,1.328l1.412,0.948l3.259,2.193
						c0.554,0.373,1.18,0.657,1.784,1.08l2.459,1.723l3.195,1.698c0.467,0.248,1.066,0.533,1.433,0.812l2.145,1.634l1.665,1.218
						c0.592,0.433,1.235,1.034,1.812,1.561l1.345,1.228l1.201,1.138l0.373,0.093l0.417-0.297l0.34-0.237
						c0.111-0.077,0.277-0.212,0.343-0.241l0.379-0.167l0.391-0.176l2.193-0.973l0.39-0.183c0.079-0.037,0.337-0.147,0.39-0.155
						l0.532-0.081l0.46-0.069l0.358-0.003l0.355-0.003c2.145-1.413,2.059,0.964,4.043-0.958l3.043-2.948l2.086-1.942
						c1.678-1.563,1.622-1.204,2.798-2.588l0.814-0.957c1.891-2.224,1.396-0.706,2.869-2.462l1.1-1.311
						c0.423-0.505,1.274-1.054,1.8-1.543l2.418-2.248l0.632,0.449c0.056,0.04,0.085,0.442,0.128,0.757l-0.353,0.092l-0.522,0.102
						c-0.056,0.011-0.26,0.23-0.285,0.275l-0.488,0.914c-0.024,0.044-0.317,0.193-0.384,0.222l-0.403,0.174l-0.377,0.157
						l-0.427,0.171l-0.423,0.167c-0.269,0.106-0.442,0.291-0.566,0.531l-0.204,0.395l-0.202,0.375
						c-0.265,0.493-0.341,0.577-0.798,0.906l-0.334,0.24l-0.36,0.252c-0.04,0.028-0.231,0.191-0.27,0.229l-0.301,0.302l-0.285,0.286
						l-0.284,0.287l-0.284,0.287l-0.287,0.284l-0.287,0.283l-0.286,0.279l-0.297,0.287c-0.049,0.048-0.164,0.229-0.228,0.318
						l-0.245,0.334l-0.245,0.336c-0.037,0.051-0.231,0.159-0.339,0.237l-0.331,0.239c-0.322,0.232-0.317,0.177-0.569,0.554
						l-0.231,0.345l-0.237,0.35c-0.039,0.057-0.196,0.199-0.278,0.283l-0.281,0.285l-0.286,0.302
						c-0.042,0.045-0.157,0.225-0.231,0.332l-0.232,0.334l-0.238,0.341c-0.038,0.054-0.229,0.195-0.297,0.249l-0.326,0.259
						l-0.318,0.255c-0.046,0.037-0.23,0.316-0.265,0.366l-0.592,3.451c-0.009,0.051-0.318,0.401-0.367,0.417l-0.413,0.129
						c-3.873,1.21-3.01,1.508-4.699,3.015c-0.721,0.643-1.728,1.155-2.609,1.353l-0.605,0.136c-0.616,0.138-1.238-0.021-1.865-0.22
						l-2.212-0.703c-0.571-0.182-1.709-0.056-2.499-0.1c-1.472-0.082-0.395-1.342-2.924-3.008l-2.944-1.939l-1.808-1.381
						l-0.598-0.451c-0.085-0.065-0.277-0.186-0.369-0.243c-1.592-0.984-0.75-0.88-2.859-2.267l-2.587-1.702l-1.059-0.735
						c-0.3-0.208-0.898-0.8-1.263-1l-2.763-1.515c-1.135-0.622-0.509-0.467-2.667-1.622l-3.86-2.065l-1.076-0.953l-1.826-1.03
						c-0.139-0.078-0.594,0.178-0.687,0.309l-0.559,0.789c-0.128,0.18-0.837-0.149-0.884-0.361l-0.106-0.486L114.06,405
						c-0.026-0.123-0.006-0.535,0.111-0.81c-1.559-1.735-1.247-1.249-2.566-1.622l-0.459-0.13c-0.304-0.086-0.262-0.247-0.912-0.32
						c-0.622-0.544-1.403-1.116-2.17-1.353l-0.528-0.163l-2.467-0.763c-0.687-0.213-0.32-0.92-1.774-1.439l-1.901-0.678
						c-4.008-1.431-2.197-1.306-6.746-2.978c-2.208-0.811-1.109-0.582-3.09-1.484c-0.635-0.289-1.778-0.469-2.216-0.872
						c-2.482-2.29-1.538-0.492-5.14-2.052c-3.087-1.336-2.911-0.656-4.765-2.088c-0.752-0.581-1.51-1.277-2.397-1.624l-3.295-1.289
						l-2.022-1.865l-2.171-1.087l-1.723-0.847c-1.734-0.853,0.109-0.107-1.368-0.88c-0.465-0.243-1.274-0.637-1.658-0.886
						l-2.492-1.613c-1.204-0.779-1.068-1.312-1.847-1.715c-0.074-0.038-0.369-0.178-0.437-0.229l-1.295-0.975
						c-0.59-0.444-1.249-1.188-1.885-1.52l-1.351-0.705l-1.755-1.375c-0.415-0.325-1.275-0.589-1.688-0.882l-1.821-1.291
						c-3.021-2.141-1.26-1.513-4.133-3.302c-0.48-0.299-1.161-0.677-1.563-0.977l-1.792-1.337l-1.062-0.99l-3.566-2.411
						l-0.655-0.734c-1.264-0.517-2.329-1.212-3.442-2l-2.346-1.661l-1.981-1.457l-3.699-2.795c-0.558-0.421-2.629-0.863-3.415-1.398
						l-1.464-0.997c-1.846-1.258-1.139,0.638-4.55-1.672c-1.887-1.278-2.984-0.298-3.934-2.343c-0.249-0.536-2.137-1.801-2.84-1.214
						l-0.573-0.103l-0.423-1.621c-0.153-0.586-1.331-0.237-1.362-0.564c-0.07-0.744-0.071-1.014,0.531-1.871l1.064-1.513
						c1.686-2.398,3.639-0.912,4.23-1.215l3.719-1.908c3.283-1.685,1.772-0.599,5.066-2.686c0.454-0.287,1.299-0.808,1.774-1.004
						l4.506-1.856c0.602-0.248,1.217-0.662,1.784-1.063c0.332-0.069,1.124-0.189,1.441-0.292l2.572-0.835
						c1.429-1.22,1.986-0.729,3.259-1.525l1.294-0.809c0.459-0.287,0.957-0.71,1.445-1.114l1.675-0.561
						c1.099-0.98,2.163-1.816,3.63-2.005c0.913-0.118,1.231-1.113,2.381-1.617l2.857-1.251c2.99-1.309,5.13-1.185,7.173-2.227
						c0.995-0.507,1.927-1.125,2.862-1.458c0.243-0.086,0.63-0.194,0.811-0.288l3.027-1.573l1.53-0.775
						c0.918-0.465,1.839-0.84,2.825-1.141c4.234-1.293,1.528-0.218,5.023-2.105l2.238-1.209c1.323-0.714,2.444-1.411,3.944-1.784
						c3.176-0.79,1.23-0.036,3.956-1.444l1.712-0.884c1.001-0.517,2.055-0.829,3.171-1.139c2.948-0.819,1.467,0.011,4.939-0.636
						l4.129-0.77c0.814-0.152,1.775-0.098,2.89-0.06l0.514-0.5l-3.173-1.8c-0.062-0.035-0.453-0.142-0.498-0.174
						c-0.23-0.16-0.73-0.54-0.972-0.672l-2.252-1.238c-3.665-2.014-2.283-0.614-5.056-2.008l-1.955-0.983
						c-3.334-1.676-2.832-1.005-6.082-2.169l-1.923-0.689c-3.14-1.125-2.753-0.793-5.422-1.67l-1.741-0.572
						c-2.161-0.71-3.19-0.652-6.363-1.566c-2.821-0.813-2.853-0.576-5.883-1.508l-3.131-0.964l-1.513-0.479l-3.218-1.013
						l-2.334-0.725c-2.178-0.676-2.873-1.192-3.74-1.407c-1.719-0.426-3.264-0.839-4.884-1.438l-1.903-0.704L36,277.755
						l-2.758-0.969c-1.404-0.493-2.8-0.891-4.125-1.585l-1.652-0.865l-1.612-0.697l-3.723-1.729l-2.515-1.172l-3.329-1.531
						l-5.135-2.298c-0.341-0.153-0.767-0.361-1.119-0.54l-2.084-1.061l-2.166-1.005c-0.453-0.21-1.348-0.6-1.838-0.67l-2.52-0.362
						c-0.403-0.058-0.83-0.107-1.008-0.27c-0.495-0.454,0.146-5.693,0.3-6.833c0.037-0.275-0.018-0.908,0.006-1.184l0.224-2.558
						l0.267-2.58l0.217-2.293l0.193-2.297l0.211-2.515c0.074-0.879-0.071-1.702,0.022-2.624l0.284-2.809
						c0.053-0.524-0.018-1.051,0.023-1.525l0.206-2.381l-0.098-2.394l0.214-2.324c0.098-1.063,0.037-2.329,0.216-3.332
						c0.205-1.144,0.365-2.071,0.493-3.227c0.243-2.203,0.652-2.732,0.955-5.394c0.479-4.209,0.433-1.348,0.733-3.438
						c0.17-1.187,0.429-2.493,0.458-3.67l0.042-1.763c0.035-1.453,0.238-2.839-0.002-4.293l-0.37-2.245l-0.017-1.565
						c-0.001-0.124-0.056-0.503,0.033-0.553c2.079-1.149,1.401-0.595,3.213-0.828l2.317-0.299c5.379-0.694,7.509-1.899,13.532-2.67
						c1.166-0.149,2.382-0.403,3.48-0.761l2.371-0.774l2.159-0.688l3.302-1.024c1.006-0.312,2.134-0.858,3.098-1.058l2.2-0.457
						l1.695-0.391c0.377-0.087,0.906-0.125,1.311-0.19c2.953-0.473,3.526-0.846,6.54-1.261l2.054-0.283
						c4.141-0.571,3.786-1.096,5.923-1.47l2.128-0.373c0.721-0.126,1.416-0.235,2.095-0.531l2.637-1.152
						c0.674-0.294,2.227-0.864,2.927-1.012l2.56-0.54c0.642-0.135,0.842,2.241,0.962,0.767c0.171-2.094-0.563-1.103,0.095-2.822
						l0.753-1.969c0.389-1.017,0.95-2.031,1.496-3.03c1.858-3.394,0.745-4.814,2.33-6.734l1.224-1.483
						c0.47-0.57,0.832-1.724,1.114-2.51l0.769-2.14l0.847-2.365c0.147-0.41,0.582-1.145,0.81-1.641l0.639-1.39
						c0.349-0.76-0.907-1.202-1.856-1.472l-2.239-0.639l-1.244-0.39c-0.087-0.027-0.352-0.389-0.291-0.457l0.412-0.461
						c0.031,0.029-0.038-0.038-0.249-0.243c-0.15-0.348-0.393-0.97-0.493-1.397l-0.996-4.251c-0.255-1.09-0.119-2.601-0.009-3.593
						c-0.323-0.296-0.723-0.852-0.775-1.197l-0.359-2.348l-0.531-3.46l-0.304-1.977c-0.135-0.876-0.116-1.725-0.04-2.639
						c-0.049-0.465-0.339-1.462-0.358-1.936l-0.123-2.926c-0.129-3.076-1.115-2.134-0.736-5.283
						c-0.117-0.348-0.341-1.103-0.361-1.495l-0.104-2.065l-0.065-1.297c-0.036-0.716,0.151-1.408,0.065-2.215l-0.346-3.257
						c-0.113-1.064,0.138-1.987,0.109-2.971l-0.046-1.61c-0.019-0.682-0.042-1.327-0.107-2.044l-0.208-2.285l-0.066-1.988
						l-0.225-2.353l-0.226-2.114l-0.198-1.732l-0.157-1.33l-0.305-2.52l-0.047-1.372l-0.246-2.094
						c-0.088-0.752-0.369-1.904-0.549-2.392c-2.928-0.815-4.537-3.844-5.599-6.319l-0.796-1.855
						c-0.313-0.73-0.827-1.565-0.409-2.281c2.066,1.004,2.019,2.118,3.039,4.264c1.49,3.134,0.958,0.279,1.417,2.978
						c0.047,0.277,0.635,0.606,0.913,0.683l0.623,0.172c0.429,0.119-0.228-1.228-0.008-2.051l0.994-3.714
						c0.088-0.329,0.113-1.025,0.119-1.437c0.016-1.041,2.069-1.39,1.916-0.957c-0.04,0.114-0.168,0.477-0.222,0.597L69.52,78.18
						c-0.472,1.049-0.887,3.707-0.661,4.807c0.09,0.437,0.916,1.113,1.114,1.479c0.526,0.969,0.466,2.339,0.55,3.463l0.172,2.31
						l0.171,3.411c0.035,0.707,0.187,1.504,0.296,2.216l0.274,1.782c0.176,1.145,0.171,2.302,0.15,3.428l-0.064,3.399l0.132,1.703
						l-0.058,3.779c-0.008,0.51,0.051,1.161,0.09,1.547c-0.155,0.502-0.262,1.11-0.203,1.634l0.246,2.203
						c0.495,4.434-0.192,4.009,0.931,8.927l0.505,2.212c0.145,0.634-0.022,1.824,0.097,2.432l0.249,1.273
						c0.079,0.402-0.042,1.126-0.019,1.461l0.179,2.607c0.121,1.756,0.882,3.161,1.035,3.928l0.483,2.414l0.416,2.449
						c0.118,0.695,0.221,1.268,0.392,1.932c0.29,1.126,0.334,2.438,0.524,3.553l0.465,2.726c0.102,0.595,0.92,2.861,1.75,3.155
						l3.425,1.212c0.318-0.573,0.888-1.515,1.042-2.022l0.541-1.786c0.378-1.248,0.85-2.375,1.327-3.563l1.006-2.502
						c0.133-0.33,0.36-0.831,0.528-1.146l2.475-4.667c1.195-2.253,0.98-2.643,2.192-4.908l0.913-1.707
						c0.833-1.557,0.585-0.598,1.668-2.855l1.944-4.054l0.434-1.022c0.384-0.903,1.195-2.197,2.026-4.275l0.661-1.651
						c0.3-0.749,0.694-1.538,1.073-2.266l1.871-3.587c0.477-0.914,1.096-1.836,1.452-2.789l0.779-2.081l1.097-2.342l0.939-1.98
						c1.549-3.266,0.601-3.441,0.198-4.868l-0.69-2.443c-1.303-1.588-2.107-3.152-2.759-5.053l-0.432-1.26
						c0.552-1.015,1.717-1.446,2.941-0.849c0.374,0.182,0.645,0.885,0.397,1.265c-0.274,0.419-0.582,1.126-0.416,1.491l1.357,2.983
						c1.021,2.243,0.921,5.618,1.606,2.839c0.138-0.56,0.39-1.218,0.558-1.776l0.548-1.826l0.701-2.341
						c0.048-0.161,0.592-0.383,0.759-0.408c0.166-0.025,0.616,0.291,0.658,0.451c0.406,1.548-0.759,2.632-1.189,3.697l-0.598,1.48
						l-0.655,1.617l-0.899,2.219l0.437,1.438c-0.206,0.226-0.393,0.451-0.403,0.424c-0.012-0.034,0.186,0.263,0.251,0.36l0.258,0.27
						c-0.275,0.198-0.606,0.511-0.73,0.404l-0.707-0.608l-0.744,1.55l-1.062,2.06c-0.924,1.793-0.895,2.344-2.007,4.535
						l-1.161,2.289l-0.843,1.7l-1.099,2.355l-0.907,1.93l-1.212,2.53l-1.308,2.731l-1.033,2.094l-0.861,1.691l-1.027,2.119
						l-2.159,4.402c-0.817,1.666-0.705,1.711-1.598,3.552l-1.592,3.282c-0.855,1.762-1.744,3.752-2.359,5.6l-0.591,1.772
						l-0.86,2.403l-1.044,3.271c0.363,0.143,1.163,0.345,1.793,0.392c0.629,0.047,1.384,0.766,1.033,1.368
						c-0.602,1.034-2.675-0.419-3.397,0.19l-0.934,2.829l-1.083,3.005c-0.186,0.516-1.098,2.619-1.374,3.148l-0.883,1.691
						c-2.955,5.657-0.869,2.555-2.803,7.121c-0.343,0.809-0.646,1.641-1.065,2.446c-1.134,2.185-2.15,2.777-1.474,5.572l0.714,2.954
						l0.511,2.117l0.567,2.345l0.922,2.955l1.194,4.593l0.557,1.993c0.162,0.579,0.335,1.248,0.45,1.807l1.142,5.539l0.914,3.892
						l0.579,2.273l0.844,2.862l0.544,1.773c0.982,3.2,1.858,4.9,2.599,7.347l0.855,2.824c0.312,1.031,0.713,1.978,1.01,3.025
						l1.086,3.837l1.374,4.305l0.608,1.946l1.02,3.266l1.138,3.713l0.947,3.062l0.845,2.528l0.878,2.611l1.447,4.239
						c0.615,1.802,1.42,3.93,2.492,5.482c0.469,0.678,1.184,1.27,1.767,1.965c0.943,1.124,0.364,1.566,1.742,3.648
						c0.221,0.333,0.994,1.027,1.364,1.193l2.394,1.077c1.337,0.601,4.696,1.062,6.05,0.599l2.402-0.822
						c0.482-0.165,1.207-0.363,1.62-0.612l2.115-1.271l3.637-1.802c1.48-0.733,3.99-2.063,5.023-3.252l1.474-1.698
						c1.695-1.953,2.431-3.101,3.436-5.37l1.064-2.4c0.673-1.52,1.914-4.717,1.961-6.228l0.119-3.782
						c0.034-1.093-0.916-4.184-1.417-5.433l-0.985-2.455c-0.319-0.794-0.692-1.577-1.1-2.315l-1.139-2.058
						c-0.871-1.575-1.543-2.503-2.049-4.471l-0.639-2.485l-0.62-2.298l-0.465-1.539c-1.454-4.81-1.349-2.225-1.179-5.782l0.229-4.81
						l0.065-2.642l0.05-3.661c0.015-1.13-0.059-2.243-0.131-3.427l-0.188-3.112l-0.274-2.572l-0.287-2.281l-0.268-2.006
						c-0.207-1.552-0.338-2.79-0.367-4.322l-0.042-2.224c-0.006-0.335,0.131-1.161,0.04-1.53l-0.912-3.663
						c-0.151-0.607-0.139-1.681-0.446-2.093c-0.463-0.622-0.554-1.059-0.229-1.553l1.686-2.555l-0.294-0.487
						c-0.578-0.175-0.894-0.46-0.877-0.854c0.054-1.249,1.751-0.118,2.356-1.49l1.085-2.46c0.866-1.962,0.806-1.426,1.625-3.485
						l0.652-1.641l1.002-2.445l0.697-1.602c0.429-0.986,0.707-1.886,1.133-2.883l1.328-3.111l1.095-2.892l1.744-4.252l1.78-4.031
						c1.556-3.524,1.125-3.147,2.391-6.169l0.918-2.193l0.748-1.897l0.722-1.831c0.138-0.351,0.642-0.983,0.914-1.319
						c0.122-0.15-0.029-0.791,0.051-0.972l1.171-2.641l0.804-1.814l0.984-2.072c0.355-0.747,0.581-1.466,1.053-2.14
						c0.33-0.471,0.405-0.939,0.575-1.509c0.181-0.605,0.526-1.337,0.79-1.972l0.603-1.45c0.872-2.098,0.783-2.545,1.623-5.103
						l1.129-3.44l0.663-2.255l0.724-2.099l0.637-2.008l1.21-3.59l1.086-0.449c1.863-0.769,1.475,0.05,3.505-0.14l2.149-0.201
						c0.678-0.063,1.707,0.172,2.388,0.386l3.09,0.97c0.648,0.204,1.967,0.138,2.748,0.301l5.53,1.151
						c0.809,0.168,1.59,0.317,2.439,0.385l2.315,0.183l2.292,0.123l1.974,0.016l1.712-0.017l8.58-0.059l1.73-0.142l2.368,0.002
						l2.941,0.052l1.851-0.062c3.285-0.111,1.469,0.141,4.725,0.232c0.693,0.019,1.447,0.001,2.101,0.114l1.757,0.305
						c0.845,0.147,1.694,0.338,2.54,0.547l2.301,0.568c0.361,0.089,1.242,0.125,1.578,0.232c2.15,0.684,4.095,1.183,6.308,1.488
						l1.373,0.19c0.279,0.039,1.045,0.296,1.116,0.563l0.385,1.45l-1.125,0.644c0.169,3.766,0.465,1.487,0.708,4.287
						c0.086,0.99,0.231,1.935,0.489,2.859l0.395,1.413c0.206,0.736,0.046,1.84-0.013,2.744l0.618,2.475l-0.009,1.836
						c-0.007,1.465,1.15,1.581,0.786,2.297l-0.26,0.512c-0.296,0.582-1.127-2.195-1.069-1.846l-0.424-2.544l-0.517-1.92l-0.361-2.32
						c-0.101-0.648-0.249-1.258-0.415-1.881c-0.378-1.417-0.663-2.799-0.96-4.268c-0.577-2.854,0.15-1.293-0.375-3.465
						c-0.336-1.392-1.391-1.589-2.518-1.924l-1.886-0.56l-3.439-0.841l-2.605-0.645c-0.975-0.241-3.298-0.9-4.413-0.916l-2.72-0.039
						c0.073,0.776,0.072,1.357,0.026,2.12l-0.101,1.656l-0.129,1.892l-0.121,1.747l-0.138,2.011l-0.116,1.649l-0.179,2.345
						l-0.114,1.607l-0.06,1.885l-0.054,2.814c-0.017,0.859-0.112,1.708-0.207,2.565l0.123,1.309
						c-0.526,2.739,0.133,0.38-0.051,4.449c-0.018,0.406-0.011,0.93-0.003,1.359l0.03,1.617c0.047,2.557-0.096,0.447-0.042,2.845
						l0.05,2.236c0.038,1.662,0.515,3.363,0.864,5.093c0.134,0.664,0.055,1.785,0.201,2.409l1.21,5.165
						c1.014,4.328,0.323,3.732,1.069,7.278c0.463,0.359,0.905,0.665,1.033,0.982c0.52,1.291-0.473,0.989-1.869,2.764l-1.243,1.58
						c-0.628,2.017-1.465,3.721-2.424,5.571c-0.686,1.324-1.07,2.841-1.562,4.232c-0.231,0.653-0.587,1.432-0.716,2.055
						l-0.609,2.925c-0.128,0.614-0.05,1.475-0.078,2.145l-0.08,1.878l-1.878,0.645c-0.109-0.104-0.446-0.714-0.434-0.881
						l0.119-1.669c0.376-0.773,0.692-1.706,0.851-2.547l0.226-1.197c0.157-0.833,0.414-1.641,0.689-2.455l0.954-2.818l0.683-1.826
						l0.878-2.294l0.614-1.704c0.327-0.909,1.876-4.303,2.315-5.002l0.877-1.397l-0.746-4.473l-0.331-1.997l-0.325-1.974
						c-0.55-3.34-0.887-2.658-1.086-5.747l-0.149-2.302l-0.221-3.082c-0.057-0.796-0.078-1.611-0.001-2.373
						c-0.015-0.227-0.137-0.873-0.139-1.134l-0.028-5.67c-0.001-0.264,0.183-0.955,0.151-1.183l-0.338-2.436
						c0.141-1.089,0.132-2.135,0.059-3.2l0.1-1.456l0.214-3.161c0.032-0.468-0.06-1.254,0.003-1.736
						c0.084-0.641,0.247-1.478,0.23-1.945l-0.149-4.062c-0.038-1.05,0.601-3.548,0.264-5.663l-0.52-3.272
						c0.087-0.316,0.131-0.475,0.123-0.445l-9.013-0.004l-1.651,0.112l-1.736-0.031c-3.677-0.066-8.647,0.505-12.84,0.121
						l-2.852-0.261c-0.512-0.047-1.222-0.126-1.714-0.226l-4.866-0.984c-0.317-0.064-1.063-0.053-1.407-0.099l-2.037-0.269
						c-0.917-0.121-1.776-0.269-2.654-0.45l-1.743-0.358c-2.851-0.585-3.62,0.346-4.426,0.41c-0.735,0.059-2.085,0.182-2.397,0.618
						l-0.61,2.072l-0.847,1.521l-1.312,4.08c-1.052,3.27-0.128,1.374-0.926,3.56l-1.153,3.162l-0.842,2.058l-1.029,2.454
						l-0.745,1.806l-0.766,1.779l-1.249,2.768l-0.788,1.749l-0.708,1.555l-1.176,2.547l-0.912,1.973
						c-0.264,0.571-0.48,1.23-0.72,1.842l-1.685,4.281l-1.053,2.711l-1.507,3.923c-0.303,0.789-0.662,1.609-1.007,2.385l-1.06,2.389
						c-1.113,2.508-0.807,2.499-1.975,5.132l-0.886,1.999c-0.474,1.069-0.939,2.119-1.325,3.216l-0.908,2.582
						c-0.249,0.709-0.58,1.483-0.884,2.193l-0.858,1.998l-0.857,1.996c-0.323,0.751-0.481,1.529-0.725,2.526
						c1.347,0.083,4.344-0.444,5.376-0.756l1.987-0.601l2.376-0.75l2.858-0.903c0.435-0.138,1.23-0.498,1.664-0.547l2.375-0.268
						l2.685-0.303l1.207-1.698l0.87-1.203l1.866-0.315c0.986,0.66,1.915,0.767,3.168,0.761l0.507,1.077
						c0.496,0.323,1.12,0.745,1.584,0.955l2.552,1.159l3.388,1.203l2.275,0.878l1.964,0.797c1.087,0.441,2.081,0.726,3.076,1.29
						c0.915,0.519,1.903,1.059,2.849,1.419l2.688,1.021l2.537,0.911l1.614,0.672l2.659,1.109c3.326,1.387,5.47,1.666,7.754,2.527
						c3.54,1.335,3.684,0.963,6.446,2.066l2.851,1.139l3.543,1.356c3.368,1.289,1.985,0.382,5.349,1.985l2.536,1.209
						c1.283,0.611,2.705,1.209,4.066,1.603l2.026,0.587c0.922,0.267,1.878,0.563,2.756,0.951l2.226,0.982
						c0.742,0.327,1.599,0.964,2.356,1.247c0.659,0.246,1.741,0.325,2.286,0.581l1.807,0.85c0.772,0.363,1.563,0.732,2.372,1.024
						l2.555,0.92l3.146,1.119l2.879,1.057l1.872,0.706l1.844,0.698c0.322,0.122,0.872,0.289,1.298,0.418l3.706,1.128l3.777,1.072
						c3.713,1.054,3.85,1.527,6.878,2.381l4.246,1.197l1.339,0.498c0.93,0.346,1.98,0.411,2.828,0.715
						c3.4,1.215,1.522,0.289,4.472,1.731l3.087,1.509c0.625,0.306,1.306,0.653,1.934,0.884l3.809,1.404
						c0.614,0.226,1.206,0.953,1.74,1.328c0.378,0.264,3.1,1.789,3.309,1.835l2.939,0.649c0.194,0.043,0.844-0.276,0.979-0.135
						L289.714,218.996z M164.684,202.543c1.009-0.351,1.902-1.238,2.783-1.608l2.05-0.86c0.335-0.141,1.02-0.442,1.324-0.654
						l2.015-1.407c0.555-0.387,1.141-0.738,1.73-1.092l2.185-1.313c0.251-0.151,0.91-0.332,1.227-0.229l3.507,1.146
						c1.545,0.505,2.211,1.093,4.336,1.896l2.903,1.097l1.53,0.633l4.847,1.801l2.049,0.814l2.11,0.763
						c1.111,0.402,2.459,0.598,3.521,1.048l3.435,1.455c2.689,1.139,0.084-0.412,4.104,1.786l1.887,1.032l1.456,0.268l2.811,1.244
						l1.914,0.863l1.805,0.729c0.289,0.117,1.128,0.234,1.41,0.369l3.591,1.709c0.377,0.179,1.369,0.275,1.744,0.308l1.409,0.122
						c0.261,0.023,0.586,0.805,0.502,1.03c-4.446,4.099-7.005,2.495-12.069,6.201l-2.154,1.576
						c-1.631,1.194-2.973,2.114-5.051,2.844l0.311,0.484c0.499,0.392,0.984,0.791,1.479,1.061c3.552,1.934,2.082,0.777,4.94,1.685
						c0.956,0.304,1.882,0.991,2.813,1.402l1.619,0.715l3.781,1.93c0.792,0.404,1.707,0.809,2.4,1.279l1.558,1.055
						c0.493,0.334,1.02,0.657,1.496,1.069l1.904,1.651c0.193,0.167,0.638,0.423,0.962,0.648c0.246,0.172,0.818,0.326,1.114,0.444
						c3.698,1.478,2.331,0.414,4.558,1.479l2.788,1.332c0.81,0.387,1.695-1.094,2.283-1.434l1.851-1.069
						c1.506-0.87,4.122-2.823,4.41-2.971l3.246-1.665c2.548-1.307,1.745-1.126,4.717-2.459c0.642-0.288,1.263-0.632,1.9-0.944
						l3.129-1.53c1.903-0.931,4.372-3.138,4.748-3.353l2.051-1.172c0.799-0.457,1.665-0.826,2.489-1.227l1.736-0.847
						c4.001-1.951,1.272-0.181,3.859-1.482c0.48-0.241,1.126-0.589,1.527-0.721l3.335-1.098c0.3-0.099,0.553-0.243,1.256-0.53
						c-0.002,0.56,0.025-0.034,0.03-0.152c-1.82-0.59-2.961-2.411-4.714-3.21l-3.177-1.447c-3.248-1.479-6.406-3.503-9.784-4.443
						L263,209.701l-1.777-0.495c-0.922-0.257-1.848-0.576-2.741-0.911l-1.465-0.549c-0.53-0.199-1.133-0.415-1.668-0.579
						l-2.042-0.624l-1.944-0.594l-4.628-1.397l-1.756-0.547l-2.312-0.801l-1.701-0.588l-4.526-1.669l-2.795-0.913l-2.644-0.854
						c-0.617-0.199-1.346-0.575-1.947-0.808l-2.916-1.128c-1.372-0.531-2.735-1.06-4.052-1.677l-1.978-0.927
						c-2.156-1.011-1.309-1.05-4.51-1.928l-3.885-1.067c-2.835-0.778-2.288-1.72-4.907-2.448l-1.177-0.327l-2.015-0.57
						c-0.424-0.12-1.046-0.322-1.463-0.486l-4.095-1.608l-4.103-1.558l-3.911-1.242l-1.786-0.521
						c-3.189-0.931-2.559-1.183-6.396-2.386c-3.838-1.203-5.184-2.124-9.103-3.537c-3.507-1.265-4.673-2.465-8.973-3.855
						l-1.312-0.424c-1.146-0.371-2.252-0.877-3.293-1.459l-0.687-0.019l-4.361-1.92c-2.366-1.041-3.315,1.763-4.82,0.98
						l-0.535,0.853l-0.796-0.709c-0.168-0.149-0.778,0.433-1.002,0.449l-2.546,0.187c-0.812,0.06-2.83,0.44-3.531,0.66l-3.323,1.043
						c-0.385,0.121-1.171,0.577-1.559,0.675l-4.797,1.214c-0.623,0.158-1.54,0.178-2.236,0.344l-1.609,0.384
						c-0.806,0.192-0.281,0.071-1.24,2.69l-0.879,2.401c-0.184,0.502-0.224,1.642-0.108,2.125c0.699,1.363,0.648,3.448,0.603,4.842
						l-0.034,1.061c-0.047,1.46,0.127,2.788,0.354,4.276c0.109,0.716,0.051,1.814,0.209,2.464c0.232,0.954,0.424,1.68,0.482,2.666
						l0.171,2.873c0.014,0.228,0.323,0.897,0.267,1.099c-0.561,2.001,0.088,0.972,0.248,4.038l0.118,2.244l0.21,3.762
						c0.019,0.343-0.028,0.945-0.047,1.342l-0.073,1.528c-0.152,3.192-0.189,2.572,0.284,5.581l0.277,1.761l0.313,1.986
						c0.79,5.019,0.366,0.756,1.485,5.621c0.142,0.616,0.387,1.439,0.566,1.906c3.056,1.108,0.58,0.644,4.504,2.727
						c0.696,0.369,1.429,0.716,2.149,0.967l1.722,0.601c1.226,0.428,2.476,0.919,3.608,1.494c2.676,1.362,3.295,1.053,6.595,1.97
						l3.663,1.019c0.501,0.139,1.469,0.545,1.963,0.775l2.159,1.005l1.986,0.872l1.601,0.67c1.31,0.548,2.923,1.521,3.211,1.621
						l2.783,0.965l1.99,0.872l0.933,0.709c0.767,0.093,1.503,0.287,2.242,0.581c4.042,1.608,1.29,0.821,4.406,2.213l2.761,1.233
						c0.47,0.21,1.195,0.418,1.741,0.609l3.673,1.282c0.477,0.166,1.326,0.567,1.871,0.83l1.767,0.85
						c0.596,0.287,1.354,0.844,1.93,1.06c2.342,0.88,4.22,1.658,6.111,3.152c0.616,0.486,1.626,0.907,2.306,1.368l1.364,0.925
						c1.576,1.068,3.781-0.658,5.167-1.144l1.745-0.612c0.726-0.255,1.585-0.541,2.233-0.858l1.548-0.758l1.732-0.857l2.678-1.327
						l1.528-0.743c0.63-0.306,1.606-0.671,2.045-1.013c2.041-1.592,0.728-0.3,3.19-1.99l2.052-1.408
						c4.172-2.862,3.781-0.853,4.832-2.67l-1.386-0.589c-0.586-0.249-1.461-0.816-2.039-1.009l-4.095-1.367
						c-0.669-0.223-1.645-0.366-2.226-0.637c-2.442-1.141-2.409-0.252-6.62-2.208l-4.094-1.902l-4.344-1.996
						c-0.482-0.221-1.325-0.778-1.754-1.01c-4.457-1.439-4.178-1.663-7.696-4.103c-1.121-0.777-2.216-1.583-3.369-2.289
						l-1.773-1.086c-0.43-0.263-0.983-0.668-1.4-0.872l-3.287-1.61l-2.022-0.864l-1.959-0.873l-1.772-0.819
						c-3.882-1.793-1.866-0.049-3.512-1.913c-1.64-1.857-3.328-2.147-5.942-3.704l-2.108-1.256
						c-0.307,0.299-0.553,0.537-0.507,0.493c0.145,0.666,0.073,1.01-0.185,1.147c-1.113,0.592-0.225-1.693-0.85-2.34
						c-0.307-0.318-1.019-0.427-1.551-0.608c-1.241-0.423-2.392-1.209-3.564-1.794l-3.666-1.832
						c-0.638-0.319-1.407-0.535-2.066-0.778l-1.675-0.618c-0.289-0.107-0.639-0.302-0.778-0.478
						c-0.795-1.002,2.574-2.186,2.357-2.045c2.56-1.668,4.793-3.77,7.822-5.877l1.181-0.821L164.684,202.543z M42.307,213.399
						c0.313,0.138,1.042,0.331,1.221,0.379l0.793-1.041c3.196,0.539,4.093,1.127,6.937,2.682c0.539,0.295,1.177,0.654,1.744,0.778
						c3.013,0.658,4.028,0.794,6.894,1.998l3.853,1.619c0.693,0.291,1.588,0.851,2.348,0.986c2.398,0.426,4.602,0.875,6.845,1.754
						c1.626,0.637,2.2,0.665,3.766,1.371l1.796,0.809c3.035,1.368,2.264,0.09,4.271,1.948l0.85,0.787
						c0.335,0.06,0.921-0.092,0.347-0.34c-1.074-2.95-0.124-1.668-1.45-4.713c-0.31-0.711-0.697-1.541-0.886-2.246l-1.051-3.914
						l-0.569-1.875l-0.785-3.216l-0.609-2.563l-0.555-2.285l-0.535-2.008l-0.562-2.051l-0.673-2.451l-0.493-1.772l-0.898-3.195
						l-0.592-1.987c-0.115-0.384-0.597-1.138-0.631-1.515c-0.079-0.88-0.193-1.748-0.381-2.491l-0.902-3.563l-3.7,0.009
						c-0.496,0.001-0.935,0.513-1.257,1.099c-0.339,0.618-2.605,0.584-5.084,1.362c-3.347,1.051-2.764,0.404-4.796,1.121
						l-2.138,0.755c-1.192,0.421-2.705,0.612-4.028,0.776l-2.033,0.253c-3.102,0.385-3.776,0.792-6.816,1.045l-1.196,0.346
						l-2.079,0.522c-0.841,0.211-1.731,0.402-2.522,0.661l-2.432,0.795l-2.646,0.928c-1.039,0.365-1.93,0.642-2.995,1.043
						l-1.726,0.308l-2.408,0.432l-4.917,1.018l-5.712,1.425c-0.531,0.133-1.381,0.296-1.901,0.34l-1.828,0.155l-0.533,0.045
						c-1.057,0.09,2.998,2.202,3.393,2.384c3.539,1.631,1.843,1.399,5.677,2.697c5.095,1.725,5.504,2.995,8.267,3.972l3.204,1.133
						c0.76,0.269,1.737,0.525,2.547,0.612l2.117,0.228c1.538,0.166,3.13,0.738,4.533,1.359L42.307,213.399z M176.038,221.913
						l-0.449-1.91c-0.119-0.507-0.362-1.293-0.29-1.724l0.304-1.832l0.677-4.1c-0.283-0.771-0.402-1.461-0.351-2.18l0.124-1.738
						l0.178-2.009l0.118-1.423l0.155-2.283l0.109-2.28l0.102-2.646c-0.503,0.174-1.027,0.343-1.282,0.486l-1.705,0.956
						c-1.029,0.577-2.081,1.423-3.145,1.894c-0.99,0.439-2.084,0.917-2.758,1.411c-0.045,1.125-0.062,1.685-0.205,2.477
						l-0.403,2.242c-0.096,0.536-0.14,1.141-0.179,1.666l-0.205,2.813l0.023,1.347l-0.354,2.992
						c-0.031,0.261,0.164,0.841,0.401,0.954c1.148,0.547,2.346,1.157,3.402,1.729l1.684,0.911
						C174.4,220.971,174.751,221.682,176.038,221.913z M205.721,226.681c0.075-0.853,1.234-1.373,1.831-1.649
						c2.749-1.273,3.859-1.158,5.197-2.184l2.632-2.016c0.867-0.664,1.983-1.32,2.951-1.865c0.221-0.125,0.783-0.654,1.083-0.776
						l5.476-2.22c0.142-0.058,0.463-0.511,0.351-0.552l-0.526-0.196l-1.84-0.72l-1.996-0.869c-1.129-0.492-2.243-1.031-3.372-1.464
						l-4.138-1.586l-2.478-0.979c-2.39-0.945-1.249-1.422-3.035-1.343l-0.489-0.519l-3.006-1.139l-1.413-0.434l-2.446-0.761
						l-1.728-0.537l-1.781-0.552c-0.815-0.252-1.689-0.561-2.492-0.887l-2.436-0.988l-5.749-1.97l-3.242-1.081
						c-1.158-0.386-1.516-1.48-4.38-1.274l-0.276,2.045c-0.415,3.072-0.67,1.237-0.674,4.333c-0.001,0.896,0.2,2.137-0.072,2.881
						c-1.077,2.948,0.142,1.557-0.113,4.455l-0.207,2.354c-0.348,3.962-1.296,2.669,0.262,4.487c0.87,1.015-0.692,1.783,0.233,3.946
						c0.367,0.858,0.634,1.122,1.956,1.774l4.031,1.986c1.288,0.635,2.578,1.184,3.84,1.877c2.418,1.327,4.858,2.847,6.859,4.505
						l0.682,0.095c0.139,0.019,0.366,0.456,0.497,0.553l1.787,1.318c0.663,0.489,1.623,0.962,2.352,1.242l5.007,1.92l0.292-1.36
						c0.424-1.974-0.857-1.548,0.207-3.113l0.316-2.587C206.594,229.031,205.516,228.996,205.721,226.681z M196.429,279.662
						l0.471-2.441l0.389-2.119l0.342-1.673c0.309-1.514,0.642-2.985,1.105-4.421c0.183-0.568,0.427-1.14,0.546-1.716l0.421-2.044
						c0.074-0.357-0.449-1.227-0.772-1.408l-2.166-1.215c-0.701-0.394-1.33-0.787-1.93-1.223l-1.356-0.985
						c-1.275-0.926-2.763-1.665-4.214-2.338l-1.594-0.739c-2.528-1.173-1.157-0.866-4.073-1.894l-2.31-0.815l-2.989-1.053
						c-2.279-0.803-2.623-1.463-5.021-2.363c-0.889-0.334-1.645-0.995-2.474-1.447c-0.665-0.363-1.76-0.622-2.5-0.934l-2.04-0.861
						c-0.697-0.294-1.57-0.776-2.131-1.115c-0.177-0.033-0.7-0.11-0.873-0.18l-2.034-0.824l-2.016-0.829l-3.752-1.834l-2.918-1.123
						c-1.235-0.475-2.616-0.905-3.939-1.212l-2.835-0.658l-2.962-0.817c-0.527-0.146-1.348-0.605-1.902-0.798l-2.371-0.825
						l-2.212-0.893l-3.602-1.382c-0.5-0.272-0.707-0.209-0.372,0.307l0.792,1.701c0.655,1.407,1.227,2.775,1.731,4.281l0.559,1.673
						c1.273,3.811,1.351,6.478,0.418,10.378c-0.594,2.483-2.024,6.148-3.37,8.32c-1.722,2.778-0.404,1.796-1.727,3.345l-1.356,1.587
						c-0.804,0.941-2.8,2.761-4.053,3.115l-0.196,0.24c-0.031,0.124-0.219,0.594-0.335,0.651l-1.824,0.903
						c-3.148,1.559-2.242,1.504-4.824,2.639l-2.427,1.067c-0.726,0.319-0.938,0.382-2.004,0.256
						c-0.054-0.211-0.018-0.068,0.123,0.477c0.134-0.042-0.51,0.355-0.713,0.387l-1.76,0.272c-2.14,0.331-4.576,0-6.579-1.012
						c-0.651-0.329-1.893-0.516-2.459-0.921l-1.705-1.22c-0.34-0.243-0.781-1.15-0.975-1.53l-0.782-1.534
						c-0.151-0.296-0.686-0.894-0.812-1.179c-0.452-1.023-0.989-2.421-1.369-3.468l-1.314-3.618
						c-0.943-2.596-0.569-2.047-1.438-4.233c-0.324-0.815-0.501-1.81-0.785-2.693l-0.552-1.713l-0.912-2.778l-2.07-6.774
						l-0.751-2.504l-0.797-2.571l-1.046-3.177l-0.721-2.492c-0.651-2.247-1.084-1.911-1.385-4.064
						c-0.56-0.915-1.813,0.399-2.923-0.919c-1.07-1.271-2.416-1.7-3.968-1.788c-0.436-0.288-1.268-0.945-1.731-1.108l-2.122-0.744
						c-2.05-0.719-4.071-1.315-6.189-1.796l-3.529-0.802c-0.485-0.11-1.337-0.795-1.786-0.966l-2.091-0.793l-3.131-1.181
						c-0.772-0.291-1.693-0.748-2.448-0.911c-2.472-0.533-3.08-0.448-5.302-1.876l-0.974-0.626
						c-0.281-0.181-1.003-0.196-1.308,0.018c-0.889,0.624-1.552,0.089-2.36-0.088c-1.024-0.224-2.072-0.383-3.022-0.769l-2.656-1.08
						l-2.424-1.038c-0.436-0.187-1.41-0.528-1.854-0.591l-2.058-0.294c-2.546-0.364-3.544-0.551-5.938-1.505l-1.881-0.75
						c-2-0.797-2.157-1.723-5.395-2.869l-1.884-0.667l-3.287-1.324c-0.539-0.217-1.356-0.944-1.886-1.119
						c-0.52-0.171-1.252-0.275-1.532-0.511c-1.292-1.095-2.787-2.112-4.134-2.486l0.736,3.705c0.109,0.551-0.133,1.43-0.169,2.034
						c-0.049,0.813,0.056,1.788-0.152,2.579l-0.766,2.912l-0.909,4.575l-1.232,5.643l-0.186,2.102
						c-0.086,0.967-0.451,1.763-0.507,2.684l-0.09,1.495c-0.074,1.224-0.073,2.377-0.058,3.626l-0.241,1.675
						c0.137,0.998,0.135,1.735,0.004,2.748c-0.04,0.31,0.021,0.998,0.006,1.3l-0.106,2.033l-0.232,3.128
						c-0.064,0.866-0.127,1.784-0.146,2.582l-0.062,2.621l0.057,1.075l-0.185,2.02c-0.064,0.701-0.234,1.626-0.242,2.25
						l-0.092,6.652c-0.018,1.328,1.889,1.555,3.424,2.258l1.775,0.813l2.355,1.076l1.863,1.163l3.42,1.497l1.724,0.833l2.342,1.085
						l2.752,1.311c3.04,1.448,8.86,4.199,11.871,5.223l2.324,0.79l3.131,1.161c3.467,1.286,2.205,0.453,5.36,1.738l1.861,0.758
						c0.802,0.327,1.645,0.657,2.483,0.917l2.234,0.693l2.355,0.818c1.155,0.401,2.26,0.79,3.438,1.092l2.303,0.59
						c1.169,0.299,2.081,0.735,3.407,1.079l2.232,0.579l2.848,0.679l2.504,0.597c1.136,0.271,2.391,0.488,3.47,0.838l4.298,1.392
						l3.445,1.101l2.091,0.716l4.15,1.576c0.657,0.249,1.284,0.624,1.943,0.916l2.379,1.053c0.807,0.357,1.605,0.659,2.353,1.059
						l2.639,1.411l2.393,1.327c1.119,0.62,2.222,1.181,3.373,1.746l1.892,0.928l2.683,1.321l2.356,1.084l1.606,0.663l5.134,2.04
						c0.688,0.273,1.375,0.561,2.095,0.777l3.27,0.982l3.45,1.067l4.954,1.609l4.117,1.296l3.073,0.939l1.99,0.607l3.438,1.1
						l3.64,1.232l2.519,0.953l1.924,0.674l4.118,1.474l2.225,0.703l2.215,0.667l1.92,0.572c2.559,0.763,1.582,0.635,4.268,1.522
						l1.787,0.59l2.212,0.768l1.912,0.68c3.771,1.341,1.699,0.341,3.56,0.971c1.259,0.426,2.514,0.739,3.651,1.257
						c3.493,1.591,2.618,0.799,4.715,1.824l1.854,0.906c2.023-1.608,1.731-2.63,1.905-4.616l0.178-2.027
						c0.069-0.788,0.048-1.767,0.161-2.508l0.65-4.24l0.067-1.232l0.251-2.064c0.158-1.302,0.598-2.71,0.709-3.923
						c0.086-0.934,0.1-1.783,0.316-2.687l0.67-2.811l0.356-2.222l0.376-1.826l0.526-2.441l0.487-1.895
						c0.09-0.339,0.37-0.992,0.437-1.318l0.367-1.787c0.7-3.405,0.532-0.209,1.205-4.736c0.11-0.739,0.258-1.43,0.473-2.081
						l0.577-1.745l0.66-2.203C196.175,280.686,196.337,280.142,196.429,279.662z M165.739,216.153
						c-0.159-1.39-0.178-2.442-0.105-3.732c-0.213-2.181,0.18-3.43,0.358-5.938c-0.02,0.284-0.025-2.805-0.673-2.604
						c-0.418,0.13-1.389,0.399-1.673,0.668l-1.684,1.596c0.072,0.626,0.136,1.138,0.145,1.692l0.078,4.912
						c0.009,0.589-0.006,0.806-0.365,1.54l1.984,1.399C164.242,215.996,165.245,216.18,165.739,216.153z M160.532,213.773
						c0.278,0.185,0.818,0.38,0.933,0.363l-0.154-1.372c-0.086-0.764-0.41-1.786-0.351-2.57l0.152-2.023l-0.528-1.193L159,208.46
						l-1.167,1.091l-1.598,1.494C158.055,212.314,158.47,212.403,160.532,213.773z M238.794,277.543l-0.115,1.418l-0.175,2.236
						c-0.056,0.717-0.049,1.336,0.005,2.13l-0.321,1.876l0.217,2.615l0.262,3.169c0.074,0.23,0.17,0.531,0.166,0.518l1.092-0.956
						l1.471-1.376l1.2-1.123c0.376-0.352,1.328-0.85,1.32-1.308c-0.047-2.651,0.333-3.294,0.311-4.047l-0.08-2.854
						c-0.013-0.452-0.012-0.595-0.246-1.193c-0.008-0.112,1.017-0.267,1.528-0.263c0.054,0.626,0.127,1.315,0.117,1.748
						l-0.069,2.859c-0.015,0.64-0.129,1.545-0.228,2.369c-0.047,0.216,0.793,0.049,1.006-0.16l2.193-2.155
						c0.395-0.388,0.93-1.259,1.347-1.729l1.37-1.543c1.898-2.138,2.826-2.706,4.279-4.241l1.684-1.779
						c0.593-0.626,1.273-1.191,1.934-1.772l1.349-1.185c0.216-0.109,1.012-0.12,1.22-0.253l1.246-0.791l2.941-1.326l3.044-1.816
						c2.349-1.401,0.181-0.638,3.325-2.348c0.468-0.255,0.84-0.572,1.285-1.04c0.301-0.316,0.949-0.601,1.249-0.819l2.73-1.985
						l1.518-1.103c0.3-0.218,0.791-0.616,1.067-0.874l2.522-2.36c0.374-0.35,0.811-0.712,1.157-1.169
						c0.923-1.22,0.768-3.644,0.791-4.784l0.047-2.35l0.324-1.999c0.143-0.88,0.025-1.94,0.157-2.835l0.196-1.333l0.272-1.751
						l0.313-2.004l0.056-1.556l0.839-5.459l-0.082-1.725l0.197-1.556c0.038-0.302-0.318-0.981-0.42-1.257l0.187-2.171l0.138-1.391
						c0.028-0.284-0.03-0.762-0.156-1.392c-1.998,0.382-3.924,0.89-5.887,1.787c-0.943,0.431-1.96,1.023-2.94,1.242
						c-0.581,0.13-1.189,0.236-1.564,0.412l-1.757,0.822l-1.997,0.934c-0.626,0.292-1.643,0.593-2.12,0.948l-1.857,1.38l-1.63,1.21
						l-1.526,1.072c-2.258,1.587-0.428,0.307-3.549,1.498c-1.319,0.504-1.874,1.479-1.703,2.948
						c0.087,0.752-0.233,1.556-0.476,2.298c-0.968,2.965-0.282,3.764-1.875,6.791c-0.634-0.808,0.343-3.712,0.569-5.693l0.296-2.595
						l0.361-2.238l-1.506,0.528c-0.544,0.191-1.094,0.544-1.644,0.873l-1.32,0.791l-0.607,2.498
						c-0.638,2.627-0.139,1.21-0.791,3.939l-0.355,1.488c-0.185,0.543-0.238,0.978-0.245,1.57l-0.019,1.584l0.019,1.825l0.055,1.439
						c-0.129,0.229-1.141,0.296-1.625,0.242l0.058-3.718c0.007-0.467,0.253-1.378,0.321-1.924l0.598-4.864l0.319-1.143l0.051-1.489
						c0.193,0.14-0.293-0.213-0.396-0.288l-1.372,1.025l-1.532,1.062c-0.336,0.233-0.901,0.564-1.177,0.784l-2.569,2.05
						c-0.377,0.301-0.908,0.833-1.324,1.204l-1.462,1.301c-0.093,1.159-0.221,2.273-0.41,3.408
						c-0.247,1.487-0.044,2.124-0.488,4.938l-0.536,3.401c-0.122,0.773-0.21,1.495-0.377,2.204c-1.121,4.774-0.13,3.838-0.699,6.501
						c-0.135,0.631-0.296,1.218-0.332,1.746l-0.126,1.849c-0.065,0.96-0.377,2.153-0.371,3.044l0.013,1.792
						c0.004,0.528-0.05,1.122-0.101,1.704L238.794,277.543z M226.909,288.521l0.907,1.285c0.152,0.216,0.729,0.529,1.034,0.648
						l4.932,1.929c1.023,0.4,2.265,0.638,3.475,0.939c-0.519-2.186-0.432-3.795-0.174-5.847c0.211-1.669-0.183-3.684,0.137-5.36
						l0.229-1.202l0.098-6.517c0.026-1.705,0.628-3.69,0.814-5.706l0.164-1.783l0.212-2.195l0.069-2.38
						c0.038-1.314,0.571-2.753,0.774-4.155c0.482-3.319-0.209-1.06,0.587-4.753c0.167-0.773,0.306-1.626,0.417-2.44l0.344-2.517
						c-0.774-1.701,0.955-2.155-1.326-4.772c-0.543-0.623-1.189-0.878-1.959-1.235c-0.529-0.245-1.164-0.581-1.697-0.778
						l-1.524-0.563c-0.937-0.346-2.81-1.132-3.593-1.789l-1.068-0.896l-2.416-1.59c-0.599-0.394-1.348-0.752-2.006-1.118
						l-3.079-1.715l-0.999-0.31l-4.525-2.224c-2.314-1.138-2.543-0.324-4.79-1.443l-2.001-0.997c-0.402-0.2-1.34-0.369-1.731-0.328
						l-0.846,2.387c-0.096,0.271-0.149,0.95-0.202,1.281l-0.319,1.994c-0.2,1.247-0.479,4.086,0.734,4.718l1.764,0.919
						c2.132,1.111,3.442,1.617,5.732,2.294l2.649,0.783l1.029,0.32l1.726,0.565l1.711,0.545l4.638,1.386
						c1.346,0.402,2.713,0.873,4.047,1.377c0.327,3.181-0.7,1.258-0.833,3.925c-0.1,1.999-0.219,3.242-0.686,5.011l-0.588,2.228
						l-0.524,2.348l-0.914,4.246c-0.105,0.488-0.415,1.192-0.426,1.58l-0.059,2.134c-0.046,1.663-0.269,0.978-0.589,3.901
						c-0.329,3.001,0.13,3.531-0.865,4.952l-0.027,1.056l-0.056,1.719l-0.079,1.703l-0.14,2.22l-0.011,2.297l-0.026,1.803
						l-0.013,0.574c-0.033,1.473,0.468-1.101,1.134-0.939C226.336,288.082,226.797,288.362,226.909,288.521z M193.617,294.989
						l-0.451,2.234l-0.627,2.349l-0.249,1.515c-0.116,0.708-0.417,1.383-0.531,1.972l-0.398,2.05
						c-0.216,1.112-0.32,2.098-0.482,3.268l-0.43,3.113l-0.271,2.895c-0.297,3.173-0.519,2.21-0.721,4.814l-0.15,1.936l-0.161,2.352
						l-0.21,3.279c0.35-0.002,0.652-0.003,0.719-0.032l1.893-0.912c2.737-1.319,2.31-1.112,4.845-2.779
						c1.315,0.592,2.624-0.671,3.552-1.618c2.334-2.382,0.893-1.531,3.991-3.786l1.489-1.083l1.165-0.837l1.514-1.071l1.697-1.177
						l3.194-2.073c0.227-0.147,0.93-0.34,1.141-0.434c3.387-2.96,3.505-2.005,7.129-5.685l0.714-0.725
						c0.212-0.703,0.583-1.779,0.602-2.424l0.117-4.051l0.085-1.413c0.031-0.521,0.111-1.142,0.194-1.69l0.344-2.269
						c0.132-0.868,0.126-1.736,0.047-2.614c0.016-0.185,0.08-0.655,0.084-0.85l0.129-6.277l0.241-2.895
						c0.242-2.909,0.708-3.395,0.985-6.529l0.2-2.273l0.252-2.294l0.255-2.322c0.067-0.609,0.219-1.259,0.33-1.86l0.593-3.191
						l0.637-3.373l0.522-2.635c0.257-1.298,0.232-2.686-0.158-4.001c-0.565-0.08-1.602-0.094-2.037,0.172
						c-1.702,1.044-3.631,2.253-4.922,3.866l-0.924,3.456c-0.276,1.032-0.521,1.911-0.77,2.966l-0.596,2.521
						c-0.119,0.503-0.437,1.273-0.482,1.753l-0.302,3.212l-0.194,1.993c-0.023,0.242-0.332,0.642-0.516,0.748
						c-0.137,0.079-0.539-0.014-0.526-0.172l0.063-0.765c0.079-0.96,0.07-1.913,0.046-2.904l0.221-1.546
						c0.071-0.496,0.152-0.942,0.273-1.463c0.654-2.82,0.088-2.332,0.888-6.242l0.391-1.908c0.029-0.14,0.005-0.668-0.114-0.629
						c-0.119,0.038-0.423,0.127-0.568,0.193l-1.769,0.797l-2.382,1.064l-1.709,0.71l1.138,1.076
						c0.017,0.972-0.097,2.016-0.312,2.976l-0.542,2.408c-0.076,0.338-0.26,0.896-0.35,1.186c0.218,2.132-0.798,4.302-1.019,5.523
						l-0.568,3.135l-0.281,1.279c-0.68,3.101-0.444,0.201-1.214,4.824l-0.096,0.578c-0.021,0.124-0.473-0.039-0.45-0.162
						l0.101-0.534l0.65-3.436l0.44-2.386l0.335-2.005l0.571-3.413l0.669-3.544c0.114-0.603,0.059-1.54,0.149-2.244
						c0.228-1.802,0.654-2.966-0.644-4.408c-0.911,0.381-1.672,0.694-2.475,1.084l-2.902,1.407c-0.6,0.291-1.742,0.749-2.008,1.294
						c-0.469,0.96-1.242,1.984-1.473,2.803l-1.572,5.595c-0.33,1.175-0.565,2.201-1.016,3.315c-0.485,1.197-0.671,2.623-0.992,3.934
						l-0.552,2.257l-0.587,1.408l-0.533,2.27l-0.626,2.614l-0.312,1.211l-0.535,1.983
						C194.197,292.593,193.879,293.691,193.617,294.989z M56.486,371.281c0.86,0.486,1.649,0.757,2.245,1.377
						c1.343,1.395,2.678,1.362,3.485,1.954l1.477,1.084l2.164,1.588c2.681,1.968,1.079-0.159,3.796,3.082
						c0.498,0.594,1.734,0.858,2.4,1.275c0.84,0.527,1.687,1.335,2.575,1.624l2.571,0.838c3.669,1.196,5.137,1.78,8.46,3.883
						c0.428,0.271,1.138,0.812,1.525,0.971c0.716,0.295,1.718,0.456,2.204,0.945c0.457,0.46,1.026,0.996,1.444,1.133l1.619,0.531
						c2.511,0.823,1.399,1.242,3.013,1.686c1.196,0.329,2.194,0.656,3.242,1.139l3.913,1.805l3.324,1.464l1.797,0.777l2.152,1
						l4.249,1.974c0.051-0.297,0.166-0.873,0.153-1.136l-0.112-2.269c-0.028-0.561-0.247-1.581-0.185-2.073l0.583-4.658l0.12-1.337
						c0.067-0.745-0.125-1.663-0.172-2.505c-0.097-1.768-0.088-3.959-0.026-5.578c0.015-0.406,0.366-1.241,0.43-1.596l0.451-2.474
						c0.225-1.237,0.182-5.123,0.063-6.619l-0.117-1.463c-0.028-0.355,0.253-1.13,0.266-1.48c0.004-4.015,0.885-3.331,0.66-7.047
						c-0.231-3.812,0.189-2.48,0.022-6.443c-0.086-2.022,0.168-1.467,0.237-4.041c0.029-1.08,0.217-4.534,0.367-5.424l0.539-3.191
						l0.393-0.904c-0.494-2.132-0.002-3.592,0.219-5.183l0.29-2.088c0.043-0.311,0.591-0.948,0.582-1.239
						c-0.518-1.1,0.847-2.152,0.908-3.224l0.171-3.011l0.102-1.845l0.167-3.084l0.196-2.034l0.313-1.733
						c0.126-0.699,0.043-1.551,0.168-2.266l0.31-1.778c0.132-0.757,0.152-2.152-0.127-2.782l-0.889-2.01l-2.839-1.11l-2.102-0.797
						l-2.089-0.777c-0.746-0.277-1.602-0.553-2.28-0.873l-1.96-0.924l-2.156-1.017c0.205,1.581,0.263,2.498,0.06,3.842l-0.285,1.882
						c-0.079,0.519-0.168,0.988-0.211,1.511l-0.193,2.303l-0.317,1.136l-0.346,3.034l-0.368,3.281
						c-0.133,1.19-0.258,2.449-0.298,3.671l-0.166,5.092l-0.074,2.039l-0.121,2.29l-0.113,2.118c0.16-0.052-0.22,0.072-0.61,0.199
						c0.08-0.717,0.171-1.502,0.152-2.284l-0.056-2.317c-0.011-0.458-0.029-0.975,0.005-1.397l0.163-2.046
						c0.025-0.317-0.044-0.97-0.047-1.324l-0.019-2.591c-0.005-0.64,0.06-1.37,0.144-2.057l0.317-2.59l0.267-1.982l0.151-3.982
						c0.039-1.043,0.432-2.416,0.496-4.274l0.089-2.537c0.013-0.376-0.133-1.261-0.242-1.617c-1.106-1.424,0.441-1.873-0.41-2.249
						l-2.983-1.319c-0.007-0.035,0.015,0.078,0.09,0.475c-0.005,0.253-0.149,0.85-0.388,1.011c-0.239,0.161-0.944,0.226-1.245,0.197
						c-3.268-0.312-3.843,0.629-7.2,0.811l-2.268,0.123c-0.455,0.025-1.481,0.191-1.911,0.385l-4.903,2.206
						c-1.033,0.465-2.024,1.065-3.135,1.404c-0.965,0.294-2.208,0.496-3.004,0.943l-2.584,1.45l-1.27,0.744
						c-1.419,0.831-3.214,1.669-4.816,2.052L68,313.308c-0.487,0.033-0.876,0.149-1.318,0.341l-3.217,1.399l-2.033,0.883
						c-0.43,0.187-1,0.511-1.472,0.758c-5.391,2.831-6.99,2.128-8.129,2.669l-2.149,1.022c-0.315,0.149-0.884,0.584-1.22,0.769
						l-2.59,1.429l-2.58,1.418l-1.911,0.965c-0.606,0.306-1.403,0.795-1.956,1.136c0.204,0.968,0.272,1.737,0.086,2.579
						l-0.581,2.616c-0.21,0.944-0.067,2.254-0.22,3.287c-0.1,0.677-0.038,1.165,0.269,1.667l-0.342,0.657
						c-0.125,0.24-0.668-0.521-0.68-0.808c-0.144-3.451-0.426-1.537-0.095-4.097c0.208-1.609,0.191-2.462-0.317-4.339
						c-0.166-0.615-1.543,0.213-2.062,0.457l-1.954,0.923c-0.582,0.275-1.472,0.591-2.015,0.813l-0.449,1.878
						c-0.635,2.658,0.415,1.377-0.088,4.389l-0.242,1.447l0.31,1.942c0.256,1.605,0.044,2.289,0.245,4.319l0.188,1.903
						c0.038,0.387,0.593,1.049,0.809,1.507l-0.817,0.859c-0.419-0.573-0.692-1.137-0.74-1.676l-0.235-2.645l-0.125-1.421l-0.2-2.292
						c-0.08-0.912-0.134-1.767-0.148-2.632l-0.039-2.529c-0.013-0.846-0.06-1.748-0.238-2.568l-0.354-1.623
						c-0.637,0.29-1.089,0.499-1.747,0.75l-2.091,0.8c-0.735,0.281-1.532,0.754-2.226,1.151l-2.564,1.466
						c-0.519,0.297-1.09,0.648-1.618,0.886l-2.612,1.175l0.08,5.708c0.014,0.981,0.411,2.204,0.739,3.286
						c0.21,0.693,1.591,0.91,2.32,1.011c0.799,0.11,1.508,0.578,2.23,0.843l1.529,0.561l-0.215-1.533
						c-0.1-0.711-0.475-1.839-0.496-2.44l-0.111-3.164l-0.131-3.731c-0.02-0.565-0.1-1.238-0.153-1.811l-0.057-0.612
						c-0.012-0.125,0.499-0.21,0.521-0.082l0.203,1.21c0.68,4.059,0.109,5.775,0.645,10.675c0.044,0.4,0.026,1.372,0.291,1.59
						c1.861,1.535,2.655,1.467,5.34,3.419l1.824,1.326l1.181,0.852l1.652,1.201l2.189,1.529c0.225,0.157,0.638,0.432,0.826,0.524
						c4.206,2.048,0.757,0.336,3.863,2.477c0.693,0.478,1.291,0.995,1.898,1.48l1.929,1.539l1.469,1.123
						c0.345,0.263,1.043,0.597,1.361,0.862l2.813,2.35l1.415,1.181c0.418,0.349,0.716,0.604,1.188,0.753
						C54.176,369.476,55.212,370.56,56.486,371.281z M12.362,342.226l1.561,1.305c0.865,0.723,1.56,1.385,2.31,2.261l-0.352-3.682
						c-0.052-0.538-0.139-1.165-0.236-1.762l-0.326-1.995c-0.049-0.299-1.057-0.226-1.234,0.035l-1.31,1.929l-2.327-0.483
						l-0.735,0.688C10.686,341.056,11.595,341.585,12.362,342.226z M205.356,358.873c-0.934,4.39,0.234,2.104-0.299,6.9l-0.25,2.25
						c-0.064,0.572-0.172,1.953,0.356,2.223l1.801,0.922l1.712,0.875c0.256,0.131,1.184-0.034,1.21-0.32l0.091-0.981l0.225-2.429
						l0.305-1.251l0.253-2.389c0.419-3.967-0.254-1.809,0.839-5.642c0.205-0.719,0.333-1.503,0.548-2.601
						c-0.247-0.079-1.042,0-1.3,0.193c-0.214,0.161-0.359,0.719-0.353,0.989l0.036,1.611c0.034,1.548-0.051,4.016-0.37,5.43
						l-0.461,2.041c-0.011,0.168,0.045,0.424-0.05,0.498l-0.392,0.302l-0.123-1.806c-0.033-0.489,0.163-1.345,0.247-1.878
						l-0.316-0.674c0.079-0.612,0.317-1.639,0.214-2.135l-0.367-1.781l-0.376-1.842l-1.738,0.506
						C206.439,357.987,205.449,358.436,205.356,358.873z M201.851,368.871l1.873,0.987c-0.558-3.294,0.32-0.708-0.006-4.438
						l-0.066-0.759c-0.371-4.253,0.408-1.49-0.193-5.233l-1.129,0.352c-0.304,0.095-0.998,0.173-1.275,0.205
						c-0.491,0.377-1.003,0.709-1.825,1.153l0.465,1.053c-0.079,0.71-0.401,1.893-0.382,2.654l0.048,1.942
						c0.006,0.253,0.25,0.905,0.296,1.11C200.259,368.157,201.236,368.547,201.851,368.871z M196.99,366.858
						c0.204,0.098,0.71,0.279,0.687,0.1l-0.081-0.653l-0.202-1.637c-0.128-1.041-0.141-1.831-0.03-2.99
						c-0.861,0.216-2.041,0.718-2.849,1.312l-2.347,1.725C194.732,366.324,194.315,365.573,196.99,366.858z M150.773,424.285
						c0.623-0.742,0.83-0.983,1.175-1.29l1.244-1.107c-0.649-0.59-2.83,0.344-3.355,0.633l-1.458,0.806
						C148.942,423.869,150.146,424.346,150.773,424.285z"/>
					<path d="M202.765,285.473c-0.625,3.471-0.057,2.589-0.815,5.153c-0.712-1.527-0.356-4.019-0.068-6.036l0.404-2.835l0.289-2.012
						l0.28-1.968c0.053-0.376-0.094-1.253-0.012-1.644l0.517-2.454c0.164-0.777,0.16-1.823,0.236-2.691l0.207-2.362
						c0.197-2.255,0.714-0.529,0.636-3.33c-0.018-0.644,0.18-1.229,0.701-1.462c0.536-0.239,1.422,0.348,1.402,0.895l-0.057,1.573
						c-0.025,0.682-0.206,1.751-0.431,2.346c-1.267,3.344,0.073,0.603-0.914,4.785l-0.709,3.001
						c-0.069,0.291,0.053,1.04,0.085,1.289l-0.543,0.365c0.016-0.011-0.174,2.224-0.293,2.79l-0.598,2.839L202.765,285.473z"/>
				</g>
				<g>
					<path d="M242.206,199.975c-0.649,0.705-1.833,0.065-1.968-0.169c-0.14-0.242-0.146-0.872-0.069-1.162l0.388-1.462l0.322-1.477
						c0.205-0.591,0.477-1.383,0.737-1.98l2.685-6.147l0.631-1.414l0.095-0.758l0.568-1.459l1.118-2.871l0.885-2.269l1.111-2.863
						l0.65-1.635c1.354-3.406,0.004-0.971,1.534-4.115l1.233-2.532c0.246-0.505,0.656-1.083,0.984-1.609
						c0.274-0.439,0.448-1.504,0.72-2.047c0.434-0.87,0.865-1.682,1.18-2.51l0.807-2.125c0.137-0.361,0.466-0.925,0.706-1.263
						l1.789-2.515c0.266-0.374,0.645-1.279,0.78-1.792c0.204-0.776-0.862-3.092-1.144-4.038l-0.737-2.47l-0.583-2.04
						c-0.14-0.489-0.265-1.064-0.36-1.597l-0.647-3.645l-0.215-1.787l-0.658-3.633c-0.478-2.64-1.037-3.378-1.408-6.131l-0.509-3.78
						c-0.075-0.559-0.291-1.108-0.341-1.764l-0.307-4.019c-0.029-0.377-0.277-0.984-0.269-1.275
						c0.067-2.193,0.006-2.833-0.468-5.062l-0.668-3.138l-1.145-5.156c-0.129-0.583-0.216-3.3-0.37-4.922l-0.244-2.562
						c-0.48-5.047-0.529-3.512-1.181-7.996l-0.506-3.48c-0.222-1.525-0.28-2.916-1.543-4.215l1.501-2.502l1.065-1.776
						c0.566-0.944,1.472-2.596,1.847-3.569l0.565-1.467c0.089-0.232,0.641-0.668,0.781-0.794c0.033-0.372,0.115-0.895,0.229-1.284
						l1.319-4.482c0.276-0.937,0.644-1.994,1.014-2.911l0.747-1.85c0.436-1.08,0.753-2.088,1.071-3.244
						c0.652-2.37,0.623-1.168,1.395-3.068l1.397-3.438c0.786-1.934,0.281-2.815-0.006-4.118l1.302-0.24
						c1.121,0.905,1.125,2.708,0.624,3.35c-0.415,0.533-0.926,1.192-1.106,1.788l-0.871,2.885l-0.792,1.66l-0.776,2.346
						l-0.724,2.179l-1.101,3.168l-0.823,2.365c0.351-1.009-1.421,5.275-1.083,3.697l-0.275,1.282l-0.661,1.57l-0.677,1.606
						l-0.732,1.877c-0.558,1.431-1.995,3.731-2.052,4.431c-0.105,1.293-0.151,2.94,0.001,4.209l0.277,2.305l0.293,2.293l0.34,2.229
						c0.198,1.296,0.402,2.459,0.548,3.767c0.37,3.321-0.522,1.837,0.052,4.045l0.542,2.086c0.848,3.262,0.146,1.82,0.639,4.805
						c0.388,2.348,0.664,0.523,0.73,3.874c0.605,1.342,0.757,2.578,0.88,4.057l0.261,3.14l0.285,3.435
						c0.1,1.199,0.277,2.534,0.512,3.668l0.593,2.865c0.414,1.999,1.03,3.981,1.333,5.986l0.453,2.996l0.344,2.319l0.542,2.646
						l0.556,2.537c0.112,0.513,0.371,1.14,0.563,1.661l0.6,1.632l0.815,2.37l0.374,1.076c0.903,1.253,1.157,2.537,0.85,4.066
						c-0.474,2.36-1.504,2.346-2.59,4.217l-0.977,1.683l-0.574,0.988l-1.078,1.6c-1.681,2.495-0.832,1.972-2.439,4.707
						c-0.257,0.437-0.498,0.873-0.708,1.33l-1.072,2.339l-0.742,1.742l-1.305,3.301L249.317,178l-0.616,1.647l-0.649,1.727
						l-1.385,3.75l-1.545,3.835c-0.527,1.308-0.995,2.703-1.298,4.055l-0.473,2.112c-0.208,0.93-0.435,1.872-0.599,2.815
						C242.636,198.599,242.907,199.213,242.206,199.975z"/>
					<g>
						<path d="M247.145,254.723l-0.033,0.689c-0.01,0.199-0.535,0.401-0.794,0.425l0.21-1.778c0.077-0.653,0.162-1.349,0.195-1.946
							l0.097-1.773c0.118-2.16,0.102-4.303,0.013-6.499c-0.032-0.791-0.007-1.329,0.171-2.18c0.498,0.37,1.048,0.817,1.046,1.141
							l-0.034,6.152c-0.003,0.537-0.31,1.441-0.357,1.929l-0.205,2.124C247.401,253.541,247.287,254.079,247.145,254.723z"/>
						<path d="M249.888,276.266l-0.193,1.204c0.138,0.516-0.384,0.311-0.625-0.084l0.455-1.896l0.037-2.831l-0.006-2.564
							c-0.002-1.034,0.009-1.67,0.095-3.056l0.695,0.24l-0.056,5.099l-0.304,1.52C249.871,274.475,250.001,275.566,249.888,276.266z
							"/>
						<path d="M172.461,211.112c-0.004,0.092-0.127,0.546-0.177,0.471c-0.05-0.075-0.393-0.312-0.393-0.4l0.004-1.377l-0.009-1.88
							c-0.004-0.892,0.004-1.788,0.111-2.681l0.227-1.894l0.273-2.282c0.465-0.504,0.46-0.254,0.4,0.275
							c0.228,2.612-0.201,2.649-0.292,5.654l-0.081,2.644L172.461,211.112z"/>
					</g>
				</g>
			</g>
		</g>
	</g>
</g>
</svg>
