<?xml version="1.0" encoding="iso-8859-1"?>
<!-- Generator: Adobe Illustrator 30.2.1, SVG Export Plug-In . SVG Version: 9.03 Build 0)  -->
<svg version="1.1" id="Layer_1" xmlns="http://www.w3.org/2000/svg" xmlns:xlink="http://www.w3.org/1999/xlink" x="0px" y="0px"
	 viewBox="0 0 544 207.143" style="enable-background:new 0 0 544 207.143;" xml:space="preserve">
<g id="rUw9vJ.tif">
	<g>
		<path d="M126.202,141.515c-0.661,0.909-1.776,2.065-2.875,1.609c-0.981-0.408,0.664-2.493,1.194-3.037l1.4-1.437l1.397-1.47
			c1.898-1.997,1.46-2.138,3.562-4.146c0.809-0.774,1.433-1.796,1.744-2.783l1.374-0.015l0.585,1.356l-2.403,2.139l-0.968,1.617
			l-1.293,1.34c-0.345,0.358-0.901,0.954-1.162,1.314l-1.344,1.85L126.202,141.515z"/>
		<path d="M35.813,26.511l-3.372-1.041c-0.349-0.108-0.95-0.678-1.272-1.024c-0.241-0.259,0.137-1.449,0.5-1.317
			c0.773,0.281,1.992,0.841,2.725,1.206l2.184,1.088L35.813,26.511z"/>
		<path d="M497.504,26.581c-0.293,0.112-0.679,0.009-1.124-0.17l0.085-0.794c1.281-0.795,3.984-2.273,5.179-2.196l0.708,0.103
			c0.215,0.031,0.315,0.95,0.215,1.112l-2.356,0.907L497.504,26.581z"/>
		<g>
			<g>
				<path d="M444.909,0c0.47,0.878,2.976,0.729,3.715,0.733l2.403,0.011c0.454,0.002,1.159-0.083,1.566-0.057
					c0.872,0.054,1.739,0.184,2.578,0.173l3.386-0.043l2.973-0.107c1.24-0.045,1.722-0.086,3,0.014l3.411,0.267l0.73,0.257
					c1.587-0.332,2.779,0.338,4.203,0.396l4.008,0.163l2.573,0.181l2.538,0.115l1.153-0.243c2.503,0.159,1.623-0.389,5.103-0.053
					c1.955,0.189,2.977,0.063,5.49,0.188l2.598,0.129c0.814,0.04,1.762-0.09,2.575,0.033l1.62,0.245
					c0.434,0.186,0.826,0.316,1.184,0.288l2.88-0.225c0.93-0.073,1.742-0.056,2.597,0.332c1.036-0.617,2.274-0.682,3.316-0.138
					l1.289,0.091c1.432,0.102,2.676,0.531,4.007,1.195c1.578,0.786,1.582-0.272,4.043,1.176l2.228-0.836
					c0.593-0.223,2.103-0.571,2.491-0.087l1.06,1.321c-0.187,1.181-0.211,2.455-0.025,3.662l0.388,2.523
					c0.294,1.907,0.642,3.781,0.834,5.676l0.265,2.615l0.133,2.504l0.294,1.978l0.289,2.051c0.132,0.935,0.146,1.873,0.212,2.861
					l0.19,2.87l0.193,2.57c0.054,0.72,0.038,1.525,0.132,2.256l0.262,2.036l0.141,1.923l0.293,1.979l0.294,2.05
					c0.118,0.825,0.205,1.717,0.212,2.559l0.026,3.089c0.011,1.257,0.04,2.482,0.116,3.731l0.073,1.198l0.141,3.675l0.279,2.573
					l0.269,2.304l0.469,3.684l0.263,2.604l0.285,2.564l0.273,2.298l0.166,2.238l0.189,2.011l0.217,2.307l0.154,2.806l0.264,2.316
					l0.468,3.419c0.114,0.833,0.164,1.773,0.192,2.572l0.07,2.045c0.041,1.211,0.072,2.423,0.023,3.643l-0.059,1.474l0.006,1.154
					l0.049,2.306l0.083,2.177l0.217,1.2c0.148,0.819,0.02,1.96,0.113,2.798l0.26,2.331l0.461,2.853l0.296,2.013
					c0.084,0.575,0.13,1.336,0.147,1.892l0.047,1.58c0.069,2.34-0.22,2.574-0.059,5.797l0.094,1.875l0.172,2.819
					c0.079,1.295,0.181,2.66,0.363,3.908c0.188,1.296,0.428,2.465,0.455,3.771c0.054,2.631,0.357,2.715,0.438,5.127l0.058,1.735
					c0.028,0.838,0.046,1.737,0.131,2.533l0.277,2.585l0.184,1.717l0.249,2.304l0.286,2.283l0.377,2.454l0.3,1.995l0.251,1.799
					l0.343,2.013c0.25,1.465,0.76,2.955,1.225,4.389l0.838,2.582l0.862,2.575c0.26,0.775,0.532,1.606,0.724,2.449l0.772,3.394
					c0.036,0.157,0.366,0.606,0.373,0.586v0.571l-0.581,1.603c-0.018,0.05-0.36,0.247-0.395,0.285l-0.254,0.267
					c-0.869,0.913-1.516-1.589-1.536-1.64c-0.397-1.032-0.787-2.092-1.237-3.086l-1.088-2.401l-0.196-0.435
					c-0.042-0.093-0.19-0.343-0.225-0.442l-1.624-4.688l-0.785-2.386l-0.133-0.408l-1.195-3.391l-0.442-1.243l-0.684-2.143
					l-1.12-3.427l-0.735-2.192l-0.364-1.052c-0.021-0.06,0.015-0.57-0.019-0.631c-0.251-0.453-0.919-1.42-1.101-1.938
					c-0.667-1.904-1.304-3.72-2.181-5.509l-0.965-1.969c-0.268-0.547-0.505-1.232-0.719-1.845l-0.982-2.801
					c-0.053-0.15-0.214-0.485-0.277-0.613l-0.203-0.413c-0.061-0.192-0.141-0.456-0.168-0.52l-1.636-3.804l-0.651-1.371l-0.79-1.158
					l-1.253-2.432l-0.919-1.716c-1.301-2.429-0.229-1.445-1.306-3.074l-0.346-0.523c-0.472-2.181-2.124-3.931-2.327-4.65
					l-0.134-0.472c-0.016-0.057-0.131-0.311-0.163-0.362l-0.23-0.363c-0.27-0.427-0.073-0.517-0.284-0.946
					c-0.566-1.147-1.265-2.674-1.694-3.933l-0.601-1.764c-0.55-1.615-1.069-2.121-1.933-3.967l-1.003-2.143
					c-0.142-0.304-0.41-0.847-0.621-1.066c-2.256-2.346-0.999-1.997-2.668-4.763c-0.412-0.683-0.799-1.343-1.089-2.019l-0.867-2.018
					l-0.397-0.967l-1.065-2.701l-0.403-1.001l-0.266-0.613c-1.482-3.421-1.462-2.718-2.477-4.958l-0.811-1.79
					c-0.191-0.422-0.377-0.936-0.546-1.406l-0.673-1.876l-1.048-2.922c-0.681-1.9-1.27-3.738-2.166-5.558l-0.679-1.378l-1.361-2.919
					c-0.308-0.661-0.556-1.362-0.795-2.057l-0.53-1.542l-0.583-1.267l-0.56-1.436c-0.72-1.848,0.595,0.177-0.798-1.844
					c-0.461-0.67-0.812-1.54-1.001-2.378c-0.547-2.423-0.411-0.844-1.482-3.971l-0.363-1.06c-0.027-0.079-0.04-0.461-0.078-0.512
					l-0.375-0.49c0.118,0.155-0.932-1.864-0.845-1.619l-0.608-1.718c-0.929-1.026-1.608-2.056-2.295-3.196l-1.391-2.31
					c-0.483-0.802-1.098-1.535-1.652-2.31l-2.153-3.011l-1.977-2.602c-1.37-1.803-2.272-2.609-3.996-4.833l-1.127-1.454
					l-1.144-1.411l-1.345-1.533l-1.645-1.938l-0.768-0.499l-0.74-0.95c-0.703-0.903-1.765-2.848-2.812-3.3l-2.9-1.253
					c-0.541-0.234-0.994-0.506-1.496-0.825c-3.117-1.984-7.781-2.542-11.363-2.138l-2.103,0.237l-3.119,0.496
					c-2.277,0.362-3.702,0.004-4.63,0.159l-1.597,0.266l-1.73,0.288c-0.318,0.053-0.967,0.452-1.308,0.562l-2.036,0.652
					c-0.207,0.066-0.757,0.315-0.975,0.347l-1.348,0.201c-2.501,0.373-1.537-0.703-4.836-0.379
					c-1.976,0.194,0.081-0.287-2.426,0.106l-2.321,0.364c-0.367,0.058-1.047,0.331-1.469,0.448l-4.541,1.26l-2.313,0.805
					c-1.009,0.351-2.07,0.809-2.996,1.275l-1.914,0.963l-3.088,1.729c-2.711,1.518-0.653,1.107-4.043,2.262
					c-3.281,2.823-1.067,0.596-4.033,2.281c-0.241,0.137-0.75,0.332-0.998,0.275c-2.218-0.506-2.346,0.592-3.988,1.233l-2.498,0.974
					c-0.708,0.276-1.598,0.56-2.238,0.876l-2.299,1.138c-1.822,0.902-2.788,2.003-4.016,3.707c-0.415,0.576-0.882,1.253-1.2,1.872
					l-1.277,2.491c-0.421,0.821-0.875,1.638-1.193,2.496l-1.078,2.914c-0.337,0.912-0.692,2.073-0.883,3.025l-0.533,2.651
					l-0.396,2.19c-0.2,1.106-0.536,2.354-0.513,2.657l0.119,1.616c0.071,0.969,0.124,2.169-0.006,3.074l-0.291,2.036
					c-0.648,4.534,0.098,4.583,0.122,8.056l0.021,3.026c0.008,1.081,0.137,1.231,0.163,3.542l0.026,2.28
					c0.007,0.624,0.542,2.991,0.394,2.628l0.368,0.902l0.196,2.923l0.264,2.626c0.054,0.542,0.218,1.313,0.357,1.867l0.647,2.58
					c0.196,0.782,0.659,1.708,0.759,2.544c0.267,2.229,1.078,4.114,1.728,6.196l0.89,2.849l0.528,1.774
					c0.45,1.512,0.661,3.175,1.477,4.626c1.516,2.694,3.135,5.466,4.495,8.254c0.085,0.175,0.155,0.723,0.255,0.882l0.676,1.076
					l0.892,1.421c1.022,1.628,2.353,3.75,3.016,5.534c0.507,1.365,1.358,2.631,1.962,3.933c1.469,3.166,0.726,1.264,2.196,4.156
					l0.851,1.675c0.736,1.448,2.302,0.187,2.178,2.902c-0.049,1.079,1.37,3.686,2.24,4.713l1.58,1.866
					c1.243,0.384,2.1,0.45,2.916-0.334c2.088-2.007,1.904-1.825,3.56-4.219c0.868-1.256,2.696-1.978,3.586-2.011l4.8-0.177
					c0.847-0.031,1.904-0.434,2.552,0.437l0.985,1.324c0.458,0.616,1.067,1.31,1.427,1.923l1.003,1.706
					c0.186,0.317,0.764,0.765,1.087,1.106c1.25,1.32,2.204,2.637,3.35,4.157l1.223-0.742c0.564-0.342,1.223-0.769,1.862-0.894
					l2.381-0.464c0.926-0.181,0.828-0.924,1.116-1.145l1.561-0.382c0.355-0.356,1.563,2.033,0.574,2.416l-0.418,0.162l-0.421,0.163
					l-1.012,0.389c0.081-0.031-1.04,0.55-0.819,0.49l-3.26,0.887c-0.263,0.071-0.774,0.503-0.872,0.752
					c-0.218,0.551,0.595,1.008,0.804,1.361l1.011,1.706l1.146,2.03c0.892,1.58,2.046,2.144,2.601,3.892l0.5,1.577
					c0.505,1.59,1.111,3.16,1.996,4.567c0.742,1.179,1.301,2.285,1.942,3.535l2.188,4.265l0.809,1.005l1.069,2.076
					c0.221,0.43,0.275,1.266-0.063,1.573c-0.26,0.236-1.039,0.443-1.42,0.512c-0.782,0.14,0.125,0.341-0.536,2.164l-0.171,0.471
					l-0.153,0.451l-0.157,0.474c-0.224,0.673-0.406,0.664-0.417,1.231l-0.011,0.571l-0.015,0.564
					c-0.011,0.413-0.245,0.826-0.247,0.977l-0.029,2.958c-0.001,0.063-0.154,0.466-0.177,0.567l-0.445,1.988
					c-0.014,0.065,0.078,0.523,0.095,0.594l0.34,1.467c0.059,0.256,0.296,0.795,0.371,1.019c0.075,0.224-0.479,0.64-0.688,0.752
					l-1.577,0.847c-0.512,0.275-4.65,0.1-7.135,0.726c-0.345,0.087-0.917,0.303-1.183,0.331c-2.035,0.21-0.536-0.808-5.828,0.225
					c0.528-0.103-3.264,0.009-3.745,0.055l-2.365,0.229l-2.8,0.184c-0.544,0.036-1.345,0.2-1.917,0.327l-3.744,0.831
					c-1.491,0.331-2.857,0.218-4.333,0.149l-2.642-0.123c-3.168-0.147-2.239,0.443-3.855,0.399c-3.268-0.089-2.47,0.221-5.093-0.241
					l-2.28-0.401c-0.867-0.153-2.245,0.277-3.21,0.374l-2.629,0.264c-0.54,0.054-1.243,0.162-1.675,0.17l-2.102,0.035
					c-0.748,0.012-1.893-0.309-2.746-0.408l-1.821-0.211c-3.8-0.441-5.706,0.411-7.322,0.427l-9.98,0.1l-1.369,0.175
					c-0.939,0.12-1.826,0.048-2.727-0.01l-1.974-0.127l-2.768-0.204c-0.716-0.053-1.389-0.07-2.093-0.008l-2.756,0.241l-1.495,0.14
					c-0.574,0.054-1.494,0.186-1.954,0.149l-2.582-0.207l-2.61-0.209c-0.568-0.046-1.489-0.144-1.95-0.103l-3.06,0.27
					c-0.731,0.065-1.422,0.057-2.199,0.059c-1.634,0.005-1.866,0.613-5.323,0.315l-1.275-0.11l-2.835-0.316
					c-0.974-0.109-2.796,0.029-3.378,0.061l-3.645,0.202l-2.345-0.147l-2.254,0.035c-1.567,0.024-3.064,0.201-4.569,0.413
					l-1.181,0.167c-3.595,0.508-2.78,0.119-5.995,0.487l-2.869,0.328c-3.602,0.412-1.793-0.472-5.661-0.047l-2.408,0.265
					c-1.118,0.123-2.459,0.594-3.565,0.623l-5.156,0.139l-1.706-0.002l-6.024-0.112l-3.102-0.214l-2.655-0.177
					c-2.527-0.168-1.245,0.269-3.653,0.161l-2.483-0.111c-0.97-0.044-1.729,0.03-2.74-0.084c-0.44-0.049-1.181,0.088-1.664,0.103
					l-5.404,0.161c-0.629,0.019-1.547,0.216-2.24,0.285l-2.31,0.228c-0.571,0.056-1.236,0.089-1.695,0.088l-2.312-0.007
					c-0.645-0.002-1.529-0.092-2.25-0.167l-2.336-0.244c-0.348-0.036-1.106-0.142-1.408-0.103l-3.91,0.513
					c-0.807,0.106-1.545,0.151-2.369,0.203l-2.572,0.163c-1.008,0.064-3.41-0.923-6.894-0.29l-3.19,0.58
					c-0.938,0.17-2.311,0.209-3.324,0.066l-3.409-0.479l-2.734-0.214c-0.537-0.042-1.603,0.274-2.238,0.324l-2.196,0.171
					c-1.941,0.151-3.688-0.583-5.555-0.633l-4.059-0.11l-3.885,0.256l-2.206-0.001c-0.671,0-1.316-0.011-1.991-0.05l-3.384-0.195
					c-1.765-0.102-3.597,0.134-4.276,0.03l-2.919-0.445c-0.702-0.107-1.573-0.221-2.209-0.181l-1.798,0.113
					c-3.479,0.219-1.333,0.863-4.918,0.409c-2.513-0.318-4.346,0.29-6.473,0.398l-3.84,0.194c-0.739,0.037-1.872-0.305-2.712-0.365
					l-3.185-0.229c-0.521-0.038-1.633,0.194-2.228,0.264l-2.36,0.278c-0.443,0.052-1.15,0.023-1.65-0.018l-2.905-0.237l-3.124-0.176
					l-1.952-0.073l-1.81,0.074l-8.759,0.153l-2.026,0.265l-2.79,0.108c-1.325,0.051-2.623-0.224-3.975-0.571
					c-1.795-0.461-2.284,0.412-6.073,0.052l-2.634-0.25c-0.861-0.082-1.861,0.215-2.704,0.397l-4.042,0.873l-1.514-1.016
					l0.124-4.216c0.086-2.925,0.277-0.27,0.388-3.043l0.073-1.819c0.058-1.46,0.729-0.885,0.397-1.422l-0.431-0.698
					c-0.087-0.142,0.283-0.458,0.421-0.59l0.909-0.865c0.953-0.907,2.076-1.86,3.385-2.238l2.895-0.835
					c0.196-0.057,0.752-0.334,0.768-0.532l0.067-0.819l0.115-1.403l0.197-2.397c-2.246-1.813,0.226-1.268-0.348-4.133
					c-0.236-1.18,1.759-0.276,2.447-2.319l0.433-1.285c0.306-0.908,0.627-1.881,0.861-2.807l0.93-3.675
					c0.136-0.539,0.28-1.001,0.494-1.654l-0.059-0.428c-0.889-0.264-1.144-0.935-1.454-1.061c-1.821-0.736-2.68-0.167-4.703-0.942
					l-0.188-0.62c0.343-0.512,0.914-1.253,1.38-1.189l2.352,0.32c1.484,0.202,2.922,0.726,4.043,2.13
					c-0.044,0.037,0.188-0.159,0.385-0.325l0.453-1.541c0.676-2.299,1.638-4.143,3.041-6.13c0.384-0.544,1.634-1.557,2.216-1.279
					c0.892,0.426,1.765,0.915,2.554,1.209l1.732,0.645c1.146,0.427,2.273,0.73,3.491,1.061l2.232,0.606l2.01,0.588
					c1.378,0.403,1.73,1.3,2.522,0.247l1.848-2.455l2.291-2.483l1-1.325c0.837-1.109,1.958-2.271,2.271-2.745
					c0.482-0.729,0.865-1.292,1.386-1.859l0.62-1.153c0.807-0.984,2.129-2.019,2.82-3.064c1.06-1.603,2.462-2.476,3.641-3.85
					l3.154-3.675l1.595-1.579c0.639-0.632,1.172-1.229,1.795-1.951c0.278-0.322,0.842-0.732,1.172-1.05l3.664-3.519
					c0.29-0.278,0.908-0.691,1.257-0.976l3.309-2.705l1.554-1.295l2.011-1.703c0.619-0.524,1.236-1.036,1.824-1.601l1.458-1.402
					l1.181-1.098c2.168-2.016,2.213-2.278,3.992-3.988l2.188-2.104l2.268-2.293c1.46-1.476,3.689-4.677,4.97-6.472l0.838-1.174
					c0.488-0.683,0.861-1.358,1.203-2.247c0.197-0.512,0.844-1.188,1.14-1.641c0.249-0.381,0.504-1.322,0.734-1.79l0.774-1.579
					c0.305-0.623,1.799-4.619,1.827-5.405c-0.114-0.312-0.341-1.03-0.438-1.325l-0.784-2.374c-0.102-0.308-0.62-0.945-0.765-1.265
					l-0.987-2.175c-0.027-0.06-0.984-1.989-0.497-2.005c-0.348,0.011-1.922-0.686-1.892-2.435c0.027-1.612-0.386-0.047-1.93-2.847
					c-0.475-0.861-2.199-3.638-2.665-4.207c-0.27-0.33-0.767-0.772-0.911-1.054c-0.918-1.782-1.371-2.662-2.745-4.148l-2.071-2.238
					c-0.359-0.388-0.734-0.773-1.122-1.141l-1.174-1.115c-0.391-0.372-0.76-0.739-1.179-1.096l-1.083-0.923l-2.538-2.327
					l-1.623-1.504l-1.846-1.941c-1.021-1.073-3.63-2.806-5.077-3.699c-0.568-0.351-1.23-0.703-1.735-1.087l-1.792-1.363
					l-1.314-0.999l-1.439-1.124l-1.267-1.012c-1.088-0.869-2.233-1.559-3.425-2.321c-0.963-0.615-2.026-1.018-3.083-1.471
					l-4.796-2.055c-1.703-0.73-4.706-1.531-6.567-1.732l-2.883-0.311c-4.274-0.461-6.661-2.212-10.616-1.445l-2.877,0.558
					l-1.628,0.087c-0.656,0.035-1.246,0.248-1.806,0.379l-0.922,0.126l-2.097,0.816c-3.161,1.23-2.841,1.817-5.488,3.278
					l-3.497,1.929l-1.65,0.913l-1.417,0.857l-1.419,0.89c-0.51,0.32-1.09,0.642-1.635,0.918l-1.936,0.981
					c-1.772,0.898-5.807,3.823-7.312,5.186l-1.931,1.75l-1.568,1.315l-1.573,1.268l-1.473,1.086l-1.346,0.966
					c-2.477,1.777-1.306,1.397-3.754,3.63c-0.484,0.442-1.111,0.913-1.467,1.364l-1.415,1.792l-1.009,1.256l-1.381,1.713
					l-2.193,3.008c-0.29,0.398-0.681,0.849-1.019,1.236l-1.744,1.996c-0.563,0.645-1.086,1.352-1.637,2.069
					c-1.458,1.902-0.912,0.656-2.267,2.809c-1.493,2.373-1.494,1.899-3.008,4.181l-1.269,1.913c-0.53,0.798-1.326,1.496-1.922,2.324
					l-0.83,1.153c-0.59,0.554-0.985,1.069-1.452,1.7l-1.571,2.119c-1.19,1.606-2.332,3.176-3.611,4.692
					c-0.713,0.845-1.369,1.64-1.997,2.576l-1.701,2.54l-1.379,2.047l-1.544,2.207c-0.53,0.758-0.879,1.513-1.423,2.343l-1.647,2.516
					c-0.594,0.908-0.991,1.848-1.636,2.667l-2.019,2.567c-0.223,0.284-1.497,2.456-2.477,3.791l-1.222,1.667
					c-0.479,0.653-0.92,1.378-1.364,2.074l-1.557,2.439c-1.942,3.041-0.883,2.268-1.489,3.381l-1.291,2.372l-1.271,2.409
					l-1.811,3.303l-2.097,3.298l-1.249,2.254c-1.389,2.507-0.738,0.022-1.337,2.416c-0.358,1.432-0.439-0.208-1.59,2.953
					c-0.946,2.598,0.073,0.998-1.117,2.806l-0.613,0.932c-1.27,1.931-0.326,0.714-1.409,3.34l-0.934,2.263
					c-0.173,0.42-0.537,1.089-0.653,1.468l-0.621,2.034l-0.541,1.784l-1.149,3.751l-0.883,2.841
					c-0.321,1.033-0.604,2.063-0.829,3.144c-0.31,1.491-1.875,2.397-3.225,1.972c-1.25-2.216-0.585-2.944-0.503-4.781l0.165-3.709
					c0.035-0.784,0.402-1.737,0.447-2.588l0.1-1.915l0.466-2.663c0.104-0.593,0.237-1.379,0.265-1.947l0.172-3.424l0.165-2.29
					l0.224-3.457c0.08-1.227-0.167-2.661-0.02-3.823c0.071-0.565,0.162-1.02,0.15-1.548c-0.108-4.647-0.14-3.862,0.339-8.238
					c0.077-0.7,0.052-1.37,0.096-2.05l0.131-2.035c0.022-0.338,0.256-1.103,0.314-1.433l0.039-3.061
					c0.008-0.597,0.183-1.575,0.161-2.091c-0.026-0.618-0.156-1.272-0.088-1.986c0.177-1.85-0.021-3.771,0.294-5.501
					c0.104-0.573,0.2-1.065,0.246-1.606l0.195-2.27c0.29-3.382-0.295-0.051,0.449-3.767c0.06-0.302-0.113-1.101-0.104-1.412
					l0.05-1.834l0.11-2.682l0.089-2.235l0.121-1.515l0.143-5.355l0.273-2.342l-0.029-2.524l0.06-2.02
					c0.097-3.272,0.228-0.425,0.388-3.207c0.017-0.29,0.079-0.795,0.08-1.043l0.029-6.589c0.003-0.605-0.076-1.397-0.042-1.894
					c0.122-1.794,0.102-3.414,0.021-5.166l-0.118-2.554c-0.023-0.493,0.115-1.174,0.132-1.576l0.107-2.509
					c0.112-2.621-0.037-2.518,0.075-5.708l0.208-5.957c0.043-1.235,0.184-2.282,0.012-3.512c-0.124-0.883-0.096-1.845-0.046-2.727
					c0.154-2.715,0.446-1.207,0.038-3.825C5.815,39.9,6.543,41.251,6.5,36.803l-0.021-2.169c-0.004-0.387-0.028-0.878-0.011-1.226
					c0.231-4.754-0.534-1.637,0.026-6.352c0.107-0.903-0.111-2.104-0.095-3.051l0.056-3.215l0.005-3.622
					c0.001-0.585-0.032-1.202-0.071-1.801l-0.111-1.682l-0.192-2.279L5.916,7.182C5.901,6.798,5.595,5.785,5.774,5.397
					c0.308-0.668,1.695-0.951,2.46-0.818l3.225,0.558l2.52,0.362l2.291,0.214l2.593,0.191l4.546,0.17
					c0.817,0.031,1.683,0.199,2.517,0.318c2.943,0.417,1.257-0.358,3.718-0.397c1.05-0.017,1.958-0.004,2.881-0.095
					c4.132-0.407,0.951,0.598,5.994,0.43l4.54-0.15l1.751-0.101c4.402-0.254,3.22,0.477,7.133,0.13l2.597-0.23l2.296-0.168
					L60.2,5.576c0.919-0.064,1.753-0.031,2.685,0.012l4.218,0.194l1.687,0.057c0.992,0.033,1.947-0.121,2.944-0.333l1.064,0.15
					l2.29-0.306l2.294-0.306c1.162-0.155,2.292-0.141,3.437-0.128l1.945,0.023l1.536,0.118c2.347,0.18,4.673,0.092,7.02,0.005
					l1.518-0.057l1.02,0.023c0.692,0.016,1.406-0.042,2.156-0.082c5.495-0.29,7.617,0.123,12.451,0.107l1.813-0.006l1.439-0.189
					l8.797,0.032l1.705,0l3.993,0.005l1.43,0.041l1.679,0.031l1.468-0.048l6.511-0.164c0.784-0.02,1.709-0.221,2.425-0.064
					c0.49,0.107,0.949,0.21,1.251,0.227l2.156,0.127c2.421,0.143,5.8-0.08,7.017,0.165c2.56,0.515,0.483-0.238,4.028,0.029
					l2.616,0.197l1.735,0.178l5.344,0.182c1.194,0.041,2.373,0.031,3.525,0.023l2.524-0.018c1.756-0.013,1.172,0.179,3.132,0.287
					l1.767,0.097l3.607,0.198c0.612,0.034,1.291,0.111,1.86,0.083l2.239-0.113c1.829-0.092,3.765-0.089,5.596-0.029
					c0.268,0.009,0.902,0.172,1.137,0.151c0.454-0.041,1.108-0.099,1.461-0.082l1.756,0.085l4.551,0.197
					c1.293,0.056,2.455,0.097,3.737,0.039l1.697-0.076l4.532-0.179c2.941-0.116-0.403,0.321,4.1,0.24
					c0.575-0.01,1.27-0.01,1.797,0.039l1.601,0.148c0.389,0.036,0.945-0.008,1.396-0.008l8.566,0.003l1.435,0.05
					c0.516,0.018,1.175,0.086,1.618,0.047c3.846-0.337,3.746,0.462,8.348,0.161l2.27-0.149l1.525-0.075l7.02-0.103l1.234-0.208
					l5.035-0.138c0.724-0.02,1.468-0.141,2.12-0.11l1.355,0.062l0.899-0.126l9.396-0.024l1.705-0.072
					c1.078-0.045,2.091,0.055,3.166-0.103l2.563-0.378l2.284-0.351l3.161-0.469c0.594-0.088,1.39-0.122,1.983-0.154l1.771-0.097
					c2.852-0.156,2.652,0.043,5.071-0.014l4.895-0.116c0.495-0.012,2.969-0.582,3.657-0.62l1.783-0.099l2.187-0.16l1.295-0.107
					c0.627-0.052,1.278-0.151,1.827-0.172l1.62-0.062l1.603-0.055l3.142-0.021c0.659-0.004,1.351,0.033,1.974-0.006l2.817-0.18
					c0.752-0.048,1.398-0.069,2.187-0.065c0.694,0.004,1.72-0.274,2.494-0.314c2.281-0.117,4.484-0.098,6.799-0.046
					c0.421,0.009,1.033,0.098,1.378,0.082c1.12-0.052,2.042-0.063,3.155-0.029l1.29-0.362c0.437-0.123,1.355,0.27,1.79,0.318
					l2.922-0.422c0.939-0.136,1.86-0.175,2.755-0.143l2.107,0.076l4.585,0.164c1.575,0.056,3.186,0.016,4.569,0.732
					c0.373-0.142,1.225-0.471,1.695-0.455l2.413,0.083l2.254,0.08c0.421,0.015,0.934,0.018,1.344,0.018l1.834-0.001l1.89,0.06
					l6.87,0.016l1.939-0.086c0.982-0.044,1.904,0.068,2.843,0.111c0.525,0.024,1.437-0.28,2.108-0.099l1.62-0.099l1.468-0.043
					c2.095-0.061,4.142-0.056,6.217,0.052c2.24,0.117,2.044-0.113,4.553-0.14c0.975-0.01,1.918-0.002,2.88-0.072
					c3.498-0.254,2.668,0.037,4.894-0.089l2.865-0.163c0.988-0.056,2.064-0.307,3.01-0.068c1.697,0.427,2.009-0.17,5.069-0.635
					c1.618-0.246,2.266,0.078,4.264,0.172c3.425,0.161,4.013-0.425,5.076-0.353c4.713,0.321,2.609-0.61,6.616,0.05l2.226-0.439
					l2.556-0.143l2.586-0.281l2.051-0.222C434.609,0.25,435.068,0.078,435.2,0H444.909z M230.767,134.352l-0.115,2.286l-0.055,1.08
					l4.182-0.697c2.104-0.351,3.493,0.399,8.429-0.412c0.515-0.085,1.542,0.171,2.063,0.174l1.74,0.009l0.721,0.005
					c0.978,0.889,0.768-0.853,5.567-0.376l1.654,0.165c0.756,0.075,1.608,0.029,2.385-0.091l2.292-0.355
					c0.567-0.088,1.598-0.071,2.183,0.01l2.05,0.283c1.532,0.212,2.08,0.155,3.425,0.029l3.132-0.294l2.589-0.193l1.701-0.102
					l10.563-0.148c1.286-0.018,2.728-0.334,3.995,0.043c0.132,0.039,0.574-0.072,0.576-0.193c0.064-2.837,0.178-1.244,0.272-3.167
					c0.05-1.019-0.062-2.208,0.074-3.149l0.652-4.522c0.5-3.465-0.597-1.428,0.023-5.307c0.493-3.082-0.255-1.663,0.017-4.78
					l0.19-2.178l0.08-1.097c0.192-2.632-0.387-0.421-0.237-2.925l0.161-2.688l0.023-1.518c-0.885-2.27-0.157-1.068-0.232-3.399
					l-0.041-1.273l0.002-1.953c0.002-1.332-0.188-2.41,0.135-3.761c-0.242-0.523-0.655-1.332-0.986-1.79l-0.589-0.814l-0.608-0.9
					c-0.69-1.021-1.21-2.24-1.793-3.353l-1.191-2.272l-0.74-2.016l-1.534-2.813c-2.302-4.22-1.075-3.108-0.668-4.967
					c0.961-4.379,0.939-3.435,2.79-6.308l0.812-1.261c0.696-1.08,1.632-1.958,2.627-2.788l1.092-0.911
					c0.23-0.192,0.569-0.484,0.682-0.668l1.112-1.8c0.172-0.279,0.792-0.693,1.069-0.946c2.878-2.628,2.885-3.618,3.714-4.531
					l1.112-1.225c2.053-2.263,0.928-2.145,4.859-5.386l1.729-1.426c0.632-0.521,1.338-0.911,2.083-1.377
					c0.538-0.337,1.311-1.229,1.831-1.454l2.481-1.071c0.901-0.389,4.31,0.156,5.412,0.512l2.055,0.665
					c0.678,0.219,1.276,0.473,2.023,0.358l2.042-0.314c0.166-0.026,0.702,0.36,0.74,0.52l0.183,0.776
					c0.029,0.121-0.454,0.197-0.606,0.2l-3.495,0.058c-0.784,0.013-1.949-0.539-2.598-0.583l-3.935-0.267
					c-2.239-0.152-3.727,0.699-5.233,1.825l-1.804,1.349c-0.699,0.523-1.438,1.061-2.08,1.614l-1.392,1.2l-0.915,0.79
					c-0.122,0.106-0.414,0.475-0.501,0.632l-0.838,1.498c-0.374,0.668-1.268,1.315-1.737,1.89l-2.062,2.53l-1.318,1.564
					c-0.929,1.103-1.679,1.442-2.959,2.985l-1.323,1.594c-0.52,0.627-1.506,1.394-1.875,2.011l-2.173,3.632
					c-0.322,0.539-0.603,1.101-0.865,1.718c-1.369,3.222-1.705,3.58-0.235,6.077l0.666,1.131c1.042,1.77,1.841,4.257,3.017,6.677
					l1.041,2.142c0.395,0.813,1.07,1.599,1.91,2.885l1.806,2.763c0.235,0.36,0.633,0.851,0.781,1.202l0.954,2.257
					c0.205,0.485,0.578,1.167,0.864,1.646l3.103,5.203l1.912,2.92l0.599,1.416l1.699,2.817l1.148,2.267l2.269,3.751l0.787,1.272
					c0.176,0.285,1.056,1.851,1.81,1.396l1.099-0.662c3.51-2.113,1.599-1.354,3.899-3.037c1.15-0.841,1.596,0.481,2.744-0.243
					c0.083-0.052,0.349-0.267,0.4-0.27l0.527-0.032l0.653-0.038c0.926-0.053,0.054,0.8,1.711,2.763l1.804,2.137l2.238-1.087
					c1.433-0.696-0.187-0.429,1.9-1.861l1.637,1.235c0.096,0.072,0.352,0.393,0.314,0.439c-0.574,0.699-0.453,0.757-1.215,1.148
					l-2.697,1.383c-0.484,0.248-0.656,0.907-0.48,1.36l0.932,2.406c0.31,0.8,1.817,2.591,1.94,4.311l0.764,1.459l0.567,1.691
					c0.363,1.083,0.918,2.082-0.057,2.941c-2.219,1.955-4.204,1.182-3.966,1.84l0.263,0.726c0.074,0.205,0.518,0.594,0.73,0.665
					l1.956,0.656c0.383,0.128,1.025,0.836,1.376,1.208c0.765,0.812,1.297-0.384,2.608,0.118c1.566,0.6,1.416,0.879,4.051,2.046
					c0.505,0.224,1.759,0.301,2.223,0.593l3.01,1.889c2.589,1.625,1.21-0.011,4.781,2.59l1.368,0.997
					c0.455,0.331,1.057,0.722,1.576,0.905l2.992,1.057c0.825,0.291,1.667,0.79,2.468,1.174l2.367,1.136
					c3.064,1.47,4.25,0.317,7.069,1.684l1.797,0.872c3.948,1.915,3.93,1.355,7.64,3.231l0.433-0.165
					c-0.396-0.719-0.232-0.573-0.566-0.916l-0.276-0.283c-0.085-0.088-0.251-0.228-0.284-0.29l-0.205-0.395
					c-0.51-0.982-1.048-1.988-1.253-2.981l-0.103-0.5c-0.046-0.223-0.285-0.54-0.429-0.676l-0.304-0.286l-0.285-0.278l-0.291-0.287
					c-0.037-0.036-0.172-0.344-0.175-0.398l-0.037-0.536l-0.034-0.536c-0.004-0.061-0.115-0.342-0.143-0.398l-0.195-0.399
					c-0.282-0.576-0.063-0.67-0.233-1.015l-0.896-1.817l-0.212-0.445c-1.645-3.454-0.544-2.845-1.904-6.816
					c-0.626-1.826-0.813-1.699-1.63-3.826l-0.779-2.027l-0.758-2.217l-0.804-2.562c-0.207-0.179-0.74-0.611-0.937-0.854
					l-1.251-1.543l-1.066-1.227c-0.479-0.551-1.088-1.104-1.434-1.659l-1.135-1.819c-1.349-2.162-4.687-4.193-7.009-1.795
					c-0.655,0.676-1.665,1.034-2.639,1.143c-0.977,0.109-0.392,0.263-0.845,0.595l-1.785,1.307c-0.225,0.164-0.585,0.582-0.817,0.83
					l-1.381,1.477l-0.928-0.472c-0.303-0.154-0.511-0.841-0.632-1.334c-0.077-0.315-0.454-0.947-0.57-1.258
					c-0.353-0.954-0.768-1.938-1.208-2.856l-1.327-2.771c-0.206-0.431-0.917-1.208-1.03-1.687c-0.308-1.3-0.658-2.591-1.08-3.799
					l-0.749-2.143c-0.263-0.753-0.492-1.612-0.701-2.421c-1.176-4.548-0.156-0.974-1.837-5.056c-0.358-0.87-0.745-1.697-1.186-2.536
					c-1.059-2.013-1.525-4.226-2.187-6.429l-0.776-2.582l-1.201-3.995c-0.124-0.413-0.647-1.231-0.805-1.665l-0.771-2.127
					l-0.945-2.809l-0.804-2.342c-0.14-0.409-0.736-1.085-0.959-1.513l-1.201-2.309c-1.119-2.152-0.088-2.683-2.022-3.37
					c-0.299-0.106-0.918-0.683-0.994-1.016l-0.586-2.566c-0.466-2.041-0.662-3.955-0.059-5.965l0.946-3.152
					c0.228-0.758,0.758-1.705,1.109-2.487c0.654-1.457,1.294-2.834,2.522-3.779l0.885-1.13c1.873-2.394,1.02-1.694,2.746-4.08
					c1.948-2.694-0.276-0.945,3.574-3.888c1.691-1.293,2.515-2.845,4.056-3.408c1.154-0.95-0.171-0.658,2.217-2.05
					c0.623-0.364,1.265-1.014,1.831-1.519l1.839-1.643c0.392-0.35,1.136-0.956,1.564-1.174l2.343-1.191
					c0.612-0.311,1.654-0.538,2.209-0.859l2.037-1.177c0.927-0.536,1.882-0.97,2.89-1.381l2.215-0.904
					c0.623-0.254,1.452-0.487,2.153-0.69l1.738-0.503c1.428-0.413,3.075-0.719,4.265-1.178c0.512-0.197,1.272-0.89,1.771-1.133
					c4.17-2.028,4.383-0.106,9.266-1.88l2.123,0.433c0.405,0.083,1.328-0.112,1.819-0.233l3.135-0.77
					c0.442-0.109,1.483,0.303,1.89,0.439c1.089,0.362,1.987,1.034,2.855,1.71l4.025,3.136c1.347,1.049,0.286-0.196,1.439,0.424
					c1.373,0.738,1.318-0.531,2.412-0.586l1.363-0.068c0.379-0.019,1.363,0.189,1.701,0.002l2.53-1.397l2.008-1.158l1.51-0.781
					c1.071-0.554,2.16-1.081,3.196-1.684l1.817-1.059c3.442-2.006,1.827-0.489,4.572-1.981c0.758-0.412,1.727-0.602,2.579-0.876
					l1.743-0.56c3.212-1.033,1.559,0.266,3.916-0.863c1.569-0.752,2.041-0.215,4.732-0.498c5.639-0.593,2.718,0.969,8.429-0.905
					l1.975-0.648c0.558-0.183,1.247-0.333,1.863-0.398l1.697-0.179l1.693-0.209c1.226,0.168,2.304,0.12,3.517-0.033l2.294-0.288
					l2.598-0.297l2.006-0.309c0.619-0.095,1.859-0.142,2.447-0.027l3.422,0.672c0.542,0.107,1.572,0.469,2.013,0.727l2.225,1.295
					c0.344,0.2,0.816,0.583,1.211,0.776c2.483,1.213,0.827-0.361,4.293,1.97c1.919,1.291,0.216,0.731,0.841,1.457l0.517,0.601
					l1.164,1.385l1.214,1.44c1.257,1.491,0.478-0.159,2.534,2.582c0.546,0.728,1.018,1.688,1.492,2.519l1.496,1.454l0.22,0.722
					c0.056,0.183,0.81-0.045,0.957-0.172c1.346-1.164,3.208-2.277,4.826-2.899l0.49,0.219l4.193-2.32l1.701-0.952
					c0.429-0.24,1.149-0.344,1.845-0.431l1.142-0.378c2.006-0.389,3.546-1.294,5.298-2.157l3.279-1.615
					c1.487-0.732,3.235-1.221,4.857-1.691l1.824-0.528c0.65-0.188,1.354-0.758,1.984-1.101l1.881-0.754
					c4.494-1.803,3.551-0.643,6.074-1.521l1.75-0.609c0.682-0.237,1.333-0.515,2.028-0.806c0.787-0.33,1.983-0.571,2.561-1.108
					c0.842-0.783,1.623-1.435,2.68-1.672c0.287-0.065,0.845,0.062,0.866-0.124c0.014-0.124,0.054-0.593,0.04-0.724l-0.163-1.553
					c-0.018-0.168-0.402-0.474-0.566-0.44l-0.57,0.118c-1.28,0.264-2.523,0.503-3.758,0.858c-2.484,0.714-2.009-0.716-6.342-1.899
					c-2.728-0.745-1.875-0.873-5.343-0.876l-2.14-0.002c-0.671-0.001-1.356-0.02-2.045-0.08l-2.465-0.217l-1.768-0.155l-2.585-0.24
					l-2.26-0.221c-0.294-0.029-0.867-0.045-1.258-0.045l-2.982,0l-2.69,0.055l-1.346,0.05L482.574,4
					c-0.943,0.035-2.165,0.273-3.055,0.189l-2.638-0.25l-2.857-0.324l-1.98-0.119l-2.614-0.284
					c-2.922-0.318-0.989-0.667-2.594-0.472c-3.296,0.4-3.608-0.383-5.071-0.306c-0.538,0.028-1.437,0.152-1.967,0.136l-2.565-0.077
					c-0.444-0.013-1.457,0.138-1.935,0.197c-0.203,0.025-0.763-0.104-0.969-0.115l-3.954-0.205l-2.879-0.187l-2.607-0.212
					l-1.652-0.1c-2.193-0.132-0.085,0.095-2.669-0.089c-5.057-0.361-8.074,0.702-9.345,0.727l-5.762,0.115
					c-0.488,0.01-1.376,0.216-1.937,0.29l-2.334,0.308c-0.732,0.097-1.519,0.045-2.262,0.059l-2.004,0.038
					c-1.746,0.033-3.333,0.625-5.923,0.288c-3.27-0.426-1.192,0.482-3.848,0.301l-1.946-0.132l-2.003-0.136
					c-0.557-0.038-1.131-0.04-1.696-0.011l-3.706,0.188c-1.2,0.061-2.33,0.117-3.501,0.132l-1.063,0.013l-4.523,0.139l-2.625,0.112
					c-0.993,0.042-1.895-0.014-2.956-0.096c-0.553-0.043-1.33,0.067-1.959,0.091c-2.739,0.107-5.427,0.101-8.17-0.006
					c-2.352-0.092-5.705,0.256-8.062,0.059l-1.014-0.085l-1.55-0.009l-2.28-0.03l-2.028-0.048l-1.944,0.025l-1.735-0.029
					l-3.179,0.019l-2.235-0.341l-4.141-0.098c-0.297-0.369-0.278-0.403-0.364-0.335c-1.02,0.791,0.273,0.032-2.901,0.179
					l-2.128,0.098l-1.334,0.078l-3.118,0.166l-2.366,0.064c-1.794,0.048-3.556,0.091-5.385,0.051l-1.971-0.043
					c-0.463-0.01-0.961,0.003-1.43,0.028l-1.953,0.105c-0.665,0.036-1.347,0.084-2.051,0.165l-2.086,0.24
					c-0.395,0.045-1.177-0.038-1.59-0.024l-2.101,0.073l-1.937,0.087l-1.435,0.069c-1.517,0.073-3.015,0.199-4.499,0.114
					c-0.549-0.031-1.035-0.059-1.517-0.022l-2.207,0.172l-1.562,0.15c-0.842,0.081-2.237-0.119-2.993,0.049l-3.179,0.704
					c-0.539,0.119-1.428,0.005-1.992,0.021l-2.95,0.083l-2.52,0.07l-2.273,0.133l-1.718,0.08c-1.04,0.049-2.105-0.013-3.116,0.139
					l-2.862,0.429l-2.849,0.362l-2.333,0.299c-0.544,0.07-1.292,0.223-1.753,0.305c-0.363,0.064-1.16-0.055-1.625-0.054
					l-6.024,0.014l-1.929,0.036l-2.928,0.144l-4.023,0.136l-2.219,0.222l-10.325,0.046l-1.512,0.213l-2.903-0.056
					c-0.335,0.07-1.198,0.404-1.554,0.402l-6.827-0.024L227.27,8.58l-13.345-0.059c-0.723-0.003-1.426-0.105-2.079-0.067
					c-0.786,0.046-1.536,0.04-2.29-0.081l-2.022-0.325c-0.558-0.09-1.563,0.153-2.216,0.172l-5.4,0.162
					c-5.014,0.15-1.927-0.041-6.232-0.167l-2.931-0.086l-1.471-0.045l-1.678-0.052l-3.903-0.049l-1.294,0.293l-4.201-0.043
					l-2.283-0.11l-2.33-0.126l-2.267-0.249l-9.385-0.071l-1.244-0.236l-4.47-0.051c0.737,0.008-4.037-0.501-3.428-0.495
					l-8.616-0.085c-0.646-0.006-1.876-0.547-2.47-0.474c-2.973,0.364-1.523-0.064-5.43-0.018l-2.678,0.031l-1.371,0.165
					l-5.169,0.113c-0.668,0.015-1.317,0.029-1.978,0.003l-3.967-0.156c-2.406-0.094-2.815,0.281-5.973-0.013
					c-0.849-0.079-1.602-0.111-2.421-0.049l-3.904,0.295c-0.308,0.023-0.847,0.022-1.194,0.021l-3.07-0.008l-2.554-0.369
					l-1.776-0.025C99,6.309,97.725,6.176,96.529,6.33l-3.21,0.413c-0.997,0.128-2.079,0.053-3.072,0.047l-3.731-0.022
					c-0.318-0.002-0.776,0.002-1.107-0.015l-3.734-0.194L79.31,6.475c-0.377-0.013-1.006-0.073-1.317-0.047L75.94,6.604l-2.848,0.46
					l-2.301,0.287c-1.239,0.155-2.751,0.246-3.877,0.152l-2.085-0.173c-0.914-0.076-1.774-0.145-2.64-0.145l-2.579,0
					c-5.866-0.001-2.621,0.524-5.888,0.555l-1.961,0.018l-2.86,0l-1.846,0c-0.977,0-1.96,0.009-2.96,0.058l-1.81,0.088
					c-1.046,0.051-2.079,0.062-3.11,0.012l-3.201-0.157c-0.967-0.047-1.896-0.256-2.791-0.463l-1.574,0.482
					c-0.281,0.086-0.947,0.114-1.34,0.17l-2.509,0.36c-0.837,0.12-2.203-0.018-3.156-0.127c-4.9-0.559-3.041,0.636-7.499-0.118
					l-1.938-0.328c-0.119-0.02-0.452,0.321-0.34,0.369l0.549,0.232l3.827,1.621l4.446,1.85c2.523,1.05,2.326,0.48,4.177,1.195
					l2.507,0.969l2.654,1.32c0.665,0.331,1.386,0.504,2.125,0.774l0.943,0.345c0.8,0.293,1.85,0.395,2.545,0.678l2.24,0.913
					l1.392,0.585c4.376,1.838,4.929,1.04,9.669,3.408l3.831,1.914c1.155,0.577,2.45,0.995,3.659,1.507l2.027,0.859
					c2.225,0.943,4.334,1.688,6.724,2.152l1.842,0.357c2.667,0.517,2.474,0.922,3.81,1.278l2.751,0.733
					c1.515,0.404,2.862,1.066,4.313,1.689c3.559,1.526,4.061,0.747,5.366,1.814l2.293,0.343c0.913,0.137,2.036,0.614,2.942,0.972
					c1.093,0.431,2.123,0.747,3.226,1.122l2.724,0.928l2.716,0.976l1.726,0.625c0.7,0.253,1.651,0.726,2.307,1.006l2.085-1.192
					c1.367-0.781,2.625-1.466,4.147-1.892c1.033-0.289,3.847-0.781,4.963-0.894l2.621-0.266c3.102-0.315,4.636-0.101,7.415,0.781
					c1.692,0.537,3.317,0.755,5.053,0.992l2.524,0.345l1.675,0.252c1.947,0.293,3.669,1.124,5.513,1.872l3.048,1.237
					c1.207,0.49,2.424,0.919,3.494,1.638l3.283,2.204c1.141,0.766,2.295,2.04,3.558,2.955l3.551,2.572
					c1.745-1.782,3.405-2.907,5.452-4.316c2.994-2.062,2.039-2.737,7.625-5.826l2.047-1.132c1.615-0.893,4.165-0.542,6.009-0.407
					c1.735,0.127,3.575,0.783,5.245,1.489l1.832,0.773c0.496,0.21,1.158,0.483,1.635,0.566l1.829,0.316
					c2.231,0.386,4.062,2.413,5.877,3.42l1.468,0.814c5.181,2.874,3.393,4.262,8.279,8.108l0.966-0.981
					c2.705-1.651,4.553-4.302,7.419-5.081l3.466-0.942c0.936-0.254,2.523,0.43,3.691,0.309c0.776-0.081,1.812,0.474,2.528,0.783
					c0.516,0.223,1.215,0.417,1.674,0.651c3.086,1.577,3.382,3.041,6.506,4.394l1.897,2.265c0.56,0.669,0.71,0.252,2.513,2.972
					l2.315,3.494c1.578-2.954,1.838-1.62,3.938-4.391c0.576-0.76,1.685-1.602,2.574-1.831l2.175-0.559
					c2.447-0.629,0.187,1.011,4.514-0.58c0.521-0.191,1.016-0.441,1.584-0.476l2.235-0.137c0.97-0.059,1.701-0.334,2.699-0.306
					c3.609,0.1,0.848-0.057,4.442-0.297c0.283-0.019,0.777-0.074,0.901,0.099l0.42,0.591c0.432-0.152,1.046-0.316,1.567-0.359
					c4.073-0.332,1.875,0.727,7.155,0.085c0.686-0.083,4.669,0.865,6.684,0.2l2.005,0.437c0.482,0.105,1.311-0.042,1.996-0.173
					c1.01-0.194,2.572,0.298,3.21,1.121l1.28,1.651c0.245,0.316,0.574,1.07,0.768,1.476l0.707,1.481
					c-0.028,0.698,0.11,1.188,0.613,1.799l0.476,1.495c-0.391,0.274-1.265,0.702-1.649,0.56c-1.681-0.62-0.812-2.471-1.828-3.568
					c-0.317-0.343-1.02-0.855-1.157-1.171l-0.984-2.275c-0.514-0.556-5.943-1.247-6.748-1.25c-1.45-0.005-2.723-0.042-4.26-0.161
					c-2.786-0.215-1.797,0.532-5.396,0.007l-1.797-0.262c-0.301-0.044-0.934-0.079-1.346-0.081l-4.192-0.029l-1.264,0.249
					l-3.683,0.095c-0.534,0.014-1.349,0.205-1.993,0.294c-3.023,0.417-0.283-0.706-4.584,1.318
					c-2.952,0.034-4.496,0.098-6.464,2.351c-0.403,0.87-1.133,1.739-1.865,2.126c-1.117,0.591,0.108,0.535-0.981,2.453l0.936,1.777
					c1.245,2.365,1.995,3.123,3.509,5.656c1.846,3.086,1.492,3.655,2.812,6.322c0.357,0.721,0.364,1.358,0.068,2.114
					c-1.342,3.432-1.435,2.608-2.321,4.471l-1.226,2.578l-0.662,1.392l-0.813,1.687c-1.418,1.308-1.345,1.715-2.926,3.672
					l-3.312,4.101l-1.445,1.711c-1.667,1.974-1.658,1.565-2.971,2.985l-1.562,1.69l-0.043,0.369l1.862-0.384l-0.187,1.833
					c-0.136,1.334-0.204,2.833-0.027,4.186l0.262,2.002l0.145,1.093c-0.042,0.436-0.113,1.051-0.096,1.386l0.093,1.823
					c0.027,0.536,0.115,1.446,0.033,1.892l-0.323,1.774c-0.174,0.956-0.128,1.97-0.13,2.968c-0.003,1.869-0.3,2.59-0.117,3.894
					l0.291,2.071C231.255,131.662,230.843,132.827,230.767,134.352z M9.824,154.935l1.272-2.852l1.265-2.785l1.2-2.556
					c0.407-0.867,1.16-1.681,1.69-2.511c0.636-0.995,1.143-2.126,1.722-3.157l0.939-1.671l1.436-2.541l1.399-2.601l1.579-2.96
					l0.689-1.314l1.683-2.863l0.946-1.594c0.932-1.571,1.936-2.944,3.032-4.445c0.447-0.612,0.849-1.418,1.286-2.145
					c0.338-0.563,0.826-1.049,1.273-1.59c0.749-0.908,1.389-2.052,2.08-3.035l0.829-1.179c0.224-0.319,0.471-0.721,0.645-1.016
					c0.738-1.693,1.898-3.01,3.091-4.384c1.668-1.92,0.71-1.074,1.905-2.913l0.906-1.394c0.376-0.578,0.777-1.108,1.188-1.664
					l1.088-1.473l1.056-1.514l1.353-1.781c1.57-2.066,0.977-1.131,2.572-3.153l1.156-1.466l0.877-1.363l2.568-3.136l0.691-0.673
					c0.296-0.607,0.579-1.174,0.927-1.65l1.824-2.499l0.96-1.309l1.067-1.527l0.968-1.342c0.483-0.669,1.224-1.253,1.827-1.907
					c0.332-0.361,0.797-1.139,1.169-1.595l1.291-1.577l2.456-3.281l1.204-1.615l1.345-1.84c1.493-2.043,0.699-0.511,2.404-2.419
					c0.531-0.595,0.978-1.033,1.586-1.615c0.339-0.325,0.851-1.249,1.205-1.549l1.412-1.195l1.795-1.624
					c0.355-0.322,1.157-0.728,1.523-1.033l2.682-2.232l1.573-1.197c0.823-0.626,1.419-1.532,2.207-2.128l3.596-2.722
					c2.568-1.944,1.704-0.822,3.979-2.25l1.41-0.886l1.995-1.166l2.16-1.274l1.95-1.162l1.377-0.778l-3.039-1.087l-2.759-0.991
					c-2.387-0.857-4.263-1.804-6.218-3.114c-1.926,0.488-4.329-0.481-5.923-1.361c-1.43,0.092-4.196-1.267-5.546-1.863
					c-1.273-0.563-2.658-0.965-4.03-1.401c-3.205-1.018-2.338-1.399-5.329-1.652c-0.847-0.072-1.651-0.276-2.507-0.5l-2.355-0.615
					c-0.46-0.12-1.259-0.517-1.704-0.768c-2.978-1.68-1.613-0.536-4.823-2.014l-1.775-0.817L53.75,25.03l-3.184-1.418
					c-0.977-0.435-3.643-1.661-4.668-1.728l-1.676-0.11l-2.587-1.189c-2.918-1.341-1.243-0.958-4.964-1.928l-1.439-0.375
					l-1.441-0.398c-0.767-0.212-1.575-0.496-2.283-0.821l-2.168-0.994c-4.753-2.18-2.769-0.712-6.484-2.064l-3.185-1.16
					c-0.915-0.333-1.87-0.977-2.654-1.594c-2.406-0.17-2.652-1.076-4.729-1.746c-0.423-0.127-1.585,0.364-1.978,0.16L8.013,8.476
					l0,3.144l2.286,1.502c0.65,0.427,1.326,1.034,2.014,1.348c2.826,1.288,1.097,1.091,3.973,2.926
					c-0.091-0.058,3.476,1.367,3.937,1.526c3.322,1.15,1.841,1.157,4.777,1.77c0.917,0.191,1.493,0.875,1.238,1.852
					c-4.059,0.191-3.982-0.976-5.771-1.562c-0.959-0.314-2.014-0.544-2.762-0.981c-2.755-1.612-1.999-0.541-3.372-1.726
					l-1.615-1.394c-0.428-0.369-1.405-0.761-2.026-1.067c-0.272-0.134-0.828-0.693-1.103-0.819L8.006,14.27l0.117,1.719l0.089,1.456
					l0.143,2.734c0.074,0.253,1.038,0.355,1.329,0.49c0.794,0.369,1.859,0.864,2.711,1.189l1.456,0.554
					c0.183,0.07,0.656,0.529,0.852,0.578l2.047,0.514c0.221,0.055,0.536,0.682,0.414,0.872c-0.602,0.934-1.885,0.331-2.502,0.059
					c-0.673-0.296-1.308-0.372-2.107-0.531c-1.333-0.265-2.67-0.843-4.115-1.359c-0.341,0.295-0.231,1.115-0.219,1.704l0.08,3.944
					c0.006,0.306-0.195,1.006-0.207,1.251l-0.067,1.37l0.021,6.563c0.007,2.066-0.146,3.33-0.13,4.848l0.027,2.499
					c0.011,1.011-0.047,1.873-0.184,3.006l0.346,2.066c0.39,2.334-0.201,1.595-0.029,3.756l0.139,1.748
					c0.051,0.643-0.097,1.417-0.121,2.109l-0.201,5.877l-0.098,2.035L7.671,67.92l-0.118,2.493
					c-0.154,3.265,0.268,0.899,0.088,3.095L7.54,74.751c-0.212,2.599,0.068,3.172-0.002,5.989c-0.06,2.422,0.159,3.593-0.479,5.047
					c0.213,0.434,0.294,1,0.22,1.542l-0.296,2.143c-1.1,1.99,1.055,1.584-0.249,4.51c0.181,0.27,0.486,0.969,0.453,1.328
					l-0.204,2.221c-0.03,0.328,0.081,1.043,0.087,1.416c0.041,2.453-0.824,2.393-0.421,5.423c0.087,0.654,0.09,1.183,0.022,1.829
					c-0.139,1.328-0.013,2.846-0.279,4.081c-0.186,0.863-0.345,1.153,0.073,1.989l-0.528,2.512c-0.077,0.369-0.159,1.191-0.17,1.605
					l-0.098,3.769l-0.2,2.213l-0.111,6.28c-0.007,0.419-0.166,1.231-0.212,1.724l-0.166,1.791l-0.158,1.593l-0.153,1.469
					l-0.267,2.497l-0.188,1.131l-0.08,2.132l0.275,0.994c-0.157,0.753-0.242,1.349-0.287,2.032l-0.118,1.79
					c-0.049,0.74-0.142,1.617-0.139,2.263l0.011,2.409l0.011,1.485l0.064,2.215c0.064,2.215,0.027,4.239-0.435,6.506
					c-0.179,0.88,0.009,2.148-0.146,3.065l-0.339,2.012l-0.14,1.447l-0.221,2.292l-0.226,2.801c-0.051,0.627-0.052,1.012,0.26,1.8
					l0.911-2.399l0.529-1.502c0.137-0.389,0.482-1.043,0.554-1.362l0.654-2.872l1.116-3.789c0.247-0.839,0.679-1.771,1.021-2.656
					c0.117-0.302,0.57-0.895,0.733-1.208C8.786,157.222,9.287,156.139,9.824,154.935z M536.825,160.564l-0.372-2.173
					c-0.094-0.545-0.109-1.41-0.09-1.919c0.044-1.187-0.278,0.098-0.391-1.764l-0.087-1.417c-0.143-2.345-0.254,0.003-0.337-3.679
					l-0.048-2.142c-0.012-0.541-0.321-1.544-0.417-2.193L534.743,143c-0.533-3.583,0.694-2.823-0.091-4.977
					c-0.614-1.684-0.056-1.154-0.547-4.097c-0.111-0.665-0.609-3.4-0.617-4.09l-0.117-11.1c-0.001-0.113-0.431-3.116-0.515-3.563
					l-0.305-1.619c-0.138-0.733-0.227-1.496-0.274-2.267l-0.142-2.335c-0.034-0.564-0.171-1.114-0.262-1.706
					c-0.421-2.726,0.032-4.516-0.063-6.857l-0.171-4.203l-0.029-2.04l-0.013-2.243c-0.008-1.41-0.208-3.446-0.55-4.699
					c-0.057-0.208-0.02-0.82-0.047-1.032l-0.247-1.949c-0.096-0.755-0.094-1.391-0.044-2.205c0.083-1.326-0.406-2.042-0.521-4.697
					c-0.025-0.581-0.033-1.171-0.101-1.751l-0.295-2.508l-0.276-2.901c-0.28-2.941-0.641-2.577-0.874-5.694l-0.146-1.955
					l-0.269-2.318c-0.074-0.634-0.1-1.311-0.11-1.919l-0.045-2.559l-0.012-1.853l-0.016-1.057l-0.088-6.599l-0.482-2.8
					c-0.209-1.215-0.153-2.282-0.333-3.435l-0.359-2.299c-0.146-0.934-0.214-1.903-0.241-2.867l-0.054-1.978
					c-0.013-0.485-0.056-1.17-0.111-1.59l-0.464-3.542l-0.227-2.891c-0.022-0.274,0.014-0.996-0.215-0.999l-0.982-0.014l-1.46-0.031
					c-0.593,0.444-1.122,0.768-1.714,0.967l-3.049,1.024c-0.876,0.294-3.752,0.471-3.771-0.965c0.392-0.262,1.164-0.726,1.567-0.75
					l2.512-0.153c0.568-0.035,1.767-0.492,2.25-0.806l3.136-2.039l0.984,0.613c1.122,0.698,0.121,0.427,0.297-2.172l0.073-1.081
					c0.027-0.397-0.38-1.049-0.712-1.252c-1.589-0.972-1.643,2.065-4.396,2.134c-3.003,0.076-3.569,1.149-7.256,1.991
					c-2.389,0.545-1.191,1.843-4.786,1.075l-0.047-0.683l1.974-0.822c0.291-0.121,0.712-0.381,1.071-0.612
					c2.432-1.569,1.601,0.029,5.053-1.791c1.971-1.039,3.373,0.086,4.668-0.956c2.132-1.716,0.396-1.237,3.417-2.158l-0.04-3.18
					c-0.002-0.139-0.264-0.601-0.391-0.61l-0.45-0.032c-2.088-0.147-1.255,0.497-3.667,1.971c-2.071,1.266-1.138,0.089-4.353,1.628
					c-0.956,0.458-2.201,0.81-3.301,0.957l-2.101,0.281c-0.819,0.11-2.179,0.374-2.817,0.738l-2.608,1.486
					c-0.445,0.254-0.992,0.581-1.437,0.743l-2.954,1.073l-1.465,0.539c-1.18,0.434-2.316,0.843-3.465,1.419
					c-1.986,0.995-1.227,1.118-3.937,2.039c-1.37,0.465-2.833,0.604-4.256,0.956c-0.688,0.17-3.766,1.259-4.322,1.902l-1.422,0.618
					l-2.071,0.875c-2.056,0.869-2.555,1.242-4.504,2.658l1.853,2.283l1.273,1.624c0.457,0.582,0.842,1.223,1.262,1.869l0.788,1.213
					l1.6,2.342l1.229,1.949c0.42,0.666,0.857,1.449,1.226,2.154l1.867,3.564l1.087,2.094c0.592,1.141,0.952,2.478,1.482,3.678
					l0.781,1.768l1.209,2.806l0.933,2.203l2.166,4.971l1.471,3.105c0.507,1.071,0.907,2.217,1.268,3.356l0.955,1.526
					c0.874,1.397,0.996,3.215,1.658,4.655l0.688,1.496c0.617,1.342,0.757,2.789,1.482,4.007c0.41,0.689,0.526,1.261,0.951,1.992
					l1.01,1.737l0.383,1.035l1.237,3.072l0.649,1.661c0.325,0.832,0.728,1.677,1.145,2.491l0.785,1.535l1.105,2.11l0.552,1.675
					c0.326,0.988,1.157,1.907,1.727,2.795l0.909,1.417c0.284,0.442,0.655,1.128,0.871,1.616l0.736,1.66l1.019,2.379l2.43,6.118
					c0.171,0.431,0.267,1.357,0.551,1.668c0.837,0.917,1.526,1.88,1.946,2.947l0.583,1.481c0.253,0.642,0.569,1.325,0.867,1.958
					l1.28,2.714l0.99,2.188c0.505,1.117,1.307,2.132,1.794,3.274l2.809,6.575l0.255,1.107l0.809,1.996
					c0.899,2.219,0.439,0.225,1.018,2.321l0.506,1.15c1.359,3.09,0.531,1.985,1.888,4.938c0.492,1.07,0.962,2.123,1.361,3.236
					l0.671,1.872l0.616,1.933c0.19,0.595,0.356,1.21,0.58,1.737l1.223,2.885c0.414,0.977,0.734,1.863,1.034,2.97l0.554,2.044
					c0.469,0.475,0.417,0.144,0.257-0.347l-0.59-2.858C537.107,163.094,537.247,163.023,536.825,160.564z M414.65,178.213
					c1.459,0.19,2.385,0.567,3.377,1.624c0.753,0.803,1.908,1.328,2.861,1.967l2.217,1.487c0.59,0.396,2.046,0.573,2.544,1.081
					c1.102,1.125,2.226,1.813,3.86,1.611c1.418-0.176,3.809,0.01,3.913,1.422l0.144,1.949c0.319,0.443,0.596,0.828,0.337,0.369
					l0.444-2.006l0.415-2.555c0.323-1.988,2.187-2.664,1.256-4.772l-1.166-2.64c-0.22-0.499-0.565-1.119-0.871-1.665l-0.897-1.602
					c-0.121-0.216-0.271-0.881-0.344-1.15l-0.299-1.095c-0.118-0.431-0.743-1.105-0.963-1.569l-1.752-3.695l-0.872-2.3
					c-0.194-0.511-0.672-1.055-0.991-1.519l-1.19-1.731c-1.532-2.229-1.362-3.161-2.621-4.457l-2.538-2.613
					c-1.209-1.245-2.398-2.613-3.445-3.977l-1.751-2.282l-0.49-1.181c-1.99-2.275-1.438-2.768-4.417-2.381l-3.56,0.463
					c-1.157,0.15-1.903,0.062-3.099,2.057l-2.895,4.83c-0.222,0.37-0.986,0.834-1.382,0.84c-0.459,0.007-1.086-0.324-1.465-0.711
					c-1.602-1.635-2.189-0.772-2.53-1.761c-0.044-0.128,0.168-0.545,0.07-0.634l-0.869-0.79c-0.344-0.57-0.675-1.045-1.1-1.549
					c-2.329-2.759-1.423-3.201-2.494-4.851l-1.724-2.658c-2.031-3.131,0.25-1.226-2.041-3.411c-0.398-0.38-0.75-1.498-1.07-2.007
					c-2.345-3.727-2.28-4.805-2.545-5.238c-0.469-0.767-1.156-1.761-1.544-2.66c-0.23-0.532-0.51-1.005-0.812-1.441l-0.981-1.413
					c-0.327-0.471-0.651-1.563-0.847-2.184c-0.962-0.608-1.545-1.794-2.06-2.741l-1.32-2.428l-0.92-1.671l-0.295-1.182
					c-0.736-1.082-1.086-2.392-1.417-3.725l-0.566-2.281l-0.649-1.285c-0.159-0.315-0.001-1.322-0.146-1.64l-0.707-1.55
					c-0.344-0.753-0.62-1.493-0.862-2.306c-0.96-3.213,0.383-0.294-0.951-3.585c-0.383-0.944-0.507-2.244-0.701-3.312l-0.573-3.163
					c-0.107-0.593-0.183-1.17-0.255-1.745l-0.219-1.77c-0.089-0.719-0.231-1.468-0.366-2.177l-0.556-2.928
					c-0.177-0.931-0.13-1.948-0.023-2.898c-0.016-0.181-0.081-0.666-0.085-0.836l-0.111-4.9c-0.04-1.773-0.619-2.185-0.357-5.154
					l0.147-1.664l0.194-2.304c0.414-4.93-0.622-3.942,0.6-8.89c0.086-0.349,0.167-0.726,0.217-1.053l0.523-3.426
					c0.31-2.033,0.963-2.587,1.3-4.259l0.319-1.583c0.077-0.383,0.254-1.029,0.431-1.365l0.918-1.739l0.892-1.666l1.22-2.236
					c0.523-0.958,1.312-1.912,1.944-2.841c0.92-1.351,2.109-2.035,3.48-2.872l1.94-1.184c0.641-0.391,1.474-0.647,2.205-0.935
					l2.145-0.843l-0.579-1.327l-2.092-1.959l-1.128-0.563l-1.497-1.086c-1.246-0.904-2.237-0.986-3.703-0.81l-3.637,0.435
					l-2.252-0.288c0.765,0.098-7.587,1.123-7.063,0.874l-2.578,1.223c-0.409,0.194-1.182,0.502-1.578,0.603l-2.595,0.663
					l-1.087,0.273c-0.614,0.154-1.241,0.291-1.788,0.485l-1.493,0.53c-1.242,0.441-2.461,0.887-3.65,1.499l-2.285,1.177l-2.387,1.13
					c-1.843,0.873-0.711,0.939-4.783,2.231c-0.212,0.067-0.599,0.524-0.766,0.684l-1.895,1.807
					c-0.694,0.661-1.354,1.307-2.091,1.922c-0.481,0.402-1.144,0.855-1.561,1.261c-2.096,2.044-4.101,3.827-6.39,5.62l-1.006,1.543
					l-1.148,2.015c-1.48,2.598-3.412,3.537-4.457,6.683l-1.279,3.852c-0.91,2.74-0.9,2.591-0.616,5.279l0.245,2.32
					c0.115,1.087,1.006-0.219,1.719,1.303l0.937,2c0.273,0.582,0.386,1.516,0.601,2.311c0.235,0.869,1.486,2.311,1.973,3.855
					l0.582,1.848l1.215,3.849c0.783,2.48,1.168,2.413,1.925,4.615l0.592,1.719c0.184,0.536,0.416,1.183,0.535,1.693l0.55,2.359
					c0.275,1.18,0.562,2.434,1.063,3.498l0.749,1.59l1.056,2.361l1.192,2.81c0.105,0.248,0.452,0.826,0.525,1.078l0.837,2.878
					l0.886,2.843l0.585,1.714l0.658,1.93c1.058,3.101,0.479,0.742,1.757,3.679l1.385,3.184c0.25,0.575,0.681,1.29,1.115,1.72
					c1.635-0.547,3.068-1.801,3.815-2.01c0.755-0.212,1.86-0.436,2.262-0.884c2.028-2.259,1.592-0.399,3.482-1.619
					c1.225-0.791,2.176-0.383,3.251,0.281c1.005,0.62,1.958,1.273,2.577,2.274l2.093,3.385c0.168,0.272,0.478,0.71,0.684,1.005
					l1.357-0.823l1.709-0.893l2.327-1.597c0.289-0.199,1.198,0.191,1.279,0.527c0.201,0.844,0.056,1.982-1.12,2.436
					c-0.947,0.366-1.702,0.742-2.514,1.223l-1.202,0.712c0.298,0.815,0.695,1.464,1.259,2.155c0.82,1.004,0.979,2.548,1.486,3.654
					c0.536,1.171,0.914,2.163,1.308,3.339c0.267,0.797,0.801,1.756,1.026,2.59l1.025,3.808c0.474,1.763,1.018,3.384,1.867,4.999
					c1.75,3.329,0.009,1.56,2.078,4.531c1.089,1.563,0.535,2.351,1.653,4l1.616,2.381c0.899,1.325,2.454,1.478,1.589,3.418
					c0.763,0.159,1.447,0.324,2.073,0.569c3.436,1.345,1.349,1.069,5.512,2.751c3.631,1.467,1.022,0.73,4.221,2.169
					c0.853,0.384,1.729,0.788,2.599,1.026c1.511,0.414,2.869,0.875,4.326,1.368c1.264,0.428,2.567,0.73,3.699,1.514
					c0.754,0.522,1.692,1.477,2.421,1.701l1.841,0.566l2.728,0.987c0.845,0.306,1.934,0.574,2.619,1.1
					c0.623,0.48,1.177,1.249,1.811,1.636c0.462,0.282,1.427,0.423,1.946,0.644C412.755,177.497,413.778,178.1,414.65,178.213z
					 M129.131,175.927c2.387-0.519,1.499,0.493,4.693-1.393l1.472-0.869c2.679-1.581,5.138-1.71,6.842-2.846
					c2.107-1.404,4.082-2.736,6.311-3.981c0.526-0.294,1.912-0.659,2.117-1.21l0.95-2.559l0.773-2.114
					c1.274-3.486,1.962-3.119,2.868-4.764c0.296-0.537,0.717-1.151,0.821-1.545l0.337-1.277l0.403-1.367l0.831-1.713l1.041-2.435
					l0.591-1.377l1.123-2.607l1.215-1.069l0.349-0.474l-3.692-1.382l0.418-1.626c2.329-1.028,2.45,0.868,5.085,0.97l3.38-4.815
					c0.505-0.72,2.365-2.803,3.15-3.404c1.402-1.072,5.454,0.873,6.258,1.658l1.269,1.239l1.154-1.053
					c0.32-0.292,0.862-0.804,1.104-1.113l2.032-2.599l2.462-2.623l1.169-1.427l0.937-1.114c0.56-0.666,1.521-1.167,2.236-1.738
					l1.595-1.275c0.295-0.236,0.785-0.835,1.09-1.129l2.627-2.536l0.993-0.996l1.79-1.927l1.761-1.96
					c0.47-0.523,1.029-1.165,1.497-1.596l1.811-1.668c0.793-0.73,1.44-1.558,2.183-2.389l2.124-2.378l1.381-1.806l1.864-2.433
					c1.097-1.433,0.345-0.818,1.731-2.514l1.303-1.593c0.477-0.583,0.919-1.185,1.322-1.812l1.24-1.925
					c0.285-0.443,0.758-1.004,0.993-1.481c0.476-0.964,0.898-1.688,1.484-2.574c1.526-2.309,0.408-2.293,2.103-4.417l0.088-1.639
					c0.096-1.782,1.808-0.161,0.513-5.463c-0.548-2.244-0.551-1.727-1.483-3.105l-1.751-2.589l-2.586-3.65l-0.946-1.359
					l-0.411-0.994l-0.936-1.097l-1.138-1.389l-2.358-2.526l-1.145-1.165c-0.551-0.561-1.309-1.267-1.743-1.85
					c-2.44-3.276-2.871-2.607-4.266-4.072c-3.168-3.327-1.442-3.364-5.444-5.722l-1.446-0.852c-0.751-0.443-1.489-0.948-2.212-1.445
					l-1.399-0.963c-0.823-0.566-1.998-0.949-3.018-1.23l-1.812-0.5c-0.804-0.222-1.642-0.587-2.441-0.907l-2.033-0.814l-1.878-0.745
					c-0.422-0.167-1.209-0.175-1.663-0.2l-2.048-0.111l-1.92-0.142c-0.385-0.028-1.288,0.378-1.652,0.607l-2.402,1.511l-2.43,1.577
					l-1.355,0.883c-0.381,0.55-0.752,0.993-1.223,1.375l-1.896,1.543l-1.697,1.471l-1.217,1.055
					c-0.358,0.31-1.279,1.366-0.914,1.685c1.604,1.405,2.078,1.566,3.421,2.872l1.881,1.829l1.744,1.695
					c1.799,1.749,1.95,1.616,3.864,3.58c1.962,2.012,2.426,1.8,4.394,4.134l0.931,1.104c1.331,1.578,2.103,2.711,3.197,4.485
					l0.766,1.242l2.313,3.658l1.204,1.92l1.215,1.99l1.652,2.623c0.271,0.43,0.537,0.992,0.778,1.481l0.857,1.743
					c0.888,1.806,2.172,3.572,2.177,5.758c0.004,1.524-0.512,3.366-1.182,4.697l-2.409,4.786c-0.228,0.452-0.733,1.067-1.001,1.489
					l-1.008,1.585l-1.52,2.214l-1.775,2.522c-2.095,2.977-4.063,5.061-6.721,7.532l-1.185,1.101l-0.887,0.822l-1.309,1.276
					l-4.631,4.497l-1.672,1.476l-1.852,1.561l-3.432,2.856c-0.635,0.528-1.245,1.015-1.864,1.56l-1.513,1.334l-3.943,3.777
					l-1.135,1.14l-2.802,2.912l-1.137,1.179l-0.623,0.754l-2.923,3.088l-1.434,1.692l-1.216,1.359l-1.063,1.208l-1.308,1.578
					c-0.318,0.383-0.663,0.861-0.978,1.285l-2.797,3.761l-2.045,2.56c-0.504,0.631-2.062,2.95-2.139,3.818l-1.137,1.222
					c-0.388,0.417-1.778,0.528-2.264,0.251l-1.683-0.958c-0.61-0.347-1.43-0.797-2.077-0.984l-3.4-0.981l-3.756-1.141
					c-0.515-0.156-1.759-0.189-2.277,0.024c-0.378,0.155-0.956,0.975-1.227,1.307c-0.929,1.137-1.548,2.258-2.221,3.555
					l-1.129,2.177l0.005,1.88l-0.917,1.832l-1.27,2.428l-0.925,2.514l-1.331,2.717c-0.242,0.494-0.43,1.073-0.628,1.666
					l-0.409,1.223l-0.088,4.753c-0.003,0.168-0.108,0.547-0.13,0.678c-0.155,0.934,6.253-2.187,6.993-2.642
					c0.758-0.466,1.35-0.691,2.184-1.011l2.254-0.865c2.312-0.887,1.347-0.962,4.261-2.566c0.737-0.406,1.323-0.853,2.074-1.376
					c0.765-0.533,2.158-0.751,3.033-1.22C125.887,177.233,127.387,176.306,129.131,175.927z M222.433,137.863l1.433,0.087
					l1.453,0.04c0.379,0.01,1.002,0.056,1.302,0.021l2.023-0.235c0.167-0.539,0.405-1.7,0.468-2.467l0.29-3.503
					c0.077-0.934,0.074-1.795-0.254-2.659c-1.106-2.916,0.547-2.141-0.371-6.202c0.763-2.59,0.576-5.058,0.459-7.912l-0.063-1.54
					c-0.03-0.735-0.329-1.695-0.37-2.524l-0.14-2.795l-0.3-2.403c-0.557,0.54-1.05,1.018-1.558,1.562l-1.533,1.641
					c-0.71,0.76-1.653,1.429-2.396,2.157l-1.443,1.413l-1.1,1.174l-1.761,1.941l-1.717,2l-1.45,1.699l-1.142,1.382l-1.143,1.479
					c-1.618,2.094-2.256,2.235-3.499,3.918l-1.834,2.483c-0.393,0.116-1.632-0.083-1.913-0.457l-1.022-1.355
					c-1.351,0.182-1.902-1.02-2.976,0.071c-0.709,0.72-1.235,1.272-1.803,1.974l-1.413,1.748c-0.693,0.857-1.312,1.724-1.915,2.661
					c-1.264,1.965-1.123,1.043-1.826,2.381l-0.903,1.719l-1.147,0.666c-0.445,0.258-1.202,0.221-1.658-0.143l1.953-2.254
					c0.834-0.962,2.114-2.682,2.756-3.839l-0.436-1.459l-0.9,0.495l-0.824-1.043l-0.872,1.097l-0.616-0.368
					c-0.402,0.426-0.389,0.412-0.292,0.309c-0.448-0.839-0.486-1.42-0.027-1.699c2.875-1.744,1.633-1.882,3.115-1.301
					c1.413,0.554,2.951,1.478,3.843,0.088c1.27-1.977,2.246-4.37,4.287-3.364c2.21,1.09,1.685-0.378,3.548,1.375
					c0.434,0.409,1.482,0.041,1.873-0.476l1.636-2.156l0.798-0.871l1.354-1.451l2.809-3.254l1.056-1.462l5.688-5.757l1.146-1.141
					c0.969-0.964,2.913-2.697,3.222-3.069l2.592-3.123l1.569-1.862c2.041-2.423,1.419-0.83,4.128-4.433l1.075-1.429l1.918-2.681
					c0.347-0.486,0.761-0.993,1.07-1.471c0.385-0.593,0.729-1.245,1.133-1.74c1.111-1.362,1.731-2.771,2.411-4.461
					c1.297-3.224,0.678-1.087,2.18-4.473c0.325-0.733,0.257-1.29,0.015-2.081c-0.655-2.138-0.549-2.994-1.801-5.096l-2.041-3.426
					c-0.285-0.478-0.702-1.003-1.06-1.504c-1.651-2.312-0.009-0.666-1.361-2.598c-1.363-1.948,0.241-1.421-1.753-2.376
					c-0.953-0.456-1.275-2.496-3.358-4.781l-2.048-2.246c-0.493-0.54-1.063-1.369-1.667-1.684c-4.058-2.114-2.73-2.599-5.676-3.789
					l-2.48-1.002c-0.665-0.268-1.367-0.284-2.108-0.286c-0.893-0.003-1.91-0.193-2.963-0.337c-0.611-0.083-1.701,0.747-2.293,0.904
					c-1.098,0.291-2.133,0.496-2.891,1.145l-1.29,1.104c-0.574,0.491-1.134,1.141-1.614,1.795l-1.712,2.335
					c1.506,2.039,2.606,2.379,4.18,4.318l1.284,1.582l2.259,2.899l1.018,1.518l2.693,3.615c2.039,2.736-0.172,0.428,1.497,2.233
					c0.543,0.587,1.332,1.579,1.591,2.284L222,78.338c1.022,2.787,0.456,2.814-0.027,4.161c-0.385,1.074-0.656,2.243-1.108,3.222
					l-0.816,1.767c-0.414,0.895-0.861,1.793-1.333,2.652l-1.215,2.214l-1.142,1.961c-0.269,0.463-0.608,0.948-0.926,1.352
					l-1.653,2.102l-1.007,1.273l-1.138,1.435l-1.239,1.607l-1.122,1.436l-1.918,2.387l-1.308,1.548
					c-0.813,0.963-1.773,1.831-2.667,2.72l-1.881,1.872c-0.526,0.524-1.066,1.239-1.581,1.808l-1.769,1.957l-1.532,1.592
					l-1.117,1.174l-1.685,1.768c-0.528,0.554-1.202,1.1-1.792,1.607l-3.565,3.062c-0.342,0.294-0.891,0.875-1.23,1.251l-1.501,1.667
					l-1.482,1.664l-2.937,3.33l-1.305,1.556l-1.449,1.683l-1.154,1.288c-0.328,0.366-1.306-0.241-1.464-0.787
					c-0.268-0.923-0.771-1.743-1.529-2.213c-1.196-0.741-3.073-1.09-4.094,0.058l-1.488,1.672c-0.654,0.735-1.054,1.765-1.784,2.529
					l-1.379,1.442l-2.398,3.194c-0.139,0.185-0.363,0.928-0.467,1.087c-0.542,0.323-1.214,0.988-1.441,1.623
					c-0.427,1.194-1.203,2.009-1.787,3.068c-0.349,0.633-0.698,1.683-1.001,2.405l-0.945,2.257l-0.684,1.633l-1.019,2.349
					c-1.131,2.607-1.79,2.203-2.478,5.519c-0.031,0.149,0.198,0.513,0.347,0.483c0.15-0.031,0.6-0.148,0.765-0.22l2.357-1.029
					l5.727-2.348c0.603-0.247,1.322-0.613,1.905-0.916l1.546-0.802c2.054-1.065,2.006,0.153,2.997-1.17
					c1.18-1.575,1.84-1.544,2.661-2.215l2.537-2.075c0.514-0.421,1.202-1.022,1.743-1.304l1.536-0.798l2.4-1.36
					c0.845-0.479,2.119-0.805,3.13-1.079c2.391-0.647,1.629-0.651,4.002-1.419c0.603-0.195,1.461-0.356,1.907-0.639l2.163-1.369
					c0.734-0.465,1.493-0.852,2.28-1.253l1.634-0.833c0.346-0.176,1.228-0.111,1.578-0.242l1.759-0.658l2.307-0.866
					c-0.881-0.304-1.576-0.104-2.413-0.126c-0.725-0.019-4.93-0.863-5.767-1.711l1.52-1.114c1.065-0.78,3.559,0.922,4.645,0.975
					c1.16,0.056,2.434,0.142,3.41-0.03l3.699-0.65c0.411-0.072,1.066-0.013,1.567,0.012l1.928,0.096
					c0.805,0.04,1.851,0.208,2.531,0.176l2.653-0.124C216.643,138.586,217.126,137.543,222.433,137.863z M324.991,135.79
					c0.635-0.034,1.244-0.456,1.452-1.156c0.121-0.41,0.045-1.115-0.115-1.472l-0.82-1.829l-1.334-2.697
					c-0.364-0.736-0.721-1.574-1.05-2.355l-1.111-2.634c-0.853-2.021-2.691-2.195-3.968-4.94l-1.231,0.16
					c-0.846-0.301-1.5-0.183-2.049,0.454c-1.702,1.979-2.416,1.451-4.418,3.247c-0.82,0.736-1.759,1.531-2.74,0.633l-0.181-1.659
					c-1.747-1.054-0.256-0.207-1.899-2.81c-0.371-0.588-0.705-1.184-1.026-1.83c-1.124-2.257-0.262,0.016-1.883-3.183l-0.783-1.545
					c-0.312-0.616-0.579-1.319-0.958-1.872l-0.941-1.373l-2.14-3.346c-0.394-0.616-0.55-1.714-1.046-2.372l-1.44-1.91l-1.635-3.197
					c-0.075-0.118-0.608-0.113-0.59,0.026l0.101,0.772c0.21,1.598-0.432,0.22-0.104,3.48c0.064,0.632,0.039,1.172,0,1.823
					c-0.129,2.137-0.14,4.302,0.007,6.432c0.052,0.754,0.123,1.468,0.079,2.165l-0.102,1.612l-0.126,3.127l-0.186,1.167
					l-0.116,4.282c-0.017,0.636-0.196,1.553-0.285,2.24l-0.295,2.299c-0.108,0.842-0.19,1.701-0.218,2.565l-0.077,2.311l-0.1,2.047
					c-0.016,0.324-0.082,0.881,0.145,0.954c0.171,0.055,0.69,0.145,0.878,0.137l2.651-0.109c1.041-0.043,2.179,0.077,3.25-0.008
					c0.547-0.044,1.05-0.072,1.532-0.083l2.358-0.055l1.07-0.023c2.342-0.051,5.601-0.114,7.786,0.562
					c3.634,1.124-0.619-0.892,5.097,0.846c2.335,0.71,0.887-0.372,4.534,0.065C323.81,137.081,322.269,135.935,324.991,135.79z
					 M236.173,191.764l1.92-0.122l1.565-0.102c2.221-0.145,4.495-0.141,6.712,0.019c0.955,0.069,1.762,0.059,2.702,0.013
					l4.227-0.206l2.828-0.435l3.153-0.283l2.358-0.241l3.077-0.314l4.303-0.121l2.531-0.473l5.465-0.098l1.52-0.151l1.866,0.008
					l2.33-0.08c0.667-0.023,1.38-0.109,2.033-0.208l1.956-0.296l2.286-0.297l2.317-0.302c1.918-0.25,1.807,0.151,3.943,0.031
					l3.14-0.177l2.597-0.174c2.616-0.175,2.96-0.59,3.924,0.087c2.228-0.788,1.716,0.082,3.699,0.168l2.35,0.102l1.792,0.016
					c0.372,0.003,1.02,0.057,1.372,0.026l2.276-0.197c0.586-0.051,1.281-0.209,1.949-0.315c2.08-0.331,0.967,0.049,4.039-0.207
					l1.12-0.093c0.943,0.052,1.791,0.066,2.694-0.019l1.613-0.15l2.312-0.212c1.46-0.134,3.047-0.104,4.523,0.018
					c1.287,0.106,2.436,0.095,3.679,0.11c0.948,0.011,2.078,0.15,3.043,0.234l1.61,0.14c0.36,0.031,1.102,0.199,1.469,0.208
					l5.329,0.135c0.749,0.019,1.647,0.205,2.367,0.264l2.013,0.164c4.759,0.389,3.621-0.659,7.984-0.016
					c0.724,0.107,1.548,0.244,2.207,0.266l1.487,0.051l3.318,0.021l2.831-0.024l0.997,0.019l9.326-0.002l1.239-0.111l0.848,0.018
					c1.336,0.029,2.593,0.006,3.953-0.066l1.136,0.158l2.265-0.335c0.43-0.064,1.003-0.079,1.44-0.083l1.713-0.018
					c0.279-0.003,0.829,0.091,1.227,0.123c3.934,0.314,3.5-0.144,6.805-0.242c3.338-0.099,2.122,0.783,5.381,0.282
					c0.735-0.113,1.546-0.259,2.17-0.448c3.534-1.073,0.356,0.43,5.208-0.483c1.856-0.349,4.088-1.098,5.629,0.298
					c0.507,0.46-0.654,0.129-0.402,1.229l3.509,0.035c0.562,0.006,1.029-0.343,1.825-0.944c0.055,0.052-0.091-0.086-0.415-0.39
					l-0.563-1.071c-0.073-0.139-0.457-0.53-0.624-0.594l-2.236-0.858c-1.562-0.599,0.098-0.492-2.548-1.721
					c-2.79-1.296-1.994-2.045-3.688-2.862c-2.104-1.014-0.376,0.224-3.048-0.902c-0.675-0.284-1.369-0.565-2.049-0.805l-1.683-0.596
					c-2.805-0.993-1.388-1.689-3.179-2.273l-1.532-0.499c-0.333-0.109-0.647-0.227-1.036-0.388c-2.97-1.226-2.589-0.149-5.369-2.307
					l-1.63-1.266c-0.345-0.268-1.278-0.586-1.703-0.66c-2.528-0.439-0.311-0.398-3.672-1.355l-3.289-0.937
					c-3.402-0.969-1.893-1.672-5.224-2.593l-0.823-0.509c-2.044-0.517-2.099-1.674-3.86-2.091l-1.67-0.395
					c-1.002-0.237-2.009-0.841-2.957-1.21l-2.139-0.832l-2.56-1.105l-2.843-1.177c-1.742-0.721-3.235-1.806-4.425-1.989
					l-1.684-0.259l-2.586-0.343c-2.027-0.269-3.791-1.729-5.681-2.472l-3.296-1.294c-0.38-0.149-1.132-0.344-1.411-0.552
					l-1.477-1.099c-0.352-0.262-1-0.741-1.347-0.915l-4.033-2.023c-1.192-0.598-2.27-1.264-3.479-1.944
					c-0.809-0.455-2.039-0.696-2.96-1.057l-2.675-1.05c-0.67-0.263-2.256,0.163-2.86-0.185c-0.536-0.308-1.175-0.766-1.65-0.944
					c-1.878-0.702-3.379-1.541-4.779-2.99l-1.223-0.575c-1.74-0.818-1.459,0.812-4.353-0.307l-1.982-0.766l-0.59,0.916
					c-0.505-0.182-1.138-0.399-1.616-0.62c-3.709-1.71-1.393-0.195-4.93-1.262l-0.943,0.202c-2.8-0.318-0.596,0.423-4.345,0.113
					c-0.62-0.051-1.193-0.017-1.808-0.002l-6.258,0.15c-0.565,0.014-1.537,0.231-2.142,0.374l-1.707,0.401
					c-0.651-0.374-1.425-0.732-1.955-0.711l-1.864,0.073l-2.622,0.102c-0.787,0.031-1.72-0.157-2.556-0.232
					c-3.853-0.345-3.892,0.28-6.243,0.218l-2.261-0.059c1.07,0.028-4.595,0.508-3.743,0.389l-3.161,0.441
					c-0.494,0.069-1.459-0.195-1.971-0.195l-4.526-0.001l-1.275,0.268l-7.024,0.023l-1.238,0.268
					c-1.418,0.307-3.203-0.453-6.543-0.106l-3.146,0.327c-1.275,0.132-2.616,0.046-3.945,0.011c-1-0.026-2.092,0.18-3.165,0.264
					c-1.076,0.084-1.939,0.313-2.71,1.177c-1.072-0.877-9.87-0.526-11.447-0.393c-1.623,0.138-3.152,0.512-4.696,0.467
					c-0.306-0.009-0.978,0.255-1.236,0.33l-2.225-0.051c-4.095-0.094,0.071-0.734-4.774-0.239l-2.867,0.293l-0.061,1.676
					l-1.599,0.591l-2.334,0.802c-1.079,0.371-4.007,1.053-4.258,1.213l-2.442,1.554c-0.59,0.375-1.42,1.095-2.004,1.307
					l-3.601,1.305l-6.009,2.108c-0.643,0.225-1.653,0.947-2.285,1.318l-1.284,0.753l-1.78,1.096c-1.105,0.68-1.876,1.71-2.539,2.926
					l-2.999,1.189l-1.211,0.507l-1.822,0.806l-3.599,1.766l-1.694,0.847c-1.587,0.794-3.994,1.527-5.101,2.074l-2.196,1.084
					c-0.49,0.242-0.851,1.211-1.089,1.977l-1.824-0.047c-0.36-0.009-2.705,1.368-3.094,1.619l-4.183,2.698
					c-0.373,0.241-1.151,0.799-1.55,0.955l-4.531,1.766c-4.983,1.942-1.426,1.606-7.811,3.021c-0.933,0.207-1.79,0.47-2.556,0.899
					c-1.039,0.583-2.019,1.029-3.086,1.52l-2.163,0.996c-3.436,1.583-3.261,2.289-5.07,3.118l-1.785,0.819l-1.299,0.402
					c-0.611,0.513-1.142,0.784-1.829,1.086l-5.382,2.36c-1.486,0.652-0.736,0.012-2.614,0.523c-0.167,0.045-0.122,0.808-0.266,0.903
					l-2.143,1.425l-1.271,0.845l3.279-0.041c3.423-0.043,3.225,0.561,4.408,0.709l1.599,0.201c1.184,0.149,2.485-0.224,3.701-0.532
					c0.418,0.054,1.216,0.236,1.658,0.249l2.487,0.075c0.309,0.009,0.996-0.262,1.331-0.315l2.482-0.389
					c0.802-0.126,1.745-0.229,2.549-0.209l2.535,0.062l2.381,0.059c0.564,0.014,1.584-0.267,2.249-0.342l2.319-0.264
					c4.481-0.509,5.449,0.182,9.632-0.176c4.164-0.356,0.682,0.481,3.587-0.325c1.855-0.515,5.263-0.591,7.012-0.358l7.032,0.937
					c0.645,0.086,1.435,0.153,2.097,0.133l2.6-0.08l2.505-0.044l1.821-0.007l1.716,0.02l1.545,0.003l1.659,0.003l1.022,0.043
					l3.157,0.12l1.735-0.018l9.9-0.047l1.259,0.26l3.646,0.082c0.445,0.01,1.031,0.055,1.411,0.098l2.013,0.226
					c3.724,0.417,1.555-0.031,5.662,0.007c0.8,0.007,1.585,0.027,2.394,0.08l2.807,0.184l1.942,0.099
					c0.807,0.041,1.571-0.017,2.399-0.059l4.209-0.212l2.298-0.178l1.664-0.129c0.917-0.071,1.789-0.111,2.685-0.121l1.932-0.02
					l7.058-0.073C234.761,192.245,235.963,191.778,236.173,191.764z M429.107,197.787c0.616-0.074,1.72-0.051,2.084-0.331
					c0.742-0.57,0.474-1.819,0.379-2.56l-0.298-2.323l0.373-2.124l-0.567-2.417l-2.043,0.011c-0.179,0.517-0.417,1.201-0.595,1.52
					c-0.516,0.522-0.994,1.315-1.058,2.1l-0.192,2.362l-0.157,2.005l-0.117,2.02L429.107,197.787z M167.955,203.424
					c0.931,0.012,1.997,0.444,2.905,0.631c2.531,0.521,4.853,0.024,6.719,0.191l2.892,0.259l2.727,0.244
					c0.19-0.072,0.862-0.414,1.082-0.42l3.325-0.088c0.62-0.016,1.699-0.405,2.207-0.307l4.025,0.767
					c1.273,0.242,3.282,0.205,4.603,0.079l2.622-0.251c0.837-0.08,1.787-0.079,2.563-0.009l1.988,0.179
					c2.523,0.227,2.963,0.735,5.177,0.278l2.906-0.599c0.232-0.048,2.925-0.274,3.356-0.194l2.466,0.458
					c0.401,0.074,1.331,0.191,1.783,0.144l2.588-0.27l2.582-0.349c1.571-0.212,4.554-0.229,6.182-0.06l1.812,0.188
					c0.983,0.102,2.143,0.259,3.065,0.192l2.635-0.192c1.603-0.117,3.85-0.511,3.966-0.514l5.409-0.145
					c0.528-0.014,1.3-0.174,1.807-0.156l3.162,0.113l2.767-0.178l2.585,0.217l4.296,0.161c0.626,0.024,1.619,0.281,2.219,0.239
					l2.401-0.169c0.365-0.026,1.162,0.138,1.614,0.136l7.193-0.033c0.696-0.003,1.817-0.369,2.547-0.485l2.028-0.321
					c5.249-0.832,7.259,0.012,9.429-0.329l3.081-0.484l4.299-0.291l2.885-0.238l2.57-0.172c1.527-0.102,3.896,0.144,6.784-0.001
					c2.753-0.138,0.849,0.281,3.947-0.025c0.31-0.031,0.791-0.1,0.924,0.053l0.391,0.448c0.045,0.051,0.088,0.045,0.115,0.013
					c0.191-0.163,0.464-0.41,0.517-0.411l3.321-0.017c2.672-0.014-0.813,0.463,3.385,0.301l2.544-0.098l2.392-0.102
					c1.969-0.084,3.931-0.166,5.927-0.03l1.652,0.112l1.482,0l2.244,0.001c0.591,0,1.317,0.038,1.851-0.059l2.766-0.502
					c1.244-0.226,2.468-0.17,3.736,0.017c1.588,0.233,6.016,0.607,7.043,0.374l1.274-0.288c0.803-0.182,5.033,0.215,6.389,0.219
					l1.398,0.004c3.082,0.009,4.875-0.965,10.072-0.385c1.66,0.185,3.235,0.649,4.864,0.384l1.756-0.285l3.923-0.442l1.77-0.192
					c0.357-0.039,1.058-0.15,1.346-0.048l1.321,0.471c0.175,0.062,0.366,0.147,0.386,0.244c0.015,0.074,0.057,0.317,0.028,0.155
					c3.496-0.449,2.98,0.348,6.26-0.328c0.66-0.136,1.173-0.221,1.818-0.175l2.858,0.206c1.558,0.112,2.975,0.248,4.476-0.141
					l2.333-0.604c1.18-0.306,2.517-0.618,3.755-0.736l2.895-0.277l2.575-0.247l3.389-0.321l3.198-0.303
					c0.617-0.058,1.244-0.63,1.227-1.203c-0.105-3.433,0.268-1.543,0.667-4.546l0.243-1.827l0.026-0.491l-0.749,0.134
					c-0.771,0.138-1.631,0.162-2.413,0.091l-1.607-0.146c-2.017-0.183-0.435,2.41-1.806,2.723c-2.056,0.469-0.063-5.32-2.348-4.426
					c-1.465,0.573-3.005,0.651-4.455,0.334l-0.643-0.14c-0.104-0.023-0.254,0.355-0.171,0.421l0.371,0.296l0.162,1.332l0.065,0.523
					c0.007,0.055-0.183,0.437-0.231,0.462c-0.245,0.127-1.008,0.233-1.156,0.001l-0.563-0.884c-0.198-0.311,0.002-1.035,0.148-1.574
					l-2.011,0.235c-2.963,0.347-3.992-0.448-8.213-0.138c-2.484,0.183-7.627-0.246-8.498-0.07l-1.294,0.263l-8.687,0.096
					l-1.834,0.145l-1.065,0.053l-4.64,0.005l-1.027-0.06l-2.013,0.01c-0.8,0.004-1.571-0.033-2.414-0.092l-1.314,0.075l-2.046-0.197
					l-2.315-0.224c-1.446-0.14-3.031-0.101-4.472,0.029c-3.61,0.325-0.387-0.414-4.145,0.063c-1.007,0.128-2.013-0.031-3.073-0.068
					l-4.559-0.161l-1.641-0.081l-2.391-0.173l-3.683-0.505c-2.892-0.397-2.558,0.32-5.713-0.24l-1.827-0.324
					c-0.507-0.09-1.218,0.091-1.726,0.38l-0.955,0.009l-2.339,0.134l-2.298,0.119l-1.468,0.081l-3.318,0.194l-1.698,0.099
					c-0.552,0.032-1.192,0.081-1.762,0.151l-2.581,0.318c-3.574,0.44-3.639-0.112-6.79-0.56c-2.968,0.472-0.842-0.076-4.401,0.086
					l-4.193,0.191c-2.369,0.108-0.699-0.042-3.248,0.087l-3.633,0.185l-2.618,0.242c-0.908,0.084-1.91,0.341-2.85,0.469
					l-1.979,0.268l-2.608,0.267c-1.206,0.123-3.5-0.101-5.945,0.006l-4.014,0.176l-2.313,0.22l-1.72,0.313l-2.588,0.121
					l-2.812,0.193c-0.584,0.04-1.33,0.168-1.962,0.259l-2.256,0.324c-0.569,0.082-1.155,0.144-1.758,0.196l-1.555,0.134
					l-2.975,0.256l-2.107,0.095c-1.058,0.048-2.277,0.136-3.275-0.002l-1.821-0.253c-2.085-0.29-3.858-0.321-5.995-0.023
					l-2.888,0.403c-3.936,0.549-6.472,0.629-10.478,0.452c-0.699-0.031-1.356-0.045-2.037,0.012l-2.238,0.189
					c-0.558,0.047-1.193,0.029-1.753,0.092l-2.616,0.292c-1.57,0.175-3.178-0.162-5.764-0.108c-0.425,0.009-0.93,0.02-1.315,0
					l-2.32-0.12c-0.726-0.038-1.584-0.115-2.186-0.106l-2.718,0.042l-1.59-0.018l-1.827-0.027l-1.679-0.025
					c-0.429-0.006-0.942-0.044-1.414-0.089l-2.584-0.247l-2.504-0.209c-3.334-0.278-4.384,0.097-8.045,0.086l-1.459-0.005
					l-5.294,0.035l-1.288-0.266l-5.94-0.063c-0.53-0.006-0.867,0.021-1.273,0.128l-0.996,0.079
					c-0.687,0.008-1.358-0.028-2.084-0.061l-4.493-0.202l-2.91-0.224c-2.693-0.207-3.508-1.297-7.486-0.671l-2.217,0.349
					c-2.814,0.443-6.023,0.47-8.82,0.241c-0.964,0.067-1.856,0.063-2.89-0.041c-1.81-0.182-0.961,0.539-4.512,0.791l-1.62,0.115
					l-2.181,0.045l-1.061,0.023l-3.386,0.136l-1.838,0.103c-3.165,0.177-3.33,0.854-5.961,0.165l-0.959,0.374l0.706,0.935
					l-0.64,1.966c-0.269,0.213-1.455,0.067-1.578-0.3c-0.279-0.827,0.29-2.265,1.063-2.714l-2.687,0.32
					c-2.651,0.315-2.3-0.147-4.635-0.405l-0.297,2.08l-0.472,2.688c-0.118,0.67-0.747,1.679-1.483,1.444
					c-0.339-0.108-0.891-1.002-0.849-1.195l0.95-2.575l0.572-1.31c0.076-0.174-0.181-0.68-0.036-0.787l0.712-0.528
					c-0.301-0.202-0.926-0.35-1.384-0.304l-2.713,0.276c-0.493,0.05-1.058,0.793-1.104,1.321l-0.177,2.061l-0.188,3.103
					c-0.02,0.323-0.207,1.078-0.146,1.369l0.303,1.454l1.995,0.254l1.645,0.209c1.265,0.161,3.634-0.41,5.913,0.001l3.184,0.573
					c1.411,0.254,2.913,0.359,4.314,0.029l1.258-0.296l3.556-0.247c3.368-0.234,1.547,0.272,4.39,0.195l5.391-0.146
					c4.354-0.118,4.892,0.988,6.506,0.719l2.764-0.461c0.477-0.08,1.248-0.1,1.833-0.157l2.689-0.259
					c0.832-0.08,2.113,0.381,3.038,0.45l1.793,0.135l2.004,0.121c0.817,0.049,2.117-0.373,3.025-0.463l1.424-0.141
					c0.876-0.087,1.749-0.106,2.598-0.1l3.113,0.023C163.632,204.108,161.932,203.344,167.955,203.424z M94.562,204.391l1.719,0.133
					c0.311,0.024,0.487-0.664,0.504-1.065c0.05-1.179,0.28-2.123,0.421-3.252l0.239-1.921c0.087-0.699,0.225-2.15,0.246-2.814
					c0.008-0.257-0.856-0.596-1.105-0.486l-2.036,0.903c0.003,0.157,0.14,1.016,0.121,1.329l-0.155,2.564
					c-0.12,1.984-0.43-0.777-0.619,3.431C93.882,203.559,94.232,204.366,94.562,204.391z"/>
				<g>
					<path d="M262.15,97.317c0.008-0.761,0.019-1.481,0.151-2.125l0.954-4.656l-0.624-0.755l-0.162-1.214l1.999-0.691
						c0.964,0.775,0.737,1.761,0.653,2.934l-0.198,2.749l-0.298,2.981C264.564,97.142,263.242,97.375,262.15,97.317z"/>
					<path d="M258.898,111.039c-0.414-0.096-1.15,0.581-1.505,0.89c-0.787,0.206-0.744,0.012-1.704,0.762
						c-0.08,0.063-0.198-0.616-0.105-0.658l1.357-0.622l0.431-0.735l-3.77,0.106c-0.593,0.017-1.676,0.456-2.028-0.395
						c-0.198-0.48,0.632-1.624,1.128-1.647c0.742-0.035,1.602-0.027,2.226,0.045l2.114,0.242c1.775,0.204,3.541,0.475,4.965,1.665
						l-0.555,0.731l-2.019,0.373C259.426,111.786,259.004,111.064,258.898,111.039z"/>
					<path d="M255.139,96.486c-0.285,0.272-1.364,0.264-1.784,0.248l-0.15-1.047c0.341-0.793,0.543-1.942,0.556-2.841
						c0.413-1.384,0.525-2.627,0.208-4.114l1.274-0.897c0.445,0.574,0.69,1.126,0.606,1.694l-0.347,2.349
						c-0.048,0.328,0.38,1.225,0.458,1.296C255.109,94.19,256.3,95.378,255.139,96.486z"/>
				</g>
				<g>
					<path d="M166.263,183.466c1.16-0.253,4.67,0.163,6.167,0.392c0.806,0.124,1.576,0.1,2.383,0.013l1.943-0.209l2.291-0.209
						c0.668-0.061,1.432-0.094,1.983-0.086l2.372,0.035l1.919,0.058l4.295-0.053l1.705-0.006l5.162,0.114
						c3.09,0.068,1.434,0.465,5.422,0.054l2.23-0.229c1.247-0.128,1.875-0.207,3.215,0.579c0.456-0.107,1.44-0.41,1.934-0.382
						l2.948,0.169l1.966,0.073c0.659,0.024,1.293,0.028,1.946,0.003l2.404-0.095c0.746-0.03,1.711-0.091,2.443-0.066l2.863,0.1
						c-0.4-0.409-0.94-0.971-0.775-1.245c0.204-0.34,0.697-0.849,0.963-0.762l1.206,0.398c2.05,0.676,5.278,0.535,4.981-0.635
						l-0.776-3.064c-0.185-0.731-0.083-1.937-0.042-2.641c-0.68-1.189-0.263-1.481-0.625-3.084l-0.463-2.049
						c-0.076-0.334-1.046-0.144-1.425-0.172l-2.992-0.221l-2.625-0.235c-0.571-0.051-1.665-0.494-2.232-0.499l-4.273-0.038
						c-0.272-0.002-0.993,0.158-1.226,0.172c-0.858-0.178-2.342-0.526-3.23-0.581l-1.382-0.085
						c-1.113-0.068-2.073,0.484-4.723,0.152l-2.328-0.292c-2.633-0.331-2.954,0.158-5.567-0.661l-2.66-0.833l-1.752-0.55
						c-0.654-0.205-3.214-0.084-4.067-0.032l-1.675,0.1c-0.88,0.053-1.967,0.121-2.799,0l-2.034-0.295
						c-0.837-0.122-2.018-0.274-2.738-0.438c-0.34-0.078-1.168-0.465-1.541-0.427l-2.638,0.271
						c-1.896,0.195-1.822,1.498-4.227,0.673c-0.509-0.174-1.782-0.541-2.152-0.202l-1.832,1.675
						c-1.249,1.143-2.487,0.649-3.128,2.538c-1.209,0.293-2.542,0.988-3.68,1.674l-2.357,1.423l-1.605,0.959
						c-0.78,0.466-2.522-0.261-6.052,1.675l-1.838,1.008c-0.575,0.315-1.451,0.603-1.899,0.908l-1.582,1.079
						c-0.335,0.229-1.395,0.298-1.764,0.509l-2.534,1.445c-0.745,0.425-1.526,0.649-2.444,0.809l-2.092,1.685
						c-0.186,0.149-0.999,0.301-1.122,0.375l-1.556,1.396l-0.596-0.571l1.014-1.87l2.536-1.596c0.98-0.617,1.957-1.072,3.044-1.546
						c1.052-0.459,2.041-1.05,3.197-1.293c0.906-0.19,1.595-0.552,2.292-1.127c2.353-1.943,1.995-0.973,4.571-2.575
						c3.088-1.92,3.708-1.199,6.969-2.076c2.259-2.787,2.279-1.096,4.587-3.527l1.21-0.456c1.43-1.683,3.189-1.117,4.349-2.461
						l2.078-2.406l1.731,0.407l2.332,0.547c0.499,0.117,2.351-0.74,4.332-0.918c0.952-0.086,2.75,0.694,4.233,0.832l1.644,0.153
						c1.357,0.126,2.789,0.515,4.124,0.446c2.535-0.131,2.553-0.539,4.08-0.174l1.529-0.109l2.355,0.612
						c0.432,0.112,1.306,0.562,1.773,0.635l2.023,0.315c2.911,0.453,3.783,0.214,5.615,0.683c3.658,0.937,2.066-0.577,7.402,0.046
						c1.223,0.143,2.317,0.289,3.467,0.289l2.589-0.001l1.21-0.003c0.717-0.002,1.265,0.105,2.083,0.321
						c0.634,0.167,1.632,0.128,2.399,0.224l1.66,0.207c0.768,0.096,1.311,0.221,2.156,0.107l1.912,0.224
						c0.513,0.06,1.114,0.089,1.578,0.113l0.932,1.127c-0.085,0.524-0.396,1.616-0.357,2.147l0.189,2.562l0.126,1.752l0.362,2.528
						c0.179,1.25-0.008,2.764,0.995,3.568c0.415,0.333,0.812,0.731,0.824,1.283c0.011,0.54-0.36,1.113-0.818,1.327
						c-1.446,0.677-0.609-0.898-2.934-1.036l-2.771-0.164c-0.064-0.193,0.012,0.036,0.09,0.269c0.093,0.194,0.336,0.778,0.176,0.843
						c-0.433,0.178-1.54,0.43-2,0.347l-1.991-0.359c-3.892-0.702-3.039,0.637-7.796,0.063c-0.32-0.039-0.95-0.19-1.232-0.185
						l-2.206,0.04l-2.54-0.091c-0.676-0.024-1.421,0.015-2.074-0.076l-1.645-0.229c-0.893-0.124-1.757-0.105-2.664-0.007
						l-2.183,0.236c-0.427,0.046-1.032,0.113-1.367,0.089l-1.883-0.134l-1.94-0.144l-2.11-0.062l-1.873-0.044l-2.019-0.041
						c-1.535-0.031-3.019-0.066-4.571-0.014c-0.642,0.021-1.619,0.349-2.237,0.282l-2.385-0.26l-1.314,0.093
						c-1.193-0.27-1.656,0.119-4.047,0.526c-2.817,0.479-1.456-0.418-5.529-0.561c-0.626-0.022-1.27,0.024-1.905,0.077l-1.97,0.165
						l-2.324,0.275c-0.467,0.055-1.271,0.108-1.658,0.019l-2.134-0.491l-1.631,0.297c-1.173,0.213-2.121,0.42-3.2,0.799
						l-1.825,0.642c-1.634,0.575-4.04-1.05-5.504-1.197c-2.132-0.214-2.819,1.184-6.038,0.535l-2.08-0.419
						c-0.496-0.1-0.914-0.199-1.51-0.387l-0.993,0.088c-0.26,0.023-0.715-0.558-0.849-0.842c0.65-1.522,2.39-0.444,4.587-0.314
						c1.463,0.086,2.839,0.177,4.326,0.035l2.495-0.238c1.661,0.427,3.519,0.953,5.123,1.128c0.787,0.086,3.937-1.689,6.598-1.458
						l2.634,0.228c1.05,0.091,2.661,0.282,3.608,0.076L166.263,183.466z"/>
					<path d="M335.215,180.411c-2.503-0.04,0.255,0.142-2.639,0.346c-0.717,0.05-1.555,0.169-2.284,0.318l-2.418,0.493
						c-0.344,0.07-1.094,0.005-1.452,0.028c-1.243,0.08-2.321-0.048-3.371-0.532l-1.509,0.148l-3.391,0.333
						c-3.242,0.319-3.417-0.573-6.078-0.21c-2.658,0.363-4.117,0.859-5.725-0.347c-0.357-0.268-1.497,0.105-1.932,0.037
						l-2.041-0.317c-0.437-0.068-1.335,0.028-1.627-0.398c-0.718-1.048-0.918-2.174-0.955-3.373l-1.31-2.389l-1.024-2.66
						l-1.898-3.444l1.47-1.521l1.103-1.227c0.248-0.276,1.116-0.156,1.606-0.08c3.247,0.506,0.405-0.326,4.324,0.294
						c1.545,0.244,3.452,0.89,5.339-0.052c3.106-1.549,1.908-0.634,5.21-1.657c1.058-0.328,2.087-0.688,3.19-0.753l1.739-0.103
						c0.483-0.029,1.507,0.401,1.972,0.409c1.508,0.028,2.847,0.03,4.253-0.057l1.474-0.092l2.866-0.197
						c0.715-0.049,1.534-0.168,2.267-0.27l2.279-0.315c3.461-0.479,6.457-0.431,8.595-0.801l3.204-0.554
						c1.553-0.269,2.239,1.411,3.3,1.76l2.244,0.739c0.39,0.128,1.417,0.259,1.769,0.461l4.652,2.675
						c0.845,0.486,1.632,0.849,2.371,1.37l2.015,1.421c0.285,0.201,0.981,0.576,1.284,0.698l2.911,1.178
						c1.955,0.792,4.538,2.585,5.403,2.746l2.673,0.5c2.077,0.388,4.794,1.796,6.53,2.915c2.011,1.298,4.065,1.739,4.067,2.095
						l0.004,0.865c0.001,0.225-0.048,0.984-0.272,1.041c-2.251,0.574-1.33-0.092-5.039,0.293c-0.842,0.087-1.714,0.053-2.563,0.061
						l-1.475,0.014c-2.752,0.026-2.59-1.058-5.37-0.954c-0.747,0.028-1.703,0.148-2.375-0.007l-2.855-0.658
						c-0.315-0.073-1.016-0.357-1.343-0.371l-1.823-0.079c-0.44-0.019-1.259,0.111-1.837,0.201c-2.54,0.396-0.905,0.026-4.114-0.056
						c-1.152-0.029-2.43-0.103-3.572,0.036l-2.079,0.253c-1.724,0.21-2.214,0.198-3.713-0.085c-3.152-0.594-4.441,0.064-7.387-0.468
						c-0.287,0.06-0.989,0.354-1.272,0.35l-1.5-0.023L335.215,180.411z M349.413,179.223c0.38,0.028,1.173,0.148,1.46,0.103
						l4.245-0.663c3.09,0.601,5.8-0.225,8.701-0.017c1.984,0.142,1.634,0.655,3.963,0.835l2.337,0.18
						c1.512,0.117,3.094,0.072,4.409,0.751c0.293,0.151,0.721,0.402,0.93,0.391l2.013-0.111l2.043-0.114l1.177-0.067l0.573-0.032
						c0.125-0.007-0.229-0.296-0.354-0.384l-2.536-1.796c-3.232-2.289-5.078-1.469-7.178-2.424l-2.4-1.092
						c-0.418-0.19-0.887-0.471-1.29-0.722l-1.513-0.943c-2.391-0.575-5.542-2.285-7.302-3.968l-1.287-0.494
						c-2.427-0.931-2.376-2.03-4.448-2.561c-3.353-0.859,0.555-1.001-2.952-0.692c-1.818,0.16-2.26-1.875-3.715-1.248
						c-1.327-0.052-2.591-0.067-3.912-0.007l-1.3,0.059c-2.79,0.127-0.167-0.138-3.594,0.031l-3.37,0.167l-1.693,0.08l-1.484,0.215
						l-1.742,0.069l-1.43,0.071l-1.931,0.315c-2.335,0.381-6.562-0.397-8.041-0.077l-2.039,0.441l-1.534,0.331
						c-2.854,0.616-5.652,2.216-6.908,2.129l-4.055-0.28c-0.655-0.045-1.591-0.266-2.232-0.238l-2.833,0.123
						c-0.378,0.616,0.453,1.76,1.249,3.762l1.058,2.661l0.712,1.561c0.35,0.768,0.435,1.451,0.431,2.522l4.305,0.74
						c0.753,0.238,2.148,0.957,2.916,0.864l2.69-0.325c0.875-0.106,1.681-0.093,2.568,0.006l2.579,0.289
						c2.28,0.256,6.379-0.016,7.888,0.199c0.414,0.059,1.186,0.388,1.562,0.34l4.089-0.52l1.591-0.18l2.31-0.248
						c2.82-0.303,3.811,0.256,5.826-0.215c2.895-0.676,3.574,0.573,6.164-0.064L349.413,179.223z"/>
					<path d="M223.345,164.143c-4.756,2.492-4.692,0.013-7.12,0.568c-1.357,0.31-4.374-0.081-3.838,0.129l-2.15-0.84
						c-0.654-0.256-1.92-0.668-2.541-0.597l-2.585,0.557c-0.882,0.19-1.888-0.798-5.426-0.828l-2.084-0.017
						c-1.393-0.012-2.01,0.358-3.925-0.828c-4.599-2.847-3.215-0.004-5.56-1.178l-0.883,0.051c-0.205,0.012-0.541-0.453-0.64-0.659
						c-0.887-1.841-1.527-2.697-0.048-4.066c0.568-0.526,1.149-0.976,1.807-1.33l2.11-1.134c3.785-2.035,1.788-0.091,4.287-1.693
						c0.485-0.311,1.815-0.323,2.293,0.009c0.337,0.234,0.852,0.627,1.138,0.592c0.599-0.073,1.39,0.633,1.864,0.728
						c1.78,0.36,4.2,0.065,6.098,0.237c2.862,0.259,1.958,0.618,4.873,0.827l2.314,0.166l2.335,0.134
						c2.208,0.127,0.189,1.153,5.653,0.693c0.432-0.036,1.008-0.104,1.406-0.111l5.155-0.093c0.916-0.017,2.001-0.689,3.032-0.299
						c0.344,0.13,0.739,0.908,0.841,1.303c-0.474,0.802-1.008,1.765-1.401,2.674l-0.952,2.196c-0.301,0.694-0.736,1.06-1.463,1.41
						l-2.627,1.264L223.345,164.143z M220.963,163.383c0.727-0.397,1.777-1.214,2.575-1.268c1.228-0.082,2.084-0.229,3.077-0.719
						c0.934-0.461,1.242-0.678,1.737-2.216l0.725-2.251c-1.027,0.151-1.987,0.368-2.883,0.302l-2.503-0.183
						c-2.011-0.147-3.766,0.624-6.658,0.118l-4.321-0.755c-2.445-0.427-1.901-0.051-4.901-0.496
						c-0.828-0.123-2.021-0.461-2.698-0.471c-2.609-0.037-3.698-0.109-6.188-0.365c-1.925-0.936-4.179-0.968-6.047-0.374
						l-2.861,0.91c-0.872,0.278-2.785,1.412-2.291,1.992c0.266,0.312,0.677,0.938,0.765,1.249l0.235,0.825
						c0.048,0.169,0.649,0.083,0.838,0.031c3.319-0.899,3.247,0.837,4.398,1.094c0.584,0.131,1.413,0.296,1.925,0.347l2.255,0.225
						c0.304,0.03,1.053-0.084,1.393-0.108c2.8-0.197,2.963,0.361,5.765,0.919c0.638,0.127,1.948-0.295,2.559-0.261l1.816,0.102
						c2.541,0.142,0.337,0.89,4.42,1.1c0.781,0.04,1.667-0.026,2.423-0.07C217.743,162.989,220.071,163.871,220.963,163.383z"/>
					<path d="M304.638,156.792l1.525-0.49c1.502-0.483-0.037-0.153,2.813,0.407c4.56,0.897,2.989-0.771,6.867-0.698
						c2.443,0.046,3.397,1.227,4.501,1.122l2.047-0.195c0.222-0.021,0.962-0.374,0.889-0.579c-0.163-0.457-0.969-1.243-1.204-1.675
						l-2.194-4.044l-2.345-0.112l-2.404-0.078c-0.602-0.02-1.741,0.449-2.414,0.448l-5.451-0.001l-1.421-0.011l-4.293,0.145
						c-0.627,0.021-1.747,0.475-2.39,0.664l-1.593,0.469c-1.092,0.321-2.17-0.025-2.987-0.739l-2.392-0.285l-0.939-0.973
						c0.454-0.372,1.249-0.933,1.629-0.805l1.635,0.547l3.097,0.77l2.316-0.805c0.691-0.24,1.76-0.666,2.415-0.658l4.09,0.049
						l3.674,0.004c0.846,0.001,1.779-0.007,2.555-0.114l2.009-0.277l2.011-0.287c0.96-0.137,3.683-0.402,4.241-0.31
						c0.812,0.134,0.618,1.565,1.888,3.636l0.884,1.442l1.043,1.581c0.463,0.702,1.118,1.976,1.063,2.697
						c-0.107,1.391-1.394,0.866-2.052,0.873l-2.679,0.027c-0.514,0.005-1.406,0.083-1.829-0.071l-2.327-0.846
						c-0.49-0.178-1.66-0.2-2.161-0.222c-1.713,0.877-5.899,1.385-7.834,0.383l-2.048,0.698l-1.757,0.599
						c-0.545,0.186-1.632,0.506-2.16,0.489l-2.566-0.083c-0.721-0.023-1.607,0.067-2.304,0.194l-1.973,0.36l-1.087-0.228
						c-0.251,0.749-1.233,1.391-2.02,1.038c-0.234-0.409-0.458-1.336-0.62-1.884l-0.64-2.164l-0.349-1.168l-0.91-1.648
						c-0.166-0.301-0.674-0.997-0.627-1.313c0.044-0.29,0.527-0.777,0.796-0.876c0.323-0.119,1.254,0.027,1.335,0.361
						c0.859,3.521,0.97,1.94,1.732,5.347l1.292-0.204c0.91,0.359,2.099,0.864,3.037,0.74l2.423-0.321l2.228,0.287
						C301.908,158.161,303.309,157.219,304.638,156.792z"/>
					<path d="M296.976,145.245l-2.236,0.965c-1.302,0.562-1.288-1.044-3.361-2.299c0.999-3.494,2.37-1.797,4.152-3.903
						c2.598-0.509,2.219,0.558,4.391-0.085c3.408-1.01,1.555,0.217,4.399-0.815c0.56-0.203,1.501-0.053,1.71,0.303l0.526,2.291
						c0.199,0.866,0.152,1.999-0.448,2.539l-2.118,0.552c-2.991,0.779-1.093-0.435-3.862,0.48c-1.312,0.434-0.777-0.815-2.054-0.093
						C297.761,145.356,297.603,145.384,296.976,145.245z M304.022,142.671c0.195-0.141,0.086-0.992-0.147-1.051
						c-0.175-0.045-0.713-0.176-0.931-0.155l-2.822,0.27c-0.812,0.078-1.73,0.073-2.492-0.007l-1.558-0.164
						c-0.444,0.599-0.877,1.079-1.308,1.379l-0.651,0.453c-0.137,0.096,0.175,0.678,0.293,0.636l2.861-0.282l4.021-0.471
						C302.089,143.184,303.475,143.065,304.022,142.671z"/>
					<path d="M224.532,148.316c-1.225,1.814-1.009,3.076-3.841,2.745c-1.152-0.135-2.299-0.172-3.378-0.411
						c-0.944-0.209-1.688-0.322-2.661-0.075c-0.433,0.11-1.426-0.044-1.691-0.366l-1.079-1.315c0.51-2.003,2.103-4.279,3.766-5.208
						c0.88-0.491,3.254,0.129,4.219,0.706c0.841,0.503,1.868,0.962,2.818,0.875l2.029-0.184l0.956,0.871
						C225.491,146.728,225.075,147.512,224.532,148.316z M221.745,149.195l0.676-1.67l-0.895-0.265
						c-2.014-0.596-0.379-0.724-3.602-1.45c-1.635-0.368-2.749,0.519-3.253,1.948l-0.809,1.188l2.051-0.508l4.722,0.685
						C220.941,149.169,221.619,149.196,221.745,149.195z"/>
				</g>
				<path d="M179.307,123.429l-0.733-0.641c0.345-1.822,2.179-3.394,3.316-4.385l1.696-1.479c0.124-0.108,0.518-0.288,0.498-0.424
					l-0.097-0.671l1.909,0.043c0.142,1.537-0.23,0.789-2.339,2.982C181.322,121.18,181.598,121.242,179.307,123.429z"/>
				<path d="M210.316,114.626l-1.368-0.648c0.056-0.221,0.331-0.843,0.572-1.078l2.885-2.815c0.8-0.78,1.772-1.809,2.773-2.288
					c0.253-0.121,1.033,0.319,0.987,0.596c-0.079,0.473-1.331,1.54-2.271,2.621l-1.173,1.349c-0.142,0.163-0.389,0.767-0.497,0.981
					L210.316,114.626z"/>
			</g>
			<g>
				<path d="M396.306,116.017l-1.146-0.006c-0.92-0.005-1.623-2.569-2.139-3.404l-1.654-2.677l-0.642-0.96l-1.041-1.592
					l-0.934-1.425c-0.269-0.41-0.727-0.857-1.245-1.4c0.154-0.797,0.73-1.343,1.761-1.688c0.746,0.776,1.306,1.441,1.825,2.274
					l0.89,1.428c1.253,1.691,1.931,2.606,2.802,4.58l0.793,1.796c0.231,0.524,0.594,1.08,0.987,1.638L396.306,116.017z"/>
				<path d="M309.609,108.647c0.121,0.298-0.32,1.135-0.473,1.239c-0.382-0.349-0.653-0.603-0.75-0.842l-0.98-2.406
					c-0.259-0.636-0.561-1.17-1-1.635l-1.389-2.602c-0.301-0.564-1.33-2.854-1.458-3.188c-0.095-0.247,0.54-0.824,0.801-0.934
					c0.357-0.15,1.197,0.452,1.331,0.817l0.619,1.684c0.207,0.564,0.442,1.058,0.724,1.618c0.202,0.403,0.358,0.979,0.522,1.344
					l0.676,1.503L309.609,108.647z"/>
				<path d="M347.628,102.306l-1.007-2.079l-0.843-1.738c-0.249-0.513-0.495-1.29-0.775-1.748l-0.991-1.618
					c-1.577-2.575-0.92,0.072-2.779-2.841l1.158-1.115c1.357-1.306,3.343,2.371,3.815,3.447l1.151,2.623l1.03,2.374
					c0.272,0.627,0.607,0.971,1.387,1.253l0.054,1.808l-1.271,0.366C348.289,103.117,347.751,102.56,347.628,102.306z"/>
			</g>
		</g>
	</g>
</g>
</svg>
