<?xml version="1.0" encoding="UTF-8"?>
<svg id="Layer_1" xmlns="http://www.w3.org/2000/svg" version="1.1" viewBox="0 0 741.45 397.51">
  <!-- Generator: Adobe Illustrator 30.2.1, SVG Export Plug-In . SVG Version: 2.1.1 Build 1)  -->
  <g id="K63Tgq.tif">
    <g>
      <path d="M0,388.01v-7.88c.03.08.37-.63.38-.85l.2-3.22c.05-.71.16-1.83.09-2.47-.17-1.63-.85-6.46,1.2-6.93-2.31-2.04-.94-6.62-1.46-9.78l-.42-.39v-3.32c.52-.4.42-.77.43-1.64v-.87s0-.78,0-.78c0-.09.07-.5.09-.59l.16-.72.57-2.45.15-.65.14-.65.08-.79.08-.8c0-.09.17-.55.21-.62l.27-.47c.33-.57.08-.39.15-.91l.37-2.63c0-.06.28-.46.28-.52v-2.25c-.02-.28.53-1.02.56-1.3.02-.24-.19-1.13-.13-1.36l1.08-4.73c.07-.29-.31-.45-.12-1.53l.13-.72.13-.75.12-.71.12-.7c.03-.19.1-.59.1-.7l.04-.9c0-.1-.03-.6-.05-.7l-.16-.74-.15-.71c-.02-.1-.07-.54-.08-.67v-.86s-.03-.85-.03-.85c0-.13-.04-.58-.07-.68l-.17-.71-.15-.7c-.14-.66.11-1.49.37-2.07l.31-.71c.43-.99.43-2.1.32-3.37l.55-2.6c.53-2.51-.35-6.6-.1-7.92l.89-4.86c.02-.11.11-6.98.32-8.17l.8-4.59.41-4.22c.58-5.98-.55-1.43.12-6.36.14-1.04.32-2.29.32-3.18l-.03-2.54c-.05-5.13.28-1.23.43-6.27.16-5.62,1.68-5.37,1.51-6.43l-.31-1.92c-.11-.71-.2-1.41-.23-2.03l-.11-2.3.15-3.85c.23-5.88-.37-3.62-.47-7.88-.06-2.41-.46-5.22-.45-5.38l.3-3.39c.16-1.83.42-2.78.39-3.22-.11-1.45.19-3.51.41-5.28l.22-1.82c.2-.91.45-1.92.53-2.87l.26-3.41.28-4.84c.19-3.23-.2-1.85-.37-5.2l-.26-4.92c-.06-1.04.54-2.68.57-3.57l.12-3.48.02-1.6.12-5.39.14-4.12.1-2.95c.17-5.16-1.14-2.28-.73-5.54.49-3.86-.63-5.34-.34-8.88l.34-4.18c.07-.87-.05-1.82.02-2.6l.27-3.22c.27-3.15.43-4.86.29-8.09l-.15-3.56-.16-2.42.21-3.02c.04-.56.14-1.28-.09-1.74-.75-1.54.41-3.07.35-4.42l-.22-5.04c-.16-3.7,1.18-3.04,1.11-5.15l-.09-2.51-.04-3.97c-.02-2.21-.02-4.37.1-6.6l.13-2.51c.1-1.88.01-3.87.21-5.69l.45-4.11c.15-1.36.42-2.69.8-4.17.58-2.28-.83-1.13.27-4.4l-.21-2.18c-.05-.47.01-1.42.21-1.8,3.32-6.56-.62-5.38,1.39-9.41l2.24-4.5c.38-.76.85-1.87.94-2.59l.28-2.3c.58-4.75,1.35-4.96,1.51-6.44l.48-4.54c.51-4.76,1.22-3.08.72-6.39-.13-.84.07-1.95.35-2.71.33-.58-.58.03.16-1.55l.3-.63c.58-1.24,1.31-.66,1.51-1.73l.14-.75c.21-1.12-.12-.26.45-1.21l.31-.52c.09-.15.21-.36.28-.5l.29-.57.28-.55.28-.54.28-.55c.19-.37.53-.6.86-.82l.49-.33.5-.34.49-.34c.16-.11.42-.29.49-.33l.56-.27c.12-.06.4-.14.63-.22l.66-.24c.47-.17.45-.27,1.03-.52,4.77,1.49,9.66.57,14.35-.97l3.54-1.16c4.09-1.35,3.06-.6,6.62-2,3.2-1.26,5.16-1.72,8.68-1.74,1.32,0,2.89-.35,4.04-.24l3.8.34c1.18.11,2.28.13,3.41.17l4.09.15,4.47.16c.93.03,2.29-.18,3.36-.27l5.03-.43,6.54-.59c1.93-.17,3.88-.98,5.86-1.09l2.82-.16c.4-.02,1.31-.26,1.72-.31,3.96-.52.49-.3,4.72-.55l3.61-.21,4.21-.33,2.73-.18c.38-.03,1.22.04,1.54-.01l1.87-.33c3.61-.63,1.77.39,3.95-.04l2.89-.57c1.28-.25,2.32-.36,3.6-.37,5.32-.05,6.09-1.6,10.32-1.3.9.06,1.89.16,2.46.02l1.43-.37c.08-.02.65.45.73.46,2.69.24.14-.69,4.11-.6l4.62.1c1.93.04,3.88-.06,5.84.21l3.35.46c1.04.14,2.29.34,3.26.39l4.97.24c4.09.19,3.37-.66,7.65-.59,3.8.06,4.75-.77,9.44-1.53l2.19-.36c.3-.05.9.24,1.34.45-.13.2-.02.03.16-.25.22-.17.91-.63,1.21-.62l1.54.05c.76-.24,1.84-.55,2.55-.6l2.01-.13c1.69-.11.69.82,2.06.7,1.72-.15,3.5-.14,5.24.1l3.33.45,2.97.41c3.02.42,2.5.67,6.45.68,1.44,0,2.84-.09,4.22.2,2.34.49,1.89-.13,5.68-.55l2.74-.31,5.63-.62,3.11-.34c3.68-.4.16.33,4.03-.04,1.08-.1,2.25-.24,3.22-.25,1.55,0,3.25.24,4.69-.13,1.09-.29,2.16-.57,3.14-.59l3.33-.06c.83-.01,1.73-.09,2.66-.21,5.33-.66,1.71-.07,6.98-.09l23.12-.08c.42,0,1.3-.15,1.72-.19,3.12-.31,5.89-.23,9.05-.05l2.62.15c1.1.06,2.23-.02,3.42-.14,3.07-.32,6.28.11,9.34-.36,1.49-.23,3.1-.9,4.62-1.05,1.13-.11,2.1-.31,3.1-.51l7.01-1.4c.98-.2,2.21-.36,3.23-.46l4.16-.42,2.47-.25c4.26-.43,1.08-.38,6.2-.69l4.22-.25,3.24-.22c1.25-.09,2.57-.02,3.85-.19l4.07-.53c.46-.06,1.65.22,2.16.27.42.04,1.52-.23,2-.24l4.89-.09c2.09-.04-.34.58,4.2.87l4.22.27,5.36.18,2.29.13.96.04h.56s.47.42.47.42l.31-.22,1.01-.7s.46-.01.51,0l.52.09c4.46.77,5.2-.4,7.1-.51l.54-.03.67-.05.81-.05c1.79-.1,5.89-2.17,9.58-.89.66.23,1.09.12,1.8-.06l2.51-.62c.51-.12,1.79.17,2.35.13l3.4-.23,2.5-.2,6.46-.35,4.19-.31,3.3-.02,12.81.14c.84,0,2.67.46,3.5.6,2.12.34.16-.9,3.76-.54l2.94.29c.55.05,1.6.31,2.09.25,3.53-.4-.23-.2,3.36.21-3.74-.42,3.44-.72,2.5-.71l2.45-.02,2.62-.02,2.3-.04,10.61-.16,1.77-.28,6.9-.19,2.35-.07,2.26-.08,7.94-.27,5.8-.43c1.44-.11,2.77-.16,4.17-.13l1.63-.12c3.09-.22,6.06-.07,9.06.13l3.42.23,3.17.2,2.7.12c.88.04,2.17.39,3.24.63,2.1.47,4.07.17,6.24.06l2.07-.11c.08,0,.48.18.57.23.45.27.48.35.62.27l.87-.51c.2-.12,1.42.03,1.72,0l2.36-.3c.39-.05.88.3,1.48.22l5.36-.71.88.35,1.87-.29c1.25-.19,2.62.06,3.89.37.63.02,1.92-.11,2.68-.22,6.38-.98,3.35,1.19,6.02-.18.08-.04.56-.1.69-.1l1.99-.06c.08,0,.76-.29.95-.3,3.17-.18,8.07.39,11.61.63l4.49.3c3.24.22,2.52.48,6.68.15,5.26-.42,2.24.01,5.6-.14l2.1-.09.91.35,6.79-.03c5.73-.02,3.9,2,5.38,1.23l.48-.25c1.74-.92,1.61-.56,4.37-.04l.75.14c1.6.3.32.07,1.47.21l.74.09,7.03.95c.59.08,1.08-.25,1.42-.2l1.71.24c.33.05,1.24-.26,1.65-.26h15.58c1.45,1.15.86.66,1.68.55,3.84-.49,1.86.14,5.84.07.87-.02,1.77,0,2.66.05l5.72.27c1.36.06,3.29.5,5.52.54l2.65.05,3.22-.03c.38,0,.84,0,1.22.01l3.17.16,3.65.19c.35.02,1.28-.08,1.6-.03l2.86.47,2.38.38,3.47.4c.49.06,1.29.14,1.67.1,4.99-.48,1.76.31,4.39.33h1.61s.66.02.66.02c1.87.01.88.45,1.99.53l4.45.3,1.99.2c1.72.17,1.99,1.03,2.95,3.23l1,2.31.27.63c.23.52.87.16,1.26.39l1.28.76c-.05-.03,2.06,1.88.93,2.88l-.43.38-.43.39c-.83.75-.02.17-.99.7l-.54.29c-.06.03-.34.45-.33.53l.08.7.13.69.13.7c.99,5.29,1.36,4.13,1.37,10.34,0,2.31.41,6.44.21,7.61l-1.15,6.59c-.14.79-.21,1.76-.25,2.59-.25,5.71-.63,3.48-1.06,8.45l-.33,3.82c-.13,1.46-.37,2.76-.74,4.31-.32,1.34,1.39,1.87,1.23,4.77l-.05.85-.04.83-.04.74-.03.6.02.51.03.66.04.81c.01.26.01.54.01.81v.85s0,.83,0,.83v.83s0,.84,0,.84v.85s.02.77.02.77c0,.09.1.47.15.7l.13.68c.15.76.16.69.08,1.57-.28,2.96-.42,5.72-.41,8.71v.83c0,.1-.07.52-.13.79l-.78,4.05c.08-.44.13,2.05.15,1.79l-.2,3.41-.25.86-.14,3.01-.05,2.17c-.02,1.02.03,1.95.05,3.03l.07,3.05.14,10.27c.02,1.12.11,2.08.22,3.37.05.53-.59,5.45-.4,7.11.24,2.11.62,3.75.3,5.8s-.18,4.05-.1,6.05l.11,2.86c.02.52.1,1.12.21,1.72.45,2.55-.27.39.21,5.02,0,.09.25.78.24.88l-.36,3.32c-.14,1.29.47,3.12.62,4.55.45,4.29-.31,3.71-.04,6.6l.3,3.19c.08.86.08,1.75.04,2.62l-.12,2.65c-.25,5.37.86-.16-.26,6.3-.21,1.23.11,1.29.1,4.08v1.53c-.02,3.55.66,5.5-.13,6l-.87.55,1.48,2.21c.03.05-.13.6-.11.65l.17.44c1.69,4.34.3,9.66.4,10.35l.1.72c.13.94-.1,1.15.18,4.43.13,1.49-.8,3.64-.58,5.06.28,1.84.4,3.18-.7,4.64l.47,1.44c.06.17-.04.87-.04,1.09l-.02,1.83c-.04,3.03-.22,1.05-.24,2.84l-.07,7.02c0,.86-.75,2.55-.66,3.32l.44,4.13c.2,1.85.37,3.66,0,5.48l-.78,3.84c-.32,1.56.63,3.77.5,5.44l-.13,1.74c-.27,3.69.03,1.97-.09,5.57-.08,2.31-.11,4.64.07,6.89l.19,2.35.34,1.55c.05.25-.03.95-.04,1.24l-.04,1.86c-.02.67-.05,1.44-.02,2.03l.11,1.73c.04.64.07,1.48.02,2.06l-.23,2.64-.33,3.79c-.3,3.46-.79,6.32-1.64,9.7-.2.81-.86,2.3-.95,3.04-.04.35.38,1.46.38,1.85v8.09s-.39,1.89-.39,1.89c-.69,3.34.89,13.21.76,13.88-.44,2.21-.41,4.16-.07,6.37l.44,2.87c.04.24-.37.81-.59.88l-.7.24c-.68,1.73-2.51,2.52-4.35,2.09-1.32-.31-1.53-1.78-1.45-2.87l.27-3.51c0-.06-.3-.47-.3-.54l-.06-1.19c-.03-.51-.11-1.17-.21-1.71l-.35-1.87c-.06-.34-.28-1.02-.42-1.52l-.91-3.4c-.07-.25-.29-.77-.37-.96l-.44-.95c0-.09.1-.71.12-.84l.12-.68c.02-.11.06-.49.03-.56l-.37-.83c-.03-.07-.21-.35-.29-.48l-.34-.52-.32-.49c-.91-1.39-.16-1.5-1.29-4.08l-1.41-3.22c-1.02-2.33-1.34-1.76-2.61-4.86l-.36-.87-.91-2.07-2.39-5.42c-.32-.73-1.66-1.75-2.13-2.34l-1.19-1.49c-1.13-1.41-.55-1.39-.68-4.14l-.19-3.77c-.07-1.33.51-3.41-.21-4.61-2.21-3.66.36-3.79-1.09-5.47l-.48-.55c-.53-.61-1.23-2.09-1.35-2.87,1.02-.59,2.1-1.12,2.26-1.76,0,.02-1.13-3.17-1.46-5.03-.29-1.65-.78-3.2-1.18-4.77l-.81-3.19c-.73-2.86-1.14-5.7-1.61-8.69-.26-1.65-.36-.55-1.23-3.92-1.19-4.54.01-2.94-1.34-7.27-.13-.42-.35-1.11-.34-1.45l.08-2c.02-.47-.37-1.54-.44-2.02l-.56-4.02-.12-.77c-.13-.82-.35-1.7-.59-2.61l-.47-1.81c-1.3-4.96.32-1.21-1.4-5-.95-2.08.2-1.37-.74-3.58l-.9-2.12c-1.13-2.66.47-4.36-.37-4.55l-.7-.16c-.06-.01-.44-.3-.46-.35-1.77-5.42-.19-3.8-2-8.21s-1.09-1.51-2.56-6.29c-.21-.68-.49-1.57-.73-2.17l-1.22-2.95-2.2-5.16c-.83-1.95.1-4.31-.59-4.64-.65-.31-1.55-.88-1.67-1.34l-.63-2.4c-.28-1.08-.92-2.19-1.28-3.21-1.53-4.29-1.44-4.75-3.97-8.54-.29-.43-.59-1.52-.81-2.11l-1.16-3.11-.59-1.59-.57-.48-.72-2.09-.2-.59c-.55-1.6-1.03-3.06-1.66-4.64l-1.32-3.33c-.14-.34.37-1.48-.15-1.59l-1.2-.25c-.07-.02-.33-.39-.36-.48l-1.12-2.95-1.05-2.75-1-2.66-1.4-4.05c-.49-1.42-1.05-2.8-1.65-4.18l-2.14-4.98c-.28-.66-.58-1.41-.81-2.1l-1.42-4.14-1.53-3.2-.83-2.65c-1.18-3.78.65-.06-.95-3.08-2.87-5.4-.84.01-3.1-7.18l-.91-2.89c-.25-.79-.6-1.58-1.06-2.31l-2.19-3.49c-.21-.33-.46-1.38-.63-1.69l-1.13-2.11c-.38-.71-.91-1.78-1.32-2.28l-1.94-2.4c-2.19-2.7.37-2.55-3.45-4.46l-.61-.76-.63-.78c-.34-.42-.92-1.32-1.3-1.66l-3.04-2.78c-.4-.37-1.54-.93-1.97-1.27l-3.96-3.14-2.03-1.66c-1.13-.92-2.44-1.79-3.65-2.54l-4.15-2.58-2.66-1.46c-3.36-1.85-3.02-1.69-6.74-1.86-1.93-.09-5.06-.88-7.39-.35l-4.15.95c-1.8.41-3.72,1.24-5.52,1.37l-4.75.35c-.71.05-1.9.67-2.61,1.05l-4.4,2.32c-4.32,2.28-3.84.86-6.04,1.45l-3.36.9c-2.59.69-4.92,2.39-7.2,3.86-1.91,1.23-5.1.8-5.99,5.57-.12.63-1.26,1.41-1.8,1.67-1.3.63-1.68-2.22-3.32-1.06l-4.49,3.17-1.42,1-1.95,1.37-1.99,1.4c-1.6,1.12-3.54,1.97-5.29,3.02-2.89,1.74-6.43,4.02-8.23,6.59l-1.06,1.51c-2.03,2.9-4.02,5.7-5.59,8.88-.37.74-.73,1.57-1.14,2.18l-4.48,6.77c-.48.73-.93,1.83-1.44,2.73-1.21,2.15-2.12,1.73-1.77,2.23l.39.58c.07.1.02.6-.03.71l-.64,1.42c-.44.97-1.01,2.21-1.28,3.16l-.97,3.37-.74,2.41-1.77,6.27c-1.31,4.63.27.87-1.17,5.43-.23.72-.36,1.54-.46,2.27l-.37,2.73c-.07.53-.12,1.14-.16,1.69l-.06.78-.17,2.34c-.3,4.1,1.55,2.77.13,5.31-.99,1.76.57-.34-.4,3.9-.35,1.53.77,1.77,1.44,6.82l.4,3.05c.28,2.09.5,3.22-.28,5.09-.08.2.54.07.82,1.19l.47,1.84c.39,1.53.55,2.98.5,4.76-.12,4.14,2.15,2.95,1.7,8.64l-.24,3.11c-.03.35,0,1.28.2,1.52l1.55,1.89c-.12.87-.28,1.92-.19,2.45l.6,3.41c.12.69,0,1.75-.11,2.71l.57.4c.42.29.93.6.92.94,0-.13-.28,2.99-.54,1.82l.18.83c.85,3.83-1.01,1.48.59,4.24l-.16.6c-.07.27-.22.77-.11.91l.46.54c.04.05.06.22.09.43.48,3.74,1.26,3.03,1.45,4.56.26,2.02-.31-.49.21,2.26l.43,2.29c.11.6.07,1.84.02,2.55-.04.55.68,1.66.8,2.25l1.08,5.22c.26,1.27.63,3.68,2.72,3.08l5.65-1.63c1.41-.41,2.93-1.18,4.41-1.02.9.09,1.67.05,2.24-.43,2.72-2.33,2.3.6,7.78-2.26.91-.48,2.71-.93,3.53-1.01l2.23,1.7c1.51,1.15.7.53,2.19,3.58.82,1.68.1,2.18,2.83,7.1,1.13,2.03,1.35,3.52,2.18,3.3l3.18-.83c.97-.25,1.99-.44,2.99-.48l3.65-.14c2.4-.09.33-.21,1.86.45l.56.25c.29.13,1.19.92.97,1.19-1.2,1.43-3.84,2.53-5.74,2.78-2.17.29-6.4,2.04-5.25,4.23.32.61.46.97.69.93.26-.04.72-.14.83-.14l.82-.02c.22,0,.77.08.76.25l-.07.88c0,.07-.4.32-.46.34l-.77.19c-.25.06-.88.38-.89.64l-.02.63c-.07,2.17.1,2.92.68,4.84,1.39,4.6,1.27,2.84,2.49,6.27.78,2.16,1.1,4.55,1.58,6.7.38.48.99,1.42,1.22,2.03l1.71,4.51c.75,1.98-1.74,3.7-.17,4.93l3.15,2.48,2.55,2.05,4.81,3.93c2.74,2.24,1.26,1.94,4.43,5.07l3.16,3.13,2.49,2,3.2,3.12,1.83,1.79c.11.11.71.36.86.47l3.52,2.62,2.68,1.96,1.8,1.45,2.08,1.7,4.08,3.42c4.25,3.56,3.35,5,8.04,8.15,3.16,2.12,2.97,3.13,5.76,5.05.6.41,1.3.93,1.95,1.3l3.61,2.06c1.22.7.64-.16,3.77.09,1.16.1,3.04.37,3.9,1.08,1.09.89.3,2.52,1.77,3.65l2.36,1.81c.41.31,1.3,1.28,1.56,1.73,1.79,3.12.72,4.79-.27,7.58l-1.33,3.73c-.87,2.46-2.96,7.86-6.03,7.78l-2.99-.09h-2.33c-1.39.02-2.44-.05-3.72.34-4.29,1.31-3.1.31-6.85.64-5.52.48-5.72-.61-8.03-.48l-5.17.28c-1.6.09-3.33.46-4.97.67-3.98.49-4.18.85-7.87,1.24l-3.44.37c-4.56.49-4.31,0-9.46.24l-2.97.14-6.95.28c-1.49.06-4.1.54-7.06.71l-3.75.22-4.91.3-2.65.16-3.24.18-3.34.28c-3.15.26-6.27.15-9.39,0l-1.94-.09-1.95-.12-5.39-.41c-2.28-.17-4.69-.16-7.02-.02l-3.94.25c-.41.03-1.53-.28-1.9-.22-1.1.18-2.69-.06-3.53-.65,0,0-.92.58-1.14.58l-5.51-.14c-5.32-.13-.81.83-5.65.28-1.2-.14-2.38-.08-3.67-.19l-3.3-.29-7.86-.21c-3.61-.1-12.33.36-15.36.03l-3.3-.37-2.55-.1c-.93-.04-2.12.06-3.05-.13l-4.12-.81c-3.91-.77-3.3.7-9.19.66l-9.14-.06-5.16.4-4.53.15-3.86.24c-4.75.29-4.81-.27-7.86,0-.96.09-2.11.23-2.91.23l-8.2.04c-1.7,0-3.38-.1-5.08.12-5.34.68-3.04-.24-6.68.35l-2.47.4-2.77.4c-5.1.73-1.07-.54-6.43.08l-2.99.34c-.38.04-1.25-.77-1.61-.62-.28.12-.87.66-1.17.7l-2.36.25-3.79.31-3.78.31-3.75.39-6.13.28c-4.74.22-4.12-.1-8.76.28l-3.36.27-4.53.23c-.71.04-1.73,0-2.56-.02l-2.11.73-13.5-.07c-.61,0-1.92-.85-2.51-.74-1.6.29-2.92-.2-4.35-.59l-2.4-.67c-1.68-.47-.79,1.1-3.98,1.2l-3.14.1c-1.08.03-2.19.1-3.31.21l-3.13.32c-1.13.11-2.23.2-3.39.2-4.48,0-2.36.9-6.68.27l-1.33.53-5.68.2-2.91.27-4.26.33c-1.67.13-3.6.05-5.21.33-1.17.21-2.26.5-3.4.63l-3.01.35-2.01-.63c-1.54.69-3,.73-4.65.46l-3.31-.54c-.8-.13-2-.24-2.72-.22-1.67.05-3.07-.06-4.72-.11l-7.02-.21-2.91-.71-3.58-.21c-3.26-.19-2.99,1.32-5.01,1.44l-2.51.15-3.91.18c-3.68.17-3.88.36-7.39.48-1.28.04-2.75-.02-3.86.27-4.93,1.34-7.84-.34-9.88-.06l-2.66.37-2.72-.35c-.89-.12-2.25-.08-2.97.31l-2.35,1.27c-5.34-.87-5.14,1.25-7.63.26-8.01,2.31-5.24-1.03-10.36.29-1.18.31-2.38.45-3.61.63l-4.23.6-3.33.48c-.82.12-2.14.27-2.85.25l-3.75-.13c-4.47-.15-2.67-1.4-7.02-1.59-.62-.03-1.82.7-2.57,1.07l-1.2-1.27c-.58-.61-2.58-.38-3.38-.11l-1.95.65c-1.26.42-.84-1.4-1.48-.9l-.69.54c-.38.3-1.35.63-1.96.69l-3.43.33-3.73.43-2.66.34c-2.18.28-5,.44-6.93-.6l-2.18-1.17c-2.52-1.35-.9-2.28-1.66-4.56-1.14-3.43-.35-3.55-.66-5.76l-.4-2.77c-1.07-7.46.37-5.78-1.12-12.11-.31-1.32,1.24-2.62,2.52-2.94,1.58-.4,2.17-1.76,3.11-2.86,1.39-1.61,3.35-3,4.37-5.05.72-1.45,1.67-3.18,2.62-4.39.27-.34,1.22-.57,1.51-.79,2.32-1.75.64-2.21,3.57-3.82l1.5-2.16c1.15-1.66,2.43-3.45,4.1-4.57l2.01-1.35c3.77-2.54,3.25-2.59,6.5-4.7.35-.22,1.36-.58,1.72-.74l1.77-1.7c.79-.76,1.62-2.06,2.53-2.67l2.06-1.37,1.74-1.16,2.94-2.1c.79-.56,2.61-.9,3.44-1.4l2.7-1.62,2.24-2.55,4.04-2.68c2.3-1.52,4.45-.81,6.24-1.86-.78-4.98,1.2-7.21,1.6-8.8.38-1.5.62-2.5,1.49-3.65,2.29-3.04,1.13-2.31,2.17-5.67l1.2-3.86c1.78-5.74.64-3.15,1.08-7.52l.38-3.77.37-3.65c.07-.68.23-1.47.36-2.22l.5-2.74-2.32-.52c-1.39-.31-3.01-.63-4.2-1.18-.76-.35-1.65-1.22-2.48-1.22-.87,0-3.06-.74-2.8-1.49l1.13-3.22c.22-.62,1.89-1.09,2.53-.88l5.03,1.64,2.29.69,2.09.57,1.09-3.12c1.08-3.07.88-.83,2.6-6.12l.8-2.47.86-2.46c.23-.66.65-1.6.68-2.15.08-1.28.54-2.06,1.77-2.4.57-.16,1.76-.62,2.34-.61l5.86.04.62,1.16c.35.64,1.03-1.36,2.22-.45l2.18,1.67c2.19,1.67.67-.09,4.04,1.63.82.42,1.66.82,2.53,1.2l4.28,1.87c.33.14,1.44.34,1.58.04.3-.62.8-1.99.95-2.69l1.19-5.28-.08-3.36.74-3.33c-.03-.52-.39-1.87-.32-2.47l.34-2.9c.38-3.24-.54-1.72.62-5.17.3-.88.52-1.77.57-2.68l.23-4.26.14-2.85c.15-2.98.92-8.54,1.66-11.21.33-1.18.55-1.69.36-2.84-.28-1.7.44-3.4.95-5.88l.42-2.07c.51-5.62.54.31,1.5-7.9l.53-4.53.24-2.41.27-2.92.12-1.75.47-4.18.26-2.59.26-2.86c.07-.76.54-2.17.54-2.85v-4.03c0-1.07-.06-2.47.21-3.45l.77-2.8c-.63-1.49-.88-3.18-.33-4.75.11-.4.18-.65.18-.64-.77-.4-1.22-.53-1.16-.74l.3-1.11c.6-2.18-.44.35-1.41-5.31-.21-1.21-1.26-2.86-1.85-4.08l-2.74-5.64c-.29-.59-.77-1.65-.84-2.18-.06-.76-.14-1.78-.66-2.12-3.11-2.04.13-.37-4.2-3.74-.52-.4-1.66-1.19-1.97-1.71l-1.59-2.66c-.28-.47-1.34-1.01-1.87-1.37l-3.24-2.22c-.98-.67-2.61-1.06-3.86-1.49-4.39-1.51-2.36-2.27-7.51-4.05-.61-.21-1.92-.27-2.52-.43l-3.33-.92-2.57-1.1-7.86-1.75c-.59-.13-1.8-.65-2.26-.93l-2.6-1.58c-.29-.18-.94-.99-1.24-1.3l-3.42-.21c-.81-.05-1.74-.67-2.46-1.35-.5-.08-1.63-.19-2.14-.3l-4.46-1.02c-.9-.21-2.2-.61-3.06-.51-1.16.13-2.87.77-3.72.6-1.16-.24-2.28-.58-3.34-.7l-3.31-.38c-2.8-.32-1.02-2.21-8.29-.68-1.34.28-3.26.04-4.43.61l-2.51,1.22c-1.36.66-3.85.49-6.73,1.13l-6.18,1.38c-2.93.65-3.57.48-5.02,1.01-4.83,1.8-5.69,4.18-9.1,5.8l-4.27,2.03c-.33.16-1.25.51-1.5.72l-2.66,2.17c-1.38,1.13-2.5,2.23-3.42,3.7-2.6,4.16-1.91,1.35-3.55,4.39l-1.18,1.26c-3.51,5.56-.25,2.79-4.14,8.7-2.74,4.16-3.31,7.08-5.07,10.2l-1.72,3.04c-.43.76-.66,2.48-.71,3.43-.1,1.84-1.2-.09-1.52,4.23l-.29,3.83c-.08,1.02-.25,2.12-.6,3l-1.2,3.03c-.41,1.04-1.93,6.01-2.1,6.87l-.73,3.59-.52,2.46-1.47,6.36c-.21.9-.4,1.7-.76,2.48l-1.21,2.56-.35,2.21-1.26,2.49c-.24.47-.45,1.53-.63,2.01l-2.05,5.4c-.24.64-1.18,1.84-1.42,2.63l-1.42,4.8c-.3,1.02-.6,2.08-.68,3.07l-.24,3.08c-.34,4.21-1.48,1.94-1.24,7.71l.24,5.59c.12,2.82-1.62,5.73-2.22,9.81-1.26,8.58-1.96,5.77-2.57,9.31-.73,4.27,0,7.2-1.57,10.37l-1.26,2.54c-.23.47-.29,1.71-.48,2.19l-.99,2.53c-2.57,6.6-.43,1.69-2.02,6.69l-1.51,4.75-1.22,3.76c-1.2,3.68.93.4-.14,4.27l-2,7.28-2.26,6.09c-1.92,5.17-1.02-.11-1.5,5.51-.12,1.37-1.03,2.73-1.65,4.09-.4.88-.53,2.4-.79,3.37l-1.03,3.99c-.62,2.39-.98,4.64-1.34,7.09-.08.55-1.25,4.22-1.59,5.94-.38,1.87-.52,3.73-1.3,5.4l-1.08,2.29c-.27.56.47,2.01.38,2.66-.34,2.36-.48,5.49-1.4,7.51l-.79,1.72-1.65,6.1c-.29,1.06-.6,1.95-1,2.88l-1.05,2.43c-1.49,3.44-3.23,6.92-3.54,11.25l-.22,3.09-1.96,3.95c-1.63,3.28.04,2.86-1.22,6.14l-2.3,6.02-1.03,3.97-1.56,4.15.65.65-1.31,1.46c-.8.9-3.23,1.24-4.62,1.23l-1.76-4.65c-.99-2.62-1.07-4.15-1.7-4.84ZM133.4,51.03c1.51.09,3.28.65,4.63.66,4.54.02,3,.53,6.04.71l3.84.23c3.16.19,1.05,1.33,5.17,1.88l3.74.51c1.87.25,6.62,1.51,9.95,2.11,1.69.31,1.58-1.05,7.39,1.16l2.98,1.13,3.35,1.27c.31.12.96.71,1.24.66,4.4-.7.87,1.14,7.58.32s3.93-1.46,8.25-1.64l3.24-.13,1.79-.03c3.18-.06,6.31-.21,9.47.08l4.2.39c1.45.13,3.16,1,4.62,1.4.73.2,1.86.37,2.39.65,3.92,2.02,3.73,1.22,5.99,3.08l2.32,1.9c.71.58,1.78,1.52,2.47,1.94l4.22,2.57c.73.45,1.72.76,2.79,1.1l1.14-3.42c2.5-2.84,2.19-2.77,3.67-6.28.17-.41.56-1.02.89-.95l1.34.31c1.92.44,4.38-1.26,5.94-2.39,3.22-2.32,4.12-2.66,7.69-4,9.86-3.72,14.59,1.6,22.47,2.87l3.33.54c1.07.17,2.16.66,3.27,1.17,1.23.56,3.33.71,4.46,1.34l5.39,3c1.19.66,2.48,1.65,3.63,2.52l2.12,1.61c.96.73,1.83,1.45,2.65,2.32l1.19,1.26c1.2,3.46,3.03,4.08,5.04,7.03,1.72,2.51,2.34,5.45,4.11,5.05,1.25-.29,2.08.06,3.17.52l2.12.88c2.17.9,4.22,1.69,6.51.9l2.6,1.13,3.03,1.3c1.06.46,2.04,2.01,3.67,2.16,2.04-2.31,1.37-3.31,2.67-5.59,1.16-2.03-.23-.32.41-2.85l.69-2.72.72-.88c.72-.88,1.48-1.91,2.26-2.7l1.88-1.91c2.74-2.78,2.35-1.03,6.61-4.11l2.19-1.58c.7-.51,1.46-1.07,2.15-1.52l2.4-1.54c1.68-1.08,3.04.19,6.67-1.11,2.1-.75,5.56-1.68,7.73-1.86l4.8-.41c5.44-.46,2.92-1.26,7.78-.31.67.13,1.57.3,2.12.55l2.95,1.32c.56.25,1.99.44,2.28.91l.96,1.59c1.74.53,2.78,1.63,3.55,3.18s2,3.3,2.35,5.02c1.03,5.08,1.36,6.98.87,12.19-.13,1.41-.12,2.47.08,3.94l-.29,2.39c.23.36.55.88.21.35l2.59-.91c.57-.2,1.34-.52,1.94-.77.72.23,2.48.77,3.23.34l6.38-3.69c1.66-.96,4.74-2.63,6.58-2.53,3.55.21-.23-.61,4.04-5.1l2.83-2.97,3.52-3.99c.65-.74,5.48-4.3,6.33-4.79l3.5-1.99c.67-.38,1.55-1,2.2-1.49,3.43-2.62,1.26.07,5.18-2.29,3.66-2.19-.12.68,4.77-1.87,2.06-1.08,4.83-2.05,7.19-2.22l3.8-.28c.66-.05,2.04.25,2.63.45,4.1,1.38,2.08-.12,5.6.98,2.42.75,4.62,1.64,6.83,2.76l3.86,1.96c2.89,1.47,2.72,2.41,3.25,2.33.23-.03.8-.3,1.01-.47l3.11-2.65,1.79-1.53c.85-.73,3.59-.48,5.37-1.17l4.56-1.78c3.75-1.46.3.13,4.75-1.44.45-.16,1.33-.21,1.91-.32l3.75-.73c.61-.12,1.81-1.06,2.33-1.42,1.18-.81-.68.37,2.64-.15l2.29-.36c2.22-.35,4.46-.43,6.55-.24.71.07,2.01-.5,2.76-.66l4.98-1.07,3.68-1.12,4.19-.87c.93-.19,1.91-.4,2.83-.47,7.07-.5,5.31-1.3,9.27-2.11,1.66-.34,3.33-.66,4.97-1.11l2.94-.82c6.22-1.73,3.62-.34,7.67-1.38.93-.24,1.8-.42,2.76-.57l6.68-1.09c2.22-.36,4.36-.75,6.47-1.44l2.89-.94c.86-.28,2.37-.25,3.42-.38,3.26-.41,2.26-.62,5.44-1.11l7.55-1.16c2.75-.42,3.44.68,7.55-.82,1.67-.61,3.42-.81,5.1-1.26l4.22-1.11c4.93-1.3,4.33-.04,6.39-.87,5.44-2.19,2.06.12,6.57-1.8,3.24-1.38,2.63-.48,7.13-1.14.99-.15,1.95-.47,2.97-.72,4.63-1.17,4.35.12,9.17-1.61.77-.27,1.76-.67,2.46-.83l8.5-1.98c1.95-.45,3.86-.82,5.92-1.17.79-.13,2.41.04,3.09-.22,2.14-.84,4.9-1.88,6.98-2.42l7.37-1.9c1.86-.48,4.24-.67,6.19-.59l3.65.14c2.01.08,4.43-.62,6.39-1.2,3.37-1,6.5-1.8,10-2.46.8-.15,2.36-.03,3.06-.24,1.83-.53,3.3-.93,5.16-1.07,1.04-.08,2.44.08,3.23-1.07.08-.12-.18-.61-.32-.65l-1.58-.5c-.92-.29-2.51-.94-3.36-1l-4.25-.29c-3.37-.23-4.54-.78-6.18-.73l-3.8.12c-.55.02-1.62-.48-2.15-.81-1.73-1.09-.47.71-3.39.21-2.25-.38-3.18-.48-5.48-.48-3.59,0-1.41-1.23-4.2-.12-.7.28-2.41.01-3.07-.51-2.5-1.97-3.24-.57-8.12-.74l-4.03-.14c-1.25-.04-2.59.1-3.86.22-3.82.37-1.05.08-5.63-.04l-1.56-.04-14.46-.18-4.23-.07c-4.59-.08-2.33-.89-5.63-1.61l-7.3-1.61c-1.31-.29-3.36.34-4.67-.12-1.14-.39-2.38-.76-3.46-.7l-4.23.24-2.16.12c-1.61.09-3.15.1-4.82.08-3.17-.02.65.2-3.48.19h-2.36c-4.28-.02-5.34-.98-7.86-1.03l-3.71-.07c-2.21-.04-5.95.09-7.96-.8-.14-.06-.16.02-.52.34-.76.83-.55.3-1.19.47l-2.54.69c-1.73-.15-3.32-.17-5.02.49l-3.96.34c-1.88.16-3.65.24-5.48.07-3.45.99-3.4.07-5.6.33l-3.07.36c-.89.11-2.09.17-2.88,0l-2.47-.52c-.7-.15-.99-.26-2.03-.91.42-.22-.1.05-.48.25l-3.46-.86c-.38-.09-1.27-.11-1.71-.15h-.69c-.28.4-.48.73-.57.74l-1.9.09-.84.04c-1.01.04-1.43.88-1.88.82l-4.49-.59c-.33-.62-1.31-1.72-1.85-1.59-.96.23-2.01.53-2.71.76l-2.02.66c-1.11-.3-.97-.37.54-.67l-1.66-.4-2.26.48c-.3.06-.75.14-.95.04l-1.44-.77c-.13-.07-.78-.01-.92.05-.25.11-.09,1.89-.53,1.52l-.95-.8c-.27-.23-1.26-.43-1.69-.42l-5.02.15-2.5.06c-.96.02-1.99.22-3.02.35-2.78.35-4.33.18-6.3.56l-2.7.52c-.69.13-1.69.4-2.42.46l-3.43.31-4.87.25-2.76.21c-1.23.09-2.67-.09-3.99-.15l-3.91-.17-5.81-.07-.02-.67-.19-.68c-4.39.11-1.25,1.64-7.38,1.82l-3.4.1-4.23.13c-1.16.03-2.71-.26-4.04-.31-1.17-.04-2.29.13-3.53.22-1.12.08-2.76-.39-4-.44l-2.47-.09-9.52.04-3.31.38-4.38-.12c-.22,0-.77-.25-1.02-.42-2.04-1.36-5.45.09-7.94.15l-5.83.13-3.45.44-2.02.25c0-.54,0,.23,0,.53l.12.93-4.93.42-2.88.58-4.27.29c-3.11.21-6.51.42-9.19-.56-.4-.15-.54-.23-.69-.17l-1.42.51c-.79.28-1.05-1.83-2.4-1.69l-2.85.29c-.38.04-1.41-.51-1.8-.53l-2.02-.1c-.41.64-.59,1.11-.9,1.08-.23-.02-.98-.27-1.25-.28l-8.01-.18c-.95-.02-2.54-.55-3.13-.07-.71.58-1.52,1.06-2.25,1.13l-3.9.37-4.21.66c-1.53.24-3.66.12-5.09-.06-2.4-2.14-2.2-.42-5.13-.28l-3.15.15c-1.81.09-3.58.39-5.46.85-4.14,1.02-.33,1.86-7.29,2.99l-2.67.44c-1.48.24-2.81.47-4.33.58l-3.81.28c-1.83.14-3.82.15-5.63-.05-5.02-.54-.9.08-5.92,0l-2.45-.04-2.65-.1c-2.74-.1-5.41-.36-8.21-.08l-3.32.33-13.65.18c-1.69.02-3.42.23-5.05,0-.59-.08-1.89.12-2.44.14-2.05-.46-3.85-.06-5.95.34-1.98.38-4.39.15-6.45.32l-5.04.41-4.58.35c-.88.07-1.73.15-2.58.26l-3.27.41-4.88.34c-4.63.32-.86-1.39-4.89-.52-2.14.46-3.52.66-5.55.39l-2.83-.38-4.98-.65-3.34-.41c-1.35-.17-2.8-.33-4.16-.31l-6.03.08-3.93.05c-.77,0-2.26-.6-3-.43l-1.19.27c-8,2.85-6.99,2.88-15.41,3-.62,0-1.75-.65-2.28-.99-.61-.38-2.03.49-2.73.81-1.44.66-1.4-1.36-3.68-.25-1.98.95-1.06-.85-3.91-1.05-1.11,1.47-2.54.82-4.04.75l-5.27-.25-2.88-.14c-1.11-.05-2.25,0-3.4.13l-3.78.42-4.44.23-3.82.36-3.39.62c-4.52.83-5.16.15-9.33,1.14-2.47.59-3.11-1.78-4.33-.97l-1.41.95c-.22-.19-1.41-.71-1.79-.56l-3.1,1.18c-1.14.43-2.16.34-3.29.03l-2.77.48-4.26.74c-1.35.23-2.64.42-4.02.59l-3.01.36-3.6.84-7.29.62c-6.16.52-3.94-.44-8.67,0-4.36.39-5.33.21-9.28-.46-6.09.72-1.57-.67-7.99.28-1.28.19-2.95.2-4.03.55l-3.71,1.22-4.91,1.42c-.7.2-1.81.33-2.39.38-.11.21-.79.86-1.15.88l-3.51.18c-1.04.63-1.66.93-2.69,1.36-.59-.07-.54-.07-.08,0,2.34.08,5.93,1.75,7.37,3.12.28-.04,1.62-.29,2.08-.03l3.72,2.13c1.54.88,3.54,1.55,5.28,2.14l3.45,1.18c.87.3,2.31,1.15,3.1,1.25,1.14.15,2.4.14,3.47.44l5.89,1.62c8.82,2.42,5.9-.35,14.54,1.69l4.08.96c.41.1,1.44.56,1.85.57l6.54.12c.94.02,2.52.82,3.34.96,1.89.33,3.33.69,5.1,1.33l3.33-.61c.88-.16,2.41-.35,3.18-.32l3.7.15,4.41.05c1.09,1.07,2.63,1.76,4.27,1.85l2.79.16ZM697.12,199.98c.08.29-.28,1.41-.31,1.39,2.57,2.89,2.43,3.88,3.21,6.89,1.24,4.82,1.35,3.21,2.11,7.14.67,3.45,1.45,1.14,2.96,7.62l.7,3.02.91,3.73c.51,2.11.72,4.05.94,6.21.05.51.3,1.53.42,2.28.62,3.87.89,1.05,1.84,7.75l.59,4.12.95,3.89.62,5.77c.09.86,1.07,2.47,1.43,3.35l.82,2.02c.02.34-.02,1.19.08,1.56l1.19,4.31,1.1,3.98c.17.61.8,1.97.48,2.55l-1.09,1.99c-.32.59-1.73,1.27-2.38,1.56l-.78.36c-.11.05-.11.01.24.42l2.05,4.1c.2.4.31,1.48.56,1.82.97,1.35,1.36,3.32,1.39,4.8l.15,7.4c.02.82,1.59,1.96,1.94,2.64,2.12,4.16,2.24,5.97,5.15,9.76,1.58,2.06,2.78,4.17,3.58,6.6l.6,1.83c.04.6.09,1.02.24.51,1.04-2.33-.03-2.65.24-3.75.14-.55.33-.66.35-1,.05-.87-.27-.93-.05-1.92l.15-.67.15-.71c.02-.11.02-.54.02-.79l.02-.84c0-.25.01-.64.03-.74l.12-.74.11-.7.11-.72.1-.78c.03-.24.07-.51.1-.66l.14-.72.13-.7.13-.69.12-.69.13-.73.13-.72.12-.69.14-.73.02-.76c0-.27-.01-.71.01-.83l.17-.75c.79-3.54.53-5.08,1.11-6.28.41-.85-.15.4-.28-1.92l-.11-1.9c0-.13.02-.59.04-.71.87-5.88-.33-2.73-.06-7.93-.03-.44-.38-1.41-.36-1.85l.05-1.61.2-2.37.21-4.09.13-3.05.21-4.04.15-2.84c.23-4.35-.26-2.83-.52-6.73l-.3-4.46c-.25-3.72.11-.41.45-5.89.06-.96.79-2.58.73-3.53-.3-4.93,1.13-1.42-.06-3.81-.46-.91-.1-2.45-.06-3.61l.14-4.58.1-2.89.13-4.01.11-2.48c.17-3.69,1.7-5.55,1.47-7.35l-1.04-7.81-.28-2.58c-.11-1.02-.44-5.45-.44-6.26v-4.24s.35-2.48.35-2.48c-.57-1.2-.45-2.41-.49-3.75l-.13-4.54.17-4.06c.1-2.4-.85-4.75-.34-7.08-.08-.34-.52-1.41-.54-1.81l-.3-5.57c-.08-1.39-.02-2.72.18-3.93.38-.84-.61-3.47.55-4.33.73-.33,1.47-.67.63-.28l-1.11-.65-.25-4.1c-.11-1.83-.13-3.41-.07-5.27.1-3.11-1.09-4.07-.31-6.98l-.57-2.43.68-3.7c.15-.8-.67-2.55-.64-3.33l.1-2.45.17-4.2c.05-1.32-.19-2.81-.3-4.14l-.31-3.62c-.12-1.42-.1-2.81-.08-4.26.07-4.46.71-2.46,1.01-7.41l.29-4.88.36-4.22.16-3.14c.04-.77-.3-1.96-.36-2.71-.08-.97,0-2.18-.15-3.15-.86-5.48,1.36-3.27.27-7.3-.29-1.08-.4-2.07-.58-3.3l-.86-6.25c1.45-2.25-.51-2.28.11-5.63l.68-3.69c.19-1.02.3-1.96.39-2.99.42-4.94,1.16-4.13,1.18-6.26.05-4.56,1.89-2.91.96-5.6-1.37-3.99.42-3.29-.56-8.63l-.02-1.83c-.27-1.19-.41-2.23-.6-3.5l-.49-3.23c-.08-.53-.75-1.66-.97-2.09l-2.54.57-2.46.55c-.8.18-1.69.16-2.61.15l-6.2-.06c-.9,0-2.52.88-3.35,1.02-3.11.55-7.09,1.63-8.66,1.72l-2.54.14-3.04.25c-1.19.1-2.52,0-3.72.03-5.66.12-3.96.71-6.56,1.16-1.84.32-3.11.83-4.82,1.55-1.39.59-3.58.48-4.97,1.26-1.84,1.03-3.8,1.01-5.83,1.37-1.56.27-3.14.65-4.64.81l-2.91.3c-.49.05-1.38.34-1.85.48l-3.26.96c-4.69,1.38-.59.61-4.83,1.95-2.23.7-4.31,1.16-6.71,1.11-4.23-.1-1.41.76-5.74.92l-2.89.11-2.22.04c-.48,1.67-6,1.41-7.33,1.21-.62.32-1.75.93-2.43,1.14l-4.87,1.48c-1.78.54-3.22,1.88-6.95,1.42l-2.69-.33c-.85.2-1.48.28-2.27.42l-4.13.71-1.72.32c-.79.15-2.04.26-2.8.36-.53.06-1.57.59-2.24.78-4.75,1.38-1.85-.46-6.5,1.26l-2.27.84-3.35,1.19c-2.67.95-5.16,1.3-8.03,1.65,3.16-.38-9.45,1.9-5.9.94-.96.26-2.43.77-3.62.97-5.94,1-2.16.91-6.26,1.59l-6.44,1.07c-.8.13-2.02.56-2.92.85-4.11,1.31-1.42-.13-4.41.9-3.63,1.25.37-.64-5.06.61-1.75.4-3.41.9-4.78,1.63l-.87-.4.19,1.07,3.64,2.08c.85.49,1.87,1.54,2.76,2.11,1.69,1.09,3.16,2.39,4.33,3.96l1.41,1.91,2.73,3.55c.32.42.91.96,1.32,1,.32.03,1.07-.3,1.39-.48l3-1.68c1.42-.8,2.71-1.73,4.26-2.32.78-.29,1.98-.62,2.54-.93,1.5-.82,2.91-1.56,4.62-1.85l2.92-.49,3.72-.7c.28-.05.95-.97,1.22-1.06l4.86-1.64c1.4-.47,2.59-.82,3.99-.97l3.03-.32,2.94-.31c4.44-.47,6.79-2.11,9.36-1.98l3.8.19,3.41.18c.73.04,3.12-.51,5.12.47,1.29.63,2.91,1.62,3.99,2.53,2.57,2.15,2.01-.05,5.61,2.68l1.93,1.46,4.25,3.22,1.94,1.33,2.09,1.72,2.09,1.59,2.02,1.78c3.23,2.85,2.44,2.52,4.96,5.41,1.2,1.38,2.39,2.9,3.4,4.44l1.98,3.01,1.58,2.51c1.16,1.86,2.06,3.72,3.28,5.55s1.75,3.85,2.41,6c.41,1.35,1.12,2.86,1.31,4.26.25,1.82.72,3.2,1.47,4.78l.7,1.49,1.72,3.75c.92,2.01,1.78,3.76,2.32,5.97l1.09,2.01c.49,1.66.93,3.13,1.58,4.67l1.27,3.03c.87,2.09,1.88,4.04,2.38,6.25.42,1.87,2.12,6.51,2.9,8.13l1.57,3.25c.86,1.78,2.23,3.51,2.77,5.41l.9,3.19c1.75,6.2,1.07,1.66,3.25,7.74.72,2,1.89,4.02,2.44,6.02.23.84.37,1.57.68,2.26l2.24,4.95.94,3.16,1.87,4.09c.29.65.61,1.91.94,2.5.61,1.08,1.64,3.01,1.63,4.39,0,.42.73,1.26.83,1.62l.96,3.35ZM32.31,291.1l1.19-5.04.56-2.51c.05-.21-.82-.65-1.1-.82l1.24-2.08c.43-.72.09-2.46.1-3.41l.04-2.63c0-.41.59-1.24.89-1.54l1.74-1.69c1.39-1.35,2.64-4.97,3.17-7.2.2-.84.67-1.8.95-2.61l1.11-3.15c1.24-3.51.95-3.96.95-8.17,0-.58,1.16-1.52,1.32-2.07l1.47-5.08,1.25-4.23c.36-1.22.4-2.6.61-3.96l.65-4.23c.68-4.39.6-4.88.42-9.46-.22-5.6.79-2.88.35-9.19-.12-1.66,3.05-6.9,4.26-8.75.69-1.05.63-3.1,1.13-4.3.84-2,1.86-3.56,2.3-5.13l.91-3.26c.38-1.35.81-2.65,1.28-4.02,1.98-5.71-.14-1.24,1.14-5.38l.73-2.35c.65-1.16.6-2.06.8-3.34l.45-2.88c.24-1.54,1.04-3.15,1.43-4.65-.34,1.33,2.41-10.77,2.04-8.38l.58-3.69.71-2.57,1.51-5.49c.79-2.86-.35-3.91,1.83-7.7,2.84-4.95,1.4-3.93,3.43-6.96l1.19-1.79,2.89-4.63c1.57-2.52-.25-2.61,2.96-6.91.92-1.23,1.49-2.34,2.17-3.77,1.68-3.51,2.28-3.55,4.69-5.96l1.87-1.86c1.52-1.51,4.13-2.22,6.81-4.38s3.88-2.74,6.99-3.84l6.45-2.28c.23-.08,4.61-.53,5.77-1.91.74-.38,2.53-.29,3.4-.51l2.73-.7c2.89-.74.24.82,5.83-1.15l3.45-1.22,3.6-1.29c.71-.25,2.38.21,3.1.14,1.25-.11,2.78-.26,3.89.02l3.86.95c2.86.7-.15-.46,4.4,0l2.48-4.97c.45-.89,1.26-2.34,1.86-2.93l1.96-1.89c.86-.83,1.98-1.78,2.68-2.63l1.75-2.1c2.12-2.55,1.44-1.22,4.28-3.13l2.03-1.36c2.61-1.75,3.54-1.99,6.38-3.94l2.96-2.03,1.64-1.12c-1.9-1.68-4.53-1.33-7.85-3.12l-2.29-.25-3.34-.4c-3.11-.38-4.96-1.19-7.04-1.39l-2.91-.28-3.45-.33c-.73-.07-1.87-.52-2.59-.94l-2.4-1.41c-4.54.61-3.23.15-7.81-.49-.9-.13-2.31-.03-3.07-.21l-3.5-.88c-2.06-.51-4.56-1.68-6.57-1.95l-2.22.16-2.91-.23c-.55-.04-1.4,0-2.03-.01h-1.96s-3.59-.14-3.59-.14l-4.3-.22c-1.02-.05-2.69.26-3.41-.18-.87-.53-1.32-.73-2.04-.79l-4.15-.35c-.99,1.04-5.34-.12-6.72-.66-4.52-1.77-1.47-.65-7.12-.98l-2.47-.14c-6.89-.39-5.11-.94-11.16-1.9l-1.68-1.01c-1.45.36-2.62.02-3.96-.69-.64-.14-1.83-.31-2.45-.49l-2.81-.81c-5-1.43-4.41-.8-9.01-3.55-1.06-.63-2.79-.89-4.09-1.33-2.06-.7-4.28-2.09-6.25-2.12l-2.61-.05c-1.23-.02-2.67-.73-3.69-.8l-4.72-.35-.87,2.01c-.15.35-.2,1.42-.1,1.94.34,1.74.04,3.78-.28,5.85s-.57,4.22-1.28,6.27c-.38,1.08-.92,2.3-1.17,3.3l-1.38,5.49c-.15.61-.37,1.42-.55,1.97l-.93,2.77c-.2.6-1.09,1.82-1.08,2.56.01,1.13.03,2.99-.48,3.96l-1.3,2.5-1.34,2.84c1.45.8.86,5.41.66,6.85l-1.08,7.63-.61,5.13c-.21,1.73-.01,3.9-.08,5.85l-.13,3.43c-.14,3.61,1.16,3.86-1.4,8.64l.54,1.54-.93.68c.43.31,1.18,1.08,1.17,1.48l-.14,5.37c-.03,1.02-.43,2.36-.59,3.37l.33,1.11.07,3.9-.36,3.13.21,3.47.2,2.77c.04.62,0,1.57-.32,1.98-1.98,2.53.89.18-.17,6.07l-.6,3.34c-.11.63.37,1.93.36,2.65l-.05,3.1.15,7.77.53,4.24c.19,1.5-.27,2.71-.69,4.14l1.18,1.94-.48,4.33-.39,3.77-.3,5.27c-.05.79-.26,1.24-.06,1.89.56,1.8.05,3.5-.43,5.25l.98,3.75-.53,1.6c.23,1.76-.36,3.64-1.12,5.06.39.63.69,1.58.57,2.37l-.53,3.65-.35,2.65-.4,3.16c.37,1.77.46,3.65.07,5.59l.2,2.35c-.08,1.12-.14,2.07-.05,3.05l.33,3.6c.09,1,.03,2.02-.01,3.07l-.31,8.52c-.04,1.2.21,2.2.02,3.53l-.47,3.44c-.05.35.5,1.39.41,1.73-2.34,9.03.56,2.62-.88,10.19-1.04,5.49.5,2.21-.66,8.15-.11.56-.41,1.8-.41,2.37l.04,5.44c.01,1.49-.15,2.84-1,4l.11,2.5c.02.41.48,1.43.38,1.83l-.55,2.16c.2,1.78.12,3.25,0,5.01l-.28,4.06-.38,3.76-.68,5.02-.6,3.75c-.12.76-.15,2.14-.05,3.02l.45,4.32c.12,1.1-.16,2.29-.37,3.36l-.81,3.93c-.41,1.98-.8,5.49-1.9,7.87.42,3.69.49,1.81-.37,5.75l-.83,3.8c-1.13,5.15.57,3.14-.13,6.49-.19.89,0,1.69.03,2.45l.15,3.43.12,2.8c.02.57-.37,1.86-.46,2.41.51,1.88.73,3.88.63,5.89-.28,5.68-1.25,3.41-.67,7.6l.51,3.64c.19,1.39.31,2.44.76,3.62.58-.85,1.1-1.71,1.29-2.47l1.45-5.83c.83-3.32,1.98-5.36,2.58-7.85l.91-3.75.28-2.75,1.66-3.35c.3-.61.47-1.65.65-2.28l.7-2.44c.58-2.02,1.36-3.84,2.01-5.82l1.16-3.55c.35-1.08.76-1.91,1-2.93l1.05-4.45.2-2.67.49-2.19c1.07-4.75-.06-1.7,1.02-6.66l1.43-6.54.77-3.17c.2-.8.53-1.84.87-2.73l1-2.69c.3-.8.47-2.12.7-3.06l.54-2.22.47-1.94.8-2.82c.15-.52.24-1.76.45-2.27l1.35-3.22c.19-.45.34-1.68.48-2.14.07-.23.75-.57.74-.82s-.29-1-.22-1.28ZM268.98,216.53c2.53-3.27-.13.21,2.85-2.71l1.72-1.69,3.58-3.51c.44-.43,1.24-1.04,1.78-1.51l2.69-2.29c.26-.54.75-1.79,1.06-2.27l1.66-2.62,2.17-1.04c.99-1.79,2.15-3.66,3.8-4.83,3.74-2.63.96-2.04,4.18-3.72,1.29-.67,1.94-1.58,2.76-2.74,2.73-3.89,2.73-2.37,4.9-6.3l1.01-1.83c-.46-1.18-.55-2.31-.34-3.56l.56-3.17c.04-.21-.15-1.03-.34-1l-.68.09c-.52.07-1.81-.62-1.8-1.16l.04-3.75-4.49-.64c-.62-.22-1.38-1.71-1.65-2.41l1.61-2.33c1.2-.07,2.67-.03,3.71.24l2.23.59c1.4-4.99-.45-3.59,1.68-8.04.42-.87.89-2.45,1.46-3,3.69-3.55,4.2-3.01,9.85-4.07,2.27-.43,1.69-4.03,2.32-6.34l.85-3.13c.42-1.53-2.22-2.5-.82-5.84.93-2.21.32.31.35-4.36l.02-3.46c0-.94-.12-2.22-.21-3.29l-.26-2.94-.28-4.1-.28-3.98c-.03-.4-.37-1.42-.38-1.83l-.1-4.15c-.02-.63-.02-1.91-.16-2.48l-.76-3.22-.96-4.1c-1.22-5.22.76-.22-1.12-5.73-.33-.96-.75-2.14-1.26-2.87l-1.56-2.24c-.7-1-1.34-1.9-2.12-2.89-1.98-2.52-2.46-1.61-3.44-5.37l-2.68-1.83c-.78-.53-2.61-.95-3.12-1.67-.66-.92-1.15-1.41-2.02-1.88-1.21-.66-2.51-1.57-3.68-1.94l-5.47-1.69c-1.68-.52-4.1.04-10.23-2.3l-3.65-1.4c-3.35-1.28-7.09-.99-10.61-.14-2.28.55-3.94,2.05-5.87,3.29-3.5,2.26-5.18,2.55-8.62,4.75-.68.43-1.59,1.67-2.21,2.32-1.15,1.2-1.92,3.53-1.01,4.87,4.04,2.14,1.67,3.05,6.89,6.8,1.67,1.2,3.14,2.37,4.67,3.67,4.32,3.66,1.29.29,4.54,3.36,5.82,5.5,3.54,5.02,5.83,8.69l1.5,2.4.93,3.13,2.04,3.29,1.22,1.17c.41.96.87,1.95,1.36,2.81l1.7,2.99c1.88,3.32.04,2.07,2.17,6.52,1.58,3.29-.39,1.94.94,4s.06,5.45.58,6.23l1.44,2.19c.93,1.41.31,3.72.27,5.4l.71,2.72c.22.83.32,1.74.4,2.56l.19,2.03c-.08-.86.76,3.46.78,4.27l.19,7.49c.06,2.49.96,4.76,1,5.99l.08,2.38.11,3.3c.05,1.58-.37,3.61-1.33,4.74l-3.09.84c-2.99.81-2.71-.68-7.18.45s-3.96,4.27-6.19,7.73l.69,1.3c-.21.54-.79,2.15-1.32,2.55l-2.18,1.67.9,2.46c.11.29.21,1.25-.04,1.42l-1.02.69.96.42-.07,1.5.65.28c.41.18-1.05,1.7.29,3.59,0,3.78-1.25,3.99-2.27,7.54l-1.49,5.21-.33,2.67-.83,3c-.19.71-1.18,1.95-1.54,2.41.14.49.35,1.43.36,1.92l.03,1.21c0,.25.77-.29.97-.49l2.13-2.1c.81-.8,2.32-1.53,3.29-2.01l2.43-3.14ZM554.95,287.38l2.25,1.34c.49-.2.39-.17.52-.2s.09-.74.04-.87l-.32-.92-1.5-4.35-.68-2.21-.63-2.12-.7-3.07c-.17-.76-.06-2.16-.36-3.06-1.31-3.98-.92-5.53-2.32-6.39l-.11-.57c-.16-.81-.46-1.78-.76-2.66l-.97-2.87-.95-2.82c-.21-.62-1.48-1.49-1.99-1.98l-.78-2.27c-.31-.92-.62-1.93-.81-2.84-.39-1.78-1.71-2.49-3.43-1.91-.9.3-2.01.49-3.08.64-6.15.9-1.95,1.05-6.24,1.61-.79.1-5.15,1.02-5.2,1.03l-2.83.91c-.66.21-1.43,1.4-1.85,1.85l-2.33.75c-.54.18-4.11.64-5.04-1.47-1.23-2.78.21-1.34-.98-6.44l-.54-2.31c-1.55-6.63.64-.56-1.88-8.57-.22-.71,0-2.41-.12-3.17l-1.55-9.15.41-1.98c-.82-2.56-.39-3.28-1.15-6.58l-.65-2.78-1.17-4.63c-.36-1.43-1.12-5.11.44-5.65l-.83-2.6-.73-2.07c-1.43-4.05-.55-2.19-1.6-6.72-.71-3.04.67-5.04-.88-10.8s-1.84-5.57-2.02-12.12c.39-1.53.99-2.87.44-4.42l-.93-2.6c-.3-.85.52-2.51,1.03-3.56.24-.51.2-1.39.13-2.08-.19-1.93.55-3.76.58-5.74l.03-2.36.23-1.94c.61-5.05,1.94-9.6,3.93-14.38l1.23-2.95c1.53-3.66,1.69-3.64,3.07-7.03,1.13-2.79,1.53-2.3,3.26-5.84l1.09-2.22c2.23-4.54,2.58-5.04,5.4-9.11l3.56-5.14c.36-.53,1.19-1.67,1.68-2.14l2.9-2.81,2.44-2.17c1.11-.99,2.22-1.86,3.5-2.71,3.6-2.37,1.96-.6,6.35-3.54,1.51-1.01,3.07-1.92,4.51-3.01,1.01-.76,2.1-1.58,3.16-2.22.47-.28,1.44-1.22,1.43-1.73-.03-.87-2.28-3.85-2.08-3.65l-2.65-2.71c-.44-.45-1.31-1.05-1.84-1.44l-2.39-1.79-4.49-3.38-2.18-.83c-3.08-1.18-2.33-.33-6.23-2.04-3-1.32-4.24-.56-6.01-.23l-2.92.55-2.62.66c-1.16.29-2.62.56-3.66.96l-3.65,1.39-2.7,1.03-4.49,1.85c-5.66.04-6.26,2.87-9.7,5.38l-4.34,3.16c-1.63,1.19-3.03,2.52-5.15,2.82-.53.07-1.18.84-1.5,1.29l-1.41,1.95-1.82,2.37c-2.98,3.87.28,2.24-4.68,6.83-.65.6-1.39,1.3-1.72,1.97l-2.62,5.25c-1.13,2.27-2.08,4.43-3.4,6.67-1.65,2.81-.27,2.7-1.24,4.92-.65,1.47-1,2.73-1.3,4.27l-.68,1.16-.75,2.75c-.53,1.93-.59,3.68-.96,5.73l-.87,4.91c-.23,1.29.14,2.69-.09,3.91l-.68,3.57c.69,1.75,2,3.64,2.05,5.39l.24,7.8.25,3.65c.05.68.37,1.89.35,2.63l-.15,4.7.5,4.78c.07.68-.24,1.86-.1,2.39l.98,3.79c.45,1.72-.13.73-.18,5.2-.02,1.66-.15,3.41,0,5.04l.35,3.65,3.15-.21c6.5-.43,2.97.51,7.69-1.27l4.35-1.64c.81-.31,2.83-.46,3.62-.03,1.38.74,2.17,2.81,2.03,4.15s-.03,2.22.34,3.32l1.07,3.19c.09.26.47.87.72.79l.86-.27,3.26-1.03c.83-.26,2.36-1.82,4.52-.68l2.17,1.15-.86,2.2-2.51,1.14c-1.43.65-3.15.78-4.03,2.31-.41.72-.93,1.13-1.89,1.69l1.29,3.25c1.21.09,2.9.95,2.78,2.18l-.29,2.95-.22,5.81c-.19,4.94.71.61.06,6.6l-.27,2.45c.25,1.67.25,3.05.05,4.66l-.48,3.78c-.3,2.39-.23,4.57,1.36,6.29l3.04,3.29c4.67,5.05-.41,1.23,5.41,5.34.68.48,1.63,1.12,2.08,1.56l1.97,1.89,2.39,2.2c1.2,1.11,2.43,2.69,3.71,3.62.83.6,1.79,1.13,2.49,1.71l2.09,1.74c3.85,3.21,4.52,1.97,7.38,5.86,4.91,1.59,3.44,3.04,5.79,4.07l3.92,1.73c.99.44,2.22,1.37,3.19,2.04l3.24,2.22,2.47,1.7,2.28,2.94,3.09,2.33,3.5,1.94,4.06,2.41ZM473.89,222.52c.4.53.9,1.34,1.31,1.57.88.49,2.15,1.01,2.7,1.49l2.21,1.95,1.75,1.61c2.53,2.32,2.72,3.08,4.37,4.21.18-3.11.18-5.47.48-8.23l.33-3.03.39-3.66c.13-1.24.2-2.04-.5-3.13-.76-1.18-.38-3.04-.89-4.25l-1.53-3.57-1.43-4.68c-.24-.79-.32-2.35-.41-3.19l-.13-1.25c-.02-.21-.82-.5-.89-.7l-1.18-3.28-1.58-4.36c-.43-.8-2.69.02-3.33.72-.31,0-1.31-.13-1.6-.05l-3.42.96c-.77.22-2.25.32-3.01.27-5.4-.29-1.02.05-5.51,1.29-.63.17-1.82.1-2.28-.2-.39-.26-1.01-1.18-1.09-1.68l-.64-4.08c-.1-.63.19-1.83.17-2.41l-.14-2.95-.06-2.43c-.11-4.72-.78-3.19-.39-8.07l.26-3.25c.08-1.03.11-1.92.05-2.97-.29-5.09.6-5.41-.8-9.17-1.75-4.67.64-4.14-.24-6.81-1.26-3.84-.64-3.37-1.62-6.48,1.97-4.95.09-1.76.25-6,.05-1.22-.59-2.67-.76-3.93-.29-2.18.83-6.91.8-6.67l.36-3.92.92-5.01.8-4.22c.28-1.48,2.93-4.46,2.51-6.11l1.18-1.52c0-1.5.32-3.08,1.03-4.41l1.71-3.22c.96-1.8,1.69-3.47,2.73-5.27,1.5-2.59,2.27-1.15,2.14-4.08l2.24-.7.7-1.72,2.26-2.78,1.5-1.74c.34-.76.8-1.27,1.38-2.02l2.34-3.01c.37-.47,1.54-1.34,2.12-1.61l3.35-1.56c-1.48-4.12-4.76-3.19-7.73-5.67l-2.11-.48c-1.6-.37-1.14-2.81-3.14-1.86-2.75,1.3-1.22-.5-7.07.25l-2.76.35c-2.02.26-3.88,2.17-5.76,2.69-1.54.43-2.88.65-4.29,1.63l-1.72.79-2.19,1.6c-3.73,2.73-2.31.38-4.55,2.92-1.26,1.42-3.79,1.73-5.99,4.72l-1.95,2.64-2.44,3.44c-.47.66-.85.92-1.83,1.11-.39.12-.95.3-.66.21v1.64c-.02.23-.98.37-1.05.59-.23.76-.27,2.57-.82,3.14l-1.88,1.97-.51,2.02c-1.25,4.9.41,2.93-1.44,5.85l-.33,2.25-.41,2.96-.49,2.88c-.11.66.17,2.08.18,2.87l.07,5.43c.01.79-.13,1.33-.39,2.27-.31,1.14.4,3.51.45,4.66.02.53-.74,1.76-.62,2.25l.5,2.03-.25,1.02.3,3.09c.06.6.27,1.88.12,2.41-1.7,6.27,1.34,8.58.25,13.38l.92,1,.76,2.12,3.03-.89,2.58-.78c1.53-.46,3.53-1.15,5.02-.2l2.15,1.36c.01,1.79-.24,3.67-.66,5.48-.34,1.46,1.91,2.25,2.11,4.4l3.41.11c1.95.06,3.84.22,5.6,1.42-.44.98-1.56,2.25-2.31,2.27l-2.45.04c-.75.01-2.05.33-2.65.67l1.02,3.4c.38,1.27.9,2.38,1.5,3.64l-2.6,1.48c.14,2.79.64,2,.64,5.92v3.76s1.16,1.62,1.16,1.62c-.03.77.03,1.85.35,2.3l2.27,3.22,1.81,1.62,1.79,2.31c1.62,2.09,4.1,5.75,6.47,6.85,4.16,5.35,4.99,3.97,8.56,9.58,2.31,3.63.78.09,4.43,4.3l2.15,2.48c.77.89,1.83,1.85,2.52,2.78ZM189.61,295.44l2.77-1.42c.33-.17.96-.97,1.24-1.22l3.76-3.32c.79-.7,1.58-1.46,2.3-2.25l2.41-2.63c.45-.49.88-1.18,1.3-1.77.51-.72,2.02-1.9,2.96-2.09,3.36-.67,3.99-1.09,6.44-3.6l2.91-2.98c.66-.68,1.29-1.44,1.94-2.17l3.33-3.75c3.05-3.44.04-.56,2.89-3.34.76-.74,1.5-1.54,2.21-2.34l1.76-1.98,1.58-1.74c1.09-1.2,2.1-2.3,3.03-3.63,2.36-3.39.85-.67,2.75-3.47.57-.84,1.19-1.44,1.95-2.24.91-.95,1.65-2.92,2.64-3.83l2.47-2.26c2.89-2.64,1.95-.21,3.41-2.97.55-1.03,1.6-2.29,2.55-2.95,2.38-1.66.62-.2,3.38-3.9.48-.65.51-2.23.52-3.32.01-1.43.69-2.83,1.36-4.24,1.35-2.87,1.88-6.49,2.53-9.49.15-.53.98-1.69,1.07-2.28l.51-3.37c.28-1.87,1.37-3.79,2.13-5.57,1.62-3.79.45-2.51,1.94-4.62-.24-.08-1.59-.35-1.65-.79l-.3-2.23c-1.99-.27-3.98-.59-5.91-.75l-4.64-.39c-.31-.03-1.15.21-1.29-.06l-.52-.99c-.19-.36-.38-1.34-.34-1.74s.82-.98,1.32-1.09l2.51-.56c2.09-.46,3.03.05,3.96-.09,6.66-.99,3.1,2.15,6.98.05-1.15-1.38-.5-2.69-.16-4.24.38-1.71.7-3.49,1.2-5.11l1.51-4.85c1.38-4.44-.55-2.6,1.45-4.22l1.41-1.14c.66-.17,2.14-.27,2.71-.56l2.83-1.45c2.82-1.45,1.35,1.59,4.97.54.82-.24,2.37-1.18,2.3-2-.29-3.37-1.04-1.78-1.63-5.85-.31-2.13-.29-4.23-.07-6.34l-.92-2.25c-.88-2.15.31-4.08.13-5.28l-.61-4.03-.39-2.45-.41-3.51c-.19-1.66-.66-3.23-1.02-5.04l-.58-2.89c-.09-.46-.48-1.41-.49-1.84-.03-3.43-1.16-9.21-3.16-11.85-.19-1.85-.97-3.62-1.99-5.08l-3.45-4.89c-.7-1-1.31-1.99-1.95-3.06l-.94-1.34c-.36-1.31-.75-2.17-1.48-3.27-2.14-3.22-.38-2.66-3.99-5.44l-1.23-.95c-1.78-1.37-3.43-2.54-5.36-3.81-1.05-.69-1.94-1.95-2.84-2.88l-1.87-1.94c-.77-.8-2.15-1.62-2.82-2.47-.85-1.09-1.51-1.76-2.55-2.51l-3.87-2.8-2.68-1.86-2.18-1.58c-.69-.5-2.32-1.33-3.11-1.73-.33-.17-1.45-.24-1.93-.38-.89-.25-2.12-1.85-3.01-2.26-1.23-.57-2.64-1.47-4.08-1.85l-3.15-.83c-1.04-.28-2.38-.65-3.41-.71l-3.61-.2c-.74-.04-2.26.75-2.96.67-2.67-.32-8.28.27-10.62,1.04-1.83.6-3.31.54-5.28.26l-3.48.97c-1.02.28-2.26.88-3.17,1.37l-5.74,3.08-4.25,2.66-2.59,1.52c-.67.4-1.22.74-1.79,1.18l-6.32,4.91c-1.16.9-2.21,1.92-3.11,3.07l-2.07,2.63c-.7.89-1.21,2.51-1.47,3.57l3.07.76,4.66,1.2,6.38,1.69c2.12.56,7.86,3.87,11.75,4.65,3.41.68,6.37,1.76,9.68,2.77l2.98.91c.6.18,1.41.71,2.08,1.1l1.83.77,2.51,1.18,4.64,2.08c.93.41,1.96,1.32,2.83,2.01,6.27,5.03,3.48,3.54,7.24,6.86l2,1.76c1.73,1.52,3.39,3.3,4.94,4.96.19.51.56,1.71.83,2.18.76,1.37,1.28,2.89,1.86,4.45.33.9,1.01,1.99,1.48,3.01,1.28,2.78-.32.87,1.74,5.33.51,1.1.75,1.9.97,3.11l.94,5.2.51,1.98c.38,1.47.18,3.3.05,4.82l-.31,3.85c-.07.89-.34,2.19-.61,3.01-.16.49.11,1.79-.02,2.31l-1.55,6.22c-.16.63-.02,1.81-.05,2.5-.06,1.29-.57,3.12-.36,4.19.8,4.16-.3,2.65-.63,7.59,2.03,3.49-.84,4.01-1.49,9.23l-.37,3.03-.58,4.65c-.78,6.3-.74,3.12-1.78,8.26l-.44,2.18-1.12,5.86c-.09.47-.59,1.52-.71,1.68.5.39.94,1.11.84,1.58l-.91,4.32c-1.83,8.66-.07,4.4-.46,10.51l-.28,4.51-.24,3.8c-.18,2.86-1.34,7.41-2.44,10-1.97,4.63-.04,1.13-1.49,5.16l-2.59.29c-.3.03-1.16.03-1.44-.17-1.65-1.24-3.88-2.92-5.78-4.06-.87-.52-2.35-.65-3.16-1.03l-3.36-1.55c-.8-.37-1.81-.74-2.68-1.04l-2.57-.88c-.76-.26-2.52-.02-3.37.13l-1.21.22c-.68.12.67,1.84-1.28,4.68-.67.97-1.19,1.95-1.62,2.99l-2.35,5.57-1.12,2.68c-.39.93-.88,2.07-1,3.02l-.52,4.27c-.09.74-.64,2.22-.94,2.99l-.46,1.21c-.06.15,1.75,1.14.05,6.15l-.8,2.36c-1.07,3.14.74.16-2.08,4.42.71,1.02.51,1.62.17,2.57l-1.31,3.66c-.45,1.26-.42,3.21-.95,4.45l-.79,1.87,1.58.09c.8.05.72-2.88,3.52-4.11l2.89-1.27c.83-.36,1.76-.65,2.84-1.04,2.23-.8.81-1.73,3.45-3.09ZM370.4,166.52l4.11-.39c.72-.07,1.96.15,2.82.22l3.94.33c1.85.15,4.07-.86,6-.92l5.66-.19.13-1.59.33-3.38c.59-6.06-.31-1.24-.21-5.71l.11-4.97.12-2.98.11-2.81c.07-1.72.23-3.34.44-5.05l.43-3.53c.11-.89-.09-2.37-.1-3.55,0-1.52.43-3.14.51-4.51l.2-3.48c.03-.55.1-1.78.26-2.29l1.45-4.69c-.27-1.56-.37-3.16-.11-4.67l.95-5.32.39-2.6.52-2.71c.54-2.82-1.03-1.77-.09-3.4.31-.54.86-1.76.66-2.31-1.42-3.56.24-1.49-.34-5.56l-.35-2.43c.43-1.18.38-2.4.3-3.84l-.31-5.23c-.03-.52-1.97-4.25-2.45-4.84l-1.55-1.9c-.48-.59-1.2-1.48-1.78-1.83-.9-.54-1.89-1.22-2.56-1.46l-2.35-.85c-1.05-.38-2.45-.33-3.72-.12l-2.19.35c-5.33.85-4.27-.74-9.72,1.24-1.39.5-2.75.92-4.2,1.16l-3.24.53c-.64.1-2.04.72-2.57,1.09l-6.63,4.64c-1.23.86-2.12,2.4-3.1,3.48-.72.79-2.04,1.65-2.24,2.58-.29,1.31-.57,2.2-1.08,3.15l-1.23,2.27s.36.69.32.83l-1.12,3.47-.98,3.81.43,2.65-.21,4.15-.1,3.05c-.05,1.53-.45,3.28-.62,4.9-.11,1.03-.15,2.13-.31,3.05l-.94,5.36c-.93,5.3,1.36,3.69-.14,7.26-1.27,3.02.01,3.06-.29,6.69l-.28,3.39c-.08,1.02-.23,1.96-.38,3.07-.32,2.34-.18,4.77-.31,7.26-.05,1.03-.72,2.7-.65,3.62.08,1.08.29,2.28.08,3.02l-.67,2.34c.38.82.82,1.89.87,2.76l.16,2.74.38,4.14,3.39.28,5.67.52c1.07.1,2.26.23,3.22.25,4.93.1,1.27.14,5.89.55,5.12.46,4.01-.57,9.3-1.07ZM315.75,169.48l2.26-.93c.41-.17,1.23-1.1,1.65-1.16l3.28-.45,2.15.96,3.01-.91c.82-.25,1.73-.52,2.59-.67l5.09-.9c.19-.74.37-2.1.46-2.95l.23-2.22.3-2.87c.09-.83.09-1.68.05-2.66l1.21-2.07-.31-4.42c-.11-1.62-.18-3.04.05-4.63l.39-2.62.82-.61c-.58-1.15-.62-1.87-.44-3.08.42-2.73-.2-5.82.41-8.43.42-1.79.85-3.32.87-5.1.01-1.15-.07-2.66.02-3.68.14-1.7.84-3.07.27-4.88-.32-1.02.17-2.46.2-3.38l.17-4.69.15-4.25c.06-1.74.12-3.49.13-5.42-1.03.15-2.73.04-3.12-.66-.33-.59-.42-1.61-.82-1.74-2.32-.76-1.59-.05-5.26-1.59-.66-.28-1.76-1.02-2.37-1.02l-3.91.11c-.75.02-1.83-.3-2.56-.58l-3.55-1.36,1.41,3.62c.42,1.07.73,2.48.8,3.68l.32,5.09c.17,2.66,1.14,5.58,1,8.15-.12,2.09-.02,3.59.31,5.61.16.97-.39,2.83-.19,4.07l.59,3.68.06,4.18.04,2.2c0,.44-.13,1.34-.16,1.96l-.16,2.91c-.06,1.12.01,2.29-.14,3.39l-.5,3.7-.39,2.92c-.11.8-.12,2.02-.28,2.71l-.87,3.81-3.55.1c-.58.02-1.74-.72-1.92-.96-.32.28-1.2.87-1.68.96l-3.9.75-1.36,2.71c-.39.77-.74,1.36-1.28,2.15l-.37,2.47-.24,1.7,2.59.19c.8.82,1.51,2.68.98,3.88-.4.91-1.78,2.14-1.93,2.95-.21,1.12-.35,2.54-.6,3.59l-.84,3.45c3.29-1.17,3.18-3.5,8-4.92l.83-1.85ZM432.27,178.97c1.13,1.02,2.75,1.21,4.13,2.57l1.65,1.64-.33-3.82c-.46-5.35,1.07-1.63-.77-4.64-1.15-1.88.73-3.18-.24-5.74l-1.64-4.34-1.95-5.11c-.21-.55-.88-1.55-1.4-1.62-2.37-.35-.12,1.15-6.32.89-1.97-.08-3.91,1.27-5.42-1.56l-.37-2.87.08-4.03c.02-.95-2.12-4.45-1.01-8.07.32-1.05.66-1.81.1-2.68-1.63-2.52.34-2.48-.21-5.52l-.52-2.84.54-1.24c-.16-1.57-.11-3.11.03-4.69l.21-2.49c.3-3.55,1.47-.68-.15-5.18l.73-2.97c-.21-.63-.4-1.49-.34-2.08l.46-4.26c.05-.5.49-1.53.61-1.82-1.48-2.75.11-5.77.79-7.93.49-1.57.75-2.92,1.16-4.66-2.73-.36-2.13.97-4.11,1.28-2.52.39-3.33,2.39-4.79,2.42l-1.5.03c-2.8.06-4.4.27-6.51,2.5l-1.63.65-.42,4.33-.43,3.31-1.13,7.61c-.78,5.25-.85,2.61-.88,6.53,0,1.38-.41,3.03-.51,4.49l-.2,2.93c-.18,2.59-.83,6.52-.83,6.61-.05,1.49.21,3.28-.07,4.72-.25,1.3-.75,2.86-.74,3.94.02,1.7-.02,2.96-.4,4.51l.75,3.27-.06,3.94-.07,5c0,.48.36,1.45.57,2.04l-.63,1.9c.87.18,2.12.53,2.76.46l3.45-.34c.85-.08,1.75-.38,2.65-.53l2.68-.47c1.02-.18,2.61-1.4,3.73-1.37,4.67.13,7.55,5.39,9.11,6.99,3.03,3.1,3.26,2.81,5.93,5.23l3.45,3.11ZM275.29,356.25l4.09-.2,4.02.2c1.1.05,2.26-.19,3.36-.29l3.78-.33,3.34-.2,2.88-.14,4.63-.19c2.28-.09,4.1.81,7.01.12,1.25-.3,2.46-.22,3.72-.23l3.75-.03c.78,0,2.03-.08,2.8-.22l5.35-.96c.99-.18,2.21-.16,3.27-.16l8.06.03c2.72.01,6.03,1.26,11.93.58,6.77-.79.33.93,8.11.3,2.24-.18,8.28-.13,10.58.01l3.85.24,7.48.32,5.84.22c2.19.08,2.51.94,6.28,1.12l4.48.22,4.19.18,5.37.54h6.66c3.85,0,4.19.22,8.69.26,5.62.05,5.52-.49,8.89-.45l2.82.04,8.63.15,3.27.37,2.21.02c4.26.03,4.36.21,8.19.26l5.29.07c1.03.01,2.52.55,3.64.34s2.06-.33,3.06-.38l2.53-.13,4.16-.2,4.1-.16c1.18-.04,2.32-.11,3.44-.22,6.23-.57,1.51-.75,6.97-.65l2.5.04,2.98.05c1.83.03,2.44-.67,5.85-.43,6.02.43,4.88-.2,9.41-.31l3.77-.09c1.51-.04,3.18.16,4.73-.1,1.08-.18,2.6-.75,3.5-.75h4.97c1.4,0,2.82.03,4.24-.16l3.39-.44,2.88-.41c1.14-.16,2.56-.37,3.67-.41l6.2-.24c1.03-.04,1.87-.03,3.03.02.77.03,2.09-.29,2.84-.32l5.3-.21,2.19-.12c2.01-.11,4.07.14,6.07.11l2.91-.04c3.29-.04,3.13-.77,6.33-.89l4.98-.19,4.96-.63c.85-.11,2.39.38,3.14.23,1.04-.2,2-.46,2.8-.51l2.81-.15,6.2-.22c-.12,0,4.82-.54,5.07-.58l5.39-.87c1.25-.2,3.16.04,4.32-.23l3.68-.85c0,.11-.03-.55-.05-.81-.71-.62-1.53-1.37-2.22-1.91l-3.3-2.53-3.37-2.55c-1.24-.94-1.05-1.75-1.62-3.96-.02-.06-.76.18-.8.13l-.93-1.04c-2.73-3.04-.1.3-2.59-2.43-.41-.45-.95-.94-1.47-1.39-3.6-3.1-2.35-.3-6.01-3.09l-2.61-1.99-2.45-1.77c-3.69-2.67-3.26-4.07-7.59-7.3-1.32-.99-2.55-2.1-3.83-3.22-3.87-3.4-.7-1.73-5.81-6.21l-5.75-5.04c-.45-.39-1.06-1.07-1.46-1.37l-2.45-1.79-2.99-2.04c-1.09-.75-2.18-1.96-3.24-2.92l-1.82-.31c-4.95-6.67-4.78-1.49-10.04-7.74-.3-.36-1.59-.71-1.96-1.04l-2.38-2.12-2.12-1.9c-2.59-.83-3.9-2.11-5.56-4.19-.94-1.17-.64.29-4.3-2.22-.56-.39-1.07-.78-1.55-1.15l-2.5-1.91c-3.25-2.48-4.86-2.65-6.66-5.02-.61-.38-2.2-.8-2.78-1.23-4.47-3.35-.57-1.09-4.44-3.92-1.05-.77-2.37-1.68-3.21-2.53-1.15-1.15-1.95-2.16-3.37-2.94-.96-.53-1.77-1.24-2.48-2.1-2.69-3.22-.05-1.63-2.88-2.93-1.58-.73-3.22-2.57-4.33-4.07-1.17-1.58-3.51-3.54-4.88-4.74-.27-.23-.63-1.29-.96-1.43-1.92-.78-5.07-3.41-6.48-5.03l-1.19-1.36c-.52-.59-1.04-1-1.81-1.54-1.19-.83-2.24-2.21-3.34-3.21l-2.61-2.37c-.36-.33-1.51-.8-1.89-1.11l-2.7-2.22c-.19-.16-.78-.63-.82-.85l-.49-2.39c-.04-.21-.42-.68-.58-.84-.14-.14-.94.15-1.05.79l-.33.61c-.18-.3-.25-.44-.26-.46l.27-.58.31-.67-2.76-2.22c-.09-.07-.48-.28-.62-.35l-.59-.3c-2.25-1.15-1.31-2.61-2.1-3.73-1.63-.71-3.43-2.15-4.37-3.74l-1.02-1.72c-.48-.81-1.82-1.78-2.6-2.54-3.16-3.08-4.14-2.63-5.57-6.21-.9-2.26-2.96-3.95-4.56-5.72l-2.59-2.86c-3.84-4.25-.19.76-4.28-4.43-.4-.51-1-.92-1.55-1.35l-2.76-2.19c-4.54-3.6-1.12-.99-4.86-4.7-.87-.86-2.02-1.74-3.06-2.31l-2.74-1.5c-.61-.33-1.18-.92-1.72-1.62l-2.15-2.81c-.44-.57-.13.56-3.99.85l-2.99.23c-1.66.13-3.6.79-5.29.72l-4.18-.18.07,3.23c0,.46-1.23,1-1.71,1.01-1.5.03-2.41-.57-2.79-2.04-.19-.74,0-1.51.38-2.51-.79-1.63-5.59-.84-7.53-.46-1.79.35-3.35.21-5.06.19-1.4-.02-2.96.17-4.37-.01-1.15-.15-2.18-.18-3.24-.06l-2.76.32c-1.78.2-5.62,1.01-6.67.96l-4.12-.21-4.2-.27-6.54-.31c-2.14-.1-4.24-.21-6.29-.03s-5.64-1.39-9.24-.22c-3.86-.66-1.94-.14-6.53-.11-6.73.05-1.6-1.34-7.01,2.19l-2.54,1.66c-.7.46-2.99,1.43-4.17,2.92l-1.8,2.26c.1-.13-4.67,5.15-4.77,5.25l-1.91,1.9c-2.89,2.87-.38-1.49-3.21,3.78-1.26,2.34-1.4.73-3.92,2.62-2.17,1.62-4.76,4.49-6.29,6.58l-2.15,2.93c-2.82,3.85-.48,2.35-3.33,4.92l-2.2,1.98c-.81.73-1.56,1.47-2.38,2.16l-1.83,1.54c-2.28,1.92-4.52,3.23-6.05,4.63-.6.55-.88,1.35-1.82,1.64l-.18,1.38c-3.23,2.89-2.51,2.76-4.97,5.43l-2.58,2.82-1.77,1.95-.66,1.42c-2.84,1.78-2.7,3.33-5.29,4.63l-3.1,1.55c-.73.47-1.39.83-2.11,1-.54-.23-.69-.3-.42-.18l-1.64,2.74c-.1.17-.66.45-.57.58.06.08.35.39.39.45l-1.78,1.76c-.64.63-2.13,1.55-2.56,2.23l-2.15,3.4c-.4.64-1.27,1.35-1.93,1.79-.17.21-.42,1.28-.64,1.58l-2.36,3.26c-1.94,2.68-2.81,2.37-5.87,5.78l-1.97,2.2-2.51,2.91c-.55.64-1.04,1.39-1.53,2.2-2.26,3.7-2.41,2.61-5.35,5.33l-1.52,1.41-4.31,4.02-1.75,1.63c-2.81,2.61-4.09,2.2-5.06,3.13l-2.56,2.47-1.46,1.45-1.73,1.6-1.77,1.6c-1.04.94-2.19,1.54-3.59,2.32-.65.36-1.69,1.49-2.35,2.01-.27.21-1.18.52-1.35.8-.37.64-1.19,1.93-1.85,2.27l-2.27,1.18-.96,1.28c-3.33.49-.56,1.28-3.64,1.74-2.25.33-2.19,1.28-3.3,2.27-2.9,2.59-1.03,1.49-4.11,4.13l-1.84,1.57c-1.62,1.39-6.59,4.3-8.94,4.78l-1.22,1.09-3.47,2.4-2.73,1.89-2.3,1.75-3.64,2.34c-.89.57-2.17.95-3.37,1.18l-.95,1.11c-5.74,3-1.87,1.85-5.48,4.79l-2.33,1.9c-1.08.88-2.15,1.7-3.29,2.51l-4.36,3.09-2.02,1.43c-.67.47-1.49,1.58-2.08,2.34l-2.54,3.27-1.47,1.87c-3.5,4.46-2.63,1.29-4.86,5.57l-1.74,1.11-1.37,2.75c.82-.03,1.28-.05,1.84-.1l2.87-.26c1.26-.11,3.04.13,4.2-.22,3.24-.97.44-.24,4.38.05l3.39.25c3.9.29,5.16,1.71,10.22,1.1.55-1.51,2.7-2.75,3.85-1.59l1.52,1.53,6.6-1.75c.64-.17,1.32-.36,1.84-.39l2.12-.14c1.25-.09,2.54-.16,3.71-.17l3.3-.03,4.63.05,5.65.09,1.89-.42,8.53.11c6.31.08,1.61-.14,6.26-.52l3.41-.28,4.42-.29,2.58-.14,3.83-.07,5.68.06h3.09s1.48-.25,1.48-.25l3.92-.13,8.49-.2,1.84-.33,8.6-.04,6.19-.23,2.02-.04c.73-.01,1.58.13,2.32.29l2.67-.06,3.77-.03c.71,0,1.54-.07,2.3-.16,5.78-.74,4.14-.84,9.57.1.62.11,1.26.14,1.73.12l1.29-.04,2.29.23ZM112.59,379.9c.42,3.84-.65.88.52,5.46,6.18,1.48,7.83.07,12.63-.28l3.38-.25,5.31-.29c1.63-.09,3.12-.23,4.7-.02l3.29.45,4.55.6c1.68.22,3.92.34,5.43.17.39-.04,1.33.27,1.67.3,3.42.24,4.22-1.87,5.91-1.25.52.19.85.43,1.03.36,3.54-1.44,5.51-.68,7.97-.59l5.34.2,2.55.1,2.79-.29c.24-.02,3.64.23,7.15-.17l3.74-.43,3.32-.38,4.17-.46,5.25-.17,5.89-1.16c8.86-1.74,9.82-.06,15.18-.87,2.52-.38,2.68-.37,5.23-.42l5.48-.1c3.85-.07-.77-.45,5.66-.14l3.43.16,2.41.61,3.17.09,2.62.13c1.22.06,2.45-.1,3.76-.16l4.44-.19,4.27-.22,4.05-.26,3.34-.39c4.49-.53,3.99-.09,7.34-.43l6-.61,4.5-.25c1.7-.1,3.16-.21,4.74.27,2.17-1.31,4.65-.89,9.07-1.23,9.3-.71,7.67.56,13.62.77,4.67.16,4.2-.29,7.98.22l2.42-.2,4.98-.42,4.2-.37,4.06-.23,2.87-.15c4.04-.21,5.06-.87,8.47-.4l1.6-.09,4.47-.22,3.81-.36,4.2-.69c1.82-.3,3.82.2,5.78.23,1.34.02,3.12-.56,4.5-.67l4.22-.33,3.67-.27c1.22-.09,2.27-.1,3.54-.08l2.7-.52,3.82-.41c2.72-.29,5.11.02,8.26-.03l14.39-.22,3.48-.21c.29-.02,1.05-.16,1.29-.14l3.26.25,4.44.3c3.43-.65,6.73-.99,10.22-.92.78.02,1.89-.12,2.73-.06,1.17.08,2.37.21,3.36.21h7.41c1.12,0,2.31-.03,3.43.2,2.31.49,4.37.27,6.67.44l3.54.27c.9.07,1.94-.22,2.91-.36,3.84-.57,1.71.72,5.49.26.74-.09,1.91-.35,2.44-.3l3.31.31c3.44.32,7.09-.44,8.66-.12l1.83.38,7.35.06c.52,0,1.74.44,2.23.48l3.68-.07c3.29-.07,1.82-1.73,4.75-.23.48.25,1.69-.09,2.33-.12,2.34-.11,4.6-.1,6.94,0,3.62.14,6.42-.32,9.97-.03l3.34.27,3.23.25,2.92.2c1.54.1,3.1-.08,4.7-.23l4.44-.42c.65-.06,1.96.04,2.51.11l2.89.34c3.45.41,1.64-.94,4.2-.99l4.52-.09c1.59-.03,4.59-.55,5.46-.51l4.19.2c1.32.06,2.81-.13,4.16-.32l2.99-.43c1.57-.23,1.51,1.5,1.69.93,0,.02.53-.3.66-.34,7.39-2.43,6.57.59,10.45-1.45,2.9-1.53,1.35,1.38,5.05-.4,1.35-.65,3.19-.79,4.78-1.02l2.9-.43c1.88-.28,4.02-.19,5.97,0l3.27.3c4.19.39,5.99-.05,10.04-.94s.81.32,6.46-.94c.33-.07.87-.83.97-1.13l1.49-4.34,1.38-3.99-4.39-1.99-2.61-1.11c-5.18-2.2-3.79-.38-5.66-1.72-1.02-.73-2.48-.18-3.17.25-.17.11-.99.06-1.23.09l-3.71.44c-.88.1-2.02.4-2.95.57l-4.21.75c-3,.54-3.49-.17-9.35.76-1.23.2-2.5.12-3.85.26l-4.24.45c-2.46.26-4.86.05-7.36.27l-4.62.41-5.28.26-4.32.37c-1.97.17-2.25-1.31-5.97-.99-.35.33-1.08.88-1.41.89l-3.24.09c-.87.02-1.73.07-2.46.14l-3.42.3c-1.98.18-3.82.27-5.75.27l-1.13.13c-.44-.16-1.33-.44-1.72-.38l-3.35.51-2.5.02-4.67.62-1.6-.92-.99,1.18c-1.11.19-2.5.49-3.53.49h-3.45s-7.2.02-7.2.02c-.31,0-.75-.98-.99-1.02-.33-.06-.88-.03-1.46,0l-1.73.08c-.84.41-1.66.67-2.53.76l-3.06.3c-3.26.33-3.52,1.32-6.19,1.45-4.56.22-1.6-1.08-9.09-1.09-3.44,0-.66,1.06-4.52,1.35l-3.83.29-3.79.27-4.9.22-2.5.12-3.78.21c-5.79.32-.08.58-7.45.43l-3.92-.08c-.37,0-.92-.63-1.19-1.13l-.69-.52-.13.44.31.84c.05.15-.57.31-.74.3l-5.02-.24c-.09,0-.8.23-.88.22l-2.97-.39c-1.44-.19-2.79-.26-4.27-.31l-.81-.03-.67-.11c-7.25-1.23-5.07,1.03-8.1-.13s-.67.17-3.63.29l-5.97.23c-.85.03-2.61-.39-3.46-.44-.41-.03-1.53.63-1.94.55l-3.03-.6c-3.41-.68-.33.91-6.3.16-4.85-.61-.33.43-5.69-.08l-8.8-.84-3.19-.42-4.81-.35-3.78-.27-3.79-.27-7.82-.22-2.45-.34-2.96-.09c-1.39-.04-2.74-.06-4.19-.2l-4.16-.39c-.78-.07-2.48.48-3.28.45-2.54-.11-9.43-.15-11.73.1s-8.69-1.41-13.89-.53l-3.79.64-5.03.36-4.61.37-12.34.27-4.21.28-3.77.31-2.77.3c-1.5.16-2.83.19-4.37-.04-5.41-.78-4.02,1.12-7.14-.37-.64.01-1.95.16-2.62.12l-4.18-.22c-.46-.02-5.56.09-6.37.14l-5.71.35c-.9.06-2.27-.19-3.26-.13l-1.32.07-2.36.08c-1.26.16-2.38.11-3.54-.29-.31.05-1.17.31-1.5.3l-2.12-.07c-1.85-.06-3.55.11-5.47.15l-8.16.19-1.78.33-16.82.16-3.43.14h-2.56c-3.54-.02-3.49,1.11-7.55.24-.87-.07-2.64.67-3.62.68l-13.25.19-4.26.22-3.84.16c-1.54.06-3.15.13-4.83-.15l-4.16-.71c-1.72-.29-3.6-.11-5.29.03l-3.88.32c-.98.08-1.54.89-1.83,1.86-.19.55-1.61,1.27-2.22,1.24l-3.61-.23-2.17-.38-3.42-.31-4.58-.41-7.39-.21c-1.16-.03-3.02-.64-3.99-.61-1.83.44-3.1.5-4.77.65l-4.98.46c-.92.09-2.75.14-3.24.79-.7.93-.75,3.68-.64,5.09l.31,4.03.39,3.54Z"/>
      <path d="M547.63,213.85c-1.72.64-3.23.35-4.1-1.19-1.34-1.12-2.95-2.43-3.86-3.87l-1.63-2.56-1.53-2.23c-.68-1.3-.23-3.16,1.15-3.71l2.4-.96,1.38.9c1.19.36,2.07,1.02,2.4,2.19l3.15,4.32,1.63,2.16c.73.97.85,1.76.36,2.96-.07.88-.54,1.68-1.36,1.98Z"/>
      <path d="M193.05,222.55l-2.37.69c-.67.19-2.26-.74-1.95-1.35s.84-1.44.89-1.89c.13-1.15.13-3.13.7-3.85l1.87-2.38c1.95-2.47,2.82-4.83,5.98-4.01l.5,1.27c1.1.57,1.93,2.31.71,3.3s-1.88,2.17-2.78,3.52c-.51.76-1.39,1.67-1.98,2.49l-1.59,2.2Z"/>
      <path d="M259.08,161.46c.23-.21-3.76,1.81-5.32-.18-.54-.69-.53-1.81-.07-2.45l1.6-2.24c.77-1.08,1.47-2.06,2.35-3.07,3.07-3.54,2.16-1.27,4.97-4.72.42-.19,1.83-.24,2.19.19l1.71,2.05c1.23,1.48-2.89,4.51-4.63,6.71-.79,1-1.91,2.91-2.79,3.71Z"/>
      <path d="M482.28,163.9c-.79,2.04-3.86-.08-3.92-.16-2-2.67-1.44-3.45-2.96-6.51-1.69-3.4,1.34-5.13,1.83-5.24s1.52.2,2.07.43c1.34.56,1.47,1.55,1.97,2.73l1.38,3.2c.34.78.94,2.17.67,2.87l-1.04,2.69Z"/>
      <path d="M302.37,137.69l-2.04.84c-.57.23-1.76-.71-2.08-1.25l-1.35-2.24,5.09-5.7,2.65-2.88c1.89.56,3.43,1.24,5.09,2.04l-1.43,2.64c-.35.65-.88,1.2-1.52,1.8-2.84,2.7-2.01,3.77-4.41,4.75Z"/>
      <g>
        <path d="M378.52,126.99l-3.11,1.48-2.06-.86c-1.93-.8-1.75-3.33-.69-4.75l.12-3.71c.03-.84.55-1.77,1.03-2.23.66-.64,2.14-.79,2.79-.47l2.73,1.37-.11,4.71c-.02.73.25,2.06.38,2.88-.07.16-.75,1.42-1.09,1.58Z"/>
        <path d="M370.04,149.92c-.86-.1-2.27-.57-3.02-.42-2.33.46-4.49.55-6.62-.14-.14-1.05-.4-2.49-.47-3.35-.07-.77,1.65-1.34,2.38-1.31.26-.11,1.11-.53,1.42-.63h6.15c.89,0,2.65.88,3.45,1.35.1.45.35,1.46.3,1.84l-.31,2.57-.49.41-2.79-.33Z"/>
        <path d="M361.83,127.87c-.66.06-2.14.49-2.78.33-1.21-.29-1.31-2.38-.7-3.25l-.23-2.31c1.32-2.35-.7-2.19.51-4.52l1.1-2.12,3.51.67c.61.12,1.17,1.4,1.22,2.01l.23,2.96-.26,3.74c-.11,1.57-.89,2.34-2.59,2.49Z"/>
      </g>
      <path d="M437.84,135.89c-.95.57-2.78.25-3.47-.21l-.62-2.79-1.71-2.14c-1.17-1.46-2.27-3.33-2.02-5.38l2.43-2.11c1.34-.43,3.18.79,3.97,1.86l1.47,2.01c.79,1.08,1.08,1.95,1.15,3.26.03.67.4,2.14.47,2.88.06.69-.98,2.21-1.67,2.62Z"/>
      <g>
        <path d="M289.86,326.33c.41-.35,5.29-.88,5.25-.87l9.12-.19c4.05-.09,3.23.24,7.64-.04l2.77-.18c5.92-.38,2.57-.61,7.78-1.51,1.26-.22,2.58-.13,3.94-.17.67-.02,2.01-.4,2.74-.37l2.66.1c.33.01,1.06-.02.92-.04-.04-.98-.06-2.05.05-2.72l.85-5.09c.31-1.85.14-4.08.07-6-.14-4.24-.85-2.11.58-5.66-1.5-5.41.46-3.58.73-6l.33-3.02c.09-.85.6-6.31-1.24-5.12l-.96.62c-.25.16-.84-.69-1.13-.8-1.63-.59-8.03-2.06-10.13-2.56l-2.15-.51c-1.49-.36-3.09-.05-4.66.02l-5.77.24c-.66.03-1.93.19-2.53,0l-5.37-1.58c-1.4.81-2.98.5-4.67.4l-6.02-.34c-.89-.05-1.84-.11-2.61.05l-3.26.69c-.66.14-1.77.1-2.5.13l-4.23.16c-1.5.06-3.07-.4-4.63-.62-.77-.11-2.39.16-3.14-.01l-1.94-.44c-1.26-.29-2.96-.15-4.36-.08-4.14.18-1.56.35-4.94.51l-2.11.1c-1.94.09-3.57-.02-5.53-.44-.15-.03-5.37-.5-5.57-.5-7.59.31-8.27,2.4-12.45,1.78-.29-.04-.91-.8-1.17-.69l-1.15.47-2.19-.74c-1.2,2.13.57,3.36-1.05,3.34-.81,0-1.98.61-2.58,1.23l-3.94,4.01-1.49,1.47c-.59.59-1.35,1.19-2.06,1.61l-2.12,1.24-.56,1.39-1.99,1.09c-.92.5-1.61,1.79-2.25,2.66l-2.5,3.39c-1.46,1.98-4.08,3.66-6.36,5.62-1.08.93-2.37,1.74-3.2,2.95-1.26,1.84-2.58,3.16-4.28,4.56-1.14.94-2.17,2.15-3.27,3.35-.75.82-2.63.51-3.02-.45-.02-.5.13-1.91.48-2.24l2.88-2.7,2.09-2.6,2.57-3.25,1.5-1.86c3.83-4.76,2.95-1.34,4.62-3.89,3.17-4.85,1.13-.85,3.72-4.68l1.55-2.29c.41-.6,1.28-1.74,1.81-2.15l2.19-1.68c1.87-1.43,3.52-3.12,4.95-5l1.86-.54c.5-.72.94-1.35,1.47-1.93,3.12-3.45.43-3.21,2.98-3.89,1.21-.33,2.85-.8,3.8-1.36l2.69-1.59c2.29-1.35,3.77,1.47,11.42.43,3.77-.51,5.24-1.24,7.55-.75l2.25-.04c2.78.77,3.79-1.17,4.18.58l1.88-.25c5.2-.7,2.3.84,4.81-.12.97-.37,2.09-.37,3.14-.19.7.12,4.73-1.44,8.28-.36l4.22,1.29c1.05.32,2.06.41,3.15.22l7.85-1.33,3.59-.2c6.48-.37,5.11.82,6.46.87l5.23.2c.48.02,1.67.34,2.11.31l3.04-.21c2.24-.15,4.26-.15,6.57-.06.86.03,2.24-.33,3.38-.52.76-.12,2.43.6,3.24.57l3.99-.13c.73-.02,1.86.41,2.71.59l3.27.71c4.04-1.13,2.73-.31,7.46,1.1,1,.3,2.6.94,3.27,1.71,1.29,1.48-.47,3.61-1.14,6.15-1.34,5.15-.75,1.03-1.42,5.84l-.63,4.58c-.25,1.84-.28,3.49-.65,5.31-.29,1.43-.16,2.8.02,4.33.05.76-.53,2.49-.51,3.28.02,1.38.67,5.95-.23,6.99-.37.43-1.66.78-2.39,1.04l.47,1.53-.1,2.31c-.04.79-1.34,2.45-2.14,2.46l-2.87.03c-4.97.06-1.97-.38-6.75-.08l-3.95.25c-.65.04-1.83.54-2.61.5-1.52-.09-2.67-.01-4.21.15l-2.09-.18c-.62-.05-1.59.04-2.32.05l-2.99.05-5.34.17-2.49.38-5.06.37c-.57.04-1.8-.19-2.43-.21l-2.58-.11-4.93-.2-2.5-.1-5.38-.2-4.1-.68-4.65-.19c-.55-.02-1.47.06-2.09.06l-7.2.07c-1.27.01-2.45-.3-3.37-.96-.3.32-1.27,1-1.75,1l-4.14.04c-1.02,0-2.34-.26-3.4-.35l-2.17-.18c-1.21-.1-3.14.22-4.21-.18-3.82-1.45-1.22.35-8.03.15l-2.73-.08-2.49-.12c-.87-.04-1.82,0-2.7.03-6.06.24-2.76.92-8.92.5-1.16-.08-2.99.37-4.17.2-1.77-.25-3.34-.5-5.03-.54l-3.6-.1c-.1,0-1.06.54-1.34.54l-3.57-.04c-2.08-.03-4.09.44-5.97-1.15-.98-.83.28-3.36,2.28-3.8l2.51-.55c2-.44,4.54.13,6.49-.25l1.8-.36h10.18s1.7.77,1.7.77c4.83-1.04,2.18.76,8.4-.81l1.6.65,3.07-.05,5.1-.1,6.43-.08,3.76-.05c.57,0,1.68.23,2.34.27l2.95.2,4.37.67c2.39.36,6.43-.5,10.58-.12,1.65.15,3.13.24,4.7.25l4.11.04c1.11,0,2.27.14,3.4.28l3.16.4c.58.07,2-.48,2.59-.48l4.12.18c1.56.07,3.29.45,4.68,1.01Z"/>
        <path d="M429.4,327.75c-1.24-.02-2.44-.24-3.38-.15-1.82.17-3.5.31-5.26.65l-3.06.59-2.36.5c-2.17.46-3.31.67-5.45-.53-.59-.33-.38-1.94-1.22-4.49-.51-1.55-1.07-3.11-1.45-4.63l-1.03-4.12-.88-3.15-1.07-3.96c-.09-1.03-.29-2.06-.54-3.1-.35-1.7-.84-3.2-1.54-4.75l-1.38-3.03c-.36-.79-.53-1.6-.51-2.53l.08-2.77-1.2-1.24-1.49-5.14-1.48-.58-1.3-2.27c.22-.59,1.6-1.36,2.31-1.56l2.37-.67c1.91-.54,4.83-1.62,6.71-1.31l2.55.42c.5.08,7.55-1.14,6.41-.8l4.27-1.29,3.5.06,2.85.05c4.31.07,3.25-.7,5.22.29,3.39-2.44,1.46-.82,2.67-1.14l4.69-1.24,1.74-.46c4.7-1.25.96.82,8.61-1.64l2.54-.82,2.63-.88c2.77-.93,7.4-.62,9.78.18,1,.34,3.91-2,5.49-.12.36-.75,1.06-1.51,1.85-1.5l9.55.12c3.12.04,6.81.55,10.26-.64,1.68.06,2.63,1.32,3.33,2.74,3.37,3.16,1.49,2.9,3.48,4.27,2.75,1.89-.18.26,2.99,3.73,1.81,1.98,3.07,2.47,6.36,6.14.32.36.79,1.41,1.19,1.63.68.36,1.49.91,1.97,1.34l2.01,1.81c1.22.78,2.32,1.77,3.34,2.86l2,1.79c.94.84,2.31,1.6,3.33,2.41l2.58,2.04c4.78,3.79,2.24,3.47,5.19,4.47,1.78,1.74,3.44,5.67,4.42,6.52l1.89,1.64c1.37,1.19,1.21,4.42.19,5.79-.42.57-1.68,1.57-2.3,1.79-2.03.72-3.18-.49-7.55-.02-3.74.4-4.15-2.04-9.07.1-3.93,1.71-3.83-.23-7.74.91-2.08.6-4.17,1.47-6.31,1.54l-6.13.22-3.37.29-3.78.3-3.25.23-2.09.13-3.76.21-3.8.26-7.25.22c-.58.02-1.81.61-2.36.66-1.16.1-3.13,0-4.27.23l-4.21.82c-.38.07-7.8.25-8.74.23-.38,0-1.29-.2-1.63-.17-5.87.46-2.04-.53-6.96.52-1.27.27-2.67-.04-3.92-.58l-1.37.71-5.89-.11ZM457.01,322.49c4.34-.86,3.5-.08,7.9-.89,2.38-.44,4.55-.3,7.03-.28,1.05,0,2.8-.27,3.94-.39.52-.05,1.72-.53,2.28-.55l2.9-.12c.81-.03,1.85,0,2.56-.15l3.57-.76c1.32-.28,2.9.12,4.26.02l4.56-.31c.69-.05,2.12-.53,2.84-.69,1.7.49,3.15.04,4.79-.12,1.9-.19,3.8-.3,5.71-.58l3.3-.49c3.4-.51,6.6-2.05,8.28-1.96l4.16.21c.7.04,1.87-.12,2.53-.21.02-.19.07-.79.02-.88l-1.56-2.76c-.28-.49-.69-1.35-1.07-1.54-3.61-1.77-.92-3.57-4.99-4.92-3.56-1.19-1.76-2.7-5.42-3.77l-1.59-1.71-3.55-4c-.52-.59-1.4-1.37-2.15-1.94l-2.1-1.6-2.36-2.22-2.13-2.04c-5.9-5.65-2.46-3.36-5.28-6.26l-2.5-2.56c-1.03-1.05-1.69-2.19-2.19-3.83l-8.06.05-3.22.15c-1.01.05-1.84.01-2.65-.4l-5.28.36-3.26.37-3.44.39c-1.42.16-2.99.4-4.29.36-.51-.02-1.53-.28-1.98-.21l-3.36.52c-.79.12-1.77.41-2.55.66l-2.53.82c-.5.16-1.49.63-2.05.74l-4.93,1.01-3.06.28-4.55.99-3.05.6-5.89,1.07-8.61.23-6.74,1.48c-2.56.56-6.25-.55-8.23-.27l1.22,6.2c.7,3.56.31.83,1.2,4.96.25,1.16,1.15,2.58.98,3.87-.33,2.58.72,2.59,2.21,6.3l1.66,4.13c.18.44-.28,1.58-.37,1.91l1.11,3.24,1.74,4.29,1.78,4.41c.77-.1,1.69-.28,2.14-.3l4.6-.15c1.61-.05,3.72-.78,5.22-.62,2.33.25,4.18.22,6.44,0,3.65-.35,6.38-.01,10.86-.25l3.72-.2,2.27.11c4.11.19,1.73,1.31,7.18.23Z"/>
        <path d="M279.47,254.11c-1.08.09-1.94-.16-2.84-.67l-.95.7-4.02.89-2.74.6c-.55.12-1.92-.55-2.3-.96-.57-1,.46-2.67,1.65-3.08l-.3-1.25,1.3-1.89c1.08-1.57,2.51-2.98,3.13-4.72.11-.31.27-1,.42-1.27l1.48-2.7c.38-.7.68-1.44,1.11-2.22l3.32-6.08,1.51-3.1c.38-.78.9-1.57,1.52-2.22.89-.92,2.26-1.08,3.18-.08.31.34,1.1.43,1.57.24.81-.34,1.63-.19,2.45-.26,2.38-.21,4.65-.59,7.12-.94,5.32-.76,6.34.46,8.88.48l2.69.03c1.97.02,4.22.83,6.18.74l2.51-.12c.65-.03,1.75-.27,2.36-.49l4.01-1.51c.94-.35,1.95-.56,3.03-.41,2.99.43-.15-.29,5.08-.88l3.4-.38c2.24-.25,6.23-.52,7.81,1.09,2.73,2.78,1.94,1.99,3.66,5.84l-1.04,5.68c-.65,3.55-1.01,3.95-.28,8.15l.49,2.81c.06.34-.09,1.35-.12,1.66.78,1.4.92,4.56.16,5.81-.38.61-2.1,1.26-2.78,1.01-5.42-1.98-6.36,1-10.96-.38l-1.7-.51-4.65,1.43c-6.56,2.02-5.71.23-10.58.16l-7.48-.1-1.18-1.03c-3.67,1.13-1.44-.45-6.26.71-2.83.68-4.57.1-8.31.07l-2.69-.02c-.66,0-1.61-.84-2.13-1.65l-.68.9c-.61-.11-1.81-.43-2.38-.39l-3.62.29ZM286.92,250.82l3.2.27,3.8.31c1.19.1,2.58.25,3.66.23l3.03-.05c.45,1.93.86-.55,2.75.07,2.85.94,5.61-.79,11.93.55,1.36.29,2.8,1.07,4.29,1.05,7.84-.11,4.52-3.74,14.23-2.36,3.42.49,1.86-.99,4.96-.48.49.08,1.03.25,1.12.04.32-.76.31-2.63.25-3.39l-.19-2.63c-.26-3.55-.86-2.72.03-4.9-.09-.26-.5-1.34-.49-1.83l.16-5.18c.04-1.31.75-3.02-.31-4.15-.53-.57-2.25-1-3.04-1l-2.33.02-1.85.11c-.84.05-2.37.45-3.12.55-.89-.41-1.7-.59-2.41-.41l-3.21.82-2.96,1.3-3.5.83c-5.5,1.3-5.05-.11-7.28-.47-4.89-.8-3.19-.87-6.82-.82l-3.01.04-2.98.28-4.98.47c-1.31.12-2.6.22-3.85.2l-2.55-.04-2.75,4.3-1.71,2.44c-.43.61-2.3,1.31-2.36,2.05l-.24,2.84c-.53.76-1.09,1.58-1.4,2.32l-1.11,2.72c-1.16,2.85-2.64,1.71-1.98,3.49.07.18.42-.13.79-.4,3.9-.72,7.91.45,12.24.82Z"/>
        <path d="M416.22,250.01l-3.71,1.37-2.2.41c-.96.18-1.64.42-2.69.48l-.62,1.26c-.74,1.5-3.05,2.11-4.69,1.55-.48-.16-.86-1.32-.95-1.84l-.65-3.65-.36-2.25c-.16-.97-.63-1.82-1.12-2.74l-1.27-2.42c-.45-.85.04-3.76-2.43-4.36l-.48-1.98-1.11-4.96c-.17-.74-.3-1.43-.07-2.11.08-.23.19-1-.02-1.02l-.94-.11-3.39-.39.47-2.72,5.02-2.11,3.43-1.25c.89-.33,2.88-.46,3.87-.4.66.04,2.06.58,2.76.52l3.49-.33c2.08-.2,4.29-.14,6.31-.1,4.22-2.75,2.23-.62,5.28-1.98,1.28-.57,2.32-.95,3.56-1.32,1.13-.33,2.66-1.03,3.77-1.16l5.6-.67,2.39-.25c2.25-.24,4.74-.25,6.32,1.4,2.23,2.33.17,1.03,3.44,4.44,4.4,4.59,1.66,2.85,5.16,6.15.54.51,1.09,1.54,1.56,2.13l1.66,2.09c1.87,2.35,2.75,2.54,3.92,3.88l1.96,2.25c.4.46,1.1,1.68,1.4,2.24.88,1.67-.93,3.1-2.33,3.45l-3.9.97c-1.08.27-2.19.84-3.49.81-1.1-.02-2.82.58-3.69.48-1.29-.15-2.59-.42-3.81-.27l-2.79.34-3.06.2c-4.03.26-4.09,1.41-7.28,1.85l-2.95.4-3.4.47c-.65.09-1.59.12-2.13.27l-1.92.55c-4.42,1.26-1.88-.31-3.89.43ZM413.66,247.25c6.02-1.42,1.75-1.16,7.28-1.45,1.42-.07,3.4-.89,4.99-1.33.44-.12,1.47.12,1.87.04l2.96-.6c1.63-.33,3.7-.24,5.18-.15,2.8-2.49,8.24-1.78,10.41-2.15,1-.17,1.66-.31,2.53.04l4.25-1.12c.33-.09,1.08-.57,1.1-.89.08-1.02-2.29-2.6-3.44-4.25l-1.91-2.76c-.33-.47-.82-1.69-1.19-2.13l-2.95-3.33c-.43-.48-1.06-1.76-1.55-2.25l-3.89-3.88c-.8-.44-2.62-1.14-3.44-1.32-1.19.33-2.2.58-3.36.66-1.4.1-2.52.39-3.83.61l-3.36.56c-.88.15-1.74.57-2.59,1.08l-2.53.46c-1.34.25-2.92.53-4.15.9-1.41.43-2.73,1.03-4.24,1.1l-3.4.16-3.85.16c-.37.02-1.34-.26-1.71-.18l-3.1.67c-.6.13-1.58.55-1.68,1.03-.25,1.29.72,1.85,1.33,5.82l.65,4.26c.61,3.98,1.28,3.21,1.81,4.71.41,1.15.77,2.39,1.24,3.47l1.02,2.37c.21.49,1.65.96,2.16.91,4.6-2.48,5.33-.76,7.37-1.25Z"/>
        <path d="M326.83,204.47c-5,.48-2.37-1.57-5.72-.18l-2.6-.12c-2.89,1.09-9.3-.07-11.46-2.76l2.85-3.13c1.22-1.34,2.43-4.05,3.21-5.85l1.3-2.97c.22-.49.41-1.16.57-1.76l1.06-1.52c.39-1.25.91-2.57,1.71-3.19,3.12-2.44,5.85,1.34,9.11-.13.63-.28,1.8-1.62,2.49-1.37.88.32.58,1.92.93,1.87l.7-.1c.23-.03.73-.18.91-.23l-1.71-.84c.44-.69,6.39-1.32,7.61-1.36l2.55-.08,2.11-.05c1.78-.04,4.67.35,6.57.81,3.11.75,2.15,6.44,1.55,8.78-1.1,4.25-1.93,3.85-.94,6.09-.03.81-.3,2.45-.22,3.23l.23,2.16c.11,1.06.43,2.72-.28,3.52-1.08,1.22-2.72.9-4.02.83l-3.79-.2c-.86-.05-1.97-.29-2.6-.5-.83.96-1.88,1.23-3.29,1.15-.74-.04-2.4.16-3.13.01-1.6-1.36-3.68-2.29-5.7-2.1ZM322.19,201.05l3.72-.48c3.8-.49,5.64.5,9.43.25,2.3-.15,5.22-1.06,7.14.47l2.1,1.68,1.01-5.34.7-3.32.56-2.83c.07-.34.99-.4,1.44-.42.6-.07.69-.09.26-.03l-.92-1.12c-.06-.07,1.79-2.95.63-4.22-.27-.29-1.19-.54-1.59-.56l-3.01-.18c-1.33-.08-4.01,1.44-7.02,1.74l-3.34.34-5,.51-3.22.19-3.06.2-2.22-.17c-2.48,4.47-3.29,1.66-4.1,6.07-.33-.29-.7-.68-.73-.52.05-.31-.33,1.78-.11,1.49-.65.85-1.17-.11-1.29,1.76l-.13,2.03c-.04.63.13,1.91.6,2.27.41.31,1.48.38,2.14.38,3.85,0-.88.72,6-.17Z"/>
        <path d="M402.21,199.47l-4.75,2.54c-1.59.85-3.27.83-4.62-.5-.74-.72-1.19-1.49-1.72-2.49-.44-.84-1.36-2.18-1.86-2.92-1.04-1.57-.66-5.24-2.34-7.54-.85-.47-1.29-.87-1.61-1.4l-1.63-2.68c.39-1.11,1.38-2.55,2.34-3.17l2.58-.51,3.8-.75,3.66-.63,3.39-.64,2.93-.58c1.14-.23,2.87-1.12,3.87-1.1,1.47.03,2.64.12,4.06-.11.96-.16,3.32.2,3.59,1.2l1.02,3.77c.88.91,1.51,1.75,2.24,2.73l1.77,2.39,1.9,2.57c1.03,1.39,2.76.52,1.94,5.51l-3.15.52c-.44.07-1.33.39-1.9.53-1.34.33-5.54.92-7.18,1.07l-3.42.31c-.66.06-1.72.23-2.21.48l-2.71,1.39ZM399.88,195.19c.46-.31,1.57-.36,2.4-.27l1.39-.87,8.52-1.44c-.73.12,4.86-.55,4.71-.24.17.18.02-.83-.19-1.11l-2.35-3.2-1.67-1.68c-.88-.67-1.47-1.64-1.22-2.83l-.92-2.29c-.23-.56-2.19.18-4.53.39l-4.85.44c-1.55.14-3.04.68-4.57,1.11-3.5,1.01-4.84.87-7.14,1.66,3.26,2.72.77,2.15,3.15,6.49,1.9,3.47,1.58,1.02,2.82,4.38l1.64,1.36,2.8-1.9Z"/>
      </g>
    </g>
  </g>
</svg>