<?xml version="1.0" encoding="UTF-8"?>
<svg id="Layer_1" xmlns="http://www.w3.org/2000/svg" version="1.1" viewBox="0 0 462.86 554.23">
  <!-- Generator: Adobe Illustrator 30.2.1, SVG Export Plug-In . SVG Version: 2.1.1 Build 1)  -->
  <g id="_x30_qPsh6.tif">
    <g>
      <path d="M0,546.18v-1.43l.43-.72.27-.45c.06-.09.33.18.57.37.2.16.6.02,1.04-.07,1.15-.23,2.42-.27,3.66-.36l2.02-.15c4.67-.34,2.23-.77,7.72-.6.45.01,2.98.71,3.09,1.66.1.86-.15,1.69-.37,2.38l-2.08-.14-1.15-1.04c-.76.1-1.39.19-2.05.24l-2.6.22-1.79.15-2.33.25c-.85.09-1.8,0-2.69.25-.43.12-.86.15-1.27.14l-1.33-.02-1.14-.7Z"/>
      <path d="M442.69,536.2c-1.33-.81-.13-2.79-.02-2.8.56-.05,1.86-.04,2.42-.13l2.3-.34c.79-.12,1.56-.09,2.37-.02l1.67.14,2.31.21c.87.08,1.89.06,2.76,0l1.9-.15c.64-.05,1.71-.37,2.4-.54.51.7.96,1.13,1.94,1.27l.12,1.41c-1.33.08-2.27.48-3.12,1.17l-2.31-.27-1.65-.2c-1.08.15-1.9.18-2.93.14-4.51-.16-.23.34-4.32.26-2.41-.05-3.8,1.07-5.83-.16Z"/>
      <g>
        <path d="M38.17,542.23c1.91-.61,4.27-.62,6,.29,2.87,1.51,1.52,1.87,4.3,2.87l2.29.83c.88-.62,2.18-.69,3.47-.8l2.28-.2c1.61-.14,2.85-.28,4.64.03l1.7.29c.27.05.61-.55.67-.83l.8-3.81c-.07-.11-.23-.51-.21-.64l.52-2.6c.09-.47.41-1.13.61-1.62.97-2.35.37-2.16,1.66-3.13l.02-.57c.03-1.08,1.36.59,1.13-3.28l-.17-2.87c-.03-.54-.1-1.18,0-1.71l.53-2.63c.24-1.2.14-2.66.09-3.94l-.09-2.22c-.05-1.32-.37-2.41.25-3.71.27-.56-.11-.78-.48-2.88l-.36-2.01c-.36-2.03,2.05-1.74,2.11-3.64l.08-2.62c.08-2.64.24-.59.49-2.85l.22-2.07.15-2.8.22-2.07c.07-.63.29-1.75.49-2.26l1.48-1.78c1.03-1.24.74-.06,1.81-.9l1.79-1.41c1.07-.85,2.01-.31,3.17-.05s3.16.15,4.31.17c1.76.03,1.4-1.93,1.58-3.1l.34-2.24c.09-.6.39-1.5.41-2.04l.1-3.18c.02-.47.16-1.09.28-1.68.82-4.22-.11-1.06.4-4.63l.54-3.79c.17-1.16.32-4.63.35-5.91l.04-1.71.11-4c.03-.91.26-1.92.23-2.85-.14-4.44-.64-1.11.08-5.08.19-1.04.19-2.01.01-3.05-.21-1.19-.03-2.4.06-3.6l.23-3.08c.06-.87.08-1.7.06-2.56l-.03-1.95-.06-2.65c-.03-1.48.04-2.85.09-4.34l.19-5.95.26-2.89c.05-.51.22-1.38.07-1.77-1.42-3.6.77-2.8.43-4.34l-.4-1.83c-.68-3.09.56-.18-.23-4.44-.07-.38-.05-1.17-.07-1.58l-.07-1.45-.18-3.66-.05-2.66c-.01-.75-.2-1.89-.33-2.66l-.46-2.74c-.11-.65-.34-1.88-.08-2.38l.61-1.18c-.27-.76-.32-1.21-.35-1.88-.27-4.93.76-4.95-.24-8.06l.38-1.12.1-3.61c.01-.5.04-1.03,0-1.42l-.25-2.34-.17-3.66-.3-3.16c-.09-.91-.09-1.73-.03-2.64l.19-2.76c1.33-2.48-.15-.57.08-4.86.06-1.2.17-2.34-.04-3.52-.56-3.12.47-1.12.3-3.69l-.22-3.36c-.14-2.09.77-1.12.18-2.27-.14-.27-.31-.57-.21-.66l.84-.77c.23-.22.08-.94-.03-1.28l-1.06-3.26.67-1.21-.48-2,.24-2.88c.04-.44.23-1.27.2-1.67l-.12-2c-.07-1.11-.9-2.55-.9-3.71l.02-2.08c0-.72.1-1.7.24-2.5l.42-2.27-.19-2.6.83-.48c.42-.24-.53-1.16-.58-2.58l-.06-1.89c-.08-2.65.89-5.07,1-6.45l.16-1.89.32-2.1.23-2.4c.05-.52.62-1.45.97-1.84.8-.91-.38-.92.12-2.67l.61-2.1-.18-1.32c-.02-.17-.08-.47-.13-.58-.06-.16-.47-.23-.71-.26l-1.5-.17c-.22-.03-.81.03-1.04.03-1.19-.14-2.27-.03-3.5.04l-3.11.18c-.75.04-1.53.17-2.26.28l-2.9.45-1.74.26-1.14-.17-5.78-.1c-.31,0-1.09-.54-1.4-.46-2.88.76-2.89-.55-5.78.06l-3.35.7c-.76.16-2.19.12-3.02-.04-1.82-.35-1.5-.8-3.82-.82-3.18-1.8-1.5-2.67-5.67-3.14-.87-.1-1.78-.63-2.71-.95-.45-.15-1.43-.14-2.1-.28-.72-.14-1.28-1.56-1.15-2.2.44-2.17,1.67-1.4,2.64-2.69l1.36-1.8,1.01-1.29c.69-.88,1.55-1.71,2.31-2.5.27-.29.69-1.04.94-1.33l1.75-2.02c.61-.7,1.19-1.47,1.77-2.22l1.01-1.3c.67-.86,2.42-2.82,3.34-3.5l1.17-1.36c.73-.84,1.37-1.49,1.96-2.37l1.7-2.55,1.69-2.22c.68-.9,1.23-1.86,1.92-2.73l2.64-3.39c.42-.53.78-1.08,1.2-1.69l.76-.94c2.45-2.3,1.09-1.19,2.26-2.57l1.26-1.49,1.8-2.59,1.51-2.23c.66-.97,1.4-1.85,1.9-2.92l.62-1.33c1.47-1.05,2.18-3.06,3.31-4.41l1.7-2.03,1.32-1.57c1.67-1.98,1.07-.3,2.54-3.43.97-2.06,1.15-.18,2.07-3.15.25-.79,1.15-1.55,1.62-2.26l1.15-1.77c.14-.21,2.25-2.96,2.82-3.71l1.23-1.64,2.03-2.58c.73-.93.82-2.11,3.3-4.71,1.47-1.54.08-1.53,1.67-3.13,1.48-1.48.18-2.04,2.1-2.25l.98-1.19c.21-1.01.54-1.83.99-2.73l1.44-2.94c.26-.52,1.22-1.26,1.56-1.75.56-.8,1.02-1.47,1.6-2.16l.92-1.1c.47-.56.96-1.15,1.48-1.65l1.6-1.57c.46-.45.99-.96,1.38-1.46l1.76-2.26,2.22-2.94.61-.75.91-1.15c.54-.68,1.13-1.29,1.75-1.99.44-.5.79-1.79,1.39-2.2,1.21-.83,1.84-1.7,2.7-2.86,1.33-1.8,1.76-1.43,2.94-3.58.68-.43,1.23-1.09,1.56-1.9l1.1-.58c1.64-2.99,1.37-1.88,3.04-3.79l1.21-1.38c.44-.51.96-.96,1.37-1.46l1.16-1.45,1.16-1.44c2.17-2.7,2.99-2.49,3.96-3.66l1.46-1.75,1.46-1.66,1.67-1.79c.65-.69,1.26-1.82,1.88-2.62l1.01-1.31.85-1.16c.42-.43.65-.79.93-1.35,2.27-4.55,2.63-3.7,4.78-7.21l1.74-2.83,1.76-2.56c.26-.38.82-.95,1.13-1.36l1.14-1.47c1.44-1.87.73.06,1.33-1.82.71-2.21.28.1,1.96-3.19.32-.62.95-1.07,1.51-1.63.66-.65,1.29-1.59,1.92-2.32l1.46-1.7,1.19-1.38,1.61-1.8c.56-.62.98-1.18,1.66-1.83.6-.57,1.62-2.46,2.4-3.19,3.26-3.05,2.75-3.82,3.76-4.92l1.18-1.28,1.49-2.29c1.17-1.8.84-.22,1.84-2.23.68-1.36.5,0,2.08-2.66,1.12-1.88,1.58-2.17,3.1-4.37,1.67-2.42,1.31-.52,1.99-2.26.18-.45.4-.75.63-1.11l1.37-2.06c.81-1.23,1.97-2.1,3.55-4.45.81-1.19,1.63-2.34,2.53-3.46l1.15-1.42,1.16-1.42,1.18-1.39c.62-.73,1.25-1.38,2.01-1.99,2.32-1.86,1.14-1.31,2.84-3.22.93-1.05.38-.22,2.65-1.05.73-.27,2.87-.57,3.23.98.34,1.47,1.82,2.78,3.34,2.71,1.23-.05,2.03-.15,3.45.14l2.66.54,2.2.08,2.81.49c.32.06,1.21-.27,1.53-.2,2.33.54,4.03-.29,7.55-.5l1.22-.07c.64-.04,1.42.01,2.09.13l2,.34c.56.09,1.67,0,2.16.16,2.53.77,1.13.26,4.67.75,1.4.19,3.88-.22,4.53.08l2.25,1.03,2.68.19c.54.04,1.5-.12,2.28-.17,1.77-.1.69-.7,2.36-.47l1.64.22c1.14.15,2.17,1.18,2.4,2.4.49,2.62-.56,1.1.07,3.34.34,1.19.25,2.22.26,3.39l.03,2.06c.02,1.06.84,2.63,1.76,3.37,1.23.98-.04.82,1.07,1.72.44.36.78.84.95,1.35l.91,2.72c.06.17.1.73.18.9l1.07,2.29.79,1.4c2.18,3.85.82,1.07,1.5,5.15.34.84.61,1.52.79,2.38l.53,2.61c.08.39.59,1.19.64,1.56l.23,2.06,1.5,1.69c.87.98,1.85,2.03,2.95,2.74.25.16.52.69.7,1.1.76,1.66,1.12.24,1.74,1.9,1.36,3.63.8,3.26,2.05,6.52l1.31.93c.18.13.3.86.46,1.02l.7.71.31.31c.25.25-.04.69.02.77.19.26,1.4.46,2.44,2.2l1.18.73c1.34,2.65.46.16,2.34,3.47.44.77,1.19,1.69,1.33,2.55.08.47,0,1.34.13,1.65l.86,1.95c.17.38,1.03,1.44,1.41.86.27-.41.3-1.16.28-1.58l-.16-4.01-.07-1.74c-.1-2.3.55.06.23-2.56-.48-3.93.51-2.07.01-7.11l-.19-1.96-.27-2.29-.3-2.57-.26-1.99c-.13-.94-.28-1.9-.33-2.76l-.11-1.83-.27-3.72-.22-3.9c-.03-.56-.45-1.5-.37-1.96.55-3.4-.42-1.01.02-5.21.08-.73.11-1.38.11-2.05v-2.31c0-3.14-.57-.82-.36-2.6l.07-.59c.08-.7.41-1.78.4-2.39l-.03-3.16c-.01-1.49.4,1.04.36-1.34l-.09-4.77c-.02-.83-.13-1.68-.24-2.54l-.08-.61c0-.08,0-.5.04-.57l.3-.55c.03-.05.11-.34.1-.4l-.19-1.58c-.33-2.72-.32-3.06.02-5.77.37-2.96-.36-1.76-.13-5.4l.06-1.01.1-1.55.26-3.12.3-2.86c0-.08.09-.46.13-.51l.63-.92c.11-.17-.01-.53-.18-.88-.43-.91-.05-2.12-.1-3.1l-.13-2.59-.13-2.92c-.03-.74-.04-1.9-.2-2.56-.05-.22.02-.77.03-.98,0-.27-.39-.57-.72-.8l-.98-.69c-.33-.23-.15-.9-.98-.74l-3.33.63c-.77.15-1.74.2-2.28.58-2.28,1.61-3.92-.08-3.94-.46-.08-1.76-.12-3.29.05-4.89.15-1.51.22-2.79-.08-4.31l.53-2.04c.09-.35.23-1.21.17-1.55l-.29-1.71-.14-.82c-.03-.16.35-.28.64-.36,1.8-.5-.09-.87,1.37-1.95l1.25-.92,3.83-.1c.38-.04,1.15-.62,1.51-.64,2.51-.17,1.38.24,2.81-.13.51-.13,1.07-.24,1.42-.18l3.52.61c2.79.49,2.67.6,5.46-.71.31-.15.98-.19,1.36-.17,1.08.05.16-.52,2.51-.6,2.03-.08,2.49,0,4.73.87.98.38,1.65.3,2.75.24l1.45-.08c1.23-.07,2.99-.26,4.02.09l1.3.45,1.37.27c.05.01.17.53.22.55l.99.3,1.6.46c.66.19,1.87.16,2.55-.01l1.91-.49c1.57-.41.9-.94,2.23-.66l2.79.59c.35.07.91-.12,1.29-.42.45-.36,1.81-.5,2.09-.03l.8,1.36c.12.2.15.84.1,1.1l-.71,3.65c-.12.6-.7,5.73-.77,5.85-.38.63-1.67,1.48-2.43,1.69-2.05.58-1.07,1.03-1.77.95l-1.81-.19c-1.78-.19-.06.65-2.62-.21-.19-.06-.6-.18-.76-.23s-.28.51-.33.69l-.95,3.35c-.02.09-.19.41-.19.47l.08,1c.11,1.36.11,2.81-.03,4.16-.39,3.94.4.45-.09,4.37-.1.78-.22,1.46-.48,2.23-.46,1.38.55-.37.3,3.22-.02.29.14.97.21,1.29.03.16-.25.58-.3.78-.27,1.1.13,2.42.05,3.55l-.18,2.62c-.04.56.13,1.17.22,1.78.32,2.25-.18.84,0,3.33l.04.59.04.56c0,.09.1.34.12.46l.1.43c.1.41-.82.57-.75.69l.34.62c.59,1.06.74,2.28.79,3.51l.07,1.72c.07,1.83-.6,1.31-.18,3.53.08.45-.48,1.47-.4,1.92l.39,2.28c.15.89.12,2,.42,2.76l.76,1.92.95,2.1c.07.16-.01.77-.02.98-.06,2.42.11,3.72.06,5.16l-.11,3.13c-.01.35-.26,1.11-.43,1.42l-.34.63c-.06.12.43.44.43.57.01.44-.03,1.25-.02,1.78l.02,1.06.05,5.24c0,.34-.56,1.13-.71,1.44-.39.81.41.6.42,2.03l.06,9.7c0,.48.12,1.09.05,1.58-.5,3.49.78,1.04-.22,4.47-.15.52.03,1.17.22,1.76,1.28,4.05,1.03.8,1,5.04v.96s.1,10.47.1,10.47l.06,1.55c.1,2.4.68,2,.29,4.04-.44,2.36.73.77.28,3.14-.21,1.1-.01,2.21.06,3.32l.21,3.15c.21,3.15-.24.28-.17,2.88l.16,5.62c.02.61.09,1.4.15,1.96l.26,2.42c.12,1.13-.02,2.5.19,3.6.16.79.39,1.55.45,2.3l.18,2.38.13,1.31c0,.06-.21.33-.26.41l-.29.42c-.24.33,1.04.63.84,3.49l-.17,2.43c-.09,1.23.51,2.83.68,4.16l.26,2.04.14,2.22.29,2.58.29,2.59c.48,4.23-1.85,3.32-1.25,4.32l1.35,2.25,1.11,1.82.7.98.89,1.46c.17.28.42.76.59,1.13l.92,1.98c.64,1.38,1.45,2.34,1.15,3.24.64,1.47,1.65,3.21,2.62,4.59l1.67,2.36c2.32,3.29.71.42,2.61,4.01.25.47,1.09,1.23,1.44,1.6.11.12.33.69.43.83l1.33,1.75c1.43,1.88,1.64,2.57,2.56,4.63l1.4,3.19c1.51,3.43,1.42,3.59,3.61,5.98l1.95,2.12c1.52,1.65.15,1.52,2.27,4.25.26.33.49.7.72,1.05l1.33,2.11c2.6,4.12.34,1.93,2.34,5.01l1.7,2.62c.55.85,1.18,1.63,2,2.28,1.02.81,2.48,2.27,3.06,3.21l1.76,2.82,1.12,1.76,1.13,1.75c.23.36.62,1.29.93,1.61l3.21,3.37c1.13,1.19.55,1.45,1.6,2.05l1.35.77c.42.24.37,1.56.05,1.95l-1.57,1.9c-.73.89-1.93.81-3.06.97l-2.22.32c-3.73.54-1.68-.32-4.67.7l-2.97,1.02c-3.39,1.16-4.36.57-7.21.82l-.46.04c-.43.04-.9.09-1.3.17l-3.59.76-4.03.86c-.56.12-1.42.06-2.04-.01-1.48-.18-2.82-.1-4.32.04l-2.89.28c-1.87.18-3.77.12-5.7.03-2.9-.13-2.96-1.1-6.67-.13l-.53.14c-.91.24-1.12,1.36-1.09,2.35l.08,2.86c.03,1.1.33,2.23.12,3.28-.09.44-.14,1.03.16,1.15,1.06.42.58,1.49.68,2.21l.62,4.24.33,2.22c.17,1.17-1.01.16-.25,2.33.22.62.48,1.59.51,2.24l.17,3.96.13,2.09.47,2.65.22,12.41.19,1.64c.02.17-1.04.75-.81,1.06l.57.78c.14.19.26.83.27,1.1l.11,2.49c.02.4-.4,1.36-.41,1.78-.01,1.35.09,2.78-.11,4.02-.59,3.53.36,3.24.11,3.96l-.16.45-.15.42-.15.42-.15.42-.16.44s-.05.35-.03.41l.11.43c.12.47.15.39.14,1.02v.61s-.04,1.45-.04,1.45c0,.12-.1.43-.13.54-.38,1.58.42.71.04,2.4-.66,3.01.97,1.25.27,3.93-.04.16-.15.52-.15.63l-.02,9.03c0,.1-.21.57-.24.61l-.26.29-.27.3c-.28.31-.41.21,0,1.02l.19.38c.06.12.17.32.19.38l.35,1.12c.02.06.07.47.06.52l-.13.5c-.03.1-.14.45-.14.59v6.83c-.01.16.02.46.05.58.81,3.99-.42,3.97-.23,6.9l-.57.39-.43.3c-.42.29,1.58.88,1.04,3.09l-.35,1.45c-.01.05-.11.32-.15.41l-.19.5s1.42,1.78.91,2.86l-.38.8c-.23.47,1.3.2.25,2.64-.71,1.63-.55,3.24-.23,4.93l.38,2.01c.66,3.52-.32,3.07.01,4.73.07.35.21.98.21,1.3l-.06,3.12c-.02,1.13-.49.76-.34,3.18l.21,3.32.22,2.42c.06.7-.47,1.82-.51,2.51l-.2,3.14c-.05.7-.08,1.39-.04,2.02.16,2.69-.65.42.21,3.25.2.65.44,1.76.44,2.41v6.06c.02,1-.36,1.4-.07,2.99l.54,2.93c.18,1-.64,1.27-.43,1.72.09.19.57.78.57.99l-.03,3.82-.48,1.58c-.2.65-.11,1.9-.17,2.71-.06.75-.22,1.55.3,2.15,1.63,1.87-.43.41.86,4.71.16.53-.47.17.06,1.46l.18.43.47,1.55c.03.11.12.38.13.45l.4,2.72c.22,1.5-.83,1.09-.46,1.43,1.89,1.75.5-.47,1.26,3.99l.26,1.55c.12.73,0,1.97.2,2.58l.53,1.58c.18.52.64,1.37.95,1.76l1.03,1.26,1.61.27c2.6.44.63-.53,3.12-.45l3.22.1,2.02.29c.06,0,4.33.19,5,.15l1.38-.09,2.01-.2c1.2-1.29,2.32.31,2.79.25,1.2-.14.78-.14,1.32.09l1.02.43c1.98.83,1.53,1.23,2.86,3.46.54.9,1.04,1.8,1.15,2.85l.23,2.15.89,4.31c.02.08.28.49.29.54l.59,2.4c.68,2.77,1.21,1.47,1.59,2.96.02.08-.05.64-.03.71l.83,2.2c.03.07.16.62.14.69l-.56,2.88c-.42,2.18.34.7-.07,2.23-.57,2.15-.38,2.22-.91,4.19l-.27,1.02c-.01.05.39.37.41.42l.68,2.32c.07.25.4.78.27.93l-.69.82.05.33.07.48.08.54.07.48c.07.47.58.57.35,1.18l-.77,2.06c-.27.72-.33,1.67-.07,2.38l.82,2.25c.02.05.31.38.31.43l.15,1.25c0,.07,0,.38,0,.57v.57s-.02.57-.02.57v.61c-.01.24.25.84.48.81l1.27-.18,2.59-.36c.72-.1,1.74.07,2.52.17l2.33.32c.92.13,2.1-.07,3.07-.19l2.1-.25c.12-.01.32-.05.51-.08l.6-.1c.59-.1,1.51-.03,1.95.25l.41.26c.16.1.67.39.7.76.04.07.34.08.47-.03l.84-.76c.22-.2.76-.49,1.04-.61l1.63-.68.41-.15,2.08-.77c1.55-.57,4.15-.93,5.86-1.01l.57-.03.58-.02c.08,0,.36.05.52.08l.45.07c.09.02.49.04.56.06l3.71,1.09c.11.03.33.08.49.11l.51.1c.12.02.38.06.43.09l.39.21.36.2c1.56.84,2.02.41,2.09,1.61l.05.9c0,.15-.24.59-.31.71l-.66-.12-.49-.09-2.14-.41c-.79-.15-1.15-.12-2.32-.78l-.39-.22-.41-.22c-.95-.51-1.1-.07-1.75-.03-1.02.06-.03-.32-1.79-.11l-1.64.2c-.58.07-1.33.25-1.88.64l-1.03.73c-.35.25-1.22.66-1.68.76l-2.09.47c-.74.17-1.98,1.61-3.11.94l-.43-.25c-.45-.27-1.05-.33-1.44-.06l-.5.34c-.55.38-1.21.37-1.81,0l-.35.04-3.9.47c-.85.1-2.38-.79-3.3-.79-.38,0-.33.16-.79-.06l-.4-.19c-.1-.04-.29-.13-.29-.14,0,0-.2.21-.28.3l-.27.29s-.4.21-.45.21h-2.41c-.06.02-.46.14-.5.17l-.35.23-.44.29.38.18c.2.14.66.49.58.71l-.33.95s-.29.25-.33.28c-1.93,1.32-5.05.55-5.31.17l-.99-1.44-.24-.35c-.55-.8-1.27-.77-3.09-.57l-2.03.22c-1.81.2-1.61.29-3.98.65l-3.44.53c-.48.07-1.53-.15-2.03-.15-.35,0-1.14.25-1.49.23l-2.09-.11-.58.29-2.88-.08-.39.11c-2.75.76-2.88-1.25-5.05.06-1.64.99-2.15-1.02-3.73.55-.59.58-1.32.35-2.1.36-2.76.05-4.11,1.08-4.77,1.04l-2.2-.15c-2.35-.16-.02.05-2.98.07-1.46.01-2.6.55-4.03.81l-1.75.31c-.75.13-1.43.37-2.2.37h-3.09c-.47,1.03-1.65.88-2.35.63-1.13-.41-.53.32-2.54-.03l-1.47-.26-2.11-.31c-2.09-.31-3.17.9-5.25.83l-.62-.02-.57-.02c-.15,0-.54-.04-.63-.03l-1.74.25c-.53.08-.26.22-1.08-.21l-.37-.19c-.42-.22-1.04.76-3.99-.21-.04-.01-.31-.05-.36-.06l-1.54-.12c-.15-.01-.52-.04-.6-.03l-1.79.18c-.13.01-.66.22-.77.18l-1.08-.41c-.28-.1-.91.16-1.28.23l-3.13.62c-4.7.93-4.83-.19-6.88-.04-.82.06-1.47.08-2.05-.16-1.55-.63.16.08-2.68-.23-.79-.09-1.92-.65-2.54-.49l-1.98.52c-.38.1-.5-1.28-1.14-.88-3.94,2.39-1.77,1.29-6.35,1.87l-1.84.23c-3.19.41-1.12-.35-4.01.55-.81.25-1.89.16-2.86-.05-1.69-.36-.21.65-4.72.8-.51.02-1,.08-1.59.13-1.55.14-3.64,0-4.18.33-.04.03-.29.33-.34.32l-1.08-.16c-.81.24-1.56.43-2.42.58l-.48.08-.46.13-.51.14c-.89.24-1.08-.52-1.5-.4l-1.31.37c-1.09.31-1.67-.36-2.22-.29l-2.11.24c-2.95.34-.48-.22-2.82,0l-2.69.26c-.14.01-.44.04-.5.03l-1.01-.06c-1.88-.12,0,1.81-5.94.93l-2.03-.3c-3.66-.54-.72-.73-3.91-.47l-2.51.21-2.58.21c-.12.01-.5-.04-.64-.04l-2.4.05-.87.48-2.75.05c-.29,0-.94.24-1.28.35l-1.16.37c-.88.28-2.03-.01-2.99-.05l-4.21-.16c-.94-.03-1.83-.52-3.39-.53h-2.34s-.85,0-.85,0h-.58c-1.46,0-.27.52-2.2.58-1.16.04-1.97.08-3,.19-2.6.26-2.08-.21-3.1.09-.83.25-1.82.35-2.71.19-2.99-.56-1.4.16-3.86-.06l-2.25-.21c-.98-.09-2.01-.31-2.97-.28l-5.17.13c-.27,0-.76.24-1.01.24h-.61s-3.54,0-3.54,0c-.46,0-.75.82-1.82.57l-.48-.11c-2.44-.57-1.5.28-2.92-.04-3.42-.79-2.8-.09-4.58-.67-.41-.13-.85-.28-1.12-.31l-1.79-.23c-.29-.04-.85-.06-1.08-.1l-5.74-1.1-1.97-.05c-.27,0-.9-.39-1.26-.54l-1.17.51c-1.14.11-2.68.23-3.72-.09-3.41-1.07-1.12.37-3.85-.02l-2.1-.3c-4.46-.64-.56,1.44-6.55-.83-1.92-.73-1.57.09-3.18-1.12-2.21-1.65-2.65-.85-5.23-1.96l-2.01.49c-.07.02-.63-.06-.7-.05l-1.39.21-1.83.28c-.77.12-2.42.09-3.21.05-.22-.01-.84-.37-1.04-.46l-1.05-.45c-.1-.04-.52.25-.59.33l-.28.31s-.31.2-.35.2l-.51.07-1.22.16s-.29.18-.37.23l-.36.22c-.1.06-.51.22-.61.23l-.54.05c-.16.01-.54.05-.62.05l-2.68.92c-1.19.41.14.82-2.08.78h-.62s-2.06-.03-2.06-.03c-1.77-.02-.59-.39-2.05-.18-.52.07-1.14.18-1.45.11l-1.51-.37c-1.05-.26-1.78.37-2.03.37l-2.94.07c-1.94.05-1.67.7-2.53.44l-3.77-1.18-.48-.15-.43-.14s-.32-.21-.36-.25c-2.03-1.95-.38-.21-1.58-.67l-1.28-.49c-1-.38-2.85-.21-3.99-.05l-2.23.33-1.82.26-1.51.21-1.42.22c-.23.04-.81-.28-1.06-.33l-1.5-.32c-.39-.08-1.04-.38-1.58-.57-4.76-1.65-2.95-2.51-4.15-2.73l-.61-.11c-2.07-.37-1.91.73-3.8,1.04l-.53.09-.48.08-.51.08c-.72.12-1.33,1.15-4.04.1-.31-.04-.49.04-.85.13l-.45.12c-.47.12-.48.12-.86.31l-.46.22c-.3.15-.99.12-1.39.05l-.57-.1-.55-.09-.49-.1c-.22-.04-.5-.61-.43-.82.08-.27.45-.74.7-.86l.81-.37.77-.93c.27-.33,2.12-1.21,3.73-.86l.58.13c.53.11,1.36.17,1.81.03l3.84-1.23ZM326.24,14.25c.79-.36,1.77-.61,2.64-.77s1.35-.82,3.97-.37c3.34.58,2.04-1,4.18-.58,3.68-1.38,1.27-.08,4.85-.51.27-.03,1.01-.49,1.05-.76l.17-1.35.22-2.04c.05-.43.31-1.05.51-1.74l-1.46-.31c-.85-.18-2.26-.42-2.96-.12l-1.68.71c-1.33.55-2.56.7-4.01.6-.52-.12-1.08-.31-1.55-.56l-1.71-.91c-.57-.3-1.04-.59-1.64-.98l-1.57-.22c-2.03-.29-3.66.89-7.82-.57-3.26-1.15-2.97-1.86-4.61-.87-.73.44-1.72.57-2.59.88l-1.38.49-2.93.89c-.32-.12-1.12-.42-1.47-.42l-3.76-.03c-.98-.3-2.01.08-2.89.49-.98.14-1.82.37-2.72.7l-2.08.75c-.25,2.58.56,2.18.17,4.2.51,2.7-.56,4.32.24,5.12.61.62,1.2.48,1.81.18l1.6-.78c1.28-.63,2.95-.76,4.42-.59l2.57.3c.89.63,1.78.59,2.83.17,3.72-1.52,2.95-.13,5.49-.67.3.05.96.49,1.27.52l1.61.17c.44.05,1.27.28,1.67.28l4.09.06c.53,0,1.51-.46,2.04-.7l1.46-.66ZM334.03,179.41c1.81.67,1.63,1.86,1.64,3.19,0,.71.97,1.82,1.38,2.42l.33.5c.07.1.43-.18.43-.3v-1.49c.01-2.65-1.41-1.51-.77-6.72.49-3.97.09-.88-.47-4.36-.11-.69-.36-1.88-.09-2.39l.69-1.29c-.24-.69-.45-1.31-.58-2.01l-.44-2.5c-.04-.24.24-1,.24-1.24l-.07-4.29c0-.51-.26-1.35-.34-1.97-.27-2.08.58-.3-.41-3.18,1.37-3.2.11-1.55,0-5.41l-.16-5.41-.26-2.89c-.17-1.85.29-2.55,0-4.81l-.33-2.6c-.15-1.18-.06-2.25,0-3.44l.22-5.08c.04-1.05-.09-4.33-.22-5.11-.37-2.11-.69-3.99-.2-6.09l.43-1.87c.24-1.04.15-2.32.28-3.53.22-2.11-1.03-.21-.08-3.78l-1.1-1.21.16-1.26c-.28-1.93-.32-5.08.09-6.91.49-2.18-.93-1.09-.18-5.02.48-2.52-1.27-.42,0-4.12-.71-2.99-.21-3.6-.32-6.76-.07-2.08.58-1.8-.61-3.01-.17-.17-.42-.84-.36-1.09l.82-3.39c.02-.07-.46-1.93-.47-3.81v-2.02c-.02-3.6.45-1.68.03-4.26-.11-.65-.24-1.36-.27-1.93l-.08-1.7-.25-2.87-.25-2.89-.16-4.84c-.1-2.89.89-.89-.02-3.37-.36-.97-.17-2.38.02-3.45-.71-1.51-.71-2.91-.15-4.58s-.09-.03-.44-3.44c-.25-2.37.33-.78.18-3.7l-.17-3.44c-.05-.96-.3-2.12-.09-3.01l.36-1.5.65-2.56c-.3-.31-1.01-.83-1.37-.8l-2.02.14c-3.87.26-1.41.56-5.02,1.61-4.12,1.2-1.14.19-4.52.59-1.11.13-2.19.04-3.32-.08l-1.69-.17c-1.13-.12-.64-1.22-5.17-.7-.78.09-2.23,1.22-2.46,1.87.03.73.05,1.45.02,2.08l-.2,3.68c-.08,1.55-1.14,3.76-.02,4.99l-.42,2.73c-.12.79-.3,1.57-.5,2.3.35,1.77-.06,4.02-.48,5.93-.33,1.49.37,5.58.07,7.15l-.23,1.19-.14,4.19c-.11,3.35.34,1.62-.13,5.77l-.19,1.64c.56.68.39,3.9-.03,4.65.33.67.38,1.5.35,2.33l-.11,2.51-.15,3.47c-.03.64-.54,1.88-.47,2.48.14,1.33.32,2.4.12,3.6-.07.41-.41,1.29-.35,1.66l.41,2.53c.71,4.37-.54,2.95.37,6.54.19.76.1,1.54.13,2.28l.09,2.05c.14,3.28,1.47,1.32.8,6.47-.09.67-.03,1,.3,1.56l.21,1.91c.06.53.04,1.17.02,1.79l.7,2.19c-.76,3.55.2,1.54.33,4.58l.1,2.34c.02.46-.35,1.48-.36,1.95l-.13,5.12c-.01.5-.05,1.04-.01,1.49l.16,1.99c.15,1.78-.01,4.58.11,5l.52,1.84c.15.51.72,1.41,1.05,1.98,2.06,3.55-.09,2.18,1.43,3.92l1.37,1.57.99.68,1.63,1.79c.15.3.51,1.09.64,1.42,3.32,3.54,3.02,2.34,4.94,6.99l.58,1.41c.13.31.1,1.24.16,1.57,2.41,2.28,1.75,2.53,3.47,5.37l1.21,2,1.01,1.6c.29.45.87,1.06,1.29,1.5l-.1.82,1.31,1.42c.34.37,1.15,1.06,1.3,1.52l.87,2.55.89,1.74c1.56,3.04,3.05,3.47,2.04,5.46ZM200.69,550.11l7.28-1.61c.79-.17,1.61-.28,2.45-.34l2.16-.14c.33-.02.76-.01,1.09.02l1.93.18,1.42.18,2.06.28c.72.1,2.26.07,2.97.05.49-.01,1.02-.7,1.46-.5.36.06,1.14.22,1.49.18l2.58-.29c2.43-.27,4.4-1.12,6.94-.89,3.94.35,2.16-.59,5.14-.06.18.03.66.15.78.13l1.92-.37c.86-.17,1.8-.5,2.54-.55l1.33-.09,1.62-.16,2.27-.3c.56-.07,1.15-.16,1.7-.2l1.97-.15,2.35-.17c2.94-.21,1.5-.3,4.54-.64l1.74-.2c2.4-.27,1.26-.28,4.28-.67,2.31-.3,6.3-.79,8.32-.61l2.76.24,1.47.16,1.8.2c1.14.13,2.44.3,3.64.05l2.25-.47,2.53-.17,1.78-.16,1.64-.15c.31-.03,4.33.18,4.55.22l3.7.64c.76.13,1.63.07,2.43-.04l1.37-.19,2.29-.31c1.27-.17,2.47-.09,3.75-.1h1.35c.94-.02,1.72.16,2.57.15l.98-.02c.5,0,1.2-.07,1.63-.04l2.54.13c1.09.06.64.5,2.11.12s.7,1.51,1.32.29l.25-.49s.34-.21.39-.22l.49-.1.46-.09c.12-.02.4-.09.47-.09l.56-.02.6-.02c.12,0,.39-.03.47-.04l.48-.09.48-.09c1.49-.29.93-.62,1.68-.62h.58s.6,0,.6,0c.44,0,.5-.03.95-.16l.44-.12.44-.12c.66-.19.34-.12.98-.15l.59-.02c.19,0,.45-.02.53-.03l.49-.08c.91-.14.12-.08.79,0l.42.05s.29-.06.42-.09l.48-.1c.08-.02.37,0,.56-.02l.58-.02.52-.02c.07,0,.32-.09.46-.13l.44-.12.45-.12.45-.12.53-.03.57-.03c.73-.04.06.08.98-.13l.47-.1.48-.11.46-.1.48-.1h.55s.59-.01.59-.01h.55c.08,0,.34-.07.48-.11l.45-.1.48-.11.47-.1.48-.1c.08-.02.38-.06.46-.06l.61-.02.51.08.45.11.48.12c.08.02.45.01.53,0l.56-.05.4-.04.32-.03c.11,0,.24,0,.36-.02l.43-.07.53-.08c.17-.02.34-.05.49-.08l.47-.09.48-.1h.52s.6-.01.6-.01h.58s.59,0,.59,0c.15,0,.45.02.54,0l.47-.12.47-.12c.06-.02.4-.06.46-.06h.59s.57.01.57.01h.58s.56-.08.56-.08l3.67-.39c1.76-.19,3.37-.65,5.16-.78l1.28-.09c.4-.03,1.18-.51,1.28-.88l.15-.56c.6-2.32-.25-1.34-1.18-5.14-.11-.46-.06-1.39.05-1.88l.89-3.96c.16-.7-.51-3.54-.69-5.06l-.2-1.62c-.05-.43-.09-1.05-.05-1.43l.27-2.37.24-2.3.16-1.56c.04-.42.07-1.07-.02-1.44-.83-3.68-.06-2.1-.79-4.62l-.29-1.01c-.08-.29.2-1.01.45-1.19l.48-.34-1.21-.28c-.41-.09-.53-2.23-1-3.62-.51-1.5-.82-2.64-1.08-4.23-.13-.76-.82-2.14-1.37-2.69-1.86-1.86-1.4-2.15-2.07-1.81l-.99.5c-.06.03-.4.03-.53.03l-2.62-.02c-1.64-.01-2.24.68-4.55.09l-2.16-.55c-.63-.16-1.55.04-2.38.25-.41.1-1.22.07-1.59.14l-2.44.45c-.7.13-1.84.28-2.42.09l-1.93-.66-1.52-.52c-2.25-.76-.98-.9-2.8-1.71-3.14-1.39.34-3.75-1.79-6.24-.92-1.07.57-1.26-.42-3.56-.34-.79-.19-1.82.02-2.62.1-.38-.29-1.21-.36-1.57l-.56-2.66c-.54-2.58.04-.68-.1-2.71-.04-.59,0-1.36-.11-1.92l-.93-5.12c-.19-1.08-.17-2.08-.01-3.15l.3-2.03c.11-.76.29-1.79.29-2.53l.04-7.7c0-.5-.28-1.44-.43-1.89-1.06-3.25.08-3.41-.27-5.66-.13-.83-.29-1.69-.34-2.46l-.21-3.38c-.05-.82-.03-1.57,0-2.39l.22-4.75c.03-.58.19-1.45.12-1.94l-.42-2.6c-.1-.62,0-1.45.09-2.13l.33-2.56c.11-.85.05-1.85.04-2.86,0-2.57.94-1.8.32-3.01-.52-1.01-.11-.42-.33-2.88l-.19-2.08c-.29-3.14.81-2.24.34-3.57-.2-.57-.28-2.74-.27-2.93l.08-1.99.02-.93.16-2.5c.04-.56.04-1.16-.03-1.75l-.32-2.83c-.21-1.86.53-.12.08-3.51l-.26-1.93c-.03-.24,0-.78-.01-1.04l-.03-1.1v-3.27c0-2.51-.78-3.59-.66-3.96l.51-1.52c.14-.43-.31-.44-.16-1.39l.31-1.96c.35-2.24-.16-1.1-.12-2.39l.08-2.51c.01-.44.04-.88.02-1.24-.2-4.11.54-1.57-.02-4.54l.15-1.37.19-3.38c.2-3.43-.38-1.1-.02-4.28.08-.75.03-1.36,0-2.11l-.13-4.49.58-.89.22-2.29.18-3.95.24-2.91c.23-2.8-.44-2.6-.22-4.76.09-.82.33-2.09.03-2.73-.79-1.67-1.16-1.97-.32-4.67.48-1.54-.18-.46-.41-3.48l-.18-2.42c-.08-1.13-.1-3.02-.11-4.1-.02-1.19-.42-.08-.6-2.04-.26-2.95.38-1.64-.13-4.96-.11-.71-.3-1.56-.33-2.21l-.18-4.88c-.04-1-.17-2.6-.1-3.43.1-1.13-.46.67-1.26-3.08l-.31-1.48c-.1-.48-.34-1.51-.26-1.97l.48-2.72c.2-1.15-.44-1.12-.51-1.66l-.36-2.69c-.2-1.53-.32-2.61.67-3.87.48-.61,1.39-1.31,2.15-.99,3.44,1.43.94-.09,3.28.75,1.48.53.01.28,2.57.02l1.64-.17c.41-.04,1.24.07,1.79.12l2.65.24c3,.27,3.1,2.55,3.3,1.34.15-.9.93-1.49,1.76-1.3l2.52.58c1.73.4.07-1.38,5.42-.72,4.21.52,8.38-3.24,10.99-1.37.08.05.16.08.18-.01l.11-.6s.35-.39.4-.39l3.79-.18.59-.05.57-.05.53-.04c.08,0,.35-.12.4-.15l.41-.22c.45-.24.41-.14.82-.06l.49.1,4.35-1.65c.06-.02.62.03.8.03.23,0,.75-.37.74-.59-.01-.18-.04-.66-.16-.79l-1.36-1.59-.85-1.27c-.23-.34-.49-.83-.71-1.29-.14-.28-.7-.78-.87-1.06-.53-.84-1.01-2.2-1.6-2.93l-1.17-1.45-1.12-1.5c-.55-.73-1.45-1.49-1.95-2.25-.31-.48-.61-1.29-.9-1.66l-1.15-1.49-1.36-1.82c-.5-.67-.91-1.63-1.23-2.45l-.9-2.3c-.37-.94-1.49-2.92-2.08-3.83l-1.15-1.78c-.28-.43-.87-1.06-1.25-1.51l-1.3-1.56-.65-1.09-.81-.68-1.9-2.8-.98-1.43c-.26-.38-.46-1.4-.67-1.83l-1.53-3.09c-.24-.49-.46-1.06-.67-1.6l-.71-1.85c-.85-2.19-1-.91-1.52-2.46l-.5-1.5c-.6-1.82-.71-.46-1.92-1.75l-.89-.94-1.23-2.1c-.41-.69-1.39-1.08-1.39-2.1,0-.31-.76-.77-.92-1.04-.67-1.12-1.43-2.54-1.94-3.77l-1.03-2.5c-.38-.92-.89-1.97-1.37-2.86l-1.3-2.41c-.28-.51-.61-1.14-.93-1.6l-1.5-2.19-.9-1.39c-.81-1.25-1.04-.44-1.79-1.91l-1.28-2.5-.75-1.49c-.47-.39-1.32-1.05-1.55-1.51l-1.25-2.54-.87-1.97-1.02-2.17c-.24-.5-.41-1.1-.58-1.75-.68-2.55-.89-1.45-2.28-4.26-.67-1.36-1.16-1.03-1.25-2.06-.1-1.17-.69-1.64-1.41-2.43-.81-.89-1.42-2.21-2.2-3.17-2.04-2.5-.46-2.75-1.3-3.08l-.84-.33c-.45-.18-.8-1.2-1.07-1.68-2.19-3.9-.9-2.01-2.51-5.16l-.88-1.71-.77-1.51c-1.47-2.86-1.11-1.26-2.35-3.63l-.98-1.86c-.11-.21-.62-.46-.93-.62-.35-.19-.77-.73-1.15-1.09l-1.01-.94c-1.36-1.27-2.15-3.7-2.91-5.36-1.33-2.9-.44-2.77-2.2-3.55-.24-.11-.7-.39-.65-.59l.16-.76c.01-.05,0-.38,0-.44-.4-.22-1.09-.62-1.29-.92l-.95-1.39-.94-1.33c-.5-.7-.99-1.3-1.53-1.94-1.06-1.26-.16-1.84-1.05-2.57-1.34-1.1-.52-1.06-1.25-2.54l-1.15-2.31c-1.58-3.18-3.26-3.26-5.86-6.1-.98-1.07-2.76-4.09-3.2-5.66l-.52-1.84c-.25-.9-.87-1.91-1.38-2.79-1.27-2.17-2.59-2.51-2.98-3.04l-1.33-1.79-1.12-1.52c-1.51-2.05.7-2.99-.74-3.72-1.66-.84-.34-1.25-1.2-2.76-1.32-2.34.16-.28-1.02-3.04-.77-1.8-1.16-3.6-1.31-3.83l-1.27-1.89c-.31-.46-.9-1.26-1.03-1.73l-.73-2.81c-.18-.7-.46-1.25-.61-1.94-.12-.52-.3-1.01-.56-1.37l-1.75-2.35c-2.6-3.49-1.19-3.05-1.56-5.73l-.22-1.64c-.04-.28-.26-.89-.37-1.25l-.59-1.92c-.05-.16-.51-.55-.67-.55l-.83-.03-2.2-.07-.6-.02c-1.79-.06-1.73-.63-3.87-1.18l-2.11-.54c-.53-.14-1.55-.42-2.04-.43l-3.78-.04c-.32,0-.96-.25-1.26-.38l-1.61-.68c-.33-.14-1.3.02-1.62-.14l-1.14-.56-.95.87-3.4.1c-.35.01-.91.08-1.28.12l-2.34.23c-1.93.19-7.48.2-9.8.12-.94-.03-2.2-.58-3.16-.74-3.54-.59-4.5-.08-7.56-1.59l-1.24-.61c-.26-.13-.83-.03-1.05.16l-1.86,1.66c-1.94,1.73-2.21,2.32-3.84,3.57-.51.39-.97.8-1.25,1.3l-1.78,3.13c-.23.4-.52.78-.84,1.15-1.89,2.14-1.75,1.87-3.4,4.29l-1.87,2.74c-.28.41-.64.91-.95,1.3l-1.28,1.59-1.49,1.94-1.35,1.79c-.33.43-.55.92-.95,1.4l-1.78,2.07c-.61.71-.96,1.55-1.49,2.27l-2.19,2.97-1.23,1.61-1.14,1.44-1.15,1.42c-1.65,2.03-.53,1.06-1.65,2.3l-1.37,1.5-1.21,1.39-1.55,1.88-2.07,2.53c-2.04,2.49-1.31.8-2.91,3.02l-1.23,1.7c-1.59,2.21-1.24.66-2.18,2.32-1.94,3.44-2.53,3.74-4.3,6.55-.42.68-.61,1.15-1.26,1.68-.52.43-.66,1.8-1.06,2.26l-2.14,2.49c-.38.44-.73,1.01-1.05,1.5l-1.92,2.97-2.48,3.49c-1.21,1.7-.96,2.12-2.9,3.23-.22.58-.45,1.06-.71,1.39l-1.52,1.93-1.9,2.47c-1.23,1.6-.77-.51-3.35,1.69-.28.24-.71.49-.65.71l.25.86c.05.16-.09.57-.21.69l-1.01,1.06c-1.75,1.85-2.3,1.78-3.8,3.89-.75,1.05-1.7,1.9-2.56,2.86-.56.63-1.14,1.36-1.67,2.02l-1.79,2.25-1.02,1.25-2.38,2.75-1.59,1.84-1.23,1.61-2.68,3.36-1.73,1.94-1.15,1.42-1.14,1.42c-.26.33-.68,1.05-.9,1.37-1.26.82-2.05,1.92-2.97,3.1-1.01,1.3-2.29,2.48-3.21,3.86l-1.04,1.54-1.71,2.29-2.07,2.85-.96,1.83-2.31,3.44-1.6,2.39-.9,1.39-.71,1.09c-.83,1.28-.67.09-2.34,1.67-1.06,1,.66,1.71-.51,2.69l-1.33,1.11c-1.67,1.39-1.36,2.79-2.6,3.87-.63.55-.9.97-1.27,1.7-1.7,1.93-.88,2.19-2.21,3.4-1.96,1.78.01,1.15-2.96,4.24-1.11,1.16-2.34,3.5-3.77,3.91-1.92.54-.38.85-1.78,2.15-.43.4-.76.69-1.06,1l-2.09,2.18c-.14.15-.67.37-.57.51l.46.68c.55.8-.5.91-1.05,1.94-.37.71-.83,1.58-1.27,2.16-1.53,2.02.3.59-1.65,3.23-.74,1-1.32,1.83-2.01,2.9-1.24,1.91-2.15,1.01-2.74,2.9-.38,1.2-1.05,2.13-2.17,2.73-1.33.71-.04,1.06-1.27,1.51-.82.3-.93.75-1.32,1.36l-1.54,2.45c-1.03,1.64-1.2,1.44-2.26,3.13-.8,1.27-.78,1.7-2.32,3.39l-1.49,1.64-1.53,1.62-1.5,1.66c-.94,1.04-1.4,2.05-1.91,2.62l-1.78,1.98c-.48.54-.86,1.21-1.28,1.84-.57.85-1.18,1.66-1.79,2.47l-1.39,1.83c-.42.55-1.93,2.68-.84,3.13,2.72,1.13,1.48.52,3.27,1.92l2.38,1.87c1.23.96.26.46,3.32.73.84.08,1.56.08,2.39.01l2.79-.23,2.89-.21,2.46.15,2.42-.14c.69-.04,1.86.15,2.52.21.38.04,1.35-.27,1.72-.16,3.17.97,3.83-.68,6.57-.84l2.81-.16c.53-.03,1.14-.09,1.62-.07,2.9.13.52-.35,3.03.04l.85-.35c.93-.16,2.06-.3,2.77-.67l1.39-.72c.94-.48,2-.58,3.05-.15.7.29,1.58,1.25,1.64,2.22-1.63,2.63-.49,3.81-.97,5.14l-.9,2.54c-.31.87-.64,2.1-.67,2.95l-.14,3.9c-.35.47-.77,1.14-.91,1.7-.29,1.17-1.09,2.43-1.13,3.46-.03.72.14,1.62.02,2.25-.52,2.82.56,2.01.02,4.59-.2.96-.67,2.08-.7,2.94l-.11,3.73c-.02.57-.45,1.71-.43,2.23l.52,2.63c.15.78.54,2.11.45,2.84l-.28,2.3c-.42,3.5.13,3.27-.64,5.94.13.32.6,1.16.64,1.55l.29,2.53c.12,1.08.07,2.3.01,3.39l-.1,1.91-.16,2.98-.11,1.46-.09,1.64-.15,3.72c-.09,2.14-.17,3.97-.02,6.13s-.6.62-.36,2.04l.26,1.53c.12.72.4,1.6.46,2.3.39,4.65-.73,4.72.17,7.43l-.03,1.97c-.02.94-.04,1.77.09,2.71.11.82-.02,1.66-.07,2.52-.16,2.9-.11,5.8,0,8.72l.07,2.14.09,3.87c.01.59-.04,1.25-.15,1.88-.44,2.48.48,4.01.71,7.28l.18,2.54.09,1.77.16,3.69.24,2.95c.05.59-.25,1.78-.48,2.29-.38.83.43.08.31,1.47l-.18,2.16-.2,2.33c-.22,2.58.27,2.25-.5,3.9-.57,1.24.58.5.36,2.22-.09.74-.13,1.23-.15,1.82-.11,3.54.24,1.07.04,3.85-.04.59-.02,1.27-.03,1.86l-.02,1.8c0,.64-.1,1.42-.18,2.16-.35,3.06.34-.15-.09,3.05-.09.69.07,1.7.05,2.43l-.1,3.77-.11,3.65c-.02.68-.24,1.56-.13,2.2.15.9,0,1.56,0,2.45l-.11,10.13-.23,1.24-.09,2.82c-.02.59,0,1.11,0,1.74l.02,5.64c0,.42-.57,1.35-.53,1.75l.13,1.32c-.28.73-.31,1.36-.35,2.1l-.13,2.3-.1,1.81c-.03.63-.31,1.74-.42,2.42.46,1.82.49,3.71-.5,5.32l-2.44.65c-.59.16-1.9-.59-2.52-.7-.29-.05-1.1.13-1.39.12l-1.66-.05-1.85-.02c-2.23-.03-1.52.88-2.97,1.13-1.07.18-1.76,1.01-1.88,2.15l-.28,2.62-.41,2.18c.81,3.23-.98,2.79-.3,7.76l.32,2.3c.09.64.35,1.87-.02,2.41-1.13,1.66-1.58,3.5-1.64,5.58l-.06,1.89c-.03.99-.32,2.53.02,3.49.46,1.31,1.18,2.67,1.24,4.05.02.52-.66,1.55-.72,2.03l-.28,2.29-.23,2.52c-.04.44-.07,1-.2,1.31l-.63,1.59c-.25.64-.09,1.92.01,2.6.07.46-.24,1.56-.6,1.82-.42.31-1.25.39-2,.43-.77,1.76-1.71,6.36-.45,7.99.28.36,1.01.88,1.43.88l4.79-.03,1.25-.25,3.94-.04c.17,0,.75-.17.91-.14l2.1.35c.72-.28,1.43-.6,2.1-.79l2.52-.71c2.39-.68,3.68-2.12,7.02-1.69l2.58.33c1.02.13,2.28.13,3.32.03l2.34-.22c3.81-.35,4.19-.9,8.46,1.2,1.32.65,4.46,2.09,5.74,2.21l2.36.24c1.05.1,2.28.09,3.32-.04,3.43-.42.65.41,4.33.16l2.64-.18c2.36-.16,3.24.4,4.62.84.85.27,2.32.08,3.29.19l2.07.23c.59.07,1.18.23,1.82.41,3.64,1,1.66-.17,4.17.38,1,.22,1.83.3,2.82.38l2.31.17c5.18.39,4.51-.27,6.53-.45l2.62-.24c1.82-.16,3.83-.17,5.65,0l2.87.27,2.3.2,2.6.23c.65.06,1.64.12,2.2.04l2.04-.32,2.04-.34c.34-.06.87.05,1.37.2,2.62.06,1.92-1.15,5.75-.71l2.32.27,3.66.16,2.31.21,2,.18c.33.03,3.45-.21,3.66-.26Z"/>
        <g>
          <path d="M204.66,529.5c-1.47-.41-.1.57-2.18-.2-3.34-1.25-1.49.44-4.55-1.89-1.31.24-4.29.38-5.12-.37-.33-.29-.7-.74-.68-1.02.01-.34.23-.99.42-1.42.32-.76.75-1.05,1.35-1.54,1.31-1.08,3.28-3.15,3.83-3.53l1.74-1.2c.67-.47,1.43-1.15,2.17-1.43s1.1-.51,1.56-1.14h.99s1.75-.07,1.75-.07c.8-.03,1.56-.49,1.89-1.23,1.79-4.06,1.59-3.07.75-6.08-.46-1.64.16-1.75-.04-3.92-.34-3.63.25-1.67.09-5.14l-.09-1.94-.17-3.68c-.02-.34-.17-1.08-.11-1.39.2-.98.2-2.03,0-3-.09-.41.12-1.26.13-1.67l.11-4.01-1.55.28c-.28.05-.86-.22-1.18-.35l-1.63-.64-2.37-.79c-3.15-1.06-3.42-.63-5.31-.55l-3.37.14c-.18,0-.63.17-.76.28s-.13.49-.19.98l2,.52c1.46,1.05,2.31,4.44,3.74,5.63.46.39,1.69.63,2.2.95l2.82,1.76c.51.32,1.47,1.15,1.63,1.68l.6,1.93.33,1c.14.4.15,1.35-.28,1.57-.99.52-1.95.85-2.89,1.01l-1.3-.5-2.19.4-2.93.49c-2.7.46-2.13.53-4.09.09-1.15-.26-2.23-.57-3.27-1.04-2.95-1.35-.95-.42-5.02-1.2-3.27-.62-3.19-.46-6.36-1.67l-1.88-.72c-2.03-.78-.42-.86-1.79-1.3-.4-.13-1.03.46-.96.84.51,2.98-.07,3.16.76,4.38,1.34,1.97,1.53,1.37,2.19,2.68l1.36,2.69c.45.88,1.2,1.76,1.95,2.29.25.18.62.73.82.94l2.8,2.92c2.07,2.15.69-.07,2.45,2.37l1.49,2.05c.32.44.33,1.08.18,1.75l.76,1.23-.85,1.43c-.35.58-1.56.98-2.23,1.34-1.83.97-1.08.43-4.47-.37l-4-.94c-2.14,1.12-.46-.32-3.86.36-.33.07-.97-.29-1.32-.55-1.54-1.12-.83-.01-3.23-.37l-1.83-.27c-.32-.05-1-.62-1.3-.62h-1.77c-1.53,0-.76-1.17-3.65-1.99-.67-.19-1.15-.38-1.66-.65l-2.64-1.4-1.97-.89c-.42-.19-.97-.55-1.31-.61l-2.28-.43-2.94-.48c-1.21-.2-2.44-.41-3.63-.68-3.62-.84-.48.49-3.62-.5l-1.85.81c-1.12.49-2.32,1.02-3.5,1.21-.95.16-1.66-1.34-1.3-2.01l1.01-1.89c-.97-3.57,1.03-2.18-.59-5.12-.48-.87-.45-2.11-.61-3.13l-.41-2.65c-.25-1.57.15-3.46-.24-4.94-.26-.96-.45-1.55-.19-2.49l.44-1.64c.14-.5,1.4-.53,1.08-.75-.11-.08-.47-.36-.6-.37l-1.57-.18c-.25-1.19-.53-2.42-.65-3.55l-.24-2.43c-.05-.46-.55-1.44-.54-1.9l.06-1.99c.08-2.61-1.04-1.3-.33-4.66.88-4.18.55-1.11.44-4.73l-.11-3.4c-.09-2.69.22-3.08.01-6.57-.04-.62,0-1.2,0-1.82l.07-9.11c0-1.03-.81-1.9-1.16-3.95l-.32-1.9-.1-1.87-.51-2.71-.92-3.91c-.39-1.69.09-5.22-.06-6.76l-.27-2.92-.17-3.62c-.02-.36-.56-1.17-.58-1.54l-.08-2.25-.12-2.34c-.09-1.79-1.22-1.16-.11-2.92.24-.38-.11-1.45-.05-1.9.13-1.02.64-2.29.65-3.26v-1.86s-.09-1.36-.09-1.36c.92-2.63-1.94-2.68-.68-6.14.15-.4-.2-1.36-.61-1.48l-1.89-.59c-.69-.21-1.67-1.02-2.33-1.51l-2.01-1.49c-1.55-1.15-2.57.5-3.9-1.81-1.42-2.46-.98-.64-2.3-3.95l-.71-1.77-.7-1.93c-1.13-3.11-1.17-1.39-1.17-3.23,0-.1-.03-.39-.05-.46l-.48-1.53c-.18-.57-.33-1.22-.38-1.79l-.22-2.64c-.25-3-1.02-1.99-.89-2.86l.3-1.95c.85-5.62,1-1.04,1.1-3.97.03-.92.21-1.6.4-2.37l.66-2.62c.06-.24.11-.51.16-.83.21-1.43.91-.5.8-2.17-.28-4.14,1.39-2.34,1.07-3.95-.11-.57-.23-1.31-.25-1.79l-.07-2.34-.71-2.31c-.19-.62.33-1.74.61-2.44.16-.38.9-.93,1.34-1.22,1.52-.97,0-.76,1.52-2.2,1.04-.99.19-1.38,1.71-2.19,1.95-1.04,1.33-1.93,3.18-2.79l2.23-1.03c1.36-.63,2.59-1.22,4-1.71.37-.13,1.14-.37,1.43-.55l1.59-.99c1.58-.99,2-.11,2.39-2.73l.19-1.28c.21-1.37-3.37.96-7.25-2.4l-2.62-2.27-1.08-.94-2.52-2.22c-.14-.12-.46-.63-.48-.77l-.29-1.91c-.06-.37.63-1.07.91-1.4l.37-1.86c.06-.29.64-.89.88-1.11l1.64-1.56,1.86-1.77c.6-.57.75-.9.8-.93l.58-.35c.1-.06,0-.4-.11-.43l-.59-.15-.56-1.69-1.65.28-.59.1c-.12.02-.12-.48-.18-.61-.42-.91-1.24-.3-1.55-.76l-1.33-1.93c.74-1.83,1.75-3.59,3.12-5.01l.29-.31.28-.3c.05-.05.23-.16.35-.24l.33-.23c.37-.26.36-.24.81-.32l1.23-.21.51-.09.63-.11.08-.5c-2.58-1.89-2.52-1.95-3.52-4.72l.74-1.23c-.15-1.28.85-4.79,1.49-5.38,3.81-3.51,4.8-1.86,6.33-2.52.73-.32,1.57-.77,2.24-.87l2.58-.39c.32-.05.84-.74.76-1.06-.41-1.58.02-.84.57-3.37.15-.71.26-1.37.39-2.13l.41-2.45c.18-1.1.38-2.13.5-3.24l.24-2.32c.04-.4.48-1.11.68-1.55l.27-1.77c.21-1.35.44-2.42.47-3.84.01-.57.51-1.55.55-2.05l.18-2.22.22-1.78c1.02-1.62.13-1.1.34-3.04l.21-1.92c.32-.9.59-1.68.86-2.57l.92-3c.19-.63.36-1.38.53-2.04l.8-3.24c.5-2.03.53-3.25,1.9-4.72,2.77-2.96,2.96-2.14,4.58-3.08.28-.16.81-.74,1.12-.87,1.56-.68.76-.8,3.72-2.57l2.34-1.4c.32-.19,1.24-.24,1.62-.36l6.82-2.12c.52-.16,1.39-.72,1.94-.83l2.7-.55c.53-.11,1.27-.06,1.71.11l2.51.98c.59.23,1.3.44,1.8.73l1.29.77s3.45.6,4.03.59l1.64-.03s.98.65,1.27-.98l.47-2.64c.16-.9.35-1.87.38-2.82l.13-3.38.35-2.87c.08-.69.6-1.77.59-2.43s0-1.01.06-1.7c.19-2.41-.71-.04.16-2.67.23-.69.59-2.64-.48-2.55-4.25.35-1.02.87-5.32.6-3.6-.23-5.32-1.29-6.55-1.17l-2.29.23-1.6.13c-.7.06-1.24.88-3.17-.57l-1.82-1.37c-.34-.26-.65-.8-.63-1.41.05-1.62,1.19-.7,2.42-3.93.32-.85,1.67-3.6,2.33-4.15,2.59-2.17.36-.86,2.7-4.78,1.08-1.81,1.68-.85,1.74-1.91l.09-1.71c.01-.24.81-.31,1.13-.35.74-.11-.55-.86,1.08-2.79l1.21-1.43c.49-.58.97-1.33,1.45-1.99l1.08-1.5c2.95-4.11,1.03.15,3.36-4.79l.5-1.05c.94-1.99,1.44-1.32,2.61-3.7.72-1.47,1.49-.22,1.51-1.82.01-.93.82-1.27,1.29-1.87.82-1.05,1.49-2.31,2.47-3.26,2.02-1.97,2.31-4.27,4.69-6.39l1.12-1c1.25-1.11.09-.76,1.3-2.87.39-.68.74-1.47,1.12-2.05l1.03-1.59.78-1.13c.82-1.18,1.48-2.23,2.55-3.24.45-.43.69-.99.93-1.67l1.13-1.39c1.43-1.76,1.85-.75,2.1-1.82.11-.49.22-1.34.45-1.62l1-1.29,1.9-2.46,1.12-.77v-.5c0-.15.14-.57.22-.71l.72-1.28c.58-.58,1.04-1.09,1.47-1.69l1.21-1.72c.39-.55.91-1.12,1.45-1.67,1.43-1.47.9-.39,3.29-2.38l2.65-2.2.56-.05c.39-.03.67.08.83-.58l.17-.67.54.09,1.94-.15,2.75-.21c.46-.04,1.13-.15,1.5-.12l1.71.14c1.73.14,4.32.13,5.14,1.88.43.41,1.85.07,2.48.16l3.72.54c1.03.15,2,.36,3.06.3l2.27-.11c.74-.04,3.13-.1,3.5.2,1.51,1.24,1.45,1.31,3.49.96.21-.04.45.3.74.58l.88.87.86.92c.42.44.67,1.37.74,2.05.14,1.38.04-.31.87,1.97l.32.88c.11.31.23,1.02.22,1.41l-.06,3.12-.09,2.75c-.02.49-.02.92-.02,1.43v.87s.01,1.34.01,1.34c.03,1.59-.13,2.96.05,4.55.37,3.34-.21,3.94-.01,6l.19,2c2.17-.08.58-.62,3.85-1.3,2.43-.5,4.98.26,6.51,2.27.75.98,1.77,2.12,2.01,3.27l.52,2.47c.36,1.72.35.83.92,3.46.41,1.9-.62,1.54.05,2.4.26.33.75,1.01.9,1.35l1.22,2.76c.08.19.15.72.2,1.06.06.38.5,1.09.64,1.48l1.13,3.28c.62,1.8-.31,1.21.16,2.14.27.52.89,1.68,1.08,2.27l.79,2.46c.21.64.76,1.76.58,2.33l-.39,1.24c-.24.75,1.86,1.19,3.05,3.39l1.31,2.42c.34.64.66,1.53,1.07,2.01,1.43,1.66.34,1.33,1.28,2.75,1.91,2.9.2.83,1.64,2.73.26.34.57,1.08.69,1.56l.48,1.9c.35,1.37,1.84.97,1.47,2.68-.06.29.13.83.29,1.1l.68,1.11c.15.24.39.92.5,1.2.06.13.58.41.6.56l.15,1.27c2.24,2.87,1.16,2.65,4.11,5.66.97.99-.43.61.54,2.27,1.16,1.99-.28.15.82,2.6,1.4,3.13-.11,1.1.72,3.46.74,2.09-.19.86.22,2.12l.43,1.32.41,1.28c.85,2.63.62.43,1.18,2.21.27.86.66,1.59,1.08,2.39l2.17,4.21c.24.47.78,1.19,1.11,1.65l1.21,1.67.73,1c.53.72-.05.41.37,1.08l1.08,1.72c1.06,1.68,1.36,1.09,1.13,4.17l-1.31,1.34c-.74.76-1.88,1.41-2.78,1.98l-.92,1.2c-.33.43-.85.64-1.45.83-1.21.38-2.46,1.01-3.73,1.01l-3.99.02c-.26,0-.97.17-1.14.19.14-.35-4.54-.89-4.3-.89h-1.93c-.51-.02-1.6.5-2.08.64-.36.11-1.37-.69-1.7.16-1.4,3.57.31,4.58-1.43,7.11-.59.86-.13-.17.12,2.13l.11,1c.02.21-.4.47-.73.76l.19,1.75c.25,2.33.68,1.68.61,3.37l-.09,2.11c0,.05-.28.28-.46.43l-.07.48c.75.75-.27.65-.28,1.61l-.03,2.44v2.75c-.02,3.27-1.05,3.74-.6,4.33.52.67.41,2.38-.09,3.08-.13.19.1.85.16,1.06.38,1.34.31,2.16.53,2.16l.86.02c.82.02.59,1.06,2.84,1.19,2.91-.87,4.79-1.17,7.61-.12l1.64.61,1.75.6,2.03.78,1.72.65c.49.18,1.02.46,1.54.73,1.88.95,1.3.2,2.91,1.62.58.51,1.13,1.04,1.65,1.46,2.57,2.04.76,3.08,2.44,7.38.42,1.08-.19.38,0,1.72.27,2.08-.62,5-1.49,6.97-.57,1.29-1.52,2.84-1,4.52-.06.3-.38,1.11-.39,1.46l-.17,3.87c-.13,2.95.22.94-.01,2.77l-.28,2.14c-.17,1.36-.1,2.62-.1,4.03,0,.72-.38,1.96-.44,2.79l-.1,1.37c-.06.73-.06,1.47,0,2.22.31,3.65-.5,1.6.04,5.66l.37,2.79c.08.59.15,1.44.4,1.87,1.68,2.86.18,2.48.79,3.38,1.12,1.64,1.46,4.66.83,6.69-.24.78-.59,1.48-.93,2.21-1.41,3.1-.62,2.77-2,5.44-.24.46-.4.96-.55,1.56l-.9,1.27-.61,1.43c-.3.72-.97,1.46-1.13,2.23-.93,4.52-2.44,1.74-1.12,6.18l-.23,1.71-.07,1.41c-.29.8-.64,1.9-.85,2.82-.86,3.86-.09,2.23-.62,4.98l-.56,2.88c-.25,1.29-.09,2.83-.12,4.17l-.54.93-.14,1.97-.09,1.19-.06,1.39c-.17,4.06-.74,1.77-.53,5.63l.08,1.47c-.65.89-.94,1.85-.54,3.01l-.09,1.06c-.08.95-.33,1.83-.82,2.68l.06,1.18c.02.48.08,1.21-.07,1.61-.93,2.44,0,1.8-.22,3.29-.13.88-.13,1.8-.02,2.63-.14,1.43-.14-.58-.25.97l-.11,1.55c.13.99.23,1.91.16,2.83l-.12,1.61-.18,2.15-.19,2.3c-.09,1.12-.19,2.18-.43,3.25l-.59,2.61c-.12.52-.49,1.33-.74,1.85-.16.34-.09,1.17-.15,1.54l-1.16,6.84-.58,3.13c-.11.62-.05,1.83-.19,2.39-1.18,3.21-.52,1.83-.96,5.28l-.32,2.49-.25,2.62c-.12,1.3-.26,2.54-.5,3.8l.04.82c0,.12-.02.51-.03.64l-.25,1.85-.28,1.71c-.36,2.23-.29,4.13.38,6.26l.7,2.21c.02.05.11.26.18.42,1.05,2.51.11,1.65,1.05,3.71,1.26,1.13-.55.81,1.09,3.44l1.14,1.82c.92,1.48.95-.1,3.28,3.25l1.65,2.38c.72,1.04,2.63,2.1,3.7,2.5l2.57.96,1.2,1.6c.34.45.91,1.24,1.3,1.48l1.58.98c.05.03.4.07.53.09l1.63.26s.24.43.28.46l.31.23.34.25.74.56c.21.16-.08.85-.28,1.02l-.51.43c-.59.5.2,1.38-.94,1.85-.75.3-1.72.53-2.41.42l-2.79-.43c-3.04-.47-2.36.32-5.34-.56l-.48-.14-.45-.14-.43-.13-.43-.14-.43-.14-.62-.21c-.05-.02-.14-.31-.17-.42l-.14-.44c-.04-.14-.09-.39-.13-.43l-.33-.26c-.1-.08-.37-.3-.43-.24l-.49.45-.29.26-2.5-.2-.6-.04c-2.38-.17.02-.35-2.59-.05-1.37.16-.43-.33-1.82-.08l-3.1.57c-.14.03-.64-.03-.77-.03l-4.54-.14c-1.15-.04-2.56-.48-3.68-.8l-1.31-.37c-1.11-.31-2.08-.87-2.8-1.8l-1-1.29c-.13-.17-.84-.41-1.04-.37-1.32,1.14-3.75,1.85-5.66,1.51-.24-.12-.04-.88.13-1.26l.2-.45c.14-.32-.13-.79.38-1.31l.3-.3.3-.31c.41-.42,1.01-.91,1.43-.83.32.06.78.12.87,0,1.12-1.41,2.91-1.53,3.67-.97l1.64,1.21,2.92,2.27c.76.59,2.15,1.35,2.8,1.49l3,.63c.61.13.33.26.85.25l3.63-.1c1.6-.05.67-.6,2.52-.56h.59s.58.02.58.02c.09,0,.42-.05.49-.07l.46-.1c.51-.12,1.01-.2,1.66-.12l5.85.7.45.08.47.07.68.09c.09.01.26-.64.15-.69-1.06-.45-3.12-1.07-3.3-1.23l-3.09-2.83-.99-1.86c-.09-.18-.59-.54-.74-.69l-3.04-2.92c-.44-.43-.94.09-2.12-2.48l-.74-1.61c-.4-.86-.67-1.88-.81-2.87l-.44-3.21-.32-2.33c-.11-.77.13-1.91.85-2.56l-.66-1.67c-.17-.43-.34-1.39-.21-1.83l1.15-3.79c.84-2.76.38-1.83.42-3.19l.04-1.61c0-.22,0-.7-.03-.89l-.28-2.13c-.12-.9.23-1.99.74-2.7-.25-2.48.86-1.92.81-2.93l-.09-1.99c-.01-.27.03-.62.07-.85l.33-1.74c.13-.71.3-1.44.46-2.1l1.11-4.42c.2-.81.78-2.28,1.04-3.02.32-.93-.49-.17.19-2.2.86-2.56-.44-.74.83-3.75.85-2.03-.31-.35.21-4.26.55-4.13.75-.68.43-3.7-.02-.24.17-.94.18-1.19l.1-3.84.51-1.61-.02-4.14c0-.24-.18-.91-.15-1.15.34-2.91-.38-.73,0-2.8l.32-1.78c.25-1.36.87-2.87.85-4.19-.02-.86-.2-1.69.16-2.4.99-1.94-.57-1.53.03-3.46.23-.74.23-1.67.33-2.57l.27-2.5c0-.08.35-1.26.48-.88l-.36-1c-.26-.74-.15.22-.18-1.02v-.58c-.02-.13-.05-.58-.04-.66l.48-2.28c.01-.06.03-.34.02-.39l-.08-.43-.1-.55s-.13-.2-.35-.48l-.56.63-.6,1.72c-.42,1.21-.86,2.29-1.44,3.44-1.2,2.4-.69,2.33-2.11,4.74-.11.18-.71.51-.64.7.13.39.31,1.12.14,1.36l-1.09,1.53c-.21.29-.43.78-.57,1.13l-.39,1.03c-.23.6-.49,1.2-.78,1.77l-2.2,4.42-.89,1.68-1.21,2.27c-.21.39-.38,1.17-.54,1.75-.72,2.63-1.28,1.01-1.72,3.06-.04.17-.18.59-.27.65-.55.4-1.57,1.75-.89,2.49.38.42,1.29.98,1.59,1.39l1.13,1.54c.29.39.7.88,1.05,1.22l1.15,1.11c.54.51,1.5.03,1.73,1.15l.26,1.26c.05.23,0,.88-.11,1.09l-1.51,3.09-.74,1.54c-.05.1.13.81.04.94l-1.18,1.89c-.32.51-.61.96-.86,1.43l-.82,1.54c-.17.32-.6.79-.88.97l-1.3.83c-.4.25-.9.83-1.25,1.26-2.77,3.39.6.63-3.17,3.14-.92.61-1.82,1.42-2.62,2.18l-1.36,1.3-1.49,1.59c-.51.54-.97,1.12-1.42,1.73l-1.11,1.51c-.71.97-2.06,1.63-3.2,2.1l-.46.19c-.76.31-.83,2.47-.77,3.19l.2,2.6.23,3.66c.06.87.03,1.43-.18,2.22l-.63,2.29c-.22.8.07.44-.08,2.74-.13,1.96-.13,3.94-.02,5.93.04.72.2,1.56.15,2.21-.17,2.38.51,1.14.13,2.35-.54,1.72-.41,4.42-.26,6.26l.21,2.66c.02.27.15.78.26,1.14.74,2.39-.47,1.45.13,3.52.38,1.32.69,2.44.87,3.73l.22,1.54.35,2.56c.12.88.56,1.95.4,2.78-.59,3.07.35,1.55-.09,3.27-.35,1.35-1.16,3.91-2.32,4.34l-1.72.64-1.21.45c-.07.03-.5-.04-.63-.04l-3.16.08c-.05,0-.4.29-.44.33l-.28.26c-.06.06-.32.31-.37.33l-3.02,1.08h-.66s-1.78.7-1.78.7c-.1.04-.22.55-.23.66l-.27,2.62c-.03.32-.6.86-.9,1.09-1.41,1.07-2.05,1.34-3.97,1.44l-2.24.11c-1.9.09-.1-1.02-4.81.48l-1.19.38c-.39.12-.83.28-1.19.37l-1.44.38-.89.23c-.44.11-1.26.29-1.68.3l-3.95.05c-.3,0-1.03-.4-1.3-.51-.22-.09-.95.14-1.19.11l-3.25-.43c-.58-.08-1.15-.1-1.69-.13-2.29-.13-.84-.7-2.39-.36l-1.64.36c-.88-.23-1.68-.43-2.56-.5l-2.03-.17-1.35.08-2.1-.15c-.79-.06-1.92-.25-2.61-.44ZM192.75,368.26c-.85,3.18.8,1.61.23,3.62-.26.93-.39,1.99.04,2.52l1.04,1.28c-.08.75-.07.66,0,.1l.37-.48c.3-.39.64-1.07.63-1.5l-.03-1.81.4-1.42c.11-.38.06-1.01.2-1.3l1.05-2.29c.28-.6.32-1.67.36-2.46.01-.3.29-.95.37-1.24l.63-2.21c1.03-3.62.5-.3,1.32-4.83.15-.8.68-1.69,1.15-2.5.89-1.53,0-1.27,1.25-4.67l.62-1.69c.11-.31.11-1.19.16-1.57.92-.83.85-2.15,1.22-3.18l1.87-5.2c1.19-1.54.96-2.09,2.01-4.48l1.23-2.8.91-1.97c.23-.49.54-.87.95-1.31l1.13-1.71c1.7-1.76,1.01-1.36,2.89-3.67.21-.26.43-1.15.69-1.42l2.16-2.28c.2-.21.55-.85.68-1.04l1.56-1.01,1.59-1.01c.46-.29,1.59-.62,2.1-.66l2.94-.25c.59-.05,2.19-.28,2.15-.86l-.23-2.37c-.04-.41-.18-1.07-.19-1.39l-.13-3.76c-.03-.8-.43-1.98-.41-2.72.02-.62.03-1.07,0-1.58l-.17-3.13c-.12-2.12-1.5-3.74-.68-4.94l.37-2.03c.68-1.05-.21-2.08.2-5.5.1-.82.12-1.21-.24-1.96l-.26-2.26c-.18-1.57.1-2.32.49-3.72.45-1.62.1-3.73.17-5.55.08-2.02.78-2.26.83-3.96l.12-4.02c.03-.97,1.4-2.76.93-3.75l.08-1.38-.05-1.65c-1.25-2.25.27-.6-.03-4.42l-.22-2.77-.26-2.61c-.03-.33-.17-1.15-.06-1.49l.89-2.82c-.41-2.62-.07-1.24.11-4.23l.12-2.07.1-1.67.16-2.76c.35-.93.54-1.54.4-2.57-.11-.85.45-2.1.45-2.89v-2.06c.02-3.41,1.16-1.28.01-3.83.06-.65.39-1.95.35-2.59-.12-1.1-.17-2.02,0-3.03l.22-1.37c.08-.5.04-1.2.08-1.71l.18-2.29.21-2.34c.06-.7.35-1.61.37-2.23l.05-1.6c.02-.49.06-.91-.02-1.39-.36-2.12.81-.3.56-2.5-.11-.97-.16-2.12-.04-3.05l.3-2.31.51-1.15c-.29-1.1.34-2.26.37-3.24l.07-2.32.83-3.73-.1-1.35.67-3.53c.72-3.79,1.25-2.54.93-5.1-.09-.71.52-1.78.78-2.56,1.09-3.28.53-2.03,1.29-4.71l1.03-3.64c.88-3.11-.06-2.2,1.14-6.73.23-.87.49-1.82.93-2.5l1.04-1.61c.73-1.13,1.41-2.29,2.96-2.28.31,0,.52-.96.8-1.12.86-.49,5.63-1.09,6.89-1.42l2.06-.54c.45-.12,1.33-.46,1.82-.69.35-.16.13-1.28.05-1.69-.28-1.4.74-.86.26-2.97l-.59-2.63c-.4-1.8.17-3.76.01-5.66l-.21-2.51c-.05-.62-.49-1.62-.48-2.3.02-1.82.63-1.62.49-4-1.5-2.12-1.01-3.38-2.21-3.98-2.93-1.46-.44-2-4.03-2-.64,0-1.41-.29-2.03-.44-1.1-.27-.05.65-4.34-.24l-1.94-.4-2.59-.54-2.06-.22c-1.41-.68-2.85-1.22-4.41-1.06l-2.32.24c-1.04.11-2.38-.02-3.33.21l-1.82.45c-.48.12-1.05.43-1.47.73l-1.52,1.08c-.4.29-.78.56-1.07.9l-3.49,4.01-1.4,2.22-1.39,1.54-1.09,1.95-1.42,1.51-1.72,1.7-1.25,1.35c-.28.31-.66.75-.86,1.1l-1.65,2.9c-.16.28-.75.84-.94,1.12l-1.66,2.58c-.75,1.17-1.53,2.29-2.35,3.36-1.39,1.81-.51.81-1.98,3.16l-1.21,1.92c-.56.89-1.13,1.7-1.78,2.52l-1.16,1.47-1.96,1.95c-.68.68-1.63,3.11-1.89,3.29l-2.04,1.46c-.48.34-.46,1.84-.79,2.33l-1.46,2.21-1.03,1.55c-1.27,1.91-.46,1.25-2.26,3.42l-1.18,1.42c-1.01,1.22.27,1.34-2.58,2.84-.24.81-.51,2-1.01,2.6l-1.11,1.33c-.31.37-.56.94-.75,1.52-.31.94-1.61,1.69-1.88,2.61l-.78,2.59c-.65,2.17-2.07,1.97-1.85,4.3l-1.01,1.72-.67,2.03c-.46,1.4,2.83.94,3.31,1.13l1.68.64c.2.08.83.36,1.06.43l6.19-.04c.57,0,1.74-.7,2.3-.76l2.12-.23c.88-.09,2.38.67,3.27,1.01l-.33,2.25-1.01.66-.17,1.98c-.22,2.46-.27.5-.32,2.53,0,.4.09,1.08.05,1.44l-.2,2.2,2.25.21c4.27.4,1.43-.45,5.16-.02l1.35-.58c1.36-.59,2.53.49,4.66-.06.16-.04.5.58.35.66l-.65.35-2.41,1.31-1.37.62-1.45.85-1.6.07c-4.09.18-.95,1.97-5.92.92-.13-.03-.59.18-.6.3-.04.4-.24,1.39-.24,1.83l-.04,6.78c-.01,1.93-1.65,3.18-.48,3.38l4.05.71c.95.17,1.8.42,2.66.75l1.93.73c2.45.92,3.94.16,4.84,1.29l1.22,1.51c.03,1.95.22,4.11-.16,6.02-.02.09-1.17,1.81-.76,4.17l.35,2.03c.58,3.3-.86,2.42-.19,4.14.42,1.08.16,2.33-.26,3.22-.05,3.01.73,1.5.29,4.59l.32,1.67c.21,1.08.11,2.55-.01,3.56.12.29.64.92.5,1.16l-.51.92c-.18.33.24,1.08.45,1.44l-.9.62.51,1.08c.24.52.57,1.52.72,2.07-.89,2.57.64,2.36.36,4.58l-.24,1.88c1.01,2.11.26,3.5.04,4.45-.14.63.71,1.97.61,2.67l-.72,4.91.77,1.54c-.12.69-.26,1.53-.15,2.09l.74,3.93c.09.47.11,1.32.26,1.71l1.13,2.99c-.16.95-.02,1.43.14,2.27l.46,2.4-.53,1.67c1.15,1.94.6,1.82,1.89,4.56.26.56,2.5,2.67,2.52,4.3-.61,1.93-.31,1.97-1.86,2.59l-2.08.84c-.59.24-1.16.67-1.8,1.1-.55.36-2.02-.15-2.67-.01l-3.2.66c-.81.17-1.96-.07-2.8-.17l-1.67-.19-1.78-.2.24,2.06c.04.37-.14,1.22-.18,1.64l-.24,2.91c-.26,3.15.34,3.82-.77,6.66l.47,2.9c1.1-.16,1.61,2.32,1.61,2.22v6.98c.01.34-.4,1.19-.43,1.47.55,1.97-.35,1.95-.37,3.2-.04,1.82.12,4-.12,5.88l-.36,2.79-.36,2.44-.36,2.05c-.05.29-.07,1.02-.02,1.3.15.59.43,1.66.39,2.28l-.18,2.6c-.17,2.42.42,1.67-.13,3.75ZM192.32,445.3c-.14-.22-.48-.74-.66-.85-1.09-.68-2.19-1.65-3.21-2.5-.36-.3-1.14-.69-1.55-.97l-1.56-1.04-1.44-.91c-.78-.49-1.91-1.06-2.73-1.02l-1.52.07c-1.49.07-2.67.09-3.45-.98-1.55-.53-1.71-2.03-4.54-2.35l-1.26-.14c-.75-.08-1.35-1-2.2-.4-.35.25-.88.63-1.17.79l-1.35.76c-.29.17-.87.99-.67,1.25l.81,1.03c2,2.56.5,4.51,5.37,5.75.73.19,1.65.08,2.36.03l1.48.4c.16.04.51.4.58.55.02.05-.12.43-.12.48l.12,1.08c-2.07,2.38-2.41,1.37-3.64,1.57-.67.1-1.37.18-2.05.23l-2.06.14c-.9.06-3.29.62-3.85,1.56,0,.21-.02.39-.01.34l.55.26,1.35.62c.07.03.35.12.42.14l.48.11.48.11c.05.01.35.14.39.18l.3.27.3.26s.3.21.37.23l.44.1.46.11.46.11.46.11.46.11c.08.02.29.13.39.18l.39.19.38.19.38.2c.08.04.26.11.39.16l.43.17c.12.05.34.14.4.17l2.53,1.39c.09.05.39.16.49.2.33.93,1.11,1.12,2.05,1.06.44-.03,1.32.4,1.71.46l2.05.3,1.97.29c2.63.38,2.55.3,4.98,1.97,1.38.95,3.61,1.35,5.19,1.25,2.43,2.31-.21.08,3.6,1.91,2.76,1.32,1.54.38,3.57,1.55l2.23,1.28c.36.21.85.63,1.32.96,1.2.86,4.49,1.02,5.91.65.73,0,1.81.48,2.1,1.29.37,1.05.17,1.99-.4,2.9-.7,1.14-.45,2.69-.6,4.02l-.32,2.84c-.11.96-.17,1.86-.2,2.88-.08,3.28-.74,1.8-.44,3.48.04.25.13.64.13.79l.08,3.66c0,.24.11.85.02,1.06-1.15,2.69,1.66,5.9,1.46,7.52l-.33,2.65c-.05.4-.13.85-.22,1.31-.49,2.4,1.1.62.56,2.97-.31,1.34.24-.48-.02,2.32-.1,1.07-.12,2.25,0,3.29l.16,1.53c.08.79.19,1.31.54,2.23.05-.07-.21.29-.31.43l-.38.26s-.18.31-.19.36l-.09.55c-.11.63-1.49,1.86-1.22,1.66-1.58,1.19.15-.39-1.82,1.03-.68.49-1.52.55-2.46.68l-2.19.31c-1.82.26.11-.68-2.84.85-2.22,1.15-.24.68-2.54,2.2,0,0-.03.51-.04.58l1.64.96.34.34.36.21c.07.04.29.09.43.14l.43.14.43.15.43.14c.09.03.37.12.43.13l.54.03.59.03c.55.03.41.05.83.26,1.2.61,4.43.08,6,.51,3.66,1,3.96.01,8.14.38,1.2,1.27,3.93,1.21,5.31,1.03l1.19-.15c2.66-.34,3.95,1.08,8.73-.65,2.16-.78.33.34,3.62-.74,1.84-.6,3.03-.25,3.16-.9l.46-2.32c.52-2.64,1.44-1.01.9-5.77l-.19-1.65c-.14-1.28.11-.36.33-2.03l.24-1.86c.3-2.3-.88-1.09-.41-3.83.27-1.53-.24.73-.24-2.38,0-.05-.16-.33-.19-.38l-.26-.34c-.05-.07-.27-.37-.28-.37s.28-.31.32-.33l.97-.57c.21-.13.01-.76-.13-.98l-.89-1.32c-.9-1.33.89-2.05.34-3.23l-.23-.49c-1.15-2.48.08-1.71-.31-3.05l-.46-1.56c-.02-.06-.07-.39-.08-.46l-.13-3.09c-.12-2.74.32-1.57-.32-2.74.06-1.72.79-1.2.57-2.27l-.36-1.77c-.07-.37.08-1.13.11-1.64l.14-2.73c.02-.31.62-1.06.69-1.36.29-2.66-1.43-3.34-.47-4.63.24-.32.62-.77.85-.91l1.38-.78c.53-.3,1.73.62,1.84,1.26.2,1.12.25,2.02.06,2.99l-.58,2.92c-.23,1.15.14-.04-.05,2.47-.09,1.15,0,2.52-.23,3.54l-.43,1.86-.24,1.24c-.22,1.17.44.24.34,2.03-.06,1.06.06,2.14.14,3.27l.16,2.31c.06.85.15,1.7.16,2.57.06,4.53,1.12,2.6.81,5.92-.03.28,0,.62,0,1.06l.14,5.64.51,1.15.02,2.82c0,.23.12.81.16,1.18.09.93.36,3.72,1.48,4.01l.44.11,1.89.48,3.67-1.88c.67-.35,1.78-.62,2.55-.53l1.6.19,1.33.16c.21.03.58-.65.57-.86l-.03-1.45v-.62c-.01-.1-.01-.44,0-.52l.12-.48c.02-.08.14-.44.13-.5l-.52-2.27c-.12-.53.13-1.22.5-1.66.36-.53-.81-.62-.77-1.4.02-.34.21-1.01.1-1.26-.13-.32-.41-.97-.43-1.26l-.13-2.2-.08-1.64c-.77-2.53.15-2.07-.27-2.78l-.27-.46-.6-3.68c0-.05.08-.47.07-.52l-.05-.38c-.5-4.01.71-1.11.38-4.29-.02-.24.02-.67.02-.98l.06-4.51c0-.73-1.29-2.87-1.07-3.9l.46-2.1.46-2.08c.22-1.02.27-2.52.09-3.6l-.33-1.98c-.81-4.9,1.46-5.71-.09-7.92-.67-.96-.46-2.45.27-3.5,1.03-1.5-.15-2.75,1.9-3.55.65-.25,1.59-.65,2.16-.41,3.02,1.3,1.97-.33,5.14-2.48.98-.66,1.84-1.17,2.71-1.9,2.22-1.87.41-1.16,3.03-2.43.63-.31,1.15-.76,1.47-1.39.73-1.43.77-.11,1.48-1.34,1.96-3.36,1.62-.86,3.73-5.14l.86-1.75c.44-.89.81-1.84,1.12-2.91.26-.9-.88-1.92-1.57-2.23l-.92-.42.2-.38c.18-.19.26-.27.25-.26l-.48-.32-.34-.23-.4-.29-.97,1.85s-.43.18-.48.21l-.38.18c-.3.14-.42.27-.66.51l-.27.27-.27.28s-.22.49-.26.52l-2.87,2.34c-1.01.83-2.04,1.48-3.15,2.05l-.41.21c-3.18,1.61-2.28.39-5.64,2.08-1.96.98-1.56-.36-4.11-.33l-.31-.88c1.37-1.58-.67-.73.39-3.42l.17-.44c.4-1.02.25-1.63.13-1.46l-.24.34c-.06.08-.3.21-.4.25l-.68.24s-.26.17-.31.22l-.31.27c-.1.09-.25.23-.31.26l-.37.22c-1.48.88-1.01-.25-2.3,1.68-2.9.5-1.58.93-3.15,1.08-.59.05-1.34.22-1.67.13l-2.04-.59c-1.78-.52,2.01-4.85,3.34-3.94.27.18.84.41,1.04.31.55-.25,1.74-.66,2.23-.93l2.75-1.53,1.13-.6c.4-.21.83-.49,1.23-.73l2.48-1.52c.87-.53,1.84-.86,2.64-1.67,1.17-1.18-.07.06,2.2-1.2l.69-.38c.15-.08.5.36.55.54l.43,1.43c.09.31-.29.95-.56,1.15l-1.88,1.39c-.47.34-1.12,1.16-1.61,1.42-1.45.77-2.79.99-2.78,2.08l.02,2.65v.7c0,.13.41.16.54.13l.71-.18,2.63-.62c.75-.18,1.52-.42,2.4-.68,1.12-.33,2.88-1.74,2.85-1.84l-.25-.83c.78-2.41.92-1.77,1.84-4.29.19-.52.46-1.4.72-1.79l1.14-1.74.77-1.19c2.01-3.09,1.33-1.42,3.05-4.7,1.19-2.28-.32-.6,2.18-3.84,1.31-1.69-.32-1.76,1.55-3.32l.68-1.81c.73-1.17,1.14-2.09,1.62-3.41.33-.9,1.35-1.87,1.89-2.81,1.51-2.6.08-2.02,1.48-3.93,1.62-2.2-.08-2.46,1.96-3.27l1.23-3.87.67-1.95c.48-1.4,1.97-2.14,1.61-4.17l-.07-.42c-.04-.25.5-.27.87-1.22l1.45-3.75,1.36-2.2c.56-.91.65-2.42.65-3.38v-1.53s-.02-1.03-.02-1.03c0-.37,0-.81.15-.99l.93-1.13c.24-.29,1.14-.6,1.55-.79,1.11-.5-.43-.51,1.11-3.41.56-1.05,1.01-2.22,1.68-3.17.41-.58.68-1.04.94-1.67l1.52-3.64,1.16-2.84c.97-2.37-.91-1.88-.74-4.04.06-.76.07-1.25.09-1.91.01-.57.17-1.59-.12-1.99-1.68-2.29.36-.78-1.29-4.21-.49-1.01-.22-4.46.27-5.83l-.18-1.35.38-2.27c.46-2.72-.2-.43,0-3.04l.1-1.25c.02-.27.02-.68.15-.8,1.64-1.54-1.03-1.59.32-4.02.23-.41.02-1.3-.01-1.83l-.16-2.34c-.03-.46.38-1.44.65-1.92.63-1.12-.91-.38-.11-3.75.05-.21.15-.85-.03-.82-.12.02-.51.1-.63.13l-1.73.53c-.38.11-1.25-.04-1.82-.13-.8-.14-2.1-1.49-1.99-1.8.06-.15.21-.44.34-.66l.27-.49c.06-.11-.42-.12-.54-.07-.05.02-.23.25-.25.3-.93,2.83.11.49-1.44,3.09s-.13.22-1.66,2.44c-.61.88-1.76,1.85-2.8,1.7-.74-.11-1.29-.1-1.98.05-.99.21-1.32-.51-1.23-1.36.08-.73.04-1.93,0-2.87l-.07-1.97-.11-3.64c-.12-.09-.44-.36-.35-.29-1.34,1.59-4.22,1.67-6.24,1.69-.57,0-1.22-.47-1.65-.91-1.26-1.29-1.35-.23-1.83-3.95-.23-1.76.75,0,.05-2.58-.43-1.59,1.54-2.59,1.38-3.16-.02-.09-.39-.37-.38-.45l.4-2.2c.09-.52.17-1.33.29-1.71.3-.88.86-1.59-.39-2.3-.03.05.1-.19.25-.45.94-1.06.82-2.68.12-3.93l-.33-1.17-.97-1.33c-.44-.6.75-.39,1.14-1.53l.33-.98c.78-2.34-.61-1.57.18-3.72.21-.56.38-1.38.23-1.81l-.73-2.1c.4-1.14.58-2.28.64-3.48.16-2.94-.4-.41-.2-2.33l.23-2.21c.29-2.79-.16-.58-.32-3.04-.01-.2-.03-.63-.09-.74l-.99-1.7c-.31-.54-1.86-.2-2.48-.12l-2.33.32c-4.58.63-1.49-.29-4.53.22l-3.8.64c-.85.14-4.72-1.48-4.49-2.93.04-.28.28-.79.48-1.14,1.15-2.08.99-.29,2.4-2.46l.65-.38.46,1.03,1.31,1.07h4.42s2.36-.78,2.36-.78l4.26-.07c.35,0,1.22-.24,1.47-.49s.53-1.13.52-1.5l-.09-6.2c-.01-.75-.14-1.36.1-2.04.16-.43.2-.86.03-1.04-.29-.3-.55-.56-.57-.7l-.14-1.15c-.01-.12-.03-.56.07-.62l1.73-1.07,1.79-1.1c1.96-1.21,1.22.75,3.63.64l2.59-.12c3.74-.17.81-.68,3.22-.42,2.7.29,2.45-.2,3.32.11,3.21,1.12,1.1.06,3.9-.08l1.64-.08c1.08-.06,2.06-1.56,2.51-2.65l.51-1.24-1.2-1.53c-.25-.31-.52-1.16-.77-1.53-.6-.89-.97-1.74-1.29-2.76l-.87-2.77c-.12-.37-.83-.99-1.01-1.3-1.79-3.06-.86-2.09-2.59-4.88-.55-.89-.56-2-.51-3.21.08-1.86-.65-.61-.97-4.46-.03-.38-.08-.88-.2-1.15l-.87-2.05c-.17-.4-.35-1.33-.56-1.69l-.96-1.66c-3.05-5.26-.62-3.6-3.67-6.69-.51-2.83-.49-.38-1.51-3.28l-.84-2.37-1.51-2.91c-.2-.39-.04-1.44-.3-1.74-2.83-3.23-1.73-3.7-3.11-4.84-1.76-1.45-.12-2.91-.47-3.12l-.62-.38c-.27-.17-.59-.57-.85-.87l-1.3-1.51c-.83-2.11-1.71-1.74-1.51-2.75.09-.42.17-1.33-.11-1.61-1.65-1.63.42-.65-1.72-2.98-.37-.4-.58-1.44-.77-2.08l-.6-2.02c-1.11-3.72.35-.93-.99-3.47-.32-.6-.72-1.46-1-2.13-.15-.37-.16-1.34-.28-1.73l-.32-1.05c-.03-.09-.09-.43-.13-.51-1.27-2.59.05-.59-.87-2.75l-.54-1.28c-.25-.59-.46-1.18-.67-1.77l-.47-1.33-.81-2.41-.78-2.73-2.53-1.64c-1.47-.95-1.19,1.15-5.51,1.41l-1.83.11c-.52.03-1.63-.29-2.15-.16-5.18,1.27-3.48,2.27-8.01,2.26l-.72,1.01c-1.45.53-2.43,2.08-2.86,3.47l-1.28,4.17-.34,1.92-.44,1.47-.57,2.07-.81,2.96-.95,3.08-.53,2.08c-.15.6-.38,1.28-.59,1.92-1.49,4.47.46,2.33-.82,4.22-1.4,2.06-.05,1.99-.34,3.27-.13.57-.75,1.37-1.08,1.98-.64,1.19.54,2.19-.86,3.6.74,2.19.32,1.15.05,4.19l-.3,3.44-.43,3.11-.27,3.17-.19,2.23c-.06.67-.06,1.47,0,2.09.03.33-.12,1.05-.12,1.38l-.08,3.98-.23,1.25-.04,4.74-.21,1.22-.13,2.8c-.04.79-.26,1.75-.12,2.49.56,2.98-.18,2.48-.3,4.62l-.18,3.12c-.04.69-.16,1.46-.1,2.1l.14,1.45c.39,3.99-.51,1.41-.03,5.15.36,2.81-.19,3.56-.04,4.38.57,3.04-.86,1.27-.27,3.97.06.25,0,.81-.05,1.09l-.46,2.45-.33,1.98c-.49,2.96.31,2.94-.76,4.55-.19.29-.22,1.93-.21,2.31l.05,1.44c.09,2.74-.53,4.18-.55,4.65l-.22,7.07c-.06,1.95-.51,2.36,0,5.47.43,2.62.97,2.21.57,5.02l-.46,3.22-.22,2.04c1.87,3.17.49,2.52,1.37,6.48.11.48.19.98.24,1.47l.23,2.05c.12,1.1-.07,2.57.16,3.59l.64,2.86c.45,1.98-.74.74-.35,2.54.19.88,1.27-.03,3.87.21l1.46.14,2.2.21c.4.04,1.31-.14,1.76-.2l3.74-.49,3.1-.42c.44-.06,1.61.02,2.01.21l2.68,1.26c.78.37,1.77,1.01,2.37,1.55l1.98,1.79c.27.24.71.79,1.02.93.7.32,2.97,1.4,3.12,2.09l.4,1.85c.28.17,1.02.57,1.19.84l1.32,2.07c.2.31.47,3.58.51,4.34l.13,2.55.03,1.55c.01.53-.15,1.54-.3,2.13-.93,3.71.05,2.4-.94,5.59-.41,1.31-.38,2.52-.18,3.86l-.14,1.54c-.05.59-.27,1.01-1.02,1.43,0-.04,0,.41.01.5.16.28.37.68.38.86l.24,2.88c.05.62-.62,1.89-.64,2.53l-.05,1.76c0,.23.2.62.36,1.01.29.71-.13,1.89-.27,2.75-.09.55.41,1.71.49,2.28l.24,1.73c.06.45-.51,1.33-.72,1.75-.01.92.15,2.44-.02,3.43-.66,3.82.85,2.57-.27,4.52l.43,2.79c.03.19-.07.7-.24.76l-.61.2c2.01,2.16.26,1.74.47,3.83l.27,2.64c.12,1.15.09,2.46-.02,3.6l-.2,2.15c-.04.38-.26,1.14-.39,1.5.3,3.32-.07,2.64-.57,6.13s.01.9-.03,3.82v.56c.34.38.45.49.33.24l1.02-.84c1.9-1.57.29-1.26,2.26-3.12.71-.67,1.1-1.38,1.54-2.21l.82-1.54c.18-.33.66-.82,1.04-1.19.28-.27.53-1.16.75-1.48.34-.49.73-1.07.96-1.59l1.25-2.77,1.12-2.29.26-1.27c.08-.36.81-.85,1.19-1.02.16-2.19.91-2.88,1.98-5.6.28-.72.48-1.16.89-1.78.3-.46.61-1.21.89-1.69.33-.57.63-1.05.86-1.65l1.01-2.67c.32-.84.49-1.98,1.35-2.37.5-.23.88-.58,1.02-.96l.8-2.18c.24-.66,1.39-2.32,2.32-2.78,1.44-.7,3.13,1.11,3.06,1.98-.09,1.11-1.36.53-1.75,1.9l-1.19,1.04-1.82,2.78c-.1.23-.31.85-.43,1.08l-1.7,3.38-1.81,3.89-.86,1.99-.76,1.81c-.48.67-.75,1.14-1.05,1.86-.52,1.25-1.15,2.43-1.79,3.61l-1.13,2.08-.89,1.67-1.42,2.76c-.13.25-.14,1.02-.3,1.21-.34.41-.93,1.16-1.19,1.59l-1.29,2.21-1.18,2.01-.92,1.23-1.02,1.6c-.68,1.07-2.09,2.78-2.3,3.36l-.93,2.53c-.03,1.55,1.43,2.51.62,3.36-.44.47-.69.81-.83,1.23l-.53,1.54c-.11.33-.86.9-1.17.76-1.73-.77-.42-.78-2.57-1.04l-1.77.55-1.2,1.02c-1.91,1.62-2.81,3.45-4.13,5.53-.15.24-.31.89-.43,1.29.58.35,1.58.88,2.16.81l2.71-.31c1.44-.16,4.35.71,5.9.03.7-.3,1.82-.36,2.21.43.32.66.44,1.73.41,2.34-2.16.2-4.98,3.5-6.45,5.09l-1.67,1.79c-.25.27-.53.62-.75.93l-.42.6c-.06.09-.41-.12-.52-.18l-1.29-.77c-.25-.15-.39-.92-.18-1.15l1.21-1.37,1.09-1.24c.71-.8,1.18-1.49,1.9-2.58l-.48-.44-2.12-.04c-3.35-.07-3.55.95-8.22-.68-.28-.86.16-1.73.55-2.54,1.44-3.03,2.8-5.45,4.98-7.94l1.43-1.64,1.21-1.14.85-.58c.25-.59,1.1-1.25,1.26-1.74l.75-2.21c.21-.61.02-1.96.1-2.68.18-1.67-1.62-1.03-.06-4.99l.73-1.84c.15-.37.33-1.29.35-1.68l.12-2.52c.02-.33.09-.84.19-1.16.58-1.95-.66-.91.44-2.7l.26-1.59c.06-.39,0-1.01-.02-1.48l-.21-4.19c-.13-2.68.13-.29.29-3.45l.15-2.95c.12-2.25-1.13-.39-.52-5.57.1-.86.05-1.57,0-2.42l-.24-5.58c-.05-1.12-.15-2.1.06-3.2l-.5-.9c.15-.79.56-2.05.5-2.76l-.26-2.96c-.05-.58.28-1.61.28-2.23l.07-6.18.24-1.32.03-6.75.46-1.13c-.52-2.52.39-.56.19-3.46l-.19-2.86-.18-2.34c-.12-1.53-.14-.18-1.42-2.52-2.04-3.72-1.38-1.41-4.49-4.69l-1.67-1.76c-.37-.39-1.33-.94-1.84-1.22l-1.92-1.07c-.68-.38-2.27,0-3.08-.02s-1.47,0-2.22.04l-1.93.12c-.53.03-1.28.13-1.68.11-3.56-.19-5.81.05-9.03,1.4l-3.08,1.29-1.88.14-2.3.29c-1.95,1.31-1.29,2-3.32,2.97l-.63,1.56c-.76.65-1.22,1.24-1.68,2.15s-.74.37-2.51,2.55c-.58.71-1.05,1.38-1.58,2.17l-.99.9-1.35,1.89c-.3.43-.48,1.59-.75,2.05l-.95,1.67c-.91,1.59-2.06,5.27-2.9,7.37-1.26,3.13-1.09,3.43-2.33,6.21-1.06,2.38.64.6-2.12,5.09-1.05,1.7.76-.14-.75,4.27l-.46,1.35c-.29.86-.54,2.13-.72,2.93-.07.3-.47,1.01-.49,1.34l-.22,2.97-1.63.84c-.12.17-.37.51-.25.35l1.05.25c.12.03-.02.61-.05.73l-1.02,3.85-.83,3.15-.43,1.51c-.37,1.31-.73,2.69-1.26,3.89l-.79,1.82c-.31.7-.76,1.63-1.01,2.32-.15.4.05,1.51-.12,1.89l-.68,1.53c.04.72.02,1.31-.12,1.99-.68,3.26.21,1.39-.3,5.71l-.16,1.31.55.43c.44-.36.83-.67,1-.91l.98-1.37c.22-.3,1.23-.28,1.62-.38l2.14-.53,1.57-.35c.8-.18,1.76-.15,2.64-.06l.86-.05,3.12-.17,2.59-.19,2.59-.21c1.76-.14,4.29-.13,5.89.32l2.21.62c.05.28.12.96.19,1.26l.82,3.51c.43,1.83-1.91,2.56-.39,4.79l2.39-1.27c.54-.29,1.48-1.14,1.94-1.6.86-.87,1.4-1.46,2.72-.94l1.93.76-.36,1.22-.42,1.43-2.68.78c-.65.19-1.48,1.03-2.1,1.42l-1.65,1.05c-.59.37-2.06.87-2.32,1.52l-.72,1.81.72,1.08c.16.24-.15,1.02-.16,1.33-.18,4.33.24,4.07.2,7.2,0,.51-.22,1.17-.34,1.72l-.46,2.09,1.08,1c1.08,2.37,1.96,1.45,4.77,2.63l2.02.85c.64.27,1.54.45,2.28.66,3.24.91,1.84-.15,3.97.82.6.27,1.28.96,1.57,1.53l.96,1.92c.82,1.65,1.13,2.71.2,3.81-.39.46-.97,1.24-1.39,1.44l-3.23,1.57c-1.39.68-3.61.35-4.79.22l-2.8-.3c0-.12.03.44.04.61l2.5,3.33c.64.84,1.64,2.44.6,3.17-2.11,1.5-1.97,2.11-5.47,2.06-.75,0-1.81-.43-2.52-.68l-.18-1.15-1.38.12,1.25,2.43c.19.5.3,1.67.28,2.23l-.05,1.88c-.01.57-.31,1.7-.79,1.96l-1.98,1.07c-1.65-.29-3.24-.3-4.42-1.64l-1.2-1.37c-.47-.53-.94-.95-1.49-1.39l-1.56-1.25c-.96-.56-1.63-1.1-2.3-2.09l-1.06-.92c-1.06-.91-2.44-1.49-3.82-1.44-1.71.05-1.94-1.32-2.41-1.28l-.76.07-1.8.04c-.57.01-1.55-.61-2.18-.85-.43-.16-1.08-.22-1.24-.48ZM173.25,488.82c1.65.26,1.84.56,3.08,2.1.32.4.71.53,1.23.85l2.02,1.23,2.61.28c.57.06,1.4.1,1.82.22l1.82.5,3.63.99,4.09,1.08c.59.16,1.48.1,2.08-.03l2.87-.6c.2-.04.63-.36.58-.52s-.35-.46-.51-.49l-.53-.1s-.38-.18-.38-.23l-.12-1.24-.5-.1c-1.17-.23-.68-.41-1.1-.62l-.38-.19c-.98-.49-1.61-1.2-1.99-2.26l-.38-.22-.44-.25c-1.89-3.79-1.69-.79-4.86-3.32-.25-.2-.87-.67-1.08-.99-.28-.43.3-1.58.57-2.09s.09-1.66.28-3.16l.26-2.05c.08-.62.47-1.64.48-2.25l.16-6.82c.02-1.04.23-2.07-.24-2.89-.02-.21,0-.75-.09-.92l-.55-1.04c-.7-1.32-.99.37-3.64-2.22-.5-.11-1.62-.33-2.17-.35l-2.88-.11c-1.87-.07-2.97-.88-4.46-1.73l-1.62-.92c-.21-.12-.95-.26-1.17-.39-2.63-1.61-4.41-2.39-7.6-3.16-3.05-.73-1.53.19-5.25-1.84-.26-.14-.54-1.01-.44-1.28l.52-1.51c1.56-1.49.86-2.26,2.76-3l2.88-1.12c.88-.68.99-.56,1.31-1.11.06-.1-.09-.6-.18-.68l-1.44-1.34-2.23-2.06c-.79-.73-1.69-1.35-2.14-2.99-.28-1.03.47-2.16,1.11-2.75l2.27-2.11c.53-.49,1.42-1.31,1.61-1.98l.39-1.36c.02-.08.37-.37.43-.31l.35.31s.32.35.37.35l1.8.15c1.68.14-.08.96,3.88,1.38l2.6.27c.27.03.96.24,1.13.4l1.31,1.23c.76.71,1.59,1.24,2.63,1.37l2.35.29c2.04.25,1.96.12,3.4,1.1l2.35,1.61c.21.14,2.17.74,3.68,2.97l1.65.91c2.1,1.16,0,.94,2.93,1.92,2.46.82,1.59-.31,3.06.25.84.32,1.59.58,2.38.78l2.09.51,2.17.61c.89.25.93,2.07,1.85,1.78.63-.19,1.57-.25,1.93.12l1.35,1.4c.12.12,4.38,3.98,3.67,1.94l-.61-1.77-2.09-1.49c-.71-.51-3.72-2.47-2.83-3.38.94-.96,2.42-1.57,3.23-1.31,2.25.71.98,1.17,3.44,1.73l1.8.41c.62.14,1.47.18,2.17.23l2.17.17c.68.18-.76-2.02-.29-1.67l-2.35-1.73c-.13-.1-.31-.22-.36-.25l-.39-.22-.38-.21s-.29-.1-.34-.1l-.38.04c-.44.05-.36-.32-.59-.65l-1.3-1.78-.25-.35c-.15-.21-.8-.75-.61-.91l.71-.59.35-.3c2.07-1.74,4.26-.81,6.24-.01,1.8.73,2.26.3,4.62.55,1.1.12,3.27.46,4.09-1.24.1-.21-.39-.76-.64-.88-1.11-.56.09-1.41-1.25-1.73l-1.69-.39c-4.03-.94-1.16-.29-4.11-1.37-1.22-.45-2.49-1.1-3.48-1.87l-1.17-.91c-.56-.43-1.25-1.16-1.79-1.52l-1.77-.88-4.37-1.3c-1.11-1.32-.82.15-3.65-1.21l-1.74-.83c-.7-.34-1.62-.52-2.4-.74l-1.55-.44c-1.23-.35-2.13-.94-2.73-2.17-.5-.03-1.49.03-1.88-.12l-1.9-.73c-.67-.26-1.48-.84-2.17-1.16-1.05-.48-2.16-.89-3.05-1.53-.84-.6-1.61-1.32-2.43-1.82-3.04-1.87-3.51-1.17-5.21-2.88l-2.15-.18c-.26-.02-.81.15-1.05.17-2.66-.96-.49.3-3.84-.25l-3.98-.65-2.42-.41c-1.46-.25-3.28-1.5-3.36-2.77-.11-1.76,2.86-1.99,3.19-1.5s.72,1.13,1.13,1.17l2.38.25c3.94.41,2.27-.78,5.75.89l3.31-.4c1.02-.12,3.11,1.03,4.17,1.46l2.13.86c1.02.41,2.6,1.95,3.73,2.65l1.27.79c.8.5,1.93,1.06,2.84,1.37l3.42,1.16,3.04,1.03c1.75.59.49,1.96,1.92,2l2.99.08c.21,0,.53.75.62.94.56,1.21,3,.38,4.03.81l2.37.99c.82.34.34,1.08,1.38.84.56-.13,1.33-.53,1.57-1.06.81-1.77-.33-3.3-.29-3.53l.25-1.65c.57-3.69-.37-.97.11-3.59.66-3.63-.45-1.91.09-5.84l.28-2.1c.43-3.2-.29-2.22-1.17-5.8-.04-.17-.28-.83-.43-.85l-3.09-.54c-2.77-.49-1.66.8-7.74.34-.54-.04-1.05-.06-1.52-.02l-2,.18c-2.7.25-3.43.73-6.11,2.35-1.94,1.17-1.7,1.6-3.26,1.88l-3.47.62c-.3.05-1.07-.4-1.07-.7l-.08-2.81c-.03-1.19.31-.41.86-2.55l1.05-4.07c.69-2.68.41-.93,1.16-4.09s-.06-2.87.97-4.11c.55-.66.55-1.23.39-2.05l.65-1.89c.11-.31-.07-1.02-.34-1.31l-1.73-1.94c-.09-.1-.58-.32-.7-.37-.08-.03.41-.26.42-.35l.21-1.2c.18-1.05-1-1.43-.96-2.69,0-.28.53-.7.65-.98l.86-1.94c-.33-.32-.9-.65-.87-.92l.16-1.29c.09-.73.34-2.01.24-2.64l-.54-3.53c-.14-.91-.07-1.75,0-2.65.1-1.2.12-2.41.13-3.66l.02-1.49.09-4.13-.34-.96.21-2.28.21-2.33c.08-.84.09-2.19.21-2.96.11-.66,1.28-.46.29-3.78l-.59-1.97c-.78-2.61-.05-1.61-.88-5.27-.21-.93-.89.68-4.66.14-1.04-.15-2.12-.06-3.14-.18l-1.09-.13-2.04.28-2.01.27c-.85.12-1.7.21-2.57.24l-2.26.09c-.71.03-1.51.06-2.38.14l-.99-1.01-.86.1c-1.95-2.1-2.79.32-3.75-1.68-.17-.36-.5-1.14-.31-1.41.89-1.32,1.51-1.85,2.64-1.51,3.77,1.13,1.3-.41,4.67,1.08,2.44,1.08,5.52.06,8.63.07h2.87s2.57.13,2.57.13l2.39.18c1,.08,3.2-.74,2.93-2.37-.47-.78-.66-2.18-.27-2.95l.72-1.39.23-.46c.13-.26-1.11-.41-1.12-.63l-.04-.96c0-.07.04-.41.05-.56l.25-2.63c-1.55.1-2.27.18-3.39.39l-2.6.49-1.15-1.18c-.24-.25-.25-.98-.11-1.36.99-2.6,2.67-.73,4.75-1.29,2.26-.61,1.64-.27,4.38-.84.94-.2,1.95-.11,2.85.25,1.38.56.36-.38,2.93-.41l2.84-.03c.62,0,1.3-.02,1.93-.07l1.6-.14c.78-.07,1.62-.47,1.85-1.14.29-.81,0-1.46-.65-2.23-.26-.3-.26-1.07-.34-1.49-.57-3.06-.06-1.53-.75-4.16-.12-.46-.13-1.27-.23-1.83l-.37-2.25c-.18-1.1-.37-2.07-.46-3.19l-.17-2.03c-.28-3.36-.84-1.02-.65-5.07l.54-1c-.5-.74-.53-1.23-.31-2.02.38-1.38-1.87-1.47-.2-3.52.12-.15.33-.48.23-.55l-.31-.22-.49-.05c-.59-.06-.21-3.17-.12-3.79l.32-2.3-.39-1.1c.09-.55-.21-4.37-.24-4.53-.36-1.9-.84-3.49.06-5.36.29-.6.92-1.87.69-2.47l-.65-1.71c-.4-1.05-1.2-.48-1.14-1l.11-.89c.19-1.53-.46-.39.12-2.92l-.44-1.17.23-2.71-.86-.93c.53-1.8-.02-3.73-.14-6.29l-.08-1.82c-.06-1.21-.07-2.42-.04-3.65l.03-1.76c.04-2.08,1.23-3.86-.1-5.91l-2.28-.61c-.64-.17-1.96-1.35-3.67-1.6l-2.34-.35c-1.63-.24-4.64-1.15-5.76-2.52l-4.13-.2-3.15-.73-1.62-.13c-2.06-1.78-2.25-.21-4.72-2.11l-2.27.29-1.55.93c-.22.13-.92.24-1.18.33l-3,.97-1.29.38-2.7.74c-.4.11-.97,1.07-1.33,1.27l-2.19,1.17-1.57.83c-.65.34-1.19,1.04-1.76,1.59l-1.19,1.12c-2.07,1.96-.97,1.83-2.18,3.75l-.91,1.45-.92,1.43c-.79,1.23,1.02.69,0,3.04-.6,1.38.21,1.71-.47,2.74-1.56,2.38-.48,1.68-1.08,3.97-.14.53-.23.88-.32,1.34l-.2.98c-.42,1.99.34,1.64-.91,5.39l-1.29,3.86c-1.23,3.68-.9,3.81-1.66,6.1s.36.75-.19,2.35c-.13.37-.32.96-.39,1.31l-.42,1.98c-.28,1.31-.63,2.43-.79,3.78-.32,2.76-1.23,2.2-.61,4.12.32,1.01-.16,1.87-.98,2.54-.1.15-.28.45-.28.44l.48.45-.19,1.44s.32.76.24,1l-.16.5c-1.06,3.35.27,3.05-1.16,7.07.05.52.14,1.32.16,1.84l.09,2.58c.02.56-.33,1.63-.35,2.26l-.06,2.14v3.17s-.5,1.13-.5,1.13l-.08,3.31c-.03,1.2-.45.71-.34,4.04.02.55-.33,1.6-.4,2.23l-.19,1.68c-.42,3.68.63,1-.13,4.36-.2.91-.49,2.17-.19,2.95.43,1.12.85,2.22,0,3.14-1.13,1.24-.49.95-.79,3.26-.67,5.25,1.03,1.36-.64,5.97-.54,1.5.7.93-.16,2.59-.55,1.06.4.4.27,1.46-.44,3.4.04,3.7-.99,6.97-.38,1.19.2.37.51,2.75l.38,2.88c.07.55-.47,1.68-.69,2.28-.49,1.32-3.42,1.1-3.99.32l-.58-1.26c-.05-.11-.16-.5-.15-.62l.22-1.58c.04-.26.28-.92.34-1.14-.03-.7-.01-1.37.03-2.09l.18-3.03.43-1.52.29-3.93.2-2.73c.19-.5.24-.81.26-1.37.06-2.31.57-.64.45-4.97,0-.12-.54.05-.66.11l-1.84.95-2.1,1.07c-4.62,2.36-1.05-.09-4.63,2.84l-2.95,2.42c-.3,3.43-1.06.99-1.68,5.21l-.94,1.66c-.13.23-.19.9-.17,1.16.17,1.85-.92.66-.87,4.58v.93s.02,1.59.02,1.59l-.65,1.71c-.15.4-.04,1.47-.16,1.89l-1.26,4.52c-.15.55,0,1.23.38,1.61,1.01,1.01-.28.7.21,2.64.25.98.18,1.78-.15,2.7s-.17,1.91-.15,2.88c.02.86-.23,2.2.02,2.97l.6,1.85c.26.8.94,1.78,1.18,2.65.22.82.51,1.26.93,1.93l1,1.59.91,1.46c1.15,1.85,1.73.86,2.5,2.29,1.04,1.94.93.93,2.43,2.13l1.74,1.4c.31.25,3.35,1.41,4.08,1.62.53.15,1.74.26,2.26.23l2.81-.13c.23-.01.88-.38.89-.53l-1.02-1.61-1.02-1.62c-.25-.39-.75-1-1.09-1.4l-1.03-1.21c-.1-1.33-2.12-3.48-3.12-4.34-1.69-1.46-.66-1.85-1.53-2.14l-1.12-.38-1.12-2.04c-.28-.51.62-1.7,1.05-2.1,1.14-1.04,3.24-1.09,4.55.84l1.52,2.23c.37.54,1.42,1.54,2.03,1.86l3.41,1.78c.42-.08,2.61-.11,2.59-.65l-2.24-2.83c-.28-.35-.62-1.25-.94-1.59-.77-.81-1.29-1.63-1.77-2.57l-1.48-1.05-.96-1.65c-.79-1.36-1.67-.1-2.33-1.57l-.65-1.44c1.39-2.47,3.13-2.7,5.61-1.65l2.9,1.77c.31.19,1.06.5,1.39.5h.78c.12,0,.13-.3.2-.66l-.26-.5-1.23-.28c-.13-.03-.44-.28-.44-.4l-.02-.61c-1.52-.18-2.89-.88-3.93-2.01l-1.05-.7c-.22-.15-.61-.47-.8-.55-2.2-.98-.99-1.3-3.17-3.13l-1.28-1.07c-.29-.25-1.14-.43-1.54-.42l-2.06.04c-.19,0-.61-.16-.75-.27s-.14-.68-.03-.82l.91-1.11c1.35-1.65,3.85.26,3.68.07l1.45,1.64c.32.36.86.56,1.13.93,1.27,1.75.32-.25,3.5,2.52,1.9,1.65.31-.5,5.4,2.27.61.33,1.31.66,1.8,1.05,1.24.98,3.27,2.59,3.17,4.27-.06.97-1,2.35-1.76,2.67l-1.71.71c-1.19.5-3.04-.86-3.38.21-.06.2.32.55.53.73l1.58,1.3c1.19.98.06,1.54,3.39,3.49l.91,1.97c.68,1.46-.42,2.78-1.54,3.85-.4.38-1.63.53-2.25.58l-3.34.28c-.66.9.59,1.92,1.64,3.54l1.16,1.78c.98,1.51.28,3.37-.89,4.05-3.32,1.92-2.09.8-4.87,1.18l-2,.28c-.17.02-.56.21-.52.35s.22.67.19.81l-.73,3.49c-.16.74-.37,1.43-.4,2.11l-.11,2.1-.09,1.73c-.02.39-.3,1.01-.52,1.55-.27.65.04,1.84.08,2.65l.17,3.11c.18,3.22-.31.57.08,3.21l.34,2.3c.09.64.1,1.52.12,2.17l.11,2.91c-1.48,4.09-.44,3.15-.41,5.19.01,1.03-.1,2.16.1,3.15l1.17,5.75c.27,1.33-.17,2.18.63,4.27.92,2.39-.78,1.93-.06,2.93.37.52,1.27,1.76,1.13,2.39l-.43,2.02-.08,5.59c-.39.29-.79.6-.88.87-.51,1.48,2.23,1.06,1.35,3.72-.26.78-.16,1.99-.03,2.86.46,2.91-.62.34.21,3.21.34,1.18.75,2.78.67,3.94l-.14,2.11-.19,2.87c-.11,1.68.14,3.35.63,4.99l.53,1.75.66,2.16c.21.7.28,3.24.25,4.16l-.07,2.41c-.02.65.52,1.81.66,2.54l.36,1.97-.44,1c.48.73.66,1.32.77,2.14l.66,4.9c.04.32-.84,4.57,1.26,4.2.34-.06,1.17-.47,1.55-.48,2.93-.12,4.1-.13,7.06.32.52.08,1.52.79,2.04.97,1.44.04,2.85.48,4.21.89.97.29,2.08.39,3.04,1.04.49.33,1.22.94,1.68,1.12l2.5.99c1.65.66,3.11,1.33,4.67,2.21,1.83,1.04,2.42,1.13,4.69.91l2.96-.29c.67-.07,1.39.41,1.98.95l2.11-.76c.77-.28,2.09-.05,2.97.09l1.52.24c.13.02.53.12.48,0l-.23-.54-.48-1.26-1.72-1.31c.12-.7-3.13-4.28-3.79-4.62l-1.17-1.83c-1.87-.7-.23-1.86-2.27-2.68-.23-.09-.54-.8-.73-1l-2.44-2.49-.02-6.36.89-.61-.23-1.3c-.35-1.98.19-4.29.7-6.33.27-1.09.36-1.91.22-3.05l-.24-1.88c-.09-.67-.11-1.33-.18-2.05l-.23-2.6c-.33-3.71.16-1.52.53-4.84.33-3.01.61.04.58-5.08,0-.2-.51-.77-.54-.77,1.68.05,1.44-1.78,2.83-1.12.69.33,1.28.8,1.56,1.33l.33.63c.06.12-.37.47-.4.61l-.58,2.48c-.88,3.75.03,5.76-.39,7.35-.26,1-.12,1.93-.14,2.89-.03,1.46-.15,2.8.08,4.29.3,1.99-.91,5.44.87,5.73ZM130.66,293.08c.29.13,1.25.01,1.46.2l1.19,1.06-.09-1.18c.43-3.31-.48-.47.02-4.35.18-1.4-.04-3.07.27-4.42.2-.9.42-1.92.43-2.62l-1.74.24-2.39.41-3.03.57-1.74,4.34c-.13.31.44,1.08.43,1.35l-.05.89c1.5.37.71,1.99,2.18,2.39,1.15.31,2,.68,3.06,1.13ZM296.16,312.89c.37-.56.72-1.41,1.01-2.12l1.16-.27.16-1.74,1.12-1.87c1.18-1.98-.29-.85,1.12-2.5l1.09-1.27c.4-.47,1.28-1.27,1.89-1.08,2.33.71,1.1,3.69,1.85,3.89l1.95-1.15c.43-.25,1.13-.72,1.48-.96-.17-1.18-.27-1.9-.37-2.94l-.17-1.84c-.03-.36-.37-1.16-.34-1.56.07-1.14-.42-1.87-1.3-2.47-.48-.33-1.1-.93-1.55-1.19l-1.88-1.08c-1.04-.6-2.47-.85-3.63-1.26l-2.15-.76c-.67-.24-1.73-1.1-2.43-1.41-.38-.17-1.49-.05-1.9-.15l-2.09-.53c-.58.06-1.64.79-2.21,1.09l-1.7.15-.26.63c-.06.15,1.62,1.03,1.1,2.35l-2.2,5.6c-1.31,3.36-.1,1.18-1.03,3.73l-.78,2.15c-.08.22-.29.88-.22,1.14l.69,2.38c.93.33,2.55.73,3.34.35l1.75-.85,1.03-2.35c1.08-.89,1.55-2.01.79-3.33l.89-2.1,2.37-.55c1.18-.27,2.12,1.37,1.98,2.44-.61,4.8-1.44,2.46-1.47,4.84-.01,1.03-.23,1.71-.44,2.67-.19.86-.1,2.11-.2,3.04l-.28,2.58.76-.03,1.07-1.65ZM131.9,304.38c.45-.36.68-1.76.67-2.33l-.03-1.47-.1-3.09c-.91.11-1.36.12-2,.07l-3.05-.23c-2.07-.15-2.08-.79-4.07,0l-1.22,1.64,1.23,1.82,1.77.19c.41,1.35,2.06,1.64,4.27,2.76.58.29,1.74,1.26,2.52.63ZM130.79,320.24l.38-3.34c.06-.56.03-1.2.05-1.82.05-2.31.6-3.3.36-5.12-.84-.42-1.64-1.14-2.22-1.24l-2.1-.37c-2.9-.51-3.6.85-4.74,2.82l-.93,1.59c-.89,1.54.17,3.18,1.25,4.32l1.94,2.06c.35.37,1.21.81,1.73,1.13,1.32.81,2.77.66,4.28-.03ZM207.88,480.3l.82.81-.37-1.84c-.08-.4.14-1.29.25-1.81.54-2.55-.83-.8-.7-3.12l.13-2.17c-.79-.82-2.85-.36-3.97-1.21-.89-.67-1.65-1.36-2.53-1.77l-1.38-.64c-1.44-.67-2.85-1.25-4.19-2.11-.35-.22-.99-.9-1.31-.72l-1.35.79c-.64.37-.44,1.22-.76,2.62l-.4,1.74c-.28,1.24-.46,6.02.13,7.66l.88-.91,6.4.06c.34,0,1.05.18,1.53.26,1.74.31,1.15,1.13,2.9.63,1.75.55,2.12,1.6,3.92,1.72Z"/>
          <path d="M272.26,193.41c.08.54-.66,1.35-1.1,1.73l-.32,1.37-1.08,1.59c-3.21,2.76-6.8,4.18-10.98,2.2-1.09-1.82-1.76-1.42-2.73-2.45-.85-.91-1.39-2.31-1.52-3.48l-.24-2.21c-.03-.26.38-.95.31-1.21-.6-2.22.27-3.23,1.52-5.16.21-.32.99-.98,1.38-.82l1.48.62-.04,2.7c-.74.52-.93,1.22-.8,2.05.38,2.32.06,3.11.85,3.71l1.68,1.26c.5.37,1.1,1.33,1.74,1.62.6.27,1.56.2,2.22.24.69.04,1.48-.11,1.95-.56l1.65-1.57.8-2.05c.37-.95,1.41-1.66,2.46-1.47.31.46.66,1.2.76,1.89Z"/>
          <path d="M218.53,354.43c.11-.47,1.2-1.18,1.57-1.3l1.72.79c.38,1.6-.97,3,.66,4.85.22.25,1.08.66,1.39.54l1.38-.55c2.43-.97,1.27-.81,2.91-1.87.66-.43,1.37-.86,1.63-1.46,1.43-3.25,1.12-1.24,2.3-4.39l1.33-.71,1.31.31c.07.93-.09,1.72-.53,2.53l-1.67,3.09c-1.39.81-1.13,1.67-1.92,2.75s-1.91,1.76-2.98,2.48c-1.93,1.29-4.21,2-6.39.52-.5-.34-1.09-.87-1.41-1.38l-.99-1.58c-.26-.42-.05-1.63-.15-2.2-.12-.69-.34-1.61-.15-2.43Z"/>
          <path d="M187.79,265.19c1.27.69.47,3.42,0,4.13l-1.07,1.57c-.55.81-1.19,1.66-1.86,2.4l-1.32,1.46c-3.58.46-1.82.95-5.63,1.41-2,.24-4.09.1-5.89-.77-.62-.3-1.92-.59-2.32-1.08l-2.35-2.85c-.28-.34-.82-1.14-.99-1.53-1.43-3.26-.78-2.16-1.09-4.16-.14-.9-.36-2.22-.1-3.04.15-.46,1.13-1.05,1.56-1.29,1.62-.9,1.8-1.03,3.15-.46.47.2,1.34,1.07,1.14,1.56l-.74,1.84c-.55,1.36,1.76,6.74,4.53,7.5l2.38.66c.57.16,3.74-.14,4.11-.73,3.24-1.61.89-.71,3.8-2.9.38-.29.19-1.34.01-2l1.85-.91c.2-.1.52-.46.84-.79Z"/>
          <path d="M224.49,155.3c.68,1.24.04,1.94-.85,2.57l-1.97,1.42c-1.12,2.53-1.5,1.77-2.13,2.5-.3.35-.97,1.2-1.41,1.34l-2.24.73c-.59.19-1.43.17-2.08.17h-2.08s-1.6-1.4-1.6-1.4c-.87-.77-1.57-2.07-2.22-3.19-.54-.94-1.01-3.43-.68-4.79l.47-1.93.94-.73c.24-.19.59-.42.8-.5.26-.11.91.27,1.1.5,1.63,2.02-.08,2.27.78,4.59l.8,2.17c.21.58.67,1.26.97,1.84l1.19.04c.72.02,1.25-.12,1.83-.52l1.9-1.32c.55-.39,1.35-1.11,1.67-1.64l.56-.93c2.62-.4.61-2,4.24-.92Z"/>
        </g>
      </g>
    </g>
  </g>
</svg>