<?xml version="1.0" encoding="UTF-8"?>
<svg id="Layer_1" xmlns="http://www.w3.org/2000/svg" version="1.1" viewBox="0 0 719.26 551.33">
  <!-- Generator: Adobe Illustrator 30.2.1, SVG Export Plug-In . SVG Version: 2.1.1 Build 1)  -->
  <g id="GGad6J.tif">
    <g>
      <path d="M210.03,543.4c.41.55-1.21,1.61-4.62,1.38-.48-.03-1.43-.96-1.58-1.41-.18-.55.75-1.88,1.32-2.03,1.98-.5,3.77.56,4.88,2.06Z"/>
      <path d="M562.49,547.53c1,1.29-3.49,2.99-4.51,2.7l-4.37-1.27c-1.28-2.59,7.17-3.63,8.88-1.43Z"/>
      <g>
        <path d="M312.37,543.07c-2.17,1.56-5.1,2.02-6.78-.45l2.47-1.32,2.71.87c.41.13,1.01.5,1.59.91Z"/>
        <path d="M442.78,545.94c-.1,1.16-.23,2.09-.59,2.23s-1.3.12-1.64-.08c-.93-.56-1.34-2.66-.7-3.34.91-.97,3.03-.06,2.93,1.2Z"/>
        <path d="M387.04,399.19c-.13.44-1.63,1.08-1.96.8-1.77-1.53.05-5.5,1.18-7.02.23-.31,1.59.18,1.72.54.16.45.28,1.49.14,1.98l-1.07,3.7Z"/>
        <path d="M393.6,370.92c1.12.05,1.84,2.07,1.62,3.33-.08.48-1.41,1.18-1.78.89-.59-.46-1.3-2.21-1.21-3.01.04-.41.97-1.23,1.37-1.21Z"/>
      </g>
      <g>
        <path d="M506.85,0c2.78,2.75,2.99,1.14,6.44,3.87s6.06,5.51,8.48,8.91l2.49,3.51,3.22,4.39c2.34,3.18,4.25,6.95,5.71,8.91l3.28,4.36,3.66,5.08c1.43,1.98,2.86,3.92,4.4,5.91.58.74,1.77,1.82,2.22,2.51l2.19,3.34,3.23,4.91c2.91,4.42,4.42,5.76,5.96,8.12l1.76,2.7,3.44,5.23,1.77,2.56c.72,1.04,1.56,1.98,2.58,2.85,3.34,2.86,2.12,2.93,4.03,2.48l5.16-1.21c1.89-.45,4.63-1.28,6.33-.09.47,3.46-1.27,8.94-3.71,11.76l-.91,3.41,1.89-1.92,2.4-2.56c1.33-1.41,2.64-2.72,4.1-4.04l1.98-1.79c.9-.82,1.68-1.51,2.54-2.37l11.11-11.15,2.46-2.45c.89-.89,1.76-1.9,2.55-2.87l2.45-3.03c1.31-1.61,2.9-3.3,4.41-4.73l3.09-2.93,3.88-3.78,2.39-2.46c1.45-1.49,2.91-2.86,4.47-4.21l4.09-3.52c4.54-3.91,6.23-4.37,9.74-7.61,4.14-3.83,1.41,0,5.53-2.68.9-.59,2.43-.85,3.4-.18,2.42,1.67.13,8.64-.69,10.99l-2,5.72-4.35,11.87-2.4,7.52-1.81,4.72c-.64,1.67-1.64,3.56-2.14,5.23l-2.16,7.14-1.85,5.92-1.12,3.8-.98,4.42c-.38,1.71-.86,3.19-1.47,5.35,5.31.95,8.39.26,13.64-1.3l7.68-2.28,9.81-3.28c4.65-1.55,4.36-2.65,9.82-3.96,3.51-.84,4.27-3.77,5.55-2.35,2.84,3.17.92,5.13,2.65,7.74l2.89,4.34c1.94,2.91,3.33,1.58,3.94,5.01l-6.59,6.53c-1.45,1.44-3.8,2.53-5.54,3.63l-4.07,2.58c-3.26,2.07-3.07,3.16-8.46,6.55l-7.39,4.65-3.44,2.07c-1.76,1.06-3.39,2.37-5.04,3.58l-5.67,4.16c-.78.57-1.54,1.36-2.19,2.12-3.18,3.68-4.6,4.61-8.05,7.2l-4.65,3.48c-1.97,1.48-3.46,3.19-5.49,5.01-.78.7-1.05,2.62-1.1,3.88l-.11,3.18,5.88-.56c1.63-.15,3.81-.79,5.32-.78l2.95.03,3.24.02c.84,0,1.62,2.04,1.83,2.81l-1.07,1.49.75,3.12-.98,6.53c-1.32,8.82-3.06-.1-8.5,11.49l-.86,1.83c-.23.49.57,1.36,1.22,1.91l.21,1.11-1.63,1.37,1.49,2.92c3.09,6.05,2.3,2.22,5.52,7.88l3.6,6.33,3.77,3.02,2.34,3.88c1.43,2.36,4.2,3.74,6.31,5.51.79.66,1.76,1.65,2.5,2.38l3.04,3.01c.62.61,1.91,1.76,2.32,2.46,5.17,8.7,5.42,4.46,9.98,12.89,4.09,7.58,5.92,6.33,8.15,12.57,1.75,4.9,2.15.87,5.5,9.06l1.76,4.32,3.63,2.2c2.26,1.37,3.1,3.2,4.61,5.37l5.42,7.81c.19.27-.27,1.45-.02,1.59,6.98,3.88,5.23,7.07,10.22,14.96.18.28,1.43,7.29,2.6,10.57l1.48,4.15,6.1.1c1.42.02.95,2.42,2.27,2.52v1.15c-.38.96-5.89,5.66-6.77,6.28-1.9,1.34-3.46,2.19-4.28,4.58-.31.9-1.96,2.44-2.95,2.32l-4.07-.5c-.71.1-1.98,4.11-3.36,5.56-4.51,4.73-5.08,4.96-10.88,7.74-.79.38-2.06.69-2.9.75l-4.55.33-4.21.13c-2.35.07-4.73.03-6.98.25-7.43.73-5.39-.14-13.56-.16-3.63,0-12.06.81-13.58.49l-2.4-.51c-1.93-.41-4.82-.1-6.85.1l-3.62.36c-.65.06-2.17.52-2.86.32-1.34-.37-3.93-1-5.48-.88l-5.61.45c-5.89.48-10.42-.12-17.32.28-2.59.15-5.43.83-7.89.15-1.27-.35-2.86-.93-3.87-.83l-2.81.27c-6.7.65-8.91,2.29-14.36,1.04-3.39-.77-6.55.28-9.92,1.16-1.92.5-4.57.27-6.62.13l-3.99-.28c-1.92-.13-4.04-.64-6.07-.9-1.35-.18-2.81-.08-4.2-.1l-5.63-.08c-.75-.01-2.26-.63-2.99-.58l-4.49.29-6.48.28c-4.38.19-8.75,2.06-13.52,1.79-3.35-.19-6.85-.46-9.27-3.43l-2.25-2.74-2.46-2.98c-.69-.84-1.57-1.84-2.16-2.65l-3.26-4.45c-.78-1.07-1.41-2.02-2.24-3.5-7.1-.7-4.15,1.69-11.74-.92l-.65-3.31c-.33-1.67-5.4-4.89-5.55-9.84-.08-2.93,3.38-3.91,5.5-3.06.33.13,1.46.37,1.64.11l.99-1.48,2.16-3.28,2.52-3.94c.92-1.44,1.79-2.89,2.93-4.14l2.59-2.81c.36-.52.74-2.2,1-2.91l4.74-3.88c.75-.62,1.44-3.57,5.07-5.78l3.5-2.13c-.33-3.87-.38-4.32,1.8-8.4,1.38-2.57,4.35-3.79,6.8-5.1,6-3.21,5.04-5.38,6.53-7.58l3.97-5.86c1.33-1.96,2.76-4.78,4.76-5.89l3.58-1.99c-.49-2.88.93-4.86,2.81-6.85l2.22-2.35,2.97-3c1.11-1.12-.54-4.1,1.33-7.15l1.95-3.18c1.84-2.99,3.75-4.07,6.63-5.77,2.94-1.74,1.55-1.88,5.74-6.17l2.42-2.47c5.28-5.4,3.61-2.53,8.57-6.13,3.78-2.74,2.98-3.94,6.97-6.52l3.98-2.57c-1.27-1.41-2.2-2.3-3.51-3.25l-2.56-1.85-2.55-1.89c-1.19-.88-2.52-2.83-3.83-3.55-2.8-1.54-5.61-2.75-8.59-3.37l-4.01-.84-5.5-1.19c-1.08-.23-2.77-.27-4.02-.36l-8.23-.58c-2.35-.17-4.13,1.42-10.15.57l-5.42-.76-2.38,1.11-3.41-.72-2.02-1.07-9.69-.18c-6.01-.11-2.64.64-7.1.24-1.27-.11-2.75-.34-3.73-.31l-6.06.18-6.02.35-5.28.34-3.51.22c-2.82.18-5.63.34-8.55.14l-2.15-.15c-2.03.11-4,.12-6.01-.2l-4.38-.68c-7.35-1.14-2.64.4-8.19-.37-1.38-.19-3.03-.58-4.24-.62l-9.21-.29c-1.49-.05-3.34-.42-4.86-.39l-4,.07c-1.64.03-7.68-.42-7.36-.49-1.12.26-3.29.73-4.12,1.28l-3.95,2.63-.66,4.2c-.57,3.67,1.21,3.74-2.35,10.12-1.3,2.33-5.01,7.6-6.72,8.97l-3.72,2.99,2.52,3.12c.25.31,1.3.94,1.73,1.2l2.21,6.94c2.86.84,3.83,3.47,3.15,6.31-1.44,6.04-.44.7-2.26,6.66l-.83,2.73c-1.11,3.62-2.23,6.94-3.63,10.46-.99,2.49-3.55,10.77-3.59,12.72l-.26,12.37c-.02.99-.69,2.91-.77,3.84-.05.51.55,1.83.64,2.37l1.18,6.4.81,4.08,1.43,5.77,3.51,12.78,3.94,12.74,1.79,5.68,3.38,11.41,2.04,7.38c.55,1.98.8,3.73,1.33,5.79l2.08,8.07c.95,3.69,3.28,17.48,3.61,21.31.54,6.12-.35,8.64-.15,14.31.05,1.33-.39,3.24-.46,4.68-.15,3.43-.04,4.13-1.22,7.8l-1.9,5.89c-4.27,13.24-8.88,11.85-9.99,15.54-1.06,3.51,3.39,3.01,2.12,7.87-.31,1.17-.73,2.87-1.26,3.64l-2.26,3.3c-.41.6-1.09,1.71-1.59,2.14l-4.71,4.04c-.68.58-1.18,2.49-1.46,3.42l-1.26,4.16-2.04,6.71c-1.58,5.2-1.16,10.15,1.9,14.81.66,1.01,1.57,2.06,2.64,2.69l4.12,2.44,4.45,2.64,3.65,2.31c6.98,4.42,2.74,2.2,9.6,4.58,7.87,2.73,3.04.76,10.94,1.98,1.88.29,3.63.71,5.51,1.06l5.69,1.06c1.04.19,2.52.55,3.46.85l4.81,1.5,3.64,1.05c.17.05.61.12.88.17l3.09.55,3.28.28c5.42.46,3.56,1.55,9.71,1.58.79,0,7.57,2.74,10.89,2.84l8,.25,3.83.51,4.87.69c1.79.25,3.91,1.15,5.74,1.64,4.94,1.32,8.21,2.2,12.27,5.25,4.43,3.33,4.22,4.41,3.68,12.91l-.27,4.31-1.64,2.19,2.47.8,2.91.94c1.11.36,2.23,1.58,2.46,2.75.45,2.36-2.07,5.07-3.67,6.36l-3.28,2.66c-.1.08-.39.39-.8.83-.91.03-.84.11.21.44l4.69-.23c1.44-.07,2.75-.34,4.45-.58,3.03-.43,2.66,2.65,12,1.71,6.34-.64.59.42,7.76-.07.81-.06,2.29,1.49,2.16,2.17l-.9,1.86h-6.68l-.59-.53-8.65-.06c-3.35-.02-3.43-1.76-8.32-1.41l-3.13.22-5.84.39c-1.47.1-2.6-.16-4.18-.44-3.47-.61-7.4-.33-11.07-.24l-3.95.1c-1.9.05-4.39.62-6.13.04-5.04-1.67-7.22-1.22-12.32-.98l-6.36.3c-.91.04-2.83-.12-3.88-.19-.72-.05-1.71-1.86-1.56-2.55.1-.45.66-1.45,1.07-1.49.51-.06,1.52.2,2.31.21l9.53.12c1.16.09,1.8-5.73,1.41-6.2-1.24-.59-3.06-1.79-2.86-2.84.09-.47.9-1.71,1.05-1.99-.41-3.17,2.41-2.73,2.02-3.43l-.48-.86c-2.52-4.52.2-1.25-2.2-4.76-2.1-3.06-2.81-3.35-7.11-3.84l-3.82-.43-7.93-1.39c-2.29-.4-4.85-1.24-7.12-1.34l-5.47-.24c-1.05-.05-2.78-.05-3.65-.2l-9.22-1.6c-4.33-.75-5.75-1.65-10.05-2.23-1.33-.18-3.3.13-4.63-.24l-7.4-2.1-4.6-1.3-5.23-1.7-4.81-1.62-5.45-1.8c-1.17-.38-2.47-1.66-3.57-2.29l-5.27-3.05c-2.55-1.47-2.14-.37-5.93,1.74-8.8,4.91-16.15,4.15-26.54,7.24-3.58,1.06-.38,1.11-8.47,2.53l-6.15,1.08-4.66.85-4.02.79-4.99,1.01c-2.85.58-5.58,1-8.49,1.23l-4.92.4c-2.4.19-6.83,1.81-9.35,2.8-4.25,1.67-5.33,1.37-8.11,3.31-2.12,1.48-5.14,4.96-3.19,6.56,2.29,1.87,2.88,4.1,1.71,6.88,2.32.97,4.12,2.66,4.75,5.18l-.66,2.64,5.25.2c2.07.08,3.82-1.57,8.08,1.32.4.27.58,1.64.23,1.9-2.29,1.74-1.17-1-5.93-.34-4.44.62-9.12-.16-9.56-.12l-5.41.49c-1.2.11-2.76.51-4.01.84-6.24,1.64-5.09-.3-9.34,1.44-5.09,2.09-5.64-.06-11.03.49l-2.2.22-10.42-1.41-3.01-1.33-6.36-1.13-6.48-1.11c-1.23-.21-2.79.02-3.36-1.61.2-.6,1.69-2.3,2.48-2.15,3.69.72,3.73,1.5,6.33,1.2.05-3.6-.68-1.74.89-6.24l1.28-3.67c.62-1.79,2.48-2.65,4.31-2.12,2.66-2.33,2.76-2.56,3.8-6.52.46-1.74-3.56-1.75-2.95-3.1.94-2.11,3.17-2.18,4.42-5.14,1.38-3.26,3.22-6.05,5.97-8.26,5.4-4.35,8.81-2.8,11.03-3.65l3.93-1.5,2.5-.95c6.78-2.59,2.62.16,7.52-2.03,6.53-2.92,5.24-.72,8.56-1.59l6.19-1.61c4.91-1.27,3.47-1.59,7.74-2.64l9.59-2.35,11.93-2.74,4.57-.93,4.88-1.06,6.97-1.76,4.63-1.36c3.7-1.09,9.62-4.62,11.98-7.96.95-3.84,3.06-3.95,3.79-5.47,3.19-6.62,3.31-13.47,1.25-20.19-2.81-1.19-9.14-5.76-10.09-7.83l-1.83-3.99c-.58-1.26-.13-3.9.13-5.63.8-5.23,5.22-5.01,5.13-7.81-.07-2.12-5.18-5.56-6.34-7.38l-3.13-8.66c.52-3,.16-6.12-2.54-8.34,0-2.87-.32-6.09.2-8.86l.95-4.98,2.05-9.87c.61-2.93,1.18-5.84,2.07-8.74l2.47-8,1.1-3.23c1.94-5.69,1.87-7.59,3.39-11.64l1.49-3.98,2.83-7.63,2.85-7c2.16-5.31,3.8-10.17,5.28-15.8l1.72-6.53c.32-1.22.73-2.56.97-3.78l1.2-5.98c.28-1.38,1.31-8.03,1.33-8.63l.17-4.82.12-4.21.08-3.79.32-5.8c.09-1.6.27-3.16.16-4.65l-.28-3.66-.43-4.49c-.31-3.19-1-6.12-2.27-8.89l-1.48-3.22c-.29-.63-1.47-1.72-1.94-2.33-1.18-1.57-2.39-3.68-3.77-4.79-4.64-3.75-.4-6.24-.8-10.37-.13-1.58-.15-3.24.72-4.54,4.5-6.71-.29-3.9,6.39-11.48.94-1.07-1.5-1-2.92-2.23l-3.21-2.76c-1.96-1.69-3.51-4.73-3.79-7.21-.06-.51.12-1.7-.02-2.09-1.36-3.83-.28-.81-.79-6.54-.23-2.55-.7-5.38-2.65-7.4-1.65-1.71-6.21-1.78-8.2-1.85l-5.92-.21-6-.29-3.27-.15c-5.98-.28-11.38.23-15.72.03l-5.92-.27-3.35-.16-2.82.1-6.38-.8c-2.45-.31-5.11-.14-7.51.1-8.23.85-3.56-.3-10.75.17-2.55.17-5.12.23-7.67.06l-3.2-.21c-3.36-.22-6.56.05-10,.17l-11.32.38c-2.71.09-5.05.08-7.75,0l-13.91-.38-3.61-.16c-5.55-.24-5-1.39-13.97-1.92-6.02-.36-2.75-1.19-10.24-1.18h-8.14s-6.01.68-6.01.68c-1.76.2-4.02.2-5.39,1.09-4.99,3.24-9.27,6.26-13.67,10.71.83,2.16,2.72,3.82,4.92,5.16,1.05.64,2.15,1.89,3.11,2.69l2.2,1.83c.94.78,1.82,2.12,2.62,3.24.63.88,1.53,1.9,2.06,2.73,1.64,2.56,3.22,4.61,5.41,6.66,5.9,5.53,3.92,4.23,8.45,10.53l1.86,2.59c.61.85,1.67,2.16,2.4,2.91l5.69,5.77,2.16,2.19c.62.63,1.55,1.55,2.05,2.21l3.08,4.07c2.8,3.71,5.28,7.3,7.88,11.19,1.55,2.32,3.64,4.41,5.84,7.66l1.75,2.59c.67.99,1.45,2.24,2.03,3.53l5.26,11.75c.26.58,1.81,1.43,2.15,1.93,2.97,4.34,3.01,1.12,6.72,9.61l1.84,4.21c.08.19,3.21,4.62,4.12,6.11,2.7,4.4.37,2.54,3.15,7.07.25.4.58,1.02.76,1.44l2.76,6.46c.19.43,1.12,1.2,1.49,1.09,2.7-.87,6.46-.8,8.52,1.46.49.54.94,2.03,1.19,2.9l-3.96,2.5c-1.28.81-4.23,1.72-4.65,3.12l-.9,2.98-2.16-.26-2.58,3.93-2,2.96-10.63,1.9c-1.08,1.08-1.88,5-3.13,7.69l-1.91,4.13c-2.91.81-5.97,1.36-9.02,1.75l-3.84.5c-4.75.61-3.75.14-8.86.78l-5.49.68-3.83.41c-1.4.15-2.87.34-4.15.34-7.47.02-.5,1.54-12.09.48-2.76-.25-5.79-.25-8.58-.03l-8.11.65-2.33.19c-2.02.16-4.32.15-6.35-.03l-4.99-.45c-1.75-.16-3.75.38-5.44.43l-8.66.29-3.25.38c-8.48.99-5.15-.84-10.41-.47l-4.91.34-3.05-.22c-5.64,1.17-4.62-.82-8.61.02-3.05.64-5.61.07-8.49-.13l-5.88-.42-12.41-.29-4.44-1.36-5.92-.29c-1.09-.05-2.53-.38-3.75-.53-6.53-.83-10.49-.08-17.37-1.89-1.87-.49-4.37-1.44-6.31-2.13-.96-.34-2.76-1.75-3.27-2.57l-2.16-3.99c-.61-1.16-.03-4.08-.44-5.38l-1.77-5.51-2.85-.42c-1.91.2-3.75.15-5.67,0l-3.86-.29c-1.85-3.74-4.65-6.66-8.48-8.72-2.38-1.28-4.75-5.04-8.71-6.99v-2.72l1.85-1.02c3-1.67,8.8.78,13.64-.04l.7-2.2c3.68-3.62,3.76-5.69,7.08-8.25.79-1.29,1.86-3.35,2.87-4.65l5.74-7.39,2.43-2.98,2.5-2.99c.57-.69,1.8-1.85,2.23-2.53l2.75-4.36,2.13-3.39,5.76-9.2c.32-.52.5-2.29.89-2.78l4.93-6.14c.82-1.02,1.99-2.07,2.29-3.04.6-1.9,1.42-3.29,2.64-4.55,1.48-4.88,5.15-6.75,8.76-9.81,2.51-2.13,4.22-5.26,6.25-7.81l1.69-2.14c1.54-1.94,3.09-3.69,4.83-5.5,4.56-4.73,2.55-3.99,4.86-7l3.6-4.67c.54-.7,1.29-1.82,1.86-2.43l5.59-5.88c1.31-1.38,4.23-2.96,5.77-5.49,3.47-5.72,3.08-2.83,7.29-7.52-4.08-6.77-3.23-3.67-4.73-11.3-.59-2.98.05-6.89,1.26-9.94,2.85-7.16,3.73-3.24,3.27-6.72-.14-1.08.71-3.5,1.66-4.1,2.35-1.48,4.99-1.72,7.62-1.73,5.46-.03,4.7-1.09,8.81-.2l4.64,1c.95.2,2.13.25,3.39.21-.05-.7-.19-2.1-.28-2.78l-.4-3.07c-.71-5.51.59-3.74.05-9.77l-.72-8.07c-.23-2.58,0-7.64.56-10.16l1.1-4.88c.46-2.05,1.21-4.02,2.41-5.72,3.17-4.46.91-4.99,3.53-9.01.56-.86,1.72-1.53,2.73-2.36,1.18-.98,1.52-3.54,2.21-5.28.54-1.37,2.62-2.26,3.84-3.06l6.61-4.36c.25-.16,4.39-1.12,7.64-2.55l5.02-2.2c4.69-2.06,3.76-.49,10.26-3.78,1.98-1.01,4.09-1.42,6.28-2.03,1.96-.54,4.22-1.79,6.13-1.96,1.36-.12,2.28-.24,3.51-.64,7.62-2.46,7.91-1.66,13.85-3.04l5.74-1.34,5.07-1.14,4.24-1.55c3.3-1.21,7.53-.77,12.46-2.19l3.33-.96,4.97-1.43,3.21-1.09,6.03-1.7c1.02-.29,2.38-.9,3.57-1.39.86-.36,2.51,1.56,2.53,2.46l.17,10.88,1.37,5.49c.97,3.87.68,7.52,2.61,11.16l6.64,1.06c1.79.29,2.92-.26,6.67-.57l5.82-.48,4.46-.29,3.48-.17,2.07-2.85c.28-.39,1.93.2,1.92.68l-.06,1.92,5.15.09,1.98-.24c1.14-.14,2.5-.23,3.03-1.3.75-1.53,1.75-1.39,3.16-.9,3.79,1.3,5.07.15,9.74.5,2.69.2,5.92-.22,8.44.38.57.13,11.89,3.19,8.95.62-3.33-2.91-1.64-.38-4.66-6.07l-1.8-3.39c-1.22-2.31,3.81-4.07,5.39-4.61.89-.3,3.14.31,3.94-.19,1.68-1.05,3.5-2.18,5.26-2.97,3.58-1.59,1.75-2.81,8.97-.05-.29-1.56-.34-3.31.6-4.4l2.93-.18c2.34-.15,5.4,3.56,6.66,4.96l4.68,5.22c.99,1.1,2.72,2.33,3.95,3.39.83-.33,3.13-1.46,4.06-1.03,1.33.62,3.19,2.07,4.28,3.06l3.49,3.17c1.6,1.45,3.06,2.94,4.59,4.57,5.87-3,7.56,4.48,16.34,2.94l1.48-1.83c2.3-.73,4.3-1.7,5.93-3.34,5.4-5.43,3.55-2.54,6.8-5.66l3.11-2.99c.9-.87,1.63-1.91,2.47-2.93,2.54-3.11,6.1-6.14,7.42-7.68l6.07-7.08c2.46-2.86,4.09-3.09,7.46-7.13l2.99-3.59c3.03-3.63,7.94-7.74,10.82-11.41l5.5-7.02,2.91-3.62,2.41-3.04c1.03-1.3,2.05-2.65,2.99-4.03l2.23-3.26c1.73-2.52,3.16-4.94,5.82-6.71l2.85-1.9,3.02-1.99c4.24-2.8,10.15-1.52,12.46-2.68h5.43ZM495.08,75.72c.59-.59,2.73.1,3.27.69l5.47,5.96c2.42,2.64,6.64,1.38,6.18,2.77l-.74,2.23c1.56.05,3.41.08,5.01-.09l4.51-.48c1.61-.17,3.38-.52,4.88-.59,3.77-.19,7.44-.78,8.15-.81l8.18-.24c1.45-.04,3.54-.94,5.06-1.26l5.38-1.15c1.5-.32,3.24-.44,4.78-.6l5.54-.54c1.03-.1,2.59-.67,3.51-1.38l-1.96-3.08-2.8-4.39c-3.47-5.43-.92-2.49-5.94-9.26-1.13-1.52-2.2-3.25-3.27-4.87l-3.27-4.96c-2.86-4.34-4.59-5.19-7.04-8.7l-3.1-4.46-2.09-2.91c-.53-.73-2.02-2.01-2.52-2.85l-4.64-7.81c-.77-1.3-1.65-2.22-2.57-3.46l-4.59-6.21-3.94-4.87c-.66-.82-1.78-1.97-2.58-2.68l-2.69-2.39c-1.61-1.43-6.53-3.64-7.68-3.49l-6.56.87c-3.76.5-5.16.46-8.69,2.8-1.29.86-2.81,1.7-3.97,2.66-2.69,2.2-4.25,6.65-7.07,9.6l-2.45,2.55c-1.14,1.19-2.33,2.42-3.31,3.73l-2.79,3.74-2.98,4.12c-1.39,1.92-3.19,3.71-4.87,5.44l-2.4,2.48c-2.53,2.61-4.78,5.3-6.94,8.25-3.56,4.85-4.87,4.41-9.62,9.37l-2.14,2.24-6.11,6.37-3.83,4.34c-.99,1.13-1.98,2.36-2.91,3.57-2.41,3.12-5.58,5.26-8.35,7.97l-4.95,4.82c1.1.6,2.71.79,4.28.52,5.98-1.05,5.94,1.01,12.01-.13,8.88-1.66,4.36.31,13.76-.82,8.2-.98,8.07.61,15.17-1.65,1.8-.58,4.16-.27,6.1-.18l2.07.1,6.54.11,4.03.04c.63,0,1.82.04,2.23-.26l2.06-1.45c.44-.31,1.35.32,2.3.77,1.56-1.25,3.37-2.75,4.82-4.18l6.01-5.96ZM621.04,114.81l2.67-3.53c.84-1.11.83-4.1,1.27-5.62l2.71-9.22,1.54-5.55c.75-2.7,1.46-5.38,2.45-7.96l1.51-3.95c.73-1.9,1.06-3.81,1.79-5.78l1.4-3.8,2.42-7.12c.52-1.54.92-2.93,1.35-4.6,1.19-4.56,1.75-3.79,3.27-9.55l1.16-4.38,1.2-4.14,1.47-4.83-3.26,1.73-.6,2.35c-1.66,2.72-4.29,9.22-5.08,12.15l-.79,2.96-1.73,6.46c-.45,1.67-1,3.24-1.59,4.85l-1.51,4.13-1.78,4.83-2.82,7.42c-1.29,3.38-1.89,6.78-2.7,10.36-.58,2.57-1.63,5.17-2.4,7.74l-2.24,7.49-1.61,5.11-1.42,4.37c1.59-.3,2.54-.89,3.32-1.92ZM582.34,165.97c2.17.39,4.11-.15,6.04-.17l16.61-.19c.11-.82.22-1.93.36-2.48l1.76-7,1.65-6.56c.23-.92.4-1.88.58-2.8l1.73-8.84-1.69-1.11.65-4.6-3.71-.91c-.65-.16-2.07-.72-2.66-1.08-.47-1.88.9-4.01,2.9-4.49l1.9-2.46c1.29-1.67,3.07-3.13,4.89-4.23l5.13-15.65c.42-1.27.76-2.59.97-3.92l.79-5c.89-5.59.72-2.36,3.26-9.28l1.62-4.39c3.19-8.66.91-7.15,5.38-16.43,2.48-5.14.86-6.57,2.39-10.02l2.05-4.61,1.58-3.89,1.47-3.79c.07-.19-.1-.85-.19-1.03-.06-.12-.83-.04-.94.05l-3.73,3.06c-1.88,1.54-3.46,3.04-5.17,4.67l-3.91,3.72-3.08,2.91-2.79,2.61-4.53,4.23c-2.13,1.99-3.53,4.94-6.65,7.9l-7.56,7.18c-2.15,2.04-2.96,3.73-6.66,6.83l-3.01,2.53c-.93.78-1.86,1.74-2.69,2.68l-2.79,3.16-5.65,5.91c-.72.75-1.93,1.36-3.05,1.77l-1.14,4.24-1.12,4.45c-.46,1.83-.7,3.7-.77,5.63l-.21,5.46c-.15,3.85,1.81,5.37.17,10.17-1.63,4.79-.42,4.23-1.65,10.38-.32,1.59-.36,3.45-.4,4.82-.03.85-.51,2.54-.44,3.33.48,5.25-.07,7.77,1.75,10.17l.44,3.94c.11,1.02,1.84,2.68,2.57,3.14,2.48-.3,4.96-.49,7.55-.03ZM595.14,188.94c-2.65-.73-10.07-2.53-8.29-6.33,1.27-2.71,7.92,6.54,14.44.99.55-.47,1.15-.91,1.07-1.29l-.37-1.63c1.43-1.29,2.69-2.33,4.37-1.43.94.51,1.94.84,3.24,1.31,1.38.49,3.16,1.86,4.68,2.57,1.34.62,3.44,1.15,4.04,2.31.39.77.75,2.02,1.16,2.34l2.72,2.14c1.17,2.07,2.54-4.33,4.67-6.8,3.71-4.3,5.71-3.95,5.51-7.78-.07-1.28.43-2.8.79-4.37.28-1.23-2.16-2.49-3.32-2.36l-2.95.34c-2.02.23-3.89.43-5.95.56l-4.98.33-6.89.26-2.37.44c-3.05.57-6.89,0-10.04-.16l-4.53-.23c-1.51-.08-3.38-.37-4.77-.08-2.28.47-3.94.2-6.15.13l-9.67-.31-2.15-.07-5.62-.13-6.27.72-3.99.03c-4.33.03-8.58.19-12.84-.08-7.07-.45-1.4.36-7.8-.02l-3.8-.23-5.95-.45c-1.07-.08-3.02.38-4.14.18-2.21-.38-4.04-.14-6.19-.14-4.77,0-6.74-.77-12.47-.76l-4.87.02-4.95-.41-7.48-.36-6.61-.46-5.86-.84-2.85-.08c-1.96-.05-3.95-.01-5.88-.21l-4.92-.5-9.47-1.32c-2.85-.4-6.03-.16-8.96-.37l-5.59-.41c-.87-.06-2.4-.58-2.53-1.6-.1-.79,1.37-2.48,2.22-2.59,4.77-.62,7.74,1.66,8.17-.93.91-5.44-1.84-3.58-.34-12.32.84-4.87,2.01-2.78,1.5-3.86l-.5-1.05c-.1-.21.56-.88.49-1.1-.36-1.06-.92-3.37-.68-4.52.43-2.07.08-3.36.08-5.34v-3.01s-.51-3.84-.51-3.84l-.3-3.26c-.51-5.44-1.49-3.83-2.85-10.73-.46-2.32-.99-4.75-1.77-6.87l-1.5-4.11c-.55-1.52-1.15-4.06-1.15-5.43,0-.39,1.37-1.46,1.62-1.16.19.22.78.91.87,1.23l1.6,5.4c.45,1.53,1.69,3.4,1.94,4.85,1.17,6.62.74,4.76,2.76,10.9l2.21,6.74c.48,1.46.41,2.55.35,4.2l-.39,11.16c-.04,1.04-.25,2.5-.39,3.48l-.65,4.73c-.35,2.58-.42,6,.25,8.37l.76,2.72c.22.78.39,2.84.94,3.44,1.1,1.2,3.58,1.2,5.1,1.41l3.89.52c1.98.27,3.96.43,6.01.57l6,.42,4.38.4,4.4.5c1.69.19,3.53.11,5.26.29l3.67.38,6.79.4c4.73.28,9.38-.62,14.12.18l2.88.49h2.51s15.22.13,15.22.13c.84,0,6.57,1.17,9.72,1.03l4.96-.22c.99-.04,2.22-.11,3.18-.09l4.33.07,4.42.24c1.66.09,3.32-.24,4.95-.4l5.46-.54c1.9-.19,3.77-.19,5.74-.28l-.02-2.9c-1.58-2.61-1.18-5.04-1.07-7.85l.28-6.96.21-3.48.45-5.72c.68-8.56-1.56-2.38,1.26-10.54,2.33-6.71-1.72-6.31,1.84-11.62-1.24-4.67-.78-6.58.23-10.75.82-3.38-1.04-5.55,2.51-6.94,2.26-6.39-.08-4.93,4-11.97.64-1.1,1.71-4.43-.28-4.03l-6.16,1.25-6.39,1.3c-1.49.3-3.39.82-4.78.91l-5.19.33c-3.73.24-9.16.89-12.67,2.06-6.17,2.05-6.81.29-13.05,1.25-2.09.32-4,.8-6.1.85-1.95.04-3.67.17-5.52.37l-4.9.54c-4.18.46-10.28.16-14.51-.5l-4.28-.66c-2.84-.44-5.24-.42-8.08.53l-4.54-.23-15.22-.17c-2-.02-4.59-1.04-6.53-.83-5.69.64-5.14,1.02-10.89,1.56-1.84.17-4.14.87-5.9.9l-8.26.15c-6.3.11-3.56,1.63-10.98.69-3.01-.38-11.22-.01-16.05-.39l-5.06-.39c-1.31-.1-3.11-.88-4.45-1.25l-4.94-1.36.05,1.08,2.96,3.7c.67.84,1.6,1.76,2.21,2.65l5.35,7.72c2.61,3.76,1.87,3.89,4.36,5.9.92.74,2.33,1.67,2.99,2.38l4.82,5.17c.48.52,3.97,4.79,2.77,5.55-.27.17-.9.42-1.38.53-2.62.6-3.13-1.87-6.13-5.81l-2.2-2.88c-.6-.79-2.07-2.01-3.02-2.74-5.41-4.09-1.69-4-6.89-9.98-5.88-6.77-5.26-8.45-9.45-13.32l-3.59-4.18c-.52-.61-1.87-1.51-2.64-2.17-5.73-4.93-2.58-5.08-9.09-4.25-8.65,1.11-3.2,1.22-11.32,2.55-1.11.18-6.66,2.07-7.61,2.53l-4.31,2.1-5.63,2.14-.9,2.59c-.56,1.61-3.47-2.29-3.71-.97l1.31,3.71,1.88,5.08,2.36,6.39,1.75,4.75c.68.32,2.19.88,2.54,1.5.31.53-.04,1.8-.29,2.48l-1.32,3.57c-1.55,4.19-6.44,1.27-11.47,2.1l-5.59.92-7.56,1.18-5.35.85c-.93.15-2.97-1.45-2.84-2.45.52-4,5.54-2.1,10.02-2.69l5.22-.7c4.98-.66,6.35-1.88,9.81-1.56l6.27.59c.14.01,1.04-.42,1.05-.41,0,0-.35-.39-.49-.54l-.43-2.41c-.08-.47-.86-1.47-1.07-1.91l-2.67-5.5-4.31-9.34c-.77-1.68-1.77-3.21-2.79-4.87-.87-1.42-2.03-1.89-3.67-2.32l-6.04-1.61c-.83-.22-2.28-.4-2.89-.36-.61,5.61-4.11,2.35-8.38,6.52-3.96,3.86-2.42,1.75-6.44,5.64-.65.63-3.17-1.58-2.33-2.25l6.48-5.16c3.59-2.86,4.91-2.1,8.81-5.02-5.89.29-2.91-.25-9.33-.14-.72.01-2.69-.16-2.92.51-.34,1-.9,2.76-1.29,3.65l-2.68,6.15c-3.26,7.48-.8,5.88-4.52,12.87s-4.07,13.6-7.23,21.05l-1.62,3.83c-.66,1.57-1.54,3.24-2.06,4.84-1.01,3.09-1.57,6.32-2.91,9.19s-2.35,5.37-2.82,8.66c-.14.99-2.19,1.65-2.92.88-.51-.55-.29-1.95,0-2.78l1.44-4.15c1.37-3.94,3.18-7.41,4.48-11.33l1.47-4.44,1.46-2.72c.35-.65,1.81-6.19,3.06-8.4.47-.83.8-1.34.85-2.11.43-5.63,2.82-10.23,5.12-15.28.5-1.09.95-2.78,1.34-3.98l1.73-5.28,3.34-10-.63-.85c-1.49.37-2.71.72-3.51.74l-3.51.1c-2.17.06-3.77,1.07-4.48,3.15-.94,2.78-2.45,5.09-3.56,7.83l-2.22,5.47-1.8,3.68c-5.42,11.09-1.41,9.5-6.42,17.42-.99,1.57-.92,5.3-2.92,10.21-.88,2.15-2.78,4.59-3.15,6.81-1.46,8.7-1.15,4.65-3.43,12.67-.15.53-1.13,1.5-1.64,1.7-.43.17-1.69-.44-1.67-.9.15-5.41,2.32-5.02,3.32-11.8.18-1.2.41-3.12.83-3.97l1.65-3.35,2.18-4.43c.66-1.34.97-2.42,1.32-4.07.62-2.89,3.32-9.71,5.14-12.06l-.29-2.06,1.96-5.09,3.73-9.36,1.84-3.49,2.05-4.9c.2-.47.17-1.85-.15-2.18s-1.22-.48-1.85-.51l-5.54-.21c-.91-.03-2.64-.09-3.52.06l-10.6,1.81c-1.14.2-3.42,1.91-4.61.78-2.2-2.1-2.49-5.27-2.88-8.11l-.46-3.38-.8-5.07-1.47-9.31c-.15-.97-.34-2.21-.82-2.69-1.32-1.3-7.3.18-9.53.77l-11.14,2.95-2.91.73-3.02.68-8.01,1.36c-1.32.23-2.41.63-3.7,1.16-2.27.93-4.92,1.38-7.4,1.9l-5.28,1.11-7.61,1.61c-16.47,3.47-18.18,6.34-31.46,10.45-6.97,2.16-9.6,3.48-15.11,7.72l-2.82,2.17c-.64.49-1.17,2.38-1.72,3.07l-3.88,4.86c-1.15,1.44-.96,4.66-1.81,6.29-1.28,2.46-2.91,4.84-3.25,7.48l-.69,5.45c-.3,2.36-.78,4.64-.58,7.06l.45,5.45.28,10.82c.05,1.77.9,7.43,2.43,8.59,1.92.1,3.89.03,5.49.25l6.08.83,4.94.49,4.18.41c1.91.19,3.58.07,5.66-.04,1.68-.09,4.09.6,5.89.72l6.39.41,2.61.22,3.35.28c2.72.23,8.59.32,11.26.21l3.47-.14,2.91-.16,2.83.68c1.42.34,4.14-.32,5.85-.53l5.94-.71c.47.08,2.05.99,2.65.95l3.62-.28c6.71-.52,3.63,1.01,7.58-.78,3.4,1.02,2.45-1.21,4.12.01,1,.74,2.81.08,3.92-.03l8.43-.82,2.17.61,10.24-.21c2.77-.06,5.07.04,7.91.73,3.01.73,4.18-.36,10.38,1.09l4.96,1.16c1.06.25,2.26.21,3.39.47l3,.68,7.89.28c1.29.05,2.95.41,4.3.53l4.42.41,3.26.28,5.5.67,3.92.49c1.14.14,3.07.66,4.15.67l14.59.08,1.67-.93,3.81.57c.9.13,2.24-.04,3.35-.1,8.33-.48,7.72.59,14.62.17l3.32-.2c8.14-.49,6.1.84,12.48.1l4.96-.58c1.58-.18,5.31.77,11.05.17,6.4-.67,6.97.45,7.88-1.74l1.78-4.28,1.54-3.53c.9-2.07,1.64-4.11,2.41-6.26l2.12-5.87c2.73-7.56,1.73-2.19,3.79-11.67.24-1.09,1.73-2.3,2.74-2.63l1.72,1.84c.44.47-.23,1.77-.94,2.41-1.05.94-1.34,2.72-1.88,4.09-1.15,2.97-2.65,5.78-3.51,8.83l-1.59,5.62-1.55,4.38-2.79,7.89c-.5.46-.71.65-.36.33l4.06-.37,3.33-.3,6.49-.64c.57.09,1.8.34,2.39.28l3.64-.39c.82-.09,2.74.39,3.57.71.37.14.71,1.63.33,1.73-1.02.26-3.39.8-4.45.83l-6.04.19c-1.04.03-2.62.33-3.72.53l-7.82,1.41c-1.85.33-4.36-.09-6.32.2l-2.24.33-7.48.34c-5.09.23-3.55-.17-7.14.12l-7.51.61c-3.36.27-5.93-.9-13.57-.18-3.88.36-13.25-.65-15.24-.2l-2.44.55-16.61-.08-3.39-.11c5,.17-24.3-2.97-19.51-2.15l-4.86-.83-6.58-.49c-1.66-.12-3.54-.16-5.05-.44l-5.95-1.1-3.78-.61-4.75-.73c-1.06-.16-2.2-.23-3.24-.33l-4.24-.38c-1.38-.12-2.69-.19-4.02-.25l-6.37-.27c-1.9-.08-3.95-.48-5.74-.31l-3.6.35-4.43.42c-.61.06-1.85-.03-2.56-.09-8.53-.74-7.63.64-12.36.58l-4.51-.06-3.35.1-3.22.15c-4.32.2-8.53.16-12.86-.02-.98-.04-2.58-.46-3.44-.37l-9.24.96c-1.67.17-3.7-.07-5.44-.31l-4.31-.59-3.22.4-4.75-.69c-3.72-.54-8.68-.1-9.8-.32l-7.92-1.5c-1.43-.27-3.21-.28-4.7-.38l-3.33-.22c-2.96-.19-6.19.2-9.05-.39l-4.42-.91c-2.46-.51-5.12-1.42-7.66-1.45l-10.23-.1c-2.22-.02.49,2.72-1.47,4.48-7.32,6.56-.14,7.3-5.93,9.99.03.67-.08,2.71.18,3.55l1.93,6.22c1.61,5.2,6.33.74,4.85,5.83,8.93,8.08,22.12,4.01,32.34-.19-1.87-5.44-6.81-9.82-12.14-9.44-1.97.14-2.97.36-4.27-1.4-1.58-2.13-4.13-.09-4.61-2.46-.25-1.21,3.6-3.38,6.5-2.04l9.32,4.33c2.77,1.29,3.4,1.53,5.51,4.28l2.85,3.71c.42.43,1.55-.38,2.2-.92,5.09-4.23,7.56-6.15,13.54-9.39.69-.37,7.14-1.56,8.38-1.67l6.55-.6,4.22.79c5.44-.96,5.25.06,11.95.84l4.85.56,7.1,1.08c.72.11,1.94.11,2.75.12l7.19.12,5.89.11,5.47.41c4.51.34,8.96.19,13.47.07l3.84-.11c2.82-.08,2.45-.68,7.1-.49l9.14.37c1.2.05,2.58.54,3.82.31,2.9-.53,5.44-.5,8.19-.47l8.73.09c1.02.01,2.18.13,3.29.25l4.81.52c3.81-.85,3.9.53,6.52.37l4.93-.3c1.28-.08,2.53-.05,3.82-.02,4.18.12,8.18.11,12.35-.06,8.19-.33,4.27,1.42,12.43-.05,7.14-1.29,3.81,1.04,9.64,1.19,2.8.07,5.69,4.4,6.24,6.67,1.48,6.1-.4,5,1.39,12.72.38,1.64.86,4.43,1.95,5.43l3.61,3.34c.77.71,2.42.81,3.68.37,2.77-.97,2.29,2.05,4.2,2.04s5.38.08,7.34-.18l4.34-.56,3.51-.47c1.77-.24,3.61-1.63,5.03-2.99,2.78-2.67.45-4.88,1.92-5.62l2.5-1.25,1.14-3.84c1.26-4.23-2.23-9.68,5.76-13.92,1.71-.91,3.25-1.52,5.2-1.84l3.36-.54c.55-.09,1.89.03,2.54-.03,1.65-.15,3.04-.13,4.63,0l5.72.44,3.57.28,4.6-.35,6.06.56,3.79.52c2.04.28,3.87.37,6.1.42,4.55.11,2.32,1.88,9.07.93,2.56-.36,4.72-.35,7.18-.13,4.08.37,8.18.33,12.34.15,6.47-.27,3.08.44,10.61-.77,8.1-1.3,2.71.51,9.72-.51l3.08-.45c1.59-.23,3.25-.1,4.99-.05,1.64.05,4.17-.62,5.68-.01,2.11.84,4.07,1.73,6.05,1.76l3.49.04,12.47.16c1.25.02,2.65.11,3.79.07,2.65-.1,5.99-.13,8.36.57.57.17,2.13-.24,2.63-.13l9.2,1.96c2.15.46,8.94,3.17,10.28,4.44l5.86,5.55,6.14,4.31,2.82,2.41c2.71.73,8.22,4.02,9.69,4.35l5.5,1.24c1.84.41,6.61.78,9.1.35l4.64-.78,2.59-.46c1.32-.24,2.77-.55,4.06-1.16,5.76-2.71,4.58-1.85,9.14-6.68l-4.65-2.57c-.74-.41-1.03-2.71-1.38-3.52-3.06-2.95-4.72-3.27-8.91-4.04-1.99,3.39-8.43,6.51-10.65,5.9ZM353.93,80.11c.21-.07,1.68-.88,2.29-1.02l9.68-2.24c1.07-.25,1.9-.62,3.17-1.16-1.21-2.14-2.16-3.07-3.64-4.33l-6.8-5.83c.3,3.27,1.05,5.33,2.49,8.08.37.7-1.04,2.73-1.67,2.26-5.15-3.85-2.16-2.64-7.12-7.34-.79-.75-3.27-.81-4.16-.2l-3.31,2.26c3.71,6.83,5.23,5.13,9.06,9.53ZM345.47,84.13l4.7-1.93-3.32-3.22-2.46-2.44c-.61-.6-3.59-4.32-5.82-2.99l-2.77,1.65c.17.86.77,2.48,1.36,3.09l2.76,2.87,3.07,3.26c.38.28,1.92-.08,2.47-.31ZM506.23,88.41c.39-2.71-1.24-.25-4.15-3.16-.67-.67-1.57-1.67-2.09-2.1l-3.23-2.75c-2.32-.58-5.85,3.78-7.67,5.61,6.11,2.14,2.34-.47,9.75,1.98,2.92.96,2.92-1.07,7.38.42ZM622.99,134.85l-1.59,4.79.84.11,2.01-1.71,4.05-2.54c1.26-.79,4.99-4.11,8.63-6.52,6.01-3.99,3.48-3.95,11.57-9.12,1.4-.89,2.71-1.93,4.08-2.98.91-.7,1.99-1.19,3.05-1.91l6.95-4.72,5.5-2.83c2.35-1.21,4.42-2.69,6.6-4.24,1.35-.96,1.98-1.94,1.45-3.55l-1.11-3.41c-1.18-3.63-6.79-.34-10.29,1.32-5.21,2.48-3.26,1.1-7.37,2.48-4.5,1.51-8.81,2.79-13.37,4.06l-3.43.95c-3.45.96-5.02,1.04-8.31.56l-3.44-.51c-.59,3.04-.84,5.3-.82,8.58l-6.91,4.94-3.14,2.26c-4.7,3.38-5.68,2.48-7.94,7.23l7.46,2.05c1.95.54,6.63,1.45,5.54,4.72ZM633.74,140.92l2.74-3.58,3.3-2.25c1.07-.73,1.91-1.58,2.96-2.57.76-.67,2.26-1.46,3.18-2.13,5.45-4.02,2.65-1.55,8.11-4.94,2-1.24,4.16-2.36,6.03-3.75l4.04-3.02,2.51-1.91,2.65-2.23c5.99-5.03,6.54-2.47,9.24-6.45l1.38-2.04c-5.27.44-4.38,2.47-12.4,5.77-7.31,3.01-4.58,3.07-11.62,7.33l-4.06,2.46c-.5.3-1.56,1.36-2.15,1.65-7.75,3.78-4.31,4.58-8.26,6.73l-4.74,2.58c-2.7,1.47-1.79,2.71-4.56,4.54-2.11,1.39-4.32,2.67-6.08,4.26-1.73,1.56-3.11,2.72-5.5,3.46l-.91,3.94c-.17.73-.14,2.14-.07,2.91l4.16-3.4c1.1-.9,9.83-7.09,10.04-7.36ZM609.48,165.07l3.02-.02c.31-3.45,2.03-6.34,2.32-9.12l.52-5.01c.65-6.18.76-6.79,2.38-12.89.23-.85.77-2.93.09-3.39-1.12-.77-3.41-1.08-4.44-.88l2.85,1.48-.62,2.76c-1.33,5.96-1.15,2.42-2.12,7.18l-.85,4.17c-1.18,5.8-3.41,8.4-3.16,15.71ZM223.44,280.44l-4.33-4.17-2.19-.71c-.74-.24-1.51-1.83-1.2-2.64,1-2.63.32-4.37-.71-6.53-1.21-2.54-2.48-4.54-4.29-6.7s-3.38-4.55-5.05-6.87l-2.53-3.5c-1.15-1.6-2.92-2.85-4.31-4.37-2.19-2.38-.85-5.15-9.08-12.61l-3.76-3.41c-.59-.54-2.49-1.24-2.88-1.92l-2.16-3.77-2.37-4.13c-.72-1.25-1.48-2.56-2.37-3.59l-2.39-2.76c-.66-.76-2.32-1.79-3.39-2.29l-2.69-1.28c.12-2.84-1.29-5.38-2.93-7.26l-2.33-2.67c-2.24-2.56-4.81-5.27-7.95-6.47l-4.37-1.67.13-2.11-9.46,2.87c-4.52,1.37-8.28,0-8.25,3.01s-.25,5.32-.73,8.04l-1.32,7.43c-.26,1.47,1.65,4.3,1.83,5.82l.65,5.51c.12.98.29,2.34.28,3.13l-.06,4.54c-.02,1.31.76,6.76.83,8.04.15,3.01.23,12.51,0,15.12l-.57,6.53-.45,3.87c-.2,1.7-.62,4.2-.69,5.63,1.25,1.24.73,8.64.59,10.53l-.43,5.57c-.2,2.59.34,5.19,1.05,7.67l-1.48,10.76-.5,4.49c-.17,1.53-1.35,3.85-2.83,4.3-2.44.74-1.56-8.29-1.43-8.94,2.45-2.7,2.47-8.6,1.51-10.16-2.68-4.33.09-2.61.13-10.12,0-1.29-.02-2.42.13-3.69.93-7.69-1.49-6.82-.85-9.92l2.08-10.09c.23-1.12.26-3.03.32-4.27l.09-2.03c.13-2.05.29-4.16-.1-6.19l-1.61-8.61c.1.51.51-9.48.38-10.53l-.65-5.23c-.44-3.58-.36-4.69-3.21-7.24.22-5.01,3.52-9.3,3.14-13.78l-.53-6.24c-.05-.64-.77-1.27-1.46-1.41l-4.05-.79c-8.97-1.75-3.52-2.59-9.42-4.63-1.37,1.34-2.97,2.86-3.94,4.28s-1.62,3.32-2.94,4.07c-8.85,5.02-1.52,2.12-7.18,6.03-.79.55-2.48,1.62-3.06,2.41l-4.35,5.94c-1.32,1.8-1.95,4.07-2.34,6.4-4.28,2.67-6.43,6.02-9.76,10.22-4.41,5.56-2.6,6.07-6.07,8.08-3.69,2.14-4.94,3.38-7.94,6.75-1.87,2.1-2.76,5.17-3.59,7.68-.5.44-1.67,1.39-2.05,1.91l-5.99,8.08-2.09,2.76-2.26,3.29c-.62.91-1.17,2.05-1.62,3.17-3.06,7.62-1.6.52-3.71,8.98-.18.72-1.44,1.42-2.25,2-1.43,1.04-2.91,2.55-4.11,3.9l-2.11,2.37-2.39,3.4c-1.76,1.27-2.49,2.56-3.5,4.37-1.19,2.13-2.92,4.26-4.39,6.32l-2.48,3.47-2.93,4.37c1.26.8,5.14.98,6.36,1.03l4.05.17,11.65.14c1.94.02-.05-1.13,7.09.2,4.68.87,8.99.9,13.73,1.48l3.75.46,12.27.02,8.39.13c1.48.02,2.85.06,4.32,0l4.89-.23,5.04.02,5.87.15,5.84-.33,4.42.3,4.97.38,4.84.35,3.32.24c9.49.68,4.89-.47,14.08-.29l3.66.07h6.09c4.25-.01,6.77-.26,11.45,1.16l2.55-.02,3.61-.02c1.45,0,4.14.51,5.6.63-1.53-.13,9.72-.52,9.3-.48l5.51-.51c.8-.07,2.48-.44,3.24-.27,5.71,1.27,4.87-1.38,16.15.1,2.71.35,5.23,1.15,7.85.88l5.2-.54c.52-.05,1.99.5,2.45.5l12.69-.04c-1.04-2.5-1.97-4.62-2.76-7.01-.26-.78-.47-1.96-.83-2.61-1.01-1.84-1.76-3.29-2.62-5.13-2.71-5.84-4.69-3.97-5.71-6-1.15-2.26.93-1.5-.52-5.49-1.06-2.91-2.15-4.92-4.55-7.24ZM642.12,317.22l6.6-.37c3.71-.21,7.5-.24,11.17,0l3.39.22c2.95.19,5.79-.05,8.8-.18l9.1-.41c2.32-.1,4.34-.26,6.63.02l4.91.59c2.78.33,5.73.13,8.56.06l3.37-.08,2.22-.11-2.16-4.88c-2.7-6.11-1.17-5.77-3.84-11.35-1.62-3.39-3.07-3.41-3.63-7.26l-4.42-6.83c-.52-.8-1.54-2.14-2.11-2.71l-5.51-5.5c-.61-.61-1.91-1.53-2.65-1.58l-1.9-.11c-.42-.02-.4-1.37-.43-1.92-.34-4.78-3.08-7.08-5.12-10.2l-3.32-5.09c-2.8-1.43-1.6-1.54-2.67-4.14-.65-1.58-1.98-3.1-2.87-4.6-.48-.81-1.01-2.19-1.49-2.85l-2.62-3.62c-.96-.92-2.99-2.17-4.31-3.1l-.3-2.37-2.42-4.18c-.26-.45-1.07-1.27-1.51-1.73-2.38-2.51-4.74-5.11-7.88-6.72-.86-.44-2.97-.68-3.53-1.26l-1.99-4.07c-1.24-2.54-3.01-4.38-5.91-5.03l-1.18-4.41c-.45-1.67-1.94-3.5-3.33-4.63-.64-.52-.97-1.11-1.33-1.92-1.35-3.11-2.91-5.92-4.71-9.05l-4.79,4.88c-1.91,1.94-9.2,4.06-12.12,4.63l-8.2,1.61-2.12.4-.75,4.91c-.3,1.99-.24,4.14-.18,6.18.03,1.09-1.41,3.2-1.58,4.29l-.61,3.89-.68,4.82c-.15,1.04.08,3.15-.44,3.95-2.82,4.32.59,1.62-1.23,6.75l-.31,1.49c-.91,4.4,1.94,12.21,1.27,13.59-.75,1.57-2.1,3.28-2.27,4.49-.77,5.74-1.42,1.65-1.96,9.39l-.25,3.68-.41,6.02c-.32,4.75.84,3.29-.91,4.93-.88.83-1.61,2.05-1.76,3.12-.73,5.42-1.04,6.49-.83,11.91l.13,3.3.17,4.03c.05,1.3.66,2.69,1.43,3.98l.06,2.25.09,3.13c2.97,1.96,2.68-1.37,7.7,1.33,1.52.82,3.3.24,4.17-.99l.66,1.54c3.3-.71,6.26-.18,9.38-.29l8.63-.31,3.73-.88c2.56,1.17,5.61,1.08,8.16.65.56-.09,2.05.16,2.59.03,4.75-1.14,6.73-1.04,11.58-1.32ZM500,316.75h8.49s3.42.49,3.42.49c4.06-.64.85.87,6.2.58,1.02-.06,2.82-.55,3.73-.43,1.48.21,2.84.33,4.11-.01,6.8-1.86,3.41.93,6.76.09,2.13-.54,3.86-.94,5.82-1.09l5.76-.43c1.92-.14,3.67-.22,5.58-.16,2.2-.18,4.36.21,6.4,1.24l2.32-.52c1.32.48,3.32,1.2,4.58,1.14l3.89-.17c1.1-.05,2.26-.06,3.32-.02l3.42.15c1.86.08,4.22-.54,6.07-.82l.98.02-.5-4.19c-.24-2.05-.05-4.17.17-6.32.21-2.02.14-4.33.52-6.17,1.12-5.48-.45-4.03.31-9.4l.94-6.61c.82-2.68,1.44-5.25,2.03-7.93l.98-4.45,2.32-8.43c1.26-4.57-.15-6.43-.17-10.07l-.03-5.63.7-3.58c-.47-1.72-.26-3.72.46-5.21.31-.65-.24-2.36-.23-3.11.02-3.28,1.58-6.26,2.36-9.35l1.15-4.57c.98-3.88-.79-1.8.07-6.29l.91-4.76c.17-.89.54-2.11.89-3.48-1.53-.94-2.73-.67-6.76-1.53-8.44-1.81-5.01-2.12-8.81-3.69l-4.61-1.9c-5.79,1.48-7.05,3.59-10.16,8.57l-2.74,1-5.56,3.81c-.64.44-1.86,1.66-2.44,2.34l-3.71,4.3c-.53.62-.72,2.76-1.3,3.23-2.38,1.93-4.31.43-7.27,4.23-1.35,1.73-2.81,5.02-2.95,6.92-.08,1.01,2.3,2.59.88,4.14-1.87,2.03-.95-1.82-5.26,2.67l-2.91,3.03c-4.55,4.73.38,6.81-.91,8.17-2.02,2.13-5.42-.66-7.58,1.7-1,1.09-2.15,2.23-2.69,3.24l-3.3,6.06-3.1,6.25c-.43.88-1.57,1.81-2.44,2.41-4.53,3.17-4.26.96-6.72,3.54-1.18,1.24-1.81,2.62-2.34,4.37-.97,3.17,3.07,4.02,1.76,6.17-.33.53-1.79,1.27-2.42,1.14l-2.71-.54c-2.01,1.18-3.82,2.61-5.6,4.17l-2.09,1.83c-1.97,1.72,1.05,1.13-2.17,5.81l-2.21,3.22-2.64,4.02c-3.9,5.93-3.8,2.77-3.89,2.86l.78-.79c.28-.28.6-1.05.79-1.7-2.14,1.88-3.85,6.73-2.93,9.27l6.29.35,4.39.17c2.14.08,4.33.06,6.36.29,1.75.2,3.29.38,5.25.38ZM364.62,214.71c5.36,1.87,9.55,1.03,14.25-.87l3.2-1.29c-1.58-4.83-6.73-4.13-10.42-3.33-4.64,1.01-2.63-.66-8.44-.01-.38.73-.89,1.84-1.28,2.15l-2.08,1.68,4.77,1.66ZM384.35,216.46l-7.98,2.29-5.42.67c-1.79.22-3.94-.12-5.5-.72-.51-.19-2.03-.31-2.53-.54l-4.62-2.15c-1.34,3.84,1.6,8,5.65,8.91,1.5.34,3.61.8,4.93.74l7.16-.34c2.88-.13,7.69-2.68,9-5.53.42-.92-.2-2.86-.69-3.33ZM355.86,232.62l4.36,2.82c.49.32,1.1.29,1.93.11,2.36-.51,4.85-.18,7.28-.22l3.87-.07c2.29-.04,9.87-2.72,11.45-4.17l2.71-2.48c2.51-2.3,1.42-9.27.07-7.37l-2.5,3.51c-3.02,1.42-8.04,3.04-11.18,3.5l-4.33.64c-4.27.63-7.4.12-11-2.25-.92-1.51-1.83-2.22-3.52-3.27l-1.39,4.87c-.48,1.67.81,3.43,2.26,4.37ZM389.79,410.1l1.03-3.48,1.14-3.85c1.33-4.51,1.57-1.53,1.79-6.32l.25-5.34.47-6.59c.04-.52.72-1.54,1.13-1.27.45.28.69.93.73,1.62.42,6.81,1.4,6.78-.02,12.2-.17.67.3,2.49.04,3.08l-1.86,4.19c-2.3,5.19.09,2.53-1.96,7.21-.79,1.81-1.96,3.4-3.09,5.04-3.03,4.41-1.72,4.21-5.02,8.6.56-.11,1.54-.52,2.24-.93l3.2-1.89c1.68-.99,4.89-1.9,4.69-4.41-.34-4.26.18-1.94,3.85-7.7.84-1.32,1.37-3.24,1.72-4.77l1.12-4.93c.37-1.64.74-3.36.9-5.02l.48-4.99c.59-6.08,1.19-3.29.72-7.7l-.5-4.7-.5-3.39-.75-7.25c-.14-1.38-.45-3.16-.82-4.5l-2.22-8.22-1.17-4.19-1.15-3.82c-2.25-7.49.31-1.77-2.62-10.9l-1.07-3.34c-.45-1.39-.8-2.83-1.18-4.26l-1.6-6.07-1.58-5.29-2.35-8.09-1.98-4.72-2.27-9.35-.35-3.42-1.35-5.83c-.35-1.51-.6-3.04-.8-4.64l-.86-6.61-.25-6.39-.5-5.5c-.03-.34-.27-1.1-.4-1.37-.23-.47-4.24,1.24-4.22-.72.03-2.51,4.58-1.14,4.99-3.09l1.22-5.78.74-3.07-2.42.24c-.49.05-.15-1.6.25-1.9l3.08-2.33c1.23-.93,2.43-4.81,2.85-6.21l1.01-3.39c-.48.04-1.51.18-1.84.34-7.26,3.67-6.66,2.26-11.68,2.69l-7.11.61c-1.05.09-2.27.29-3.35.46l-.02.88,1.36,2.46c1.03,1.86,3.84,4.22,6.31,4.53l4.34.55c.31.04.89,1.13.59,1.2l-1.07.25c-1.14.26-2.88.71-3.77.71h-3.67s.63,4.14.63,4.14c.22,1.45.34,3.13.23,4.52l-.29,3.8c-.16,2.11-.17,4.27-.2,6.45l-.06,3.8-.23,7.11-.35,6.48c-.07,1.21-.67,3.07-.81,4.34l-.53,4.99c-.23,2.14-1.09,4.36-1.51,6.43-.38,1.86-.55,3.86-1.03,5.61l-1.55,5.6c-.82,2.95-1.51,5.97-2.72,8.76l-1.83,4.2c-.56,1.28-.97,2.55-1.45,3.93l-3.22,9.17-2.35,6.35c-.48,1.3-.85,2.94-1.24,4.31l-1.67,5.85c-.76,2.66-1.49,5.24-2.45,7.81l-1.5,4.01c-.22.59-.43,1.94-.65,2.69-1.61,5.59-3.13,10.91-4,16.64l-.79,5.19-.93,6.55,1.71,3.26c.57,1.09,1.03,2.97,1.1,4.22l.2,3.84,1.38,3.21c.66,1.53,1.68,3.05,2.83,4.2l2.5,2.49c.35.35.96,1.51,1.41,1.7.75.32,2.25.72,2.74,1.15,4.04,3.49,6.99,3.92,12.45,5.06l4.51.94c1.04.22,3.34.72,4-.04l2.06-2.37c4.69-5.4,1.51,1.11,5.8-7.32,3-5.91,2.7-1.46,4.92-7.66l1.64-4.58c.13-.36,1.09-.94,1.45-1.01,2.09-.4-1.01,7.35-1.31,8.01l-1.39,3.11c-.28.64-1.62,1.68-2.04,2.31l-4.18,6.14c-.6.88-1.16,1.52-1.97,2.56,1.96.09,3.96.05,5.84-.16l1.45-3.55c2.1-1.63,8.2-12.37,8.54-13.54ZM219.27,331.15l4.62-.37c1.1-.09,2.79-.44,3.67-.58.89.17,2.4.53,3.37.35l5.32-.99c1.31-.24,2.34-2.31,2.17-3.54-9.17,1.39-9.31-.87-20.99.08-1.47.12-3.19.52-4.24-1.17-.45-.72,1.44-1.79,2.37-1.87l6.6-.61c1.52-.14,2.96-.07,4.5-.02l8.5.31c7.36.27,7.57-.62,13.37-5.75,1.04.34.79.04.02-.63l-4.75,1.28c-3.29.89-6.41.43-9.75.32l-10.65-.36-3.92-.14-4.36-.24-5.43-.41-5.25-.39c-3.86-.29-7.62-.33-11.62-.33-5.58,0-2.78.97-11.23.41l-4.06-.27c-7.88-.52-4.79-.8-12.48-.31-5.38.34-10.74.12-16.17.12h-3.35s-21.13,0-21.13,0c1.03,0-7.23-.83-7.02-.84l-3.31.09c-1.92.05-3.95.34-5.82.14-4.76-.52-5.32-.44-9.87-.16l-3.36.21-14.06.07h-3.31s-5.47-.34-5.47-.34l-11.22-.37-3.93-.16c-1.12-.05-2.61-.13-3.7-.3l-4.79-.74c-1.18-.18-2.29-.3-3.49-.31l-18.41-.07-5.43-.5-2.69-.16-2.91-.16c-2.71-.15-5.08-.06-8.44.07l2.48,2.7c.47.51,2.3.25,3.05,0,2.4-.77,1.96.23,7.87.47,5.61.23-.67,1.17,7.31.79l4.18-.2c1.05-.05,2.92.43,4.17.58,4.22.51,7.46-.18,7.12,2.67-.1.86-1.95.78-2.79.79-1.86.02-3.78.18-5.56-.07-1.41-.19-3.25-.76-4.34-.65-2.18.22-3.82.27-5.81.04l-3.66-.42-4.11-.55c-.24-.03-1.13.19-1.01.37l2.29,3.67c2.15-.07,8.39.47,10.54.84l6.05,1.05c1.7.29,3.91.19,5.71.37l5.45.54,4.94.4,6,.4c5.37.36,6.73.13,11.53.45l6.81.47c1.75.12,3.24.08,5.12-.07.96-.04,2.31.03,3.32.1l5.78.42,7.66.41,4.92.42,18.75.16,2.45.42,9.7.17c1.73.03,3.65.36,5.25.28l3.38-.15c1.32-.06,2.6.03,4.01.12,2.3.16,4.55.1,6.84.13,6.72.1,6.7.97,7.87,1.13l2.99.41c.66.09,2.29-.9,3-.9l10.51-.04,2.53.49,14.81.11c.53,0,1.8.83,2.26.69.94-.3,2.89-.57,3.89-.52l3.36.19c5.43.31,10.49-.4,10.78-.38,1.47.11,3.37.4,4.71.29ZM652.11,330.82l24.76-.09,4.87-.49c3.94-.4,7.68.09,11.51-.2l5.24-.4c4.08-.31-3.09-1.94-2.71-1.9l-4.58-.57-.94-.12c-.13-.02.04-.72.13-.81,3.19-2.97,6.7-.56,10.49-1.83,4.61-1.54,1.52.21,8.99-.16.4-.02,1.24-.83,2-1.48l-.69-.91-4.48.12c-5.27.14-10.4.47-15.66-.01l-4.88-.45-4.54-.06c-3.01-.04-5.79.43-7.28.38l-5.07-.17-3.27-.13-3.27-.13-5.03-.24c-2.75-.13-5.71-.3-8.45-.03l-4.49.44c-.96.09-2.15.02-3.29.02l-11.19-.06-2.44.53c-1.62.36-4.46.05-6.26-.16-7.69-.92-6.08.51-15.73.03l-3.53-.18c-6.31-.31-10.25.38-15.08-.27l-7.13-.96c-6.03-.81-7.65,1.7-15.59-.18-1.45-.34-3.07-.35-4.53-.36h-2.09s-20.6-.18-20.6-.18c-6.06-.05-4.19.84-9.29,1.06l-8.08.35c-2.32.1-4.31.09-6.63,0l-9.11-.38-6.06-.45-8.06-.68c-3.25-.27-6.11-.34-9.46,0-1.79.18-4.41-.81-6.32-.81h-5.37c-.18.86.12,3,.89,2.97,1.1-.04,2.67-.21,3.52.03,2.61.74,5.47.45,7.95.55l2.18.08,4.94-.8c-.96.15,5.86-.07,5.28,1.56-.81,2.26-3.03.54-8.3,1.85-2.14.53-3.7.51-5.84.6l-5.41.23c-.27.13-.23,1.63.23,1.78.37.12,1.36.25,1.76.25l6.42-.03c.99,0,2.27.18,3.45.38,6.61,1.1,3.74-1.62,9.21.48,1.5.58,3.38.9,5.03,1.04l5.56.45c6.23.5,5.67,1.5,10.97,1.18,6.11-.36,8.67-.02,14.57-.05l11.86-.07c.8,0,2.45.41,3.22.6l1.88.47c3.06-1.7,3.84,1.38,7.79-.66.26.1.72.36.92.28l.86-.33,1.24.93,4.18-.42,4.72-.47,3.56-.32c2.95-.26,6.08-.13,8.93.01.9,1.19,1.95,1.68,3.65,1.49.12-.22.19-.35.07-.43l-.77-.48,4.85.12c1.11.03,3.17.54,3.91-.08.48-.4,1.67-1.63,2.16-1.42s1.05.56,1.73.99c.97.23,2.66.61,3.63.65l8.11.33c2.3.09,4.31.06,6.62,0l13.92-.39,5.01-.22,3.85-.16,5.57-.23c3.65,2.73,2.83-2.23,6.92.7l2.38-1.52ZM705.35,328.46l-2.64-.79.64,3.04,2-2.25ZM45.03,344.37l-2.44-3.06c-.91-1.14-1.57-2.88-2.07-4.43-3.44-3.12-2.26-9.01-6.3-7.24l.76,4.91c1.1,7.15,3.73,8.34,10.05,9.81ZM217.85,335.15c-2.65-1.7-5.77.6-7.09,2.11l-2.74,3.12c-.21.24-1.36.18-1.59-.04-1.41-1.42.31-3.67,1.99-5.09-3.44-.92-3.98.16-6.39.03l-6.38-.33c-2.82-.15-5.39-.19-8.17-.17l-3.93.04-4.83-.2-4.93-.38-4.24-.37c-2.07-.18-4.13-.45-6.12-.24l-2.79.29c-5.32.55-3.23-.38-9.6-.28l-5.52.09-2.65-.12-11.37-.18-2.03-.03-5.65-.23-6.46-.34c-5.02-.26-3.23.03-7.29-.17s-8.22-.23-12.41-.16c-1.26.02-2.86-.03-4.18-.17l-7.85-.85c-5.21-.56-6.42-.09-12.87-.41l-3.24-.16-12.45-.21-3.26-.13-4.22-.24,2.81,6.11c.37.8,1.32,2.29,1.76,3.08.53.95-3.94,3.97-7.78-9.11-.3-1.03-3.22-.87-4-.13-.53.51-.97,2.35-.77,2.96l1.99,3.45,2.13,3.82c.96,1.72,5.37.82,4.71,2.2-.34.71-1.56,1.47-2.55,2.06.36.11,1.97.6,2.62.62l9.74.23,8.18,1.36c2.53.42,4.73.46,7.22,1.07,1.23.3,2.5.39,3.73.43l6.5.22c.7.02,2.09.54,2.72.82,6.87-2.11,6.18.59,13.44-.4,8.02-1.09,5.33,2.56,9.93.75,4.07-1.6,6.25.37,13.44-.14l3.2-.23,4.36-.41c1.14-.11,2.26-.17,3.35-.21l4.92-.2,4.44-.18c.88-.04,4.56.84,6.92.57l4.87-.56c2.82-.32,5.48-.37,8.29-.01l6.73.86c-.89-.11,12.1-.05,11.6,0l6.07-.51c3.64-.31,10.59-2.54,14.09-2l5.25-1.64c1.09-.34,1.78-1,2.36-1.97l3.47-5.79,2.54-2.31ZM686.01,334.43c-.98-.03-1.93-.05-2.67.01l-5.4.47c-.93.08-2.29-.02-3.29,0l-6.56.15h-16.21c-7.11.01-6.74.82-12.57.7-3.42-.07-6.78-.16-10.15.11-2.65.21-5.02.29-7.59.14l-3.41-.2c-3-.18-5.96-.03-8.95-.07l-5.73-.09c-1.48-.02-3.86-.91-5.17-.81l-4.01.31-4.42.38c-5.52.47-7.61-.18-11.89.02l-5.95.28c-1.45.07-3.39.53-4.84.45l-5.69-.31-3.14-.19c-1.48-.09-3.29-.13-4.71.08-3.28.49-6.18.09-9.43.04l-18.32-.32-4.22-.08c.07,1.99,3.97,2.71,3,4.2-.18.27-1.2.43-1.62.37-3.49-.54-2.09-4.48-4.26-4.44l-8.23.17c-.67,1.15,5.54,5.93,2.85,5.83-.73-.03-2.24-.58-2.73-.98-3.95-3.17-1.59-2.8-3.94-5.84l-7.75-.44c-.15.06-.84.33-.71.28.59,1.21.99,2.24,1.36,2.74l2.37,3.23c.51.7,1.87,2.18,2.64,2.55l3.4,1.61c-.32.46-1.14,1.48-1.55,1.63-1.77.65-4.67-.66-5.89-2.25l-2.16-2.82c-.92-1.2-1.87-3.18-2.82-4.04-1.2-1.09-2.12-1.9-2.1-3.26l1.38-.99-5.81-.09c-.14,0-1.01.35-1,.36.01.01.23.38.39.62,2.9,5.7,3.11,4.33,7.2,9.09l2.5,2.91c1.95,2.27,4.94,2.76,7.66,1.73.86-.33,2.15-.5,3.14-.53,3.44-.09,6.52-.67,9.9-.91l8.28-.58c1.19-.08,2.46-.02,3.71.15,8.41,1.18,1.97,0,9.21.51l5.3.37c5.82.41,3.47.99,8.19.61l4.81-.39,6.03-.53c1.51-.13,2.9.08,4.36.23,1.17.12,2.85,0,4.07.22,5.39.93,2.84-.32,8.83-1.05,1.88-.23,3.72-.17,5.55-.19l4.58-.05,11.2-.03,3.78.02c2.53.01,4.78-.17,7.33-.44,1.3-.14,3.08.42,4.25.44l5.84.11,4.13-.04,4.01-.05c.59,0,1.82-.23,2.6-.33,6.28-.84,8.99.85,11.4.66l6.66-.51c3.51-.27,6.78-.15,10.24.23,1.08-.15,3.25-.89,4.32-.9l3.32-.02c6.83-.04.36-1.31,6.36-3.87,1.29-.55,3.39-1.66,4.21-2.52l2.26-2.38c.25,1.16.08,2.87-.58,3.7l-3.25,4.09c1.05.58,6.42-.75,7.59-1.25,2.18-.95,7.83-4.77,8.52-7.68l-9.99-.31ZM223.01,340.95l.26-1.7,1.65-4.52c-1.65-.18-3.74.33-4.2,1.4-.56,1.28-.93,2.04-1.59,2.89l-2.21,2.86c-.75.97-1.59,1.78-2.54,2.75,2.05.41,7.22-.75,8.64-3.68ZM352.51,434.74l3.37,1.52c1.07.48,2.35.84,3.7,1.2,1.58.42,3.91,1.72,5.37,1.82l5.83.41c2.11.15,4.34-1.21,6.27-2.35.62-.36,2.1-.84,2.69-1.25l4.06-2.87c2.21-1.57,4.22-2.94,5.2-5.71l-4.32,1.79c-1.1.46-2.55.95-3.72,1.05l-5.08.47c-2.35.22-6.86,1.86-7.95,1.6l-3.39-.8c-1.3-.31-2.54-.19-3.85-.38-3.55-.52-7.31-1.89-10.42-2.87-.75.97-1.4,1.63-2.25,2.35.94,1.4,2.73,3.21,4.5,4.01ZM391.54,435.03c.49-.99.07-3.32-.2-4.45l-4.56,3.91-3.73,2.93c-1.56,1.22-3.75,2.1-5.52,3.14-2.61,1.53-4.93,2.55-8.17,2.14l-5.36-.69c-2.05-.26-4.33-.77-6.24-1.21-4.61-3.14-9.16-3.45-12.93-8.16l-1.9-2.37c-3.8,7.23.93,12.48,6.92,15.65,5.98-.5-.19,2.42,12.41,4.06,6.6.86,5.44-.44,9.85-.63l4.74-.2,5.2-3.61c3.94-2.74,7.32-6.1,9.47-10.49ZM359.8,457.4c1.34.55,3.17,1.35,4.18,1.42l4.35.32c1.54.11,4.36.86,5.58.14l3.19-1.88,2.42-6.39c-1.82.45-3.4,1.18-4.61,1.3l-6.15.57c-2.3.21-5.16.35-7.44.05l-7.06-.95c-.11,1.06.23,3.26,1.03,3.59l4.5,1.84ZM419.09,512.16c.74.3,2.2.17,3.1.31,2.63.42,5.47,1.14,8.06,1.73.93-.15,2.9-.76,3.76-.69l4.97.39c.99.08,2.1.37,3.07.57l2.21.45,3.37.67c1.69.34,3.62.33,5.43.54,2.59.31,5.07.91,7.72,1.41.98.18,3.18.28,3.74,1.09l2.55,3.64,3.95.25c2.99.19,5.72,1.27,10.31,1.93.51.07,1.79-.01,2.39.03.28.02,1.03.9.81,1.07s-.82.63-1.09.67l-2.57.38c-1.77.26-3.4.07-5.08-.2l-4.19-.67c.67.11-2.63-.76-2.58.45,0,.03.3.55.43.79,1.03,1.99,3.62,2.42,5.74,2.88l4.95,1.07c1.08.23,2.52.26,3.64.09,5.76-.86.9.88,9.08-.1,3.3-.39,6.79-.56,10.04-.42l.12-4.29-4.95.24c-1.16.06-2.97-.57-3.47-1.51.42-.67,1.73-1.23,2.38-1.31l5.89-.77.24-4.17c.1-1.81-1.39-3.34-2.88-4.13-1.1-.59-2.42-1.56-3.35-1.92l-4.01-1.58c-1.42-.56-13.78-3.49-15.51-3.54l-10.1-.28c-2.5-.07-5.02-1.12-7.43-1.82-1.52-.44-2.92-.56-4.58-.83l-5.01-.8-4.28-.59c-2.09-.29-3.74-.6-5.66-1.48-1.12-.51-2.61-.72-3.89-1.06l-4.35-1.14-3.57-1.66c-1.75-.81-11.32-1.77-12.61-2.13-7.67-2.18-3.22.03-11.38-2.16-6.94-1.86-8.2-3.35-13.58-6.61l-5.06-3.07c-1.72-1.04-6.63-4.2-7.39-5.41l-1.99-3.18c-1.28-2.04-1.38-5.52-1.09-8.02l.4-3.48c.06-.49-.07-1.79-.16-2.1-1.28.21-2.94.74-3.75.71l-5.17-.23c-1.39-.06-2.78-.17-4.07-.6l-6.99-2.32c-1.58,4.84-.03,5.37-2.12,9.3l-2.31,4.35c-3.77,7.09-4.92,7.93-11.71,11.63-4.2,2.29-5.26,2.44-9.55,3.64-1.83.51-3.64,1.02-5.53,1.41l-11.35,2.32-9.14,1.87c-2.4.49-4.7,1.01-7.21,1.3-1.21.14-2.6.3-3.71.54l-9.05,1.92c-1.21.26-3.29.99-4.4,1.39-2.25,1.85-4.47,2.91-7.37,2.63-4.35,1.31-4.34,3.12-8.94,3.04-4.08,2.98-5.55,3.22-10.81,4.36-.81.49-2.27,1.51-3.18,2.19l-6.19,4.68c-.77.58-2.45,2.13-2.83,3.03l-2.09,4.92-1.62,3.91c-.28.67.1,2.37.68,2.69,4.07,2.23,2.38.62,7.37,1.29l4.32.58,5.46.55c2.93.3,6.11.18,9.08.03l3.41-.17c.93-.05,2.98-.69,3.44-.95-.07-2.12-.04-2.86.13-5.08l-3.09-.37c-.67-.08-1.91.02-2.76.05l-9.65.28c-.95.03-2.42.27-3.1-.28-.47-.38-.3-2.47.29-2.82,1.74-1.04,5.28-.87,7.62-.47,2.15.36,4.93-.09,6.76.37,5.99,1.52,6.03-2.32,11.99-4.55l6.06-2.27c7.24-2.71,3.5-.1,7.7-2.09,6.46-3.06,9.89-1.79,10.73-1.96l8.1-1.65c2.06-.42,4.04-.78,6.07-1.07l6.05-.88,4.3-.71c1.15-.19,2.99-1.7,4.17-1.99,8.4-2.09,4.59-2.15,13.71-3.9l11.71-2.24c2.8-.54,4.74-1.91,7.27-3.7l3.81-2.69c3.16,3.04,5.91,4.85,9.64,6.46l11.34,4.87c7.06,1.15,3.33,1.43,12.09,3.28l5.04,1.06c1.44.3,2.91.67,4.35.88l4.4.65c1.18.17,2.69.81,4.08,1.37ZM495.5,536.13l2.68-.74-.8-.85s-.97.5-1.15.5l-7.24-.03-3.29-.12c-3.78-.13-6.32.53-11.83-1.08-1.78-.52-3.64-1.37-5.31-2.11-.9-.41-2.62,2.54-1.71,2.91l3.62,1.5c4.4,1.83,4.26.21,8.18,2.38,4.44-1.84,8.38-.03,11.68-.95l5.16-1.43ZM272.42,535.15l-4.7.84c-3.72.66-8.03.92-11.81.55l-8.32-.81c-2.08-.2-3.94-.54-6.02-1.1l-2.94.33-4.45-1.99-1.57.58,6.3,3.25c3.46,1.78,4.76,2.13,8.78,2.49l5.53.49c1.62.14,3.26.34,4.86.59l3.89.61c3.07.48,9.9-2.1,10.45-5.82ZM472.78,544.83l4.78.37,4.75.37c1.13.09,2.25.03,3.52-.04,2.99-.16,6.55-.18,9.49-.15.61,0,2.22.52,2.74.33,1.63-.59,4.74-1.84,6.03-2.95l3.33-2.88c.78-.68,2.4-2.2,1.66-3.25-.58-.84-2.29-1.88-3.27-2.18l-1.66,1.74-2.39.99c-1.07.45-2.65,1.6-3.74,1.92l-8.53,2.44c-4.58-.78-8.56-1.74-13.11-.54l-5.93-1.57c-.37-.1-1.42.01-1.51.33l-.29,1.16c-.14.55-.34,2.19-.24,2.74.96.73,2.92,1.08,4.38,1.19ZM277.04,540.46c.14-.63-.91-1.7-1.32-1.41-2.89,2.07-4.78,3.22-8.17,3.91l-5.06,1.02c-4.34.88-5.56-.61-8.22-.69l-7.13-.22c-1.12-.03-3.49-.38-4.56-.84l-4.9-2.12c-2.07-1.38-4.14-2.61-6.9-2.96-.99-.12-2.25,1.66-2.21,2.52.19,3.99,6.67,4.56,9.95,4.71,1.46.07,5.97,1.22,9.76,1.36l8.65.32c5.9.22,1.82-1.13,9.27-1.31,1.32-.03,2.97-.07,4.02-.29l3.58-.75c1.68-.35,2.72-1.03,3.23-3.26Z"/>
        <path d="M381.67,188.73c-1.37,3.71-7.11,7.26-10.54,9.17-.6.34-2.37.26-3.01-.02l-3.74-1.62c-2.72-1.18-3.52-3.45-3.51-6.16.03-4.43.38-8.98,4.71-11.97,1.14-.79,2.97-.48,4.03.31l5.12-.52c1.26-.13,3.71,1.36,4.69,1.91l1.7,3.62c.67,1.43,1.09,3.8.54,5.29ZM364.58,192.39c1.07-1.02,2.05-2,2.69-2.76l4.48-5.31c.07-.09,2.94-3.86,1.66-3.72l-.88.09c-1.64.18-3.1.57-4.38,1.34l-2.75.04-1.6,5.69c-.44,1.58-.96,3.53.77,4.63ZM368.35,194.37c2.1,1.24,9.48-4.28,10.25-5.44.32-2.87-.33-5.14-2.5-6.89l-1.6,2.93c-.96,1.76-2.26,3.51-3.38,5.2l-2.77,4.19Z"/>
        <path d="M134.63,179.81l-2.58,1.81c-2.54,1.78-9.83.18-10.73-4.16-.28-1.34-.19-3.64-.18-5.26l2.08-1.93c.68,2,1.03,3.57,1.49,5.63.66,2.94,5.05,3.64,7.26,1.65.45-.41,2.17-.16,2.29.41l.38,1.85Z"/>
        <g>
          <path d="M196.28,102.3c-.51.75-3.45,6.05-5.14,3.9-.35-.44-.49-1.66-.17-2.21l3.63-6.2-.98-4.56-2.65-.8c-.65-.2-1.51-1.33-1.48-2s1.5-1.59,2.23-1.41c.8.2,2.63.67,3.32,1.25,2.66,2.21,4.04,7.89,1.23,12.02Z"/>
          <g>
            <path d="M505.51,64.47c-.7.46-4.1,2.97-5.48,1.27-2.14-2.63,5.01-5.32,6.32-5.26.68.03,1.79,1.19,2.22,1.97l-3.07,2.02Z"/>
            <path d="M510.28,71.53c-2.18,3.55-6.91,3.64-7.42,2.22-.17-.47-.1-1.47.09-2.14.12-.41,1.29-.84,1.73-.92l4.16-.71,1.29-.2c.38-.06.38,1.37.15,1.74Z"/>
            <path d="M486.05,75.24l-2.11.21c-.4.04-1.27-.45-1.5-.79-.29-.43.48-1.78.99-1.92l3.11-.82c1.41-.37,2.6-.07,3.33,1.22-1.16,1.36-2.32,1.95-3.82,2.09Z"/>
            <path d="M492.22,65.56c-1.23,2.34-4.37,1.35-5.77-.1-.38-.39-.57-1.44-.35-1.87.72-1.37,4.96.23,6.12,1.97Z"/>
          </g>
        </g>
        <g>
          <path d="M56.18,321.34l-2.96-.34c-.42-.05-1.22-1.38-.92-1.74,1.12-1.33,4.78-1.55,5.8.7-.12.33-1.43,1.43-1.92,1.37Z"/>
          <path d="M65.62,337.86c.18.69-2.23.78-2.91.42-2.6-1.39-5.25-4.17-3.55-6.69.24-.36,1.62-.15,1.91.18l3.27,3.69c.37.42,1.03,1.44,1.28,2.4Z"/>
        </g>
        <path d="M512.56,325.51l-3.91.79c-1,.2-2.48-.47-3.71-1.48,1.15-1.97,6.75-1.62,7.62.69Z"/>
      </g>
    </g>
  </g>
</svg>