<?xml version="1.0" encoding="UTF-8"?>
<svg id="Layer_1" xmlns="http://www.w3.org/2000/svg" version="1.1" viewBox="0 0 444 580.37">
  <!-- Generator: Adobe Illustrator 30.2.1, SVG Export Plug-In . SVG Version: 2.1.1 Build 1)  -->
  <g id="xHbOTJ.tif">
    <g>
      <path d="M206.85,0l2.12,1.45c1.02.69.43,1.48.89,3.82l.64,3.26c.57,2.9,2.17,3.85.54,5.07-3.69,2.77-3.02.16-6.5.8-.84.15-1.73.09-2.54.12l-2.54.1c-3.13.12-2.46,1.75-5.04,2.61-4.99,1.67-2.67-1.01-7.09,1.13-.35.07-1.38.09-1.69.2l-2.31.79c-3.69,1.26-4.23,2.01-6.36,2.67-1.45.45-2.77,1.08-4.08,1.8l-2.06,1.12c-3.86,2.11-.83-.03-3.99,1.86l-2.44,1.46-2.13,1.37c-2.36,1.52-1.81.55-5.75,3.27l-1.89,1.31c-.9.62-2.16,1.12-3.19,1.67-.7.37-1.58.95-2.23,1.12-2.72.7.42.04-2.76,2.25l-1.67,1.16c-.64.44-1.57.84-2.22,1.24l-3.21,1.97c3.86,1.19,2.35-.01,5.46,2.74l2.05,1.82c.78.69,2.91,2.76,4.1,2.22l4.6-2.08,5.53-2.49,3.98-1.63,4.71-1.85,4.64-1.67c2.59-.93,3.46-.8,5.78-1.52l4.29-1.33,2.09-.64c1.14-.35,2.4-.7,3.55-.86l2.49-.34,3.22-.59,4.93-.73,3.49-.69,3.2-.63,2.02-.43,3.14-.71c.96-.22,1.91-.42,2.88-.58l3.54-.58c3.9-.64,5.62-.59,8.84-1.23.77-.15,1.91-.46,2.61-.47l7.29-.17c1.25-.03,2.5-.25,3.76-.41,1.4-.18,2.84-.12,4.23-.12l3.17-.02c.46,0,1.28-.17,1.8-.13,1.49.09,2.8.06,4.17-.05l1.76-.13c.7-.05,8.66-.06,8.98,0l2.69.46,3.95.64,2.81.42,2.05.23c1.2.14,2.25.22,3.56.27.81.03,1.76.34,2.52.47l6.87,1.17,2.75.45,2.77.43c.76.12,1.56.27,2.32.44l3.19.69,5.15,1.12,2.55.59c.76.18,1.65.41,2.41.68l3.07,1.09c3.68,1.31,1.17-.26,4.43,1.03l3.54,1.39c1.79.7,2.51.59,4.95,1.64l2.46,1.05c.57.24,1.46.86,2,1.06l2.86,1.04c1.34.49,6.02,2.53,7.24,3.23l2,1.16,2.2,1.28c.92.54,1.95,1.12,2.81,1.69l6.28,4.2c.5.33,1.36.96,1.75,1.31l2.76,2.54c.54.49,1.1.97,1.69,1.41l1.81,1.35c.6.45,1.2.86,1.84,1.28l1.68,1.09c1.25.81,2.57,1.64,3.73,2.85l1.56,1.63,2.06,2.12,1.77,1.79c.48.48.97,1.46,1.4,1.99l1.71,2.15,1.38,1.75,1.4,1.81c2.26,2.93,1.18.76,3.75,4.21l1.62,2.18,1.5,2.01,1.5,2.01c.38.51.78,1.38,1.14,1.94l2.05,3.19c1.88,2.93,1.55,2.01,2.92,4.01l1.45,2.11c1.85,2.7-.1.67,2.74,4.84.26.39.58.9.8,1.31l2.41,4.63c.23.44.38,1.23.53,1.93l1.01.93c.66,1.57,1.32,3.02,2.11,4.52l1.08,2.06c.4.77.53,2.36,1.08,3,1.34,1.53.8,1.25,1.96,3.44l1.69,3.18,1.06,2.09,1.99,3.93.89,2.21,1.86,4,.34,1.75c1.71,1.23.03,1.29,2.12,4.54.13.57.14,1.95.34,2.48l1.03,2.79.74,2.1c.52,1.49.96,3.02,1.29,4.59l1.17,5.46c.23,1.09.42,2.19.56,3.3l.41,3.35c.05.42-.04,1.31.06,1.66.88,2.87,1.15,5.41,1.06,8.26l-.08,2.53c-.03,1.02.11,2.26.14,3.36l.11,5.28.1,3.11.18,3.12.1,4.35-.27,2.91c-.15,1.63.17,3.05-.05,4.6l-.35,2.51c-.11.78-.2,1.61-.27,2.36l-.15,1.78c-.07.79.07,2.29-.13,2.98l-1.29,4.36c-.16.54-.21,1.39-.32,1.91l-.36,1.73c-.09.42-.22.99-.3,1.48l-.54,3.31c-.33,2.01-.85,3.9-1.46,5.85l-.79,2.52c-.86,2.75.66-.12-.57,2.18-.4.74-.72,1.59-1.04,2.46l-.85,2.33c-.37,1-.62,1.84-.83,2.95-.63,3.29-2.25,7.86-3.49,11.04-.65,1.67-1.13,3.49-1.92,5.1-1.98,4.02.09,1.34-1.68,5.27l-.97,2.16-1.12,2.77c-.21.51-.95,1.32-1.24,1.87-.47.91-1.26,3.54-2.01,5.32l-1.13,2.69c-.31.74-.61,1.87-.93,2.51l-1.54,3.06c-.32.64-.53,1.51-.84,2.26l-1.6,3.85c-.46,1.11-.56,2-1.33,2.96-1.31,1.63.16,1.07-1.43,2.69-2.62,2.66-2.03,3.12-4.71,6.08l-2.68,2.95-1.34,1.43-3.76,3.92-1.72,1.77c-.28.29-.75.83-.99,1.03l-2.65,2.27-1.52,1.27-1.74,1.43c-3.55,2.91-2.75,2.72-5.71,5.08l-1.55,1.24-1.73,1.42-1.93,1.59-2.44,1.7c-.86.6-1.58,1.5-2.41,2.08l-1.71,1.19c-.36.25-1.01,1.03-1.41,1.34l-2.15,1.68c-.59.46-1.2.86-1.83,1.31l-1.81,1.29-2.02,1.49c-1.29.96-2.59,1.8-3.98,2.62l-2.01,1.19c-.6.36-1.39,1.26-2,1.68l-3.52,2.44-1.87,1.3-4.47,2.89c-.12.55-.21,1.94.07,2.46l1.08,2.07,1.47,2.83.85,1.43c.79,1.31,1.77.5,1.68,1.02-.04.23-.09.79-.16,1.04l-.14.54c-.03.13-.03.77.09.71l.82-.41c1.2-.61,2.22-1.25,3.37-1.87l4.55-2.44,3.45-1.81,2.06-1.33,3.17-1.76,1.79-1.02c3.78-2.15,1.95-1.74,5.87-3.57.59-.27,1.46-.76,1.92-1.11l2.38-1.88c.7-.55,1.33-1.19,2.03-1.77l3.83-3.14,2.67-2.25c1.01-.85,2.12-2.3,4.01-3.97l1.67-1.47,2.04-1.81,1.43-1.34c2.01-1.89,4.12-3.44,5.89-5.61.84-1.03,1.83-1.88,2.82-2.75l2.79-2.44,3.08-2.82c.49-.45.97-.9,1.4-1.37l2.18-2.38c1.58-1.73,1.43-.47,2.04-1.73,1.68-3.48.78-.96,2.2-3.4,2.35-4.01,3.02-3.75,5.47-7.11.25-.35.77-1.11.91-1.45l.83-1.97.73-1.73.54-1.27c1.05-2.46-.17-.6.61-1.74l.55-.8c.12-.18.51-.61.72-.76l1.62-1.21c2.77-2.07,2.62-.63,4.41-1.73l2.43-1.48,2.63-1.58c.74-.44,3.46-2.08,4.37-1.91s1.97,1.27,2.71,1.77l2.51,1.67c.29.19.82.8,1.07,1.04l1.41,1.4c.34.33,1.45.56,1.94.91.66.47,3.4,3.27,1.53,3.74l-1.16.29c-.25.06-.74.43-1.09.64l-3.16,1.95c-.25.15-2.63,2.88-2.99,3.59-.18.36.16,1.81-.22,1.96l-2.08.8c-.28.11-1.03.09-1.17-.13l-.41-.64c-.07-.11-.11-.04-.16.09l-.54,1.45c-1.14,3.07-.16,2.61-2.44,5.23-1.23,1.41-2.27,3.15-3.09,4.86-1.85,3.85-1.58,1.75-3.72,5.73-.4.75-.84,1.45-1.31,2.15l-1.27,1.86c-.71,1.04-1.18,1.9-2.25,2.7-.97.72-1.4,1.93-3.96,3.96-.34.27-1,.66-1.14.96-1.68,3.53-.34,1.3-3.03,4.62-.24.3-.6.67-.85.88l-2.84,2.42-1.53,1.26c-2.99,2.47-2.41,2.82-3.41,3.84l-3.17,3.22-2.57,1.83c.1-.07-3.14,2.87-3.5,3.25-3.34,3.48-4.13,2.25-6.67,4l-2.28,1.57-1.07.74c-1.13.84-2.24,1.49-3.46,2.11l-1.85.93-2.34,1.16c-.97.48-1.93.81-3.02,1.18-1.37.46-2.56,1.64-3.77,2.39l-3.06,1.9c-.66.41-1.8,1-2.49,1.19l-2.53.72c-1.36.39-2.7.93-4,1.54l-2.58,1.22-3.26,1.36c-2.25.94-2.8,2.34-4.03,3.22l-2.44,1.73c-.47.34-3.38.82-6.94,3.17l-2.11,1.39-2.18,1.31-2.12,1.4-2.14,1.93-3.86,2.09c-1.39.76-2.75,1.49-4.18,2.07-1.14.46-5.53,2.08-5.85,3.33l-1.74.69c-1.53.6-3.4,1.48-4.35-.26-.13-.25-.26-.57-.39-.54s-.54.15-.7.24l-2.77,1.69c-1.16.71-2.6,1.02-3.92,1.38-4.44,1.23-2.4.48-6.5,1.33l-2.44.51c-.46.1-1.16.41-1.7.63l-1.63.27c-.44.07-1.38.69-1.84.68-2.46-.08-3.6.09-6.13.95l-2.62.89c-1.84.62-3.07.17-5.25.95l-5.14,1.83c-1.99.71-2.95-.3-6.94.63l-2.73.63c-1.18.27-2.43.25-3.62.15l-1.81-.15c-.92.67-2.05.5-2.97.5-1.11,0-.61.71-4.52.58l-2.08-.07c-1.37-.05-2.79-.11-4.15.04l-2.43.25-3.84.2c-1.12.06-2.36-.23-3.51.12-1.91.57-3.64.32-5.55.14l-3.51-.33c-2.63-.25-8.82.12-9.52-.14l-2.44-.91c-1.34-.5-4.47.78-6.43.16l-1.36-.43-4.05-.72c-3.09-.55.53-.44-4.01-1.24l-2.47-.43c-.62-.11-1.6-.55-2.28-.71l-2.04-.47-2.56-.58-3.8-1.08c-3.55-1.01-1.57-1.47-3.59-1.83l-2.66-.48-2.22-.42c-.58-.11-1.69-.46-2.26-.71l-2.72-1.18c-4.14-1.79-4-.61-8.76-3.07-3.72-1.92-3.17-.53-7.6-2.47-1.14-.5-2.33-1.3-3.44-1.66-3.11-1-4.75-1.72-7.59-3.34-.69-.39-1.77-.66-2.65-.86-4.04-.94-2.61,0-5.57-1.28-3.61-1.57-1.98-1.42-5.22-2.21l-2.72-.67c-.14-.03-.5-.12-.6-.16l-1.27-.58c-4.33-1.99-4.26-3.23-7.19-4.1-1.18-.35-5.9-1.85-6.45-2.26-4.8-3.6-3.23-1.14-7.51-4.03l-3.16-2.13c-3.62-2.44-2.1-.67-5.37-3.61l-2.23-2-4.09-3.22-2.23-1.87c-.57-.48-1.05-.78-1.54-1.32l-1.97-2.14c-.23-.25-.97-.7-1.22-.91l-1.39-1.13c-.43-.35-.94-.9-1.35-1.37l-2.6-3c-1.6-1.85-3.81-3.36-4.06-3.89-2.25-4.72-3.39-2.15-5.96-6.28-1.79-2.88-2.04.21-2.89-4.63l-.52-.32-.42-.26-.63-.39c-.29-.64-.25-.15-.13.42.03.13.14.57.14.64l-.03,2.39c0,.06.27.15.55.26.42.16.72.49,1.01.96l1.09,1.74.27,1.87,1.15,3.27c.25.69.47,1.73.92,2.28,2.85,3.53,1.34,3.27,2.81,5.56,1.35,2.11.16.71,1.66,3.82l1.14,2.36,1.4,2.86c.21.43.85,1.07,1.17,1.55.54.8.97,1.9,1.42,2.78l2.72,5.29,1.19,2.31c.26.5,1.58,1.16,1.76,1.7l1.22,3.68,1.6,2.14.67,2.17c1.8,1.86.67,1.24,2.37,3.91.72,1.12,1.2,2.14,1.59,3.4l1.08,3.43,1,3.02c.11.32.82.89,1.04,1.17.93,1.17,3.14,8.87,2.87,8.28l.85,1.85c.08.17.12.64.16.7l1.47,2.31c.33.52.7,1.66.84,2.21.05.18.5.76.58.95l1.38,3.34.93,2.27c.17.4.48,1.11.45,1.56-.15,1.97.94,2.02,1.87,3.73l1.09,2.01,1.53,3.06c.25.49.24.53.35.99l.14.58c.03.13.11.58.14.64l1.04,1.99c.21.27.43.54.39.49l.78-.25.58-.18c.16-.05.33-.11.48-.16l.5-.19,1.72-.65c.08-.03.57-.37.63-.35l1.83.71c.91.35.16-.08,2.81-1.44l1.92-.99c.82-.42,2.35-.22,3.44-.42,1.27-.24,2.74-1.2,3.91-1.88,1.07-.62,2.12-.96,3.23-1.36l2.31-.83c2.11-.76.57.76,5.74-.9.87-.28,1.35-.29,2.4-.25,1.1.05,2.87-.16,3.87-.72l1.58-.88c1.17-.65,2.45-.82,3.74-1.21l3.7-1.12c.69-.21,1.54-.41,2.24-.5l1.85-.25c4.25-.57.18-.78,5.58-1.27.84-.08,1.7-.16,2.5-.33l3.5-.76c.94-.2,2.99-.09,4-.13.35-.01,1.2-.53,1.51-.57l2.76-.4c1.9-.27,2.01-.95,4.11-1.07,6.04-.36,3.25,1.16,9.59-.54l2.53-.68c.69-.18.4.81,1.23.57l2.18-.63c3.92-1.14,2.19.11,7.27-.96,1.17-.25,2.37-.43,3.53-.75,3.62-1,3.4-1.46,7.48-1.15,3.8.3,3.4-1.21,7.38-.95,2.8.19,3.39.37,6.37-.28l3.33-.73,1.38,1.03,3.59-1.51c.5-.21,1.68-.33,2.29-.33l4.2-.06c1.05-.02,2.09.1,3.17.22,1.25.14,2.89-.02,4.04.24,6.7,1.51,4.35-.97,8.92,1.08l2.87-.72c.36-.09,1.21.04,1.59.07l3.77.26c2.67.18,1.85-1.07,4.22-.23.6.21,1.35.52,1.75.55l1.26.09c1.37.1,2.29-.15,3.57-.62,2.16-.81-.26.2,2.84-.15l2.01-.23c.75-.09,1.47-.1,2.22-.16l1.99-.16,3.15-.26,3.17-.27c5.12-.44,1.54.67,6.98.02,1.89-.23,3.94.22,5.83.48,1.72.24,1.89-.61,7,.04,5.58.71,2.76-.34,6.32.27l2.47.42,2.47.47,2,.26c3.54.46,3.51,1.66,5.56,1.23l.71-.15c1.63-.34,6.02,1.29,4.94,1.1l2.52.43c.1.02.28.7.27.7-.37.13,1.17-.26,2.11,0l4.85,1.34c.45.13,1.44.12,1.95.32,3.97,1.53,3.52-.24,5.43,1.23.86.66,2.28,1.12,3.28,1.21,1.06.1.65.6,2.87,1.57l3.69,1.61,4.7,1.91c.52.21,1.27.47,1.64.71l1.96,1.26c1.73,1.12,4.21,1.65,5.49,3.21l1.55,1.87.95.88,2.55,2.38c.37.35.82,1.08,1.14,1.57l1.43,2.19c1.2,1.84,1.76-.15,4.64,5,.3.54.56,1.05.81,1.63,1.68,3.83,1.98,2.13,2.66,3.96l.64,1.74c.55,1.47,1.05,2.77,1.79,4.19,1.34,2.57.57,2.33.79,3.74l.19,1.23.37,2.1c.15.84.13,1.67.05,2.55l-.22,2.35c-.58,1.32-1.12,2.81-.04,4.01s-1.01,2.54.81,4.73c1.44,1.74-1.15,1.86-.36,4.16,1.15,3.35-.51,2.61-.68,4.51l-.28,3.19-.21,2.26c-.04.43-.6,1.27-.82,1.66-2.11,3.58-.18,1.69-.73,3.7-.9,3.26.01,2.76-.6,4.09-.64,1.4-1.14,3.27-1.37,4.84-.11.38-.64,1.3-.71,1.67l-.45,2.68c-.62,3.67-1.11,1.49-2.27,6.38l-.75,3.17c-.33,1.39-1.17,3.11-2.44,3.8-1.1.6-2.08,1.32-3.09,2.14l-2.54,2.04c-.55.44-1.2.89-1.82,1.27l-2.02,1.24c-.57.35-1.36,1.22-1.98,1.74-.7.59-1.13,1.07-1.64,1.9-1.22,1.97-1.16.38-4.13,4.15-.39.49-.88,1.09-1.33,1.44l-1.98,1.55-2.45,2.03-3.07,2.52-3.46,2.89c-1.63,1.36-.6.16-2.52,1.42l-.64.42-2.2,1.46c-.36.24-.91.6-1.33.77l-3.49,1.44-1.9.82c-1.16.5-2.38,1.2-3.54,1.61l-5.43,1.93c-.72.26-1.61.51-2.35.72l-4.35,1.24c-1.95.56-3.92,1.05-5.95,1.42l-2.4.43-4.96.88-2.41.35-2.17.28c-1.75.23-3.44.63-5.21,1l-3.5.75c-.75.16-1.97.33-2.74.36l-4.78.21-1.48.07-3.43.29-3.5.25-3.5.21-4.17.25c-.66.04-1.93.61-2.65.69l-2.93.33c-1.78.2-3.6.31-5.35.1-.36-.04-1.23.08-1.57,0l-2.26-.5c1.3.29-2.5.12-1.7-.03l-4.58.83c-5.73,1.04-6.28-1.15-12.27-.38-1.24.16-2.5.31-3.62,0l-2.59-.7c-2.56-.69-2.25.63-7.09-.16l-2.75-.45c-.78-.13-1.67-.23-2.48-.28l-2.05-.13c-.76-.05-1.69-.13-2.45-.25l-2.42-.36c-2.83-.43-1.89-.1-4.95-.53l-2.18-.31c-.73-.1-1.91-.07-2.58-.23-1.38-.32-2.61-.7-3.92-.93l-3.86-.67-1.57-.19-3.84-.74-3.24-.57-.58-.09-3.57-.6c-.15-.03-.52-.07-.57-.1l-1.17-.62c-.22-.12-.91.04-1.15,0l-2.27-.39c-2.36-.41-.84.26-2.14-.04l-2.45-.56-3.96-.9-3.92-.89c-1.71-.39-3.36-.72-5.02-1.29l-3.46-1.18c-.27-.09-.83-.39-1.12-.52l-2.95-1.3c-.45-.2-1.03-.59-1.51-.89-2.95-1.81-3.83-1.8-5.91-3.38-2.27-.95-4.37-1.83-6.52-2.97-2.89-1.53-2.24-.81-4.24-2.03-2.39-1.47-.68.14-2.87-1.25l-1.57-1c-1.58-1-.62.33-4.26-1.57l-3.73-1.95c-.75-.39-1.52-.97-2.29-1.53-2.24-1.6-.62.26-3.54-2.01-3.07-2.38-.66-.05-3.04-1.8l-2.17-1.59c-.21-.16-.55-.93-.81-1.01-1.94-.66-.81-.02-2.97-1.59-3.5-1.1-3.98-4.43-4.05-4.43l-.86-.06c-.6-.04-2.82-1.85-2.74-1.75-2.68-3-1.25-2.46-4.38-5.02-.26-.21-1.03-.64-1.25-.92-.76-.98-2.04-2.56-2.92-3.56l-2.18-2.47-1.53-1.8s-.46-.24-.53-.26l-.6-.16c-.77-.21-.92-.99-.91-1.81.05-2.37-.07-.76-1.19-3.69l-.96-2.5c-.78-2.03-.97-3.68-1.64-5.15-.07-.16-3.03.58-4.21-2.56l-.21-.56-.23-.44-.27-.55-.04-.74v-.82c-.01-.72-.66-1.01-.73-1.07-1.15-.96-.52-1.84-1.26-3.56-1.68-3.88-1.15-1.14-1.94-4.02l-.15-.56-.66-2.13c-.16-.53-.54-1.31-.84-1.97-1.89-4.09.99-1.22-2.33-5.7-2.5-3.37-.74-3.09-1.55-4.28l-1.05-1.55c-.35-.51-.57-1.49-.77-2.3l-.78-1.52c-.24-4.69-2.27-3.62-2.32-5.36-.1-3.14.05.32-1.13-3.05l-.8-2.29c-.03-.08.04-.71,0-.78-1.45-1.94-.72.1-1.86-3.77-.37-1.27-1.17-2.46-1.83-3.68-1.59-2.94-1.06-2.47-1.39-5.53-.05-.43-.67-1.22-.9-1.62-.29-.5-.34-1.78-.56-2.32l-.98-2.5-1.27-3.14-1.08-2.75-.7-1.79c-.16-.41-.06-1.39-.02-1.82l.04-.51c-1.52-1.41-.13.19-1.72-3.2-.29-.62-.6-1.37-.8-2.03l-.98-3.22-.15-.53c-.05-.17-.15-.46-.16-.54l-.07-.76c-.01-.14-.14-.18-.48-.42-.09-.08-.34-.46-.39-.57l-.55-1.24-1.03-2.51c-1.19-2.91.31-.27-1.27-4.13l-1.45-3.56c-.31-.77-.48-1.55-.73-2.54-.27-1.05-1.42-2.42-1.77-3.51-.29-.87-.51-1.64-.85-2.35l-1.46-3.13c-.83-1.78.29-1.55-.7-3.81-.34-.79-.58-1.38-.68-2.16-.66-5.12-.85-1.75-1.75-4.82l-1.24-4.23c-.6-2.06.74-.58-.77-2.56-.99-1.31.32-.2-.95-3.5-.27-.69-.49-1.43-.69-2.16l-.54-2c-.47-1.75-1.56-1.31-3.22-6.68l-.42-1.35-.58-1.91c-.37-1.23-2.17-5.95-2.51-6.48-1.85-2.9-.02-.98-1.44-3.83-2.28-4.58-.2-2.31-2.1-5.86-1.58-2.96-.68-1.77-1.76-4.19l-.99-2.22-1.53-3.41c-.49-1.09-.83-1.98-.94-3.26l-.21-2.44c-.04-.43-.56-1.3-.73-1.71l-1.02-2.5c-.12-.28-.07-1.13-.07-1.44,0-.23-.61-.7-.66-.92l-.48-1.98c-.57-.95-1.42-2.14-1.67-3.08l-.68-2.56c-.43-1.59-1.07-2.22-2.01-4.95l-.71-2.07c-.02-.07-.07-.35-.1-.49l-.32-1.44c-.22-.98-.38-1.91-.77-2.78l-.97-2.16c-.65-1.45.92-.22-.38-3.14s.55.1-1.24-2.96c-.56-.97-1.08-1.93-1.59-2.95l-.7-1.4c-.07-.14-.4-.52-.45-.57v-1.04l.57-1.28,2.47-3.25c.53-.69.83-1.33,1.33-1.82l1.45-1.44c2.77-2.74,6.09-4.11,9.54-5.48l4.3-1.71-.13-.4-.52-1.66c-.19-.61-.56-1.44-.77-1.97l.86-1.6c.33-.21.48-.3.12-.08-2.4-1.73-1.27-3.28-1.66-4.22l-1.13-2.74c-.15-.37-.19-1.27-.3-1.62l-.72-2.25c-.12-.37-.01-1.26.05-1.64.62-.24.62-.24.26-.1-.45-.47-.91-.81-.79-1.04l.52-.98c-.93-1.69-1.33-3.68-.91-5.81l-.59-1.47c-.11-1.68.18-3.84-.22-5.41-.35-1.37-.75-2.6-.22-4.02-.05-.65-.64-2.05-.54-2.7l.51-3.11c-.23,1.38.24-4.93-.11-3.97l.34-2.25c-.86-1.54.12-2.14.04-4.14l-.14-3.53c-.16-3.97,1.3-3.22.58-5.92l-1.03-3.86c-.12-.47.43-1.56.55-2l.83-3.11c.85-3.17-.39-.08.97-5.22l.67-2.54.79-2.71.29-1.81,1.11-3.25,1.12-3.44c.53-1.64.91-3.26,1.37-4.99.34-1.28.05-3.32.46-4.35l2.3-5.67c.52-1.29.99-2.57,1.36-3.9l1.07-3.83,1-3.56c.16-.57.51-1.47.74-2.04l.98-2.48c1.24-3.14,1.34-2.46,2.01-4.53.33-1.02.64-1.85,1.01-2.78.48-1.22.86-2.71,1.48-3.8.46-.81.88-1.5,1.22-2.3l1.46-3.42.94-2.22,1.34-3.17,1-2.48.61-1.55,1.59-3.08,1.01-2.98c.2-.58.74-1.37,1.11-1.94l1.39-2.16,1.22-1.9c1.04-1.62,2.14-3.14,3.26-4.71l1.03-1.43c.38-.53.79-1.08,1.2-1.57l2.08-2.49c2.29-2.74.57-1.31,2.54-3.66l2.39-2.85,1.95-2.25c.39-.45.95-1.02,1.26-1.44l1.55-2.05c1.53-2.03.73-.24,3.23-2.97l1.5-1.64c2.66-2.9,1.91-2.5,3.99-4.72l1.88-1.99c2.22-2.36,1.26-1.46,3.49-4.14l1.59-1.92,1.29-1.46,2.89-3.42c.44-.52,1.08-1.04,1.6-1.51l1.86-1.66c.56-.5,1.07-1.22,1.79-1.65,1.97-1.17.33-.73,3.6-3.37l1.76-1.42c.67-.54,1.77-1.22,2.26-1.78,1.05-1.2,1.87-1.96,3.17-2.97.63-.5,1.29-1.8,1.92-2.45,1.21-1.26,2.36-2.62,3.64-3.66l2.53-2.06c.88-.72,1.8-1.82,2.06-2.66l-2.15-.98c-.11-2.36-.74-4.27-1.8-6.27s-.03-1.53-1.76-5.56c-.27-.64-.63-1.74-.94-2.21l-1.4-2.06c-.53-.79-.96-1.68-1.28-2.53l-1.16-3.08-1.23-2.92-.93-2.21-.74-1.75c1.32-.66,2.04-1.16,2.78-1.92l2.78.46,1.28-1.33c.39-.4,2.27-.12,3.85-2.2.42-.56,2.27-.86,2.58-.26l1.36,2.56c.31.58.86,1.32,1.29,1.79l1.37,1.48c.26.28.75,1.13,1.05,1.38,1.19,1,2.83,1.95,3.83,3.09l2.12,2.4,2.42,2.18c1.05.95,2.83,2.01,2.28,2.11l-.76.13c-.36.15-.76.31-.56.23l2.28,1.31c2.33,1.34.23.67,3,2.64.6-.74,1.19-1.47,1.78-1.79l2.32-1.28,3.3-1.87,2.21-1.28,3.08-1.8,1.22-.56,2.68-1.5c3.11-1.75,2.05-1.8,4.21-2.37,2.77-.73.85-1.74,3.36-1.28l.96-1,2.24-1.27c.66-.37,1.43-.65,2.19-1.02,1.05-.5,2.19-1.6,3.23-2.19l3.13-1.76,2.75-1.45,2.04-1.13c.95-.52,2.1-.98,3.17-1.4l2.2-.87,4.5-1.78c2.69-1.07,5.35-.81,6.34-1.25,2.01-.91,6.33-2.23,7.93-2.3l1.93-.08c.5-.02,1.39-.46,1.66-.77h9.4ZM202.17,11.54l3.61-.08c.44,0,1.27-1,1.24-1.44l-.22-2.73c-.15-1.87-.35-4.2-1.9-4.29l-3.28-.2c-.99-.06-1.75-.16-2.83-.39l-3.59,1.3c-.5.18-.89.88-.9,1.42l-.08,2.79.78,1.95c.39.97,1.26,2.03,2.01,2.78,1.21-1.05,2.3-.93,3.63-.5.19-.08,1.19-.58,1.55-.59ZM391.67,360.59l2.02-1.64,2.11-1.75c.7-.58,1.58-1.39,1.99-2.1l.81-1.4c.13-.23.61-.68.81-.85l1.55-1.33c1.51-1.3.55-.19,2.33-1.78,1.06-.95,3.09-3.08,3.94-4.1.75-.91.52-1.44,1.31-2.2l3.19-3.04,2.28-2.54c.77-.86,1.22-.2,2.71-3.98.2-.5.51-1.28.82-1.54,2.28-1.88-.17-1.25,2.42-3.56.51-.45,1-.97,1.26-1.49l1.92-3.75c.51-1,1.82-2.22,2.16-3.21l1.29-3.75c.38-1.11,1.29-2.58,2.04-3.43.89-1.01-2.75-1.25-3.84-1.66-3.01-1.13-4.55-2.29-6.77-2.29l-.37,1.49c-1.5.94-2.11,3.46-4.18,5.65l-2.74,2.89c-2.51,2.65-.63,1.17-2.91,3.71-.9,1.01.79-.46-1.41,2.42-.83,1.09-1.65,1.97-2.6,2.94l-2.44,2.47-1.63,1.48-2.72,2.51c-3.02,2.79-2.16,1.53-5.85,5.35-1.39,1.44-2.9,2.86-4.42,4.21l-2.61,2.32-2.03,1.64c-.2.57-.46,1.19-.72,1.41l-1.39,1.12-3.21,2.73-2.74,2.11-1.77,1.42-1.38,1.31-2.53,2.07-1.73,1.41-1.57,1.26c-.51.41-1.28.84-1.9,1.18l-2.72,1.5-2.62,1.54c-2.34,1.38-.3.4-1.98,1.43l-1.12.69-1.5.94c-.55.35-1.13.82-1.68,1.1-3.06,1.53-1.34.39-4.19,2.05l-2.68,1.56c-.49.29-1.28.58-1.88.88-1.03.52-1.94,1.28-2.95,1.92-1.24.79-2.96,1.26-4.37,1.91l-4.72,2.18-3.99,1.58-3.58,1.34c-2.71,1.01-2.46,1.48-3.57,1.12-2.83,1.92-4.38,1.62-6.87,2.77l-2.58,1.2c-.36.17-1.38.2-1.7.41-2,1.25-1.61.4-5.49,2.16-1.74.79-4.33,1.8-6.1,2.29l-2.49.69c-.42.12-1.28.91-1.73,1.01l-3.24.7c-1.09.24-2.29.59-3.41,1.01l-2.49.95c-1.11.42-2.37.66-3.6.93-1.62.36-3.08,1.01-4.67,1.58s-3.49.73-5.16,1.14l-2.63.63c-.84.2-1.8.5-2.65.76-1.58.49-3.04.64-4.7.94l-2.52.45c-.98.18-2.05.32-3.03.4l-3.53.31-2.75.22-3.18.29-3.77.58c-2.02.31-4.04.03-5.98.36l-3.09.52c-1.68.28-3.14.14-4.95-.05-1.16-.12-2.86.54-4.06.6l-2.86.15-1.59.08c-.75.04-1.5,0-2.28-.06l-3.36-.27-1.74-.16-1.49-.13-2.48-.15-5.87-.21c-.63-.02-1.69-.2-2.37-.34l-4.93-.97-2.21-.48-3.29-.73-3.58-.8c-3.41-.76-4.03-.76-7.49-2.02-2.84-1.03.99.63-3.85-.92l-2.3-.73-1.65-.58-4.84-1.79-5.62-2.37-4-1.57c-2.86-1.13-.38,0-3.65-1.2l-4.33-1.59-4.12-1.66c-2.14-.86-2.58-1.46-3.94-1.87l-2.4-.71-2.33-.94c-4.37-1.77-1.42-1.44-5.06-2.86l-3.77-1.48c-.72-.28-1.72-.88-2.42-1.3l-1.74-1.05-2.67-1.53-2.6-1.51c-1.15-.67-2.18-1.26-3.26-2.02-.84-.59-2.01-1.15-2.76-1.74-.62-.49-1.03-.83-1.64-1.17l-.91-.51c-2.03-1.12-2.92-1.49-4.4-2.48l-1.09-.72c-.3-.75-3.74-2.7-4.01-2.95l-4.53-4.24-2.11-1.26-3.08-2.56-2.25-1.92-1.48-1.33c-1.12-1-2.27-1.86-3.47-2.79l-1.58-1.23c-.99-.77-1.87-1.84-2.78-2.72l-5.15-5.02c-.81-.79-1.95-1.53-2.93-2.27-.53-.4-.92-.95-1.39-1.48-3.86-4.28-3.18-2.89-7.22-5.94-2.46-1.85-1.03-1.09-2.46-2.32l-1.18-1.01c-1.3-1.12-3.57-3.27-4.17-4.92l-1.28-1.44c-.43-4.56-1.15-2.09-1.81-5.29-1.65-2.55-3.39-5.15-4.22-8.19-.22-.81-.83-1.51-1.21-2.25-.6-1.17-1.08-2.41-1.65-3.68-.28-.62-1.17-1.65-1.4-2.3l-.92-2.67c-1.39-4.03.5-1.5-1.59-5.01-1.34-2.26.08-2.16-.53-2.82-2.39-2.6-3.15-7.43-4.28-10.51-.96-2.61-2.28-5.03-2.99-7.73-1.05-3.97-.46-4.29-1.98-7.46-.51-1.06-.73-2.37-.94-3.65l-.85-5.05c-.05-.29.31-1.17.09-1.37-.2-.18-.89-.69-.95-.93-1.32-4.86.07-2.19-.6-5.18-.5-2.26-.26-3.34-.58-5.11s-.86-3.08-.33-4.79c.34-1.11-.02-2.3-.51-3.35l.44-2.35c.32-1.74-.94,0-.29-3.32.31-1.59-.7.65-.34-2.71l.29-2.69c.13-1.18.12-2.58.16-3.71.01-.39.19-1.14.16-1.58-.11-1.28-.2-2.62-.05-3.77l.38-2.83c.1-.74.73-4.65,1.45-4.72-.42-1.2-.49-2.64-.21-4.05l.65-3.25c.31-1.55.83-2.77,1.06-4.31l.66-4.39c.07-.18.3-.75.35-.97l.85-4,.16-2.9.45-2.51c.09-.5.62-1.44.72-1.93l.59-3.04.61-2.53c.22-.9.47-1.79.74-2.72,1.35-4.6,1.79-2.38,2.23-4.95.16-.91.29-1.56.52-2.27l.79-2.44c.87-2.67,1.1-.4,1.79-3.46.19-.85.39-1.73.62-2.48l.6-1.93c.35-1.11,1.06-2.39,1.67-3.47,1.82-3.26,2.66-5.6,4.63-9.29.52-.97,1.35-2.09,1.7-3.05,1.68-4.64,4.91-6.89,5.4-8.22l.61-1.64,1.92-2.42,1.15-1.71,1.27-1.89,4.29-6.18c1.44-2.08,1.22-.29,1.9-1.62.29-.58,1-1.7,1.44-2.27l1.56-2.02c1.98-2.57,1.38-2.59,3.29-4.68l2.67-2.91c3.34-3.64,1.69-2.97,4.31-6.13l1.58-1.9c2.45-.9.6-1.28,3.85-3.54.22-.16.37-.59.38-.95l.95-1.51c.33-.53.74-1.14,1.15-1.61l1.96-2.24c.57-.66,1.25-1.42,1.82-1.97l2.51-2.41.73-.7c.13-.12.28-.63.32-.73,2.4-1.52,3.51-3.3,5.63-5.49,1.07-1.1,2.17-2.28,3.34-3.22l2.18-1.73c1.71-1.35,1.19-1.66,3.47-4.26.86-.98,1.88-.5,4.67-3.9l1.75-2.13c.51-.62,1.09-1.24,1.73-1.76,3.01-2.38.5.24,3.92-2.66l1.92-1.62c1.64-1.38,3.72-2.35,5.46-3.57l2.48-1.75c.42-.29,1.18-1.14,1.66-1.39l2.98-1.59c3.88-2.07,1.55-1.53,5.2-3.47l3.92-2.07c.8-.42,1.78-1.34,2.56-1.87l2.1-1.42c.47-.32,1.2-.8,1.69-1.06l3.85-2.05,1.73-1.47,2.47-1.31,2.81-1.41c3.7-1.85.53-.71,4.16-2.53l2.09-1.05,6.83-3.61c.83-.44,1.76-.7,2.67-.95,4.67-1.28,2.09-1.25,4.08-1.99l2.52-.93c.83-.31,1.76-.62,2.59-.85l2.21-.62c1.22-.34,4.57-1.05,4.87-2.35.36-1.59-1.25-.51.15-3.33-.35-.95-1.16-2.72-1.66-3.66-.3-.43-1.7.08-2,.17-.4-.18-1.26-.44-1.7-.35l-3.23.7c-2.58.56-1.34-.09-4.68,1.21l-2.53.99c-.85.33-1.65.61-2.58.92-4.44,1.47-1.7,1.67-4.87,2.73-1.27.42-2.04,1.46-3.23,2.02l-3.02,1.42-1.34.77c-1.55,2.35-2.4.51-6.9,3.61-.75.51-1.73.89-2.54,1.32l-5.22,2.79c-2.12,1.13-2.7,1.78-5.63,3.39l-2.96,1.63c-1.19.65-2.31,1.33-3.57,1.94-.81.39-1.73.91-2.28,1.47l-.63.64c-.07.08.55.24.63.31l1.39,1.37-.3,2.03c-.2,1.34-2.8.42-4.06-.81-.29-.28-1.06-.76-1.37-.61-1.57.75-3.3,1.78-4.44,2.89-2.04,1.98-2.23,1.2-2.72,3.39-.04.36-.94.22-1.28.04l-.84-.45c.3.16-1.37,1.58-1.79,1.91l-1.2.92c-.54.41-1.05.81-1.55,1.24l-2.45,2.09c-2.46,2.1-2.34,2.36-4.94,4.82s-1.49.84-3.61,3.39c-3.89,4.69-2.83,1.33-6.09,5.02l-1.27.78c-.97,2.35-1.55.63-2.61,2.59-.36.67-.74,1.2-1.19,1.61l-3.16,2.82-1.48,1.32c-.52.46-1.15,1.2-1.66,1.76l-1.32,1.47-2.28,2.61-1.45,1.69-1.77,2.1c-1.69,2-.44.12-2.8,3.09l-1.24,1.56c-.36.46-.86,1.14-1.22,1.52l-3.25,3.41-.76.97-2.72,2.89c-3.27,3.47-.94,2.19-4.7,5.44-.93.8-1.77,2.21-2.62,3.19l-1.29,1.52c-1.26.99-1.35,2.45-3.64,5.47-.99,1.3-1.05.35-3.29,3.65l-1.96,2.89-1.01,1.48c-.43.63-.96,1.65-1.34,2.4l-2.89,5.83c-.09.3-.28,1.14-.42,1.43l-.87,1.84-.89,2c-.42.93-1.38,2.08-1.62,3.08-.13.54-.09,1.63-.37,2.03l-1.32,1.84c-.11.8-.24,1.34-.53,1.96-2.28,4.96-2.66,7.33-4.48,11.61-.38.88-.65,1.59-.97,2.58-.17.53-.59,1.25-.83,1.79l-1.31,2.99c-.24.55-.31.98-.35,1.65-.22,3.62-2.43,8.32-2.33,7.76l-.38,2.18-1.42,2.69c-.84,1.59-.65,2.53-1.02,3.79l-.65,2.25-.68,2.55c-.1.36-.1,1.3-.23,1.68l-1,2.82-.91,2.58-1.26,4.08c-.58,1.87.86.93-.8,3.84l-.17,1.69c.05-.51-1.09,7.82-.72,6.21l-.74,3.25c-.25,1.11.09,2.63.22,3.69-.02.51-.86,1.41-1.15,1.91-.8,1.38-.86,3.09-.85,4.75.04,3.32-.65.82-.59,4.5.01.72.03,1.44.13,2.16l.37,2.74c.26,1.91.16,3.98-.02,5.87l-.29,3.18-.14,1.56c1.3,3.02-.21.74,1.01,4.14.7,1.97-.45,1.51.84,3.23l-.46,3.06.78,3.88c.22,1.11.43,2.11.46,3.3.06,3.26.45.52,1.28,5.28l.63,3.56c.55,3.11.65,2.57,1.3,5.78.85,4.16,1.35,2.17,1.9,7.29.18,1.67.66.66.95,2.04.56,2.67,1.25,5.87,2.32,8.38.68,1.61,1.01,2.85,1.1,4.66.05.95.99,2.01,1.46,2.89,1.46,2.72.97,2.12,1.44,4.2l.52,2.32c.21.93,1.87,4.39,2.64,5.59l1.28,2c.49.76.61,1.6.5,2.57l.87,2.28c1.82,4.75.06.84,2.31,3.56,1.37,1.66,1.69,2.3,2.47,3.93l.76,1.58c1.05,2.19,3.21,4.69,5.16,6.32l.82,1.29,1.31,1.87c.33.48,1.31,1.29,1.51,1.8l.8,2.06c.62,1.61,1.35,2.73,2.69,3.94l1.29,1.17,2.4,2.14c.75.67,1.71,1.42,2.19,2.28l1.55,2.77c.29.52.84,1.27,1.24,1.77l1.28,1.58,1.87,1.33,2.24,2.88c.97,1.24,2.24,2.17,3.31,3.3,1.35,1.42,3.99,4.89,4.43,5.33.75.74,2.03,1.37,2.68,2.09.52.58.92,1.01,1.41,1.45l1.27,1.17,1.64,1.51,1.57,1.55,1.37,1.4c.63.64,2.17,1.15,2.98,1.5l.65,1.14c3.98,1.93,2.32,1.99,6.21,4.2l3.61,2.06c.93.53,1.86.93,2.94,1.25,4.41,1.29,3.14,2.27,6.04,3.28l1.83.63,3.51,1.3c.8.3,1.41.61,2.16,1.1l2.92,1.88c.2.13.23.96.16,1.29l2.27.23c.6.06,1.85.16,2.4.35l3.34,1.17,1.54.89,4.39,1.51c1.31.45,2.3.78,3.66.96l2.37.32,1.13,1.01c1.64,1.47,2.75.28,5.98,2.31.67.42,1.77,1.14,2.4,1.29l3.02.72-.14.73c-.11.59,1.63-.5,2.57-.09l3.16,1.36,1.61.73,3.45,1.02c5.19,1.54,3.23,1.45,6.68,2.51.39.12,1.43.15,1.84.25l4.43,1.15c1.48.39,3.21,1.87,4.11,2l3.11.48,3.3.63c2.07.4,2.9.92,4.58,1.24l2.75.52,3.14.6c.3.06,1.02.58,1.3.73l5.08,1.11,1.31-.03c4.41.37-.4-.75,4.39.29,8.92,1.94,5.07-.55,12.15,1.12,1.48.35,3.45.03,5.01.28,3.67.58,2.14-.75,5.44-.34.42.05,1.25.19,1.61.14l3.45-.56,2.87-.31c1.36-.15,2.94-.18,4.26-.13.7.03,1.68.33,2.33.2,1.23-.24,2.41-.56,3.42-.63l2.14-.15c1.22-.09,2.57-.06,3.72-.21l2.84-.38c.8-.11,2.32-.67,3.16-.91l.88.88c1.14-.35,2.32-.47,3.45-.41l2.76-1.02,4.87-1.8c3.08-1.14,1.91.57,3.84-.31l3.39-1.55c.83-.38,2.2-.45,3.16-.51,4.84-.33,3.94-.28,8.74-1.43.81-.19,1.59-.45,2.41-.72l1.61.22c3.65-1.65,2.36-.31,6.17-1.86,3.52-1.43.03-.94,6.76-3,.36-.11,1.04.65,1.3.97.99.41,2.29-1.23,4.79-2.12l3.88-1.38c.69-.25,1.49-.65,2.09-1.06l2.32-1.55,2.23-1.54,1.46-1.04c.45-.32,1.15-.87,1.6-1.13l2.69-1.54c.69-.4,1.33-.96,1.99-1.5,1.03-.84,4.32-2.86,5.53-3.49,3.64-1.88,1.89-2.35,5.1-3.9l2.14-1.04,1.66-.49c1.08-.58,2.32-1.23,3.43-1.74l1.65-.76,2.67-1.27c2.47-1.18,4.67-.82,6.22-1.99l2.24-1.69c3.18-2.39,2.94-2.16,6.82-3.92l2.12-.96,2.6-1.26c1.6-.77,3.3-1.53,4.72-2.66,3.25-2.57,7.46-4.11,8.58-5.36l1.3-1.46,2.03-1.61ZM112.35,34.74c-1.56-2.56-1.65-.41-2.53-5.55-.08.06.2-.15.57-.42,2.39,1.7,1.44,2.03,2.73,3.64l1.43,1.78c1.73,2.15,1.95,1.89,2.83,3.44.22.39,1.19,1.14,1.6.97.72-.31,1.55-1.35,2.11-1.74l4.67-3.24-1.51-1.19-1.3-1.4-2.07-1.81c-1.99-1.74-1.26-1.12-2.85-3.03-2.44-2.94-1.9-1.82-4.24-4.11-.87-.85-1.63-1.58-2.55-2.38-1.21-1.05-2.21-2.42-3.3-3.64l-1.32-1.47c-3.7,1.57-1.69,1.4-5.36,2.74l-1.3.47.89,2.32c.26.68.64,1.47.82,2.17l.5,1.89c.87.42,1.34.82,1.61,1.61l.91,2.62c.15.42.86,1.17,1.18,1.6,1.31,1.8.4.9,1.61,3.87l1.05,2.57c.71,1.75,4.62,5.69,2.65,7.41l-1.19,1.04c.97.06,1.56-.16,2.08-.65l1.32-1.23c.28-.26.68-1.16,1-1.39l2.21-1.56-1.24-1.6c-.38-.49-1.51-1.25-1.83-1.78l-1.17-1.93ZM272.69,37.05c.64-1.14,1.04-2.36,1.1-3.47l-4.06-1.1c-.37-.1-.85-.21-1.2-.27l-2.88-.43-3.33-.2-1.95-.23c.21,1.13.65,1.82,1.5,2.46.39.3.89.88,1.23,1.18l4.85,4.18,1.76,1.1c.36.23,1.29-.22,1.49-.58l1.5-2.65ZM362.07,338.78l2.95-2.23,1.99-1.51,1.74-1.4,1.52-1.29c.22-.19.73-.6.9-.79l1.5-1.7c.5-.57,1.2-1.04,1.84-1.57l3.26-2.7,1.53-1.3c1.08-.91,2.16-2.04,3.1-3.11l1.64-1.87,1.96-2.2c.65-.73,1.63-1.24,2.53-2.32l1.78-2.15c.87-1.04,1.45-2.5,2.22-3.66l2.92-4.41.8-1.58c.23-.46.64-.98.76-1.29l.41-1.08,1.82-4.8,1.34-3.18,1.52-3.67,1.16-2.64.94-2.19c.52-1.21.99-2.5,1.68-3.55.37-.55.67-1.05.85-1.56l.62-1.86c.95-2.85.12-1.66,1.67-4.93l.92-1.94c.27-.58.53-1.36.76-2.04l1.3-3.95,1.3-3.55c.68-1.86.62-2.57,1.36-5.24.08-.3.58-.9.61-1.18l.07-.89c.01-.13.41-.55.46-.67.71-1.65-.05-.79,1.24-4.25.38-1.02.77-2.04,1.08-3.05l.94-3.11,1.12-4.31c.16-.6.47-1.37.75-1.99l.56-1.28c.39-.9-.83-.36-.2-1.53l.29-.54c1.23-2.31-.22-2.53,1.01-3.39l.42-.3c.05-.04.18-.45.16-.51l-.17-.58c-.45-1.54,1.25-6.58,1.44-9.78l.36-5.9c0-.15.19-.63.2-.7v-.41c.02-.06-.12-.5-.09-.55l.45-.66c.08-.12.08-.05-.34-.57l-.06-1.66c-.05-1.27-.06-2.55.08-3.81.3-2.72-.39-1.7-.48-3.89l-.14-3.16-.12-2.56c-.08-1.68-.12-3.41,0-5.07l.09-1.36c.22-3.26.64-1.1.21-3.56l-.33-1.9.06-2.17-.54-2.9c-.75-4.01-.78-1.33-.84-4.19-.01-.57-.03-1.18-.07-1.67l-.25-3.13c-.18-2.29-.09-.03-1.02-3.51-1.07-4.02,0-1.62-1.42-5.49l-1.89-5.12c-.35-.95-.62-1.89-.9-2.9-1.41-5.11-.68-1.51-2.08-5.6-1.03-3.01-1.2-.78-1.06-2.64l.06-.76c-.62-.88-1.13-1.75-1.61-2.65l-.71-1.34-1.62-2.99-1.73-3.14c-1.03-1.87-1.04-2.61-1.67-3.87l-1.04-2.12c-.64-1.3-1.03-2.63-1.57-4.06-.43-1.14-1.33-2.4-1.94-3.52l-2.19-4.07-1.1-2.05-1.68-3.16c-.13-.25-.57-.83-.68-1.07-.41-.89-.93-1.93-1.5-2.65l-1.43-1.82c-.42-.53-.88-1.42-1.3-2.12-2.03-3.39-1.9-1.74-3.23-4.09l-1.38-2.46c-.62-1.11-1.33-2.05-2.12-3.11-.47-.63-.97-1.67-1.5-2.27l-3.1-3.54-1.14-1.3c-.13-.14-.59-.55-.61-.39-.23,2.15.11.17.37,1.69l.43,2.54c.01.06-.15.54-.2.58l-1.09.87c-.11.09-1.42.17-1.64-.86-.19-.9-.47-2.04-.75-2.98l-1.16-3.82c-.2-.65.21-2.09.19-2.8-.04-1.11-1.26-2.17-2-2.99l-2.51-2.77c-1.02-1.13-2.14-2.3-3.29-3.28l-1.71-1.46c-2.83-2.42-4.26-3.12-7.09-5.44l-3.06-2.51-1.38-1.07-1.31-1.1c-.98-.83-2.19-1.62-3.27-2.23l-3.6-2.06c-.62-.35-1.26-.85-1.85-1.23-3.17-2.04-6.67-3.67-10.17-5.22-1.67-.73-2.13-.62-4.56-1.7l-3.13-1.39c-.29-.13-.97-.29-1.25-.35-.21-.04-.06.89-.15,1.09l-.33.75c-.16.36-.37.72-.24.91l.41.6c-.35.47-.82,1.67-.42,2,.26.22.93.64.99.88l.53,2.28c.2.87.34,1.78.48,2.74l1.13,1.98c.29.5.23,1.88-.18,2.3l-1.42,1.45c-.09.09-.17.62-.12.74,1.39,3.91.46,1.93,1.4,6.4l.65,3.07.35,1.63c1.12,5.15.06,1.26.66,5.19l.39,2.55.8,5.27.2,1.31.37,2.34.42,2.46.67,3.28c.14.66.92,3.58,1.48,3.48.12-.02.4-.09.6-.14l1.99-.54c2.69-.73.84.04,3.67-.76l5.11-1.45c.63-.18,1.28-.26,1.92-.62.93-.52,2.01-.91,3.04-1.13l3.75-.8c4.16-.88,2.45-.04,5.1.2l2.72.25,1.56-.07,2.25.22c4.59.45,1.99-.3,6.29.48.83.15,1.6,1.06,2.13,1.62l4.23,4.46,1.2,1.59c.55.73,3.15,3.84,4.1,3.06.53-.44,2.09-.68,2.55-.06.81,1.11.76,2.96-.57,3.42-.89.3-3.28,1.06-4.09.17l-.88.09.88,5.2c.02.14-.05.75-.05.86l-.02.75c0,.09.02.52.04.61l.12.6c.03.16.1.42.09.48l-.08.48c-.27,1.56-.25,4.9-3.29,4.81-.18-1.74.72-3.76.6-5.45l-.15-2.17-.19-2.7c-.04-.52-.08-1.1-.15-1.63l-.25-1.9c-.16-1.21.2-1.45.83-3.21l-.59-.51-1.65-1.83-1.64-1.82c-.24-.27-.6-.98-.87-1.16-4.49-3.08-1.84-1.41-5.47-2.34l-3.66-.93c-.57-.14-1.48.08-2.23.09l-7.74.09c-1.11.01-1.44-1.12-2.28-.86l-1.46.46-2.96.95-1.9.61-1.65.55-1.34.45-3.35,1.11-3.77,1.2-1.88.6c-2.03.65-3.34-.9-3.31-1.46.11-2.38,1.42-1.44.31-3.4l-.5-1.43c-.19-.55-.43-1.29-.49-1.84l-.24-2.15-.3-2.51-.46-3.07-.84-5.61c-.08-.51-.18-.98-.35-1.53-1.16-3.67-.5-2.97-.75-4.79l-.27-1.93c-.04-.32-.25-.91-.38-1.21l-.78-1.8c-.4-.93-.73-1.84-1.06-2.84l-.95-2.83c-.14-.41-1.08-.95-1.58-.84-.38.08-1.06,1.09-1.06,1.53l.06,7.84c0,.5.39,1.61.19,2.02l-1.18,2.5.23,2.15c.41,3.85,1.11,5.33.99,9.85,0,.26.04,1,0,1.27l-.55,3.73-.53,3.64c-.29,1.96-1.48,4.19-2.55,5.59-.41.53-1.66,1.07-2.18,1.37l-2.9,1.7c-.95.55-2.05,1.27-2.83,1.96l-1.69,1.51c-.82.73-1.73,1.56-2.42,2.42-2.56,3.15-2.72,6.6-4.84,5.52-.69-.35.34-2.47.77-3.19l1.34-2.28c.37-.62,1.6-1.28,2.26-1.56,1.26-.55.29-.86,1.27-1.9l1.87-1.97c.43-.45,1.17-1.03,1.69-1.34l2.01-1.21c.6-.36,1.18-.91,1.64-1.46l1.6-1.91c2.17-2.59.66-.56,2.44-4.91.2-.48.31-1.37.45-1.85,1.84-6.6.34-3.4.87-10.3l-.34-.78c-.14-.32.32-.94.26-1.31l-.96-5.81c-.29-1.73.09-4.35.34-6.14l.33-2.43c-.09.68.09-1.95-.35-1.37-1.55,2.08-1.3,2.21-1.97,4.63l-1.19.62c-1.05.54-2.32-.19-2.39-.67l-.51-3.35c-.1-.66-.32-1.09-.6-1.7l-.89-1.96c-1.08-2.37-2.26-3.58-4.14-5.15-1.17-.98-1.04.92-4.61,1.7l-2.02.44c-1,.22-2.96.58-3.48,1.66-.58,1.19-.07,3.03.19,4.32.79,3.95-.12,2.58.32,4.53.63,2.81.7,4.02.57,6.69l-.1,2.05.57,2.06c.4,1.47,0,3.24.75,4.47.49.81.69,1.4.34,2.24-1.02,2.45.64,1.35-.46,2.99-.96,1.43-1.35,1.82-3.27,2.4-.64.2-2.04,1.1-1.89,1.73l.52,2.28c.11,1.68.26,3.19.5,4.8l.64,4.25.32,2.41.34,3.15.24,2.36c1.02,3.21.94,3.47-.67,4.84-.79.67-.8,3.03-1.72,5.48-1.35,3.61.24.4-1.01,4.14l-.97,2.91-1.3,4.01-1.11,3.11-1.03,3.05c-.1.29-.59.78-.79.91.44,1.8-.81,2.19-1.16,3.37l-.63,2.15-.89,3.07c-.27.94.54,1.17,2.21,2.59l2.17,1.85-2.07,1.81c-.48-.51-.75-.81-.96-.97l-1.85-1.31-.58.71-.48,1.65c-.11.38-.21,1.11-.26,1.58l-.34,2.8-.38,3.12c-.2,1.65-.38,3.21-.5,4.81-.04.5-.02,1.35-.1,1.8l-.63,3.93c-.49,3.06-1.22,2.46-.16,6.66.23.91.77,1.75,1.27,2.53,1.46,2.27,2.88,2.83,5.21,5.21.89.91,1.6,1.66,2.66,2.32,2.23,1.39,1.43,1.25,3.3,2.92,2.09,1.87-.18.16,2.35,2.18l1.77,1.42,1.41.71c3.96,1.98,2.96-.06,5.04,1.8l1.5,1.35c.23.2.68.89.92,1.21l4.4,1.11c1.21.31,3.01.05,4.32.24s2.39.17,3.57.16l3.53-.04c.64,0,3.74-.71,3.94-.8,1.74-.7,3.23-1.2,5.04-1.33l3.54-.25c.32-.08.78-.19.56-.13l-.53-.59c-2.03-2.26-.21-.55-2.11-3.08l-2.57-3.4c-1.52-2.01-.12-1.2-1.52-2.86-.08-.1-.29.13-.98-1.18l-1.24-2.37c-.58-1.1-1.39-2.84-1.3-3.98l.23-2.94c.16-2.11.86-3.83,2.52-5.1l2.37-1.82,2.86-2.06c.53-.38,1.3-.9,1.84-1.19l2.14-1.14c4.68-1.13,6.84,1.64,9.09,5.63.21.37.16,1.39.22,1.85l.37,2.82c.19,1.44-.04-.02-.53,3.48l-.42,3.03-.54,3.27c-.1.58-.13,1.11-.19,1.8-.09,1.03-.67,2.39-.95,3.46l-.46,1.8c-1.44,5.57.4,6.84-.29,8.33l-.72,1.56c-.18.39-.85,1.22-1.01,1.42l-1.64-1.41c-.36-.31-.93-1.01-1.29-1.43l-1.86-2.12c-1.11.94-2.76.01-3.68.31l-3.45,1.09c-4.71,1.49-4.43,2.37-9.94,3.24-2.05.32-1.84-.71-3.83-.95l-3.14-.37-1.87-.18c-1.16-.11-2.26-.35-3.39-.76l-2.08-.75c-2.44-.89-4.25-2.34-6.24-3.92-1.46-1.16-3.22-2.07-4.61-3.38-.37-.35-.89-.95-1.2-1.21l-2.71-2.22c-.72-.59-1.7-1.58-2.42-2.02-2-1.24-3.83-2.42-5.27-4.22l-2.14-.99c-.29-.14-.88-.69-1.1-.93l-1.24-1.32c-.46-.49-1.1-1.86-1.13-2.58-.15-3.19,1.08-3.48,1.34-5.12l.99-6.35c.1-.64.21-1.51.25-2.12l.27-3.71c.08-1.09.1-2.14.12-3.19l.06-2.82c.02-1.24.2-2.45.49-3.68l.6-2.6c.31-1.35-1.91-1.19-2.75-2.03l-1.46-1.46c-.32-.32-.46-1.6-.2-1.99.51-.77,2.05-.48,2.57.36l1.72.75c.21.09.45.2.49.09l.23-.65c.1-.28.26-1.1.49-1.24l1.75-1.07c.34-.21.59-1.25.8-1.61,1.01-1.73,1.3-2.01,2.03-4.17l1.42-4.19,1.15-3.82c.34-1.12,1.06-2.2,1.51-5.06.27-1.73.55-3.35.92-5.02.16-.74.38-1.54.44-2.26l.26-2.91c.26-2.86,1.79-2.49,1.75-2.94l-.05-.8-.12-1.77c-.06-.88-.06-1.9-.17-2.72l-.36-2.76-.3-2.5-.93-5.95c-.04-.26-.29-2.92-.98-3.11s-2.19.66-3.06,1.5l-1.47,1.43c-.37.35-1.14.94-1.42,1.32-3.42,4.6-1.82,5.91-5.23,8.02-.22.14-.91.67-1.16.67-.69,0-2.27-.24-2.89-.55l-1.69-.85c-1.39-.7-2.76-1.25-4.29-1.66l-2.95-.79c-.93-.25-3.05,1.17-3.34.33-.07-.19-.12-.83-.07-1.03l1.18-4.15c.15-.52-.26-1.87-.31-2.4l-.22-2.53-.25-2.85-.15-3.65c-.01-.28-.44-1.07-.51-1.38l-.8-3.96.2-1.33-.21-2.58c-.06-.8-.48-1.43-1.06-1.97l-1.3-1.21c-.98-.91-2.08-1.62-3.23-2.33l-1.95-1.2c-.31-.19-.98-.6-1.33-.71l-2.12-.66c-1.26-.39-2.37-1.03-3.51-1.67l-2.28-1.3c-.67-.38-1.36-.93-2.03-1.43-1-.73-2.41-1.43-3.25-2.27l-1.79-1.79c-1.87-1.86-.95-.36-3.27-1.92-.29-.2.3-1.31.37-1.67.63-3.03.41-3.67,1.16-5.74.15-.42.25-1.05.35-1.48l1.06-4.49c.72-3.04.7-3.3.48-6.43-.04-.64.69-1.62,1.22-1.47l1.43.39c.21.06.07.82.02,1.05l-.75,3.41c-.24,1.11-.59,2.14-.86,3.24l-.93,3.73c-.55,2.19-1.04,4.4-.77,6.65l2.8,2.82,1.28,1.94c.59.9,6.26,4.95,7.77,5.8,1.34.75,3.21,1.31,4.79.66,1.83-.76,1.44-2.05,2.36-1.62l1.9.88.49,2.01,2.66,3.57c.15.2.63.65.88.89,2.87,2.76,3.75,1.64,3.7,2.57-.15,3.05-1.75,2.27-1.63,3.69.33,3.95-.23,3.76-.07,6.04l.19,2.59c.24,3.37.77,1.9-.12,3.3-.07.11-.18.61-.14.73l.64,1.79c.07.19-.79.95-.64.94-.22.02.51.52.52,1.32l.03,2.67c0,.69.7-.18,3.33,1.27.89.49,1.83.78,2.82,1.06l1.68.46c1.75.48,1.38,2.15,4.79,1.78,1.02-.11,1.76-1.12,2.17-1.97,1.92-4.02,6.18-7.78,10.13-9.44l2.49-1.04c.46-.19,1.22-.65,1.77-.93,1.78-.93.93-3.61.93-3.76l-.2-9.98-.04-2.38-.04-2.11c-.07-3.62.46-1.45-.27-3.68.27-5.53-3.24-3.76-2.69-6.03l.51-2.09c.1-.43.98-1.14,1.34-1.4l1.64-1.19c1.71-1.24,2.75-1.13,4.42-1.56.92-.24,1.85-1.2,2.68-1.72l1.76-1.12c.47-.3,1.72-.02,2.34.09,1.43.27,2.1,1.04,2.8,2.19.58.96,1.36,1.95,1.84,2.95.33.67.58,1.7.89,2.24.81,1.4,1.25,2.27,1.66,4-.59.23.2.04.32,0,.57-1.17,1.2-2.17,2.05-2.99l2.42-2.35c.06-.06.46-.3.54-.36l2-1.71,1.67-.06c.13,0,.54-.57.51-.69l-.51-1.87-.87-4.37-.54-2.89-.41-2.2c-.09-.49-.27-1.7.11-1.99l1.35-1.04c.12-.09,0-.52-.15-.57l-1.31-.52c-1.21-.48-2.37-.88-3.62-1.24l-3.79-1.08-4.67-1.3c-.98-.27-1.96-.63-2.97-.82l-3.82-.74-5.52-1.42-5.24-1.05-1.85-.19-3.85-.68-3.53-.62-2.46-.37c-.65-.1-3.52-.39-3.91.61l-1.37,3.53c-.06.15-.06.78-.08.87-.65.94-1.23,2-1.74,3.14l-1.69.72.64.77c.18.22.15.97,0,1.21-.55.8-1.96,1.36-2.6.68l-1.74-1.87c-.32-.34-1.16-.83-1.54-1.16l-2.61-2.29c-3.4-2.99-1.29-3.44-4.07-4.01-.47-.28-1.41-1.18-1.65-1.67l-.71-1.44c-.05-.09-.46-.36-.48-.39-.01-.02.19-.23.47-.53.04-.11.08-.29-.03-.31-.12-.02-.8-.09-.91-.08l-4.47.26-.68.02-2.45.04-7,.12c-.55,0-1.23.09-1.77.13l-2.02.15c-.95.07-1.87.17-2.8.29l-2.81.35-2.35.17-3.21.52-2.77.36-2.8.33c-3.98.47-2.99.81-6.16.9-3.8.11-5.13.91-8.17,1.53l-2.99.61-2.75.71c-.73.19-1.77.07-2.66.1s-2.14.43-3.13.61l-4.41.82c-.38.07-1.32.09-1.66.2l-4.42,1.47-1.78.63c-.94.34-1.86.51-2.8.72l-2.88.65c-.85.19-1.84.48-2.63.77l-1.79.65-3.6,1.3c-.73.26-1.61.57-2.26.86l-2.65,1.2c-.53.24-1.5.73-1.62,1.14.14.9.33,1.94.5,2.7l1.21,5.46c.75,3.39-.92,3.04.4,4.3.33.32.74.64.58.75l-.67.42c-.39.24-.41,1.25-.5,1.87-.24,1.58-.22,3.02-.02,4.57l.22,1.7.79,5.26c.04.28,1.52,2.38-.49,5.21l-1.64,2.3c-.53.74-.96,1.56-1.41,2.43l-.93,1.35-1.28,2.72c-.52,1.11-1.4,3.2-1.84,4.25-.11.26-1.11.17-1.18-.11s-.09-.95.03-1.24l1.4-3.46,1.12-2.77c1.18-2.9,1-.46,2.74-4.31.37-.83.91-1.95.89-2.8l-.1-4.32c-.05-2.03-.5-1.91-.64-4.44l-.15-2.76c-.23-4.2.4-2.14.07-6.67l-.28-3.89c-.11-1.56-.51-2.26-.97-5.22l-.33-2.07c-.03-.19-.47-.66-.66-.67-.13,0-.41.11-.58.2l-2.99,1.58-2.69,1.09-2.5,1.33c-3.37,1.79-3.33,1.6-6.49,4.42-.71.64-2.08.99-2.94,1.51l-3.03,1.85c-.74.45-1.42.91-2.17,1.33l-2,1.13c-.63.35-1.27.79-1.88,1.2l-1.91,1.27c-1.32.88-2.62,1.78-3.86,2.78l-1.93,1.55c-2.74,2.2-1.77,1.11-3.79,2.79l-1.72,1.43c-.71.59-1.33,1.14-2.06,1.82-.56.52-1.41.95-2.05,1.41l-3.63,2.64-1.74,1.38-1.98,1.52-5.3,3.75-4.58,4.13c-.77.7-1.46,1.56-2.13,2.37l-2.24,2.73c-1.28,1.55-.34,2.33-2.67,4.78l1.33.96-2.37,3.34c-.32.46-.82,1.21-1.08,1.67l-2,3.64c-.36.65-.71,1.66-1.04,2.4l-1.81,4.1-1.15,2.69-1.24,2.99c-.46,1.12-1.03,2.55-1.74,3.4l-1.94,2.34s.26.18.52.36l.58.13c.07.01.4.04.45,0l.45-.23.47-.24c.08-.04.53-.16.6-.15l.71.05,1.03.09c.06,0,.18,2.07-2.6,2.88l-2.76.8c-.87,1.33-.22.87-.99,3.89-.45,1.78.6.37.2,3.15l-.35,2.47c-.05.38-.09,1.28-.04,1.67l.24,1.75c.04.26.02.73.16.68s.59-.2.73-.21l1.52-.07c2.29-.11,2.99,1.74,6.12-.2l1.55-.96c1.94-1.2,1.19-.53,3.26-1.66l3.43-.06c3.36-.06,4.74,2.1,5.53,5.3.24.95-.36,2.75-.94,3.47-.67.82-1.75,1.56-2.2,2.33l-1.96,3.34-1.01,1.8c-1.27,2.26-1.48,2.99-2.38,5.3l-.78,2c-.28.73-.6,1.52-.8,2.26l-.32,1.21c-.05.19.14.71.27.86l1,1.09c.21.44.31.67.27.59,2.08-.81,2.9.23,3.4.25l1.59.07c1.13.05,3.1.91,4.19,1.43l2.05.98c.4.19,2.88,2.03,3.43,2.63l1.37,1.48c.35.38.98,1.4,1.27,1.83.68.98-1.82,3.01-2.54,3.6-2.78,2.28-.54-1.95-6.87,4.31-.67.66-1.43,1.37-2.18,1.97-2.58,2.08-.29.67-3.46,4.61-.38.47-1.85.75-2.32,1.13-2.49,2.02-2.64,3-4.47,4.26-.07.15-.3.75-.4.96l-1.58,2.99-1.27,2.24c-1.55,2.73-1.36,1.8-2.82,4.8-1.83,3.75-1.29,1.8-2.32,4.26l-1.14,2.7-1.75,3.81-.97,2.17c-.66,1.48-1.74,2.59-3.35,2.92-.26-.29-.66-.71-.62-.68l1.6-2.23c.41-.57.88-1.45,1.25-2.13l1.27-2.3c1.2-2.17,1.01-3.1,3.28-6.78.19-.3.74-.9.85-1.22.19-.56.56-1.39.85-1.89l1.3-2.25,2.46-4.19c.4-.68.95-1.35,1.45-2.06.43-.61.86-1.88,1.33-2.4.77-.85,1.32-1.49,1.94-2.32l1.48-1.99c.29-.39,1.07-1.07,1.48-1.3,2.85-1.65,1.09-.91,4.18-3.85l1.79-1.71c.71-.67,1.5-1.67,2.21-2.22,2.84-2.2,2.03-2.09,4.28-2.79l1.4-.44c1.01-1.12-.38-2.51-1.12-3.4-.85-1.02-1.62-1.95-2.83-2.43-3.2-1.27-1.46-.91-4.85-.43-.14.02-.62-.15-.78-.19l-2.02-.54c-3.44-.92-2.79.9-4.17-.87l-1.25-1.59-1.17-1.48c-.49-.63.08-1.69.45-2.46,1.67-3.47,1.14-3.21,2.62-6.44l1.2-2.6.58-.89,1.6-3.2c2.38-4.76,2.05-1.58,3.07-5.08.85-2.92-.35-5.77-1.63-5.68l-3.25.22c-.47.03-1.3.16-1.66.36l-2.87,1.66c-1.31.76-3.03,1.3-4.59,1.73-.87.24-2.57-.77-3.42-.73l-2.79.14c-.4.02-1.3-.7-1.31-1.15l-.11-4.44c-.2-7.98,2.59-6.66,1.05-10.84l-2.42.24-1.63.18-1.67,2.57c-2.82,4.35.14,1.36-3.39,5.96l-1.37,1.79c-1.74,2.26-2.65,3.98-3.89,6.55l-2.72,5.62c-.29.59-.61,1.3-.85,1.89l-1.2,3.04c-1.04,2.64-3.46,5.73-3.71,6.29-.66,1.46-1.07,2.94-1.63,4.4-1.52,4.02-1.5,2.39-1.43,4.71.02.7-.63,1.86-.91,2.64-.14.39-.27,1-.39,1.42l-1.1,3.75c-.34,1.16-.75,2.79-.79,3.99l-.15,5.24-.05,1.71-.52,1.5c-.4,1.17-.02,3.12-.17,4.41l-.31,2.85-.07,2.37-.27,2.5c-.07.7-.08,1.39-.1,2.07l-.04,1.98-.02,1.94-.03,3.22-.09,1.22.02,5.62-.11,2.19-.09,3.05c-.07,2.56,1.13,3.6.08,5.31.13.3.4,1.09.44,1.54l.23,2.67c.07.85-.03,1.76-.12,2.76l.51,2.71c.51,2.69,1.16,2.41.64,5.8-.33,2.15,0,3.67.58,5.78l1.32,4.83c.12.42-.04,1.18-.2,1.53,2.44,2.72.24,2.82,1.79,6.15,2.55,5.49-.4,2.69,1.9,5.81.56.76,1.19,2,1.47,2.9l1.01,3.26,1.51,4.43.62,1.84c.52,1.53,1.16,1.95,2.25,3.95l2.1,3.88.86,1.6,2.03,3.82,1.35,2.56,1.25,2.3c.99,1.81.13,2.61.24,2.75.22.26,1.37.67,1.77,1.42l1.47,2.7,2.25,3.67,1.27,2.31c1.37,2.5,2.31.88,2.44,4.01.49.28,1.52.83,1.92,1.26l1.9,2c.49.52,1.23,1.54,1.73,1.94l2.94,2.34c5.2,4.14-.35,1.34,5.26,4.17l2.95,1.49c.17,2.4.71,1.7,4.2,3.17,3.08,1.3,1.94,1.17,4.23,2.71,1.22.82,2.1,1.54,3.18,2.44.95.79,2.2,1.58,3.25,2.32l2.69,1.9c1.28.91,1.52,1.89,2.83,2.32,5.55,1.85,2.47,1.94,4.57,2.71l1.03.38c3.87,1.42,1.68,1.34,6.23,3.91,1.11.63,2.11,1.16,3.21,1.71l2.31,1.15c3.48,1.73,2.6,2.11,7.01,4.78l2.88,1.74c.83.5,6,1.8,9.13,3.35l2.64,1.31,2.48,1.3c1.33.69,2.32,1.55,3.99,1.09l.21-1.3c-.15-1.48-.03-2.74.05-4.23l.21-3.83c.03-.54.18-1.46.31-2.01l.63-2.79-3.7-2.22c-.82-.49-2.85-.39-7.26-3.57-3.22-2.33-1.17-2.74-3.62-3.67l-1.56-.59c-.85-.32-2.65.18-3.53,0l-3.68-.81c-.9-.2-2.89.34-3.7-.03l-4.8-2.22c-.73-.34-1.41-.84-2.13-1.3-.47-.3-1.59-.59-2.25-.92-.85-.43-1.58-1.25-2.3-1.82l-1.59-1.26c-2.44-1.93-.22-.58-3-3.6l-2.15-2.34c-1.25-1.36-.46-2.9-2.23-3.45l-1.11-2.3c-.46-.96-.82-1.99-1.17-3.03-1.42-4.18-2.14-2.76-1.64-5.02s1.14-4.88,2.5-6.63l2.61-3.38c.29-.37.72-1.05.92-1.47l1.5-3.15c1.69-3.56,2.57-2.43,2.92-3.24l.82-1.86c1.95-4.45,2.99-.17,5.15-5.31-.66-.35-1.45-.4-2.28-.59l-2.09-.48c-.96-.22-2.71.35-3.49-.01l-1.33-.61c-2.1-.96-.68-1.36-2.35-1.37-6.49-.02-1.42-.29-5.82.57-1.17.23-2.15.74-2.91,1.64-2.24,2.67-4.71.62-5.73.53-.94-.08-2.64.26-3.47.69-3.44,1.8-2.68,2-6.5,3.59-.32.13-.84.86-1.09,1.09-2.42,2.2-5.23-.04-6.06-.21l-1.81-.38-2.54-.93-2.03-.95-4.67-1.75c-.53-.2-1.43-1.16-1.73-1.63-.88-1.39-1.86-1.94-3.31-3.65-.84-.99-1.34-2-2.99-1.67-.64.13-1.77-.38-2.1-.95-2.27-3.91-.79-1.67-1.84-5.2-.34-1.13-1.65-.59-2.29-3.19l-.14-.56c-.02-.09.44-.29.54-.28l1.98.16c.4.03.62,1.3.85,1.63.7.96,1.66,2.2,2.21,3.23.32.59.52,1.31.88,1.53,1.26.77,2.63-1.32,3.63.58l1.84,3.49c.41.77,1.16,1.32,1.9,1.92.78.64,1.6,1.57,2.47,2.01,1.19.59,2.22,1.03,3.4,1.51l2.25.91c.55.22,1.22.47,1.8.62l4.51,1.14c1.9.48,3.72-.31,5.26-1.3,4.28-2.75,1.17-1.63,4.88-2.94,6.3-2.24,1.74-.76,7.42-.94,1.81-.06,2.28-1.27,3.75-1.67l3.27-.91c.66-.18,1.63-.29,2.35-.36l2.36-.24c1.41-.14,2.8-.41,4.08.29l3.33,1.81c.55.13,1.92.23,2.49.39l2.1.57.97-.04c.43-.02,1.12.78,1.1,1.19s-.31,1.2-.58,1.68l-1.77,3.09c-.55.96-3.16,1.95-3.42,2.52l-1.23,2.73c-.3.65-1.85,1.2-2.52,1.53-1.64,4.45-2.3,5-5.1,8.54-.43.54-1.11,1.77-1.25,2.42l-.91,4.17c-.42,1.91,1.62,2.04,1.38,2.16-1.38.67-.14,3.54.21,4.18l1.89,3.39c1.45,2.6,1.67,2.08,3.54,3.4,1.02.72,2.57,1.17,3.73,1.11.39-.02,1,.87.83,1.17-.74,1.32-2.01,1.25-1.56,1.76.14.15.4.42.63.63l1.87,1.66c1.76,1.56,1.46,1.97,2.3,2.11.91.16,1.62-1.77,2.33-.98l1.42,1.58c.39-.28,1.04-.81,1.26-.69l2.18,1.24,1.39.54c.61.24,1.56.87,2.25,1.16l1.7.73c3.68,1.57,2.61.28,5.64.32l1.8.02c1.81.02,2.75,1.47,3.05,3.1,1.13.91,2.5,2.06,3.78,2.77l2.29,1.26,3.43,1.48c1.07.46,2.19,1.58,3.3,1.26l1.2-1.49,1.36,1.69-.69.67,2.24,1.63c2.01,1.46,1.35,2.07,4.26,3.28l2.21.92,2.26.94c.94.39,1.81.96,2.63,1.53l2.91,2.04c.55.39,1.25,1.12,1.83,1.59,1.35,1.1,2.66,2.27,3.56,3.73l1.49,2.42c.29.47.79,1.08,1.16,1.56l1.39,1.78c1.38,1.77,2.8.75,2.69.91l.7-.98,1.29,1.19-.33,1.94-1.6.87c1.68,1.58,7.28,2.3,9.03,1.85.37.06,1.36.44,1.79.45l5.41.19,1.86.07,1.7.14h8.04c.66-.01,1.5-.14,2.08-.08l2.22.25c2.09,1.23.29.02,5.52.43,2.25.18,4.56.16,6.87.07l1.7-.06c.22,0,.63-.12,1.33-.28.04.07-.09-.17-.15-.29-3.45-2.04-2.46-2.45-6.09-4.09l-.54-1.2c-.83-.59-1.99-1.46-2.28-2.2l-.84-2.17c-.69-.34-.92-.54-1.21-1.11-.86-1.66-.9,0-1.62-2.03-.1-.28.31-1.15.55-1.05.57.37,1.12,1.53,1.48,1.99l2.13,2.82c1.85,2.44,4.08,4.66,7.18,5.13,1.06-.15,2.35-.7,3.02.34.34.54.45,2.1-.01,2.51l-1.38,1.2c1.14.5,1.94.47,3.01.43l2-.07c2.87-.1,3.56.17,5.99.03l3.18-.18c1.07-.06,2.1-.15,3.14-.26l3.15-.34,3.08-.2,2.73-.32,2.3-.16c.6-.04,1.72-.59,2.28-.58.91,0,2.21.02,3.14-.11l3.18-.44,3.05-.48,2.17-.29c.96-.13,1.95-.35,2.9-.54l2.61-.53,4.13-.77c.37-.07,1.2-.32,1.53-.46l1.98-.84,3.08-1.15c.62-.23,1.2-.63,1.9-.88l3.83-1.36,3.91-2.04,2.12-1.03,3.09-1.43,4.58-2.08c1.44-.65,2.8-1.54,4.24-2.35.43-.24,1.11-.87,1.56-1.17l2.94-1.98,2.12-1.38,2.03-1.05,3.05-1.84c.7-.42,1.46-.9,2.12-1.36l2.85-1.99c.56-.39,1.19-.72,1.66-1.11l1.54-1.29c.97-.81,2.29-1.44,3.36-2.19l4.11-2.89,2.05-1.39,1.95-1.27c.49-.32,1.17-.93,1.68-1.34l2.93-2.32,4.25-3.37.91-.89ZM131.3,62.48l2.12-1.52c1.32-.95,2.71-1.7,4.13-2.47l1.57-.85,2.73-1.5c.48-.26,4.95-2.9,4.41-3.35l-.5-.41c-1.14-.94-2.21-1.91-3.24-3.05l-1.47-1.65c-.05-.4-2.9-.7-2.8-1.62l.22-2.02c.2-.06-.09.03-.29.08l-1.61.92c-2.53,1.45-3.19,2.25-4.99,2.99-.8.33-1.57.74-2.18,1.29l-2.61,2.32c-.49.44-1.74,1.04-2.11,1.42l1.8,3.04c.29.5.53,1.34.73,2.08,2.25,2.23,1.64,1.68,4.64,2.52l-.56,1.78ZM124.09,67.87c.36-.32,1.23-1.14,1.58-1.4l3.86-2.88c-2.28-1.05-3.24-1.96-4.3-3.88l-1.12-2.02c-.27-.48-.78-1.58-1.27-1.84-.74-.39-2,.09-2.64.62-.71.58-.96,1.73-.56,2.49l1.49,2.84c.56,1.07,1.13,2,1.63,3.23.76,1.9,2.65,1.18,1.92,1.65l-.53.34-.57.37c-.11.08.43.54.52.46ZM289.43,394.22l3.88-1.26,1.84-.61,4.2-1.42,3.92-1.43c.17-.06.95-.49.83-.58-2.89-2.16-1.55-.04-4.49-3.52-1.05-1.23-2.63-.68-2.69-.85l-.57-1.66c.6-.45.09-.4-.47-.27l-2.37.71-.53.27c-.08.04-.42.12-.49.14l-.65.12c-1.34.25-.91.59-1.58.71l-9.13,1.69-.7.17-5.73.79-.62.11-3.83.44-2.66.39-.57.09-2.46.33-5.04.24-1.82.19-2.84.3c-.65.07-1.83.38-2.44.38l-12.16.07-2.05-.12h-3.53c-.64,0-1.63.1-2.39.2-5.29.67-1.39-.48-5.41.11-.7.1-1.56-.03-2.34-.07l-3.72-.2-1.51-.25-7.92-.08-2.15-.02-3.06-.43h-2.06c-.99-.02-7.03-.25-7.6-.33l-3.97-.55c-2.8-.39-3.99-1.4-8.38-2.27l-4.98-.99-2.69-.56-2.77-.86-2.88-.72-3.58-.98-2.25-.77-3.87-1.06c-2.7-.74-4.56-1.28-7.2-2.61l-2.28-1.15-1.41-.44-1.91-.84-2.01-.82-2.02-.75-3.44-1.09c-.33-.11-1.02-.48-1.32-.54-2.42-.46-3.56-1.2-5.48-2.75-.55-.44-1.62-.77-2.26-1.21l-2.44-1.68-3.34-1.93-3.13-1.81-1.45-.83-1.86-.99c-1.15-.61-2.11-1.6-2.96-2.64-.66-.23-1.99-.57-2.56-.89l-3.67-2.28c-1.16-.72-2.24-1.43-3.29-2.18l-1.84-1.32-1.67-1.19c-2.45-1.75-2.46-2.03-4.48-3.5l-3.45-2.51c-.68-.5-1.49-1.17-2.19-1.55-1.35-.74-2.34-1.58-3.67-2.37l-2.78-1.66-1.8-1.4-2.17-1.65-3.98-3c-.65-.49-1.82-1.21-2.32-1.78l-2.15-2.46c-1.85-2.11-1.95-2.81-3.11-4.14l-2.97-3.37c-.35-.4-.82-1.09-1.15-1.57l-2.44-3.52c-.52-.75-1.05-1.79-1.48-2.64l-3.05-6.09-2.88-5.51-1.91-3.69c-.37-.71-1.03-1.55-1.36-2.35-1.25-2.97-1.98-2.65-2.55-4.32l-.73-2.14-1.36-4.11-.92-3.03c-.14-.46-.51-1.06-.85-1.59l-.37-1.74c-.7-1.3-1.05-2.55-1.43-3.96-.34-1.25-.68-2.11-.04-3.68l-1.33-.46-.71-2.61-.99-3.92c-.12-.46-.22-1.35-.36-1.78l-.7-2.1c-2.02-6.06.25-5.2-1.05-10.42l-.56-2.23c-.22-.87-.44-1.98-.47-2.71l-.06-2.25-.18-6.6c-.06-2.4-1.28-3.16-.18-7.21-.15-.6-.28-1.51-.24-2.18l.22-3.15c.11-1.59-.15-2.95,0-5.88l.12-2.39c.05-.93-.24-1.91-.08-2.87l.46-2.77-.25-2.82c-.07-.82.08-1.99.27-2.81l.57-2.54c.09-.42.13-1.4.15-1.91l.19-5.18.03-2.53c0-.54.14-1.76.29-2.29l.84-2.99.99-3.16c.16-.52.31-1.43.45-2.05l.57-2.44.76-3.23c.38-1.62-1.36-1.39-.09-3.14.81-1.12,1.44-2.03,2.16-3.15,2.1-3.27,1.28-3.59,2.69-5.24.92-1.07,1.59-2.08,1.94-3.34l.54-1.99c.21-.78.43-1.87.85-2.58l1.94-3.19,1.06-2.18-.09-1.1,3.39-3.63c.46-.49,1.08-1.66,1.38-2.34,1.13-2.58,2.39-4.87,4.28-6.95l.8-1.6c.92-1.07,1.68-2.16,2.11-3.46l.71-2.15c.94-2.84,3.87-4.65,5.11-6.56l1.97-3.01c.72-1.11,1.52-2.62,1.96-3.82l1.08-2.93c.18-.48.66-1.23.99-1.69l1.2-1.65c.63-.86,1.24-1.81,1.91-2.61l1.76-2.08c.89-1.06,1.67-2.03,2.34-3.22l1.14-2.01,1.16-2.06c.25-.44.91-1.33,1.27-1.73l2.51-2.74,1.18-1.27,2.54-2.67,1.74-1.79c.82-.85,1.91-1.58,2.83-2.36l1.89-1.61c.87-.74,1.84-1.38,2.8-2.07l6.04-4.38,2.23-1.61,4.86-3.5c.77-.55,1.29-1.43,1-2.32l-1.56-4.88-1.06-3c-.12-.33-1.08-.72-.88-.65-.02,0,.08-.26.22-.67.06.03-.22-.13-.55-.33l-2.77,3.55-3.14,1.88c-.62.37-1.01,1.04-1.4,1.48l-1.48,1.69-2.47,2.81c-1.45,1.65-2.49,1.78-3.38,2.77l-1.52,1.67-1.97,2.22c-.99,1.11-1.98,2.14-3.07,3.18l-1.63,1.56c-1.81,1.73-1.99,2.45-4.32,4.32-1.47,1.18-2.59,2.5-3.67,4.04l-1.62,2.32c-1.04,1.5-1.17.44-3.31,3.53l-1.99,2.87c-1.9,2.73-2.07,4.01-4.09,5.62l-1.6,1.28c-.53.42-1.27,1.16-1.67,1.69l-1.22,1.64-.47,1.54-1.01.73c-.53,2.7-.99.1-2.39,3.36-.59,1.37-1.49,1.3-3.58,4.36-1.08,1.58-.82,1.77-2.28,3.95l-1.42,2.12-1.84,2.28-1.98,3.61-1.84,2.66c-.22.31-1.04.87-1.32,1.1l-1.1,2.38-1.94,3.97-1.35,2.84-1.1,2.36-1.12,2.4-1.38,3.15-1.91,3.71c-.41.8-.7,1.75-1.01,2.57-.56,1.48-1.21,3-1.63,4.54-.1.35-.48,1.06-.58,1.36l-.48,1.43c-.36.85-.66,1.64-.93,2.53l-.81,2.68c-.23.78-.64,1.65-1.02,2.46-1.09,2.31-.19,1.56-1.02,5.6l-.42,2.07-.37,1.6c-.88,3.76-.07,2.34-.81,4.42-.39,1.12-.6,2.01-.81,3.13l-.43,2.3-.55,3.63-.33,2.16c-.34,2.27-.86,4.06-1.8,5.88.6,2.37-.98,3.2-.82,4.89.08.84.36,2.01.29,2.77l-.25,2.84-.25,2.77c-.15,1.63-.2,3.21-.18,4.82.04,3.14.53,3.34.22,5.26-.29,1.76-.12,3.21-.04,4.96l.27,5.84c.03.61.74,1.82.63,2.4-.14.73-.44,1.67-.37,2.11l.37,2.47c.15.99.41,2.16.4,2.99-.01.97-.02,1.65.31,2.42l.87,2.01c.24.56-.02,2.03.14,2.61l1.58,5.75c.94,3.41.76,5.2,1.87,7.56,1.19,2.52.14,1.06,1.85,5.13.72,1.71,1.14,3.47,1.74,5.27l1.1,3.29c.71,2.13,1.31,4.14,2.19,6.17l1.92,4.44c1.32,3.06.78,3.99,2.24,6.51l.85,1.47,1.13,2.75c.29.7.53,1.99.9,2.52,2.42,3.42-.4.83,2.21,4.48.59.83,1.12,2.01,1.54,2.97l.88,2c.75,1.69,2.07,3.16,3.24,4.69.41.54.91.86,1.68,1.24.7.34,1.55,1.91,1.46,2.69l-.15,1.3,3.98,3.08,2.01,1.52c.66.5,1.95,1.08,2.39,1.63l1.32,1.63c.21.26.56.63.82.87.97.89,1.66,1.74,2.58,2.76.56.63,1.92,1.42,2.69,2.05l1.96,1.61c.78.64,1.38,1.82,2.08,2.44l2.39,2.09c.69.61,1.35,1.22,2.09,1.78,2.71,2.06,2.44.34,5.07,5,.59.29,2.01.73,2.57,1.16l2.42,1.83c.74.56,1.44,1.08,2.15,1.7l1.5,1.31,2.93,2.67,3.82,2.35c.88.54,1.23,1.88,5.49,3.66.46.19,1.04,1.4,1.52,1.66l4.01,2.17c.7.38,1.4,1.01,2.05,1.44,1.55,1.03,3.14,1.99,4.79,2.83,1.14.58,2.05,1.1,3.06,1.87l1.38.75c1.01.55,2,1.04,3.04,1.48l1.97.83c3.86,1.61,3.33,2.02,5.32,2.99,3,1.47,3.35,1.09,5.91,2.14l2.92,1.2c.3.12.95.69,1.22.83l1.4.67c.09.54.11.63.04.25,2.14-.03.46-.04,3.02.87l1.82.64,3.35,1.18,3.85,1.35c1.12.39,2.25.76,3.29,1.23l2.95,1.32c1.92.86,1.78.14,5.98,1.92s-1.21,1.16,6.4,2.37l3,.48c1.31.21,2.58.54,3.86.86,4.07,1.01.78,1.22,6.13,1.8l2.47.27c1.56.17,3.29.21,4.76.82l1.84.77,2.09.05,3.42.14c.74.03,1.76.01,2.41.26l2.51.97c1.05-.32,2.39-.74,3.43-.66l3.56.27,3.15.24c.8.06,1.67-.03,2.48-.14,3.77-.49,1.03-.55,4.76-.63l5.31-.11c.6-.01,5.45-.9,5.53-.9l5.85-.14c.42,0,1.44-.49,1.88-.55l2.75-.35c4.6-.58,4.69.3,6.95-.43.83-.27,1.95-.11,2.69-.23l2.87-.49c.67-.11,1.65-.16,2.15-.31,1.58-.48,5.63-1.47,7.23-1.7,1-.14,2.16-.12,3-.46,1.96-.79,3.89-1.99,4.8-2.21,3.72-.91,2.98-.02,6.65-1.33l3.72-1.33ZM75.61,129.63l-.34-1.74,1.29-2.41c1.5-.28,3.74-4.05,4.31-5.23l1.94-3.96,2.28-4.67,1.3-2.77c-.51.22-1.41.69-1.6,1.06l-1.06,2.05c-.46.9-.97,1.6-1.37,2.49-.33.75-.72,1.77-1.09,2.35l-2.71,4.31c-1.59,2.52-1.99,2.21-3.86,5.13-.6.95-2.4,3.79-1.89,4.31l2.79-.91ZM338.07,203.28l1.99,2.21c.36-1.37.42-1.95.6-3.14l.53-3.56.62-2.04.41-2.48.39-2.43.12-3.01.43-2.79c.36-2.3.45-5.79-1.23-7.64l-2.18-2.41-2.19-.29-2.93,1.52c-.38.2-1.12.78-1.43,1.06l-2.57,2.34c-.84.76-2.32.17-2.84,4.56l.76,3.48c.16.74.66,2.08,1.03,2.67l1.92,3.05,1.28,1.76,1.71,2.53c1.29,1.9,1.92,2.77,3.56,4.6ZM7.26,288.65c5.01.78,7.36-1.85,9.11-2.21l2.46-.51c.85-.18,2.08-.84,2.77-1.25l-.86-4.55c-.08-.43-.51-1.28-.82-1.64l-2.71,1.33c-.51.25-1.42.61-1.92.75l-2.51.69c-.75.21-1.5.58-2.13,1l-1.94,1.3c-1.39.93-2.4,2.3-3.12,3.84l-.44.94,2.1.33ZM89.43,466.43l1.33,2.53.83,1.57,1.13,2.05c.56,1.01,1.28,1.89,1.97,2.87,1.13,1.61,2.24,3.77,3.63,5.78l1.44,2.08c.32.46.84,1.15,1.19,1.5l1.61,1.63c2.97,3.02,1.06,2.29,3.03,3.87.72.57,1.85,1.27,2.13,1.94.82,1.93,1.67,3.32,3.1,4.73,2.11,2.09.41,1.23,3.37,3.9l1.85,1.67c.1.09.47.41.45.4-.02-.01,1.24-1.06,1.17-1.27l-.39-1.09c-1.93-5.46.2-3.56-2.97-8.14-.85-1.23-1.65-2.52-2.6-3.66-2.23-2.66.28-2.14-2.14-5.12l-1.3-1.6c-2.73-3.36-.89-3-4-5.38-.56-.43-.98-1.85-1.39-2.36l-1.11-1.39-1.44-1.8-1.82-.72.42-2.76c.27-1.78-1.6-1.83-1.93-5.29-1.9-3.28-.17-1.86-2.68-5.28-.29-.4-.82-1.05-1.03-1.43l-1.15-2.06c-1.49-2.68.84-.11-1.36-2.77-.32-.39-.86-1.19-1.05-1.63l-1.32-2.95c-.33-.74-.82-1.46-1.36-2.11l-.19-.86c-2.11-2.45-2.17-5.27-3.11-7.03l-.92-1.71c-.6-1.12-.92-2.7-1.72-3.5-.14-.14-.91-.37-.97-.55l-.56-1.89c-.67-1.01-1.19-2.1-1.72-3.21l-2.22-4.71c-.32-.67-.88-1.46-1.33-2.08l-1.08-1.47.21-1.19c-2.29-3.12.35-2.7-1.92-4.44-.51-.39-1.34-1.42-1.61-2.01l-.94-2.05.66-1.31c-2.32-3.28-.46-2.73-1.31-3.79l-.97-1.21c-2.37-2.94-3.38-4.27-4.54-8.14-.07-.22-1.18-2.68.11-3.27.19-.09.79.18.92.36l1.45,2.01c1.06,1.47-.13-.02,1.21,2.9l.89,1.95c.25.54.51,1.34.74,1.95l.96,2.54.44,1.41c.54.79,1.03,1.6,1.33,2.49l.7,2.05c.13.38.83,1.08,1.01,1.47l1.66,3.52c.52,1.11,1.82,1.82,2.83,2.41l.92,2.16c.51,1.2.9,2.39,1.35,3.66.77,2.17-.51,1.68.52,2.51.85.68,1.36,1.65,1.35,2.92,0,.67.86,1.52,1.17,2.18l1.57,3.34.94,1.61c.32.54.76,1.47,1.03,2.03,3.06,1.83,2.03,2.03,3.79,6.22l.74,1.75c.15.36.09,1.52.28,1.89l1.83,3.66,1.52,3.12c.68,1.39.84,2.87,1.73,4.26l1.82,2.83,1.56,3.72,1.07,2.73c1.43.32,2.56,1.21,3.15,2.49l1.21,2.62c.44.95.87,1.86,1.44,2.68l1.59,2.3c1.79,2.59,2.21,2.22,1.89,3.51.44.44,1.36,1.26,1.75,1.84l1.84,2.8c2.22,3.38,1.21,2.22,3.23,6.08.56,1.07,1.07,2.19,1.71,3.21l1.06,1.71c.23.36,1.25.61,1.34,1.01.42,1.96-1.54,2.72-.12,5.02l.69,1.11c.65,1.06,2.1.38,2.85.1l3.19-1.17c.75-.28,1.64-1.29,2.01-2.01l.86-1.68c-1.34-.85-3.01-3.55-3.89-5.09-2.08-3.67-1.05-.79-2.14-3.5-1.18-2.92-.52-.84-2.7-4.25-1.04-1.63-1.85-2.17-2.72-3.46l-1.43-2.11-1.64-2.26c-2.06-2.83.58-.52-1.86-3.71-.89-1.16-1.49-2.95-2.55-3.93-1.77-1.65-2.82-2.63-3.6-4.9-.51-1.5-1.93-.49-2.42-1.59-.62-1.39.63-.55-.14-2.78l-.89-2.57c-.22-.24-.81-.81-1-1.1l-2.49-3.71-1.73-2.53c-2.22-3.26-.93-3.14-2.96-5.76-.42-.54-.46-2.06-.76-2.72-.63-1.39-1.63-2.6-2.26-3.95l-1.69-3.65c-.36-.78-.77-1.69-1.04-2.5-.22-.66-1.46-1.72-1.51-2.42-.05-.66,0-1.68-.23-2.08-2.65-4.62-.58-2.82-1.57-4.51l-2.13-3.61c-.33-.57-.56-1.64-.83-2.28l-1.45-3.38c-.19-.45-.87-1.28-.98-1.8-.33-1.63-.98-2.99-1.88-4.42-.54-.86-.99-2.08-1.44-3.08l-1-2.2c-1.45-3.21-1.36-4.39-3.3-7.41-2.49-3.87-2.32-2.44-4.6-6.94l-1.15-2.28-1.18-2.29c-.34-.66-.71-1.49-1.08-2.05l-1.66-2.55-1.14-1.66-.31-1.75c-1.51-2.49-1.72-1.92-2.11-4.9l-1.49-2.73c-.29-.52-.92-1.31-1.15-1.86l-1.26-3.02c-.42-1-.69-2.06-1-3.19l-.84-1.83c-1.61-3.52-1.3-1.24-2.26-5.09l-.64-2.57c-.39-1.57-1.55-3.12-2.17-4.6-.83-1.98-1.62-3.45-3.11-5.09-.46-.51-.15-2.09.36-2.66s.44-1.28.07-1.8l-1.32-1.88-2.32-2.91-1.56-1.97c-.53-.67-1.03-1.84-1.54-2.62l-1.93-2.93c-.56-.85-1.12-1.66-1.65-2.56l-.77-1.31-2.08-3.51c-.27-.46-.55-1.09-.73-1.64l-1.04-3.15c-.08-.24-.61-.81-.57-1.03l.11-.77c.02-.16-.72-.43-.77-.59-.37-1.07-.84-3.35-1.4-4.38-2.57-4.69-1.1-3.05-2.8-6.29s.07.14-1.33-3.78c-.74-2.07-1.51-4.02-2.37-6.01l-2.97.71c-.02,1.06.02,2.25.21,3.32l.43,2.42c.12.65.3,1.25.52,1.89,1.47,4.18-.12,2.83,1.16,4.74.63.94,1.11,1.94,1.26,2.95l.33,2.21.83-.15c.1-.02.5,0,.56.08l1.09,1.62.98,1.46.47,1.15c.62,1.52,1.91,3.51,2.33,5.33l.42,1.83c.13.58.22,1.49.29,2.2l.16,1.68c1.21,1.69.41,1.26,1.41,3.67l.92,2.2.98,2.13c.33.73.57,1.84.88,2.7,1.85,5.03,2.25,2.21,2.71,4.84.66,3.75,1.93,2.08,2.7,6.38l.94.89,1.31,2.74,2.59,5.4,1.01,2.18.58,1.56,2.53,5.87.84,1.83.99,2.52.83,1.98c.28.66.72,1.33,1.13,2l1.04,1.71c.08.13-.18.85-.31.83-.38-.06-1.17-.34-1.29-.59l-.89-1.87-1.15-2.4c-1.42-2.96-1.9-3.08-2.88-5.47l-1.01-2.44c-.36-.88-.73-1.89-1.15-2.66l-1-1.82-1.24-2.26c-.42-.77-.81-1.55-1.08-2.36l-1.42-4.25c-.51-1.54-2.08-2.85-2.97-4.22-.78-3.36-1.43-1.82-2.18-5.26l-.88-.74-2.02-3.28-.28-2.44-1.46-3.22c-.28-.62-.88-1.5-1.13-2.2l-1.01-2.8c-.14-.4-.08-1.56-.11-2.02-.11-.18-.77-.79-.84-1.02l-1.01-3.49c-1.03.15-2.73-.51-2.52-1.67s.15-2.08-.17-3.15l-.98-3.29c-1.33-.54-2.29-1.93-1.28-3.43l-2.36-2.81c-.39-.47-.07-1.41.41-2.01l-.86.08c-.24.02-.49.04-.43.03l-.62-2.79c-.1-.47-.7-1.42-.77-1.89-.16-1.13-.43-2.02-.89-3l-.05-1.03-1.4-.78c-.76.37-1.73.89-2.34,1.04-4.7,1.17-.94,1.08-6.04.85-.23-.01-.72.09-1.32.19l1.07,2.9q.51-.05.01,0c0,.41,0,.93.08,1.21l1.78,7.24c.02.09,0,.7.03.78l.17.6.99,3.85.66.99.76,2,.3,1.88c.07.46,2.38,4.95,3.2,7.65l.63,2.08.81,2.96.62,2.17.63,2.02.6,2.09c.1.34.16.66.24,1.33-.05-.06.17.2.37.44.94,1.15,2.05,2.59,2.51,3.99l1.39,4.3.71,2.18c.24.75.62,1.6.96,2.48.17.44.27,1.2.41,1.65.97,3.09,2.55,6.02,2.82,8.24.12.96.26,1.2.92,1.96.54.63.7,2.23,1.11,2.99l1.12,2.07c.96,1.77,2.78,6.36,2.66,8.2.16.47.52,1.46.75,1.93l1.18,2.4c.51,1.03,1.67,5.48,1.95,6.96.5,2.63,1.06,5.06,1.93,7.48l1.12,3.13.73,2.81c.1.39.79,1.17,1.51,3.06l1.02,2.67c.09.25-.14,1.11-.11,1.29.21.33.54.83.75,1.19l1.17,2.04c.26.46.7,1.32.88,1.81l1.3,3.58,1.02,2.86,1.3,4.02c.26.79.7,1.65.89,2.47,1.27,5.28,2.2,5.46,4.02,10.67,1.52,4.34.86,3.81,2.67,8.18.4.97.63,1.86.96,2.9l1.07,3.39,1.05,3.12.64,1.88.99,2.16c.19.41.28.99.49,1.35l1.24,2.07c.77,1.29,1.15,2.63,1.53,4.14l.61,2.4c.25.31.94.9,1.05,1.26l.42,1.43c1.97,2.28-.33,1.7,1.6,4.01.38.45.57,1.74.84,2.27,1.12,2.23,1.99,4.24,2.91,6.57.18.45.71,1.31.87,1.78l.71,2.18c.19.58.51,1.43.77,1.93l1.08,2.1,1.02,2.19c.34.73,1.01,1.64,1.29,2.45l1.05,3.06c.14.19.88.73.94.97l.85,3.48,1.62,1.22,2.3-1.3c-.18-.84-.58-2.46-.97-3.45-.28-.7-.69-1.33-.54-1.94.57-2.3-1.41-2.59-1.99-4.94l-1.32-5.35c-.89-3.59-.47.43-1.12-3.74l-.44-2.82c-.13-.8-.45-2.31-.74-3.01l-1.81-4.47c-.32-.8-.64-1.73-.83-2.58l-.34-1.5c.44-.8,1.31-2.25,1.88-2.98.29-.38,1.77.24,2.05.45l1.28-.05c.83.41,4.74.06,4.67-.53-.25-2.34-.25-.14-1.34-4.04-.1-.35-.23-1.22-.38-1.57-1.57-3.5-1.51-2.87-2.76-7.12-.16-.55-.56-1.4-.66-1.91-.29-1.43-.64-2.5-1.23-3.71l-1.39-2.88c-1.11-2.3-1.62-3.64-2.26-6.11l-.18-.69c-.04-.15.6-.14.86-.18s-.17.89-.04,1.1l1.39,2.2c.38,1.24.82,2.42,1.34,3.57l.93,2.07,2.01,4.48,1.43,3.15,1.68,2.75,1.17,2.38,1.25,2.53.81,1.67c1.86,3.84.31,2.52,2.08,5.86ZM434.48,308.76l-.23.72c-.04.14.44.27.52.15l.38-.56c2.02-3.04,1.2-1.51,4.07-3.41-3.96-2.11-3.31-3.01-6.66-4.43l-2.25-.95c-.74-.31-1.53-.41-2.14.05l-3.62,2.74-2.81,1.27-1.5,1.05,1.93.71c.69.25,1.29.68,1.86,1.28l1.66.35c1.27,1.27,2.91,1.9,4.66,1.48l.56-1.62c.16-.46.99-1.11,1.45-1.16,1.02-.1,2.34,1.63,2.12,2.31ZM185.53,382.2l1.87.24c-1.76-2.93-1.98-1.56-3.33-3.61l-2.39-3.62c-.7-1.06-1.54-1.83-2.58-2.7l-1.6-2.08c-1.49-1.94-3.99-2.77-6.29-3.51l-2.39-.77c-1.45-.47-4.86-1.93-5.19-3.55-.27-1.3-.88.52-2.26-2.78l-.67,2.29c-.38,1.31-.22,6.4-.05,8.14l.31,3.16c.04.42-.56,1.41-.84,1.79l4.82,1.37,3.18.79,3.51,1.02,2.33.77,3.14,1.01,2.45.75c.83.26,1.6.4,2.61.54,2.78.39-.8.21,3.35.75ZM318.41,383.76c.68-.28,1.32-.46,1.94-.67l2.31-.77,2.78-.8,1.88-.56c2.59-.77,1.82-.96,3.63-1.82l2.81-1.34-1.23-1.99c-.58-.93-1.05-1.93-1.57-2.96-1.27-2.51-2.23-2.91-2.76-6.25l-2.76,1.71c-.59.36-1.17.75-1.69,1.11l-1.45,1.04c-1.58,1.13-3.29,2.1-5.1,2.84l-2.21.9c-.75.3-1.55.64-2.21.98l-2.33,1.18-2.31,1.12.82,1.46c.12.22.55.75.77.95l1.63,1.47,2.41,2.18c.43.39.83.97,1.22,1.62l3.43-1.4ZM311.47,386.44c.21-.09.76-.52.58-.63-.12-.08-.45-.29-.6-.41l-2.12-1.69c-.41-.33-1.11-.93-1.43-1.28l-2.38-2.63c-.51-.57-1.54-.53-2.19-.16-2.8,1.61-.41-.24-3.54,1.55l2.1,1.64c2.1,1.64,2.66,1.51,3,3.27.11.24.75.51,1.16.66,3.04,1.11,2,1.14,5.42-.32ZM205.34,536.97c-.75-.19-2.01.01-2.62-.21-2.66-.94-4.95-1.14-7.76-1.12-1.15,0-2.66-.71-3.82-.87l-2.46-.33c-.77-.1.1-.06-.97-.33l-2.6-.66c-1.18-.3-2.49-.64-3.67-.8l-2.83-.4c-4.37-.62-1.88.23-3.91-.63-.72-.3-1.75-.47-2.62-.64l-2.86-.54c-1.8-.34-3.56-.76-5.31-1.27-3.04-.87-4.58-.41-7.5-2.59-.96-.71-.33.5-2.12-.26l-1.49-.63c-.92.17-1.9-.25-2.71-.84l-3.61-.95c-.56-.15-1.49-.77-1.99-.84-.67-.1-1.23-.23-1.74-.46l-2.95-1.3-2.62-1.02c-.78-.3-2.06-1.38-2.72-1.99h-.6s-4.93-2.14-4.93-2.14c-.49-.21-1.18-.58-1.56-.85l-3.47-2.55c-2.47-1.82-1.66-.47-2.56-1.62-1.83-2.35-3.68-1.12-5.03-3.2-.44-.68-.82-1.14-1.35-1.49l-2.4-1.57c-.76-.5-1.3-1.74-1.92-2.53-.65-.83-1.78-1.81-1.96-2.76l-.21-1.06c-.03-.14-.72-.17-.81-.27l-3.22-3.55c-.98-1.08-1.78-1.9-2.63-3.04-.32-.43-.87-1.04-1.27-1.43l-1.44-1.43c-.42-.41-.88-1-1.23-1.51l-1.44-2.06-1.87-2.67c-.52-.75-1-1.53-1.46-2.33l-1.28-2.23c-.65-1.12-2.12-2.01-4.62-6.79-.29-.56-.56-1.15-.85-1.62l-.94-1.51c-1.12-1.31-3.04-1.16-4.55-.5-.4,1.11.37,3.3.95,4.05l1.25,1.61c.43.55.84,1.27,1.21,1.89l1.57,2.62c.48.8.94,1.64,1.36,2.47l1.42,2.79c.92,1.82,2.32,2.04,2.93,3.2l1.36,2.58c1,1.9,1.72.16,2.68,2.87.37,1.03.87,2.25,1.52,2.93l1.41,1.46,2.34,2.52,2.12,2.46.79,1.57,1.19,1.69c.79,1.13,1.73,2.12,2.73,3.2,1.57,1.69-.09.94,1.74,2.43l.53,1.21c.45,1.03,1.47.33,2.49,1.6l2.5,3.13c1.79,2.24,1.74.57,3.47,2.76l1.02.77c.53.71,1.04.99,2.14,1.06,2.13.14-.61,1.42,5.69,3.48,3.46,1.13,1.32.96,4.16,2.22.63.28,1.94.38,2.32.8,1.76,1.97,1.86,2.44,5.01,3.11,1.87.4.29.64,3.14,1.97.72.1,2.1.16,2.7.45l2.37,1.15c.95.46,1.91.89,2.89,1.3l2.68,1.11.38.72c.06.12.51.3.66.3,3.19.13,1.17,1.16,2.75,1.39.68.1,1.76.31,2.35.42l1.87.36c4.75.91,3.46,1.39,6.89,2.15,1.4.31,2.76.7,4.1,1.15,3.09,1.05.87-.65,3.57.48l2.24.94,1.65.69c3.11-.45,2.85,1.2,5.05.69.94-.22,2.05-.29,2.67-.06l1.34.5,1.79.68c.34.13.88.28,1.35.41l1.51.42,2.68.02,2.86-.14c.7-.03,1.72.28,2.41.53l3.2,1.14c.68.24,1.82.38,2.55.36l2.21-.06c2.48-.06,4.79-.68,7.12.8.63.4,1.71.35,2.57.26l1.82.48,1.66.45,4.2.35,4.81,1.14c.89.21,1.96.03,2.99-.01.93-.04,2.38.4,3.38.44l4.49.19c.41.02,1.31.21,1.72.13,1.24-.25,2.59-.22,3.95.06l1.6-.17,2.53.22,2.81.26,3.05.3,2.84-.55,4.15.48c.71.08,1.33,0,2-.18l1.87-.5c.57-.15,1.31.01,2.05.34,3.58-.24,1.48-.52,5.24-.68l2.81-.12c1.56-.07,2.92-.18,4.47-.49,3.57-.71.39.93,7.4-.94,3.05-.81,2.08.47,4.07-.05l3.43-.9,2.15-.96c1.19-.53,3.01-.54,4.2-.58.91-.03,3.17-1.85,4.22-1.92l3.77-.26c.65-.05,1.45-.14,1.96-.09l.95.09c.07,0,.25-.74.31-.75l2.72-.55c3.7-.74,2.3-.81,4.39-1.18l3.66-.64c.53-.09,1.53-.61,2.07-.95,4.58-2.87,3.72.05,6.61-2.47.64-.55,1.52-.85,2.36-1.17,3.39-1.26,2.01-1.58,3.87-1.85,1.06-.16,1.66-.35,2.43-.77,3.38-1.83,1.08.01,3.46-2.22.42-.39,1.49-1.05,2.04-1.27,1.37-.53,2.39-1.05,3.67-1.63l1.48-.67,2.06-1.08c.72-.38,1.62-.79,2.27-1.19l2.4-1.46c.42-.26.96-.68,1.38-1l3.58-2.72c.51-.39,1.09-1.09,1.56-1.54l2.17-2.04c2-1.88,2.6-2.64,4.13-4.99.25-.38,1.04-.91,1.45-1.28l2.36-2.14c1.25-1.14,1.39-3.19,2.86-4.8,2.02-2.21,1.25-2.29,3.72-5.39.44-.55,1.49-1.41,1.68-2l.81-2.43c.24-.73.59-1.47.9-2.17l.88-2.02.42-.97c.07-.17-.5-.68-.53-.89-.16-1.08-.04-2.99.11-4.22l.39-3.18c.49-4.06,1.02-2.2.64-4.22l-.36-1.92c-.34-1.83-.02-4.16-1.32-6.64l-1.52-2.92-.96-2.23c-.2-.46-.48-1.36-.72-1.71l-1.42-2.13-1.5-2.29-1.67-2.25c-.45-.61-1.86-1.46-2.38-1.98-.29-.97-.64-1.94-1.27-2.6l-2.2-2.29c-.23-.24-1.05-.62-1.24-.89-2.11-3.18-.61-.07-3.55-3.53-.53-.63-1.71-.83-2.6-1.29-.8-.4-1.87-1.78-2.67-2.41-.43-.33-1.67-.47-2.18-.68l-3.95-1.61-1.91-1.06c-1.03-.57-2.48-.68-3.47-1.16-3.66-1.76-1.95-.64-5.1-2.27-.74-.38-2.03-.56-2.97-.85l-.98-.3c-2.1-.65-4.16-.91-6.24-1.51-.96-.27-2.03-.66-3-.76l-2.24-.24c-.49-.05-1.35-.84-1.8-.91l-2.24-.36c-.48-.08-1.35-.07-1.82-.06-.34,0-1.09-.21-1.41-.25-4.2-.55-1.22-.73-4.75-1.06-2-.19-3.73-.74-5.74-.82l-6.41-.28-5.01-.74c-.64-.09-1.96.23-2.73.21-4.12-.1-.86-.85-3.51-.54-1.35.16-2.54.38-3.83.41l-6.25.12c-.29,0-1.11.26-1.37.21l-2.12-.44-4,.39-2.61.25-2.45.21c-1.37.12-2.65.23-3.96.59-2.16.6-4.36-.39-6.45-.31-1.42.06-2.79.69-4.31.27-.64-.18-1.77-.44-2.31-.43l-3.05.05c-5.36.08-2.9-.81-8.16-.37l-2.16.18c-.49.04-1.39-.07-1.99-.12-1.5-.12-2.98-.08-4.48-.04l-2.55.08-1.93.06c-.3,0-1.21-.25-1.54-.14-1.5.54-4.04.92-5.78.79l-1.91-.14c-.9-.07-2.45.85-3.47.88l-7.06.19c-.35,0-1.26.58-1.57.47-2.54-.88-1.57,1.64-3.66.21-.17-.11-.67-.2-.9-.16l-3.43.63-3.47.91-2.7.5c-5.36.98-3.98-.14-8.23,1.45l-1.97.2c-.58.06-1.17.03-1.88.03-2.53-.03-1.52,1.33-7.84.81-.72-.06-1.8-.22-2.35-.14l-4.54.73-3.71.49c-.9.12-1.76.31-2.69.38-3.37.23-4.09.96-6.34,1.26l-3.46.46c-.55.07-1.32.39-1.82.5l-5.46,1.25c-3.59.82-.9.79-4.92,1.34-2.75.38-.28.29-4.66,2.08-.72.3-2.43-.16-3.19.02-1.66.39-3.58,1.53-5.3,1.72l-3.56.39c-.55.06-1.3.39-1.84.52-4.7,1.12-3.45,2.03-5.23,2.55-4.1,1.18-4.91.49-7.41,2.34-.49.36-1.52.94-2.07,1.02l-2.81.38c-.35.05-1.1.48-1.14.82-.12,1.16.9,2.7,1.54,3.71l1.37,2.15c-.13.13-.07.07.25-.25,1.06-.62,2.46-1.25,3.72-1.43l2.72-.38c.63-.09,1.51-.06,2.11-.26l6.29-2.13,4.39-1.24c.53-.15,1.07-.29,1.64-.42l2.15-.48,1.83-.41c.58-.13,1.75-.43,2.29-.41,3.53.78,3.69-.52,6.63-1.02l2.51-.43,3.95-.61c3.09-.48,4.96-1.93,5.77-2.08l3.85-.71,3.19-.64c.82-.16,1.83-.39,2.64-.46l3.23-.31c1.13-.11,2.79.5,3.92.09,3.46-1.28,1.61-.01,4.08-.77l3.58-1.09c.46-.14,1.23-.24,1.76-.32l3.57-.57,2.15-.3,3.49-.49c2.27-.32.16-.82,5.5-1.31l3.84-.35c.7-.06,1.4-.13,2.06-.14,4.3-.04-.24.64,5.37-.31l4.21-.71,1.25.06,3.74-.15,2.93-.44c.68-.1,1.52,0,2.05-.07l3.12-.36c.87-.1,1.66-.09,2.61.02l2.3-.53,6.98-.15c1.12-.02,2.34-.21,3.46-.35l2.46-.31,3.51-.37,3.81-.28,3.15-.21,4.85-.19,1.07-.04,2.15-.08,1.68-.11,7.97-.03c.29,0,1.11.18,1.38.2.9-.12,1.93-.12,2.89-.03,4.19.36,1.41-.27,5.13-.17l2.76.07,2.15.02h4.19c1.92.02-.22.63,2.86.34,4.88-.46,3.12.56,6.91.14l1.7.1,2.47.18,1.73.11,7.64.19,3.15.22,3.15.25c.76.06,1.69.09,2.36.19l2.43.37c3.68.56,1.3-.1,5.77.73l2.68.49c.7.13,1.45.25,2.03.44l2.71.88c5.2,1.69,2.08-.11,5.84,1.74,3.12,1.54,4.43,1.07,7.58,2.49l3.15,1.41,4.49,2.12,2.38,1.13,2.6,1.23c.52.25,1.4,1.13,1.9,1.49l2.66,1.89c1.54,1.1,2.84,2.24,3.92,3.78l1.31,1.85c.49.69,1.13,1.56,1.44,2.26l.79,1.77c.56,1.26,1.27,3.05,1.32,4.44l.19,4.54.15,3.13c.16,3.36,2.42,3.33.38,8.27l-1.51,3.66-.65,2.5-1,2.83-1.11,3.12c-1.92,5.42-3.48,6.01-6.49,9.89l-1.38,1.78c-.84,1.09-1.78,1.92-2.94,2.65l-1.92,1.21-1.89,1.27c-.52.35-1.17.7-1.76,1l-2.56,1.3-2.95,1.56c-.43.23-.99.66-1.4.99l-1.57,1.3c-.4.33-1.41.76-1.97,1.05l-3.21,1.72c-.53.29-1.64.53-2.17.92-1.34.98-2.58,1.63-4.03,2.37-4.05,2.07-1.7.32-4.37,1.71l-1.64.85-1.17.61c-.58.3-1.42.85-1.99,1.07-1.5.57-3.26.77-4.58,1.4l-1.67.8-1.91.91-3.09,1.42c-1.36.62-2.84.89-4.34,1.27-4.61,1.19-.73.89-4.3,1.56-1.36.26-2.61.56-3.93.88l-2.52.61-2.1.47c-.48.11-1.07.33-1.54.43l-2.99.61c-.6.12-1.23.21-1.83.28l-2.5.3c-.71.09-1.83-.04-2.48.13l-1.98.51-1.82.15-2.74.23-2.15.14-3.11.4c-.38.05-1.22-.04-1.55-.03-1.09.34-2.3.45-3.41.38l-2.4-.16c-1.15-.08-2.36-.1-3.51.09l-1.66.28c-1.38.23-2.88.11-4.3.11-1.68,0-3.44.14-5.16-.14l-2.17-.36c-.71-.12-1.69-.31-2.31-.33l-2.15-.05-8.29-.11-1.51-.26-4.44-.14-2.78-.33-2.8-.28-2.81-.24-2.74-.2-3.16-.36-2.73-.44-4.27-.61-2.46-.16-2.16-.55ZM171.28,462.39c3.43-.48-.16.4,4.26-.07,2.77-.29,2.74-.91,6.99-1.75l2.95-.58,2.18-.33,5.88-1.1c1.05-.2,2.47.02,3.53-.05l2.89-.18c2.03-.12,3.42-.99,7.92-1.5l3.12-.35c4.44-.5-.11.62,4.07-.32l3.46-.78c1-.22,2.67-.76,3.59-.71l3.2.19,3.21.24c1.02.08,5.02-1.64,5.98-1.52l3.5.41,2-.23c.42-.05,1.36.47,1.7.61,3.59-1.38,1.9-.35,6.16-1.64,2.69-.82,4.73-1.18,7.42-.73.49.08,1.57-.28,2.05-.2l1.41.22c.43.07,1.25-.2,1.62-.22.69-.6,2.6-.26,4.65-.07l2.5.23c.75.07,1.62.19,2.26.19h2.81s2.55.33,2.55.33c1.84.23,3.43.02,5.3.49.79.2,2.08.21,2.94.22,1.15.02,2.14.16,3.31.31.85.11,2.38-.14,3.18.11.35.11,1,.46,1.28.49.86.1,2.3.5,3.04.5h2.94c.28,0,1-.04,1.26,0l5.08.78c.49.08,1.37.12,1.91.12l3.93.05,2.11.39c-1.03-.19,7.23.29,7.24.29,3.77.02,1.9,1.44,4.95,1.29,1.37-.07,4.15.13,4.91.37l4.25,1.35,2.1.66,2.52.8c1.47-.53,2.59,0,3.95.75l2.63.12c.76.03,1.67.1,2.34.34l2.34.84,2.28.82c1.4.5,2.78.89,4.14,1.53,3.55,1.67,2.63.6,6.68,2.71l2.1,1.1c.86.45,5.06,3.06,5.42,4l1.99.69c.15.05.69.1.64-.04l-.24-.76c-.19-.59.04-1.99.13-2.64.03-.24-.3-.9-.37-1.15l-1.14-3.85-.46-1.57c-.33-1.13-1.03-1.35-2.65-3.66-.48-.68-1.24-1.78-1.81-2.25-1.1-.91-2.73-1.32-3.41-2.49-.64-1.11-1.38-1.64-2.49-2.17l-4.22-2.02-3.02-1.47-2.82-1.38c-.69-.34-1.67-.71-2.46-.99l-2.27-.83-2.87-.99-2.62-.94c-1.25-.45-2.41-.86-3.68-1.23l-2.14-.63c-.99-.29-2.06-.48-3.1-.69l-5.47-1.11c-.74-.15-1.61-.28-2.36-.38l-3.14-.38-2.45-.34c-5.96-.83-6.8-.1-8.68-.3l-2.38-.26c-1-.11-1.9-.13-2.95-.13-.69,0-1.98-.33-2.62-.28-1.76.13-3.29.22-4.95.07l-1.43-.13-2.03-.18-3.15-.28-2.82-.25c-3.84-.34-2.9.17-6.43.22h-1.2s-12.12-.04-12.12-.04l-2.48-.26-2.56-.19c-.37-.03-1.22-.03-1.64.02l-2.42.28c-4.99.57-1.51-.09-6,.11l-5.12.23-2.12.51c-1.23.3-2.38.3-3.65.58-.83.19-2.04.14-2.92.27l-2.52.39c-1.07.17-2.2-.16-3.06-.71-.53.31-1.39.63-2.05.7l-3.58.34-2.66.14-5.01.54-3.82.38c-1.1.11-2,.06-3.2,0-.95-.04-2.36.35-3.41.49l-1.37.18-3.5.54c-1.04.16-2.15.29-3.14.31l-6.66.15c-1.59.04-1.71,1-4.36.43-4.01,2.17-6.02,1.22-9.95,2.19l-3.91.97-3.42.78c-.8.18-1.87.32-2.69.36l-3.49.19c-.82.04-1.95.17-2.73.33l-4.92.99c-3.2.65-3.06-.09-6.31,1.69s-1.49-.23-4.7,1.26c-.48.22-1.7-.06-2.22.05l-2.42.51c-1.14.24-2.27.51-3.35.83l-2.21.64c-2.64.76-3.6-.64-6.72,1.19l-2.57.17c-1.35,1.41-2.46,1.42-4.4,1.54l-4.05,1.55-2.35.89c-1.36.51-2.97.31-3.85.59l-2.41.78-.09,1.7.75.04.78,1.96c1.11-.63,2.28-1.3,3.05-1.4,1.58,1.52,2.31-.44,4.11-.66,1.81-.29,3.24-.87,4.68-2.05,2.85-.99,3.4-.58,5.99-1.24.39-.1,1.16-.43,1.55-.5l4.22-.73,3.89-.23c1.69-.95,2.93-1.24,4.85-.66.74.22,2.12-.17,2.97-.2l3.5-.13,1.73-.06,1.07-.46,2.15-.2c.54-.05,1.61.08,2.28.17l2.56.35c.63.09,1.34,1.23,1.74,1.96-1.18.57-2.27.78-3.43.67l-1.83-.18c-4.94-.5-3.08.99-7.31.93-1.65-.03-2.98.26-4.67.58-2.75.51-2.82-.52-5.55.78-1.34.08-3.66-.08-5,.22l-2.54.57c-1.13.25-2.28.51-3.35.85-1.21.38-2.16.7-3.48.26-1.92-.64-.99,1.16-4.73,2.65l-2.42.97c-.23.09-.85.78-1.1.78l-3.33.04,1.16,1.67c.36.52,1.25,1.41,1.78,1.99.4.43,1.79-.09,2.32-.38l2.68-1.5c3.56.88,2.17-.45,5.89-.7,1.07-.07,2.18-.02,3.11-.14l2.8-.37,1.83-.48,2.48-.36c4.25-.62,4.56-1.72,9-.89,4.68.87,1.39-.11,5.47-.3l2.17-.1,3.46-1.14,3.31-.27c.61-.27,1.07-.39,1.67-.39,3.7.02,3.85-1.34,8.9-2.05ZM224.27,536.9c.84.13,1.68.17,2.44.24l4.44.41,2.59.24c.6.06,1.4.32,2.01.5l1.64-.06,3.24-.11,2.79-.15,1.75-.12c2.08-.14,4.18-.44,6.22.01l2.75.61,3.23.14,3.19.13,2.56-.81c.46.29,1.23.55,1.6.4l2.33-.93c1.69.32,3.04.37,4.6.29,3.68-.19,2-1.05,5.52-1.24l4.14-.22c1.12-.06,2.04-.06,3.24.04l2.04-.27,4.17-.59,3.18-.32c1.53-.15,2.79-.39,4.11-1.25l1.52-.03c.51-.01,1.05-.24,1.68-.53,3.98-1.82,4.64-1.01,7.06-1.91l2.4-.89c2.69-1,.91.37,2.93-.38l2.19-.82c2.69-1,2.11-1.9,5.33-2.96l2.31-.76,4.54-1.82,2.65-1.41c.95-.51,2.57-.55,3.37-1.15s1.37-1,2.2-1.34l2.77-1.12c1.33-.54,2.55-1.63,3.83-2.35.37-.21,1.09-.5,1.4-.71l3.15-2.12c2.39-1.61,4.03-2.04,7.44-4.36l2.66-1.81c1.01-.68,1.96-1.24,2.87-2.07.46-.41,1.09-.84,1.67-1.15,1.5-.8.01-.66,1.57-2.48l1.48-1.73,1.67-1.95c.32-.37.55-1.3.76-1.91l1.35-3.87,1.63-4.68.85-2.63c.52-1.6,1.3-2.53,1.22-4.15l-.08-1.66-.92-.91-1.66.36c-1.08-.74-2.29-1.53-3.19-2.4l-1.64-1.58c-.46-.45-1.01-.76-1.73-1.08l-1.64-1.31c-1.19-.39-2.18-.79-3.16-1.47-2.79-1.91-1.66-.35-5.26-2.02-.97-.45-2.07-1.1-2.84-1.3l-1.65-.43-2.14-.75c-2.47-.86-4.96-.72-6.44-1.52-1.15-.62-2.16-1.15-3.36-1.24l-2.65-.2c-.5-.04-1.23-.35-1.69-.67l-3.59-.91c-1.26-.32-2.71-.72-3.99-.8l-2.75-.18c-1.35-.09-1.1-1.31-1.65-.87l-.6.49c-2.2-.78-4.44-1.13-6.79-.68l-4.95-.69c-1.43-.2-2.79-.08-4.21-.12l-2.46-.07c-.81-.02-1.85-.29-2.61-.36l-5.4-.51-4.1-.35c-2.1-.18-5.54-.62-7.21-.62-1.15,0-2.02-.07-3.09-.36-.5-.1-1.62-.07-2.13-.11-1.06-.38-1.89-.4-3-.34l-1.78.1c-.64.04-1.8-.44-2.47-.69l-1.96.09c-1.02.05-2.08-.03-3.06-.1l-2.58-.17-2.8-.16c-2.09-.12-1.08.99-5.09.3-4.49-.78-2.75.92-4.68-.35-1.15.49-2.49.91-3.78,1.16l-2.12.41c-.42.08-.99.3-1.55.52-.4.03-1.27.03-1.79.01l-1.86-.08c-7.73-.34-6.35.65-10.02.83l-3.53.18c-2.14.11-3.94-.34-5.1,0l-3,.91c-.99.3-2.25.37-3.36.42l-2.75.11c-.74.03-1.81-.15-2.53.04l-2.79.73-1.19-.02-3,.56c-.44.08-1.02.28-1.57.44-.93.27-2.46.12-3.56.27l-2.76.38c-3.03.42-2.26.02-4.65.45l-3.49.63c-1.31.24-2.59.44-3.89.78-4.53,1.15-2.26-.36-4.8,1.16-1.83,1.09-2.7-.65-7.45.86l-5.79,1.84c-2.29.73-3.68-.76-7.05.94l-1.8.42c-4.19.99-1.93-.13-4.72.97-1.11-.11-2.37-.12-3.58.41l-2.22-.38c-1.34-.23-2.57-.2-3.91.12-3.77.92-1.21-.31-6.33,1.27l-2.19.68-1.28-.12c-6.53-.6-3.6,1.04-7.57,1.02-2.42-.02-1.54.01-4.01,1.56l1.19,1.6c.53.71.97,1.55,1.48,2.32l2.24,3.39c1.51,2.28,3.34,3.34,3.75,5.84.06.36.98.84,1.18,1.13l2.12,3.01c.61.87,1.77,1.5,2.71,2.2.4.33.93,1.17,1.35,1.88.31.52-.35,1.68-.96,2.05-2.22,1.32-.01,1.1-2.89,2.71-.57,1.1-1.63,2.2-2.76,2.75-.23.11-.86.68-1.1.74l-2.97.8c-2.88.77-.37-.41-3.85.89l2.39,1.71,1.68,1.13c3.95,2.68.81,1.23,5.59,3.81l3.14,1.7,2.36,1.21,1.81.94c.31.21.96.85,1.35,1l2.01.77,2.05,1.16c3.02,1.71,2.17.22,5.41,2.29.83.02,2.52.03,3.15.52l1.69,1.29c1.25.96,2.31-.11,4.21.85,2.75,1.38.68,1,3.96,1.48l3.18.47c1.66.24,3.32.8,4.89,1.36l2.35.2c.52.04,1.61.79,2.15.86l2.78.36,2.77.59,3.56.48c2.49.34,1.26,1.34,3.88.92.23-.04.8.27,1.05.33l3.21.74c5.98,1.38.87.21,5.4.72l2.32.26,2.45.77c.74.23,1.46.37,2.17.42l2.94.19c3.68.24.84.69,5.05.82.83.03,1.87.13,2.75.24l5.94.71,4.55.72ZM365.22,544.99c2.42-2.28,2.04-3.25,4.38-3.68,1.67-.31.25-1.07,2.43-1.77.37-.12.85-.74,1.25-1.09.98-.86,2.06-1.66,3.15-2.44,2.73-1.95.21-2.54,1.91-3.95l1.85-1.53c.35-1.94,1.11-4,1.79-5.66l.29-.71c.03-.08-.19-.08-.26-.03l-.44.32-.4.29-.4.3-.4.29c-2.29,1.66-4.27,3.28-5.89,5.63-.71,1.03-1.86,1.76-3.01,2.17l-.54.19c-1.61.56-1.61-.09-2.56.83l-1.45,1.41c-1.33,1.29-.96,1.61-3.05,2.95-2.28,1.46-3.11.23-3.07.14l.25-.59c.73-1.74,1.93-1.67,3.38-3.19,2.51-2.63,1.8-3.11,5.88-4.6.2-.07.94.21,1.09.06l.93-.85,2.02-1.85c.3-.28.77-.9,1.13-1.29,2-2.17,2.5-1.74,5.17-4.82.29-.33.65-1.29.88-1.67l2.43-4.14c3.38-5.75,1.38-3.19,1.79-5.43.34-1.87.89-3.79,1.4-5.73.11-.42.96-3.94.3-3.34l-.45.42c-.09.09-.37.33-.41.39l-1.31,1.74c-2.72,3.61-.99,2.79-2.25,3.87-.43.37-.96.8-1.13,1.12l-2.12,3.84c-.28.51-1.21,1.3-1.57,1.81-1.96,2.71-1.75-.17-2.96,2.71l-1.58,1.82-1.61,1.86c-.5.57-.99,1.11-1.52,1.62l-3.78,3.6c-.34.33-1.12.8-1.58,1.16l-3.31,2.54c-1.21.93-2.58,1.65-3.9,2.42-1.05.62-2.4,1.11-3.56,1.66-.73.34-1.32.74-2.02,1.11l-1.4.75-4.35,2.27-.87.46c-.58.3-1.28.68-1.83.9l-2.27.92-3.87,1.72c-4.04,1.79-2.19,2.3-6.12,2.99-1.52.27-3.17,1.04-4.49,1.67-2.07.49-3.92.7-5.9,1.5-.88.36-2.01.96-2.87.9l-2.4-.17-2.39,1.16c-.95.46-1.71-.04-4.64.46l-2.93.5c-.32.06-1.15.54-1.47.63l-2.11.65c-1.05.32-2.4.48-3.42.85-2.94,1.07-1.86,1.17-5.8,1.55l-2.85.28c-.56.05-1.48.14-1.93.28-2,.63-4.49,1.49-6.85.85l-2.65.51-6.63.18-3.16.22c-.85.06-1.7.13-2.48.26l-2.46.41c-3.19.53-2.32-.72-7.28-.06-1.13.15-2.62.24-3.75.04l-3.19-.55-3.77-.2c-1.87-.1-3.44-.32-5.33.07-1.18.24-2.61-.47-3.82-.52l-5.45-.24c-2.49-.11-7.56-1.4-7.86-1.39-.53.02-1.56.04-2-.07l-3.82-.95c-.58-.06-1.78-.02-2.44-.16l-5.22-1.05-3.11-.42-3.09-.52c-.59-.1-1.49-.02-2.13-.08-2.74-.24-2.43-.9-6.3-.81-5.26.12-4.05-1.4-4.69-1.34-.17.02-.63.13-.78.07l-2.18-.72-3.35-.26c-1.75-.14-3.23-.54-4.96-.64l-1.51-.8c-1.28-.21-2.61-.41-3.71-.87-4-1.68-1.19-.47-5.74-1.48l-3.45-.77-.58-1.14-.43.27c-1.01.84-1.89-.09-4.43-.62s-1.94-1.99-2.55-1.46l-.66.57s-.09-.07-.32-.25c-.55-.33-1.22-.65-1.89-.84l-2.2-.64-1.57-.75-2.59-.92c-1.4-.5-2.69-.94-4-1.63-3.62-1.9-1.9-.07-6.04-2.34-.8-.44-1.52-.74-2.44-1.12-3.41-1.4-1.96-2.52-5.5-3.49-.82-.23-1.55-.71-2.29-1.16-2.99-1.82-2.46-1-5.7-3l-4.17-2.58c-1.1-.68-2.53-1.73-3.58-2.54-.38-.29-1-1.12-1.31-1.46l-2.03-2.23-.98-1.35c-.58-.43-1.07-.91-1.38-1.43l-1.32-2.21-1.22-.53c-2.99-2.99-1.8-2.63-4.93-6.19l-1.37-1.56c-1.74-1.99.3-3.9-2.66-4.08-.68-.04-1.63-1.17-2.08-1.8l-1.9-2.65c-.21-.29-.55-1.1-.83-1.27-.56-.32-1.8-.83-2.12-1.32-.4-.61-.83-1.83-1.24-2.27l-1.53-1.65c-.74-.79-1.43-1.62-1.99-2.54-2.11-3.5-.29-2.34-3.08-5.86l-.67.65.2,2.43c0,.07.13.46.16.58l.17.54c.42,1.36,1.05,2.59,1.71,3.92.43.86.77,2.14,1.59,2.9.27.25.36,1.16.52,1.59.63,1.67,1.67,3.15,2.59,4.63l1.23,1.97c.54.87,1.12,1.69,1.59,2.56s.93,1.6,1.54,2.33l.56,1.52,2.69,3.28c.39.47,1.4,1.08,1.89,1.58,1.75,1.81,1.51,3.01,2.37,2.72l1.27-.42,2.41,2.47c.42.43.88,1.7,1.27,2.14,2.59,2.01.64.84,3.62,3.71l1.8,1.73c.29.28.87.99,1.24,1.2,4.47,2.54,2.39,2.42,6.23,4.53l2.97,1.63c1.93,1.06,4.22,3.54,5.63,4.25s2.56,1.24,3.63,2.48c.47.54,1.11,1.62,1.06,2.43-.1,1.59-3.53-.68-3.93-.95l-3.59-2.41c-.73-.49-1.42-1.36-2.15-2.02-.65-.58-1.91-.76-4.39-2.84-2.97-2.5.3,1.4-5.02-3.37-.51-.46-.95-.84-1.4-1.44-.42-.55-1.21-.9-1.75-1.35l-2.64-2.21c-.26-.21-.8-.88-1.1-1.03-.65-.31-1.98-1-2.5-1.56l-2.23-2.4-1.84-1.98-2.03-2.2c-.64-.69-2.43-3.16-2.73-3.42l-1.76-1.51c-.89-.76-1.09-3.33-1.86-2.84l-.8.52-2,1.19c-.57.34.1,1.99.42,2.63.5,1.01.73,2.19.91,3.32l.32,2c1.46.35,2.26,1.12,3.05,2.24l1.61,2.27c.41.58,1.07,1.24,1.57,1.86.57.7,1.19,1.77,1.81,2.3,1.88,1.61,2.76,2.52,4.28,4.55.3.4.92,1.5,1.33,1.77l3.11,2.07c1,.67.43,1.91,1.82,2.79l2.95,1.87,2.81,1.78,1.65,1.1,7.63,4.88c.85.54,1.74,1.09,2.54,1.65.9.63,1.66,1.17,2.66,1.53l2.32.85c.75.28,1.69.65,2.41,1.02l4.34,2.22,3.08,1.45,2.2,1.03c.48.22,1.18.99,1.66,1.45.73.69,1.64.09,4.24,1.62l2,1.17c.34.2,1.11.87,1.46.99l3.01,1.09c2.09.76,3.92,1.82,4.84,2.09l2.5.72c4.6,1.33,1.63,1.71,5.07,1.78,4.21.08,1.4.45,4.5.83.8.1,1.64.23,2.23.48l2.1.9,2.05-.4c.44-.09,1.18.52,1.51,1.02l4.21.18c2.83,1.8,7.57,1.44,7.12,1.35l6.22,1.25c2.4.48,3.66.2,6.05.97l2.08.66c.42.13,1.38-.09,2.05.12l2.1.66,3.47.36,4.07.27c2.04.13,3.9.22,5.97.34l4.5.27,1.71.64c1.23-.34,2.49-.41,3.66-.15,1.58.36,3.05.54,4.57.77,5.43.8,3.89-.43,7.49.24l1.31.24c.26.05.82.13,1.1.17.52.22,1.38.51,1.89.45l2.67-.3c5.48-.62,1.99-1.06,8.72-.73,4.31.21-.7.65,4.83.34l2.4-.13c.69-.04,1.52.07,2.11-.17,2.47-.98.64.72,3.47-.42,2.16-.87,4.72-1.11,7.09-.75,3.53.53,1.79-.45,4.01-.47l2.38-.02,4.63-.04c.66,0,1.84-.41,2.52-.48l1.75-.2,3.09-.41,2.08-.23,2.61-.26c3.15-2.37,2.56.6,5.22-1.11.37-.24,1.5.11,1.94.03,2.25-.39,3.3-1.47,5.5-1.55l3.4-.13c1.63-.63,2.86-1.35,4.56-1.58l2.15-.3c1.15-.16,2.87-1.34,4.14-1.58.86-.16,2.12-.21,2.69-.49l1.82-.91,2.43-1.21c.39-.19,1.28-.31,1.72-.42s1.22-.76,1.66-.9l2.3-.71c.72-.22,1.83-1.28,2.57-1.71l1.99-1.18c.61-.36,1.45-.75,1.96-1.14l2.01-1.52c.59-.45,1.23-.9,1.75-1.37l2.05-1.86c.52-.47,1.32-1.02,1.94-1.48l2.45-1.8c.46-.34,1.06-1.13,1.5-1.54l3.62-3.4Z"/>
      <path d="M336.43,412.86l3.23,1.27,2.09-2.01c.31-.29.97-.62,1.65-1.01l-1.67-.62-4.07-1.51c-1.02-.38-2.33-.89-3.08-1.72l-1.36-1.49-4.07-2.5c-.41-.25-.27-1.52-.06-1.96.16-.33,1.07-1,1.39-.79l2.31,1.53c1.31.49,2.44,1.23,3.26,2.33l2.69,1.15c3.77,1.61,3.77.67,6.87,3.61.25.24,1.08-.14,1.34-.43l1.42-1.55c-.53-.75-1-1.43-1.52-2.08l-1.25-1.58c-.88-1.11-1.79-2.28-2.27-3.6l-.76-2.09c-.82-2.27-1.72-1.71-1.15-4.35l1.92-.6c.27.53.61,1.2.82,1.7l1.93,4.67c2.42.94,1.9,2.21,5.44,4.98.87.68,1.56,1.46,1.65,2.44l-2.71,2.02c-.62,1.28-1.68,2.05-2.78,2.85l-2.63,1.9c-4.03,2.91-.75,4.24-5.45,5.26-3.08-2.74-4.68-.62-8.56-5.13-3.5-1.29-5.06-1.47-8.28-3.87-.19-1.01-1.02-1.74-1.93-1.96-.38-.09-.59-1.15-.31-1.39l1.53-1.35c.29-.26.94-.7,1.27-.64s.82.52,1.11.86c2.37,2.7,1.47.92,2.51,2.5l1.64,1.1c1.18.79,2.39,1.93,3.73,2.45l4.13,1.63Z"/>
      <g>
        <path d="M396.01,224.74l-2.83-3.91-.17-1.92c.38-.3.95-1.03.99-1.48l.27-3.61c.05-.64,0-1.39,0-2.04l-.11-10.48c0-.59-.25-1.68-.36-2.4l-.42-2.7c-.07-.43-1.21-.91-1.59-1.17l-2.49-1.72-2.09-1.7c-.68-.55-1.38-.85-2.2-1.38l-3.08-1.97c-.22-.14-.03-1.1-.13-1.34l-.97-2.31c-.1-.24-.21-.97-.38-1.23l-1.2-1.88-1.36-2.14-1.22-1.85-1.42-2.44-1.56-2.31c-.56-.84-.95-1.43-1.92-2.06l-.36-1.94-1.63-2.36c-.72-.52-2.67-.09-3.78,0-1.56.12-2.73.49-4.03,1.32-2.69,1.72-3.25,3.45-4.46,6.43-.3.73-.98,1.79-1.12,2.48-.26,1.31-.48,2.19-.96,3.29l.2,1.63-.03,3.69c.47-.39.78-.67.92-.91l1.35-2.28c.31-.53.47-.86.73-1.59.37-.02,1.67.26,2.21.45l-.58,1.8c-2.11,2.57-3.54,5.01-4.94,8.01l-.87,1.88-1.02,2.18c-.74,1.6-.51,3.29-2.8,6.16l-1.4,1.76c-.52.65-1.55,2.37-3.15,2.46-.73-.44-.86-2.53-.13-3.3l2.94-3.1-.25-1.96c-.06-.5,1.48-3.8,2.52-3.81.27-.54.62-1.81.78-2.61l.65-3.25c.23-1.15.83-2.68.78-3.73-.03-.7-.17-1.51-.11-1.97l.38-3c.59-4.74-1.19-2.48,1.1-5.78.92-1.32,1.6-3.05,2.68-4.25,1.19-1.32,2.37-2.48,3.69-3.67s3.49-1.36,5.24-1.53c3.24-.33,4.01-.61,6.18,1.64l.26,1.87c2.06,2.51,1.43,2.59,3.16,5.22.42.64.89,1.27,1.23,1.87l1.92,3.39c.54.96,2.44,2.56,3.3,3.27l1.74,1.44c-.11,2.36,1.25,3.56,2.8,4.82l3.67,2.98c2.59,2.11,4.29,1.41,4.94,3.34s1.35,5.46,1.17,7.29l-.34,3.46-.11,11.05c0,.38-.23,1.17-.19,1.44l.3,1.9c.09.54.33,1.92.87,1.9.42-.01,1.51-.79,1.86-.6l3.25,1.78,2.39.91c.16.06.49.19.48.2,0,0-.1.44-.19.87l2.18-.13c.44-.03,1.37.16,1.8.3l.72.89-.07.45-2.04,1.19c-.3.18-1.09-.16-1.45-.34-.21-.11-1.04.2-1.26.1l-3.02-1.26-3.59-1.42c.1.48.45,1.56.74,2l1.72,2.53,2.35,3.43c.1,1.7.85,2.74,2.29,3.36l1.03,1.76c.27.46.96,1.19,1.12,1.59l.94,2.3c1.36,3.31-.19,1.11,1.81,6.22l1.08,2.76c.35.9,2.96,2.86,2.87,3.49l-.31,2.1c-.06.41-1.03,1.19-1.39.89-.6-.49-1.43-1.76-1.62-2.64-.1-.45-.94-1.23-1.11-1.63-1.14-2.76-.73-2.96-2.14-5.22-1.53-2.46.32-1.63-1.22-3.61-.55-.71-.96-1.4-1.4-2.15-2.15-3.68-.75-2-2.66-5.32-.84-1.46-1.6-3.09-2.55-4.37l-1.51-2.02c-2.14-2.88.02-.44-2.36-3.74Z"/>
        <path d="M220.78,283.51c-1.17-2.96-3.02-.2-5.42-4.04-.45-.72-.75-1.57-1.02-2.49l-1.22-1.05-2.16-3.82c-1.11-1.96-1.7-2.26-3.17-3.86l-1.18-1.28c-.4-.43-1.61-1.05-2.18-1.13l-2.09-.27c-4.73-.61-.14,1.35-4.34-.75-1.3-.65-2.8-1-4.23-1.35l-4.22-1.04c-.52-.13-1.52-.51-1.98-.74l-2.63-1.28c-3.24-1.58-1.81-1.96-2.66-2.18-2.5-.65-7.36,1.45-8.69,2.43l-2.21,1.62c-1.4,1.03-2.95,2.01-4.41,2.81l-5.15,2.81.89.22c5.87.32,1.88-.78,6.3.2,2.15.48,4.59.58,6.76.24.48-.08,1.39-.44,1.98-.63,1.71-.54,1.35-.72,2.87.23.3.19.18,1.44-.13,1.53l-2.65.81c-1.37.42-2.99,1.04-4.26,1.01l-2.64-.06-2.17-.08c-1.65-.06-3.38-.14-5.01.06-1.27.15-2.34.25-3.53-.1l-.1-2.16c-.43.32-1.01.7-1.37,1.04l-2.65,2.49c-.31.29-1.28.75-1.68.85l-3.67.87c-.89.21-1.97,1.36-2.7,1.73l-4.43,2.26c-.45.23-1.5.53-1.97.66-4.5-.59-2.41,1.01-6.41-.55-.37.1-1.04.19-1.43.12l-2.06-.37c-.7.82-1.84,1.85-2.69,1.57-2.65-.85-2.43-2.17-3.64-3.66l-1.46-1.8-.89-1.89c-.68-1.44-2.69-2.49-4.04-3.53l-2.49.89c-2.11-.3-1.89-1.44-3.25-1.85l-2.41-.71c-1.19-.35-2.58-.88-3.72-.98l-2.4-.2c-.44-.04-1.35-.31-1.65-.59-.35-.33-.33-1.36-.15-1.97.16-.55,1.29-1.74,1.83-1.56l2.97,1.04,3.85,1.37,2.45.86c.56.19,1.3.46,1.86.41.14-.17-.27-1.21-.44-1.54l-1.21-2.28c-1.11-2.09-.74.28-1.74-2.24l-.71-1.79c-.19-.48-.84-1.4-.97-1.91l-.45-1.77,1.34,1.47c.19.21.45,1.02.59,1.26l2.17,3.36,1.44,2.14,2.08,2.69c.46.6.93,1.2,1.37,1.76l1.38,1.75c1.83,2.32,1.98,1.04,3.39,2.49l1.6,1.64.81,1.56,1.7,2.09c.23.28.99,1.13,1.25.94.34-.25.95-.97,1.27-1.36.52-.64,2.42-1.07,3.17-.69,4.84,2.43,3.53.58,6.44,2.26.29-.07,1.16-.3,1.5-.45l2.23-.97,2.9-1.48c1.09-.56,1.87-.82,2.33-2.02l2.24-1.14,1.93-.27c.71-.1,1.94-1.24,2.67-1.71,2.65-1.7.02-.31,3.32-2.71,4.15-3.02,3.08-1.75,5.48-2.91l3.51-1.7c.51-.25,1.21-.96,1.68-1.33l1.63-1.25c.41-.32,1.14-.96,1.55-1.16l3.2-1.6c.32-.16,1.2-.3,1.51-.41,1.03-.36,2.18-.7,3.27-.87l1.73-.27.78,1.38,3.22,1.7,2.57,1.3,2.37,1.1c.46.22,1.79.08,2.27.23.83.26,2.03.8,2.79.9,4.48.56,6.02.44,10.5.38.48,0,1.55-.36,2.02-.4l3.57-.37c1.38-.14,2.51.09,3.7,1.11l-1.36.75c-2.98,1.64-1.51-.21-4.86,1.22l-1.38.59,2.17,2.99c.4.55.82,1.32,1.18,1.94l1.04,1.77,1.04,1.78c1.72,2.95.76.34,1.43,2.55.11.35.55,1.18.86,1.37l1.47.91c1.62-.61,3.63.99,4.27,2.4,2.16,4.76.37,1.58,1.24,5.03.43,1.68.62,3.22.79,4.92l.34,3.49.24,2.45-2.04-.04c-.23-.7-.54-1.73-.52-2.29l.06-2.12c.07-2.7,0-3.68-1.01-6.24l-1.01-2.55Z"/>
        <path d="M155.19,113.39c-.32.86-.55,1.87-.78,2.79-1.01,3.97-.66,3.79-1.37,6.96l-.71,3.15-.6,2.85c-.61,2.89-.72,6.56-.32,9.59.56,4.22-1.31,4.75-3.54,7.05-1.12,1.15-2.15,2.21-3.39,3.29s-2.15,2.49-3.19,3.76c-.61.75-1.18,1.47-1.42,2.39l-.75,2.78c-.75,2.78-2.06,2.78-3.39,3.56-.39.23-.8,1.26-1.03,1.7l-1.68,3.25c-.28.54-.87,1.39-1.17,1.83.3.37.5,1.16.36,1.82l-.72,3.23c-.12.53-.72,1.54-1.03,1.97s-2.14.27-2.13-.26l.03-2.29c.01-.71.06-1.58-.16-2.14l-1.61-4.16-1.72-3.81-.12-1.49c-.03-.44-.57-1.34-.64-1.75-.27-1.58-.85-2.94-2-3.99l-1.67-1.53-.65-1.08-1.25-1.88-1.24-1.91c-2.45-3.79-1.32-5.81-4.83-8.02h-1.81s-.99-1.4-.99-1.4c.17-.61.55-1.6.61-2.09l.38-3.16c.1-.86.16-1.92.19-2.75l.11-2.85.26-4.41c.04-.76.05-1.45.03-2.23l.02-1.61-.05-2.55c-.09-4.38.27-2.53.01-5.93l-.26-3.41c-.1-1.35-.14-2.59-.16-3.93-.03-2.4-.15-5.9-2.96-6.47l-1.31-.64-3.58-.68c-1.09-.21-3.28-.13-4.39-.18-.5-.02-.47-1.24-.49-1.69-.05-1.45,1.18-2.89,2.4-2.66.63.12,2.12,1.58,3.56,1.97l3.34.91c1.59.43,4.15-.02,4.9,2.08.67,1.87,1.03,3.32,1.04,5.34v2.54s-.14,3.02-.14,3.02l.08,3.45.02,2.2-.15,1.65c-.23,2.58.43,1.9-.43,7.66-.4,2.69.46,1.24.03,5.88-.1,1.04-.14,1.96-.18,2.94l-.1,2.44c-.03.82.31,2.65,1.05,2.9.64.21,1.53.44,1.79.83,1.94,2.88.71,1.96,2.55,5.77l1.36,2.82c.52,1.07,1.12,2.08,1.76,3.12.98,1.57,1.97,2.83,3.75,3.69,2.21,1.06,2.02,4.89,2.56,6.38l.86,2.36c.39,1.07,1.01,2.2,1.57,3.23l.7,1.28c.39-.62.72-1.08.88-1.41,1.18-2.41,2.3-4.55,3.6-6.89,1.43-2.57,1.63-3.93,2.67-6.38l.83-1.95,1.08-2.53c.19-.44.26-.87.33-1.66l1.67-.81c.36-.18,1.37.52,1.65.71l-.15,1.61,1.93-1.66,1.31-1.18c3.74-3.37,2.22-5.64,2.3-6.47l.32-3.11.26-2.8.23-2.88c.06-.74.47-1.65.97-2.18.03-.03-.1-.84-.06-1.03l1.2-5.37.64-3.06c.13-.6.21-1.15.29-1.84l.7-1.88c.96-2.58-.34-2.04,1.73-4.6.16-.2,1.07-.24,1.21-.02.17.28.3.98.17,1.34l-.95,2.57Z"/>
        <path d="M92.18,267.27c-2-1.78-2.92-1.86-3.6-3.39l-2.21-1.61-1.8-1.4c-.62-.48-1.18-1.2-1.56-1.91-1.32-1.23-2.54-2.47-3.8-3.88-2.42-2.7-.83.09-3.85-3.8l-.89-1.15c-.5-1.08-1.06-2.25-1.44-3.34l-.83-2.36-.65-1.84.12-1.22.2-4.52.23-3.22c.07-1.04.46-2.18.84-3.24.46-1.3,1.23-2.12,2.34-2.96.84-.63,1.67-1.68,2.56-2.27.97-.65,2.39-1.39,3.43-1.68l3.12-.9c1.84-.53,4.41-.26,5.79,1.01,3.41,2.06,4.7,2.4,5.76,6.3-.61,4.14.58,3.25.14,7.96-.04.46-.79,1.4-.77,1.84l.04,1.25-.81,4.46-.61,2.55c-.1.41.01,1.28.03,1.76l.19,4.55.31,2.76.09,1.86c.04.88.44,2.14.79,3.08l.71,1.88-.76,1.05c-.18.25-.67.78-.55,1.02l.61,1.12c.21.42-.75,1.28-1.42,1.5-.49.16-1.3-.91-1.71-1.28ZM88.78,259.89l1.37.67,1.38,1.21c0-1.44-.07-2.4-.16-3.7l-.22-3.05-.14-1.9c-.66-9.2,1.29-5.64,1.33-12.11.01-2.45.46-3.08.39-5.8l-.06-2.63c-.1-3.93-3.87-6.76-7.36-6.85-.8-.02-2.1.34-2.83.59l-2.69.91c-.88.3-3.42,2.85-3.28,2.61-1.74,3.05-1.45,2.58-1.7,5.24l-.27,2.81-.22,2.83c-.06.73.38,2.28.66,2.98l.95,2.33,1.19,2.83c.13.3,1.01.69,1.26.91,1.01.9,2.3,2.01,3.23,2.95.79.8,1.3,1.43,2.2,2.12.59.46,1.17,1.78,1.75,2.29.82.73,2.36,1.24,3.23,2.77Z"/>
        <path d="M133.59,94.03l-.66,2.63c-.61,2.41.16,3.15.74,4.34l1.04,2.15c.27.55.47,1.84.79,2.36l1.73,2.85c.31.51.53,1,.69,1.72.16.68.68,1.04,1.09,1.75l1.47,2.59c.74,1.3,2.01,2.19,3.09,3.19l1.49,1.37,2.19,1.96c.21.19-.39.77-.67.89l-1.82.78-2.83-2.3c-1.84-1.5-3.06-3.09-4.33-5.09l-.79-1.24-1.43-2.26.78-1.11c-1.7-1.55-3.29-3.14-3.99-5.2l-.72-2.11c-.03-.09.61-.36.51-.38-1.4-.31-1.71-2.84-1.89-4.23-.39-3.07.27-4.3,1.35-7.26.45-1.23,1.13-2.26,2.04-3.2,2.64-2.72,4.09-4.11,7.86-4.81,3.4-.64,4.86,3.2,5.3,3.64.38.38,1.22.91,1.46,1.34.55.99.87,1.94,1.18,3l.87,2.94c1.51,5.09.76,7.85,1.06,9.79l.23,1.44.2,3.09c.42,6.49-.14,2.61-.39,7.32l-.16,3.07-1.44,1.39c-.24.23-2.67-.33-3.06-1.13l.76-1.06c.15-.21-.47-.8-.64-1,1.5-1.39,1.65-3.49,1.68-5.79l.03-3c0-.32-.19-1.08-.22-1.43l-.19-2.54-.17-2.44c-.06-.85.14-1.91-.08-2.77-1.4-5.57-1.49-9.38-5.82-12.37-.92-.64-2.69.08-3.49.62l-2.6,1.76c-1.36.92-1.82,3.11-2.24,4.76Z"/>
        <path d="M226.04,370.89c.05.49-1.34.75-1.7.49-.38-.28-.98-.97-1.13-1.45l-1.35-4.28-.87-2.89c-.44-1.45-.76-3.11-.97-4.67l-.43-3.16c-.19-1.4-.3-2.82.05-4.2l.57-2.22.87-4.12.65-3.26c.47-2.37-1.84-.09-3.29-1.27-1.78-1.45-2.34-4.46-2.1-6.46-1.7-2.3.01-7.14.39-9.3l.37-2.12.75-3.51c.13-.6.43-1.46.63-2.17.52-1.9-1.42-2.01,0-5.02l.41-3.42c-.3-.68-.68-1.58-.9-2.36l-.38-1.32,1.45-.89c-.02-2.28-.02-4.48-.16-6.78-.03-.53-.42-1.57-.42-2.08v-3.16c-.01-1.16-.35-1.91.58-3.15.71.56,1.19,3.05,1.28,3.66l.74,4.96c.16,1.07.24,1.96.53,2.97l.88,4.31c.07.34-.2,1.18-.3,1.5-1,3.42.53,2.96-1.67,4.56l-.22,1.96c-.25,2.22.1,2.81-.24,4.89l-1.04,6.3-.54,3.01c-.11.61-.52,1.54-.58,2.13l-.23,2.45c-.19,2.01,1.06,4.96,2.45,6.27l2.02.16c.44.03,1.25.7,1.74,1.03.37,4.81-1.26,6.51-2.02,11.07l-.27,1.64c-.15.9-.03,1.96.06,2.95l.24,2.73c.16,1.81.69,3.84,1.29,5.59l.89,2.61.73,2.11c.4,1.15,1.06,2.28,1.22,3.91Z"/>
        <path d="M258.6,346.64l-2.73-1.43c-.78-.41-1.68-.94-2.46-1.24l-1.81-.71c1.4.55-7.67-2.75-4.95-2.04l-3.29-.86c-.58-.15-1.12-.29-1.65-.39l-2.22-.41-2.13-.19c-1.49-.13-.33-.76-3.32-1.6-1.19-.33-1.84-2.14-1.18-3.14l2.27-.84c3.08-1.14,5.57-2.72,7.88-5.03l3.14-3.16c.68-.68,1.38-1.41,1.99-2.19l2.01-2.52c1.35-1.7,2.71-3.31,3.9-5.14.59-.91,1.09-2.42,2.62-2.19.62.09,1.63.67,2.43,1.1l-2.94,3.22c-.68.75-1.43,1.62-2.04,2.44l-1.79,2.39c-.55.74-1.08,1.48-1.67,2.16l-1.64,1.9-1.36,1.71-3.08,3.24c-.35.37-.84.87-1.21,1.16l-2.39,1.85c-.49.38-1.6.95-2.09,1.28-.11.07.05.9.13.8.76-.88,7.39,1.66,8.81,2.23,2.07.82,4.16,1.43,6.29,2.15l3.91,1.31c.74.25,2.25.83,2.89,1.15.32.16.2,1.31.06,1.62l-.64,1.39c-.18.38-1.35.19-1.73-.01Z"/>
        <path d="M237.46,185.01l-1.27,1.49c-.36.18-1.23.53-1.62.75-2.03,1.19-3.94,2.11-6.02,3.1l-2.09,1c-.87.42-1.82.83-2.73,1.11l-3.5,1.1c-.5.16-1.98,0-1.83-.48.19-.6.56-1.57.84-2.14.55-1.1,3.63-1.18,5.03-1.78l4.68-2.03c1.21-.52,2.19-1.08,3.61-1.28l1.84-1.92c.49-.51.94-.88,1.52-1.3l2.22-1.62c.53-.38.82-2.07,1.41-2.34l2.03-.94c.43.39,1.89,1.82,1.79,2.61l-.36,2.79c-.35,2.72-.31,4.44-.08,7.06l.38,4.26c.23,2.58,2.62,2.03,1.63,4.84-.45,1.28-1.21,2.1-2.59,2.51l-.88-1.46c.06-.79-.05-1.27-.37-2.01l.24-1.89-.78-4.45-.45-3.07-.58-3.38-.34-2.07c-.81.66-1.25.99-1.7,1.53Z"/>
        <path d="M56.51,247.46l.32,3.01c.33,3.12,1.02,3.14,2.46,5.8l.67,1.25c-.3.42-.93,1.07-1.36,1.27-.49.23-1.77-.21-2.12-.82-.51-.87-1.27-4.48-1.5-5.78l-.48-2.69c-.17-.93-.1-1.96.07-3.02.12-.71-.64-4.13-.1-6.75l.65-3.14.54-2.94c.28-1.53.98-2.72,1.85-4.12l.85-2.34c.39-1.09,2.46-1.99,3.52-2.05.32-.02.83.71,1.06,1.05,1.3,1.99,2.95,1.29,4.81,3.92.36-.28.99-.76,1.42-.97.49-.24,2.12.45,1.88.92l-1.04,2.04c-.4.79-2.54,1.3-3.3.76-.57-.41-1.13-.86-1.59-1.23l-1.41-1.14c-.66-.54-2.25-1.09-2.86-.92-.61,1.43-2.63,2.5-2.83,2.94-.5,1.11-1.49,5.31-1.53,6.45l-.15,4.11-.15,1.33.32,3.05Z"/>
        <path d="M60.09,275.44l-3.21-.42c-1.36-.18-.96-2.16-4.93-.18l-.03-2.03,2.09-1.36c1.2.36,2.2.55,3.43.62l2.44.13,1.34-.21-1.24-1.13c-1.28-1.17-2.01-2.25-2.81-3.88s-2.47-3.48-2.49-5.68c0-.54,1.16-1.45,1.62-1.29.81.27,1.44,1.34,1.59,2.18.27,1.47,1.05,2.58,1.78,3.76l1.9,3.09c.58.95,1.4,2.13,2.36,2.79l2.06,1.42c-.03.45-.02,1.01.1,1.25l.9,1.69,1.08,1.19-.79.74-2.07-1.72c-1.71-1.42-1.47-.48-5.14-.95Z"/>
        <path d="M71.45,283.61l1.54-2.44c.38-.6,1.82-1.17,2.53-1.48l2-.87,3.09-1.35c1.54-.67,2.61-1.4,3.73-2.62.92-1.01,2.07-1.66,2.5-3.24l-3.61.93c-.52.02-1.54,0-2.16,0-2.58-.01-2.6,1.12-3.69.39-.3-.2-.51-1.23-.3-1.54.67-.99,3.66-1.58,5.06-1.84l2.72-.51c.96-.18,2.58-.27,3.02.61l.54,1.07c1.15-.6,2.21-.39,2.93.56l-1.17,1.64c-2.02-.56-2.71,1.79-5.5,4.02-1.27,1.01-3.9,2.77-5.27,3.39l-2.93,1.32c-.43.19-1.35.48-1.61.78-.45.53-1.17,1.57-1.75,1.63-.32.03-1.25-.3-1.64-.44Z"/>
        <path d="M350.43,248.11c-.07.21-1.17.81-1.29.63-1.15-1.78-.03-1.65-.9-4.54-.59-1.98-1.15-3.9-1.99-5.72l-1-2.19c-.22-.47-1.03-1.32-1.28-1.76l-1.21-3.31c-.14-.38-.17-1.47-.36-1.87-1.28-2.56-2.34-4.79-1.78-7.84l1.1.05c.21,0,.38.35.65.68.57.51,2.15,4.94,2.25,5.57.25,1.67.71,2.86,1.24,4.44l.54,1.62.95,2.19c2.53,5.79,1.52,5.8,2.4,7.88l.59,1.41c.29.69.39,1.94.11,2.76Z"/>
        <path d="M207.76,248.14c-.31.65-1.93,1.32-2.65,1.24-.4-.04-.79-1.25-.57-1.58,1.96-2.88-.07-2.29,2.69-4.34.38-1.44.99-2.91,2.07-4.17,1.34-1.56,2.17-4.44,3.85-7.31l1.16-1.99c.81-1.39,1.7-.74,1.61-3.05l1.97-1.01,1.1,1-.8,1.1-1.77,2.4c-.36.49-.77,1.14-1.06,1.68l-1.48,2.75c-.44.82-.87,1.72-1.21,2.59l-1.12,2.81c-.4,1.01-1.1,2.11-1.6,3.19l-2.2,4.68Z"/>
        <path d="M238.74,259.45l-1.73.7c-.6.24-1.47.37-2.17.43-.66-1.29-.75-2.31.29-3.16.47-.39,1.21-.65,1.85-.9l2.3-.88c1.56-.6,3.13-1.34,4.75-1.5,2.8-.28-.35-.1,3.89-.99l2.24-.47c1.15-1.04,2.61-1.15,4.02-.42l-.05.87c-.37.32-1.1,1.15-1.5,1.28l-3.2.98c-1.16.36-2,.8-3.16,1.06-2.5.56-1.77.68-4.67,1.85l-2.87,1.15Z"/>
        <path d="M287.63,321.23l-.72-1.68c.08-.22.47-.93.79-1.08,1.83-.88-.23,1.12,4.88-.66l1.09-.38c1.3-1.58,3.11-1.95,5.47-4.29.02-.02,2.96-2.9,1.96-2.4l2.23-1.04c.44-.21,1.68.41,1.96.74.4,1.06.05,2.64-1.46,2.93-1.05.2-2.2,1-3.01,1.78-3.65,3.52-2.72,1.9-5.66,3.73l-2.13,1.32c-1.26.78-3.28,1.03-5.41,1.02Z"/>
        <path d="M158.94,115.78l1.46-2.11c1.52.43.8-1.19,3.91-1.18,1.36,0,2.63.04,3.85-.08l3.16-.32,2.02-.18c3.35-.29,3.84-1.03,5.18-.41.35.16.66,1.15.49,1.45s-.79.73-1.14.78l-3.11.46c-1.62.24-3.43,1.37-5.16,1.39l-7.18.09c-1.26.02-1.38,1.28-3.47.1Z"/>
        <path d="M220.81,66.5c-.43.18-1.71.43-2.16.33-.86-.45-1.05-2.85.19-3.26l2.37-.79c.87-.29,1.63-.72,2.39-1.1l3.96-1.98c1.07-.53,4.53-1.21,5.83-1.35.31-.04,1,.33,1.23.5s.17,1.24-.05,1.41c-1.78,1.46-3.26,1.24-6.21,2.68l-5.39,2.63-2.15.92Z"/>
        <path d="M226.01,213.13c-.53.6-1.59,2-2.59,2.09-.31.03-1.04-.64-.96-.94.12-.51.44-1.57.74-1.9l2.25-2.47c.6-1.4,1.4-2.52,2.24-3.73l1.44-2.05,1.28-1.84,1.31-1.89c.37-.53.77-1.1,1.09-1.69l1.44-2.67c.18-.05.8-.21.71-.18-.14-1.79,1.38-2.46,1.31-2.49l.73.33-.1,1.4c-2.18,2.02-.15,1.14-2.31,3.94-.56,3.07-1.93,3.65-3.75,6.45l-1.73,2.65c-.95,1.46.86.52-3.09,4.99Z"/>
        <path d="M259.07,330.17c-1,.92-2.31,1.34-3.58.9l-1.29-.32c.63-.5.73-.61.35-.49l-1.06-.25.5-1.24,3.42.24c.79.06,2.46-.39,3.23-.7l4.54-1.83c1.22-.49,2.28-.72,3.68-.94,3.75-.6,3.39-1.44,7.58-1.19l1.16.07c.34.02.4,1.24.08,1.38-.49.22-1.53.6-2.02.73l-2.85.73c-6.29,1.6-2.49-.39-10.18,2.61l-2.51.98-1.04-.68Z"/>
        <path d="M358.22,213.93l-3.33.57c-.46.08-3.62-.87-4.44.41s-2.03,1.19-3.23.63l-2.14-1c-1.44-.67.11-.95-.83-2.36.74-1.59,3.98-1.67,5.83-1.29l3.35.69c3.03.62,4.41-1.35,7.88.77.11,1.24-2.51,1.48-3.07,1.57Z"/>
        <path d="M271.3,249.07c-.69.21-1.92-.42-2.12-.95l.66-1.68,3.95-1.39c.35-.12.71-.26,1.08-.41l2.75-1.06c.95-.37,1.87-.63,2.77-1.07l2.55-1.22,2.83-1.16c.46-.19,1.9-.1,1.75.36-.2.61-.96,1.52-1.4,1.77l-2.01,1.16-3.58,2.03c-.4.23-1.1.75-1.47.9l-2.82,1.1c-.4.16-1.05.45-1.38.55l-3.55,1.07Z"/>
        <path d="M177.8,307.45c-1.94-1.9-.53-2.4.77-5.29l1-2.23.94-.59.95-1.8c.57-1.17,1.16-2.26,1.84-3.4l1.11-1.84c2.96-2.12,1-3.38,2.53-4l.57-.23c.1-.04.64.41.6.52l-.94,2.66c-.38,1.06-.79,2-1.28,2.95l-1.46,2.75c-.46.88-.91,1.89-1.32,2.83l-.97,2.21-1.22,2.57c-.63,1.33-1.5,2.28-3.11,2.89Z"/>
        <path d="M100.06,248.29c-.32-1.27-.03-2.69.6-4.04l1.03-2.18c.33-.69.9-1.5,1.27-2.17.89-1.64,1.58-3.42,2.98-4.69.59-.53,1.09-1,1.61-1.58l1.61-1.81c.15-.17.73-.24.9-.09,1.29,1.18-.82,3.46-1.55,4.57-.76,1.16-1.52,2.31-2.14,3.49l-3.47,6.7c-.33.64-1.7,1.16-2.84,1.8Z"/>
        <path d="M143.79,99.32c-.33,3.34-1.4,3.59-4.88,4.59-.88-1.17-1.89-2.58-1.73-3.92l.18-1.48-.17-2.92,1.46-1.58c.35-.2,1.51-.35,1.92-.19.36.14.84,1.02,1.11,1.35.54.74.88,1.41,1.26,2.26l.86,1.89Z"/>
        <path d="M116.83,217.98c-1.36-.83-.97-2.13-.32-3.19l1.2-1.97,1.29-2.21c.44-.75.8-1.51,1.18-2.31l.91-1.91c.2-.42.81-1.2,1.12-1.6l1.68-2.16c.22-.28.8-.46,1.23-.48l1.13-1.02c.14.65.3,1.92-.07,2.31l-1.46,1.52c-1.25,1.3-.57,2.23-2.01,4.85l-1.13,2.05-1.61,2.93c-.36.66-.8,2.24-1.48,2.51l-1.68.69Z"/>
        <path d="M189.44,81.54c-1.58.85-4.34,3.27-5.49,2.17-.25-.24-.5-.81-.68-1.28.99-2.01,2.43-2.49,4.52-3.63,1.31-.72,2.76-1.69,4.12-2.02l2.54-.62,3.71-.5-.05,1.65c-1.01.75-4.48,2-5.23,2.4l-3.42,1.84Z"/>
        <path d="M161.35,343.71c-.54-1.77.98-5.44,1.91-6.93.33-.54.7-1.08.89-1.58l1.24-3.28c.23-.61.44-1.15.69-1.68l.84-1.75c.21-.44.34-.82.43-1.41l1.39-2.23c.41.8.87,1.89.68,2.39l-.9,2.39c-.27,1.07-.6,1.83-1.11,2.91-.25.53-.5,1.66-.75,2.33l-1.4,3.86c-1.2,3.29-.22,3.05-1.22,4.25l-.95,1.15c-.23.27-1.64-.05-1.75-.41Z"/>
        <path d="M140.89,272.63l-2.63-.35c-.87-.11-1.81-.27-2.66-.45l-1.53-.32-5.46-1.12c-.67-.14-.95-1.81-.81-2.45l2.68-.5c1.66,1.08,3.2.94,4.94,1.24l6.16,1.07,1.95.34c.15.95-1.06,2.75-2.65,2.54Z"/>
        <path d="M102.43,126.16c-.57.31-1.53.77-2,.86l-5.03.88c-2.38.42-6.48.72-8.04-1.31l1.18-1.15c.19-.19.47-.72.73-1.26,7.26,2.46,7.37-.43,11.66-.22l2.2.1c0,.53-.26,1.87-.7,2.11Z"/>
        <path d="M213.13,118.24c-.48,1.1-2.71,1.03-3.49.86l-4.05-.86-2.48-.61c-.27-.07-.97-.42-1.21-.52l-2.5-.3c-2-.24-2.88-1.54-3.39-3.07-.09-.26.83-.62,1.09-.56l2.25.55,3.93.96c4.51,1.1,1.67.93,6.3,1.78,1.4.26,2.55.54,3.53,1.77Z"/>
        <path d="M322.33,192.38c.42.24.66,1.4.31,1.64l-1.5,1.02-1.63-1.54c-.92-.87-1.78-1.71-2.61-2.64l-2.62-2.97c-.78-.88-1.63-1.57-2.63-2.26l-1.31-1.94c-.2-.3-.27-1.03-.08-1.39.41-.77,2.62-.44,4.01,1.39l1.99,2.63c2.12,2.82,1.4.26,2.54,3.39l1.29,1.11c.6.52,1.28,1,2.24,1.54Z"/>
        <path d="M306.13,178.28c-.81-.48-1.11-.71-1.59-1.15l-1.3-1.2c-1.69-1.56-2.26-1.36-4.3-3.3l-1.43-1.37-2.88-2.84c-.4-.39-.3-1.68-.01-2.14l.56-.85c.15-.23.92.23,1.11.42l2.87,3.01c2.75,2.89,2.45,1.62,4.68,4.37l1.11,1.37c.69.86,1.25,1.62,2.05,2.73l-.87.94Z"/>
        <path d="M299.18,237.15c-.04-.51-.15-1.58.2-1.75l1.68-.82c2.53.14,1.58-1.69,3.53-1.46l1.88-1.22c.81-.53,1.78-.59,4.6-2.3l1.77-1.07c.23-.14.6-.45,1.07-.83l1.47.77c-.57,1.02-1.28,1.78-2.1,2.3l-1.93,1.21-2.43,1.41-2.46,1.41-1.4.9-2.32,1.27c-1.14.63-2.29.75-3.56.16Z"/>
        <path d="M133.17,182.6c-.5,1.36.22,3.16-3.53,4.95-.66-1.69,1.25-7.37,2-9.17l1.13-2.71c.54-1.31.63-3.52,2.15-3.64.46-.04,1.34.9,1.3,1.43-.05.66-.33,1.58-.54,2.2l-.64,1.89-1.87,5.07Z"/>
        <path d="M325.36,224.98l-2.17-.58c.94-3.24,1.32-.41,4.14-4.35.81-1.13,2.87-1.49,3.76-2.34.53-.51.98-1.08,1.5-1.33l2.41-1.19c.73-.36,2.43-1.42,3.01-.06.39.91-1.39,1.89-2.08,2.39-1.11.8-2.06,1.49-3.16,2.11l-2.48,1.38c-2.92,1.62-1.63,2.02-4.93,3.98Z"/>
        <path d="M237.03,127.95c-2.85-.6-1.78.21-6.62-1.43-1.83-.62-3.2-1.39-4.59-2.72-.44-.42-.14-2.05.33-2.44.65-.55,1.67.23,2.27.53l3.33,1.68c.45.23,1.24.86,1.72.99l5.61,1.46c.27.98-.94,2.17-2.04,1.94Z"/>
        <path d="M372.14,157.21c-.4,1.12-1.83,1.26-2.62.53l.46-1.7c.1-.36,3.09-6.37,3.1-8.31l1.75-3.5c1.31-2.62,0-3.16,2.17-3.98l.45,1.74-.87,3.42c-.53,1.03-.96,2.1-1.32,3.22l-1.09,3.46c-.18.57-.57,1.28-.83,1.87-.42,1-.77,2.01-1.21,3.23Z"/>
        <path d="M340.37,279.98l-1.34,1.04-1.66-1.3,1.34-1.93c-.06-1.6.46-2.99.92-4.54l.84-2.8c1.23-4.11-.19-1.97,1.83-7.51.18-.51.85-1.54,1.33-1.89.24-.18,1,.29,1.05.59s-.15.88-.3,1.32c-.51,1.54-.81,3.18-1.21,4.8l-.96,3.89c-.69,2.8-.84-.19-1.57,4.88l-.24,1.66c-.05.35-.04,1.19-.03,1.78Z"/>
        <path d="M246.33,55.64c-.33.1-1.1-.62-.94-.84l.83-1.16.61-1.13,2.09-1.05c2.95-1.48,1.85-.42,4.41-1.43l2.05-.81c.37-.14,1.15-.29,1.78-.43.76-.16,1.6,1.35,1.13,1.8-1.22.43-2.06,1.94-2.83,2.19l-2.07.65-2.55.8-4.51,1.41Z"/>
        <path d="M267.49,141.32c.02.12-.72.85-1.09,1.05-1.16.61-2.02-1.21-3.71-1.72l-2.79-.84c-1.24-.37-4.28-1.71-5.21-3.06-.46-.68,0-2.03.48-2.85,1.22.44,2.13.83,3.01,1.43l2.14,1.45c3.21,2.17,1.92.03,3.85,2.35l1.24.48,2.09,1.72Z"/>
        <path d="M325.65,295.77c-2.82,2.3-1.28,3.53-5.49,5.01-1.37.42-2.47.71-3.97.98-.23-3.91,3.27-1.43,5.26-4.24.65-.92,1.22-2.16,1.97-2.94,1.07-1.13,2.5-2.4,3.63-3.34.41-.34,1.78.51,1.64.95-.18.58-.68,1.67-1.09,2l-1.95,1.59Z"/>
        <path d="M159.85,105.23l-2.04,1.35c-.17-.23-.54-1.14-.44-1.44l.96-2.88c.23-.7,1.04-1.82,1.61-2.09l3.1-1.51,4.46-1.89c.75-.32,1.2-.5,2.11-.75.24,2.73-2.11,2.76-3.67,3.4-1.83.74-3.49,1.77-4.75,3.28-.22.77-.74,2.15-1.33,2.54Z"/>
        <path d="M384.36,219c-1.86-1.39-.6.33-2.58-.63-2.58-1.26-.4.13-4.41-.91-3.68-.96-1.87-1.07-5.62-1.26-.34-.19-.11-1.61.3-2.21.78-1.12,1.91-.16,3.88.37l4.19,1.14,3.65,1.1,1.86.46-1.28,1.95Z"/>
        <path d="M127.08,122.09c-2.38-.18-4.79.76-6.19.8l-3.87.11v-1.34s4.03-1.02,4.03-1.02c.82-.21,1.65-.37,2.55-.49l2.9-.38c.74-.1,3.76-.11,4.81.72.25.19.16,1.07-.06,1.3s-.99.55-1.32.52l-2.86-.22Z"/>
        <path d="M337.59,190.08l-3.2-.73c-.72-.17-.48-2.26-2.14-3.95l1.58-1.98c.79-.99,1.55-2.3,3.48-2.39l1.96-.09c.42.57,1.18,1.58,1.44,2.09l.86,3.38-.46,1.93c-.25,1.06-3.01,1.86-3.53,1.74Z"/>
        <path d="M420.88,229.97c-.41.86-1.91.62-2.44.15-.88-.38-1.66-.72-2.37-1.16l-3.5-2.16c-.53-.33-1.32-1.52-.85-1.95,1.16-1.08,2.77-.38,3.87.33l2.13,1.38c1,.65,2.04,1.11,3.26,1.73.04.22.06,1.34-.1,1.68Z"/>
        <path d="M86.01,242.35c-1.46,1.98-3.75,3.04-5.88,1.41-.25-.19-.73-.61-.87-.82l-1.08-1.58c-.88-2.37,1.05-4.13-.29-5.4l.16-1.54c.17-1.59,2.84-2.62,4.54-1.84l1.23-.2,1.58,2c.77.97,2.23,5.79.62,7.98ZM83.53,240.44l.06-2.64c.01-.59-.78-1.61-1.23-2.03-1.82.62-1.17,3.85-.17,4.8.2.19,1.27.11,1.34-.13Z"/>
        <path d="M143.72,136.83c-.13-.96-.13-1.75-.05-2.83l.25-3.31c.04-.46.72-1.42.99-1.77l.79-1.01.77,1.57c.16.33.23.67.22,1.22l-.13,4.36c-.01.41-.75,1.24-1.12,1.34l-1.72.44Z"/>
      </g>
      <g>
        <path d="M341.77,552.13l-2.67.59c-.73.16-2.05-.51-2.69-.78,3.88-5.45,6.96-1.09,10.24-4.5l1.31-1.37c.63-.65,2.44-1.13,3.36-1.04.2.02.63.89.44.97l-1.18.45c-.33.13-.66.91-.93,1.13l-1.92,1.54c-.8.64-1.4,1.27-2.2,2.08s-2.39.63-3.77.93Z"/>
        <path d="M155.53,550.58c-1.31.32-4.2-.29-5.24-1.08-2.32-.52-4.47-1.4-6.53-2.55-1.27.07-3.26-1.5-4.03-2.17-.31-.27,0-1.6.4-1.71,2.04,0,4.39,1.16,6.15,2.31,1.01.66,2.33.99,3.4,1.53l2.32,1.17,2.1,1.13,1.43,1.38Z"/>
        <path d="M365.08,459.32c1.46.43,2.36,1.32,2.41,2.67.02.49-.63,1.66-1.1,1.57-.79-.16-1.76-.46-2.47-.67-1.91-.58-3.83-.89-5.79-1.26l-3.18-.61-1.64-1.49c-3.5-.34-1.61.34-4.56-1.69-1.37-.95-2.29-1.31-4.01-1.23-5.1-2.64-3.15-2.29-9.16-3.39-.29-.42-.32-1.82,0-2.26.22-.3,1.26-.12,1.63-.1l2.32.14c1.06.07,2.36.17,3.13.7,2.97,2.04,1.67.25,4.9,1.74.77.35,1.49.84,2.12,1.4,2.87,2.55,3.38-.43,6.52,2.52l2.59.93c.73.26,2.5-.08,3.29.16l2.99.87Z"/>
        <path d="M183.8,454.64l-2.28-.05c-.25,0-.87.61-1.13.63l-2.03.14-3.17.1c-1.18.04-3.29.68-4.44.39-.43-.11-.58-1.35-.37-1.7,1.97-3.23,7.36-1.86,10.3-1.9l3.61-.04,3.76-.04c-1.3,1.5-3.2,2.48-4.25,2.46Z"/>
      </g>
    </g>
  </g>
</svg>