<?xml version="1.0" encoding="UTF-8"?>
<svg id="Layer_1" xmlns="http://www.w3.org/2000/svg" version="1.1" viewBox="0 0 747.21 504.25">
  <!-- Generator: Adobe Illustrator 30.2.1, SVG Export Plug-In . SVG Version: 2.1.1 Build 1)  -->
  <g id="_x38_i8sxV.tif">
    <g>
      <path d="M379.55,490.41c-4.04,1.86-1.62.14-6.58.92-.6.09-1.5.32-1.95.29l-2.71-.21c-1.45-.11-2.8-.15-4.18-.16l-4.26-.03c-.64,0-1.28-.15-1.74-.96h2.77c.5,0,1.61-.35,2.08-.32l3.01.24c.51.04,2.26-.36,3.33-.36l7.96-.02c.75,0,1.5.2,2.27.62Z"/>
      <path d="M426.8,490.72l-3.21-.38c-.76-.09-1.62-.08-2.41-.08l-3.13.03c-.53,0-1.32-.38-2.09-.79.35-.38.66-.69.68-.68l3.04-.05,4.55-.02c1.12,0,2.27.14,3.38.26l2.44.25c.88.09,1.63.48,1.9,1.34l-2.06.14c-.89.06-2.09.1-3.08-.02Z"/>
      <path d="M166.41,499.05l-2.77.24c-2.2.19-4.25.69-6.33-.5.49-.33,1.24-.58,1.89-.61l3.09-.14,2.35-.11c4.75-.22,3.82-.82,7.69-.7.5.02,1.13.15,1.62.31-1.21.8-3.05,1.17-4.61,1.29l-2.92.22Z"/>
      <path d="M328.43,491.68l-3.9.25c-.6.04-1.4.09-2,.09h-3.06s-1.9-.12-1.9-.12l-2.65.11c.27-.58.62-1.28.88-1.56,1.23,0,3.08.05,4.24.12l2.55.16,2.34.08c1.95.07,1.72.91,3.5.42.65.14.77.41,0,.45Z"/>
      <path d="M268.47,491.15c-4.32,1.09-2.47.2-5.1.22l-2.22.02c-1.05,0-2.53.18-3.47-.09-.87-.26-1.28-.59-2.04-.11-.4.25-1.49.1-1.73-.29-.06-.1-.02-.76.1-.72s.56.18.74.18l5.43.18c3.13.1,4.29-.37,4.77-.33l3.56.32c.5,0,.4.33-.04.62Z"/>
      <path d="M226.27,494.5c-2.78-.94-1.09,1.34-7.64.8-.12,0-.34-.22-.42-.3-.75-.73,2.4-1.22,2.9-1.27l3.08-.34,3.05-.28c.48-.04,1.35.6,1.66.99-.89.4-1.92.64-2.62.4Z"/>
      <path d="M522.96,442.5c1.69.1.32-.26,3.71-.08.18.01.53.1.56,0l.18-.53-.96-.08c.64-.98,3.5-1.11,4.76-1.12l2.13-.02,6.94-.06,1.49.33c1.17.26,3.03.07,4.23-.07l2.74-.32,3.73-.36,4.01-.34,2.73-.23,3.07-.26,3.35-.29,2.31-.13,3.13-.18c.53-.03,1.45.18,2.14.33l-1.27.79,1.47-.25c.76-.13,1.61-.55,2.43-.87.73-.29,2.27-.09,3.15-.12,5.29-.18,3.95.86,7.92.58.92-.06,1.84-.83,3.9-.86l2-.02,1.49-.04,5.58-.14c.73-.02,1.42-.02,2.17.01,2.67.1,5.28.11,7.97.03.66-.02,1.43-.09,2.05-.02l2.74.31c.36.04.98.64,1.21.96l2.74-.27c2.8-.27,4.83-1,7.53-.37,1.73.41,5.56,1.11,7.08,1.14.95.02,1.71-1.11,5.69-.68.83.09,1.67.24,2.48.45l-.36.57c-.11.16.06.82.25.79l2.14-.28c.45-.06,1.05-.06,1.35.02s.84.85.67,1.11l-1,1.51-2.73.72c-.6.16-1.64.42-2.19.43l-6.04.16-3.37.18c-.56.03-1.49-.14-2.12-.17l-5.63-.23-2.72-.12c-1.18-.05-2.46-.08-3.65-.2l-3.06-.32c-5.42-.57-3.93.44-8.36-.03-2.14-.23-4.09-.19-6.24,0-1.04.09-2.19-.01-3.2,0l-3.2.06c-.96.02-2.51-.1-3.35.09-1.27.28-2.55.69-3.88.63l-4.52-.21c-.71-.03-1.8.12-2.54.14l-2.84.09c-.6.02-1.79-.3-2.35-.4l-5.96.5c-1.42.12-2.76.18-4.16.18h-5.35s-.7.23-.7.23l-1.91.23-2.72.32-3.73.34-3.71.28-2.45.2c-5.09.42-6.25-.56-10.21-.1-.72.08-1.46-.05-2.26-.06l-11.94-.11-1.49-.29-14.66.1-3.76.14-3.34.17c-.92.05-1.71.08-2.62.09-3.31.01-3.38,1.15-8.47.77l-2.08-.15c-1.24-.09-2.48.06-3.76.04l-1.25-.03-3.03.29c-1.15.11-2.27.14-3.39.17l-3.04.08-3.62.04-3.49-.05c-1.02-.01-2.42.22-3.33.36-.46-.1-1.46-.36-1.93-.36l-3.4-.05c-3.23-.05-2.07.42-6.11.32l-2.75-.07c-.75-.02-1.52-.07-2.32-.13l-2.35-.18c-.72-.06-1.61-.06-2.33-.05l-2.7.05-1.97.04-2.22-.02-1.24.06c-3.03.14-6.01.14-9.02-.07l-3.41-.23-3.08-.23-6.87-.14-1.57-.29c.09.02-11.91.14-12.1.16l-2.59.17-3.77-.15-2.1-.1-9.55-.13-1.51-.26-4.63-.11c-3.06-.07-3.95.19-7.4-.01l-2.07-.12c-.8-.05-1.63-.04-2.45-.02l-2.81.05c-2.52.05-.18-.2-3.06-.06l-3.01.14c-.73.03-1.47,0-2.29-.14-1.01-.16-2.18.12-3.22.14l-9.4.15c-.62.01-1.41.08-2.02.12l-3.69.25c-.93.06-1.9.18-2.77.18h-4.33c-2.34.02-4.47.28-6.79.59-.93.13-5.06.24-6.26.24l-3.46.02c-1.09,0-2.34-.14-3.41.04l-3.79.65c-1.03.18-2.16.36-3.2.45l-3.42.31-3.26.18-2.69.34c-.72.09-1.44.13-2.15.17l-2.94.17-2.78.17-3.31.13-1.62.08-3.42-.06-3.06-.06-3.38-.26-8.34-.14c-.64-.01-1.92-.67-2.44-.58l-1.46.25-3.34-.76-3.31-.85c-4.15-1.07-4.12-1.41-8.34-1.64l-3.04-.16c-.64-.03-1.65-.16-2.29-.31l-3.54-.83c-.81-.19-2.07-.41-2.89-.42l-6.13-.07-1.99.2-2.8-.06c-1.25-.03-2.72.08-3.97-.29l-2.37-.71c-1.45-.44-3.17-.48-4.53-.8-1.47-.35-.66.84-2.27-.17-1.87-1.17-1.49.95-5.95-.03l-2.72-.6-1.99.13-2.73.24-3.49.32c-3.05.28-6.46-.14-8.54.16l-3.81.54-2.71.36c-3.73.5-6.07-.81-8.85-.09l-2.16.56c-1.66.43-3.42.27-5.1.03l-2.73-.38c-1.01-.14-2.61.09-3.52-.17l-2.43-.71c-6.03-1.75-7.02.79-11.29-.68l-1.49.05c-1.58-.22-2.91-.15-4.47-.03l-3.32.25c-.92.07-1.81.07-2.73-.02l-3.18-.32c-2.2-.22-6.52.2-7.1-.63l-.6-.85,1.26-.51c.28-.56.68-1.28,1.04-1.57l1.92-1.59c1.51-1.25,2.02-.45,3.6-.65,8.28-1.07,6.28.39,8.61.2l3.66-.3c.61-.05,1.74.31,2.39.54l1.78.63,1.48-.53c1.59-.57.94,1.6,2.59,1.44l2.03-.2c.23-.02.81-.33,1.03-.41.15-.05.74.66.87.49l.52-.68c.51-.66,1.02,1.36,3.09.1.33-.2,1.28-.22,1.56.06l.69.69c.78.78,5.81.97,7.21,1.04,3.48.16,2.57-.7,4.32-.19l-1.04,1.09c.18.48.65.37.97.29l.6-.14,5.03-1.19c.09-.02.77.06.85.05l.58-.08.51-.08c.07-.01.39-.02.46,0l.51.07.62.08.66.09c.78.11.61.99,1.39.65l2.02-.88c.05-.02.45-.03.5-.02l.55.11c.5.1,1.17-.02,1.42-.43l.29-.48.15-.25c.27.41.23.23.18.75l.19.33.68-.23.57-.2c3-1.05,2.69.34,4.2.19l3.61-.35c.12-.01.56.04.76.06l.77.05c1.93.13.23-1.37,5.92-1.1l.69.03.68.03.64.03.53.03c1.22.07,1.12-.16,1.59-.13l5.23.29c.07.09.3.46.35.53l.25.4c.12.19,1.3.59,1.94.13.08-.07.16-.23.06-.24l-.84-.05-.72-.04c-.1,0-.13-.16-.06-.23.12-.1.51-.28.7-.29l4.12-.14c2.04-.07,3.92.31,5.81.91.31.1,1.05.23,1.13.46l.31.93c-.18.25-.4.46-.23.51l1.01.31c.18-.23.25-.32.21-.27l-.18-.77c-.05-.33-.18-.63-.02-.63.31,0,.95,0,1.14.05l.85.27,2.1.65.87.29c.24.08.46-.57.64-.88.13-.24.83-.44,1.13-.46l2.45-.11c.54-.02,1.75.26,2.3.26,3.35-.51,3.71.75,8.17,1.06l3.15.22,1.87.12c3.44.22,3.84,1.59,5.24,1.15l.89-.28c.18-.06.48.44.56.62l.25.52c.06.13.35.44.48.37l.64-.38,1.12.82c-.14-.1,1.28-.41,1.33-.3l.74,1.52c.24.48,1.52-1.95,3.2-.29.59.58,1.5.23,4.32.19l3.07-.04h3.64s2.79-.02,2.79-.02c1.39-.01,7.62.65,9.34.32l1.47-.28,4.33-.1,2.21-.12,1.01.21,1.82-.14c3.78-.29,3.49-.67,7.38-1.28l3.75-.59c.8-.12,1.89-.26,2.67-.29l5.97-.22,2.9-.11,3.53-.21c1.25-.07,2.26-.24,3.51.01.84.17,1.58-.05,2.36-.44,1.51-.74,3.21-.34,4.85-.39.14,0,2.78-.35,3.41-.36h1.55c.68,0,2.13.45,2.75.12,1.39-.74,2.98-.72,4.4,0l.48-.15.51-.16.51-.17.5-.17c.42-.14.67-.22,1.1-.22h.7s.68,0,.68,0h.68s.69,0,.69,0h.63c.08.02.4.1.57.13l.55.12.57.12.56.11c.47.1,1.01.16,1.42.1l.41-.06,1.32-.19c.08-.01.38.15.5.21.22.12.54.29.37.2,2.88-1.16,3.73-.38,7.72-.67,6.04-.44,4.51,1.01,6.85.66l1.82-.28,2.04-.31c1.41-.21,3.11-.18,4.58-.08l2.06.14,2.39.16c1.18.08,3.41.5,4.05.47l3.28-.17c1.77-.09.83,1.29,3.58.82,1.5-.25.61.81,2.09.22.06-.03.52-.35.58-.35l3.07.03.02.57-.48.17-.74.26c-2,.69,1.46.02,2.32-.26.47-.15,1.2-1.06,1.73-1.07l5.73-.09h1.76s7.68.09,7.68.09h1.75s4.95,0,4.95,0c.39,0,1.3.23,1.69.27l3.06.31.66.07,1.87.21-.15.77c.61.98,2.54,1.4,3.52.64-.14-.07-.46-.24-.53-.24l-.69-.04-.67-.04-.54-.03c-.05,0-.27-.32-.28-.38l-.08-.4.32.03.31.02.42.04.58.05c.17.02.48.04.59.03l.69-.04.56-.03h.39s.4,0,.4,0l.4.27-.65.21-.5.16s-.25.36-.25.41l.11.67,1.86-.17.2-.74h.53s.16.15.17.19l.07.31c.01.05.15.27.15.27s.26-.05.4-.08l.55-.1.56-.1.09-.67-.36-.03-.53-.4,1.78-.24,1.81-.25,2.4-.33c1.37-.19,5.08.43,4.83.79l-.42.61s.14.45.2.46l1.05.13c.43.05,1.34-.16,1.52-.3l-.8-.41c-2.47-1.26,1.97-.9,2.85-.77.75.11,1.82.49,2.39.43l2.76-.3c1.89-.2.45-.72,4.08-.65l4.76.1,4.24.17.52.04.62.05.69.05c.09,0,.5-.03.58-.05l.6-.12.57-.12c.64-.13.48-.1,1.24-.09h.67s.67,0,.67,0h.67s.67,0,.67,0h.67s.67,0,.67,0h.67c.8,0,.57.05,1.25-.09l.57-.12c.17-.04.48-.11.57-.1l.57.02h.47s.42.03.42.03h.49s.42.21.42.21l.42.19c.28.12.62.23.83.02l.03.36-.71.27.28.17.71.12c.86.14.23.17.97.08l.44-.05.48.06c.12.01.31-.33.2-.35l-.63-.13c-.63-.12-1.95-.64-1.33-.83,1.33-.4,3.55-.26,4.89.37l-1.6.72c.85.34,1.63.14,2.56.06l3.54-.32.7-.07c.15-.02.08-.31.07-.66l.28-.42,1.08-.14.85.97s.25.1.29.09l2.76-.16.69-.06-.59-.89s.23-.33.27-.33h.67s.65,0,.65,0h.71c.57,0-.03.98.3.97l.96-.04-.49-.48c-.12-.11.2-.36.46-.52.06-.04.63-.24.74-.24l6.94-.06c.27,0,.5,0,.57,0l2.96-.24.71-.06c.12-.01.42-.01.61,0h.7s.64.04.64.04l.67.04.15.69-1.48.4,1.3.89c.07.05.57.04.7.03l.71-.04,2.28-.19c1.24-.1.3.48,2.4.3l.71-.06,1.66-.12c.1,0,.45-.41.35-.44-1.14-.23.17-.16-1.37-.15h-.76c-1.91.01-1.72-.95-2.51-.57-.16.08-.55.35-.66.26l-.45-.36-.3-.33,3.77.03c.07,0,.61.22.68.22l.56.02.79.02c.37,0,1.13.46,1.2.66l-.39.22c-.06.03-.41.23-.41.24.27.26.37.37.51.38l.79.05Z"/>
      <g>
        <path d="M132.65,504.25h-7.41c.14-.68-2.17-.06-4.13-.53-4.31-1.03-3.83-.46-7.77-1.38-.38-.09-1.14-.4-1.47-.33-2.86.52-2.33-.05-5.5-.37l-3.03-.3-3.76-.26c-.84-.06-1.73-.04-2.61,0-1.29-.11-2.44-.12-3.81,0l-2.32-.36-2.11-.34c-.75-.12-1.83-.42-2.55-.44l-7.71-.16c-1.08-.02-2.25-.17-3.35-.32l-2.36-.32-3.4-.54-3.1-.33c-5.3-.57-5.47,1.7-9.07-1.09l-2.22.8c-.97.35-2.02.53-3.08.66l-2.71.34c-1.07.14-3.2.07-4.4-.1l-3.01-.43-2.66-.39-2.4-.36-1.44-1.05-4.7-.09c-2.19-.04-3.47,1.09-9.28.5-1.16-.12-2.11-.17-3.22.03-4.93.88-8.79-.3-11.87,2.94l-1.98.77c-1.19.46-2.27.89-3.47.96l-.76-.87v-1.68c.13-.22.34-.61.46-.9l.29-.67,1.17-2.58c.49-1.09,1.04-2.18,1.36-3.32l.57-2.03c.02-.06.24-.45.27-.54l.87-2.45,1.27-3.48c.09-.24.43-.81.56-1.08l.77-1.62.57-1.14.93-1.75,1.4-2.65.67-1.36,2.85-5.87.79-1.62,1.07-2.18.51-.62.55-1.09c.09-.17.2-.37.25-.46l1-1.67.25-.41,1.78-2.96c.42-.7,1.79-3.42,2.13-4.29l1.51-3.88c1.29-3.3,1.49-2.8,2.2-4.94l.26-.79.18-.57.88-2.8c.02-.07.28-.45.3-.51l.18-.46.2-.52.19-.49.26-.4.26-.4c.04-.07.1-.38.13-.51l.12-.61.13-.59c.01-.06.14-.33.2-.46l.19-.43.2-.45.21-.48.22-.5c.24-.54.65-.57.71-1.16l.04-.43c.04-.39-.02-.18.28-.71l.25-.43.25-.43.24-.41.26-.43.2-.49.2-.48.18-.45.2-.49.26-.46c.13-.22.52-.44.56-.61l.09-.33.1-.36c.03-.11.09-.37.12-.45l.25-.49.23-.47.17-.34c.26-.54.07-.18.34-.53l.26-.34s.11-.21.11-.25v-.44s.08-.48.08-.48c0-.07.12-.3.17-.43l.12-.31c.04-.1.09-.26.12-.31l.21-.31.26-.38c.04-.06.2-.42.22-.49l.1-.59.1-.58c.01-.08.17-.34.23-.46l.21-.42.18-.35.12-.31.12-.32c.09-.24.38-.62.46-.83l.17-.48.19-.53.18-.52.17-.49.3-.37.29-.37s.18-.39.19-.46l.12-.59c.16-.76-.11-.34.39-.94l.3-.36c.24-.29.25-.59.36-1l.15-.55c.03-.13.1-.43.14-.51l.26-.43.24-.42.24-.43.24-.43.23-.43.29-.39.29-.39.23-.46.23-.46.21-.43.26-.4.27-.41.19-.46.21-.51.2-.5.2-.49c.02-.06.15-.29.2-.38l.26-.45.24-.42c.08-.14.22-.34.25-.43l.18-.48.19-.53c.4-1.08.66-.75.77-1.21l.12-.56.13-.64c.01-.06.1-.32.14-.43l.16-.48.17-.5.19-.57c.21-.65.06-.28.46-.84l.22-.31s.06-.2.08-.3l.08-.42.11-.49c.02-.07.17-.31.24-.45l.23-.43.24-.45.24-.45.23-.44c.04-.08.17-.36.19-.42l.99-3.05,1.11-1.94,1.07-3.58c.02-.07.24-.43.27-.48l.35-.5.23-.79c.05-.19.15-.52.26-.74l1.28-2.61.23-.46.21-.43,1.77-3.57,1.19-2.43c.03-.06.4-.42.42-.47l.65-1.62c.08-.19.15-.37.2-.48l.76-1.64c.59-1.29.89-.72.97-1.74l.05-.63c0-.06.12-.3.17-.4l1.19-2.47,1.65-3.43c.03-.07.22-.4.27-.46l1.19-1.51.44-1.23,1.16-2.83c.03-.09.18-.35.25-.48l.56-.98,1.62-2.87c.55-.97,1.07-1.86,1.59-2.81l2-3.71c.23-.42.48-1.17.71-1.67l3.2-6.77c.6-1.27.94-2.64,1.53-3.88l.88-1.85.43-.91,1.91-3.84c.33-.66.77-1.35,1.03-2.02l1.52-3.84.63-1.7.82-2.23c.11-.31.52-.98.65-1.25l.8-1.7.94-2.02,1.28-2.8c1.37-2.99.58-2.03,2.21-5.17l1.17-2.25c.66-1.26,1.26-2.51,1.85-3.83,1.14-2.55.75-1.06,2.03-4.09l1.4-3.31c.1-.25.3-.73.4-.9l.85-1.44c.11-.19.52-.5.61-.79l.15-.54c.6-2.12.33-.3.72-1.34l.45-1.19c.06-.17.15-.44.19-.49l.53-.54c.92-.94.31-1.7,1.16-2.47l.37-.33c.41-.37.3-.1.43-.59l.09-.35s.12-.21.19-.34l.24-.43.24-.43.26-.43.25-.42.27-.44c.05-.09.16-.28.22-.39l.24-.46.23-.45c.07-.13.19-.36.24-.44l2-3.06c.63-.97.7-.56.88-1.08l.17-.5c.57-1.66,1.43-3.69,2.31-5.1l1.08-1.73c1.33-2.14.33-1.57.92-2.4l.27-.38.68-.97,1.02-1.45c.93-1.33.47-1.53.83-2.2l1.14-2.12,1.29-2.46,1.59-3.1.26-.5.78-1.44,1.85-3.56,1.17-2.2,1.54-2.84.8-1.53,1.12-2.24,2.01-3.71,2.69-5.11.56-1.05.99-1.87.49-.92.36-.69.88-1.69,1.67-2.5,1.96-3.54c.07-.13.31-.46.4-.61l1.06-1.66.39-.6.26-.41.27-.41.67-1,3.03-5.09,2.96-4.96c.05-.08.38-.46.41-.53l1.31-3.01c.17-.39.77-1.04,1.18-1.52,1.2-1.4.26-1.06,1-2.27l.64-1.05c.48-.79.98-1.54,1.37-2.35l1.54-3.15,2.69-5.73,1.03-2.03.57-1.12c.88-1.73.15-.51,1.39-1.96l1.51-3.2c.48-1.01,1.16-1.94,1.85-2.87s1.19-1.95,1.77-2.97c1.99-3.48,2.94-4.47,4.76-7.72l.81-1.44c1.35-2.42,1.65-2.37,3.01-5.05.58-1.15,1.11-2.25,1.77-3.33l1.28-2.11,1.82-3.25,2.67-4.69,1.32-2.38,1.81-3.29c.55-.99.14.1,1.18-1.86l.25-.48.47-.91.05-.52.22-.43.22-.44.22-.45.21-.45.23-.46.95-1.97c-.53,1.09.85-1.3.6-.85l1.57-2.8,2.9-4.83,1.99-3.4,2.57-4.53.25-.41c2.6-4.24,1.98-3.98,4.13-7.96l.96-1.77,2.75-5.29,1.43-2.99c.4-.83,1.04-1.55,1.68-2.37.4-.51.79-1.48,1.15-2.16l1.64-3.03,1.92-3.8.88-1.89c.9-1.93.21-.72,1.1-3.28l1.55-4.51.51-.79.8-1.29c.41-.67,1.16-1.72,1.62-2.29,3.12-1.36,1.76-3.27,4.93-4.48l.54-.21c.06-.02.34-.22.44-.29l1.07-.77c.05-.04.54.16.63.19l.54.14,1.28.34.27.07c1.35-.69,1.23.24,1.87.25h.59s.67.03.67.03l.66.03c.07,0,.41.1.54.13l.57.15c.82.21,1.11.6,2.47.24l.57-.15c.08-.02.48-.07.56-.07h.7s.73,0,.73,0l.59.03c.1,0,.38.09.55.13,1.4.3,5.32.31,6.68-.03,4.6-1.17,4.01.27,6.23-.13.08-.01.56-.15.67-.15l4.04-.26c3.39-.22,2.7-.41,6.69-.14.61.04,1.39.14,1.81.08l.66-.09,3.35-.41.65-.08.62-.08c3.63-.46.92.12,4.42-.16l3.42-.27,2.97-.23,1.74-.16c1.08-.1,2.29-.32,3.4-.33l12.03-.1,1.47-.29,3.11.06,2.52-.05,4.04-.08c.47,0,1.41-.26,1.99-.37,3.95-.73,3.68.16,5.6-.08.71-.09,1.48-.18,2.14-.18h4.1c2.05,0,5.26.63,7.97.34l3.48-.38,1.99-.22c1.1-.12,1.97.73,2.46-.13l.31-.54.86-1.48c.05-.08.19-.3.27-.4l2.84-3.86c.18-.25.52-.85.57-1.13,1-5.34,2.34-4.53,4.58-8.22l.62-1.02c.03-.05.45-.32.48-.37l2.26-3.24c.08-.12.63-.44.75-.53l.29-.22-.08-.76c0-.06.22-.34.27-.38l.38-.3c.12-.09.34-.23.37-.29l.26-.42c.04-.07.13-.31.2-.47l.21-.52c.03-.07.16-.34.21-.41l.29-.39.29-.38.31-.38c.06-.08.18-.3.25-.41l.25-.43.24-.43.25-.43.3-.38.29-.38.3-.39.28-.36.31-.38.3-.37.29-.37.3-.39.29-.37c.52-.67.43-.52.7-1.33l.17-.53c.02-.07.18-.39.23-.43l.35-.31c1.65-1.46,1.35-2.08,3.91-3.77l2.68-1.77,3.63-2.42,3.83-2.61c.93-.64,2.01-.92,3.11-1.33l3.17-1.18c.72-.27,1.57-.54,2.29-.66l1.78-.3c3.38-.56,2.36-.17,4.62-.23l3.46-.1c3.09-.08,2.16-.58,4.59-.25l2.44.33c1.11.15,2.21.2,3.39.29l2.45.19,4.9.21c1.48.06,2.91.33,4.36.68l1.77.43,2.73.43c2.52.4,1.22.43,3.29.68l1.56.19,1.56.19c.47.06,1.43.47,1.96.57l4.56.92,4.61,1.06c.62.14,1.35.28,2.05.38l.71.1.73.09.58.07,1.83.17,2.49.24c1.78.17,5.92,1.63,6.58,2.51,1.64,2.2,1.45,3.15,1.47,5.68.02,3.02-.65,1.82-.75,4.67s.43,5.18.9,7.88-.11,7.01-.08,7.24c.08.66.2,1.96.32,2.65l.73,4.34c.41,2.45-.18,3.6.92,3.6.07,0,.27-.02.41-.03l2.91-.23.38-.03.4-.05c3.12-.41.67.54,4.58.31,1.6-.1,3.15-.19,4.7-.42l6.15-.92c4-.6,10.15-.52,14.31-.31,4.48.23,5.59-.58,10.56.14l2.09.3,2.93.38,3.38.36,1.83.21c5.7.66,3.72,1.45,8.93,1.5,4.73.05,7.87.29,12.52.9l2.4.32c1.11.15.94-.41,2.28-.81l.6-.17.46-.13c.06-.02.3-.39.36-.41l1.07-.4c.24-.09.71.45.81.69l.22.56c.28.72-.07.09.45.89l.27.41c.08.12.18.29.24.4l.25.46.24.45.79,1.52s-.1.78.13,1.23l.22.46.22.44.24.46.28.38c.49.68.18.11.49.8l.23.52.21.48.2.48c.23.55.38.79.81,1.17l.36.32.18.33s-.02.5,0,.54l2.73,3.85.35.51c.38.55.74,1.54.77,2.12l.04.73c0,.06.22.33.26.37l.38.31s.14.32.17.41l.16.6.42,1.54c.22.8.49,1.76.88,2.49l1.54,2.87c.22.41.52.87.77,1.25l.96,1.43c.98,1.46,1.69,3.08,2.35,4.71l.85,2.1.32.79c1.13,2.77,1.61,2.75,1.98,3.7l.46,1.18c.13.32,1.08,1.36,1.56,1.76l1.14.92s-.02.48-.01.55l.08,1.35c0,.06.33.32.39.36,1.17.83.41.95.91,2.17l.98,2.39,1.36,3.42c.39.98,1.02,2.06,1.53,3.04l.94,1.82,1.24,2.41c.19.37.4,1.12.58,1.41.21.33.54.79.64,1.01l1.51,3.28,2.03,4.42,1.6,3.47.87,1.71,2.53,4.94.79,1.53c.04.07.14.32.2.47l.2.48.91,2.09.22.52,1.28,2.69,1.12,2.57,1.77,4.01,1.1,2.27,1.31,2.69,1.13,2.21,1.14,2.17c.05.1.17.47.23.61l.22.56.21.55.21.57c.04.12.16.38.21.47l.84,1.5c.05.08.15.31.21.45l3.37,7.73c.03.06.12.44.15.53l.18.48c.03.09.16.3.23.43l.24.43,1.61,3.17c.03.07.11.3.18.45l.19.45c1.06,2.58,2.57,4.78,3.72,7.33l1.48,3.27,1.84,3.93,1.69,3.7,1.11,2.62,1.41,3.31,1.05,2.33,1.01,2.25c.63,1.39,1.31,2.69,2.01,4.04l1.04,2.01,1.54,3.2,1.11,2.26,1.38,3.01.55,1.65.72,1.76.19.5.18.47.29.47,1.69,3.9,1.97,4.43.23.5.07.35.39-.61.26.55.33.5-.2.72c-.11.4-.25.23.08.87l.24.45.22.44.23.44c.04.08.11.35.15.47l.17.56.18.57c.03.1.13.39.16.46l.22.44.22.44.23.45.22.44.2.45.21.49c.07.17.15.39.21.5l.25.42.24.41c.08.14.21.33.25.42l.18.45.2.5.21.51.18.46.18.47.19.5c.06.17.14.43.19.51l.26.4.25.4c.09.14.22.32.26.4l.23.46.16.51.17.52.17.52c.02.07.18.4.22.44l.36.31.37.31.37.31s.19.38.19.43v.44s.03.4.03.4c.01.32.08.64.26.94l.26.43.26.42c.04.06.2.34.22.41l.17.52.17.51.17.51.17.5.17.51.18.53c.04.12.14.38.17.45l.23.47.21.44.22.48.22.49.2.45.21.45c.05.12.13.3.18.44l.2.53c.15.4.13.58.47.88l.36.31.36.32c.67.59-.01,1.09.45,2.23l.19.46.2.51.2.48.18.45.19.49.2.51.18.47.19.46.2.5.2.49.19.46c.06.15.13.31.2.46l.22.48.2.45.21.46.23.49.22.47.21.44.21.44.22.46c.06.12.14.3.19.44l.21.52.19.49.19.46c.06.15.12.31.18.46l.18.52.17.51.17.51.17.5c.02.07.17.3.25.43l.23.41.24.45c.6,1.09.84,1.11.87,1.54l.03.41c.04.47.02.39.21.97l.18.53c.05.14.13.36.17.46l.2.48c.06.15.15.39.19.45l.3.41c.04.06.23.23.34.33l.33.32s.06.26.06.31l-.05.51c-.04.42.1.62.26.96l.21.46.21.45.23.48c.06.13.14.31.19.45l.18.47.19.49.2.51c.29.73.02.26.48.88l.28.37.21.29s0,.26,0,.39v.48c-.01.32.33,1.27.46,1.52l.23.45.22.44.21.44c.07.14.2.38.22.45l.15.52.16.55.15.54.15.49.17.53c.04.14.12.35.17.48l.21.53c.04.1.13.29.19.41l.22.44.23.47.22.45.22.43c.68,1.3.08.46.54,1.51l.2.46c.06.14.19.39.2.47l.11.58c.12.62.05.51.31,1.03l.23.46.22.45.2.42.22.48.23.5c.05.12.15.38.2.44l.3.37c.44.54.23.19.43.9l.15.54c.05.18.1.44.15.54l.2.48.18.45c.06.15.16.37.18.47l.12.57.12.59c.02.08.13.43.17.48l.28.4.27.39c.2.29.39.51.48.88l.13.54.13.54.13.55.14.55c.02.08.17.37.2.42l.26.41.27.42.17.48.18.52.18.51.17.5c.03.08.19.29.27.41l.25.39.26.4.21.48.14.54.15.56c.04.16.11.41.14.49l.2.53.18.46c.06.15.13.35.16.43l.18.58.18.55.16.48c.02.07.15.29.23.44l.23.43c.07.14.17.32.22.41l.27.44.25.42.25.41c.42.69.05.18.57.78l.32.36s.2.36.21.43l.14.55.14.55.13.54.13.54.14.57c.02.07.12.33.17.47l.2.48.2.49c.02.06.1.31.14.45l.16.56.16.57c.04.12.11.37.15.46l.2.51.2.49c.03.06.1.31.14.44l.16.57.16.55.15.5.2.48.19.45.2.49.2.51.19.47.19.47c.05.13.12.32.18.47l.18.53.17.51.17.51.18.56c.02.07.14.33.18.42l.22.47.21.45c.04.08.14.34.16.42l.17.57c.4,1.33.52.85.69,1.31l.11.31c.1.26.1.44.3.65l.32.33c.11.11.32.33.36.38.27,1.31.55,2.74,1,3.97l.92,2.5c.03.09.16.34.22.48l1.79,3.9.21.48c.06.14.14.33.19.47l.59,1.64c-1.74-4.83,3.2,7.62.8,2.05l.58,1.35.73,1.7.67,1.55.38.53,1.71,3.8.17.62c.02.07.19.36.25.45l.88,1.47c1.35,2.25,1.03,3.33,1.93,3.69l.52.21c.82.33.27,1,.3,1.3l.14,1.22c.02.18.28.84.39,1.02l.26.41.26.41.28.43.21.42.22.46.18.52c1.43,4.09,1.97,3.68,2.57,6.42l.21.95c-.08.24.39-.7.43-.54.09.31.19.56.18.74l-.04.76c0,.07.1.53.13.61l.18.5.18.51c.06.16.13.35.17.46l.21.49.21.47c.45,1,1.07,1.86,1.7,2.72-.22.97.43,1.85.92,2.41l.32.36.33.37c.39.44.24.38.16.87l-.09.54c-.08.47.1.56.31.89l.27.43c.05.09.16.28.22.39l.23.47.23.45.23.45.22.45.23.46c.05.1.16.34.18.42l.18.53.18.51c.23.66-.02.37.54.82l.38.3s.11.23.12.28l.08.37.07.26.08.28c.03.12.07.3.1.39l.18.45c.04.11.15.3.23.44l.23.44.24.47c.35.68-.06.09.54.8l.3.36c.05.06.24.35.26.44l.13.52.13.54.14.55.15.56.13.49.21.46c.06.12.16.37.19.42l.27.45c.53.89.17.15.39.92l.17.56.15.5c.02.08.17.3.25.43l.25.42.24.41c.39.66.16.02.37.98l.12.58.12.56c.11.5.09.6.41.91l.35.33.34.33s.21.41.21.48v.5s0,.45,0,.45c0,.38-.08.38.16.9l.21.46.21.44.22.47.22.48c.33.72-.01.16.52.81l.3.36s.15.35.15.4l.02.41c0,.12,0,.34.02.4l.19.41.21.46c.37.82.52.37.52.68v.42s-.02.47-.02.47c0,.06.15.4.19.44l.29.39.29.38.31.4c.07.09.18.24.27.37l.27.4c.09.14.23.33.27.4l.23.46.14.5.15.54.15.54.15.52c.02.06.26.31.31.34l.42.27c.05.03.3.29.32.34l.2.49.19.5c.03.08.18.3.24.4l.25.43.26.42.26.41c.05.08.13.31.2.46l.2.48.2.48.25.44.23.41c.07.12.21.36.23.43l.18.52.18.52.17.49c.04.12.15.31.22.46l.22.43c.08.15.21.34.24.46l.15.5.17.52.15.49c.2.68-.39.97.54,1.49l.47.26c.06.03.35.23.37.28l.23.44c.38.73.37.66.52,1.48l.11.58.11.56.11.56.12.58.12.53.13.55.13.54.13.54.13.55.12.53.12.57.12.57.12.57.12.52c.04.2.09.46.14.53l.25.44c.04.07.21.24.31.35l.32.36.31.36s.13.32.13.37l.02.4.02.45.09.51.12.58.12.57.12.58c.05.25.14,1.1-.05,1.13.01,0-.39.04-.58.06l-.67.07c-.08,0-.44.1-.51.13l-.44.23c-.2.1-.42.36-.94.18l-.51-.18-.5-.17-.51-.17-.5-.17c-.05-.02-.32-.28-.34-.33l-.18-.51c-.15-.43-.21-.61-.24-1.03l-.04-.68-.05-.65c0-.07-.12-.46-.17-.51l-.29-.36-.29-.36c-.38-.48-.42-.92-.51-1.54l-.09-.61-.08-.56c-.12-.87-.12-.13.02-.95l.09-.54c.01-.07-.07-.47-.11-.53l-.26-.43-.25-.41c-.2-.32-.28-.5-.4-.94l-.15-.52-.14-.53-.13-.55-.13-.55-.13-.55c-.18-.74-.79-.58-1.18-1.48l-.2-.47-.21-.5c-.07-.16-.15-.33-.21-.45l-.22-.45c-.07-.14-.2-.37-.22-.45l-.16-.51-.17-.54c-.27-.85.1-.03-.4-.94l-.23-.43-.23-.44-.23-.47-.22-.46c-.03-.06-.15-.32-.17-.39l-.15-.54-.17-.56c-.02-.06-.19-.38-.23-.42l-.33-.33c-.41-.41-.22-.29-.48-.91l-.19-.46-.22-.44-.21-.42-.23-.48-.25-.51c-.03-.06-.14-.26-.21-.39l-.24-.42-.2-.45c-.04-.1-.1-.36-.16-.55l-.16-.56c-.03-.12-.11-.36-.14-.41l-.21-.5-.21-.5c-.05-.13-.15-.42-.2-.46l-.37-.3c-.11-.09-.31-.24-.36-.3l-.31-.39-.23-.49-.2-.43s-.1-.23-.11-.28l-.06-.35-.08-.46c-.1-.61-.16-.95-.59-1.43l-.32-.36-.31-.36c-.23-.26-.4-.3-.37-.79l.03-.52c0-.07,0-.33-.02-.37l-.19-.43c-.31-.71-.07.17-.33-1.04l-.12-.55c-.02-.07-.2-.36-.24-.42l-.28-.4-.27-.39-.28-.41c-.04-.06-.11-.47-.09-.54l.1-.54.09-.48c-.04.19-1.64-3.09-1.05-2.19l-.27-.41c-.04-.06-.22-.22-.32-.34l-.33-.34c-.19-.2-.36-.59-.5-.86l-.22-.44-.23-.46c-.07-.13-.16-.3-.22-.41l-.25-.44-.24-.42c-.07-.13-.22-.36-.25-.44l-.17-.51-.17-.5-.17-.51-.18-.52-.18-.53c-.03-.1-.12-.3-.17-.42l-.21-.48-.22-.48-.21-.46-.2-.44-.22-.48-.22-.49-.2-.45-.2-.44-.16-.48-.78-2.27-.17-.48-.19-.53c-.03-.08,0-.66-.04-.72l-1.17-1.72c-.26-.38.05-1.27-.55-1.87l-.5-.51c-.05-.05-.11-.37-.14-.53l-.11-.6c-.09-.49-.28-.55-.64-1.28l-.25-.5-.24-.48-.21-.43-.21-.42-.22-.44-.24-.49c-.07-.14-.16-.36-.22-.46l-.26-.39c-.49-.75-.03-.76-.32-1.04l-.33-.32-.34-.33c-.05-.05-.22-.36-.24-.41l-.2-.51-.19-.51-.18-.46-.19-.49c-.05-.12-.14-.34-.19-.43l-.24-.47c-.22-.42-.32-.43-.35-.98l-.05-.65-.04-.6c0-.09-.09-.49-.13-.57l-.2-.5-.19-.47-.18-.45-.19-.49-.2-.51-.19-.47-.19-.47c-.05-.13-.12-.31-.17-.47l-.18-.53-.17-.51c-.02-.06-.22-.37-.26-.42l-.35-.32c-.11-.1-.31-.26-.35-.32l-.28-.42c-.04-.06-.11-.3-.17-.46l-.18-.5-.18-.5-.18-.51-.18-.53c-.03-.08-.08-.34-.11-.51l-.12-.59-.11-.59c-.01-.06-.13-.39-.16-.45l-.23-.45c-.03-.06-.24-.33-.3-.38l-.38-.3-.37-.3c-.05-.04-.22-.31-.25-.37l-.25-.49-.24-.45-.22-.42-.23-.42-.21-.48c-.05-.12-.11-.33-.17-.52l-.17-.52-.15-.49-.15-.54-.15-.55-.14-.52c-.02-.08-.16-.31-.23-.45l-.22-.43-.23-.45-.23-.45-.23-.45c-.07-.15-.15-.29-.23-.43l-.25-.43-.24-.42-.25-.44c-.08-.14-.19-.38-.25-.44l-.34-.34c-.1-.1-.32-.28-.32-.31v-.45c.02-.84.17-.16-.14-.76l-.22-.43c-.04-.08-.08-.38-.11-.58l-.11-.65-.11-.51c-.02-.07-.18-.29-.26-.42l-.25-.41c-.06-.1-.23-.35-.25-.42l-.17-.52-.17-.51-.17-.52c-.02-.07-.17-.32-.24-.42l-.24-.41c-.08-.13-.23-.36-.24-.44l-.12-.55c-.23-1.03.01-.31-.32-1.03l-.21-.46-.21-.45-.18-.53-.18-.52c-.02-.07-.22-.34-.27-.4l-.33-.34c-.46-.49-.48-.48-.47-1.26v-.44c0-.46.04-.45-.18-.98l-.22-.52-.18-.42-.14-.31-.12-.29-.16-.39c-.03-.06-.12-.35-.14-.43l-.14-.62c-.12-.54-.03-.5-.35-.96l-.29-.42-.29-.41-.22-.42-.16-.53-.18-.55c-.04-.14-.11-.32-.15-.44l-.18-.47-.19-.5-.29-.4-.31-.35c-.47-.53-.12.1-.54-.86l-.21-.46-.19-.43-.2-.45-.21-.49-.21-.51-.19-.46-.18-.46c-.06-.16-.12-.32-.18-.49l-.18-.52-.17-.5c-.32-.91-.24-.68-.09-1.53l.09-.5c.01-.06-.14-.41-.19-.47l-.29-.38-.29-.38-.29-.38-.29-.39c-.05-.06-.19-.35-.22-.42l-.22-.51-.19-.45c-.06-.14-.19-.4-.2-.47l-.08-.58-.08-.62c-.11-.81,0-.34-.26-1.09l-.17-.5-.17-.51-.18-.54c-.02-.07-.13-.3-.19-.42l-.22-.45-.22-.44-.24-.46-.17-.44-.2-.52c-.28-.75-.07-.34-.44-.91l-.26-.4c-.09-.13-.21-.3-.26-.42l-.21-.46-.13-.54-.14-.54-.13-.53c-.02-.09-.16-.42-.22-.49l-.29-.37c-.04-.06-.26-.41-.29-.51-.52-1.77-1.58-4.27-2.5-6.1l-.65-1.31c-.21-.42-.39-.04-.46-.9l-.06-.72c-.08-1.03.12-.27-.3-1.01l-.24-.42c-.14-.24-.19-1.14-.23-1.22l-1.49-3.36-.23-.51-.22-.5-.2-.48-.19-.45-.2-.48c-.56-1.36-.61-.48-1.09-1.6l-.21-.5-.19-.45-.21-.48-.25-.56c-2.22-4.89-.84-4.39-2.11-6.4l-.32-.51c-.04-.06-.18-.32-.18-.39l-.04-1.17c-.07-1.98-2.06-3.3-2.25-4.16l-.52-2.34c-.09-.42-1.08-1.17-1.04-1.66.13-1.7-.52-3.14-1.54-4.53-.45-.61-.67-1.93-.95-2.8-.79-2.46-.52-.21-1.36-2.96l-.39-1.27c-.02-.06-.38-.28-.41-.33l-.24-.36c-.11-.46-.31-1.12-.58-1.36l-.38-.33s-.15-.22-.17-.27l-1.37-3.94-.19-.54-.18-.52c-.57-1.62-.66-.23-1.09-2.28l-.11-.54c-.07-.32-.27-.27-.55-.82l-1.79-3.51c-.86-1.68-.55-1.79-1.8-4.25l-1.5-2.95c-1.1-2.16.03-1.49-1.32-3.7-.56-.91-.98-1.77-1.1-2.83-.25-2.15-.32.12-.93-2.2l-.15-.56-.15-.52-.27-.43-.29-.36c-.08-.1-.27-.32-.29-.39l-.11-.55-.13-.59c-.17-.77.03-.22-.35-.98l-.22-.43-.23-.45-.25-.48c-.03-.06-.11-.27-.16-.4l-.19-.48-1.48-3.58-.2-.47-.21-.5-.21-.48-.2-.45-.21-.47-.21-.47-.2-.45-.21-.46-.22-.48-.2-.45-.37-.45c-.78-.95-1.63-2.92-1.96-4.15-.44-1.63-.75-2.36-1.55-3.56-.24-.35-1.98-3.67-2.01-3.74l-.65-1.67c-.02-.05-.37-.36-.38-.42-.09-.44-.22-1.48-.44-1.92l-2.24-4.4c-1.22-2.41-.94-2.58-1.76-4.25l-.23-.46-.94-1.87c-.33-.66-.67-1.37-.86-2.13l-.4-1.53-.45-.41-.51-1.77c-.03-.09-.11-.3-.17-.47l-.2-.55c-.15-.42-.41-.93-.62-1.38l-1.58-3.48-.92-2.12-.87-2.03c-.02-.05-.39-.31-.41-.36l-.47-.96c-.24-.49-1.01-1.42-1.32-1.86-.58-.8.42-1.34-1.21-2.49-.99-.69-.86-1.7-1.77-3.36-.67-1.22-1.41-2.25-1.93-3.44-1.46-3.31-.74-2.63-1.64-4.79l-.89-2.14-.86-2.06c-.74-1.78-1.42-3.39-2.54-5-1.93-2.78-1.02-3.2-1.5-3.9l-1.62-2.33c-1.09-1.57-1.7-3.26-2.52-4.94-1.67-3.47-.96-1.7-2.23-5.53-.14-.42-.27-1.16-.52-1.37l-.48-.41-.87-2.05-.2-.47-.19-.43-.96-2.16c-.09-.2-.12-.58-.36-.97l-.25-.41c-1.39-2.31.37-.02-1.33-2.97l-1.64-2.85c-.65-1.13-1.38-2.29-1.78-3.52-1.95-6.02-1.18-1.57-2.33-5.11-.26-.79-.55-1.36-.95-2.11-1.19-2.23.07-.69-1.34-3.02-.38-.62-.77-1.3-1.07-1.95l-.92-2.04c-1.45-3.2.47.17-1.34-2.44-.73-1.05-1.29-2.35-1.82-3.55l-1.37-3.1-1.98-4.73c-1.57-3.74-2.99-4.04-4.27-7.06l-.6-1.42-.44-1.05c-.95-2.24-1.35-1.98-1.17-2.97l.09-.48-.3-.45-.27-.41-.27-.41-.24-.43c-.04-.08-.11-.35-.16-.52l-.16-.51c-.16-.5-.51-.83-.88-1.15l-.36-.3-.36-.31-.24-.4-.24-.47c-.08-.15-.17-.36-.23-.45l-.27-.4-.26-.4-.27-.41-.26-.42-.25-.43-.25-.43c-.03-.06-.18-.34-.2-.42l-.17-.52-.17-.52c-.24-.74-.1-.39-.43-.95l-.24-.4c-.35-.59-.2-.27-.42-.91l-.18-.52-.18-.51c-.13-.36-.25-.69-.29-1.01l-.08-.65-.07-.61c0-.06-.22-.35-.27-.39l-.38-.29c-.12-.09-.29-.21-.37-.29l-.33-.33c-.13-.12-.29-.26-.35-.34l-.3-.38-.27-.4-.27-.41-.26-.4-.27-.41c-.08-.12-.18-.28-.25-.4l-.26-.45-.25-.42c-.06-.1-.21-.35-.23-.4l-.19-.51-.19-.53c-.21-.58-.17-.4-.54-.76l-.36-.35c-.4-1.81-1.03-.89-1.46-1.82l-2.73-5.91-.18-.39-.19-.41-.29-.5c-4.52.93-5.65-.45-9.14-.62l-2.82-.13c-.31-.01-.97-.3-1.2-.42-.82-.47-3.53,2.15-8.05-.04-.58-.28-6.09-.88-7.21-.97l-3.11-.27c-.45-.04-1.09-.2-1.62-.34-2.52-.66-2.1-.06-4.33-.37l-2.46-.34c-2.29-.32-.82.22-4.08.16l-3.29-.05h-1.43s-4.51.02-4.51.02c-.75,0-1.59-.06-2.42-.13l-1.52-.13c.37.03-1.34.42-1.68.46l-2.28.27c-.06,0-.44.44-.49.43l-1.02-.16c-.36-.06-1.24-.04-1.57.08l-1.32.44c-.08.03-.47,0-.63,0l-2.02.05-2.03.08-1.68.07-.97-.02-1.66.14c-.24.02-.6.03-.86.03l-3.26.05c-.53,0-1.34.11-1.33.46l.02.87v.7c.02.18.01.56,0,.69l-.39,2.62-.09.58-.09.56-.1.59-.1.59-.09.56-.1.57-.1.6-.1.57-.1.6c-.02.11-.04.35-.07.56l-.07.65-.06.6c-.02.17-.06.47-.07.6-.13,3.01-.42,6.15-.81,9.22-.09.71,0,3.08-.19,5.26-.08.99-.07,1.87.05,2.86l.08.65c.02.17.06.61.08.7,1.86,6.01.73,8.08,2.21,12.54l.95,2.85c1.35,4.05-.51,1.14,1.31,6.29.3.84.42,2.76.02,3.59-.12.25-1.22,1.82-1.89,1.88l-3.09.27c1.73-.15-5.67,2.15-9.59,2.45-1.93.15-3.47.28-5.27.53l-2.78.39c-.37.05-1.16.25-1.59.34-.14.03-.6-.28-.74-.26l-1.96.28c-2.34.33-1.36-.47-2.5-.24-4.57.92-3.47-.25-6.93.9-1.53.51-3.02.5-4.56.4l-2.84-.18c-.84-.05-1.74-.31-2.51-.08-1.24.37-2.23.31-3.47.07l-2.3.27c-1.56.18-3.45,6.04-3.76,7.33l-1.19,4.92c-.3,1.24-.63,2.56-1,3.75l-1.44,4.65c-.8,2.58-1.75,4.43-.29,6.23l.3.37,1.65,2.03c.14.17.45.66.54.84l.48,1.02c.22.47-1.46.85-.86,1.46l1.69.56c.09.13.31.48.42.65l.73,1.19.76,1.32,1.47,2.54.79,1.37c.14.25.57.75.8.93l.57.45c.3,2.29.33.66,1.08,3.04.23.71.46,1.34.84,1.91l.85,1.28c.12.18.56.46.81.61l.14.4c1.2,3.44.97.89,1.91,4.8l.68.67c.09.54.25,1.22.44,1.5l1.92,2.73c.33-.04.55-.07.55-.07l.31,1.05c.07.24.44.86.59,1.09l1.35,2.06c.52.8,1.84,2.71,1.58,3.47l1.08,1.18c.06.06.2.35.23.42l.15.31.57,1.07s.23.25.27.27l.24.14s.15.17.16.2l.18.52c.25.71.05.4.54.81l.37.31.37.3s.18.39.19.46l.11.58.12.6.1.52c.01.07.21.37.26.42l.31.36.32.36c.09.11.24.27.28.33l.31.41.29.39c.09.11.22.31.29.37l.35.34.34.33.34.34.33.34.33.34.34.34.34.33.34.33c.11.11.29.27.34.34l.28.38c.25.34.34.49.51.81l.24.46.22.47c.04.08.22.36.26.4l.33.35c.51.54.2.09.58.77l.24.43.24.42.3.39.29.38.29.39.29.39c.34.46.17.27.63.71l.34.33.34.34.34.34.28.39.28.39.29.39.29.38.29.38c.85,1.12.99.49,1.27,1.39l.17.56c.11.36.02.49.48.79l.43.28c.59.39.33.15.62.73l.23.47.22.43c.03.06.26.21.38.31l.36.3c.12.1.31.24.37.31l.32.36.31.35.32.36.32.35c.51.57.12-.08.54.81l.23.48.23.4.35.33.34.33.34.34.34.34.34.34.34.34.34.33.35.34c.07.06.2.27.28.37l.3.39.3.39c.12.16.47.61.61.72l.38.3.45.21c.79.37.28.07.85.49l.39.29.39.28.39.28.38.29c.06.05.3.32.32.37l.17.5.18.52c.02.06.22.37.26.4l.37.29.38.29.3.34.33.37.31.36.31.37.31.37.31.37c.09.11.19.24.28.36l.3.39.29.39.28.37c.05.06.26.22.39.33,1.33,1.13.63,1.5,2.96,3.31l.42.33c.13.1.33.26.38.29l.43.27c.05.03.51.24.54.29l2.21,2.99,1.1,1.24c.61.69,1.11,1.41,1.76,1.93l1.76,1.39c1.77,1.39,2.45.8,2.63,1.78l.17.99s.29.24.33.27l.24-.16c.97-.64,2.73,0,3.07.44,1.76,2.21,4.29,3.79,7.1,4.21.4.5,1.04,1.32,1.44,1.6l2.64,1.82c.49.34,1.35.88,1.82,1.08l3.16,1.32,1.67.69,1.11.53c2.85,1.35,2.01,1.28,4.16,1.97l2.77.89c1.82.59,3.98.73,5.58,1.87l4.13,2.93c1.47,1.04,6.09,1.28,10.62,3.53l4.44,2.21c.24.12,4.74,1.11,3.53-.04l-.38-.68c-.14-.26-.36-.63-.42-.92l-.12-.57-.12-.63c-.01-.06-.11-.38-.14-.45l-.2-.47-.2-.5c-.15-.37.02-.85.1-1.17l.15-.55c.13-.5-.02-.69-.22-.97l-.3-.41c-.08-.11-.18-.25-.26-.38l-.27-.42-.26-.41c-.2-.32-.34-.44-.33-.98v-.72s0-.68,0-.68v-.67c0-.66.06-.66-.16-1.17l-.2-.47-.2-.48-.22-.52c-.03-.07-.18-.36-.23-.4l-.33-.29-.18-.14.43-.3c.27-.19.57-.34.59-.54l.04-.32c.17-1.43-.79.09-.88-2.46l-.14-.42c-.02-.06-.04-.38-.03-.43l.14-.61-1.25-2.5c-.47-.93.27-1.01-.63-2.06l-.46-.53c-.26-.31.02-1.17.2-1.65.22.52-.49-1.88-.21-1.21l-1.03-2.5c-.04-.09-.82-.37-1.18-1l-.24-.42c-.17-.29-.29-.56-.55-.79l-.41-.37c-.68-.6-.98-1.47-1.12-2.48l-.08-.61c-.02-.17-.05-.48-.08-.58l-.18-.5-.4-.36-.37-1.17c-.08-.24.71-.11.94-.16l.21-.59c.11-.31-.03-.65-.14-.97l-.18-.51c-.02-.06-.28-.33-.33-.35l-.44-.18-.3-.08c-.03.1-.25.9-.31.77l-.33-.65-.26-.49c-.03-.07-.15-.41-.18-.52l-.17-.58c-.23-.8.05-.11-.36-.98l-.2-.42c-.06-.13-.2-.37-.22-.46l-.15-.54-.14-.54-.15-.57c-.2-.75.68-1.11.56-1.35l-.91-1.85-.16-.34-.11-.34-.12-.38-.16-.5c-.03-.08-.12-.46-.11-.54l.05-.53.47-.02h.34s-.07-.32-.07-.32c-.02-.09-.1-.4-.13-.49-.1-.39-.66-.3-.93-.17l-.38.18-.17.21-.28-.4c-.31-.44-.23-.67-.24-1.18l-.02-.73.37.39.21.42.2.15.31-.41c.48-.64,0-.95-.17-1.76l-.48-2.31c-.02-.09-.09-.31-.13-.41l-.17-.47-.19-.53-.18-.51s-.28-.27-.36-.32c-2.27-1.42.05-.92-.97-3.66l-1.85-4.98c-.49-1.33-.74-2.83-1.11-4.28l-.76-2.96-.77-2.88c-.25-.95-.35-2.18-.65-2.99l-.64-1.76c-2.56-1.77-.68-1.11-1.82-3.24l-.22-.41c-.18-.44-.19-.58-.29-.49l-.59.48-.21-.59-.18-.51-.17-.5-.17-.5-.17-.51-.17-.51-.17-.5-.17-.5-.17-.5-.17-.51c-.03-.09-.01-.37-.01-.52v-.46s-.07-.25-.09-.3l-.2-.42c-.03-.06-.11-.43-.1-.49l.13-.55c.09-.35.24-.59.56-.77l.44-.25c.5-.28-.26-.95-.18-.86l-.3-.34c-.1-.12-.27-.28-.33-.37l-.25-.4-.27-.43c-.04-.06-.1-.35-.14-.52l-.17-.66-.26.38-.44.31-.13-.32-.22-.55-.52-1.3c-.11-.28.62-.56.95-.75-.28-.81-.79.41-1.24-.79l-.17-.45-.2-.56c-.02-.06-.02-.51.02-.57l.25-.44.24-.42c.18-.32.11-.7-.09-.96l-.3-.39c-.81-1.04-.74.26-1.12-.86l-.19-.55-.17-.49-.23-.44-.23-.43-.23-.45c-.21-.41-.21-.48-.34-1l-.13-.55-.13-.54-.13-.53-.14-.54-.15-.59c-.02-.09-.1-.35-.14-.46l-.18-.5-.18-.49c-.05-.12-.11-.33-.16-.48l-.17-.57-.09-.51-.06-.65-.07-.65-.07-.58c0-.06-.18-.39-.22-.44l-.27-.4c-.27-.4-.33-.35-.38-.95l-.05-.66c-.08-.95.11-.15-.2-1.15l-.15-.51-.16-.53-.14-.51-.14-.55-.14-.54-.14-.54-.14-.54-.13-.54-.13-.54-.13-.54c-.23-.93-.15-.7-.61-1.41l-.26-.4c-.04-.07-.13-.44-.14-.5l-.08-.64-.09-.64c-.01-.09-.07-.36-.1-.48l-.14-.56-.14-.53-.14-.56c-.02-.08-.07-.49-.07-.57v-.7s0-.66,0-.66c0-.23-.02-.54,0-.65l.12-.59c.21-1,1.27-3.39-.27-4.36l-.41-.26c-.05-.03-.31-.29-.32-.36l-.12-.56-.13-.57c-.01-.07-.17-.29-.24-.42l-.23-.41-.25-.44c-.04-.07-.12-.48-.13-.54l-.04-.63-.04-.67c0-.08-.07-.45-.11-.52l-.26-.43-.25-.41-.26-.42-.25-.42-.26-.42c-.04-.06-.22-.4-.22-.47l-.05-.62-.05-.59-.04-.48-.03-.39-.03-.41s-.23-.36-.27-.4l-1.22-1.05c-.06-.05-.08-.59-.07-.67l.07-.67c0-.07.09-.52.14-.57l1.14-1.15c.39-.39.87-.82,1.16-1.15l1.13-1.29.3-.34c.12-.14.48-.53.36-.51l-.54.06-.38.03c-.49-.53-.34-.33-.6-.87l-.22-.47-.21-.44-.22-.45-.23-.46c-.19-.38-.29-.43-.74-.38l-.38.04-.34.04-.7.08c-.11-1.46.17-3.03.61-4.65l.15-.56c.04-.15.11-.41.12-.49l.1-.62.11-.62c.16-.88.35-2.26,1.07-2.9,1.86-1.65,5.42-4.41,7.86-4.53l2.47-.12c2.14-.1,1.04.68,3.15.68h1.88c1.67,0,1.23.3,3.13.89l3.15.98c1.71.53,1.06-.49,3.03-.51h.74s.77-.02.77-.02c.42,0,1.34.28,1.61.58l.37.41.36.4c.26.28.68,1.05.77,1.47l.71,3.42c.44,2.1,1.34,1.14,1.03,3.61-.04.32.08,1.05.22,1.38l1.79,4.35c1.6,3.88.88,1.11,2.32,6.25l.95,3.4c.09.32.54,1.1.66,1.43l.69,1.86c.04.12.13.33.18.42l.22.46.23.47c.03.06.14.37.15.44l.14.59.13.55.13.54c.33,1.34-.16,1.19.22,1.92l1.41,2.73c.03.06.4.46.42.52l.83,2.69c.42,1.37.9,2.7,1.48,3.94.37.8.84,1.65.96,2.41l.32,2.07c.15.96,1.01,2.78,1.67,4.79.36,1.1,1.16,2.4,1.33,3.53l.45,2.95c.04.28.43.91.56,1.18.7,1.41.94,2.95,1.27,4.49l1.03,4.7.44,1.62-.62.12-.61.12c-.06.01-.39.17-.44.21l-.4.34-1.37,1.16c-.28.24-.58-.61-.82-1.11l-.5-.23c-.34-.15-.49-.34-.61-.72l-.17-.53-.16-.52c-.04-.14-.12-.37-.14-.47l-.15-.6-.07-.5-.06-.4-.74-4.54-.1-.59-.05-.67c-.11-1.37-.21-.73-.58-1.71l-1.06-2.77-1.11-2.92c-.32-.85-.95-1.85-1.2-2.73-.4-1.41-.59-2.76-.92-4.27-.14-.61-.99-1.76-1.17-2.36l-1.7-5.79c-.25-.85-1.02-2.03-1.49-2.84-.19-.32-.23-1.26-.34-1.6l-.5-1.59-.56-1.79c-.43-1.38-1.06-2.66-1.75-4-1.67-3.22-.62-3.02-1.92-5.52l-.47-.92c-.08-.16-.5-.13-.46.05l.2.94.12.58c.12.55.16.5.01,1.09l-.33-.15c-.16-.07-.39-.16-.41-.21l-.21-.49c-.18-.42-.2-.64-.24-1.08l-.06-.63c-.02-.21-.01-.55-.05-.63l-.21-.47-.14-.31c-.08-.17.46-.46.24-1.05l-.2-.54c-.02-.06-.26-.35-.31-.37l-.43-.22-.43-.23c-.08-.04-.35-.23-.39-.29l-.31-.39c-.05-.06-.15-.3-.22-.44l-.23-.44-.22-.43-.22-.44c-.04-.08-.14-.44-.15-.51l-.1-.63-.08-.55c-.08-.54-.15-.35.27-.61l.44-.26.41-.25c.05-.03.23-.38.22-.44l-.05-.48-.16-.46c-.25-.72.14-2.18-.65-3.46-.99.27-1.19.87-1.45.5l-.28-.4-.28-.41c-.34-.5-.07-.68-.15-1.19l-.09-.55-.2-.49-.2-.46c-.26-.61-1.89-.72-2.37-.68l-.49.04-.59.05c-.39.03-.78-.09-1.18-.19l-.54-.13c-.1-.02-.36-.15-.47-.2l-.46-.21c-.15-.07-.37-.18-.47-.21l-.51-.15c-.9-.27-.82-.2-1.57-.08l-.52.08c-.06.01-.43-.12-.49-.15l-.44-.23-.41-.22-.46-.24c-.38-.2-.83-.04-1.12.02l-.58.12-.57.05-.66.05c-.19.02-.47.04-.56.06l-.59.1c-.86.15.02.15-1.06.06l-.43-.04c-.2-.02-.65.24-.8.38l-.36.33s-.11.35-.11.41l.03.46c.05.76.14.06-.11.95l-.13.48c-.02.06-.04.36-.03.42l.05.49c.02.15.07.47.06.6l-.06.58c-.09.9-.15.51.12,1.36l.16.52c.03.08.06.44.08.55l.07.66.07.67c.04.37.53-.11,1.04.22l.41.26.4.26c.28.18.65.34,1,.16l.46-.24.41-.21.43-.22c.07-.04.46-.15.54-.15l.62-.07.68-.06c.09,0,.34-.06.52-.09l.56-.1.6-.1c.09-.02.45,0,.67,0h.67s.68,0,.68,0h.69c.86,0,.43.03,1.2-.14l.58-.13c.09-.02.44-.07.52-.07h.68s.7,0,.7,0c.3,0,.73.18.93.43l.31.37c1.17,1.39,3.62,10.99,4.15,13.27l1.11,4.73c.09.39.54,1.11.72,1.55.75,1.84,1.5,3.81,2.11,5.62.16.48.11,1.63.3,2.03l.25.51c.17.35.26,1.16.4,1.51l1.26,3.25,1.22,3.09,1.24,3.08c.04.11.13.41.17.57l.14.57.8,3.23.9,3.35c.02.08.26.55.28.63l.74,3.58c.21,1.03.77,2.54,1.07,3.55.33,1.16-.31,1.04.12,2.21l.19.52c.04.11.11.35.15.48l.15.57.14.56c.05.19.1.41.13.5l.22.56c1.19.85,1.87.03,2.42,1.89l.16.55c1.08,3.63-.39,2.61,1.22,4.84.34.47.54,1.28.68,1.98l.46,2.17c.35,1.66.68,3.32,1.21,4.93l1.22,3.78.9,3.33c.19.7-.25.34.2,1.56l.19.51.19.52.18.51c.41,1.14.58.92.77,1.42l2.91,7.97c.04.12.13.5.16.63l1.21,6.2c.09.46.53,1.41.67,1.89l.36,1.28c.02.05.42.48.46.63l2.17,8.5c.21.81.33,1.35.48,2.12l.18.9.12.61.74,3.74.46,2.3c.09.43-.01,1.42.12,1.84l.65,2.02c.37,1.14-.04,1.06.42,2.56l1.06,3.46c.09.31.29.74.47,1.18.75,1.79.02.23.49,2.41l1.45,6.7c.35,1.64.73,1.52,1.46,3.87l1.04,3.38c.21.67.4,1.43.56,2.19l.83,3.86c.03.12.18.53.23.67l.48,1.31.18.49.25.41.23.41.25.44c.08.15.2.4.25.44l.35.33.23.22-.14.27c-.23.43-.27.09.08.56.75,1,1.57,3.32,1.97,4.54l.43,1.32c.02.06-.21.46-.26.5l-.49.41.49.1.74.15,3.73.66c3.94.7,5.93,1.76,9.42,3.62.09.05.42.28.48.31l2.87,1.18c3.54,1.46,4.33,3.37,6.03,5.01l.5.48,1.56,1.49.34.33.36.35c.08.07.22.23.3.31l.33.37.24.43c.04.06.15.44.16.53l.03.63.04.65c.05.94-.08.27.19,1.15l.15.51.17.53c.04.14.1.34.14.5l.13.55.13.54c.05.18.11.46.14.54l.2.49c.03.07.19.26.28.39l.27.38.29.41.15.47.17.54.16.53.16.51.17.54c.02.07.12.46.12.54v.66s0,.65,0,.65v.65c0,.08-.1.49-.12.56l-.17.53-.17.53c-.25.78-.12.24-.2,1.13l-.06.66c-.01.12-.05.39-.08.51l-.12.58-.11.57-.12.56-.11.56-.12.58c-.17.86,0,.27-.3,1.01l-.19.47-.2.51c-.2.48-.46.46-.75.58l-.52.21c-.23.09-.58.18-.72.59l-.17.47-.18.5c-.02.06-.29.33-.35.35l-.55.12-.55.12-.57.12c-.09.02-.52.04-.6.04l-.7-.03c-.38-.02-.87-.01-1.17-.21l-.39-.26c-.12-.08-.34-.23-.39-.26l-.46-.19-.5-.21c-.33-.14-.63-.2-.85-.49l-.29-.39c-.35-.47-.11-.37-.72-.61l-.5-.21-.47-.17c-.06-.02-.22-.26-.31-.36l-.31-.37c-.3-.36-.19-.34-.73-.63l-.42-.23c-1.58-.85-1.52.13-2.72-.66l-.39-.25-.43-.31-.36-.26s-.24-.08-.29-.08l-.44-.05c-.47-.05-1.04-.26-1.27-.61l-.26-.4-.3-.45c-.13-.2-.82-.46-.8-.21l.06.98c0,.06.26.41.32.55l1.41,3.44c.07.16.15.36.19.48l.18.54.17.5.18.51.18.53.16.48.23.44.22.43.22.45.22.45.23.45.22.43c.18.35.32.56.37.96l.08.64.08.63.11.52c.16.71,1.64.7,1.25,4.43l.34.39.31.36c.04.05.22.38.23.46l.13.66c.58,2.95-.45,2.32.12,3.44l.23.45c.03.07.18.42.19.49l.17.92c.01.07.15-.24.24-.36.06-.08.16-.11.26-.12l.3.92.19.57c.02.07.14.36.19.44l.24.42c.51.89.2.66.36,1.13l.14.4c.13.36.27.21.68,1.3l.19.52.19.52.18.47.18.46c.24.61.24.29.18,1.02l-.04.49s.08.21.11.23l.34.35c.21.21.46.45.54.84l.12.55.12.55.13.56.13.58.12.51c.02.09.14.32.21.46l.21.46c.11.24.09.76.24,1.15l.18.47.18.48.17.49c.05.14.08.38.11.56l.11.56.13.58.12.56.19.47.19.46c.03.08.14.47.14.55l.03.69c0,.08-.08.52-.12.59l-.24.42-.23.41-.23.46c-.07.15-.18.4-.23.46l-.3.39-.36.36c-.05.05-.16.17-.15.2l.15.47c.02.06.12.28.18.42l.2.45c.59,1.31.1,1.18.63,2.06l.25.42c.4.67.11-.04.42.95l.16.52.25.43.25.42.25.42.25.41.26.43c.03.05.11.32.17.48l.19.54c.03.07.16.38.21.44l.35.33.37.35c.16.15.72.81.83,1.12l.18.52.17.49c.02.06.35.2.41.22l.55.17.52.16c.4.12.47.54.56.75l.21.48c.13.3.34.53.57.79l.31.35.32.36.32.36.32.36.32.35.32.36.36.32.35.32.35.32.35.32c.53.49.07.22.8.53l.5.21.47.19c.26.11.54.38.76.59l.34.33.34.34c.07.07.26.29.31.37l.27.41.26.41.26.4.26.4.27.43.27.43c.38.6.66.35.97.49l.38.16.38.27.39.28c.74.52.27.06.6.77l.22.47c.02.05.25.32.3.35l.4.26c.05.03.41.17.48.18l.6.06.22-.26-.3-.23-.42-.32-.33-.24.2-.21.3-.35c.13-.25.21-.42.2-.41l.31.58.26.37c.05.07.28.3.33.33l.4.27.41.27-.21.21-.2.2.39.29c-.21-.15,1.19.83.65.61.16.07-.36.59-.34,1.25v.5c.01.05-.03.29-.05.33l-.22.4-.24.44-.25.46-.23.41-.25.42-.25.43c-.07.12-.16.29-.23.41l-.24.46-.23.45-.24.46c-.05.1-.15.27-.23.4l-.26.43-.25.42-.26.42-.25.41-.26.42c-.04.07-.12.33-.18.49l-.19.52c-.06.15-.13.41-.18.48l-.25.41c-.07.12-.22.34-.25.41l-.2.51-.19.5-.18.46-.18.46-.2.51-.21.54c-.03.07-.13.28-.19.39l-.23.45-.22.45-.22.45-.22.44c-.12.24-.33.71-.39.92l-.16.57-.15.54c-.04.15-.11.4-.12.48l-.1.6-.11.61-.11.61c-.01.07-.16.31-.21.42l-.13.28-.12.27c-.22.48-.15.3-.17.68l-.02.43-.03.52-.12.53-.13.56c-.09.39-.34.59-.54.83l-.29.36s.03.3.04.44l.06.51c0,.06-.06.37-.1.42l-.26.39c-.04.06-.19.42-.19.48l-.03.67-.04.67-.04.56c0,.12-.02.3,0,.35l.15.36c.33.77.16.04.27,1.09l.07.65s.2.33.22.31l.36-.29.27-.4.09.68.08.65c.02.13.1.38.14.56l.12.51.1.42.04.4.04.42.06.53.07.62.08.63c.09.71-.04.31.24,1.1l.18.49c.2.57.22.5.13,1.04l-.1.57c-.2,1.2.45,1.32-.09,1.97l-.3.36c-.33.41-.33.26-.1,1.21l.13.55c.04.18.12.48.12.55v.55s0,.48,0,.48v.41s.02.56.02.56c.01.64,0,.5-.6.67l-.45.13s-.37-.02-.4-.05l-.31-.29-.35-.33c-.1-.1-.28-.3-.35-.33l-.47-.23c-.13-.06-.4-.18-.44-.23l-.3-.38-.3-.39s-.2-.08-.24-.07l-.41.18c-.05.02-.15.06-.18.04l-.34-.25-.4-.3s-.4-.13-.46-.12l-.5.1-.56.11c-.1.02-.53.04-.62.02l-.58-.13c-3.81-.82.26-.58-6.05-1.06l-2.51-.19c-1.31-.1-2.78-.31-3.97-.62l-2.26-.58-2.02-.59c-2.89-.84-7.11-1.99-9.53-.47-1.1.69-2.96,1.12-3.39-.1l-.19-.53c-.89-2.52,2.22-2.87,2.99-6.42l-3.85-.1-2.76-.18-4.92-.26-3.41-.21c-.96-.06-1.86-.12-2.77-.23l-2.16-.25c-1.35-.15-.86.15-1.82.14l-3.47-.04c-1.52-.02-.9,1.12-2.18,1.53l-.47.15c-.65.21-.01,1.24-3.57,2.14l-3.72.94c-.09.02-.62.04-.71.03l-.66-.07c-1.3-.13-1.86-.95-1.65-1.13l.82-.66c.57-.46,1.08-.92,1.62-1.4l.35-.31.38-.33.32-.28.12-.85c.03-.2.73-.28.92-.25l.46.05c.06,0,.43-.02.48-.04l.51-.21.47-.19.43-.17c1.17-.47,1.27-4.68,1.13-5.27l-.13-.57-.13-.55c-.03-.12-.03-.42-.04-.6l-.04-.65c-.05-.82-.03-.89-.39-1.65l-.21-.44-.21-.44-.23-.47-.23-.48-.22-.45-.19-.39-.14-.3c-.04-.09-.11-.23-.13-.27l-.21-.33-.26-.4-.27-.42-.26-.41-.32-.37-.34-.38c-.05-.06-.19-.23-.26-.34l-.29-.4c-.24-.34-.27-.45-.63-.73l-.38-.29-.39-.29c-.11-.08-.25-.19-.36-.28l-.38-.31-.38-.31-.37-.29-.39-.3-.37-.28c-.12-.09-.31-.26-.38-.29l-.47-.19c-.19-.08-.95-.28-1.13-.28h-.62s-.67-.01-.67-.01c-.07,0-.51.1-.56.14l-.39.29-.34.34c-.38.39-.23.3-.68.63l-.4.3-.39.29-.38.29-.39.29c-.11.08-.26.18-.38.26l-.41.27-.4.27c-.13.09-.36.22-.41.27l-.33.35-.28.39-.29.39-.29.38-.28.39-.29.39c-.29.4-.28.44-.46.87l-.21.49-.2.47c-.02.05-.25.25-.33.31l-.39.31-.37.31-.37.3-.37.29-.38.31s-.09.37-.11.49l-.1.65-.09.59c-.01.1-.11.36-.16.52l-.14.47c-.02.06-.03.36-.02.41l.05.47.07.58c.06.57-.42.96-.8,1.25l-.38.3c-.09.07-.28.24-.36.29l-.44.24-.43.25-.37.31c-.07.05-.23.22-.34.33l-.33.34-.33.34-.33.35-.4.29c-.08.06-.29.21-.36.24l-.44.25-.44.24-.44.24-.33.36-.33.35c-.25.27-.33.36-.75.6-3.33,1.91-1.48,1.08-2.71,2.44-1.6,1.77-3.65,2.61-5.72,3.24-1.74.53-5.28,1-6.79.55l-1.44-.43-1.21-.33-.55-.16c-.08-.02-.4-.13-.47-.16l-.57-.28c-.52-.25-1.65-.34-2.33-.17l-2.26.55c-.48.12-1.28.84-1.77,1.05-.43.18-1.51.13-2.01.14l-1.06.04c-.4.01-1.07.06-1.38.01l-1.8-.3-3.2-.53c-.34-.06-1.17.08-1.46.25l-.5.28c-.11.06-.39.23-.43.27l-.94,1.1c-.2.24-.92.67-1.22.72l-.64.12c-4.59.87-.71-.13-4.9.48-1.71.25-3.52.06-5.27-.21l-3.25-.5c-.26-.04-.84.02-1.21.05-4.22.25-.76-.49-5.33-.05l-3.14.31-2.81.27c-.52.05-1.28.24-1.83.38l-3.55.9-1.42.35c-1.03.25-2.08.4-3.17.46s-2.27.42-3.38.62l-5.85,1.01c-3.59.62-2.01-.1-5.17-.17-1.16-.03-2.27-.24-3.5-.39-.62-.07-1.69,0-2.42-.03l-2.6-.13c-1.67-.09-3.48-.53-5.25-.72l-2.44-.26-4.96-.17c-.31-.01-.93-.13-1.45-.23-2.59-.49,0-.44-2.63-.96l-2.61-.51c-.63-.12-1.24-.81-1.61-1.33l-1.3-1.81c-.15-.21-.51-.59-.68-.74-.26-.24-.85.73-1.31.39l-.42-.31c-.79-.58-2.33-1.19-2.97-1.96-1.18-1.44-1.99-2.92-3.36-4.06-2.67-2.21-.61-.88-2.82-3.03-.15-.14-.5.22-.63.41l-.24,2.6-.26,2.86-.51,2.37-.32,2.73c-.04.32-1.42,1.91-2.37,1.98l-.78.05-1.53.1c-.06,0-.42-.05-.54-.06l-2.62-.21-2.75-.82c-1.13-.34-2.47-.11-3.6,0l-2.76.26c-.53.05-1.42.03-1.79.21-.49.24-1.42.78-1.89.78l-5.55.04c-3.45.03-2.88,1.07-6.58,1.02-3.59-.04-2.74-.8-5.24-.59-1.38.11-3.47-.65-4.29-1.55-.61-.67.21-.48-.31-2.92-.75-3.52.26-2.33.22-3.08l-.12-2.32c-.05-.98-.09-1.98-.26-2.8l-.53-2.49,1.25.09-.03-.5-.84-.28c-.58-.2-.84-.85-.87-1.23l-.05-.55-.05-.66c-.07-.93.09.01-.14-1.22l-.1-.56-.1-.58c-.02-.11,0-.45,0-.67v-.68s0-.68,0-.68v-.64c0-.07-.09-.45-.11-.54l-.16-.56-.14-.53-.14-.56c-.02-.08-.08-.43-.08-.51l-.04-.68-.04-.64-.12-.57-.11-.57c-.02-.08-.06-.49-.04-.58l.08-.53.37.06.53.09s.29-.25.28-.3l-.08-.51-.36.08-.54.13c-.6.14-.93-.81-.94-1.1l-.03-.62-.02-.67c0-.22,0-.53-.02-.64l-.12-.57c-.16-.81-.18-.28-.03-1.02l.11-.57c.12-.62-.01-.63-.17-1.02l-.18-.45-.21-.49c-.04-.08-.05-.49-.05-.6v-.7s0-.68,0-.68v-.67c0-.78-.05-.6.09-1.25l.12-.56.12-.54c.02-.08-.08-.39-.11-.53l-.12-.56-.12-.57-.12-.55c-.04-.18-.12-.47-.12-.56l-.02-.67c-.12-3.99.14-2.23-.68-6.19-.56-2.68.35-1.54-.31-2.66-.31-.53-.49-1.52-.02-2.24l.65.57.19,2.1.41.46c.18.2,0,.94-.04,1.17l-.05.31.36-.06s.3-.2.31-.24l.14-.6c.02-.07.01-.55,0-.63l-.13-.56-.13-.57c-.02-.08-.07-.46-.07-.54l-.02-.73c0-.15,0-.51.02-.62l.1-.63.08-.5c.02-.13.06-.45.05-.45l-.58-.08s-.28.24-.31.28l-.28.4-.29.42c-.37.52-1.09-.19-.87-.06-.05-.03-.22-.37-.22-.44v-.63s-.01-.67-.01-.67v-.68s0-.69,0-.69c0-.08-.05-.4-.08-.56l-.1-.56-.1-.57-.11-.6-.11-.59c-.03-.15-.07-.34-.11-.52l-.12-.54-.12-.54-.12-.56-.13-.57-.12-.55-.13-.54-.13-.54-.13-.54-.13-.54-.14-.54-.15-.58-.15-.47c-.02-.08-.15-.29-.23-.43l-.24-.46c-.23-.44-.21-.54-.3-1.02l-.11-.61c-.03-.19-.08-.43-.12-.57l-1.25-5.14c-.03-.13-.07-.35-.11-.54l-.1-.55-.11-.57-.11-.56-.11-.56-.12-.57-.12-.55-.16-.64c-.08-.35.16-1.15.48-1.25.66-.21.56-.02.85-.75l-1.73-.4c-.06-.01-.28-.39-.31-.45l-.2-.47-.22-.51c-.94-2.17-2.51-6.93-2.93-9.13-.17-.87-.33-1.61-.53-2.41l-.63-2.51-1.08-4.28c-.19-.74-.47-1.54-.79-2.17l-.72-1.44c-.47-.93-1.03-1.94-1.36-2.9l-1.13-3.24c-.16-.45-.38-1.13-.57-1.46l-.88-1.55-2.69-4.75c-.1-.18-.42-.59-.56-.75s-.56.55-.67.8l-3.11,6.91c-.3.67-.7,1.35-1.05,1.96l-2.81,4.93c-2.11,3.71-1.58,1.77-3.34,5.14-.86,1.64-2.02,3.09-2.98,4.71-.62,1.05-1.02,2.62-1.59,3.75l-1.05,2.08-1.42,1.53-1.41,2.7-1.29,2.49c-.28.54-.8,1.27-1.04,1.84l-.93,2.17c-.6,1.4.21.94-.38,1.96-.26.45-.81,1.41-1.2,1.79l-1.03,1.01c-.27.27-.57.86-.8,1.25-1.57,2.65-2.75,5.38-3.8,8.33-1.11,3.13-2.94,5.33-3.6,7-.62,1.58-1.06,3.11-2.46,4.01-1.03.66-2.01,2.87-2.33,3.75l-1.26,3.56c-.54,1.54-1.16,2.89-1.09,4.64.03.68.18,1.99.56,2.54l2.45,3.6c2.63,3.85.8,5.31,4.01,8.81,2.34,2.56-.53.95,3.49,4.85l3.79,3.68c1.27,1.23,3.22,1.98,4.62,3.08,1.1.86,2.14,1.72,3.32,2.39l1.56.9c1.79,1.03-.16.29,3.55,2.39l1.95,1.1,1.33.78c.36.21.89.65,1.34.99,1.23.94,2.87,2.04,3.3,3.63l.53,1.93.38,1.39c.04.13-.37.6-.49.66l-.66.32c-1.48.73-3.41.9-4.87.92h-.58s-.52.01-.52.01c-.78.01-.41-.81-1.82-.34l-2.26.75c-.08.02-.59,0-.67,0l-4.41.24c-1.05.06-2.37-.22-3.37.03-2.39.61-2.06-.35-6.12.35-.91.16-2.03-.19-2.96-.2l-20.43-.1c-.64,0-1.74-.25-2.41-.29l-3.15-.2c-.72-.05-1.88.13-2.6-.01l-4.81-.96-3.48-.7c-.3-.06-.96-.31-1.26-.27-.88.11-2.32.2-3.03-.03l-1.48-.46c-.06-.02-.52.24-.58.22l-1.19-.27-3.88-.9-1.87-.72-5.45-1.5c-.23-.06-.77-.28-1.05-.43-3.22-1.8-3.43-2.72-5.31-5.83l-.41-.68c-.06-.1-.57.19-.64.29l-1.29,2.03-2.87,5.03c-1.53,2.69.68-.82-.51,1.11-1.72,2.8-.55,2.77-2.39,2.85-5.59.23-4.62-.25-8.88-.19-.16,0-.66-.03-.83-.1-2.57-1.11-3.89-.51-6.69-.28l-2.53.21c-.59.05-1.75-.22-2.44-.25-4.1-.16-1.18-.71-4.24-.46l-1.91.16-3.08.25c-1.75.14-3.58-.02-5.34,0-1.38.02-2.74.06-4.11-.12l-2.32-.3c-.34-.04-1.01-.11-1.36-.11l-4.71-.06c-1.18-.02-1.55-.81-1.54-1.12l.02-.7,1.53-.65,2.13-1.06s3.55-.86,4.24-.96c4.43-.66,2.62.24,5.34,0,5.17-.46,5.58.09,8.86-.11l4-.24c1.41-.09,2.77-.25,4.14,0l2.39.43c.75.13,2.04.06,2.88-.03l3.4-.36c.41-.04,1.21-.15,1.55-.1l1.84.29c1.37.21,3.79.72,4.66-.86l1.4-2.55c1.81-3.3,1.07-1.24,2.89-4.63l.91-1.7,1.89-4.12c.11-.24.83-.47,1.04-.56l1.02-.45c.06-.02.29-.23.4-.33l.36-.3c.12-.1.28-.26.35-.3l.42-.26c.07-.04.45-.17.53-.17l.61-.02c.06,0,.34.28.37.34l.25.43c.29.49.05.36.57.31,1.14-.1,2.57,2.13,2.74,2.58l.7,1.81c.2.22.83.77,1,1.06l1.24,2.08c.04.06.19.26.28.4l.3.43c.18.25.44.85.53,1.12.02.05-.3.38-.38.48,1.64,2.43,4.67,1.63,6.11,2.79l1.15.92c.3.24,1.4.6,1.91.73l2.81.68c.63.15,1.57.23,2.22.2l1.56-.06c4-.16,3.66.01,7.96,1.12l2.2.56c.41.1,1.24.13,1.83.16l4.11.24,3.6.22c.44.03.95,0,1.49-.03.94-.04,1.97.15,2.96.17l5.05.11c.55.01,1.26.11,1.77.21l1.27.26c.98.2,1.23.87,1.6.3.21-.32.43-.77.84-.77h2.89c3.14,0,4.44.71,8.91.17.96-.12,2.01-.38,2.92-.43,1.57-.09,4.51-.03,5.01-.09l1.28-.14c.18-.02-.16-.67-.31-.77l-.42-.27-.43-.27-.42-.26-.39-.26-.4-.27c-.05-.03-.43-.2-.49-.25l-3.23-2.41-4.1-2.99-3.52-2.6c-.45-.33-1.45-.69-1.96-1l-2.15-1.3c-.53-.32-1.23-1.04-1.76-1.55-3.31-3.17-.15-.49-2.02-2.62l-.96-1.1-.98-.77-1.05-2.23c-.26-.55-.53-1.05-.87-1.54l-1.75-2.51c-.12-.17-.25-.91-.28-1.14l-.31-2.39c-.04-.29-.27-1.01-.41-1.26l-1.24-2.16-.85-1.46-.73-1.35c-.68-1.26-1.35-3.09-1.51-4.45-.01-.1,1.02-4.81,1.22-5.28.66-1.59,1.35-.61,2.48-4.87l.38-1.43.83-.11c.46-1.26,1.28-2.79,2.43-3.51l1.17-.73.49-1.05,1.1-2.36c.11-.23.28-.53.46-.87,1.24-2.28-.1-1.21,1.13-3.43l.97-1.77.86-1.56,1.67-3.11c.62-1.16,1.37-2.95,1.82-4.1s1.27-.54,1.55-1.84c.63-2.9.53-2.57,2.02-5.42l1.14-2.18c.07-.09.43-.42.53-.5l.53-.43c-.54.43.58-1.33.53-1.24l.27-.4.28-.39c.05-.06.31-.18.45-.26l.46-.26s-.07-.06-.17-.14l-.21-.4c-.03-.06-.1-.46-.08-.52l.22-.44c.06-.13.2-.37.22-.44l.13-.54.14-.58.18-.48.25-.42.26-.44c.06-.09.15-.28.21-.41l.23-.46.22-.44c.07-.15.17-.38.23-.45l.3-.38.29-.39c.07-.09.28-.36.31-.42,1.41-2.86,4.33-8.09,6.17-10.58l.3-.4.28-.38c.09-.12.26-.32.29-.38l.25-.48,3.51-7.91c.15-.33,1.15-2.12,1.5-2.6l3.06-4.22c.32-.44.58-.16.74-.22l.76-.29c.12-.05.18-.79-.08-1.27l-1.6-2.99c-.74-1.38-2.23-1.49-3.39-2.94l-1.47-1.85c-.19-.23-.31-2.5-3.48-4.67l-2.01-1.38c-2.15-1.48-2.94-3.35-5.24-5.5l-2.31-2.15c-1.32-1.23-.51-1.28-1.01-1.7l-1.43-1.17c-.08-.07-.3-.27-.34-.32l-.7-.8c-.11-.12.26-.61.44-.7l2.28-1.08s2.65-.82,3.35-.23l.42.35,1.82,1.53,1.87,1.58c.59.5,1.03,1.16,1.45,1.92.33.28,1.12.85,1.44,1.15l1.77,1.67c.53.5,1.21,1.43,1.77,1.84,5.41,3.95,4.79,4.66,8.72,7.83.97.79,1.65,1.66,2.37,2.71l1.5,2.17c.54.79,1.11,1.5,1.74,2.32l.94,1.91,1.56.87c.06.03.15.55.17.63l.17,1.05c.04.26.9.5,1.01.76.36.87,1.06,2.6,1.63,3.33,1.03,1.32,1.33,2.47,1.94,3.95l1.16,2.81,1.52,3.53.43,1.17.75,1.75c.11.25.27.74.32.97l.37,1.64.7,3.03.5,2.54c.75,3.81,1.4,3.76,1.72,7.07l.94,1.56c.57,2.93.74,1.52,1.34,3.78l1.08,4.02c.3,1.14.43,2.49.7,3.71l.6,2.74.93,3.79c.15.61.34,1.21.52,1.79l1.07,3.41c.58,1.85,1.01,4.72,1.25,6.71l.33,2.77.28,2.42.93,5.76c.1.6.29,1.48.3,2.01l.16,6.37.35,5.03.19,2.74c.09,1.31.29,2.54.51,3.82l1.13,6.65c.14.83.24,1.81.32,2.67l.28,2.82c.38,3.8.94,3.69,1.23,6.22.42,3.68-.12,1.63.11,5.14l.13,2.03c.03.4.9.92,1.29.96l.82.07c1.42.12,3.07.47,4.77-.06,3.5-1.08,4.28-.02,5.49-.15l2.13-.23,4.34-.48,2.36-.23,2.21-.3c.15-.02.53-.33.61-.2l.42.66s.29.1.33.09l.57-.15c.44-.11.72-.11,1.13.08l.42.2c.34.16.24.08.75.1h.43s.03-.05.05-.11l.02-.4s.12-.16.16-.16h.52c.14,0,.34,0,.4,0-.02,0,.71-.2.48-.86l-.16-.45c-.11-.3-.32-.76-.24-1.14l.12-.6c.01-.06.21-.38.26-.42l.35-.37s.16-.23.16-.28l-.07-.48c-.11-.75-.16-.31,0-1.07l.12-.57.12-.58.11-.54c.01-.06.26-.27.33-.34l.36-.31.03-1.51c0-.06.54-.22.58-.27l.29-.35c.06-.07.17-.3.25-.43l.25-.43.32-.36.32-.37.28-.32s.27-.51.32-.55l3.33-2.76c.43-.36.81-.16,1.13-.09l.53.11c.06.01.42-.03.49-.05l.63-.18c.4-.12,1.31.21,1.52.55l.3.5.25.41c.08.13.2.36.25.41l.33.36,3.26,3.5c.6.65,1.14,1.23,1.74,1.96l2.67,3.21,1.65.96c.98.57,1.81,2.34,2.57,3.42.41.58,1.9.87,2.64,1.02l3.3.69,1.27.5c.72.29,2.2.58,2.98.6l5.08.13,3.02.56,7.02.11c1.89,1.27,3.07,1.47,5.18,1.11l3.5-.6,1.82-.31c1.54-.26,2.1-.39,3.52-.19l.49.07c.12.02-.29.17-.66.34l.24.17h.76s.68.02.68.02c.07,0,.48-.12.54-.15l.44-.24c.68-.37.21-.18,1.06-.27l.65-.06c.15-.01.38-.05.53-.08l.58-.11.59-.11.62-.11,2.44-.46c.08-.01.4-.15.53-.19l.5-.19.62-.04.68-.03.65-.03.53-.03.43-.02.48.05c.52.05.6.13,1.16,0l.58-.14c.17-.04.49-.14.57-.13l.56.08.56.1c.13.02.41.09.48.07l.54-.1c.16-.03.42-.09.5-.09l.69-.05.68-.06.56-.05s.21-.27.22-.32l.07-.32s.15-.22.19-.22l.63-.02.68-.02.68-.02c1-.03.19.08,1.21-.13l.57-.12c.12-.02.46-.08.56-.08h.68s.68,0,.68,0h.66c.14,0,.43-.07.83-.14-.19-.36-.53-1.23-.83-1.55l-3.33-3.52c-.23-.24-2.05-2.9-3.25-3.99l-2.66-2.4-3.57-3.16-1.97-1.81c-2.54-2.34-4.59-2.33-8.25-5.82l-1.98-1.89c-.31-.29-.45-1.1-.36-1.68.14-.94-.63-1.72-1.49-1.69l-.99.03.18-.35.38-.4-.29-.28s-.2-.11-.24-.1l-.51.08-.6.08c-.07,0-.54-.08-.58-.13l-.29-.36-.3-.39c-.04-.05-.3-.27-.35-.3l-.45-.25c-.05-.03-.29-.3-.31-.36l-.22-.53-.18-.43c-.02-.05-.39-.2-.44-.19l-.47.06-.52.06c-.41.05-.53-.03-.89-.29l-.4-.29-.37-.26-.4-.3c-.07-.05-.24-.25-.32-.35l-.33-.37c-.18-.2-.33-.57-.43-.84-.16-.46,1.04-.29.61-1.36-.19-.48-.47-.85-.92-1.06l-.49-.22-.49-.22-.46-.21-.4-.18-.3-.14-.3-.12c-.37-.15-.38-.15-.8-.41l-.43-.27-.4-.26-.33-.2c-.4-.24-.32.31-1.16-.31l-.38-.28c-1.72-1.25-3.35-2.84-4.11-3.29-1.42-.83-3.85-.82-5.4-1.93l-2.22-1.58-2.21-1.49c-2.53-1.71-.03-1.44-1.31-3.99l-.59-1.18-.23-.46c-.03-.05-.23-.37-.29-.38l-.68-.16-.59.22-1.08-.28c-.06-.02-.22-.51-.23-.57l-.33-1.92c-.01-.07-.1-.33-.21-.68l.24-.24.16.65.11.45c.02.07.17.53.22.56l1.09.75c.21.14.39-.39.43-.76.01-.11,0-.44-.02-.48l-.3-.37-.3-.37-.3-.38s-.18-.41-.19-.47l-.11-.57-.11-.58c-.03-.19-.08-.46-.11-.55l-.18-.52-.26-.46c-.04-.07-.16-.25-.23-.36l-.26-.38-.3-.42-.33-.34-.34-.34c-.47-.48-.26-.32-.76-.56l-.48-.24c-.74-.37.02-.46-.44-1.6-1.27-3.16-1.52-.73-1.95-2.33l-.16-.58-.14-.55c-.15-.56.8-4.03-.97-4.79-.23-.1-.21-.31-.12-1.02l-.7-1.42-.24-.49-.22-.44-.71.11c-.16.03-.49-.41-.45-.57l.15-.61.13-.57c.15-.7.14-1.01-.16-1.7l-.19-.45-.21-.49-.21-.5-.13-.31-.53.38s-.09-.17-.18-.36l-.4-.77c-.39-.77-.5-1.76-.45-2.55l-.42-.31c-.5-.37-.71-1.02-.65-1.3l.11-.58c.07-.38-.04-1.27-.29-1.56-.07-.08-.65-.22-.75-.25-.56-.18.66-.32.53-.7l-.55-1.66-.17-.59-.16-.57c-.04-.13-.1-.31-.14-.44l-.17-.49-.18-.54c-.05-.16-.13-.4-.17-.47l-.22-.46c-.06-.14-.2-.41-.21-.47l-.06-.61-.06-.65c-.01-.16-.05-.45-.07-.53l-.15-.59-.14-.52c-.05-.17-.13-.34-.19-.51l-.19-.49c-.02-.06-.09-.32-.12-.47l-.14-.63c-.22-.95-1.71-1.04-1.11-1.83l.27-.36c.23-.31.25-.7.09-1.05l-.21-.47-.2-.45-.22-.49-.21-.44-.21-.44c-.36-.74-.38-.7-.35-1.42l.02-.44c0-.07-.04-.38-.05-.45l-.11-.58-.1-.58-.1-.56-.1-.57-.1-.6-.1-.61c-.02-.11-.07-.34-.11-.5l-.14-.55-.14-.54-.14-.54-.14-.53-.15-.52-.15-.51-.15-.53-.16-.55-.15-.53c-.06-.21-.31-.59-.52-.62l-.39-.04c-.55-.06-.44.02-.89-.88l-.23-.46-.21-.42-.15-.51-.16-.55-.16-.53-.16-.51-.16-.53c-.17-.56,0-.55.21-.86l.26-.39c.04-.06.08-.51.05-.57l-.22-.51-.19-.45c-.27-.62-.19-.31-.22-1.12l-.03-.66c0-.2,0-.52-.04-.61l-.15-.54-.15-.54-.14-.53-.15-.52-.15-.51-.15-.52-.15-.53-.15-.53-.15-.53-.21-.49c-.14-.34-.41-.61-.49-.81l-.19-.48-.2-.51-.19-.48-.2-.48c-.04-.09-.12-.33-.15-.44l-.17-.56-.16-.52-.16-.54c-.03-.09-.13-.37-.16-.44l-.23-.5-.2-.43c-.39-.83-.07-.45-.22-1.22l-.09-.5-.11-.55-.1-.55-.1-.6-.11-.6-.1-.58c-.02-.11-.08-.35-.12-.48l-.15-.55-.16-.56c-.02-.07-.14-.38-.17-.45l-.23-.48-.21-.43-.21-.46-.21-.48c-.03-.07-.08-.36-.11-.51l-.08-.39-.07-.34s-.15-.19-.21-.26l-.31-.38-.33-.38-.3-.37c-.05-.06-.11-.33-.17-.48l-.19-.51-.18-.5-.16-.43s-.06-.25-.08-.36l-.08-.37-.11-.42-.13-.51-.15-.57c-.73-2.76,1.14-1.05-2.16-8.26l-.21-.45-.2-.44-.18-.5c-.48-1.33-.49-4.42-2.05-6.06l-.31-.33c-.22-.23-1.09-3.14-3.29-3.27-.27-.02-1.52-1.09-.9-1.95l1.44-1.98c.41-.56,1.04-1.21,1.58-1.76,1.88-1.95-.08-.66,1.42-4.24.22-.51.57-1.11.85-1.5l1.47-2.01,1.52-2.1c.18-.26.15-1.15.18-1.49.42-4.49,3.43-4.54,3.44-5.66l.02-2.76c0-1.52,1.06-1.07,1.22-1.76.09-.36.27-1.28.43-1.6l.78-1.54.82-1.62c.36-.71,0-1.81-.68-2.33l.03-.72c.03-.61-.01-1.31-.34-1.52l-1.51-.98-4.8-3.32-4.78-3.29c-.81-.56-1.61-1.07-2.36-1.67-.26-.21-.69-.64-.96-.7l-1.38-.3-1.2-2.24c-.11-.21-.38-.86-.18-.81.82.22.13-.11.93.39.38-.59-.04-1.69.65-2.1,1.03-.6.85.28,2.17-.48.11-.06.42-.25.48-.26l1.83-.52c.59-.17.62-.09.75.14l.29.55c1.06,1.99,2.43,1.48,2.42,2.98l.44.04c.42.04.38-.04.74.31l.36.35c.49.48-.07.23.64.29l.44.04c.07,0,.4.13.47.16l.44.23.43.23.45.23c.09.05.29.19.4.27l.42.28.4.27.29.2-.15.27c-.03.06-.29.49-.24.53l1.15.75c.17.11.15-.38.16-.87l1.33.96.38.28.39.28.44.32s-.07.1-.17.22l-.23.3.29.19c.11.07.32.26.38.27l.48.06.49-.04c.63-.05.3-.08.8.28l.37.27.4.29.42.31-.72-.04-.35-.37c-.25.2-.43.35-.31.25l1.35,1.14c1.06.89,1.91.01,2.22.23l1.79,1.28,1.56.42c1.57.42,2.79,2.8,2.06,1.94l.72.84.51-.13-.22-.55c.07-.08.22-.25.21-.25l.49.46c2.19,2.06.43,3.53,2.3,3.35l.48-.04.58-.05c.07,0,.4.18.43.23l.28.5s-.29.13-.42.19l-.53.24v.5s.14.26.15.27l.59-.12c.07-.01.38,0,.37,0,0,0,.11.36.16.51l.61,1.77c.82,2.36.96,3.67,2.01,4.67l3.67,3.5c.64.61,1.73,1.72,2.13,2.48l3.97,7.53c.95,1.79,3.18,4.28,4.65,5.77l2.85,2.9.84.79,1.49,1.64c2.26,2.49.22,1.56,1.85,2.41.54.29,1.11.67,1.34.98l2.91,4.13.15.22c.26.39.12.16.53.54l.36.33c.21.19.54.42.51.7,0,.03-.16.27-.2.34-.23.15-.41.27-.31.2.67-.02,2.26,1.55,2.55,1.91l1.8,2.22,1.73,2.37c.32.43.71.89.98,1.3l1.09,1.66c.86,1.31,1.71,2.47,2.81,3.63l1.77,1.87c.12.12,0,.68-.08.93l.46.56s.33-.01.44-.02l.49-.02c.33-.02.6.3.8.52l.33.35c.08.09.28.27.33.34l.27.41.26.4.27.41c.08.12.19.28.26.37l.31.39.29.38.3.39c.07.09.25.35.31.47,1.54,3.02,4.09,6.11,6.89,7.99.14.09.35.27.46.37l.38.33c.06.05.25.18.34.25l.41.3.38.28c2.25,1.64,2.13,1.91,3.86,3.85l.34.38.33.35.33.35.33.35c.06.06.17.3.23.42l.25.46c.27.49.74,1.19,1.08,1.48l.43.36,2.73,2.35.51.41-.14.51c-.32.83,1.17,1.6,2.18,1.49l.55-.06.44-.04h.39c1.36.05.54,1.47,1.22,1.49l.4.02c.06,0,.28.05.31.06l.42.19c.15.07.45.19.52.24l.3.21c-.45.8-.49.9-.2.89l1.25-.03c.06,0,.45.34.53.39l.37.27c.14.1.35.23.4.3l.27.39c.06.08.27.44.34.5l2.85,2.68c.1.1.31.27.39.33l.41.27.41.28c.54.37.24.13.73.61l.33.33.35.34s.33.26.41.29l.43.18.45.2.5.23.49.22.37.17-.26.21-.51.24v.43s.56.04.56.04l.66.05.67.05.56.04c.06,0,.32.33.32.38v.42s0,.33,0,.33l.35-.06.66-.27,4.59,2.94c.1.07.35.28.43.36l.34.33.35.33.42.27.49.31c.11.45-.05,1.09.26,1.18l1.28.39c.06.02.4.46.45.48l2.69,1.18c.14.06.54.18.55.24l.22,1.36c.22,1.34,2.21-1.1,3.28,1.95.03.04.8-.2,1.06-.21h1.66c.05,0,.31.25.34.29l.29.44c.4.6-.03.22.69.63l.43.25.38.28.39.28.4.28.39.28.4.29c.49.36.68.27.95.32l4.8.96.56.11.6.11c.2.04.47.07.57.1l.53.16.51.15c.51.15.29.08,1.17.02.25-.02.21.8.18,1.05-.09.77.64-1.04,3.69-.4l.54.11.57.12.56.12.47.21c.07.03.27.18.39.26l.41.27c.06.04.49.17.56.16l.55-.1.57-.12.58-.12c.1-.02.49-.05.58-.05l.72.02c.49.02.72.06,1.13.2l.51.18.5.17.5.17.52.17c.09.03.46.08.53.09l.68.03.68.03c.48.02.61.13,1.02.31l.46.2c.09.04.39.12.49.15l.6.14.52.11.59.11c.51.09.56.1.96.07l.47-.03.62-.04c.19-.01.44-.02.63-.02h.7s.68,0,.68,0h.67s.66-.01.66-.01c.13,0,.42.07.61.1l.53.08c.1.01.38.08.44.06l.51-.14.54-.14.52-.14c.31-.08.58-.33.72-.62l.24-.47.21-.43s.22-.07.26-.07h.48c.43-.01.02-.65.33-.84l.43-.26.45-.27.63-.39-2.11-2.24-.31-.32s-.31-.54-.37-.56l-2.97-.92c-2.45-.76-2.1-1.38-3.98-2.37l-2.43-1.27c-.35-.18-.89-.9-1.17-1.13l-1.14-.91c-.06-.05-.5-.25-.51-.32l-.25-1.61c0-.06.66-.13.73-.16l1.69-.72c3.76-1.61,2.93-.66,4.18.01l3.47,1.86c4.02,2.16,2.25,2.24,6.09,3.01,2.5.5,1.31.97,2.63,1.43,1.12.38,3.08-1.08,3.77-1.86.95-1.07,1.64-2.25,2.27-3.47l.72-1.37c.23-.43.49-1.1.5-1.48l.07-1.89.03-.66.02-.64c0-.07-.22-.43-.28-.46l-.43-.2c-.06-.03-.59-.13-.63-.19l-1.56-2.38c-.15-.22-.63-.51-.98-.69l-2.59-1.31c-.18-.09-.88-.09-1.08-.11-.45-.04-.69-.84-.75-1.21l-.11-.59-.11-.58-.1-.5c-.03-.15-.08-.44-.09-.47h.57s.46,0,.46,0c.48,0,.29.07.78-.25l.41-.27.4-.27c.07-.05.38-.22.45-.23l.58-.06.65-.06.64-.05c.39-.03.64-.22.93-.41l.38-.26.4-.26c.27-.18.66-.26,1.02-.35l.56-.14c.1-.02.41-.09.48-.1l.65-.06.65-.07c.16-.02.44-.05.51-.07l.6-.15c.16-.04.44-.09.54-.13l.49-.2.45-.18c.63-.25.37-.2,1.11-.22l.7-.02h.7c.08,0,.44-.06.54-.08l.58-.12c1.11-.23.27-.1,1.22-.13l.68-.02c.2,0,.51,0,.63-.02l.58-.1.57-.09.58-.08.64-.08c.18-.02.45-.05.52-.07l.6-.14c.19-.04.44-.12.54-.12l.45-.02.43-.03.47-.03.5-.04.43-.03.39-.03.48-.03.61-.05.67-.05c.92-.07.06.07,1.15-.17l.57-.13c.43-.1.8.03,1.17.12l.55.13c.07.02.42.18.47.22l.59.53c.1.09-.15.18-.41.31l-.58-.07c-.38-.04-.65-.17-.98.87l.86.25c1.22.33.39.69,1.45.79l.45.04c.06,0,.33.12.42.16l.49.2.54.22c.06.03.33.16.39.2l.44.26.42.25.42.25.42.25.42.26.44.27c.05.03.31.17.37.2l.48.2c.18.07.42.19.52.21l.52.11.58.12.59.12c.17.04.45.07.52.11l.44.24c.07.04.23.22.34.33l.34.33.34.33.35.33c.06.05.33.26.39.28l.46.17.51.18.52.18.52.18c.15.05.4.13.46.16l.47.24.44.21c.27.13.67.32.88.47l.38.3.38.29.38.29c-.12-.09,1.09.61.87.24l.21-.55.19-.5.17-.44s.03-.29.01-.33l-.13-.38c-.16-.47-.08-.14-.02-.79l.05-.62.05-.69c.04-.47-.24-.76-.4-1l-.13-.21.49-.32s-.13-.06-.29-.13l-.56-.16c-.51-.14-.64-.88-.73-1.27l-.13-.58c-.2-.86.14.03-.34-.99l-.21-.45-.22-.48-.23-.48c-.03-.07-.14-.35-.16-.42l-.14-.55-.14-.56-.13-.54-.13-.54-.14-.55c-.03-.13-.12-.48-.12-.55v-.65s-.01-.67-.01-.67v-.66c0-.34-.18-.74-.4-.96l-.35-.33c-.6-.58-.17-.22-.76-.57l-.45-.26c-.44-.26-.28-.13-.69-.63l-.3-.36-.31-.37-.29-.37-.3-.39-.31-.41c-.04-.05-.22-.26-.27-.3l-.36-.36-.36-.35-.33-.31-.39-.28-.39-.29-.38-.29-.38-.28c-.11-.08-.3-.26-.38-.29l-.48-.2-.51-.21c-.7-.29-.25-.1-.84-.45l-.42-.25-.48-.17-.52-.18-.52-.18c-.76-.26-.29-.03-.87-.47l-.37-.28-.38-.29c-.06-.05-.32-.14-.48-.21l-.5-.21-.45-.19c-.1-.04-.28-.18-.42-.26l-.41-.24c-.47-.28-.38-.25-.91-.4l-.55-.16-.57-.18c-.07-.02-.29-.11-.43-.16l-.46-.19-.52-.2c-.07-.03-.42-.14-.49-.14l-.45.02-.44.02-.46-.06-.58-.08-.62-.08c-.18-.02-.38-.06-.55-.09l-.57-.12-.57-.11c-.19-.04-.36-.07-.55-.12l-.55-.13-.54-.13-.54-.13-.54-.13-.54-.13-.54-.14-.54-.14-.54-.14-.55-.14-.52-.14-.52-.15-.52-.15c-.15-.04-.4-.12-.47-.13l-.62-.11-.57-.11-.56-.11-.57-.11-.57-.12-.52-.12-.54-.13-.54-.13-.55-.13-.55-.13-.46-.22-.44-.22-.43-.22c-.06-.03-.4-.12-.46-.11l-.49.09-.56.1c-.09.02-.48-.03-.57-.05l-.56-.12-.54-.11-.67-.04-.69-.05c-.07,0-.35-.05-.5-.08l-.58-.11c-.15-.03-.56-.11-.64-.14l-4.92-1.75c-1.32-.47-.33-.38-1.47-.49l-2.93-.28c-.06,0-.53-.25-.6-.27l-3.06-.79c-.06-.02-.47-.37-.52-.42-1.72-1.83-.62-.42-2.51-1.26-1.78-.8-3.01-1.31-5.1-1.81l-1.89-.45c-6.4-1.54-6.18-4.26-11.23-5.67l-4.41-1.23c-1.24-.35-.32-.84-.9-.89l-1.53-.13c-1.27-.11-1.71-1.06-2.2-1.26l-4.16-1.7-1.99-.79c-3.48-1.38-3.16-2.2-5.39-3.29l-2.56-1.24c-.24-.12-.69-.42-1.02-.63-4.02-2.57-1.71-1.21-3.43-2.93-.3-.29-1.84.08-2.83-.85l-1.4-1.31c-.82-.77-1.63-1.55-2.51-2.2l-3.09-2.3-1.57-1.15c-.36-.26-.94-1.04-1.2-1.45l-1.02-1.63c-.07-.12-.27-.73-.37-.81l-2.27-1.93-1.48-1.26c-.21-.18-.85-.5-.99-.7l-.83-1.2-1.12-1.63c-.14-.21-.58-.7-.71-.92l-.83-1.46c-.04-.07-.41-.16-.5-.19-1.01-.36.13.09-.56-.58l-2.17-2.08c-1.19-1.14-.4-.56-1.17-1.22l-2.17-1.9-2.3-2.09-1.33-1.37c-.98-1.01-.53-1.79-1.49-2.78l-1.37-1.4-1.31-1.37-1.83-1.92c-.29-.31-.72-.75-.93-1.07l-2.18-3.23c-.06-.09-.29-.38-.3-.44l-.18-1.03-.21-1.19c-.24-1.35-1.4.61-3.25-2.75-.04-.07-.27-.42-.32-.46l-2.14-2.09c-.11-.11-.74-.46-.88-.63l-2.05-2.38c-.65-.54.8-.29.67-.31,1.17.17-.86-1.52-.97-2.52-.38-3.35-2.8-1.13-3.07-4.04l-.07-.73c-.02-.26-.19-.86-.29-1.11-.08-.18-.67-.07-.88-.04l-.56.1c-.09.02-.47.04-.63.05-1.8-2.84-1.14-3.91-2.71-5.98-.55-.72-1.2-2.05-1.75-2.47l-.51-.39-.66-.98c-.55-.82-1.27-1.79-1.61-2.64l-1.28-3.19c-.4-1-.95-1.89-1.49-2.83l-1.64-2.84c-.25-.44-.53-1.34-.77-1.86l-1.46-3.05c-.54-1.13-1.44-2.32-2.12-3.48-1.78-3.05-.23-1.63-2.04-3.63l-1.46-1.61c-.13-.15-.43-.59-.52-.78l-.9-1.88-.25-.52c-.28-.6-.49-.96-1.18-1.34l-.49-.27c-4.97-2.79-2.38-1.08-5.66-2.32-1.02-.39-2.09-.87-2.97-1.42l-1.72-1.07c-.7-.43-1.83-1.42-2.55-1.6-1.4-.34-2.78-.44-3.95-.88l-2.99-1.11c-.58-.21-1.12-.53-1.94-.97l.31-.46.44-.58.31-.4s.39-.16.46-.17l.68-.07.61-.06c.18-.02.44-.05.53-.05l.44.02c.15,0,.41.03.49.02l.5-.05.54-.06c.08,0,.44-.01.49.02l.41.24.38.23.13-.15c-.13-.4,0-1.14.66-.96,5.29,1.94,4.96.07,8.97,2.85l1.63,1.13.92.63c.14.09.57.24.78.31l.5.17.58.2c.18.06.68.13.72-.05.03-.13.1-.53.15-.67l1.07-3.11c.05-.15.13-.38.15-.47l.92-3.48.31-1.45c.11-.49.48-1.41.65-1.93.36-1.1.06-4.59,2.18-9.57l1.03-2.42c.25-.59,1-1.74,1.46-2.22l4.46-1.41c.42-.13,1.17.17,1.8.41.94.36,2.19-.26,3.26-.15l2.28.24,3.03-.09c3.08-.1,1.22.26,5.15-.14l4.02-.41c.7-.07,1.71-.29,2.33-.31l5.73-.16,2.33-.27,1.5-.11,1.07-.08.85-.06,3.73-.32c.41-.04,1.14-.11,1.5-.24l.95-.34,4.58-.92c1.27-.25,2.6-.94,3.95-1.44.03-.3.07-1.15-.01-1.45l-.73-2.73c-.4-1.51.4-2.64.29-5.32-.03-.8-1.05-3.45-1.09-4.79l-.14-4.76c-.03-.97-.61-2.39-.81-3.39l-.7-3.49-.22-1.09c-.02-.09-.29-.26-.41-.34l-.17-.71c-.02-.08-.01-.6,0-.69l.12-.6c.01-.06.2-.37.25-.42l.32-.34c.05-.05.25-.34.26-.4l.05-.61.06-.7c.07-.84.18-1.33.17-1.19l.45-5.67c0-.09.26-.56.31-.59l.37-.28s.2-.33.2-.38l-.03-.94-.02-.67-.35-.5-.28-.4s-.11-.4-.1-.46l.11-.5c.34-1.52-.24-1.28-.31-1.77l-.32-2.12c-.01-.09,0-.64.03-.72l.53-.95c.37-.67.64,1.84.84.82l.14-.71.1-.55.1-.6.11-.62c.02-.1.11-.37.16-.51l.15-.43c.02-.07.02-.27.02-.38v-.47c.01-.06.09-.38.12-.42l.27-.38c.04-.06.21-.4.2-.47l-.09-.6c0-.06-.32-.29-.37-.31l-.5-.19-.47-.18c-.13-.05-.43-.17-.43-.17,0,0,0-.37-.01-.53.04,0,.3.02.48.04l.46.03s.2-.1.2-.14l.13-.73c-.12-.14-.25-.31-.21-.26-.22.25-.33.43-.38.46-.29.18-.67.32-.8-.14l-.16-.56-.15-.53c-.02-.07-.05-.49-.03-.56l.12-.57.13-.58.09-.57v-.66s-.01-.69-.01-.69c0-.4-.1-.73-.2-1.14l-.14-.53-.14-.53c-.01-.05-.05-.41-.05-.49l.02-.43c0-.13.03-.4.01-.45l-.15-.48-.16-.5c-.18-.56-.2-.51-.2-1.13v-.69s-.01-.72-.01-.72c0-.69-.07-.61-.29-1.03l-.21-.41s-.03-.35-.02-.41l.09-.54.1-.6v-.66s0-.69,0-.69v-.69c.01-.87-.04-.38.14-1.19.44-1.96-1.69-7.48-1.24-9.55l.32-1.47s.57-5.84.39-6.85c-.29-1.68-1.2-2.41-3.05-2.45s-6.82-1.06-8.84-1.47l-5.15-1.06c-2.62-.54-5.14-1.49-7.81-1.85l-5.06-.68c-3.39-.46-3.73-.85-6.37-1.02l-3.42-.22-3.9-.25-2.45-.24-4.26-.35c-.96-.08-2.11.06-3.15.07l-2.09.03c-1.73.02-3.58.49-5.25,1.06l-3.56,1.22c-.44.15-1.14.66-1.61.97l-2.67,1.75-2.28,1.38-2.71,1.78c-.69.45-1.88,1.55-2.49,2.02-.33.26-1,.25-1.39.86l-2.17,3.4-1.42,1.98-1.81,2.57c-.72,1.02-1.34,2.29-2.13,3.22l-1.56,1.85-.78.91-1.22,1.45-2.26,2.82c-4.52,5.63-5,9.09-8.14,13.01l-1.24,1.55c-.49.61-.82,1.39-1.15,2.19l-1.47,3.5c-.99,2.36-.31.44-1.02,2.03l-1.36,3.04c-.89,1.99-1.97,4.46-3.52,5.87-.51,1.57-1.35,3.66-2.11,5.21l-.61,1.23c-.59,1.21-1.34,2.43-2.11,3.54l-1.11,1.61-2.79,3.96c-1.37,1.95-2.54,3.99-3.29,6.1-1.17,2.18-.75.91-2.2,3.2l-1.05,1.65-.62,1.08-1.68,2.66-1.82,2.93c-1.01,1.63-1.95,3.22-2.84,4.93l-1.47,2.83c-.17.27-.7.88-.86,1.14-2.21,3.7-2.95,3.82-5.41,8.4l-.95,1.77c-.34.64-.68,1.33-.99,2.01l-1.27,2.75-.64,1.41-1.4,2.76c-.31.62-1.57,1.42-2.03,1.88-.39.95-.86,2.04-1.42,2.93l-1.59,2.53-1.4,2.32c-.54.9-.94.26-.87,1.29l.04.53c0,.06-.09.49-.13.54l-.28.48c-1.68,2.81-.17.92-1.65,3.93l-.57,1.16c-.33.66-.65,1.34-1.04,1.95l-1.07,1.66-1.48,2.24-1.21,1.83c-.35.53-.93,1.24-1.21,1.74l-1.61,2.84-2.77,5.28c-1.09,2.08-2.71,3.78-4.06,5.68-.34.48-.61.96-.93,1.08-.19.07-.5.18-.51.22l-.64,1.99-1.08,3.7c-.25.87-.6,1.8-1.11,2.55l-1.87,2.76c-.15.22-.78.71-.89.93-1.62,3.16-1.85,1.07-3.03,4.65-.13.39-.43,1.01-.64,1.32l-1.53,2.27-1.36,1.95c-.49.7-1.48,4.04-4.04,7.45l-1.17,1.57c-.52.7-1.2,1.57-1.64,2.32l-3.48,6c-.6,1.04-1.23,2.15-1.73,3.22-.55,1.18-.52,1.89-1.99,3.77l-1.26,1.61c-1.41,1.8.13.02-1.7,2.87l-1.86,2.89-.9,1.43-1.17,1.87-1.38,2.37c-.52.88-1.09,1.78-1.67,2.64l-1.23,1.81-1.11,1.6-1.55,2.14c-.26.36-.58.81-.79,1.17l-1.78,2.99c-.47.79-.86,1.87-1.27,2.79-1.6,3.54-1.78,2.64-3.93,5.78l-1.51,2.2-1.91,2.84-1.84,2.83c-.2.31-.47.73-.62,1.03l-1.55,3.18-1.47,3.2c-.43.94-.82,1.9-1.36,2.68l-1.14,1.61-1.11,1.55-2.33,3.43c-.29.42-.79.95-1,1.33l-1.35,2.42-.94,1.76c-1.2,2.24-2.25,4.43-3.31,6.75-.7,1.53-1.42,2.97-2.29,4.42l-2.02,3.37c-.75,1.25.13.06-.46,1.04l-1.74,2.91c-.54.91-.1.8-1.16,3.13-1.56,3.43-1,4.3-1.99,6.05l-1.36,2.41-1.46,2.93-1,2.01-.82,1.85-2.09,3.91-1.95,3.74-1.94,3.83-.99,2.01-1.4,3.02-.5,1.17-.78,1.89c-.56,1.36-1.25,2.51-1.93,3.83l-.94,1.81-3.65,6.34-2.47,4.98-.54,1.19-2.57,5.56-1.36,2.59-1.84,3.54-1.06,1.99c-.66,1.24-1.35,2.48-1.94,3.73l-2.5,5.33c.17-.36-1.69,3.01-1.46,2.52l-1.45,3.04c-.28.59-.58,1.21-.78,1.81l-.4,1.21c1.78-5.46-1.61,3.65-.47,1.06-.33.35-.96,1.02-1.17,1.39l-.31.55c-1.26,2.19-.69,2.74-1.84,5.06l-.89,1.8c-.05.1-.21.34-.29.48l-.47.72s.04.44.01.49l-.22.38-.28.39-.3.39c-1.77,2.35-.25,1.31-1.1,2.6-.41.62-1.11,1.58-1.45,2.19l-1.11,2.01-.96,1.73c-.96,1.73-.46,1.12-1.77,2.2l-2.28,4.43-1.8,3.61c-.13.25-.68.69-.91.8l-1.88.94c-.45.22-1.57.29-2.03.12l-2.21-.78c-.46-.16-.38-1.25-.06-1.73l2.28-3.49,3-4.73c1.33-2.1,2.52-4.17,3.73-6.34l2.06-3.69c.41-.73.96-1.62,1.26-2.34l1.31-3.12,1.65-4.06.94-2.42,1.32-3.07,1.16-2.87c.36-.88.62-1.95,1.02-2.75.82-1.65,1.54-3.13,2.26-4.8.25-.58.55-1.31.85-1.81l2.14-3.56,1.66-2.78c.75-1.25,1.4-2.62,2.05-3.96l.99-2.04,1.21-2.49,1.81-3.91c.35-.76.66-1.63,1.04-2.34l1.66-3.06c.35-.65.73-1.31,1.11-1.94l1.54-2.52c.32-.53.86-1.34,1.08-1.84l1.49-3.35,1-2.07c.13-.27.66-.86.74-1.14.32-1.07.99-2.92,1.4-3.75l3.03-6.08.56-1.03,1.52-2.87.52-1.21c.87-2.03,1.9-3.89,2.97-5.78l2.32-4.09c.81-1.42,1.34-2.98,1.88-4.53l.8-2.25,1.09-2.86c.29-.77.67-1.55,1.07-2.27l.98-1.77,2.22-3.85c.5-.87,1.09-1.92,1.46-2.81l1.72-4.08c.31-.74.61-1.77.97-2.42l1.21-2.18,1.74-3,1.46-2.51c.8-1.39.31.29,1.8-1.93l1.62-2.41,1.21-1.85c.13-.2.32-.56.48-.83l1.37-2.38c1.22-2.13.49-1.41,2.24-4.73l.72-1.37.6-1.14c2.07-3.94,1.21-1.63,2.33-3.44l.79-1.28,2.07-3.16,1.23-1.82,1.48-2.22,1.98-3.09c.94-1.47-.2-.63,1.2-3.11l1.13-2.02c.39-.7.93-1.54,1.4-2.23l5.09-7.39c1.02-1.48,1.51-3.16,2.86-5.18l3.38-5.08c.25-.38.72-.93,1.03-1.31,1.9-2.34,2.34-3.05,3.78-5.65l1.79-3.25,1.92-3.47c.23-.42.5-.89.75-1.25l1.79-2.64c.37-.54.89-1.18,1.19-1.73l1.11-1.98c1.73-3.09,1.74-2.61,3.13-4.97l.98-1.65.72-1.73c.54-1.29,1.48-2.54,2.3-3.71l1.11-1.58,1.75-2.62.8-1.24.84-1.22c.3-.43.96-1.34,1.15-1.86l1.31-3.78c.18-.52.56-1.66.9-2.12l2.83-3.86,1.19-2.13,1.45-1.97,1.58-2.15c2.4-3.26.48-1.8,2.3-4.69l1.18-1.86,1.5-2.54c.36-.62.78-1.25,1.2-1.85l2.61-3.77c1.07-1.54,2.2-3.33,3.38-4.65.14-.15.44-.7.55-.89.07-.11-.19-.46-.29-.55l-.38-.35c-.26-.25.17-.79.23-.88l1.18-1.9c.31-.51.91-1.14,1.35-1.56,1.24-1.15-.37-.43,1.07-2.93l2.75-4.77c.42-.74,1.21-1.67,1.52-2.4l.93-2.17c.43-1.01.9-1.99,1.39-2.97l1.04-2.04c.83-1.63,1.39-2.05,2.87-4.56,1.2-2.04,2.01-2.2,2.79-3.8l1.26-2.58c.64-1.31,1.95-3.81,3.5-4.19.29-.07.86-.31.79-.55l-.19-.67c-.02-.07-.06-.59-.02-.65l.95-1.95.24-.49.25-.4.25-.43.29-.34.33-.38s.42-.38.46-.46l3.41-5.57c.05-.08.25-1.13.34-1.32l1.48-3.09c.08-.17.23-.48.27-.54l1.58-2.32.13-.69,1.02-1.55c.41-.62.81-1.17,1.26-1.79l1.03-1.39c.18-.25.7-.3,1.27-.28,1.48.05.5-2.09,1.2-2.91l.3-.35.31-.37.32-.38.28-.34.3-.4.29-.38c.68-.89.16-.05.48-.89l.8-2.08c.33-.84.17.42.86-1.26l.9-2.18.87-2.05c-.17.39,1.28-1.4,2.51-4.65l.92-2.43c.03-.08.11-.48.12-.56l.13-.97c.02-.13-.45-.18-.62-.18l-4.37-.1-.46.28c-.06.04-.46.08-.52.06l-.54-.12-.55-.12-.57-.12-.55-.12-.55-.13-.53-.12c-.16-.04-.4-.1-.46-.1l-.42-.02c-.07,0-.3,0-.38,0l-.43.07-.53.08-.61.09c-.19.03-.39.06-.57.09l-.57.11-.6.12c-.72.14-2.87-.62-6.7-.09-.1.01-.58.03-.65-.01-2.17-1.21-1.87-.06-2.57,0l-2.38.22c-.56.05-1.14.11-1.63.06l-2.78-.25c-1.19-.11-.29.77-3.06.79l-2.45.02c-.46,0-1.19.13-1.69.16l-4.2.28c-.42.03-1.05-.03-1.54-.04l-2.26-.08-5.07-.11c-1.68-.04-4.4.73-7.07.87l-3.69.2-2.72.22-4.65.22c-.99.05-2.05.22-3.04.22l-5.22.04c-1.2,0-2.34.13-3.6.19l-2.92.14c-.23.01-.89.25-1.1.38-2.12,1.41-.47-.17-4.72.51l-2.02.33c-1.15.19-.21-1-3.52-.43-1.22.21-2.43.18-3.65.05l-1.01-.11c-.05,0-.3.37-.4.51l-3.95-.75c-.68-.13-2.95,1.62-3.73.54-.35-.49-.81-1.11-1.18-1.13-.93-.04-1.26.75-1.7,1.47l-2.4,3.86-1.49,3.92c-1.38,3.65-.75,1.42-1.78,3.9l-.73,1.74c-.97,2.32-.61,2.43-1.53,3.81l-1.23,1.84-1.33,1.99-1.23,1.86c-.36.55-.74,1.31-1.07,1.99-1.39,2.89-.27,1.26-1.67,3.66-.86,1.48-.11.86-.9,1.44l-.41.3-.38.28-.66.48c-.09.06.45.25.54.33l.34.3-.19.29-.24.38-.26.42c-.09.14-.19.34-.26.42l-.31.36-.31.37-.33.39-1.35,1.57s-.23.43-.25.48l-.18.46-.2.5-.2.51c-.23.6-.09.31-.45.87l-.26.4-.27.41-.26.4-.25.39-.26.4-.21.51-.19.47c-.03.08-.2.28-.29.4l-.27.37-.28.42-.28.42-.26.38s-.12.24-.12.29v.37c.01.11,0,.29.02.34l.13.3c.15.35.25.35.03.77l-.23.44-.23.45-.23.45c-.13.26-.32.63-.58.76l-.44.23-.45.23c-.07.03-.24.24-.35.35l-.33.32-.11.19.49.26.29.32c-1.34,2.23-2.06,1.29-3.43,3.89l-.23.43c-.07.14-.22.4-.25.47l-.69,1.78c-.17.45-.78,1.27-1.15,1.75-1.88,2.51-.1.08-1.36,2.35-.29.53-.23.23-.54.81l-2.06,3.88c-.96,1.8.89-.16-.99,2.04.08-.09-.65.46-.25.96l.3.39.32.38-.67-.13c-.89-.17-.17,1.64-.85,1.68l-.49.03c-.44.03-1.2.91-1,1.19l.76.35c.15.07-.09.55-.25.51-.12-.03-.67-.1-.81-.08-.53.1-1.36,1.2-1.16,1.68l.27.64.19.46s.05.22.03.25l-.26.33-.31.38c-.62.76-.31.35-1.07.95-.24.19.09,1.15.11,1.11l-1.59,2.66c-.2.33-.48.25-.67.3l-.48.6c-1.38.83-.1-.16-1.6,2.43l-1.12,1.94c-.53.92-1.77,1.18-.99,2.48.34.58.11,1.03-.34,1.61l-1.29,1.7c-.22.29-.67.45-.9.54l-.49.2c-.06.02-.35.21-.37.26l-.2.48-.21.49c-.03.06-.18.35-.23.4l-.42.45-2.68,4.19c-1.4,2.18-.03,0-1.02,2.05-.19.38-.4.6-.51.81l-1.68,3.07-1.54,2.81-1.91,3.48c-.33.61-.8,1.64-1,2.31l-.94,3.15-1.09.35c-.62,1.02-1.23,2.12-1.74,3.24l-.77,1.68c-.26.56-.75,1.25-1.07,1.84l-1.31,2.39c-.35.64-.68,1.37-1.1,1.92l-1.87,2.45c-1.06,1.39.27,1.03-1.13,2.45l-.22,1.47c-.28,1.91-1.48.85-1.65,2.21l-.24,1.91c-.02.17-.14.64-.17.77s-.54.25-.52.12c.07-.38.16-.67.04-1.08l-.51.02s-.17.27-.17.31l-.02.35c-.02.29,0,.57-.15.95l-.22.53c-.04.08-.14.29-.21.41l-.23.42c-.55,1.02.25.6-.43,1.6l-.27.39-.27.4-.29.4-.27.39-.29.39-.22.43-.23.47-.22.44-.22.45-.23.49-.24.39c-.13.21-.7.71-1.09.9l-.47.23c-.64.31-.38,0-.66.66l-.22.51c-.26.6.03.27-.51.8l-.34.34-.34.34c-.1.09-.29.26-.33.33l-.27.41-.27.4-.27.39c-.09.13-.25.33-.28.4l-.17.49-.19.54c-.04.1-.13.38-.18.44l-.28.39-.28.38-.23.47-.22.45-.3.38-.29.36-.24.44c-.04.07-.12.32-.19.49l-.19.51-.18.47c-.03.07-.2.27-.29.39l-.3.39c-.05.06-.2.3-.24.36l-.25.47-.24.45-.23.42-.24.42c-.08.14-.21.35-.24.42l-.2.49c-.03.08-.06.38-.09.58l-.1.61c-.15.91-.89.37-1.19,1.43l-.17.61c-.35,1.22-.1,0-.53,1.39l-.18.58c-.02.06-.19.33-.24.38l-.34.35c-.09.09-.29.28-.32.34l-.25.45-.23.42-.23.43-.24.45-.25.46-.23.43-.23.43c-.05.09-.17.32-.19.38l-.22.56-.2.49-.18.46-.19.51-.23.44c-.03.06-.26.22-.37.31l-.36.3c-.26.21-1.13,1.81-1.39,2.41l-.16.35-.21.49c-.07.17-.18.41-.22.49l-1.08,2.03-1.08,1.9-1.45,2.57s0,.52-.01.56l-1.28,2.88-1.19,1.72-.89,2.21c-.46,1.14-1.08,2.29-1.79,3.26-1.18,1.61.37.78-1.2,2.31-1.19,1.17.65.55-1.18,2.43l-.95,2.02c-.18.24-.82.85-.96,1.13l-.96,2.03c-.26.55-.65,1.63-.85,2.12-.02.06-.46.36-.49.41l-.96,2.04c-.1.21-1.47,2.17-2.3,3.66l-.82,1.49-1.09,2.02c-.58,1.07-1.21,2.17-1.64,3.28-1.54,4-1.23,1.55-2.5,4.89-.29.76-.56,1.64-.9,2.2-.55.89-.8,1.58-1.37,2.46l-1.13,1.74-1.45,3.3-.47.88-1.58,3.75c-.33.78-.65,1.62-1.02,2.36l-3.13,6.32c-.39.78-.77,1.73-1.12,2.57l-1.38,3.32-1.71,4.07-1.38,3.01-1.43,3.01-1.64,3.79-1.04,1.93c-1.5,2.79-1.31,3.97-2.51,5.55l-.61,1.37-1.61,2.84c-.13.23-.24.78-.33,1.16-.11.47-.74,1.26-.96,1.78l-.94,2.15c-.1.22-.67.7-.79.9l-.76,1.28c-.1.17-.38.6-.37.75l.02.42-.26.55-1,2.11c-.84,1.77-.8-.34-3.1,5.24-.24.57-.52,1.44-.8,1.84l-1.55,2.19c-.13.19-.34.72-.4.92l-.68,2.43-.37,1.29c-1.08,3.73-1.08.77-2.14,3.93l-.77,2.28c-.24.7-.53,1.47-.87,2.09l-.84,1.51c-1.67,1.24-.53,2.28-2.18,3.5-.53,3.61-1.37,2.24-1.75,4.35l-.47,2.59c-.23.3-.82,1.03-.99,1.35l-1.04,1.99c-.26.5-1.33,3.48-1.63,4.4l-.44,1.33c-1.63,4.9-1.87,2.76-2.74,6.7-.18.8-.53,1.73-.92,2.36l-1.2,1.95c-.14.23-.34.5-.58.81-1.51,2.01.73-.42-1.74,2.96-.33.45-.6,1.39-.89,2.1-.57,1.4-1.18,1.34-1.47,2.81l-.24,1.22-1.45,3.87-.53,1.32c-.16.39-.73,1.2-.86,1.61-.23.72-.38,1.77-.71,2.45l-.94,1.93-1.2,3.21c-.17.46-.45,1.06-.66,1.44l-.96,1.76c-.56,1.03-1.03,2.12-1.48,3.22l-.96,2.37-2.1,4.92c-.36.84-.71,1.82-1.03,2.73l-1.17,3.27-1.46,3.91c-1.53,4.1-.34,2.58-2.51,6.15-.82,1.35-1.61,2.61-2.57,3.89-.82,1.09-1.37,2.23-2,3.44-1.22,2.35-2.68,4.54-3.6,7.05-.38,1.03-1.07,1.87-1.51,2.81l-1.73,3.72-.89,2.15-1.35,3.14-1.37,2.97-.86,2.11-.86,2.18c.14-.36-.72,1.5.21,1.39l1.77-.21,3.44-.39,3.75-.3,2.59-.21c3.31-.27,1.01.11,2.81.1s4.11.18,5.89-.16c2.08-.4,3.8-.67,5.91-.29,5.37.99,3.73,1.4,10.7,1.89.61.04,1.78.42,2.33.39l3.43-.18c2.54-.13,3.67-.96,8.03-1.43l2.37-.26c.27-.03,1.04-.5,1.32-.58,1.5-.45,3.01,1.13,4.24,1.38,4.4.9,8.54,2.14,12.98,2.23l4.63.1,3.01.39c1.67.22,3.03.64,3.71.61l.75-.04.73-.04c.75-.04,1.05.61,1.33.58l.53-.06c2.78-.3.98.2,2.51.05,3.71-.35,8.63-.4,12.05.45l-.61,1.06c-.09.16.4.78.59.8l3.02.24.92.07c.18.01.27-.59.1-.62l-.94-.19-.59-.12c-.06-.01-.39-.16-.44-.2l-.41-.29-.13-.22c.1-.03.57-.2.65-.19l3.07.46c.77.12,2.1.47,2.48,1.08-.97.04-1.7.01-2.62-.05l-.64-.04.04.5c1.71.83,2.18.11,4.49.73l2.34.63c.06.02.42-.24.63-.37.31-.2-.75-.67-.8-.68l-1.94-.23s-1.57-.49-.99-.9l.58-.09c.07-.01.51.09.57.12l.46.22c1.07.51.23.05,1.79.2l.57.06.65.06.62.07.58.08c1.87.25.73-.26,1.89.13l.39.13c.32.11.48-.2.73-.22l4.5-.48c1.9-.2,3.66.09,5.45.04l2.71-.09c-.23,0,1.88,0,1.17.1.4-.06-1.81,2.37,6.03,1.87l.56-.04c4.43-.28,3.94.24,4.95.2l5.02-.22,3.45-.22c3.84-.25,1.05-.28,3.2-.49l1.56-.15,3.99-.36,2.23-.17c.43-.03,1.11-.11,1.55-.11l9.56-.1,1.53-.25,3.97-.1c1.5-.04,2.8-.45,4.65-.8.59.29.21.03-.33-.31l-.48.06-.53.06-.62.07c-.4.05-.87-.01-1.13-.31l-.38-.43-.19.3-.27.42s-.22.09-.26.08l-.52-.05-.62-.08c-.1-.01-.52,0-.67.01l-.62.07-.51.07c-.24.03-.42-.35-.51-.48-.02-.02.24-.34.28-.36l.45-.16c.06-.02.39-.01.46,0l.54.1.58.11.53.1c.55.1.36-.44,1.81-.38l.55.02h.44s.45-.04.45-.04l.6-.08c.51-.07.58-.09,1.08-.26l.5-.17.5-.17.51-.17.5-.17.51-.18c1.06-.37,1.57-.13,1.86-.17l5.01-.64.66-.08c.12-.01.44,0,.67,0h.67s.67,0,.67,0c.62,0,.73-.03,1.24.08l.57.13c.57.13.6.16,1.24.14l.63-.02c.08,0,.39-.09.57-.13l.57-.12c.11-.02.49-.1.58-.1h.67s.67.03.67.03h.68s.62.02.62.02c.06,0,.46.14.53.18l.43.3.33.24-.25.13-.59.21c-.15.05-.43.14-.5.18l-.42.27.14.26c.06.03.33.17.38.17l.61-.04c.13,0,.47-.1.55-.1l.52.04c3.13.25,1.62-.21,3.57-.37l3.87-.33c.06,0,.51-.31.56-.31l.43.02c.88.03,1.88.04,2.77-.1l1.18-.19,4.43-.65,2.66-.39c1-.15,2.04-.21,3.09-.29l2.03-.15,1.92-.17,3.34-.07,1.94-.06,2.02-.06c.87-.02,1.87-.12,2.8-.22l1.78-.19,2.93-.23c.31-.02,1.15.13,1.45.1l3.54-.44c.21-.03.78.02,1.03.03l2.24.11c4.64.24,2.41-.57,9.36,0,4.81.38,3.64-.59,7.79-.14.59.06,1.39.16,1.91.14l2.09-.06c1.37-.04,2.62-.04,4.03.02.32.01.85,0,.97-.17.12-.15-.25-1.05-.42-1.01l-1.54.38c-.31.08-1.11.09-1.39-.03l-1.47-.62c-.44-.19-1.35.2-1.93.36l-1.57.44s-.28-.24-.4-.35h-.34c-.46.46-.26.39-.78.24l-.52-.15c-.17-.05-.37-.12-.45-.14l-.37-.06c-.06,0-.28,0-.32,0l-.38.06s-.09-.11-.2-.23v-.61c.11-.13.22-.24.2-.22l.35.04.35.04.48.06.62.07c.09,0,.56,0,.65-.02l.57-.13.56-.12c.1-.02.49-.1.57-.08l.54.1.39.07.35.06.46.09c.11.02.47.04.56.04h.78c.09,0,.49-.03.57-.04l.59-.13.58-.12c.74-.16.46-.1,1.16.01l.51.09c.47.08.43,0,.98-.08l.6-.1h.67s.67,0,.67,0h.69s.68.01.68.01h.72c.07.02.36.06.47.08l.4.07.35.06c.06.01.34.01.45,0l.52-.04.47-.03c.05,0,.21.1.31.15l.42.25.46.27.02.38-.56.11-.59.11-.54.1c-.46.09-.82-.03-1.44-.63l-2.02.83c-.07.03-.62-.14-.69-.17l-.45-.21-.47-.22c-.21.24-.71.25-.43,1.13,0,.03.36.32.36.31.72.18.34-.49,3.59-.31,1.39.08,2.76.16,4.05.16h3.25s.34-.25.39-.25l1.41-.03c2.33-.04.99.18,2.66.19l3.03.03c1.98.02,4.62-.01,6.48.43,1.23.29-.15-.23,1.68-.27.06,0,.42.35.48.34.49-.05,1.56-.17,2.14-.18l8.41-.02h.51c2.81.82.45-.54,2.71.43.52.22,1.51.02,2.15-.01,1.49-.09,2.97-.12,4.48-.31l2.68-.35c.44-.03,1.53.24,1.95.19l2.73-.35c.66-.08,1.41-.03,2.11,0,4.31.19,6.3-.07,10.04.02,3.39.09,6.66.1,10.05-.01.93-.03,2.04-.35,2.95-.18,1.01.19,1.92.23,2.83.09l1.9-.29c3.1-.47,3.36.06,7.18.04l4.36-.02c.13,0,.7-.44.82-.51s-.24-.2-.37-.21l-.62-.02c-.07,0-.57-.15-.65-.15l-2.38.04c-.09,0-.36-.02-.54-.03l-.67-.05c-2.27-.17-2.13-.88-4.56-.48-.04,0-.49-.34-.45-.36.4-.22,1.32-.42,1.78-.43l2.3-.02,2.89-.02,3.13-.03c3.35-.03,2.38-.65,6.26-.25l2.47.26,1.26.13c.16.02.54.26.68.34.09.06-.16.45-.27.46l-.96.1c-.07,0-.6.21-.72.21l-4.73.06-1.86.07.1.58.64.35,2.78-.09c.95-.03,1.78-.04,2.74.02l2.66.15c.11,0,.65,0,.7-.06l.6-.59s-.13-.48-.1-.52l.28-.44,1.06,1.11c2.72.41,1.85-.22,4.68.04.3.03,1.22-.27,1.11-.56-.43-1.14-2-1.26-2.98-.82-.58.26-1.17.4-2.03.63l-.61-.63.5-.36c.08-.06.4-.34.46-.35l2.27-.32c.05,0,.75.59.78.43-.05.2.43-.48.86-.51l4.03-.24c.45-.03,1.17-.15,1.12.1l-.15.9-.81,1c2.67.57,1.2-.07,4.65.27,1.43.14,2.74.16,4.14.12l2.43-.08c1.03-.03,2.5.4,3.59.44l4.38.15,2.09.07,1.28.05c1.33-.58,2.65-.61,4.11-.26l1.63-.12,2.65.3c.15.02.4-.67.25-.65l-.4.04c-.6-.4-.77-.51-1.47-.51h-.7s-.72,0-.72,0c-1.04,0-1.92-.6-1.6-.83l.65-.47c.06-.05.52-.06.64-.05h.69s.67.01.67.01h.67s.67,0,.67,0h.67s.67,0,.67,0h.67s.66.01.66.01c.1,0,.48-.07.57-.09l.58-.13c.99-.22.29-.16,1.14-.04l.54.07c.48.07.29.07.96-.07l.56-.12.56-.13c1.72-.39,1.5.29,2.17.18l.64-.1c1.75-.28,4.92-.12,3.82.36l2.21-.96c.07-.03.58.03.66.06l.53.14,3.62.38-.8.29c-.11.04-.14.25-.06.33l.42.44c-1.25.09-1.97.06-2.89-.17-.08,0-.35.06-.55.1l-.55.11c-.09.02-.43.12-.53.17l-.46.22c-.43.21-.44.31-.87.22l-.52-.1-.61-.13c-.11-.02-.48,0-.67,0h-.69s-.67-.02-.67-.02c-.22,0-.56.01-.66,0l-.61-.11c-.06-.01-.32-.12-.52-.2-.34-.61-.56-.94-.45-.31l-.24.75-.1.3,1.08.44c.06.02.42-.05.53-.06l.48-.03.42-.03.47-.03.59-.03.69-.04c.21-.01.45-.02.66-.01h.78c1.66.02,4.68.19,6.21-.43l.44-.18c.08-.04.27-.18.47-.32l-.41-.25-.25-.04-.02-.53c.4-.21,1.37-.71,1.86-.8,2.92.51,4.55-.8,7.33.28.93-.22,1.55-.16,2.4-.14.02,0,4.68-.35,5.2-.4,1.32-.14,2.82-.34,4.03.07,2.91.99,1.86-.53,3.43.29.19.1.4.29.5.23,1.37-.9,4.15-.8,5.9-.61,3.53.39,3.07.69,5.99.6.26,0,.79.21.87.32.13.09.27.17.31.17l.56-.08s.32.06.36.09l.59.4c.18.12-.01-.54.33-.57l.62-.05.68-.06.57-.05c.57-.05.19-.12.71.17l.41.23c.16.09.34.19.4.22l1.63-.05c.55,1.22,1.73.97,2.75.59l2.34-.88c.05-.02.48,0,.53.02,3.36,1.95,1.82-.67,4.99.34,2.57.82,3.41-1.18,4.9-.21.17.11.59.33.76.38l2.12.68,1.28-.11.11-.85.47-.22.91.12c.07,0,.42-.08.59-.12l.59-.13c.11-.02.37-.06.54-.08l.6-.07c1.19-.13.89.07,1.46.03l.57-.04.52-.05s.25.06.28.1l.37.44c.85-.2,1.94-.45,2.88-.47l3.36-.09c2.92-.08.22.01,2.91.21l2.29.16c1.31.09,2.8-.83,4.13.23.08-.05.5-.33.61-.35l1.83-.31c1.85-.32.99,1.08,2.75.2.91-.45,1.72-.61,2.69-.69l2.47-.2,3.33-.35,5.73-.14,2.29-.28,3-.25c.37-.03,1.39.27,1.76.21l3.64-.61c-.81.14,2.76-.07,2.28.4l-.4.39-.38.37,1.92.19c.08,0,.43,0,.66,0h.67s.67-.02.67-.02h.67s.67-.02.67-.02h.69s.29-.24.51-.43c-.32-.17-1.2-.51-1.59-.42l-.64.15c-.09.02-.56.02-.64.02-.2-.06-.58-.22-.47-.3l.45-.35c.05-.04.46-.21.53-.22l2.62-.32.66-.08c.08-.01.44-.03.53-.02l.56.03.44.03c.07,0,.31-.01.48-.03l.61-.04c.2-.01.42-.02.64-.02h.69s.68-.01.68-.01c.1,0,.46-.05.56-.07l.58-.12.59-.12c.08-.02.48-.03.61-.03h.75c.09,0,.41.04.56.06l.59.08.48.06.48-.06.6-.08c.4-.05.83-.09,1.25-.06l.65.04c.06,0,.28.29.32.35l.26.44c.03.06.42.25.49.24l.68-.09c.6-.08.44,0,.52-.39l.07-.32s.47-.18.54-.18c2.16-.07,5.27-.22,7.38-.44.11-.01.7-.24.78-.24l4.48-.04c1.58-.01,1.97-.17,3.53.53l.35.16,1.19.08c.07,0,.43,0,.49-.01l.85-.22-.5-.43c-.35-.3-.06-1.05-.06-1.05-.02.01.4-.07.61-.07h.59s.76.02.76.02c1.42.05,2.92-.42,4.15-.47l3.23-.15,5.22-.26,2.77-.12.47-.02,3.68-.28c.81-.06,1.98.54,2.78-.03.5-.35,1.22.13,1.63.12l4.98-.19h.67s.73,0,.73,0c2.94.04.6.65,5.35.16.8-.08,3.22.25,4.26.44.26.05.74-.1,1.12-.12l3.36-.17.66-.04c1.41-.08,2.73-.21,4.04-.07l3.45.36,2.22.26c.95.11,2.01.02,2.95.05l6.89.19,1.73.23,3.41.15c.24.01-.08,1.16.16,1.14l1.25-.07c.2-.01-.17-.52-.42-.84-2.23.04,4.33-.57,1.83-.44l5.1-.26c-.27.01,1.04.1,1.24.1,1.47,0,2.87,0,4.35.12,1.14.09,2.38,0,3.54.03,1.6.04,3.15.09,4.73.02l1.76-.07,3.96-.14c1.03-.04,2.06-.12,3.06-.21l4.05-.36,2.99-.19.97-.07c.14-.01-.15-.83-.3-.86-1.9-.39-.99-3.43-.85-4.25l.09-.56.1-.59c.01-.08-.04-.56-.07-.64l-.2-.5-.19-.49c-.06-.14-.03-.51.13-.53.12-.01.48-.11.58-.13.05-.01.28.3.3.35l.22.63.22-.25-.17-.66-.13-.51c-.02-.09.03-.46.03-.51h.5c.74.04.1.23.78-.13l.36-.19c.19-.1.75.2.86.32l.33.37.33.39c.05.06.18.2.23.22l.33.09c.39.11,1.91,2.37,2.94,3.46l2.99,3.16,1.44,1.48s.19.51.19.58l-.02.52c-.01.34-.27,1.16,0,1.3l1.04.55c.54.29,1.21,1.22.74,1.83-1.09,1.41-4.69,1.88-5.85,1.84l-3.25-.11c-.97-.03-2.09.12-3.08.21l-3.2.27-3.46.29-4.43.53c-3,.36-11.46-.24-11.98-.19-1.1.11-2.07.23-3.09.2l-4.05-.11c-.92-.02-2.07-.23-3.01-.18l-2.73.12-2.42.13c-2.3.12-4.61.13-6.94-.01-.74-.05-1.69-.43-2.35-.25-1.38.39-2.47.31-3.8.13l-3.04-.4c-6.06-.79-4.62-.2-9.51-.25l-2.64-.02c-1.98-.02-1.96-.25-4.37-.21l-3.06.06c-1.2.02-2.31-.09-3.64-.35-.79-.16-1.63.05-2.49.12-.8.06-1.93-.15-2.89-.08l-3.06.21-4.01.1-4.72.26-5.35.23c-1.47.06-2.74.12-4.21.08-.57-.02-1.55.06-2.19.16l-5.82.9-2.68.34c-1.06.13-2.28.32-3.36.33l-9.67.12-1.46.29-9.99.05-1.75.29-4.93.09c-.65.01-1.55.24-2.22.49-.4.15-1.52-.23-1.99-.18l-4.22.47-1.85.05-3.58.22-4.11.21c-4.45.23-2.26.62-6.03.7l-3.07.06c-.82.02-1.7,0-2.52.07l-2.18.17-3.07.24c-2.45.19-4.89.18-7.37.08l-2.3-.1c-2.36-.1-2.83-.29-5.58-.07l-2.5.2c-.92.07-1.97.37-2.9.28l-2.24-.21c-2.2-.21-4.45-.13-6.66.04-1.44.11-2.67.02-4.11,0l-10.72-.15h-1.19s-2.87-.09-2.87-.09l-2.06-.08-2.34-.09-2.68-.13-2.68-.11-2.05-.09c-1.54-.06-3.11-.07-4.65.04-4.46.33-2.2-.5-7.45-.28l-2.41.1-1.88-.17-3.42.36c-5.22.55-7.05-.43-12.72,0-.98.08-1.86.13-2.79.14-3.09.05-3.13-.47-4.99-.22-1.03.14-2.18.52-3.09.55l-5.04.17-2.68.28-2.37.07c-1.36.04-2.68.04-4.04-.02l-4.69-.18-3.05-.27h-2.35c-1.81,0-3.6.14-5.39-.02l-4.63-.41c-.42-.04-1.23.05-1.7.08l-2.43.16-3.67.38-2.47.09-5.17.15c-1.34.04-2.74-.05-4.1.07-1.82.16-3.6.3-5.36.12l-2.84-.28c-.97-.1-2.35.32-3.34.33l-15.13.1c-1.03,0-1.95.05-3-.11-.94-.14-1.81-.03-2.74-.02l-11.07.13h-1.5s-4.63,0-4.63,0l-3.07.3-4.65.1-1.89.07-2.97.15c-.43.02-1.4.37-1.84.36l-2.43-.09-2.3-.08-2.71-.1-3.73-.3c-2.2-.18-4.43-.15-6.66-.15h-1.72s-6.72,0-6.72,0l-2.32-.05h-2.05s-1.71.04-1.71.04h-6.35s-2.85-.03-2.85-.03h-1.31c-2.69.01-1.72-.57-5.55-.15-1.01.11-1.85.05-2.87,0-3.32-.17-6.62-.15-9.98-.05s-3.76-.24-7.39.03c-4.08.3-5.58-.45-10.04.03-1.22.13-2.42.41-3.57.45l-3.94.13-2.39.06c-.9.02-4.55.77-6.37.83l-6,.18-2.45.64c-.75.2-1.62.08-2.39.17l-3.01.34-2.98.24-1.72.12c-1.29.09-2.49.32-3.82.56-1.08.19-4.75.43-6.09.35s-2.54,0-3.86.07l-4.27.21c-1.16.06-2.36.26-3.55.44l-2.37.36c-.94.14-1.98.33-2.93.35l-2.34.06-3.1.24-5.64.23c-1.33.05-2.49.14-3.8.09l-1.31.04-5.03.17c-.76.03-1.82.26-2.65.33l-2.74.24-3.09.26-2.18.43-2.36.18c-.75.06-1.48-.02-2.3,0l-2.9.11-18.82.04c-.31,0-.9.23-1.01.33ZM550.55,258.15c-1.32-4.37-1.99-4.71-3.01-8.46l-.98-3.63c-.12-.44-.2-1.54-.64-1.66l-1.81-.53-.26-3c-.17-.17-.05-.04.27.27l.7.18c.8-2.34-.5-1.67-.54-3.37-.01-.37-.03-.9-.08-1.11l-1.01-4.4c-.12-.51-.26-1.48-.49-1.83l-1.34-2.04c-.16-.25-.66-.85-.87-1.1l-.77-3.89c.18-.08.32-.14.24-.1l1.14.64c.07-.94-.67-1.56-1.44-1.93-.39-.23-.56-1.33-.49-1.87.18-1.37-.51-2.65-.94-3.95l-1.68-5.08c-1.08-3.25-1.25-2.91-1.63-5.57-.31-2.16-.94-4.3-1.66-6.34l-1.4-3.98c-.41-1.17-.85-2.2-1.36-3.36-1.4-3.21-1.26-5.97-2.66-9.19l-.84-1.94c-.44-1-.4-2.29-.47-3.36l-.79-2.39-1.21-3.82c-1.27-4,.36-2.49-.69-5.27l-.77-2.03c-.74-1.94-.92-3.96-1.45-5.97l-.94-3.54c-.19-.73-.15-1.39-.42-2.01-.42-.98-.86-1.96-1.12-2.84l-1.07-3.6c-.3-.99-.3-2.39-1.1-3.09l-.99.4-1.48-3.14c-.68-1.44-1.25-2.82-1.67-4.39l-1-3.73c-1-3.73.23-2.36-1.2-3.98.49-.63.93-1.72.63-2.61l-.7-2.11-.65-1.35c-.33-1.58-.65-3.79-1.55-5.02-.91-.26-1.82-.57-2.16-1.35-.81-1.88,1.27-1.84.82-3.29-.1-.31-.89-.48-1.19-.76-3.01-2.79-.67-5.3-4.44-4.89l-2.51.27c-.65.07-3.6.9-3.5,1.74.04.29.19.75.32,1.19l.72,2.47c1.33,4.57.5,4.07,1.29,8.09l1.1,5.59c.21,1.09.5,2.06.83,3.12.36,1.17.61,2.43.9,3.61l.46,1.86,1.08,3.5,1.71,7.15.77,3.37.53,2.62c.14.72.93,1.87,1.17,2.74.25.92.27,1.96.4,2.82.12.75,1,2.01,1.21,2.81l1.06,4.01c.42,1.58.93,3.16,1.27,4.71.7,3.24.16,1.09,1.4,4.72l1.09,3.19c.22.63.47,1.48.67,2.24l1.68,6.48c.32,1.23.86,2.53,1.09,3.85.13.74-.16,2.27.14,2.87l1.47,3c.25.51.79,1.25.78,1.74-.05,3.37-.26.51,1.01,4.28.29.86,1.23,2.06,1.4,2.92l.53,2.73c.83,4.33.64.87,1.43,3.41l.87,2.79c.7,2.24,1.6,4.22,2.26,6.47.91,3.1,1.84,6.1,2.98,9.13l1.21,3.18.84,2.18,1.14,3.15c.36,1,.68,2.01.97,3.03l.54,1.95.66,2.12c1.29,4.17-.12,2.96,1.94,9.66,1.84,6,.21,1.44.92,5.77l.5,3.07c.12.74-.53,1.42-1,1.92-1.15,1.21.38,2.45,1.32,2.98,5.1,2.85,3.78.3,7.4,1.96l.97-.5,2.3.7,1.83.59c.47.15,1.61.4,1.99.13l-.99-2.3,1.37-.38c-.15-.58-.35-1.3-.57-2-1.75-5.36-.74-3.82-1.79-7.29ZM568.99,416.32l.52.48.61.14c.39.09.61.28.86.49l.36.29c.05.04.37.22.44.23l.58.1.6.11c.78.14.73.36,1.05.41,1.11.16,3.2.57,4.41.63l3.04.14,3.3.12.72-.72c.09-.09.46-.08.59-.09s.32-.28.3-.4l-.18-1.04-1.76-2.48-.28-.43-3.04-4.56c-.12-.18-.3-.66-.35-.84-.04-.11.34-.13.51-.14l.37.04-.07-.36c-.02-.08-.13-.3-.27-.63l-.39.24c-.1.06-.74.25-.8.14l-1.29-2.24c-.15-.25-.48-.49-.68-.77l-.26-.37c-1.15-1.6-1.49-.27-4.56-3.15-.69-.65-1.21-1.22-1.83-1.99-2.03-2.56-3.45-1.51-4.18-1.92-.81-.45-2.19-1.58-3.01-2.2l-2.52-1.92c-.54-.41-1.18-.94-1.46-1.44-.65-1.15,1.44-2.53,2.36-3.87.41-.59.8-1.45,1.23-1.8,2.24-1.81,1.06-2.05,3-5.14l1.47-2.34c.45-.71.64-1.7.47-2.52l-.75-3.64c-.36-1.73-.91-3.12-1.78-4.68l-1.53-2.75c-.3-.54-.37-1.99-1.15-1.53-.45.26-1.49.22-1.8-.16l-.69-.81c-.11-.13-.19-.61-.23-.86-.03-.17.46-.11.61-.01l.45.29c.13.08.82.13.76-.01l-.23-.51-.87-1.97c-.05-.12-.14-1.23-.23-1.08l-2.58-.04c-.06,0-.36-.53-.39-.62l-1.33-4.54c-.43-1.47-.84-2.99-1.53-4.24-2.04-3.72-2.15-8.04-3.53-9.99l-1.26-1.78-1.12-2.26-.31-.63c-.05-.11-.51.14-.56.25l-.35.77c-.06.13-.44-.08-.55-.18-.85-.8-1.51-4.39-1.71-5.47l-.55-2.93c-.02-.09.25-.15.31-.07l.34.41.17-1.95.05-.6c0-.21.01-.57-.15-.59-.18-.03-.71-.07-.88-.07h-.76c-.16.01-.27-.5-.34-.7l-.82-2.28-1.67,1.39c-.29.24-1.44.44-1.48.81-.05.52-.12,1.52-.12,1.96l-.03,2.84c-3.98,1.98-2.72-.08-4.12,2.09s-3.96,3.2-6.48,3.7c-1.05.21-2.06.03-3.15-.03l-3.65-.19c-.66-.03-1.82.32-2.54.35-3.6.11-3.79.35-7.08-.47l-4.09-1.03c-1.47-.37-2.89-.87-4.48-.78-3.58.21-3.05-1.01-7.77-1.6l-2.76-.35c-.9-.11-1.89-.51-2.82-.78-.48-.14-1.48-.23-1.98-.41l-2.82-1.05c-1.25-.47-2.58-1.45-3.83-2.07l-2.44-1.21c-3.54-1.76-2.55-2.74-5.42-3.88-.66-.26-1.67-.46-2.26-.92l-3.86-2.96c-2.92-2.23-3.07-2.22-6.21-3.93l-2.42-1.32c-.83-.45-1.71-1.16-2.49-1.79l-2.25-1.83c-3.54-2.88-1.22-1.86-5.92-5.15l-2-1.4c-3.47-2.42-4.68-2.29-7.6-5.83l-5.32-6.46c-1.01-1.23-1.95-2.26-3.25-3.19l-2.58-1.85c-.51-.37-1.34-1.21-1.87-1.75-1.61-1.65-2.59-3.66-3.83-5.65-.5-.81-1.55-1.68-2.14-2.45l-1.2-1.56-1.68-2.05c-1.29-1.58,1.37-.48-2.43-4.25-.96-.95-1.65-1.96-2.26-3.13l-1.39-.3-1.61-1.47c-.8-.73-2.98-3.56-3.76-4.62l-1.3-1.74-2.2-2.93c-1.49-1.98-1.26-1.14-3.1-3.57-.36-.47-1.16-1.28-1.06-1.76.04-.22.19-.96.15-.75-1.02-.26-1.85-.62-2.38-1.14l-1.76-1.73c-.62-.62-1.18-1.28-1.67-2.04-1.77-2.79-.96-2.4-2.71-3.26l-.54-.26c-.1-.05.13-.47.23-.46l.56.04.42.03-.18-.57-.17-.57c-.44-1.48-1.92-.58-2.51-1.5-1.16-1.81-.42-1.02-1.68-3.34s-3.1-4.7-5.1-6.36-.54-3.05-1.33-3.19l-.76-.14c-.21-.04-.51-.1-.52-.1.17.14-.52-2.84-2.81-4.06-3.44-1.82-1.66-4.91-4.37-5.5-.23-.05-.87.29-.99.49l-1.97,3.32c-.75,1.28-.81,3.03-1.4,4.36l-1.03,2.35c-.37.84-.74,1.8-.94,2.68l-.46,2.02c-1.63,2.08-2.95,4.92-3.86,7.62-.24.72-1.35,1.76-1.64,2.41l-.97,2.21-.99,2.1c-.21.46-.35,1.73-.06,2.14l1.53,2.16c2.74,3.87,1.03,4.05,2.54,7.59l1.44,3.35c.32.75.5,1.48.63,2.27l.27,1.37.5,2.5c.33,1.64.59,3.09,1.47,4.72l1.08,2c.62,1.14,1.01,2.47,1.26,3.75l.61,3.12c.19.99.44,2.37.79,3.19l1.85,4.29c.24.55.59,1.32.72,1.88l1.37,6.12c.25,1.13.67,2.36,1.08,3.48l.91,2.48.47,1.28.99,3.12c1.26,3.98-.57.71,1.19,5.38.42,1.11.78,2.39,1.1,3.56l2.08,7.76.98,3.35,1.03,3.38c.95,3.11,1.88,4.04,2.58,6.25l2.45,7.71c.2.64.75,1.5,1.07,2.14l1.06,2.06c.42.81.72,1.97.97,2.92l1.03,3.87,1.59,2.33,1.61,2.17c.41.55.57,2.08.91,2.7l1.35,2.46c1.23,2.25.24,2.14,1.21,2.4,1.79.49.15.87,2.34,3.04,1.56,1.55,2.37,1.89,4.29,2.88l3.51,1.81c.32.17,1.24.21,1.51.43l1.54,1.22c1.25,1,2.46,2.07,3.77,2.92.64.42,1.58.81,2.06,1.28l2.1,2.03,2.52,2.54c.61.62,1.6,1.52,2.3,1.97l3.15,2.03c.45.29,1.28.91,1.67,1.28l5.97,5.84.88.84c.52.5,1.4,1.28,1.98,1.3,2.41.08.45.15,2.72,1.69l3.21,2.18c.5.34,1.22,1.27,1.66,1.67l1.63,1.47,2.65,2.36,1.82,1.57c2.79,2.41,1.53.7,3.46,3.34.73,1,1.46.61,3.59,3.69l2.05,2.96,3.6-1.45c1.28-.52,3.72-.68,5.02-.02,2.82,1.43,4.33,1,7.37.36l4.79-1.01,4.48-.9c.47.75,1.07,2.45,1.79,2.49,1.08.06,2.25-.17,3.28-.25,1.74-.14,3.2-.53,4.5-1.62l2.41-2,1.67-1.39c.37-.3,1.08-.95,1.24-1.33l.65-1.62c-.07-1.27.43-2.29,1.33-3.2l2.51-2.56.87-.86c.95-.94,2.01-1.76,2.88-2.81,1.9-2.29,3.71-4.55,5.93-6.49l2.81-.9c.43-.14,1.38-.59,1.79-.59h6.65s1.99,2.45,1.99,2.45c.78.96,1.53,1.82,2.43,2.63l1.79,1.61c1.01.9,1.1.9,1.66,2.16l1.34,3.06c.15.34.35.83.42,1.21l.65,4.02c.11.69-.61,2.6.34,2.85,3.42.88,5.43-.91,7.69-.62l2.71.35,2.39.32-2.98.31c.46.84,1.42,1.28,2.67.94.37-.1.96-.57,1.45-1.01l.87.49c.23.13.53.44.66.32l.47-.43c.71-.64,7.24-.61,8.67,0l-2.28.39c-.02.18.63.76.91.61,2.15-1.13,2.44.11,3.94-.72.62-.34,1.64-.55,1.88-.02.29.66.53,1.69.42,2.17l-.72,2.97,3.47,1.06-.99.4ZM565.7,351.29l3.05-.76c1.37-.34,3.63-.17,4.55-1.46,1.99-2.77,1.93-2.91,1.41-4.71-.3-1.05-.47-2.17-.68-3.19-.23-1.08-.51-2.1.1-3.01-.21-.06-1.2-.34-1.34-.65l-1.03-2.28c-.53-1.18-1-2.57-1.24-3.77l-.72-3.49c-.17-.84-.08-2.09,0-2.87-1.77-1.21.13-.35-1.6-3.42l-1.87-3.3c-.48-.85-.84-2.17-1.2-3.17l-1.48-4.03c-.25-.67-.85-1.67-1.17-2.42l-1.3-2.97h1.23s-.5-2.06-.5-2.06l-.53-1.96c-.16-.58-.92-2.02-1.55-2.07-2.04-.16-4.31-.16-6.26-.02l-3.79.26c-.65.04-3.79.44-3.92.48l-1.79.6c-.21.07-.31.69-.18.87.65.93.78-1.16,3.11.43l3.03,2.08c.63.43.8,2.16.82,2.87l.02,1.36c.02.91.09,1.73.21,2.81.1.9-1.12,2.42-1.09,3.25l.13,2.81c.03.53.38,1.46.5,2.01l.73,3.42c.18.83.53,1.69.81,2.51.67,2.03.8,4.44,1.84,6.29,2.04,3.63.03.82,1.95,4.15.76,1.32,1.14,2.99,1.27,4.52.7,1.24,1.17,2.61,1.56,4.2l1.19,2.29.9,3.65c.13.55.82,1.58,1.18,2.14.29.45,1.47-.85,3.68-1.4ZM581.37,378.71c.38-.58,2.97-1.6,3.3-1.26.95,1.03,2.43,6.5,2.71,8.29.07.43-.17,1.49-.05,1.91l.52,1.92c.29,1.08.52,2.11.73,3.23l.85,4.52c.09.48.64,1.44.7,1.92.1.81.3,1.72.61,2.36l.3.6c.06.11.58-.15.62-.27l.71-2.17.74-3.73.98-2.73c.27-.75.64-1.54.99-2.27l1.26-2.63c1.38-2.87,1.26-1.55,2.18-4.35-2.71-1.89-1.48-1.47-4.68-2.26l-2.68-3.43c-.51-.65-.8-2.61-1.54-3.02-1.11-.47-2.26-.88-3.07-1.71l-2.87-2.93-.77-1.53-1.38-1.75c-.8-1.02-2.49-1.95-3.06-3.2l-1.91-4.24c-.22-.48-.81-1.25-.94-1.69l-1.01-3.48c-.04-.15-.23-.57-.36-.51s-.54.23-.71.28l-3.37,1.01-4.04,1.11,1.19,1.52c.72.92.99,2.1,1.57,3.19l2.08,3.88c.15.29,1.38,4.13.13,4.64.34.1,1.03.4,1.21.76.56,1.11.62,2.63-.43,3.58l.89.33c-.07-.23.04.14.07.26-1.55,3.32,1.41,2.07-1.04,6.56-.47.86-.97,1.52-1.43,2.32l-1.22,2.11-1.06,1.91,1.36,2.29c.71,1.2,1.02,1.46,3.06,2.21,3.74,1.38,1.56,1.25,4.84,3.31.16.19.56.88.77,1.02l2.27,1.6,3.07,2.65c-.31-2.55-.89-4.34-1.45-6.49l-.9-3.44-1.99-.19c-.97-1.19-1.84-2.91-1.69-4.61.37-4.18,1.44-3.48,3.98-7.41ZM204.29,497.01l5.72-.3c.85-.04,1.79-.22,2.81-.37-2.31-.79-2.67,0-4.28-.28-4.37-.73-2.24,1.23-5.92.08l-1.9.21-2.39.26c-.44.05-1.32.58-1.74.82l1.69.08c3.35-.77,2.35-.3,6.02-.49Z"/>
        <path d="M420.3,62.08c-4.65,3.51-9.15,7.23-15.09,4.44-1.76-.83-2.83-1.94-4.02-3.48-.32-.41-1.1-1.08-1.38-1.53l-1.35-2.11c-1.46-2.27-2.66-5.16-1.97-7.85l.32-.79.23.85c.05.19.78.31.9.15l1.31-1.78s.47.41.55.48l.66-1.24.55,1.94,1.16,3.82c.16.54.39,1.61.66,2.02l2.15,3.25c2.31,3.49,6.7,3.25,9.22,1.55l2.25-1.52,2.21-1.51c.39-.27,1.71-.75,1.88-.3.47,1.27,1.26,3.13-.24,3.61Z"/>
      </g>
    </g>
  </g>
</svg>