<?xml version="1.0" encoding="iso-8859-1"?>
<!-- Generator: Adobe Illustrator 30.2.1, SVG Export Plug-In . SVG Version: 9.03 Build 0)  -->
<svg version="1.1" id="Layer_1" xmlns="http://www.w3.org/2000/svg" xmlns:xlink="http://www.w3.org/1999/xlink" x="0px" y="0px"
	 viewBox="0 0 380.857 375.143" style="enable-background:new 0 0 380.857 375.143;" xml:space="preserve">
<g id="anxMEp.tif">
	<g>
		<path d="M377.146,0l0.85,0.379c0.427,0.19,1.211,0.77,1.638,1.139l0.61,1.422c0.196,0.457,0.564,1.713,0.215,2.091l-1.747,1.896
			c-0.367,1.397-0.711,2.692-1.219,3.968c-0.904,2.274,0.368,0.288-0.238,3.191L376.75,16.5c-0.196,0.935-0.388,1.87-0.628,2.802
			c-0.257,0.997-0.936,2.219-0.928,3.205c0.024,3.262-0.592,3.098-0.667,4.1c-0.063,0.849,0.135,2.149-0.085,2.927
			c-0.77,2.733-0.119,0.699-0.783,3.512c-0.414,1.754-0.203,2.533-0.939,4.776l-0.654,1.992c-0.266,0.81-0.252,1.812-0.396,2.737
			c-0.562,3.626-1.83,7.586-2.703,11.297c-0.785,3.338,0.034,1.187-0.788,4.25l-0.654,2.437l0.208,1.681l-0.449,1.885l-0.519,2.095
			c-0.648,2.613,0.263,2.104-0.036,4.424c-0.128,0.991-0.159,1.977-0.348,2.934l-0.846,4.282l-0.01,1.283l-0.311,2.006l-0.119,2.227
			c-0.047,0.884-0.454,2.019-0.427,2.816c0.025,0.744,0.155,1.478,0.044,2.059l-0.304,1.589c-0.781,4.082-0.094,2.949-1.335,7.729
			c-0.856,3.297-0.182,1.996-0.745,4.959c-0.179,0.942-0.462,1.92-0.548,2.812c-0.093,0.953-0.122,1.798-0.305,2.629
			c-0.474,2.151-0.018,0.514-0.396,3.617l-0.256,2.103l-0.712,2.553l-0.168,3.68l-0.361,2.515c-0.075,0.522-0.004,1.069-0.081,1.505
			l-0.396,2.249l-0.386,2.194c-0.589,3.353-0.203,2.41-0.802,5.358l-0.372,1.831l0.443,0.922c-1.718,3.507-0.082,2.449-1.275,6.407
			c-0.14,0.466-0.193,1.035-0.273,1.505l-0.359,2.12c-0.13,0.766,0.003,2.004-0.178,2.715l-0.938,3.683l-0.519,2.344
			c-0.241,1.088-0.358,2.07-0.46,3.224c-0.293,3.326-0.912,3.06-0.885,6.48c-1.045,2.47-0.688,3.453-1.34,7.199l-0.763,4.38
			c-0.195,1.12,0.227,0.683-0.527,3.774c-0.291,1.195-0.065,2.772-0.254,4.038l-0.735,4.917l-0.249,2.331l-0.142,2.795l-0.283,2.261
			l-0.252,2.088c-0.124,1.029-0.441,2.123-0.727,3.176l-0.529,1.949l-0.033,1.464l-0.504,2.049l-0.635,2.586l-0.472,1.705
			l-0.902,3.771c-0.192,0.801-0.33,1.535-0.533,2.379l-0.968,4.03l-0.503,2.312l-0.526,2.418c-0.872,4.006,0.017,2.475-1.196,5.712
			c-0.221,0.59-0.04,1.91-0.209,2.583l-0.914,3.639c-1.023,4.073-0.92,5.854-1.967,9.424l-0.609,2.078
			c-0.356,1.215-0.673,2.192-0.806,3.54c-0.054,0.547-1.228,3.944-1.345,5.15c-0.123,1.266-0.035,2.103-0.605,3.345
			c-0.293,0.639-0.484,1.779-0.587,2.563l-0.304,2.314l-0.265,2.021c-0.461,3.514-0.99,1.64-0.739,4.508
			c-1.058,2.957-0.324,1.067-0.55,3.226c-0.25,2.397-0.378,1.344-0.911,4.393c-0.051,0.289-0.296,0.926-0.257,1.203
			c0.051,0.364,0.172,1.119,0.151,1.44l-0.1,1.509l-0.554,1.547c-0.244,0.683-0.067,1.479-0.062,2.133l0.021,3.181
			c0.004,0.559-0.053,1.639-0.181,2.159l-0.631,2.569l-0.539,2.383c-0.277,1.224-0.438,2.43-0.517,3.722l-0.115,1.874l-0.095,1.561
			c-0.035,0.575-0.094,1.21-0.196,1.755c-0.674,3.617-0.657,1.145-0.486,3.737l0.163,2.471c0.01,0.154-0.396,0.67-0.541,0.73
			l-2.03,0.838c-0.307,0.127-1.02-0.044-1.253-0.267c-0.839-0.804-0.84-2.913-0.703-4.255l0.1-0.986
			c0.069-0.676,0.412-1.716,0.411-2.356c-0.002-1.285-0.012-2.439,0.133-3.699l0.333-2.88c0.073-0.635,0.34-1.431,0.456-2.06
			l0.624-3.388c0.181-0.982,0.372-1.854,0.621-2.878l-0.118-1.286c0.314-1.228,0.519-2.421,0.644-3.668
			c0.122-0.363,0.541-1.166,0.596-1.546l0.29-2.005c-0.511-1.056-0.736-2.153-0.038-3.284c0.942-1.526,0.036-0.176,0.285-3.005
			l0.223-2.538c0.049-0.553,0.54-1.685,0.659-2.249c0.061-0.287-0.36-1.185-0.135-1.367l1.217-0.981l-0.009-1.642l-0.422-1.222
			l0.731-2.42c0.177-0.584,0.365-1.187,0.363-1.718l-0.005-1.796c-0.002-0.554,0.464-1.62,0.701-2.192l0.732-0.631
			c0.008-0.565,0.019-1.018,0.086-1.435c0.619-3.845-0.237-2.267,0.877-4.049c0.267-0.428,1.064-3.279,1.127-3.643l0.398-2.315
			c0.122-0.71,0.096-1.597-0.067-2.378l0.632-0.737c1.071-1.249-0.276-0.928,0.431-2.015c1.372-2.109-0.107-0.865,0.975-3.924
			c1.087-3.077-0.123-1.579,0.852-5.36c0.243-0.941,0.481-1.861,0.777-2.73l0.668-1.957c0.414-1.211,0.66-2.421,0.845-3.706
			c0.554-3.86,1.066-2.059,1.058-4.623l-0.009-3.065c-0.001-0.335,0.589-1.09,0.684-1.399l0.778-2.525l1.636-6.436
			c0.104-0.409,0.311-1.014,0.33-1.368l0.105-2.02c0.032-0.612-0.076-1.419,0.156-1.926l0.955-2.086
			c0.605-1.321-0.326-2.397,0.601-4.36c-0.044-0.98-0.195-2.133,0.429-3.148l-0.337-2.737l0.189-1.739l0.242-2.314l0.187-3.032
			l0.229-2.345c0.146-0.206,0.74-0.964,0.782-1.352l0.354-3.298l0.451-1.825c0.037-1.31,0.423-2.943,0.935-4.16
			c-0.315-1.799,0.352-3.039,0.526-4.875c0.151-1.596,0.318-3.011,0.622-4.597c0.735-3.838-0.313-1.073,0.483-4.025l0.399-1.478
			c0.245-0.906,0.578-1.761,0.662-2.675c0.247-2.662,0.256-0.773,0.804-4.032l0.339-2.018c0.444-2.638,0.172-2.165,0.585-5.199
			c0.094-0.689-0.005-1.734,0.268-2.477c0.304-0.828,0.76-1.771,0.741-2.48l-0.066-2.449c-0.02-0.732,0.011-1.449,0.199-2.162
			c0.943-3.578,0.183-2.021,0.958-5.593c0.151-0.695,0.296-1.47,0.388-2.171l0.301-2.295l0.263-2.005
			c0.398-3.026,0.546-2.404,0.737-4.806l0.206-2.593l0.192-2.588c0.347-4.681-0.598-2.754,1.428-4.815
			c0.187-0.191-0.15-0.936-0.076-1.189l0.57-1.945c0.665-2.27-0.781-0.055,0.312-4.46c0.171-0.691,0.121-2.008,0.122-2.681
			c0.004-1.604,0.713-0.478,0.509-2.208c-0.071-0.606-0.277-2.946-0.122-3.119l0.949-1.058c-1.17-4.333-0.07-3.701,0.19-6.739
			l0.2-2.33c0.285-3.319,0.856-1.154,0.444-3.499c-0.091-0.516,0.755-1.811,0.772-2.812c-0.031-1.029,0.108-1.86,0.324-2.955
			c0.644-3.266-0.625-3.589,1.145-9.41c0.058-0.19,0.516-0.694,0.573-0.774l-0.148-2.255c-0.092-1.403,0.265-2.794,0.697-4.097
			l0.39-1.175c1.111-1.978-0.597-1.613,0.472-3.14c0.486-0.693,0.678-1.308,0.816-2.086l0.393-2.217l0.538-2.958
			c0.304-1.671,0.768-0.942,0.548-3.458c-0.028-0.318,0.505-0.929,0.582-1.238c0.286-1.163,0.669-2.476,0.884-3.65
			c0.384-2.099-0.061-4.366,0.197-6.485l0.28-2.293c0.156-1.278,0.413-2.567,0.728-3.77c0.746-2.849-0.564-0.549,0.398-3.557
			c0.243-0.759,0.405-1.859,0.763-2.371c1.763-2.524,0.285-0.764,1.227-4.287c0.575-2.151-0.212-0.438,0.416-3.819l0.113-0.61
			c0.017-0.094-1.244-0.499-1.696-0.413l-1.989,0.38c-0.69-0.002-1.395,0-2.063,0.047l-3.087,0.215l-2.331,0.164
			c-2.191,0.154-1.549,0.647-4.796,0.797l-3.969,0.183c-2.815,0.13-0.619-0.17-3.184,0.062c-2.901,0.262-5.135-0.517-8.555-0.091
			l-2.298,0.287c-1.025,0.128-2.053,0.125-3.031,0.183c-0.547,0.032-1.277,0.201-1.838,0.154l-3.069-0.258
			c-0.925-0.078-1.747-0.094-2.695,0.02c-1.327,0.159-2.857,0.016-4.157,0.255c-0.881,0.162-1.707,0.399-2.596,0.442l-2.449,0.119
			l-3.321,0.247l-1.746,0.11c-2.046,0.129-4.136,0.169-6.202-0.003l-2.307-0.192c-0.721-0.06-1.61-0.214-2.26-0.227l-6.596-0.134
			c-0.719-0.015-1.795-0.317-2.516-0.254l-2.63,0.229l-4.24,0.174l-2.892,0.265l-2.867,0.262l-2.84,0.458l-3.96,0.154l-2.864,0.283
			l-2.296,0.211L268.638,9.9l-3.098,0.248c-0.405,0.032-1.057,0.081-1.512,0.08l-17.859-0.029c-0.829-0.001-1.599-0.049-2.401-0.022
			l-5.373,0.179c-2.25,0.075-2.024-0.047-4.588,0.004c-3.615,0.073-0.653,0.349-4.344-0.008c-0.534-0.052-1.608,0.325-2.241,0.415
			l-1.974,0.279l-2.86,0.326l-1.994,0.244l-2.856,0.3l-3.142,0.294l-4.217,0.098l-1.213,0.228l-5.134,0.059
			c-0.457,0.005-1.328,0.3-1.867,0.399c-2.144,0.394-0.899-0.032-3.587,0.052l-5.392,0.169l-2.26,0.21l-2.309,0.184l-2.846,0.176
			l-1.926,0.277l-2.352,0.282l-3.437,0.455c-2.333,0.309-1.897,0.48-4.563,0.846l-2.008,0.275l-2.042,0.283l-1.959,0.28l-2.04,0.291
			l-1.956,0.278l-2.248,0.165l-2.305,0.193c-0.797,0.067-1.523,0.162-2.298,0.257l-1.34,0.164l-2.057,0.231
			c-3.787,0.426-3.405,0.02-7.475,0.909l-2.633,0.576l-2.754,0.583c-0.392,0.083-0.838,0.167-1.233,0.274l-2.029,0.547l-2.374,0.578
			l-3.085,0.9c-1.847,0.539-5.251,1.365-7.142,1.668l-6.394,1.026l-3.946,0.667c-3.857,0.652-1.056-0.443-4.911,0.102l-2.824,0.399
			c-0.937,0.133-1.961,0.446-2.896,0.472l-3.929,0.111l-1.242,0.208l-5.318,0.126l-1.843,0.073
			c-1.718,0.068-3.167,0.237-4.941-0.316c-0.89-0.277-4.131-1.023-4.589,0.291l-0.373,1.069c-0.068,0.196-0.185,0.533-0.186,0.674
			l-0.004,0.575c-1.29,2.913,0.687,0.314-1.276,4.933l-1.012,2.382c-0.101,0.238-0.295,2.659-0.791,4.337l-2.027,6.861
			c-0.847,2.867-1.124,4.67-1.878,7.583l-0.72,2.787l-1.117,3.666c-1.06,3.477-0.379,1.836-1.065,4.609l-0.614,2.483l-1.468,5.938
			l-0.525,2.389c-0.221,1.006-0.35,2.163-0.656,3.105c-0.476,1.466-0.876,2.755-1.148,4.259c-0.43,2.375-1.042,2.8-1.414,4.763
			l-0.385,2.028c-0.071,0.376-0.238,0.862-0.376,1.31c-1.21,3.936,0.437,1.958-1.433,5.965c-0.322,0.691-0.638,1.748-0.839,2.546
			l-1.208,4.808l-0.903,3.765l-0.521,2.041l-0.987,3.279l-0.705,2.144l-1.158,3.394c-0.191,0.559-0.336,1.182-0.497,1.79
			l-1.31,4.938l-0.419,1.579c-0.577,2.173-0.341,3.131-1.151,3.778l-0.425,1.79l-0.733,2.629l-0.657,2.608
			c-0.137,0.546-0.368,1.143-0.549,1.7l-0.91,2.815l-0.492,2.107l-0.605,2.231l-0.39,1.566l-0.689,2.289l-0.581,2.939
			c-0.248,1.254-0.512,2.49-0.963,3.676c-1.322,3.471,0.09,2.206-1.366,6.325l-0.688,1.947c-0.84,2.376,0.343,1.23-0.749,3.218
			c-0.807,1.47,0.523,0.417-0.523,2.308l-0.279,1.753l-0.925,3.956l-0.481,2.057l-0.376,1.531l-0.5,2.352l-0.595,2.852l-0.896,4.25
			c-0.094,0.447-0.081,1.435-0.206,1.838l-0.612,1.972c-0.95,3.06-0.408,3.218-1.51,6.753c-0.837,2.685,0.012,0.984-0.487,2.923
			l-0.537,2.082c-0.775,3.005-0.604,3.706-1.425,6.262l-0.638,1.989c-0.683,2.127,0.141-0.197-0.293,2.707
			c-0.126,0.845-0.282,1.62-0.497,2.397l-0.631,2.283l-0.494,1.786c-0.412,1.49-0.661,2.988-0.986,4.499l-0.33,1.539l-0.428,2.127
			l-0.427,2.48c-0.102,0.596-0.281,1.213-0.428,1.794l-0.641,2.532l-0.76,3.001c-0.088,0.348-0.038,1.184-0.091,1.522l-0.363,2.325
			c-0.055,0.352-0.331,1.04-0.471,1.48c-0.105,0.328-0.107,1.193-0.183,1.546l-1.279,5.904c-0.072,0.33-0.369,1.022-0.557,1.442
			c-0.516,1.155,0.677,0.546-0.119,2.703c-0.826,2.236,0.375,1.476-0.744,3.193l-0.207,1.313c-0.094,0.593-0.285,1.462-0.264,1.947
			c0.217,4.944-0.418,1.246-0.673,4.956c-0.065,0.943-0.307,2.048-0.559,3.016c-0.773,2.96-0.036,0.843-0.762,3.474
			c-0.112,0.407-0.221,1.001-0.276,1.467l-0.306,2.61l-0.209,1.675c-0.097,0.773-0.972,0.279-1.042,1.587
			c-0.048,0.902-0.094,1.804-0.248,2.598l-0.415,2.131l-0.347,1.624l-0.395,1.875c-0.269,1.277-0.673,2.498-1.111,3.715
			c-0.19,0.527-0.236,1.611-0.378,2.199l-0.45,1.854c-0.642,2.645-0.143,2.741-1.031,4.429c-0.895,1.703-0.368,1.982-1.059,4.911
			l-0.81,3.434l-0.514,2.154c-0.422,1.769-0.805,3.34-1.154,5.195c-0.066,0.354-0.355,0.91-0.608,1.335
			c-0.963,1.616-0.013,0.965-0.621,3.56l-0.437,1.863l-0.713,3.07l-0.416,1.864l-1.542,7.06l-0.565,1.856l-1.124,4.9
			c-0.352,1.535-0.051,3.386-0.134,5.075c-0.111,2.256-0.623,0.893-0.425,3.592c0.663,1.204,1.427,4.198,1.572,5.497l0.204,1.823
			c0.255,2.277-0.188,1.184-0.216,3.021l-0.03,1.996c-0.02,1.331,2.526,0.34,2.966,0.214c1.303-0.374,2.423-0.667,3.691-0.957
			l1.65-0.378l3.386-0.747c0.734-0.162,1.583-0.473,2.335-0.511c2.966-0.149,0.59-0.302,3.923-0.789l3.214-0.47
			c0.639-0.094,1.454-0.134,1.95-0.29c2.408-0.756,0.033,0.295,2.192-0.168l2.377-0.51l3.278-0.683
			c1.203-0.251,2.883-0.031,4.148-0.132c0.842-0.067,1.005-0.42,1.679-0.207c1.798,0.569,0.67-0.187,2.117-0.308l2.511-0.21
			l1.297,0.065c0.24,0.012,0.773-0.121,1.032-0.132l3.102-0.126l2.536-0.199c0.167-0.013,0.714,0.109,0.861,0.077l1.776-0.388
			c0.91-0.199,1.103-0.54,1.705-1.65l1.43-2.635l0.895-1.641c0.36-0.66,1.119-0.103,1.087-0.555l-0.048-0.677
			c-0.082-1.153,1.014-0.891,1.089-1.457l0.165-1.252l1.954-2.364c1.334-1.614,0.039-0.425,0.814-1.532l1.137-1.624
			c0.581-0.829,1.424-1.559,1.852-2.405c0.366-0.725,0.587-1.069,1.242-1.245c1.432-0.386,0.345-2.5,1.469-2.363l0.848,0.103
			l0.315-0.587c-0.041-0.933,0.284-1.504,0.865-2.051l1.628-1.532l1.615-1.251c0.722-0.56-0.761-0.955,0.438-1.823
			c0.816-0.591,1.346-1.274,1.918-2.097l0.586-0.844c0.282-0.407,0.682-0.832,1.068-1.169l0.963-0.84
			c0.254-0.222,0.577-0.724,0.818-1.155c0.568-1.018,1.793-1.698,2.519-2.507c0.437-0.488,0.718-1.428,1.59-1.338
			c1.226,0.126-0.434-0.278,1.618-2.114l2.113-1.891c3.038-2.719,3.768-2.132,4.823-4.318c0.893-1.849,2.369-2.14,3.396-3.093
			l1.807-1.675c2.156-1.998,1.665-1.082,3.048-2.672c0.501-0.576,1.237-1.444,1.805-1.786l1.673-1.011
			c2.114-1.278,0.65-0.689,3.077-2.343l2.024-1.379l1.741-1.112c1.972-1.259,2.11-2.108,2.734-1.977
			c1.845,0.386,0.387,0.075,2.116-1.469l2.122-1.895c0.556-0.497,1.783-0.869,2.252-1.359l0.858-0.896l0.934-0.87
			c1.755-1.636-0.176,0.979,1.737-1.06c0.464-0.494,1.086-1.178,1.565-1.524l2.701-1.947c0.432-0.311,0.889-0.632,1.339-0.901
			l1.259-0.752c0.433-0.259,0.955-0.607,1.318-0.92l1.122-0.966c0.372-0.32,0.864-0.658,1.302-0.959l2.52-1.73l3.099-2.082
			c0.707-0.475,1.329-0.858,2.164-1.294c1.915-1-0.267-0.166,2.035-1.899l1.352-1.019l2.077-0.969l2.092-1.434
			c1.867-1.28,0.4-1.11,2.823-2.189c2.162-0.962,1.06-0.799,3.767-2.245c0.633-0.338,1.584-0.692,2.076-1.07l2.465-1.892
			c0.508-0.39,1.157-0.705,1.8-1.066l2.996-1.685c0.183-0.103,0.834-0.174,1.087-0.231c0.892-0.199,2.548-2.482,5.312-1.916
			c1.308,0.268-0.162,2.325,0.727,3.021c-0.172,1.35-0.526,3.156-1.142,4.431l-0.854,1.766c-0.174,0.36-0.487,0.865-0.73,1.244
			c-1.827,2.845-1.184,2.526-2.961,5.017c-0.539,0.756-1.023,1.428-1.448,2.242c-0.655,1.256-1.45,2.329-2.156,3.516l-1.496,2.513
			l-1.161,1.724l-1.552,2.133l-1.896,2.687l-1.971,2.657c-0.318,0.429-0.601,1.13-0.907,1.7c-0.22,0.409-0.941,1.078-1.228,1.495
			l-1.177,1.706l-1.934,2.651l-1.195,1.902l-1.158,1.453l-1.154,1.448c-1.581,1.985-0.961,0.032-1.62,2.39
			c-0.424,1.518-1.635,0.223-1.801,2.169c-0.108,1.263-0.983,2.179-1.672,3.154l-2.13,3.015c-0.401,0.567-0.951,1.247-1.299,1.799
			l-2.559,4.064c-0.322,0.511-0.693,1.005-1.056,1.501l-1.081,1.476c-0.536,0.732-1.009,1.427-1.618,2.126
			c-1.679,1.926-0.044,1.302-1.916,2.443l-0.746,1.403c-0.073,0.137-0.533,0.418-0.701,0.542l0.008,0.582l2.255-0.35
			c1.876-0.291,0.585,0.21,1.996-0.251l2-0.653c1.534-0.501,0.832,0.396,2.644-0.097l2.79-0.759
			c1.311-0.357,3.414-0.065,5.876-0.682c0.27-0.068,0.943-0.45,1.206-0.456c0.507-0.011,1.48-0.028,1.925-0.142
			c0.906-0.233,4.444-1.215,5.035-0.823c0.216,0.144,0.664,0.776,0.73,1.021l0.537,2.009c0.045,0.17,0.551,0.569,0.675,0.697
			c0.124,0.128,0.362-0.222,0.608-0.407l2.363-1.634l2.871-1.956l2.567-1.732l1.054-0.707c0.594-0.398,1.345-1.067,1.921-1.409
			l2.535-1.504c1.852-1.099,3.392-2.84,4.156-3.23l2.122-1.082c0.571-0.291,1.015-0.64,1.483-1.042l2.03-1.743
			c0.977-0.839,2.086-1.749,3.044-2.3c1.307-0.752,0.061-1.106,1.379-1.45l1.662-0.433c1.886-0.492-0.279,0.382,1.986-0.191
			l0.513-0.13c2.373-0.601,1.134-1.213,4.238-1.777l1.503-0.273c0.371-0.067,1.989-0.684,2.527,0.798l0.454,1.252
			c0.46,1.268,0.709,2.318,0.195,3.731l-0.932,2.562c-0.458,1.257-1.578,3.487-2.359,4.702l-2.001,3.114l-1.653,2.665
			c-1.881,3.034-1.982,2.443-3.811,4.78l-1.152,1.472c-0.323,0.413-1.045,0.925-1.445,1.334c-2.715,2.778-4.017,3.969-7.009,6.37
			c-0.044,0.035-0.256,0.305-0.299,0.343l-0.749,0.664l-0.647,0.577c-0.228,0.204,1.237,0.975,1.995,1.235
			c1.305,0.447,2.373,1.352,2.326,2.897l-0.062,2.04l-0.079,2.606c-0.002,0.051-0.424,0.362-0.438,0.406l-0.458,1.447l-0.153,0.479
			c-0.448,1.401,3.108,0.944,3.672,0.865c4.025-0.565,1.63-0.516,3.682-1.22c3.254-1.116,0.33-0.514,4.103-1.761
			c0.267-0.088,0.623-0.443,0.94-0.721c0.523-0.459,1.174-0.91,1.805-1.35c1.935-1.35,1.999-0.7,2.475-1.282
			c1.977-2.418,2.568-0.415,3.646-2.632c0.523-1.075,2.156-2.161,2.914-2.753c2.37-1.848,3.423-3.961,5.546-4.222
			c0.397-0.457,1.056-1.595,1.53-2.01l2.321-2.03c0.71-0.621,1.389-1.255,2.054-1.938l2.393-2.458
			c1.244-1.278,1.996-1.93,3.482-2.81l1.105-0.655c2.031-1.204,0.543-2.457,1.776-2.678c2.696-0.483,0.982-1.585,3.658-3.822
			c0.756-0.632,1.468-1.168,2.238-1.726l0.011-0.93c0.008-0.708,1.107,0.304,1.505-0.106c2.14-2.208,0.373-1.791,1.526-2.819
			c0.627-0.559,1.307-1.213,1.828-1.868c2.354-2.96,2.28-1.197,3.385-3.182c1.793-3.22,0.256-1.208,3.02-3.271
			c0.287-0.214,0.655-1.127,0.974-1.324l2.058-1.268l-0.053-0.772c-0.091-1.328,1.476-1.253,1.851-2.609l0.861-3.109
			c0.02-0.072,0.193-0.379,0.234-0.415l0.312-0.273l0.393-0.335c0.101-0.086-0.206-0.374-0.273-0.522
			c-0.289-0.642,0.492-3.533,0.852-4.458c1.593-4.09-0.17-2.106,1.115-4.596c1.512-2.93-0.259-3.341,0.199-3.859l0.757-0.855
			c0.081-0.091,0.264-0.459,0.28-0.573l0.248-1.797c0.21-1.521-0.447-0.584-0.094-2.308l0.68-3.311
			c0.045-0.221,0.457-0.718,0.581-0.907l1.356-2.06c0.225-0.342,1.005-0.939,1.354-1.205c0.688-0.525,0.211,0.114,2.148-0.974
			l1.521-0.854c2.109-1.185,2.753-0.376,5.029-1.472c0.721-0.347,1.51-0.649,2.199-0.663l1.793-0.036
			c0.317-0.006,0.601,0.159,0.761,0.338l0.722,0.808c0.728-0.089,1.585,0.284,2.034,0.96c0.899,1.355-0.614,5.74-2.201,5.91
			l-0.133,0.33l0.466,0.246c0.125,0.066,0.445,0.205,0.382,0.271l-0.365,0.38c-0.547,0.57-1.035,1.251-1.459,1.929l-1.566,2.504
			l-1.574,1.725c-0.916,1.004-1.222,2.418-2.087,3.352c-1.909,2.063-0.522,1.245-2.213,3.233c-2.43,2.858-1.74,1.426-3.862,4.441
			c-0.318,0.452-0.661,0.857-1.025,1.239l-1.401,1.473l-1.532,1.641l-1.081,1.438c-0.359,0.478-1.122,1.071-1.269,1.525
			c-0.411,1.27-0.833,2.407-1.361,3.538l-0.748,1.604c-0.215,0.46-0.517,0.964-0.812,1.475c-0.845,1.466,0.119,1.613-1.018,2.677
			c-0.368,0.345-0.907,1.107-0.963,1.546l-0.267,2.078c-0.154,1.195-1.019,2.095-1.397,2.637c-0.379,0.543-0.588,1.764-0.917,2.428
			l-1.996,4.025c-1.082,2.183-0.323,1.256-1.974,4.012c-0.439,0.733-1.059,1.575-1.332,2.303c-1.559,4.174-2.334,1.575-1.913,4.629
			c-0.599,0.782-1.297,1.897-1.653,3.005l-0.147,0.456l-0.127,0.407c-0.017,0.055-0.26,0.428-0.268,0.481l-0.512,3.029
			c-0.032,0.187-0.075,0.441-0.119,0.476l-0.413,0.331c-0.078,0.062,0.173,0.478,0.271,0.514l2.645,0.953
			c0.058,0.021,0.293,0.149,0.393,0.208c2.404,1.436,1.186-0.12,2.439,0.615c2.273,1.333,0.281-0.078,1.655,0.657l1.134,0.607
			l2.695,1.439c1.583,0.846-0.704,0.232,2.379,1.208c0.425,0.134,0.374,1.633,1.367,1.111l3.705-1.949
			c3.315-1.744,1.458-0.331,3.401-1.501c0.922-0.556,3.314-1.036,4.426-1.146l1.949-0.193c3.18-0.315-0.197,0.485,3.175-0.297
			c1.469-0.34,1.327,0.734,3.041,0.358c4.533-0.992,2.002-0.132,4.435,0.021c2.962,0.186,0.905,1.003,3.247,0.762l1.971-0.203
			c0.319-0.033,0.883,0.519,1.194,0.827c0.267,0.265,1.255-0.132,1.668-0.083l2.186,0.256c0.633,0.074,1.296,0.205,1.957,0.326
			c3.591,0.66,1.391-0.565,5.531,0.077l2.231,0.346c0.577,0.09,1.346,0.075,1.892,0.193l2.51,0.542
			c0.059,0.013,0.371,0.179,0.406,0.221l0.343,0.402c0.087,0.102,0.268-0.06,0.497-0.214l0.361-0.243l0.408-0.275
			c-0.009-0.007,0.124,0.089,0.256,0.185l0.194,0.688c0.317,1.124,4.885,0.783,6.82,0.915l2.911,0.2
			c2.407,0.165,0.978,0.947,1.786,0.836l0.687-0.094c0.729-0.1,1.476-0.155,2.14-0.059l1.334,0.195l3.16,0.544l2.879,0.506
			c0.975,0.171,2.42,0.059,3.335,0.092c0.266,0.01,0.999,0.265,1.249,0.264l5.987-0.024c1.079-0.004,2.504-0.612,3.612-0.922
			l0.424-1.559l0.427-1.618c0.27-1.026,1.037-0.58,1.572-1.083c0.452-0.425,1.703-0.886,2.327-0.046
			c0.149,0.201,0.378,0.676,0.31,0.904c-0.74,2.454-0.835,3.967-1.824,5.536c-0.938,1.488-1.158,0.618-2.799,1.717
			c-0.302,0.202-0.681,0.43-0.902,0.5l-0.97,0.305c-0.46,0.144-1.041,0.252-1.651,0.33l-1.673,0.214
			c-0.237,0.03-0.993-0.232-1.225-0.19c-0.73,0.132-2.184,0.325-2.831,0.056c-2.643-1.1-1.345,0.408-3.088-0.389
			c-2.067-0.945-0.262,0.299-3.103-0.355l-1.654-0.38c-0.193-0.044-0.661-0.505-0.813-0.621c-2.219,0.506-2.109-0.252-2.873-0.288
			l-1.325-0.062l-0.87-0.082l-1.443-0.137c-0.575-0.055-1.316-0.119-1.795-0.23l-1.648-0.385c-0.426-0.099-1.269-0.379-1.64-0.514
			c-1.006-0.367-0.241,0.646-2.288,0.315l-2.303-0.373l-1.732-0.276c-0.732-0.117-2.021-0.122-2.508-0.533l-1.139-0.96
			c-0.135-0.114-0.589-0.357-0.7-0.251l-0.588,0.563c-0.31,0.297-1.19,0.253-1.742,0.159l-3.944-0.668
			c-1.12-0.19-2.68-0.054-3.91-0.063c-0.369-0.003-1.098-0.423-1.423-0.471l-1.376-0.205c-0.467-0.07-1.192-0.222-1.583-0.37
			l-1.828-0.692c-2.798,1.487-1.959-0.207-3.333,0.1c-0.485,0.109-1.334,0.21-1.727,0.108c-5.151-1.331-1.249-0.146-4.74-0.677
			c-0.684-0.104-1.35-0.284-1.967-0.311l-3.149-0.138c-0.693-0.03-1.874-0.415-2.55-0.43c-0.371-0.008-1.253,0.212-1.628,0.274
			l-1.88,0.309c-0.484,0.08-1.373,0.538-1.958,0.716c-1.314,0.398-2.562,1.005-3.41,1.984l-0.288,0.332
			c-0.049,0.057-0.215,0.173-0.316,0.257l-0.322,0.267c-0.086,0.071-0.292,0.414-0.207,0.486l0.404,0.336l0.345,0.286l1.494,1.239
			c0.619,0.513,0.119,0.519,0.59,1.238c2.383,2.257,0.901,1.383,2.38,3.256c2.041,2.583,0.361,1.644,1.615,2.63
			c0.385,0.303,0.787,0.81,0.83,1.127l0.352,2.62c0.211,1.572-1.406,2.81-2.876,3.373l-2.28,0.873
			c-1.736,0.664-3.567,0.798-5.432,0.362c-0.75-0.175-1.413-0.49-2.148-0.724l-1.988-0.633c-0.916-0.292-1.457-1.464-2.081-2.181
			c-1.771-2.036-1.677-2.379-1.262-5.419c0.053-0.391,0.238-0.994,0.38-1.313l1.179-2.645c0.248-0.557,1.427-2.485,1.905-3.184
			l0.742-1.085c0.112-0.164-0.153-0.774-0.342-0.926c-2.423-1.939-1.828-0.942-2.992-1.603c-0.468-0.266-1.255-0.921-1.758-1.078
			l-2.307-0.721c-0.475-0.148-1.185,1.179-0.91,1.598c0.921,1.402-0.472,3.069-1.392,3.988c-0.434,0.433-0.955,1.151-1.363,1.423
			l-2.472,1.644c-0.514,0.342-1.263,0.768-1.873,0.947l-2.019,0.591l-1.993,0.589c-1.069,0.316-2.126,0.578-3.234,0.766
			l-3.676,0.622c-0.05,0.008-2.324,0.058-2.107,0.074l-2.521-0.184l-2.66-0.178c-1.336-0.089-1.352-0.319-1.682-0.607
			c-1.884-1.648,0.156,0.403-2.675-1.358c-1.186-0.738-2.082-1.163-2.019-3.635c0.053-2.106,2.525-6.412,4.257-7.271l1.561-0.775
			l3.387-1.754c0.51-0.264,1.148-0.441,1.765-0.492l0.528-0.043c0.409-0.033,1.467-0.852,2.325-0.259l0.542,0.375
			c0.001,0,0.274-0.181,0.335-0.222c0.026-0.382,0.294-0.7,0.592-0.749l2.253-0.375c0.048-0.008,0.455,0.175,0.499,0.174
			c1.805-0.044,2.769-0.413,3.491-0.218l0.449,0.121l0.628,0.162c0.176,0.045,0.386-0.349,0.393-0.546l0.085-2.378
			c0.017-0.463,0.711-1.255,0.928-1.868c0.574-1.624,0.874,0.036,1.522-1.829l0.664-1.911l0.879-2.493
			c1.316-3.731,0.169-0.768,1.994-4.098l1.406-2.567c0.318-0.58,0.642-1.302,1.101-1.781c2.043-2.128,0.339-1.003,1.627-2.466
			c2.137-2.426,0.999-2.986,1.488-3.549c1.693-1.948,1.243-1.814,2.247-3.738l0.194-0.372l0.2-0.392
			c0.063-0.123,0.142-0.291,0.176-0.345l0.233-0.37l0.215-0.352c0.03-0.048,0.167-0.394,0.168-0.451l0.029-1.378
			c0.002-0.112-0.072-0.684-0.165-0.62c-0.141,0.096-0.424,0.301-0.548,0.437l-0.986,1.075l-1.779,1.941
			c-0.359,0.392-0.752,0.74-1.183,1.093c-0.119,0.159-0.361,0.513-0.474,0.645l-0.785,0.914c-0.719,0.837-1.418,1.642-2.167,2.425
			c-1.658,1.732-0.015,0.503-1.75,1.948c-0.713,0.593-1.28,1.178-1.891,1.838l-1.534,1.657c-0.465,0.502-1.32,1.369-1.788,1.824
			c-0.82,0.798-1.104-0.042-1.848,1.67c-0.76,1.75-1.31,0.448-1.028,2.134c0.167,0.998-0.816,1.578-1.792,2.048l-1.237,0.596
			l-1.347,0.649c-1.041,0.502,0.306,0.083-1.289,1.795l-1.287,1.381l-2.145,1.764l-3.648,3.546
			c-0.764,0.743-2.406,1.734-2.581,1.899l-1.349,1.269l-1.442,1.409l-0.293,0.293l-0.276,0.28c-0.095,0.096-0.243,0.266-0.286,0.289
			l-0.368,0.198c-1.434,0.772-0.018,0.539-1.28,0.995l-0.442,0.16c-0.118,0.043-0.407,0.456-0.314,0.55l0.467,0.472l-0.183,0.35
			c-0.284,0.543-0.488,0.856-1.255,1.002l-0.611,0.116l-0.26-0.238c0.715-0.176,0.24-0.027,0.836-0.449l0.341-0.241l0.518-0.368
			c0.008,0.005-0.175-0.107-0.541-0.331l-1.574,1.091c-1.088,0.754-0.517,1.323-1.234,1.708c-1.496,0.802-3.597,1.933-5.014,2.932
			l-2.867,2.022c-0.306,0.216-0.852,0.913-1.209,0.979l-1.486,0.274c-0.147,0.027-0.565,0.343-0.654,0.473l-0.591,0.854
			l-1.989,0.874c-0.598,0.263-1.674,0.656-2.232,0.698l-1.8,0.135l-2.943,0.116c-0.053,0.002-0.337-0.248-0.473-0.355
			c-1.599-1.252-1.372,0.201-2.111-1.133c-0.396-0.714,0.289-0.109-0.632-0.672c-0.834-0.509-0.802-1.999-0.251-2.666
			c1.54-1.863-1.03,1.32,0.584-3.725c0.472-1.475,1.011-1.348,0.415-2.526c-0.808-1.6-2.894-0.839-4.192-0.434
			c-1.575,1.416-0.968-0.098-2.63,1.086c-0.306,0.218-0.636,0.449-0.867,0.573l-2.428,1.295c-0.494,0.263-1.037,0.519-1.499,0.796
			l-1.85,1.111c-0.668,0.401-4.175,0.937-4.617-0.867l-0.324-1.324l1.352-0.706c0.634-0.331,1.827-1.544,2.68-2.037l2.578-1.49
			c3.239-1.873,1.019-0.129,3.982-1.727c3.215-1.735,1.657,0.021,3.664-1.724c0.894-0.777-0.032,0.277,0.972-0.772
			c1.013-1.058,1.962-1.953,3.078-2.89l0.32-0.269l0.317-0.261l0.316-0.259l0.307-0.253l0.302-0.249l0.343-0.243
			c0.08-0.057,0.351-0.231,0.401-0.281l6.585-6.546c0.073-0.073,0.271-0.43,0.297-0.476l0.202-0.355l0.203-0.36l0.206-0.366
			c0.07-0.123,0.159-0.317,0.208-0.375l0.259-0.308c0.08-0.095,0.229-0.26,0.258-0.309l0.208-0.345l0.22-0.373l0.221-0.378
			c0.052-0.09,0.138-0.223,0.205-0.325l0.23-0.35l0.229-0.343l0.23-0.342l0.228-0.343l0.226-0.344l0.225-0.341
			c0.076-0.115,0.189-0.299,0.23-0.342l0.281-0.3l0.277-0.285c0.095-0.098,0.228-0.217,0.287-0.295l0.245-0.326l0.251-0.33
			l0.238-0.306l0.264-0.324c0.036-0.044,0.182-0.314,0.185-0.365l0.035-0.551l0.034-0.533c0.014-0.222,0.266-0.552,0.411-0.739
			l0.25-0.321l0.246-0.32l0.247-0.318c0.075-0.096,0.235-0.265,0.26-0.329l0.156-0.406l0.167-0.415
			c0.03-0.075,0.095-0.349,0.107-0.411l0.094-0.512l0.094-0.518c0.09-0.495,0.035-0.352,0.33-0.781l0.234-0.34
			c0.035-0.051,0.123-0.268,0.169-0.374l0.183-0.414l0.173-0.392l0.169-0.396c0.094-0.221,0.159-0.847,0.117-1.038l-0.147-0.671
			c0.025-0.235,0.032-0.296-0.023,0.221c-0.559,0.419-1.283,0.981-1.851,1.189l-1.77,0.649c-0.167,0.061-3.035,1.414-3.062,1.432
			l-1.589,1.032l-2.295,1.433l-1.925,1.195l-4.259,2.629c-0.611,0.377-1.352,1.247-1.922,1.692l-1.195,0.933
			c-0.256,0.2-0.862,0.492-1.238,0.709l-1.241,0.716c-1.06,0.611-0.178,0.315-1.557,1.305l-2.525,1.811l-1.419,1.131l-2.11,0.696
			l-1.723,1.195c-0.62,0.43-1.163,1.063-1.795,1.671c-0.438,0.421-1.533,0.84-2.074,1.257c-2.548,1.964-3.102,0.723-3.425,2.92
			l-1.429,1.096c-0.382,0.293-0.737,0.59-1.083,0.902l-1.061,0.953l-1.048,0.947l-1.062,0.966c-0.342,0.312-0.655,0.649-0.964,1.01
			l-0.38,0.443l-0.466,0.17l-0.755,0.883l-1.793,1.701c-0.6,0.57,0.243,0.266-1.741,1.069l-1.457-0.034
			c-0.808-0.019-3.337-0.895-2.194-2l2.261-2.185c0.584-0.564,1.161-1.226,1.747-1.622c1.378-0.928,2.106-1.222,2.739-3.083
			l1.026-1.263c0.47-0.579,1.409-1.49,1.953-2.004c0.249-0.235,0.443-1.028,0.719-1.204c0.224-0.143,0.769-0.482,0.879-0.648
			l0.99-1.487c-0.724-0.787-2.781-0.194-3.414-0.065c-2.716,0.552-1.433,0.067-4.605,0.544l-2.545,0.382l-2.531,0.343l-4.607,0.891
			l-0.557,0.216l-4.266,0.909c-0.126,0.027-0.449,0.514-0.358,0.576l0.477,0.323c0.387,0.262,1.229,0.912,1.382,1.358l0.666,1.939
			l0.122,1.714l0.189,0.395c0.069,0.144,0.339,0.612,0.329,0.764c-0.072,1.088-0.898,3.083-1.66,3.829l-0.936,0.916
			c-0.695,0.68-1.341,1.39-2.231,1.781c-1.235,0.542-2.919,1.002-3.839,1.785l-3.133,2.664c-2.293,1.95-0.45-0.198-2.107,1.877
			c-0.376,0.471-0.792,0.921-1.183,1.375l-1.745,2.019l-1.112,0.632c-1.885,1.071-1.316-0.252-2.422,1.21
			c-0.272,0.36-0.567,0.557-0.934,0.768l-1.089,0.626c-0.468,0.269-1.242,0.662-1.556,0.961l-0.911,0.871l-1.596,1.526
			c-1.633,1.561-3.908,1.367-5.778,1.344c-0.048-0.463-0.052-0.728-0.079-0.796l-0.193-0.482c-0.139-0.347-0.267-1.005-0.258-1.338
			c0.001-0.051,0.439-0.22,0.542-0.286c1.601-1.022,0.751-1.961,1.416-1.956l1.957,0.014c0.445,0.003,0.898-1.256,1.64-2.414
			c1.028-1.605,0.829-0.41,2.454-2.39c1.831-2.231,0.081-0.774,1.682-2.528c0.513-0.562,0.928-1.019,1.349-1.551l1.27-1.607
			l1.267-1.538l2.91-3.974l1.52-2.178c0.914-1.309,1.738-2.598,2.811-3.757c0.235-0.254,0.485-0.511,0.531-0.705
			c0.046-0.193-0.472-0.601-0.67-0.592l-2.953,0.134c-0.882,0.04,0.039,0.561-2.478,1.263c-2.192,0.612-4.428,1.487-6.375,2.567
			c-0.726,0.402-1.453,1.072-2.313,1.303c-2.294,0.616-2.9,1.262-5.566,2.423c-0.318,0.139-1.229,0.129-1.604,0.18l-1.577,0.213
			c-0.053,0.007-0.374-0.323-0.421-0.342l-0.906-0.371c-0.193-0.079-0.223-0.597-0.189-0.811l0.077-0.486
			c0.032-0.202-0.183-0.737-0.011-0.84l0.842-0.5c0.28-0.166,0.852-0.594,1.123-0.791c0.867-0.629-0.497,0.501,1.417-0.287
			l2.454-1.011c3.01-1.24,0.284-0.489,3.083-1.504l1.681-0.609c0.584-0.212,1.356-0.426,1.882-0.654l3.22-1.399l2.361-1.046
			l1.669-0.632c3.738-1.415,2.356-0.488,3.806-0.989c0.769-0.266,1.622-0.584,2.412-0.74l2.675-0.528l1.235-1.004
			c0.391-0.317,0.796-0.739,1.13-1.121l0.678-0.776l0.33-0.378c0.022-0.464,0.196-1.021,0.442-1.323l1.193-1.465l1.428-1.753
			c0.961-1.181,0.111-0.62,0.772-1.519c1.473-2.004,0.629-1.349,1.441-2.194c2.661-2.769,0.296-0.992,2.347-3.151l0.323-1.323
			c0.848-0.047,1.642-1.525,1.994-2.243l0.781-1.591c0.39-0.795,0.97-1.461,1.533-2.143l1.56-1.889
			c0.334-0.405,0.627-0.867,0.925-1.358l0.548-0.902l0.253-0.427l0.244-0.434l1.048-1.881c0.206-0.369,0.842-1.018,1.121-1.37
			l1.809-2.287c0.811-1.025-0.201-1.141,0.121-1.561l0.983-1.279c2.185-2.843,1.723-0.763,2.348-2.424
			c0.235-0.624,0.454-1.19,0.722-1.581l1.996-2.915l1.426-2.254l0.906-1.429c0.273-0.431,0.779-1.023,1.092-1.428
			c0.206-0.266,0.449-1.088,0.672-1.331l0.982-1.067c0.273-0.296,0.668-0.829,0.74-1.178c0.648-3.179,2.642-2.173,2.693-4.186
			l0.015-0.576c0.001-0.051,0.246-0.23,0.31-0.264l0.385-0.205c0.046-0.025,0.255-0.232,0.272-0.28l0.153-0.427
			c0.257-0.716,0.037-0.182,0.338-0.807l0.184-0.382l0.192-0.395c0.048-0.099,0.117-0.247,0.168-0.366l0.178-0.415l0.177-0.412
			l0.204-0.357l0.204-0.354l0.207-0.365l0.225-0.399c0.03-0.053,0.134-0.271,0.154-0.323l0.167-0.437l0.163-0.423l0.169-0.44
			c0.03-0.077,0.115-0.26,0.158-0.344l0.201-0.395l0.191-0.382l0.192-0.393c0.051-0.105,0.144-0.297,0.174-0.34l0.249-0.365
			l0.225-0.337l0.228-0.354c0.03-0.047,0.137-0.374,0.142-0.442l0.079-0.972l-0.476-0.06l-3.593,2.192l-1.534,0.997l-2.176,1.305
			l-1.667,1.122l-1.795,1.121l-1.795,1.061l-2.016,1.147c-0.695,0.395-1.296,0.693-2.14,1.108c-1.126,0.554-1.142,1.568-3.147,2.415
			c-0.314,0.353-0.809,0.898-1.125,1.094l-2.009,1.246l-1.738,1.099c-0.333,0.21-0.819,0.573-1.13,0.827l-1.601,1.307
			c-0.794,0.648-2.258,1.39-3.956,2.572l-1.871,1.302c-2.166,1.507-2.017,0.214-2.969,1.516c-0.609,0.832-1.248,1.435-2.015,2.017
			l-2.296,1.741c-1.376,1.044-3.105,2.133-4.701,3.052c-1.465,0.844-0.707,1.257-2.393,2.385l-2.564,1.714
			c-0.258,0.173-0.96,0.389-1.261,0.482c-0.9,0.277-0.374,0.941-2.632,2.45c-0.682,0.455-1.282,0.851-1.869,1.3l-1.31,1.002
			l-1.5,1.049l-1.83,1.307l-0.852,0.609c-0.84,0.6-2.234,1.413-2.324,1.609l-0.199,0.435c-0.021,0.046-0.205,0.239-0.263,0.289
			l-0.79,0.674c-2.044,1.743-0.686,0.029-2.004,1.678c-2.581,3.229-2.224,0.627-4.184,3.887c-0.698,1.161-1.482,1.095-2.444,2.325
			c-0.477,0.61-0.056,0.18-0.578,0.552l-0.354,0.252c-0.345,0.246-0.765,0.591-1.083,0.902l-3.165,3.092
			c-2.481,2.424-0.607,0.879-4.14,2.715l1.051,0.314l0.017,0.321c-0.53,0.458-0.929,0.789-1.266,1.147l-1.682,1.784l-1.207,1.323
			l-1.307,1.289l-1.823,1.579c-0.113,0.098-0.496,1.564-1.734,3.113l-1.153,1.441l-1.89,2.396l-0.755,0.985
			c-0.359,0.469-0.752,0.875-1.252,1.33c-1.756,1.603,0.071,0.552-2.344,3.34c-0.415,0.479-0.71,0.979-1.004,1.564l-0.876,1.74
			c-0.12,0.238-0.455,0.629-0.734,0.984c-0.338,0.429-0.663,1.298-0.981,1.821l-0.972,1.602c-1.089,1.794-1.675,3.093-2.261,5.145
			l-0.835,2.927l-0.36,1.053c-0.129,0.376,0.781,0.76,0.598,0.968l-0.625,0.708c-0.135,0.153-0.643,0.51-0.842,0.536l-2.068,0.273
			c-0.975,0.129-1.784-0.126-2.717-0.288c-0.416-0.072-3.588-0.03-3.139-0.147l-0.416,0.108l-1.682,0.441l-0.475-0.171
			c-1.396-0.501-4.556,0.166-6.706,0.026c-1.874-0.123-0.36,0.302-2.335,0.263l-1.287-0.025c-0.296-0.006-0.812,0.036-1.143,0.085
			l-2.015,0.301l-2.765,0.124l-1.983,0.298l-2.051,0.29c-2.428,0.343-3.346-0.023-4.195,0.513c-0.516,0.326-1.305,0.665-1.726,0.588
			l-1.693-0.313c-0.441,0.584-2.8,1.162-3.332,1.252l-2.536,0.427c-0.422,0.071-1.051,0.271-1.487,0.424l-2.595,0.908
			c-3.087,1.079-1.355,0.074-4.575,1.375l-3.052,1.233c-2.6,1.05-1.56,1.01-3.892,1.302l-0.533,0.067
			c-0.644,0.081-1.646-0.187-1.714-0.269l-0.744-0.911c-0.482-0.59-0.144-2.273,0.174-3.035l0.626-1.497
			c0.045-0.108,0.146-0.345,0.135-0.403l-0.103-0.52l-0.505-2.553c-0.015-0.076,0.041-0.555,0.043-0.666l0.013-0.584
			c0.011-0.477-0.263-1.366-0.368-1.405L0,362.581v-0.285c0.135-0.007,0.516-0.086,0.576-0.226c0.028-0.065,0.056-0.574,0.046-0.668
			l-0.204-2.106c-0.022-0.232,0.027-0.73,0.057-1.037l0.191-1.914c0.041-0.409,0.083-0.864,0.088-1.221l0.026-1.641
			c0.014-0.92,0.255-2.106,0.531-3.037c0.998-3.356-0.329-0.049,0.4-2.624l0.771-2.723c0.844-2.981,0.369-4.136,1.134-6.014
			c1.911-4.69,0.781-3.666,1.511-6.746l0.679-2.865c0.302-1.275,0.539-2.514,0.942-3.782c0.24-0.754,0.576-1.625,0.745-2.332
			l1.216-5.101c0.236-0.991,0.531-1.871,0.848-2.895c0.214-0.689,0.188-1.953,0.383-2.735l0.691-2.77l0.582-2.6l1.822-7.306
			l0.551-2.053l0.521-2l0.586-2.524l0.981-5.063c0.112-0.579,0.287-1.171,0.447-1.722l0.546-1.876l0.893-2.991
			c0.065-0.218-0.068-0.915-0.021-1.118l0.598-2.55l0.556-2.954l0.37-2.184l0.289-1.804l0.385-2.469
			c0.202-1.293,0.446-2.548,0.726-3.811c0.324-1.463,0.14-1.384,0.517-3.185c0.088-0.418,0.841-1.185,0.983-1.575
			c0.083-0.228-0.269-0.974-0.226-1.212l0.303-1.675c0.115-0.636-0.047-1.67,0.108-2.252l0.503-1.882
			c0.212-0.795,0.468-1.662,0.602-2.419l0.318-1.796l0.226-1.339l0.634-3.47c0.16-0.875,0.38-1.641,0.682-2.562
			c0.915-2.79-0.595-0.236,0.656-4.168l0.435-0.935l0.253-2.305c0.376-3.433,0.574,0.084,1.16-4.519
			c0.112-0.884,0.251-1.648,0.444-2.452l0.66-2.746l0.857-4.002c0.582-2.717,0.198-2.37,1.091-4.642l0.265-1.783
			c1.219-3.487,1.018-4.47,2.115-8.422c0.849-3.057-0.162-0.954,0.714-3.86c0.901-2.991,0.01-1.158,0.561-3.384l0.987-3.986
			l0.488-1.49l0.582-2.581c0.182-0.809,0.403-1.694,0.634-2.473c1.016-3.432,0.378-2.04,1.078-5.685
			c0.279-1.451,0.561-2.847,0.937-4.252c0.144-0.538,0.282-1.066,0.378-1.611l0.569-3.226c0.102-0.58,0.788-1.648,0.997-2.166
			c-0.466-2.985,0.182-1.14,0.77-4.303c0.139-0.746,0.568-1.451,1.168-1.989l0.09-0.506l-0.703-0.574
			c0.22-0.739,0.406-1.424,0.563-2.059l0.674-2.729l0.585-2.339l0.574-2.308l0.509-1.438l1.208-5.098
			c0.094-0.398,0.56-1.198,0.612-1.562l0.254-1.77c0.182-1.266,0.468-2.478,0.839-3.693l0.81-2.648l0.954-3.384
			c0.155-0.55,0.504-1.3,0.66-1.732c0.502-3.539,1.617-2.6,1.231-4.818c-0.076-0.435,0.461-1.325,0.562-1.774l0.593-2.615
			c0.356-1.571,0.861-3.072,1.354-4.601l1.189-3.686l0.686-2.445c0.641-2.282,0.666-1.741,1.356-4.328l0.678-2.54
			c0.265-0.995,0.514-1.968,0.725-2.992l0.438-2.125c0.251-1.218,0.848-1.979,0.6-2.053l-0.582-0.173
			c-0.121-0.036-0.435-0.465-0.313-0.461l0.491,0.013l0.415,0.008c0.089,0.002,0.357-0.347,0.389-0.471l1.366-5.343
			c0.349-1.365,0.794-2.551,0.94-3.898l0.203-1.867c0.19-1.743,0.653-1.593,1.235-4.771l0.48-2.619
			c0.739-4.034,1.174-1.886,1.017-4.809l0.47-1.649l0.598-2.279l1.106-4.257l1.05-3.716l0.718-2.48
			c0.067-0.343,0.154-1.013,0.231-1.291l0.605-2.193l0.906-3.688l0.243-3.184c0.057-0.747,0.298-1.182,0.302-1.871
			c0.013-2.23,1.406-2.42,1.737-3.69c0.191-0.734,0.511-1.489,0.516-2.063l0.016-1.968l0.384-2.31
			c0.083-0.501,0.251-1.089,0.371-1.582l0.748-3.08c0.12-0.494,0.455-1.346,0.591-1.803c-0.352-1.696-0.487-4.041-0.18-5.547
			l-0.534-2.486l2.005-1.913c0.321-0.307,1.392-0.591,1.835-0.661c0.161-0.026,0.695,0.37,0.861,0.405
			c1.514,0.312,3.555,0.744,5.145,0.943c1.191,0.15,2.204,0.245,3.293,0.481l2.833,0.615c0.668,0.145,1.671,0.136,2.42,0.232
			c0.937,0.12,1.756,0.08,2.689,0.008l1.944-0.15l2.296-0.164l4.209-0.209c0.739-0.037,1.534-0.182,2.209-0.059
			c3.197,0.583,2.292-0.991,5.004,0.457l0.509-0.229c0.326-1.479,0.526-0.596,3.231-1.104l2.642-0.496l3.199-0.556
			c2.139-0.372,4.185-0.861,6.289-1.402l4.365-1.124l2.888-0.72l2.089-0.475l2.89-0.655c0.368-0.083,1.117-0.404,1.457-0.453
			l2.1-0.303l4.004-0.73l2.663-0.377l1.698-0.134c0.683-0.054,1.63-0.532,2.22-0.564l3.692-0.201l2.595-0.179
			c0.705-0.049,1.37-0.128,2.045-0.249c2.61-0.471,2.582-0.266,5.301-0.735c1.199-0.207,2.284-0.403,3.476-0.547
			c3.735-0.452,2.092,0.242,4.955-0.637c0.476-0.146,1.555-0.262,2.06-0.229c3.545,0.234,0.714-0.444,4.687-0.765l2.318-0.187
			l2.858-0.29l2.852-0.29c0.596-0.061,1.861,0.384,2.367,0.111c0.539-0.291,1.152-0.54,1.533-0.448
			c1.615,0.39,2.823,0.113,4.396,0.074l2.224-0.055l3.686-0.137l2.389-0.089l2.274-0.094l1.664-0.242l4.787-0.103l1.538-0.401
			l1.673-0.071l2.538-0.164c0.629-0.041,1.446,0.063,2.038-0.104c0.618-0.175,1.105-0.283,1.705-0.352l1.777-0.205
			c0.208-0.024,0.689,0.239,0.905,0.362c3.558-1.435,3.561-0.287,5.331-0.559c0.25-0.038,0.62-0.158,0.574-0.042l-0.317,0.795
			c-0.509,0.025,0.041,0.13,0.48,0.196l1.864-0.77c1.862,1.222,2.673-0.291,4.473-0.302l3.76-0.023l-1.252,0.81l1.588-0.172
			l1.624-0.175c2.905-0.312,2.936-0.028,5.458,0.002c1.263,0.015,3.155-0.209,3.115-0.075l-0.196,0.663l1.43,0.009l1.893,0.012
			l-0.248-0.68c-0.036-0.098,0.561-0.182,0.63-0.107c0.215,0.233,0.474,0.727,0.746,0.819c0.218,0.073,0.748-0.078,1.111-0.126
			c1.514-0.203,1.444,0.047,3.858-0.056c0.59-0.025,1.243-0.091,1.885-0.16l1.685-0.181l2.375-0.335l1.161-0.163
			c2.747,0.404,2.41,0.046,5.295-0.027c0.121-0.003,0.456-0.063,0.688-0.102l-0.611-0.892l1.442,0.419l2.139,0.082
			c0.994,0.038,2.115-0.162,2.936-0.486l-0.179-0.668c-0.021-0.077,3.337-0.644,3.663-0.651l6.857-0.15
			c0.488-0.011,0.926,0.137,1.373,0.444c0.45-0.18,1.487-0.554,2.029-0.485l1.889,0.239c1.799,1.307,0.848-0.596,3.058,0.14
			c0.445,0.148,0.911,0.135,1.41,0.11c1.222-0.063,2.39-0.004,3.568,0.021l2.025,0.043l1.507,0.035
			c3.408,0.08,0.776-0.213,3.794-0.001c0.31,0.022,0.951-0.077,1.341-0.12l2.309-0.255l3.671-0.17l2.306-0.158
			c4.38-0.3,2.208-0.639,6.894-0.797l5.624-0.189l1.463-0.174c0.713-0.085,1.636-0.235,2.265-0.247l6.313-0.115l1.077-0.086
			c0.839,0.029,1.544-0.017,2.419-0.044l5.244-0.16l1.594-0.457l4.174-0.144c0.738-0.025,1.79-0.469,2.519-0.568l2.075-0.282
			c0.746-0.101,1.556-0.239,2.232-0.273c0.616-0.031,1.34-0.004,1.829-0.128l1.683-0.425c0.334-0.084,0.656-0.176,0.839-0.237
			H377.146z M253.816,293.479l1.888-1.497c0.253-0.201,0.636-0.936,0.831-1.19l1.116-1.447l0.99-1.315l1.096-1.497
			c0.696-0.951,2.005-1.806,2.617-2.721l1.039-1.552c0.542-0.81,1.056-1.426,1.477-2.351c0.427-0.939,1.343-1.905,1.917-2.814
			l1.337-2.116l0.673-1.328c0.778-0.983,1.119-1.968,1.492-3.147l0.63-1.989c-0.857-0.71-1.659-0.83-2.608-0.551l-1.992,0.586
			c-0.419,0.123-1.429,0.151-1.739,0.217c-0.439,0.402-0.812,0.666-1.245,0.836l-1.731,0.675c-0.567,0.221-1.322,1.288-1.882,1.684
			c-1.101,0.778-1.503,1.897-1.342,3.257l-0.87,1.187l-0.556,2.771l-0.284,1.433l-0.753,3.825c-0.446,2.265-1.3,3.062-1.35,3.711
			l-0.126,1.647c-0.066,0.862-0.208,1.636-0.442,2.442L253.816,293.479z M122.976,347.354l2.055-1.321l1.725-1.144
			c2.079-1.379,3.018-1.316,3.779-2.833c0.463-0.923,0.669-2.062,0.391-2.927l-1.343-0.855c-0.42-0.268-1.662-0.418-1.957-0.018
			l-1.603,2.165c-1.28,1.728-2.217,3.967-4.212,6.051l-1.075,1.123l-1.033,1.893C120.335,349.685,121.692,348.18,122.976,347.354z
			 M223.618,353.606c0.904-0.041,2.288-0.294,3.112-0.689l2.933-1.408l2.619-1.329l0.328-1.092c0.774-0.395,1.698-1.312,1.752-1.998
			l-1.169-1.633l-0.829-0.834l-0.806-0.801c-0.192-0.19-0.935,0.135-1.23,0.104l-2.763-0.292c-1.106-0.117-2.09-0.132-3.164-0.009
			l-2.896,0.333c-0.439,0.05-1.219,0.443-1.655,0.616l-2.062,0.817c-0.965,0.382-1.95,0.643-2.951,1.141
			c-0.65,0.323-1.238,1.572-1.734,2.173c-0.21,0.254-0.903,0.742-0.929,1.045l-0.205,2.369l1.282,1.397
			c0.54,0.588,2.68,0.672,3.777,0.611l3.392-0.191C221.487,353.877,221.42,353.707,223.618,353.606z M251.997,363.405
			c2.943-0.017,2.294,0.431,4.69-0.682c0.201-1.359-0.715-1.73-1.258-3.088l-0.595-1.487l-0.335-0.836
			c-2.161-1.684-0.354-1.602-2.181-3.468l-2.095-2.139c-1.636,1.716-0.214,0.57-2.211,3.32c-0.194,0.268-0.118,1.006-0.055,1.394
			l-0.93,1.589l-0.278,1.786c0.959-0.117,0.844,2.695,2.49,2.961C250.147,362.902,250.985,363.081,251.997,363.405z"/>
	</g>
</g>
</svg>
