<?xml version="1.0" encoding="UTF-8"?>
<svg id="Layer_1" xmlns="http://www.w3.org/2000/svg" version="1.1" viewBox="0 0 781.54 363.83">
  <!-- Generator: Adobe Illustrator 30.2.1, SVG Export Plug-In . SVG Version: 2.1.1 Build 1)  -->
  <g id="_x31_16mhN.tif">
    <g>
      <g>
        <path d="M260.73,211.33l-1.46.85c-.55-3.59.52-2.03,1.1-4.37l2.79-2.26,1.92.94c.45,1.25-.26,2.38-1.39,2.89-1.6.73-.24,1.94-2.97,1.96Z"/>
        <g>
          <g>
            <path d="M466.49,346.01c-.51,1.29-3.6.19-4.52-1.25l1.67-2.33,2.08-.78c.69-.92,1.68-1.44,2.9-.91.2.72.18,1.95-.27,2.43l-1.3,1.4-.56,1.43Z"/>
            <path d="M470.35,315.04c-1.52-.92-2.2-1.68-2.17-3.16.38-.28,1.21-.87,1.61-.93l2.53-.38c.68-.1,1.29-.28,2.11-.51.2.21.91,1.25,1.11,1.62l-1.32,1.43-1.29.64-2.57,1.29Z"/>
            <path d="M688.62,298.11c-1.13.69-2.91.56-4.19-.82-.01-.86,1.71-3.03,2.04-3.03h3.07c1.06,0,2.25,1.93,1.33,2.48l-2.25,1.37Z"/>
            <path d="M421.64,313.32c-.15-.71-.28-1.82.11-2.16l1.56-1.38-.74-1.05c.31-.44.65-1,.91-1.27.6-.62,2.12-.57,2.78-.08-.17,1.42-.67,2.85-1.33,4-.53.47-.94,1.1-1.3,1.73-.21.37-1.09.29-1.99.22Z"/>
            <path d="M751.22,328.97l-1.48-.12-.85.93c.08-.97.13-1.79.3-2.53l.49-2.1c.16-.67.99-1.82,1.86-1.79.82.03.72,1.37.32,1.77-.08.08-.35.58-.24.57l.69-.06.65-.04c.18-.01.07.54-.04.71l-1.71,2.65Z"/>
            <path d="M701.22,338.89c-.45-.06-1.19-1.15-1.05-1.54.36-.99,1.95-1.12,2.82-.75.73-.38,1.59-.65,2.21-.38.54.24,1.3,1.39.86,1.97-.39.51-1.77,1.08-2.39,1.01l-2.45-.31Z"/>
            <path d="M495.99,341.11l-1.27-.41c-.22-.44-.66-1.52-.61-2.04.1-1.02,1.51-1.35,2.33-1.44l1.15-.12c.3-.03.9.64.84.93-.12.61-.43,1.81-.62,2.54-.11.42-1.38.68-1.82.54Z"/>
            <path d="M431.07,326.49l.12-2.1-.06-1.19c-.01-.29,1.77-1.35,2.6-.78l.47-.77c.07-.11.37-.19.49-.22s.26.54.23.66l-.56,2.48c-.76.55-1.16.99-1.61,1.8l-1.69.11Z"/>
            <path d="M723.78,290.34c-.13.32-.62.87-.89.99-.32.14-1.05-.37-1.25-.66l-1.21-1.76c-.28-.53,1.02-1.82,1.7-1.72.99.14,1.7.52,2.53,1.01l-.88,2.15Z"/>
            <path d="M723.01,339.78c-.2.46-.72,1.09-1.06,1.46l-2.32-1.5.08-1.95c.01-.29.92-.7,1.19-.61l1.85.59c.25.08.82.54.88.62l-.62,1.38Z"/>
          </g>
          <g>
            <path d="M23.39,354.97l-.32-2.05c-.06-.37.36-1.25.36-1.63,0-1.9-.19-4.27,0-6.15l.2-2.05.2-2.01c.05-.52-.24-1.62-.38-2.26l-2.34.17-.89,1c-.1-6.03,3.11-4.97,2.19-7.12-1.04-2.43.47-.61-.47-5.34l-.45-2.25c-.31-1.56-1.6-3.81.53-4.72.92-.39,2.25.01,2.38,1.14.07.6.17,1.17.3,1.76l.78,3.73c-.21,1.29-.33,2.68-.14,3.95l.3,2.02.71,4.11c.11.62.05,1.45.07,2.14.08,3.25.56,3.95.25,6.59.09,1.09.11,2.17,0,3.25l-.24,2.08-1.26.21.95.42.66,2.02c-.66,1.24-2.34,1.72-3.38,1.02Z"/>
            <path d="M14.58,328.8l1.68,3.06c-1.28,1.14-3.59,1.33-3.83.58-.11-.35-.15-1.05-.19-1.45-.48-.8-.83-1.75-.65-2.72l.42-2.24c.27-1.47.48-3.24,1.25-4.43l.92-1.41c.16-.24.59-.75.51-.59,1.56,2.97.8-.51,1.65,2.45.22.77.18,1.26-.18,2.12l-.29,2.64c-.06.55-.98,1.59-1.27,2.01Z"/>
            <path d="M267.08,343.48c.05,1.56.51,2.27-1.48,3.83-.43.34-1.91.18-2.1.12l-.1-2.16-.06-4.02.04-3.2c.53-.17,1.52-.35,2.03-.42v1s1.55,1.47,1.55,1.47l.04,1.05.08,2.35Z"/>
            <path d="M35.87,322.56c-.12,2.59,2.32,2.48.98,5.21l-2.05-.46-1.12-1.61c-1.27-1.82-.82-4.34-.34-6.51l2.83-.8.39,1.78-.59.52-.08,1.86Z"/>
            <path d="M244.87,344.27l.53.84-1.2-.86c-.59-.42-1.1-1.92-.43-2.44.46-.36,1.32-.89,1.76-1.05l2.86-1.02c.2-.07.69-.1.86,0s.27.58.26.77l-.12,2.07-2.78,1.49c-.32.17-.97.19-1.74.2Z"/>
            <path d="M81.03,343.84l-1.85.03c-.54-.35-1.54-1.38-1.74-2.06l-.57-1.91c.22-.62.94-1.32,1.58-1.35.92-.05,1.68.56,1.94,1.42.78,2.55.43.71,1.69,3.14.15.22-.78.71-1.04.71Z"/>
            <path d="M225.2,347.41l-.2.55c-.07.18-.75.22-.97.09-.88-.53-1.29-2.07-.6-3.04.29-.41.8-1.07,1.2-1.15l1.72-.32c.51-.09,1.52.53,1.97.85l-.97,2.43-2.16.57Z"/>
            <path d="M52.1,351.39h-3.53c-.29-.62-.79-1.87-.54-2.38.29-.58.97-1.55,1.42-1.76l2.23-1.02c.13.72.2,1.3.24,1.99l.18,3.17Z"/>
            <path d="M267.97,301.05c-.59.68-1.13.94-2.07.83l-.44-2.53,2.28-1.72c.46-.35,1.74-.2,2.41-.03.28.78.24,2.32-.36,2.6l-1.82.84Z"/>
            <path d="M302.02,332.48c-.11-.76-.16-.92-.13-.36l-.6,1.66-1.33-.88c-.26-.17-.15-.99-.14-1.42l.04-3.29c.01-.86,1.91-.03,2.12-.28l.64-.77-.38,1.42c-.03.13-.33.53-.21.59l.55.27c.09.04.38.38.28.37l-.44-.02-.56-.03c-.18,0-.28.77-.14.87l1.02.7-.13,1.93-.56-.79Z"/>
          </g>
          <path d="M0,355.56v-.64c.7-.63,0-.94.58-3.49.17-.73.32-1.31.37-1.9l.24-2.68c.21-2.28-.22-3.07.46-4.33.34-.63.36-2.68.31-3.17l-.3-2.96c-.12-1.15-.27-2.15-.68-3.2-.66-1.71-.06-.4-.02-3.79l.04-3.81.14-3.01.26-4.67.21-3.89.32-2.78.21-4.26c.08-1.68.08-3.32.05-5.02-.03-2.03.43-3.98.1-4.44l-.4-.55c-.43-.6-.25-2.16-.06-3.04l.58-2.66c.02-.07.05-.37.06-.44l-.67.02c-.07,0-.07-.28-.03-.33l.24-.34.26-.35.28-.37c.04-.06.26-.29.33-.34l.36-.27.36-.27.37-.27.37-.27.37-.28.33-.31.33-.31.33-.3.35-.31c2.94-2.64,5.61-5.37,8.59-7.96.04-.07.27-.4.32-.44l2.2-1.83.84-.8c.11-.1.24-.23.33-.31l3.77-3.27c1.51-1.31,2.92-2.1,4.06-3.29l1.71-1.79c1.31-1.37,2.66-2.69,4.03-3.93.7-.64,1.44-1.05,1.96-1.9l1.13-.77,3.92-2.86c.93-.68,1.63-2.08,2.59-2.8l2.16-1.64,1.92-1.63,2.09-1.77c.66-.56,1.47-1.1,2.21-1.57l3.56-2.23c1.59-.99.95-1.22,3.41-2.96l2.63-1.86,3.95-3.66c.35-.32.96-.65,1.36-.9l1.76-1.12,2.34-1.48c.57-.36,1.13-.74,1.72-1.2l2.62-2.05c.11-.09.3-.75.85-1.16l.91-.66c.27-.19.5-.52.68-.66l3.79-2.89c.8-.61,1.78-1.03,2.49-1.63l1.39-1.16,2.16-1.39,1.19-.77c.43-.28.99-.74,1.37-1.1l.49-.46c.05-.05.41-.09.57-.12l.53-.11c.05-.01.27-.26.33-.3l2.57-1.94c1.51-1.14,2.61-1.27,3.12-2.18.31-.56.75-1.52,1.12-1.81l1.99-1.56,5.16-4.15c2.02-1.62.77.06,2.92-1.76.13-.11.38-.32.42-.36l1.11-1.39c.29-.36.74-.93,1.01-1.18l2.25-2.01c.26-.23.75-.55,1.1-.74l1.26-.71,2.05-1.1c1.07-.57,1.38-1.81,2.98-2.41,2.46-.94-.22-.49,2.3-2.26l1.67-1.17c.06-.04.26-.15.39-.23l2-1.19c.28-.17,1.03-.45,1.26-.64,2.74-2.36.76-1.28,4.6-4.06,1.61-1.16,2.95-2.56,4.2-4.1l1.99-2.46c.07-.09.42-.36.56-.45l5.97-3.89,2.65-1.5c1.62-.92,3.14-1.96,4.56-3.1,1.11-.9,2.16-1.72,3.51-2.27l2.26-.92c.18-.07.61-.7.78-.82l1.31-.87s.34-.4.39-.43l2.24-1.15c.79-.41,1.67-.76,2.48-.99l3.01-.85c2.58-.73,1.43-2.11,5.3-1.51l1.26,2.2c.18.32,1.12.59,1.43.86l3.75,3.21,1.24,1.08c1.33,1.15,0,1.51,3.97,2.59.8.22,1.95.34,2.46.71.47.35.86.68,1.15.63l.55-.09c1.57-.26,1,.21,1.93.39l.54.1.55.11c1.25.24,1.2,1.2,1.89.48.84-.87.58-.3,3.93-.45l1.57-.07c.84-.04.17.85,2.11.16,2.72,1.2,4.52-.17,7.56.56.12.03.43.09.58.1l2.67.14c.06,0,.39.46.44.45l.6-.09c.08-.01.4-.18.49-.18l1.26.05h.65s.65.01.65.01h.64s.65,0,.65,0h.67c.38,0,.67-.07,1.04-.2l.48-.16.48-.16.47-.16.49-.17.53-.12c.36-.08.72.06,1.03.32.91.77,1.81.23,2.92-.12l2.03-.64c.75-.24,2.04-.39,2.94-.45l3.35-.24c1.75-.12,1.69-1.63,2.71-.86.63.47.08.44.73.12l.41-.2.51-.16.58-.07,2.58-.32c1.42-.17.78-.4,1.5-.41l3.02-.05,3.1-.05h.45c.07,0,.52-.07.57-.12l1.03-1.07,1.84.02c.06,0,.39-.37.43-.43,1.33-2.06,1.26.12,5.51-2.06-.1.05,2.95-1.51,2.21-1.39l1.64-.27c.28-.05.73-.68.98-.93,1.69-1.73.96-.16,1.93-1.51.38-.53.87-1.23,1.24-1.63l1.42-1.52c.3-.32.73-1.08,1.03-1.51l.41-.57c.05-.07-.19-.25-.35-.37l-2.6-2.01s-.46-.18-.53-.2l-.52-.13c-.63-.16-.41-.05-.96-.32l-.43-.21-.43-.21-.42-.22c-.22-.11-.5-.2-.77-.11l-.46.15-.51.17-.46.15-.41.23c-.13.07-.35.19-.41.21l-.51.17c-.07.02-.62.03-.69,0l-2.03-.78c-.81-.31-1.62-.05-3.67-.48l-2.51-.52c-1.47-.31-.54.09-2.9.17l-.68.02c-1.42.05-1.43-.03-2.32-.27-2.6-.69-.27.5-3.86.11l-.47-.05c-1.52-.17-3-.1-4.55.07l-2.18.23c-4.85.51-1.82-.44-7.3.56-.25.05-.81.48-1.07.63-1.21.73-2.87.77-4.29,1.12-1.76.43-3.48,1.15-5.25,1.37-3.57.45-1.35.47-3.57,1.53-.43.2-1.03.48-1.23.76l-1.32,1.88c-.37.52-.99,1.32-1.67,1.51-1.02.29-3,.12-3.89-1.07-1.72-2.31-.85-3.25-2.29-6.64-.76-1.78-1.3-3.6-1.51-5.52l-.25-2.35c-.21-1.98-1.03-1.66-.56-3.11l.69-2.13c-.08-.25-.09-.73.05-.84l.45-.35.38-.25.4-.28c.08-.06.28-.18.35-.22l1.87-1.03c.85-.47,1.34-.46,1.5-.57l3.37-2.58,3.69-2.83c.06-.05.62-.2.7-.25l3.25-1.94c1.35-.81,2.6-1.47,3.87-2.28l3.74-2.36,1.56-1.03c.97-.64.8-2.2,5.21-4.35l1.73-.84c.63-.31.02-.7.35-.96l1.91-1.47s.38-.17.48-.22l.42-.2c.07-.03.25-.23.34-.3l.34-.31c1.02-.93.42-.07,1.68-.56,3.45-1.34,1.66-1.19,4.11-2.3l2.31-1.04s.56.06.6.02l.66-.61c.45-.42,1.38-.71,2.18-.94l.53-.16c.95-.28,1.08-.52,2.93-.01l4.12,1.11c2.13.57,6.54.99,9.09,1.1,3.14.14,1.23,1.26,3.09.53.47-.18,1.17-.44,1.53-.41l2.12.17c1.61.13,2.06-.49,4.06-.37l3.18.19c.45.03,1.01-.09,1.46-.24l-.11-.45-.38-.41h1.34c.1,0,.51.08.48.17l-.17.55s.16.22.15.21l.41-.4c.32-.32.68-.08,1.16.24.27.18.8-.12,1-.12l4.54-.05c.1,0,.46-.08.61-.11l.55-.11c.09-.02.33-.04.53-.07l.62-.07c.8-.09.25.07.98-.27l.42-.19.56-.13h.62s.64,0,.64,0c.77,0,.48.06,1.18-.08l.55-.11.56-.12c.08-.02.44-.04.54-.03h.69s.63.03.63.03l.63.03.51.02.4.02.45-.04c.89-.07.74-.1,1.54.27l.41.19c.55.25.91-.51,1.69-.37l.52.1c1.76.33,2.89-1,5.8-.04.31.1,1.13-.48,1.45-.43l3.06.42c.06,0,.55-.14.62-.15l5.2-.11c.35,0,1.34-.31,1.71-.28l3.77.27c.38.03,1.21.44,1.62.37l2.79-.46c1.85-.3.17.41,3.5.01,1.11-.13,4.48-.14,5.09-.04l2.03.34,3.79.6c.14.02.73-.11.85-.16s.14-.31.17-.55l.1-.94c0-.06.12-.4.14-.46l.2-.44.19-.47c.03-.08,0-.42,0-.58v-.75c-.01-1.57,1.93-1.6.96-2.5-.46-.43-1.46-1.29-1.9-1.84-.39-.49-.76-1.94-.77-2.64,0-.6,1.3-2.82,1.97-3.24l2.71-1.71c.75-.47.82-2.36,4.01-3.15,1.18-.29,2.4-.73,3.56-.75,1.72-.03,3.08-.37,4.66-.75l4.45-1.06,1.11-.26c1.49-.36,1.24-.6,2.25-.56l2.14.1c.14,0,.4-.03.84-.09l-.48-.26-.33-.37.68.07.53.05c.06,0,.64.26.7.25l5.51-.57c.07,0,.58.14.64.13l.47-.11c.07-.02.57-.12.65-.11l4.79.53,2.72.43c.45.07,1.02.14,1.32.24l1.28.46c.4.15,1.38.07,1.82-.1,4.06-1.57,3.73-.05,7.68.42l2.57.31c1.93.23,3.67.89,5.57,1.43,2.18.61,1.13,1.49,2.84,2.18.64.26,1.3.62,1.53,1.06,1.98,3.86,1.69,2.11,1.54,7.24-2.73,2.84-.19.79-2.96,3.56-.47.47-.98,1.17-1.45,1.73l-.87,1.04c-2.18,2.6-2.39,1.49-4.65,3.26l-1.32,1.03c-.34.19-.4.2-.25.22s.64.11.76.15l2.18.62c.1.03.56.1.64.09l.6-.09c.06,0,.37-.16.43-.19l.4-.25.39-.24.4-.24.38-.24.41-.24c.05-.03.45-.15.52-.15h.61c.66-.01,2.07,1.59,4.17.74l.53-.22c.57-.23.57-.17,1.06-.13l1.98.15c.48.04.42.22,1,.2l2.43-.09.66-.02h.67c1.96-.03,4.06.12,5.91.91.51.22,1.4,1,1.84.71l.58-.39c.25-.17.88-.1,1.25.03,2.49.84.65,0,2.85-.08l1.8-.07.46-.02c3.3-.11,2.81.52,6.28.12l2.35-.27c.38-.04,1.24-.21,1.6-.17l2.81.3,2,.21c.76.08,2.09.27,2.77.18,1.03-.14,2.58-.3,3.41-.61l1.19-.44c.19-.07.66.1,1.14.2s1.39-.27,2.06-.41l1.77-.35c.69-.14,1.62-.06,2.4.07l2.57.41c.61.1,1.96-.33,2.55-.45,1.36-.28.63.55,2.44-.45l2.75-.47,1.39-.06c2.61-.12,1.87-1.24,3.84-.41,1.5.63,1.54-.19,4.84-1.35,3.73-1.32,3.17-.4,4.53-.89l1.74-.62c1.67-.6,1.11,1.17,6.13.2l2.69-.52c.64-.12,2.04-.12,2.62.11l1.37.53.79.27c.22.08-.49,1.67,1.55,2.18,1.92.48,3.72,1.06,5.3,2.07l1.4.89c2.39,1.52,4.94,2.52,7.54,3.66l2.24.98c1.23.54,2.43.95,3.76,1.34,3.3.98,1.3-.45,7.03,1.78l2.24.87c.58.23,1.34.47,2,.68l2.41.76c4.21,1.34,1.28,1.43,4.93,2.88l2.83,1.13c.59.24.97,1.22,2.7,1.01l.66-.08.76-.09.46.42-.16.66-.14.57c-.04.18-.08.44-.13.52l-.22.41c-.31.58-.52.91.11,1.28l.41.24s.11.28.09.32l-.19.49-.2.52c-.04.09-.12.28-.18.41l-.19.42-.2.44-.18.42c-.08.18-.18.41-.2.5l-.12.54c-.02.09-.06.45-.06.54v.66s0,.66,0,.66c0,.2,0,.44.02.6l.05.7.36,5.22c0,.12.09.45.15.67.15.6-.07,1.42-.53,1.56l-2.58.82c-.09.03-.32.09-.45.11l-1.55.32c-.07.01-.6.28-.67.26l-2.39-.75c-3.56-1.12-1.02-.13-3.44-.69-.73-.17-1.71-.46-2.36-.48l-4.42-.17c-3.24-.12-.39.09-3.22.39l-2.32.25-3.15.4-3.89.6c-.29.04-1.12-.06-1.37.05-3.21,1.45-3.44.29-4.87.02l-2.79-.52-.55-.1c-.12-.02-.57.14-.64.23l-.29.37c-.31.4-1.91.49-2.27.44l-2.33-.29c-2.5-.31-4.82.17-7.37.35l-3.55.25-3.4.87c-.63.16-1.88-.48-2.49-.53l-2.88-.25-1.65-.11-2.38-.25c-.53-.05-1.38-.13-1.78.02l-2.42.94c-1.06.41-2.14.88-3.29,1.06-2.84.45-.67.22-4.37,1.45-.32.11-1.16.09-1.46.04l-1.04-.19c-.91-.17.48.97-1.84,2.81-2.2,1.74-2.87,3.31-1.85,6.18.59.8,3.52,1.23,4.47,1.25l4.13.09c.52.01,1.16.03,1.65-.02l2.63-.29c6.12-.68,7.01,1.17,9.99.99,2.22-.13.25.1,3.22.15s3.24-.23,5.04.81c1.01.59,1.22-.25,2.43.54,2.09,1.35,1.96-.44,3.87.65l.45.26c1.49.85,2.44.05,2.58.08l1.68.37c.43.1,1.44-.07,1.9-.02.92.1,1.78.23,2.62.23l4.76.05,4.1.04,2.37.02c-.13,0,6.05-.62,6.12-.63l3.56-.62c1.42-.25,3.15-.08,4.63-.21l2.95-.26c1.41-.12,2.81-.48,4.21-.84,3.43-.87,1.67.15,3.45-.39.97-.29,2.07-.62,3.07-.77l2-.29c.98-.14,2.22-.19,3.11-.41l2.88-.69.94-.22,2.91-.63,1.94-.4c1.35-.28.96.02,2.04.66l3.7,2.19c1.3.77.44.01,2.22.97,2.13,1.15,1.13.41,3.48,1.57l2.4,1.19c2.28,1.14.56,2.22,2.46,2.22.7,0,1.64,0,2.04.21l1.48.78,2.17,1.12c2.43,1.26,2.26,2.04,4.08,3.17.83.52,1.73,1.19,2.51,1.58l3.47,1.75c2.91,1.47.64,1.66,2.57,2.2l1.77.5c.08.02.4.17.43.21l.91,1.41c.41.64,1.41.43,2.94.82l1.85.47c1.45.37,1.78,1.45,2.79,1.68l.56.13c1.1.25,2.81,1.65,4.05,2.06,1.78.58,3.46.96,4.96,1.86l2.02,1.21c2.02,1.22.29,1.21,2.15,1.91,1.19.45,2.12,1.02,3.14,1.7l2.3,1.54c.77.52,1.54,1.03,2.36,1.46l2.55,1.34c2.01,1.06.8,1.22,1.9,1.54l1.73.5.51.15c2.39.69,2.54,1.59,4.06,2.29l1.58.72c.65.53,1.16.97,1.81,1.44l1.61,1.17c.17.13.96.08,1.26.12s.87.64,1.16.74c1.09.39,2.86.88,3.96,1.4l3.77,1.76c.49.23.97.41,1.62.66,2.13.82-.04.43,2.68,1.69l1.54.72,1.02.49.44.68c.24.37,1.65.44,2.1.72l2.36,1.42,3.12,1.68,1.93,1.04c2.47,1.33,1.51,1.73,3.4,2.58l2.4,1.09.86,1.14c.15.2.83.29,1.22.39,1.46.37,1,1.42,1.37,1.48l.85.14c.36.06.98.51,1.29.93.61.83,2.15,1.3,2.8,1.93l1.3,1.25,1.06.61c2.44,1.41,3.53.99,4.3,1.99.33.42.1.38.73.55l.55.15c.06.02.42.2.47.24l1.9,1.55c3.2,2.61,1.47.36,3.45,2.32.64.63,1.68.95,3.37,1.99l2.62,1.6c2.81,1.71.94-.17,3.28,1.38,1.31.87,1.04,1.18,1.67,1.61,2.33,1.58,2.62.82,4.43,2.25.85.67,1.59,1.21,2.44,1.79,3.18,2.16,1.35.63,3.72,1.97.95.54,1.81,1.16,2.6,1.87l1.38,1.24,1.95,1.79c.12.11.91.02,1.07,0,.1,0,.12.35.02.38l-.61.19.12.23.37.08.59.13.54.11c.06.01.24.22.32.31l.32.35s.27.21.32.25l.42.26.4.24.39.25c.5.31.67.43,1.07.85l.32.33.31.31c.11.11.28.26.33.32l.27.38.26.37.26.37c.04.06.26.19.37.28l.37.28.35.27.36.28.36.28.35.28c.87.69.42.6.8,1.13l.28.38c.15.2.76.59,1.14.77l.44.21.42.19.36.28.34.31c.05.05.21.34.23.4l.15.51c.21.72-.06.46.66.61l.58.12c.4.08-.08.63.36.85l.43.22.45.23c.05.03.24.16.36.24l.37.26.38.26.43.23.41.23.41.25c.1.06.27.15.39.21l.45.22c.11.05.27.13.39.18l.45.2c.15.07.41.16.47.21l.35.29.33.29s.39.18.46.22l6.66,3.78c.05.03.3.24.4.31l.36.26c.47.34.37.21.58.65l.22.46c.03.07.26.29.31.3l.57.1.54.09c.06,0,.36.21.39.26l.22.41.24.45c.16.3.17.42.66.54l.54.13.53.13c.06.02.36.16.43.2l.38.23.4.25c.07.04.34.1.51.15l.51.15c.14.04.4.1.45.14l.39.28c.06.04.22.21.32.31l.32.32.32.32.32.32c.06.06.25.18.37.26l.38.27.37.27c.12.09.28.22.34.25l.31.12.27.11.35.14.44.18.49.21c.37.15.63.18.98.11l.54-.1.54-.1.57-.1.59-.09c.08-.01.31-.07.46-.11l.51-.14.52-.14c.58-.15.55-.05.81.21l.33.33c.42.42.04.14.71.57l.38.25.39.25.38.26s.25.33.26.39l.09.53.1.56c.07.38.63,1,.77,1.13.18.16-.16.65-.2.78l-.09.32-.05.39c-.03.27.02.46-.33.8l-.33.32-.32.33c-.08.09-.25.23-.31.31l-.28.36-.28.36s-.32.24-.37.26l-.51.15-.51.15c-.42.12-.98.29-1.03.85l-.05.6-.05.6-.08.53-.1.5.06.45.09.53c.03.17.1.48.1.58v.63s0,.64,0,.64v.65c0,.16-.01.5.01.59l.12.54.11.52.11.56c.08.37-.19.82-.3,1.04l-.15.29.1.21.22.44c.25.51.3.63.22,1.13-.26,1.63-.42,3.12-.53,4.86-.15,2.42-.61-.27-.38,3.93l.27,4.96c.04.69.06,1.38-.04,2.05l-.49,3.09c-.06.36.17,1.17.24,1.48l-.22.43c-.05.1-.18.34-.17.4l.06.48.18,1.48c.04.36.19.82.44.88l.89.22c.63.16.51,1.18.5,1.25l-.05,2.32c0,.09-.04.34-.06.5l-.07.55c-.05.37-.12.83-.03,1.22l.13.54.12.51c.09.38.09.75-.04,1.1l-.18.48-.2.53c-.14.37.21,1.3.55,1.5l.53.3.24.1-.38.26c-.18.12-.47.63-.35.81l.55.85c.36.56-.86,1.61-.59,1.98.9,1.34,1.61,2.76,1.99,4.43.14.6-.97,1.62-1.51,1.87l-3.04,1.41c-.21.1-2.54.48-3.71.72l-3.22.68-3.4.66c-.06.01-.48.29-.5.34l-.32.66-.34.68c-.03.07-.53.19-.6.19l-.38.02c-.22.01-.5-.15-.59-.51l-.14-.54c-.01-.06-.23-.36-.28-.36l-.63-.03c-1.28-.06-1.48.61-3.71.26-.71-.11-1.41-.27-1.93-.29l-2.22-.1c-.49-.02-1.09-.03-1.44.06l-2.15.51-.55.11c-1.03.21-1.91.14-2.91.38l-1.9.46-2.34.3c-.41.05-.99.05-1.39.04l-5.71-.14-2.79.64h-5.96s-2.99-.05-2.99-.05l-2.05-.03c-.64-.01-1.41-.09-2.12-.19l-1.45-.21c-.38-.05-.93-.08-1.34-.09l-1.13-.02-3.1-.04-1.66.32h-10.76c-.3,0-1.06-.19-1.36-.25l-2.04-.42c.71.69-6.92-.18-5.95.01l-2.57-.52c-1.35-.27-5.19.09-7.46.05-.85-.02-2.11.39-3.03.42l-5.39.2c-3.92.15-7.79.47-11.57-.64l-1.3.49-10.8.08c-.68,0-1.53.07-2.18.12l-2,.15-2.6.24c-1.5.14-3.16.13-4.64-.04-4.05-.47-2.53.54-5.51.15-1.26-.17-2.4-.39-3.55-.46l-2.25-.12-4.78-.14c-1.55-.04-1.82-.87-3.81-.59-1.46.2-2.73.28-4.18.38l-5.38.38c-1.85.13-3.6.06-5.44.11l-2.62.06-2.54.29-9.57.03c-.4,0-1.28-.18-1.68-.12l-3.86.65c-.81.14-1.87.12-2.72.22l-2.9.33c-.33.04-.94,0-1.38-.02l-4.65-.13-1.38-.24-11.42-.08c-.82,0-1.5-.17-2.23.07-1.85.62-2.83-.23-4.91-.27l-4.71-.11c-.18,0-.64-.29-.77-.34l-.35-.15c-1.23.17-2.3.35-3.38.31l-3.58-.12c-.61-.02-1.42.05-2.13.07l-1.98.06-3.8.8-7.66.04c-1.45,0-.78-.89-6.11-.42l-2.5.22-2.91.2c-3.25.22-3.18.49-5.45.39-3.73-.15-5.05.19-7.66.04l-3.71-.21c-1.61-.09-.28.23-1.62.34-.9.07-2.6-.02-3.55.14l-5.5.87-2.23.38c-.94.16-1.88.27-2.86.32l-2.92.17c-.73.04-4.33-.7-6.31-.93l-2.57-.29c-1.13-.13-2.4-.41-3.44-.42l-1.84-.02c-.71,0-1.44.04-2.17.07l-4.69.23-3,.15c-.6.03-1.48-.13-2.16-.17l-3.49-.18c-.88-.04-1.99-.38-2.9-.5l-2.25-.3-2.84-.34-3.23-.28-12.06-.21c-1.76-.03-3.46-.27-5.16.02-.28-.04-1.01-.14-1.28-.15l-3.56-.15c-.72-.43-1.2-2.13-1.32-3.02-.64-4.75.39-2.83.04-5.71-.07-.55-1.88-.23-1.7-1.25l.11-.58c-.09-.13-.27-.42-.21-.32l-.68.07c-.06,0-.43-.1-.47-.13l-.38-.27-.23-.4-.24-.41-.25-.43-.21-.37-.23.11c-.71.35-1.05-.02-1.06-.08l-.11-.51-.13-.58c-.03-.15-.08-.35-.12-.48l-.15-.5-.15-.53c-.02-.08-.07-.32-.1-.47l-.11-.55-.1-.53c-.02-.09-.11-.59-.15-.64l-1.79-2.78-.29-.43-.24-.38c-.29-.45.05-.35-.65-1.29l-.27-.36s-.17-.35-.19-.42l-.16-.53-.15-.5c-.03-.1-.11-.33-.14-.39l-.22-.48-.21-.44-.2-.42-.21-.42-.17-.49c-.04-.1-.09-.33-.13-.5l-.13-.52-.21-.44-.27-.35-.27-.36s-.12-.32-.17-.46l-.18-.49-.18-.49-.17-.45-.16-.43-.18-.46-.17-.47-.17-.49-.17-.48-.17-.5-.17-.46-.17-.44c-.3-.77-.14-.05-.19-.83l-.03-.39c0-.05-.08-.26-.11-.35l-.16-.44-.17-.49-.18-.5-.17-.45-.21-.43-.2-.42-.21-.45-.21-.46-.2-.43-.2-.43-.19-.41c-.04-.09-.18-.26-.27-.39l-.25-.38-.25-.39c-.03-.05-.15-.36-.17-.43l-.15-.53c-.25-.87.06-.25-.42-.87l-.28-.36s-.14-.33-.17-.41l-.18-.52-.16-.47c-.03-.08-.18-.26-.27-.38l-.26-.37-.26-.38-.26-.39c-.07-.1-.17-.24-.26-.35l-.28-.36-.29-.37c-.05-.06-.16-.29-.21-.39l-.23-.43-.22-.43-.21-.42-.22-.43c-.03-.07-.17-.36-.18-.44l-.09-.55-.09-.58-.08-.6c-.21-1.58-.74-1.64-1.04-2.09l-.26-.38-3.45-5.16c-.59-.89-1.07-2.25-1.52-3.19l-.62-.12-.51-.1c-.05-.01-.43-.29-.42-.35l.21-1.79.31-2.9c.3-2.86.07-5.07.31-7.64l.24-2.46c.46-4.74-.25-1.47.05-5.26l.24-3.08.3-3.22c.22-2.34-.22-3.22-.02-7.02.15-2.94-.28-3.02,0-6.04l.31-3.26c.08-.85.24-1.91.37-2.73l2.01-1.22c.52-.32,1.79-.43,2.65-.51,1.36,2.43-.23,3.63,2.26,4.16,1.52.32,3.56,1.24,4.44,1.24l5.04.02c.35,0,1.12-.21,1.39-.24l5.44-.62,3.52-.31,3.1-.24c.77-.06,1.63-.13,2.36-.01l3.89.65c1.11.19,2.47.13,3.64.25.73.08,1.53.16,2.14.08l2.07-.26,2.91-.36c1.87-.23,3.56-.1,5.45,0l3.58.18,1.85.08c.37.02,1.27-.41,1.7-.43,2.05-.06,4.44-.17,6.56.04l2.59.25,2.34.22c1.05.1,2.57-.4,3.67-.39.58,0,1.29.06,1.75-.02l4.29-.7,3.27-.54,4.42-.61,2.64-.22c5.36-.45,10.4-2.05,15.68-3.06,1.54-.3,3.13-.24,4.57-.88l1.33-.6,4.2-1.58,3.76-1.07,2.76-.94-.56-1.99c-1.14-4.05.38-2.42-1.38-5.34l-.5.08c-.15.02-.58-.27-.67-.44-.97-1.72-.7-1.12-2.31-2.44l-1.95-1.6c-.72-.59-1.36-1.4-1.87-2.1l-.2.5c-.1.12-.19.23-.16.2l-.42-.49c-1.03-1.22-.77-.32-2.28-1.13l-.41-.22-.41-.22-.43-.23-.46-.24-.36-.22-.33-.31-.34-.31c-.05-.05-.27-.16-.4-.24l-.4-.24-.4-.24-.4-.24-.4-.24-.4-.24c-.06-.04-.3-.12-.43-.17l-.47-.19-.5-.2c-.14-.05-.33-.13-.41-.17l-.43-.22c-.64-.33-.27-.19-.91-.32l-.57-.12-.53-.12c-.05-.01-.33-.21-.37-.25l-.33-.33-.32-.32c-.29-.29-.55-.32-.83-.42l-.51-.18-.46-.17-.45-.17-.45-.17-.51-.18-.47-.18-.46-.18c-.06-.02-.32-.1-.41-.12l-.59-.12-.56-.12c-.09-.02-.31-.09-.46-.14l-.48-.16-.51-.16-.57-.02h-.65s-.65-.03-.65-.03c-.91-.02-.72-.18-1.13-.2-3.32-.22-7.03-.14-10.14-1.24-1.39-.49-2.55-.76-3.98-.92l-1.95-.22c-1.05-.12-1.76-.79-2.84-.67l-.79.09-2.49-.32c-4.21-.54-.89-1.21-5.44-1.28-1.02-.02-2-.23-3.01-.45-5.96-1.31-4.23-.72-10.37-.87-.27,0-1.01-.23-1.29-.28l-3.41-.53c-1.05-.16-2.21-.54-3.29-.49-5.28.21-1.48.86-7.08.14l-2.6-.34c-4.52-.58-1.43-.02-5.01.26l-2.63.21-4.1.19c-.76.03-1.49,0-2.27-.01l-5.59-.05h-3.37c-.78,0-1.75-.21-2.56-.26-2.07-.12-4.27-.2-6.31.04-2.17.26-4.22.73-6.41.47l-3.19-.39c-1.53-.19-3.02-.23-4.54.04l-5.44.99c-.92.17-2.26.2-3.13.18l-4.13-.11c-1.29-.03-2.6.07-3.93.19l-3.83.35-2.9.26-2.49-.71-3.56.73c-.67.14-1.86-.14-2.48-.07l-2.57.27-3.21.34c-.64.07-1.47.16-2.01.12l-2.17-.18-2.98-.24c-1.26-.1-2.97.39-4.33.51l-2.68.24c-5.2.46-2.79-.79-6.15.22-.59.18-1.63.18-2.38.28l-5.68.7c-.31.04-1.06.29-1.36.39-4.63-.76-5.17.24-9.37.95-2.55.44-3.2-.43-5.72.67-1.48-.02-3.06.11-4.45.48l-2.96.78c-.65.17-1.88.12-2.66.23-1.28.18-2.34.1-3.67-.02s-3.05.73-4.4.77l-4.5.14c-1.41.04-4.05,1.24-6.67,1.46l-3.61.31c-1.49.13-2.88.9-4.27,1.42-3.83,1.42-4.77,2.02-8.67,3.53l-3.69,1.43c-.05.17,0,.89-.08,1.08l-.69,1.71c-.49,1.21-.68,2.32-.66,3.58,0,.61-.15,1.65.19,2,2.01,2.09-.11-.33,1.71,2.53.18.28.37.56.29.71-.91,1.76.35,1,1.74,3.36.12.16.18.24.15.17.76-.08,1.31-.09,1.87-.02l3.52.41c2.05.24,4.18.99,6.1,1.48,1.55.39.46.97,3.93,1.7l2.42.51c.22.17.76,1.01,1.04.95l2.37-.47c1.06-.21,2.13.61,3.1,1.04,4.86.18,2.16.14,5.59.85l3.21.66,3.91.78c1.09.22,2.26.1,3.09.77,1.88,1.52.41-.67,4.48.33,2.08.51,4.29.47,6.45.65l2.64.21c.54.04,1.41.42,1.84.35l1.67-.29,4.11.02,4.06.14c4.01.14,2.23,1.2,5.49,1.46l1.95.15,1.66.12c2.95.2,2.49-.05,5.2.19.33.03.99-.11,1.27-.25l.6-.31.05.49.13.4,1.01-.75,6.26-.23c.63-.02,1.68-.14,2.27-.27l8.21-1.76c.8-.17,2.23-.9,2.9-.62,1.24.52,2.29,1.05,3.58.72,1.48-.38.52.45,2.38,2.42.68.72,0,2.47.08,3.41l.25,2.93c.08.99.56,3.1.44,4.05l-.37,2.8-.22,3.64-.18,2.41c-.1,1.27.06,2.19.57,3.45.26.64.05,1.93.03,2.68l-.12,3.34c-.01.3-.06.67-.1,1.11-.28,2.65,1.06,1.65.79,3.39l-.51,3.21c-.1.61-.3,1.36-.46,1.98l-.87,3.41c-.18.69-.85,1.54-1.24,2.21l-.55,2.09c-.75,2.86-1.06-.09-1.65,4.65-.14,1.13-.33,2.4-.87,3.27l-1.25,2.04c.34.77-.71,2.62-1.16,3.34-.82,1.3.25.43-.77,3.86-.35,1.19-.86,2.27-1.57,3.27l-1.15,1.62c-.09.94-.45,1.75-1.17,2.45l-.57,1.69c-.12.35-.32,1.2-.41,1.57l-1.78,1.91c.18,2.5-.69,1.46-1.51,2.98l-.83,1.55c-.31.57-.37,1.87-.64,2.51l-1.32,3.19c-1.49,3.58-.25,2.66-1.05,3.97-.94,1.55-1.67,1.18-1.47,1.46l.29.41.38.54c.08.11-.42.45-.48.61l-1.44,3.83c-.13.35-.27,1.25-.36,1.61l-1.54,2.01c-.49.64-1.35,1.51-2,2.15-.47.46-1.97.07-2.74-.08-2.33-.45-.6,1.15-4.77.38-.7-.13-1.56-.33-2.17-.35l-4.12-.19-2.92-.19c-2.53-.17-3.41-.32-5.83-.85-.96-.21-2.38-.04-3.39-.18l-3.89-.54-1.99-.26c-.44-.06-1.36-.11-1.76-.07l-1.99.2-3.22.31-2.98.29c-4.1.4-2.41-.44-5.76.42-.6.15-1.84-.4-2.46-.4h-3.51s-3.8.08-3.8.08c-1.21.02-2.37.11-3.54.26l-2.59.32c-1.35.17-2.98.11-4.36,0l-2.93-.25-2.6-.22c-1.32-.11-2.73-.09-4.07-.04l-1.22.05c-.46.02-1.04.04-1.46.12l-2.33.43c-.63.11-1.58.61-2.26.62-1.56.02-3,.03-4.49-.09l-2.99-.26c-.73-.06-1.49-.03-2.25-.03-1.04,0-2.09-.12-3.16-.18l-2.18-.13c-.6-.04-1.39-.06-1.94-.04l-2.61.11c-.85.04-1.72.14-2.57.23l-2.59.26c-.72.07-1.6.07-2.26.18-.96.15-1.83.27-2.77.21l-2.02-.14c-1.08-.08-2.29-.11-3.37,0l-3.32.3c-.66.06-1.86-.31-2.44-.47-.51.15-1.33.37-1.91.42l-2.67.23c-1.32.11-3.11.28-4.33.07l-1.44-.25-5.61-.12c-.59-.01-1.66-.33-2.12-.09-.66.36-1.52.58-2.05.22-1.18-.8-1.97-.13-3.07.08-3.55.7-6.36-.35-9.42-.2s-3.42.4-5.77.47c-1.08.03-6.28.26-6.92.38-5.12.94-3.12.5-7.84-.09-.51-.06-4.49.67-4.43.67-1.12.04-2.46-.07-3.63.09-1.27.18-2.45,0-3.75-.08l-2.16-.14-5.83-.86c-1.18-.17-2.87-.16-4.07,0l-3.91.54c-.76.1-2.08-.04-2.71.16-5.42,1.71-1.38.27-5.29.7l-1.85.2-2.89.32-5.2.73-2.57.36-2.24.29c-2.06.26-3.88.55-5.91,1.2-.59.19-1.6.18-2.29.28l-3.27.48-3.87.61-2.52.39c-.8.12-1.73.16-2.5.19l-1.66.06-1.89.08-2.27.09-3.69.05-2,.12c-1.12.07-2.33.25-3.51.44l-3.11.48c-2.06.32-4.13.65-6.16.32-.38.03-1.29.26-1.69.23l-2.46-.16c-1.33-.08-3.18-.75-4.22.34-.4.42-.89.99-1.4,1.15-2.36.73-1.75-1.38-3.99-1.27l-2.27.11c-4.27.21-3-.18-7.86-1.04l-2.08-.37-2.55-.4c-.83-.13-2.24.06-3.01-.15-2.25-.63-4.19-1.04-6.53-.92-1.18.06-2.92.11-3.86.63-.34.18-1.56,1.92-2.9,1.65-.37-.07-.82-.82-.86-1.2l-.28-3.24c-.06-.74-.17-1.44-.39-1.92ZM294.32,287.43c-.87.16-1.19.23-.84.26.44.1.7.16.77.15l.55-.11c.31-.06.59-.16.97-.13l.39.03.36.05.45.06.57.09.57.02h.66s.66.01.66.01c.08,0,.42.05.51.07l.55.11.55.11h.61s.65.03.65.03l.6.02c.45.01.65.21,1.09.17l2.45-.23c.08,0,.45.01.65.02h.63s.67.03.67.03c.15,0,.48,0,.56,0l.62-.09.5-.07c.07-.01.37-.02.42-.01l.5.08.57.08.6.09c1.41.21.99.6,1.43,1.04l.33.33c.1.1.26.26.31.31.43.33.77-.26.93-.69l.17-.44.18-.5.18-.5.17-.47.18-.44.17-.43c.02-.06.22-.5.3-.6l3.77-4.62c.18.01.72.04.75,0l1.27-2.43c1.35-2.58,1.7-1.8,2.8-3.58,1.18-1.91,1.85-2.93,2.42-4.9,2.08-1.21,5.66-5.46,6.82-7.61l1.49-2.76c.76-1.41,6.58-8.2,3.84-7.82l-3.38.47-2.14.61-3.6.65-3.26.59c-2.23.4-3.62.06-6.41.31-1.38.12-2.55.15-3.91,0l-3.21-.35-3.74-.18-2.3-.2c-1.02-.09-2-.27-2.99-.48l-3.5-.74c-1.9-.4-5.95.12-7.53-.16l-4.53-.82-8.2-.21-3.54-.59-3.22-.32c-.9-.09-1.96-.12-2.82-.36l-3.93-1.08c-.75-.21-1.45-.29-2.11-.47l-3.78-1.06c-1.92-.54-4.19-.39-4.88-.51l-3.29-.56c-2.13-.36-3.81-.78-5.63-1.63l-1.85-.86c-2.24-1.04-1.8.25-4.35-.7-4.39-1.64-4.66-.31-10.02-3.4l-2.25-1.3c-3.54-2.04-3.51-1.07-6.21-2.69l-2.7-1.61c-.09-.05-.45-.46-.44-.44-.03-.06.63-.43.48-.76l-1.06-2.34-.22-.49c-.2-.45-.16-.41-.31-.98l-.14-.54c-.02-.07-.06-.39-.07-.48l-.05-.64-.06-.69c-.12-1.46.02-3.26.38-4.62.4-1.5-.77-.35,1.23-4.94,1.48-3.39-.71-1.2,3.67-7.24.94-1.29,6.06-5.55,7.23-6.12l2.79-1.36,2.02-1.21c.18-.11.72-.34.92-.34h1.09c.34,0,1.03-.21,1.49-.31l.62-.13c.57-.12,1.34-.41,2.02-.63l2.28-.73c3.24-1.03.62.13,3.95-.79l1.57-.44c.76-.21.62-1.16,1.78-.98l.58.09c.06,0,.42-.1.48-.13l1.82-.94c.06-.03.36.03.69.06,1.78.2.9-1.73,7.16-1.47,1.05.04,1.29.88,2.46.19,3.03-1.78,1.01-.69,4.47-1.29,3.91-.67,3.4-1.4,4.38-1.29,1.87.22.28.22,2.91-.4l2.55-.61c5.02-1.19,5.73-.35,6.48-.53.51-.13,1.37-.39,1.79-.36.8.05,2.4.27,3.08-.1l.72-.39c.37-.2,1.11.46,1.74.17l.93-.43,3.08-.2,1.67-.11c.24-.02,3.14.3,3.72.51.18.06.56.32.7.3l1.89-.19c4.59-.47,2.49-1.34,4.6-.85,1.47.34,2.72-.45,4.11-.65,2.86-.4,5.73.07,7.53-.16l2.92-.37,2.94-.3c.61-.06,1.35-.28,2.03-.5,1.58-.52.32.16,3.48-.26.43-.06,1.13-.2,1.43-.19l4.15.12,1.48.05c2.36.08-.86.71,2.03.12l4.82-.98c.56-.11,1.44.05,1.69-.43.15-.27.88-.55,1.18-.55l1.76.03c4.68.07,3.3-.74,6.37.32,1.12.39.09.09,1.51.09h1.61c5.17.02,2.15-.63,7.07-.58l4.37.05,1.38.03c3.26.07,2.41.5,4.72.23l2.65-.3c1.91-.22.86.42,2.61.25.53-.05,1.1-.11,1.64-.13l1.67-.06,2.56-.1c5.12-.2,3.85.5,8.1.07l3.57-.36c1.24-.12,4.25-.25,5.42.19l.76.28s.71-.4.87-.44l.57-.13c2.08-.46,1.71,1.04,2.06.46l2.39.19c.08,0,.41.07.55.1l3.44.77,2.31.52.52.11c.06.01.55.05.64.03l4-.98c1.68-.41,4.45.33,5.92.74,1.55.43,3.29.76,4.99.92l2.19.21c.38.04,1.34-.1,1.72.01l2.19.67,2.3.71c.18.05,2.81.44,2.72.44l2.33.11c1.4.07,2.57.51,3.88.86s2.96.6,4.37.78l3.43.43,3.12.44,1.92.29c1.06.63,2.08,1.13,3.2,1.31l2.75.43c.64.1,1.41.14,1.93.33,2.78,1.03,2.17-.35,4.03.31.06.02.51.34.57.34l3.85-.46c.56-.07,1.76.8,3.62,1.16,4.25.83,1.43.65,3.87,1.16,3.57.75.76.7,3.59,1.25,3.74.73,2.77,1,5.03,1.37.73.12,1.48.22,2.04.45l2.59,1.06c1.42.58,2.34-.37,2.61.38.17.47.42,1.22.64,1.44,2.33,2.25,2.77.91,4.4,2.66.38.41.68,1.19.94,1.58l1.29,1.97,1.25,1.92c.6.91,1.07,1.93,1.61,2.9.47.85,1.06,1.73,1.41,2.62.24.61.44,1.1.68,1.58l.88,1.76c.15.3.26,1.11.23,1.47l-.19,2.15-.25,2.33c-.09.79-.46,1.81-.71,2.64-1.41,4.63-2.57,6.41-6.28,9.14l-1.32.98c-.59.44-1.48.88-2.22,1.22l-1.56.7c-1.26.57-2.66.99-4.01,1.46-3.75,1.29-2.52.32-6.74,2.13-.92.39-1.89.73-2.84,1.07l-2.62.95c-2.82,1.02-1.8-.17-5.72.87l-2.56.68c-1.48.39-2.96.67-4.47.96l-2.96.57c-.88.17-1.97.18-2.92.28l-3.17.33-3.19.32-3.26.3c-.99.09-2.12.42-3.14.59l-2.55.41c-4.86.79-2.72-.8-5.71.31-1.3.49-2.87.02-4.26-.01l-7.58-.18c-.47-.01-1.34-.18-1.79-.06-4.01,1.14-5.59-.32-11.01.22l-1.96.2-2.93.29c-1.04.1-2.38.13-3.4.01l-2.91-.34-2.51-.36c-1.33-.19-2.58-.08-3.94.01l-3.11.22-2.87.29c-.28.03-.89.03-1.12.07l-4.72.78c-1.13.19-2.49-.24-3.89.3l-.03.45.27.42.24.39c.08.12.21.34.24.39l.5,1.14c.16.38.47.53.54.72l.17.46.19.52c.16.43.24.38.65.58l.42.2c.7.33,1.36.93,1.59,1.53l.2.51c.27.71-.06.2.47.82l.29.34c.05.06.13.29.19.42l.21.46.21.45.19.42.2.43.21.45c.03.05.26.29.31.32l.38.26c.06.04.28.28.3.33l.15.51.15.5c.08.28.49.42.65.58,0,0,.42.53-.19.83l-.47.23.15.12.35.29c.12.1.26.22.33.29l.34.33.32.31c.64.6.39.29.79,1.09l-.25.16-.4.25.07.28c.29.51.22.31.6.62l.37.3s.27.24.31.29l.27.37.27.37.32.32.32.32c.1.1.27.26.32.32l.26.38.22.41.23.41.23.41.23.41.22.4.23.42.17.49.16.49.2.41s.55.67.58.7l.34.3.34.29.35.3c.38.33.19,1.27.54,2.02l.21.44.2.43.18.42c.04.1.17.5.22.58l1.71,2.86.65-.21c.6-.2,1.34-.3,1.82-.09l1.27.54.44.17c3.17,1.2,1.41,1.91,6.81,1.29l2.6-.3c1.26-.14,2.75-.21,4.08-.06l2.87.32,3.54.55,1.65.26c.07.01.52.12.56.17l.69.79.33.38,1.64-.54c1.07.31,2.02.55,2.96.73l3.53.68c2.7.52,4.04.38,4.73.62.32.11,2.1,1.12,2.36-.08.44-.13.36,0,.73.21l.34.2c.78-.24,1.92-.55,2.54-.41l.65.15.61.14c.06.01.29.1.43.15l.44.17c.76.3.13.15.91.15h.41s.44.03.44.03l.57.03.64.04.64.03.19.2-.3.31-.25.43.62-.21c2.23-.76,2.37-.55,5.11-.22l.72.09c.07,0,.42,0,.64,0h.64s.65-.01.65-.01c.16,0,.5.02.59,0l.54-.13.53-.13c.07-.02.45-.04.52-.02l.63.16c1.12.28,1.53-.28,4.09-.62l2.58-.34c1.05-.14,2.15-.17,3.26-.2l3.45-.1c2.32-.06-.15.59,3.45.28l2.26-.2,3.27-.06c1.31-.03,2.5-.28,3.75-.12,1.92.24,1.6-.1,4-.34l3.21-.32,3.48-.35,2.91-.3,2.9-.31,2.47-.18c1.48-.11-.18.47,3.73.41.07,0,.59-.29.66-.29l2.35.15c.54.03,1.33.01,1.84-.03l2.68-.19c3.04-.21.02-.72,6.32-.51,3.18.11,4.26-.62,4.54-.64,1.86-.14,3.78-.13,5.71-.06-.63-.02,4.67.54,4.17.54l9.58.02c.65,0,1.69-.32,2.44-.45,2.37-.4,1.27.39,2.92.06l3.69-.75c.74-.15,1.95-.13,2.71-.03l2.91.35c3.9.48,1.24-.07,3.97.13,1.3.1,2.52.04,3.81-.09l3.47-.36c2.17-.22,4.41-.13,6.64.01.49.03,1.46.39,1.91.29s1.31-.37,1.66-.37l4.66-.03c.19,0,.78.36.97.49l.41-.19c.12-.05.33-.18.4-.18l.41-.02.41-.02h.45s.56-.02.56-.02h.64s6.42-.41,6.42-.41c.08,0,.42.02.63.02h.63s.67.03.67.03c.1,0,.46-.02.54-.04l.58-.1.53-.09.57-.09.59-.09.54-.08.55-.09c.13-.02.41-.06.5-.06l.67-.02.62-.03c.1,0,.37-.09.54-.12l.53-.1.56-.09c.07-.01.46.06.54.08l.54.13c.35.08.72.22,1.12.13l.54-.12.54-.13c.08-.02.44-.08.53-.07l.62.04.67.03c.79.04,1.47.04,2.27.01l3.08-.09c1.09-.03-.26.29,2.76.19l1.61-.05c1.62-.05,3.2-.11,4.84-.02.48.03,1.03.04,1.45,0l2.87-.32,2.88-.31,4.51-.58,2.83-.41,2.51-.4,2.22-.39c.93-.16,1.91-.18,2.89-.26l2.92-.23c2.66-.21,3.77.18,4.43.1l3.53-.41,7-.16c.96-.02,2.22-.43,3.19-.51l3.26-.28c.89-.08,1.99-.3,2.83-.32l7.84-.19c.48-.01,1.16-.12,1.57-.06,3.36.42,1.36.03,4.47-.08l1.44-.05,3.41-.12,1.26-.04,1.51-.08,2.78-.11,2.32-.04,2.37-.05h.88s3.41.09,3.41.09c3.41.08,1.97.44,4.18.38l2.7-.08,5.13-.07c.32,0,.81-.09,1.12-.12l2.61-.3c.38-.04,5.93-.36,4.94.01l.43-.16c1.6-.6,3.35,0,4.98-.11l3.29-.22c.17-.01.57-.04.67-.03l2.63.27,2.79.29c.17.02.64,0,.78-.02.1,0-.09-.19-.23-.38l-.38-.29-.37-.28-.36-.27-.37-.28c-.11-.09-.24-.18-.36-.26l-.39-.26-.38-.25c-.13-.09-.31-.19-.39-.26l-.34-.29-.34-.29-.35-.3c-.06-.05-.28-.15-.41-.22l-.41-.22-.41-.22-.5-.28c-2.02-1.11-5-3.01-6.6-4.14-.12-.09-.41-.51-.46-.54l-.35-.25-.37-.27-.38-.28c-.08-.06-.26-.19-.33-.23l-.43-.26c-.14-.08-.35-.19-.41-.25l-.32-.31c-.1-.1-.25-.26-.32-.31l-.37-.25-.39-.27-.39-.27c-.1-.07-.29-.2-.34-.24l-.38-.31-.35-.29-.35-.29-.36-.29-.35-.28-.35-.28-.36-.29-.36-.28-.37-.28-.36-.27-.36-.27-.37-.27-.37-.27-.36-.27-.37-.28-.37-.28-.35-.27-.32-.33-.32-.32-.32-.32c-.48-.47-.12-.18-.69-.59l-.37-.27c-.54-.39-.15,0-.66-.62l-.28-.34-.29-.35-.34-.3-.35-.3-.36-.3c-.09-.07-.22-.19-.31-.28l-.33-.33-.35-.34s-.24-.2-.3-.24l-.39-.29-.38-.27c-.07-.05-.22-.21-.32-.3l-.34-.31-.33-.31c-.07-.07-.25-.19-.35-.26l-.37-.29-.36-.27c-.68-.51-.11-.15-.8-.49l-.45-.22c-.06-.03-.29-.19-.34-.23l-.37-.3-.35-.29-.36-.29-.36-.29-.35-.28-.35-.29-.35-.28-.37-.28-.36-.28-.36-.27-.37-.27-.39-.28c-.07-.05-.28-.22-.31-.26l-.3-.36c-.44-.53-.07-.27-.65-.61l-.42-.25c-1.14-.67-.22-.41-1.49-1.06l-.43-.22-.41-.21-.39-.26-.39-.26-.38-.24-.4-.24-.4-.24-.4-.24-.4-.24-.4-.24-.4-.24-.4-.24-.4-.24-.39-.25-.38-.23-.41-.24c-1.12-.66-.59-.57-1.06-.87l-.39-.25c-.09-.06-.28-.13-.43-.2l-.43-.2-.42-.21-.41-.23c-.09-.05-.3-.12-.45-.17l-.49-.18-.48-.18-.39-.24-.39-.24-.42-.26c-.08-.05-.27-.15-.37-.2l-.44-.22-.43-.22-.43-.22-.42-.22-.41-.22-.4-.22-.41-.22-.43-.23-.42-.23c-.08-.05-.25-.18-.37-.27l-.39-.29c-.06-.04-.24-.15-.37-.22l-.41-.24-.4-.24-.4-.24-.4-.24-.42-.25c-.08-.05-.29-.18-.34-.22l-.38-.3-.36-.28-.37-.28-.37-.27-.36-.27-.37-.27-.37-.28-.36-.27-.36-.27-.38-.28c-.09-.07-.24-.19-.33-.26l-.35-.3-.35-.3c-.05-.05-.28-.14-.43-.22l-.43-.22c-.14-.07-.33-.15-.42-.21l-.36-.23c-.16-.1-.35-.22-.4-.28l-.32-.32-.33-.32-.33-.32-.37-.26c-.06-.04-.33-.09-.49-.13l-.51-.14-.53-.14-.43-.16c-.19-.07-.4-.15-.46-.19l-.39-.27c-.12-.08-.89-.86-.67-.71l-2.05-1.35-3.6-2.41c-1-.67-.2.08-1.03-.48l-5.02-3.36c-.77-.52-1.53-.89-2.15-1.39l-1.97-1.58c-.06-.05-.32-.22-.39-.26l-5.15-2.77-2.33-1.21-2.4-1.19-2.33-1.15c-2.57-1.27-.49-.7-2.33-1.46l-3.13-1.3-4.18-1.59c-1.36-.52-2.79-1.02-4.01-1.77l-3.58-2.22-1.36-.87-2.52-1.7c-.4-.27-1.23-.54-1.73-.79l-4.53-2.21c-1.16-.56-2.28-1.28-3.46-1.93-.72-.4-1.33-.97-2.01-1.46l-1.33-.96c-.82-.59-1.66-1.1-2.52-1.64l-1.94-1.21-1.45-.84c-.43-.25-1.02-.61-1.46-.77l-3.04-1.14-1.87-.69c-1.76-.65-3.37-1.66-4.95-2.66-2.58-1.63-.89-.19-3.6-1.83s-2.02-.12-3.89-1.49c-3.01-2.22-4.6-3-7.49-4.75l-1.96-1.18-1.42-.86c-.11-.06-.59-.28-.69-.37l-2.63-2.4c-.1-.09-3.12-1.68-3.24-1.74l-2.69-1.2-1.78-.8c-2.41-1.08-3.58-2.47-5.26-2.97l-3.98-1.18c-1.52-.45-3.1-1.06-4.27-2.1-1.69-1.5-1.89-.42-5.29.06l-2.63.37-3.24.54-3.85.64c-3.91.65-2.62,1.25-8.51,1.7l-3.26.25-3.13.21-1.86.13c-.26.02-.93-.06-1.2,0-1.05.22-2.54.56-3.66.68l-2.68.28c-.58.06-1.6.3-2.09.26-1.8-.14-3.43-.13-5.18-.05l-2.61.12c-3.49.16-2.58-.07-6.06-.12-.96-.01-2.11-.01-3.14-.15l-5.81-.78c-.31-.04-1.08.08-1.38,0l-.89-.24c-.06-.01-.47,0-.56-.01-1.56-.33-3.7-1.07-5.38-1.11l-5.46-.13c-.71-.02-1.7-.25-2.42-.4l-2.96-.63c-1.28-.27-2.59-.02-3.93.03l-4.11.16c-.62.02-1.28,0-1.91-.03l-2.62-.15-3.44-.09c-3.39-.09-2.09-.31-5.07-2.72l-2.62-2.11c-.61-.49-3.99-4.89-1.92-6.37,1.78-1.28-.11-.54.75-3.85.74-2.85,1.16-3.18,2.62-5.69.41-.7,4.14-2.44,5.39-2.88.74-.26,1.32-.52,2-.9.72-.41,1.48-.68,2.24-1.02l2.38-1.07c1.91-.86,3.78-1.69,5.83-2.16l2.38-.54,2.7-.71c.8-.21,1.7-.27,2.51-.35l3.22-.35c.39-.04,1.24-.23,1.61-.2,7.55.6,11.15-1.85,15.05-1.99l5.88-.2,1.48-.15c2.5-.25,4.08,1.18,7.33.36l1.84-.46c1.9-.48,3.84-.22,5.75-.23l2.88-.02c3.33-.02,3.51-.36,6.65-1.19,1.6-.43,3.22-1.1,4.83-1.24l1.97-.18.09-.29c-.25-.22-.36-.31-.39-.36l-.17-.26c-.04-.06-.1-.18-.12-.19l-.39-.15c-.15-.06-.41-.14-.49-.19l-.41-.24-.39-.22c-.07-.04-.34-.15-.4-.17l-.55-.18-.49-.16-.43-.15c-.15-.05-.36-.11-.5-.17l-4.74-1.88c-.11-.05-.51-.12-.63-.14l-.51-.11-.52-.11-.44-.19-.44-.22-.45-.21c-.06-.03-.35-.14-.41-.16l-.58-.16c-.08-.02-.37-.07-.46-.08l-.61-.06-.61-.07c-.16-.02-.41-.05-.49-.07l-.56-.12-.55-.11c-.72-.14-.38-.01-.98-.3l-.41-.2c-1.46-.7-5.95-1.71-8.47-3.07l-6.81-3.69c-.92-.5-.16-.12-.9-.35l-2.66-.84c-.08-.02-.55-.13-.61-.16l-1.86-.95c-2-1.02-1.15-2.6-2.46-2.52-.85.05-1.66.09-2.32.06l-4.11-.2c-1.65-.08-3.09-.3-4.66.24l-3.84,1.33c-.63.22-1.97.3-2.74.38l-2.92.33-2.46.14c-3.74.21-5.97,1.83-7.92,1.97l-1.72.12c-4.18.28-1.65-.94-5.49-.36l-2.53.38c-3.76.57-2.34.81-5.97,1.16l-1.32.41-2.29-.75c-.6-.19-1.83-.13-2.45-.2l-2.7-.29c-.92-.1-2.25.53-3.09.83l-2.51-.28-2.62-.29c-1.08-.12-2.12-.09-3.22-.07-.93.01-2.09-.19-2.96.06-.81.23-1.4.3-2.09.15-1.97-.43-.85.61-2.84-.04-1.6-.52-4.27-1.2-5.62-.76-1.8.58-3.27.32-5.08.25l-5.62-.22c-.95-.04-2.22-.43-2.97.05-.88.57-1.74.73-2.61.56-1.44-.28-.49.43-1.73.09l-2.34-.65c-5.2,2.46-3.56-.16-6.82.51l-2.25.46c-.19.04-.71.02-.74-.17l-.14-.7-.5-2.46.87-.48c.2-.11.22-.77.25-1.03l5.81-1.2c1.27-.26,2.41-1.24,3.46-1.94.81-.54,1.49-1.07,2.12-1.71l2.54-2.58,1.62-1.65c1.1-1.12,1.75-4.98.18-6.46l-1.69-1.59c-.46-.44-1.73-.78-2.33-1.14-.7-.42-1.55-.88-2.31-.92l-3.88-.21-4.22-.98c-1.69-.39-3.07,2.09-5.67.35l-1.8-1.2c-.82-.55-1.53-.18-2.57-.02-1.3.19-3.16-.42-5.97-.21l-3.69.28c-1.38.1-3.81.04-4.05.11l-3.93,1.09c-.83.23-1.71.34-2.51.49-1.21.24-2.5.63-3.68.65l-2.63.05c-1.61.03-3.03,1.35-4.25,2.33l-1.65,1.33c-.62.5-1.09,1.2-1.11,2.16,0,.38.43,1.03.72,1.22,2.34,1.45,3.28,2.39,4.74,3.24l2.82,1.66c1.25.74,2.74,1.45,4.08,1.94l2.37.87c2.42.89,3.39,3.66,2.29,4.13l-3.57,1.52c-2.85-.4-1.84.2-3.8.58l-2.82.55c-1.08.21-3.32-.7-7.75-.2-2.48.28-5.67.25-7.99-.63l-2.23.05-1.22.02-6.11.08c-.89.01-1.71-.1-2.6-.22l-2.87-.4c-.74-.1-2.02-.23-2.67-.13l-1.74.25c-1.02.15-2.14.35-3.17.42l-3.59.23c-.48.03-1.32.04-1.87-.04l-4.78-.71-3.89-.22c-2.3-.13-2.43.54-4.73.72l-3.86.31-3.47.24c-.98.07-1.95-.11-2.93.11-1.27.28-2.41.38-3.62.31l-3.79-.21c-1.35-.08-3.37,1.02-7.22,1.13-.92.02-1.61-.19-2.39.29-1.93,1.17-.9-.31-5.14.35-.42.07-1.37-.07-1.8-.05l-3.24.19c-.8.05-1.8-.29-2.63-.48-1.35-.3-3.02-.58-4.25-.72-.43-.05-1.4.13-1.78.02l-2.76-.84c-1.45-.44-1.82-2.69-3.17-1.6-1.85,1.49-4.13,2.62-6.21,3.5l-2.31.97-.4.38c.41.46.61.68.41.46-2.27.06-1.23,1.76-3.39,2.57-.8.3-1.41.55-2.05.89l-2.25,1.21c.03,1.86-.99.11-.86,2,.09,1.23-1.34.94-3.45,2.42-3.94,2.76-2.43.66-5.98,3.6l-1.27,1.05c-.43.35-1.67.64-2.13.97l-2.47,1.76-1.79,1.31c-.19.14-.57.81-.72,1l-2.55,1.21c-.91.43-4.72,2.56-4,3.51.57.75,4.18.27,5.41-.51l2-1.27c1.14-.72,1.41-.21,4.47-.83l3.82-.78,2.82-.65c.99-.23,2.01-.4,3.02-.51l3.2-.35,2.85-.34c.79-.09,1.59-.11,2.36,0l2.57.37c3.69.52,4.49-.58,7.99-.06l2.54.38c2.22.33,4.72-.22,6.89.25,1.66.35,3.16.93,4.87.82l2.92-.18c.74-.05,2.14.98,2.87.82,2.69-.62,1.6.84,4.25.1,2.08-.58,2.19.5,4.68,2.14s3.37,1.08,5.66,4.49c.33.5-.18,1.93-.15,2.56.08,1.75-.62,3.26-1.88,4.55l-1.25,1.27-3.84,3.87c-.42.42-.93,1.09-1.35,1.46l-1.95,1.68c-.47.4-1.14.73-1.89,1.08l.17,1.32c-.4.38-1.07.97-1.51,1.23l-3.06,1.82c-.86.51-1.77,1.01-2.67,1.48l-1.73.9c-3.63,1.9-4.41,1.42-7.74,2.47l-3.9,1.23c-7.23,2.29-5.87.02-9.47.99-.78.21-1.38.27-2.12.4l-2.48.45-2.6.36c-1.68.23-3.27.98-4.95.92-4.24-.16-1.07.39-4.27.65l-2.95.24-2.9.22c-3.01.22-8.81.22-11.7-.34l-1.42-.27c-4.45.51-2.87-1.05-5.38-.25-1.11.35-2.09.29-3.24.07l-1.43.07c-.76-.23-1.55-.44-2.3-.53l-2.34-.26c-.53-.06-1.18-.26-1.72-.4l-2.91-.75c-4.57-1.18-3-.18-6.64-3.17l-1.94-1.59c-1.22-1-2.3-2.13-3.41-3.34-3.85-1.65-3.3-.86-6.4-.16-.89.2-1.66.43-2.33.9-2.59,1.83-.34,1.15-2.5,2.3-2.49,1.34-.27.64-4.48,2.57-1.08.49-2.44.78-3.28,1.52l-1.36,1.19-3.48,2.01-1.68.83c-.48.41-1.16,1.05-1.71,1.44l-2.29,1.62c-1.42,1-2.5,2.64-3.73,3.82-2.16,2.08-1.48,1.83-3.71,3.38-1.19,2.16-3.28,2.69-5.45,4.16l-1.52,1.03c-.54.37-1.2.79-1.66,1.18l-1.57,1.31-3.9,3.12c-.54.44-1.03.88-1.61,1.26l-3.05,2.08c-.59.4-1.03.78-1.59,1.32-.9.87-1.51,1.03-3.39,2.65l-2.03,1.76-.93,1.1-2.41,1.98c-.52.43-1.31.85-1.92,1.28-2.14,1.51-.45.95-2.7,2.68l-3.3,2.54c-.76.58-1.92,1.33-2.63,1.83-.77,1.21-1.84,1.87-3.4,2.34-.88.26-1.33.86-2.08,1.43l-1.42,1.08-1.42,1.18-2,1.52c-1.06.8-2,1.61-3.11,2.36-.73.49-1.53,1.03-2.22,1.56l-2.37,1.8-2.39,1.79-.65.9-1.73,1.15c-.96.64-1.81,1.33-2.74,2.09-2.12,1.74-2.22,1.18-3.99,3-.58.59-1.15,1.29-1.75,1.76l-2.68,2.11c-.98.77-1.76,1.19-2.5,2.17-.54.71-1.6,1.38-2.52,1.82l-2.41,1.14c-.48.23-1.15,1.2-1.55,1.54l-1.74,1.43-3.97,3.17-2.24,2.45-3.36,2.81-1.99,1.49c-.52.39-.97.93-1.45,1.45l-1.08.79-2.03,2.36c-.77-.96-2.07,1.38-3.4,2.77l-1.81,1.9c-.86.44-1.35.79-1.96,1.35l-2,1.87c-.26.25-.72,1-1.03,1.18-2.74,1.6-3.43,2.96-4.17,3.48-.99.69-1.99,1.3-2.83,2.35-1.4,1.75-1.22.34-2.9,2.53l-1.43,1.04c-.16,1.03-.68,1.31-1.35,1.92l-1.72,1.57c0,.06-.03.27-.04.33l2.42.79c4.9,1.6,3.36-.15,7.28.62l1.86-.17,5.77.25,3.22.14c.6.03,1.76-.23,2.31-.29l.64.38c.13.08.58-.51.72-.47,1.86.52,2.99,1.36,4.5.76l1.83-.72.31,1.13c.26-.34,1.05-1.32,1.62-1.42l4.06-.71,2.75-.2c1.06-.08,1.85-.06,2.58.53l1.15-.21c.55.4,1.2.47,1.78.16.22-.79.28-.89.17,0,2.75,1.37,3.23-2.47,5.64-.4l2.11-.95c1.87-.85,3.68.09,6.74-.04l1.99-.08c.45-.02,1.1.1,1.6.11l4.44.11c.27,0,1.03.19,1.3.17l1.83-.13,2.61-.08,2.56-.3,5.46.02.11-.35-.8-.63,2.41.06c.03.07.08.5-.02.48l-.65-.11-.27.51,2.78.4c.53.08,1.39-.09,2.07-.23,3.02-.64,1.95.69,4-.17,2.73.96.97-.05,4.82.53s2.57-.13,4.36-.02l2.63.16,1.86.26,2.84.07,2.91.03,1.59-.31c1.28.15,2.35.2,3.56.16,3.65-.13.82-.41,4.21-.32l3.75.11c.27,0,.92-.63,1.14-.89.87,1.06,2.4,1.18,3.46.3.33.32,1.02,1,1.36,1.03l3.22.29c3.43.3,1.16-.24,4.48-.15l1.65.22c1.07.14,2.32.11,3.09-.59l.64-.58c.13-.12.39.4.61.74.76,1.2,2.8-1.27,2.86-.61.13.52.1.7.26.71s.63.01.81,0l2.65-.17,3.22-.21,1.54.13c3.45-.45,3.52-.05,7.38-.25l2.57-.13c.58,0,1.74.5,2.31.61.23.04.97-.14,1.33-.14l7.26-.03c.27,0,.69-.14,1.47-.34,0,.01-.04-.07-.33-.49-.75.31-.66.2.21-.3l.59.53c.23.21.93.27,1.29.18l1.42-.36.58.81,1.3-.67-1.6-.6h3.1s-1.18.45-1.18.45c.52.21,1.13.14,1.8-.24,1.34-.75.1.79,3.21.21.53-.1,1.49-.45,1.96-.45l4.8-.03c2.53-.02,1.67-1.16,3.21-.21l1.72,1.07c.51.32,1.63-.19,2.35-.32l3.15-.57c.13.03.74.4.91.32l1.35-.68c.48-1.36,1.21.51,2.79.46l2.89-.08c.67-.02,1.28-.02,1.97,0l3.77.06c.39,0,1.04-.71,1.4-.77.41-.06,1.37-.12,1.83-.1l5.77.26c1.41.06,2.91-.2,4.22-.44.12-.3.19-.49.19-.51,0,0,.4.18.51.23,3.01,1.32-.23-.37,3.51.84.67.22,2.2.26,2.92.08l2.02-.51c2.92,1.05,4.47-1.18,4.93.25.19.59.41,1.02.74,1.06.27.04.77-.75,1.02-.86.88-.37,2.75-.05,3.9.05,5.04.44,3.08.46,6.52-.44,2.81-.73,2.29-.64,4.45.07.71.23,2.25.22,2.93,0l1.76-.54-.86.83,3.01.63c1.39.29,2.68.03,3.95-.59l2.26.07c1.16.04,2.45.08,3.53-.14l1.73-.35-.89.87,2.04-.33c.62.16,1.18.2,1.75.07l1.01-.23.69.38ZM353.86,109.95l1.7-.3c-1.55-2.46-2.82-2.53-5.41-4.27-.21.63-.52,1.53-.5,1.99l.09,1.74-.24,1.11c-.05.21.82.36,1.05.32l3.32-.59ZM477.38,147.37c1.33-.04,2.52-.3,3.62-.84l1.34-.67c.14-.07.47.09.88.24-.08.11-.03.04.16-.22.22-.12.84-.36,1.14-.35l1.82.04c3.1.07-.23.9,4.71-.13,1.32.51,2.86,1.08,4.14.88l2.26-.36,2.29-.31,3.89-.52c.82-.11,1.93-.11,2.76-.11h3.24c.54,0,1.68.35,2.2.31l2.27-.16c.88-.06,1.7-.19,2.61-.17l4.7.11c.29,0,1.14.36,1.39.28l2.54-.87c.28-.09.77.61.95.87.58-.59,1.42-1.31,2.08-1.35l2.08-.12c.85-.05,2.29-.04,3.02-.24,5.28-1.47,4.57.49,10-.27l2.58-.36,1.42.65c2.02.92.73-3.82,1.38-7.68-.1.59,1.62-3.19.89-2.89-.64.27-4.57.2-5.47.06-2.83-.45-5.06-.17-7.72.81-.85.31-5.89,1.37-6.53,1.39l-9.73.25c-1.95.05-3.89.75-5.81.75-.77,0-1.78-.17-2.58-.24l-2.62-.21c-1.95-.16-4.02-.22-5.99-.01l-2.6.27c-2.9.3-5.68,1.51-6.97,1.54l-3.51.07c-3.75.07-3.14.4-5.14.47l-2,.06c-.41.01-1.39.33-1.69.46l.55,1.82c.06.19.26.59.43.57l.58-.09.62-.09c.13-.02.66,1.44.38,1.56l-1.07.44s.74.64.62.83l-.97,1.48c-3.41-.63-2-3.09-2.55-4.85.12-.43.25-1.33.21-1.69l-2.76.98-2.49.79c-.84.27-1.75.9-2.71,1.35l-.69.57,1,.71c.41.29-.61,3.92-.18,5.38,3.91.18-.16-.98,5.05-1.14ZM231.79,148.66c.8-.02,1.74.04,2.55.21,1.77.36-.75-.69,3.72-.84l5.04-.17c.55-.02,1.32-.15,1.81-.08.86.12,1.4.13,2.28-.04.56-.1,1.58.24,2.14.26,1.36.05,2.74-.06,4.08.2l1.93.38c.43.08,1.64-.04,1.81-.4.05-.87.05-2.41,0-3.35-.11-2.74.73.16-.11-3.7-.52-.05-1.31-.03-1.66-.15l-4.24-1.36c-1.78.43-3.38.35-5.15.13l-2.9-.36c-.98-.12-2.43-.22-3.39-.04l-1.4.26c-.84.16-2.22.1-3.06-.03l-2.56-.39c-1.21-.18-2.45-.22-3.65.02l-3.01.6-3.5.64-6.26,1.02c-5.59.91-3.4,2.43-8.18,3.43l-1.35.28-1.61.28.78,4.4c.14.77.54,1.85.79,2.64l.83,2.74c.05.16.16.62.27.55,1.4-.82,1.22-.24,2-.71l2.53-1.49c3.65-2.15,1.77-.37,4.4-1.01l1.85-.45c.15-.16.59-.51.85-.62l2.08-.86,1.15.53.72-.89,2.17-.83c1.3-.5,2.66-.73,4.03-.76l2.2-.05ZM265.94,149.48c.35.39,1.55.5,1.67.01.51-2.12.63-3.79.48-5.79l-.21-2.71-1.41-.03c-1.17-.03-2.15-.34-3.31-.89-.62-.29-1.79.16-2.52.31l-3.15.66,1.28.32c2.65,2.89.31,5.32,2.04,7.71,2.96.77,3.98-.92,5.15.4ZM462.26,157.73l1.32-1.89,1.61-2.26c.55-.77,2.14-1.2,2.38-2.28.36-1.63.02-1.37.37-4.01l.47-3.54-.43-.43-2.09,1.66c-.32.25-1.28.48-1.67.63l-1.14,3.09-.77,2.1-1.09,2.96c-.07.18-.61.57-.55.74l.26.66c.34.87.79,1.66,1.35,2.57ZM274.4,151.26l1.56-1.35.27-2.29c.05-.43-.11-.91-.43-1.23l-1.97-1.94c-.36-.36-1.59-.75-2.05-.5l-1.13.63,1.25.57c.03,1.31.07,2.97-.15,4.28-.1.61-.91,1.63-.73,2.29.13.45,1.35,1.21,1.7.91l1.66-1.39ZM363.91,204.63c.92-.1,1.78-.19,2.54-.21,3.16-.08,1.99-.78,3.53-.79l4.39-.04h2.68c3.72.01,3.62.47,6.68.11l3.6-.42c.41-.05,1.31.22,1.71.28.09.01.46-.15.52-.08l.48.62,1.66-.8c2.33.55,1.11-.51,4.39.02,3.57.58,5.32-.57,5.72.13l.73,1.26.74-.3c.18-.07.08-.42.11-.82l2.29-.24c.11-.01.5.12.61.14s-.01.4-.1.43l-1.34.16c-.14.02-.55.26-.68.36l2.29.1c.36-.41,1.12-1.07,1.58-1.11l4.46-.35,2.96-.24c1.62-.13,2.65.09,3.47,1.1.34.05,1.28.17,1.68.12l5.16-.73c1.05-.15,2.61-.29,3.5,0l2.03.66c2.21.72,4.72,1.29,7.31.93l-.53.43,2.59-.21c.08,0,.52-.19.5-.19-.01,0,.13.19.32.45.22.3,1.04-.1,1.4-.06,1.17.11,2.39.39,3.49.7,2.49.7.59.05,3.34.53l3.75.65,3.34.55,4.4.77,1.82.53,2.3.39,2.53.39c.65.1,1.59.28,2.18.29l4.81.14c2.16.06,4.57,1.46,4.69.42l.31-2.73.2-2.26c.2-.42,1.28-1.02,1.85-1.21.89-.29,2.03.23,2.4,1.06-.16,3.29-1.03,2.35-1.2,4.92l-.1,1.46c0,.1.41.42.54.47l2.07.83c.73.29,1.71.99,2.42,1.22,1.09.34,1.88.62,2.75,1.14l1.38.83.73.84c.17.19,1.08-.18,1.09-.43.03-1.23-.02-3.63.13-4.87l.39-3.19c.03-.24.24-.78.39-.88l1.47-.96.52,1.36c1.52,1.32.58,2.44.46,5.04l-.12,2.63c-.03.76-.13,1.54-.22,2.29l-.08.67c-.02.13.4.15.58.21l1.69.58c.08.03.47.18.51.23l.44.56c.09.12.17.17.21.07l.26-.65c.23-.57.46-1.37.5-2.03l.24-3.23.23-3.23.24-2.41c.23-2.29.86-1.93-2.63-4.38-.78-.55-3.91-.35-5.9-1.7-.46-.08-1.65-.04-2.09-.18l-4.11-1.28-5.78-1.91c-.61-.2-1.77-.76-2.42-.78l-4.26-.16c-1.44-.05-3.08.2-4.51-.05-5.18-.9-5.88-1.97-11.24-2.56l-2.92-.32-2.55-1.09c-.66-.28-1.54-.09-2.24-.05-1.62.08-2.86-.6-4.34-1.08-1.82-.59-4.12,0-6.1-.33-.45-.22-1.35-.94-1.82-1.03l-2.46-.43-2.6-.54c-2.58-.53-2.43-.23-4.47-.66-1.04-.22-2.44-.72-3.44-.73l-10.87-.1c-.8,0-2.07-.45-2.88-.53l-3.2-.31-2.97-.29c-1.41-.14-2.91-.16-4.32-.05l-2.07.16c-1.48.11-3.16.18-4.64.02l-3.22-.33c-2.4-.25-3.28-.43-5.76.01l-1.31-.18-1.92.89c-2.28.02-4.4-.01-6.62-.1l-3.01-.11-2.83-.15c-.86-.05-1.68-.05-2.53-.02l-3.16.13-2.05.13-3.07.25c-5.79.47-2.66-.06-7.7-.31-1.34-.07-2.6-.1-3.92.03l-3.42.34-4.79,1.06-2.95.22-4.47.35-4.74.17c-1.93.07-3.8.68-5.72.93l-2.88.37c-.72.09-1.45.22-2.2.35-3.92.7-2.51-.93-5.92-.32-.55.1-1.13.26-1.58.31l-3.03.32-2.97.27c-2.74.25-2.06.91-5.97.47-.97-.11-1.77.09-2.73-.05l-2.37-.33-3.01.19c-1.87.12-3.01.78-6.05,1.21l-2.28.32c-1.19.17-2.86-.1-3.99.18l-2.58.64-3.79,1-2.31.62c-2.02.55-2.29.63-4.54.82-4.57.38-1.98.61-5.69,1.03l-2.63.3c-1.01.12-2.26.75-3.29,1.03l-3.59.98-3.84.99-2.79.71c-.97.25-1.86,3.67-2.1,4.85l-.53,2.66-.08,2.49c-.02.58-.42,1.32-.21,1.65,1.28,2.02-.64,1.04-.01,3.88.19.48,2.4-.39,3.06-.7l3.66-1.76.4-1.71-.77-.83.64-2.29.7-2.49.42-1.49,2.08-1.26c.66.48,1.24,1.81,1.25,2.73l.02,1.46c-.42.54-1.11,1.42-1.25,1.94l-.51,1.88c-.06.22-.12.67-.14.89-.01.16.59.17.8.09l4.84-1.71c.49-.17,1.34-.23,1.76-.2l2.14.14c2.93.19,3.74-2.78,6.54-1.22.46.26,1.49-.1,2-.32,1.29-.55,2.7-.46,4.15-.69l3.23-.5c2.57-.4,3.94.38,5.82-.14l3.83-1.05c.41-.11,1.38-.52,1.76-.38l1.66.62,1.69-.45c4.76-1.25,1.89.05,6.01-1.11l1.31.47.78-1.02c2.62-.93,3.62-.32,6.44-.61l2.91-.3,3.24-.34c3.23-.34,1.1-.31,5.09-.64,3.81-.31,3.72.89,5.89.27,1.34-.38,2.62-.76,3.9-.72,4.03.14.83-.33,3.79.36.85.2,2.39.31,3.29.15l4.92-.88c.84-.15,2.18-.19,3.08-.03l1.37.25,5.23.09c.34,0,1.02.8,1.26.63l1.11-.81c.69-.13,1.77-.28,2.57-.33l1.97-.12c3.39-.2,6.84.22,8.29.06l2.81-.3ZM229.47,227.88l1.44-3.08c.78-1.61,1.93-2.93,3.51-3.84,1.41-.82.6-1.37.75-3.69l.13-1.95c.08-1.25.29-2.53.45-3.82l.29-2.3.43-3.08.1-.68c.02-.14-.58-.22-.7-.14l-2.2,1.48c-.89.6-1.98,1.06-2.24,2.06-.9,3.5.04,4.56-.74,5.82-1.8,2.91,1.07,1.47-1.66,4.95,1.08,3.23-.86,2.01.2,4.47,0,.4-.07,1.29-.02,1.73l.24,2.08ZM509.44,232.96c.66-.71,2.04-4.4,2.23-5.21l.6-2.5c.45-1.88.32-3.59-.41-5.41l-.76-1.91c-.24-.61-1.21-1.43-1.66-1.99l-1.3-1.63c-.45-.57,0-1.66-1.97-3.89l-.85,1.27.7.67c.11.11-.1.61-.11.78l-.29,3.17c-.1,1.11.01,2.35-.65,3.2l-1.6,2.04c-.27.35-.74.83-.92.99l1.62.94c1.15.98,2.09,1.92,2.91,3.15,1.53.92,2.93,2.6,2.69,4.47l-.24,1.87ZM224.75,230.85c.71-2.81-.31-6.28.07-8.21l.8-4.11c.21-1.08.23-2.08.22-3.19v-1.24c-.01-.09-.12-.44-.13-.52s-.16.21-.22.33l-1.14,2.13c-.5.94-1.4,2.27-1.59,3.16-.22,1.01-.26,1.63-.91,2.6-.06.05.58.31.69.18l.37-.42c.09-.1.38-.39.44-.28s.22.47.17.59l-.62,1.63c.23,3.02.39,4.23,1.86,7.36ZM322.29,331.28c.38.18,1.5.47,1.53.83l.24,2.69c.04.43-.49,1.22-.8,1.54l.76.58.42,1.01c.28-.67.51-1.24.74-1.92l.75-2.21,1.12-3.29c1.6-4.7,2-3.34,3.48-7.11l1.32-3.36c1.59-4.06,1.36-2.22,2.6-5.85l2.36-6.93c.63-1.86,1.3-3.62,1.78-5.53l.58-2.34c.15-.59.5-1.47.77-2.05l.87-1.88c.2-.94.36-1.75.6-2.58l.75-2.54c.37-1.25.29-2.51.31-3.76l.06-3.22c.04-2.06.61-5.86.28-7.64l-.54-2.9c-.33-1.78-.1-3.61.04-5.37l.21-2.6.18-2.32c.04-.5-.21-1.49-.26-2.1l-.29-3.85c-.02-.22-.22-.76-.35-.65-.09.08-.42.31-.43.42l-.2,1.74c-1,1.01-1.72,2.07-2.39,3.39l-1.14,1.29c-.55,1.04-1.21,1.74-2.1,2.49-.52.44-.84,1.89-1.32,2.48-.39.47-1.71.92-1.97,1.44-.17.33-.41,1.07-.65,1.29l-1.57,1.39c-.13.29-.38,1.09-.55,1.37l-.93,1.62-.89,1.54-1.57.17.27.8-1.03,1.62-1.16,1.79c-.35.54-1.51,1.14-2.04,1.49l.77.53-1.69,1.94c-.3.34-1.26.62-1.33,1.28-.17,1.62,1.62,1.83,1.15,2.53l-.62.94c.19.35.55,1.04.7,1.54l.89,2.9c.14.44-.14,1.63-.15,2.1-.02,1.13.06,2.22.12,3.35l.2,3.8c.04.74.15,1.46-.02,2.29l-.43,2.17c-.17.87-.04,2.07-.15,3.02-.12,1.02.08,2.06.1,3.09l.2,9.16c.02.83.14,1.63.04,2.44-.22,1.8-.02,4.35.37,5.95ZM402.05,322.63l.87,2.26,1.37,3.4c.6,1.49,1.03,2.72,2.25,3.95,1.05,1.06,1.24,4.11,1.65,2.85.49-1.51-.06-1.45-.08-2.53l-.12-6.05-.22-1.9-.26-3.9-.02-2.06c-.01-1.37-.14-2.82.03-4.21.15-1.18.68-2.55.65-3.68l-.1-3.75c-.1-3.73-.58-6.58-2.21-9.95-.16-.32.27-.98.62-1.24,1.29-.96.19-2.41,3.5-2.6l-.6-.58-1.19-1.73c-.21-.31-2.42-4.14-2.66-4.63-1.83-3.71-1.27-3.99-3.52-7.34l-1.28-1.9-1.54-2.33c-.33-.49-.89-1.21-1.11-1.65l-.99-1.97c-.39-.77-.79-1.55-1.24-2.28l-2.69-4.29c-.82-1.3-1.47-2.48-2.67-3.44l-1.68-1.33c-.58-.46-1.38-1.82-1.55-2.54l-.29-1.21-.46.27c-.59,3.08,1.06,6.46-.99,8.67l.2,1.5-.58.38c-.59.39,1.4,1.21.89,1.7-1.02.98-.87.11-1.18.64.57.32,1.15.69,1.12,1.06l-.27,3.27c-.06.74-.17,1.45-.28,2.01l.12,1.24c.04.4.1.79.18,1.32.15.94-.52,1.78-1.4,2.02l.46,1.18-1,.38c.31.17.93.44.94.62l.08,4.31.52,2.56c.05.24-.11,1.01-.12,1.12.87.3,1.5.91,1.51,1.68v.83c.02.25,2.08.14,1.96,1.2-.01.12-.3.53-.19.58l.55.25c1.09.5,1.88,1.78,2.5,2.97.96,1.87-.38,2.64,1.32,4.65,2.61,3.09,1.05,2.09,2.91,5.12l.82,1.35,1.59,3.33c.95,1.98.21.71,1.32,3.62l.99,2.59.79,2.1.8,2.13ZM423.87,344.58c.6,2.4.96.96-.26,4.35-.13.36.65,1.17,1.06,1.18l4.21.1c.29,0,.97-.28.92-.53l-.2-.94c-.01-.05,0-.42.02-.49l.4-.85c.62-1.32-.25-.08.14-2.92.04-.3-.02-1.01.23-1.03l1.09-.08c.1,0,.13-.16.03-.2l-.58-.22-.51-.19c-.23-.09-.49-.94-.26-1.04l1-.44c.1-.05.42-.19.42-.19.45.1-.47-.71-.26-.93l.3-.31s.39-.22.45-.22l.83-.09.4,2.89c.06.43.11.96.13,1.42l.07,1.67.15,3.35c.01.33.03,1.04.29,1.1.2.05.66.12.93.16l.91.1,2,.23,2.24.26,2.33.27c.27.03.72.07.78-.11l.23-.67c.05-.16.14-.64,0-.72l-.54-.28c-.21-.11-.9-.33-.82-.55l.34-1.03,1.13-3.64.47-1.75.61-2.38c.11-.43.81-.8,1.31-.75l1-.29c.16-.04.69.06.79.19.59.72-.02.97-.04,1.32-.07,1.32.43,1.12-.28,2.74,1.19.55.59,4.13.42,5.51l-.17,1.38c-.56.27-1.26.63-1.17.97l.18.66c.03.1.38.39.48.4l.91.12.44.06c.1.31.17.79.38.83l.96.2c1.23.26.22-.32,3.46.02,1.21.13,2.01-1.03,5.93-.87l3.07.13,2.9-.22c.89-.07,1.38,1.43,3.78-.43.43-.33,1.44-.84,1.96-1.02.13.09.65.5.78.6l.58.46c.07.06-.46.28-.47.38l-.11,1.3,2.2.19,2.6.22,2.85.22c4.05-1.24,4.49-.66,8.86-1.61.98-.21,2.28-.57,2.83.4.05.08.18-.46.26-.52l.54-.38c.05-.04.36-.13.47-.16l.53-.14c.43-.11,1.65-.16,1.93.27.14.21.41.7.57.9.17.22,1.08-.08,1.27-.27l.33-.33c.06-.06.41-.14.51-.15l1.42-.07,4.05-.2,2.3-.19,2.61-.12c.57-.03,1.45.11,2.24.14s1.86-.34,2.65-.41c1.49-.12,3.08.24,5.42.14,1.27-.06,3.38-.08,4.51-.06.25,0,.97.5,1.2.49l2.67-.15c.36-.02.77-.12,1.22-.22,2.7-.55,3.11.23,5.34.3.44-.32.64-.47.34-.37l-.12-.58.67-.1.63-.09.53-.08.45-.07c.21-.03.76.18.99.18,1.35-.04,1.97-.36,4.37-.44l2.25-.07c3.21-.11,2.68.21,6.01.32l2.09.07,1.89.06,5.35.16c.37.01.8.02,1.13,0l2.85-.14,2.15-.06,2.22-.03c.83-.01,1.84.1,2.75.3.25.05,4.27,0,5.29-.07,3.35-.24,3.45.29,4.6.11,2.47-.39,2.28-.65,4.56-.2,2.31.47.08-.45,3.87-.65l3.34-.18,6.92-.18h1.99s8.16.06,8.16.06l1.47-.28,4.66-.16c.26,0,2.02-.74,3.72-.67,4.3.18.76-.54,6.3.35.71.11,1.53.23,2.19.26l2.22.13c3.41.19,1.57.86,3.34.63,3.32-.42.11.5,4,.26l2.24-.13,3.73-.22c1.06-.06,1.94-.07,3.08-.01.95.05,2.33-.39,3.33-.41l1.67-.04,5.98-.14c.79-.02,1.52-.02,2.33,0l6.01.21c1.76.06,3.44.22,5.16.1l1.94-.13,3.1-.21c3.7-.25,2.36.62,4.57-.21,1.44-.54.95.31,5.13-.23.79-.1,1.83-.21,2.54-.15l3.22.28,4.07.21,2.92.23,1.5.12c2.15.17-.05-.15,2.17.03l1.77.14c.94.07,2.01.21,2.87.21l3.75-.03,2.66-.04,1.54-.26c4.34.46.98-.47,6.14.03,1.24.12,2.57.12,3.67.37.57.12,1.25.33,1.73.33h1.86c.96,0,1.93-.11,2.96-.17l5.05-.25c.83-.04,2.01-.65,2.85-.56l2.7.27c.14.01.59,0,.73-.01l1.45-.19c.42-.06.88-.14.87-.36-.13-1.99.77-1.07.19-3.81l-.13-.61c-.06-.27,0-.96.06-1.21l.12-.52s.27-.38.31-.41c.4-.23,1.57,0,1.7.43l.18.62h.38s.28-1.37.28-1.37l.12-.56h.35s.23,1.02.23,1.02l.09.43.12.49c.03.13.1.37.09.44l-.07.46c-.15.89-.17.1,0,1.01l.1.54.09.55c.02.1,0,.43,0,.64v.64s0,.63,0,.63v.63s.28.36.32.35l.53-.15.46-.14.5-.16c.11-.04.36-.1.44-.12l.58-.11.55-.11c.14-.03.38-.07.48-.09l.61-.07.6-.07c.05,0,.31-.23.32-.29l.11-.54.11-.53.11-.54c.01-.07,0-.41,0-.6v-.64s.02-.64.02-.64v-.59c.01-.35.4-.61.57-.74l.38-.28.38-.28.41-.31-.42-1.2c.09-.09.33-.39.38-.38l.91.15c.05,0,.37.27.42.28l.66.07.61.07c.1.01.05.52.05.63l-.05,2.34-.06,1.35c-.03.74.4,2.12.65,2.81,1.31-.53,4.28-.32,4.32-.6.23-1.69-1.09-2.46-1.56-4.61-.96-4.32.42-5.97.26-7.3l-.35-2.87c-.16-1.31-.29-2.56-.27-3.86l.06-4.15c0-.36.32-1.2.35-1.55.28-3.4-1.85-6.45.03-7.39.78-.39.46-3.71.44-4.71-.06-2.33-.97-.57-1.09-4.23l-.15-4.47-.09-2.13.02-1.26c.3-.44.82-1.22.86-1.66l.17-1.76c.07-.71.29-1.58.52-2.37.53-1.84-.67-1.69.49-3.95.62-1.21.38-2.47.14-2.49l-.72-.06c-.16-.01-.57-.04-.65-.06l-2.38-.71-2.28-.68c-.05-.02-.45.09-.53.12l-.74.24c-.09.03.22.33.28.46.86,1.77.19,4.45-.28,6.54-.66,2.99.49,2.45-.06,4.7-.22.88-1.1,1.32-2.05,1.26-.35-.02-.94-.61-.96-.92l-.03-.72-.09-2.41c-.11-2.84-.67-6.52,1.77-8.75l.47-.43c.07-.06-.95-.46-.94-.45l-1.06-.25c-.05-.01-.34.05-.47.07l-.53.11-.54.11c-.07.02-.56.16-.65.16l-5.22-.1c-.25,0-2.86.12-2.85.33l.02.75c.14,4.44-.4,3.68-.63,6.34-.02.21.05.81-.11.9l-1.3.72c-.24.13-.74.27-.81.08l-.49-1.23s-.78-.88-.78-.74v-2.74c-.01-1.82.43-3.91.03-3.94-1.66-.16-3.96.52-4.91.54l-3.55.08c-2.2.05-2.09-.64-6.92-.23-2.36.2-5.51-.33-9.62-.01l-2.93.23-2.6.24c-3,.28-2.54-.11-5.44-.09h-1.25s-2.09.06-2.09.06c-.84.02-1.62.01-2.48-.1-1.36-.17-2.67,0-4.06.08l-3.75.21-2.93.27c-2.38.22-1.03.37-3.87.46l-3.36.1c-1.58.05.39.14-2,.32l-3.26.25c-2.1.16-4.15.1-6.31.05-2.41-.06-.3.78-2.7-.12-.26-.1-1.03.39-1.32.4l-4.56.12c-.27,0-1.01.43-1.27.48l-4.84.79-3.58.58-2,.27c-1.2.16-2.52-.01-3.75-.01.95,0-4.8.33-3.78.21l-2.55.31c-4.31.53-3.23-.05-6.1-.07l-5.15-.04-1.88.08c-1.44.06-2.76,0-4.2.12l-3.13.24-2.59.2-2.92.23-4.05.18-2.3.08-2.57.08-12.42.16-2.89.24c-2.45.21-3.87.53-5.2-.17-.38-.2-1.28.39-1.66.4l-7.52.14-3-.11h-4.34c-.47,0-1.42.26-1.96.31l-2.92.29c-2.22.22-9.04.26-10.97-.11-3.82-.73-.41.11-5.54-.19-.66-.04-1.3,0-2.02.01l-7.22.11c-2.41,1.06-6.08.99-8.64.84-.45-.03-1.24-.24-1.57-.12-1.94.7-2.81.54-4.71.3-.48-.06-1.3.08-1.86.1l-4.4.21-2.24.21-2.6.2-7.65.67c-1,.09-2.13,0-3.16.16l-1.38.21-8.14.13h-2.06s-2.77-.05-2.77-.05c-.86-.02-1.79.05-2.67.17l-4.05.52c-2.31.3-7.15.56-9.3.42l-4.14-.29c-2.08-.14-4.56-.71-5.47-.76l-3.13-.2-2.99-.23c-1.1-.08-3.27.04-4.12.6.08-.05-1.96,2.64-2.6,1.95l-.78-.84c-.43-.46-.38-1.13.04-1.97-2.82-1.01-.58.22-4.19-1.39-.67-.3-2.26-.64-2.97-.81-.9-.22-.48,1.78-.78,2.95-.11.44-1.06,1.45-1.52,1.38l-2.5-.38.46-2.69.41-2.11-3.84-1.05c-.48-.13-1.45-.12-2.05,0-.88.19-1.01,1.15-.89,1.96.05.32-.07,1.03-.09,1.49l-.12,3.73c-.01.45-.94,1.02-1.34.94-1.78-.35-1.63-3.92-1.4-5.46l.35-2.36-4.56-.13-.88,1.22c1.02.9.18,4.24-1.68,4.58-.49.09-1.5-.86-1.44-1.33.09-.65.49-1.65.6-2.23l.56-2.99-1.95.29.41,1.61-.99,1.58-.61.83c.21,1.61.21,3.15.03,4.74l.11,1.03.15,5.71c.03,1.01-.04,1.89-.47,2.67l.63.56-.28,2.53-.19,1.7c-.17,1.53-.15,3.12-.04,4.65l.15,2.04.19,5.02.06,2.25.04,1.92.03,1.6.04,2.5-.02,1.68-.95.47,1.23.5.28,2.29c1.21,2.22,1.17,5.46,1.32,7.84.04.64.4,1.73.57,2.5,1.49.41,3.2.5,4.81.32l.23-1.89c.05-.45-.32-1.48-.46-1.86.52-.92.45-5.27.24-6.22-.15-.66-.48-1.44-.44-1.96l.2-3.02.19-3.07c.05-.77.01-1.6.12-2.37l.33-2.25c.14-1,.37-2.29.62-3.11.35-.13,1.13-.16,1.2-.41l.31-1.2c.11-.44,1.24-.94,1.67-.79.34.12.65,1.06.6,1.4l-.49,3.15-.32,2.02c-.08.5-.23,1.11-.31,1.43l.38,1.3-1.22-.07-1.07,1.66c.69.03,1.16-.42,1.63-.97.26.06.62.7.59,1.03l-.34,3.24-.21,2.42c-.03.37.37,5.85.43,6.09ZM766.74,347.6c4.07-1.5,4.36-.48,6.28-1.67l-.29-6.68c-.03-.74.28-1.95.36-2.75l.26-2.7c.08-.83-.24-2.05-.54-2.59-1.54.38-1.63-2.22-1.62-3.06v-1.91s.02-2,.02-2c.02-3.92.89-2.81.29-8.32-.71-6.53,1.09-8.28.89-10.77l-.27-3.27c-.07-.91-.12-1.88-.14-2.76l-.05-3.93c.68-4.26-1.2-3.75-.28-5.26.2-.33.38-.53.3-.6l-.44-.37c-1.17-.97-2.5-1.54-4.24-1.35l-.79,2.69c-1.01,3.45-1.73,2.11-1.34,4.9-.22,1.41-.17,2.9.46,4.14l.4.8c.19.37-3.93,1.79-2.49,6.72.5,1.72,1.15,5.26.72,6.72-.13.45-1.14,1.13-1.43,1.32l1.81.65.32,3.03.24,2.07c.04.38.52,1.29.41,1.65-1.07,3.65-1.22,4.78-1.26,8.62l-.03,2.52.16.99-.04,2.02-.08,2.84c-.12,4.33,2.07,3.18,2.31,6.67l.11,1.65ZM79.11,355.7c3.96.43,2.85.08,5.88-.26.83-.09,2.05-.03,2.75-.2,1.83-.44,3.32-.67,5.13-.61l.99.03c1.76.06-.33-.41,2.27-.84.74-.12,2.09.08,2.69.3.19.07.66-.44.86-.53,2.36-1.11,2.96-.07,4.08-.4,1.54-.45,3.18-.64,4.67-.93l2.32-.46,1.42-.2c1.18-.17.75-1.34,1.05-.41l.15.46,1.33-.19,1.27.14,2.21-.37c.48-.08,1.4-.5,1.87-.41,3.72.72,1.64-.79,4.66.31l4.87.05c.66,0,1.21.05,1.65.28l-3.55.06c0-.08-.01.39-.02.46l.8.03,3.17.13,2,.23c1.94.23.29-1.34,5.48-.38.44.08,1.33-.24,1.85-.38,2.72-.72,2.77.85,4.7-.98.46,1.05,4.1.81,4.79.68l3.24-.58c1.12-.2.67.84,1.11.58l.54-.32c1.38-.81,1.18.46,2.16-.47.2-.19.41-.38.42-.41,0-.03.04.13.13.5l1,.06c.05,0,.34-.22.38-.27l.32-.29c.39-.35.94-.37,1.64-.38-.04.29-.06.41-.05.34l-1.02.11.52.16,1.63.5c.73.23.66-.74,1.37-.56l1.68.41c.24.06.8-.5.8-.65-.02-.35-.07-.57.05-.56l.69.08c3.13.38,1.92-.46,3.08.05.44.19,1.24.47,1.62.38,3.84-.98,2.58,1.41,3.71.64l.77-.52c.1-.07.33.21.48.34l.68.58c.15.13.43-.67.49-.85.32,0,1.28.16,1.67.13l2.2-.2c1.03-.09,2.05-.16,2.81.88.49-.06,1.07-.14.36-.11-.2-.52-.25-.62-.15-.59s.51.12.62.13l1.54.07c.6-.45.82-.46,1.45-.29,1.38.37,2.8.17,4.25.08,3.2-.22-1.04.6,3.19-.52l.87-.23.24-.28,1.38.43c1.85.57,1.11-.92,2.54-.14l1.19.65c.43.23.98.42,1.44.43l1.73.04c.59.03.64,0,.03-.21l-.31-.97c3.72.62,2.43.87,6.05.38.55.26.81-.33,1.26-.32l1.8.05c1.54-1.03.76.45,3.2-.39,3.61-1.25,2.86-.24,4.76-.22,3.38.04.94,1.08,2.61.17,1.09-.59,2.77.03,5.42.11l2.91.09,2.56.08c.54.02,1.7.29,2.22.2l3.68-.6c.88-.14,1.74-.16,2.72-.18,3.12-.04.97-1.16,3.15-.24,1.78.75,2-.47,5.98,0l2.64.32c3.06.37.46.09,4.45-.47l3.26-.45,3.33-.44c2.03.56,3.32.2,6.13.41l2.03.15c2.62.2.41-.01,3.91-.19.27-.01.81-.22,1.03-.38.36-.28-1.72-3.02.64-5.28,1.24-1.19-.6-1.67.6-2.7l.49-.42c.24-.21.79-.51,1.08-.62.23-.09.84.53.84.82v5.53c0,.34-.5,1.11-.75,1.27l-1.18.76c-.15.1-.23.54-.27.75-.02.12.38.1.5.07l.52-.11c.1-.02.41-.07.48-.08l.71-.04c1.66-.09.8.96,2.84.49l2.83-.65c1.48-.34-.16-3.84-.18-5.24l-.09-6.02c-.02-1.23,1.26-1.28.88-2.08-.83-1.75-.11-2.6,1.27-3.65.65.07.75,1.07,1.07.68l.36-.45c.09-.12.48-.54.47-.4-.03.94.43.23-.38,1.18l.48.69c.09.13-.29.57-.35.73l-.59,1.72-.62,1.99s.42.26.45.27c.27,0,.99.12.95.41-.5,3.34-.11.62.15,3.28l.21,2.16.21,2.12c.21,2.04-.61,2.96.31,3.03l1.53.12,1.73.13c.37.03,1.04-.03,1.64-.04l.29-1.01.07-1.97c.05-1.46.14-2.73-.12-4.22-.51-2.9,1.29-1.69.62-3.42-.15-.38-.26-.87-.2-1.09l.29-1.11c0-.38-.07-.67.11-.68l1.05-.05c.12,0,.51.21.71.32l-.89.82.14.33c1.09,2.65-.59,1.31,1.34,3.05.52.47.47,2.23-.08,2.65l-.5.39c-.54.42.95.06.89,1.27,0,.06-.13.49-.15.57.48,1.14.66,2.39.06,3.37l1.35,1.31,2.95.57c.78.15,2.6-.04,3.08.09l.49.13c.09.02.27-.42.27-.52v-3.48s-.1-4-.1-4c0-.06.33-.46.38-.48l.45-.23c.22-.11.75-.32.99-.39.05-.01.28.45.29.49l-.04,2.11,1.42-.87.07,5.27c0,.33-.16,1.12-.24,1.46-.04.19.43.74.64.74l3.26.03c.06,0,.48-.28.5-.34l.1-.37.51-1.84c.45-1.63.41-1.49.69-3.15l.29-1.73.38-2.15c.44-2.53.35-2.02-.39-2.62-.15-.12-.41-.36-.53-.29l-1.09.64c-.37-.95-.59-1.82-.66-2.8l-.19-2.63-.14-5.32-.26-1.38-.04-9.2c0-.88-.22-1.99-.13-2.7l.36-2.86c.21-1.67.42-3.96.1-5.52l-.3-1.45c-.32-1.57.43-5.64.12-7.33l-.46-2.51c-.03-.19-.31-.74-.42-.6l-.38.45c-.24.29-.51.59-.7.74s-.75-.18-1.04-.26l-1.09-.31c-.65-.18-.09,2.06-1.2,3.83-.51.82-1.92.26-3.26,1.09-.07.04-.16-.37-.17-.46l-.11-5.75h-4.28c-.17-.01-.88.57-.85.74l.53,2.88c.15.81.25,1.54.33,2.4l.23,2.52c.02.17-.54.74-.72.74l-1.92-.06c-.73-.62-1.24-2.01-1.41-2.95l-.91-.92.71-.59s-.16-.16-.5-.5c-.18-.66-.35-1.7-.23-2.36l.37-2.03-1.97-.44c-.76-.17-2.02.12-2.98.34l-.33,2.17c-.06.42.14,1.41.19,1.87l.31,2.92.28,2.56.38,3.49-.71.45s0,.4,0,.51l.52.26.04,1.69c-.49.37-1.79.4-2.06-.13-.42-.84-.7-1.29-1.16-1.97-2.05-3.01-.45-2.4-.49-3.13-.13-2.3-.76-1.02-.86-2.43l-.18-2.48c-.11-1.6-.25-3.25-.08-4.81l.2-1.86-3.58-.68c-.72-.14-2.35-.12-3.05-.11-.78,0,.24.8-.22,3.59l-.33,2.01c-.04.24-.69.45-1.19.68-.29-.22-.17-.12.19.14l.45,1.03s.13.97-.56,1.05l-2.31.28-.15.94-.41-.39-.38-1.84c-.06-.31-.43-.47-.42-.61l.29-.37c.06-.08.25-.3.27-.37l.17-.47c.22-.64-.48-1.14-.09-1.98l.2-.43.17-.37c.07-.16-.15-.7.37-1.02l.4-.25.39-.25.59-.39-.04-.69c-3.07-.5-3.06-.09-6.74-.49l-3.19-.34c-1.36-.15-3.04-.16-4.39.02l-2.58.33c-1.89.24-3.8.3-5.65.06l-3.07-.41c-.61-.08-1.55-.24-2.11-.14l-3.59.65c-1.91.35-3.79.1-5.72.03l-1.92-.07-4.43-.26c-1.94-.11-3.84-.47-5.83-.09l-1.68.32c-.66.13-1.7.05-2.44.04l-3.26-.04-1.17.27-1.78-.02c-1.05-.01-2.3-.14-3.31-.03-5.39.59-1.93-.46-6.22-.22l-3.76.21c-.74.04-1.81.29-2.52.26l-3.43-.15c-2.65-.11-.58,1.12-3.8.58-1.08-.18-2.52-.23-3.48.05-2.88.83.34.03-2.93.29-3.66.28-.79-.34-3.38.14-.78.15-1.44.15-2.22.26l-2.46.34c-3.7-.66-1.96.14-6.17.14-4,0-1.15-1.09-4.52-.52-2.68.45-3.81.63-6.59.37l-3.27-.31c-.92-.09-1.92-.11-2.84-.02l-4.52.47c-.76.08-1.93-.1-2.79-.01l-2.33.24-4.16.24c-3.07.18-6.11.12-9.19.05l-1.99-.04c-.8-.02-4.19-.46-4.45-.47-3.46-.11-6.75-.13-10.19,0l-1.94.07-3.19.06-2.91.15c-.49.02-1.44-.25-1.84-.33-.47.14-1.56.41-2.06.22l-2.61-.95c-.27.29-.89.77-1.19.6l-1-.56c-.2-.11-.06,1.02-3.75.44l-2.13-.33-2.42.23c-.44.04-1,.05-1.51.05l-8.32-.05-2.25-.09-2.75.29-2.11.05c-2.64.06-5.22.14-7.89.02-1.59-.07-3.36-.87-4.79-.55s-2.65.56-4.03.76l-3.84.56-3.07.5c-2.23.36-3.45.44-5.62.44h-3.87c-.53,0-1.15.08-1.78.14-2.15.22-5.56-.41-6.34.85-.2.32-.29,1.34-.09,1.69l1.9,3.3-.75,1.9-2.26.13c-1.32.07-2.33-2.88-2.39-3.77l.17-2.61-3.86-.13c-1.29-.04-2.73-.41-4.18-.66l-.55.61.35,4.6c.19,2.5-.2,4.04-.79,6.21l-.43,1.59-.9.7c-.21.16-.49.36-.64.46s-.58-.3-.7-.44l-.67-.82.37-1.88c.3-1.5.21-2.9-.31-4.36-.98-2.74.04-1-.82-3.41-.15-.42-.38-1.51-.06-1.97.24-.36.57-.55,1.27-1.05-.81-.25-1.79-.37-2.81-.29l-3.24.27c-.14.01-.42-.15-.9-.4l.29,4.13c.06.86-.12,1.94-.17,2.85-.09,1.66-.08,3.29-.31,4.89-.19,1.33-.64,2.78-.42,4.06s.35,2.31.1,3.46l-2.36.9-1.24-.98c-.2-.16-.4-.65-.41-.92l-.06-1.99c-.06-1.8.4-3.6.53-5.42.11-1.52-.17-3.29.06-4.82l.31-2.01.41-2.83c.03-.17-.01-.6-.05-.77s-.56-.24-.77-.26l-2.28-.28-2.58-.32-.21,2.96-.49,4.24c-.25,2.18-.08,7.32-.03,6.84l-.42,4c-.09.84.07,1.58,0,2.33l-.31,3.54-.18,2.5c-.03.47-.19,1.17-.3,1.65l-.06.99c-.01.17-.41.34-.66.51.01,0,.76.56.75.8l-.07,3.09v2.48c-1.3,1.98.68,2.77.72,5.49.02,1.47.34,3.22-.06,4.42l-.72,2.13-.02,2.09c0,.51-.17,1.16-.23,1.75l-.38,3.78c-.02.21-.64.66-.67.87l-.22,1.32.49,3.11c.04.27-.02.65.11.65s.6-.02.73-.04l2.94-.69-1.45-.57,1.74-.43c-.06-.87-.41-2.38-.28-3.27l.66-4.41.27-1.8.25-1.94c.15-1.21.61-2.27,1.82-2.46.29-.04.95.37,1.04.66l.85,2.82c.16.52-.61,3.43-.81,5.13l-.37,3.06-.96-.5,1.13,2.2-.2,1.04,2.94,1.29c1.08.47,2.54.48,3.82.56l.68-5.1c2-.59.95-3.2,2.09-2.23.77.66,1.29,2.49,1.13,3.27l-1.64.85c.3.24.7.14,1.2-.09.16.23.44,1.15.48,1.66l.11,1.59c3.34-.44,2.69,1.69,4.09,1.37.56-.13,1.05-.15,1.53-.05,1.17.25,5.09,1.04,5.79.52.41-.31.6-1.21.58-1.69l-.09-2.23-.71-3.54-.28-1.71-.44-2.87-.27-2.5c-.04-.33.16-1.24.19-1.6-.27-.95-.48-2.61.12-3.31.29-.33,1.61-.2,1.88.07l1.42,6.5c.52,2.37.82,4.51.91,6.84l.07,1.78.15,3.85,2.38.41c1.28.22,2.46.2,3.76.05l1.4-.07,3.05-.16c.04.45.07.89.24.9l2.48.13,1.89.1c.73-1.17,1.87-.94,2.99-1.1l1.94-.29,1.54-.19c3.28.32,1.01-.91,4.1-.08.84.23,1.95,0,3-.04l3.37-.15c.15,0,.29-.63.28-.65.26.06.95.21,1.31.21l2.65-.05,2.25-.04c2.3-.04.54-.82,3-.52.17.02.74-.12.67-.27l-.3-.7Z"/>
        </g>
      </g>
      <g>
        <path d="M407.59,71.58l7.48.11c.66,0,1.54.14,2.17.18l2.01.14c1.67.12,3.39.36,5.02.18,1.3-.14,2.69-.74,3.92-.79l3.81-.18c3.8-.18,4.22.84,10.15.29,4.34-.4-.26.67,5.29.36,1.41-.08,1.7.14,2.08,1.01.09.21.74-.47.96-.5,1.01-.12,2.96-.13,3.95-.05.83,1.79,1.44.28,5.94.81,1.6.19.12-1.36,3-.05l-1.7.25,1.8.7c1.35.53.51-.85,1.95-.72l2.69.24,3.25.22,3.52.13c.5.02,1.39-.23,1.94-.27,3.27-.23,8,.46,9.2.21l4.49-.92,1.22,1.08c.58.51.78,1.5.61,2.28l-.47,2.14-1.25,1.73c.43.83,1.1,1.87,1.18,2.53l.18,1.52c.03.27-.08.8-.19,1s-.62-.05-.94-.21l-.27.02c-.21.35-.68,1.28-1.01,1.41-5.17,2.04-3.82.84-5.51.96l-3.48.26c-2.63.2-4.75-.86-7.02-.92l-6.96-.17c-.66-.02-1.41-.09-2.03-.03l-2.48.25c-4.95.49-3.78-.34-8.98-.55l-1.97-.08-1.86-.06-2.23-.04-5.44-.09-2.51-.28-2.65.04h-1.61c-1.91,0-3.4.64-6.61.23l-2.25-.29-3.2-.4c-.68-.08-1.87-.55-2.51-.46l-2.66.36c-.35.05-1.22-.15-1.55-.19-.52.21-1.58.73-2.13.66l-2.43-.29c-2.65-.32-2.25,1.42-5.94.98-.16-.02-.56-.34-.67-.46s.21-.66.36-.73l1.4-.58,2.56-1.18c.32-.15,1.17-.44,1.54-.46l5.5-.18c.85-.03,1.35-.02,2.21.29l2.36-.7,2.87.21,2.25.07c4.93.14,1.29,1.73,6.82.41.39,0,1.35.15,1.78.09l2.86-.37c1.44-.19,2.78-.15,4.13.12l2.14.42,2.12.42c.09.02.5,0,.49-.08v-.63s1.99.26,1.99.26c.73.09,1.53.22,2.24.24l2.27.08,3.53.14,4.77.17c2.58.09,1.17-.27,3.57-.18l4.28.17c-.12,0,6.79.17,5.94.02l2.19.39,2.26-.09c6.49-.25,3.5,1.05,7.22-.86.92-.47-.21-.55.27-3.48.42-2.55,1.14-3.33.14-3.01l-2.58.82c-.23.07-.98.03-1.21.06l-2.03.26c-.55.07-1.45-.33-2.07-.69-.37-.21-1.26-.05-1.83,0-1.23.12-2.49.06-3.71.06h-2.3s-2.21-.06-2.21-.06l-1.51-.05c-.81-.02-1.54.12-2.46.28-1.07.09-2.72-.21-3.94-.43l-5.46-1.01c-1.81-.34-7.08.73-10.92-.49l-1.73-.55c-1.59-.5-3.28.13-4.97.34s-3.95.37-5.23.11l-1.5-.31-6.86.03c-.4,0-1.38.49-1.78.54l-2.86.31c-.72.08-3.2-.76-5.68-.71l-4.79.1-3.24.05c-.4,0-1.18.1-1.33.39-.19.37-.1,1.14.06,1.53l.73,1.83c-.41.97-.16,1.52.41,2.27.36.47-.44,1.65-1.06,2.03-1.44.87-3.3.75-3.98.22-.81-.63-.61-3.36-.31-4.53.51-2,.51-3.84.19-5.82l-.03-.55-2.44.3c-5.16.63-4.97-1.13-9.47-.26-.82.16-1.62.21-2.4.28l-2.68.27c-.41.04-1.15.24-1.56.22l-3.85-.19c-1.27-.06-2.34-.14-3.61-.07l-1.27-.08c-6.33-.42-3.74,1.3-8.87.25-.44.06-1.53.36-1.94.3l-2.77-.41c-3-.44-3.84-.14-6.65.53l-2.94.7c-.85.2-4.04,1.94-5.06,2.52-3.64,2.08-1.12.53-4.12,3.56-.82.83-1.97.21-2.45-.02-.22-.11-.17-.97-.05-1.17l.88-1.44c.21-.34,1.13-.82,1.3-1.15l.32-.61c.66-1.26,3.45-2.16,5.01-2.59l.44-.32s.47-.2.49-.25l.62-1.49c-.31-.18-.41-.24-.24-.14l-1.06.7-1.95,1.3-2.34,1.26-2.01,1.4c-.52.36-1.03.84-1.5,1.41l-1.56.82-.97,1.84.29.55c.07.13-.18.4-.31.6l-.31.45c.53.96.54,1.81-.01,2.64l.7,1.35c-.99,1.49-3.1,1.39-3.02,2.57l.15,2.38.5,3.88c.04.35-.67,1.22-1.01,1.32l-2.2.69c-3.79,1.19-2.45-1.1-4.8.12l-1.77.92c-1.1.57-2.1.37-3.19-.16-.71-.35-2.29-.77-2.99-.62l-2.44.51c-1.69.35-1.24,2.27-7.6-.11-4.81,1.87-5.64,1.06-10.69-.08-1.12-.25-2.53-.05-3.68.16l-2.47.45-2.58.37c-.95.14-1.95.06-2.95.03-.69-.02-1.62.09-2.17-.14-2.51-1.03-1.82.69-3.45.24-1.51-.42-2.91-.36-4.24.27l-1.54-.31c-1.09-1.24-1.19-2.87-.64-4.32-.06-.44-.2-1.28-.2-1.68v-2.25c0-.82.41-2.77-.31-3.16l-2.2-1.21c-.48-.26-.98-.5-1.51-.74l-.94-.43c-.99-.45,2.28-.92,3.91-3.22l.71-.99s-.14-.27-.29-.49c-.04.02.01,0,.24-.1l1.04-.94c1.37-1.24,3.31-3.64,3.93-4l2.21-1.3,3.14-2.04c.88-.57,1.83-1.03,2.78-1.43l1.49-1.3,1.73-1.5c2.34-2.04,1.68-.35,2.84-2.2.9-1.43,2.47-2.92,3.67-3.64l2.04-1.22,1.49-.78c1.28-.67,2.68-1.88,3.84-2.42.45-.21,1.65-.1,2.01-.33l1.96-1.3c.58-.39,1.53-1.37,2.14-1.52l1.91-.47c1.89.71,3.57,3.42,5.26,3.62l3.31.39c1.15.14,2.62.69,3.71.33,3.63-1.21,3.44-.71,5.18-1.27,3.76-1.2,2.34.37,4.32-.07l5.64-1.28c1.91-.43,3.89-.38,5.94-.94l1.89-.52c.08-.02,2.47-.32,3.67-.87l3.12-1.42-2.21-2.56-2.82.6c-.31.07-1.11-.35-1.43-.47-4.27.33-4.25-.55-8.44-.17l-1.65.15c-.82.08-1.96.11-2.76-.01l-3.24-.51c-.58-.09-1.95.44-2.47.21l-1.93-.85c-1.49-.65.43-5.66.93-6.93.79-1.99.86-2.77,2.98-3.57,4.69-1.78,2.45-.79,5.94-1.56l1.67-.37c1.66-1.07.67.16,3.68.23,1.2.03,2.19.09,3.26.23l2.6.34c3.17.42,4-.72,5.5.18.76.45,1.42.54,2.2.39l1.02-.2c.55.31.54.29.03-.04-.07-.43-.11-.61-.12-.74-.02-.65,2.05.67,2.52.74,1.66.23,3.47-.2,5.15-.47,4.31-.72,5.21,1.13,8.61-.42,2.04-.93,4.37.98,4.66.26l.56-1.44c1.2-3.08,1.77-3.9,4.63-4.88.27-.09.88-.72,1.15-.79.73-.18,2.24-.51,3.05-.77,3.16-1.02,4.56-.94,7.74-.27l1.69.35c.44.52,1.09,1.41,1.55,1.81l1.5,1.26c1.37,1.15-.22,2.16.38,3.17.54.91,3.2-.25,3.99-.26l9.61-.11c2.59-.03,3.29-.91,7.37-.38,1.01.13,2.01.23,2.91.41,3.12.62,2.23-.56,4.12.61,1.29.8,2.48.71,3.89.52l2.84-.39c1.24-.17,2.77.04,4.02-.21l5-1.02c.32-.07,1.04.25,1.23.42l1.01.95c.25.23-.07.95-.18,1.33-.25.82,1,.78.57,1.81-.09.22-.48.81-.37,1l.94,1.64c.14.25.59.82.76,1.06l.38,3.23c-.86.88-2.39,1.15-3.69,1.43-.65.14-2.01.7-2.47.32l-1.48-1.22c-1.2-.98-4.97-.36-7.26-.75-1.72-.29-3.3-.78-5-.3l-2.1.59c-2.34.66-2.73-1.18-7.22,1.29l-3.08,1.69-.53.29c-.23.13-.1,2.15,3.38,2.65.59.09,1.24.28,1.95.43,2.94.63,1.29-.57,5.2.51.64.18,1.19.18,1.74-.06,2.83-1.28.66.17,3.75-1.07.43-.17,1.04-.36,1.46-.42l2.37-.3c.53-.07,1.45.37,2.13.68,1.84.84,2.97-.66,5.45,1.15l.67.49c.21.57.23.61.06.02l.43-.73c.07-.12.58.03.67.13,2.79,2.97,2.48-.05,4.94,1.61.68.46,1.56,1.01,2.09,1.25h2.02c2.2.01,2.03.19,3.24,1.33l1.49,1.4c.31.29,1.1.95,1.51,1.1l3.77,1.36c1.09.39,1.31,1.84,3.11,2.22l2.7.56c5.11,1.06,2.79,1.76,5,2.64,2.01.8,3.9,1.41,6.03,1.65l2.57.29c.32.04,1.02.81,1.35.87l3.18.56c.06,0,.38.39.43.41l1.42.72c.11.06.11.55-.01.52-1.74-.4.43.1-2.05-.8-.12-.04-.26.79-.13.81l.62.1.95.15c.2.03.31.62.31.88,0,1.47-1.66,2.64-3,1.98-.99-.48-2.14-1.27-3.12-1.55l-3.34-.96c-1.55-.44-3.09-.28-6.65-1.22-4.41-1.16-2.59-2.26-4.63-2.69l-2.7-.56c-1.39-.29-3.01-.37-4.01-1.43-1.58-1.66.22-.11-2.95-1.53-2.04-.91-4.34-1.77-5.9-3.35-3.12-3.15-1.71-.89-4.71-2.29l-1.84-.86c-1-.46-2.54-.36-3.71-.76l-2.78-.95-2.51-.41c-.81-.13-1.84-.29-2.46-.67-1.5-.94-2.75-.91-4.25,0-.62.37-1.6.56-2.5.74-.73.14-2.11.93-2.81.81l-3.6-.59c-.72-.12-1.4-.3-2.06-.46l-3.19-.75c-2.51-.59-1.18-2.69-2.64-2.69l-3.32.02c-1.28-1.44-.01-3.43,1.11-4.71.79-.9,3.82-1.34,6.17-2.73,3.38-2,2.43-.76,6.55-1.34l2.32-.33c7.16-1,6.15-.18,11.74-.18h3.45s0-4.31,0-4.31c0-.16-.2-.62-.31-.64-.17-.02-.61-.04-.8.02l-2.23.62c-.64.18-1.84.72-2.48.74l-4.68.13c-1.22.03-2.39.27-3.68.51-2.35.45-2.54-1.23-6.27-1.45l-3.18-.18-2.9-.24c-2.38-.2-2.77.48-6.11.44-3.83-.05-1.49.52-5.47,0-.49-.06-1.59-.08-2.03.1l-1.92.8c-.64.26-1.42.43-2.11.51l-2.31.29c-.52.07-.7-1.29-.65-1.82l.26-2.65c.73-1.64.31-2.76-.95-3.9-.6-.54-1.25-1.13-2.13-1l-2.76.41-2.32.73c-5.71,1.8-3.76,5.14-4.59,5.62-1.87,1.08-.27.84-1.85,2.33-1.08,1.02-2.79,1.78-4.24,1.22l-2.58-1c-2.8-1.08-2.31.11-5.24.15l-5.32.07-1.48.29-5.25-.07c-.7,0-2-.96-2.66-.87-.95.14-2.2.46-3.16.56s-1.83.14-2.7.28c-1.15.18-2.17.28-3.3-.12-1.23-.44.97.18-2.35-.01-1.48-.09-2.87-.11-4.33-.28l-3.02-.35c-.11-.01-.56.18-.64.25l-1.37,1.16c-.35.3-.7,1.18-.83,1.66l-.36,1.33c-.1.36-.2.94-.17,1.23s.8.62,1.16.55c2-.42,4.71-.29,6.58.87,1.6,1,1.52-.14,2.63-.05l.48.04s.23-.04.24-.06l.38-.6c.05-.07.41-.01.4.08l-.03.58c.8.4,2.58.17,3.59-.05l2.31-.51c1.59-.35,2.88-1.54,3.6-.29.18.32.43.54.6.57l2.31.34,1.72.26,1.73,2.44c.31.43,1.19,1.39,1.1,1.9-.51,2.9-1.96,2.78-3.38,3.24l-2.66.87c-1.04.34-2.09.66-3.16.94l-1.98.52-4.1,1.06-2.29.61-3.27.22-3.51.77c-1.29.28-2.86,1.18-4.18.99-1.54-.21-2.88-.33-4.31-.04l-3.54.73c-1.16.24-2.62,0-3.81-.18l-1.79-.27c-3.66-.54-3.3.79-5.55-.47-1.08-.61-2.69-1.45-3.73-1.88-1.75.62-.71.62-3.45,2.33-1.99,1.24-4.64,2.44-5.51,3.33l-1.92,1.98-1.43,1.47c-2.73,2.81-2.56,1.67-5.83,4.06l-4.59,3.35-1.64.73c-1.02.45-2.42,1.61-3.23,2.38l-2.98,2.83-.62,1.33c-1.23,2.62,3.65.35,7.07,2.23,2.18,1.2,1.8,1.38,4.64.73l4.25-.98c.14-.03.95.2.84.2-.55.34-1.21.39-1.65.41l-.79.05v.64s.79-.13.79-.13c.66-.11,1.51-.09,2.28-.03.04,0,.16-.09.16-.13l.02-.47c.02-.66,2.31.69,4.67-.06,1.64-.52,3.08-1.02,4.75-1.37,1.07-.22,2.68.23,3.68-.1l2.95-.99c1.55-.52,3.2.45,3.35,1.52.17,1.22.93,1.85,2.09,1.72l2.91-.31c.33-.04.8.01.85-.18l.26-.98.84.14c.29-.34.1-.12-.3.36.07.15.17.37.18.4.72-.1.53-.1,1.05-.31l.49-.2-.15-.23c-.08-.12-.2-.33-.21-.33,1.72-.42,1.56-.29,3.27.48,1.2.54,2.7-.38,3.93-.59l3.02-.52,1.08-2.45c.11-.26.95-.75.95-1.09,0-.88.72-2.2,1.69-2.71,1.32-.68,2.33-1.77,3.48-2.54l2.74-1.83,1.46-.74c3.26-1.65,3.63-2.79,5.52-3.76,2.19-1.12,5.07-2.39,7.28-3.06l2.6-.79c.84-.25,2.4-.02,3.3-.21l3.56-.74c1.36-.28,1.14-.83,4.58-1.02.81-.04,1.73-.15,2.49-.14l3.86.02,5.75.59c-.08,0,5.69.21,4.74,1.11l-1.51,1.99c-.83.01-1.63.1-2.26.07l-4.52-.22-3.17-.55c-2.37-.41-4.59-.08-7.03,0-.94.03-2.29.59-3.24.8l-2.62.56c-4.21.9-5.56.27-10.75,2.86-.67.33-.54,1.84-.13,2.51.8,1.31,3.41-.32,5.53-.6l2.06-.28c.67-.09,1.69-.08,2.43-.04l1.92.1c.84.41,1.6.64,2.48.6l2.08-.1,2.46-.15,2.27-.18c.38-.03,1.12.12,1.73.19,2.46.29.99-.56,4.61-.04,3.97-.51,1.14.31,5.76-.27l2.56-.32,2.92-.36-.11-2.06c-.12-2.27.6-2.44.04-2.44h-2.14c-.34,0-1.41-.52-1.19-.77l1.51-1.68c.3-.33,1.43-.05,1.88-.08,6.43-.43.84.67,4.97.63,1.53-.01,3.2.98,4.68,1.61,2.24.96,4.2,2.19,5.3,4.11-.25.65-.37.84-.33,1.1.12.89,1.69,1.55,2.18,1.55ZM398.91,70c-.25-.98-.38-1.32-.68-1.52l-1.81-1.19c-.2-.13-.46-.37-.5-.25l-.2.54c-.33.87-.88,1.59-1.56,2.31l1.74.04,3.01.07ZM296.97,94.82c1.15-.04,2.55-.43,3.34.08l1.27.81,1.72.35,1-.51,4.36-.15c.82,0,1.56-.05,2.3-.15l.59.08,5.33.03c4.25-2.8,8.67.82,11.52-1.8l.61-3.5.3-1.78c.15-.91.11-1.83-.55-2.57l-2.02.11c-1.87.8-3.88.96-5.81.72l-4.6.9c-4.05.79-6.17-2.19-7.54-1.97l-4.05.66c-2.61.43-3.16-.52-6.57,1.07l-1.65.77c-2.06.96-3.66-1.69-7.95-.8l-2.45.51c-.34.07-.98.18-1.29.16l-1.68-.12c-2.21-.16-5.32-1.18-6.02-.58-.2.17-.4.82-.38,1.08l.17,2.1c.06.75.1,1.89.02,2.27-.7.22-1.23.33-1.2.58s.37.75.59.88c.2.12.55.26.55.4l-.02.72,2.34-.41c1.55-.27,4.5.08,5.9.65l3.15-.18,2.91-.19,5.83-.22Z"/>
        <path d="M384.75,21.86l-1.67.26-3.5.21c-.81.05-1.71.09-2.47.18l-2.85.37c-1.2.16-.74,1.7-.83,2.47-.22,1.77-4.53,1.83-6.26,1.97l-1.3.79c-3.4-1.7-3.54.51-5.72-.42-.24-.1-.87-.82-1.09-.77-3.25.72-3.09,2.34-4.47,1.11l.61-2.1c.26-.91,2.15-1.62,2.83-2.33l1.64-1.71.23-2.61c.04-.48.57-1.55.79-1.96l2.11-.84c.99-.39,3.07-.24,4.32-.77,3.82-1.6,1.35.41,3.89-1.24.41-.27,1.45-.77,1.98-.84l3.14-.4,2.17-.27c1.5.2,2.92.38,4.32-.33,1.5-.76,3.5-1.47,5.09-.86l2.13.83.96-1.04c3.68-.37,4.23.8,5.66.71l2.82-.19,1.27.77,2.19,1.33c3.02.24-.92.15,3.89,1.44.45.12,1.15.65,1.41.99l.53.69c.35.45.97-.96,1.94-.27,3.91,2.78,3.66.69,4.85,2.84l.6,1.08c.14.24.37.75.42.99.14.62-2.08,1.45-3.4,2.52-1.52,1.24-2.9,2.07-4.79,2.68-.71.23-2.2.81-2.87.55l-2.7-1.04c-.23-.09-1.01.2-1.41.3l-2.01-2.14c-3.39-1.12-3.41.16-5.19-1.08l-2.18-1.52c-1.6,1.16-3.54.44-4.49-.99-.93.31-1.73.5-2.61.64ZM389.59,19.79c2.81.78,3.43.11,6.65,1.16.64-.03,1.42.05,1.97.3l1.85.83c1.91.86.83-.6,3.09.44,2.55,1.18.95.01,3.56.91,1.24.43,2.18.27,2.89-.98l-1.56-.69c-2.16-.96-1.81-2.88-5.07-3.51-3.01-.59-4.26.16-5.21-1.84-.26-.55-1.2-1.36-1.76-1.34l-3.26.11-2.22.11c-3.31.16-2-.32-5.82-.2-1.86.06-3.48.81-5.25,1.44-1.12.4-2.67-.01-3.86.03-1.39.05-2.72.59-4.04.92-.77.2-1.64.35-2.31.6l-2.38.88c-3.07,1.13-1.73.46-3.74,3.94-.17.29-.73.7-.8,1-.06.24.27.82.46,1.04l2.75-.74c.47-.13,1.72.37,2.1.08,2.85-2.24,1.18-1.55,3.37-2.8,1-.57,2.01-.88,3.11-1.05l3.29-.5c.61-.09,1.49-.06,2.06-.23,2.46-.74,1.95,2.89,3.22.98.21-.32.82-.46,1.24-.35,2.36.6,2.22-1.48,5.66-.53Z"/>
        <path d="M386.54,6.24c-.26.12-.76,1.04-.75,1l-1.82.05c-.32,0-1.16-.08-1.34-.32-.39-.52.33-1.67.76-2.01-.67.25-2.5.35-2.65-.33-.54-2.34,5.34-4.1,7.01-4.62l1.16.64c.94-.42,2.33-.82,3.27-.28.57.33.88,1.85.84,2.42l-2.73,2.2c-.76.04-1.51.23-2.25.57l-1.5.69Z"/>
      </g>
    </g>
  </g>
</svg>