<?xml version="1.0" encoding="iso-8859-1"?>
<!-- Generator: Adobe Illustrator 30.2.1, SVG Export Plug-In . SVG Version: 9.03 Build 0)  -->
<svg version="1.1" id="Layer_1" xmlns="http://www.w3.org/2000/svg" xmlns:xlink="http://www.w3.org/1999/xlink" x="0px" y="0px"
	 viewBox="0 0 315.429 386.857" style="enable-background:new 0 0 315.429 386.857;" xml:space="preserve">
<g id="UD7TqN.tif">
	<g>
		<g>
			<path d="M315.429,214.984v4.283c-0.615-0.001,0.124,0.846-0.677,2.676c-0.427,0.976-0.873,1.795-1.423,2.619l-2.28,3.42
				l-1.87,2.717l-1.934,2.973l-2.13,2.376c-0.687,0.767-2.227,4.772-3.757,6.516l-1.061,1.209l-1.419,1.482l-0.977,1.039
				c-0.925,0.985-2.155,1.659-2.968,2.77l-1.416,1.935c-0.641,0.876-1.577,1.292-2.473,1.893l-2.913,1.951
				c-0.672,0.45-1.399,1.297-2.061,1.842c-0.424,0.349-0.908,0.706-1.255,1.031l-2.527,2.368l-4.373,4.262
				c0.302,0.675,0.729,1.375,1.127,1.833l1.497,1.722c1.06,1.22,0.733,1.262,2.345,3.077c0.311,0.351,1.221,0.852,1.685,1.164
				c0.288,0.193,0.45,1.259,0.165,1.456l-1.558,1.079c-3.167,2.193-1.14-0.195-3.686,2.589c-1.876,2.052,0.15,1.613-2.852,3.405
				c-0.45-0.259-1.175-0.617-1.438-0.872l-1.175-1.143c-1.144-1.112-3.941-3.231-5.241-3.857l-1.599-0.77
				c-3.801-1.831-0.421,0.251-3.007-0.843c-1.628-0.689,0.037,0.04-2.953,1.788c-0.697,0.407-1.231,1.078-1.738,1.672l-0.948,1.112
				c-0.725,0.85-0.301,0.136-2.733,1.214c-3.413,1.514-1.981,0.105-5.557,2.39l-1.767,1.129c-0.806,0.515-1.469,1.094-2.26,1.789
				c-1.989,1.747-3.509,1.249-5.146,1.963l-3.996,1.744l-1.946,0.895l-1.824,0.807c-0.41,0.181-1.285,0.331-1.814,0.419
				c-0.521,0.086-2.219,1.305-3.804,1.773l-2.076,0.613c-2.289,0.676,0.764,0.288-3.835,1.884l-2.327,0.807
				c-0.341,0.118-0.925,0.347-1.199,0.414l-2.564,0.625c-0.246,0.237-0.82,0.801-1.165,0.875l-2.761,0.599
				c-0.635,0.138-1.215,0.315-1.794,0.481l-2.01,0.579c-0.846,0.243-1.884,0.493-2.757,0.627l-2.278,0.348
				c-0.408,0.062-1.218,0.07-1.541,0.181l-1.502,0.518l-3.361,0.986c-1.057,0.31-2.107,0.623-3.187,0.747l-1.812,0.208
				c-4.062,0.466-2.197,1.147-8.044,1.339c-0.686,0.023-1.464,0.067-2.202,0.137l-2.602,0.25c-0.394,0.038-1.333,0.468-1.728,0.476
				l-3.685,0.077c-2.051,0.043-3.628,0.501-6.79,0.413l-1.757-0.049l-3.162-0.016c-3.452-0.017-0.815,0.447-4.053,0.03
				c-0.342-0.044-1.075,0.038-1.381,0.024l-2.545-0.113l-4.034-0.219l-2.256-0.499c-1.886-0.417-3.624-0.457-5.485-0.865
				l-1.754-0.385c-0.702-0.154-1.419-0.29-2.149-0.349l-2.324-0.19l-3.402-0.164c-0.73-0.035-1.452-0.317-2.272-0.325l-1.789-0.017
				c-1.617-0.016-3.383-1.012-5.025-1.182c-0.414-0.043-1.088,0.077-1.503-0.053l-2.265-0.705c-1.048-0.326-1.95-0.406-2.836-1.052
				l-1.188-0.866c-0.404-0.294-0.904-0.69-1.288-0.9l-1.687-0.922l-2.009-1.176l-2.128-0.987l-2.423-1.326
				c-0.632-0.346-1.47-0.93-1.952-1.262c-2.083-0.124-2.297-1.029-5.173-2.109c-0.833-0.313-1.525-0.76-2.152-1.328
				c-0.391-0.271-1.325-0.548-1.848-0.682c-2.899-0.739-3.038-2.426-5.817-4.172l-1.761-1.106l-1.538-1.105
				c-2.083-1.496-1.136,0.18-4.123-2.399c-0.699-0.603-1.575-1.091-2.348-1.65c-2.246-1.627-1.536-1.617-4.51-3.214
				c-0.51-0.274-1.223-0.82-1.499-1.238l-1.706-2.581c-0.528-0.798-0.733-1.724-1.712-2.11l-1.064-1.774
				c-1.525-2.543,0.295-1.179-1.771-3.062l-1.667-1.52c-0.497-0.453-0.932-1.149-1.312-1.8c-0.48-0.821-1.203-1.401-1.868-2.141
				c-0.525-0.584-1.486-2.346-2.134-2.93l-1.119-1.01c-0.139,0.049-0.623,0.22-0.263,0.093c0.396,0.828,0.602,1.5,0.871,1.899
				l1.534,2.277l1.345,2.102c0.422,0.66,0.918,1.352,1.298,2.05l1.623,2.982c0.436,0.8,1.068,1.578,1.641,2.363
				c1.578,2.164-0.431,0.871,2.309,4.208c1.658,2.019,1.885,2.509,3.119,4.621l1.066,1.826c0.796,1.363,1.305,1.273,2.465,3.478
				c0.268,0.51,0.585,0.898,0.918,1.36l2.044,2.831c0.812,1.124,1.517,2.28,2.233,3.448l0.888,1.446
				c0.457,0.744,1.276,1.44,1.733,2.22l2.207,3.766l0.855,1.188c1.274,1.769,1.663,1.199,2.688,3.513
				c0.372,0.84,0.733,1.51,1.273,2.185l1.416,1.769c1.493,1.865,2.159,1.733,4.026,4.527l1.395,2.086
				c0.408,0.61,1.204,1.316,1.702,1.919l1.192,1.443l0.464,1.194l1.332,1.846c1.9,2.633,1.706,1.788,3.449,4.84l1.163,2.037
				c0.415,0.728,1.456,1.459,2.014,2.137c0.705,0.856,1.329,1.779,2.051,2.557c0.363,0.392,1.009,0.846,1.301,1.244l1.973,2.697
				c0.663,0.906,1.999,1.722,2.514,2.775c1.464,2.993,1.066,0.795,2.933,3.648l1.157,1.767c0.336,0.513,0.864,1.035,1.294,1.522
				l1.766,2c0.728,0.825,1.836,1.326,2.947,1.583l0.909,1.351c0.065,0.096,0.162,0.57,0.086,0.656
				c-0.114,0.129-0.421,0.343-0.587,0.378l-0.964,0.204l0.51,0.472l1.785-0.534c1.54-0.46,2.317-0.128,4.914-0.443l2.306-0.28
				c0.75-0.091,1.606-0.272,2.295-0.311c0.686-0.039,1.308-0.052,2.003-0.184c1.254-0.239,2.67-0.077,3.388,0.529
				c1.501,1.267,1.303,0.397,4.581,0.09l2.97-0.278c1.401-0.044,1.507,0.657,3.627,0.392c4.487-0.561,3.049,0.445,7.091,0.066
				l1.679-0.157l2.611-0.308l3.132-0.185l1.51-0.077l3.345-0.169c0.461-0.023,1.022,0.022,1.512,0.027l11.32,0.119l1.506,0.151
				l1.698-0.003c-0.214,0,4.458-0.133,3.774-0.024l2.519-0.401c0.908-0.145,2.185-0.122,3.06-0.002l2.058,0.283
				c0.634,0.087,1.37,0.104,2.022,0.059c5.261-0.364,5.063-1.176,10.231-0.939l1.142,0.052l3.169-0.006
				c0.645-0.001,1.52-0.083,2.239-0.156l2.894-0.292c0.516-0.052,1.144-0.018,1.693,0.004l3.742,0.145
				c0.521,0.02,1.403,0.136,1.956,0.236l3.857,0.698c2.473,0.448,3.363,0.21,6.833,0.895l2.411,0.476
				c0.623,0.123,1.359,0.205,2.024,0.271l2.623,0.257c0.762,0.075,1.68,0.235,2.401,0.409l2.079,0.5
				c1.16,0.279,2.458,0.558,3.57,0.56l1.626,0.003c3.56,0.006,1.691,0.504,6.226,0.921l2.049,0.188
				c0.962,0.088,2.096,0.366,2.994,0.656l1.988,0.641c2.748,0.886,0.988-0.196,3.437,0.725l2.144,0.806
				c0.705,0.265,1.528,0.689,2.266,0.856l4.707,1.065l2.309,1.524l4.043,1.194l2.028,0.589c1.08,0.314,1.82-0.382,1.765,0.255
				l-0.14,1.643c-0.031,0.363,0.797,0.666,1.234,0.571l1.533-0.333c0.852-0.185-0.34-0.43,0.232-2.309l0.11-0.361
				c0.072-0.238,0.37-0.623,0.695-0.84c0.548-0.367,1.594,0.023,1.849,0.599c0.436,0.982-0.014,2.671,0.601,2.097l0.588-0.548
				c0.113-0.106,0.538,0.157,0.65,0.266l0.325,0.314c0.115,0.111,0.372,0.664,0.324,0.819c-0.875,2.821-1.479,1.742-1.752,3.116
				c-0.342,1.718-0.329,3.399,0.113,5.099c0.699,2.687-0.351,2.099,0.268,3.128c0.307,0.51,0.736,1.47,0.758,2.076
				c0.018,0.479-1.137,1.108-1.605,1.205c-3.031,0.626-2.541,0.328-5.604,0.894l-2.183,0.403l-2.894,0.486l-1.396,0.118
				c-1.09,0.092-2.032,0.298-3.102,0.397l-2.081,0.193c-0.519,0.048-1.126,0.316-1.71,0.506c-1.312,0.426-2.799,0.697-4.204,0.901
				l-2.05,0.298c-0.868,0.126-1.552,0.143-2.478-0.137c-0.411-0.125-1.081,0.209-1.6,0.294c-1.406,0.229-2.99-0.05-4.471,0.192
				l-4.784,0.78l-2.623,0.113l-2.576,0.091l-3.025,0.126c-0.053,0.002-0.414-0.212-0.46-0.246l-0.586-0.426l-0.489,0.3
				c-0.048,0.351-0.053,0.574-0.113,0.55c-0.06-0.024-0.418-0.183-0.506-0.173l-1.202,0.141c-0.609,0.071-1.235,0.116-1.886,0.142
				l-2.007,0.078c-0.807,0.031-2.276-0.036-3.087-0.433c-0.984-0.481-0.058,0.183-2.836,0.359l-2.127,0.135l-2.119-0.255
				l-2.375,0.177l-2.061,0.132l-2.795,0.139l-1.983,0.098c-1.21,0.06-2.289,0.099-3.51-0.052c-0.802-0.099-1.722-0.01-2.493-0.032
				l-2.317-0.066c-0.719-0.02-1.83-0.167-2.393-0.084c-0.742,0.109-1.581,0.447-2.301,0.258c-2.457-0.647-1.477,0.5-3.768,0.214
				c-0.902-0.113-1.826-0.108-2.687,0.061l-1.541,0.302c-1.059,0.208-1.046-0.124-3.559-0.058l-2.047,0.053l-4.755,0.2
				c-3.074,0.129-1.327-0.844-4.071-0.198c-0.237,0.056-0.93-0.135-1.195-0.145c-2.727-0.105-4.305,0.17-5.905,0.031l-2.536-0.221
				c-0.38-0.033-1.179,0.056-1.538,0c-0.67-0.105-1.342-0.226-1.846-0.229l-1.859-0.013c-0.943-0.007-1.89,0.046-2.841-0.082
				l-1.902-0.258c-2.739-0.371-2.612,0.133-5.475,0.339l-1.754,0.126l-2.647,0.154c-0.999,0.058-2.013-0.012-3.053-0.029
				l-4.188-0.066c-0.349-0.006-1.103-0.38-1.3-0.491c-0.044,0.032-0.594,0.34-0.798,0.364l-2.247,0.258
				c-3.258,0.374-2.227,1.154-6.271,0.999l-4.516-0.174l-2.161-0.092c-0.158-0.007-0.644-0.006-0.819,0.017l-2.173,0.275
				l-2.227,0.174c-0.556,0.244-1.217,0.64-1.879,0.535l-3.362-0.533l-3.779-0.646c-2.734-0.467-3.192,0.9-4.997,0.952l-3.086,0.089
				c-1.71,0.049-1.881-0.554-4.042,0.478c-1.115,0.533-1.131,0.23-1.219,0.571h-2.569l-0.691-0.514
				c-0.259-0.192-0.96-0.535-1.3-0.614l-2.144-0.494c-0.315-0.073-1.023-0.027-1.402,0.048l-1.93,0.38
				c-0.217,0.043-0.927-0.205-1.215-0.205l-4.399,0.006c-0.178,0-0.66,0.078-0.829,0.062c-3.977-0.38-1.379,0.469-4.751,0.038
				l-2.442-0.313c-0.549-0.07-1.342-0.299-2.05-0.433c-1.271-0.24,0.045-0.841,0.064-3.362l0.015-1.951l0.049-3.752
				c0.042-3.231,0.694-1.242,0.203-2.552c-0.203-0.542-0.478-0.398,0.004-2.033c0.197-0.667,0.796-0.597,1.094-0.951l1.068-1.269
				c0.33-0.392,1.279-0.873,1.841-1.159c2.06-1.048,3.765-2.564,3.606-2.492l4.061-1.829l2.35-1.582
				c-0.407-0.378-0.927-0.77-1.152-1.011l-1.272-1.363c-1.146-1.228,0.163-0.265-1.375-1.804c-0.433-0.433,0.257-0.091-0.099-1.271
				l-0.476-1.578c-0.054-0.179-0.146-0.433-0.241-0.49l-0.963-0.579c-0.254-1.042-0.785-2.438-1.348-3.366l-1.648-2.712l-1.16-1.958
				c-0.475-0.802-0.777-1.9-1.293-2.691l-1.138-1.741l-0.809-1.251c-0.972-1.503-0.777-1.463-1.955-3.442l-2.347-3.944
				c-0.398-0.668-0.734-1.335-1.097-2.062c-1.285-2.571,0.227-0.157-1.085-2.296l-2.173-3.543c-0.557-0.908-1.058-1.817-1.555-2.729
				l-1.332-2.444c-0.289-0.53-0.914-1.233-1.244-1.766l-0.801-1.292c-0.765-1.234-1.287-2.574-1.668-4.015l-1.128-0.84
				c-0.711-3.929-0.966-2.512-1.569-4.097l-0.875-2.302l-0.905-0.821c-0.149-0.56-0.375-1.543-0.61-1.953l-1.16-2.019
				c-1.514-2.635-0.961-2.196-2.056-3.906l-1.375-2.147c-0.562-0.878-1.061-1.777-1.442-2.825c-2.064-3.274-1.849-1.289-3.345-5.455
				c-0.533-1.484-2.017-4.485-2.827-5.701l-1.167-1.75l-0.883-1.341l-0.881-1.475c-1.413-2.368-0.186-1.568-1.392-3.069
				c-1.085-1.35,0.229-0.779-2.095-3.655c-0.852-1.054-0.952-1.962-2.268-4.009l-1.255-1.951c-0.447-0.696-0.887-1.371-1.271-2.109
				l-1.279-2.459c-0.287-0.551-0.608-1.118-0.85-1.679l-0.618-1.43l-0.49-0.259c-1.832,1.238-1.341,0.6-2.332,0.719
				c-0.683,0.082-1.601,0.372-2.366,0.559l-2.364,0.578c-1.217,0.297-2.206,0.656-3.585,0.707c-0.39,0.014-0.963,0.285-1.376,0.463
				l-1.072,0.46l-2.614,1.122c-0.247,0.106-0.856,0.089-1.247-0.03c-1.181-0.361,0.645-1.173-1.792-4.159l-1.295-1.587
				c-0.295-0.361-0.76-0.873-1.102-1.107l-1.06-0.725c-0.647-0.443-0.645-2.004,0.573-2.631c0.697-0.359,1.417-0.83,1.736-1.331
				l0.823-1.297c0.923-1.455,1.794-1.756,2.283-2.48c1.944-2.882,2.769-2.354,3.934-4.376l1.372-2.383
				c0.146-0.254,1.567-1.607,1.431-1.513c0.008-0.006-0.363-0.305-0.375-0.397l-0.199-1.524l-0.777-0.532l-0.916-1.677
				c-0.498-0.911-1.018-1.915-1.355-2.876c-0.913-2.609-0.8-0.071-1.924-3.587c-0.166-0.519-0.358-1.292-0.542-1.692l-1.542-3.353
				c-0.179-0.39-0.399-1.272-0.705-1.568c-0.902-0.875-1.743-2.034-2.216-3.185l-0.753-1.833c-1.203-2.928-0.973-1.176-2.067-3.002
				l-0.793-1.323c-0.718-1.198-1.244-2.343-1.795-3.682c-0.348-0.845-1.071-1.798-1.484-2.668c-0.241-0.507-0.508-1.123-0.783-1.464
				l-1.046-1.297l-1.733-2.038c-0.351-0.413-0.781-1.16-1.08-1.703l-0.806-1.466c-0.578-1.051-0.795-2.306-1.633-3.313
				c-0.365-0.439-1.666-0.091-2.318,0.021c-0.324,0.056-0.707-0.917-0.53-1.198c1.539-2.436,2.587-1.148,3.3-2.101
				c1.667-2.228,2.053-0.961,3.6-2.667l1.242-0.706c1.305-3.082,1.993-0.27,4.839-2.622c0.456-0.377,0.788-0.849,1.177-1.502
				c0.307-0.516,1.776-0.395,2.088,0.217l1.657,3.25l0.685,1.336c1.949,3.798-0.038,1.546,2.325,4.761l1.958,2.664l1.138,1.406
				c1.366,1.688,2.6,4.158,3.443,5.099l1.4,1.562c1.436,1.602,0.371,1.884,1.874,3.768l1.878,2.355
				c0.261,0.323,0.479,1.329,0.677,1.683l0.921,1.643l1.025,1.832l0.73,1.225l0.337-0.34l-0.323-0.504l-0.55-0.858
				c-0.427-0.666-0.017-2.789-1.902-6.081l-0.217-0.379c-0.118-0.205,0.044-0.464-0.025-0.707l-0.394-1.387l-0.37-1.424
				c-0.084-0.323-0.263-1.091-0.361-1.402c-1.979-3.517-1.065-3.604-1.795-6.405l-0.628-2.409c-0.136-0.524-0.223-1.12-0.297-1.682
				l-0.313-1.217l-0.46-2.159l-0.429-1.267l-0.398-2.205c-0.05-0.277-0.368-0.971-0.393-1.261l-0.178-2.069
				c-0.037-0.426-0.145-0.978-0.282-1.375l-0.549-1.586c-1.552-4.487,0.051-0.45-0.592-4.412c-0.612-3.768-0.532-1.646-1.077-4.532
				l-0.682-3.609l-0.024-0.864c-0.143-0.466-0.208-0.955-0.214-1.454l-0.016-1.221l-0.016-1.355
				c-0.02-1.628,0.069,0.769-0.246-1.807l-0.521-4.254c-0.122-0.992-0.155-1.962-0.153-2.933l0.004-2.286l-0.051-2.231
				c-0.019-0.84,0.106-1.72,0.192-2.558l0.172-1.684l0.311-2.537c0.087-0.705,0.132-1.433,0.115-2.108l-0.043-1.665l-0.045-1.738
				l0.362-1.485c0.609-2.496-0.1-1.065,0.251-3.656l0.218-1.612c0.272-0.546,0.322-0.879,0.345-1.527
				c0.016-0.436,0.374-1.262,0.529-1.81c1.35-4.772-0.057-1.6,0.589-4.812l0.359-1.784c0.071-0.355,0.137-0.734,0.181-1.096
				l0.345-2.82l0.193-2.188l0.286-2.592c0.128-1.161,0.595-2.475,0.641-3.585l0.087-2.13c0.078-1.906,1.107-5.418,1.873-7.264
				l0.328-1.438l0.613-2.075c-0.029,0.097,1.469-3.231,1.889-4.471l0.804-2.38c0.328-0.97,0.786-1.84,1.247-2.762l1.256-2.511
				l0.924-1.906c1.852-3.82,1.533-1.058,2.372-3.727c0.286-0.911,1.26-1.737,2.121-3.444c1.36-2.696,0.618-1.937,2.212-4.385
				l2.156-3.311l1.688-2.611l2.102-2.371c0.652-0.735,1.117-1.892,1.832-2.42c0.135-0.1,0.822-0.04,0.862-0.207l0.203-0.84
				c0.065-0.267,0.74-0.996,1.444-1.992c0.49-0.693,1.272-1.39,1.834-2.086l1.424-1.763c0.308-0.381,0.881-1.225,1.099-1.653
				l1.66-3.253c0.312-0.611,0.688-1.196,1.126-1.701l2.146-2.468l1.473-1.676c0.333-0.379,1.189-0.906,1.409-1.339l1.005-1.976
				c0.279-0.547,1.716-0.87,2.054-1.337l1.187-1.64c0.442-0.61-0.492-0.964-0.746-1.615l-0.575-1.472
				c-2.178-2.404-1.071-1.51-2.531-3.734l-1.133-1.726c-0.225-0.343-0.461-0.754-0.669-1.038l-0.88-1.201
				c-0.867-1.183,0.241-1.619-0.891-2.421c-0.354-0.25-0.623-0.465-0.668-0.694c-0.234-1.201,1.521-1.583,1.992-1.716
				c2.918-0.821,1.337-1.248,3.104-1.619c1.152-0.242,1.69-0.774,1.865-1.964c0.258-1.756,1.616-2.157,2.013-1.771
				c1.147,1.113,2.099,2.42,2.6,2.755l2.612,1.741l3.161,2.032c1.662,1.068,3.269,3.505,3.764,3.781
				c0.625,0.349,2.086-0.533,2.77-0.965l1.439-0.909c3.424-2.163,0.946-0.466,3.702-1.936c2.602-1.389,2.214-1.921,5.599-2.951
				l3.344-1.018l4.163-1.297c0.5-0.156,1.592-0.235,2.059-0.46l4.814-2.316c0.605-0.291,1.647-0.32,2.431-0.485
				c0.607-0.128,1.393-0.725,2.02-1.026c0.571-0.275,1.294-0.492,1.91-0.719l1.669-0.614c0.63-0.232,1.484-0.566,2.072-0.645
				l1.843-0.248c2.138-0.287,4.143-1.355,4.509-1.407l2.259-0.319c0.944-0.133,1.925-0.165,2.693-0.471l1.098-0.438
				c5.726-2.287,2.923-0.164,6.575-1.906l0.944,0.083l0.769-0.688c0.392-0.078,1.182-0.184,1.542-0.176l2.274,0.048
				c-0.067-0.001,3.582,0.504,3.105,1.815l-0.595,1.635c-0.136,0.373,0.02,1.241,0.108,1.726l-0.247,1.126l2.174,0.056
				c0.221,0.006,0.905,0.762,0.721,0.914c-0.439,0.361-1.448,0.955-2.086,1.312c-0.095,1.197,0.539,3.325,1.103,4.484
				c0.229,0.47-0.184,1.662-0.736,1.737c-0.982,0.134-1.819,0.276-2.807,0.504c-2.078,0.48-0.3-0.417-3.497-0.471l-2.017-0.034
				c-2.149-0.036-3.542,0.483-5.117,0.903l-3.196,0.851c-0.18,0.048-0.645,0.221-0.809,0.242c-3.975,0.501-1.003,0.541-4.87,0.898
				c-0.876,0.081-1.695,0.297-2.492,0.612l-2.231,0.88l-2.728,1.04l-2.009,0.875c-0.851,0.371-1.738,0.766-2.581,1.068l-1.787,0.639
				c-0.388,0.139-1.399,0.103-1.766,0.285l-3.151,1.56c-2.652,1.312-1.723,0.271-3.591,1.835c-0.251,0.211-0.868,0.358-1.256,0.499
				c-1.503,0.546-2.835,1.512-4.236,2.257l-2.639,1.404c-1.608,0.856-1.458,1.387-3.871,2.676c-0.359,0.192-0.862,0.427-1.076,0.63
				l-2.951,2.809c-0.391,0.372-0.902,0.934-1.3,1.199l-1.609,1.069c-2.952,1.961-2.116,2.998-4.897,5.295
				c-0.53,0.438-1.241,1.122-1.681,1.402c-1.253,0.797-2.43,1.452-2.813,3.061c-0.125,0.523-1.326,0.969-1.639,1.379
				c-1.932,2.528-0.684,2.105-3.915,5.841c-0.772,0.892-1.439,2.036-2.387,2.693c-1.664,1.154-2.475,3.079-3.196,4.973
				c-0.183,0.482-0.867,1.273-1.208,1.779l-1.739,2.583c-1.408,2.091-1.118,0.125-2.464,2.363l-0.873,1.452
				c-1.234,2.051-1.829,2.618-2.907,4.492l-1.899,3.305c-1.115,1.94,0.32,0.594-1.134,3.359c-1.079,2.052-1.462,0.604-2.602,4.301
				c-0.379,0.461-1.05,1.149-1.405,1.652c-1.555,2.205-0.788,1.796-1.405,3.803l-0.952,3.097c-0.478,1.554-1.387,1.762-1.927,5.798
				c-0.069,0.516-0.415,1.312-0.56,1.845l-0.693,2.557c-0.161,0.596-0.288,1.216-0.4,1.877l-0.379,2.226
				c-0.093,0.544-0.829,1.581-0.809,2.112c0.191,5.053-0.468,1.686-0.5,4.147l-0.025,1.899c-0.012,0.891,0.13,2.067-0.074,2.919
				c-0.6,2.5-0.497,2.147-0.731,4.709l-0.188,2.061c-0.056,0.611-0.149,1.327-0.145,1.856c0.014,1.702-0.001,2.775-0.299,4.628
				l-0.413,2.561c0.206,1.513,0.148,2.799-0.002,4.303l-0.287,2.877l-0.198,1.983c-0.117,1.177-0.106,2.264-0.055,3.446
				c0.16,3.728,0.67,1.21,0.277,3.746c-0.112,0.721-0.264,1.591-0.267,2.193l-0.012,2.449c-0.003,0.526,0.125,1.239,0.146,1.657
				c0.168,3.495-0.055,2.336,0.591,6.213l0.38,2.282c0.44,2.64-0.09,1.229,0.182,4.567l0.126,1.55
				c0.067,0.826,0.197,1.676,0.36,2.506l0.517,2.627l0.575,2.866c0.206,1.029,0.493,2.262,0.544,3.22
				c0.043,0.813,0.041,1.454,0.25,2.178l0.963,3.341l0.442,1.706c0.08,0.31,0.134,1.001,0.168,1.313
				c0.253,0.572,0.571,1.283,0.797,1.919l0.532,1.495c0.913,2.566,0.377,2.781,1.239,4.414c0.34,0.645,0.744,1.256,0.999,1.847
				l1.142,2.64c0.05,0.115,1.258,3.793,1.208,3.694c0.704,1.384,1.629,2.581,2.193,4.034c0.506,1.304,0.898,2.664,1.669,3.798
				l1.252,1.845l1.601,3.572c0.555,1.237,1.543,2.267,2.148,3.51c0.594,1.222,1.156,2.436,1.885,3.557
				c0.339,0.522,0.717,1.036,1.001,1.546l0.934,1.676c0.161,0.29,0.619,0.893,0.877,1.149c1.163,1.15,1.802,2.732,2.684,4.186
				l2.033,3.354c0.374,0.617,2.022,2.622,2.39,2.94l1.741,1.503c2.232,1.927,1.891,0.289,4.066,3.311
				c0.739,1.027,1.569,1.833,2.487,2.654l1.239,1.108c0.285,0.254,0.708,0.849,0.998,1.223l1.155,1.49
				c0.248,0.32,0.98,0.811,1.325,1.15l1.306,1.281c1.032,1.012,2.459,1.797,3.24,2.992c0.289,0.443,0.567,0.888,0.852,1.148
				l1.376,1.252c0.804,0.732,1.464,1.05,2.467,1.623l2.365,1.351l2.495,1.128c0.349,0.158,0.804,0.53,1.174,0.832
				c2.223,1.812,1.825,1.167,4.417,2.339l1.418,0.641l1.759,0.757l2.104,0.783l3.172,1.396c1.945,0.856,3.752,1.657,5.675,2.639
				c0.519,0.265,1.384,1.044,1.958,1.224l3.913,1.223l1.802,0.527l2.113,0.627c0.263,0.078,0.874,0.56,1.124,0.599l1.769,0.271
				c0.353,0.054,1.097,0.39,1.468,0.472l2.415,0.53c1.148,0.252,2.255,0.184,3.474,0.113c0.839-0.049,2.166,0.617,3.075,0.645
				c2.862,0.089,4.564-0.118,6.637-0.035c1.712,0.069,3.353,0.07,5.093,0.028c2.82-0.069,0.279,0.245,3.705,0.253
				c3.051,0.007,4.845-0.581,5.727-0.585l3.067-0.014l2.251,0.025c2.214,0.025,1.683-1.06,3.011-0.09
				c2.523-1.517,2.943,0.081,6.732-0.459l2.28-0.325c0.562-0.08,1.177-0.159,1.744-0.189l2.039-0.108
				c0.414-0.022,1.041-0.01,1.433-0.073l2.527-0.411l2.283-0.371c0.377-0.061,1.025-0.033,1.442-0.066l2.228-0.173
				c0.277-0.026,0.982-0.367,1.263-0.426l2.341-0.489l3.525-0.656c0.216-0.04,0.824,0.059,0.988-0.048
				c1.582-1.029,0.796-0.275,3.926-0.891l4.037-0.794l3.189-0.71c4.584-1.02,1.207,0.026,5.491-1.749
				c0.582-0.241,1.283-0.485,1.887-0.662l3.586-1.053c0.188-0.055,0.533-0.244,0.709-0.355l1.451-0.912
				c3.305-2.077,3.147-0.165,6.171-2.072c2.27-1.431,1.886-0.367,4.342-1.119c2.228-0.682-0.803,0.594,1.914-0.346l3.853-1.332
				c2.095-0.724,3.289-1.469,5.031-2.6l2.633-1.71c2.241-1.456,1.892-0.256,2.981-1.875c0.093-0.139,0.118-0.6-0.029-0.646
				c-1.013-0.321-1.87-1.096-2.657-1.749c-2.685-2.229-0.755-1.194-2.784-2.181c-2.525-1.228-0.362-1.208-5.017-3.216
				c-0.701-0.302-0.406,0.086-1.105-1.069c-0.047-0.078-0.149-0.01-0.33,0.073l-1.626,0.749l-2.663,1.029l-2.716,1.227l-2.363,1.084
				l-1.929,0.902l-1.987,0.863l-1.863,0.762c-0.425,0.174-1.042,0.526-1.502,0.752l-1.708,0.333l-3.142,0.887l-2.651,0.742
				c-2.294,0.642-4.516,1.45-6.912,1.601l-2.435,0.154l-3.268,0.522c-1.06,0.169-2.127,0.462-3.219,0.734
				c-0.956,0.238-2.039,0.268-3.042,0.408l-1.986,0.277l-1.875,0.149c-0.591,0.047-1.255,0.251-1.842,0.315l-2.09,0.231
				c-0.624,0.069-1.353,0.246-1.924,0.291l-2.238,0.175l-1.999,0.158c-0.562,0.044-1.171,0.103-1.75,0.087l-4.876-0.131
				c-2.9-0.078-0.827,0.223-4.504,0.249l-2.105,0.015c-1.135,0.008-2.223,0.029-3.378-0.089l-1.983-0.202l-3.426-0.284l-4.591-0.263
				c-0.714-0.041-1.81-0.165-2.466-0.321l-2.559-0.606c-1.159-0.274-2.311-0.421-3.507-0.522l-2.346-0.198
				c-0.525-0.044-1.042-0.18-1.617-0.349c-0.348-0.102-1.028-0.136-1.481-0.224l-4.751-0.927l-3.933-0.884l-1.48-0.354l-1.357-0.343
				c-1.756-0.444-3.503-0.914-5.316-1.175l-1.747-0.251c-2.286-0.328-3.981-0.83-6.104-1.557l-4.288-1.468
				c-0.459-0.157-0.996-0.357-1.434-0.568l-1.353-0.653l-2.079-1.052l-2.283-1.157c-0.211-0.107-0.834-0.305-1.033-0.424
				l-2.701-1.611c-0.26-0.155-0.834-0.636-1.088-0.815c-0.884-0.396-1.6-0.804-2.358-1.412c-0.54-0.433-1.154-0.719-1.812-1.116
				c-0.859-0.518-1.698-1.557-2.512-2.223l-1.284-1.052c-2.819-2.309-1.552-0.784-4.164-3.805l-1.593-1.842l-2.106-2.452
				l-1.192-1.387l-1.452-1.69l-1.81-2.209l-1.086-1.162l-1.462-1.687l-1.062-1.223l-1.211-1.386
				c-1.355-1.552-3.267-3.066-3.951-5.061c-0.389-1.134-0.838-2.16-1.493-3.05c-0.181-0.247-0.349-1.052-0.587-1.214
				c-1.49-1.012-0.062-1.149-1.166-2.764l-1.338-1.957c-1.138-1.663-0.036-0.498-1.761-3.303c-0.875-1.423-2.081-3.552-2.574-5.038
				l-0.877-2.644l-1.131-3.168c-0.154-0.432-0.516-1.213-0.581-1.597l-0.349-2.068c-0.122-0.723-0.516-1.591-0.715-2.3l-0.831-2.96
				c-0.319-1.136-1.008-2.41-1.226-3.53l-0.568-2.919l-0.591-2.671c-0.649-2.933-0.522-0.75-0.926-3.729l-0.399-2.938
				c-0.401-2.96-0.909-2.948-1.086-4.803l-0.222-2.335l-0.283-2.861c-0.072-0.725-0.105-1.513-0.138-2.193l-0.115-2.407
				l-0.179-2.442l-0.954-0.959c0.007-0.447,0.006-0.954,0.032-1.325l0.146-2.104c0.068-0.976-0.107-2.089-0.322-3.085
				c-0.811-3.767,0.498-1.136-0.166-5.462l-0.361-2.35c-0.084-0.548,0.367-1.627,0.441-2.214l0.325-2.586
				c0.124-0.989,0.327-1.874,0.518-2.905c0.185-1,0.152-4.369,0.227-4.713l0.608-2.818c0.381-1.768,0.984-2.404,1.267-3.771
				l0.315-1.522c0.175-0.845,0.164-1.648,0.2-2.509l0.099-2.353c0.024-0.559,0.625-1.659,0.719-2.216l0.397-2.354
				c0.078-0.463-0.006-1.43,0.116-1.884l0.659-2.453c1.005-3.74-0.374-0.491,1.596-6l2.122-5.934
				c0.278-0.779,0.683-1.605,1.092-2.313l1.376-2.38l1.074-2.621c0.433-1.057,0.998-1.853,1.409-2.93
				c0.305-0.8,0.874-1.523,1.399-2.246l0.721-1.06c0.346-0.508,0.593-1.059,0.87-1.667l1.337-2.94
				c0.244-0.536,0.596-1.081,0.937-1.627c2.185-3.502,0.697-2.213,1.909-4.324c0.682-1.188,2.28-3.559,3.094-4.635l0.989-1.309
				l1.116-1.465l1.867-2.432c0.312-0.406,0.683-0.864,1.017-1.244l1.398-1.591c0.476-0.542,0.022-1.885-0.377-2.488l-0.619-0.935
				l-1.251-1.929l-2.573-4.218c-0.137-0.224-0.212-0.916-0.321-1.163l0.724-0.723c0.119-0.119,0.567-0.357,0.692-0.245l0.425,0.381
				c2.471,2.217,0.49,1.679,2.283,3.432c0.391,0.382,0.5,0.944,0.755,1.62c0.253,0.67,1.115,1.588,1.525,2.284l1.14,1.939
				l1.499-1.985c0.295-0.391,1.02-0.946,1.417-1.346l1.153-1.163l1.336-1.272l2.413-2.299c0.163-0.155,0.877-0.41,0.992-0.614
				c0.674-1.191,1.216-1.104,3.197-2.373l2.462-1.576l1.048-0.671c0.103-0.066,0.386-0.495,0.261-0.512l-0.63-0.085
				c-0.189-0.025-0.79-0.159-0.924-0.282l-1.589-1.462c-0.412-0.379-0.84-0.798-1.231-1.053l-2.274-1.484l-0.582-1.08
				c-0.938-0.427-1.218-1.803-0.765-2.534c0.118-0.191,0.971-0.247,1.151-0.118c2.522,1.804,1.142,1.69,2.694,2.664
				c1.534,0.962,2.957,1.972,4.399,2.993c0.433,0.306,1.482,0.652,1.955,0.954c0.444,0.283,1.693-0.41,1.92-0.556l3.596-2.312
				c0.595-0.383,1.203-0.719,1.805-1.064l1.628-0.935l1.497-0.829l1.462-0.804c0.834-0.459,1.777-0.98,2.68-1.28l5.807-1.931
				c2.554-0.849-0.44-0.337,3.394-1.674l3.801-1.326c2.029-0.708,4.189-0.917,6.255-1.549l1.658-0.508
				c2.994-0.917,2.736-0.988,5.822-1.44c1.235-0.181,2.571-0.055,3.789,0.005c3.267,0.159,0.811-0.065,4.311-0.462l2.853-0.323
				c0.841-0.095,1.715-0.189,2.564-0.202l2.813-0.045c0.784-0.013,1.588-0.027,2.383-0.119l1.654-0.192l2.286-0.283l2.3-0.284
				c0.55-0.068,1.191-0.114,1.692-0.09l1.511,0.074c2.715,0.133,5.432,0.14,8.145-0.008l2.126-0.116l2.49-0.171
				c1.204-0.083,2.342-0.171,3.506-0.16l3.733,0.035l1.597,0.108l1.693-0.03l2.619-0.029l2.349-0.027l1.739-0.006
				c0.497-0.002,1.157-0.119,1.84-0.239c2.682-0.473,1.068,0.661,3.545-0.155l7.681,1.7c0.867,0.192,2.221-0.057,3.06,0.084
				l2.007,0.337c3.402,0.571,1.399-0.331,4.487,0.618c0.515,0.158,2.143,0.117,4.461,0.652l2.379,0.549
				c0.42,0.097,1.056,0.339,1.517,0.411l2.268,0.354l4.215,0.872c0.346,0.072,1.064,0.441,1.374,0.601l1.396,0.72l2.91,0.93
				l1.936,0.631l4.032,1.424c0.782,0.276,1.475,0.78,2.172,1.231c4.28,2.768,1.461,1.518,3.968,3.234l4.229,2.896
				c1.881,1.288,4.141,2.803,5.53,4.804l1.482,2.135l2.491,2.708l3.163,3.376l1.603,1.84c0.42,0.482,0.876,1.062,1.256,1.572
				l1.834,2.458l1.535,2.162c0.317,0.446,0.614,0.954,0.931,1.356l1.415,1.791c0.387,0.489,0.735,1.682,1.171,2.131
				c1.519,1.564,0.063-0.216,1.68,2.66l1.041,1.851l0.712,1.283l2.243,4.091c0.223,0.407,0.513,1.13,0.621,1.62
				c0.066,0.3,0.736,0.853,0.856,1.155l1.853,4.661l1.22,3.118c0.179,0.456,0.344,0.946,0.461,1.383l0.527,1.965
				c0.219,0.818,0.563,1.704,0.829,2.554l0.757,2.415l0.67,2.486l0.955,3.845l0.325,1.674l0.658,2.446l0.534,2.313l0.259,1.33
				l0.759,3.782l0.51,2.302c0.542,2.447,1.852,3.827,1.626,7.151l-0.156,2.297c0.432,1.49,0.258,2.976,0.299,4.526l0.047,1.779
				l-0.159,1.7l0.175,1.11l-0.076,1.732c-0.035,0.8-0.128,1.699-0.235,2.539l-0.289,2.267l-0.028,1.389
				c-0.02,0.979-0.141,1.753,0.016,2.75c0.048,0.304-0.07,0.994-0.095,1.37l-0.198,3.066c-0.03,0.465,0.03,1.302-0.017,1.699
				c-0.159,1.333-0.498,2.615-0.539,3.857l-0.055,1.672c-0.094,2.836-0.324,1.223-0.308,4.473c0.001,0.301-0.232,0.989-0.265,1.266
				l-0.377,3.143l-0.436,3.314l-0.658,1.8c-0.985,2.694-0.182,1.482-1.125,4.542l-0.616,1.998l-0.954,3.358l-0.746,3.014
				l-0.641,2.048l-0.641,1.796c-0.263,0.737-0.42,1.477-0.646,2.255l-0.633,2.176c-0.23,0.789-0.651,1.663-0.998,2.414l-1.174,2.543
				l-0.717,1.584l-1.625,3.396c-0.118,0.246-0.229,1.007-0.326,1.247l-0.998,2.067c-0.374,0.774-0.771,1.485-1.168,2.206
				c-1.539,2.794-1.521,2.283-2.84,4.608c-1.153,2.032-0.676,1.048-2.045,3.084l-1.273,1.894l-1.333,1.8l-1.863,2.718l-1.314,1.842
				l-1.176,1.754c-0.679,1.013-1.867,1.945-2.662,2.928l-1.039,1.284c-0.182,0.224-0.459,0.607-0.618,0.78l-2.343,2.539
				c-0.585,0.634-1.156,1.354-1.836,1.852l-2.676,1.96c-0.453,0.332-1.126,1.032-1.57,1.524l-1.058,1.173l-2.439,2.016
				c1.776,4.106,1.611,1.37,3.062,5.251c0.734,1.963,1.942,3.278,3.455,4.741l1.255,0.108l0.494,1.37
				c0.149,0.07,0.918-0.089,1.121-0.266c1.726-1.496,2.134-1.53,3.239-2.669l1.852-1.908l1.838-1.575l0.907-1.111
				c-0.595,0.729,4.954-5.51,4.422-4.963c0.96-0.987,1.903-1.902,2.725-2.978l1.363-1.787l2.173-3.014l1.361-1.431l1.782-2.265
				l2.186-1.736l1.659-2.131c1.235-1.587,2.77-2.858,4.164-4.39c0.438-0.481,0.825-1.397,1.113-1.993l0.764-1.58l1.259-0.378
				c1.028-1.596,3.509-0.539,4.956-0.009l3.736,1.367c0.473,0.173,1.642,0.445,1.891,0.086l1.422-2.046L315.429,214.984z
				 M295.242,234.077l0.998-1.153l1.819-1.948c0.423-0.453,0.815-1.067,1.158-1.653c1.64-2.805,1.001-0.965,1.949-2.909l0.628-1.288
				c0.418-1.744,0.921-1.79,1.946-3.484l1.809-2.991l-0.058-0.486l-0.612-0.084l-2.116-0.272l-1.175,2.491
				c-0.159,0.336-0.57,1.156-0.863,1.412l-3.182,2.778c-0.892,0.779-1.615,1.59-2.385,2.492l-1.833,2.145l-1.314,1.529l-1.156,1.178
				c-0.574,0.585-1.146,1.322-1.685,2.003l-1.132,1.429l-1.624,2.107c-1.457,1.891-0.217,0.228-1.933,2.059l-3.432,3.663
				l-1.448,1.718c-0.203,0.241-0.46,0.525-0.676,0.751l-2.376,2.485l-1.402,1.515c-0.42,0.454-1.426,0.964-1.94,1.373l-1.151,0.915
				c-1.674,1.331-3.393,2.478-5.184,3.651l-1.395,0.914c-3.001,1.966-2.417-0.612-5.816,2.395l-2.595,2.296
				c-1.194,1.057-2.136,1.611-3.359,2.359l-2.819,1.727l-1.395,0.855c0.15,0.362-4.336,2.922-4.423,2.958l-3.05,1.286l-3.741,1.724
				l-1.853,0.151c-1.139,0.093-2.301,0.382-3.329,0.69l-2.707,0.813l-3.002,0.871c-0.313,0.091-0.962,0.575-1.248,0.722
				l-1.923,0.988c-0.533,0.274-1.141,0.67-1.674,0.834l-1.578,0.486c-0.604,0.186-1.319,0.65-1.899,0.824l-1.825,0.546
				c-0.761,0.228-1.598,0.61-2.319,0.739c-1.032,0.184-1.978,0.308-2.922,0.611c-1.863,0.596-3.631,0.67-5.513,1.127l-1.776,0.431
				l-1.994,0.269c-1.006,0.136-0.176,0.329-1.22,0.482l-1.965,0.288l-1.49,0.23l-2.902,0.514l-1.775,0.338l-2.369,0.454
				c-2.973,0.57-3.078,0.347-5.468,0.789c-3.886,0.719-3.352-0.016-5.154,0.188c-0.695,0.078-1.638,0.338-2.224,0.344l-7.469,0.078
				c-0.265,0.003-0.831,0.092-1.109,0.131l-3.708,0.52c-3.073,0.431-3.957-0.2-6.023,0.155l-1.55,0.266l-11.5-0.043l-2.127-0.061
				l-1.126-0.051l-3.632-0.182c-0.822-0.041-1.684-0.269-2.557-0.31l-2.714-0.126l-2.216-0.388c-0.773-0.135-1.8-0.686-2.529-0.889
				c-0.634-0.176-1.239-0.351-1.86-0.572l-2.549-0.906l-2.134-0.764c-3.946-1.413-1.823,0.76-6.902-2.478
				c-0.687-0.438-1.535-0.819-2.281-1.149l-1.789-0.793c-0.986-0.437-2.151-0.738-3.201-1.123l-3.358-1.23l-1.252-0.684
				l-2.157-0.848c-0.424-0.167-0.855-0.346-1.278-0.564l-1.389-0.715c-0.692-0.356-1.427-1.256-2.139-1.758
				c-1.944-1.37-1.992-0.473-4.238-2.018l-1.872-1.288c-2.292-1.578-3.982-2.559-5.494-5.099c-0.135-0.226-0.728-0.559-0.946-0.742
				l-1.249-1.053c-2.898-2.443-0.944-0.822-2.996-3.243l-1.2-1.416c-1.774-2.093-0.965-0.191-2.356-2.152l-1.318-1.859
				c-1.477-2.083-1.897-1.456-4.477-3.508c-1.108-0.882-4.893-4.287-5.324-5.214l-0.985-2.117c-0.998-2.145-2.259-1.609-1.987-2.416
				c0.118-0.351,0.313-1.295,0.089-1.533l-2.032-2.157c-0.603-0.641-1.081-2.632-2.698-4.778c-0.428-0.568-0.734-1.532-1.075-2.066
				l-2.008-3.139c-2.222-3.474-0.331-1.827-3.146-5.689c-0.256-0.351-0.697-1.161-0.881-1.663l-1.15-3.135
				c-0.482-1.312-1.476-2.478-1.904-3.752l-0.794-2.364l-0.633-1.954c-0.785-2.422-1.653-1.959-2.697-5.615
				c-0.54-1.891-1.395-3.128-1.655-4.852l-0.72-4.765c-0.088-0.585-0.128-1.109-0.247-1.659l-0.372-1.726
				c-0.297-0.573-0.64-1.255-0.694-1.778l-0.219-2.133c-0.063-0.619-0.337-1.394-0.468-1.98l-0.598-2.67l-0.116-1.1
				c-0.243-1.069-0.211-2.02-0.273-3.112l-0.165-2.924c-0.031-0.556,0.058-1.218-0.076-1.621c-0.332-0.996-0.469-1.779-0.615-2.701
				l-0.381-2.403c-0.067-0.421-0.081-0.968-0.116-1.411c-0.075-0.967-0.336-2.159-0.305-3.089l0.089-2.68l0.09-2.521
				c0.059-1.641-0.153-2.494-0.131-3.979l0.044-2.932l-0.005-2.91c-0.002-1.52,0.302-2.451,0.33-3.017
				c0.072-1.463,0.047-2.848,0.015-4.285l-0.033-1.448c-0.034-1.523,0.421-2.86,0.788-4.347c0.378-1.526-0.07-3.437,0.203-5.03
				l0.345-2.01c-0.035-0.813-0.049-1.568,0.051-2.347l0.33-2.558l0.131-2.789l0.313-2.582l0.274-2.245l0.234-2.09
				c0.277-2.479,1.167-2.829,1.649-6.25c0.137-0.973,0.395-1.855,0.593-2.725c0.256-1.124,0.437-2.364,0.866-3.506l1.011-2.697
				l0.628-1.682l0.17-1.628l0.633-1.643c0.252-0.653,0.574-1.586,0.948-2.126l2.098-3.034l1.178-1.911l0.474-1.061
				c0.225-0.503,0.679-1.106,0.939-1.59l0.814-1.512c0.27-0.502,0.573-1.223,0.848-1.676l2.397-3.952l1.146-1.639
				c0.382-0.546,0.65-1.111,0.98-1.614l1.021-1.559c2.182-3.333,1.355-1.295,2.661-3.251l1.281-1.919l0.786-1.179
				c0.737-1.105,1.425-2.138,2.255-3.188l1.403-1.774l1.63-2.374l2.271-2.87c0.711-0.899,0.884-1.815,2.981-4.393l1.034-1.271
				l1.658-2.047c0.244-0.301,0.942-0.729,1.268-1.004c2.687-2.267,3.447-3.351,5.658-5.816c0.318-0.355,1.102-0.962,1.495-1.309
				l2.734-2.418l1.387-1.208c0.473-0.412,1.217-1.045,1.7-1.331l2.218-1.311c2.778-1.642,0.756-1.157,5.773-3.4
				c1.791-0.801,2.08-1.632,3.995-2.432l2.05-0.856l2.225-0.94c0.438-0.185,0.873-0.431,1.321-0.707
				c4.388-2.701,2.539-0.76,5.519-2.121l1.829-0.835c1.296-0.592,1.455-0.24,3.632-1.186l2.184-0.95
				c3.185-1.386-0.162-0.497,3.857-1.614c0.592-0.165,1.217-0.313,1.807-0.381l1.798-0.206l2.578-0.325
				c0.269-0.034,0.668-0.271,0.932-0.537c0.947-0.954,1.116,0.248,3.649-0.842l1.87-0.155c1.178-0.694,2.258-0.844,3.56-0.768
				l1.793,0.105l1.615,0.149c0.28,0.026,0.872,0.28,1.201,0.399l0.589,0.213c0.114,0.041,0.19-0.471,0.182-0.61l-0.157-2.807
				c-0.026-0.474,0.012-0.809,0.062-1.538l-2.064,0.253c-4.444,0.544-2.32-0.935-5.727,0.233l-5.3,1.817
				c-1.436,0.492-2.802-0.625-4.271,0.006l-3.856,1.655c-0.384,0.165-1.175,0.569-1.553,0.552l-1.594-0.068
				c-0.463-0.205-1.308-0.512-1.688-0.282l-2.206,1.331c-0.416,0.251-1.101,0.431-1.627,0.591l-3.24,0.981l-1.825,0.516
				c-0.425,0.12-0.936,0.262-1.333,0.413c-3.916,1.493-1.421,0.804-4.955,2.435l-2.329,1.075c-2.346,1.083-1.382,1.708-2.851,1.717
				l-1.729,0.01L94.6,24.693c-0.772,0.49-1.691,0.758-2.626,1.136l-2.776,1.122c-0.413,0.167-0.962,1.013-1.279,1.293
				c-0.699,0.618-1.591,1.553-2.064,2.183c-0.557,0.74-1.966,0.367-1.954,0.28c0.016-0.119,0.1-0.589,0.163-0.691
				c2.288-3.708,1.589-1.968,2.772-3.712c0.724-1.068,2.445-1.555,3.597-1.876c0.649-0.181,4.018-1.452,4.455-1.772
				c5.158-3.773,4.656-1.6,5.632-2.317l1.657-1.219c0.384-0.283,1.201-0.731,1.604-0.883l1.751-0.661l1.081,0.033
				c0.366-0.51,1.09-1.355,1.591-1.552l2.523-0.993c0.671-0.264,1.42-0.464,2.139-0.673l3.325-0.971
				c2.519-0.735,4.573-2.898,5.614-2.546l2.173,0.735l3.003-1.141l2.021-0.84c3.583-1.49,2.64,0.756,6.355-0.661l4.381-1.671
				c0.352-0.134,1.157-0.316,1.573-0.326c0.831-0.02,3.533,1.189,5.007-0.195c0.52-0.489-0.086-1.514-0.634-1.68l-0.274-1.405
				c0.326-0.36,0.493-0.481,0.354-0.526c-2.723-0.859-2.757,0.04-6.618,0.997c-1.958,0.485-4.284,1.327-6.148,1.969
				c-0.963,0.332-2.689,0.15-3.989,0.321l-1.568,0.206c-0.431,0.459-1.045,0.935-1.517,0.995l-1.831,0.234
				c-1.183,0.151-2.323,0.436-3.484,0.772c-3.004,0.871-1.972,0.142-4.799,1.853c-1.094,0.662-2.277,0.922-3.671,0.934
				c-0.924,0.008-1.62,1.194-3.761,1.834l-2.702,0.808l-3.367,0.98l-1.909,0.796l-1.768,0.543c-0.88,0.27-1.99,0.542-2.726,0.968
				c-2.695,1.556-1.937,1.604-4.767,2.708c-0.581,0.227-1.099,0.581-1.597,0.934l-2.97,2.106l0.205,0.903
				c-0.165,0.338-0.935,1.192-1.354,1.095l-2.105-0.484c-0.338-0.078-1.021,0.597-1.303,0.84l-1.696,1.463l-1.741,1.395
				l-3.228,2.531c-1.282,1.005-2,0.547-2.356,1.253l-0.43,0.853l-1.685,1.925l-2.79,2.963c-2.159,2.293-0.008,1.279-2.467,3.264
				c-0.32,0.258-0.857,0.77-1.116,1.093l-1.149,1.432l-1.384,1.806c-0.425,0.554-0.745,1.096-1.121,1.737
				c-0.68,1.157-1.507,2.255-2.296,3.361l-0.977,1.369c-0.272,0.381-0.744,0.754-1.152,1.162c-0.354,0.353-0.846,1.059-1.236,1.544
				c-2.154,2.681-1.685,1.146-3.489,3.635l-1.338,1.846l-0.961,1.325c-1.605,2.214,0.349-0.489-1.17,2.2
				c-0.39,0.69-0.901,1.504-1.173,2.169c-0.536,1.31-1.238,2.131-1.899,3.336l-1.703,3.105l-1.236,1.677
				c-0.116,0.27-0.362,0.938-0.519,1.208l-1.152,1.992c-0.472,0.816-1.044,1.664-1.457,2.495l-1.518,3.052l-1.107,2.384
				c-1.469,3.165-0.656,1.906-1.598,4.041l-1.489,3.375c-0.454,1.029-0.085,2.153-1.498,5.04l-0.592,1.209
				c-0.507,1.036-0.346,2.544-0.576,3.707c-0.208,1.05-0.597,2.17-0.698,3.179l-0.265,2.643c-0.046,0.455-0.178,1.027-0.265,1.494
				l-0.24,1.29l-0.629,3.496c-0.087,0.486-0.096,1.405-0.245,1.832c-0.315,0.906-0.336,1.5-0.242,2.541
				c0.072,0.79-0.338,2.069-0.394,2.984c-0.069,1.133-0.076,2.128-0.253,3.186l-0.453,2.716l-0.836,4.956
				c-0.222,1.317-0.426,2.744-0.308,4.033l0.21,2.285c0.051,0.55-0.26,1.637-0.286,2.191l-0.072,1.515
				c-0.039,0.832-0.177,1.797-0.184,2.554c-0.011,1.076,0.2,1.96-0.246,2.923c0.412,3.034,0.046,1.776,0.267,4.845l0.2,2.768
				l0.311,2.556c0.458,3.767-0.685-0.559,0.461,5.173c0.154,0.771,0.266,1.496,0.366,2.265l0.304,2.339
				c0.07,0.537,0.101,1.052,0.249,1.59c1.127,4.104-0.15,2.77,1.134,6.879c0.519,1.662,0.835,3.366,1.236,5.085l0.975,4.178
				l0.136,1.898l0.93,3.238c0.432,1.503,0.667,2.969,0.923,4.519c0.494,2.992,0.617,0.552,1.415,4.313
				c0.125,0.59,0.4,1.171,0.569,1.66l1.477,4.278c1.198,3.469,0.474,3.434,2.052,6.791c0.223,0.473,0.434,0.955,0.622,1.438
				l1.28,3.289l1.06,2.934l0.838,2.294l1.178,3.151c0.118,0.315,0.345,0.759,0.506,1.101l0.817,1.732
				c2.249,4.768,3.123,2.994,3.793,6.517c0.71,3.735,0.294,0.776,2.085,4.522l0.917,1.917c1.639,3.428,2.455,2.116,2.866,4.583
				c0.213,1.279,1.221,2.009,2.458,2.407c0.604,0.194,1.068,0.825,1.423,1.382l0.974,1.53c2.114,0.467,2.999,2.845,4.235,4.05
				c0.958,0.934,1.785,1.679,2.46,2.769l0.854,1.379c1.405,0.849,2.295,2.095,3.143,3.475l1.313,2.137l1.127,1.688l0.939,1.381
				c0.352,0.518,2.536,3.162,2.709,3.276c0.62,0.407,1.807,1.077,2.288,1.594c0.59,0.634,1.005,0.837,1.648,1.326l2.411,1.834
				c0.512,0.389,0.89,0.764,1.308,1.338l2.486,0.915c0.681,0.251,1.357,0.911,1.974,1.398l1.417,1.119
				c3.423,0.464,2.855,1.992,4.177,2.905l1.527,1.055c1.1,0.223,1.672,0.684,2.63,1.203l2.901,1.571
				c0.679,0.368,1.002,0.689,1.721,0.975l2.413,0.962c1.317,0.525,3.808,1.809,4.944,2.769l1.444,0.238
				c0.486,0.455,0.846,0.602,1.512,0.863c0.605,0.238,1.336,0.737,1.953,1.047l1.773,0.891c0.565,0.284,1.194,0.915,1.699,1.423
				l2.919,0.796c1.035,0.282,2.011,0.531,3.046,0.665l2.051,0.265l1.767,0.702c0.766,0.304,4.731,0.315,5.828,0.519
				c0.685,0.128,1.176,0.187,1.82,0.251l2.293,0.228l2.335,0.245c1.763,0.185,3.301,0.987,5.128,1.064l2.488,0.105l2.675,0.437
				c0.488,0.08,1.49,0.553,2.01,0.567l5.335,0.142c0.517,0.014,0.99,0.031,1.441-0.001l2.278-0.16
				c1.285-0.09,2.502-0.184,3.727-0.075l0.877-0.075l6.002-0.07c0.44-0.005,1.406-0.315,1.879-0.354l2.686-0.225l3.193-0.383
				l3.935-0.324c0.713-0.059,1.864,0.252,2.579,0.038l2.093-0.626c1.026-0.307,2.112-0.427,3.179-0.592
				c0.51-0.079,1.259-0.325,1.806-0.325c1.474,0,2.77-0.306,4.071-0.792l1.345-0.178l2.011-0.84c0.553-0.231,1.37-0.523,1.917-0.587
				l2.399-0.28c2.834-0.33,3.553-1.109,5.209-1.559l4.114-1.118l2.479-1.076c0.987-0.429,2.346-0.333,3.24-0.756l3.529-1.67
				c0.864-0.409,1.849-0.872,2.748-1.187l3.636-1.273c0.993-0.348,1.915-0.923,2.887-1.38c0.708-0.333,1.505-0.612,2.273-0.915
				c2.345-0.927,0.123,0.163,3.148-1.032c0.631-0.249,1.252-0.492,1.845-0.768l1.956-0.908c1.006-0.467,2.137-1.165,2.847-1.986
				c0.226-0.261,1.03-0.532,1.363-0.739c1.644-1.019,3.348-2.183,5.167-3.05c0.85-0.405,2.237-0.53,3.002-0.956l1.538-0.858
				c0.398-0.222,1.035-0.72,1.425-1.047l1.582-1.329c0.544-0.457,1.195-0.907,1.809-1.288l2.329-1.448
				c0.575-0.357,1.617-0.847,2.219-1.13c0.193-0.091,0.635-0.541,0.806-0.651l2.413-1.556c0.783-0.505,1.462-0.946,2.216-1.501
				l1.15-0.28c2.072-2.682,1.092-0.617,2.867-2.224l1.521-1.377c0.446-0.404,0.956-0.782,1.421-1.134l1.33-1.006
				c1.372-1.037,2.147-2.373,4.14-4.093l1.709-1.475c0.487-0.42,1.166-1.067,1.657-1.393l2.607-1.734l0.683-0.453l2.001-2.012
				c1.854-1.864,2.366-2.68,3.985-4.31c0.644-0.649,1.67-1.363,2.082-2.081l0.866-1.511l2.306-3.664
				c0.499-0.793,0.942-1.725,1.526-2.483c1.649-2.142,1.647-1.33,2.398-3.108c0.142-0.335,0.773-0.883,0.995-1.229l1.547-2.409
				c0.255-0.397,0.538-0.882,0.788-1.216l1.496-1.989c0.577-0.767,1.898-3.141,2.306-4.378l-3.333-0.964
				c-0.234-0.068-0.954-0.557-1.141-0.45c-0.544,0.313-1.21,1.436-1.568,2.054l-1.379,2.378l-1.067,1.766l-1.282,2.12
				c-0.436,0.721-0.88,1.41-1.385,2.059c-1.05,1.348-1.963,2.81-3.096,4.023l-1.252,1.34l-2.648,2.808
				c-0.331,0.351-0.951,0.864-1.337,1.147l-1.366,1.002c-0.7,0.514-1.16,1.261-1.707,2.016c-0.444,0.612-1.019,1.21-1.589,1.836
				c-1.007,1.106-1.127,0.623-2.771,2.304c-1.802,1.844-4.441,4.229-6.479,5.845c-0.722,0.573-1.707,1.305-2.301,1.931l-2.092,2.206
				l-1.136,1.665c-0.471,0.689-2.936,2.512-3.74,3.737l-1.593,2.43l-1.819,0.444c-0.244,0.06-0.665-0.732-0.472-0.893l0.716-0.594
				c0.209-0.173,0.481-0.837,0.676-1.05c0.424-0.46,1.275-1.198,1.589-1.719c1.483-2.469,1.736-1.307,3.623-3.833l1.208-1.617
				c0.684-0.916,1.218-1.56,2.157-2.261c0.402-0.3,0.861-0.822,1.355-1.183l1.934-1.415c1.296-0.948,2.162-2.22,3.367-3.252
				l1.253-1.074c0.465-0.398,0.993-1.219,1.413-1.674c0.966-1.047,1.527-0.795,2.366-1.845l1.068-1.338
				c1.824-2.284,2.463-2.089,3.616-3.168C293.261,236.179,294.252,235.221,295.242,234.077z M66.889,20.781
				c0.143,0.442,0.302,0.768,0.504,1.141l1.828,3.373c0.307,0.566,0.716,1.207,1.085,1.739l2.142,3.1
				c1.604-2.178,0.508-0.69,3.31-2.586l0.891-0.603c0.912-0.617,2.047-1.258,2.841-1.945l2.18-1.886
				c-2.381-3.353-2.121-2.523-5.612-4.996c-0.861-0.61-1.76-1.073-2.734-1.532c-0.452-0.713-1.438-1.735-2.243-2.039
				c-0.315-0.119-1.016,0.516-1.041,0.817c-0.112,1.349,2.006,1.575,2.654,2.176c0.912,0.846,5.001,4.48,4.775,5.512l1.037,0.767
				c0.09,0.473-0.211,1.391-0.638,1.632c-1.729,0.977-1.879-1.45-3.539-3.263c-0.109-0.119-2.814-1.696-3.022-2.835l-2.691-1.446
				c-0.205-0.225-0.535-0.877-0.817-0.845c-0.225,0.026-0.786,0.228-0.936,0.39l-1.026,1.108L66.889,20.781z M85.994,185.481
				l0.6,1.689l0.06,2.176c0.016,0.588-0.518,1.985-0.666,3.667l-0.223,2.533c-0.074,0.845,0.403,2.911,0.533,3.562l0.632,3.149
				c1.059,5.273-0.074,6.323,0.208,8.339c0.145,1.036,0.194,2.463,0.738,3.253l1.866,2.706l0.894,1.423l0.638,1.102l2.166,0.734
				c2.755,0.933-0.373-0.584,4.524,0.482l2.735,0.595c1.43-0.489,2.699-1.19,3.836-2.136c1.503-1.25,1.003-0.457,3.618-1.823
				c4.117-2.153,3.788-1.711,8.09-2.181c0.538-0.059,1.701,0.241,2.105,0.578c2.328,1.945,0.314-0.292,3.404,1.508
				c0.262,0.152,0.874,0.026,1.41-0.127c1.771-0.503-0.001,1.085,3.519,0.984c1.65,1.465,0.685,1.792,1.923,3.106
				c1.42,1.508,0.691,2.336,1.709,5.761c0.177,0.595,0.39,1.225,0.473,1.796l0.334,2.291c0.059,0.407,0.452,1.168,0.596,1.582
				l1.097,3.153c0.142,0.408,0.251,1.258,0.312,1.731l0.245,1.891c3.409,2.585,1.397,1.457,2.911,3.207l1.105,1.277
				c1.725,1.994,1.084,2.487,2.672,3.773c1.194-0.535,2.207-0.39,3.037,0.492c1.649,1.753,2.055,0.776,2.663,2.469
				c1.229,3.423-0.748,1.636,1.425,4.528c1.812,2.412,1.668,0.53,3.058,1.827l1.593,1.485l1.451,1.453l1.145,1.174l1.465,1.598
				c0.083,0.09,0.647,0.035,0.739-0.038l1.432-1.136c0.193-0.153,0.379-0.689,0.254-0.9l-1.256-2.113
				c-0.098-0.165-0.163-0.895-0.216-1.03c-2.166-1.681-1.217-1.202-2.529-4.036c-0.932-2.013-0.062-0.54-0.752-3.745l-0.499-2.316
				c-0.03-0.139,0.13-0.607,0.265-0.64c0.411-0.1,1.441,0.573,1.324,0.989c-0.418,1.48-0.236-0.006,0.46,2.333l0.613,2.062
				c0.21,0.707,1.06,2.599,1.413,3.084l2.409,3.313c0.27,0.372,0.572,0.741,0.886,1.12l1.153,1.391
				c0.241,0.291,0.385,1.417,0.056,1.564c-0.573,0.255-1.835,0.435-2.568,0.646c-0.265,0.076-3.269,1.74-2.656,2.036
				c0.434,0.068,1.099,0.17,1.423,0.188l1.725,0.095l1.081-0.085l2.12,0.096l2.264,0.101l2.795,0.433l1.446,0.06l2.797,0.157
				c3.534,0.199-0.351-0.287,4.043-0.422l2.523-0.077l2.428-0.038c2.49-0.039,2.619,0.69,5.097,0.246
				c1.436-0.257,2.795-0.508,4.219-0.651c1.43-0.144,2.844-0.215,4.18-0.478l2.381-0.47c0.762-0.15,1.568-0.324,2.306-0.424
				l2.31-0.314c0.808-0.11,1.542-0.285,2.386-0.469c0.768-0.167,3.042-0.312,4.12-0.52l4.955-0.954
				c0.131-0.025,0.479-0.155,0.437-0.239l-0.308-0.622c2.46-2.76,1.401-1.057,4.125-4.365c0.392-0.476,0.773-0.941,1.017-1.523
				l0.875-2.085c-0.049-0.755-0.651-1.903-1.208-2.554c-1.535-1.796-0.623-2.439-1.562-5.22c1.027-1.796,2.398-3.289,3.91-4.686
				l1.788-1.653c0.237-0.219,0.978-0.666,1.328-0.723l2.371-0.386c1.801-0.293,2.555-0.758,3.68-2.391
				c3.011-4.371,0-2.538,2.947-5.9c0.163-0.297,0.554-0.834,0.772-1.205l1.087-1.855c0.364-0.622,2.829-3.329,3.43-2.611l1.447,1.73
				c1.096,0.27,2.766,0.601,3.919,0.952c0.296,0.09,1.51,1.398,2.557,0.547l1.744-1.419c0.645-0.525,1.214-0.851,1.941-1.226
				l2.212-1.142c0.369-0.19,1.506,0.005,1.928-0.088l1.947-0.429c0.625-0.138,1.604-2.203,3.162-3.264l2.923-1.991l1.995-1.494
				c0.786-0.589,2.257-0.196,3.149,0.363c0.491-0.154,1.162-0.426,1.628-0.673c2.329-1.231,1.458,0.217,2.77-0.903l1.56-1.332
				c0.609-0.52,1.204-1.371,1.906-1.764l2.996-1.676l1.66-1.156c0.819-0.571,1.819-0.646,2.845-0.949l2.224-0.655
				c0.204-0.06,0.829,0.288,0.961,0.134c0.099-0.116,0.354-0.436,0.446-0.6l0.83-1.463l0.897-1.668l0.996-1.868
				c1.716-3.218-0.249-0.821,1.847-4.438c0.404-0.697,0.572-1.777,0.867-2.534l0.72-1.85l0.886-2.278l0.619-1.629l0.596-1.736
				c0.248-0.722,0.766-1.684,0.926-2.365l0.562-2.385l0.5-1.682l0.567-2.07l0.554-2.019c0.156-0.569,0.272-1.254,0.405-1.886
				l0.441-2.095l0.882-3.369l0.536-2.056c0.299-1.149,0.57-2.394,0.678-3.61l0.203-2.277c0.04-0.453,0.1-0.917,0.168-1.398
				l0.288-2.016l0.197-1.493c0.17-1.29,0.377-2.632,0.409-3.858l0.068-2.666l0.13-1.418l0.06-6.718l0.243-1.291l0.035-3.606
				l0.568-0.851l-0.164-1.462c-0.262-2.333,0.399-4.366,0.068-8.59l-0.203-2.597l-0.182-2.062c-0.047-0.53-0.062-1.409-0.165-1.836
				l-0.734-3.037c-0.66-2.734,0.216-0.919-0.366-2.197c-0.306-0.672-0.749-1.784-0.874-2.497l-0.519-2.947
				c-0.607-3.441-1.25-3.217-1.753-6.716l-0.228-1.589c-0.082-0.571-0.271-1.217-0.427-1.789l-0.602-2.219
				c-0.226-0.834-0.464-1.639-0.78-2.433c-0.184-0.463-0.15-1.559-0.327-2.082l-0.845-2.505l-1.142-3.392
				c-0.425-1.261-0.928-2.396-1.478-3.662l-0.33-1.639l-1.145-1.76c-0.728-1.119-1.378-2.224-2.027-3.389l-1.539-2.761
				c-0.422-0.757-0.739-1.484-1.062-2.367c-0.39-1.067-1.215-1.979-1.855-2.946l-1.252-1.891l-2.099-2.794
				c-1.16-1.544-1.344-2.617-2.605-3.892l-1.19-1.204c-2.029-2.052,0.728-0.437-3.54-4.364c-0.423-0.389-0.784-0.752-1.154-1.143
				l-2.236-2.367c-0.176-0.186-0.447-0.533-0.64-0.767l-2.856-3.458c-2.024-2.451-3.761-3.469-6.546-5.102
				c-3.643-2.136-0.748-0.453-3.34-2.657l-1.878-1.597c-0.766-0.652-2.603-1.667-3.648-2.003l-3.71-1.189l-1.899-0.669
				c-0.545-0.192-1.177-0.4-1.657-0.611l-1.611-0.707c-0.587-0.258-1.268-0.505-1.909-0.646l-6.071-1.339l-1.836-0.383
				c-3.367-0.701-1.931-0.096-5.198-1.167c-0.631-0.207-1.848-0.109-2.586-0.226l-1.777-0.281l-1.975-0.312
				c-3.769-0.595-2.961,0.447-6.756-0.88c-3.276-1.145-8.312-1.203-11.833-0.934l-2.592,0.198c-0.687,0.052-1.652,0.167-2.163,0.136
				l-2.107-0.129l-2.35-0.143l-1.668-0.101c-0.898-0.055-1.925-0.057-2.808,0.021l-2.301,0.204l-2.303,0.14l-1.424,0.087
				l-2.563,0.158c-0.811,0.05-1.714,0.232-2.566,0.218c-1.98-0.032-3.912-0.586-5.966-0.245l-2.863,0.474l-2.324,0.231l-3.147,0.296
				l-3.966,0.15c-0.624,0.024-1.346,0.163-1.98,0.261l-2,0.31l-1.968,0.305c-0.647,0.1-1.369,0.195-2.031,0.21l-2.3,0.052
				l-3.159,0.038c-1.478,0.018-2.263,0.211-3.521,0.583l-2.067,0.611l-2.039,0.526l-3.385,0.878l-1.979,0.59l-1.728,0.527
				l-1.657,0.445c-1.828,0.491-1.962,1.147-3.738,1.891c-1.438,0.603-2.812,1.031-4.267,1.487l-1.266,0.397
				c-0.569,0.178-1.221,0.468-1.755,0.756l-1.147,0.618l-1.646,0.945l-2.826,1.703c-1.545,0.931-1.902,0.962-3.322,1.807
				l-2.328,1.385c-1.504,0.895-2.982,1.7-4.358,2.792c-0.873,0.693-1.81,1.22-2.793,1.788c-2.387,1.378-5.113,3.34-6.94,5.333
				c-0.909,0.991-1.854,1.945-2.856,2.836c-1.879,1.673-1.398,1.483-3.404,3.471l-3.566,3.534c-0.558,2.161-2.385,3.314-3.428,4.801
				l-0.971,1.384l-1.084,1.522c-0.217,0.305-0.607,1.054-0.763,1.427l-1.274,3.041c-0.129,0.307-0.282,1.048-0.42,1.324
				l-0.961,1.924c-0.862,1.727-1.599,3.709-2.727,5.223c-1.053,1.413-2.205,2.616-2.932,4.225l-0.963,2.132l-1.025,2.456
				L65.31,93.48l-0.815,1.891c-0.29,0.672-0.449,1.42-0.741,2.148l-0.792,1.971c-0.254,0.631-0.611,1.425-0.782,1.986l-0.895,2.935
				l-1.032,3.597c-0.157,0.547-0.449,1.253-0.481,1.739l-0.149,2.219l-0.501,2.759l-0.156,2.393l-0.105,1.716
				c-0.026,0.421-0.399,1.275-0.463,1.688l-0.276,1.786c-0.745,4.827-1.208,2.398-1.684,5.845l-0.313,2.273
				c-0.313,2.267,0.081,3.281-0.214,4.847l-0.691,3.667c-1.045,5.548,0.17,3.531,0.052,5.216l-0.122,1.749
				c-0.265,3.788,0.485,2.769,0.058,4.888l-0.401,1.989c-0.268,1.328,1.256,0.894,1.459,3.936l0.155,2.316l0.2,3.121l0.216,2.873
				l0.886,0.848c0.14,1.301,0.573,2.877,1.744,3.572l1.413,0.838c0.402,0.046,1.459-0.286,1.801-0.039
				c3.087,2.234,0.072,2.777,4.235,4.408c1.672,0.655,1.921-3.687,4.456-2.209l1.293,0.754c0.856,0.499,1.891,0.609,2.976,0.796
				c1.459,0.252,1.385,1.225,4.247,0.901c0.633-0.253,1.872-0.647,2.559-0.423c0.419,0.137,1.147,1.01,1.142,1.424
				c-0.007,0.533-1.083,0.891-1.594,0.933l-2.69,0.222c-0.6,0.05-1.611-0.132-2.177-0.362c-4.305-1.754-2.42-0.112-4.749-0.939
				l-2.363-0.839c-1.031,1.362-2.42,2.871-4.065,1.82l-2.762-1.766c-1.037-0.663,0.906-1.867-3.766-3.058
				c-0.33-0.084-1.306-0.901-1.365-0.587c-0.138,1.049,0.042,2.618,0.191,3.616c0.523,3.51,0.855,2.618,1.355,6.077l0.296,2.045
				c0.071,0.493,0.296,1.037,0.407,1.595l0.465,2.353l0.881,2.646l0.85,2.191l1.093,3.559l0.239,1.484l1.147,2.683l0.487,1.57
				l0.838,2.69c0.989,3.175,3.198,4.664,3.237,7.065l1.092,1.405c1.026,1.321,1.811,2.645,2.415,4.162l1.306,3.279
				c0.291,0.732,0.72,1.485,1.291,2.111l1.738,1.907c0.877,0.962,1.344,2.234,2.295,3.154l2.503,2.42
				c0.471,0.456,1.043,1.305,1.473,1.876l1.116,1.484c0.472,0.628,0.899,1.132,1.431,1.709l2.206,2.394
				c2.58,2.8,2.089,3.99,5.649,6.334l1.737,1.144c0.519,0.342,1.058,1.09,1.537,1.517l1.711,1.528
				c0.415,0.371,1.451,0.722,1.991,1.067c2.851,1.818,2.96,2.43,5.268,3.365l2.041,0.827c0.311,0.126,0.888,0.53,1.176,0.678
				l2.144,1.102c0.873,0.449,1.729,0.766,2.651,1.083l4.89,1.68c0.628,0.216,1.321,0.402,1.983,0.578l1.784,0.475
				c3.339,0.888,2.78,0.289,4.524,0.83l3.949,1.226c0.84,0.261,1.876,0.416,2.778,0.637l2.027,0.498
				c2.683,0.659,2.646-0.008,6.339,1.108c0.906,0.274,2.044,0.622,2.993,0.684l2.967,0.195l2.519,0.349l1.324,0.194
				c0.71,0.104,1.472,0.166,2.011,0.191l-0.668-1.541c-1.148-0.719-2.125-1.471-3.108-2.347l-1.098-0.978
				c-1.795-1.599-2.399-0.064-3.586-2.382c-0.355-0.693-0.976-1.228-1.724-1.759c-0.048-0.475-0.123-1.241-0.125-1.776l-0.008-2.385
				c-1.134-0.388-1.639-0.63-2.527-1.104c-0.901-0.481-2.155-0.648-3.333-1.006c-0.67-0.203-0.987-1.446-1.367-1.98
				c-1.307-1.834-2.696-3.087-3.085-3.705c-0.699-1.111-1.416-1.955-2.608-2.644l-0.149-1.834c-0.372-4.567-2.029-5.485-2.089-6.451
				l-0.186-3.013c-0.135-2.186-1.237-1.023-1.136-3.943c0.126-3.65-1.171-1.73-2.178-4.681c-0.583-1.71-1.358,0.095-1.983-2.146
				l-1.065,1.308l-1.851,0.322l-0.461-1.519c-0.685-0.245-1.681-0.521-2.292-0.844l-1.879-0.992l-3.557,0.805
				c-0.854,0.193-1.715,0.395-2.562,0.527c-1.244,1.601-2.085,1.684-4.108,2.228c-1.719,0.462,0.007,2.056-3.168,2.032l-1.597,0.655
				c-0.391,0.16-1.346,0.192-1.753,0.048l-2.284-0.809c-1.063,0.292-2.431,0.811-3.338,0.372l-2.776-1.344
				c-0.57-0.276-1.453-1.212-1.808-1.742l-1.181-1.764c-1.419-2.12-2.427-2.43-2.492-4.323l-0.045-1.313
				c-0.026-0.768-0.401-1.989-0.36-2.744l0.196-3.555c0.133-2.409,1.188-0.008,0.519-2.423l-0.697-2.515
				c-0.105-0.378-0.265-0.894-0.325-1.24l-0.41-2.374c-0.064-0.371-0.141-1.236-0.113-1.624l0.162-2.296l0.142-2.016l0-0.802
				l0.178-2.005c0.012-0.132-0.305-0.54-0.438-0.508l-0.69,0.165c-0.394-1.635,1.301-1.309,1.14-4.239
				c-0.046-0.833-0.171-1.629-0.155-2.36l0.088-4.15c-0.005,0.243-1.186-3.312,0.005-2.909c1.125,0.38,2.079,1.916,1.977,3.058
				c-0.068,0.761-0.092,1.337-0.095,1.994l-0.006,1.568c-0.002,0.534-0.067,1.265-0.126,1.918L85.994,185.481z M65.211,301.203
				l1.03,1.761c0.25,0.428,0.482,1.424,0.706,1.863l1.841,3.597c0.456,0.891,0.844,2.056,1.379,2.852l1.716,2.552l1.914,3.511
				l1.485,2.85l0.844,1.633c0.755,1.461,1.179,1.026,2.51,4.11c1.396,3.233,2.78,4.694,4.576,7.686l1.93,3.216l1.049,1.778
				l1.88,3.268l3.604,6.364l0.914,1.637l0.942,1.69c0.309,0.554,0.595,1.133,0.833,1.715l0.606,1.479
				c0.204,0.497,0.652,1.323,0.965,1.787l1.88,2.783c0.22,0.325,0.662,0.785,1.036,1.222l1.362-0.546l2.459-1.024
				c0.748-0.311,1.477-0.885,2.234-1.432c2.188-1.58,0.942,0.653,4.241-2.305c2.505-2.246,3.382-0.656,7.093-2.948
				c1.573-0.972,3.406,0.209,4.213-0.317l2.201-1.434c0.156-0.102,0.719-0.213,0.916-0.238l1.642-0.209l-0.017-0.636l-1.98-1.099
				c-0.334-0.185-0.785-0.603-0.941-0.964c-1.262-2.928-1.709-0.597-2.663-3.073c-0.573-1.486-1.559-2.335-2.679-3.404
				c-0.585-0.559-1.161-1.761-1.731-2.447l-2.754-3.323l-1.463-2.134l-0.924-0.56l-2-2.847c-1.406-2.002-1.876-1.624-2.537-2.814
				c-0.387-0.696-0.682-1.283-1.101-1.797l-1.585-1.944c-0.565-0.693-0.947-1.679-1.369-2.634c-0.236-0.535-1.042-1.221-1.316-1.657
				c-0.436-0.692-0.786-1.363-1.313-1.926c-1.674-1.787-0.874-1.828-2.324-3.381l-1.819-1.948c-0.436-0.467-0.886-1.27-1.295-1.856
				c-0.206-0.295-0.858-0.826-1.035-1.182c-1.186-2.384-1.251-0.819-2.721-2.702c-0.61-0.781-1.171-1.55-1.581-2.401
				c-1.456-3.024-1.201-0.934-2.667-3.96c-0.248-0.513-0.585-1.263-0.868-1.641l-1.124-1.495l-1.133-1.443
				c-0.205-0.261-0.542-0.71-0.684-0.949l-1.178-1.985c-1.453-2.448-1.15-1.666-2.257-3.403c-1.384-2.172-0.732-0.789-2.051-2.841
				c-0.994-1.545-1.929-2.978-3.028-4.428l-0.991-1.307c-2.437-3.214-1.223-2.138-3.372-5.437l-1.138-1.747l-1.793-3.087
				l-1.181-1.977l-1.067-1.755c-0.426-0.701-0.85-1.446-1.198-2.179c-1.224-2.575-0.409-0.269-1.997-2.913l-1.395-2.323
				c-0.263-0.438-0.587-0.992-0.868-1.389l-1.67-2.358l-1.32-2.329l-0.96-1.403c-0.428-0.626-1.205-1.425-1.531-2.058l-0.984-1.914
				c-0.114-0.222-0.306-0.862-0.388-1.086c-0.793-0.559-1.197-1.253-1.566-2.176c-0.944-2.366-0.995-1.541-1.618-3.753
				c-0.62-0.641-1.371-1.468-1.659-2.337l-0.815-2.456c-0.18-0.541-0.941-1.4-1.394-1.899c-1.388-1.529-0.471-1.549-1.586-3.218
				l-1.549-2.317c-0.226-0.338-0.462-1.083-0.628-1.602l-0.712-0.652l-0.788-1.798c-0.197-0.45-0.429-0.897-0.646-1.329
				l-1.164-2.319l-0.995-1.851l-0.9-1.675l-1.483-2.498l-0.829-1.473l-1.574-2.967c-2.141-4.037-2.455-2.922-3.498-6.24
				c-0.237-0.753-1.237-0.788-2.425-2.647l-1.676-2.623c-0.159-0.248-0.415-0.938-0.538-1.21c-1.269-1.155-2.268-2.557-3.045-4.098
				l-1.166-1.355l-1.194-2.262c-0.286-0.543-0.885-1.431-1.2-1.863c-0.624-0.854,0.146-1.273-1.625-2.956l-2.415,1.38
				c-0.284,0.162-0.194,1.041-0.136,1.396c0.584,3.55,2.81,4.61,3.156,5.656l0.786,2.379l1.149,2.232l1.007,2.219
				c0.541,1.193,1.032,2.452,1.438,3.724c0.164,0.513,1.212,1.434,2.153,2.887l0.906,1.4l0.936,1.375
				c1.092,1.604,0.71,1.39,1.935,3.193c0.662,0.974,1.356,1.787,2.145,2.749c0.308,0.376,0.676,1.104,0.971,1.569l0.899,1.421
				c1.449,2.291,1.263,2.507,2.857,5.121l2.387,3.915c1.439,2.36,1.407,0.869,2.301,2.738l0.763,1.594
				c0.46,0.961,1.025,1.854,1.362,2.922l1.215,3.851c0.095,0.302,0.675,0.944,0.902,1.197l1.45,1.618l1.617,1.857
				c0.344,0.395,0.77,0.988,1.071,1.438l1.737,2.6c0.3,0.449,0.641,1.132,0.862,1.658l0.739,1.764l-0.736,0.144
				c-0.164,0.032-0.255-0.349-0.43-0.652c-0.282-0.487-0.765-0.85-1.249-1.31c-0.594-0.565-1.175-1.506-1.733-2.223
				c-1.977-2.539,0.057-0.548-1.95-2.911c-0.502-0.591-1.111-1.542-1.644-2.006c-3.203-2.791-1.926-3.308-2.816-5.078l-0.815-1.622
				c-2.882-5.733-2.364-3.585-3.541-5.557l-1.845-3.092c-0.318-0.533-1.176-1.452-1.28-2.022l-0.356-1.958l-0.843-0.347
				l-1.017-1.772c-0.796-0.662-1.011-1.515-1.125-2.352l-0.845-1.22c-0.499-0.721-1.149-1.493-1.767-2.164
				c-0.942-1.023-1.417-2.164-2.188-3.343l-0.869-1.329c-2.892-4.42-2.799-2.048-4.037-6.592c0.253,0.93-1.92-4.681-1.404-3.697
				l-1.865-3.558c-0.823-1.57-0.141-2.263-2.072-3.279c-0.375-0.198-0.662-1.089-0.884-1.436c-1.381-2.163-1.183-0.966-1.318-3.428
				l-0.981-0.682c-2.086,2.37-1.968,0.916-4.361,3.084l-0.939,0.851c0.462,0.581,1.063,1.307,1.297,1.87l0.963,2.317
				c0.182,0.438,0.644,1.423,0.996,1.834l2.475,2.892c1.808,2.113,1.088,2.376,1.975,3.652l0.861,1.24
				c2.01,2.894,2.058,3.741,4.615,7.082c1.826,2.385,0.43,2.063,2.937,5.861l0.94,1.424c0.225,0.342,0.551,1.041,0.737,1.523
				l1.359,3.516l0.707,1.909c0.26,0.703,0.856,1.613,1.291,2.301l0.899,1.422c1.51,2.386,1.323,3.087,2.787,5.735l1.127,2.038
				l1.174,1.965c0.402,0.672,1.459,3.655,2.547,5.725c0.216,0.411,0.51,1.204,0.736,1.516l0.923,1.276l1.036-0.232
				c0.211-0.047,0.563,0.462,0.702,0.638l-0.675,1.214l0.379,1.056c0.249,0.695,0.61,1.896,1.164,2.108l1.27,0.486
				c0.739,0.283-0.244,1.687-0.388,2.301c-0.063,0.269,0.509,0.658,0.713,0.946c0.346,0.489,2.284,3.946,2.394,4.188l1.141,2.52
				l2.203,3.523l1.422,2.274l1.746,3.147c1.41,2.542,0.301,2.368,1.479,3.591c2.183,2.268,0.119,1.014,2.387,3.337
				c0.65,2.163,1.557,3.116,2.316,4.746c0.386,0.829,0.704,1.595,1.186,2.318l0.935,1.4l1.388,2.022
				c0.188,0.274,0.76,0.805,0.913,1.095l1.581,3.001c0.254,0.482,0.688,1.128,0.878,1.571l0.709,1.653
				c0.135,0.314,0.645,0.89,0.816,1.181L65.211,301.203z M224.498,258.161l2.383-0.989l1.879-0.761
				c2.001-0.81,2.019-1.462,3.8-2.093c0.264,0.066,1.052,0.275,1.05,0.274c0.853-0.723,1.475-1.032,2.387-1.464l2.683-1.271
				l1.527-0.727l2.887-1.443c0.406-0.203,0.936-0.606,1.325-0.871l1.732-1.179l2.359-1.671c1.901-1.347,2.669-2.153,3.689-2.857
				l3.354-2.315l1.626-1.286c0.567-0.449,1.13-0.951,1.69-1.448l0.985-0.415l1.516-1.142c0.518-0.39,1.181-1.148,1.695-1.696
				l0.672-0.009c0.388-0.57,0.669-0.97,1.026-1.348l0.725-0.769l1.376-1.458l2.846-2.877c0.649-0.655,1.259-1.397,1.877-2.114
				l1.72-1.994l1.183-1.389l1.273-1.578c0.288-0.357,0.577-0.784,0.814-1.148l1.02-1.565l1.002-1.564
				c0.485-0.757,0.939-1.528,1.498-2.216c1.946-2.393,0.476-1.2,2.276-3.211l0.499-1.452l-2.144,0.076
				c-1.658,1.822-3.653,1.463-4.903,2.652l-2.913,2.769c-0.432,0.41-1.604,0.933-2.19,1.126l-3.937,1.297
				c-1.375,0.453-1.809-1.334-3.409-0.075l-1.305,1.028c-1.626,1.28-3.195,2.468-4.511,4.063c-1.371,1.662-2.402,1.263-5.516,1.549
				l-1.864,0.171l-3.418,3.166c-1.013,0.939-2.009,0.885-3.135,0.369l-2.456-1.125c-0.4-0.183-1.199-0.05-1.811-0.098l-2.196-0.172
				c-0.392,0.081-1.32,0.45-1.691,0.668c-2.947,4.215-1.978,5.182-5.737,9.869c-1.783,2.223-3.045,1.611-5.639,2.174
				c-2.55,0.554-3.393,2.885-3.679,3.134c-0.992,0.868-1.566,2.19-1.611,3.584c-0.087,2.68,3.149,4.462,1.911,6.974
				c-1.059,2.148-0.791,2.333-1.392,3.153l-1.951,2.66l-1.432,1.45c1.232-0.207,2.32-0.51,3.401-0.888
				c0.327-0.115,1.245-0.111,1.584-0.234L224.498,258.161z M24.172,253.429c0.753-0.274,1.416-0.436,1.923-0.657l3.407-1.491
				l3.563-1.532l1.627-0.678l-1.104-1.499c-0.349-0.474-0.742-0.996-0.989-1.518l-0.853-1.81c-0.229-0.485-0.471-0.981-0.685-1.508
				c-1.555-3.834-0.531-0.595-2.191-4.131l-1.556,1.694l-0.719,1.228l-1.445,1.482c-0.66,0.678-1.295,1.34-1.868,2.095l-0.993,1.309
				l-1.276,1.606c-1.848,2.326,0.079,1.122-2.134,2.803c-0.106,1.255,0.603,1.012,1.67,2.981c0.112,0.207,0.659,0.703,0.883,0.621
				L24.172,253.429z M245.839,253.446c0.473,0.422,0.915,0.846,1.401,1.177l1.374,0.935c1.134,0.772,2.177,1.586,3.257,2.45
				c2.546,2.037,2.861-0.129,3.788,2.033c0.021,0.056,0.57-0.089,0.705-0.213c2.134-1.952-0.028,0.463,2.133-1.613
				c2.775-2.667,2.567-1.137,5.736-3.349c0.68-0.475,1.298-0.991,1.853-1.47c-4.016-2.732-1.405-1.644-3.391-3.633
				c-1.886-1.888-0.484-1.23-2.727-4.175c-2.025-2.659-0.217-1.173-2.713-3.584l-1.47,1.267l-0.974,0.84l1.546,1.62
				c0.155,0.163,0.418,0.832,0.55,1.01c2.884,2.846,1.026,5.012,4.743,5.797c0.45,0.095,1.136,1.126,1.236,1.571
				c-0.277,0.874-1.413,0.886-2.143,0.441c-1.692-1.033-0.853-0.207-2.952-1.329c-1.469-2.209-0.804-3.467-3.247-5.09l-0.307-1.093
				l-1.512-1.549l-2.011,1.305c-0.545,0.354-1.077,0.777-1.613,1.19l-1.477,1.138c-1.024,0.789-2.085,1.541-3.213,2.191
				l-0.669,0.386C243.337,251.931,244.687,252.416,245.839,253.446z M28.673,255.383l2.335-0.671l1.49-0.446l1.266-0.429
				c0.675-0.229,1.334-0.505,1.973-0.688l0.716-0.205c0.138-0.04,0.046-0.623-0.027-0.755l-0.711-1.285
				c-0.544-0.984-1.925-0.564-2.546,0.055l-0.932,0.928c-0.479,0.476-2.87,1.288-3.847,1.763l-4.051,1.966
				c-1.966,0.954-0.523-0.036-2.106,0.898c-0.135,0.08,0.29,0.565,0.422,0.706l0.846-0.501
				C26.331,255.042,26.012,256.147,28.673,255.383z M276.335,277.204l1.778-1.584c0.548-0.488,1.031-0.928,1.599-1.242l2.093-1.159
				l-0.973-1.603c-0.82-0.565-1.125-1.125-1.608-1.919l-1.928-3.168l-1.55-1.043c-0.825,0.802-1.704,1.615-2.658,2.202l-2.843,1.75
				l-2.601,1.652c2.499,1.895,1.06,0.429,3.688,2.569l3.771,3.07C275.333,276.914,276.11,277.404,276.335,277.204z M169.55,370.037
				l2.322,0.168l3.625,0.164l1.262,0.289l1.426,0.138c0.595,0.058,1.424,0.203,1.911,0.18l2.303-0.106
				c0.814-0.037,1.563,0.068,2.305,0.116l2.288,0.148c0.897,0.058,2.602,0.053,2.725,1.046c0.012-0.033,0.693-0.455,0.956-0.463
				l1.651-0.047c0.799-0.023,1.542-0.058,2.367-0.16l2.293-0.282c3.522,0.685,1.068,0.487,3.742,0.31l2.782-0.183l2.595-0.27
				c3.138-0.326,7.122-1.632,10.564-0.762c1.711,0.432,0.595-0.111,3.476-0.235c0.801-0.035,1.674-0.067,2.485-0.155l2.866-0.31
				c4.178-0.452,1.659,0.209,5.382-0.272c1.801-0.233,2.461-0.004,3.716-0.238l4.105-0.765c2.034-0.379,1.507-0.831,3.297-0.845
				l1.787-0.014c1.45-0.011,2.828-0.041,4.284,0.019c0.704,0.029,1.185-0.006,1.893-0.142c0.831-0.16,1.765-0.191,2.645-0.297
				l2.026-0.242l1.845-0.18l2.418-0.39l2.241-0.354l1.779-0.269l1.892-0.223c2.877-0.339,2.548-0.605,4.348-0.783l2.632-0.261
				c4.034-0.401,3.16,0.458,6.546,0.05c3.952-0.477,2.662-0.771,5.983-1.072c2-0.181,5.368,0.597,6.838-0.295
				c-1.7-0.362-3.06-1.657-4.383-2.009l-2.525-0.671c-0.402-0.107-1.019-1.019-1.416-1.093c-0.533-0.099-1.455-0.114-1.853-0.231
				l-1.75-0.518c-3.946-1.169-2.398-1.143-4.534-1.757l-2.233-0.641c-2.897-0.832-3.322-0.603-5.606-1.443l-1.477-0.543
				c-3.911,0.767-5.056-0.851-7.296-0.928l-3.721-0.129l-2.296-0.266l-2.516-0.301l-1.258-0.439
				c-1.049-0.366-3.279,0.211-4.375-0.354l-1.418-0.73l-0.935,0.064l-1.759-0.221l-2.57-0.323l-1.986-0.27l-1.964-0.289
				l-2.042-0.302l-2.777-0.411c-0.843,0.142-1.446,0.206-2.089-0.313l-1.374,0.196c-1.107-0.202-1.93-0.16-2.976-0.09l-3.87,0.258
				c-0.919,0.061-1.846,0.178-2.741,0.071l-2.795-0.333c-0.541-0.064-1.618,0.108-2.181,0.193l-3.229,0.488
				c-3.367,0.509,0.929,0.511-3.88,0.549c-0.91,0.007-1.808,0.007-2.701-0.109l-4.353-0.561c-0.385-0.05-1.165-0.163-1.471-0.031
				c-1.535,0.665-3.278,1.27-4.889,0.95c-3.229-0.641-1.567,0.749-4.054-0.271c-0.79-0.324-1.621,0.013-2.374,0.07l-2.559,0.192
				l-1.941,0.248c-0.29,0.037-1.638-0.482-4.578-0.378l-2.638,0.094l-1.373-0.001l-2.552,0.108c-0.976,0.041-1.92,0.107-2.854,0.239
				l-2.03,0.286c-0.617,0.087-1.668,0.267-2.208,0.232l-2.358-0.152c-2.845-0.184-0.747-0.599-3.397-0.402
				c-4.11,0.306-2.694-0.448-6.562-0.149c-2.361,0.182-1.793,0.831-4.745,1.001c-1.037,0.06-2.039-0.541-3.097-0.861
				c-0.891-0.269-2.521-0.48-3.367-0.3l-2.455,0.523c-2.781,0.593-0.99-0.922-7.53,1.227c-4.553,1.496-3.537-0.371-5.21,0.74
				c-2.16,1.435-2.704,0.869-3.597,0.943c-3.04,0.252-3.434,1.858-4.786,2.044l-2.085,0.287c-2.193,0.301-1.117,0.485-3.817,2.252
				c-0.499,0.327-1.099,0.573-1.752,0.852l-1.657,1.447c-0.388,0.339-1.528,0.4-1.97,0.643l-1.238,0.678l-1.079,0.574
				c-4.592,2.442-0.42,0.992-6.607,3.955c-0.501,0.24-1.134,0.531-1.456,0.8l-1.766,1.473l-2.326,1.069l-1.552,1.411l0.4,0.61
				l1.092-1.025c0.875,1.073,4.333,0.17,5.37,0.557l1.293,0.483c0.454,0.17,2.871,0.067,4.036,0.181l2.609,0.256l1.257-0.034
				c3.237,0.547,0.317-0.639,3.754,0.248c0.763,0.197,1.565,0.133,2.393,0.028c1.037-0.131,2.289-0.062,3.282-0.244l3.177-0.581
				c0.667-0.122,1.61,0.025,2.286-0.004c6.863-0.299,1.158,0.218,7.035-0.92c0.657-0.127,1.18-0.193,1.823-0.162l2.908,0.138
				c0.57,0.027,1.695,0.43,2.227,0.378l2.294-0.225l2.597-0.266c0.634-0.065,1.655-0.395,2.175-0.374
				c0.904,0.038,2.287,0.109,3.213,0.002l1.729-0.2c0.708-0.082,1.595-0.289,2.209-0.288c0.851,0.002,1.536,0.035,2.281-0.287
				c0.796-0.345,1.794-0.623,2.615-0.55l2.634,0.233c4.163,0.368,2.053,0.655,5.687,0.593c0.603-0.01,1.34,0.021,1.935-0.032
				l3.187-0.285C168.322,369.219,165.184,369.72,169.55,370.037z M90.74,373.538l-0.926,0.474c-0.128,0.066,0.012,0.401,0.013,0.692
				l0.014,2.578l0.185,2.702c0.072,1.057,0.337,2.376,0.505,3.374c0.612-0.217,1.297-0.367,1.912-0.309l2.031,0.191l2.332,0.225
				c3.608,0.348,4.384-1.142,7.999,0.213c2.152,0.807,4.15,0.793,6.381,0.18c2.957-0.814,5.033-0.169,6.926-0.537l2.859-0.556
				c3.253-0.632,3.839,0.14,4.63,0.251l2.61,0.365c2.895,0.405,2.249-0.131,5.943-0.269l2.593-0.097
				c0.934-0.035,2.044,0.194,3.003,0.011c2.583-0.493,3.22,0.443,4.558,0.231l2.973-0.47c0.383-0.06,1.072-0.077,1.355-0.159
				c1.271-0.37,2.7-0.723,4.052-0.649l2.023,0.109l1.732,0.049c1.571,0.045,2.953,0.372,3.63,0.347l2.047-0.077l1.399-0.302
				l2.657-0.131c0.885-0.044,2.217-0.524,3.027-0.462l2.296,0.177l1.496,0.113l1.692,0.156l2.609,0.251
				c1.457,0.14,3.037,0.08,4.52,0.018l1.797-0.076l1.96-0.05c1.555-0.039,2.707,0.222,4.748,0.236
				c3.533,0.023,2.46,0.335,5.434,0.163l1.328-0.077l1.252-0.072c0.848-0.048,1.725,0.032,2.625,0.139l1.155-0.131l2.07-0.234
				c0.35-0.04,0.911-0.054,1.34-0.069l3.723-0.129l2.259-0.222l2.02-0.064c0.844-0.027,1.761,0.045,2.592-0.095l1.368-0.229
				c0.581-0.097,1.203-0.111,1.771,0.088c0.798,0.279,1.521,0.168,2.302,0.204l2.548,0.116c0.651,0.03,1.315,0.134,2.03,0.213
				l1.325-0.073c0.498-0.002,1.044,0.004,1.499-0.056l2.293-0.303c0.705-0.093,1.559-0.151,2.248-0.178l1.788-0.07l1.912-0.072
				c4.503-0.169,5.944,0.238,9.449,0.173c0.464-0.009,1.323,0.063,1.727-0.018l1.853-0.373c0.387-0.078,1.114,0.006,1.69,0.015
				c0.668,0.011,1.632-0.264,2.447-0.357c3.4-0.386,2.485,0.503,5.162,0.094l3.342-0.511c0.811-0.124,2.023-0.013,2.709-0.159
				l1.55-0.332l1.874-0.199c1.258-0.134,2.632-0.306,3.478,0.352c0.187-0.096,0.772-0.381,1.015-0.398l2.711-0.189
				c0.858-0.06,1.854-0.401,2.729-0.568l2.914-0.557c1.108-0.212,2.231-0.498,3.326-0.646l2.292-0.31l1.762-0.242l2.477-0.402
				l2.049-0.379l-0.731-0.294c0.601-4.119-0.506-2.499-0.255-5.645c0.111-1.391,0.616-4.73-0.951-4.563l-1.745,0.185
				c-2.502,0.265-3.075,0.91-5.143-0.11c0.044-0.058-0.261,0.344-0.342,0.451l-0.163,2.015l1.256,3.554l-0.731,0.662
				c-1.161-0.246-1.919-0.706-2.255-1.679c-1.584-4.583,0.428-4.809-0.876-4.581l-3.177,0.555c-3.077,0.538-1.082-0.571-3.239,0.178
				c-0.241,0.084-0.738,0.066-1.137,0.041c-6.043-0.378-4.97,0.497-8.094,0.609c-0.539,0.019-1.12,0.006-1.589,0.071l-2.275,0.314
				l-2.263,0.359c-0.791,0.125-3.301,0.5-3.953,0.531l-2.288,0.106c-0.492,0.023-0.911,0.081-1.373,0.313
				c-1.449,0.725-3.108,0.413-4.668,0.403l-3.146-0.019l-1.981,0.185c-0.675,0.063-1.315,0.022-1.941,0.22
				c-1.224,0.386-5.809,1.265-6.883,1.334l-3.416,0.217l-1.458,0.069l-4.023,0.135c-0.724,0.024-1.778,0.312-2.555,0.433
				l-2.328,0.362c-1.737,0.27-0.267-0.096-3.425-0.188c-1.034-0.03-2.115-0.135-3.137,0.08l-1.638,0.345
				c-0.23,0.048-0.967-0.219-1.195-0.185l-2.489,0.375l-1.374,0.203l-1.549,0.244c-0.972,0.153-2.157,0.448-3.008,0.424
				l-1.544-0.042c-3.516-0.096-0.668,0.477-4.135-0.327c-0.719-0.167-1.57,0.02-2.253,0.376l-1.276-0.139
				c-3.224,0.821-2.8-0.46-5.17-0.133l-1.394-0.431c-1.118,0.189-2.134,0.213-3.195,0.18l-2.319-0.073l-1.041,0.001l-2.068-0.109
				c-1.203-0.064-2.354-0.277-3.249-0.821c-1.052,1.117-3.666-0.305-6.794-0.434c-0.773-0.032-1.439-0.035-2.225-0.215
				c-2.145-0.491-3.167,0.356-3.691,0.371c-0.568,0.015-1.551-0.001-2.166,0.054c-1.267,0.112-3.175,0.063-4.418-0.06
				c-3.886-0.383-2.549-0.927-6.266-0.444c-2.575,0.335-3.295,0.924-5.118,1.034l-2.1,0.126c-2.787,0.168-1.219-0.299-4.513-0.375
				c-1.7-0.039-1.726,0.967-6.056,0.966c-0.747,0-1.928,0.042-2.653-0.049c-0.381-0.048-1.3-0.686-1.69-0.653
				c-0.74,0.062-2.193,0.423-3.022,0.628l-2.113,0.522c-3.458,0.853-2.315,0.178-4.044,0.289l-2.388,0.154
				c-2.559,0.165-4.29,0.691-4.792,0.679c-1.095-0.027-1.924-0.05-2.974,0.092c-2.956,0.398-2.549-0.626-6.135-0.03l-1.969-0.678
				c-1.391,0.671-2.42-0.55-2.409,0.553l0.028,2.777c0.005,0.529,1.62,1.408,1.118,1.831l-0.594,0.5
				c-0.308,0.259-1.313,0.841-1.523,0.505l-1.006-1.611c0.192-0.896,0.243-1.602,0.125-2.363l-0.253-1.636
				c-0.058-0.372-1.045-0.626-1.467-0.725L90.74,373.538z M298.18,373.38l-0.117-1.307l-0.159-1.501
				c-0.158-1.486,0.443-3.183-0.582-4.089c-1.226-1.084-1.884-0.372-2.325-0.638l-0.06,2.177l-0.052,4.585
				c-0.006,0.553,0.574,1.7,0.71,2.068l-0.478,0.691l2.285-0.114l1.048-0.052C298.312,374.53,298.24,374.048,298.18,373.38z
				 M87.999,380.349c-0.511-2.549,0.177-1.942-0.541-3.349l0.073-1.172l-1.023-1.995l-0.748,0.018
				c-0.22,1.092-0.482,2.202-0.529,3.163l-0.079,1.616l-0.109,3.862l1.795,0.773c0.353,0.152,1.307-0.249,1.662-0.423
				L87.999,380.349z"/>
			<path d="M153.484,201.881l-0.339,1.449c-0.23,0.981-0.445,1.772-0.795,2.734l-0.948-0.656c-0.102-2.62,0.702-0.159,0.611-3.167
				c-0.025-0.833,0.276-1.984,0.361-2.943c0.093-1.057,0.195-2.053,0.427-3.027l0.677-2.844c0.08-0.336,0.468-0.816,0.85-1.196
				l0.198-2.046c0.037-0.383,0.591-1.185,0.611-1.562l0.09-1.645c0.115-2.093,1.142-3.311,0.193-3.745
				c-0.971-0.444-2.492-1.15-3.598-0.917l-2.471,0.52c-0.967,0.203-1.924,0.104-2.925-0.027l-2.014-0.263
				c-0.489-0.064-1.486,0.654-2.027,0.689c-1.509,0.096-3.431-0.722-4.513-1.553c-0.228-0.175-0.645-0.955-0.896-0.946
				c-4.218,0.147-3.283-1.548-4.438-2.311c-1.501-0.992-2.568-1.931-3.777-3.178c-0.464-0.479-1.408-1.058-1.786-1.53l-0.82-1.024
				c-0.484-0.605-0.867-1.344-1.314-2.235l-3.166-0.01c-1.315,0.858-2.289,0.922-3.645,0.036l-3.318-0.07
				c-1.414-0.03-0.582-2.36-3.464-1.462c-0.489,0.152-1.099,0.104-1.626,0.101l-7.136-0.044c-0.564-0.003-1.431-0.743-1.847-0.994
				l-2.195,0.135c-0.505,0.031-1.097,0.214-1.575,0.376l-1.798,0.613l-2.245,0.894c-0.198,0.079-0.893-0.093-1.116-0.047
				l-1.93,0.395c-2.252,0.461-2.405-0.178-3.274-0.823c-0.984-0.73-2.498,0.035-3.752-0.024c-0.823-0.038-2.09-0.93-2.771-1.294
				c-0.199,0.007-0.968,0.253-1.153,0.137l-2.221-1.396c-0.144-0.091-0.239-0.711-0.406-0.744c-1.404-0.277-2.826,0.674-4.184,0.993
				c-1.065,0.25-0.569-1.645-3.238-1.102c-1.986,0.404-1.333-0.88-2.937-2.491c-0.397-0.398-0.696-1.087-0.992-1.602
				c-0.479-0.833-1.42-1.358-0.701-2.629c0.427-0.754,0.167-1.704-0.525-2.469l0.767-2.016l-0.101-1.015l0.669-3.055
				c0.11-0.502,0.435-1.297,0.463-1.744l0.094-1.536c0.024-0.388,0.334-1.159,0.493-1.594l0.028-0.836l0.923-1.398
				c0.548-0.829,1.196-1.73,1.61-2.617c0.129-0.277,0.262-1.033,0.503-1.214l2.31-1.736c2.945-2.213,1.863,1.083,4.807-0.848
				l1.764-1.158c0.696-0.457,1.343-0.738,2.193-0.982l1.564-0.449c0.898-0.058,2.064,0.945,2.782,1.389
				c0.431-0.048,1.343-0.229,1.723-0.146c1.559,0.342-0.253,1.754,3.664,2.266c0.236,0.031,0.882,0.101,1.082,0.023l3.007-1.179
				c0.353-0.138,0.864-0.536,1.121-0.782l-1.496-1.838c-0.797-0.979-1.37-2.73-2.709-3.231c-1.083-0.405-2.836-0.743-2.509-2.58
				c0.155-0.874,0.553-2.163,0.852-3.191l0.92-3.158c0.228-0.784,0.306-1.316,0.098-2.262l0.974-2.567
				c0.492-1.296,1.347-0.73,1.947-1.982l1.588-3.31l1.481-3.086c1.626-3.388,3.118-2.954,6.124-3.376
				c0.882-0.124,2.028-0.597,2.793-0.257c1.042,0.465,2.226,0.935,3.263-0.112l2.041-2.06c0.693-0.699,0.955-1.648,1.108-2.582
				l0.451-2.739c0.116-0.706,0.706-1.586,1.21-2.157l0.111-1.345l1.529-2.185c0.336-0.48,0.533-1.028,0.323-1.591l-0.969-2.605
				c-0.234-0.629-1.514-1.127-2.066-1.532c-0.876-0.643-0.319-1.895-0.454-2.678l-0.529-3.086c-0.319-1.863,1.532-1.359-1.225-5.794
				c-0.534-0.859-2.44-1.31-3.184-1.205l-2.179,0.309c-0.715-0.127-1.965-0.842-2.626-0.732l-2.307,0.385
				c-0.635,0.106-1.266,0.051-2.037-0.06l-1.722,0.778c-0.95,0.43-1.826,0.966-2.711,1.58c-2.216,1.536-1.11,1.634-4.85,3.711
				c-2.739,1.52-0.585,1.013-4.307,2.914c-0.384,0.196-1.105,0.291-1.443,0.168c-0.878-0.319-1.215-2.331-1.215-2.638l0.009-4.547
				l0.861-1.911l1.298-3.332c0.139-0.357,0.369-0.825,0.552-1.16l0.811-1.482c0.291-0.532,0.576-1.168,0.891-1.661l1.119-1.758
				c1.79-2.813,2.316-1.789,2.144-3.742c-0.316-0.086-1.083-0.106-1.203-0.322l-0.767-1.386l0.919-0.892
				c0.904,0.054,2.12,0.854,2.675,1.44l1.659,1.751c0.213,0.225,0.155,1.173,0.051,1.41l-1.261,0.275
				c-0.761,0.74-1.72,1.617-2.292,2.463l-1.287,1.904l-1.876,2.947c-0.214,0.336-0.383,1.178-0.539,1.525
				c-2.387,5.299-0.311,3.243-1.026,5.149l-0.552,1.471l0.525,1.933l2.277-1.369c3.234-1.945,1.163,0.002,3.003-1.876
				c0.361-0.368,0.913-0.809,1.377-1.166l1.635-1.26c0.532-0.41,1.284-1.742,1.926-1.912c2.193-0.582,1.886-0.003,3.637-1.296
				c2.102,0.556,2.784,0.009,5.389-0.221c0.46-0.041,1.49,0.476,1.954,0.483l2.584,0.036c1.31,0.018,2.43,0.511,3.431,1.417
				l0.893,0.808l0.745,1.89c0.534,1.354,1.683,1.418,0.577,3.988c-0.365,0.847-0.175,1.744,0.406,2.424
				c0.756,0.885-0.7,1.976,0.366,2.94c2.169,1.961,1.958,1.378,2.977,4.062c0.489,1.29,1.437,1.367-0.46,4.099
				c-2.507,2.093-1.012,0.896-1.885,3.301c-1.072,2.955-1.061,5.924-2.077,7.007l-1.693,1.803l-1.155,1.181
				c-0.48,0.491-1.269,0.915-1.998,1.126c-2.592,0.749-0.939-1.196-8.424,0.578c-0.864,0.205-0.222,0.315-1.563,2.254
				c-0.789,1.141-1.342,2.478-1.927,3.795c-0.854,1.922,0.471,1.728-0.621,2.444c-0.76,0.499-2.038,1.284-2.199,1.994l-0.598,2.635
				c-0.221,0.975-0.379,2.116-0.755,2.987c-0.208,0.482-0.491,1.004-0.561,1.408l-0.506,2.93c1.76,0.427,2.601,2.201,3.186,2.67
				c1.586,1.27,2.818,2.622,3.625,4.468c0.199,0.454,0.458,1.701-0.037,1.884c-1.108,0.409-2.145,0.756-3.244,1.095
				c-3.827,1.178-1.947,1.805-4.491,1.414l-1.615-0.248c-0.392-0.06-1.296-0.418-1.62-0.634l-1.797-1.2l-0.958,0.242l-1.846-1.385
				c-2.844,0.305-2.812,0.757-4.967,2.204c-1.866,1.253-3.804-0.373-5.724,1.992c-0.235,0.289-1.112,0.685-1.298,0.993
				c-0.471,0.781-1.088,2.192-0.211,2.875c-0.116,0.243-0.425,0.963-0.624,1.251l-1.566,2.261l0.253,0.923
				c-0.902,1.399-0.952,2.676-0.973,4.308c-0.037,2.806-0.211,0.219-0.433,2.825l-0.249,2.916l1.597,2.379
				c0.285,0.425,1.051,1.361,1.52,1.57l2.225,0.996c1.276,0.571,0.262-0.243,3.388-0.406c3.446-0.18,2.123,2.86,4.819,2.43
				c0.539-0.435,1.641-1.231,2.135-0.484c0.355,0.537,1.007,1.558,1.611,1.438l1.273-0.252c0.743,0.147,1.839,0.72,2.56,0.771
				c1.759,0.124,4.691,0.309,6.12-0.369l1.949-0.925c3.767-1.787,1.877-0.31,4.416-0.961c2.483-0.637,2.478,0.669,3.152,0.959
				c0.595,0.256,1.625,0.582,2.337,0.5l1.654-0.19l1.829,0.076c2.003,0.083,2.47-0.327,3.96-0.873
				c0.492-0.18,1.58,0.611,1.879,1.085c1.424,2.255,2.384-0.237,5.009,1.328l2.863-0.496c0.732-0.127,2.204-0.073,3.079-0.003
				c0.457,0.037,1.116,1.017,1.33,1.458c2.44,5.032,2.055,1.664,5.17,6.014l2.238,1.131c1.312,0.663-0.009,1.582,1.249,2.082
				l1.798,0.715c0.321,0.128,1.163,0.195,1.4,0.479c2.171,2.594,4.698,0.121,6.49,0.388l2.799,0.416
				c0.503,0.075,1.307-0.044,1.688-0.126l2.045-0.439c1.839-0.395,5.202,0.663,5.857,1.399c1.343,1.51,0.44,2.355,0.334,2.836
				l-0.563,2.56c-0.355,1.615-0.67,3.24-1.32,4.724c-0.931,2.125-0.09,1.03-0.969,3.58l-0.596,1.731l-0.961,2.789
				C153.402,200.523,153.335,201.041,153.484,201.881z"/>
			<path d="M268.475,163.409c-0.179,0.805-0.105,1.711,0.046,2.519l-0.67,1.61c0.656,1.398-0.943,3.114-1.088,4.324
				c-0.179,1.498-0.701,2.698-1.92,3.389c-0.331,0.498-0.496,1.658-0.579,2.274l-0.28,2.081c-0.106,0.791-1.099,1.689-1.466,2.383
				l-1.526,2.881l-1.192-0.567c-0.27-0.129,0.24-0.912,0.328-1.196l0.341-1.093l0.821-2.12c0.401-1.036,0.576-2.187,0.379-3.262
				l0.894-1.387l1.301-2.104c0.216-0.35,0.465-1.218,0.624-1.658l0.849-2.354c-1.137-1.704,0.206-0.488,0.368-3.586l0.103-1.957
				c0.192-3.659,0.352-1.42,0.604-5.137l0.215-3.184l0.342-1.785l0.053-2.165l0.039-1.537l0.006-1.921
				c0.002-0.577,0.442-1.635,0.709-2.205l0.935-1.996c0.325-0.694,0.619-1.505,0.815-2.258l0.73-2.81
				c0.134-0.515,0.541-1.224,0.666-1.785c0.27-1.208,0.529-2.324,0.907-3.412l0.658-1.893l0.845-2.308l-0.293-0.534
				c0.365-0.645,0.605-1.119,0.892-1.758l0.673-1.499c-0.286-1.139-0.277-2.156-0.112-3.273l0.317-2.144
				c-0.038,0.256-0.299-2.971-0.57-3.019l-1.923,0.966l-0.792-0.549c-1.661,0.838-3.062,2.116-4.602,0.854
				c-0.804-0.659-1.23-1.204-1.759-2.078c-0.305-0.504-1.26-1.286-1.444-1.815l-0.965-2.771c-0.126-0.361-0.781-0.918-1.106-0.977
				l-2.738-0.497c-0.816-0.148-2.037-0.938-2.518-1.563c-0.393-0.51-0.539-0.639-0.913-0.913c-0.738-0.543-1.612-1.338-2.132-2.092
				c-1.884-2.733-0.94-2.091-1.504-3.417c-0.216-0.508-1.024-1.558-0.832-2.05l0.986-2.523c0.217-0.554,1.152-0.761,1.772-0.764
				c2.188-0.011,2.078-1.631,4.839,0.569c0.822,0.655,1.377,1.244,1.848,2.239l1.474,1.018c0.733,0.506,1.392,1.049,2.069,1.671
				l2.071,1.903l1.352,1.261c0.345,0.322,0.985,0.927,1.336,1.116c0.643,0.333,1.292,0.681,1.75,1.137l1.384,1.377
				c2.128-4.099,1.26-3.018,4.703-4.882c1.954-1.058,1.763-0.344,4.484-2.08c0.291-0.186-0.172-1.156-0.319-1.471
				c-0.209-0.449-0.127-1.741-0.497-2.089l-1.764-1.658c-0.589-0.554-1.243-1.347-1.641-1.999l-0.836-1.371
				c-0.857,0.338-1.956-0.892-2.263-1.517c-0.174-0.356,0.071-1.463,0.434-1.674c3.649-2.126,3.115-1.597,5.875-0.764
				c2.011,0.606,0.515,0.586,2.31,1.387l1.837,0.819c3.137,1.398,2.859,0.086,3.798,0.47c0.427,0.174,1.276,0.964,1.436,1.404
				l1.153,3.164c0.193,0.528,1.308,1.056,1.726,1.384c0.661,0.518,1.296,1.308,1.947,1.746l2.432,1.635
				c0.341,0.229,0.114,1.336-0.219,1.561c-1.131,0.767-3.096-0.994-4.035-1.906l-1.328-1.289c-0.301-0.292-1.058-0.67-1.558-1.01
				c-0.977-0.665-0.415-0.52-1.575-2.587l-1.144-2.038c-1.148,0.322-1.747,0.132-2.628-0.244l-4.243-1.81
				c-1.325-0.566-2.849-1.619-3.097-1.06c-0.072,0.163-0.246,0.571-0.239,0.557c1.27,0.395,1.885,2.334,2.801,3.271
				c0.748,0.766,1.458,1.275,1.821,2.253c0.265,0.712,0.586,1.2,1.136,1.772c0.689,0.717,1.26,2.044,1.013,3.164
				c-0.327,1.487-2.693,2.8-4.012,3.399l-2.186,0.994l-1.241,0.65c-0.423,0.188-1.053,0.431-1.216,0.778l-1.38,2.934
				c-0.23,0.489-0.589,1.534-1.042,1.764c-0.727,0.37-1.878-0.242-2.261-0.791c-2.667-3.825-1.838-1.615-2.991-3.041l-1.414-1.749
				l-1.079-0.603l-0.745-1.881l-1.118-0.256l-0.98-1.052c-0.407-0.437-0.833-0.801-1.377-1.198
				c-2.063-1.506,0.115-1.037-3.459-2.811l-0.713-0.816l-2.334,0.657c-0.987,0.278,0.075,1.65,0.396,3.077
				c0.18,0.801,0.246,2.165,0.747,2.59l1.269,1.076c0.432,0.648,0.79,1.154,1.337,1.596c2.512,2.031,3.028-0.15,5.562,2.132
				c0.301,0.271,1.012,0.766,1.214,1.105c0.37,0.62,0.766,2.11,1.347,2.499c1.03,0.691,1.722,1.148,2.122,2.417
				c0.176,0.557,1.444,0.688,1.934,0.324c2.055-1.53,1.711,0.268,3.567-1.35c0.339-0.295,1.346-0.77,1.788-0.689l1.717,0.313
				l0.626,2.193l-0.542,0.887c0.216,1.195,0.219,2.3,0.116,3.49l-0.149,1.721c-0.218,2.518,1.112,0.163-0.166,3.74l-1.521,4.258
				l-1.018,2.675c-0.567,1.489-1.05,3.081-1.289,4.646c-0.386,2.531-0.178,0.949-1.277,3.855l-0.954,2.522
				c-0.379,1.003-0.808,2.255-0.87,3.356l-0.143,2.545l-0.215,2.343l-0.341,2.061c0.329,3.625-1.056,3.523-0.3,7.302
				L268.475,163.409z"/>
			<path d="M210.571,101.386c0.643,0.548-0.732,1.715-0.829,3.313l-0.092,1.512l-0.923,1.834l-0.991,1.834
				c-0.488,0.903-1.477,2.306-2.44,2.574c-0.234,0.065-0.762-0.482-0.687-0.696l0.32-0.917c-3.741,0.047-2.047-0.988-5.103-0.849
				l-2.343,0.107l-2.298,0.097c-0.538,0.023-1.113,0.281-1.484,0.758c-0.904,1.163-2.384,0.1-2.394,0.028
				c-0.142-1.086,0.169-2.516,0.609-3.488l1.181-2.609c-1.156-1.121,0.174-4.769,1.12-5.476c0.319-0.238,1.305,0.204,1.702,0.43
				c0.299-0.071,2.677-0.986,2.226-1.488l-0.477-0.532c1.414-1.074,0.097-0.74,1.395-1.752c1.332-1.039,1.858-1.977,2.573-3.519
				c1.082-2.337-0.094-1.486,1.197-2.772c0.473-0.471,0.883-1.481,0.682-1.975l-2.213-0.593c-1.113-0.298-3.11-4.352-3.048-5.261
				l0.122-1.777c0.028-0.408,0.276-1.371,0.657-1.523l1.14-0.454l0.587,0.908c3.845-0.162,4.231,0.708,7.193-2.243l0.402-2.356
				c0.17-0.999,0.587-1.742,1.092-2.592c0.335-0.565,0.676-1.319,1.04-1.826l1.433-1.997l1.048-1.486l-0.633-0.306l-0.697-0.336
				c-0.503-0.243,0.704-0.814-0.608-2.138l0.77-1.637c0.181-0.385,0.937-1.16,0.784-1.63c-0.313-0.963-0.125-2.282,0.481-3.327
				c0.15-0.258,0.323-1.019,0.53-1.182l0.764-0.6c0.178-0.14,0.001-0.872-0.205-0.979l-1.617-0.846
				c-1.077,0.541-1.574,0.825-1.976,2.202l-1.068,3.655c-0.127,0.434-0.272,0.95-0.444,1.411l-0.855,2.293
				c-0.269,0.723-0.231,2.14-1.23,2.485c-0.683,0.236-3.59,0.898-3.302,1.026l-0.666-0.296c-1.399-0.621-4.038,0.834-4.473-0.505
				c-0.446-1.374-0.574-2.998-0.269-4.324l0.703-3.053c0.168-0.729-1.162-2.544,1.115-5.717c1.297-1.807,2.096-3.345,2.866-5.429
				l0.777-2.101c0.523-1.415-0.834-1.759-0.492-2.262l0.525-0.771l1.086-1.881c1.072-1.857,1.889-1.524,2.678-2.351l1.149-1.203
				c0.228-0.239,1.058-0.556,1.381-0.488l1.932,0.405c1.085,0.228,2.118,0.544,3.214,0.329c3.973-0.777,2.706,0.415,3.951,0.999
				l1.944,0.911l1.313,0.056c0.355,0.015,1.138-0.617,1.241-0.965c0.348-1.177-2.342-2.767-0.97-3.979
				c0.206-0.182,0.567-0.39,0.729-0.431c0.216-0.055,0.403,0.468,0.61,0.719l1.684,2.038c0.288,0.349,0.571,1.329,0.713,1.868
				c-0.672,1.342-1.918,2.582-3.456,2.815c-2.263,0.343-1.307,1.002-3.227,0.437c-0.628-0.185-1.154-0.56-1.665-0.943l-1.605-1.204
				c-1.27-0.953-1.037,0.718-3.971-0.331c-0.638-0.228-2.276-0.47-2.822-0.057c-0.712,0.538-1.527,1.375-2.231,2.069
				c-1.882,1.855-0.118,2.275-1.581,4.67c-0.417,0.683-0.475,1.658-0.741,2.526c-0.262,0.856-1.199,1.886-1.65,2.745l-0.881,1.678
				l-1.173,2.402c-0.557,1.142,0.353,1.594-0.252,4.561l-0.725,3.555c-0.043,0.211,0.198,1.028,0.392,1.03l3.864,0.027
				c0.427,0.003,0.831-0.672,0.942-1.048c1.125-3.807,1.622-2.01,2.392-6.26l0.44-2.431c0.128-0.708,0.893-1.332,1.58-1.733
				l1.664-0.972l1.774-0.243c0.847-0.116,1.644-0.199,2.604-0.065c0.462,0.064,0.742,1.335,0.551,1.808l-0.745,1.849l-0.94,2.17
				c-0.554,1.278-0.984,2.271-1.692,3.609c-0.712,1.346,0.629,0.083-0.039,3.109c0.948,0.38,1.883,0.89,2.314,1.991
				c0.187,0.477-0.314,1.443-0.626,1.816l-1.601,1.91c-0.666,0.795-1.416,1.816-1.686,2.769l-0.528,1.865
				c-0.512,1.807,0.559,1.876-0.985,3.247l-2.119,1.882c-1.31,1.163-3.508,1.712-5.222,1.946l-2.007,0.275l0.153,0.814
				c0.181,0.965,0.589,1.797,1.41,2.347c1.732,1.162,2.101-0.213,3.469,0.96l0.62,0.532c0.128,0.109-0.143,0.608-0.247,0.753
				c-2.633,3.648-1.133,4.33-3.322,7.48l-1.088,1.566l-1.074,2.571c-0.279,0.669-0.794,1.419-1.139,2.079
				c-0.92,1.001-4.032,0.721-4.187,2.25l-0.147,1.455l-0.026,1.026c-0.374,0.901-0.632,1.616-0.924,2.634l1.923-0.175l2.179-0.199
				l1.481-0.112c0.761-0.058,1.476-0.025,2.175,0.269c2.822,1.187,1.768-0.175,4.045,1.016l1.273-3.019
				c0.131-0.31,0.089-1.12,0.174-1.426c0.216-0.782,0.277-1.931-0.044-2.733l-0.703-1.757c0.026-0.348,0.224-1.304,0.42-1.657
				l1.22-2.195c1.434-1.391,1.926-1.079,3.117-2.943c0.327-0.134,1.296-0.461,1.708-0.463l2.889-0.012
				c-0.202,0.299-0.598,1.041-0.887,1.139l-2.176,0.737c-0.593,0.201-1.292,1.468-1.81,1.811c-1.295,0.844-2.515,2.262-1.859,3.879
				L210.571,101.386z"/>
			<path d="M258.284,186.714l0.791-0.859c0.191-0.208,1.268,0.159,1.228,0.448l-0.488,3.535c-0.082,0.597-0.212,1.142-0.561,1.499
				c-1.19,1.217-2.474,0.053-3.581-0.875c-0.515-0.432-0.553-1.9-0.944-2.484l-1.753-1.66c-0.303-0.287,0.139-1.358,0.36-1.708
				l0.308-1.53c0.485-2.411-0.802-1.121,0.694-4.418l-0.781-0.892l-0.169-2.311c-1.53-1.641,0.117-3.562-2.489-4.174
				c-1.182-0.278,0.109-1.155-0.72-2.053c-0.727-0.787-1.106-1.735-0.972-2.769c0.389-3.015-3.178-1.026-3.957-4.061
				c-0.269-1.046-1.051-1.807-2.003-2.276c-2.298-1.131-1.005-0.036-3.175-1.226l-0.082-1.781c-2.073-2.325-1.862-2.023-1.983-4.9
				c-0.285-0.217-1.036-0.783-1.39-0.828l-2.006-0.257c-0.407-0.052-1.137,0.664-1.503,0.876c-1.142,0.66-2.126,1.26-3.136,2.062
				c-1.585,1.259-1.374,1.187-3.295,1.295c-0.695,0.617-1.616,1.105-2.528,1.132l-2.1,0.061c-0.486,0.014-1.31-0.108-1.963-0.178
				c-2.759-0.296-2.156,0.816-5.545,0.202c-0.941-0.17-2.014-0.011-2.944-0.07c-1.722-0.109-5.38-0.539-6.517-1.846
				c-0.386-0.444-0.313-2.094-1.786-2.809l-1.968-0.955c-0.376-0.183-0.746-1.144-0.953-1.549l-1.164-2.278
				c-0.309-0.605-0.715-1.136-1.142-1.704c-2.086-2.774-0.83-1.917-1.998-4.585c-1.154-2.638,0.011-1.915-1.739-4.009
				c-1.017-1.217-0.187-2.59-0.609-4.503c-0.654-2.962-0.675-4.287,0.238-7.28l0.613-2.01l0.19-1.3l1.464-1.45
				c0.264-0.262,1.19-0.172,1.582-0.207l2.031-0.179c1.806-0.159,0.927-3.16,2.997-4.064c0.923-0.403,1.964-0.982,2.857-1.801
				c2.369-0.011,3.631-0.754,4.63,1.475c-1.808,2.378-2.38-0.608-6.562,2.706c-0.376,0.298-0.762,1.361-1.035,1.749l-0.97,1.377
				c-0.378,0.537-0.828,1.077-1.252,1.588l-0.972-0.716l-1.93,0.472c-0.595,0.145-1.066,1.435-1.338,1.97l-0.82,1.612l0.022,2.84
				c0.03,3.748-0.418,0.888-0.032,4.582c0.094,0.901,0.311,1.689,0.861,2.335c1.434,1.686,1.416,3.897,2.26,6.636
				c0.309,1.003,2.288,2.282,2.582,3.268c0.415,1.395,0.932,2.412,2.113,3.164l2.022,1.287l1.265,2.02
				c0.677,1.081,2.489,1.777,3.812,1.87l1.333,0.093c0.583-0.155,0.987-0.227,1.553-0.265c3.43-0.231,0.232,0.689,3.781,0.242
				c5.843-0.736,4.094,1.11,6.638,0.053l2.229-0.926c0.626-0.26,1.829-0.372,2.337-0.776c4.049-3.23,2.092-0.858,4.242-2.666
				c0.713-0.599,1.79-1.098,2.652-1.078c2.06,0.047,1.313-1.108,2.579-0.457c0.726,0.373,1.05,0.693,1.489,1.207
				c2,2.343,0.99,2.926,1.603,4.368l1.213,2.854c1.439,0.222,2.863,1.006,3.703,2.209l1.132,0.621l0.904,2.01
				c0.676,0.834,3.974,1.727,3.99,2.686l0.065,3.823c0.011,0.65,0.786,1.711,1.401,1.846c1.933,0.424,0.915,0.889,1.908,3.35
				c0.365,0.905,0.646,1.783,0.728,2.702c0.256,2.874,0.72-0.671-0.009,5.153c-0.069,0.551-0.029,1.487-0.211,1.862
				c-0.354,0.732-0.661,1.735-0.11,2.374c0.352,0.409,1.128,0.945,1.237,1.344l0.557,2.05c-0.144,0.093,0.237-0.153,0.397-0.256
				C257.754,188.028,257.942,187.086,258.284,186.714z"/>
			<path d="M128.239,99.54c-0.548,0.228-1.77-0.717-2.047-0.967l-0.103-2.277c0.819-2.634,0.25-4.032,1.425-7.242l-0.593-1.621
				l-0.927-2.528c-0.538-1.468-0.444-3.106-0.12-4.632c-0.279-0.637-0.751-1.857-1.137-2.332l-1.305-1.606
				c-0.258-0.318-0.981-0.831-1.368-1.086l-2.632-1.74c-0.473-0.313-0.98-0.917-1.411-1.447l-1.187-0.205
				c-2.227-2.048-0.557-0.814-1.886-2.762c-0.355-0.521-0.123-1.459,0.296-2.101l-0.234-1.33c0.528-1.399,1.099-2.802,1.281-4.206
				c0.045-0.35-0.003-0.985,0.131-1.262c0.263-0.543,0.451-1.293,0.489-1.851l0.163-2.426c0.763-0.393,1.863-0.744,2.769-0.818
				l2.648-0.216c1.025-0.084,2.366,0.062,3.376-0.125c2.299-0.427,4.299-1.481,6.428-2.368c2.899-1.208,8.01-1.905,10.346,1.061
				l1.128,1.432c0.693,0.88,1.243,1.629,2.312,2.031l1.911,0.718c0.431,0.162,1.262,0.754,1.717,1.072
				c0.873,1.983-1.605,4.047-2.801,7.361l-0.694,1.923l-0.813,2.299l-0.508,1.523l-0.816,2.599l-0.65,2.238
				c-0.455,1.567-0.852,2.304-1.9,3.536c-0.183,0.215-0.089,0.888-0.113,1.163l-0.24,2.728l-1.435,2.027l-0.731,1.223l-0.966,1.334
				l-1.332,1.84c-0.362,0.501-0.737,1.166-1.093,1.734c-0.563,0.899-1.148,1.669-1.739,2.59l-1.545,2.41
				c-0.244,0.381-1.174,1.059-1.598,1.241L128.239,99.54z M128.847,95.09l-0.041,1.503c0.85-0.158,1.554-0.655,2.13-1.305
				l1.347-1.52l1.323-1.563l1.292-1.796l2.183-2.461l0.785-2.294c1.205-2.117-0.018-1.472,1.868-5.534l0.729-1.57l1.251-2.806
				c0.22-0.493,0.394-1.153,0.533-1.724l0.381-1.566c0.584-2.397,1.167-3.417,1.107-4.954l0.918-1.547
				c0.279-3.142,0.686-1.584,1.52-3.371l0.657-1.408l0.434-0.928l-1.447-0.647c-0.47-0.21-1.002-1.126-1.358-1.714l-1.761-1.003
				c-0.458-0.622-1.039-1.534-1.563-1.768l-1.282-0.573l-1.742-0.807c-0.342-0.158-1.319,0.087-1.711,0.114
				c-4.782,0.326-3.217,1.151-7.868,1.968l-3.234,0.568c-0.337,0.059-1,0.065-1.411,0.088l-2.53,0.139
				c-0.449,0.025-1.215,0.337-1.802,0.514c-1.369,0.413-0.909,3.129-0.027,4.46c-0.129,0.569-1.679,0.105-1.936,1.226l-0.752,3.28
				c-0.135,0.59-0.122,1.736-0.049,2.452c0.051,0.501,1.047,1.112,1.538,1.235c2.749,0.684,1.183,1.613,3.638,2.943
				c0.753,0.408,1.372,0.855,2.075,1.336c1.962,1.34,2.124,1.552,2.873,4.347c0.393,0.282,1.578,1.226,1.471,1.787l-0.419,2.211
				c1.3,2.228,0.21,1.442,0.928,3.352c1.349,3.588,0.009,0.691,0.534,4.784l-0.516,1.645
				C128.648,93.033,128.874,94.126,128.847,95.09z"/>
			<path d="M210.952,114.109c0.309-0.488,0.67-1.075,0.944-1.2l1.787-0.817c1.016-0.464,2.65-0.619,3.716-0.874
				c0.446-0.171,1.033-1.079,1.422-1.451c0.935-0.894,5.043-1.19,6.434-0.763c1.415-0.271,2.485-0.705,3.597-1.462l2.179-1.485
				c0.219-0.149,0.66-0.756,0.799-0.949l-0.63-0.914l0.633-2.055l0.393-1.508c0.084-0.324,0.153-1.024,0.224-1.521l1.241-0.962
				l1.8-0.816c1.413-0.641,4.658-0.732,5.762-2.759l-1.074-1.667c-1.527-0.448-3.068-1.357-3.999-2.834
				c-2.363-0.527-2.451,0.515-4.992-0.929c-0.377-0.039-1.305-0.056-1.647-0.158l-2.204-0.66c-0.393-0.118-1.105-0.9-1.502-0.839
				c-0.722,0.11-1.393,0.086-2.072-0.514c0.823-1.284,2.793-1.71,3.611-1.176l1.419,0.928c1.543-0.163,3.353,0.263,4.731,1.194
				l2.636,0.009c0.557,0.002,1.181,0.719,1.623,1.123l1.223,1.118c1.675-0.12,2.672,0.942,3.559,2.182l1.187,1.661
				c0.62,0.867-0.171,2.878-1.779,3.514l-1.888,0.747c-0.687,0.272-1.66,0.822-2.291,0.96l-1.959,0.43
				c-1.909,0.419-1.848,1.579-1.924,2.943c-0.199,3.558,1.538,2.332,0.354,4.32c-0.442-0.05-1.128-0.09-1.374,0.069l-2.937,1.901
				l-1.745,1.169c-1.071,0.718-2.562,1.503-3.857,1.81c-0.588-0.219-1.66-0.813-2.202-0.703l-2.361,0.551
				c-1.94,2.249-2.729,1.26-4.972,2.059C213.412,114.284,212.234,114.538,210.952,114.109z"/>
			<path d="M101.282,150.658l-2.577,0.132c-3.806,0.195-4.866,2.322-7.694,2.823c-1.463,0.259-4.58-2.332-4.746-3.498
				c1.672-2.812,2.669-0.762,4.472-2.229l1.3-1.059c0.668-0.544,2.154-1.672,2.994-1.694l6.027-0.158
				c0.531-0.014,1.15-0.032,1.672,0.011l3.18,0.261c2.112,0.173,4.856,0.921,6.253,2.685c0.262,0.331,0.665,0.896,0.633,1.223
				c-0.093,0.959-1.978,2.344-3.281,1.739l-1.365,0.367c-0.482-0.186-1.445-0.693-1.919-0.66l-2.034,0.143l-1.666,0.157
				C102.172,150.935,101.783,150.877,101.282,150.658z M104.746,148.634l2.31,0.115l2.278,0.176
				c0.329,0.255,0.194-0.273-0.025-0.661c-1.014-0.35-1.757-0.503-2.626-0.657l-2.22-0.394c-1.589-0.282-3.606-0.207-5.164,0.327
				c-0.36,0.124-1.159-0.511-1.507-0.651c-2.603-1.049-5.109,2.194-5.986,2.512l-2.622,0.952c1.211,1.746,1.857,0.895,4.36-0.033
				l3.353-1.243c0.649-0.241,1.695-0.38,2.399-0.352l2.562,0.1C102.215,148.839,104.633,148.628,104.746,148.634z"/>
			<path d="M278.071,172.702l0.689-1.85c0.324-0.871,0.674-1.306,1.427-1.587c0.115-0.043,0.159,0.493,0.121,0.614l-0.574,1.807
				c-0.079,0.247,0.003,1.709-0.722,3.994l-0.902,2.845l-1.291,4.073l0.672-0.011c0.87-2.577,1.68-1.889,3.149-4.905l0.95-1.951
				l1.722-3.393c0.159-0.313,0.703-0.936,0.807-1.273l0.841-2.736l-1.627-0.651c-0.834-0.333-1.082-2.034-0.908-2.123
				c1.088-0.561,0.41,0.04,2.795-0.484c1.121-0.246,2.321,0.32,2.257,1.663l-0.103,2.129l-1.11,1.58
				c-0.227,0.323-0.482,0.931-0.638,1.343l-1.011,2.675c-0.428,1.132-1.067,2.107-1.645,3.169l-1.018,1.868l-1.94,3.105
				c-1.091,1.746-1.493,3.585-3.999,3.625c-0.639,0.01-1.551-0.331-1.694-0.969c-0.099-0.444,0.683-1.045,1.044-1.172l0.561-0.198
				c0.134-0.047-0.051-0.442-0.125-0.609c-0.584-1.312,0.087-2.233,0.58-3.306l0.901-1.962l0.209-1.554l0.267-2.332
				C277.811,173.679,277.91,173.134,278.071,172.702z"/>
			<path d="M152.229,243.13l0.807,2.122c0.103,0.271-1.008,0.817-1.027,0.54l-0.034-0.416c-0.065-0.798-0.706,0.792-1.712-4.002
				l-0.498-2.372c-0.062-0.298-0.324-0.896-0.467-1.247c0.939-2.342,1.02-3.473,0.778-6.208c-0.505-5.686,0.528-1.537,0.188-4.604
				l0.119-1.107l-0.316-2.241c-1.099-0.611-1.909-1.496-2.047-2.826c-0.334-3.225,0.174-0.576,0.415-3.446l0.199-2.365
				c0.215-2.562,0.791-4.49,2.22-6.719l0.998,0.019c0.003,1.821,0.175,3.297-0.93,4.708c-0.222,0.283-0.077,1.075-0.112,1.55
				c-0.04,0.538-0.443,1.605-0.522,2.156c-0.043,0.296,0.139,1.103,0.076,1.398c-0.149,0.704-0.436,2.14,0.028,2.666l1.729,1.96
				l-0.19,1.312c0.139,0.822,0.148,1.438,0.042,2.154c0.023,0.23,0.133,0.86,0.138,1.112l0.057,3.084
				c0.004,0.207-0.39,0.936-0.425,0.99c0.503,0.449,0.418,4.256,0.299,4.971c-0.334,2.002-0.274,3.946,0.585,5.713
				C152.549,242.152,152.158,242.942,152.229,243.13z"/>
			<path d="M158.296,74.648c-0.201,0.33-0.74,1.117-1.106,1.177c-0.44,0.072-1.003,0.053-1.25-0.05
				c-0.297-0.124-0.673-0.842-0.548-1.126l0.868-1.954l0.745-1.632l1.112-2.304c0.179-0.371-0.591-1.283-0.831-1.582l2.064-1.678
				l1.077,0.059c3.914,0.213,3.168-1.8,7.615,0.952c0.168,0.879,0.24,1.163,0.538,1.928l-0.872,1.632
				c-0.126,0.237-0.138,0.911-0.146,1.346c-0.035,1.798-1.987,1.256-2.986,1.485l-1.79,0.41
				C162.096,73.468,160.549,74.609,158.296,74.648z M162.686,71.552c0.554-0.154,1.463-0.533,1.941-0.753l1.414-2.488
				c-0.356-0.707-1.558-1.184-2.478-1.17l-1.667,0.025l-0.995,1.535l-1.133,1.75c-0.354,0.548-0.594,1.149-1.031,2.061
				c0.531-0.024,1.165-0.185,1.828-0.37L162.686,71.552z"/>
			<path d="M216.555,93.808l1.513-0.463c0.197-0.06,0.651,0.639,0.853,0.691l2.513,0.647c0.62,0.16,1.106,1.589,1.447,2.116
				l0.762,1.177l0.903-1.591c0.195-0.343,0.075-1.405,0.193-1.815c0.306-1.062,0.188-2.121-0.858-2.776
				c-1.613-1.008-1.979-0.137-3.339-1.675l-0.511-0.578c-0.111-0.126,0.246-0.656,0.408-0.727l1.292-0.569l0.797,1.013
				c0.765,0.218,2.061,0.431,2.604,1.013c1.853,1.984,2.337,3.627,2.085,6.249c-0.328,0.439-0.909,1.126-1.202,1.57l-1.049,1.589
				c-0.28,0.424-0.707,0.959-1.063,1.103c-0.357,0.144-1.349-0.214-1.531-0.559l-0.798-1.518c-0.353-0.672-0.591-1.207-0.896-2.035
				c-0.569-1.542-1.184,0.243-2.974-0.915C217.052,95.331,216.663,94.721,216.555,93.808z"/>
			<path d="M223.353,32.437l-2.201,0.613c-0.968,0.269-1.986-1.216-1.545-2.101l1.133-2.274c0.281-0.564,1.377-1.149,2.032-1.298
				c0.241-0.055,1.084,1.174-0.301,2.73L223.353,32.437z"/>
			<path d="M278.864,169.496c-0.191,0.302-0.706,0.709-1.039,0.987l-0.693-1.109l2.061-2.357c0.413-0.472,0.763-1.185,1.111-1.754
				l1.056-1.725c0.053-0.086,0.471-0.302,0.508-0.203c0.038,0.1,0.228,0.507,0.192,0.607l-0.713,2.015
				c-0.504,0.543-0.849,0.962-1.176,1.477L278.864,169.496z"/>
			<path d="M67.154,49.332l-1.79,2.577c0.024,0.522-0.489,0.301-0.665-0.112c-0.118-0.991,0.003-1.851,0.504-2.517l1.119-1.487
				c0.532-0.707,1.012-1.466,1.77-1.948c0.822-0.523,1.825-1.202,2.219-1.973c1.595-3.126,1.551-0.597,3.878-3.627l1.274-1.659
				c0.171-0.222,0.653-0.551,0.899-0.684c0.245-0.133,1.064,0.387,1.017,0.679c-0.092,0.576-0.9,1.347-1.328,1.776
				c-1.11,1.112-1.205,1.638-2.747,2.893c-0.224,0.182-1.146,0.34-1.311,0.568l-1.638,2.266c-0.351,0.486-1.867,1.363-2.392,2.106
				L67.154,49.332z"/>
		</g>
		<g>
			<path d="M247.986,273.825c-0.405-0.05-1.922,3.239-3.856,1.642c-0.134-0.11-0.369-0.51-0.397-0.675
				c-0.037-0.22,0.359-0.665,0.571-0.726l1.352-0.39c0.973-0.912,2.122-1.286,3.478-1.136l2.269-0.865l0.053,1.432l-2.221,0.873
				L247.986,273.825z"/>
			<path d="M60.111,266.793c0.217,0.159,0.116,0.981,0.073,1.259c-2.932,0.562-3.544-2.758-3.904-3.161l-1.222-1.367
				c-0.438-1.022-1.954-2.096-0.985-3.492c0.367,0.052,1.267,0.353,1.448,0.717l0.759,1.529l0.787,1.585
				c0.39,0.786,1.142,1.532,1.881,2.075L60.111,266.793z"/>
		</g>
	</g>
</g>
</svg>
