<?xml version="1.0" encoding="UTF-8"?>
<svg id="Layer_1" xmlns="http://www.w3.org/2000/svg" version="1.1" viewBox="0 0 344.33 567.93">
  <!-- Generator: Adobe Illustrator 30.2.1, SVG Export Plug-In . SVG Version: 2.1.1 Build 1)  -->
  <g id="t4JYH7.tif">
    <g>
      <path d="M187.11,0c1.07.81,1.8-.09,3.49,1.8,2.83,3.19,1.93,3.08,1.9,5.85-.01.97-1.01,2.11-1.46,2.9l-.56.98c-.25.44-1.27.98-1.76,1.14l-2.59.83c-2.16.7-4.16.17-5.15,1.08-.62.57-.86,2.12-.81,2.91l.13,2.01c.05.78.03,1.52,0,2.34-.11,2.69-.54.66-.63,2.68l-.11,2.36.5-.62,1.83-.38c.99-.21,2.17.78,2.61,1.08,1.41.98,1.85.05,3.87,2.18.5.53,1.01,1.19,1.5,1.56l1.96,1.46c.99.74,2.06,1.49,3.15,2.15,1.54.93,3.26,1.69,4.26,3.26s.98.47,3.17,2.97c.38.44.8,1.03,1.18,1.31l1.52,1.1,2.24,1.87,1.97,1.44c.36.26.83.69,1.15,1.03l1.68,1.74c.25.13.72.44,1.03.63l1.96,1.17.9.66c.88.45,1.7.9,2.5,1.43l1.86,1.24c2.14,1.44,2.65,2.93,6.11,5.32l1.33.91,1.49,1.02,2.11,1.45c1.52,1.05,1.96,1.74,3.89,3.19.71.54,1.13.93,1.71,1.69.63.82,2.11,1.37,2.81,2.11.6.64,1.19,1.25,1.85,1.65.12.1.54.57.72.68l3.27,1.93,2.15,1.27.93.57,1.34.85c.3.19.82.68,1.17.96l1.7,1.38,1.1.85c1.95,1.5,1.54.97,3.37,2.53.55.46,1.28.7,1.89,1.01l2.52,1.3c.44.23,1.03.65,1.5.97,2.03,1.43.74.03,3.37,1.3l1.87.91,3.44,1.64c.51.24,1.05.61,1.54.93l1.4.91,1.6.92,2.65,1.58c.96.57,1.87,1.29,2.95,1.76,2.35,1.03,1.04.75,3.96,2.13,3.31,1.57,1.13.81,3.5,2.12l3.54,1.96c.23.12.66.52.82.63l2.5,1.68,1.75,1.07c.41.25,1,.91,1.38,1.09l2.14,1.02,1.9.92,2.25,1.08,1.07.55,2.73,1.24c.88.4,1.74,1.04,2.53,1.61l2.12,1.52c.84.6,1.43,1.01,2.51,1.27,1.55.37.72,1.99,5.66,2.6l.61.08c.15.02.09.36.04.57l-.08.65c1.47.01,2.58.04,3.91-.06l1.94-.14c4.8-.35,3,.34,7.08.95l1.62.24c.78-.22,2.19-1.07,2.93-.86l2.03.56c1.65.46.48,1.2,1.74,1.76v17.68s-.29.49-.29.64l.02,4.33v.62s0,.56,0,.56c0,.92-.04,1.82-.12,2.67l-.12,1.25c-.23,2.4-.54,1.73-.34,2.49.54,2.06.21,1.37,0,4.19l-.13,1.85-.1,1.51c-.09,1.24-.21,2.28-.43,3.56-.34,1.98.67.53-.28,3.02-.12.31-.35,1.21-.18,1.45l.43.61c.13.18-.02.82-.04,1.19l-.03.52c-.06,1.01-.13,1.95-.26,2.86-.03.22-.09.44-.04.55l.22.51c.11.26-.02.73-.1,1l-.13.43-.12.4c-.11.39,0,.42.1.65l.15.39c.08.22.19.81.14,1.02l-.1.49-.09.46-.1.48c-.02.08,0,.38-.01.52v.57s0,.56,0,.56v.56s0,.56,0,.56v.56s0,.56,0,.56v.56s0,.56,0,.56v.56s0,.56,0,.56v.56c0,.07-.06.36-.08.49l-.08.47c-.03.15-.07.36-.08.47l-.04.53-.04.53-.09.46c-.03.15-.09.4-.09.47v.59c-.01,1.62-.13,4.12-.27,5.56,0,.07.17.63.17.69l.05,4.15-.19.61.12,1.54c.03.38-.1,1.13-.15,1.62-.34,3.36-.31,1.7-.61,4.15l-.22,1.81c-.29,2.37.12.66-.39,3.78l-.31,1.9-.67,3.3-.17.78c-.01.06,0,.34-.01.46l-.21,2.8-.08,1.51c-.04.66,0,1.47-.12,2.12l-.55,2.91s-.45,1.97-.86,1.68l.65.48c.54.39-.29,1.8-.3,2.19-.02.63-.04,1.33-.12,1.94l-.36,2.78-.29,2.21c-.09.67-.14,1.3-.15,2.05-.02,1.15-.67,2.06-.96,3.19l-.57,2.24c-.03.1-.31.49-.29.48-.11.06.68.17.64.71,0,.06-.06.3-.07.4l-.05.29-.09.3-.11.36-.13.43-.14.45c-.04.13-.13.36-.13.44l-.04.47-.05.54-.05.55-.31,3.61-.15,1.99c-.32,4.04-.89,2-.82,3.96l.07,2.09c0,.23.12.88.07,1.1l-.36,1.65c-.26,1.19-.57,2.27-.76,3.46-.35,2.24.03,3.53-.48,4.22-1.53,2.03-.15,1.55-.36,2.92l-.26,1.74c-.07.5.16,1.5-.13,4.03l-.28,2.52-.28,2.8-.63,4.43c-.08.59-.05,1.52-.19,2l-.66,2.31c-.1.35-.14.99-.19,1.43l-.2,2.04c-.03.3-.03.89.06,1.11l.36.92-.86,1.47c-.38.65-.25,1.37.12,2.09l-.03,1.03v.4c-.18.84-.32,1.61-.44,2.49l-.37,2.78-.43,1.96c-.1.47-.26,1.24-.27,1.6l-.06,2.55c-.08,3.35-.67,1.98-1.01,4.19l-.16,1.04c-.08.55.04,1.7.09,2.24,0,.05-.28.44-.29.49l-.18,1.33c-.05.39-.27,1.09-.25,1.44l.07,1.13c.02.38-.42.62-.42.9l-.04,3.75c0,.72-.19.64-.25,2.81l-.1,3.47c-.04,1.46-.19,2.95-.45,4.38l-.28,1.54c-.3,1.63.11.81.04,3.49l-.12,4.59-.14,1.83-.14,3.7-.03.74-.19,2.54-.19,2.27c-.07.83-.2,1.68-.17,2.49l.1,2.23c.03.74-.07,1.58-.2,2.28l-.27,1.48c0-.05.17,6.98.21,7.48.12,1.6.28,3.04.08,4.73-.24,2.03-.08,2.93-.28,5.11-.25,2.61.45.71.06,4.21-.09.81-.13,1.51-.17,2.38-.1,2.54-.87,1.26-.36,2.56.63,1.64.3.55.1,3.26-.05.66-.08,1.27-.16,1.84l-.27,2.05c-.26,1.95.04.41-.02,2.14l-.06,1.59c-.03.87-.03,1.83-.11,2.62-.07.72-.17,1.46-.19,2.22-.02.94,0,1.95-.12,2.88l-.29,2.22c-.06.49-.13,1.05-.13,1.49l-.02,1.86-.02,2.03c0,.37-.04.77-.07,1.09l-.14,1.53c-.28,3.05.23,3.87.21,7.02v.96c-.01,1.19-.06,2.31-.15,3.46-.21,2.64.28.12.01,3.12-.08.9-.07,1.75-.09,2.62l-.06,2.28-.25,1.64c-.1.67.02,3.46.02,4.81v9.36c-.01.37.04.91-.02,1.19-.56,2.59-.01.75-.08,4.4l-.03,1.32-.04,1.54-.02.85-.03,2.85c0,.12-.04.42-.07.56l-.11.72c-.13.87.47-.3.05.57l-.16.34c.75,1.01.26,2.1.23,3.3l-.13,5.59c-.05,2.17-.88,3.64-.4,5.55.31,1.23.09,2.42-.01,3.69-.23,2.88.18,5.76-.23,8.6-.23,1.6-.06,3.61-.26,5.1l-.21,1.64c-.09.7.28,1.69.24,2.21l-.21,3.15c-.14,2.11-.52,1.37-.44,3.81l.04,1.24v.47c.02.27.14,1.02.01,1.26l-.78,1.45c.58.81.27.29.24.84l-.16,2.35c-.06.8.08-.1-.12.96l-.09.46-.09.49c-.01.07-.11.32-.15.39l-.15.38-.16.41s.06.36.09.41l.19.35.2.37c.03.05.05.41.05.5v.57s0,.56,0,.56v.56s0,.56,0,.56v.56s0,.56,0,.56v.58s.01.51.01.51c0,.1.08.32.11.48l.1.49c.01.06.04.33.05.45l.04.57.03.5.03.4-.02.35-.02.41c-.02.38.09.55.2.89l.14.43c.04.12.09.29.12.41l.12.46.11.44.12.48c.03.13,0,.88-.04,1.03l-.12.46-.19.39-.23.33-.24.33c-.05.07-.13.21-.2.31l-.2.34s-.34.4-.39.42l-4.78,1.03c-.06.01-.46.23-.51.26-.64-.04-1.78-.17-2.41.07-1.53.59-2.83.81-4.36,1.12l-3.85.78c-1.04.21-2.04.33-3.14.45-2.79.3-1.62.68-5.25,1.12l-2.13.26-1.59.18-3.4.5-2.2.31-2.48.31c-.89.11-1.41-.45-4.46.05l-2.31.38-.58-.2c-.41.36-.38.59-1.02.64l-.82.07-.47.04c-1.55.14-.2-.18-1.65.03l-2.22.31c-.81.11-1.76.12-2.64.18l-2.25.15c-1.63.11-.02.33-1.97.32-2.97,0,.27.23-3,.25-2.59.02-2.04.36-4.78.58l-1.64.13c-.3.02-.8.06-1.03.04-4.11-.48-1.85.3-4.85.43l-3.43.14h-1.01s-2.02.13-2.02.13l-1.48.08-2.95.34-.97.07-2.09.19-1.35.03-2.61.14-1.77.14c-.75.06-1.98.61-2.72.62l-11.69.1c-.51,0-1.39.21-1.93.24l-1.75.12-1.91.13-2.26.23c-.81.08-1.71.26-2.5.28l-4.72.12-1.44.23h-4.74c-1.84.01-2.7.55-6.63.2-1.32-.12-2.5-.25-3.79-.05-2.6.42-.74-.3-3.26-.01l-3.54.4-2.37.19-2.69.22c-1.32.11-2.59.19-3.93.2l-4.65.02c-.17,0-.46.02-.57.02l-3.18-.07-3,.09c-.42.01-2.92-.21-3.57-.17l-2.65.16c-1.28.08-2.62.23-3.87.13l-2.84-.23-2.07-.18c-.35-.03-1.12.16-1.61.17l-5.65.03c-.25,0-.84-.55-1.03-.51l-1.09.28c-1,.26-2.21.02-3.38.2l-2.45.37c.19-.03-7.77.18-8.33.13l-2.05-.19-2.01-.18-1.29.06-1.68-.24c-2.76-.39-1.88-.13-4.56-.16l-11.64-.1-2.24-.12c-.58-.03-1.12,0-1.7-.04l-2.24-.14c-3.1-.19-1.7.51-3.32.1-1.19-.3-4.09-.27-5.27-.16-2.3.22-1.09.38-2.7.2-.83-.09-1.81.11-2.67.12l-6.69.14-1.93.21-2.44.12-1.04.07c-.97.07-1.93.19-2.85.23l-2.09.07-2.18.17c-5.34.42-2.71-.11-6.75-.3l-3.87-.18c-1.9-.09-1.85-.25-4.32,0l-3.81.38-1.96.2-3,.16-1.07.04-1.78.04-1.7.06-2.73.11-2.3.13-3.31.21c-2.82.18-3.62-.08-6.69.05-.84.03-3.18,1.18-4.05-.36l-.91-1.61c-.5-.88-.55-2.15-.46-3.2l.28-3.12.19-2.18c.14-1.53.13-2.99.06-4.53l-.09-1.98-.18-3.24c-.03-.5-.09-1.21-.16-1.65l-.36-2.29-.28-2.06-.38-2.5c-.12-.79-.21-7.14-.18-8.37l.14-5.96c0-.22.29-.88.27-1.13-.09-1.36-.13-3.27.1-4.63s.33-2.5.47-3.86l.14-1.41.16-4.7c.02-.67.35-1.62.49-2.31.43-2.08-.11.23.15-2.53l.35-3.58.22-2.27.15-3.31.37-2.21.06-2.28.05-5.18.02-4.33c0-.7.26-1.79.71-2.35-.54.67-.43-2.85-.42-3.03l.14-3.83.06-1.4.14-3.59.19-2.52.05-2.49c.01-.79.19-1.63.21-2.45l.11-4.21.17-1.47.15-2.24.08-2.26c.03-.8.2-1.77.19-2.46-.02-1.2-.03-2.22.05-3.4l.17-2.5c.05-.7.45-1.81.45-2.51l.1-8.66c0-.62.19-1.55.25-2.22l.18-1.97.16-3.6.07-1.44c.07-1.47-.23-1.92-.08-4.93l.06-1.31.08-1.34c.1-1.56.11-8.17-.05-9.34l-.57-4.12c-.08-.57.36-1.57.69-2.1.81-1.29-.51-.21-.61-2.75l-.1-2.62-.08-1.94-.15-4.41-.19-2.55-.12-1.61c-.07-.98-.09-1.89-.07-2.86.07-3.29-.18-3.41-.01-7l.08-1.68-.16-1.42-.17-4.7-.15-5.32c-.01-.48-.3-1.47-.35-1.92.19-.84.33-1.74.27-2.55l-.06-.83c-.1-1.43.25-2.73.09-4.23l-.33-3.13c1.1-1.65-.37-1.61-.4-3.27l-.06-3.81c0-.27-.42-1-.48-1.25-.11-.45,1.27-1.33.61-.98,0,0-.22-.26-.24-.32l-.31-1.31c-.01-.05.03-.41.02-.48-.29-3.18-.96-2.72-.54-5.33l-.35-2.35-.02-1.76-.04-3.63c0-.47-.07-.94-.12-1.41-.35-3.31-.09-6.92-.11-10.59l-.02-3.02-.02-1.23-.11-4.35c-.02-.63-.58-1.81.12-3.39-.15-.61-.2-1.33-.24-2.06l-.12-2.11-.11-1.66c-.04-.65-.19-1.52-.15-2.07l.15-1.91.2-2.99c0-.13-.41-.6-.41-.56l.08-2,.06-2.3c.09-3.41-.37-3.17-.23-7.5.04-1.1-.23-2.19.21-3.31.25-.64.09-1.34.06-2.04l-.16-3.87c-.02-.4.12-1.07.13-1.43l.13-3.56.1-2.05.07-3.39-.06-1.01-.06-8.08-.09-1.08.06-2.66.02-1.05c.05-2.8.15-5.54-.04-8.33l-.22-3.04-.26-3.13-.18-3.11-.2-3.85-.19-2.82-.17-2.55-.19-4.37c-.14-3.16.38-1.13-.27-3.07-.59-1.77.28-3.09.03-4.52l-.21-1.19-.08-12.15-.12-1.78-.08-4.51v-5.02c0-2.33-.14-4.57-.26-6.92-.2-3.84-.89-3.6-.5-6.88.07-.61,0-1.2.07-1.83l.23-2.41.1-2.03.15-3.08c.05-1.06-.2-1.55-.02-4.26l.14-2.17c.12-1.83.09-3.68,0-5.53-.16-3.46.56-1.88-.59-5.22.23-.23.68-.86.67-1.23v-3.32s3.3-1.75,3.3-1.75c1.38-.73,3.61-4.29,5.7-5.38.7-.37,1.56-.74,2.3-1.07,1.86-.47,1.72-.32,3.5-1.57l1.69-1.19,1.87-1.47c1.08-.86,2.52-1.72,3.68-2.41.26-.16.76-.83,1.05-.95.75-.32,2.3-.73,3.01-1.11l3.55-1.87,1.71-1.27c.76-.57,1.6-.84,2.43-1.26l2.21-1.13,2.2-1.15,1.3-.6,1.83-.99,2.05-1.01c2.07-2.64,2.16-.77,5.1-2.97,1.4-1.05,1.61-.93,3.51-2.08l6.65-4.01,2.78-1.71c1.96-1.2,1.59-1.15,3.35-2.23l3.26-2,1.6-.95,2.93-1.62c.34-.19,1-.76,1.32-.98.49-.15,1.26-.37,1.65-.62l1.42-.93c.44-.29,1.12-.58,1.65-.87,3.13-1.71,2.07-1.41,4.63-2.89l1.24-.71,2.68-1.51c.65-.37,1.22-.77,1.84-1.24.65-.5,1.39-.86,2.1-1.28l1.71-.99,3.19-1.85c.6-.35,1.12-.73,1.73-1.1l2.24-1.35,1.97-1.44,1.46-1.07c.6-.44,1.26-.79,1.9-1.19l2.18-1.35,1.98-1.16c2.6-1.53,3.1-2.11,5.39-3.52l5.7-3.5,2.72-1.74c.33-.21,1.11-.51,1.49-.73l1.95-1.12,1.61-.93,5.38-3.26,1.44-1.07,2.66-1.82c.28-.19,1.08-.43,1.36-.57l.55-.83c.81-.25,1.71-.58,2.37-.99l1.74-1.09,1.4-.85c2.44-1.48,2.24-1.54,4.22-2.77l3.28-2.04,2.88-1.87c.64-.42,1.23-.98,1.8-1.54l1.51-.69c2.36-2.5,2.73-.92,3.14-1.89.26-.62,1.18-.88,1.61-1.2l3.21-2.39,1.61-1.2c1.55-1.15,3.48-1.26,3.33-2.23-.08-.47-.24-.98.04-1.25.19-.19.83.02,1.17.19.2.1.56-.27.86-.55l1.36.5c.09-.36.38-1.32.39-1.8l.04-5.78c0-.22-.37-.96-.42-.98-.31.1-.67.23-.98.3l-2.12.49c-1.84.42-2.57-.24-4.28.41-2.23-.74-2.82.37-3.78-.98-.26-.36-.54-1.02-.46-1.34.06-.27.38-.72.6-.96l1.94-2.07c.31-.33.79-.64,1.28-.97,1.9-1.27-.29-.32,2.77-2.19l1.57-.96,3.71-2.67,1.13-.33c.45-.34,1.23-1.05,1.69-1.26l1.96-.9c1.52-.7,3.22-.18,3.48-.73h2.51ZM172.96,11.52c.56-.08.98-.1,1.4-.24,1.75-.57,1.78.78,2.21.35l.48-.47,2.05-.41c1.28-.25,2.65,1,7.09-.74.8-.31,1.77-.61,2.22-1.48.59-1.15.85-2.71.56-4.02-.25-1.16-1.85-1.85-2.86-1.65l-2.87.57c-.63.13-1.35.46-1.97.73l-2.34,1c-2.7,1.16-.19.54-3.4,2.21-1.68.88-2.34,1.41-3.82,2.67l-1.6,1.36c-.08.07-.22.36-.27.45s.36.07.47.05l2.66-.38ZM144.11,124.57l2.26-.17,2.74-.21c2.2-.17,5.73-.21,7.89,0l2.19.22c.74.07,1.43.42,2.07.02.72-.45,1.77-.24,2.57-.36l1.47-.21c2.55-.36,1.79,1.47,3.27-.31l1.5-.1,2.57-.18,1.9-.07,4.69-.12,1.54-.07,1.54-.09c.4-.02,1.25.24,1.71.24l6.11.08c.57,0,1.25.16,1.74-.02.95-.36,1.62-.32,2.61-.12,1.21.24,2.09-.28,4.69-.37l1.65-.06,6.39-.12c2.91-.05.83.21,3.61-.01l1.73-.14,4.97-.16,2.26-.19,2.27-.2,2.48-.13,3.54-.14,2.14-.03h4.04s1.47-.02,1.47-.02c1.66-.02,3.3-.06,4.93.06,2.85.21,1.09,0,3.97-.06l5.53-.13,1.79-.08c4.1-.17,1.84.22,5.63.02l1.86-.1,3.33-.11,2.98-.21,2.88-.2c2.13-.15,2.65-.73,6.03-.53.7.04,1.72-.31,2.42-.38l1.69-.17,1.83-.23c.9-.11,4.49.31,6.45.1l2.01-.22h9.36s2.11.12,2.11.12c.87.05,3.13-.27,5.75-.08l1.66.12c3.9.29.73-.51,3.13-.07,1.1.2,3.12.28,4.18-.02.33-.09-.72-.43-1.83-1.28l-1.56-1.2-1.56-.55-1.66-1.29-2.06-1.6-1.73-.17c-1.1-1.48-.87-.53-3.67-1.92l-1.69-.84-2.22-1.11c-.06-.03-1.78-1.57-3.36-2.52l-1.94-1.17-1.89-1.11-1.68-.92c-3.13-1.71-1.49-1.12-4.76-3.11l-.95-.58c-.54-.33-1.38-1.29-1.98-1.39-2.54-.44-2.03-.82-3.69-1.62l-2.3-1.1c-.82-.39-1.41-.74-1.78-1.62l-1.11-.27c-.69-.47-1.56-1.26-2.23-1.55l-2-.87c-.51-.22-1.14-.45-1.6-.68l-1.7-.85-2.71-1.25c-1.02-.47-2.02-1.11-3.01-1.68l-1.78-1.03c-.97-.56-2.05-1.07-2.93-1.8l-4.24-3.51-1.12-.84-2.05-1.66c-.57-.46-1.46-.81-2.23-1.13l-.99-.84c-1.19-.53-2.14-1.15-3.12-1.96-2.61-2.18-1.48-.51-2.84-1.82l-1.32-1.28-1.28-1.24c-.4-.39-.87-.89-1.26-1.2l-1.41-1.12-1.77-1.34c-.36-.27-1-.66-1.21-.95-.6-.85-1.22-1.21-2.15-1.35-.19-.23-.61-.82-.85-1l-1.32-.96c-.34-.24-1.29-.57-1.62-.87-.83-.76-1.72-1.71-2.6-2.39-.61-.47-1.18-.87-1.75-1.36l-3.59-3.08-1.46-.77-1.11-.89-2.03-.97-2.17-1.82c-.26-.22-.89-.57-1.1-.83-1.5-1.83-.79-.61-3.1-2.75-2.79-2.6-1.58-.65-3.14-2.13l-2.19-2.08-1.97-1.95c-.54-.53-1.3-1.2-1.92-1.66l-2.75-2.04c-.33-.24-.79-.55-1.16-.78l-3.29-2.05c-1.24-.77-2.28-1.85-3.59-2.52l-1.88-.96-2.23-1.14c-1.01,1.94,1.23,1.59.99,3.75-.06.53-1.14,1.26-1.68,1.32l-2.65.3c-1.52.17-1.49-1.94-1.41-2.88l.35-4.5c-.99.17-1.68.44-2.49.89l-2.02,1.11c-.59.33-1.24.81-1.8,1.22l-.77.12c-1.01,1.08-4.2,3.16-5.59,3.67l-1.09.78c-1.5,1.08-3.04,1.95-4.44,3.1-.29.24-.67.57-.93.68-2.76,1.21-.31.58-3.16,1.96-3.03,1.47-.38.68-2.93,2.04l-2.91,1.56-1.44.81-1.59.92c-.72.42-1.37.84-2.06,1.3l-1.71,1.13c-2.45,1.63-1.3.49-2.77,1.65l-1.73,1.35c-1.22.96-2.63,1.65-3.99,2.44l-1.41.82-2.51,1.41-2.1,1.26c-.66.4-1.59.7-2.34,1.06-1.97.95-2.05,1.41-2.91,2.05-.54.4-2.56,1.4-3.19,1.83l-1.85,1.25c-1.35.91-2.68,1.78-4.08,2.62l-1.12.67c-1.44.87-3.86,1.5-4.53,2.27l-1.53,1.75c-2.3.72-.82.58-3.64,2.28l-1.77,1.07c-.57.34-1.09.69-1.63,1.08-.36.12-1.32.19-1.66.4l-1.21.74-1.51,1.02c-.59.4-1.47.84-2.11,1.21l-.73.93-1.19.25-2.16,1.49c-.88.61-1.75,1.19-2.67,1.75l-2.26,1.38c-.39.24-.85.61-1.16.78l-2.67,1.54c-.25.14-.68.66-.94.78l-1.47.68-1.55.72c-.58.42-1.1.78-1.69,1.13l-2.6,1.59-2.06,1.27-3.73,2.41-1.39.89-1.8,1.23c-.27.19-.96.37-1.36.58-1.03.53-2.31,1.36-3.21,1.97.39-.26-2.65,1.36-2.77,1.47l-1.71.41.06.96c0,.14-.52.23-.65.29l-1.37.62-1.07.57-2.94,1.27c-.33.14-.92.87-1.21,1.04-.6.15-1.76.27-2.1.67-.39.47-.92,1.11-1.39,1.35l-1.16.59-2.83,1.46c-.73.38-1.74.51-2.36,1.16l-1.24.39-.59,1.02c-.91.34-1.57.69-2.33,1.09l-2.17,1.15c-.76.4-1.52.76-2.25,1.19-1.44.84-3.26,1.85-4.87,2.23-.05-.05.13.13.35.34-.07.11-.42.58-.6.69l-1.38.82c-2.82,1.68.29.85-3.69,3.05-.78.43-1.53.74-2.36,1.02l-1.64.57c-.78.27-1.22.68-1.68,1.42l-.86,1.07-1.28,1.52c-.32.38-.75.89-.88,1.1l2.22,1.18c2.81.12,5.96-.72,8.08-.81l2.56-.11c.88-.04,1.64-.11,2.56-.27.79-.14,1.81.34,2.51.36,1.16.03,2.38-.07,3.58-.11l2.99-.1,1.55-.08c.98-.05,1.98-.11,3-.08l1.97.06c.73.02,1.94-.08,2.62.04.2.04.66.37.85.42s.56-.46.75-.43l1.67.24c4.72.31,4.13-.4,7.41-.46l1.82-.03,1.72-.04c1.09-.77,2.19-.92,3.53-.95l2.76-.07,2.3-.07,1.95-.06,8.04-.16c1.39-.03,2.59-.15,3.99,0,4.13.44,4.4-.18,7.58-.35l4.07-.21,2.56-.18,2.02-.19,2.15-.17,2.12-.23c.56-.06,1.24-.17,1.81-.18l7.49-.15,2.83-.19,2.55-.19,3.56-.17,2.29-.22c.94-.09,2.14-.48,3.02-.46l1.99.05c.71.02,1.57-.33,2.1-.73.22.09.82.17,1.22.13l2.86-.3c.63-.07,1.32-.13,1.92-.15l2.3-.09,5.5-.16,1.67-.07,2.54-.17ZM22.84,150.47c.26.11.75.83.97.95l2.19,1.23,3.65-.59,3.68-.52c.45-.06,1.07-.07,1.61-.11,2.68-.2,2.73-.63,4.79-.44l3.34.31,2.45.22c.46.04,1.17-.08,1.57-.08l4.05-.05,2.24-.06,2.29-.1,4.33-.21,2.29-.09,1.98-.07,2.51-.21,5.84-.15,2.21-.06,2.93-.07,1.04-.02,6.13-.11c.64-.01,1.53-.15,2.23-.22l1.77-.18c.64-.07,1.56-.3,2.15-.31l5.02-.12,1.63-.08c.65-.03,1.33-.09,2-.19l3.08-.46,2.26-.27,2.25-.27,2.42-.14,2.81-.29,1.96-.26c1.02-.14,2.03-.17,3.1-.22l3.1-.17,3.57-.21,2.54-.17,2.53-.16,1.68-.07,3.83-.09,1.23-.21,4.37-.05,1.21-.22,5.22-.09,1.66-.06,1.44-.07,3.06-.19,3.12-.09,6.39-.15c1.9-.04,1.3-.25,3.12-.24l7.69.02,1.29-.24c1.06-.2,2.64-.02,3.78-.12l2.29-.2,2.27-.2c1.43-.12,2.87-.12,4.27-.13h1.79c.74-.02,1.52-.08,2.31-.15l3.02-.24c.4-.03,1.01-.1,1.47-.1l14.97-.04,1.23-.22,3.25-.15c1.39-.06,2.64-.15,4.01-.07l1.63.1,4.41.14,1.78.15,6.01.1,1.26.2,4.66.12,2.27.2c.7.06,1.36.2,2,.28l1.65.2,2.76.33,5.59.88c1.1.17,2.22.25,3.33.36,1.74.18,3.34.04,5.08.01l8.31-.16h1.72c3.55,0,6.99.09,10.52-.05.78-.03,1.73-.08,2.38.19.28.11,1.02-.04,1.33-.05l7.22-.14,3.37-.13,2.52-.07,1.99-.05,2.16-.32c3.38.55,2.7-1.32,6.05-.04,1.62.62,2.63-.27,4.06-.45.72-.09,2.19.16,2.53.71l1.01,1.62.36.04.48-.41.31-.27.27-.3.28-.31c2.43-2.7.7-2.03,2.71-3.43.22-.16.44-.85.63-1.04,1.78-1.81,2.54-2.45,2.93-5.17l.17-1.19c.02-.15-.05-.66-.09-.81s-.41-.07-.64-.13l-1.51-.34-3.87-.18-4.14-.35c-.88-.07-1.74-.04-2.64.02l-3.54.22-2.1.13c-.9.06-1.79.15-2.7.25l-2.51.29-2.53.29c-4.65.53-3.29-.29-6.21.2-.67.11-1.53.35-2.11.37l-3.67.1-2.83.43c-.78.12-6.97.08-7.96-.01-.74-.06-1.57-.24-2.29-.21l-4.68.16c-2.58.09-1.33-.24-4.78-.07-.52.03-.98,0-1.55,0l-5.97-.07-1.26.27c-1.24.26-3.06.07-4.37-.04l-3.57-.29-1.29-1.62.13-.52c.85-.66,3.33-.82,4.1-.65l1.79.4c.5.11,1.59-.31,2.15-.31h5.03c.33,0,.97.12,1.3.1.5-.03,1.14-.06,1.65-.03l1.25.09c1.34.1,2.62.06,4-.07s2.83-.08,4.23-.12c3.6-.08,1.1.6,4.73.1.61-.08,1.44,0,2.07,0,3.73-.04.97.27,5.4-.02,2.03-.13,4.02-.09,6.07-.03.37.01.73-.03,1.04-.1l1.13-.18c.29-.05.67-.12.94-.14l1.62-.14,3.69-.32,2.31-.21c3.35-.31,1.74-.04,4.45-.25l2.19-.17,2.8-.41,2.61-.19c.51-.04,1.33-.09,1.8-.06l2.56.15,2.53.21,1.88.19c2.81.28.94-.18,4.5.21,2.56.28,2.91.88,3.52-.09.28-.44.47-.75.7-1.04l1.48-1.94,1.54-2.04c.22-.29.41-1.31.08-1.31h-3.17c-.12,0-.24-.38-.28-.49-.03-.07-.12.03-.18.11l-.26.39c-.23.35-1.54.69-2.37.19l-.38-.23-.25-.18c-.07.21-.12.37-.09.28.38.27.58.41.47.33l-.66.21-.43.14c-.05.02-.42,0-.47-.04l-.35-.24-.46-.32c-.15-.11-.1.26-.9.3.7-.04-1.51-.76-1.57-.75l.54-.67c0-.12-.68-.75-.99-.75l-3.8-.02-1.28-.27-4.03.08h-2.04s-6.12-.13-6.12-.13c-.55-.01-1.25-.1-1.8-.14l-1.1-.08c-3.95-.29-1.29.36-4.42.13l-3.31-.25c-1.2-.09-2.36-.1-3.57-.03l-1.51.08c-3.67.21-1.32-.17-5.46.32-.41.05-1.39-.3-1.8-.22l-2.78.49-1.84.04c1.33-.03-5.98.55-5.39.48l-2.83.31-1.84.18-2.57.21-1.58.12c-.88-.08-1.57-.08-2.39-.01l-2.45.2c-.65.05-1.31.04-1.98,0l-3.58-.19c-4.65-.25-1.34.06-5.28.27l-2.3.12c-2.12.11-2.09-.11-3.85-.11h-2.79s-1.41.22-1.41.22l-2.01-.04-3.6-.14c-.56-.02-1.13-.02-1.7,0l-2.46.12-2.85.17-2.51.13-2,.06-1.9.1-3.12.24c-3.18.25-4.01-.13-7.47.18-1.42.12-2.74.02-4.14.15l-2.35.22-2.46.17-1.98.11c-2.73.15-.56-.12-3.42.01-1.74.08-3.45.05-5.22.04h-1.71s-5.86.04-5.86.04l-1.93-.08h-3.38c-.57,0-1.29.04-1.93.08l-1.49.1-1.91.14c-1.27.09-2.39.19-3.72.42-1.67.28-5.54.41-7.36.38l-2.93-.04-1.64-.09c-.33-.02-.88,0-1.25.02l-2.35.1-5.26.17c-.79.03-1.69.15-2.51.24l-1.7.19-2.28.25c-3.42.38-3.72-.37-6.14-.05l-1.86.24c-.74.1-1.65-.03-2.4.05l-6.58.65c-2.75.27-.77.3-4.17.64l-1.7.17-2.82.24-4.43.19-1.45.1-2.78.22c-3.76.3-4.18-.19-8.38.36-.63.08-1.53.31-2.06.33l-4.36.21-2.19.3-4.47.13-3.07.06-2.58-.04c-2.14-.04-2.03.13-3.85.15l-5.02.06c-.35,0-1.01.21-1.29.3-.19-.05-.7-.16-.93-.17-3.97-.12-2.17-.05-5.85.22l-2.82.21c-.87.06-1.7.1-2.54.19l-3.05.33-1.93.28-1.91.18c-1.07.1-2.07.1-3.14-.04l-1.38.13-2.49-.32c-.29-.04-.94.08-1.24.09l-4.05.08c-.36,0-.7.25-3.41.25h-10.81s-1.49.17-1.49.17l-2.77.13c-.58.03-1.49.22-2.09.36l-1.9.43c-.45.1-1.1.25-1.54.26l-2.59.09c.14.41.35.89.58,1.3l1.48,2.7c.25.45.71,1.79,1.26,1.68,1.04-.2,2.11-.49,3.12-.78,1.14-.33,2.36-.12,3.57-.17s1.71-.62,5.67-.56c.82.01,1.71,0,2.43.26l1.93.69c1.54.55,2.8-.78,6.02.01l1.98.49c.67.17,2.08-.07,2.84-.27,4.08-1.04,2.21.11,4.57-.08l2.88-.24c1.01-.08,2.02-.19,3.02-.36l2.47-.4c.79-.13,1.55-.15,2.33.09.71.22,1.45.16,2.16.2,1.56.1,2.97.14,4.51.07,3.26-.14,1.06-.63,4.47-1.04.76-.09,1.56-.23,2.23-.25l4.73-.15c1.05-.03,2.42-.53,3.4-.27,3.58.96,3.89-.3,6.03-.57l3.84-.47c1.16-.14,2.24.17,3.31.66l2.42-.09c1.36-.05,2.73-.02,3.96-.25l1.63-.3,2.12-.4,3.13-.67c.5-.11.89-.2,1.37-.03,1.54.55.37-.36,2.46-.21,2.37.17,1.73-.75,3.19.6,1.32-.63,4.8-.49,4.53.47-.06.21-.44.6-.66.67l-2.55.83c-.93.3-3.75-.05-5.2.08l-2.58.22c-2.74.24-3.22-.33-5.06.81l-1.57.2-1.96.25-3.59.38c-4.22.45-3.83-1.18-8.43-.33-.82.15-1.97.98-2.77.99l-3.14.03-1.91-.12c-.73-.04-1.49.11-2.22.19-4.83.55-2.38-.43-5.68.07s-1.76.51-5.2,1.05l-1.69.27c-2.86.45-3.89-.03-7.28-.16-.57-.02-1.64.48-2.27.54l-1.89.18-2.26.27c-2.56.3-2.9.9-4.85.08l-2.42.14-2.62.19c-1.68.12-1.46-.85-4.94-.55l-2.19.19c-1.33.11-2.59.25-3.88-.11l-2.04-.57c-1.23-.35-2.15-.18-3.39.15l-1.71.45c-1.4.37-3.68-1.25-4.71.62.59.5,1.36,1.1,2.01,1.6l2.52,1.95c.9.7,1.6,1.36,2.7,1.83l1.98.85ZM294.85,483.65c-.03,1.38.1,2.83-.07,4.23-.11.88-.08,1.6.02,2.45.05.39-.09,1.15-.11,1.6l-.16,4.16c-.04.9-.19,1.88-.15,2.78.03.54.06,1.02.04,1.48l-.17,4.11-.18,2.82-.18,2.82-.18,3.04c-.09,1.41-.62,2.92-.28,3.61l.18.36c-.03.59-.06,1.67-.04,2.38l.02,1.51.07,1.61.05,1c.13,2.7-.15.5.02,3.02.08,1.22.1,2.54-.03,3.75-.09.81-.24,1.72.01,2.3l.64,1.45c.82,1.87,4.43,5.68,4.45,4.26v-.66s.04-3.13.04-3.13c0-.44.15-1.15.22-1.66l.24-1.74c.14-1.05.08-2.11.09-3.31.02-1.29.42-1.07.76-3.61.54-3.98,1.1-2.1,1.16-4.75l.09-.3.15-.49c.26-.88.79-1.76,1.43-2.18l.48.03c1.34,2.21,1.11,3.52.61,5.94l-.38,1.85-.77,3.91-.54,2.69c-.13.65,0,1.22.11,1.93.25,1.51.27,5.25.21,6.99-.01.38-.4,1.4-.12,1.66l1.14,1.07.84.82.97.97c.21.21.89.39,1.19.52,2.72,1.2,3.02.48,6.16,2.88-.1.13.09-.12.26-.34l.11-1.98c0,.08-.46-.62-.46-1.02v-8.82c0-.16.83-3.69.93-5.19l.12-1.72c0-.08.07-.41.1-.51l.31-1.2c-.29-.76-.05-1.56.37-2.18l-.13-.39c-.08-.24-.19-.83-.15-1.1l.22-1.79c.14-1.14.22-2.27.29-3.43.26-4.15-.1-2.53.03-5.31l.1-2.22.1-6.15c.01-.73.27-1.73.24-2.51l-.09-2.29c0-.07.1-.37.14-.43l.35-.47s.08-.32.08-.37v-.39c-.01-.09-.02-.2-.05-.43l-.07-.55c-.03-.25,0-.78.01-1.15l.1-2.57.15-3.64c.05-1.28.23-2.5.12-3.72l-.11-1.16c-.03-.29.14-1,.14-1.31l.03-4.68c.01-1.92.26.01.17-1.39-.02-.41-.1-1.25-.1-1.64v-1.3c.02-2.93.44-2.74.42-3.77l-.03-2.03c-.01-.75.11-1.63.02-2.37-.09-.8-.19-1.52-.09-2.25.15-1.12.05-2.08.05-3.19v-2.53c0-3.69.51-1.85.49-4.18l-.02-1.57v-2.34c0-1.4-.03-2.75.1-4.15.02-.24.06-.6.05-.78v-1.92c-.02-1.74.09.28.04-1.92l-.07-2.92-.08-2.06c-.02-.6.22-1.84.33-2.49.19-1.15-.35.1-.35-2.97v-1.42c0-.69.02-1.33.05-2.07l.11-2.15c0-.17.15-.66.15-.83l-.07-2.13c-.03-.75,0-1.34.25-2.08.57-1.68-.55-.09.06-2.4.33-1.26.11-2.41.4-4.85.09-.73.25-1.52.27-2.22l.16-4.15.19-1.97.16-2.21c.03-.37-.19-1.25-.19-1.69,0-2.13.31-4.1.46-6.19.09-1.34-.29-2.78.09-4.23.12-.44-.15-1.41-.17-1.89l-.14-3.19-.13-2.96c-.1-2.25-.25-4.46-.02-6.71l.35-3.52.06-1.11c.05-.98.05-1.93.03-2.91l-.02-1.21-.06-3.28c-.07-3.47.25-1.31.43-4.71l.2-3.66.16-4.72.13-1.63.13-2.84.08-1.46.37-3.07.1-2.4c0-.11.4-.29.5-.35l-.23-.33c-.07-.1-.15-.22-.18-.25l-.07-1.98c-.02-.48.11-1.33.19-1.91l.32-2.24c.31-2.16,0-1.42.24-2.28.78-2.71-.25-.72.76-3.71.3-.89.33-1.69.33-2.64,0-.8.29-1.78.37-2.52l.21-2.02.14-1.93c.21-2.88.63-3.32,1.03-6.41l.64-4.95.03-1.84.34-2.44c.18-1.27.59-2.38.65-3.63l.14-2.83.35-2.25.11-2.7.41-2.07c.12-.59.28-1.33.3-1.89l.15-3.3.24-2.56.6-3.6.14-2c.31-4.52.32-2.24.75-5.46l.39-2.93.23-1.72c.11-.84.18-1.7.25-2.53l.22-2.68c.07-.82.13-1.67.27-2.51l.4-2.29.47-2.82c.07-.43.08-1.14.26-1.49.42-.8.4-1.58.35-2.37-.03-.44.39-1.26.54-1.79.3-1.08-.05-2.54.12-3.57l.4-2.37c.53-3.12.35-3.55.81-6.42l1.06-6.5c.71-4.36-.05-1.94.56-5.37l.41-2.34.37-1.92c.12-.65.32-1.38.37-2.08l.26-3.69.24-1.63.46-3.61c.08-.61,0-1.34-.04-2.07-.02-.44.22-1.38.22-1.85l.03-2.86-.1-1.1v-5.27s.22-.92.26-2.23l.06-2.51.13-1.48.16-4.12.04-1.3v-2.11c.02-.32.01-.75.03-1.01l.12-1.79c.04-.59.24-1.36.4-1.9-.09-.24-.45-1.06-.42-1.42l.24-2.52.12-4.09.21-1.25.06-4.38.19-1.18.16-3.81.08-2.01.1-2.53.11-2.76c.02-.45.03-1.03.14-1.43.82-2.92-.3-.7.18-5.2.37-3.42-.15-1.88-.04-4.82.1-2.56-.7.32.03-3.57.16-.86-.04-1.81-.06-2.68l-.15-7.07c.1-.07-.08.06-.23.16l-.22.37s-.16.21-.2.26l-.28.32-.26.3-.26.3-.25.3-.24.28-.5.33-3.9,4.72c-.45.55-.9.96-1.07,1.44-.77,2.25-.36.28-2.14,3.25l-.75,1.26c-.34.56-.43,1.46-.58,2.06l-.44,1.76c-.08.33.47,1.19.47,1.53v6.88c.01,2.33-.41,1.3-.69,4.39-.1,1.11-.15,2.27-.04,3.38l.22,2.35c.25,2.66-.99,3.03-.95,3.95l.13,2.84.11,2.67c.08,2.09-.63,2.56-.83,4.3l-.44,3.81c-.13,1.13-.23,2.19-.29,3.34l-.15,2.58c-.02.36-.2.85-.36,1.25-.09.18-.13.28-.09.2l.55.42s-.07.29-.11.4l-.13.43-.13.4c-.02.06,0,.27,0,.39v.36s-.02.39-.02.39c-.07,2.22.38.23.04,3.57l-.06.58c-.08.81-.46,1.42-1.11,2.04-.31,2.43.4.24.05,3.87l-.12,1.28-.15,2-.31,3.31-.1,1.37c-.08,1.1-2.4-.95-2.44-.98-.1-.1.19-.64.17-.78l-.48-2.34.98-4.92c.14-.71.56-1.71.6-2.41.07-1.33.07-2.61-.04-3.87-.51-5.59.14-2.44.12-5.14l-.07-9.63c0-1.07,1.62-.82,1.06-7.29l-.23-2.59c-.24-2.76,1.13-2.64.8-6.67l-.21-2.57-.05-2.21c-.02-.77.67-1.77.73-4.72l.05-2.53c0-.35-.17-3.07-.61-2.47l-.27.37-.96,1.3-.99,1.29c-.64.84-1.19,1.9-1.8,2.92-1.16,1.94-.9.08-.99,1.3-.05.6.18.92-.38,2.13l-.25-.13c-.16-.08-.4-.32-.72-.09l-.73.53c.95-.69-1.97.71-1.27.42-.11.04-.89-.03-1.03.92l-.68,4.63.17.68-.51,2.98c-.12.67-.27,1.26-.4,1.8l-.09,1.13c-.09,1.17-.13,2.26-.17,3.5-.04,1.35-.34,2.78-.47,4.15l-.22,2.33c-.31,3.24-1.67,5.09-1.02,8.33l-.39,2.23-.33,2.52-.73,4.24c-.31,1.81,0,1.69-.51,4.25l-.91,4.62v1.33s-.57,3-.57,3c-.16.8-.68,3.88-.71,4.35-.09,1.14-.23,2.8-.58,3.62-.11.26,0,.95-.03,1.18l-.34,2.28-.19,1.85c-.19,1.85-.51,3.67-.88,5.53-.19.94-.64,2.06-.59,2.95.18,3.04-.4,3.71-.75,5.68l-.39,2.18c-.16.89-.33,1.71-.39,2.62-.09,1.43-.37,2.68-.64,4.07-.32,1.64-.36,3.4-.56,5.09l-.24,2.03-.44,2.83-.27,2.23-.28,2.8c-.11,1.07-.3,2.08-.49,3.15l-.37,2.17-.11,2.14-.27,2.28-.46,3.07-.27,2.28-.13,2.42-.28,2.31c-.08.67-.47,1.79-.6,2.4,1,1.93-.5,2.04-.32,4.25l.18,2.32c.2,2.58-1.22,2.01-.71,5.71.17,1.23,0,2.48-.09,3.74l-.28,3.64c-.18,2.42.14,5.18-.45,6.93-.56,1.66.58.46-.27,3.19l.16,1.26c-.14.53-.32,1.2-.33,1.71l-.16,5.09-.04,1.9-.04,2-.08,5.46-.05,3.93c0,.59-.03,1.23-.12,1.83l-.32,2.25.14,1.95c.04.53-.26,1.27-.26,1.68l.04,4.64c0,.4-.1.97-.21,1.52-.15.76.23,1.84.21,2.5-.03.81-.23,1.83-.34,2.68-.23,1.8.44-.75-.14,3.41-.05.39.21,1.28.21,1.65.03,2.19.03,4.22-.06,6.36-.1,2.47.2,2.54.09,5.09l-.17,3.67c-.05,1.08.21,1.46.05,2.6-.45,3.13.24,1.41,0,3.94-.07.7-.07,1.27-.05,1.91l.04,1.01.05,1.95.07,2.52.07,2.52.05,2.22.04,1.44.06,1.67c.07,1.86-.07,1.92-.02,4.21l.11,5.25.03,1.98-.18,3.04.05,4.99c.01,1.13,0,2.26-.11,3.39l-.21,2.08c-.04.4-.03,1.09-.01,1.53l.12,2.56c.04.86-.19,1.92-.22,2.77l-.15,4.45c-.02.67-.01,1.31,0,1.99l.16,6.9.1,1.72.1,2.53.21,5.1c.02.49-.02,1.4-.03,1.84,0,.1.2.37.17.46l-.18.47.1,2.18.21,2.54.11,6.4-.02,1.72c0,.61.13,1.4.25,1.88-.07.31-.24,1.02-.26,1.39l-.13,2.54v1.41s-.04,1.76-.04,1.76l.04,2.67-.06,2.66-.1,4.1-.06,2.34ZM16.62,550.71c1.63-1.27,1.26-.5,1.62-1.73l.27-.92s-.15-.39-.15-.42l.1-3.97c0-.27.03-.53.02-.62l-.09-.54-.15-.41c-.03-.09-.14-.38-.15-.44l-.38-2.88c-.14-1.08-.09-2.15-.14-3.32-.04-.95-.39-1.34-.46-3.04l-.17-4.14c-.13-3.15.87-1.1.16-2.6-.15-.33-.38-1.01-.37-1.32l.08-1.72c.11-2.51-.18-2.7.01-5.26l.11-1.44c.21-2.82,0-1.71-.1-4.74-.04-1.12-.07-2.26.13-3.38l.43-2.49c.21-1.23-.37-2.11-.26-3.05l.27-2.23c.09-.77.18-1.51.22-2.26l.1-1.93.09-1.78c.04-.79.05-1.59-.02-2.38-.24-2.88.59-1.1.13-3.55-.34-1.79,1.23-2.58.53-2.95l-.45-.5c.08-.35.13-.54.13-.62l.02-.55.02-.54c.03-.82.72-.98.32-1.26-.37-.26-.44.12-.19-.68.96-3.1-.24.2.39-2.87.13-.62.17-1.22.2-1.85l.1-2.3.02-3.73-.12-1.32.1-2.49.19-2.82.15-2.49c.06-1.01.17-2.03.29-3.03l.28-2.23c.16-1.29.2-3.45-.08-4.62-.02-.09.12-.5.13-.61l.21-2.09.26-2.2c.01-.11.2-.55.25-.65l.1-.26c-.08-.18-.13-.33-.16-.37v-3.71c0-.53.35-1.48.55-2.05-.47-2.81.1-1.64.2-4.08-.42-2.78.32-1.3.61-5.66l.18-2.76.17-2.55c.05-.77.15-1.45.31-2.21.1-.48.09-1,.16-1.52l.47-3.35.16-1.85.15-1.9c.25-3.33-.21-1.45.28-3.52.15-.65.35-1.51.38-2.12l.17-2.78.11-3.09.03-1.97c.07-4.71.75-.64.34-6.41-.3-4.22.38-1.73.33-4.53l-.11-6.1-.05-2.19-.23-3.39-.11-1.94-.14-2.54.05-2.35c0-.32-.27-1.04-.18-1.36.64-2.06-.03-1.57-.17-4.65-.03-.72-.13-1.61-.1-2.2.21-4.31,0-2.2-.21-6.13l-.12-2.37c-.11-2.09-.03-3.37.25-5.39.22-1.55-.22.61-.32-2.68l-.09-2.76-.06-1.35c0-.9-.04-1.72-.07-2.63l-.21-6.32c-.12-3.43.1-2.6-.09-5.79-.23-3.81.52-2.27.38-3.29l-.3-2.31c-.47-3.57.7-2.22-.19-5.53-.06-.21,0-.75,0-1.03l.02-7.47.26-1.25-.09-4.87-.04-1.79c-.03-1.59.16-1.97.08-3.08l-.14-1.93-.17-4.96-.25-2.82-.11-2-.31-3.72c-.09-1.1-.13-2.36.06-3.39l.28-1.51c.1-.55-.05-1.34-.08-1.99l-.17-3.61.12-2.52c.16-3.31-.9-1.79.14-6,.4-1.6-.17-1.92-.18-4.89l-.02-7.56.06-2.87.03-3.8-.24-1.92v-2.04s-.04-2.23-.04-2.23c0-.59.03-1.31.07-1.91.08-1.09,0-2.04-.02-3.13l-.16-11.07-.08-2.2-.04-1.29-.1-2.77c-.07-2.08-.22.55-.24-1.6-.01-1.18-.03-2.41-.12-3.58l-.16-2.04c-.2-2.57-.38-2.09-.35-3.62l.1-5.02v-1.72s-.08-6.06-.08-6.06l-.21-1.22c-.26-1.5,0-3.37-.12-4.92l-.19-2.56-.19-2.56-.13-3.53-.24-1.27.04-8.54c0-.63.25-1.58.32-2.2l.26-2.31.3-3.59c.1-1.18-1.5-.76-1.29-1.89.14-.78.36-1.32.62-1.68.33-.24.47-.34.42-.31l-1.62-1.03c-1.45-.92-1.02.19-2.26-1.36-.18-.22-1.05-.33-1.3-.49-2.28-1.46-2.44-2.56-2.69-1.36l-.26,1.23-.42,2.04c-.02.08.05.53.05.62l.02,2.57c0,.36.11,1,.18,1.41l.39,1.98c.08.39.09,1.21.21,1.58l.78,2.29c.2.59.32,1.83.28,2.43l-.15,2.6c-.2,3.52-1.57.57-.22,5.02l-.15,1.27c.17.99.29,1.89.28,2.86v4.51c-.01,1.82.24,2.65.35,5l.13,2.76c.02.45-.15,1.41-.26,1.88-.08.38-1.22.88-1.51.63l-1.12-1.07-.82-4.83c-.18-1.08-.41-2.16-.48-3.27l-.2-3.14c-.04-.59.41-1.64.4-2.17l-.06-2.98-.33-1.77c-.25-1.35.23-2.77.77-4.05.36-.85-1.09-1.15-.87-1.39.08-.09.37-.36.41-.48.16-.41.36-1.43.25-1.9l-.68-2.9-.56-2.58c-.23-1.05-.37-2.1-.42-3.17l-.11-2.03c-.15-2.87.41-3.71,0-6.24-.21-1.32-.41-1.9.8-2.85.08-.07-.24-.3-.3-.4l-.76-1.25c-.61-1.01-1.44-1.98-1.95-2.98l-.83-1.66c-.05-.1-.29-.42-.35-.51s-.19.17-.2.27l-.1,1.36c0,.06.05.38.05.47l-.02.39c-.15,3.32,0,4.3-.56,7.41-.16.88.36,2.23.08,4.88l-.3,2.82c-.42,3.94.15.75-.1,4.29-.17,2.36-.25,5.53.48,7.71l.02,7.95c0,.97-.48,2.01-.17,3.07.14.49.39,1.41.39,1.9v4.71s0,1.68,0,1.68l.14,6.32.07,1.63c.04.99-.06,1.96-.02,2.97l.11,2.49.08,3.51c.02.7-.34,1.89-.29,2.53.07.93.07,1.78.15,2.82l.09,1.11-.04,2.89c0,.41.04.85.09,1.21l.39,2.89c.05.39.26,1.07.28,1.43l.08,1.72.1,2.04.22,1.24.04,2.85.08,3.08-.02,1.11.07,3c.06,2.76-.2.09-.03,3.52l.13,2.44c.07,1.29.96.83.32,1.92-.06.1-.38.55-.37.66l.23,2.98.14,3.04c.13,2.75.43,1.55-.02,3.45-.75,3.23.1,2.1-.67,6.05-.11.57-.08,1.15-.04,1.83.05.76-.41,2.08-.3,2.77.2.95.38,1.57.15,2.44-.21.8,0,1.57,0,2.29l.06,4.4c0,.46.08,1.19.05,1.57l-.18,2.34c-.3,3.97.57,4.78.66,7.53.11,3.56-.57,3.25-.27,8.07.04.66.11,1.39.01,1.98l-.3,1.75c-.21,1.22.97.75.81,1.84l-.25,1.65c.32,1.18.52,2.47.54,3.67l.05,2.39c.02.92-.18,2.02-.28,3-.16,1.53.11,3.09.07,4.66l-.06,2.3c-.04,1.41-.09,2.77.09,4.18l.18,1.36c.16,1.22.09,2.38.11,3.6l.04,2.04c.01.65.39,1.8.33,2.39l-.34,3.37c-.12,1.23,1.02-.31.87,2.82,0,.18.1.64.12.84l.28,3.35.25,3.51c.03.38.13.97.08,1.44-.27,2.51.26-.05.25,2.25,0,1.74.58,4.66-.12,6.27-.57,1.31.51-.83-.01,2.25-.08.45.12,1.12.18,1.68.08.78.02,1.68.04,2.45l.07,2.83c.02.81.26,1.69.35,2.47.08.69-.11,1.74-.09,2.53l.06,2.03c.02.54-.04,1.23-.09,1.88-.22,2.76.39,1.02.23,4.23-.05.98-.34,2.42-.18,3.25.21,1.12.69,2.21.61,3.41l-.17,2.69c.08.27.37.99.38,1.26l.12,4.11.16,2.62c.02.3.04.73.04,1.05l-.05,4.79c-.01,1.04.1,2.04.27,3.1l-.21,1.59c1.11,4.45.06,4.5.35,9.57.12,2.04-.89,2.44-.18,6.99.31,1.98-.3,1.37-.21,3.31.04.84.03,1.52,0,2.29l-.09,2.57-.05,2.15.02,1.91c0,.57-.02,1.16-.07,1.76l-.19,2.19c-.03.37.17,1.22.21,1.56-1.49,3,.03,2.35-.64,5.46-.14.67-.02,1.49-.05,2.19-.12,2.27-.42,4.39-.59,6.64l-.19,2.45-.27,2.86-.1,1.41c.79,2.29.12,1.16.09,3.61l-.05,4.56c0,.54-.43,1.63-.39,2.14.06.84.06,1.57-.02,2.39-.12,1.21-.05,2.58-.29,3.69-.68,3.22-.27.06-.17,4.01.09,3.62-.08,3.52-.11,6.82,0,.64-.1,1.44-.14,2.12l-.12,1.8-.24,3.53c-.05.75.16,1.61.18,2.29.04,1.47-.4,3.05-.45,4.56-.03.97-.31,2.05-.49,3.03-.1.54.25,1.7.18,2.23l-.36,3.02c-.32,2.67-.38,1.22-.36,2.78.08,7.29-.31,3.58-.6,7.23l-.19,2.42c-.09,1.17-.2,2.03-.16,3.23.08,2.24-.61,1.21-.23,5.6.12,1.33.1,2.74.08,4.15,0,.38-.42,1.24-.35,1.61l.3,1.73.24,2.56c.28,2.99-.87,3.53.94,4.97l.03,3.89c0,.71.15,1.46.33,2.23s-.09,1.48,0,2.35l.33,3.22-.13,2v4.21s1.95-2.26,1.95-2.26c.64-.75,1.19-1.83,1.98-2.4,1.01-.73.72-1.41.39-2.48-.2-.64-.13-1.78-.11-2.64.05-2.62-1.24-1.51-.78-3.81.58-2.87-.6-3.5.08-6.08.86-3.29.1-1.06.52-3.69.6-3.83-.49-2.32-.31-5.31,1.25-1.69-.27-1.99,1.74-2.87l1.27,1.92-.05,1.43c-.04,1.15.14,2.37.39,3.53.1.44-.47,1.35-.47,1.81,0,.84.13,2.28,0,3.16-.45,2.92.17,1.53.17,4.27,0,3.92.5,1.16,1.25,5.58l1.9-1.48ZM129.68,278.18l-.22,2.25c-.09.97-.67,4.92.91,4.66,2.47-.41.67.13,3.76.29l3.27.17,3.37.27,2.82.66,2.63-.34c.77-.1,1.48.15,2.11.07l2.18-.24,2.81-.28,1.7-.16,3.02-.35,2.02-.23,1.85-.43c.95-.22,1.92-.11,2.86-.11,1.06,0,2.22-.11,3.24.09.63.12,1.1.18,1.67.13l2.38-.2,3.64-.31c2.49-.21.56-.33,3.81-.85l2.6-.42c.34-.05,1.09,0,1.4-.11,1.79-.63.83.74,2.62-.08l1.98-.92,1.18-.33,2.27-.56,2.19-.5c.71-.16.24-2.15.51-1.31l-.7-2.22c.19-1.22.35-2.33.1-3.42l-.43-1.86-.27-1.13c-.47-1.94.45-.32-.31-2.15-.26-.62-.44-1.09-.65-1.7l-.64-1.88c-.13-.38-.87-.95-1.16-1.29-1.64-1.97-1.65-.77-3.43-1.28-.98-.28-2.22-.38-3.24-.46l-1.6-.86-.92-2.5-.12-2.11-.94-1.75-1.49-7.49c-.15-.73-.24-1.47-.35-2.22l-.32-2.19-.6-3.36-.52-2.8c-.58-3.09.94-2.97-.41-4.57-.47-.56-.45-1.23-.47-1.93l-.05-1.61c-.02-.62-.08-1.56.12-2.05,1.1-2.62-.7-1.03-.35-4.01.06-.49-.37-1.55-.37-2.08v-3.92c-.02-2.6.04-1.9.43-4.33l-1.13-.86-.28-1.65-.4-2.08c-.04-.22.17-.94.22-1.18-1.67-2.86-.38-7.38-.43-7.56l-.43-1.72c-.43-1.72.51-2.79,1.35-5.04l.62-1.66c.26-1.23.67-2.72,1.44-3.7.29-1.09,2.38-2.95,3.13-3.56.26-.21,1.2-.38,1.51-.47l2.03-.57c2.92-.82,5.38-.91,8.49-1.58l2.44-.53c1.42-.31,2.98-.66,4.29-1.45l1.66-.99,1.82-.8c1.45-.63,4.49-.21,8.07-1.99,1.17-.58,2.3-1.14,3.55-1.45l2.25-.56c1.34-.34,2.86-1,4.04-1.79.22-.14.86-.07,1.18-.09,3.88-.29,3.13-1.03,5.22-1.29.94-.12,1.59-.34,2.48-.6.74-.22,1.77-.28,2.61-.47l1.51-.34,1.46-.38,3.52-1c2.6-.74,1.53,1.04,3.98-.19,1.15-.57,2.15.69,4.26.3l1.41.41c1.6.46,1.98,1.01,3.3,2.2l1.21,1.91.96,1.52c0,.24-.02.96.09,1.19l1.04,2.21,1.05,2.28c.23.51.36,1.67.48,2.31l.36,1.97c.24,1.31.37,2.64.92,3.87l.82,1.81c.4.87.53,1.67.9,2.47l.96,2.13c.11.24.32.85.4,1.09.33.47.84,1.13,1.07,1.59l1.42,2.82c.54,1.07.91,2.9,1.08,4l.55.83c.22.61.6,1.6.74,2.16l.42,1.72.17,1.81c-.05-.51,1.58,8.79,1.41,8.19l.53,1.88c1.07,3.81.42,4.26,1.19,7.7.58,2.62.12,2.18.66,4.14.17.61.35,1.28.37,1.84l.06,1.99.43,2.77v2.28c0,1.37.42,2.62.74,3.97.19.82.27,1.8.39,2.75.29,2.28.99.69,1.04,3.56.02,1.41.26,2.66.5,4.02,1.08,6.06,1.74,1.82,1.57,7.64.55,1.5,1.15,3.15,1.57,4.73l.54,2.01c.12.44.53,1.18.78,1.66.82,1.56,1.92.49,5.18,1.25,1.28.3,2.38.16,3.72.08,1.15-.06,5.06.79,4.81.8l3.42-.09.45.96.59.02.09-.47c.72-3.64.27-2.14.61-4.7l.34-2.53.51-1.74.16-1.95.1-1.88c.21-4.1.7-3.51,1.06-7l.29-2.82c.09-.82.35-1.67.52-2.55.15-.77.05-1.86.16-2.67l.26-1.98.54-3.66.29-1.97c.02-.16-.05-.67-.01-.83l.38-1.54.18-.73c.12-.49.23-1.06.3-1.61l.32-2.47.25-2.02c.13-1.04.29-2.07.48-3.1l.3-1.6.09-.67-.16-.26.36-1.02.06-2.78c0-.26.32-.95.36-1.23l.63-4.45.38-1.93c.12-.6.17-1.3.25-1.9l.34-2.56.34-2.49,1.03-6.22.45-2.8.3-2.23.22-1.98.27-3.42c.07-.89.4-1.89.5-2.78l.62-5.65.2-1.56.4-3.04.12-2.72.28-2.84.71-4.75.27-2.82.27-2.77.27-2.83.16-2.44.31-3.07-.29-.39c-.48-.06-.93-.15-1.24-.16l-4.71-.12c-.57-.01-1.14-.03-1.7,0l-3.32.14-1.6.08-1.6.03-2.93.28c-1.08.1-2.06-.07-3.11.02l-2.51.21-1.41.1c-2.2.16-4.92-.14-5.22-.11-.86.09-1.76.07-2.63,0l-2.17-.18-4.2-.27-1.29-.04-2.38-.03-3.98.16-3.01.06-3.33.06c-.67.01-5.19-.4-6.04-.54-1.04-.17-2.11-.47-3.08-.51-.62-.02-1.28,0-1.85-.1l-3.56-.6-2.52-.33c-.55-.07-1.17-.14-1.67-.17l-1.96-.11-2.16-.33-3.15-.15-1.95-.1c-.49-.02-1.23-.19-1.63-.26-1.53.5-2.54.09-4.99.1-.58,0-1.16,0-1.73-.07l-1.65-.17c-1.18-.12-2.21-.03-3.4,0l-4.44.14-1.93.07-2.58.06-1.63.03c-1.06.02-2.08.06-3.13.03l-1.64-.05-1.09.07-6.71.07c-.39,0-.99.07-1.38.11l-2.22.21-2.54.2-2.53.16c-.51.03-1.15.07-1.66.08l-5.9.05-1.48.26c-.97.17-2.59,0-3.69.11-1,.09-1.71.12-2.7,0-.63-.08-1.49.05-2.16.05-.95,0-1.89-.06-2.82.04l-2.45.25-2.07.15c-.85.06-1.82.1-2.7.06l-1.96-.09c-1.02-.05-2.06,0-3.03.07l-2.55.21-2.27.19c-1.63.13-3.31.09-4.96.04l-1.01-.03c-.53.09-1.03.14-1.58.19l-3.3.32-3.66.31c-1.15.1-2.36.04-3.48.01l-2.43-.07c-1.53-.04-2.18.76-4.71.28-.23-.02-.8.05-1.08.07l-3.55.16-1.77.08-1.65.3-2.54.3-2.25.27c-1.18.14-2.64-.04-3.79.2-.87.18-1.7.43-2.53.51l-2.82.27-1.84.18-1.54.24-4.19.28-2.75.15-2,.18-2.24.23-8.34.15-2.8.26c-2.48.23-1.21-.05-3.99.11l-3.78.21-1.74.09c-1.04.05-2.02-.03-3.14-.06-.88-.02-2.01.14-2.97.2l-1.46.09c-.48.03-1.14-.08-1.68-.06l-1.82.07-2.08.12-2.27.21c-3.9.35-3.1-.47-5.66-.05-1.85.3-5.44-.53-9.33-.04l-4.22.53-2.45.32c-.45.06-1.18.93-1.45,1.29-1.07,1.42-2.26.55-2.36,1.35l-.11.82c-.36,1.31-.52,2.56-.71,3.95l-.4,2.83-.28,2.01c-.07.48-.32,1.42-.26,1.83l.28,2.25.13,1.71.15,1.9.19,2.53.11,2.3.04,1.96.08,2.17.26,3.43c.09,1.18.14,2.5.14,3.79v2.41s-.02,3.77-.02,3.77c0,2.67-.45-.71.06,2.74.48,3.28-.2,1.57.24,5.34.1.86.19,1.69.22,2.54l.08,2.45.07,2.08.02,2.14.05,1.46.09,3.9.04,1.95c.02,1.04-.09,2.09.15,3.13.33,1.41.24,2.69.19,4.12l-.06,1.75-.04,5.09.06,2.66c0,.22.25.82.23,1.02l-.25,2.65c-.1,1.07.1,2.21.17,3.32.26,3.64-.34,2.16-.06,5.38.29,3.44-.06,4.18-.02,7.08,0,.68-.07,1.38-.08,2.09l-.09,4.73-.12,4.16c-.03,1.17.14,2.26-.05,3.45s-.06,2.39.16,3.55l.15.8c.02.12.66.09.77.04l2.22-1.03c.31-.14,1.23-.1,1.56-.18l4.9-1.23c1.81-.46,2.84-.47,4-.78l2.01-.53c1.89-.5,3.46-.61,4.83-1.23l1.96-.88c1.85-.83,1.37-1.6,2.68-2.91l.43-3.76.25-2.56c.15-1.58,1-3.5,1.02-5.86l.09-8.9c0-.25.12-.91.14-1.14-.09-1.04-.1-2.04-.1-3.07v-1.68c0-1.01-.11-1.78.68-2.64l-.35-1.6.63-3.61c.09-.53.07-1.2.13-1.82.16-2.02.83-.74,1.26-2.76.13-.62-.03-1.39-.15-1.86l.23-1.63.58-3.43c.13-.78.47-1.3,1.34-1.82l-.56-1.61c1.27-1.43.07-1.44.63-5.31l.13-.91c1.45-2.79-.03-2.17.33-3.33.18-.57.36-1.72.35-2.34l.12-.79c-.15-.78.29-4.48.6-4.84l.64-.77c-.21-1.07-.26-2.3-.03-3.35l.48-2.27c.14-.65.78-3.08.78-3.05v-1.91c0-1,.85-3.17,1.55-3.97,1.02-1.17,1.92-2.45,3.03-3.4l2.58-2.2,1.51-1.33c.43-.38,3.68-2.48,4.4-1.84.25-.06.83-.29,1.07-.41l2.12-1,2.28.36c3.09-.65,1.8.43,5.93-.01,2.07-.22,1.18.66,3.55.48,3.5-.26,1.41.39,4.28.47l2.01.05c4.37.12.61.61,5.6.31l3.82-.23c.78-.05,1.51-.03,2.31.03l2.72.22,3.14.17c1.6.09,5.68.44,6.92.69s2.35.75,3.7.69c.86-.04,1.9.32,2.61.64.32.14,1.17.2,1.52.32.76.28,1.93.89,2.78.95,1.14.08,1.77.29,2.73.65.74.28,1.67.48,2.47.7,2.35.66,1.1.11,2.85.69l3.21,1.06,1.55.54c1.2.42,2.16,1.48,2.87,2.55l1.15,1.74c.3.45.47,1.26.55,1.87l.25,2.04c.1.79.04,1.83,0,2.72l-.1,2.57c-.02.54.28,1.57.33,2.19l.22,3.05c.03.35.08,1.06.04,1.36l-.4,3.45-.3,2.51c-.07.55-.11,1.24-.21,1.74l-.89,4.44c-.15.77-.29,1.59-.4,2.36l-.67,4.87-.06,1.92-.26,2.56c-.11,1.11-.42,2.02-.79,3.12-.17.49-.15,1.31-.36,1.93l-.57,1.68-.24,1.94-.31,2.49c-.08.62-.18,1.34-.2,1.9l-.08,2c-.06,1.36-.08,2.76.06,4.08.11,1.01.21,1.98.02,2.93l-.51,2.59-.35,1.98c-.23,1.27-.42,2.4-.02,3.7.57,1.87-.86,2.84-2.45,3.81l-1.95,1.19c-1.01.62-2.04,1.13-3.18,1.56l-2.61.98c-.85.32-.78,1.09-.84,1.81l-.29,3.99c-.09,1.31-.06,2.45-.19,3.67l-.22,1.99ZM90.37,434.48c-.36-1.78.4-.96-.2-1.98-1.65-2.79.06-2.13-1.39-4.2-.49-.7-.98-1.56-1.57-2.06l-1.98-1.67c-.17-.14-.47-.37-.59-.52l-1.31-1.77-.88-1.08-1.34-1.75-1.85-2.28c-1.82-2.25-2.12-1.51-2.66-2.94-.05-.13.16-.69.27-.78l.76-.6c.97-.77,3.51.4,4.29,2.08.03.06.25.33.29.36l.37.27c.29.21.65.85.93,1.22l1.7,2.16c.08.1.34.32.5.48,1.16,1.08-.31.3,2.49,2.43.09.07.27.21.29.25l.13.48c.09.33.55.93.84,1.07l1.87.97c.26.14.89.43,1.16.47l2.41.4c1.42.24.57.91,2.09.59s1.71-.04,2.09-.61c1.29-1.96.98-1.49.7-3.96l-.23-2.04c-.16-1.46-.5-2.82-1.11-4.18l-.61-1.38-.83-1.8c-.07-.16-.3-.49-.4-.58l-1.18-1.08c-.67-.61-1.41-1.25-2.13-1.78-.59-.43-1.32-.81-1.64-1.36l-.56-.95c-.41-.7-1.34-.33-1.83-.74l-2.23-1.85-2.29-1.97c-.31-.27-.69-.77-1.02-1.18-1.77-2.24.15-1.51-1.88-3.1l-.95-.75c-1.29-1.01-.71-2.57-.22-3.15,1.87-2.22,2.11-.2,4.96-1.24,2.54-.93,2.15-.43,3.88-1.19,2.25-.99.48.17,2.91-.73.4-.15.89-.26,1.26-.3l1.62-.15,2-.25c1.07-.13,1.1-2.18,1.08-2.91l-.09-3.1c-.06-2.1,1.14-.89.81-3.09.04-.16.34-.86.34-1.11l-.06-2.98c-.07-3.14.66-3.21.86-5.63.37-4.44,1.41-2.47,1.33-3.43-.01-.14-.06-.55-.06-.7l-.02-1.73v-1.66c0-.07.14-.38.18-.45l.17-.35s-.04-.34-.04-.39l-.09-2.69c-.04-1.3-.27-.19,0-1.62l.48-2.49.28-1.44,1.06-1.03c.12-.63.28-1.49.29-2.02l.02-1.05.05-2.77s.01-.17.02-.3c.13-1.81-.33-2.01.47-4.12l.2-.52c-.23-1.02.16-2.18.89-2.96,1.45-1.57.38-1.42,1.54-3.37l.89-1.5c.12-.21.29-.66.42-.96l.65-1.49c.37-.84,1.79-1.78,2.33-2.15l1.82-1.29c2.44-1.73,5.05-2.43,7.68-3.53,1.47-.61-.42-.27,3.57-1.45.25-.07.89-.3,1.13-.25l2,.39c1.4.28,2.92.05,4.34-.09l2.34-.23c.91-.09,2.55-.05,3.6.05l2.66.25c1.01.09,1.9.09,2.94-.02.88-.1,1.84-.05,2.72-.06,6.42-.03,4.89.87,6.66,1.04,1.07.1,1.71.33,2.56.89,1.32.88,1.17.04,2.25,1.04l1.02.95c.49.73,1.03,1.3,1.8,1.9l.62,1.63c.99,2.6-.03.5.83,4.16.4,1.7-.02,5.91-.29,7.94-.07.57-.05,1.61-.19,2.08l-.59,1.86-.28.16.07.49c.06.38-.01,1.13-.11,1.6l-.58,2.81-.52,2.85c-.08.43-.3,1.16-.32,1.56l-.17,3.23c-.05.94-.74.09-.57,3.2l.19,3.56c.04.73.13,1.49.22,2.25l.18,1.71c.06.52-.53,1.66-.43,2.17l.48,2.58c.19,1.04-.18,2.25-1.11,2.66-2.82,1.24-.93.84-4.07,1.95-2.2.78-1.92.59-3.92.79l-1.51.16c-.12.01-.44.07-.44.16v.44c.02.88-.6.54-1.02,2.92-.31,1.73-1,5.53-.83,6.99l.1.91v1.28c1.13.41,2.56.7,3.87.73l2.28.05h1.03s1.31.47,1.31.47l1.6.57.94.33.19.49c.02.06.43.14.55.18l1.81.51,3.67,1.04c.23.06.93.23,1.13.12,1.3-.68,3.09-1.94,4.24-2.85l1.32-1.04c1.01-.8,1.61-1.11,2.64-1.53l3.56-1.46,1.92-.56c.42-.12.86-.4,1.14-.48l1.38-.38,2.68-.73c2.72-.74,3.66-.09,5.83-2.04-.72-2.77-.61-1.13-1.62-4.06-.21-.6-.55-1.08-.78-1.71l-.67-1.84c-.29-.8-.87-1.37-1.22-2.13l-1.12-2.42c-.31-.68-2.69.03-2.9.11-1.53.63-3.43.31-4.76-.6-.36-.25-1.97.13-1.6-3.48l.17-1.68.19-2.06c.07-.79-.26-1.74-.46-2.59-.28-1.17.03-2.56-.03-3.73l-.1-2-.12-2.5.02-1.9-.19-2.5c-.02-.3-.16-1.01-.27-1.3l-.74-2.04c-.22-.61-.37-1.37-.4-2.03l-.1-1.98.44-.58.08-.5-.44-.27s-.31-.33-.32-.38l-.85-3.2c-.01-.05.24-.49.27-.54l.25-.33c-.2-.57-.46-1.38-.46-1.97l.02-2.89c0-.78.06-1.68.28-2.49l.35-1.31.72-3.14,2.35-2.84c.13-.15.49-.31.73-.37l1.85-.54,2.31-.62,1.77-.45c.54-.14,1.47-.49,1.87-.78l1.19-.87c.35-.25,1.01-.43,2.23-1.03l2.07-1.03.55-.26c3.07-1.46.64-.67,2.53-1.46l1.98-.84c2.02-.85.18-.42,1.86-.84l1.98-.49c.26-.07.98,0,1.27,0l2.35-.05c1.86-.04,3.78-.69,5.69-.23,1.16.28,2.25.39,3.46.45l2.83.13c2.13.09,3.81.41,5.84,1.29,1.65.71,1.79,3.42,3.04,4.69,2.55,1.87.53,2.05,1.99,4.15l1.18,1.7c.26.37.59,1,.74,1.43l.79,2.3c.15.45.03,1.6.14,2.06l.36,1.53c.38,1.62.44.6,1.12,2.92.38,1.29.45,2.62.63,3.91l.37,2.66c.04.25.24.72.36,1,.33.82.58,1.65.85,2.57.19.64.79,1.67.87,2.27l.32,2.28c.12.9.25,1.77.43,2.64l1.01,4.9c.2.98.29,2,.4,3l.29,2.6c.15,1.34.99,3.23.9,4.34l-.17,2.06c-.22,2.71-1.09,1.67.35,6.27l.9,2.88c.31.99,1.17.71,2.16,1.25l.42.23c.73.4,1.5.84,2.03,1.32l1.05.98c.31.29.69.6,1.04.88l1.57,1.26c2.62,2.11.89,2.56,2.39,3.42.46.27.88.7,1.08,1.15,1.02,2.28,1.44,1.24,2.65,2.02l.92.59c1.49.96,1.14.25,2.07,2.12.51.48,1.09,1.14,1.12,1.74.03.71-.4,1.41-.87,1.89l-1.56,1.59c-1.04,1.05.35.01-1.3,1.72l-1.53,1.59-1.23,1.28-.67.49-1.42,1.56-1.08,1.18-1.5,1.63c-.25.27-.66.6-1.03.92-1.8,1.55-.38,1.37-2.22,2.75-.26.19-.77.58-.9.8l-1.16,1.94c-.57.95-.91,1.89-1.35,2.94l-.7,1.65c-.09.21-.03.77.03.97.04.15.53-.1.73-.19l2.39-1.09c.09-.04.15-.46.56-.71l3.28-1.98.39-.24c.53-.33.02.16.59-.51l.25-.3c.35-.41,1.38-1.1,2.33-1.86l1.24-1.01c.88-.71,1.75-1.4,2.68-2.07l1.8-1.3c.62-.45,2.17-1.04,2.71-.46l.67.72c.16.17.6.69.57.92-.06.49-.75,1.29-1.1,1.68-1.02,1.11-1.81,2.28-2.72,3.45l-2.08,2.68c-.67.86-1.26,1.71-1.89,2.61l-1.25,1.79c-.34.48-.71,1-1.05,1.43l-.99,1.24-.38.5c-.1.14-.34.41-.41.54l-2.54,4.61c.17-.31-1.27,3.47-.78,3.31l1.91-.8c.21-.09.63-.4.83-.54l1-.73c2.31-1.7,2.16-2.06,4.13-3.62s.36-.72,2.05-2.39l1.18-1.16c.12-.12.43-.41.53-.54l.84-1.06s1.71-1.75,2.68-2.98c.65-.82.91-1.57,2-1.86l.25-.07s.46-.03.49,0l.64.97.23.07.61.22c.06.02.1.47.1.54l-.03.48c-.09,1.2-1.9,3.02-2.6,3.85-.8.93-1.43,1.91-2.15,2.89-.84,1.16-1.18,2.23-2.33,3.17l-.19.15-.69,1.08-.67,1.15-.24.37-1.32,2.09c-.28.45-.72,1.08-.88,1.61l-.93,3.19c-.04.13.07.63.19.61l.59-.08s.2-.17.29-.25l.29-.27c.08-.08.22-.21.29-.26l.33-.24.32-.24c.1-.08.28-.23.35-.27l2.68-1.58c.12-.36.44-1.04.69-1.29l.34-.34c.39-.4.86-.9,1.25-1.2l1.47-1.15c2.23-1.75,2.89-1.49,5.43-3.71l1.82-1.59c.36-.31,1.57-.53,1.85-.15l1.02,1.36c.23.31.16,1.28.2,1.69.33,3.07-.27,1.07.03,5.47.06.85.12,1.7.3,2.56l.52,2.44.2.93.02.99.43,2.56.25,1.72c.27,1.81.84,3.86.84,3.91l.18,2.09.09,2.05.12,2.49.03.62c.1,1.98-.71.18-.04,2.72.52,1.97-.09,4.11.49,7.65.87,5.25-.26,2,1.34,7.18l.42,1.37.32,1.04.32,1.11c.37,1.27.86,1.73.01,2.79l.42.37s.12.26.13.3l.05.31c.08.53-.09.1.24.64l.21.35c.2.34.22.38.22.86v.58s0,.56,0,.56v.54c0,.29.16.62.27.87l.16.37.18.41.28.39c.32,2.12.76,4.15,1.57,6.09-.11.38.09.88.34,1.18.43,2.26.92,4.46,1.57,6.7l.96,3.32c.21.72.3,1.67.35,2.48l.27,3.94c.78,1.56-.1,1.61.08,1.87l.34.49c.38.55.23.13.1,1.49-.03.34.8.89.8,1.74v6.89c0,.35-.36,1.03-.1,1.15l.48.22c.05.02.29.1.39.13l.44.13c.07.02.47.04.55.06l3.46.94c.44.12,1.41-.39,1.42-.8.02-.88.09-2.19.16-2.94l.05-.48.07-2.23.1-3.04c0-.19,0-.49-.02-.73-.1-1.59.36-3.05.42-4.71l.19-5.45.3-2.5c.34-2.82-.06-.89.12-2.67.16-1.49.23-2.82.27-4.27l.05-2.06.08-3.14.16-2.73.12-3.35.04-2.9v-.86c-.02-2.66.48-1.09,0-3.93-.06-.37.12-1.15.13-1.57l.08-11.67.27-1.77c-.62-1.27.08-.72.04-2.24l-.08-3c-.07-2.81-.5-2.18-.17-6.06.06-.73,0-1.3-.05-2.03l-.16-1.92c-.12-1.43-.09-2.75-.04-4.16l.05-1.6c.02-.5-.02-1.07-.06-1.61l-.23-3.26c-.12-1.64-.01-3.18-.05-4.83l-.07-3.64.08-1.5c.02-.38.08-.86.07-1.13l-.04-1.04-.06-1.79c-.02-.53.09-1.24.1-1.81l.16-6.35.11-1.8.05-1.35.09-14.43.02-1.99-.15-6.07c-.01-.57-.14-1.3-.06-1.82.11-.72.27-1.56.25-2.12l-.09-2.3-.25-2.21-.09-11.15v-1.71s0-6.1,0-6.1l-.03-1.75-.02-1.85c-.02-2.03.25-2.77.21-3.39-.04-.76-.2-1.71-.2-2.41v-2.66s.08-2.13.08-2.13c0-.08.1-.46.1-.55l-.04-1.63.15-.47-.05-.4c-.02-.14-.05-.39-.05-.47l-.03-2.09c-.01-1.05.14.03.16-1.98v-1.25s.09-6.33.09-6.33c0-.81.6-1.94.51-2.82l-.2-1.89.22-3.06.05-.73v-1.42s-.09-4.36-.09-4.36c-.01-.73.18-1.57.39-2.27l-.21-1.29.2-3.09.06-1.97.06-2.22.09-2.55.2-2.53.19-2.49.11-1.7.16-2.49.13-1.95.17-2.76.08-1.51c.17-3.09.81-2.36.27-4.44-.05-.21.08-.8.09-1l.17-3.45.26-2.27.35-2.76.24-1.99.27-2.31c.12-.48.04-.43-.27-.07-.27.18-.45.27-.58.38l-.31.25-.3.25-.31.25c-.17.14-.65.27-.88.17l-.38-.18c-.57-.27-.04-.17-.58-.13l-.47.03c-.88.06-.19.11-1.04-.04l-.47-.08c-.14-.02-.32-.05-.44-.07l-.54-.07c-.15-.02-.46-.07-.55-.1-3.6-1.18-1.52-.15-5.91-.64l-1.95-.22c-.76-.09-2.07.45-2.72.5l-1.03.08c-.35.15-.98.35-1.21.17l-1.15-.89c-.12-.09-.28-.21-.29-.25l-.21-.68-.85-1.41c-1.89-3.13-.43-3.14-2.01-6.62-.36-.78-.97-1.86-.75-2.64.38-1.36.09-2.45-.62-3.49-.84-1.24.41-1.54-.88-3.87-1.42-2.57-.11-2.61-.6-4.13-.24-.75-.93-1.67-.94-2.24l-.06-1.78c-.11-3.43-.98-4.26-.79-5.2.17-.85.68-1.8.36-2.48-.48-1.01-.73-1.83-.76-2.92l-.06-2.43c0-.19-.36-.8-.38-.99l-.29-1.93c-.02-.12-.12-.54-.1-.6l.52-2.3c.33-1.47-.98-1.17-1.04-2.37l-.09-1.87-.05-1.35c-.04-1.19-.8-1.71-.91-2.92l-.26-2.92c-.07-.79-.31-1.71-.5-2.5l-1.21-4.97c-.21-.85-.1-2.34,0-3.23l.11-1.04-1.24-.43.02-.79c0-.15-.06-.64-.14-.76l-.9-1.34v-.91c-.01-.2-.58-.57-.7-.73l-.81-2.16c-.29-.77-.76-1.47-1.21-2.19-1.87-3.02-2.34-5.88-2.69-6.5-.9-1.57-1.47-2.91-1.86-4.65l-.92-4.07c-.51-2.26-1.15-1.06-1.75-3.34l-.53-1.23c-.67-2.37-.89-1.86-1.45-3.12l-.58-1.29c-.55-1.24-1.5-1.46-2.73-1.62l-2.91-.38c-.27.13-.49.24-.6.19-.08-.04-.41-.25-.46-.25h-.5s-1.98.05-1.98.05l-.48-.05c-.07,0-.3.1-.43.14l-.42.13-.43.13-.46.14c-.11.03-.33.07-.39.11l-.45.26-3.31.96s-.54-.15-.59-.14l-3.06.7c-.16.04-.37.1-.5.14l-2.37.76c-1.88.6-1.02-.45-2.77.2l-2.45.92c-1.29.48-2.68.85-4.03,1.26l-3.07.93c-3.3,1.01-1.64.56-3.73,1.55-.71.34-1.47.44-2.25.56l-1.83.29c-1.32.21-2.65.57-3.8,1.19l-1.15.62c-1.63.88-.34-.03-3.03,1.05l-1.68.68c-1.15.46-2.3.68-3.62.86-.39.05-1.14.47-1.55.58-3.71.94-4.01.19-8.22,2.46-1.28.69-.62.72-2.23,2.44-.22.23-.26.06.1.67-.18.72-.37,1.77-.66,2.42l-1.19,2.73c-.1.24-.25.93-.25,1.18v1.46c0,.42.28,1.22.39,1.76.16.8-.55,2-.62,2.98-.05.58.21,1.52.3,2.15.58,4.05-.29,1.65.74,5.89l.57,2.35c.38,1.58-.09,2.62.11,5.92l.14,2.3.11,2.02c.04.73.41,1.95.23,2.54-.82,2.69.14,2.27.33,6.36l.09,1.96c.07,1.5.74.94.56,3.94-.03.42.48,1.34.55,1.84.18,1.24.37,2.87.5,4.31.07.89.15,1.53.63,2.37.62,1.07.58,2.47.86,3.67l.35,1.47.42,2.1.33,1.64c1.15.84.61,2.61,1.61,3.56l1.16.68c.47.27,1.31.82,1.76.82l1.63-.02c1.78-.02.27-.32,1.6-.3,4.86.08,4.58-2.49,5.41-1.66.04.04.3-.32.98-.57l.47-.18c.1-.04.26-.11.38-.16l2.89-1.29.38-.16.32-.22.32-.22c.1-.07.27-.2.33-.22l.42-.15.48-.17c.96-.34,2.26-.41,2.8.53.42.73-1.17,1.9-1.77,2.2l-1.69.84-1.89.93-.36.17-2.5,1.21c-3.45,1.67-5.09,1.02-4,2.96.2.36.36.8.39,1.07l.15,1.52c.05.49.43,1.22.64,1.79.32.89.47,2.02.74,2.98,1.36,4.81-.34,2.12,1.63,7.74.13.37-.05,1.27.03,1.6l.34,1.5c.06.27-.25.95-.44,1.16-.86.99-1.91,1.24-3.16,1.41-1.13.15-2.21.37-3.32.38-.48,0-.95.02-1.31.12l-3.32.96c-.85.25-2.31-.03-3.19.15l-2.94.62-.85.18c-3.09.66-.9-.36-2.73.23-2.64.86-.86-.29-3.43.76-.81.33-1.52.29-2.44.24-.58-.03-1.79.3-2.32,0-1.06-.59-2.07-.72-3.26-.54l-3.63.56-2.6.33-.85.27-1.96.35-2.56.1-1.75.24-2.81.32c-2.5.28-4.96.64-7.45.41-1.97-1.29-2.88-.61-5.98-.72-1.88-.06-3.65-.07-5.56-.03-.99.02-1.3.66-3.31.08l-1.14-1.5c-.24-.31-.53-1.33-.46-1.75.57-3.66,1.52-1.85,1.19-6.52l-.1-1.51c-.07-.99-.14-2.08-.28-3.05-.63-4.35-.3-2.3-.25-6.37,0-.17,0-.48-.14-.5l-.53-.08-1.99-.27-3.91-.55c-.61-.08-1.86.52-2.46.62l-1.92-.49c-.23-.06-.66-.42-.63-.62s.43-.57.65-.62l2.05-.52c1.86-.48,3.86-.65,5.78-.5,2.23.17,5.81.23,7.99-.33.43-.11,2.28-1.01,2.89-1.53,1.12-.93,0,.52,2.67-2,.29-.28.67-.89,1.01-1.31.9-1.1-.22-.25.31-3.21l.24-1.33c.37-2.09.68-2.26.91-4.12-.08-1.05-.89-2.35-.72-3.35l.41-2.45c.18-1.08.36-2.08.5-3.15l.25-2.01c.06-.47.03-1.12.02-1.72,0-.51.45-1.41.62-2.01.86-2.99.43-3.68,1.17-5.31.33-.72.27-1.54.34-2.35l.16-1.98c.24-2.88-.52-2.68.06-3.69.2-.36.52-.87.56-1.15l.31-2.24c.06-.4.75-2.56,1.08-4.21.82-4.18.2-1.47.21-4.77v-1.36c.01-3.32.62-.34.27-4.99l-.21-2.73-.17-2.54-.13-2.55c-.02-.42-.12-.96-.19-1.43-.41-2.72.68-3.81-2.09-6.46-1-.96-2.41-1.43-3.63-1.95-2.75-1.16-3.08-.3-3.58-1.58-1.12.06-2.33-.15-3.54-.49l-5.3-1.46c-2.07-.57-.32-1.05-4.15-1.37-.67-.06-1.61-.03-2.05-.19-2.72-.96-1.45.71-3.25-.07-.61-.27-1.43-.74-1.9-.72l-1.61.05c-.6.02-1.22-.06-1.9-.13-3.65-.39-2.87.34-7.09.08-.66-.04-1.39.03-2.06.05l-4.47.09c-.67.01-1.56-.19-2.21-.22l-3.07-.14c-1.86-.09-2.56-.75-3.12-.63l-1.02.21c-.2.04-.69-.18-.94-.25-.33-.09-1.2.12-1.54.06l-1.91-.33c-1.11.48-2.02.37-3.24.25-1.07-.11-2.71-.1-3.81-.1-.72,0-.41.32-2.33.86-.58.16-1.32.76-1.81,1.04-.38.22-1.3.33-1.61.66l-1.28,1.38c-.69.74-1.54,1.49-2.1,2.3-1.74,2.52-2.75,2.74-3.37,5.82l-.57,2.83-.47,1.98-.96,4.69-.21,1.06c-.11.53-.26,1.17-.32,1.68l-.25,2.03-.24,1.94-.37,3.05c-.09.71-.18,1.42-.22,2.09l-.11,2.08c-.24,4.36-.53,3.67-1.16,6.97-.22,1.14-.83,2.56-.86,3.66-.04,1.29-.05,2.37-.33,3.63l-.35,1.54-.48,2.05c-.09.39,0,1.26-.05,1.66l-.34,2.86c-.11.89.02,2.11-.14,2.94l-.56,2.86c-.21,1.08-.11,3.86-.07,5.03.13,3.55-.19,2,.03,5.68.07,1.19-.02,3.8-.18,4.97l-.96,7.05-.3,2.27c-.23,1.69-1.1,2.99-2.09,4.34l-.75,1.02c-3.12,1.51-4.13,1.46-7.22,2.25-2.24.57-1.13.68-4.49,1.36-2.35.47-3.78.48-5.91,1.31-2.98,1.16-1.58.17-4.63,1.46l-1.4.36-1.55.79c-.43.22-.54,1.32-.48,1.85l.19,1.94.22,2.54.19,7.71c.02.95.09,1.73,0,2.67-.41,4.21.35,5.36.24,6.71l-.21,2.62c-.04.47-.05,1-.05,1.49-.02,2.96.16.95,0,3.7-.08,1.36-.12,2.72-.08,4.12l.05,1.66v4.43s.02,3.68.02,3.68v1.35s.04,1.96.04,1.96c.03,1.48-.02,2.79.06,4.26l.22,4.4c.06,1.26.17,2.44.08,3.66l-.08,1.03c-.06.78,0,1.57.05,2.4l.22,3.23.05,1.98.13,2.56c.14,2.88.45,1.54.2,4.68-.05.62-.01,1.18,0,1.8l.11,5.96.02,3.15c0,.56.08,1.17.13,1.79l.18,2.17.11,1.73.17,2.42.19,2.82.19,3.12c.11,1.84.38,4,.07,5.75l-.22,1.25-.15,3.77-.11,2.08-.16,2.71-.18,2.83-.2,2.82-.3,2.8c-.44,4.04-.82,1.31-.42,5.86.05.52-.2,1.57-.26,2.15l-.31,2.81-.23,1.98-.46,3.36-.26,2.83-.15,3.03c-.05.95-.54,2.16-.57,3.05l-.1,3.13-.17,3.61c-.03.63-.32,1.62-.31,2.21.01.76.08,1.52,0,2.19l-.27,2.56c-.1.98-.14,1.91-.16,2.87l-.06,2.77-.39,2.21-.15,2.79c-.06,1.06-.45,4.83-.46,4.75l.21,2.78c.1,1.38-.26,2.62-.46,3.99s0,2.92-.18,4.36l-.17,1.41-.18,5.16-.06,1.27-.17,2.76-.07,1.96c-.03.72-.02,1.61-.08,2.25l-.36,3.93-.1,2.25-.07,2.03-.12,6.27-.21,1.25-.08,6.62-.08,1.69-.12,2.67v.99s-.14,8-.14,8c-.02,1.04-.16,1.76.18,2.81.29.89.23,2.05.08,3.03-.31,1.96.55,3.74.65,4.77.11,1.15.05,2.33.25,3.46l.54,3.1c.13.76.23,1.71.29,2.48l.18,2.36.24.37,1.19-.37c.56-.18.09-.27,1.26-.41l.53-.07c.06,0,.37-.08.43-.11l.35-.19c1.19-.65,1.59-.35,3.57-.91l2.15-.61c1.12-.32,2.25-.59,3.38-.77,2.66-.43,4.56,0,6.77-1.82l.05-.99.41-2.03.41-2.15c.16-.85.39-1.73.46-2.58l.28-3.12c.05-.53.37-3.64.81-3.81-.26-.86-.57-2.26-.03-3.13,1.24-2.03-.3-1.8.66-2.62.56-.47.28.14.29-1.62v-1.55c.01-.77.21-1.75.33-2.6l.22-1.53c-.14-1.8-.07-3.6.58-5.27,0-.21-.08-.83-.04-1.05l.55-3.01c.44-2.4-.38-.56.23-4.49l.24-1.55.26-1.85.29-2.35c.16-1.28-.2-2.91.12-4.22.12-.48.34-1.1.36-1.5.15-3.91,1.01-2.32.98-6.2,0-1.15-.09-2.43.13-3.62l.87-4.74.36-1.85.72-3.04c.03-.12,1.34-4.09,1.18-3.88.45-.57.96-1.75.86-2.64-.12-1.14.32-1.98.58-3,.47-1.84.06-2.94,1.4-4.6.03-1.69.23-4.37.67-5.96.75-2.66-.34-.68.6-2.42.15-.28.37-.67.27-.84l-.29-.48.47-.52-.19-1.36c.29-.69.62-1.78.78-2.54l.6-2.79.49-1.96c.25-1,1.85-1.08,2.4-1.01,1.3.15,1.72,2.01,2.74,3.7l1.19,1.96c.99,1.63,1.19,1.37,2.15,2.56.84,1.04,1.53,2,2.72,2.63,1.1.58,1.83,1.44,2.69,2.34l1.11,1.16c1.56,1.62,1.39,1.34,3.42,2.36l2.25,1.13c.69.35,1.21.66,2.06,1.15.92-.62.2-3.78-.09-4.39l-1-2.12c-.27-.57-.53-1.17-.83-1.7l-1.34-2.37c-.24-.42-.74-.96-1.07-1.38l-1.49-1.89c-.65-.83-1.32-1.68-1.89-2.57l-1.1-1.72c-.17-.26-.37-.86-.5-1.22-1.59-4.47.5-4.53-2.11-6.56-.54-.42-.16-1.49.44-1.82.76-.41,1.65-.68,2.42-.17,1.2.8,2.06,1.88,2.84,3.07,1.51,2.34-.18.51,1.61,2.83l1.95,2.53c.54.7.99,1.26,1.88,1.5l2.27.6,2.73.82c.87.26,3.14,1.18,3.77,1.72.24.15.44.32.45.19,0-.1.11-.62.09-.71l-.41-2.06ZM51.52,487.87c-.25,1-.39,1.91-.41,2.91l-.02,1.09-.03.55c.13.22.15.22.12.28-.81,1.36.39.33-.44,2.07.09,1.02.1,2.52-.05,3.64l-.47,3.48-.07,1.08-.21,2.09-.72,4.75-.23,2.61c-.02.21-.12.64-.18.88l-.37,1.48c-.16.65-.35,1.33-.4,1.99l-.15,1.83-.08,1.23c-.18,2.57.26,2.73-.57,5.11-.92,2.63.46,2.03-.24,4.54-.43,1.57.39,1.32-.64,4.7-.74,2.42.28,1.67-.09,3.47l1.49.17c.63.67,1.51.89,2.36.62,1.42-.45.43.62,2.66-.17.44-.15,1.13-.25,1.68-.3l3.36-.29,3.32-.29,2.55-.19,2.04-.12c1.03-.06.19.21,1.07.27l1.42.14c.52.05-.25.37.9-.21,1.55-.79,2.01-.18,2.77-.24l2.29-.18c.8.32,1.58.51,2.36.04,1.15-.68.6.61,2.96-.32,1.97-.77,4.01-.64,6.05-.09.46-.14,1.41-.62,1.9-.64l4.39-.13c3.17-.09,1.06.66,2.41-.35.1-.08.44.24.57.22l2.59-.37.53-.08.47-.08.48-.08c.1-.02.44-.07.51-.06l.53.07c.08.01.3.11.42.16l.34.13c.29.11.31.04.73.01l.5-.04.59-.04c.1,0,.38-.05.49-.08l4.12-.92c2.75-.61,3.54.67,4.37.45l3.55-.95c.05-.01.41-.02.45-.03.28-.09.86-.28,1.14-.31l1.18-.15,4.77-.68c.54-.08,1.61.13,2.1,0,.79-.2,1.55-.38,2.33-.46l2.83-.29,2.95-.3.26.13c.07.03.39.22.46.22h1.82c.06,0,.39-.11.49-.13l.47-.1.53-.04.53-.04.48-.04c.13-.01.29-.03.37-.03h.4c.94-.03.97-.78,2.06-.74l.63.03,1.33-.13c2.66-.26,4.64.15,5.96-.13l2.28-.49c3.35-.72,1.51.3,4.3-.47,1.06-.3,2.12-.08,3.13.21l2.02-.06c3.5-.1,3.66-1.01,4.66-.46.65-.64,1.78-.77,2.83-.73l.53.02.56-.19,3.08-.08,2.5-.07c2.38-.07,1.19,1.12,6.82-.4,2.07-.56,2.08,1.55,4.9-.43.92-.65,2.59.13,3.56-.07,1.4-.29,2.66-.61,4.03-.26l.8.2s.33-.37.37-.35l.48.24c.11.06.19.1.15.08.35-.16.89-.31,1.18-.23l1.43.39c-.11-.03.77-.06.76-.05l.46-.25c.11-.06.2-.11.16-.09l.33.49c.17.25.61-.15.82-.16l4.19-.23c.06,0,.41-.12.46-.15,1.68-1.26,1.16-.37,4.66-.82,3.17-.41,1.17.53,3.94-.05,2.05-.43,1.44,1.56,3.49.54.2-.13.28-.19.23-.15.33.35.65.43.91.42h.59c.64-.02.49.01,1.04-.1l.47-.09c.79-.16.14-.13.89,0l.39.06c.85.13,1.54-.68,1.44-.67l.53-.08c.41-.06.66.19.83.3l.33.21c.19.12,1.26.16,1.5-.09.53-.55.3-.49.77-.51h.37s.38-.03.38-.03h.37c.12-.01.29,0,.37-.02l.43-.06c.15-.02.42-.08.5-.07l.53.03c.64.04.84.84,1.43.81l.51-.02c.67-.03-.53-.28.81-.5l1.78-.29c.08-.01.49-.06.57-.05l2.14.31c.08.01.47-.01.6-.01h8.31s.55.05.55.05h4.06c1.08,0,2.17-.05,3.21.02l1.41.09,2.58.17,5.57.27,2.75.1,1.5.06,4.68.17c.88.03,4.8.89,5.38,0,.22-.33.64-1.06.63-1.43v-1.31c-.03-1.85-.51-2.17-.84-2.86l-.37-.76c-.18-.37.96-.85.13-3.13-.35-.94.06-2.2-.1-3.16l-.59-3.63c-.11-.68-.13-1.39-.26-2.01l-.35-1.74-.68-3.5c-.13-.69-.44-1.63-.68-2.32-1.22-3.44-.05-.7-.94-4.59-.25-1.09-.48-2.29-.64-3.33-.03-.21,0-.8-.09-.97l-.72-1.53c-.91-1.94.02-.32-.79-3.58l-.42-1.68c-.14-.55-.21-1.08-.18-1.72.07-1.5-.36.43-1.08-2.62l-.91-3.86c-.37-1.57-.44-3.01-.38-4.61s-.17-1.36-.21-3.16c-.08-3.16-.63-.64-.23-4.03l.36-3.13c.04-.35.07-.66,0-.91l-.56-2.12c-.12-.45.07-1.46-.01-1.9-.27-1.55-.58-2.91-.9-4.4l-.5-2.32-.67-3.26-.48-2.32c-.09-.45-.17-1.46-.22-1.98-.11-1.3-.74-.2-.9-2.46l-.2-2.89c0,.09.06-2.85-.74-2.42l-.38.2-.87.47c-.27.14-.67.07-.98.28l-1.76,1.19c-1.74,1.18-1.11,1.1-2.76,2.25-3.06,2.13-.03.33-2.74,2.64-.56.48-1.3,1.36-1.86,1.66l-3.51,1.94c-1.16.64-4.01-1.47-3.62-3.1.44-1.85,1.64-5.11,2.57-6.64l.6-.99s-.17-.09-.26-.14l-.32.28-.31.27-1.29,1.14c-.05.05-.32.21-.38.24l-.37.19-.36.19-.37.19-.37.19-.38.2-.32.19c-.82.5-.09.13-.75.34l-.51.16c-1.18.37-2.31.41-3.26-.38l-.33-.27-.31-.24-.33-.25-.36-.27c-.09-.79.75-3.64,1.06-4.12l2-3.09c.61-.94.83-2.62,2.93-5.38l1.13-1.48c.26-.34.86-.83,1.27-1.2,1.68-1.48-.08-.77,2.43-4.49l.34-.51c.04-.06-.27-.14-.32-.09-.98,1.1-1.76,1.77-2.76,2.46l-1.22.84-1.95,1.39-1.92,1.47c-.52.39-1.28,1.18-1.84,1.41-1.16.49-2.29.98-3.31,1.29-1.43.43-2.85-.77-3.18-2.07-.28-1.14.6-1.28.73-2.52.13-1.17.55-2.6,1.22-3.64l1.03-1.6c.38-.58,1.2-1.29,1.66-1.87l1.36-1.74,1.94-2.32c1.24-1.48.25-1.12,2.28-2.96s-.36.02,1.85-2.35c.99-1.06,1.99-2.13,2.88-3.24l2.24-2.8c.9-1.13-.16-2.86-1.24-3.46-.54-.3-1.29-.81-1.56-1.2l-1.53-2.19c-.28-.41-.64-.89-.96-1.24l-1.62-1.8c-2.7-3-1.74-1.34-3.11-2.19-.5-.31-1.31-1.19-1.82-1.41l-2.01-.84c-1.76-.74-2.56.34-3.36-2.26-.5-1.64-.07-.97-.38-2.76-.09-.53-.22-1.08-.26-1.59l-.23-2.57c-.05-.61.24-1.75.04-2.3-.97-2.64.24-.83-.22-3.61l-.32-1.95-.34-3.09-.31-2.19-.26-1.79-.53-3.66-.08-.81c-.08-.85-.44-1.67-.87-2.45l-.16-1.65c-.43-4.3-1.13-3.74-1.79-6.49l-.39-1.64c-.49-2.02-.76-4.98-1-5.69l-1.02-3.01c-.58-1.7-.35-3.96-1.5-5.97-1.5-2.62-.97-2.13-2.44-4.82l-.83-1.52c-.16-.3-.63-.82-.93-1.24-.41-.57-.83-2.01-1.44-2.3l-1.79-.86-.5.2c.56-.23-2.14-.45-2.3-.46l-1.49-.1c-5.15-.36-1.1.17-3.86.49l-1.37.16-.72-.98-3.55-.17c-.9-.04-1.89-.14-2.8.04l-2.35.46-1.41.29-1.96,1.15c-.33.2-.82.56-1.17.73-.42.2-.83.41-1.06.59l-.84.66c-3.21,2.5-.66.66-2.81,1.63l-2.16.98c-1.12.51-2.23.78-3.4,1.14l-2.09.63c-.61.18-1.73.67-2.09,1.14l-1.19,1.62-.24,2.07c-.37.99-.71,2.08-.7,3.17.03,3.4-.58,2.54-.28,4.46-.24.9-.24,1.91.15,2.93l.06,1.35c1.7,3.33-.52,1.64,1.52,6.05.27.58.58,1.86.61,2.57l.1,1.97-.03,1.25c.34,1.45.45,2.8.33,4.25.06.33.27,1.11.28,1.48l.16,3.57.11,3.38c.03.85.06,1.86.2,2.72l.2,1.22c.05.3.05.69.21.74l1.37.43c.86-.44,2.42-.67,3.15-1.13l2.79-1.79c.64-.41,2.58-1.96,3.03-2.18l1.97-.93c.67-.32,1.58-.12,2.14.35.44.36.58,1.84.04,2.09-1.32.6-2.56.99-3.61,1.76s-2.53,1.62-2.58,1.93c-.08.52.38,1.51.59,2.05l.74,1.87,1.39,3.35.98,2.46c.18.46.52,1.17.77,1.64l1.74,3.35c.39.74,1.04,1.77.43,2.5l-.82.98h-3.16c-.51,0-1.24.14-1.69.27l-.32.09c-.17-.02-.56,0-.7.04l-1.94.67c-.61.21-1.34.32-2.05.5-1.43.36-2.81,1.37-4.21,1.78l-2.59.76-3.48,1.05c-.42.13-.91.63-1.26.95l-2.18,2.03-1.86,1.8c-.75.72-1.99,1.7-2.93,1.78-1.08.1-2.37.01-3.19-.59-2.59-1.89-1.93-.62-5.22-2.02l-1.78-.76c-3.23-1.37-2.92-1.01-6.52-1.1-.68-.02-1.39.06-2.06.11l-2.26.15c-.39.03-.92-.57-.98-.98l-.25-1.61c-.26-1.65.85-1.45.38-2.2-.18-.29-.51-.8-.61-.97.88-1.62.5-3.07.31-4.63-.1-.81.44-2.15.47-2.98l.1-3.63c.02-.83-1.56-1.56-2.32-1.62-1.1-.09-1.78-.67-2.05-1.72.47-.43,1.05-1.01,1.56-1.25.08-.04,2.89-.63,2.61.73l1.93.73c.93.35,1.9.5,2.86.37l2.59-.36c.87-.12,2.13-.5,2.87-.94l1.56-.93.88-2.43c.13-.36.17-1.26.1-1.64-.48-2.6-.61-3.73-.6-6.33,0-.93-.09-1.96.02-2.89l.19-1.68c.25-.97.44-1.86.56-2.84l.16-1.25c.04-.35.41-.94.68-1.43.87-1.59-.5-1.09.3-2.95.06-.15.11-.59.08-.77-.1-.76.14-1.44.22-2.13.12-1.01.2-2.02.38-3.02l.42-2.29c.06-.35.08-1.17.04-1.54l-.14-1.06c.64-.62.93-1.59.3-2.46l.23-.45c.02-.31,0-1.02-.08-1.44l-.37-1.84-.46-2.4c-.16-.85-.3-1.62-.67-2.41-.97-2.09-1.67-1.1-3.21-2.9-2.09-.26-.83-.8-3.14-1.11l-2.7-.36-1.62-.15-2.22-.19c-.53-.05-1.39-.15-1.81-.08-.53.08-1.46.52-1.95.41-1.91-.41-2.58-.55-4.59-.6-2.25-.05-.9.09-3.94.44-.72.08-1.65.37-2.47.36-1.48,0-3.04-.19-4.38-.41-.25.19-.79.58-1.07.71l-2.55,1.15-3.7,1.56c-.35.15-.98.79-1.3,1l-1.69,1.14c-2.71,1.83-3.42,3.2-4.68,6.15l-.61,1.43c-1.07,2.5-.91,1.9-1.41,4.54l-1.11,5.89-.24,1.27c-.25,1.35.48.95-.57,4.5l-.58,1.94c-.62,2.09-.29,3.34-.68,6.52l-.38,3.06-.65,4.5c-.45,3.12-.41,1.09-.58,3.87l-.12,1.97c-.04.72-.14,1.52-.25,2.22l-.42,2.69c-.11.69-.2,1.38-.18,2.08l.11,5.49c0,.44.41,1.62.04,1.78-1.86.8-2.81,1.14-4.82,1.33l-2.56.25c-.65.06-1.55.06-2.09.2l-1.54.39c-.69.17-1.28.48-1.91.91l-1.66.52-2.27,1.53c.51,1.53.93,2.34,2.08,3.35l1.2,1.06,2.06,1.85,1.64,1.45c.48.43,1.01,1.18,1.51,1.51.74.49,1.62.93,2.15,1.47l1.56,1.57c2.39,2.41,2.47,1.99,3.17,4.22.32,1.02.61,2.05.47,3.01l.88.15c.53.09.88,3.08.91,4.27.01.64.22,1.37.3,1.92l.21,1.5c.04.33-.04,1.08-.2,1.34l-1,1.61c-1.21,1.93-4.94,2.68-6.79,2.19l-2.28-.61c-.23-.06-.86.04-1.18.06l.4,1.34.64,2.14.52,1.73.76,2.38c.32,1,.65,2.19.66,3.14.02,1.18-1.16,1.18-1.66,1.45-1.59.84-2.48.41-3.85-.31-1.06-.56-2.26-1.24-3.23-1.97l-2.34-.77-2.27-.85-2.11-.77c-.39-.14-1.13-.75-1.39-1.06s-.66-.93-1.03-1.16l-.75-.47.7,1.58c.44.98,1.13,1.8,1.84,2.58l1.22,1.36c.68.76,1.45,1.58,1.98,2.44l2.03,3.22c.21.33,1.37,3.7,1.2,4.38.17.27.64.98.69,1.33l.31,2.26c-.26.66-1.04,1.51-1.59,1.7l-2.52.86c-.46.16-1.49-.5-1.94-.67l-2.08-.78c-.97-.36-1.85-1.1-2.75-1.63-.85-.5-2.49-.54-3.14-1.36l-1.38-1.76c-.36-.46-.76-.92-1.2-1.28l-1.75-1.41c-.36-.29-.89-1.08-1.29-1.44l-.93-.83c-.46-.41-1.06-1.34-1.57-1.64-2.68-1.58-2.25-3.45-2.75-2.75-.08.12-.32.47-.36.62l-.45,1.99c-.3,1.35-.59,2.53-.97,3.86-.77,2.7.3.62-.67,3.76l-.6,1.92c-.12.37-.23,1-.33,1.46l-.5,2.23-.65,3.04c-.16.77-.59,1.8-.57,2.5l.05,1.63c.01.44-.67,1.31-.76,1.76-.2.98-.5,2.48-.86,3.53-1.31,3.86-.07,1.42-.98,3.84-.37.98-.6,2.17-.7,3.25l-.21,2.34c-.1,1.08-.72,4.3-1.03,5.39-1,3.52.61,1-.5,5.35ZM106.58,561.72l1.14.73,2.48-.16c.2-.01.63.07.91.09l3.97.26c.44.03,1.25.18,1.63.16l3.05-.18,1.71-.12,1.72-.02c.47,0,1.25-.14,1.71-.06l1.16.2c1.16.2,2.78-.36,4.69-.26,3,.16.43.21,3.36.06l4.33-.22c.92-.05,1.8-.14,2.7-.03l2.52.33c1.16-.84,2.69-.02,4.87-.06l3.95-.07,1.95-.04,3.19-.04,7.4-.05,2.1-.11c1.51-.65,3.91-.27,6.29-.89l1.3.1c1.17-.43,2.29-.47,3.52-.26l2.02.35c2.48-1.16,3.29.16,8.16-.34.83-.09,1.6-.19,2.23.08,1.53.67-.19-.13,3.13-.27l3.42-.15c.28-.01.87.2,1.1.28.22-.06.85-.33,1.1-.36l2.25-.24,4.12-.16,2.57-.24,2.81-.46c2.14-.35,5.51.24,6.7.17l1.92-.12,2.49-.17,1.72-.11,3.35-.58,2.81-.29,2.8-.29c.61-.06,1.27-.08,1.86-.11l2.87-.14,4.41-.19,2.55-.17,2.54-.21,2.8-.27c1.39-.13,2.88-.05,4.22-.3.82-.15,1.6-.33,2.39-.41l3.09-.31,2.26-.25c3.9-.43,4.51-.08,7.21-.42l1.06-.14,2.05-.28,3.11-.42,2.84-.47c.75-.12,1.58-.19,2.38-.29,3.63-.43.5.55,4.42-.15l2.21-.4c.88-.16,1.94-.17,2.88-.29l1.75-.22c1.92-.24,3.57-.8,6.42-1.26l2.55-.41c.87-.14,1.74-.48,2.54-.79.31-.04.92-.15,1.32-.22l1.4-.27.57-.12c.06-.01.21-.07.57-.19l-1.11-.67-.37-.22c-3.36-1.99-.52.39-5.39-3.49l-.96-.77c-.32-.26-.94-.64-1.2-.92-1.88-2.05-2.12-.92-5.33-.95-3.51-.03-2.74-.42-6.39-.34-1.07.02-2.44.66-3.54.57-2.45-.19-2.35.44-4.05.03-1.37-.33-2.92-.52-4.37-.57l-2.55-.09-1.96-.03c-.61,0-1.46.16-2.15.24l-1.54.18c-1.32,1.02-4.1.71-5.65.42l-2.63-.49c-1.12-.21-2.32-.21-3.42,0l-2.98.57c-.58.11-1.51.36-1.99.61l-2.25,1.17c-.47.24-1.03.51-1.53.69l-2.43.88c-.44.16-1.36.25-1.91.29-1.06.07-1.1-1.24-4.44-1.19-.62,0-3.28.28-3.9-.68-.41-.64,1.48-2.92,4.5-2.05.58.17,1.85-.02,2.36.18l1.66.64c2.5.96,2.62.14,4.52-.79l2.44-1.18c1.05-.51,2.25-.75,3.35-.66,1.39.11-.04-.3,2.55-.73l3.16-.53c4.96-.83,2.63.99,4.66.68,3.83-.59.62.1,3.69-.3l1.98-.26,2.28-.24c1.21-.13,2.62-.16,3.92-.13l3.51.08c.29,0,1.74.81,3.99.92,3.5.19,5.05-1.82,8.67-.62.62.21,1.53.15,2.24.03l.65-.32-1.81-2.26-.9-1.12c-.28-.35-.78-1.33-1.21-1.47l-2.38-.75c-.61-.19-1.29-.33-1.87-.37-2.59-.14-1.23-1.01-2.9-.94-.11,0-.51.04-.57.02l-3.14-.87c-.69-.19-1.4-.39-2.04-.45l-2.86-.28-2.43-.31-1.81-.25c-.51-.07-1.1-.12-1.63-.15l-3.58-.18c-1.22-.06-2.18-.11-3.47.01-.68.06-1.74-.19-2.47-.21-1.05-.03-2-.07-3.05-.16l-2.19-.18c-.8-.06-1.72-.23-2.51-.21l-3.8.08-2.37.12-1.73-.24-3.03.09c-1.24.04-2.41-.05-3.63-.12-2.16-.12-1.27.12-3.5-.02-.58-.04-1.18-.06-1.7-.05l-2.88.1-2.29.02-4.88-.02-2.44-.04c-2.55-.04-1.73.4-2.49.29l-1.27-.19c-.11-.02-.44,0-.56.02-1.98.46-.2.14-2.84.08-.56-.01-1.15.05-1.74.07l-4.93.19-2.53.22-1.89.14c-.43.03-1.03,0-1.51-.02l-1.67-.03c-2.7,1.05-3.17,0-5.43.28-.82.1-1.63,0-2.44.03-1.32.03-2.71.2-4.06.38-.57.08-1.27.28-1.96.42-.79.15-1.74.03-2.53.05l-3.26.08-2.53.15-5.42.22c-.48.02-1.14.13-1.66.19l-2.28.25-3.53.15-2.84.4-1.45.19c-1.62.21-3.22.11-4.91.11-.91,0-2.1.36-3.06.42l-1.57.1-2.73.28-2.47.16-2.52.42-4.4.17-2.06.09c-.68.03-1.66.32-2.44.43-1.05.14-2.04.22-3.1.3l-3.13.24-1.35.29-1.75.16c-1.58.14-3.31-.07-4.86.2l-3.07.52-2.01.26c-3.5.46-3.01.85-5.74.7-.78-.04-1.81.24-2.7.29l-2.71.14-2.23.3c-.75.1-1.5.13-2.3.2l-2.53.2-7.54.12-3.32.47c-1.46.21-2.9.04-4.29.26-2.25.35-2.41.51-4.96.39-1.49-.07-2.94.14-4.45.17l-3.67.08c-2.04.04.1.38-3.02.35-.86,0-1.67.01-2.53.11l-2.55.29-2.47.11-3.93.72-2.52.28-3.07.31c-.7.07-1.38.24-2.01.43l-1.71.53c-2.41.74-1.78-.22-4.15.57l-4.45,1.48-1.52.27-1.99.47c-.94.22-1.79.48-2.46,1.2-1.09,1.18-1.46-.7-2.53.76-.71.97-1.44,1.73-2.34,2.44l-1.43,1.12c-.6.47-1.28.88-1.98,1.29-.1-.01-.32-.04-.35-.05-.02-.01-.05.38-.07.62,1.12.05,2.4-.2,3.64-.63.47-.16,1.56.07,2.04,0l1.51-.24c1.24-.19,2.45-.51,3.74-.75.64-.12,1.97.53,2.63.51.97-.04,1.65-.04,2.63.03.87.06,2.12-.54,2.99-.56,5.91-.11,2.37.66,6.16.7l2.33.03c.5,0,1.38-.57,1.84-.66l2.37-.46c4.05-.78,5.87,1.94,8.42,1.32l2.14-.52c.46-.11,1.12-.3,1.57-.32l1.73-.1c.35.25.32,1.29-.06,1.67-1.38,1.36-1.04.08-4.51,1.09-6.24,1.81-7.4-2.44-11.42-.46-.6.3-1.64.47-2.43.62-1.72.34-3.31.18-5.04.04l-2.54-.2c-.43-.03-1.35.09-1.86.17l-2.26.35c-.63.1-1.35-.09-1.96-.14l-2.06-.2c-1.26-.12-4.26.31-5.62.59l-3.45.71c-.36.08-1.16-.08-1.49-.07l-2.8.09c-.62.02-1.22.38-1.59.87l-2.08,2.71-2.13,2.91c.13.19.25.35.24.35l1.73.17c.56.05,1.51.41,2.01.32,1.11-.19,2.15-.35,3.25-.35h3.04c.88-.02,1.71-.07,2.64-.17,3.73-.42,2.02.45,5.3.05l5-.61,2.53-.31c.85-.1,1.81-.12,2.7-.14,3.27-.06,2.07.71,3.83.56.77-.07,1.22-.07,1.86-.03l3.55.19,1.69.09c1.37.08,2.72.06,4.09.03,2.49-.05,1.98-.3,4.26-.46l3.13-.22,3.86-.16,1.35-.13c1.24.18,2.23.1,3.44.03l3.57-.2c.93-.05,1.86-.2,2.82-.21,1.03,0,2.1.42,3.1.26l2.22-.36,2.49.19c.62.05,1.25.02,1.8-.03.44.05,1.24.19,1.78.19h1.47c1.57.03,3.13.03,4.69.14,1.36.1,2.58.16,3.91.07l1.71-.12,6.6-.07Z"/>
      <path d="M319.53,246.49c-.41-.95-.61-1.5-.98-2.23l-1.12-2.24c.09-.17.32-.68.36-.93l.48-2.92c.17-1.05.46-2.16.39-3.22l-.18-2.77c1.26-2.6.62-2.87,1.56-4.88-.12-.81-.4-2.32.27-2.94l1.56-.7c.84,5,.09,4.13-.12,7.34l-.12,1.72c-.05.69-.16,1.25-.33,2.01-.26,1.23-.05,2.78-.21,4.06l-.29,2.26-.32,1.98-.18,1.46c-.09.72-.12,1.2-.77,2.01Z"/>
      <path d="M200.8,215.24c-.32-1.63-1.29-1.62-1.71-4.4-.11-.73.89-1.56,1.44-1.78s2.07-.02,2.27.55l.95,2.74c.25.73.48,1.37.8,2.03l1.17,2.38c.1.51,3.98-2,3.82-1.86l2.55-2.08c.18-.15.5-.67.61-.81.26-.18.74-.54.9-.79l.98-1.55-.57-1.79,1.13-.53c.25-.12.82-.67.94-.79.44.38.83.63,1.47.87,1.9.71-1.73,7.44-4.24,7.38-.24.96-.75,1.7-1.71,2.19-.52.27-1.27.99-1.72,1.18l-1.7.71c-.85.35-2.75.88-3.59.57l-1.16-.43c-.68-.58-1.4-1.87-1.84-2.76l-.79-1.02Z"/>
      <path d="M304.69,504.16c-.24.29-1.67.49-2.11.16-.77-.73-.31-2.21-.14-3.14l.19-1.1c.17-.96-.74-5.22.26-8.07.13-.37.8-.89,1.26-1.29l1.02,1.19.3,2.56.23,1.98c.04.31-.3,2.46-.29,4.02,0,.73.22,1.87-.05,2.39l-.67,1.29Z"/>
      <path d="M115.42,224.08c-.12.36-1.08.91-1.44,1.09l-1.62.84c-2.65,1.37-2.74,1.83-4.69,2.36l-2.01.55c-3.68,1-3.69.35-5.8-1.3-.27-.21-.57-.61-.81-.99l-1.02-1.59-1.02-1.4c-.24-.33-.72-1.01-.8-1.36l-.42-1.96c-.15-.71.35-1.64.97-2.05.4-.26,1.34-.53,1.68-.32,1.84,1.12,1.02,2.32,1.78,3.83.16.32.64.89.77,1.19l.66,1.54c.25.59.55,1.24.87,1.6,1.03,1.17,3.99-.24,5.4-.84.5-.21,1.07-.66,1.57-.95,2.17-1.24,3.01-1.09,3.52-3.02,1.42.84,1.24-.13,3.04.83l-.65,1.92Z"/>
      <path d="M218.48,268.42l-1.43.51c-.75.27-2.33.2-2.89-.34-.24-.23-.24-1.02-.09-1.38.37-.91,1.14-1.43,2.11-1.51s1.53-.56,2.36-1.02l1.25-.7c2.08-2.05,3.27-1.74,4.65-3.12.29-.3,1.25-.14,1.53.18l1.02,1.18c-.61,1.49-.75.94-3.04,2.87-.45.38-1.51.64-2.08,1.03-1.53,1.04-.48,1.26-3.4,2.3Z"/>
      <path d="M88.48,551.72c-.1,1.52-1.46,1.67-2.43,1.67h-3.79s-4.89-.01-4.89-.01c-.23,0-.73-.26-.82-.44-.12-.23.29-.82.53-.96l1.67-.96,1.61-.05c4.02-.14,2.05.77,5.18.18l1.44-.27c.47-.09,1.54.3,1.5.86Z"/>
      <path d="M307.8,126.74c1.74-.18,1.75-1.23,2.54-.84,1.86.9,1.75-1.2,2.95,0,.1.09.26-.2.51-.57-.05-.03.14.1.23.16s-.07.48-.14.56l-1.11,1.37c-.29.35-1.51.34-1.93.09-.79-.47-1.66-1.05-2.89-.33.05.13-.08-.22-.17-.45Z"/>
      <path d="M104.94,277.95c-.73-.12-1.25-.21-1.8-.34l-1.83-.44-2.37-1.03-2.03-.86c-.26-.11-1.03-.19-1.32-.25s-.42-.94-.27-1.19l.88-1.39c2.15-.74,3.16-.29,5.27.95l1.44.85c2.36,1.39,2.77-.12,4.79,1.74-.1.31-.26.87-.39,1.06-.38.58-1.51.73-2.36.9Z"/>
      <g>
        <path d="M181.96,345.23c-.02-.09.4-.42.5-.45l1.63-.55c.27-.09.65-.2.84-.21.71-.05.36,1.13,1.45,2.17l1.19,1.14c.75.72,1.83.56,2.47-.25,2.01-1.81,1.9-2.21,3.1-3.88l.61-.84,1.86-.74.39,2.28c-.16.15-.74.58-.86.79l-1.03,1.72c-.38.63-.85,1.2-1.34,1.71l-1.28,1.33c-1.38,1.44-4.47,1.4-6.02.55-2.14-1.17-2.83-2.25-3.51-4.77Z"/>
        <path d="M133.15,360.96c-1.47-.22-2.55-1.29-2.99-2.68-.22-.7-.25-1.86.28-2.34.24-.22,1.15-.39,1.42-.24,1.45.84,1.59,3.82,6.14,2.78l1.19-.27c.46-.37,1.12-.85,1.63-1.11l2.45-1.27c.49-.05.92-.24,1.36-.56.5.02,1.51,1.63.78,2.14-.94.65-2.08,1.16-3.12,1.69l-2.36,1.2-1.52.73c-.37.18-2.16.38-2.97.26l-2.27-.34Z"/>
        <path d="M138.15,383.83l-1.44,1.8-2.29.85c-4.03,1.49-10.53.16-9.83-1.94.1-.3.5-.73.84-.94,1-.61,1.88-.2,2.86.02l2.61.59c1.14.26,2.46-.13,3.62-.39l2.4-.53c.31-.07.94.28,1.22.54.4.19.48.22,0,0Z"/>
        <path d="M198.47,378.07c.71-2.74,3.2-.85,5.08-4.13.44-.77,1.76-1.05,2.25-.91.95.27.53,2.55.02,3.2-1.3,1.66-5.3,3.59-7.36,1.84Z"/>
      </g>
    </g>
  </g>
</svg>