<?xml version="1.0" encoding="iso-8859-1"?>
<!-- Generator: Adobe Illustrator 30.3.0, SVG Export Plug-In . SVG Version: 9.03 Build 0)  -->
<svg version="1.1" id="Layer_1" xmlns="http://www.w3.org/2000/svg" xmlns:xlink="http://www.w3.org/1999/xlink" x="0px" y="0px"
	 viewBox="0 0 698.276 227.743" style="enable-background:new 0 0 698.276 227.743;" xml:space="preserve">
<g id="OTXBR7.tif">
	<g>
		<g>
			<path d="M25.936,227.464c-2.119,0.057-3.481,0.701-5.635-0.188l4.284-1.193l6.151-0.323l6.786-0.351l3.878-0.2
				c6.38-0.329,12.746-0.305,19.158-0.001c1.517,0.072,3.413,0.278,4.656,0.088l6.187-0.946l5.743,0.066l6.028,0.031l11.944-0.466
				l8.379-0.619l5.138-0.073l13.478,0.466c2.228,0.077,5.938,1.582,8.02,1.248l5.471-0.878l5.886-0.943l6.773-1.382l6.14-0.643
				c3.904-0.409,7.602-2.02,11.49-2.669l7.188-1.2l4.592-1.844l6.432-2.55l13.403-4.711l4.486-1.497l4.781-1.401
				c2.163-0.634,4.62-2.322,6.841-3.346l5.104-2.353c2.438-1.124,5.95-1.65,7.775-3.416c1.656-1.603,2.906-2.673,4.852-3.468
				l4.827-1.972l5.175-2.45c2.085-0.987,4.792-1.379,7.405-1.708l-1.23-1.624l-2.918-3.257l-6.259,1.667
				c-1.003,0.267-2.747,0.946-3.574,1.421l-7.212,4.14l-4.967,2.626c-2.081,1.1-4.139,1.677-6.774,2.327
				c-1.574,0.388-3.625,1.876-5.323,2.635l-9.209,4.111l-8.697,2.788l-12.913,4.18l-9.794,2.825l-3.418,0.527l-15.164,2.791
				l-5.929,0.616l-7.452,0.666l-2.765-0.02l-9.387,1.14l-5.906,1.168l-10.458,0.374l-2.988,0.353l-3.727,0.102l-12.055,0.337
				l-5.972,0.537l-6.003,0.605l-16.363,0.247l-3.183,0.611c-5.845,0.036-12.649,0.301-18.394-0.282
				c-3.949-0.401-7.501-1.771-11.46-1.04c-2.89,0.533-5.72,0.888-8.601,0.185l-8.696-2.122c-0.898-0.219-3.305,0.412-4.254,0.539
				l-5.333,0.716l0.413-2.328l-2.742-0.307c-0.191-0.04,0.286-1.821,0.706-1.779l2.391,0.235l5.773,0.567
				c1.766,0.174,3.707,0.212,5.432-0.029l5.963-0.834l4.84-0.675c1.635-0.228,4.636-0.892,6.175-0.774
				c2.679,0.205,5.515,0.607,7.892,0.167l9.657-1.785l4.799-1.411l4.906,0.476c1.148,0.111,3.462-0.684,4.628-0.947l6.803-1.535
				l7.426-1.81c1.867-0.455,3.28-0.688,5.415-0.565c1.511,0.087,4.275-0.961,6.016-1.28l18.375-3.365l5.072-1.008l5.238-1.247
				l6.173-0.686l5.2-0.416l5.841-0.641l16.484-4.001l10.103-3.13l4.832-1.353l9.843-2.161l3.217-1.011l5.462-2.009l11.731-4.678
				l12.964-5.033l3.836-1.49l5.238-2.117l6.407-3.462c3.769-2.037,7.898-3.962,10.932-7.009l4.797-4.817l2.831-3.44
				c0.857-1.042,1.929-2.788,2.507-4.03l2.264-4.868l-2.34,2.488l-9.052,9.028c-1.477,1.473-4.261,3.236-6.452,3.899l-5.149,1.559
				l-4.046,1.953l-8.135,4.742c-3.567,2.079-7.681,3.599-11.709,4.69l-7.69,2.081l-8.337,2.256l-5.256,1.993l-4.747,2.156
				l-4.82,1.779l-5.584,1.425l-5.287,0.499l-13.959,2.553l-4.397,1.526l-19.712,4.378l-5.308,0.686l-7.692,0.632
				c-3.431,0.282-7.279,1.031-10.614,1.898l-5.424,1.409l-5.881,1.574l-5.52,1.301l-4.915,1.05l-9.962,2.128l-6.17,1.044
				l-6.129,0.469l-8.254,0.432l-6.615,1.112l-8.411,0.474l-8.042,0.594c-0.424,0.031-1.279-1.701-0.938-1.954
				c0.341-0.253,1.062-0.681,1.465-0.757l5.304-0.102l3.773-0.111l12.117-1.443l5.315-0.481l4.345-0.293l6.043-0.408l5.075-0.62
				l17.243-3.721l9.033-2.22l7.789-2.046l4.99-0.729l6.797-0.763l5.983-0.747l4.659-0.64l9.841-2.068l8.993-2.316l6.629-1.707
				l6.458-1.156l6.905-1.016l5.466-0.804l4.487-1.22l12.819-5.305l6.588-2.245l7.471-1.687c6.489-1.465,12.46-3.825,18.154-7.273
				l3.753-2.273l7.999-4.001c1.844-0.922,5.298-1.651,6.587-2.843l5.26-4.866l2.787-3.054l6.005-6.894
				c2.234-2.564,4.098-7.253,3.776-10.634l-0.672-7.069l0.421-5.861l-0.923-7.474c-0.437-3.537-2.014-6.104-5.024-7.899l-4.745-2.83
				c-1.012-0.603-2.988-2.219-3.015-3.403l-0.331-14.131l-0.173-4.262l-1.201-1.939l0.396-8.013l0.026-5.447l-0.543-5.151
				l-0.54-6.694l-0.052-8.027c-0.031-4.766,0.146-8.115-1.579-13.375l4.656-1.271c1.141-0.312,3.137-0.241,4.275-0.037
				c2.902,0.521,5.45-0.694,8.071-1.514l4.257-1.332c0.91-0.285,3.011,0.904,3.882,1.27l9.024,3.794l6.776,2.815l9.265,6.395
				c-0.473,0.874-0.22,3.45,0.722,3.605l3.121,0.513c0.744,0.122,1.141,1.832,1.317,2.722l1.165,5.889l10.054-2.699
				c1.748-0.469,5.682-0.688,7.105,0.284c1.803,1.232,2.286,4.855,2.179,6.668l-5.688,1.234l-13.72,2.401l-0.16,10.176l4.069-0.601
				l10.311-2.398l4.493-0.726c0.556-0.09,1.901,4.34,1.178,8.07c-1.131,1.159-4.734,1.197-6.454,1.578l-11.622,2.577
				c-6.368,1.412,0.093,10.436-8.696,12.476c-0.688,1.27-1.25,4.261-0.962,5.655l0.839,4.066c0.104,0.505,0.288,1.974-0.148,2.119
				l-1.976,0.656l-10.633,3.54c-0.409,0.136-1.507,0.785-1.524,1.169l-0.097,2.233l-0.844,4.726
				c-0.425,2.38-4.266,1.009-4.672,3.722l-1.11,7.417c-0.27,1.802-0.378,4.93-1.072,6.338c-0.211,0.429-2.151,1.023-2.114,1.5
				l0.166,2.171l-5.152,7.347l-3.933,6.672l-1.986,3.109l-3.429,4.23l-3.341,4.169c-1.593,1.987-3.298,3.643-5.519,4.961
				l-5.117,3.038l-9.967,5.132l-5.263,1.939l-5.307,2.456l-8.757,3.266l-7.487,2.872l-11.135,4.02
				c-3.636,1.313-7.182,1.514-11.055,2.637l-4.892,1.419l-7.459,2.306l-3.057,0.843l-4.514,1.34l-9.002,2.407
				c-4.085,1.092-7.89,1.878-12.15,2.075l-4.772,0.221l-11.135,1.546l-6.828,1.249l-6.344,1.373l-18.196,3.646l-5.725,1.057
				l-5.407,1.26l-12.523,2.565l-6.321,0.277l-6.953,1.275l-6.49,1.267c-2.639,0.515-5.701,0.117-8.482-0.082
				c-1.612-0.115-4.689,0.45-6.349,0.69l-6.371,0.92c4.206,1.392,8.296,1.175,12.827,0.542l5.996,0.603l4.681,0.459l11.905,0.279
				l11.017-1.181l7.743-0.011l5.173-0.417l4.635-0.421l18.529-0.462l10.501-0.755l6.214-0.357l6.352-0.328l8.953-1.69l4.691-0.404
				l6.072-0.51l5.506-0.646l9.372-1.677l3.886-0.199l7.003-1.86l10.523-3.139l9.04-2.79l5.303-1.64l6.215-2.444l7.349-3.198
				l5.528-2.391l5.114-1.771l10.975-5.773l6.178-3.442c1.204-0.671,4.681-0.872,5.532-2.005l4.052-5.394l3.694-2.494
				c5.725-3.866,10.254-9.348,6.39-14.231l-0.095-7.103l4.214-4.082l4.113-4.165l3.705-3.942l3.289-4.717l2.63-1.958l2.893-3.257
				l-0.767-5.626l6.885,0.198c1.935,0.056,4.198-3.692,5.504-5.038l3.388-3.492l11.584-11.621c2.08-2.087,6.129-2.672,8.04-0.303
				l2.244,2.78l-3.058,2.408l-4.402,4.017l-5.837,6.021l-6.489,8.327l6.657,4.46l2.694-3.908l7.671-11.131l2.277-2.901
				c0.588-0.749,2.156-2.645,3.043-2.976c2.606-0.972,8.037-0.051,10.194,2.198l-4.868,6.278l-4.131,6.314l-2.953,3.67l-3.024,3.712
				l-3.903,4.559l1.928,1.905c0.341,0.337,1.151,0.911,1.54,1.125c0.388,0.214,1.211-0.839,1.49-1.226l6.602-9.16l3.861-5.191
				c0.748-1.006,2.06-2.112,2.659-3.275c0.867-1.683,3.133-3.14,5.025-2.021c1.938,1.147,3.117,2.3,4.894,3.978l-4.392,6.472
				l-4.755,6.579l-2.98,3.695l-4.747,5.035c-4.733,5.02,1.585,9.207-1.058,11.656c-0.892,0.826-3.413,0.403-5.011-0.304
				l-4.216,4.502l-6.088,6.043l-3.768,4.425c-0.877,1.03-2.572,3.793-3.851,4.138l-5.894,1.589
				c-2.471,0.666-4.326,1.373-6.126,2.933l-5.033,4.361c-1.374,1.191-5.101-0.178-7.087-0.462l-5.023-0.717
				c-1.713-0.244-3.275,1.352-3.607,3.168c-0.564,3.075-4.437,5.936-8.162,5.15c-2.858-0.603-6.567-1.301-8.928-0.035l-7.421,3.981
				c-0.951,0.51-3.501,1.03-4.419,1.767c-1.932,1.55-5.059,4.159-7.502,4.86c-3.698,1.06-6.612,2.115-9.766,3.868l-4.421,2.457
				c-1.249,0.694-4.488,0.96-5.855,1.441l-4.62,1.626l-8.326,3.412c-4.68,1.918-9.535,2.625-14.207,4.625l-5.284,2.262
				c-0.778,0.333-3.181-0.138-4.015,0.063l-6.347,1.528l-5.419,1.439l-3.903,0.049l-8.084,1.178l-6.102,0.885l-5.259,0.766
				c-3.33,0.485-6.594,0.538-9.919,0.077l-4.251-0.59l-4.437-0.132l-3.979-0.198c-3.15-0.157-7.158-0.358-10.141,0.193
				c-5.201,0.962-9.471,1.136-14.522,1.059l-8.102-0.124l-3.943-0.008l-8.042,0.523l-4.408,0.164l-7.807-0.142l-9.633,0.185
				L25.936,227.464z M264.162,38.506l13.559-3.084c-1.852-1.884-4.056-3.973-5.682-4.553l-11.821-4.212l-5.695-2.828l-3.734,1.479
				c-3.321,1.315-6.454,1.728-10.351,1.742l2.837,3.175c1.226,1.372,3.196,3.134,5.009,3.731l11.25,3.707
				C260.446,37.964,263.017,38.766,264.162,38.506z M254.328,93.065l0.433-5.67l0.467-6.628l-0.202-3.482
				c-0.111-1.918,0.015-3.735,0.205-5.681l0.472-4.83l-0.062-6.448l-0.251-5.855c-0.25-5.836,1.477-9.651-0.114-15.149l-4.564-1.713
				c-2.124-0.797-5.815-1.417-7.343-2.804l-4.894-4.439l-0.493,5.206l0.115,4.641l-0.34,6.375l0.3,4.353l0.484,18.384l0.406,6.821
				c0.125,2.098,1.21,5.217,1.529,7.619l0.883,6.667c0.084,0.637,0.817,2,1.352,2.409l6.707,5.124l4.288,3.383L254.328,93.065z
				 M267.396,101.843l4.942-1.218l6.331-2.342l0.755-6.262l-0.349-3.72l0.252-6.221l0.205-5.882l0.192-7.911l-0.057-6.264
				c-0.023-2.47,0.234-4.668,0.605-7.204l0.602-4.119l-0.036-6.446l-0.801-6.294l-4.504,0.63l-6.84,1.423l-7.903,1.316
				c-0.727,0.121-2.095,0.461-2.185,1.073l-0.35,2.385c-0.481,3.277-0.524,6.581-0.198,9.763l-0.207,2.246l-0.251,14.943
				l0.003,5.324l0.153,7.933l-0.731,3.473l-0.033,12.788c0.779,0.058,1.316-0.009,1.513,0.242l1.024,1.303l4.242-0.483
				L267.396,101.843z M285.698,77.496l0.808-6.643c0.093-0.764-0.327-2.045-0.812-3.028L287,64.967l-0.113-15.719
				c-0.012-1.687-1.302-6.526-2.724-7.447l-0.757,8.268l-0.694,8.269l-0.383,14.127c-1.249,4.729-0.243,8.657-0.226,12.817
				l2.605-1.068L285.698,77.496z M300.334,52.127l5.956-0.806l-0.85-2.747c-5.119-0.445-12.862,1.087-15.539,3.363
				c-0.337,0.286,0.46,1.948,0.609,1.859l5.335-0.906L300.334,52.127z M294.398,72.007l2.684-0.468l7.419-1.877
				c0.655-0.166,2.261-0.854,2.419-1.503c0.158-0.65-0.547-1.823-1.12-2.664l-8.784,2.175l-4.971,1.144
				c-1.309,0.301-2.432,1.213-2.714,2.692C288.793,74.342,289.835,72.803,294.398,72.007z M303.176,108.804l2.798-3.026
				c0.2-0.216,1.054-0.682,1.33-0.814c0.276-0.132-0.99-1.377-1.231-1.188l-7.569,5.926c0.864,0.689,2.465,1.346,2.881,0.922
				L303.176,108.804z M265.974,104.224l-6.298,1.617l-5.186,1.329l-1.09-2.733l-0.168,6.155l8.289,0.171l4.238-1.433
				L265.974,104.224z M316.48,117.281l4.401-5.476c-0.715-0.628-3.502-0.244-4.172,0.585l-5.034,6.225l3.247,1.025
				C315.483,119.816,316.044,117.824,316.48,117.281z M255.902,129.952l2.178-3.109l2.413-9.661l0.842-3.373l-5.442-1.109
				c-1.282,1.164-1.987,3.995-1.994,6.009l-0.023,7.462l0.044,3.862L255.902,129.952z M291.197,123.793l2.807-3.937l4.429-5.772
				l-2.853-1.326l-3.526,4.604l-3.528,5.289C288.103,123.284,290.76,124.406,291.197,123.793z M322.939,133.149l5.594-8.103
				c0.905-1.312,1.219-2.591,0.786-4.487l-3.825,3.69l-5.64,6.995L322.939,133.149z M305.363,132.737l5.191-6.229
				c0.916-1.1,1.704-2.986,2.215-4.522l-4.02-0.177l-3.187,5.952l-2.958,4.892c0.597,0.551,1.619,1.451,1.877,1.141L305.363,132.737
				z M312.514,147.775l-2.27-4.399c-0.526-1.018-1.839-3.146-2.714-3.831l-8.015-6.277c-0.679-0.718-2.212-2.38-3.013-2.874
				l-3.422-2.107c-0.505-0.311-1.958-0.317-2.489,0.009l-1.58,0.972c-0.225,0.138-1.635-0.404-1.668-0.665
				c-0.09-0.714,0.017-2.001,0.125-2.825l-6.527-0.802c-0.339-0.042-1.729-0.078-1.573,0.211l0.772,1.431
				c0.636,1.18,2.512,3.526,3.744,4.105l5.633,2.646l6.867,4.55l2.191,1.44l8.342,5.912l2.047,1.639l4.09,4.247
				C313.025,150.11,312.84,148.407,312.514,147.775z M273.178,161.14l-3.517-3.491c-0.969-0.962-3.534-2.336-4.86-3.04l-3.498-1.856
				c3.692-0.744,6.447,0.813,8.963,2.987l4.744,4.098l6.479,4.33c1.938,1.295,4.16,3.997,5.694,5.921l1.018,1.779
				c0.231,0.403,2.143,0.116,2.461-0.223l4.2-4.484c2.447-2.613,4.822-5.378,7.489-7.462c0.584-0.456,2.324-1.548,2.66-2.124
				l3.602-6.168l-2.615-3.09c-0.659-0.779-2.022-2.369-2.85-2.92l-6.813-4.54l-6.8-4.531l-4.807-2.522l-5.537-3.047l-1.871,2.362
				c-1.41,0.784-3.431,1.88-4.375,2.975l-3.901,4.521l-9.794,10.186l0.658,6.064l1.352,5.953l-4.142,6.234
				c-0.826,1.244-2.09,2.784-3.121,3.372l-3.762,2.148l4.328,1.46c1.304,0.44,3.363,2.456,4.36,3.739
				c0.579,0.745,2.924-0.1,3.525-0.803l2.723,0.096c4.246-1.352,7.428,2.587,9.892,0.537l4.594-3.822l4.16-4.046
				c-0.245-1.035-1.274-3.483-2.161-4.17l-3.78-2.925L273.178,161.14z M318.319,139.693l3.071-4.2l-1.824-1.045
				c-0.516-0.296-2.387,0.455-2.729,1.019l-3.911,6.461l1.401,1.52L318.319,139.693z M255.749,186.552
				c1.065-0.764,2.038-1.526,2.112-2.264c0.244-2.431-2.389-4.247-4.52-5.636l-4.332-2.824c-1.744,1-2.179,3.858-0.343,6.069
				c0.544,0.655,1.072,2.265,1.406,3.297C250.72,187.201,253.999,187.806,255.749,186.552z"/>
			<path d="M20.3,227.018l-2.387,0.284c-0.321,0.009-1.49-0.091-1.405-0.405c0.085-0.315,0.316-1.132,0.274-0.982L20.3,227.018z"/>
		</g>
		<g>
			<path d="M698.276,216.024v0.748l-3.844,0.589l-13.225-0.028l-3.988-0.097l-4.443,0.081l-5.199,0.021l-5.116-0.845l-7.71,0.114
				l-4.394-0.359l-10.078-1.283l-11.636-1.755l-6.276-0.731l-4.474-0.615l-13.533,0.472l-3.01-0.722l-10.264-0.208
				c-2.545-0.052-5.79-1.906-8.24-2.755c-3.333-1.155-5.467-0.483-9.193-1.844l-5.551-2.027l-7.394-2.446l-5.67-1.845l-7.259-3.211
				l-10.354-4.022l-2.714-2.301c-1.143-0.066-2.869-0.311-3.689-0.767l-4.986-2.769l-5.265-2.915l-5.571-2.708
				c-2.785-1.354-5.641-3.281-8.124-5.219l-4.587-3.58l-2.338-7.372l-1.526-4.975l-0.777-3.182l-0.957-5.762l0.025-9.574
				l0.787-6.833l0.729-5.068l0.723-5.363l0.691-5.258l0.967-7.357c1.54-11.716-3.987-22.927-15.251-23.178l-7.002-0.156
				c-4.246-0.095-7.441-3.632-11.086-4.235l-4.776-0.79l-2.331,1.407c-0.5,0.302-1.747-0.936-2.327-1.128l-4.122-1.364
				c-1.166,0.844-3.44,3.218-3.49,4.632l-0.245,6.962l-6.54,1.633c-1.318,0.329-4.229,0.477-5.421-0.015l-6.969-2.879l-5.857-2.584
				l-4.328,0.747l0.064-8.593l-3.723-1.893l-6.842-3.077l-5.068-2.369l-7.114-2.608l1.763-5.566
				c0.842-2.659,5.422-2.937,7.486-1.563c1.141,0.759,2.755,1.769,3.71,2.126l7.783,2.902l3.263,1.375l0.694-5.626l1.301-7.648
				l1.287-5.44c-0.986,0.073-2.469,0.139-3.045-0.121l-3.785-1.708c-3.915-2.633-8.195-4.206-13.108-4.822
				c-0.627-1.611-0.373-4.504,0.527-5.91l2.72-4.251l4.543,0.312l6.504,2.554c2.95,1.158,6.444,5.115,6.755,4.026l0.407-1.422
				l1.875-6.549l3.603-0.398l0.364-0.45c2.41-2.734,6.92-2.158,11.454-0.409l8.857,3.416c0.307,0.118,1.116,1.84,0.788,1.812
				l-1.59-0.134l-5.267-1.252l-5.441-1.841c-4.031-1.364-4.216,2.45-5.225,7.684l-4.097,21.242l-1.305,6.511l-2.282,11.821
				l-0.197,2.879c-0.239,3.489,2.006,1.677,6.209,5.174c1.656,1.378,4.804,1.938,5.653-0.031l1.749-4.06
				c1.179-2.737,5.06-6.304,7.976-6.816l3.894-0.683c1.058-0.186,3.439,0.838,4.041,1.411l1.054-7.26
				c0.434-2.99,1.32-5.87,2.691-8.503l2.849-5.475l-5.652-0.946c-1.089-0.182-3.687-1.546-4.039-2.588l-1.378-4.07
				c-0.915-2.701-0.032-5.269,0.469-8.152l0.692-3.984c0.213-1.225,3.028-3.367,4.155-2.869l5.39,2.381
				c0.121,1.266,0.027,4.065-0.369,5.228l-2.483,7.302c-0.331,0.974,0.195,3.864,0.504,4.003c3.513-0.859,6.995,2.168,6.83,2.928
				l-0.357,1.639l4.005,2.584l0.347,3.474l7.764,3.439l4.987,2.06c1.944,0.803,4.476,3.461,5.623,5.298
				c1.46,2.34,4.47,0.678,7.395,3.147l7.404,6.248l2.119,5.105l1.654,4.192c0.506,1.282,1.568,3.997,1.572,5.29l0.047,13.938
				l-0.663,6.95l-1.255,8.083l-0.648,7.567l-0.218,17.999l0.473,3.986c1.158,1.868,3.004,4.885,4.806,6.3l6.732,5.285l3.543,2.398
				l16.605,8.93l4.603,2.29l4.984,1.608l7.135,1.88l6.114,1.888l8.369,2.436l4.535,1.409l4.688,1.222l7.724,1.895l4.885,1.255
				l4.695,1.11l7.595,0.268l6.539,1.212l11.406,0.282l3.602,0.252l4.592,0.455l4.117,0.453l7.05,1.131l8.366,0.725l7.446,1.126
				l6.014,0.738l6.849,0.841l3.477-0.334l9.805,0.506c1.026-1.871,1.988-0.08,1.276,0.846c-2.372,1.303-5.195,2.094-7.536,1.746
				c-5.917-0.882-8.045,0.842-11.497,0.122l-11.872-2.475l-9.974-1.312l-5.152-0.7l-6.128-0.536l-6.766-0.506l-5.857-0.53
				c-5.478-0.495-6.858,0.564-9.301-0.163c-2.328-0.693-4.239-0.911-6.519-1.047l-9.251-0.554l-3.211-0.592l-3.59-1.471
				l-5.706-1.006l-3.131-0.552l-1.132-1.541l-1.444-0.105l-4.63-1.166l-8.815-2.382l-3.952-1.195l-9.154-2.742
				c-1.175-2.788-7.242-1.311-10.119-2.733l-8.495-4.197l-5.83-3.147l-6.814-3.681c-4.308-2.327-13.092-9.586-13.765-12.317
				l-1.78-7.221l-0.116-2.452l0.124-5.183c0.056-2.354,0.231-4.031-0.13-6.599c-0.144-1.025,0.13-2.984,0.247-4.361l0.537-6.286
				l1.489-7.664l0.534-6.024l0.285-5.601l0.31-6.077c0.064-1.263-0.269-3.297-0.705-4.541l-2.782-7.942
				c-0.535-1.527-1.471-4.463-2.572-5.424l-4.925-4.296c-0.608-0.531-2.411-1.513-2.719-1.397l-1.26,3.351l4.313,3.806
				c3.743,3.303,6.022,8.68,6.038,13.486l0.028,8.413l-0.905,5.264l-1.549,10.45l-0.533,5.348l-0.758,6.034l-0.619,7.528
				l0.419,6.222l2.764,12.281c0.672,2.985,2.935,5.643,5.153,7.495l4.644,3.879l4.487,2.802l5.448,2.921l3.869,3.371l5.719,2.563
				l7.502,3.121l7,2.802l7.482,3.492l13.459,4.733l7.279,2.354l9.476,2.593c2.669,0.73,6.324,1.506,8.96,1.595l8.308,0.281
				l6.647,0.547l4.731-0.083l13.296,0.38l6.768,0.879l5.312,0.862l8.075,1.285l11.416,0.733l9.357,1.083l7.012-0.24l6.864,0.587
				l14.86,0.275C696.501,215.355,698.111,215.796,698.276,216.024z M433.526,35.054l-0.523,0.453l0.917,3.538l-3.025,2.989
				c-0.559,0.552-0.826,2.296-0.395,2.917l1.166,1.68c0.231,0.333-1.856,0.853-1.946,1.249l-1.603,7.065l-1.261,7.013l-0.774,5.917
				l-0.659,5.036l2.884,0.292l1.456-7.567l2.7-14.046l0.801-5.955l1.324-7.607C434.72,37.262,434.038,35.604,433.526,35.054z
				 M426.376,49.482c0.166-1.28-0.947-2.94-1.89-3.46l-6.702-3.693l-5.503-2.237c-0.87-0.354-2.692,0.572-2.653,1.41
				c0.033,0.702,0.976,2.441,1.661,2.711l6.853,2.702l5.212,2.52C424.035,49.765,426.281,50.211,426.376,49.482z M458.18,53.839
				l3.394-11.78L459,40.972c-0.402-0.17-1.061,1.296-1.12,1.746l-0.786,5.924C456.945,49.759,457.763,52.394,458.18,53.839z
				 M469.326,64.647l-3.101-0.459l-1.013,3.142L469.326,64.647z M422.326,76.055l-3.813-2.412l-5-1.543
				c-2.413-0.745-4.235-1.093-6.24-2.13l-3.028-1.565l-0.951,2.178l5.689,2.698l6.735,3.194l4.993,1.532L422.326,76.055z
				 M482.948,86.852l2.777-5.892c0.438-0.929,0.817-3.681,0.038-4.22l-4.521-3.125c-3.398-2.349-4.719,4.143-8.751,2.341l2.92-5.096
				l-4.427-1.12c-1.02-0.258-3.428-0.08-4.162,0.592l0.007,9.272c0,0.416,1.525,0.988,1.91,0.813l2.979-1.356
				c0.197,1.319,0.157,3.618,0.855,4.115l4.287,3.054c0.478-1.551,0.807-3.284,1.572-3.216l2.696,0.241l-0.933,3.319L482.948,86.852
				z M463.172,79.265l0.652-0.411l-0.189-4.908l-0.652,0.411L463.172,79.265z M424.23,87.39l1.024-2.449l2.446-9.285l-2.712,1.054
				l-0.801,4.926L424.23,87.39z M491.52,84.959l-0.117-3.31c-0.016-0.442-2.18-1.3-2.461-0.963c-0.89,1.066-1.362,4.13-1.095,5.332
				L491.52,84.959z M447.001,92.448l0.918-6.626c0.254-0.441-1.1-0.308-1.746,0.107c-1.279,2.684-1.818,4.231-2.093,6.638
				C445.436,92.512,447.549,92.426,447.001,92.448z"/>
			<g>
				<path d="M370.916,0c1.764,1.703,5.337-0.03,8.625,1.091c1.967,0.671,5.03,2.07,6.705,1.805c1.013-0.16,2.276-0.771,2.635-0.364
					c0.358,0.406,0.988,1.465,1.247,2.012l1.27,2.676c0.324,0.683,1.393,2.473,1.247,3.308l-1.396,7.962l-0.664,6.436l-0.854,4.932
					l-0.314,19.462l-0.547,6.69l-0.586,6.862l-0.043,5.743l0.934,7.528c0.148,1.19,0.38,3.393-0.011,4.366
					c-0.385,0.957-2.202,1.883-3.504,2.331c-3.29,1.13-6.282,0.604-9.56,0.481l-9.025-0.341l-5.294,0.476l-5.256,0.858l-5.151,0.697
					l-3.576-0.073l-4.432-0.321l-6.125,1.77c-0.929,0.269-3.595-0.09-3.676-1.026l-0.389-4.464l-1.637-5.323
					c-0.262-0.853,0.312-2.956,0.162-4.02l-1.137-8.074l-1.378-8.383l-0.49-15.434l-0.664-7.572l-0.626-11.218l-1.022-7.037
					l-0.819-7.888c-0.121-1.17,0.729-3.291,1.783-3.506l5.312-1.086l5.316-1.329L370.916,0z M354.172,9.427l3.936,0.162l14.328-0.01
					l6.631-1.211l6.574-0.824c0.937-0.04,1.548-1.912-0.182-1.207l-8.148-2.286l-7.171-0.843l-12.536-0.786l-2.62,0.447l-8.78,0.235
					l-6.095,0.221c-1.404,0.051-4.221,0.402-5.488,0.77l-5.045,1.464c-0.031,1.422,0.51,4.444,1.171,5.846l5.813-1.457
					c1.691-0.424,5.247,0.646,11.221,0.082L354.172,9.427z M338.49,82.214l6.043-0.303l6.294,0.133l4.415-0.317l4.567-0.654
					l5.454-0.782l7.761-0.065l7.034,0.227l5.095-2.336l0.085-6.979l0.259-6.995l0.236-3.623l0.307-5.065l0.299-5.541l0.446-11.055
					l0.11-3.889l0.062-3.446l0.761-6.099l0.624-5.211l0.531-9.444l-5.278,0.389l-6.842,0.6l-5.155,0.785l-11.218,0.289l-2.734,0.07
					l-6.462,0.274l-16.256,0.356l-3.672,0.798l-0.251,8.111l-0.012,4.438l0.397,16.347l0.227,4.532l0.33,6.21l1.078,6.096
					l1.058,5.772l0.273,5.06l1.782,4.967l1.083,3.949C337.357,80.311,338.05,82.236,338.49,82.214z"/>
				<path d="M373.652,56.353c-0.406,1.505-1.725,4.141-3.004,4.446l-6.404,1.524c-2.824,0.672-6.207,0.46-9.078-0.174
					c-4.248,0.286-7.296-1.391-9.999-4.494c-1.536-1.764-3.556-4.17-3.612-6.716c-0.107-4.863,0.946-8.979,2.491-13.35
					c0.972-2.75,2.378-4.719,4.485-6.916c0.968-1.009,3.029-3.372,4.366-3.617c1.737-0.319,5.11-0.367,6.549,0.061l5.267,1.566
					c0.962,0.286,3.083,1.251,3.802,1.933l3.163,2.998C378.373,39.959,379.486,48.64,373.652,56.353z M366.675,58.559l4.036-2.927
					c4.376-4.843,4.286-12.483,0.245-17.65c-4.711-6.023-10.968-8.929-18.553-7.93l-4.074,3.593l-1.59,5.13l-1.624,7.01
					c-0.257,1.109,0.195,3.591,0.485,4.968c0.671,3.186,3.418,6.25,6.406,7.666C356.365,60.484,364.453,60.171,366.675,58.559z"/>
				<path d="M354.88,42.649c2.701,1.915,2.231,6.672,0.623,7.452c-0.929,0.45-3.079-0.579-3.004-1.488l0.324-3.94
					C352.884,43.937,354.256,42.206,354.88,42.649z"/>
				<path d="M365.675,47.647c0.193,0.79-2.019,2.079-2.763,1.893c-0.897-0.225-2.116-2.042-1.938-2.946l0.509-2.584
					c0.124-0.629,1.607-0.693,3.121-0.744L365.675,47.647z"/>
			</g>
		</g>
	</g>
</g>
</svg>
