<?xml version="1.0" encoding="iso-8859-1"?>
<!-- Generator: Adobe Illustrator 30.3.0, SVG Export Plug-In . SVG Version: 9.03 Build 0)  -->
<svg version="1.1" id="Layer_1" xmlns="http://www.w3.org/2000/svg" xmlns:xlink="http://www.w3.org/1999/xlink" x="0px" y="0px"
	 viewBox="0 0 540.732 384.264" style="enable-background:new 0 0 540.732 384.264;" xml:space="preserve">
<g id="gXLUbc.tif_00000073718960503936632590000001552564830087223429_">
	<g>
		<g>
			<path d="M220.109,384.122l-10.402,0.142l-0.84-0.696l-16.214-0.169l-5.138-1.574c-0.438-0.134-1.385-2.046-0.986-2.271
				l5.984-3.378l6.7-4.043l6.035-4.161l7.618-4.495l4.151-2.449l-4.627-1.971c-0.394-0.982-1.065-3.66-0.965-4.746l0.554-6.011
				l0.574-4.624l0.237-18.338l0.594-3.354l0.146-11.016l0.488-3.058l-0.252-4.426l0.23-6.149l0.319-12.546l0.538-3.33l0.257-15.434
				c0.03-1.78,0.244-4.172-0.412-5.608l-3.636-7.955l-1.657-5.75l-1.59-5.848l-4.028-14.819c-0.277-1.019-0.374-2.237-0.405-3.443
				l-9.951-0.025l-0.816,7.523l-0.628,4.636l-0.865,8.007l-0.676,8.335l-0.799,6.706l-0.763,5.351l-0.757,5.064l-0.31,18.784
				l-0.628,6.6l-0.089,6.707l0.108,5.37l-0.353,6.852l0.404,6.502l-0.269,6.195l0.033,4.212l0.082,4.12l-0.328,10.345l-0.492,11.945
				l0.018,4.423l0.584,6.041c-0.497,0.712-2.9,2.29-4.169,2.277l-9.163-0.095c-0.774-0.008-2.045,1.341-2.107,2.082l-0.295,3.546
				l-7.112,2.049l-6.165,0.43l-8.82,0.121l-3.863-0.009l-17.769,0.135l-3.103,0.69l-23.97,0.022l-5.335-0.32l-3.597,0.064
				l-10.656-0.171l-5.826,0.072l-8.567-0.169l-5.643,0.17l-9.177-0.097l-5.806-0.209l-14.29-0.215l-2.734-0.208l-1.341,0.178
				c-0.401,0.053-1.149-1.057-1.152-1.499l-0.04-5.923l-8.94,0.244l-7.9,0.217c-0.47,0.013-1.915-0.401-1.836-0.83l0.391-2.12
				l0.929-5.746l0.037-8.131l-0.01-4.598l0.196-19.175l0.676-3.204l0.003-24.756l-0.657-5.245l-0.029-19.412l0.008-3.721
				l-0.151-25.493l-0.339-3.627l-0.215-2.422l-0.255-12.718l-0.751-5.124l-7.349-0.028l0.162-3.777l0.552-2.84l0.372-5.159
				l0.002-3.566c0-0.69,0.086-1.79,0.286-2.316c0.2-0.526,1.881,0.103,2.491,0.433l48.438,0.012
				c2.506-4.863,6.719-7.897,12.074-8.383l6.133-0.556c1.787-0.162,3.437-0.616,4.589-2.069c2.395-3.019,3.34-4.184,8.012-4.349
				l4.496-0.159l9.762-0.343l-0.06-4.441c-0.02-1.453-3.42-0.656-8.57-3.051l-6.741-3.136l-4.491-2.402
				c-1.355-0.725-4.007-2.053-5.042-3.053l-6.498-6.28c-1.334-1.29-3.089-2.651-3.848-4.28c-1.764-3.786-3.583-6.526-5.783-10.1
				c-1.52-2.469-2.435-6.177-3.474-9.291c-0.738-2.211-0.172-5.422-0.247-7.654c-0.13-3.847-0.208-7.534,0.333-11.333l0.755-5.296
				c0.304-2.134,0.585-4.254,1.248-6.2l1.75-5.138c1.187-3.485,5.805-11.108,8.441-14.131c3.178-3.645,7.203-7.503,10.74-10.807
				c0.609-0.569,2.662-1.517,3.445-2.004c-1.685-2.998-3.306-7.22-1.574-10.448c1.787-1.723,6.113-0.107,7.372,1.715l2.919,4.223
				c0.94-0.456,3.782-0.845,4.239-0.002l2.886,5.321c4.785-1.665,9.81-3.471,14.845-2.756l5.303,0.753
				c6.019,0.855,14.673,4.402,19.448,8.121l4.611,3.592l7.34,6.987l3.073,2.946c2.691,2.579,5.14,5.576,6.708,8.983l1.932,4.198
				l1.462,5.388c0.461,1.699,1.234,4.201,1.333,5.821l0.422,6.862c0.25,4.062,0.214,8.421-1.104,12.385
				c-0.362,1.089,0.449,3.449,0.893,3.802l-4.284,5.536l-7.173,10.234c0.475,0.628,1.81,2.519,1.967,3.51
				c0.26,1.638-1.995,3.865-3.14,4.739l-3.952,3.021c-1.994,1.525-4.588,3.29-6.834,4.17l-6.137,2.407
				c-1.895,0.743-4.82,2.297-6.631,2.597l-4.753,0.787l-6.91,1.157c-1.499,0.251-4.273-0.319-6.741-0.254l1.939,3.568
				c0.393,0.723,3.004-0.563,3.927-0.569l12.173-0.081l3.43,4.481l9.986-0.045l4.09-4.227l5.597-5.004l12.953-12.425l4.383-3.92
				l4.753-4.245l11.417-11.021l4.486-4.509l16.106-16.069l2.765-2.639c-5.82-1.429-9.623,2.271-11.691,0.989
				c-0.394-0.244-0.55-1.367-0.513-1.862l0.57-7.58l0.603-8.298l1.022-4.877l1.939-11.659l0.729-6.033
				c0.992-8.206,6.591-20.33,13.972-22.662l4.705-1.486c3.684-1.164,7.648-2.809,11.498-3.218l6.775-0.719l9.963-0.454l9.312-0.011
				l4.564-0.424l8.448,0.862c5.369,0.548,18.325,3.812,17.7,3.1l3.386,3.854l4.757,5.219l2.551,3.334l4.973,7.017l2.321,3.499
				l5.091,6.898c0.389-0.732,0.904-2.159,0.971-2.94l0.607-7.024l0.742-6.057l0.819-5.21l0.292-4.281l1.669-9.53l0.577-3.982
				l0.815-6.043l3.393-14.269l0.61-5.362c0.633-5.558,1.629-11.17,6.446-14.672c2.025-1.472,4.83-3.245,7.102-4.017l8.562-2.911
				c3.244-1.103,6.894-2.535,10.271-2.898l5.431-0.582l6.773-0.687l8.316-1.455l5.856-0.862l6.338-0.63l9.417-1.224l7.354-1.122
				L409.583,0l3.957,0.003l5.888,0.339l13.983,3.187l4.269,2.259l3.491,2.038c1.403,0.819,4.332,2.191,5.223,3.408l2.584,3.53
				l3.04,4.599l2.548,4.155c0.711,1.159,2.096,3.959,2.096,5.317l-0.002,10.94c0,1.398-1.37,4.253-2.097,5.371l-3.455,5.315
				c-0.673,1.035-6.118,3.877-10.569,4.679l-3.18,0.573l-8.024-3.633l-0.887,5.863l-1.045,7.423l-0.454,7.477
				c-0.395,6.497-1.193,12.293-1.407,18.787l-0.218,6.596l-1.302,9.1l-0.673,4.71l-0.784,4.93l-0.329,12.868l-0.77,5.817
				l-0.586,6.822l-0.466,6.793l-0.492,12.647l-0.45,6.741l-0.392,11.263l-0.609,5.878l-0.752,5.196l-0.7,6.147l9.303-0.028
				l3.718-0.419l3.618-0.235l37.271-0.302l6.875-0.286l3.545,0.059l4.157,0.25l7.134-0.012l4.629-0.321l11.26,0.313l8.832,0.359
				l7.095,0.38l7.368-0.298l6.415-0.223l2.496,2.639l-2.191,1.847l-0.494,6.132l-0.449,8.116c-0.096,1.731-1.959,4.649-3.462,4.972
				l-6.334,1.359l-1.235,7.19l-1.263,6.774l-0.521,14.7l-0.276,4.068l-0.422,5.038l-0.817,8.241l-0.679,6.003l-0.474,5.996
				l-1.249,17.84l-0.115,4.759l-0.51,14.801l-0.121,9.948l0.18,4.154l-0.204,4.505l-0.141,4.802l-0.104,19.717l1.619,2.713
				l-7.918,1.792l-0.23,3.949c-1.127,2.374-4.976,3.207-7.734,3.308l-16.516,0.603l-6.165,0.052l-9.076,0.074l-3.611,0.348
				l-6.786,0.073l-3.385-0.009l-9.799,0.016l-5.383,0.324l-13.996,0.884l-2.572,0.311l-10.283,0.356l-7.698,0.638l-5.02,0.007
				l-7.686-0.664l-10.388-0.15l-3.753,0.012l-14.887-0.085l-1.633,0.517c-0.235,0.074-0.714-1.185-0.714-1.472l0.001-7.883
				l-3.896-0.129c-1.125-0.037-3.443-0.623-4.5-0.886l-7.925-0.49l-0.521-3.782c3.293-7.201,0.152-11.62,1.415-17.932l-5.761-0.662
				c-7.47-0.859-11.158,1.002-17.081,5.555l1.902,5.304c0.811,2.26,2.839,4.658,4.415,6.505l2.197,2.575l3.008,3.515
				c0.28,0.327,0.594,1.658,0.597,2.095c0.003,0.437-1.275,1.147-1.708,1.081l-6.427-0.974l-8.308-1.806l-8.123-0.954l-7.201-1.904
				l-4.056-0.783c-0.1,0.507-0.648,3.047-1.337,3.354l-7.132,3.179c-6.137,2.735-9.964-2.132-10.235-0.278
				c-0.168,1.15-0.655,3.479-1.073,3.86l-8.175,0.317l-7.102,1.695l-9.053,2.341c-0.976,0.252-3.419,0.213-4.235,0.048l-1.483-5.124
				l-6.319,4.159c-1.627,1.071-3.629,2.882-5.478,3.327l-12.015,2.888L220.109,384.122z M386.706,197.873l18.406,0.008l0.607-6.079
				l0.44-13.305l0.7-6.789l0.627-6.765l0.462-5.387l0.817-9.585l0.75-9.097l1.148-8.891l0.346-5.952l0.671-6.82l0.498-8.122
				l0.436-6.778l0.849-8.927l0.762-6.821l0.503-5.913l0.352-14.297l0.2-4.229l0.595-6.137l1.13-8.352l0.828-5.011l-0.881-0.905
				l-4.205,0.449l-7.563,0.809l-8.205,0.955l-4.483,0.462l-6.041,0.465l-5.949,0.349l-5.307,0.265l-3.732,0.186l-6.307,0.312
				c-1.066,0.053-2.804-0.587-4.295-1.372l1.258-1.084l7.127,0.236l6.874-0.304l5.81-0.677l5.231-0.138l6.851-0.795l4.583-0.489
				l4.325-0.299l6.922-0.648l7.1-0.448c2.628-2.193-0.467-5.745-0.467-7.475l0.001-13.286c0-1.243,0.805-4.081,1.242-5.305
				l1.574-4.41l4.492-7.444l-5.143-0.846l-4.495-0.583l-13.965-0.048l-4.142,1.261l-5.096,0.557l-7.239,1.268l-9.211,0.787
				l-4.26,0.345l-9.396,1.569l-7.324,0.206L343.15,10.87l-5.732,1.789c-2.078,0.649-4.454,1.475-6.241,2.568l-4.295,2.626
				c-2.556,1.563-4.48,4.022-5.098,6.949l-1.45,6.869l-0.887,6.466l-2.302,9.363l3.581-0.794l31.885-0.057
				c3.032-1.245,6.411-1.304,8.469,1.398l-3.934-0.325c-1.634,0.785-5.258,2.247-7.031,1.818l-4.004-0.969l-7.06,0.093l-11.18,0.134
				l-6.749,0.049c-1.506,0.011-4.664,0.762-4.856,2.183l-0.828,6.113l-0.667,4.659l-0.79,5.159l-0.651,4.557l-1.673,12.594
				l-0.606,5.2l-0.591,7.415c-0.156,1.953-0.099,3.603,1.218,5.093l3.598,4.07l4.165,4.729l6.428,7.901l2.592,2.617l4.472,5.322
				l5.806,6.028l8.45,8.797l5.265,5.998l5.808,6.205l1.904,2.577l4.598,5.058l4.711,5.083l2.476,2.745l5.226,6.032l4.913,5.667
				c1.12,1.292,2.895,4.518,3.199,6.174l1.454,7.926L386.706,197.873z M416.7,174.69l0.409-7.498l0.561-11.983l0.509-8.938
				l0.515-6.787l0.456-6.013l0.524-7.428l0.483-6.79l0.511-5.348l1.406-9.035l1.016-10.287l0.572-5.972l0.531-8.877l0.177-4.874
				l0.07-5.714l0.105-4.488l0.661-7.553l1.155-5.836c1.052-5.319-1.501-7.964,0.9-9.071c0.712-0.328,2.892,0.238,3.097,0.981
				c0.423,1.53,0.603,5.348,1.886,6.207l4.162,2.788c2.334,1.564,5.921,0.165,8.39-0.992c8.806-4.125,12.373-18.888,5.752-28.809
				l-4.789-7.177c-0.429-0.643-1.326-2.375-1.933-2.698l-5.245-2.786l-5.061-2.683c-1.47-0.779-4.879-1.958-6.517-2.215
				c-0.856-0.134-2.15,2.017-2.534,2.76l-2.243,4.331l-2.725,11.53l-0.423,6.131c-0.105,1.519,0.91,4.574,1.469,6.246l1.793,5.368
				l-1.863,7.26l-1.189,6.939l-1.164,9.373l-0.273,10.369l-0.131,5.292l-0.792,7.992l-0.664,5.385l-0.799,7.543l-0.771,7.329
				l-0.331,4.779l-0.404,6.514l-0.682,7.624l-1.181,7.519l-0.337,6.487l-0.769,5.379l-0.529,7.482
				c-0.452,6.387-0.381,12.434-1.434,18.682l-0.31,10.392l-0.144,4.741l-0.406,9.641l5.685-0.217l1.633-8.179l0.704-6.573
				L416.7,174.69z M218.977,203.644l6.462-0.7l4.462-0.431l7.555-0.661l10.52-0.329c-0.059-1.53-0.474-3.529-1.113-4.63
				l-2.192-3.776l-1.991-5.009c2.041-2.439,4.475-5.107,7.159-6.993l4.045-2.843c1.611-1.132,4.073-2.32,6.024-2.804l8.948-2.222
				l4.346-0.345l5.477-0.139l11.195-0.5l4.426-0.483l6.06-0.683l6.008-0.752l3.592,0.503l5.317-0.821l6.017-0.634l6.117-0.413
				l4.462,0.354c-0.935-1.457-2.104-3.246-3.133-4.152l-4.482-3.946l-4.279-3.768l2.979-1.685l3.033,3.609
				c2.919,2.273,5.32,4.7,7.646,7.481l4.746,2.683c0.478,0.27-0.426,2.191-0.966,2.052l-2.258-0.583l-12.929,0.112l-6.977,0.699
				l-8.929,0.598l-7.54,0.563l-5.142,0.704l-7.509,0.517l-10.405,0.364l-6.142,0.674l-7.659,1.871l-4.182,1.268
				c-4.245,1.287-9.377,6.616-11.46,10.67l1.111,1.868l4.29-2.822c0.664-0.437,2.639-0.608,3.258-0.427
				c0.578,2.45-3.229,1.426-5.541,5.631c-0.306,0.556,0.156,2.416,0.653,2.795c0.373,0.285,1.853,0.31,2.23,0.06l5.467-3.621
				c0.214,0.021,1.016,1.633,0.656,1.887l-1.573,1.113l-4.847,3.432c-0.358,0.254-1.42,1.103-1.144,1.405l1.136,1.243l19.819-0.049
				l2.959-0.364l4.003-0.169l13.32-0.042l4.45,0.044l6.253-0.395l4.989-0.396l7.62-0.686l8.129-0.073l4.592,0.024l10.976-0.236
				l3.191-0.661l41.168-0.003l-0.441-7.064c-0.137-2.186-3.005-7.754-5.508-10.859l-5.701-7.073l-3.439-4.124l-2.813-3.078
				l-4.364-4.684l-3.898-4.329l-4.212-4.77l-4.922-5.575l-5.293-5.91l-4.301-4.716l-7.568-8.135l-3.465-3.993l-2.959-3.095
				l-2.47-2.585l-4.75-5.932l-4.316-5.315l-3.067-3.754l-2.868-3.709l-4.952-7.244l-2.265-2.793l-5.067-7.029l-2.837-3.934
				c-1.345-1.865-3.083-3.235-4.825-4.95l-5.135-5.054l-10.349-2.523l-4.982-0.828l-5.269-0.51
				c-3.606-0.349-6.914-0.053-10.561,0.041l-17.216,0.446l-5.185,0.706l-5.569,1.06l-6.793,2.348l-5.738,2.365
				c-1.124,0.463-3.177,2.617-3.77,3.708l-4.734,8.718c-0.982,1.809-1.344,5.052-1.679,7.095l-1.084,6.614l-1.911,10.856
				l-0.796,5.82l-0.089,12.574c0.885,0.892,3.406,0.681,4.68,0.526l6.174-0.755c2.679-1.172,5.559-2.472,8.266-2.88l4.02-0.605
				l9.021-1.359l3.88-0.572l5.909-0.855l5.176-0.673l7.582-0.77c3.223-0.327,7.039-0.478,10.354-0.019l5.464,0.756
				c1.116,0.154,1.334,3.085,0.481,4.083c-2.966,3.469-6.545,4.694-10.67,6.087l-5.865,1.98l4.218,2.665
				c0.655,0.911-1.304,3.941-2.506,4.48l-4.412,1.976c0.99,0.172,3.059,1.163,3.023,2.071c-0.103,2.609-3.465,2.693-2.12,3.816
				c0.748,0.625,1.872,1.509,2.077,2.216c0.831,2.869-6.703,6.447-12.212,8.398l-5.004,1.772c-4.76,1.686-7.62,4.33-10.891,7.968
				c-2.139,2.378-4.811,4.13-7.185,6.271l-3.51,3.165l-4.292,4.024l-5.027,4.673l-3.966,3.643l-2.443,1.966
				c-0.248,0.2-1.111,0.465-1.418,0.579c-0.307,0.114-0.619-1.85-0.377-2.072l7.148-6.544l7.034-6.538l4.382-3.873l4.008-3.537
				l6.8-6.629l1.895-1.802l4.796-3.446l3.477-0.348l4.879-1.798c3.34-1.231,5.925-2.497,8.934-5.212l-5.805-0.016l-1.832,0.187
				c-0.405,0.041-1.202-1.453-0.835-1.627l1.68-0.794c2.377-1.123,4.324-2.044,6.115-3.576c-3.565-0.701-4.553-0.638-7.871-2.846
				l7.994-2.637l4.38-1.975c-3.343-3.351-8.346-1.262-8.428-2.317l-0.183-2.34l5.985-2.007l10.312-3.329l3.43-1.605
				c0.699-0.327,1.97-2.602,1.227-2.749l-4.471-0.884c-3.053-0.603-6.525-0.318-9.53-0.027l-6.909,0.67l-10.368,1.471l-8.311,1.307
				l-5.941,0.813c-4.587,0.627-8.775,3.53-12.182,6.563l-4.418,3.933l-5.942,5.93l-3.589,3.923l-8.661,8.727l-5.879,5.941
				l-7.905,7.138l-3.885,3.568l-6.245,5.749l-3.778,3.668l-6.033,6.027l-3.462,3.161l-5.973,5.716l2.824,2.284l4.854,6.218
				l19.211,0.315l5.43,0.354l3.813-0.178l2.096-0.073l3.655-0.114l5.548,0.315c3.238,0.184,6.936,0.108,10.193,0.011l9.826-0.293
				l5.032-0.46L218.977,203.644z M84.958,77.924c0.412-1.27-2.166-3.547-3.355-4.156c-0.795-0.543-1.229-0.927-1.373-0.573
				l-0.57,1.405l1.937,5.661C81.867,80.359,84.674,78.798,84.958,77.924z M139.409,173.064c-1.094,0.847-3.271,2.243-4.425,2.52
				l-8.366,2.003l-4.347,0.287l-5.057,0.066l-4.876,0.346l-9.989-1.189c-1.347-0.16-4.332-0.766-5.568-1.303l-6.633-2.882
				c-1.838-0.799-4.762-1.705-6.018-2.783l-4.61-3.955c-0.929-0.797-3.486-1.996-4.451-2.939
				c-8.842-8.636-13.174-13.571-14.221-26.846c-0.518-6.564,0.015-13.256,1.671-19.656l1.553-6.002l1.516-4.418
				c0.658-1.916,1.708-3.586,2.944-5.365l1.507-2.949l3.258-2.749l4.846-4.213c1.694-1.473,3.524-2.872,5.56-4.191l6.631-4.296
				c0.528-0.342,0.219-2.444-0.366-2.677c-0.439-0.175-2.03-0.504-2.439-0.269l-5.53,3.178l-4.641,2.666
				c-1.639,0.942-4.069,3.552-5.633,5.092l-3.508,3.451c-1.677,1.65-3.324,3.868-4.412,5.962l-4.416,8.496
				c-1.046,2.012-1.577,4.475-2.006,6.948l-1.504,8.657c-0.058,0.332-0.941,1.277-0.81,1.53l0.519,0.997l-0.332,8.373
				c-0.196,4.958,0.308,9.743,2.553,14.082l3.057,5.911l4.445,7.811c1.395,2.451,4.474,4.621,6.668,6.54
				c1.621,1.418,3.198,3.089,4.899,4.131c7.528,4.612,15.39,8.228,24.211,9.397l4.843,0.642l4.554,1.313l3.917,0.622l11.184-2.236
				l4.622-1.801l3.785-1.621l5.691-2.363l2.967-2.313l4.775-3.433c0.618-0.444,1.286-2.631,0.852-3.252
				c-0.35-0.5-1.424-1.071-1.566-0.967L139.409,173.064z M98.129,137.884c0.819,0.542,3.21,0.913,4.283,1.211
				c2.18,0.605,0.254,4.68,4.46,8.714l1.448,1.389c0.319,0.306,1.891-0.197,2.052-0.609l2.442-6.244l4.2-2.11l4.289,2.961
				l3.763,2.377l3.052-3.058c1.248-1.251,3.287-2.883,3.487-4.692c0.909-8.244-1.171-11.026-1.324-16.242
				c1.658-0.519,2.24-0.83,2.385-0.465c0.145,0.365,0.474,1.479,0.532,1.896l0.662,4.717c0.186,1.327,0.731,3.694,0.636,4.808
				l-0.349,4.087c-0.417,4.876-4.989,6.204-6.252,9.105l-2.292,5.265l-3.176-4.22c-2.258-0.961-4.113-1.937-6.193-3.256
				c-1.233,0.259-2.55,2.227-2.873,3.64l-1.191,5.211l-4.976-0.632l-3.848-3.176l-1.991-5.724c-0.3-0.862-1.988-1.656-2.988-2.105
				l-8.972-4.027l-5.542,1.547c-0.292,2.032,2.243,3.037,1.535,5.856c-0.214,0.854-2.102,1.672-2.654,2.397l-3.312,4.35
				l-2.955,3.549l-3.109,2.757l5.25,4.947l4.185,3.066c3.102,2.273,5.508,3.938,9.051,5.38l5.229,2.128
				c2.334,0.95,5.405,1.905,7.954,2.171l4.334,0.452c3.176,0.331,6.571,0.174,9.641-0.08l7.015-0.58
				c4.128-0.342,9.93-1.855,12.761-4.638c1.263-3.539,2.314-7.175,4.451-10.089c2.67-3.64-0.323-6.846,4.666-8.171
				c5.013-1.332,5.945-5.11,7.447-4.7l1.801,0.491l0.833-4.338l-0.054-14.209l-0.732-5.178c-1.116-7.896-5.504-15.461-11.248-20.897
				l-5-4.732l-7.609-6.725c-1.031-0.911-3.639-2.498-4.922-3.046l-8.117-3.466c-0.885-0.378-2.966-0.813-4.046-0.978l-6.134-0.94
				c-2.196-0.337-6.561-1.046-8.058,1.006l-2.957,4.053l-0.6,3.5l-3.955,2.426c-0.846,0.519-2.014,1.412-2.746,1.442
				c-2.03,0.083-1.772-2.933-4.83-3.854l-4.326-1.303l-5.391,4.302l-3.032,2.415l7.294,4.814l-4.828,4.436
				c3.435,2.394,6.154,0.062,9.203,0.515c1.824,0.271,4.024,0.477,5.562,0.189l10.66-1.999l5.274-0.398
				c5.217-0.393,3.75-9.376,7.299-8.9c5.295,0.71,7.714,5.12,9.371,2.684l3.467-5.1c0.495-0.728,2.689-0.525,3.19,0.082l3.692,4.481
				l1.369,6.177l1.067,4.85c-0.66,1.897-1.558,4.649-1.759,6.206c3.419,5.012,1.26,7.691,0.862,7.169l-0.796-1.043l-3.813-4.495
				l2.534-7.049l-0.934-4.987l-1.406-6.068l-2.822-2.922l-3.772,5.39c-0.486,0.694-2.451,2.086-3.133,1.632l-2.46-1.636
				l-4.512-2.866l-1.333,5.096c-2.133,3.108-6.334,4.093-10.17,3.993c-1.932-0.051-4.29,0.911-5.978,1.168l-9.05,1.38
				c-2.257,0.344-5.104-0.911-7.341,1.292l-4.926-1.939l-3.207-2.156c-0.024-0.422-0.126-2.272-0.123-2.201l4.699-2.281
				l-3.957-2.685c-0.366-0.248-1.976-0.019-2.16,0.414l-0.59,1.394c-4.115,5.442-5.562,13.637-6.753,20.961
				c-0.385,2.369-0.275,5.287-0.386,7.965c-0.146,3.506-0.482,7.405,0.61,10.69c1.125,3.383,2.219,7.274,4.267,9.859l3.484,4.398
				l2.543-2.625c-1.548-2.304-3.064-3.798-5.467-5.405l-0.113-7.726l2.173-0.994l0.332,5.744c0.172,2.982,4.174,6.424,6.008,5.183
				l4.698-6.069c0.802-1.036-0.226-3.966-0.905-5.144C83.779,133.419,92.049,133.858,98.129,137.884z M92.859,92.586l3.561-3.158
				l1.522-4.584l-3.742,0.47l-4.651,0.583l-4.088,2.471l4.635,1.557L92.859,92.586z M142.199,168.119l3.535-3.612
				c1.278-1.306,3.296-2.923,4.358-4.358l2.953-3.989l3.554-5.779l-1.565-0.411c-1.804,1.346-3.14,2.259-5.202,3.139
				c-4.102,1.752-0.34,4.255-4.473,7.428c-0.673,0.517-1.757,2.426-2,3.321L142.199,168.119z M104.704,190.867
				c0.692-2.431-0.912-4.779-3.069-4.861c-1.26-0.048-1.949,3.962-0.738,4.179L104.704,190.867z M124.469,195.534l-1.48-2.19
				l-21.922,0.059l-3.064-0.746l-6.485,0.166l-6.938,0.608c-2.551,0.223-5.416-0.471-7.196,2.884l30.513,0.103l3.896-0.704
				L124.469,195.534z M69.304,205.024l3.473-0.255l8.959-0.343l9.531,0.018l3.972,0.002l20.13,0.313l4.226,0.319l7.006,0.169
				l10.306-0.169l3.835-0.059l3.151-0.663c-1.747-2.819-4.541-5.689-7.457-6.961l-5.518,0.307l-7.65,0.496l-5.057-0.062
				l-8.905,0.247l-6.478,0.395l-6.778-0.014l-9.176,0.161l-7.5,0.229l-11.306,0.426c-2.698,0.102-5.933,1.294-9.006,2.161
				c-1.285,0.362-2.918,2.798-3.664,4.31l8.267-0.611L69.304,205.024z M76.524,221.252l5.391,0.344l9.262,0.253l3.496-0.787
				l14.529,0.115l3.878,0.012l17.059-0.271l4.595-0.482l14.283-0.679l16.581-0.125l4.255,0.342l4.169-0.066l8.759-0.17l31.263-0.375
				l6.273-0.365l4.528-0.013l9.798-0.029l5.791-0.315l8.922-0.101l5.291,0.177l41.937,0.07l4.545-0.54l14.793-0.415l5.434-0.184
				l8.139-0.103l8.15,0.156l4.011-0.242l34.304-0.073l3.879,0.006l16.784-0.053l3.454,0.681l15.483,0.188l4.611-0.005l9.596,0.062
				l5.142,0.162l4.862,0.194l23.066,0.413l6.804-0.031l38.184-0.39l14.242-0.71l9.79-0.775c2.398-0.19,2.924-4.445,3.117-6.285
				l0.652-6.211l0.459-4.43l-16.254-0.155l-2.945-0.376l-3.192-0.292l-88.186-0.01l-3.272,0.711l-15.366,0.082l-3.188,0.687
				l-23.933,0.069c-3.545,0.81-7.028,0.767-10.547,0.419l-3.219-0.318l-4.389,0.379l-7.226,0.056l-3.996,0.006l-31.192,0.317
				l-4.544,0.295l-5.314,0.298l-5.465,0.306l-4.358,0.243l-8.744,0.313l-3.358,0.566l-24.448,0.159l-3.899,0.204l-3.113,0.367
				l-24.529,0.194l-5.935,0.798l-9.666,0.905l-10.566,0.703l-8.423,0.378l-6.652,0.102l-8.114-0.447l-5.362,0.05l-8.193-0.208
				l-17.57-0.111c-0.794,1.302-2.014,2.44-2.869,2.444c-0.712,0.003-1.671-2.27-2.377-2.265l-9.295,0.068l-3.766,0.179l-5.089-0.109
				l-7.104-0.039l-8.825-0.487l-4.663-0.145l-5.096-0.261c-7.582-0.388-14.883-0.632-22.46-0.006l-5.952,0.492
				c-4.976,0.412-9.47,0.777-14.362,1.274c-6.599,0.67-13.392,0.118-20.115,0.368l-4.534,0.169l-6.879,0.268L3.262,209.18
				l-0.417,10.214l7,1.025c2.054,0.301,5.286,1.329,7.405,1.324l51.477-0.102C71.161,221.638,74.079,221.096,76.524,221.252z
				 M329.564,263.61l10.414-0.896l9.553-0.836l4.711-0.483l0.052-13.15l0.645-3.398l0.273-14.686l0.641-8.962l-5.539-0.553
				l-1.969-0.164c-1.606-0.134-3.661,0.08-5.483,0.512l-33.541,0.187l-5.298,0.407l-6.663,0.333l0.139,2.939
				c0.039,0.834,0.418,2.287,0.847,3.553l3.309,9.778l0.345,4.577l1.659,6.387l2.212,8.536c0.561,2.163,1.549,4.673,2.879,6.933
				c1.043,1.581,5.601,1.485,7.369,1.218C320.078,266.029,322.563,264.212,329.564,263.61z M496.211,362.712l4.787-0.357
				l6.833-0.683l8.935-0.818l0.035-15.972l0.76-3.516l-0.159-14.602l-0.015-4.62l0.36-15.74l0.535-6.695l0.483-6.8l0.526-8.161
				l0.522-6.779l0.465-6.031l0.52-11.025l0.868-6.75l0.232-6.872l0.38-7.714l1.059-8.828l0.723-4.564l0.892-5.131l-8.741,0.084
				l-3.298,0.58l-10.26,0.373l-9.082,0.21l-8.033-0.201l-5.434,0.193l-6.953,0.074l-4.406,0.044l-14.148-0.327l-30.675-0.277
				l-5.089-0.16l-5.58-0.301l-22.109-0.546c-2.531-0.062-4.557,0.064-7.114,0.018l-7.641-0.139l-4.853-0.241l-10.753-0.219
				c-0.758-0.015-1.982,1.405-2.053,2.165l-0.578,6.221l-0.237,18.547l-0.611,3.25l-0.085,9.483l1.397,2.291
				c-0.879,1.597-1.518,3.581-1.398,5.135l0.359,4.636l-0.126,3.745l-0.401,9.086l-0.759,5.811l-1.142,6.208l-0.296,30.478
				l-0.613,5.32l-0.419,5.339c-0.066,0.838,1.117,1.998,2.211,3.094l-2.527,1.677l0.163,9.27l-0.788,6.637
				c-0.116,0.978,1.144,3.165,2.058,2.913c2.141-0.592,4.979,0.796,6.81,0.82l28.491,0.372l6.685,0.77l4.509-0.077l26.265-0.044
				l4.226,0.514l6.17,0.163l6.676-0.282l4.777-0.251l6.45-0.07l3.863,0.338l9.797-0.207l8.189-0.348l4.479-0.115l6.2-0.075
				l2.725-0.098L496.211,362.712z M273.834,342.953l-1.756,6.024c-6.059,1.139-7.97-2.69-12.332-1.619
				c-0.534,0.131-2.464,0.176-2.478-0.367l-0.06-2.337l-2.165-9.17c-0.149-0.629-1.518-2.077-2.066-2.087l-7.966-0.154
				c-1.354-1.324-2.974-4.518-3.294-6.257l-1.325-7.192c3.56,0.02,0.812,3.477,4.154,7.787l2.041,2.632l6.542,0.765
				c2.832,0.331,3.958,1.186,4.514,3.925l1.912,9.419c5.125-0.038,8.029,3.757,10.047,2.26c1.036-0.768,2.074-6.827,4.894-5.547
				c4.507,2.045,6.751,8.051,11.032,10.557l5.382,3.151l4.661,2.817l16.757,4.203l4.267,1.001l9.062,1.571l4.476,0.638l5.302,0.351
				l-4.803-6.276c-0.781-1.02-1.897-2.842-2.452-4.093l-2.13-4.803l-1.864-4.057l-4.246-6l-3.057-4.323
				c0.974-0.942,3.588-3.032,5.125-3.636l4.51-1.77l-3.216-8.227l-0.432-1.763l-1.825-5.553l-3.973-12.544l-2.111-6.797l-2.66-7.781
				l-4.042-12.322c-1.06-3.23-2.3-6.462-3.805-9.377c0.68-2.154-0.729-3.981-2.003-8.937l-1.684-6.553
				c-0.906-3.523-1.976-6.248-2.098-10.066c-0.037-1.145-0.178-3.599-0.489-4.615l-3.386-7.862c-0.555-1.29-0.665-3.954-0.727-6.083
				l-41.694-0.113l-4.444-0.059l-12.08,0.241l-11.278,0.478l-19.591,0.271c0.845,1.639,1.742,3.279,1.877,4.254l0.829,5.989
				l1.722,4.927l1.188,5.692c0.644,3.084,2.095,6.27,3.183,9.265l5.034,13.849l3.319,9.512c1.536,4.403,3.365,8.886,5.275,13.116
				l5.602,12.41l5.497,10.975l-1.122,0.584l-1.696-2.792l-6.429-13.188l-2.773-6.235l-4.101-10.101l-1.701-4.916
				c-0.861-2.487-1.307-4.11-2.623-6.527l-0.503,8.347l-0.468,4.575l-0.567,3.131l-0.202,24.5l-0.038,4.639l-0.439,4.505
				l-0.792,6.628l-0.165,30.573l3.167,1.509l1.815,0.864c0.415,0.198,0.574,2.078,0.329,2.515c-0.675,1.207-3.206,2.488-4.663,3.309
				l-9.138,5.148l-4.875,3.204l-10.4,6.858c2.094,0.988,3.32,1.384,4.96,1.493l6.935,0.458l19.329-0.006l7.221-1.558l10.163-2.628
				c3.332-0.862,6.066-3.429,8.914-5.224l4.824-3.04c0.763-0.481,2.909-0.313,3.519,0.322c0.807,0.84,1.513,1.685,1.349,2.22
				l-0.644,2.108l4.697-0.672l8.1-2.103l5.866-1.159l5.947-0.994l0.322-6.221c0.054-1.047-0.076-3.139,0.481-4.042l3.02-4.893
				l-2.99-1.417c-1.568-0.743-4.104-3.238-5.273-4.649L273.834,342.953z M66.142,366.566l6.524,0.546l11.739,1.066l3.162,0.111
				l6.926,0.318c1.924,0.088,4.575-0.343,6.626-0.788l32.923-0.035l3.122-0.663l18.55-0.227l7.564-0.55l5.36-0.815
				c1.3-0.198,2.858-0.183,4.395-0.147l8.957,0.206c0.303-0.806,0.709-2.831,0.76-3.642l0.483-7.654l0.664-16.847l0.278-7.047
				l0.202-6.947l-0.213-7.362l-0.051-4.417l0.276-15.02l0.144-3.755l0.352-3.004l0.255-19.424l0.804-6.609l0.667-7.668l1.163-9.013
				l0.381-6.591l0.334-3.696l1.215-13.865c-3.074-0.508-4.929-0.321-7.918,0.04c-4.028,0.487-8.247,0.085-12.382-0.201l-2.948,0.164
				l-3.91-0.119l-5.218-0.15l-6.881-0.198l-7.412,0.537l-11.145,0.362l-2.499,0.332l-3.565,0.204l-32.944,0.16l-3.718,0.049
				l-3.917-0.031l-16.189-0.128l-3.323,0.707l-20.012,0.189c-3.87,0.036-7.296,0.284-10.929,0.255l-7.872-0.063l-7.431-0.393
				l-8.205-0.702l-0.165,10.529l0.004,3.697l0.216,9.041l-0.017,3.721l0.17,15.531l0.35,6.311l-0.067,8.151l0.214,5.145l-0.065,21
				l-0.006,3.714l0.001,12.077l-0.293,3.503c-0.168,2.004-0.313,3.895-0.04,5.856c0.299,2.144-0.121,4.284-0.138,6.44l-0.216,27.543
				l13.29-0.028l3.339-0.713l16.263-0.008l4.688,0.401l3.624,0.21L66.142,366.566z M315.768,273.837l3.513-0.164l6.344-0.827
				l9.124-1.443l7.488-0.974l4.618-0.5l7.427-0.274l-0.124-5.547l-5.902,0.387l-7.521,0.493l-9.013,0.433l-8.449,1.052l-6.97,1.735
				l-7.116,0.108l1.691,5.545L315.768,273.837z M326.963,344.631l5.822-2.82l4.698-2.251c7.735-3.707,13.196,3.205,13.803-1.506
				l0.629-4.889l0.191-32.562l0.759-5.342l1.177-7.677l0.502-8.641c0.159-2.734,0.44-4.397,0.018-7.15l-11.372,0.881l-0.685,4.75
				l-1.231,7.163c-0.401,2.333-0.055,4.602-0.023,7.038l0.222,17.061l-0.244,2.713l0.055,4.491l-0.727,8.432
				c-0.197,2.29-0.534,6.409-2.455,7.546l-4.939,2.923c-5.074,3.003-4.545,5.801-7.956,6.448L326.963,344.631z M324.017,340.115
				l3.949-4.452l6.612-4.851c2.309-1.694,2.488-4.521,2.82-7.252l0.916-7.539l0.409-7.245l0.834-6.778l0.011-4.683l-0.594-10.232
				l-0.001-5.465l0.51-5.788l0.226-1.659c0.053-0.388-1.637-0.932-2.054-0.883l-6.568,0.761l-4.697,0.685l-5.912,0.96l-8.867,1.033
				l0.928,2.555l2.977,8.188l1.851,5.551l3.197,10.406l2.376,7.367l1.922,5.689l1.355,5.455l4.036,8.283
				c-2.848,2.694-5.491,4.052-9.238,5.138L324.017,340.115z M302.086,363.236l0.176-1.767l-8.954-2.636
				c-1.579-0.465-4.246-2.642-5.37-3.649l-1.367,4.206c-0.279,0.858-0.506,2.787-0.115,3.43l4.148,4.022
				C294.241,366.556,298.215,365.3,302.086,363.236z M369.323,371.497l25.459,0.128l5.802,0.822l7.527,0.433l5.287-0.38
				l11.329-0.695l3.652-0.136l11.219-0.332l6.194-1.247l29.137-0.097l5.937-0.685l4.76,0.413l7.12-0.17l5.262-0.025l9.048-0.821
				c0.794-0.072,2.169-0.514,2.708-0.851c0.405-0.253,0.315-1.431,0.315-2.909l-3.484,0.157l-3.999,0.184l-6.777,0.315l-12.843,0.6
				l-4.719-0.162l-8.701,0.42l-6.327,0.198l-6.391-0.105l-2.88-0.25l-12.785,0.196l-5.074,0.251l-5.6,0.114l-3.538-0.007
				l-4.653-0.401l-24.619-0.279l-3.703-0.043l-3.264-0.553l-21.429-0.049L369.323,371.497z M138.939,370.195l-4.833,0.619
				l-6.796,0.057l-3.741-0.014l-25.502,0.02l-9.623,0.019l-7.419-0.348l-4.597-0.228l-5.265-0.233l-6.245-0.272l-4.289-0.375
				l-12.462-0.236l-3.42-0.619l-15.259-0.068l-0.923,4.005c1.791,0.593,4.497,1.276,6.479,1.345l4.232,0.146l7.961,0.376
				l55.304,0.111c2.25-0.408,3.865-0.221,6.267-0.182l13.859,0.222l3.18-0.755l38.015,0.001c2.662-0.569,4.318-1.694,4.775-4.511
				l-7.525,0.228l-3.79,0.414L138.939,370.195z"/>
			<g>
				<path d="M134.179,156.537c-1.379,0.032-3.686-0.434-4.717-1.16c-0.635-0.447-0.861-2.661-0.375-3.235
					c0.582-0.688,2.267-1.297,3.309-1.391l7.775-0.705c0.787-0.071,2.997,0.553,2.946,1.298c-0.09,1.326-0.8,3.921-1.456,4.748
					C139.638,156.882,136.749,156.681,134.179,156.537z M140.588,152.833c-0.33-0.058-1.281-0.23-1.64-0.18l-4.971,0.687
					C139.187,156.232,141.704,153.028,140.588,152.833z"/>
				<path d="M144.137,129.96l-2.612,4.346c-0.466,0.775-1.707,2.115-2.507,2.752c-0.425,0.338-2.751-0.295-2.613-0.813l1.204-4.502
					c1.497-5.6,0.974-7.644,1.568-9.925c0.154-0.592,2.326-0.121,2.471,0.291l-0.654,4.79l-0.921,6.054l1.794-3.807
					C141.526,129.022,142.343,129.32,144.137,129.96z"/>
				<path d="M148.906,144.435l-3.282,2.462l-5.047-1.179c-0.732-0.171-0.445-2.522,0.086-3.006c0.636-0.58,2.589-1.21,3.43-0.774
					L148.906,144.435z"/>
				<path d="M145.719,122.493l-1.002,4.291c-0.075,0.323-1.268,1.13-1.306,0.803l-0.214-1.837c-0.642-5.514-3.371-6.821-1.733-9.219
					c0.397-0.58,2.077,0.386,2.357,1.104L145.719,122.493z"/>
				<path d="M112.789,156.354l-2.14-1.545l4.272-3.371c1.996,2.334,1.03,6.079-2.088,7.584L112.789,156.354z"/>
			</g>
			<path d="M209.374,110.038c0.053-0.054-1.194,1.251-2.07,2.167c-0.874-1.211-2.023-2.779-2.363-3.658l-1.731-4.473
				c-0.31-0.8,0.234-2.532,0.924-2.806c0.688-0.273,2.162,0.782,2.43,1.479L209.374,110.038z"/>
		</g>
	</g>
</g>
</svg>
