<?xml version="1.0" encoding="iso-8859-1"?>
<!-- Generator: Adobe Illustrator 30.3.0, SVG Export Plug-In . SVG Version: 9.03 Build 0)  -->
<svg version="1.1" id="Layer_1" xmlns="http://www.w3.org/2000/svg" xmlns:xlink="http://www.w3.org/1999/xlink" x="0px" y="0px"
	 viewBox="0 0 392.975 420.303" style="enable-background:new 0 0 392.975 420.303;" xml:space="preserve">
<g id="hGQsC5.tif">
	<g>
		<path d="M38.382,276.658c-1.194,4.226-11.637,5.907-16.645,2.827c-0.14-1.554,0.733-3.766,1.491-4.98l4.421-7.077l2.467-4.79
			l4.716-7.391l3.191-5.147l3.174-7.113c0.892-1.999,1.347-3.201,2.765-4.826c0.13,2.177-0.038,3.737-0.599,5.162l-1.315,3.338
			l-3.337,5.93l-2.808,4.542l-2.848,4.468l-8.122,15.153c1.947,0.743,4.136,1.233,5.615,1.022L38.382,276.658z"/>
		<g>
			<path d="M199.869,420.303h-1.497c-1.291-2.801-4.778-5.779-8.137-5.168l-3.159,0.574l-11.139,0.303l-15.236,0.386
				c-5.817,0.147-8.541,2.54-13.293,1.307l-3.503,0.335l-0.497-5.628c-0.071-0.807-1.771-2.597-1.695-3.43l0.785-8.626l0.549-7.049
				l0.298-5.11c0.173-2.974,0.291-5.522-0.102-8.499c-0.364-2.761-0.104-5.503,0.234-8.387c0.213-1.822-0.213-3.827-0.246-5.852
				l-0.144-8.767l0.266-5.922l0.131-9.071l-0.131-3.616l0.155-4.638l0.479-8.923l0.498-6.079l0.352-4.303l0.38-4.629l0.495-6.028
				l0.863-10.498l0.668-5.202l0.54-7.308l0.784-6.835l1.101-8.587l0.991-7.155l1.592-11.973l1.053-7.541l0.868-6.033l0.992-6.545
				l0.688-4.594l0.878-5.855l1.461-9.596l1.155-7.225l-10.351,1.186l-7.623,0.152l-7.442,0.53l-5.017,0.769l-5.889,1.016
				c-4.49-1.343-7.234,0.679-12.699-0.102c-2.871-0.41-5.643-0.293-8.566-0.028l-4.304,0.39l-7.083,1.395
				c-2.153,0.424-6.39-0.23-8.496,0.302l-6.772,1.711c-0.797,0.201-2.52,0.089-3.705-0.061c0.062-0.288-0.434,0.507-0.249,0.734
				l0.844,1.03l4.525,3.321l3.248,5.465l2.698,3.893l3.317,4.191l4.013,5.002l2.729,3.362c1.842,2.27,4.051,6.043,6.202,7.649
				l4.893,3.653c1.945,1.452,4.152,3.159,5.037,5.383l1.714,4.306l4.565,13.494c1.415,4.182,3.822,8.036,5.968,11.941
				c0.915,1.665,1.361,3.307,0.62,5.015c-2.406,5.546-1.294,10.276-5.862,18.837l-6.322,11.849
				c-1.086,2.035-6.706,2.706-10.743,5.552l-7.473,5.268c-2.152,3.953-3.887,8.589-7.191,11.459l-4.104,3.565l-3.78,2.655
				l-6.509,3.405c-7.783,4.072-11.344,9.393-19.866,11.671c-3.613,0.966-7.706,0.208-11.406-0.327l-6.982-1.01
				c-2.314-0.335-5.555-1.952-8.066-2.659c-7.537-2.121-12.639-10.831-19.977-13.76L0,339.447v-2.246l1.022-2.088
				c1.414-4.028,2.049-8.125,2.65-12.334l0.821-5.747l0.482-4.705l0.572-5.577l1.706-4.336c0.741,0.529,1.997,1.426,1.751,1.25
				l-0.942,6.573l-0.837,5.835l-1.372,8.351l-1.919,10.363c1.613,3.847,5.536,4.154,8.781,8.405
				c2.828,3.704,6.43,6.525,10.919,7.863l4.653,1.387l6.867,1.746l6.551,1.251c1.585,0.303,4.474,0.663,5.875,0.395l4.899-0.94
				c2.622-0.503,5.805-3.222,8.027-4.995l3.712-2.961l9.848-6.065l3.924-2.127c2.119-1.149,4.492-3.193,5.731-5.328l3.053-5.266
				c0.241-0.415,0.859-1.793,0.882-1.88l-5.401-1.008c-3.609-0.674-7.709-2.211-11.167-3.868c-2.059,3.014-4.763,6.626-7.82,8.619
				l-6.025,3.93c-1.446,0.943-3.748,1.603-5.47,1.918l-3.303,0.603l-10.085-0.182c3.193-3.509,6.607-2.574,10.286-2.99l5.942-0.672
				c0.526-0.06,1.925-0.907,2.409-1.243l4.115-2.853c1.052-0.729,1.945-2.481,2.978-3.676l4.8-5.548l3.212-3.46l5.365-5.386
				l3.168-4.783l2.48-3.509l1.854,2.09l-3.625,5.593l-7.628,8.071c1.517,1.314,3.331,2.826,5.229,3.242l6.365,1.394
				c2.385,0.523,4.856-0.222,6.602-1.925l3.414-1.242l7.252-4.402c0.941-0.571,3.853-0.785,4.365-1.711l2.15-3.893l2.546-5.132
				l2.915-5.832l2.38-9.112c0.87-3.33,0.794-6.86-0.732-9.958c-2.04-4.141-3.287-8.241-4.834-12.571l-2.507-7.015l-1.956-5.473
				l-2.183,0.272c-1.051,0.131-0.363-4.372-1.007-4.975l-7.092-6.629l-6.116-6.058c-2.142-2.122-3.35-4.376-5.321-6.857
				l-3.525-4.439l-3.603-4.659l-3.324-4.299c-2.611-3.376-4.065-1.728-5.628-4.624c-0.568-1.053-1.413-2.175-2.14-2.266
				c-0.727-0.091-1.85,1.084-2.567,1.856l-4.639,1.789l-4.621,1.58c-2.624,0.897-4.918,1.573-7.739,1.981l-3.202,4.964L41.599,226
				l-3.538,5.505l-6.431,10.007l-4.782,7.941l-6.696,11.435L13.493,272.3l-1.013,2.911l-0.06,2.455l-3.317,5.763
				c-0.533,0.927-0.92,3.154-1.06,4.29l-0.751,6.126c-0.109,0.888,1.09,3.063,1.839,3.558l10.787,7.127
				c0.649,0.428-0.433,3.068-1.085,2.694l-4.189-2.402l-4.618-2.522c-1.444-0.789-4.511-2.599-5.158-4.295
				c-0.869-2.281-0.201-5.645,0.155-7.919l0.756-4.833c0.361-2.309,1.401-4.961,2.348-7.279l-0.599-2.776l4.884-6.495
				c2.269-3.017,3.691-6.073,5.68-9.358l3.861-6.379l2.631-4.246l3.906-6.591l2.509-4.105l5.284-7.527l1.909-3.384l2.737-4.852
				c1.184-2.098,2.654-5.285,2.315-7.479c-0.951-6.167,1.642-8.277-2.786-7.735l-6.042,0.74l-10.212,1.759
				c-1.095,0.189-3.395,1.312-4.518,1.419l-6.856,0.649l-0.31-3.291l0.178-6.684c0.018-0.665,0.359-2.664,0.939-2.872l2.268-0.815
				c1.725-1.257,4.647-2.039,6.841-1.249l10.941,3.94l5.124-0.625l-2.238-3.604c2.571-4.499,6.15-7.761,11.475-9.369l-3.893-2.687
				l-6.459-4.642c-1.263-0.908-2.899-3.908-3.545-5.252l-1.51-3.142l-2.965-2.973l-1.39-1.389c-0.633-0.633,2.091-2.913,4.793-2.978
				l3.604-0.086c0.992-0.024,3.432,0.157,4.415,0.413l9.953,2.588l5.576,1.45l-0.101,2.024l-13.116-2.533l-6.757-0.722l0.14,5.823
				c2.056,2.193,3.724,4.536,5.863,6.315c2.487,2.069,6.247,3.434,9.066,5.108l4.24,2.517c3.41-2.294,7.088-1.184,10.514-1.59
				c5.234-0.622,10.078-4.334,15.222-2.502l4.068-4.609c4.157-4.71,7.674-6.895,9.002-8.798l5.544-7.94l-3.531-2.069
				c-2.005-1.175-4.676-1.421-6.667-0.254l-4.852,2.843l-5.208,2.967l-12.449,6.38c-0.746,0.382-1.763,1.697-2.604,2.896
				l7.258-2.039l5.27-1.637c4.61-1.432,7.749-8.183,10.951-6.907c-3.279,3.713-8,7.702-12.187,9.585l-7.336,3.299
				c-2.497,1.123-5.127,1.565-8.106,0.961l-0.063-5.219c-0.051-4.223,7.391-3.798,15.467-8.079l11.843-6.276
				c1.97-1.044,5.9-3.766,7.966-2.987l8.841,3.332c-0.222,2.895-3.644,8.241-5.21,9.811l-9.031,9.05l-2.949,2.86l-3.412,4.338
				l-1.219,1.833c-0.22,0.33,0.752,2.045,1.149,2.011l4.948-0.426l5.922-0.763l6.793-0.813l5.038-0.331l6.129-0.768l8.975-1.883
				l6.399-0.344l11.584-0.96c1.996-0.165,4.555,0.191,6.536-0.314l8.715-2.219c3.501-0.891,6.107,0.442,7.576-1.222
				c0.738-0.836,0.763-3.66,1.018-4.804l3.297-14.827l2.4-10.364l2.251-9.738l1.5-6.729l4.012-17.708l2.597-8.663l3.337-10.875
				l3.734-11.937l2.055-6.21l2.295-6.692l4.721-13.312l1.856-4.589l1.468-3.838l3.284-7.971l2.296-5.109l3.751-9.825l2.051-5.372
				c0.649-1.701,1.662-3.406,2.678-4.782l2.649-3.587c0.753-1.02,2.311-2.769,3.455-2.995l7.734-1.524l4.073-1.02l15.656-0.269
				l6.675-0.755l6.748-0.731l3.113-1.242l14.208-0.266l6.607-0.756l6.071-0.571l6.092-0.574l6.54,0.008l6.867,0.622l6.07-0.607
				c1.671-0.167,4.784-0.668,6.404-0.416l7.671,1.191c1.35,3.526,0.566,7.525-0.379,11.317l-1.205,4.84l-1.095,5.81l-1.209,6.948
				l-0.775,5.158l-0.818,5.255l-2.425,9.997l-1.398,7.645l-1.747,9.55l-0.732,5.146l-0.683,5.401l-0.778,6.529l-0.796,7.58
				l-0.667,4.595l-0.804,5.152l-0.772,5.216l-0.728,5.303l-0.449,7.134c-0.196,3.116-0.745,4.887,1.712,7.479
				c-3.6,4.685-7.058,0.287-14.046,2.464l-8.36,2.604l-0.199,8.612l-0.55,6.881l-0.876,5.33l-1.26,7.346l-0.26,3.645l-1.917,7.687
				l-0.97,3.888l7.119-1.357l7.25-1.065c1.902-0.279,6.429-0.541,7.18-2.247l3.289-7.48l2.437-5.013l2.487-5.133
				c2.851-1.235,6.142-0.361,8.173,1.753c3.043-3.586,7.884-5.092,11.712-2.472l1.154,2.72c2.765-1.085,5.954-1.72,8.082,0.153
				c2.909,2.558-0.657,7.088-0.399,10.985l7.378-1.287l8.996-2.603l11.199-2.43c2.361-0.512,3.903-4.142,10.883-1.779
				c5.906,2,11.692,5.417,9.757,9.682l-3.721,1.575l-8.597,2.871l-5.01,2.334c-4.109,1.093-8.053,2.271-12.179,2.607
				c-4.833,0.393-9.829-0.331-14.183,1.737l-5.519,2.621c-1.202,3.677-3.282,5.79-5.516,8.951l-3.592,5.082l-1.496,1.725
				l-2.653,4.655l-5.302,7.593L322,214.463l-5.246,8.252l-2.42,3.55l-6.209,10.362l-3.901,6.727l-3.524,4.432l-4.584,5.274
				l-5.189,6.011l-3.808,4.476l-4.35,6.104l-3.163,5.137c-0.825,1.34-0.322,4.805-0.041,6.487l1.739,10.409l0.368,5.76l0.558,6.753
				l0.073,6.624l0.369,9.946l0.549,10.405l0.432,6.071l0.649,5.296l1.126,5.776l1.095,6.236l2.882,11.634l1.922,5.384
				c0.331,0.926,1.575,2.995,2.33,3.763l6.263,6.378c1.388,1.413,3.837,2.366,5.618,3.308l4.822,2.549l4.044,2.138l5.775,2.429
				l8.662,2.308c1.121,0.299,0.81,2.733,0.796,4.273l-0.079,8.702c-0.011,1.257,0.274,2.278-0.061,2.889
				c-1.496,2.724-7.093-1.324-12.248-0.638l-8.201,1.092l-5.468,1.613l-6.571,1.662l-10.23,0.359l-3.156,0.61l-7.307-0.105
				c-6.519-0.929-11.731,0.129-18.217,0.728l-5.321,0.492l-5.526,0.777l-6.197,0.214l-5.957,0.156l-6.626-0.093l-4.831-0.068
				l-4.518-0.062l-3.314-0.036c-1.337-0.015-4.646,0.805-5.564-0.177c-1.092-1.167-2.558-3.285-3.02-4.408l-5.065-12.322
				c-0.369,1.874-0.609,3.2-0.655,4.401l-0.318,8.358l-0.182,3.749C200.964,417.541,200.266,419.501,199.869,420.303z
				 M313.731,407.063c1.517-0.366,4.583-1.238,5.901-0.991l6.719,1.255l0.037-9.296l-5.228-1.857l-5.371-1.91l-10.61-5.252
				l-5.149-2.365c-3.105-1.427-3.507-3.579-8.052-6.812c-0.834-0.594-2.361-1.689-2.651-2.441l-1.483-3.847l-3.871-15.548
				l-1.072-6.487l-1.377-7.725c-0.816-4.576,0.048-5.578-0.5-8.904l-0.997-6.054l0.453-3.418l-0.173-4.062l-0.57-7.028l-0.227-5.698
				l-0.58-7.193l-0.497-5.436l-0.892-8.042l-0.41-5.58l-0.461-4.92l-0.185-8.419l0.081-3.641l-0.553-5.223l-1.091-10.421
				c-0.149-1.422-0.142-2.879-0.37-4.137c0.254-0.87,0.864-3.043,0.845-4.111l-0.065-3.784l0.674-6.174l0.424-8.805l0.741-7.576
				l0.832-5.764l1.489-7.945l0.589-3.64l0.364-4.427l0.523-6.282l-1.322-0.048l-2.67-1.498c0.961-1.799,2.809-2.369,4.733-2.155
				l1.026-3.952c-0.73-0.142-1.858-0.258-1.918-0.713l-0.277-2.089l2.839-0.897l2.471-11.677l1.11-7.967l0.684-5.335
				c0.063-0.495,0.401-1.872-0.082-1.919l-1.746-0.168l-10.22-0.041l-2.777-0.114c-0.679-0.028-1.434-2.477-1.084-2.731l2.924-0.632
				c2.649,0.267,5.08,0.23,7.681-0.029l4.962-0.494l0.694-6.282c0.243-2.2-1.177-4.3-2.916-6.463
				c0.812-1.305,2.791-1.859,4.524-2.257l7.881-1.807l4.628-1.427l4.897-1.25c1.007-0.257,2.254-1.482,2.36-2.482l0.755-7.103
				l0.903-6.553l1.333-8.403l1.079-6.85l0.514-5.892l0.164-3.76l0.91-6.003l0.97-6.423l0.309-4.08l2.261-11.989l0.444-3.609
				l1.87-8.472l1.115-6.229l1.239-9.472l1.303-5.407l0.4-4.931l1.838-10.436c0.235-1.336-1.965-3.654-3.278-3.707l-4.677-0.189
				l-3.688,0.028l-8.9-0.148l-9.474-0.144l-9.445,0.505l-7.263,1.214l-12.911,0.333l-6.599,1.163l-6.12,0.784l-5.097,0.693
				l-11.341,0.618c-5.665,0.309-14.801,2.247-16.043,3.581l-2.982,3.202c-0.932,1.001-2.093,2.824-3.168,4.303
				c-1.185,1.63-2.205,3.921-3.146,5.845l-5.403,11.047l-2.684,6.239l-5.685,14.494l-2.592,7.099l-2.003,5.603l-1.55,4.447
				l-3.056,8.983l-1.888,5.518l-1.453,4.051l-1.822,6.098l-1.391,4.411l-3.226,12.631l-6.084,25.37l-2.809,11.577l-0.818,2.957
				L169,161.202l-1.725,8.76l-1.471,8.397c-0.284,1.624-0.171,2.796-0.56,4.254l-1.774,6.64c-1.028,3.85,1.899,5.449-1.115,7.84
				l-1.476,8.991l-0.855,5.206l-0.781,5.322l-0.893,5.886l-1.411,9.08l-1.813,11.085l-0.464,2.967l-0.485,4.824l-0.816,4.352
				l-0.461,3.954l-0.258,5.721l-1.737,11.129l-0.223,3.322l-0.326,6.71l-1.413,10.408l-0.276,4.401l-0.662,6.774l-0.582,6.05
				l-0.634,7.416l-0.351,6.03l-0.211,4.531l-0.192,4.444l-0.085,36.689l0.19,5.033l0.03,6.206l-0.145,6.713l-0.413,14.245
				c-0.058,1.998,1.269,6.036,2.243,7.823c1.592,2.923,5.635,1.455,7.913,1.387l16.375-0.491l7.514-0.453l7.597-0.603l7.257-0.025
				c1.184-0.004,3.365,1.441,4.607,2.047l-0.063-12.735l-0.437-3.495l2.869-2.869c3.859,3.202,3.446,6.946,7.059,12.57l4.174,6.497
				l12.616,0.235l4.495,0.05l5.164-0.102l14.338-0.275l13.337-2.234l6.818-0.643l6.039,0.622l9.598-0.022l6.819-0.493
				c2.996-0.217,5.841-0.463,8.646-1.14L313.731,407.063z M326.693,169.582l4.19-6.166l-1.602-2.187l3.683-3.131
				c0.619-0.526-0.073-3.156-0.889-3.441c-5.423-1.894-8.413,5.489-9.103,13.126c-0.083,0.914-0.461,1.772-0.768,2.704l-1.966,5.95
				l3.121-3.361L326.693,169.582z M310.488,171.669l6.923,0.114c3.004-4.935,5.076-10.756,2.744-15.921l-4.799,6.423l-2.761,3.931
				C311.787,167.368,311.081,169.991,310.488,171.669z M334.12,176.644l4.193-5.259l-2.37-2.59l4.38-1.953
				c1.626-2.42,2.04-5.985,1.706-9.356c-1.812-0.047-4.739,0.411-5.893,1.416l-4.871,9.83c-0.153,0.309-0.037,1.927-0.027,2.203
				l-4.634,4.823c-0.811,0.845,0.885,4.286,2.03,4.194C330.57,179.794,333.035,178.004,334.12,176.644z M387.565,166.912
				c0.328-0.112,1.343-1.472,1.095-1.618l-1.259-0.738l-3.742-2.206c-1.321-0.779-5.142-0.57-6.408,0.367
				c-1.95,1.445-3.226,4.376-3.8,6.634l1.214,2.417l7.264-2.94L387.565,166.912z M280.081,267.589l2.959-3.598l3.435-4.116
				l3.507-3.985l4.907-5.62l6.228-7.911l4.128-5.797c1.245-1.748,1.751-4.028,2.98-6.087l3.276-5.492l6.624-9.88l4.207-6.11
				l4.359-7.713l2.382-4.293l2.287-3.775l3.914-6.769c0.85-1.47,1.134-2.26,1.03-4.387c0.416-1.085,3.118-3.5,4.553-3.877
				l6.124-1.608l5.759-1.62l11.107-0.37l5.869-1.172c-0.86-3.796-0.134-5.919,1.915-9.301l-9.12,1.941l-11.688,3.026l-2.627,0.196
				l-5.941,1.256l-3.998,5.646c-2.002,2.828-4.603,6.346-8.249,6.627l-4.986,0.385c-2.272,0.701-5.332,1.961-7.42,1.991
				l-8.557,0.123l1.463,1.654l-3.835,8.584l-2.347,4.218l-4.727,8.799l-2.363,4.399l-2.301,4.376l-7.504,14.981l-3.071,5.624
				l-1.149,2.028l-2.077,2.709l-3.309,3.544l0.119,9.147l0.456,4.903l0.408,2.753C279.395,266.99,277.763,270.407,280.081,267.589z
				 M302.892,183.337l5.582-0.973c2.528-0.44,6.318,0.074,8.426-0.505l5.769-1.584l-5.626-0.632
				c-3.127-2.327-7.143,0.412-9.645-4.541l-6.401,0.97c-3.09,0.468-5.84,0.496-8.762,1.241l-6.04,1.54
				c-0.973,0.248-1.256,2.938-0.822,4.124l9.201,1.291C297.413,184.668,299.704,183.893,302.892,183.337z M69.102,202.983
				l6.569-0.752l7.469-1.462c4.311,0.216,7.841-0.179,12.149-1.018l4.953-0.964l11.138,0.135l4.751,0.059l9.671-0.524l6.613-0.697
				l6.052-0.77l7.539-0.517c4.56-0.313,9.688-0.215,13.489-3.052c1.207-0.901,1.385-4.349,1.609-5.763l0.746-4.709
				c-2.593,0.005-5.386,0.417-8.237,0.863l-4.576,0.717l-4.752,0.407l-11.001,0.537l-6.811,0.461l-6.02,0.556l-6.979,1.512
				l-5.502,0.425l-4.031,0.418l-5.902,0.948c-4.449,0.714-8.96,1.632-13.373,2.017l-8.404,0.733l-4.206,0.443l-5.444,7.661
				c-0.335,0.472-0.112,2.635,0.381,2.578L69.102,202.983z M48.864,206.305c-1.31,1.112-1.916,4.077-1.769,5.637
				c1.33,0.279,3.054,0.774,3.811,0.634l4.693-0.867c1.796-0.332,4.492-0.829,5.761-1.545l3.489-1.969
				c-1.816-3.513-1.911-8.39,0.342-10.785l3.489-3.708l-0.292-3.589l7.763-1.359l1.128-3.02l-6.753,1.17
				c-3.949,0.684-5.889,4.072-7.256,4.984c0.069-0.046-1.018-0.562-1.423-0.752c-0.544-0.255-0.293-1.356,0.105-2.816
				c-4.662-0.998-6.125,2.955-7.709,2.967c-2.459,0.02-2.715-4.158-12.282,1.52c-0.984,0.584-1.077,3.794-0.235,4.511l4.646,3.954
				c2.474,2.105,3.895-2.331,7.053-1.966c0.451,0.021,0.642,2.577,0.154,2.991L48.864,206.305z M302.84,195.582l1.74-4.602
				l2.466-4.626c-3.078-1.479-8.51,0.866-10.293,3.477C295.721,191.342,299.013,197.027,302.84,195.582z M287.483,226.052
				l2.519-4.599l2.131-3.905l3.865-7.188l2.273-4.553l3.45-6.892c-1.826-0.162-4.771-0.611-5.846-1.658l-3.231-3.148
				c-0.689-0.671-0.638-3.054-0.499-3.993l0.483-3.248c-2.378,0.333-3.633,0.538-4.67,0.374l-4.067-0.641l-0.736,5.449l-1.053,7.191
				l-1.541,10.437l-1.342,10.064l-0.284,4.999l-0.62,6.186l-0.23,5.151l-0.162,4.777l3.688-4.497l3.23-5.196L287.483,226.052z
				 M41.17,203.808c0.489-0.055,0.781-1.262,0.772-1.758c-0.031-1.665-4.749,1.973-7.44,1.3l-11.042-2.761
				c-1.841-0.46-5.255-0.588-6.675,0.495c-0.792,2.42-0.211,5.734,0.744,7.403l12.718-2.91l5.587-1.165L41.17,203.808z"/>
			<path d="M285.213,68.795c-0.301-0.892,2.077-2.55,2.673-2.127l2.983,2.114c1.402,0.993,7.26,0.13,9.941-1.669l1.249-0.838
				c0.201-0.135,1.126,0.779,1.121,1.02c-0.024,1.127-1.66,3.113-2.744,3.462l-5.925,1.909
				C291.12,73.76,286.488,72.577,285.213,68.795z"/>
		</g>
	</g>
</g>
</svg>
