<?xml version="1.0" encoding="UTF-8"?>
<svg id="Layer_1" xmlns="http://www.w3.org/2000/svg" version="1.1" viewBox="0 0 533.73 486.26">
  <!-- Generator: Adobe Illustrator 30.2.1, SVG Export Plug-In . SVG Version: 2.1.1 Build 1)  -->
  <g id="_x32_xisnR.tif">
    <g>
      <path d="M20.79,118.39c-.46.18-3.34-.35-4.3-.71-.55-.21-1.25-1.66-.97-2.18l1.2-2.26-1.88-.75c-.37-.15-.66-1.14-.54-1.51.52-1.62,1.31-.58,2.4-2.37.38-.63,1-1.47,1.7-1.71l3.61-1.21,1.96.28c3.31.47,2.09.73,3.34,2.04.35.37.73.87.76,1.27.1,1.31-.49,2.14-1.46,2.73-.55,1.34-1.35,2.49-2.36,3.58l-1.41,1.51c-.39.42-1.5,1.09-2.04,1.3ZM20.37,114.3l1.61-1.84,1.33-1.56c.15-.18.37-.64.44-.85.27-.78-2.03-1.51-2.53-.76-.33.5-.69,1-1.1,1.32-1.33,1.04-1.82,2.44-.89,4.22.3-.07.93-.31,1.14-.54Z"/>
      <g>
        <path d="M485.14,331.11l-2.3.27c-.51.06-1.28-1.08-1.22-1.57.06-.56,0-1.12-.29-1.59l.2-2.5c.05-.66-.39-1.54-.82-1.8l1.72-2.01,1.93.02c.99.01,1.57,1.15,1.39,2.11l-.39,2.01c-.1.52-.08,1.22,0,1.77l.26,1.96c.05.39-.08,1.28-.47,1.33Z"/>
        <path d="M474.55,309.21c-.27,2.36,0,3.77-1.05,3.95-.91.15-2.51-.56-2.57-1.14l1.05-4.28c.24-.99.31-1.8.37-2.79l.15-2.33-.14-1.08.63-1.41,1.49-.04.68,2.38c.16.56-.13,1.44-.45,1.99-.27.46.18,1.68.12,2.22l-.29,2.53Z"/>
        <path d="M464.41,267.58l-1.51-.09c-.23-.79-.21-1.49-.11-2.3l.27-2.18-.49-1.3c-.45-1.19,1.9-1.17,2.29-2.45l.55,1.28c1.15,2.12-.98,1.95,1.14,6.05-.3.49-1.39,1.04-2.14,1Z"/>
        <path d="M533.73,242.12v.29c-.5-.23.12,2.44-1.87,2.74l-1.04,2.33c-.22.49-.47,1.1-.64,1.65l-.6,1.99-1.1,2.57c-.35.82-.58,1.9-1.38,2.28l-1.37.66c-.97-.18-1.95-.25-2.88-.07l-1.27.25c-3.56,2.17-1.25-.14-5.67.52-2.2.33-2.65.73-4.64.43l-2.08-.31c-1.52-.23-3.25-.38-4.68.26-.34.63-.72,1.87-.55,2.45l.53,1.88c.49,1.72-.83,2.9.28,8.82.21,1.13.01,2.33-.04,3.51-.09,1.87.11,2.21-.6,4.36l.13,1.04c-1.11,3.1.13,2.26-.97,5-.49,1.23-.49,2.35-.07,3.68-.11.52-.36,1.43-.54,2.01-.92,2.9.42,2.3-1.27,4.19-.36.41-.15,1.46,0,2.1l-.17,1.39c-.05.38.31,1.23.39,1.58-1.31,2.69.48.99-.55,3.75-.38,1.01-.03,2.34-.06,3.43-.05,1.75-.46,2.6-.24,4.04-2.31,3.7-.09,3.44-.36,5.34-.07.46-.5,1.35-.45,1.76l.28,2.13c.36,2.71-.84,3.51-.36,5.1l.8,2.61c.11.42-.26,1.37-.48,1.82-1.13,2.35.15,1.42-.86,3.96l.03,1.52c.03,1.62-.31,1.96-.31,3.46v1.92c.08.18.44.65.32.82l-.46.61c-.12.16.39.54.38.74-.62,2.58-.06,1.92.07,4.3-.31.56-.33.84-.29,1.37.4,5.31-.69,7.41-.64,8.01l.22,2.58c.04.43-.41,1.28-.53,1.72s.16,1.52.02,3.43l-.26,3.54c-.03.43-.46,1.36-.48,1.8.07.1.64.36.92.5l-.04,3.35c0,.15-.56.54-.5.68l.38.88c.88,2.07-.78,3.38-.67,5.08l.11,1.59c.03.42.14,1.2.1,1.59l-.2,1.88c-.04.36-.36.76-.81,1.21-.11-.14.1.17.14.19l.76.24s.08.3.1.36c-.08.27-.2.67-.21.8l-.1,3.01c-1.47,2.47.76,2.74-.15,6.02.37,1.2.32,2.43-.38,3.55l.53,2.24-.49,1.11-.31.71c-.09.19.5.58.53.79.07.5.16,1.7-.01,2.17l-.77,2.06.48.81-.3,1.75c-.52,3.04.16,3.12-.04,4.79l-.21,1.82c-.05.39-.02.94,0,1.41.27,5.66-.3,2.48-.55,6.83l-.16,2.9-.16,5.08-.38,1.45c-.08.3.14,1.12.05,1.4-1.21,3.51.29,1.59-.43,3.78-.26.79-.2,1.48-.24,2.26l-.12,2.33c-.06,1.19,1.42.28,1.27,1.64-.23,2.14-.87-.81-1.83,3.28l-.08,2.22-.06,1.48c.25.55.28.83.26,1.34l-.15,3.69c-.02.49-.36,1.54-.41,2.01l.64,2.44c.26.99.32,1.92.45,2.99l.27,2.25.33,2.58.3,2.01c.42,2.77,2.48,2.48.61,4.41-2.02,2.1-1.09,2.3-2.1,3.31l-1.19,1.18c-.47.47-5.97,1.82-7.23,1.31l-.87-.88c-2.52-1.33-1.12-1.14-4.28-2.68-1.99-.97-5.49.35-7.54,1.17l-1.98.8c-3.08,1.24-5.71,0-6.8,1.47-1.97,2.64-2.64.95-3.54,2.19h-.29l-.19-.35s-.32-.14-.4-.16l-.53-.12c-.36-.08-.39-.11-.68-.42l-.28-.3-.28-.3c-.05-.06-.16-.23-.23-.34l-.23-.33c-.16-.24-.35-.42-.34-.82v-.56s0-.58,0-.58v-.59s0-.54,0-.54c0-.09-.07-.34-.1-.49l-.1-.45-.11-.48-.11-.47-.1-.48c-.12-.6-.07-.43.06-.96l.12-.47c.02-.06.06-.39.06-.48v-.58s0-.58,0-.58v-.57s0-.57,0-.57c0-1.59.26-1.17.16-1.9l-.06-.44-.08-.52-.08-.54c0-.06-.07-.36-.11-.42l-.2-.37-.2-.36-.21-.39s-.08-.41-.06-.46l.18-.39.18-.39c.2-.42.19-.35.19-.93v-.59s0-.59,0-.59c0-.84-.08-.25.13-1.02l.12-.44c.01-.05-.03-.36-.06-.4l-.23-.36c-.28-.45-.17-.19-.37-.77l-.16-.46c-.12-.37.09-.71.18-.92l.18-.41c.03-.07.12-.3.13-.36l.14-.49c.1-.36.2-.62.14-.89l-.1-.45c-.22-1.01.36-.76.09-1.75l-.13-.47-.13-.46c-.04-.13-.09-.36-.13-.44l-.2-.38-.19-.36-.21-.39c-.03-.05-.09-.42-.08-.48l.1-.47.1-.46.11-.48.11-.48.1-.45.11-.46.12-.45c.13-.52.12-.42.11-1.03v-.58s0-.57,0-.57v-.57s0-.57,0-.57v-.57s0-.58,0-.58v-.59c0-1.38.38-1.06.2-1.85l-.11-.47-.11-.49-.11-.47-.1-.45-.11-.51c-1.04-.07-.41.27-1.92.28h-.59s-.57,0-.57,0h-.57s-.58,0-.58,0h-.6c-.08,0-.41-.02-.48-.04l-.46-.13-.44-.13-.44-.12-.46-.12-.51-.05c-.05,0-.28.24-.31.29l-.22.37s-.29.22-.35.22h-.55s-.58,0-.58,0h-.57s-.57,0-.57,0h-.58s-.59,0-.59,0c-.08,0-.4.04-.47.06l-.47.12c-.71.18-.31.1-1.02.11h-.59s-.56.01-.56.01c-.07,0-.41.06-.49.09l-.42.15-.41.15c-.34.12-.53.23-.96.16l-.46-.08c-.45-.08-.24-.09-.74.04l-.46.12-.48.13c-.55.15-.4.12-.9-.01l-.47-.12c-.41-.11-.59-.11-1.01,0l-.46.12c-.64.16-.26.12-1.02.12h-.58s-.57,0-.57,0h-.57s-.57,0-.57,0h-.58c-.09,0-.42.05-.49.06l-.47.11c-.74.18-.22.11-1.02.11h-.59s-.6,0-.6,0h-.54s-.48.1-.48.1l-.45.09-.51.09-.51.09-.46.08c-.15.03-.38.07-.44.08l-.59.04-.59.04c-.06,0-.29.05-.44.08l-.46.08-.51.09-.51.09-.46.08-.48.08-.52.08-.51.08-.43.11-.45.12-.46.12c-.1.03-.39.11-.47.11h-.55s-.58,0-.58,0h-.57s-.57,0-.57,0h-.57c-.4,0-7.33.81-9.09.95-.5.04-.56.18-.92.18h-.55s-.59.02-.59.02c-.18,0-.49,0-.55,0l-.49.1-.46.1-.48.11-.47.1-.48.1c-.07.01-.4.06-.48.06h-.58s-.58,0-.58,0h-.57s-.57,0-.57,0h-.57s-.57,0-.57,0c-1.76.03.25.41-2.57.13-.06,0-.33,0-.36.03-.92.56-.74.36-2.54.37l-11.99.06c-.61,0-1.57.23-2.21.31l-2.3.31-1.73.24-2.38.33-1.47.05-1.87.19-.58.06c-.67.07-1.24.04-2.02-.04-.48-.05-1.27.12-1.8.14l-6.75.15-1.6.09c-1.23.07-.99-.25-1.54-.12l-1.12.26c-.07.02-.49.03-.57.03l-1.51-.13c-.06,0-.41.08-.48.08l-.53.03h-.61s-.58.01-.58.01h-.58s-.57.01-.57.01c-1.3.01-.6.5-3.89.18-1.68-.16-.78.28-1.54.11l-1.18-.25c-1.61-.35-.56.47-3.45.12l-2.19-.27-2.25-.29c-.75-.1-1.56-.19-2.33-.19l-3.99-.02c-.2,0-.67-.14-.82-.1-.2.05-.76.32-.98.35l-2.24.27c-1.02.12-2.08-.06-3.16.09l-1.45.2c-1.55.21-3.19.12-4.72-.03-4.5-.46-1.44.52-4.98-.08l-3.49-.59c-1.69-.29-1.78.17-4.31-.27-1.73-.3-.23.15-2.34.11l-1.28-.02c-.15,0-.38,0-.45-.01l-1.8-.19c-.89-.09-.97.15-2.67.16h-1.61c-.68.01-1.55-.13-2.19-.05-.92.12-1.76.21-2.64.21l-4.89-.02c-.58,0-1.26-.07-1.85-.11l-2.12-.12c-.75-.04-1.55-.05-2.22-.14l-1.51-.2-1.29-.17c-.32-.04-.85-.05-1.22,0-1.18.18-2.28-.03-3.48-.01l-1.23.02c-.12,0-.48-.05-.56-.04l-3.06.23-2.09.16-5.64.15c-.22,0-.63.04-.82.04l-2.1-.09c-2.29-.1-.04-.41-2.38-.08-.44.06-1.12-.05-1.68-.07l-3.89-.14c-.63-.02-1.33-.13-2-.19-3.94-.36-3.73.27-5.91.36-2.72.11-1.08.23-4.63.45l-2.35.14-3.31.24-2.06.15-1.89.17c-1.19.11-2.34.07-3.55-.04l-2.84-.27-3.14-.35c-.78-.09-1.82-.29-2.55-.29l-10.59-.03c-.46,0-1.4.28-1.89.34l-2.07.28-1.19.16-1.81.25c-1.6.22-4.14.1-5.66.02-.22-.01-.87-.59-1.09-.54-.46.1-1.54.64-1.99.58l-2.21-.33c-.8-.12-1.54-.16-2.37-.25l-1.26-.14c-3.36-.37-2.9.34-4.05.13-1.59-.29-2.76-.36-4.33-.17l-3.33.41c-.54.07-1.02.12-1.65.17-2.24.16-1.81.72-3.08.35-.1-.03-.4-.13-.5-.11l-1.23.22c-.08.01-.36.02-.55.03l-.56.02c-.09,0-.33.08-.47.1l-.46.09c-.08.02-.42.07-.49.07h-.58s-.58-.01-.58-.01h-.58c-.09,0-.42.05-.48.06l-.47.11-.47.11c-.08.02-.42.02-.52.02h-.61s-.58-.02-.58-.02c-4.79-.1-3.89.11-7.98.53l-2.87.29-.57.04-.58.04c-.51.03-1.24.22-1.64.23l-2.39.03-1.95.23-6.53.11-1.72.47c-2.46-.48-.84-.08-4.08-.06-1.68.01-7.63-.33-8.51-.2l-.97.15-1.25-.05-.58-.02-4.34-.1c-3.45-.08-5.31.19-8.71-.08l-1.57-.13-2.89-.27c-.3-.03-1.02.16-1.05.27l.22.82c.38,1.39-.82,1.1-1.08,2.85l-.33,2.22c-.19,1.28-.82.45-.54,2.56l.16,1.28c0,.06-.21.53-.21.59v2.77c0,.81-.08,1.59-.19,2.36-.62,4.39.19,1.65-.21,4.36-.08.53-.19,1.11-.19,1.54l.02,6.66c0,.83-.57,2.59-1.14,2.85l-2.54,1.15c-.39.18-1.03.4-1.42.54-2.38-2.49-2.58-.72-5.22-1.96-.47-.37-1.2-1.11-1.69-1.09l-2.68.1-3.34.14c-1.85.08-3.15.89-5.38.3-.58.1-1.76.7-2.34.72l-4.24.09c-.93.02-.73.5-1.18.68l-.63.26c-.09.04-.24.09-.45.16l-2.23.76c-.74.25-1.54.42-2.36.45l-.63.02c-1.05.04-1.94-.59-1.86-1.68s-1.05-2.99-.62-4.57l.5-1.83c.12-.42.27-.84.44-1.24.95-2.23.06-.66.1-1.71l.11-2.66.06-1.35.05-1.3-.18-2.01c-.27-2.92-.59-1.51-.31-2.86.15-.74.65-1.84.11-3.01-.91-1.94-.48-2.15-1.28-5.24-.2-.79-.18-1.68-.19-2.5l-.04-2.96v-.69c-.01-.12-.38-.17-.5-.16l-.77.06c-2.24.19-1.6-3.72-1.49-5.58l.11-1.79.16-2.65.2-2.3.12-1.38c.26-3.03,0-.87.1-3.22l.11-2.63.12-.47c.24-.91.15-3.35.04-4.49l-.17-1.82c-.06-.58-.14-1.19-.28-1.73-.64-2.55-.05.16-.23-2.64-.06-.96-.03-1.86.05-2.81l.1-1.39c.02-.31-.12-1.05-.13-1.35.35-2.14.05-2.35.29-4.84.33-3.55.06-1.15-.05-4.76-.05-1.58-.28-3.72.55-5.24.12-.22.35-.6.24-.72l-.49-.55c-.63-.7-.28-.81-.34-1.34l-.21-1.79-.07-.55c-.01-.1-.02-.37-.02-.5v-.61s0-.57,0-.57v-.6c.01-1.39-.68-1.58-.09-4.78.02-.12,0-.46,0-.62v-1.52s.16-5.32.16-5.32c0-.1.14-.56.14-.62l.29-2.56c.28-2.44-.22-.93,0-3.38l.17-1.89c.16-1.8-.09-1.92.05-4.76l.22-4.45.07-1.48.09-1.42.18-2.39c.05-.68-.04-1.44-.07-2.19l-.14-3.47c-.02-.61-.24-.79-.24-1.1l.02-7.69c0-.22.34-5.05.25-4.67l.51-2.32c.09-.39-.17-1.25-.17-1.64v-12.23s.12-1.59.12-1.59c.11-1.32-.36-.5-.07-3.14l.11-1.04.22-1.97c-.51-3.4.55-3.08.07-6.51-.2-1.43-.16-2.64-.03-4.05l.2-2.25.2-2.58.13-1.98-.11-.89c-.29-2.43.03-4.94-.15-7.37-.08-1.02-.59-2.07-.47-3.19.08-.71-.24-1.91-.13-2.53l.57-3.11c.58-3.13.3-2.78.79-5.46l.46-2.52c-.23-1.3-.15-2.27-.05-3.52l.15-1.92.35-2.03c.1-.59.03-1.28-.2-1.97-.46-1.36.23-1.69,1.64-2.48l.93-.52c.09-.05.43-.15.52-.18l.52-.17c-.15-.24-.27-.42-.27-.42-2.51.06-1.35-.96-4.46-.4l-2.07.37c-.46.08-1.33-.06-1.94-.15-3.31-.48-1.09-.03-4.63-.24l-3.87-.23-1.79-.11c-.2-.01-.66.03-.94.05-2.29.14-.88-.25-2.11.1-.28.08-.92.31-1.23.31l-5.54.08-1.47.22-2.58.11c-.53.02-1.46.25-1.88.1-.56-.21-1.32-.52-1.74-.57l-2.41-.27c-3.65-.4-4.88-.8-7.81-3.49l-.63-.58c-.33-.3-.92-.81-1.06-1.15l-.93-2.3c-1.33-3.3-.83-3.43-.83-5.57,0-1.5-1.29-4.06-.48-5.39.86-1.4,2.18-1.91,3.72-1.96l5.16-.14,2.86-.2c1.69-.12-.14-.5,2.26-.56l2.57-.07c.35,0,1.03-.24,1.42-.28l2.88-.31,2.29-.25,2.6-.29,2.86-.44,1.99-.29,2.27-.27,2.11-.2,2.14-.23c2.01-.22.42.24,3.38-.02l2.01-.18,1.64-.18,2.45-.19,2.79-.46,3.18-.27,2.07-.23c.24-.18.49-.37.4-.3-.13-.43-.2-.61-.2-.69v-.57c0-.05.18-.35.23-.37l.56-.25c-.59-1.29.67-2.81,1.28-3.72l.31-.47.29-.23.32-.26c.47-.38.22-.09.56-.57l.24-.35.24-.33c.04-.06.23-.27.28-.31l.35-.2.38-.22c.55-.32,1.18-.63,1.87-1.28l1.32-1.25,1.28-1.2s.45-.13.5-.16c1.3-.61-.06-.38,1.84-1.49l.43-.25,2.35-1.38c.38-.23,1.09-.87,1.51-.98,1.82-.48,2.59-.38,3.1-.68.81-.47,2.15-1.26,3.04-1.37l2.32-.3,2.28-.3,2.04-.27.81.51,1.18-.86c.57-.41.84-.89.78-1.57l-.12-1.46c-.24-.69-.13-1.12-.23-1.9l-.43-3.07c-.13-.92.95-2.24.1-2.76-4.71-2.87-2.5-2.79-5.51-4.73-.29-.19-.65-.82-.89-1.13l-1.22-1.59c-.18-.24-1-.37-1.25-.53l-1.73-1.11c-.36-.23-.72-.63-.98-.98l-.98-1.33c-.71-.97-1.52-1.64-2.45-2.49-.42-.39-.94-1.38-1.42-1.92-1.45-1.63.61-1.59-1.96-3.75-.46-.38-.94-.8-1.43-1.12l-2.27-1.49c.11-.38.26-.71.13-.79-.09-.05-.33-.26-.43-.29l-.49-.17c-.22-.08-1.41-1.21-1.63-1.45l-1.36-1.51-1.9-2.1c-.16-.17-.44-.44-.34-.56l.32-.43.31-.42-1.29-.65c-.5-.25-1.64-1.59-2-2.04l-1.52-1.89-1.37-1.8c-.43-.57-.82-1.01-1.37-1.52-.65-.6-1.17-1.5-1.72-2.21-.34-.44-.66-.85-.99-1.35-1.83-2.7-2.05-.97-3.31-2.29-.55-.58-1.06-1.15-1.58-1.62l-2-1.81c-.33-.3-.74-1.02-1.06-1.44l-1.25-1.62-1.76-2.31-1.82-1.51-2.48-3.01c-.73-.88-1.41-2.79-2.23-3.4l-1.61-1.21c-.12-.09-.38-.69-.49-.8l-1.66-1.68c-.61-.62-.81-1.08-.89-2.13-.05-.66-1.2-1.27-1.92-1.36l-2.61-.32c-.95-.12-2.55-.03-3.19-.17l-1.88-.42c-2.38-.53-3.08.37-4.22-1.15-.89-1.18-.54.22-2.71-1.87-.62-.6-1.37-1.19-1.81-1.88l-1.02-1.59c-.14-.22-.58-.83-.63-1.08l-.42-1.97.37-.59c.61-.97-.35-.3-.91-2.14-.05-.16-.17-.54-.16-.6l.29-2.66c.06-.53-.49-1.27-.09-1.59l1.05-.81c.77-.6-.44-.84.15-4.34.33-1.98,1.85-.44,1.35-2.33-.47-1.73.16-2.17,1.2-3.71.42-.62,1.1-.94,1.69-1.46l2.22-1.96,1.76-1.17c.58-.39,1.33-.75,2.01-1.11,2.84-1.51,2.03-2.07,4.91-3.1.39-.14,2.1-.36,2.7.23l.7.68,1.81-.35c.46-.09,1.08-.42,1.66-.59l2.27-.64,2.68-1.26c1.18-.56,2.35-.93,3.6-1.3l2.87-.84,2.86-.83c.44-.13,1.2-.64,1.6-.8l3.15-1.22c2.54-.98,2.39-.91,5.13-1.48l2.89-.6,1.57-.38c.51-.12,1.45-.65,1.94-.91,1.18-.63.71.67,1.83-.4.2-.19.65-.57.87-.62l2.48-.6.52-.13s.36.12.4.09c.17-.12.55-.66.73-.74l2.63-1.21,2.98-1.37c.67-.31,1.35-.58,2.05-.85l3.89-1.49c.15-.13.59-.58.78-.67l1.66-.83,2.51-1.24,1.4-.36,2.35-1.39c.31-.18.91-.64,1.22-.66,2.63-.15,1.49-.63,3.76-1.37l2.62-.85,2.1-.76,2.82-.92c.5-.16,1.85-1.53,2.74-2.06l1.98-1.19c1.59-.95,4.54-2.39,6.31-2.45l1.71-.06,1.84-.19c1.06-1.06,2.62-1.43,4-1.79l2.08-.54,2.22-.59,3.07-.94c.49-.15,1.15-.47,1.6-.56l2.21-.44c.94-.19.34.18.79-.01l1.07-.45,4.8-.02h.57c.06,0,.33-.08.47-.1l.46-.09.49-.09.47-.09c.65-.12,1.15-2.24,1.2-2.71l.23-1.85c.13-1.1.47-2.08.82-3.12l1.03-3.09c.22-.66.9-1.43,1.54-1.85,2.65-1.71,2.37-.63,5.13-2.04.28-.14.49-1.02.3-1.26l-.94-1.22c-1.17-1.52-.26-2.49-.69-4.61l-.34-1.71-1.33-2.18-2.41-2.83c-.24-.28-.46-1.14-.62-1.57-.22-.62.74-1.16,1.62-2.1l1.12-1.2c1.35-1.44,3.92-4.12,5.79-4.71l1.52-.48c.38-.12.81-.49,1.04-.71,1.89-1.81,1.09-.43,4.03-2.23.1-.06.19-.54.12-.64l-1.56-2.04-1.2-3.95c-.13-.43-.92-1.14-1.09-1.52l-.97-2.19c1.06-2.6,2.43-3.27,5.2-3.2s.91-.23,2.69-.36c.4-.03.91-.12,1.2-.31.78-.53,1.99-1.24,2.83-.95,1.22.42,1.44,1.85,1.74,2.86.22.75.49,1.39.75,2.07l.65,1.73c.14.38.63.95.95,1.37.27.36.55,1.26.79,1.82.34.79,2.11.34,2.9.98,1.45,1.17-.01.02,2.74.37s4.5-.44,5.41,2.1l.17.48s-1.31,1.31-1.88,1.41c-2.58.47-1.76-.12-3.64-.05-1.36.05.87.35-.75-.09-3.22-.87-2.86.06-4.09-.42-3.01-1.16-.65.25-2.8-.83l-1.11-.55c-.51-.26-.48.68-1.56,1.31l-1.47.86c-2.4,1.4-.57-.04-2.55,1.38l-2.2,1.58c-.45.32-.88.65-1.37.89l-1.94.99c-.61.31-1.38.99-2.03,1.27-1.11.48-1.97.99-2.79,1.84-1.58,1.64-.48,1.18-1.42,2.26-.19.21-.87.77-.68.97l.87.9c.07-.04-.19.12-.4.25l-.44.3c-.09.06.18.4.29.42l.52.1s.23.25.25.32l.72,1.79.17.42c.47,1.17.35,2.48.22,3.54,1.19,2.13.35,2.76,1.6,4.03,1.15,1.16,1.29,2.63.95,4.18-.45,2.05-1.63,1.87-1.27,2.27.07.08.35.33.41.42l.84,1.4c1.13,1.9,1.73,2.61,3.2,4.21.1.11.36.36.38.47l.15,1.31c.6.63.97,1.42,1.14,2.3.97,5.14.72,1.97,1.66,5.46l.25.92c.03.1.14.5.12.6-.66,3.86.81,2.01-.27,4.49-.32.74.13.68.45,2.87l.44,2.95c.2,1.34.52,2.53,1.16,3.74.91,1.74-.14,2.06.73,2.99.68.73.53,1.9.05,2.73l-.08,1.84-.13,2.87c-.02.46-.33,1.48-.06,1.9.62.96.87,2.18.56,3.34l-.6,2.23c-.03.1-.33.37-.4.45s.18.48.28.49l1.89.24.29-1.37.86.62c.15.11.58.02.73-.09,1.96-1.38,1.03.06,2.69-.63l2.31-.97c.83-.35,1.62-.68,2.48-.93l2.63-.77c.89-.26,2.06-.52,3.03-.64l2.57-.32c3.03-.38,1.15-1.04,5.65-1.46.88-.08,1.63-.19,2.34-.47l1.71-.67c.75-.3,1.56-.52,2.41-.8,2.81-.92,1.98-1.42,5-2.87l1.6-.77c1.7-.82,1.03-1.49,1.83-1.38,1.05.15,2.56.24,2.65,1.14l.1.91c.02.16-.53.44-.69.47l-2.64.5c-.81.15-.9.75-2.95,1.82-2.31,1.2-1.88,1.25-3.94,2.05l-2.11.81-1.83.72c-1.13.45-2.5.94-3.71,1.03l-1.93.13c-.33.88-4.06,1.56-4.63,1.6-3.53.23-4.12.59-7.26,1.6-.64.21-1.32.42-1.87.7l-1.95.99c-2.14,1.09-.74-.12-2.09.73-.28.17-.83.47-1.12.55l-1.37.36-1.64.44c-.21.06-.62.38-.77.25l-.68-.61s-.25-.29-.27-.33l-.55-1.06c.02-.76-.26-.57-.46-.01,0,1.07.14,1.31-.45,1.92l-.55.57-1.36,1.41c-.28.29-.33,1.01-.38,1.55s-.91,1.32-1.24,1.75l-.93,1.21-.41,1.21-1.22.49c.08,1.83-.84,3.09-2.14,4.22-.83,3.19-.31,1.88-1.97,4.59l-1,1.63c-.75,1.23-2.1,2.47-2.15,2.69l-.87,3.75c.07-.28.04,2.5.25,2.51.13,0,.6.02.73.04l2.5.4c1,.16,1.87.21,2.72-.3,2.43-1.46,4.79-2.68,7.62-3.03l.96-.62,1.67-.62,2.56-.98c1.7-.66-.38.08,2.64-.13,1.39-.1-.18.45,2.26.32l.66-.04c.19-.01.59-.03.75-.08,2.96-.89.64.61,2.27-.53.98-.69,1.87-1.54,2.97-.3-.09.37,0-.01.1-.39l.36-.47c.04-.05.37-.06.52-.08l.52-.05c.05,0,.37-.13.41-.17l.33-.24.32-.24c.37-.27.7-.6,1.21-.41l.44.16,2.72-1.12c.92-.38,1.96-.76,2.94-.99l3.76-.9c.16-.04,2.3-.79,2.73-.97,4.07-1.75,2.42-.11,4.27-1.39,1.75-1.21,2.28-1,4.81-2.04l6.92-2.84,3.52-1.63,2.1-1.02c1.16-.56,2.35-1.42,3.55-1.76l1.81-.53,2.24-.69,2.38-.79c.54-.18,1.21-.35,1.79-.45l2.56-.41,1.23-.02,1.48-.26c1.47-.26,3.22-.58,4.53-1.17.46-.2.97-1.25,1.22-1.64l.68-1.11c.17-.28.52-.67.8-.81l1.75-.88c.28-.14.89-.05,1.25-.02l2.64.18.61-.55c-.21-.51-.37-1.01-.6-.97l-1.1.19c-.63.11-1.67.14-2.19-.05l-1.55-.58-2.67-1.1c-.24-.1-.72-.39-1.02-.57l-2.9-1.69-1.85-.97-.5-.69-1.76-1.06c-.48-.29-1.34-.54-1.82-.8-.59-.32-1.14-.64-1.71-.82l-.85-.27-4.65-1.36c-2.33-.68-1-1.15-3.08-4.1-1.16-1.66-1.83-.62-2.41-1.87l-.9-1.92c-.07-.15-.42-.5-.55-.61l-1.82-1.62c-.21-.17-.76-.49-1.07-.69-.02-1.3-1.27-2.81-2.18-3.34-.81-.46.36-3.31-2.32-6.65l-.82-1.02c-.86-1.07.01-2.26-.22-2.41l-.59-.38s0-.24,0-.4v-.68c0-.05-.15-.31-.2-.41l-.78-1.55c-.67-1.33-1.19-2.6-1.7-4.05-.93-2.63-.87-.88-1.29-3.27-2.58-2.7-1.46-3.6-2.61-6.21l-1.17-2.62-1.33-2.27c-.9-1.54-.69-3.12-.79-3.84s-.46-1.69-.44-2.26l.07-1.91c.04-1.03-.97-.57-1.3-1.52-.35-1.01-.67-2.08-1.11-2.94l-1.66-3.25c-.8-1.57,0-1.65-.75-1.98-1.43-.64-.23.37-1.67-1.77l-.73-1.08c-.24-.36-.68-.88-1.03-1.18l-1.13-.96c-.15-.13-.3-.59-.41-.81l-.74-1.47c-.42-.99.72-2.4,1.86-2.55,1.32.45,2.48,2.1,3.25,3.25,2.18,3.26,1.5,1.07,2.57,3.45.15.33.59.83.76,1.12l1.74,2.96c.22.38.63.9.92,1.33,1.48,2.17.9,2.74,1.64,5.12l.77,2.47c.6,1.93-.22-.37.32,1.92l.65,2.74c.07.3.42.91.57,1.17,1.02,1.74,1.6,1.62,1.3,2.6l-.24.77c-.04.12.83.46.86.54l.75,1.96c.12.32.12,1.17.27,1.45l.76,1.34c.07.13.1.43.01.53-.06.07-.28.28-.35.34-.04.04.06.37.1.42l.28.35c1.31,1.62,1.64,1.8,2.36,3.84l.82,2.32c.38,1.08,1.76,4.23,1.77,4.54l.08,2.2c.02.53.46,1.19.68,1.66.13.28.7.69,1.03,1,.83.81.15.22,1.13,2.19l.59,1.18c1.05,2.13.32,1.75,1.31,2.05,3.33,1.03,1.94,1.33,2.29,1.9.24.39.77,1.18,1.13,1.56l2.48,2.59c.41.43-.48,1.56.18,1.85l1.28.56c1.34.59,2.2,2.19,2.62,3.54.24.79.34.23,1.55.85l2.12,1.09c.53.27,1.18.73,1.78,1,1,.44,4.17,1.68,4.37,1.84l1.94,1.52c.43.34,1.15.99,1.57,1.2l2.93,1.45,2.34.7,1.58.86c.42.23,1.1.66,1.52.69l2.99.19c2.25.14.46.13,2.56,1.63.83.59,2.94,2.64,2.82,3.46-.46,1.93-2.4,3.15-4.23,3.23l-1.29.06c-1.63.07-1.08-1.33-2.54-.78-2.16-.59-2.42,1.09-3.9,1.71-2.59.23-1.57,1.43-2.75,1.29l-.79-.09c-.28-.03-.8.28-1.15.59-1.05.92-.7-.25-2.63.35l-2.24.69-1.7.28c-.43.07-.92.34-1.25.37-.81.09-1.34.19-1.96.41-.79.29-2.89.95-3.37.93-1.81-.07-.35.46-2.64,1.15-.12.12-.39.4-.31.32l1.1.09.49.04c.05,0,.18.25.24.35l.23.38.23.38.16,2.52.11,2.05.16,1.65-.23,1.09c-.11.54-.22,1.09-.39,1.62l-.57,1.78c.69.87.28,3.03.23,3.1-.21.3-.68.91-.97,1.25l-1.43,1.71c-.19.28-.47,1.11-.67,1.36l-1.39,1.73-1.14,1.45-1.76,2.01c-1.61,1.84-3.1,1.58-3.68,2.19l-1.14,1.2c-.93.13-2.18.36-3.02.65l-2.21.77c-.63.22-1.36.37-2.09.48-3.41.49-1.33-.35-5.29-.01-2-1.01-.78.46-3.61-.3-.49-.13-1.13-.54-1.4-.82-.23-.28-.33-.41-.33-.41-.3.26-.41.36-.47.4l-.25.15c-.72-.87-1.65-1.45-2.75-1.5-.99-.04-1.35-1.92-2.81-3.33l-.23-1.72c-.19-1.47-.72-1.01-.54-1.61l.24-.77c.14-.44-.58.2-1.4-1.27l-.74-1.31-1.13-2.13c-.17-.31-.81-.16-1.29-.03l-1.66.43c-.69.18-1.45.46-2.12.71l-2.08.78c-.7.26-1.71.62-2.32.62h-1.52s-3.99.09-3.99.09c-.47,0-1.51.2-1.9.39l-1.88.9-1.59.76c-2.16,1.04-1.25,0-4.42,1.25-2.92,1.17-1.25,1.34-3.86,1.94l-1.03.92c-.71.1-1.5.25-2.19.29l-2.86.16c-1.75.1-4.12-.05-4.88-1.76l-.63-1.42c-.14-.32.21-1.02.38-1.44.48-1.23.98-2.34,1.71-3.47,1.45-2.24.35-2.12,1.38-2.88.83-.62,2.36-2.3,2.55-2.62l2.44-4.1c.45-.76.82-1.34,1.4-2.1.44-.57.66-1.67.99-2.4.39-.87,1.01-1.84,1.19-2.7.13-.58.21-1.24.43-1.58l1.35-2.04c.12-.18.87-.39,1.09-.51.99-.55-.82-.75.83-3.61l.75-1.29,1.17-2.01c1.72-2.96-.1-.62,1.72-3.45.27-.43.02-1.45-.24-2.03-.54-1.22.21-1.72-.72-3.79l-1.73.14c-1.15.09-1.88.27-3.3-.24l-1.94-.69-2.34-.83c-1.08-.38-3.74.56-5.08-1.4-.53-.77.15-1.94-.84-1.57l-1.4.53c-2.15.81-.72.64-3.83,1.63-.85.27-1.54.68-2.33,1.04s-1.7.66-2.51.96l-1.51.57c-.61.23-1.31.4-2.03.54-3.24.63-2.04-.77-3.95.25-1.14.61-2.19.92-3.42,1.25l-1.52.41c-.2.05-.61.57-.78.7l-1.91.65c-.49.17-1,.25-1.68.33-.51.06-1.28.48-1.77.63l-3.14.94-1.99.59-2.03.61-2.7.8c-1.78.53-2.05-1.22-3.67,1.36l-1.86.67-1.99.92c-3.29,1.52-2.97.96-6.07,2.22-2.52,1.02-.23-.02-2.23.35l-1.48.27c-1.68,1.14-6.02,2.58-8.11,2.9-2.94.46-.8.64-3.1,1.44l-2.13.75c-1.02.36-2.28.72-3.33.88l-2.59.4c-1.86.29-.46-.84-2.11.08-3.04,1.7-1.5-.09-3.48,1.45-1.41,1.09-1.07-.29-1.91.44-.72.63-2.48,2.43-3.64,1.77-.22.12-.82.69-1.1.82l-1.77.8-2.17,1.01c-.36.17-2.93.91-2.65,1.18.06.06.32.3.36.37l.78,1.21.8,1.15.93,1.39c.42.62,1.49,2.14,2.1,2.43l2.32,1.11c.72.34,1.56.79,2.05,1.34l1.52,1.71,2.1,2.45,1.43,1.73c.35.42.76,1.02,1.22,1.35l2.27,1.68,1.83,1.65c2.13,1.92,1.44,1.97,2.82,3.42l2.53,2.67c.44.46.97.9,1.54,1.31,2.39,1.72,1.07-.03,4.44,3.26.37.36.57,1.56.72,2.16.16.66,1.15.77,3.08,2.34,2.25,1.83.96-.46,3.3,2.35,1.81,2.18.88,1.59,2.79,3.52.6.6,1,1.26,1.32,2.14.23.62.76,1.06,1.16,1.63l1.44,2.06c.3.43,1.45.88,1.72,1.32.53,1.13,1.6,2.22,2.65,2.83,1.78,1.03-.25,1.39,1.83,1.95.31.08.83.56,1.07.84l1.6,1.85,1.17,1.42c.48.58,2.01,1.98,2.34,2.16l2.23,1.25c1.31.74-.42,1.31,1.35,2.11.62.28,2.44,1.28,1.86,1.86l-.38.37,1.31,2c.03.05.05.55.07.6l.61,1.38c.16.37.43,1.1.45,1.44l.09,1.72c.02.44-.04,1.09-.2,1.42-.85,1.75.08.08-.13,3.06-.02.28-.45.87-.54,1.14l-.73,2.3c-.05.15.2.66.22.81.06.47-.76.28-.85.61l.88,2.24c.13.33-.44.57-.11,1l.64.82s.24.82.25.89l.06.54c.01.09-.03.44-.05.53l-.09.51c.75,3.16,0,5.09.75,8.08.36,1.43.89.87,3.32,1.46.95.23,1.91.45,2.87.57l1.75.22c.74.09,1.42.24,2.11.47l.98-.07c1.22,1.06,1.51.17,3.6.62l3.13.67,1.59.33c.72.15,1.34.31,2,.54l1.53.55,2.04.81,2.19.87c1.83.72-.13-.75,2.6,1.75.52.48,1.15,1.04,1.7,1.37l1.83,1.12c1.3.8,0,.89,1.67,2.28.69.57,1.33,1.2,1.99,1.69l1.54,1.14c.39.28.71,1.04.56,1.42l-.75,1.82c.96.11,1.86.39,2.38.39l3.78.02c3.72.02,3,.34,6.92.21.57-.02,1.13-.02,1.68.01l2.58.16c.52.03,1.34-.09,1.89,0,2.36.38.88-.34,4.99-.43.9-.02,1.69-.1,2.6-.21,3.52-.4,2.32.66,5.8.07,2.68-.45,3.89.28,6.13.37l3.46.13c.44.02,1,.05,1.39.1l2,.22c.47.05,1.01.06,1.5.02l3.05-.24c3.64-.29,2.39.49,5.41.03,3.85-.58.81.44,4.41-.1.23-.03.91.14,1.15.15l7.92.09,1.76.02c.56,0,1.63.4,2.23.45l2.02.16,2.28.17,2.53.11,1.53.09,4.46.21,1.75.08.86.05,4.04.11,1.94.35c-.49-.09,3.38.4,3.2.38l2.18.18c.21.02.66-.01.96-.02l3.69-.15c2.44-.1-.05.17,3.19.13l8.66-.11c.23,0,.8-.13.96-.12l1.68.1c.36.02,1.15-.11,1.47-.06l2.27.33c1.49-.21,2.87-.26,4.33,0l1.83.32c.53.09,1.49-.11,2.17-.16l2.49-.18,1.5.26,1.94-.23,1.41-.13,2.09-.14c.56-.04,1.1.01,1.73,0l2.51-.06c1.43-.04,2.57.06,4.07-.07.68-.02,1.83.29,2.52.31.61.02,1.19.02,1.76.09l1.7.21,1.39.2c.5.07,1.19.24,1.72.24l6.22.03,1.29.28,4.7-.09,1.62-.06,1.08-.02,1.69-.07c1.39-.06,2.85-.09,4.19.04l1.79.18,1.78.17,1.56-.08,1.58.12c1.42.11,3.04,0,4.43.23,1.12.19,2.07.41,3.22.45,3.51.12.63.64,5.37.46l2.36-.09c.93-.04,2.31-.32,2.77-.74-.68-3.37.72-1.02.21-6.47-.03-.36-.07-.84-.15-1.19-.54-2.33.62-1.39.07-2.63-.3-.68-.25-1.45-.28-2.18l-.09-2.32-.1-2.45c0-.2.83-2.88,1.09-4.07l.54-2.53c.06-.26.48-.78.64-.98l-.28-1.91c-.33-2.21.89-1.02.24-2.38-.18-.37-.39-.98-.37-1.27l.15-1.5.24-2.11c.06-.49-.06-1.48.14-1.94.95-2.14-1.09-1.74-.16-4.66l.59-1.85c.25-.8-.11-1.15-.36-3.13-.15-1.2-.99-1.79-.62-3.7l.72-3.66c.45-2.28-.6.51-.11-1.99.04-.19-.03-.74-.01-.96l.13-1.86c.23-3.35-.37-.78-.66-4.55.37-1.03.31-1.8.44-2.78l.33-2.55c.46-3.6,6.99-2.88,7.34-2.99,3.02-1.02.85.16,3.77-.74,2.53-.78,1.86.48,4.77-.05,6.89-1.27,3.58-1.09,11.19-1.03.28,0,.95.23,1.18.19.5-.1,1.49-.38,2-.44,3.36-.39,2.21.04,4.12-.22.82-.11,1.74-.13,2.51.09l2.43.71c1.32.39,2.9-.06,2.69-.06l3.25.03c.79,1.24,3.14,1.97,4.45,1.54l1.62.52,1.2.38c.23-.04,1.21-.27,1.44-.1.63.28,2.43,3.88,2.48,3.74,0,0-.44.26-.44.34-.19,3.39.93,1.03-.4,4.14.04.99-.11,1.83-.36,2.88-.2.86-.14,2.1-.21,3.05l-.14,1.91.05.42c.04.37.92.13,1.76.41l1.73.58c1.89.63,1.39-1.07,5.94,1.14l1.96.95,1.86.91,2.31,3.13c.32.43.69,1.07.99,1.55l.89,1.42,1.1,1.75c.29.46.47,1.62.8,2.02,1.92,2.32-.2.33,1.55,3.12l.2,2.04c1.99,1.85.06,2.45.65,5.16l-1.19.63c.11.63.16,1.31-.04,1.68l-1.05,1.98c-.43.81-1.96,1.3-2.41,2.07l-1.47,2.53c-.29.5-.85,1.04-1.23,1.29l-2.63,1.76c-1.79,1.2-4.91,1.28-6.4,2.17l-1.74,1.04-2.58.07c-.43.01-1.16.77-.94,1.09.92,1.34-.4.95-.57,3.03l-.18,2.17c-.03.39-.26,1.38-.2,1.77l.6,4.04-1.23,1.37c-.86.16-4.47,1.31-4.29-.34.05-.43.11-1.09.11-1.47l.03-1.5c.44-.56.69-1.17.76-1.87l.18-1.69c-.32-.64-.61-1.39-.6-2.02v-2.06c.02-1.25.31-2.65.77-3.84.53-1.4,1.02,0,1.41-3.22.2.2.8.64,1.04.56l1.74-.58c1.75-.59.61.33,1.86.14l1.52-.23c2.33-.35,3.88-.58,6.12-1.62.71-.33,1.57-1.17,2.27-1.67,1.38-.98,2.04-2.57,2.35-2.83l2.36-1.91c.43-.35.56-1.59.73-2.12.56-1.71.52-3.17.25-4.95-.45-2.94.45-.6-1.53-3.67-.8-1.24-1.31-2.58-1.82-3.97-.23-.63-1.15-1.46-1.59-2l-1.16-1.43c-.38-.46-.68-1.73-1.58-2.17l-1.93-.94c-1.03-.5-2-.76-3.12-.92l-1.61-.23c-1.05.19-2.08.19-3.12,0-3.02,1.24-1.52.51-4.88.18-.17.54-.18.2-.19-.22l.17-.66c.19-.74-.63-1.02.06-2.1l1.04-1.61.17-3.32c.97-1.04-.09-1.09.39-3.11.22-.96.61-2.33.2-3.28-1.13-2.62-.66-2.87-1.62-3.23l-1.63-.62c-1.07-.12-2-.25-2.94-.49l-.7-.97c-.6-.09-1.15-.17-1.57-.29-.72-.22-1.22-.08-2.01-.18l-4.61-.58c-.59-.07-1.11.02-1.51-.15-.28-.12-.64-.22-.82-.19l-1.81.27-2.03.34c.58-.1-6.48-.26-8.2-.01l-3.72.54-1.44.13c-.5.04-1.51.69-2,.6l-1.93-.36c-1.55,1.08-4.77.59-6.67,1.53l-2.14,1.06-1.1,1.16c-.75.79.79,1.84.92,2.63-.26,1.06-.29,1.9-.06,2.98.39,1.84-.45.19-.02,3.1l.28,1.93c-.5,1.14-.9,2.41-.78,3.7l.2,2.15c.12,1.23.08,2.53.02,3.76l-.07,1.39c-.18,3.71.59,1.15.28,3.27l-.35,2.35c-.24,1.64.12,2.79,0,4.81-.29,5.07.82,3.55-.19,7.48l-.54,2.1-.62,2.21c-.15.54-.54,1.65-.58,2.21-.18,2.4-.21,5-.02,7.37l.26,3.18c.29,3.58,2.08,4.48-.65,7.97l6.86.07h1.71s5.1,0,5.1,0c.32,0,1.08.21,1.41.15,2.21-.42,3.36.32,4.63.33l5.66.05,1.27-.26c1.11-.23,2.89-.01,4.17-.11l2.31-.18,1.67-.14c4.05-.33,3.5.21,6.1.18,1.18-.01,2.43-.12,3.59.02l2.36.28,2.24.32c.39.06,1.25.56,1.67.58l1.78.08,2.03.09,2.29.2,2.82.17,2.58.27,2.3.23,1.78.16,4.14.21,1.81.17c.48.04,1.29.24,1.75.24l7.55.06,1.3-.25c.9-.17,2.33-.05,3.34-.14,1.9-.17,4.14-.07,5.89.27,3,.58,1.88.22,4.84.82.97.2,2.2.12,3.3.2.88.07,1.93.34,2.7.34,2.95,0,1.67.27,3.61.11l1.7-.15c1.16-.1,2.47-.09,3.61.03,4.44.49,1.56-.51,5.05.06,1.01.17,2.05.05,3.08-.01l1.37-.09,3.66-.18,2.63-.1c.84-.03,1.69.03,2.57.12l2.59.29c.87.1,1.71.2,2.57.34l2.52.41c1.07.18,2.37.67,3.42.72l3.81.18c1.2.06,2.64-.42,3.92-.18l2.09.41c3.58-1.17-.41.66,5.16-.79l2.31-.6c2.34-.61,5.58-.84,7.93-.52l2.52.35c1.32.18,2.92-.1,3.89,1l.83.93c.42.47.75.97.97,1.57l.31.84ZM160.61,12.68l2.38-1.35c.24-.14.98-.53.96-.79-.04-.38-.59-1.2-.68-1.6-.21-1-.62-2.37-1.3-3.2l-.67-.81c-2.14,1.06-1.59-.07-3.82.88-.38.16-.45,1.31-.18,1.62l.99,1.14c.8.92.73,2.2,2.33,4.12ZM123.05,75.38l-.71.19-1.91.86c-1.61.72-2.1.5-3.74,1.13-.86.33-1.65.49-2.58.19-1.06-.34-.31.1-1.89,1.31-2.03,1.55-2.18-.39-5.01.64-5.6,2.04-2.44,2.63-5.23,2.87-1.24.11-2.52.3-3.64.65-.7.22-1.22.57-1.98.3-.72-.25-1.18.05-1.84.36l-2.13.98-2.25,1.02c-.63.28-1.48.29-2.2.17-.48-.08-1.2.86-1.64,1.02l-1.51.54-2.26.81c-.34.12-1.26.1-1.57.17l-.89.7c-.58-.12-1-.08-1.28.25-1.31,1.61-1.72-.26-3.29,1.43l-2.57.2-2.91,1.1c-2.54.96-1.39-.16-2.8.56l-1.57.81c-1.33.68-2.13.12-6.37,2.12l-2.35,1.11c-.81.38-1.49.1-4.24,1.12l-1.72.64c-.54.2-1.34.49-1.85.59l-2.68.54c-3.82.77-2.35,1.18-5.74,2.6-.41.17-1.12,1.05-.88,1.4l.96,1.4c.72,1.04,1.59,1.76,2.6,2.57.48.39,1.1,1.39,1.81,1.58,1.22.33,3.82-.79,4.12-.88l2.24-.67c1.39-.42,2.64-1.09,3.96-1.7s2.29-1.28,3.56-1.9l1.93-.94c.35-.08,1.1-.19,1.45-.3l1.75-.56c3.46-1.11,3.29.37,9.5-2.46.57-.26,1.2-.58,1.76-.75l2.42-.74,2.58-.57c1.2-.26,2.42-.66,3.51-1.08l3.33-1.29c1.55-.6,2.76-.84,4.33-.87.44-.27,1.29-.83,1.77-.9l1.81-.26.76-.87c.62-.11,1.42-.26,1.82-.45l2.38-1.14c1.29-.62,3.46-1.08,5.41-1.69l2.87-.9,1.96-.59,1.92-.56,4.02-1.14,1.99-.61,2.59-.85c2.46-.81,4.83-1.07,7.47-1.96l1.94-.66,2.9-1.06c.61-.22,1.35-.63,1.85-1.04.25-.19,1.12-.24,1.42-.35l1.81-.7c1.01-.15,2.45-.15,3.09-.89l.89-1.02,1.27-.1c.4-.03,1.1.07,1.36.31l2.12,1.97,1.07.99c.29.27.89.68,1.32.98l1.36-.3c.81.33,1.73.7,2.55.86l2.61.48c.57-.29,1.32-1.51,1.33-2.12l-.88-1.93c-.17-.37-.25-1.25-.33-1.66l-.56-2.6-.19-3.31c-.09-1.59-.52-2.98-.5-4.6.05-4.04-.71-4.37-1.55-7.19l-.54-1.82c-.24-.79-.47-2.17-.96-2.73l-1.06-1.22c-.22-.26-.34-1-.65-1.12-1.96-.77.41-1.09-2.75-3.01l-.59-2.1-1.82.99c-.16.09-.72.23-.64.37l.38.76c.55,1.1-1.06.96-.49,4.85l.27,1.81c.72,1.39.65,4.06-1.05,4.96-2.04,1.07-2.65-1.07-5.26-.1s-.26.08-3.59.31l-3.08.21-2.92.2c-.7.05-1.69.51-2.39.59l-1.92.22c-1.68.19-.54.7-2.12,1.11l-2.88.76-3.38.88-.76.59-2.22.34-2.4.4c-.54.09-1.07.22-1.62.39-4.33,1.33-3.05,1.66-6.18,3.46l.13.93c.02.15-.49.34-.65.4l-1.85.65c-.43.15-1.4.14-1.83.23l-2.59.57-.71.63-1.92.74c-3.26,1.25-3.53-1.36-5.63,2.08l-1.69.58c-1.77,1.06-2.97,1.78-4.94,2.47l-1.66.58-1.31.44c-.51.44-1.15.93-1.72,1.14l-2.37.84c-.43.15-1.17.71-1.59.89l-1.41.62-1.38.6-4.02,1.7c-.89.38-1.65.72-2.56,1.15-.58.27-1.55.45-2.19.69l-2.11.76-1.92.68c-1.01.36-2.12.57-3.19.83l-2.69.65c-.68.16-1.15.41-1.82.74-.8.4-1.96.61-2.85.92l-3.59,1.29-4.54,1.72c-1.62.61-4.77,2.16-4.3,4.1,2.94.31,2.64,1.5,4.23.73l2.21-1.08,2.5-1.17,3.97-2.02c1.61-.82,1,.37,4.09-.97l1.86-.8c.47-.2,1.46-.32,2.03-.52l3.14-1.09,1.49-.83c2.34-1.3,3.18.04,6.03-1.34l2.73-1.33c1.8-.87,2.68-1.09,4.84-1.36l2.08-.26c2.79-.34,2.67-1,5.28-2.18,3.74-1.68,4.81-1.29,5.99-1.74l1.88-.72c.57-.22,1.56-.55,2.09-.7.21-.06.72-.46.93-.55l3-1.24c1.12-.46,3.28-.16,5.45-.55l2.48-.46c.54-.1,1.24-.56,1.77-.97l1.48-.29c2.37-1.01,2.53-.75,5.4-1.67.99-.32,2.32-.64,3.07-1.17,2.48-1.77.94-.46,4.64-1.75l2.57-.9,1.57-.91,1.16.24,2.25-.35c3.85-.6,3.91.93,5.74-.15l1.89-1.11c.35-.21,1.56,0,1.45.4-1.52,4.3,1.03,1.3-2.11,3.96l-1.22.19-2.29.36c-2.13.33.67-1.71-6.34.18ZM31.57,115.63c.19-.38.84-1.15,1.13-1.35,1.48-.53,2.29,1.34,3.38,2.66l1.31,1.58c2.26,2.73.83.47,2.56,3.14l1.81,2.8c1.14,1.75.86-.05,2.65,2.43,1.47,2.05,2.17,1.2,3.3,2.95l.92,1.43.43,1.23c.86.59,1.35,1.26,1.99,2.14.34.46,1.27,1.08,1.72,1.58.8.87,1.59,1.41,2.58,2.08l1.65,1.12c.18.13.33.83.5,1.06l2.54,3.6c.47.66.82,1.52,1.4,2.04,1.79,1.64,1.67.79,3.45,2.52.5.63,1.03,1.3,1.66,1.78l1.51,1.15c1.86,1.42,1.29,1.71,2.84,3.41s1.98.69,3.89,2.91l1.5,1.74c1.06,1.24.13,1.56,3.08,3.37l1.44.89c.99.61,1.66,1.57,2.43,2.43l1.5,1.66c.5.55.91,1.11,1.4,1.74.44.56,2.42,2.73,2.96,3.28l1.41,1.45,2.63,2.81c1.42,1.52,1.4,1.33,2.82,2.86,2.14,2.31.65.28,3.43,1.97l1.67,1.01c.34.21.85.73,1.2,1.03.45.39,1.56.65,2.14.99.73.42,2.88,2.15,3.14,2.55l1.17,1.81c.22.31.82.47.6-.02.14-.7.41-1.54.36-1.9l-.54-3.7c-.1-.7-.17-1.36-.4-1.85l-1.12-2.41c-.25-.54-.61-1.06-.99-1.52l-1.32-1.58-.95-1.14c-.84-1.01-1.59-.59-3.11-2.5l-2.02-2.56c-.54-.68-1.15-1.34-1.76-1.95l-2.87-2.85c-1.58-1.57-2.26-1.35-3.28-3.89-.69-1.72-2.09-.53-2.62-3.08l-.83-1.14c-.51-.69-.95-1.22-1.59-1.89l-.77-1.99-2.29-1.53c-.47-.32-1.13-1.24-1.27-1.82-.24-1-1.17.62-3.02-1.23-2.55-2.55-1.56-2.03-3.18-3.7-2.91-3-1.02-1.23-3.62-2.94l-1.77-1.16c-.81-.53-.38-2.15-.99-2.74l-.98.9-1.34-1.68c-1.36-1.71-1.72-2.87-2.9-3.6l-1.81-1.12c-3.34-2.06-1.61-2.4-4.36-4.76l-2-1.72-.87-1.93c-.39-.27-1.14-.78-1.51-.99l-2.08-1.2c-1.48-.86-.4-1.62-1.79-1.94-.87-.2-1.83-.97-1.7-2.31.12-1.19-1.22-.12-2.01-1.58-.33-.61-.69-1.06-1.15-1.42l-1.13-.9-1.44-1.15c-3.09-2.48-.77-1.61-3.25-3.86-1.39-1.26-1.07-.79-2.33-2.53l-1.15-1.58c-.85.39-1.91.27-2.45-.31-.32-.34-.54-1.42-.68-1.81-2.41-.73-.7-.7-3.31-2.72l-.84-.65c-.95-.74-2.57-.48-3.71-.37-.36.04-1.24-.15-1.57-.29l-.89-.37-2.17,2.1c-.98.21-1.51.27-2.27,1.15l1.57,1.24c.27.22.59.93.53,1.27-.04.28-.44.83-.7.96l-2.11,1c-1.52-.79-3.03-1.11-4.57-.81l-1.21.89c-.3.22-.58.81-.61,1.23l-.18,2.4c-.28,3.63-1.65,1.75-1.06,4.86.76,4.04.01.69.27,4,.15,1.86.35,3.7,1.32,5.32l1.51,1.08c.74.52,1.7,2.01,3.16,2.45l2.09.63c.79.24,2.2.35,2.82-.09,1.39-.98,4.58-2.78,5.5-.92l.95,1.94c.4.81,1.51,2.87,1.98,3.41l1.77,2.05c.36.41.66,1.01.96,1.62l1.07.29c.13.49.39,1.25.72,1.53l2.34,1.98.57,1.42c3.02,2.01,2.56,3.41,4,4.77l1.06,1,1.28,1.29c.44.45,1.03,1,1.36,1.44l1,1.35,1.38,1.82c.29.38,1.13.86,1.57,1.24.38.32.81.56,1.38.7.47.11.74,1.36,1.14,1.61l1.62,1.02c.28.18.68.79.81,1.13l.72,1.89.95.7,2.08,2.26c.33.36.84.97,1.11,1.38l1.23,1.93c1.69,2.65.04.13,2.53,2.62.43.43.85.9,1.22,1.36l2.03,2.55c.24.3.85.82,1.16,1.08l1.26,1.09c.97.84,2.31,1.56,2.98,2.64l.89,1.45.98,1.61c.15.25.37.9.57,1.11l1.24,1.32,2.07,2.25c.33.36.7.92,1.03,1.24.72.71,1.57,1.41,2.04,2.19,1.29,2.13.7-.34,2.72,1.61.47.45,1.01,1.07,1.48,1.36l1.28.79,1.7,1.39c.12-.53.25-1.27.32-1.99l.19-2.09c.04-.47.34-1.25.62-1.58l1.65-1.89c1.08-1.24,2.66-2.57,4.21-3.63-.74-.7-1.77-1.48-2.35-2.25l-1.87-2.47c-.23-.31-.92-.84-1.07-1.21l-.69-1.64-2.24-.72c-.6-1.12-1.43-2.18-2.19-3.06l-1.73-2c-.51-.59-.89-1.55-1.62-2.07-2.89-2.08-.5-1.2-3.37-2.89-3.03-1.79-1.04-1.95-2.92-3.13-.99-.62-2.09-1.39-2.88-2.18l-1.33-1.32-1.42-1.38c-1.23-1.2.93.05-1.79-2.5l-1.77-1.67-1.65-1.5-2.44-2.14-1.25-1.04c-.46-.38-1.01-.74-1.32-1.21-3.15-4.68-1.88-3.62-5.36-6.73l-2.36-2.11c-.59-.53-1.11-.75-1.41-1.52-.21-.54-.66-.85-1.28-1.07l-1.26-2.28c-.57-.42-1.04-.87-1.2-1.45l-.58-2.01-.84-.54c-1.03-2.34-1.55-.71-2.19-2.96l-.23-.8c-.13-.45-1.26.45-2.24-.1-.81-.45-1.17-1.16-1.7-1.86-.28-.37-1.1-.98-1.36-1.36l-1.52-2.24-1.33-1.87c-.46-.65-1.37-1.64-.87-2.64ZM187.46,129.45l1.01,1.56,4.31,1.46c.63.21,1.33.15,2.02.18l2.84.11c.92.04,1.91-.08,2.86-.2,3.57-.45,3-1.72,5.93-1.06l1.34-.87c.77-.5,1.31-1.09,1.99-1.72l1.5-1.38c1.84-1.69,1.54-.59,1.8-2.23.09-.55.62-1.09.89-1.59l1.3-2.43c1.29-2.42,1.55-4.73,1.01-7.42-.03-.14-.21-4.24-.2-4.8l.02-2.23c-.05-.05-1.01.18-1.45.33l-1.85.61c-.39.13-1.18.47-1.57.63-.73.9-2.07,1.31-3.17,1.36-.97,2.11-2.49,1.25-4.41,2.16-2.99,1.42-1.84-.19-3.76,1.45-1.7,1.46-2.27.19-3.01,1.63l-2.96.11c-1.83,2.26-2.08.79-3.46,2.55l-1.83-.57c-.79.87-1.55,1.3-2.56,1.58l-1.57.43-.77.21c-.39.11.22,1.02.08,2.17l-.17,1.47c.99.21,1.69.89,1.69,1.81v2.34c.78,1.25,1.54,1.46,2.13,2.38ZM97.81,210.05c2.31-.28,3.4-1.1,6.2-.89l3.34.24c.49.04,1.48.22,1.82.06.3-.74.68-1.79.73-2.39l.22-2.77c-.64-.75-.85-1.68-1.15-2.63l-1.5-4.82c-.15-.5-.65-1.35-.87-1.89l-.84-2.11c-.14-.36-.56-.97-.77-1.41-1.47-3.09-1.61-1.88-3.85-3.03l-3.21-1.64c-.2-.1-.86-.26-1.06-.2l-2.79.91c-.34.11-2.44,2.02-2.55,2.24l-.86,1.72-.27,2.09c-.53,4.06.49,1.09-.06,4.97-.11.8-.46,1.53-.89,2.23.05.11.41.72.47.96l.9,3.55-.53,1.51c.64.76.59,1.63.35,2.61-.28,1.18,2.29.23,2.67,1.58.65-.27,1.37-.5,2.03-.58l2.47-.3ZM107.32,227.27l1.28-.25,3.93-.09,2.76-.09,1.56-.04c1.62-.05,3.17-.07,4.81.11l2.61.29,2.54.16c.71.04,1.59.27,2.21.27,3.43-.02,2,.44,4.36.48l4.25.07,1.23.25h4.47s1.24-.27,1.24-.27h3.35c.18-.01.43-.56.31-.67-.08-.08-.28-.25-.37-.35l-1.55-1.68c-.25-.27-.96-.78-1.19-1.07-.6-.75-1.35-1.75-2.2-2.3l-2.98-1.94c-.83-.54-1.58-1.09-2.5-1.5l-2.7-1.22-1.51-.62c-.31-.13-.78-.21-1.24-.26l-.76-.84c-.21-.23-.92.11-3.12-.54-2.37-.7-1.48.04-4.47-.31l-1.68-.2c-.96-.11-2.14-.54-3.04-.57-.78-.03-1.51.06-2.08-.46-1.19-1.08-2.75-1.35-4.05-.31l-3.55-.05-1.34-.5-3.3-.13c-1.25-.05-2.44-.38-3.55,0-.69.24-1.25.18-1.96.31l-2.25.41c-.44.08-1.33-.38-1.71-.6-.16-.09-.77.23-.62.34l.47.33.43.3c.1.07-.02.44-.13.41l-.57-.14-1.29-.22c-5-.84-2.52.68-5.27.13-.65-.13-1.63.38-2.35.55l-3.12.72c-.68.16-1.37.33-2.08.43l-2.31.35c-.6.09-1.54.38-2.16.59l-2.39.85c-1.07.38-2.18,1.26-3.28,1.74s-1.78,1.2-2.65,1.91l-1.91,1.56-1.84,1.53c-1.09.9-1.24-.27-2.91,1.98l-2.32,3.13-.58.72c-.14.18.22.98.45.99.78,0,2.37-.1,3.24-.19l3.22-.3c2.41-.22,3.31-.05,4.58-.26l2.02-.33,2.42-.12,3.13-.68c.97-.21,1.93-.39,2.93-.48l2.36-.21c.59-.05,1.15-.23,1.83-.42.59-.17,1.69-.09,2.39-.18l3.47-.49c.64-.09,1.55-.1,2.18-.11,3.27,0,1.74-.2,5.23-.14l2.58.04c1.03.02,6.98.18,7.04.17ZM442.15,252.83l3.34-.41c4.19-.52,1.42.08,5.34-.12.36-.02.78.03,1.17.13,4,1,1.84.12,4.29.59s3.01.05,5.98-.15l1.55-.11c.49-.03,1.42-.06,1.86,0l2.37.27c2.66.31,4.71,1.31,5.56-.97l.42.64c.06.09.47.33.58.31l1.2-.24c2.54-.51,2.11.24,5.1-.25l1.1.05c.25.01.95.04,1.22-.02l2.89-.65c.32-.07.84-.23,1.07-.19l1.37.23c1.21.2,3.99-.09,4.95-.34.63-.16,1.15-.29,1.69-.3l2.86-.07c.61-.01,1.4,0,2.06.2l1.91.58,4.48.19,2.47.36c1.04.15,2.08.52,3.08.9l1.35-.17c1.71.58,3.02-.58,3.51-.52l2.23.27c2.58.31,4.25-.55,5.36-3l.81-1.8c1.06-2.34.45-1.91,1.6-2.98.45-.41.56-1.11.35-1.82-.09-.29-.61-.8-.88-.79l-1.52.03c-.08,0-.41-.05-.56-.06l-2.1-.21c-.05,0-.42.08-.46.07-.45-.1-1.44-.24-1.92-.16l-1.85.31-2.49.44-1.5.4c-.77.2-2.01.05-2.75-.02.54.06-5.05.66-5.88.38l-.65-.22-2.93-.13c-.76-.03-1.8-.37-2.43-.34-2.69.12-.52.07-3.5-.22-.52-.05-.85-.72-1.35-.5l-.58.25-2.49-.44-1.69-.3c-.1-.02-.54-.36-.64-.36-.77-.03-2.41.04-3.15-.18-.97-.3-1.57-.34-2.52-.26l-2.52.2c-.57.05-1.53.35-2.02.32-1.94-.12-2.99-.45-4.12-.26-3.31.54-.86-.47-4.26.04-.67.1-1.43.11-2.1.07l-1.03-.07-.66-.04c-.4-.03-.87,0-1.34.06-3.31.41-1.4-.59-3.99.02l-1.6-.14-2.92-.26c-1.89-.17-3.64.13-4.58-.31-.1-.04-.49-.21-.65-.24l-3.04-.53c-.71-.12-1.47-.18-2.19-.25-2.47-.25-3.87.03-4.43.01l-1.33-.04-1.95.23c-3.32.38-1.49-.42-5.45.03h-1.38c-.87.02-1.56.03-2.44,0l-4.44-.2c-.43-.02-1.35-.38-1.75-.45-.88.16-1.86.24-2.68.14l-.72-.09-.67-.08-.62-.1c-.12-.02-.29-.03-.41-.04l-1.78-.18-.54-.06-2.35-.27-1.94-.05-3.62-.57-1.54-.22c-1.8-.26-3.6-.62-5.4-.77l-2.91-.25c-2.92-.26-5.8.16-6.4.11-.24-.02-.75-.12-.91-.07l-1.76.54c-1.14.35-2.28.19-3.55-.06-.62-.12-1.89.48-2.49.42l-2.44-.24-2.97-.14-2.59-.12c-.49-.02-.97-.02-1.46-.01l-3.73.09c-.42.01-1.29-.3-1.83-.45-2.44-.66-1.54.85-4.74.26l-1.62-.29c-.18-.03-.73.13-.95.14l-5.31.12c-.71.02-1.56.25-2.21.08-1-.26-1.6-.07-2.6.25-.56.18-1.65.14-2.37.24-2.07.29-3.52.29-5.59-.59-1.38-.58-.66.22-3.5-.57-1.25.32-2.41.32-3.51-.35l-13.92-.07c-.69,0-1.44-.22-2.1-.03-3.2.95-2.34-.22-5.28.75-.33.11-.81.17-.94-.02l-.47-.67c-.08-.11-.3.26-1.63.14l-2.46-.22-2.87-.25-1.67-.1c-.77-.05-1.54,0-2.31.06-1.34-.19-2.67-.2-4.03.04l-1.17-.15c-.67-.09-1.61-.3-2.23-.3l-7.76-.03c-.56,0-1.65.44-2.23.51l-2.35.26c-1.01.11-4.23.07-5.01-.08l-2.66-.52c-.86-.17-1.78-.14-2.61-.07l-4.41-.04-1.84.09c-.44.02-1.21.02-1.61-.02l-2.09-.2-1.73-.15c-3.25-.28-1.84,1-5.46.24-2.54-.54-.55,1.03-5.39.34l-2.05-.29-3.03-.51c-.42-.07-1.01-.01-1.57.06-5.09.65-2.07-1.11-7.42-.57-4.48.45-3.33-.57-6.84-.03-.6.09-1.72-.53-2.27-.59l-1.9-.21-1.18-.1-2.03-.13-2.31-.2c-1.51.18-2.98.15-4.5.08l-1.46-.06-1.76-.05c-2.08-.06-3.41.41-7.61.15l-1.5-.09c-.65-.04-1.35,0-2.03.06l-2.26.23c-.96.1-1.93-.11-2.77-.54-.61.63-3.7.48-4.25.36l-2.87-.65c-2.06-.47-2.03.93-3.32-.35-.37-.37-2.33.12-4.68-.17-3.59-.46-.7.05-4.4.26l-1.96.11-2.02.12-1.77.09c-2.72.15-5.46.16-8.19-.01l-3.16-.2-2.87-.18-6.79-.17c-.35,0-1.08-.17-1.44-.11-2.94.49-1.44-.5-5.4,0-1.03.13-1.9.08-2.93.03l-1.7-.07-5.46-.14c-.71-.02-1.7-.22-2.49-.34-3.75-.54-.36.58-3.98-.23-.71-.16-1.95-.71-2.68-.72l-10.19-.07-1.29.27-5.6.05h-1.49s-9.35-.03-9.35-.03l-1.25.27c-1.06.23-2.75,0-3.89.1l-2.36.23c-.53.05-1.25.26-1.78.35l-1.8.31c-.62.11-1.39.11-2.12.19-1.42.14-2.86.52-4.27.76l-1.53.26-3.65.62-3.34.13-2.31.29-2.29.24-1.99.17-4.24.21c-.88.04-1.97.07-2.73.07-1.5.85-2.26.05-4,.52-2.88.78-1,.14-4.31.86-.76.17-1.87.1-2.68.22l-2.28.34c-3.44.51-.61-.25-3.82.09-1.02.11-2.33-.03-3.31.14l-3.66.63c-2.01.35-1.67,0-4.39.36l-2.29.31-1.76.26-1.96.3-3.59.16-4.67.73-2,.26-2.33.28c-.78.09-2.04.15-2.17,1.27-.21,1.74.02,3.59.63,5.35.23.66,1.34,1.5,1.73,2.11l1.01,1.6c.13.2.62.51.86.56l1.85.44c1.66.4,1.83-.22,4.87.91.72.27,1.87,1.1,2.6.95l5.28-1.1c.31-.07.92-.11,1.33-.16,3.54-.5.77.31,3.91-.04.98-.11,2.05.39,5.21.08s3.32.5,4.67.58c2.49.14,4.87.11,7.33,0,.49-.02,1.08-.08,1.5-.03l2.3.3c1.02.13,1.94.3,2.94.49l2.21.42c.51.1,1.47.19,1.93.16l2.05-.12c1.6-.1,2.97-.5,4.48-.24l2.68.47c.53.09,1.44.28,1.94.29l4.84.08,1.2.22c-.08-.01,9.18.22,9.97.14l1.95-.19,2.41-.35,1.6-.11,2.34-.24c.87-.09,1.92-.09,2.81-.03l1.44.09c1.24.08,2.43.18,3.66.11l2.36-.13,2.06.28c.71.1,1.69-.08,2.48-.18l2.3-.27,2.57-.3,2.56-.29,2.94-.31c.31-.03.79.11,1.24.24.87.24,2.07.06,3.05.09l1.95.06c1.05.03,3.42.42,4.56.49,2.37.14,4.73.13,7.06-.04,1.1-.08,2.1-.11,3.16-.06l1.82.08,4.75.21c.71.03,1.42.09,2.09,0l2.58-.34c2.58-.34,2.55.35,5.5-.2.65-.12,1.56-.34,2.14-.36l4.84-.17c2.26-.08,1.06.4,4.32.61,1.6.11,3.27.14,4.82-.02l2.87-.29c1.11-.11,2.13-.15,3.24-.14,3.52.02,1.67-.57,4.59-.15.31.05.96-.08,1.39-.12,3.56-.33,3.25.42,5.16-.02,1.4.17,2.98.54,4.36.6l2.21.1,1.26-.04c.58.3,1.13.36,1.79.16,1.16-.36,2.4.04,3.45-.15l2.27-.4,8.54.04c.43,0,1.24.18,1.73.22l2.34.21c1.35.12,2.88.18,4.23.01l2.29-.28,1.96-.33c1.26-.21,2.49-.1,3.78,0l2.27.18c3.72.29,1.12.79,6.31.31,1.43-.13,3.18.11,4.49-.13l1.21-.23,1.91-.08c.64-.03,1.3-.01,1.95-.08,3.32-.35,4.16,1.18,10.01.64l1.83-.17,5.94-.04c.26,0,.92.15,1.16.17.8-.15,1.8-.16,2.64-.01l2.01.36,1.62.1,2.31.34c.39.06,1.02-.01,1.48-.02l5.12-.14c1.09-.03,2.61-.7,4.01-.4l3.69-.04,1.69-.07,2.25-.11,1.86-.09,1.58.08,1.89-.05c1.87-1.11.54.32,3.87-.28l1.43-.26c.83-.15,7.24.65,9.65-.43l1.24.42,2.21-.25,2.29-.26,2.88-.29,3.14-.3c.88-.08,3.85.12,6.22.01,3.03-.14-.46.29,2.9.13,1.14-.06,2.26-.05,3.37,0l1.53.07c.92.04,2.15.34,3.04.31,1.09-.04,1.94-.03,2.96,0l4.52.17h1.43c2.58-.03,5.12-.12,7.68.05,1.48.1,2.88.24,4.31,0l2.61.24c.86.08,2.02-.51,2.84-.46l2.53.13,1.79.03c1.5.02,2.96,0,4.5.16l2.65.29c.61.07,1.36.26,1.93.3l3.13.18c1.24.07,2.4.22,3.62.07.74-.09,1.41-.05,2.16-.05,1.01,0,2.27-.32,3.34-.38l2.85-.17,1.47-.1,2.59-.23,2.54-.2,2.62-.22c.72-.06,1.79.22,2.52.25l5.96.17c.61.02,1.21.05,1.81.01l3.37-.2,2.54-.28c2.05-.23,4.03-.13,6.06-.02l3.43.18c.26.01.79.12,1.15.17,2.65.38,5.78.52,8.34.2ZM316.62,445.95c1.25.03,2.44.05,3.72-.06l3.05-.26.91-.45c.63-.31,2.33-.06,3.14.03l1.54.17,2.32.26c3.87.44.87-.01,5,.14l1.3.05,1.1.14,6.5-.05c-2.42.02,4.92-.3,3.17-.16l1.94-.15c1.39-.11.53.18,3.17.04l1.05-.06,1.1-.12,6.72-.08,1.55-.24,5.94-.05c.44,0,1.39-.27,1.88-.34l1.79-.25,2.46-.35c.12-.02.46-.02.6-.02h1.28s.44,0,.44,0c1.32,0,3.17-.87,6.84-.29,1.71.27,3.05-.03,4.75-.27,2.26-.33,4.72-.04,7.03-.22l3.19-.26c.91-.07,1.93-.26,2.75-.28,1.02-.02,1.93-.06,2.95-.21l3.11-.44c1.72-.25.44.36,2.46.01l4.15-.72c1.88-.33,3.14-.23,4.43-.48,2.91-.56,2.36-.27,5.1-.89.66-.15,1.25-.23,1.86-.27l2.03-.12,1.76-.15,2.75-.24c2.78-.24.83.27,5.5-.07l2.75-.2,1.78-.24,2-.27,2.32-.31,2.85-.42c-.1.01,1.77.12,2.94.03,2.04-.15,2.28.24,2.82-.29l1.08-1.08c.37-.37,1.38-.73,1.93-.58,1.79.5.49,1.45,2.79,1.15l1.85-.24c.1-.01.37-.07.46-.09,2.61-.78.97.49,3.69.05.62-.1,1.23-.17,1.82-.18l3.77-.03c.54,0,1.7-.46,2.22-.41l2.03.22c3.28.35.27.54,3.99.26,3.06-.23,1.73-.72,3.93-.96l2.38-.26c.46-.05,1.45-.22,1.9-.31.61-.12.26-1.7.38-2.49l.4-2.69c.06-.43,0-1.17.04-1.7.09-1.22.06-2.34.04-3.58,0-.51.25-1.45.28-2.02l.16-3.14.18-2.31.22-2.27.12-5.17.05-2.01c.02-.73.48-1.85.63-2.71.05-.27-.02-.91,0-1.19l.23-3.84c.02-.28-.18-.93-.24-1.26-.58-2.93.53-.52-.09-4.69-.05-.32.14-1.12.16-1.47l.18-4.45c.07-1.76.02-1.47.07-2.67l.12-2.53c.03-.54.07-1.07.12-1.59.39-3.63-.5-.92.25-3.43-.05-.42-.16-1.09-.17-1.44l-.06-1.35c-.03-.72.16-1.01.21-2.55.07-2.44.13-1.13.18-2.48l.11-3.25c0-.21.58-.68.48-.85l-.37-.63s-.23-.43-.22-.49l.18-2.26.05-.51.29-2.95c.04-.38.32-.9.66-1.47l-.44-.95c-.09-.19.03-.6.18-.91.7-1.44-.46-1.24-.37-1.79l.34-2.14c.09-.57-.3-1.14-.3-1.58l.04-4.26.25-.67v-4.91c0-.98.56-.76.58-2.01l.04-2.13c.06-2.7.27-2.74.29-5.27l.02-2.46.04-1.39s.35-.33.38-.36l-.18-.29-.28-.42c-.03-.05-.16-.43-.16-.49l.06-1.38c0,.08-.3-.74-.25-1.01l.09-.49.11-.51c.01-.06.04-.32.05-.43l.27-3.99.1-3.18c0-.13.03-.39.05-.53.66-4.37-.55-3.02.3-4.58.63-1.16-.55-.37.2-4.57.19-1.06.28-2.07.27-3.14-.03-3.35.38-1.68.77-5.37l.1-.96.34-3.68.32-3.07c.37-3.54.81-2.53.78-6.1,0-.5.33-1.28.41-1.79.22-1.4.11-2.95.26-4.37l.19-1.82c.06-.58,0-1.58-.14-2.12l-.59-2.28c-.23-.88.28-.61.08-1.79-.06-.36-.22-1.1-.22-1.46v-3.11c.02-1.04-.63-.42-.49-1.71l.23-2.07c.25-2.21.62-2.18-.35-3.61-.04-.06-.32-.37-.37-.36l-1.61.21c-.83.11-1.99.12-2.78,0l-2.31-.32c-.28-.04-.66-.06-1.06-.07-1.97-.04-.72,4.26-.7,4.18l-.45,2.11c-.34,1.6.49,1.3.1,2.32l-1.2.62c-.02.14-.05.36-.04.3l.53.28s.17.28.19.34l.17.46.15.41.13.35c-.32,1.17-.47,2.34-.45,3.63v.6c.03,1.34-.2.99-.21,1.46v.49s-.02.59-.02.59l-.27,4c-.01.15-.04.48-.04.56.57.86.57,1.55.21,2.48-1.05,2.7.01,2.01-.34,3.16-.19.62-.62,1.96-.65,2.61l-.07,1.77c-.07,1.74-.76,1.53.14,4.41.27.86.6,1.83.62,2.6l.03,1.3c.04,1.59.05,3.16-.03,4.75-.02.48-.1,1.12-.03,1.49l.52,2.55c.06.32.06.94-.06,1.19-.92,1.77.35-.23-.27,3.46-.09.54-.46,1.38-.79,1.7l-.35.34c-.14.14-.62.61-.74.46l-.56-.7s-.39-.23-.39-.28l-.11-.7c-.35-2.24-.13.16-.58-2.58-.64-3.88-1.03-2.18-.96-4.28l.06-1.77c.01-.33.25-1.01.37-1.32l.34-.92c.08-.22-.01-.87-.07-1.11l-.34-1.44c-.02-.09-.03-.53-.06-.61-1.45-4.06.52-4.14.37-4.45l-.4-.81c-.03-.06-.14-.34-.17-.41l-.12-.46s-.04-.31-.02-.36l.21-.56.18-.48c.2-.55.27-1.31.19-1.86-.29-2.02.88-.05.26-3.98-.17-1.09-.14-2.35-.04-3.41.42-4.3-.37-.98.09-4.16.31-2.13-.49-.7.02-2.74l.59-2.36c.17-.7.05-1.93.17-2.72.25-1.59.18-3.01-.01-4.59l-.25-2.07-.21-1.88-.18-2.14c-.03-.3-.46-.79-.75-.79l-5.02.02c-.57,0-1.6.38-1.98.7l.87,2.18c.36.89-.73.85-.49,1.91.09.41.32,1.36.28,1.79l-.23,2.57c-.75,8.28-1.89,3.06-1.59,6.55l.2,2.29c.15,1.79-.7,3.35-.72,4.01l-.06,1.94c-.04,1.49-.02,1.99.5,2.46l.75.67s.58.95-.07,1.49c-1.17.97-2.24.49-2.93.45l-.83-.05c-.05,0-.34-.14-.38-.17l-.33-.27c-.24-.2-.39-.44-.3-.75l.13-.44c.02-.06.05-.34.03-.38l-.2-.38-.22-.42c-.04-.08.17-.24.28-.34l.41-.34c1.03-.85-.4-.76.66-3.73l.85-2.37c.42-1.17.25-1.31-.1-1.72-.1-.11-.23-.27-.25-.29l-.22-1.35c-.1-.58-.28-1.4-.19-1.82l.13-.58.28-2.26.16-3.06c.09-1.82,1.01-3.09.39-3.91-1.31-1.75-.12-1.96-1.47-4.13l-.92.38c-1.82.76-3.47-.16-4.16-.12-1.11.07-2.23-.01-3.36-.13-4.54-.48-4.19.68-8.28,0-.59-.1-1.2-.22-1.74-.26l-2.51-.21c-.87-.07-1.71-.14-2.57-.15l-1.44-.02c-1.51-.02-3.02-.04-4.5.08-.87.07-1.63.13-2.46.08-1.27-.08-1.81.9-3.62.17-2.11-.84-1.17-.02-3.14-.25l-2.84-.33c-2.05-.24-8.7-.57-10.24-.28l-2.38.45c-2.86.54-5.84.15-8.78-.06l-4.3-.31c-1.55-.11-3.01-.13-4.56.05l-2.88.33-2.02.28c-.62.09-1.39.25-1.97.28l-3.03.16-1.9.11c-4.98.29-4.25-.95-6.45-.51-1.23.24-1.54-.45-3.71-.51l-3.77-.11c-.57-.02-1.12-.01-1.71,0l-6.26.17c-1.25.03-2.37.17-3.65.12-1.41-.05-.27.48-1.8.16-.69-.15-1.43-.34-1.94-.36l-2.88-.09c-.36-.01-.78,0-1.17,0l-4.24.16c-.63.02-1.2.04-1.81.02l-.76-.02-1.47-.04-4.89-.12-.79-.04-2.06-.12-2.54-.31c-3.65-.44-7.21-.37-10.86.01l-2.83.3-2.24.15-1.49.17c-.78-.03-1.53-.06-2.28-.02l-1.72.1-2.81.18c-.54.03-1.05.04-1.57.02l-1.9-.04c-.78-.02-1.54.03-2.34.08l-3.37.22-2.6.2c-2.8.21.07-.68-4.19.09s-2.71-.73-5.12.22c-.1.04-.46.1-.56.1l-1.08.04c-.8.03-1.63,0-2.46-.03l-2.34-.08-2.78.45-5.73.09-.97.02-3.06.07c-.8.02-1.91-.13-2.8-.2l-2.31-.2-2.6-.23c-.88-.08-1.89-.07-2.76.04-3.93.48-.32-.41-5.21.27-1.22.17-2.05-.18-3.23-.5-1.27-.35-3.03-.03-4.39-.23-.78-.11-1.89-.38-2.48-.31l-3.59.47c-3.9.51-1.26.63-6.56.39l-3.65-.16c-1.7-.08-3.18-.29-4.85-.21l-1.84.08-5.6.21c-.84.03-1.65.11-2.45.07l-1.58-.06-1.22-.05-1.69-.08-2.28-.21c-1.71-.16-3.41-.15-5.12-.03l-1.41.1c-.64.04-1.22-.05-1.97-.23-.59-.14-1.7.45-2.34.54l-1.7.23c-.42.06-.99,0-1.51-.02l-3.92-.19c-.85-.04-.84-.94-4.37-.54-.59.07-1.82-.45-2.46-.47l-3.44-.09c-.26,0-.88-.12-1.12-.06-3.98.89-1.73-.13-6.12.83-.78.17-1.89.13-2.78.21-3.07.28-3.9-.65-4.31-.43-.29.16-1.08.48-1.42.43l-3.49-.53c-1.51-.23-3.19-.16-4.78-.06-3.43.21-3.76,1.41-7.2.51-.63.06-1.85.52-2.48.53-2.37.07-4.54.07-6.82-.07-.93-.06-1.76-.03-2.7,0-4.15.16-8.27.15-12.43.01l-2.09-.07-1.95-.34-2.01-.04c-2.5-.05-4.95-.08-7.42.06l-3.19.19c-.68.04-1.18.17-1.87.42-.89.32-2.2-.04-3.19.03l-2.02.13-2.41-.06-2.22.13c-.52-.14-1.19-.34-1.62-.36l-2.17-.14c-.74-.05-2.14.37-2.99.49l-.68-.81-1.02.57c-1.08.6-2.2.78-3.48.78-2.33-.01-3.8.62-5.85.1-.8-.2-1.15-.2-1.95-.2l-10.41.07c-.3,0-.99-.21-1.25-.24l-2.29-.27c-1.04-.12-2.27-.05-3.33.01l-1.53.1c-1.44.09-2.78.05-4.29,0-2.04-.06-1.92.7-3.74-.52-.11-.07-.15.55-.02.64,2.02,1.53.05,4.55-.21,7.39l-.18,2.01-.14,3.98-.67,1.76-.62,2.07.1,1.34v1.79c0,.59-.52,1.88-.42,2.51l.77,4.54c.1.56.08,1.23.12,1.78l.14,1.95c.09,1.26.21,2.69-.02,3.91l-.65,3.44.2,2.02-.23,2.63-.19,4.2c-.02.5-.12,1.1-.1,1.53l.05,1.78c.02.53-.13,1.48-.22,2.15-.65,4.54.54,1.51-.15,7.16-.07.6-.18,1.5-.16,1.96l.11,2.64c.03.71-.06,1.6-.16,2.31l-.25,1.81.32,2.63c.17,1.37-.2,2.46,0,3.83.53,3.47-.43,2.3-.27,4.82.1,1.62-.12,3.24-.1,4.83l.03,2.52.03,2.07c0,.49.04,1.12.09,1.71l.21,2.31c.14,1.58.1,3.23.02,4.82l-.11,2.31c-.05.94-.36,1.96-.54,3.01-.11.65.04,1.67.04,2.38-.03,2.67.24,1.86.04,4.28l-.22,2.64c-.05.59-.25,1.56-.34,2.05.06,1.55-.03,2.93-.4,4.55-.28,1.22.08,2.9-.29,4.01-.26.77-.34,1.16-.21,1.97.67,4.25-.73,3.03-.35,4.54l.42,1.64c-.09.72-.12,1.38,0,2.03.77,3.77-.2,2.72.75,5.53-.02.22-.11.82-.11,1.04l-.07,4.27-.23,1.22-.07,6.86c0,.22-.53.87-.41,1.01,1.05,1.3-.11,1.01.4,3.55.17.88-.49.12-.36,1.45l.21,2.19.23,2.31.21,2.01-.19,1.65.38,2.55c.36,2.44-.8,3.18-.63,4.81l.25,2.43c.1.97-1.17,5.78.45,9.74.37.9.93-.74,3.42-.26l3.42.66c.86.17,4.23-1.26,6.39-.89l2.02.35c1.88.32,4.4.5,6.27.32l1.01-.1,1.62.05c.67.02,1.49.05,2.19.14l2.01.27c.72.1,1.48.24,2.18.39l2.35.5c.65.14,1.57.22,2.09.39l2,.64c.88.28,1.83.57,2.73.68l2.08.27c.85.11,1.68.1,2.59.19l2.57.25,26.47.1,2.12.03,4.79-.14,1.22-.19,3.4-.1,2.49-.5,2.64-.21,5.13-.14,2.55-.48,4.28-.08,1.2-.22,3.65-.07,1.35-.5c2.21.69,1.16-.17,3.78-.3l4.9-.24,2.25-.27,4.31-.15c.57-.02,1.14-.03,1.7,0l2.85.16,2.3.19,2.29.21,1.96.19c.57.05,1.19,0,1.79-.01l4.81-.16,1.76-.02,2.2-.44,5.2-.08,2.53-.5c1.74-.34,3.42-.26,5.19,0l3.35.51,3.22.22c.66.04,1.62.33,2.24.33h8.6c.61,0,1.58-.2,2.23-.31l2.02-.34c.8.03,1.56.09,2.36-.03l3.7-.57c2.7-.41,5.46-.13,8.22-.11h1.94c1.17.02,2.3.1,3.51.16l4.24.22c1.6.08,3.02.17,4.63,0,.83-.09,2,0,2.79-.15l1.22-.23,9.34.08,3.46.13,2.02.06c1.88.06,1.76.25,4.05.37l1.94.1c.4.02,1.23-.12,1.63-.07.84.1,1.58.06,2.43.01l4.2-.23c1.5-.08,2.83-.2,4.35.02,4.62.66,1.85-.41,4.48-.25,3.41.2,2.4.43,5.76.66l2.3.16,3.15.16c.24.01.86.12,1.11.15,2.64-.46,2.12-.05,5.36.02ZM464.58,479.77l1.67.33c2.22-.8,3.3-.01,5.72-1.04.92-.39,1.69-.7,2.6-.85l2.22-.37c2.05-.34,3.97-.08,5.96.56,4.13,1.34,1.54,1.83,3.76,2.27.77.15,1.96.33,2.49.07l1.62-.8c1.04-.52.36-2.13.41-3.01.04-.65-.08-1.04-.25-1.7-.27-1.08-.19-2.84-.17-4.04l.57-1.23c-.16-.83-.74-2.04-.76-2.83l-.15-5.42c-.01-.47-.02-.95,0-1.42l.14-4.53.04-2.04.04-1.67c.02-.93.05-1.77-.04-2.68l-.26-2.75c-.09-.91-.11-1.77,0-2.67l.26-2.19c.09-.76.19-1.68-.07-2.3-4.49-.29-3.62.32-6.57.71l-2.43.32c-3.43.45-1.61-.45-6.23-.02-1.14.11-2.57-.03-3.65.15l-1.24.21-6.5.1-2.35.22c-1.43.13-.43,1.3-.94,3.29-1.04,4.06.19,2.5-.83,4.86-.55,1.27.1,2.61.27,3.91.14,1.06.17,2.23.22,3.32l.1,2.04.08,2.03c.03.76.13,1.51.22,2.32l-.13,1.65-.12,1.51c-.06.77.14,2.04-.3,2.54l-.58.65c-.39.44.76.03.83,1.63l.1,2.25.09,2.02c.01.32-.06.97.05,1.24,1.05,2.66-.27,1.89,1.09,4.21,1.04-.57,2.08-1.01,3-.83ZM72.84,477.99c3.31,1.36,2.5.43,5.68,1.56h.8c.42.41,1.58.7,2.03.12.62-.81.72-1.82.77-2.76l.05-.92c-.21-1.37-.18-2.65-.02-4.03l.41-3.49.17-2.82.35-2.51.26-2.31.26-2.3.14-3.13c.02-.51.2-1.45.34-1.88l.73-2.26-4.19-.89-1.47-.4-2.26-.4-2.91-.55c-.46-.09-1.19-.05-1.72-.03l-1.77.06c-.91.03-1.89.09-2.78.03l-1.45-.1-2.33-.16c-1.04-.07-2.09-.28-3.2-.46-3.01-.49-2.48.39-4.48.79-3.9.79-4.4-.5-5.42,1.1l-1.01,1.57c.11.67.58,1.98.6,2.67l.06,1.84-.37,1.56.54,1.8c.15.49.15,1.35.04,1.9-.5,2.66.9,1.37-.39,3.56.1.2.44.86.47,1.13l.29,2.36c.28,2.31-1.65,2.77.51,5.77.31.43.39,1.18.27,1.67l-.38,1.6,1.27,1.3.18,1.29,1.86-.7c.51-.19,1.16-.39,1.71-.49l2.49-.43c2.57,1.02,2.18.2,4.75.12l1.71-.06c.84-.03,2.01-.34,2.77-.58,1.7.45,2.18-1.14,4.62-.14Z"/>
      </g>
      <g>
        <path d="M413.31,205.93c-.41.07-.61.75-.79,1.44l-2.42-.79c-.48-.16-1.02-1.25-1.01-1.78l.04-2.08.17-5.66c.02-.56.14-1.32,0-1.74l-.45-1.38,1.27-.57,1.75-2.02c.65-.06,1.84-.27,2.39-.14l1.83.41c2.26.51,3.11,1.61,3.44,3.68l.49,3.1c.08.48-1.17,4.37-3.19,5.35-2.84,1.37-1.2,1.8-3.54,2.18ZM415.31,199.12c.74-1.53-.89-.83-.51-2.2.15-.53.02-1.15-.25-1.42l-1.24-1.28-.1,3c-.04,1.42-1.06.01.17,2.96l.3.94,1.09-.88.54-1.12Z"/>
        <path d="M379.16,210.88c-1.09-.47-2-.59-3.07-.55l-4.7.17c-.3.17-1,.77-1.33.72l-1.99-.3.25-1.99c.13-1.09,1.37-1.53,2.21-1.81l1.62-.53c1.19.12,2.48.16,3.69-.09,3.02-.63,1.19-1.11,4.29.21,2.12-.91,6.16-.92,7.5,1.02.28.4.23,1.57.07,2.01l-.61,1.67-3.08-.89c-.74-.21-1.94.02-2.76.12l-2.08.25Z"/>
        <path d="M384.66,188.38c.35.44-.28-.14-1.42,1.55-.63.94-1.91,1.33-3.11,1.4-.64-2.5-.86-1.98-.28-4.25-.89-.7-.82-1.69-.15-2.49.2-1.18,1.05-2.56,2.43-2.69,1.1-.1,1.98,1.16,2.08,2.05.03.26.28.82.39,1.1-.62,1.39-.93,2.09.06,3.33Z"/>
        <path d="M370.9,192.01l-.7-1.99c-.98-2.79-.52.14-.3-3.91.05-.92.84-1.89,1.47-2.63l.64-.74c.18-.21,1.02.11,1.22.32,1.2,1.18.17,2.03.73,3.24,1.63,3.55-.07,2.5-.12,3.69-.05,1.13-1.37,2.79-2.94,2.03Z"/>
      </g>
    </g>
  </g>
</svg>