<?xml version="1.0" encoding="UTF-8"?>
<svg id="Layer_1" xmlns="http://www.w3.org/2000/svg" version="1.1" viewBox="0 0 739.36 439.12">
  <!-- Generator: Adobe Illustrator 30.2.1, SVG Export Plug-In . SVG Version: 2.1.1 Build 1)  -->
  <g id="OlqZrd.tif">
    <g>
      <path d="M709.15,160c-.55.2-2.07-.28-2.45-.74-.44-.54.58-1.6,1.2-1.82,2.06-.7,3.86-1.48,5.75-2.47.27-.14.95-.34,1.23-.37.35-.04.95.68,1.06,1.13-2.36,2.46-3.64,3.11-6.8,4.27Z"/>
      <g>
        <path d="M739.36,146.29v1.16c-.72,1.19-6.55,5.24-7.3,3.29-.5-1.3.53-2.45,1.83-2.81,2.08-.59,4.13-1.99,5.46-1.63Z"/>
        <g>
          <path d="M626.05,187.74c-.15.26-3.13,4.01-4.04,3.93l-.89-.93c1.73-1.62,3.21-3.47,4.13-5.29l2.51-4.99c.45-.05,1.13-.03,1.43.06.84.25-1.05,3.67-1.46,4.37l-1.67,2.86Z"/>
          <path d="M654.26,145.99c2.38.49,2.25,7.91,0,7.41-1.72-.38-1.39-5.04-1.23-6.43.04-.38.89-1.05,1.22-.98Z"/>
          <path d="M647.23,155.43c1.07,2.38.04,5.57-1.53,5.52-.54-.02-1.19-1.04-1.12-1.6l.35-3.02c.05-.46.32-1.02.62-1.27s1.52,0,1.68.37Z"/>
          <path d="M634.6,168.32c-.08.59-.57,1.89-.84,2.46-.13.28-1.13.25-1.33.01s-.48-1.03-.4-1.38l1.07-4.54c.09-.37.72-1.02,1.08-1.03.44,0,.92.97.85,1.44l-.43,3.03Z"/>
          <path d="M645.87,141.56c-1.68-.75-2.62-4.27-1.07-5.08.29-.15,1.13-.06,1.3.18.73,1,.85,3.12-.23,4.9Z"/>
          <path d="M657.05,131.02c-1.67-.09-2.32-.99-2.34-2.57,0-.75.44-1.98,1.19-2.13.37-.08,1.29.37,1.35.72.12.7.2,3.03-.2,3.98Z"/>
          <path d="M656.98,109.43c.05.28-.61.92-.89.88-.36-.04-1.29-.38-1.41-.71-.23-.67-.24-1.78-.21-2.65.61-.03,1.75.04,1.96.45.18.35.45,1.45.55,2.03Z"/>
        </g>
        <g>
          <path d="M561.29,0l.71.38c.09.05.54.01.76.01h.77s.75-.02.75-.02h.74s.75-.01.75-.01h.79s.69.02.69.02l.6.15.59.15c.89.22,1.17-.02,1.4,0l3.78.33,3.69.41,3.03.34c.89.1,1.88.16,2.69.31l3.18.58,1.83.23c2.37.29,4.61,1.09,6.95,1.74l2.88.81,3.53,1.01,2.26.7,4.34,1.37,3.01.99c-.86-.28,3.66,1.65,3.14,1.38l5.98,3,2.5,1.25,2.15,1.12c1.31.68,2.56,1.35,3.78,2.12l1.84,1.16,3.39,2.24c.87.57,1.7,1.24,2.53,1.91,5.21,4.22,3.65,2.41,8.44,7.19l.76.76,1.15,1.42c.04.05.19.49.23.54l.74,1.07c.04.06.69.15.73.2l1.79,2.14,2.07,2.47c.34.41.83,1.22,1.18,1.72l2.65,3.72,2.33,3.27c.78,1.09,1.43,2.35,2.09,3.53l1.08,1.96c1.37,2.48-.07,1.86.89,3.11,2.66,3.45,3.03,6.31,4.52,10.75l.19.57.19.55c.05.16.19.51.21.61l1,4.91c.02.1.13.43.19.62.62,1.86.77,3.63,1.15,5.59l.51,2.62.15,1.9c.07.83.14,1.8.25,2.53l.51,3.37c.15.97.2,2.01.27,3.05l.23,3.77.24,7.37c.04,1.33.32,2.75.17,4.01-.09.76-.18,1.42-.2,2.03l-.12,4.47-.62,3.68-.17,6.34c-.02.83-.29,2.02-.37,2.92l-.33,3.42c-.29,2.98-.17.21-.35,2.66-.28,3.81-.42,5.67-1.32,9.45l-.49,2.03-.37,1.54-.6,2.48-.95,4.18c-.22.96-.45,1.91-.78,2.81l-1.53,4.11c-.53,1.41-1.11,2.87-1.77,4.2l-2.36,4.74c-.4.81-.78,1.68-1.15,2.55-1.86,4.45-1.38,1.53-3.32,5.7l-.49,1.05c-.07.15.22.26.5.23l7.83-3.52.51-.24c.1-.05.31-.13.49-.19l.61-.23c2.19-.84.87-.54,4.21-1.74l2.65-.96c1.56-.56,3.31-.97,4.8-1.64,3.85-1.74,8.75-4.79,11.67-5.78l8.43-2.85c.65-.22,2.08-.4,2.89-.4.37,0,.9,1.1.75,1.45-.02.06-.35.41-.4.44l-.47.25-.5.27c-3.02,1.62-2.27.89-6.19,2.26l-.63.22-.55.2-2.91,1.12c-.57.22-1.47.42-1.9.67l-4.34,2.44c-4.42,2.48-3.65,1.58-6.87,2.76l-1.91.7-4.41,1.6-2.13,1.23-4.87,1.51c-1.63.51-3.09,1.55-4.57,2.45-3.48,2.1-3.23,1.45-5.92,2.62l-3.95,1.71-1.59.69c-2.4,1.04-.48,1.06-3.16,1.97-.61.21-1.45.46-1.86.69l-3.44,1.86c-4.51,2.44-1.72,1.35-6.84,3.67l-2.18.99-4.27,1.79-3.79,1.51-3.13,1.53c-.79.38-1.84.59-2.47.91l-1.22.62-2.06.99-4.04,1.99-3.77,2.16c-2.37,1.36-.46-.27-2.82,1.22-.66.41-1.26.73-1.95,1.08l-2.72,1.37c-.32.16-.98.65-1.35.91-1.45,1.01-.66-.15-2.76.9l-2,1-3.31,1.54c-1.41.65-2.82,1.12-4.25,1.69l-3.42,1.36-2.96,1.16-3.76,1.45-2.44.89c-.87.32-1.68.57-2.48.89l-2.41.99c-1.39.57-2.86,1.13-4.2,1.79l-3.18,1.57c-.37.18-1.1.71-1.47.81l-2.39.64c-.63.17-1.44.57-2.06.83l-3.25,1.36c-3.39,1.42-1.85-.25-3.9,1.14l-.98.66c-2.08,1.41-.76,1.64-1.63,1.63-.12,0-.54-.11-.65-.09l-1.48.26-.64.11.18.26.48.29c.2.12.32.9.12,1.03-.55.36-1.81-.06-2.59-.6-.42-.28-1.37.13-1.92.46l-3.79,2.28c-4.04,2.42-5.05,1.6-5.46,1.9-.32.24-.96.76-1.26.91l-1.73.86-1.79.87c-2.91,1.41-2.46,1.67-6.34,3.29l-2.4,1.01c-2.19.92-4.32,1.88-6.57,2.69-3.18,1.15-4.2,1.82-7.66,3.25l-2.64,1.1-4.75,1.97c-1.07.45-2.17.83-3.28,1.2l-2.23.74c-4.82,1.6-1.51,1.26-5.82,3.12l-7,3.02c-3.26,2.65-1.3.15-5.76,3.11-2.85,1.89-2.85,1.67-5.67,2.9-.35.15-1.06.73-1.4.91l-4.63,2.41c-.74.39-1.51.77-2.26,1.11l-3.35,1.53-4.62,2.1-3.12,1.32-8.03,3.85c-3.36,1.61-6.35,2.1-9.17,3.48l-10.5,5.17-2.71,1-3.02,1.5c-1,.5-1.99.97-3.02,1.42l-2.12.91-8.94,4.04-4.67,2.01-6.82,2.88-3.66,1.59-4.34,1.99-3.02,1.46-6.79,3.26-3.95,1.66-8.45,3.81-2.99,1.48-4.22,1.78-4.93,2.08-2.15.88-5.55,2.25-4.32,1.96-4.44,1.95-3.65,1.57-2.31,1.02-4.6,2.08-6.81,3.26c-1.32.63-2.66,1.34-3.99,1.86l-3.75,1.47-2.68,1.05-2.58,1.15-2.1.94-2.54,1.15-4.87,2.23c-2.72,1.25-4.28,1.43-7.98,3.16l-3.05,1.43-3.27,1.6c-2.02.99-4.02,1.94-6.11,2.86l-3.4,1.49-3.15,1.38c-1.34.59-3.73,2.54-5.52,3.16-1.36.47-2.16.89-3.19,1.8-1.83,1.61-4.08,2.65-6.23,3.83l-6.01,3.31-2.15,1.19-3.65,1.94-2.23,1.18c-1.82.97-3.56,1.95-5.49,2.68l-2.46.93-2.87,1.2-5.98,2.63-4.79,2.46c-1.51.77-2.94,1.25-4.45,1.93l-3.91,1.75c-.82.37-2.24.61-3.22.86l-4.2,1.07c-6.26,1.59-5.76,2.15-10.24,3.85l-2.68,1.02c-.95.36-1.93.79-2.82,1.25l-6.95,3.52c-.49.25-1.59.59-2.18.75l-8.57,2.33c-.57.15-1.42.44-1.97.66l-5.95,2.3-4.42,1.54-7.97,2.79-2.5.87-3.34,1.08-4.01,1.22-5.63,2.13c-.86.33-1.71.78-2.59,1.18-2.49,1.14-5.01,2.17-7.59,3.14l-11.65,4.38-4.03,1.6c-2.91,1.16-4.9,1.95-8.25,2.14l-2.58.14c-.85.05-2.11.25-2.79.48l-2.31.77c-1.09.36-2.37.74-3.49.57-.52-.08-1.26-1.25-1.17-1.74.25-1.28,1.38-.78,3.48-1.9.1-.05.4-.18.48-.2l2.57-.5c.93-.18,1.93-.36,2.87-.45l3.11-.31c2.14-.22,4.42-.68,6.37-1.48l5.56-2.28,1.9-.74,7.84-2.96,2.91-1.13,3.73-1.54,3.32-1.49c.88-.4,1.78-.71,2.68-1.04l6-2.2c.68-.25,1.52-.44,2.28-.66,2.1-.61,4.13-1.29,6.15-2.04l6.77-2.51,2.82-.83,4.56-1.79,6.39-2.23c.86-.3,1.88-.67,2.59-1l.87-5.56.31-2.61.38-3.09c.4-3.28-.29-1.53-.04-3.37l.14-1.03c.04-.27-1.87-.31-1.44-1.75l.78-2.64-.45-.1-.66.14-.62.13-.61.13-2,.54c-.39.11-.76.6-2.4.67l-.74.03-.65.03-.67.11-.56.08c-.06,0-.43-.06-.49-.09l-.48-.26c-.06-.03-.35-.33-.36-.4l-.15-.63c-.21-.88.88-1.87.8-1.65l1.87-4.87.03-.91.21-.6c1.26-3.56-.49-.48,1.43-5.51.16-.42.3-.98.43-1.42l.79-2.6c.2-.65.38-1.4.55-2.12l2.11-8.73.66-2.11.62-2.38,1-3.5c.77-2.71.96-5.8,2.02-9.28l1.72-5.69,1.05-3.64c.07-.26.69-.99.71-1.25.06-.77.28-2.38.51-3.11l.82-2.63c.08-.25,1.56-5.61.55-5.2l-4.82,1.95c-.43.18-1.45-.53-1.46-.97,0-.48.18-1.38.38-1.83l1.97-4.39,2.25-5.64c.33-.82.33-1.73.43-2.69.16-1.48,1.1-3.14,1.46-4.64.95-4,1.01-6.51,2.36-9.57l.37-.84c.07-.16-.65-.11-.82-.04l-2.82,1.28-2.53,1.22c-2.26,1.09-4.66,1.77-7.05,2.72-1.92.76-3.75,1.94-5.64,2.86l-3.54,1.71c-1.39.67-2.73,1.43-4.03,2.26-3.87,2.48-4.73,1.87-8.71,3.95l-2.23,1.16c-1.99,1.04-3.84,2.43-5.9,3.27-4.07,1.66-6.27,2.78-10.06,4.92l-2.67,1.51c-1.5.84-3.26,1.23-4.86,1.85l-9.33,3.6-3.2,1.24-3.37,1.25-3.1,1.32-4.51,1.74c-1.44.55-2.95,1.07-4.37,1.48l-5.32,1.53c-1.53.44-3.24.78-4.67,1.35l-5.64,2.24c-.52.21-1.47.72-1.93.84l-5.99,1.64-2.29.62-3.92.87c-1.27.28-2.51.46-3.75.79-1.56.41-3.04.77-4.61.99l-2.3.33-2.96.42c-.98.14-2.05.08-3.08.14-2.87.17-8.36,1.78-12.27,1.17l-3.77-.59c-1.63-.25-3.26-.42-4.57-1.42s-2.72-1.84-3.75-2.97l-2.67-2.93c-.6-.66-1.19-1.32-1.67-2.05l-2.39-3.6c-1.83-2.75-2.6-4.44-3.58-7.61-.15-.5-.97-5.77-.96-6.33.07-3.04,1.49-5.78,2.5-8.53.78-2.12,2.04-5.17,3.17-6.92l2.22-3.42c.28-.43.79-.98,1.15-1.42l2.36-2.88,1.88-2.21,1.9-2.2c1.65-1.91,4.83-4.74,6.88-6.15l4.2-2.88c3.17-2.17,4.11-3.1,7.48-5.19l9.18-5.71,1.64-.98,2.31-1.36,2.76-1.36,3.12-1.4,2.94-1.57,3.64-1.95c1.85-.99,4.51-1.68,5.97-2.53l4.28-2.49c1.1-.64,2.17-1.37,3.31-1.88l3.12-1.39,5.37-2.4,2.06-.97c1.29-.6,2.53-1.23,3.84-1.73l4.32-1.67,2.38-.99c2.66-1.1,5.09-2.2,7.91-2.89,2.12-.51,4.19-1.33,6.17-2.27l2.8-1.33c1.25-.6,2.59-1.14,3.91-1.63l4.06-1.5,2.5-.95c2.48-.94,4.93-2.26,7.52-2.8l3.04-.64c.59-.13,1.26-.27,1.84-.45l4.9-1.48,2.6-.74c1.05-.3,2.25-.55,3.31-.72l2.97-.48c1.03-.16,2-.42,3.02-.68,2.5-.64,4.98-1.05,7.54-1.53l1.96-.37,3.09-.83c1.04-.28,2.14-.39,3.22-.56l3.43-.54c4.12-.65,2.2-.78,5.69-1.4l4.46-.79c.92-.16,1.95-.3,2.9-.41l2.99-.36,4.71-.57,1.89-3.31.67-1.62,1.68-2.74,3.05-5.17,3.16-5.78c.49-.9.95-1.81,1.31-2.82l.97-2.71,1.65-3.62c.47-1.03,1.08-2.11,1.63-3.13l1.1-2.03c.48-.89,1.78-1.66,2.72-2.35,1.06-.77,2.02-1.02,3.33-1.2l4.15-.59c.93-.13,2.06-.27,2.97-.32l5.64-.3c1.63-.09,3.15-.11,4.81.03l2.96.25c3,.26,7.01,2.18,9.18,3.99.41.34.99,1.39,1.31,1.81.83,1.08.79,2.42.85,3.71l.23,4.59c.06,1.18-.4,2.69-.46,3.81-.08,1.45-.02,2.89-.28,4.34l-1.01,5.42c-.2,1.06-.36,2.13-.47,3.2l-.33,3.04c-.08.74-.61,1.99-1.17,2.42-4.38-.83-5.74-.75-10.04-.64-.33,0-.82,1.1-.92,1.45l-1.25,4.31c-.37,1.28-.89,5.1-.27,4.98.15-.03.6-.12.76-.17l2.21-.71c1.09-.35,2.16-.76,3.19-1.21l2.11-.92c1.47-.64,2.84-1.35,4.27-2.1,2.69-1.41,5.34-2.61,8.11-3.8l5.97-2.55,3.09-1.4c3.71-1.69,4.14-1.2,7.41-3.03.96-.54,2.22-1.21,3.27-1.52l7.29-2.17c.55-.16,1.69-.48,2.18-.79l4.34-2.74c1.09-.69,2.14,2.17,2.99,1.84,1.36-.52,3.82-1.44,5.12-2.17s2.16-1.48,3.67-1.05c.2.45.5,1.14.62,1.51l.83,2.5c1.28-1.17,2.46-2.12,3.87-2.48l2.74-.71,3.31-1.07c1.33-.43,2.56-.9,3.81-1.43l2.98-1.28c.97-.41,1.99-1.08,3.01-1.42l5.12-1.71,3.06-1.32,3.01-1.08,3.04-1.09c1.2-.43,2.42-1.05,3.67-1.53l6.22-2.38c1.83-.7,3.49-1.46,5.39-2.04,3.04-.92,3.57-1.43,6.69-2.51l4.15-1.45c.94-.33,1.87-.91,2.85-1.24l4.82-1.61,2.71-1.33c1.51-.74,2.99-1.21,4.55-1.79,2.35-.88,5.04-2.46,5.22-2.53,2.89-1.12,5.72-1.97,8.66-2.91l3.09-.99,2.36-.76c1.14-.37,2.32-.82,3.45-1.32l4.75-2.07c-.37-1.15-.66-2.13-.79-3.09l-.36-2.65c-.64-4.73-.16-8.92-.27-9.6-.23-1.33-.51-2.65-.24-3.97l.86-4.17.52-1.98.63-4.15.33-2.72c.2-1.64.58-3.28,1.05-4.88l1.17-4.02,1.14-4.59,1.48-5.24c.24-.86.62-1.84.94-2.71l.87-2.34,1.01-3.12.59-1.77,1.02-2.75c.37-1,.84-2.14,1.32-3.07l1.28-2.49,2.19-4.04c2.33-4.29,3.54-5.9,6.34-9.71l1.74-2.36c2.44-3.32,1.18-1.14,3.65-4.56.9-1.25,1.88-2.27,2.91-3.43,2.25-2.54,2.94-3.84,5.19-6.35l1.6-1.79,3.99-4.17,1.03-1.35,9.07-9.04c.36-.36,1.01-.88,1.41-1.2l4.54-3.68,8.01-6.5c1.38-1.12,2.74-2.24,4.18-3.26l2.42-1.7,3.57-2.44c.72-.49,1.62-.83,2.42-1.32l4.35-2.65,4.9-2.52,2.48-1.22,1.84-.91,2.74-1.34c.8-.39,1.64-.8,2.45-1.13l2.65-1.1,2.63-1.09,4.02-1.34c.63-.21,1.38-.61,2.02-.88l5.03-2.13,2.26-1.06c1.21-.57,2.51-1.02,3.79-1.4l2.61-.76,5.72-1.69c3.22-.95,6.51-1.48,9.88-2.02l7.62-1.21,2.26.04,3.03-.43,2.63-.37c.67-.09,1.36-.25,1.81-.44h8.2ZM543.32,230.01l3.89-1.59,2.37-.94,6.46-2.49,2.11-.88,3.71-1.56,3.03-1.37,6.43-2.54,2.72-1.03,5.08-2.03,8.37-3.25c2.29-.89,4.47-2.2,6.71-3.22l5.36-2.45c1.2-.55,2.35-1.12,3.5-1.76l3.6-2.01c1.43-.79,2.94-1.53,4.43-2.21l3.86-1.75,3.85-1.75,4.86-2.21,3.44-1.57c.04-.44.26-1.35.52-1.55l2.09-1.65c1.18-.93,2-2.2,2.82-3.31,1.79-2.44,1.85-2.42,2.73-5.38l1.04-3.48c.63-2.12,2.73-3.27,3.63-5.88.67-1.93.28-3.94,2.39-4.3,1.22.41.63,3.34.02,4.72-2.55,5.76-1.55-.18-3.88,7.74-1.3,4.44-2.48,7.01-5.97,10.27l.86-.13,2.8-1.29c1.64-.76,3.32-1.41,3.87-2.76,1.4-3.4.68-.31,2.58-4.57l.81-1.8c1.35-3.02.22-3.33,2.88-6.44.82-.96,1.3-2.27,1.86-3.38,2.22-4.39,2.22-7.88,4.92-12.03,1.59.27.89,2.84.8,3.92-.16,1.92-.88,3.39-1.64,5.05l-1.66,3.62c-.3.67-.64,1.33-1.01,2.02-2.49,4.61-1.57,1.41-3.48,6.15-.33.82-.68,1.64-.94,2.37l-1.2,3.52s.88,0,.98-.05l4.29-2.26c1.89-.99,1.04-2.03,2.66-4.44l1.53-2.28c.83-1.23,1.38-2.61,2.07-3.94,2.16-4.16,5.99-11.59,6.96-15.97l1.08-4.86.74-3.11c.71-3,1.71-5.93,1.96-8.96l.29-3.48.18-2.55c.14-1.93.71-5.03.71-5.19l.15-6.73.43-2.95.14-2.7c.04-.84.42-2.1.42-2.95l.05-9.53-.33-1.74-.16-6.14-.23-3.42-.29-3.39-.49-3.65-.45-2.97c-.25-1.65-.44-3.44-.89-5.02l-2.47-8.73c-.67-2.37-1.39-4.73-2.33-7l-2.29-5.52c-.5-1.21-1.48-2.87-2.06-3.85-.12-.21-.32-.91-.46-1.11l-6.75-9.54c-.38-.54-1.21-1.28-1.62-1.75l-2.62-2.99-2.79-3.19c-.89-1.01-1.94-2.08-2.96-2.96l-2.63-2.26c-.61-.52-1.4-1.19-2.03-1.64l-4.2-2.93c-.56-.39-1.42-1.02-1.97-1.31l-6.39-3.38-3.15-1.69-4.3-2.05c-2.45-1.17-4.76-2.29-7.33-3.12l-5.35-1.74c-3.56-1.16-4.96-1.21-8.47-2.26l-3.76-1.12c-2.19-.65-2.48-.37-5.81-.84l-3.34-.47-4.42-.68c-.83-.13-1.79-.22-2.66-.29l-4.15-.31-4.39-.25-3.41-.27c-1.08-.08-2.28.27-3.38.3l-9.95.25-5.92.74c-1.7.21-3.43.5-5.08.84l-3.44.7-3.09.61-4.69.9s-4.51,1.64-5.17,1.8l-3.04.74c-1.53.37-2.93.93-4.43,1.5l-4.45,1.67-5.99,2.74c-1.39.64-2.84.86-4.2,1.48l-2.89,1.31c-1.35.61-2.68,1.31-4.09,1.76-1.49.47-2.77,1.08-4.07,1.87l-3.29,1.99-4.59,2.11-1.57.96c-.73.45-1.43.82-2.08,1.33-4.12,3.22-2.56.67-6.44,4.33l-3.29,3.1-4.7,3.08-2.7,2.16-3.31,2.61c-1.82,1.44-3.31,2.75-4.84,4.59-.36.43-1.27,1.06-1.74,1.53-.98.98-1.75,1.87-2.72,2.95-2.08,2.32-2.11.87-3.23,3.11-.71,1.44-2.42,2.37-3.37,3.55-1.4,1.74-2.6,3.31-4.25,4.8s-1.34,2.56-5.34,6.04c-.71.62-1.04,1.05-1.56,2.07-.27.53-1.15,1.31-1.59,1.84l-1.07,1.3-3.07,3.96-2.45,3.58c-.49.71-.95,1.54-1.4,2.3l-1.66,2.8-2.13,3.5c-.9,1.47-1.62,3.15-2.28,4.81l-3.04,7.7-.95,3.09c-1.44,4.66-1.5,3.46-2.58,8.37l-.46,2.07c-.29,1.32-.82,2.57-1.26,3.88l-.7,2.08c-.39,1.15-.68,2.33-.86,3.55l-.44,2.94-.59,3.5c-.25,1.47-.46,2.94-.66,4.43l-.65,4.96c-.54,4.15-.25,12.24,1.38,16.73l2.91-1.55,1.28-.64,2.29-1.12c1.67-.82,4.26-1.17,5.51.88,1.07,1.75,1.9,4.21,1.08,6.25-.38.93-1.1,2.32-1.65,3.03l-2.02,2.59c-1.53,1.97-3.86,4.33-6.11,4.83.4.13,1.27.34,1.42.59l1.55,2.48,2.6,4.13c.62.98,1.19,2.08,1.88,2.95,1.2,1.51,2.23,2.96,3.35,4.51l2.04,2.83c.72,1,2.22,2.58,3.24,3.39l2.1,1.66,3.76,2.96,5.45,3.86c5.36,3.8,4.55,2.75,9.79,5.81.33.2.73.5,1.14.78,2.28,1.53,2.31,1.05,4.62,2.42l4.43,2.62,2.2,1.23c2.37,1.32,6.33,3.27,8.7,4.18l5.42,2.09,5.47,2.34c1.19.51,2.65.88,3.76,1.51,1.19.68,2.3,1.29,3.54,1.68l4.79,1.5,2.64.77c1.04.3,2.76.03,3.87.24,1.17.22,2.35.54,3.43.61l3.81.26,11.02.25c1.02.02,1.88.13,2.86.03,1.57-.17,3.1-.04,4.64-.02l2.6.03h1.84s2.4-.03,2.4-.03l5.51-.23c2.11-.09,3.86-1.34,6.08-.21.44.05,1.57-.02,2.01-.19l3.73-1.53ZM238.16,367.01c.22.43-.45,1.32-1.05,1.99-.09-.14.12.18.34.52,1.27.05,1.82-.8,3.32-1.52.77-.37,1.64-.69,2.38-1.1l1.92-1.07,2.86-1.64,3.24-1.97,3.96-2.4c1.2-.72,2.62-1.38,3.91-1.96l3.11-1.39,3.87-1.73,6.36-2.98,2.01-1c.85-.42,1.73-.79,2.6-1.15l2.92-1.19,3.72-1.52,6.23-2.94,3.46-1.52c4.24-1.86,6.34-2.34,10.2-4.2l5.04-2.42,2.59-1.23,2.54-1.18,4.34-1.99,4.26-1.95,2.39-1.02,7.57-3.27,6.22-2.66,3.18-1.28c1.35-.54,2.63-1.09,3.95-1.69l3.11-1.41,2.6-1.15,5.96-2.63,1.97-.94,5.48-2.4,4.73-2.22,4.6-2.12,3.38-1.53,4.51-2.2c.81-.4,1.77-.75,2.63-1.11l4.73-1.97,4.21-1.77,5.12-2.23,4.1-1.85,7.59-3.58,2.7-1.08,3.87-1.77,6.43-3.2c1.97-.98,4.05-1.71,6.09-2.51l5.36-2.12,4.48-2.09,4.11-1.83,2.34-1.04,4.05-1.91,3.53-1.7,3.5-1.7,3.98-2.01,5.17-2.71,9.88-5.02,3.84-1.8,5.54-2.58,5.86-2.4,6.57-2.67c2.14-.87,4.07-1.84,6.23-2.67l3.57-1.36,2.61-1.14,6.96-3.09,2.79-1.29,4.05-1.93,4.3-1.99c.96-.44,1.99-.98,3.03-1.53l-.58-.11-.43-.08-2.13.2c-.54.05-1.42-.1-2.09-.1h-3.26s-4.55-.08-4.55-.08l-3.03-.24c-.72-.06-1.79.23-2.78.4-.47.08-1.49-.11-2.08-.14l-5.12-.2-2.63-.1-3.38-.19c-1.63-.09-3.25-.4-4.86-.64l-2.65-.4c-.8-.12-2.43.06-3.13-.17-1.8-.58-3.35-1.19-5.06-1.61l-2.99-.72c-1.66-.4-3.04-1.45-4.48-2.11l-6.24-2.83c-.78-.35-1.74-.95-2.45-1.21l-3.28-1.21c-1.49-.55-2.85-1.09-4.26-1.74l-3.36-1.56-3.79-1.83-2.71-2.01-5.62-2.67c-1.19-.56-2.37-1.34-3.51-2.03l-2.11-1.28-3.13-1.72c-1.85-1.02-3.01-3.05-4.87-4.09l-3.99-2.25-1.93-1.49-4.54-3.32c-1.09-.8-2.27-2.02-3.19-3.05l-1.42-1.59-1.92-2.22-2.37-3.19-1.54-1.94c-.39-.81-.76-1.56-1.21-2.33l-1.99-3.34c-1.76-2.96-1.99-4.48-2.88-4.07l-3.34,1.51-3.32,1.54-3.61,1.61c-.91.41-1.9.85-2.76,1.3l-2.93,1.53-2.48,1.3-7.89,4.01-9.23,4.88-1.95,1.02.79,3.91c.15.75-.32,2.15-.56,3.03-.66,2.42.79.97-2.12,5.33-.76,1.14-2.2,1.56-3.48,1.76l-1.42,2.36c-.43.72-1.57,1.76-2.38,1.96-.29.07-1.18-.34-1.19-.63-.08-1.34,3.46-3.4,2.8-5.67l-1.56-5.35-.67-2.44c-.11-.41-.09-1.39.21-1.69.25-.25,1-.51,1.41-.59.38.78.9,1.89.99,2.62.22,1.75.82,3.43,1.24,4.93l.54,1.97c2.27.34,3.47-3,3.57-4.3.41-5.43-.77-3.7-.84-7.98,0-.48,1.17-1.22,1.62-1.4l3.12-1.24c1.89-.75,3.66-1.48,5.34-2.54l2.32-1.46c2.45-1.55,3.2-1.47,5-2.45l3.14-1.71,3.58-1.98c.86-.47,1.78-.97,2.65-1.39l5.79-2.77,3.34-1.56c.91-.43,2.32-.83,3.11-1.35l4.56-2.96c1.21-.79,2.68-2.08,3.46-3.18l1.58-2.23c1.03-1.45,1.72-3.32.98-5.02-.51-1.17-1.21-1.71-2.48-1.8-1.15-.08-2.1.22-2.96.89-2.55,1.97-3.33,2.1-6.47,3.23-3.51,1.26.5.19-4.87,2.63l-2.75,1.25c-2.08.95-4.26,1.52-6.45,2.24l-6.42,2.11c-.54.18-1.49.35-1.94.55l-3.39,1.5-3.65,1.55-3.18,1.31-3.92,1.63-3.72,1.5-2.44.96-4.55,1.75-4.32,1.61-5.68,2.01c-.46.16-1.57.07-1.93.4-.53.49-1.02.76-1.5.93l-3.36,1.15c-.67.23-1.67.87-2.37,1.16l-2.67,1.08-2.73,1.03-3.23,1.24-3.16,1-3.94,1.67-3.86,1.61-5.8,2.18c-1.87.7-3.61,1.59-5.53,2.27l-3.01,1.07c-.74.26-3.29,1.46-2.44,2.86,1.78,2.9.99,2.84,2.19,5.68l1.13,2.68c1.02,2.41,1.19,1.92,3.03,4.7l.63.96c.11.17.82-.13,1-.23l5.84-3.1c.73-.39,1.79-1.43,2.59-1.44,3.73-.01,2.28,3.42,7.08,3.01l2.62-.22c1.38-.12,3.11-.14,4.45-.09,4.64-1.56,1.27-2.11,6.29-5.47,2.05-1.37,3.93.45,3.97-.53l.05-1c.04-.8.55-2.13,1-2.98l1.16-2.21.7.37-.29,2.18-.31,3.5c-.12,1.34-.24,2.3.76,3.24.39.36.57,1.57.29,1.97-.24.34-1.07.73-1.44.72-1.92-3.42-6.02-3.12-5.99-2.47l.06,1.07c.08,1.6-1.61,1.18-1.34,2.06.66,2.1,3.2,3.94,5.22,3.29l4.97-1.6,4.41-1.78c1.64-.66,2.62-1.77,3.55-3.22,1-1.55,1.28-2.25.17-5.12l-1.58-4.09c-.26-.68-.9-1.88-1.24-2.65-.18-.39.8-1.2,1.23-1.19.37.01,1.09.48,1.24.87l1.48,3.79c.44,1.12,1.06,2.29,1.34,3.42l.56,2.24c.54,2.16-2.28,5.92-3.84,7s-10.21,4.17-11.51,4.32c-3.21.39-2.58.68-5.44-.52-1.62-.68-2.26-3.69-2.97-3.43l-1,.36c-.35.13-1.06.37-1.39.4l-3.06.27c-2.16.19-4.37.14-6.57.04-3.78-.17-3.6-4.53-7.37-1.65-.74.57-1.52,1.02-2.3,1.44l-2.65,1.43,1.23,2.42c-.43.76-1.65,2.14-2.66,2.43l-4.7,1.39-3.2.9-.99.25c-.59.15.47,1.8-.08,2.76-.16.28-.74.75-1.06.68l-1.02-.24c-.69.75-1.46,1.14-2.43,1.35-6.32,1.43-5.16,2.15-9.76,3.26-1.08.26-2.05.59-2.99,1.05l-4.08,1.98c-3.97,1.93-3.74.96-6.5,2.34l-4.51,2.25c-.97.48-2.02.98-3.02,1.39l-2.43,1-3.38,1.48c-.97.42-1.86.88-2.84,1.27-1.16.47-2.39.89-3.48,1.4l-4.64,2.16c-2.61,1.21-5.04,2.88-7.78,3.99l-9.94,4.04c-.37.15-1.06.54-1.16.64.77,1.22.78,2.1.64,3.37l-.42,3.77c-.21,1.86.16,3.94.22,5.87l.14,4.33.16,4.67c.09,2.56-1,3.39-.37,8.2l.45,3.35.34,2.54-2.34,1.31c-2.28,1.28-2.91,1.13-2.56,2.54.25,1.02.3,1.88.11,2.83-.34,1.69-.18,3.19-.2,4.85l-.03,2.78-.1,4.37c-.03,1.16.52,8.39.71,9.59.16.99.33,1.97.41,3.03l.26,3.44c.11,1.44.55,2.77,1,4.21l1,3.23c.12.39-.26,1.42-.17,1.83l.75,3.78.55,2.78c.17.86.46,1.65.83,2.54l.52,2.22.45,1.93c.74.77,1.58,2.49.86,3.57-.3.45-1.56.69-2.08.84l-2.58.76-4.58,1.4,1.35,1.75c1.26,1.63,3.13,3.06,5.12,3.8,1.75.66,6.03,2.18,7.5,1.45,2-1,3.91-2.99,4.72-1.41ZM223.18,218.49l2.69,1.53c.58.33,1.67-.94,1.82-1.54l.79-3.03,1.08-3.93c.26-.96.22-2.7,1.78-2.86.97-.1,2.23.04,3.25.04h1.89c1.17,0,2.45.02,3.82.09.58-.25.48-1.71.54-2.52.14-1.86.65-3.7.98-5.53.03-.18.89-6.52.88-6.33.12-3.2.1-6.07.06-9.33-.01-1.15-.96-3.02-1.95-3.52l-1.58-.8c-1.24-.63-2.9-1.97-6.23-1.96l-10.32.03c-1.41,0-2.94.35-4.32.5l-3.85.4c-3.66.38-4.05,1.97-6.12,4.92-.81,1.15-1.24,2.53-1.72,3.89-.77,2.2-1.95,4.15-3.01,6.23l-1.01,1.99c-.55,1.08-1.08,2.11-1.69,3.15l-2.34,4-1.96,3.28c-.43.72-.88,1.63-1.24,2.39l-1.8,3.77,3.28.09,1.95.04c1.01.02,2.36-.12,3.27.01l4.56.65c2.72.39,4.65.89,7.2,1.68l2.7.84c2.42.75,4.32.57,6.6,1.86ZM300.8,225.32l4.18-1.5c-.02-.65-.46-1.64-.78-2.07l-1.32-1.8-.93-1.33c-.39-.55-.78-1.13-1.15-1.73l-1.59-2.58c-.41-.66-.8-1.8-1.08-2.65l-1.1-3.33c-.36-1.09-.82-2.01-1.34-3.1-.79-1.65-1.13-4.33-2.14-4.41-.28-.02-.95.13-1.27.26l-4.29,1.75c-.15.25.09,1.17.33,1.57,1.48,2.53-.18.49,1.24,4.33l1.23,3.34,1.13,2.9,1.14,3.03c1.75,4.66.57,2.99,2.05,6.33l.83,1.86c1.79.9,3.27-.29,4.87-.87ZM149.03,224.1l-2.96.6c-2.18.44-4.36.8-6.45,1.38l-4.09,1.14-4.22,1.02c-1.83.44-3.61,1.07-5.34,1.76l-4.28,1.7-4.2,1.77-3.58,1.25-6.37,2.82-2.66,1.15c-1.08.47-2.31.68-3.46,1.02l-3.78,1.09c-.77.22-1.96.66-2.63,1.04-5.9,3.28-6.11,2.46-11.42,4.98l-5.06,2.41-5.89,2.68c-1.3.59-2.6,1.36-3.9,2.02l-4.49,2.27-7.6,3.83-2.05.95-1.97.99-2.99,1.49c-.98.49-2.03.98-2.95,1.53l-5.1,3.08-2.33,1.41-3.8,2.5c-1.38.91-2.76,1.7-4.06,2.66l-2.61,1.92-4.06,3-2.66,1.86c-1.06.74-2.14,1.85-3.1,2.79l-1.9,1.84c-.72.69-1.89,1.5-2.27,2.31s-.7,1.31-1.28,1.94l-1.99,2.12c-.84.89-1.54,2.26-2.24,3.32l-1.36,2.05c-1.05,1.58-1.75,3.29-2.43,4.85-2.11,4.85-2.96,9.44-1.68,14.85.39,1.62,1.14,2.97,1.95,4.44l2.15,3.9c.23.42,2.56,3.1,3.23,3.73l3.1,2.94c2.44,2.31,5.8,3.71,9.17,3.7l4.7-.02c.5,0,1.54-.42,2.02-.47l3.03-.31,2.2-.12,3.3-.16,2.6-.13c.57-.03,1.76.05,2.29-.05,1.46-.28,3.27-1.11,4.76-1.14,2.98-.06,2.28-.72,5.37-1.42l4.52-1.02c.2-.05.92.19,1.15.26l6.04-1.83c5.07-1.54,1.48-2.12,6.76-2.82,1.19-.16,2.61-.58,4.01-.89,2.65-.59-.72-.63,4.58-1.83.32-.07,1.27-.06,1.52-.28.67-.6,2.08-1.49,2.97-1.77l6.33-1.98c1.12-.35,2.4-.86,3.48-1.33l5.21-2.28,2.05-.9,4.49-1.92c.25-.11.81-.41,1.04-.54l3.59-.98c1.29-.35,2.4-1.04,3.58-1.69,2.5-1.4,5.02-2.64,7.63-3.88l2.51-1.19,3.16-1.46,1.11-.6,4.91-2.59,3.16-1.67,3.72-1.47,3.14-1.77c1.33-.75,2.67-1.54,4.01-2.21l6.51-3.27c2.84-1.43,3.17-1.69,6.33-2.64.94-.28,1.86-.85,2.73-1.29l4.26-2.14c.96-.48,2.34-1.41,2.95-2.13-.01-1.72.52-2.6,1.87-3.53,1.19-.83,2.6-2.14,3.93-2.57l2.71-.88c1.16-.38,2.68-.67,3.75-1.09l5.85-2.31,3.7-1.46,3.46-1.1c1.83-.58,4-1.97,6.87-3.15l2.15-.88,7.17-2.86c4.64-1.85,8.19-2.09,9.74-2.77l6.49-2.86,8.11-3.44c.98-.42,1.94-.79,2.86-1.23l2.83-1.37,5.06-2.4c.73-.35,1.65-.6,2.43-.89l4.1-1.53c.92-.34,2.02-.98,2.94-1.47,4.05-2.15,4.76-2.04,8.4-3.89l2.73-1.39c2.47-1.25,2.85-1,6.28-2.54l4.41-1.98c.99-.44,2.07-1.01,3.1-1.34l5.75-1.83,5.77-1.85c-.48-2.3-1.14-4.68-1.78-6.98-1.61-5.74-1.09-1.13-2.65-7.86-.21-.91-.43-1.82-.75-2.59l-1-2.42c-.54-1.32-.15-2.99-2.04-5.33l-1.55-1.92-2.89,1.7c-1.01.59-2.81.81-3.98,1.21l-3.07,1.03c-2.2.74-4.49,1.43-6.57,2.41-1.47.7-2.82,1.38-4.31,2l-2.43,1c-.93.38-1.99,1.06-2.95,1.39l-3.16,1.1c-1.08.38-2.38,1.4-3.49,1.86l-3.56,1.45c-3.17,1.29-5.08,3.05-6.93,3.82-2.93,1.23-8.91,3.7-11.89,4.19-.46.08-1.32.5-1.76.64-2.08.63-4.08,1.24-6.14,2.1-1.35.57-2.61,1.24-4.04,1.57l-2.13.5-6.17,2.11-2.1.79-2.63,1.06-3.92,1.75c-1.44.65-3.37,1.05-4.54,1.75l-2.33,1.38-2.29.8-5.15,2.18c-3.76,1.6-3.7,1.04-6.83,2.47l-3.05,1.39-3.96,1.69-2.51,1.2c-.95.45-2.07.87-3.11,1.32l-3.62,1.6-3.84,1.8c-3.43,1.61-5.31,2.03-8.35,3.58l-4.22,2.14c-5.19,2.64-5.72,2.37-10.15,4.44-1.69.79-1.7,1.17-4.19,2.25l-3.8,1.65-2.55,1.15-2.87,1.28-2.48,1.07-1.1.79-2.04.97-4.6,2.18c-.78.37-1.45.6-2.34.87-2.89.87-.33,1.37-7.22,2.94-1.62.37-5.11,2.83-8.27,3.88l-5.4,1.78-4.1,1.17c-5.02,1.44-7,3.07-13.07,3.99l-5.86.88c-1.77,2.45-6.05.26-6.74-1.79-.4-1.2-.85-2.58-.95-3.77-.07-.82,1.09-2.4,1.68-2.95l2.17-2.01c.66-.61,1.48-1.41,2.25-1.8l5.26-2.66c.81-.41,1.69-.81,2.55-1.11l3.89-1.37c1.41-.5,2.83-1.32,4.21-2.03,4.19-2.16,3.14-1.13,6.7-2.96l2.47-1.27,3.9-1.76c.79-.36,1.81-1.2,2.57-1.38,2.35-.57,4.25-1.09,6.52-1.82,2.9-.93.56.67,3.49-.53l4.84-1.98c.81-.33,1.79-.45,2.72-.66,1.38-.32,2.82-1.06,4.17-1.62l2.13-.89c.65-.27,2.09-.41,2.71-.62.78-.59,1.53-1.1,2.36-1.43l5.07-2.05c4.05-1.64,3.95-.55,9.62-2.58l2.53-.9c.69-.25,1.64-.39,2.42-.51l4.86-.72,3.33-.49c1.76-.26,4.25-1.66,8.91-2.2l3.38-.39c4.74-.55,2.04.19,7.16-.56,1.62-.24,1.04.72,4.27-.97,4.72-2.47,4.17-1.54,7.81-3.02l3.74-1.52,6.61-2.7c.76-.31,1.54-.67,2.3-1.02l2.55-1.16,2.37-1.01,3.06-1.33c.92-.4,1.96-.85,2.88-1.16l4.18-1.44,3.35-1.14,3.55-1.25,2.69-1.03,4.44-1.77c-.53-.55-4.9-2.76-4.81-2.73l-6.68-1.62-3.33-.75-3.06-.68c-1.56-.34-3.43-.92-5.03-.92l-14.15.04c-1.14,0-2.54.18-3.73.35l-3.79.57-2.93.47-2.57.44-2.55.48c-2.02.38-3.89.81-5.92,1.11-.83.12-1.64.26-2.43.45l-4.23,1.03-4.37.86-3.11.63-4.13.86ZM62.12,288.6c.89.77,2.81.52,3.91.27l3.78-.87,4.14-1c3.78-.92,6-2.33,9.97-3.41l3.09-.85c.94-.26,2.11-.82,3.1-1.02,1.57-.31,2.99-.61,4.36-1.28l4.29-2.12c5.56-2.74,5.07-1.27,9.45-3.51l3.49-1.79c1.24-.64,2.5-1.28,3.79-1.8l3.01-1.2c2.23-.89,4.81-3.15,8.19-4.27,2.68-.89,5.07-1.97,7.55-3.27l3.23-1.68c1.11-.58,2.59-.94,3.76-1.48l3.57-1.66,5.35-3.16,4.39-1.6,4.78-2.31,3.85-1.75,2.5-1.13-5.17.48c-2.14.2-5.93,1.58-8.6,2.02l-3.15.52c-7.97,1.32-8.64,2.09-15.56,3.84l-2.45.62c-2.19.55-4.36,1.18-6.46,2.08l-2.91,1.24-4.29,1.75-2.6,1.02-2.7.98-9.18,3.21c-1.54.54-3.06.99-4.64,1.4l-4.47,1.14c-.54.14-1.61.67-2.15.98l-1.73.98c-1.84,1.04-3.62,2.17-5.67,2.86l-2.24.75-2.6,1.2c-1.51.7-3.03,1.57-4.6,2.06l-3.22,1-2.56,1.3c-.71.36-1.58.53-2.15.88-2.39,1.44-6.05,4.14-6.27,7l1.83,1.58ZM174.55,311.11c3.26-.24,3.94-1.3,7.77-1.87l1.93-.68c1.17.21,2.28.17,3.26-.24l2.2-.92,2.67-1.09c5.1-2.08,4.28-1.42,8.78-2.97l1.98-.68c3.22-1.11,3.67-.8,5.49-1.49l2.76-1.05c1.35-.51,2.84-.91,4.3-1.26,1.58-.37,2.99-.83,4.54-1.31,1.09-.34,2.91-.19,3.57-1.41l-.65-3.54c-.23-1.24-.09-2.91-.02-4.23l.18-3.15c.1-1.69.15-3.37.05-5.08l-.2-3.44-.22-5.91c-.03-.73-.08-1.58,0-2.25l.29-2.11c.17-1.24.29-2.55-.3-3.84-1.55.2-5.34,1.21-6.67,1.69l-3.82,1.39c-1.29.47-2.56.91-3.8,1.44l-4.22,1.8c-.67.29-1.9.52-2.51.85-2.6,1.37-4.97,2.31-7.82,3.1-.58.16-1.58.79-2.14.99-2.49.85-4.67,1.65-7.08,2.69-1.44.63-3.38.71-4.82,1.23l-2.45.89c-.91.33-2.08,1.04-2.61,1.6.36.77.75,1.48.53,1.86-.37.63-.98,1.76-1.24,2.42l-1.17,2.92c-.58,1.44-1.19,3.17-1.59,4.68l-1.65,6.31c-.15.57-.29,1.58-.34,2.18l-.09,1.29-1.54,4.23-2.56,6.86.53.64c1.29-.59,2.18-1.05,3.2-1.38l2.99-.97,2.48-.18ZM172.98,374.6l3.03-1.07c1.52-.54,3.19-.91,4.78-1.32l3.19-.82c1.26-.32,2.54-.63,3.7-1.08l2.44-.96c1.33-.52,2.88-.92,4.32-1.24l3-.68c.87-.2,1.73-.51,2.52-.86l3.11-1.35,3.68-1.51,3.67-1.6c1.58-.69,3.31-1.25,5-1.8,1.35-.95,2.89-1.74,4.54-2.13l4.84-1.16c.41-.1,1-.84.88-1.24l-.94-3.21-1.04-3.83-1.08-4.11c-.15-.57-.22-1.56-.34-2.19l-.87-4.44-.56-3.81c-.1-.68-.33-1.58-.38-2.31l-.32-4.52-.17-2.9c-.36-6.23-.75-3.59-.62-11.55.07-4.51-.7-3.86-.16-7.24-.05-.87-.33-2.22-.49-3.21l-.32-1.94-2.64.59-3.08.69c-1.17.26-2.39.78-3.58,1.14-1.72.52-3.51.77-5.28,1.21.42-.1-5.44,1.82-5.18,1.72l-5.94,2.25c-.47.18-1.37.39-1.75.56l-3.17,1.41c-.89.4-2.03.49-3.02.39l-3.78,1.51c-1.17-.45-2.27-.16-3.21.54l-6.04,1.8c-.31.55-.91,1.48-1.01,1.95l-.89,4.02c-.29,1.31-.67,2.59-1.08,3.81l-.94,2.82c-.48,1.44-.85,2.88-1.24,4.36l-.69,2.61-.72,2.7-.66,2.63-1.33,5.67-.67,2.99-2.26,8.54-.6,2.45c-.44,1.8-.83,3.6-1.38,5.33l-1.44,4.6c-.36,1.16-.68,2.3-.96,3.51l-.76,3.32-.7,2.39-.53,2.82c.12.07,1.25.09,1.67-.13,1.58-.85,3.88-1.92,5.77-2.66,5.87-2.31,6.37-1.61,11.7-3.49ZM176.67,389.09c.42-1.3,1.8-.34,3.71-1.04l3.08-1.13c.66-.24,1.38-.62,2.08-.95,1.57-.74,3.29-1.22,4.93-1.82l5.08-1.88,1.99-.74c4.4-1.62,1.79.52,5.45-1.1l4.12-1.83c2.42-1.08,4.75-1.85,7.14-3.01,1.75-.85,3.14-.96,5.93-1.98l2.44-.89c1.54-.56,2.57-1.21,4.31-2.27.27.19-.08-.06-.45-.31l-2.51-.95c-3.1-1.17-4.53-3.93-6.6-4.93l-.56-1.52-1.4.52-2.52.85-2.31.76c-2.15.71-7.43,3-9.65,4.11-1.33.67-2.71,1.12-4.16,1.43l-3.4.74c-4.45.97-3.17,1.65-8.61,2.97l-1.36.33c-2.5.61-4.88,1.27-7.31,2.05l-6.29,2c-3.08.98-3.25.67-6.21,1.78-.73,2.11.38,3.7,1.21,5.23-.26,2.2-1.26,4.76-1.33,6.99l-.13,4.22c2.42-.7,3.52-.99,5.48-2.11l2.18-1.24c1.43-.81,2.89-1.14,4.58-.91l1.09-3.38ZM182.14,390.11c1.27.66,5.61,1.1,6.8.83l3.72-.84,3.45-.77c1.17-.26,2.55-1.18,3.7-1.69l3.88-1.72,3.13-1.38c2.18-.97,3.12-1.87,4.83-2.53l3.34-1.3,2.96-1.15,2.68-1.04c4.07-1.58,9.44-4.66,13.25-6.65l-2.61-.46c-2.78,1.69-1.51.43-4.93,2.08-4.96,2.4-2.78.78-6.62,2.26l-3.88,1.5-4.27,1.92c-1.26.57-2.73.73-3.88,1.37-1.9,1.05-3.73,2.32-5.88,2.67-1.17.19-2.85-.05-3.78.36l-3.07,1.35c-3.46,1.52-6.01,1.77-8.1,2.78l-2.99,1.43c-.7.33-1.05.52-1.71.98ZM182.08,393.59l-3.56-2.2-1.08,3.73,4.63-1.53ZM163.25,401.51c2.6-.89,4.31-1.3,6.18-2.25l3.72-1.9c.77-.39,1.4-1.41.89-1.93-4.8.1-4.91,2.35-8.02,2.96l-2.97.59.2,2.53Z"/>
          <path d="M56.48,439.12h-1.9c-.09-.18.04-1.06.28-1.24,2.75-2.01.81.26,4.49-2.35.56-.39,1.79-.47,2.71-.69l5.5-1.31c.34-.08,1.01,1,.82,1.26s-.71.94-1.05,1.06l-3.13,1.16c-.85.31-2.05.65-2.87.8l-3.55.66c-.38.07-1.11.47-1.31.64Z"/>
          <g>
            <path d="M236.65,196.32c.16.08.11.81,0,.9l-1.94,1.09c-2.38-.37-5.72-.19-7.05-2.6-.32-.57.2-2.19.76-2.52.19-.11.91-.23,1.13-.22.72.03.12,1.64,1.62,2.26,3.61,1.49,3.2,0,5.49,1.08Z"/>
            <path d="M300.95,222.31l-2.59,1.5c-.8-.59-2.02-1.45-2.2-2.26-.47-2.03,1.6-3.68,3.47-3.63,1.37,1.22,1.52,2.19,1.33,4.39Z"/>
          </g>
        </g>
      </g>
    </g>
  </g>
</svg>