<?xml version="1.0" encoding="UTF-8"?>
<svg id="Layer_1" xmlns="http://www.w3.org/2000/svg" version="1.1" viewBox="0 0 637.52 435.73">
  <!-- Generator: Adobe Illustrator 30.2.1, SVG Export Plug-In . SVG Version: 2.1.1 Build 1)  -->
  <g id="qW4Vzx.tif">
    <g>
      <path d="M429.89,424.29c1.42-.03,4.06.24,4.06,1.5,0,1.96-7.93,2.11-9.61.61.33-2.99,4.63-2.09,5.55-2.11Z"/>
      <path d="M444.78,422.17c2.7.34,12.37-1.6,5.94,2.54-3.24,2.09-7.47-.04-6.96-1.59.13-.39.28-1.05,1.02-.96Z"/>
      <g>
        <path d="M128.56,435.73h-2.26c-.47-.73-1.4-.34-2.32-.47l-4.17-.57c-.52-.07-1-1.18-.75-1.54.9-1.3,2.3-.86,3.64-.78l3.54.21c1.19.07,2.38.91,3.28,1.68.19.77-.7,1.15-.96,1.46Z"/>
        <path d="M174.26,430.17c-1.66.55-3.13.74-4.51.19.39-1.29,1.34-1.37,2.17-1.77,4.14-2.02,5.93.15,9.15-1.01,2.15-.78,5.14-1.01,5.74.54.1.27-.16.8-.64.86-4.85.68-5.4,2.71-11.91,1.19Z"/>
        <path d="M156.34,431.35c-2.07,2.32-2.66.3-6.12,1.58-.52-.67-.4-1.49-.08-2.25.29-.68,4-2.59,5.99-1.11.55.41.54,1.42.22,1.78Z"/>
        <path d="M410.83,426.96c-4.41-.04-4.04,1.54-6.54,1-.54-.12-.96-.37-.92-1.13,1.58-1.73,6.98-3.54,8.32-.83.24.68-.26.98-.86.97Z"/>
        <path d="M194.69,429.09c-.57-.37-1.18.17-1.77.09s-1-.7-.8-1.07c.26-.51,1.01-.92,1.62-.62,1.09.55,1.72.1,2.64-.17.85-.25,1.15,1.3,1.4,2.1-.83.57-1.93.41-3.08-.33Z"/>
        <g>
          <path d="M312.02,284.85c-2.92.2,1.01-4.87,1.4-5.67.34-.68.5-1.16,1.31-1.32.47-.09.92-.02,1.26.37.58.65.48,1.41-.02,2.09-1.33,1.81-1.27,4.34-3.96,4.52Z"/>
          <path d="M316.13,241.08c.56-1.74-.09-5.36-1.01-6.6-.28-.37.18-.76.37-.98.78-.89,3.1,3.54,3.52,4.4.68,1.4.1,2.85-1.04,3.67-.36.26-.92.38-1.22.29-.24-.07-.72-.47-.62-.78Z"/>
          <path d="M325.06,264.79c.49,1.19-.45,4.69-1.91,4.89-.35.05-1.33-.04-1.31-.6.04-.93.51-4.92,1.84-5.28.46-.13,1.13.39,1.38,1Z"/>
          <g>
            <path d="M310.02,355.76c-.45.29-3.98,1.46-5.25.41s3.83-2.46,4.06-2.59c3.04-1.71,3.22-4.23,3.59-4.47.61-.39,1.64-.29,1.54.55-.24,1.96-2.07,4.86-3.95,6.1Z"/>
            <path d="M289.04,427.65c.66,1.83-8.01,3.42-8.77,1.7.23-1.82,1.73-1.73,3.01-1.85.5-.05,5.18-1.46,5.76.16Z"/>
            <path d="M326.07,427.96l-3.1-.14c-.46-.02-.79-.43-.87-.66-.39-1.11,5.49-3.43,6.97-1.11.17.27.01.79-.3,1.2-.63.83-1.7.76-2.7.71Z"/>
            <path d="M317.15,326.34c-1.8-.16-.34-2.85-1.1-4.03-.35-.54-.25-1.21.03-1.48.49-.48,1.21-.11,1.64.27,1.42,1.26,1.61,2.9.36,4.4-.23.27-.63.87-.93.85Z"/>
            <path d="M247.06,396.88c-7.12,8.05-4.61,11.17-5.28,12.3-.4.66-.87.94-1.26.82-.72-.22-.8-.76-.86-1.55l-.21-3.25c-.08-1.23.73-2.72,1.5-3.84l1.86-2.71c.79-1.16,4.26-4.74,5.03-5.13l6.72-3.39c1.83-.92,4.37.39,6.32-.33,2.42-.89,4.57-2.56,7.25-2.73,1.14-.07,2.19-.04,3.36-.45,2.54-.89,5.15-.23,4.34.6-1.72,1.77-2.37.07-4.68,1.8-.98.73-1.94.31-3.02.24-3-.2-5.17,3.13-9.34,2.45s-5.83,1.86-6.12,2.01c-1.2.62-2.28.83-3.16,1.97-.52.68-1.85.51-2.46,1.2Z"/>
            <path d="M380.57,410c-.27.45-.84.27-1.18.05-.74-.47.01-4.48-1.37-7.22l-1.57-3.11c-1.04-2.05-4.18-1.66-5.98-3.23,1.11-1.83,2.67-1.46,4.2-1.01,2.01.59,3.2,1.6,4.08,3.51.47,1.02,1.31,1.79,1.52,3.07l.64,3.96c.22,1.35.57,2.46-.34,3.99Z"/>
          </g>
        </g>
      </g>
      <g>
        <path d="M511.22,0c-.09.21.15.45.48.45h7.84c.33,0,.56-.24.48-.45h2.78c-.28.99,3.24-.05,4.64.92,1.22-.97,2.43-.08,3.68-.07,7.14.07,7.67,1.73,13.43.68,5.73.87,4.78-.39,11.07,1.27,1.68.44,3.42-.32,5.13-.38.94-.04,1.85.42,2.8-.16,2.76.53,5.41.66,8.2.42.79-.07,1.53-.59,2.37-.37,2.63.68,7.98,1.88,10.34,1,1.08-.4,2.09.33,3.15.35,3.87.04,7.7.02,10.12,3.34,1.43,1.97,3.47,3.26,5.31,4.82.23.2.36,1.14.78,1.11,2.64-.21,4.89.73,7.38,1.32,1.22.29,2.12.22,2.57,1.77,1.43,4.9,1.47,1.48,3.19,5.95,2.85,3.12,6.11,3.88,7.92,6.89,1.21,2.02,2.45,2.02,4.48,6.13.37.76,1.2,1,1.68,1.59,1.88,2.3,3.94,4.17,6.49,5.39v2.57c-1.19.54-2.52.56-3.76-.69-1.31,1.74.78,3.16-.47,4.91-1.94,2.73-10.89.07-12.25,1.02-1.18.82-1.28,2.8-1.93,3.99-1.75,3.18,1.36,3.34-2.99,7.62-2.03,2-1.8,5.6-3.4,8.25l-1.39,2.3c-1.23,2.04-2.05,4.34-3.4,6.27-.73,1.05-.64,2.04-1.1,3.15-1.69,4.08-3.68,7.92-5.6,11.88-3.06,6.31-2.49,6.09-6.64,12.35-1.86,2.81-2.69,4.3-4.51,7.05l-2.76,4.17c-2.9,4.37-.39,4.17-6.43,11.13-1.06,1.22-3.08,3.58-3.71,5.1-.46,1.08-1.97,1.57-2.32,2.67-.51,1.58-1.3,2.53-2.42,3.69-1.98,2.05-4.29,6.31-5.19,7.25-1.53,1.61-2.23,3.36-3.02,5.42-.99,2.58-2.28,5-3.52,7.49-1.04,2.09-2.98,3.78-3.66,5.96.34,1.33.14,2.08-.58,3.25l-3.88,6.31c-.6.97-1.22,1.8-1.81,2.79l-1.91,3.2c-1.09,1.82-2.14,3.45-2.85,5.49-.37,1.07-2.02,5.68-3.04,5.27-.63-.26.5-1.48-.04-1.97-.44-.4-1.39-.11-1.73-.55-1.05-1.34-.1-2.54.84-3.5,3.96-4.03,3.45-2.31,6.73-7.11.69-1,1.28-1.75,2.09-2.63s3.94-5.7,3.65-7.29c-1.07,1.47-2.93,5.28-4.71,5.16-.64-.04-1.97-.4-1.95-1.52.02-1.25,1.25-2.35,2.08-3.26,1.07-1.16,1.52-2.76,2.72-3.7l2.09-1.62c.95-.74,1.08-1.68,1.74-2.46,5.15-6.07,3.25-6.35,6.89-12.94-.2-.72-.92-1.15-1.06-1.97,2.25-5.83,3.16-2.34,5.29-4.56s1.57-2.29,3.72-4.57c.9-.95,2.22-1.49,2.67-2.86.37-1.12,1.62-1.55,2.09-2.49,1.3-2.58,3.64-4.74,4.4-7.45.58-2.08.63-4,2.22-5.92,1.2-1.45,2.42-3.16,3.49-4.78l3.11-4.74c.75-1.14,1.14-2.44,1.99-3.6l4.1-5.66-.35-2.23c1-2.66,3.27-3.75,3.98-5.21l2.27-4.62c1.45-2.96,2.65-4.67,2.79-7.27-.83-.94-1.45-2.74-.18-3.54,1.07-.67,2.23-1.1,2.68-2.45.51-1.52,1.62-2.63,2.43-4,.59-1,.86-2.13,1.63-3.04,2.2-2.62-.98-3.9-.36-5.65.66-1.86,5.54-1.15,5.24-6.67-.06-1.05-.73-2.61.17-3.46s1.51-1.2,1.64-2.59c.1-1.14.53-2.13-.36-3.21-.36-.44-.44-1.76.07-1.86,1.32.13,1.95,1.13,2.79,1.84,1.77,1.5,4.86.47,8.83.57,1.14.03,1.85-2.76.76-3.11-1.91-.62-4.1-.08-6.16-.42-1.15-.19-2.21-.78-3.38-.8-2.79-.04-5.49-.17-8.25.05-3.08.24-9.59-1.34-12.63-2.3.48.15-9.21-.56-11.26-1.28-1.55-.54-6.07-1.36-7.14-1.14-1.45.3-2.78-.39-4.08-.26-1.09.11-1.88.27-3-.04-1.88-.53-3.89.16-5.83-.22-4.61-.91-4.49.05-8.58-.64l-8.74-1.47c-1.49-.25-6.96-1.89-9.56-1.54-1.64.23-3.1-.32-4.67-.37l-7.23-.21c-1.09-.03-1.93-.2-3-.22l-3.6-.09c-1.17-.03-2.16-.38-3.27-.43-1.39-.06-8.26-.06-9.06.1-1.47.29-2.52.04-3.99-.02l-5.36-.24c-5.97-.26-6.5-.67-12.59-.04-1.11.11-2.09-.52-3.36-.02-1.5.59-3.28-.15-4.88.22-5.13,1.15-3.1-.46-9.97,1.11-2.68.61-5.46.07-8.2.14-4.61.11-9.11.27-13.71-.06-1.75-.13-3.24-1.28-5.22-.75-.88.23-1.87-.28-2.73-.3-1.53-.03-3.03.9-4.59.71l-6.34-.79c-1.39-.17-2.59.25-3.91.21-2.26-.05-4.27-.7-6.6-.02-1.57.45-3.31.96-4.98.99l-11.92.22c-2.4.04-4.68.77-7.19-.05-1.1,1.71-1.46,3.7-1.07,5.76,1.35.47,2.59.49,3.92.79,5.18,1.17,8-.22,9.83-.34,1.3-.09,5.57,2.1,6.49.66.55-.87,1.28-1.28,2.34-1.36,2.41-.18,4.59-.92,6.95-1.38,1.45-.29,3.05.38,4.39-.26.77-.37,1.25-1.04,1.86-1.19,1.12-.27,1.66.48,2.62.77,2.79.85,8.61-.94,13.18-.08,1.16.22,2.67.04,3.66.4,5.16,1.9,7.08-.52,14.81.53.73.1,14.66-.48,18.2-.14l5.04.5c1.42.14,2.72.63,4.21.37,1.35-.24,10.17,1.24,11.44,1.03,2.41-.4,4.61.15,6.93.14,1.2,0,2.14-.07,3.44.07l4.16.47c1.06.12,2.18.39,3.21.49l5.05.49c4.03.39,8.19-.1,12.8.25,1.05.08,2.23-.26,3.39-.25,2.04.01,7.09.87,8.39.9l6.84.18c1.59.04,3.02.51,4.69.4,1.58-.1,3.16-.07,4.64.42,1.84.61,3.63.32,5.47.59,3.74.55,4.23-.17,8.38-.48l4.57-.34c1.12-.08,2.27.49,3.4.17,1.97-.56,3.71.77,5.54.81l13.75.29c1.26.03,2.41.49,3.69.44,1.36-.06,2.31.65,3.12,1.5,1,1.05,1.45,2.23.53,3.22s-2.27.97-3.36.03c-.79-.68-1.99-.37-2.95-.67-1.99-.61-3.77-.58-5.75-.12-.98.23-7.72-.45-9.19-.68-5.48-.85-3.48-.43-8.64-.65l-2.86-.12c-3.47-.14-6,1.55-13.49.3-1.05-.18-2.14-.47-3.21-.48l-11.48-.17-3.63-.51c-4-.56-9.97-1.03-13.98-.72-1.92.15-3.64.02-5.58-.02l-6.42-.13c-.13,0-11.85-1.7-11.19-1.69l-10.55-.19c-1.2-.02-2.1-.37-3.3-.17-1.45.24-5.93-1.07-5.13-1.05l-7.76-.14c-.92-.02-1.89-.24-2.78-.44-1.87-.41-17.79-.45-18.66-.08-1.06.46-2.15-.2-3.22-.23l-4.94-.15c-1.41-.04-2.73-.62-4.2-.4-.43.06-9.44-.65-10.13-.75-4.24-.6-3.03.54-7,.27-.39.08-.83.26-.53.47.41,1.17,1.42,1.77,1.96,2.71l2.7,4.71c1.02,1.78,1.01,3.87,1.8,5.68l1.97,4.48c.95,2.17,1.69,4.35,2.7,6.53,1.21,2.59,3.23,6.31.75,8.43-.43-.23,4.61,9.18,4.15,8.44l1.73,2.81c-.42-.67,2.88,5.43,2.61,4.81,1.25,2.79,3.26,7.14,2.96,9.78l-1.73,1.39c.08,1.27.63,2.36,1.23,3.54l1.56,3.06c2.4,4.73,3.91,9.15,5.2,14.28.57,2.26,1.02,4.53-.21,6.64.5.97.85,1.98,1.17,2.98.39,1.25,1.25,2.15,1.77,3.29,1.17,2.54,2.74,5.44,4.29,7.76s3.44,4.93,3.93,7.8c.28,1.63-1.16,4.64-1.13,4.43,0-.03,2.82,3.72,3.24,4.37.75,1.16,1.15,2.37,2.05,3.51,3.16,4.01,3.76,6.91,3.36,11.67-.12,1.42,1.06,2.6,1.37,3.89.67,2.76,3.71,11.07,3.81,11.46l1.44,6.06c.91,3.82-2.3,2.6-1.05,5.64l3.22,7.84c.68,1.65,1.28,3.36,1.81,5.08.36,1.15.38,2.06,1.39,2.89.75.61.38,2.01.95,2.73.87,1.12,1.22,2.52,1.95,3.56,1.12,1.6,1,2.83.76,4.65-.15,1.14.68,2.48-.26,3.76.79.55,1.48,1.32,2.41,1.44.61-.31,1.63-.9,2.26-1.46l3.68-3.29c.52-.47,1.38-.37,1.9-.87,1.06-1.02,2.3-1.56,3.85-1.75,1.99-.24,6.56.79,5.92-.19-.28-.36-.8-.69-.86-1.06-.25-1.65,1.17-2.23,2.35-2.92,3.13-1.81,3.85-4.01,6.51-5.46.77-.42,2.81-4.83,3.86-5.8.99-.91,1.97-1.5,1.2-3.11-1.18-2.46,3.09-2.86,4.09-4.13,1.67-2.11,3.11-4.66,4.24-5.95.74-.85.84-2.16,2.29-2.41.17-.29.39-.52.72-.05-2.5,5.4-2.65,2.71-5.1,8.77-.93,2.31-4.09,4.74-4.16,5.05-.32,1.41-1.03,2.52-1.94,3.6-.03.04-3.74,6.15-4.04,6.58-1.42,2-3.56,3.19-5.24,4.92-2.98,3.04-3.87,2.03-3.2,2.85,4.18,2.08,8.37,2.77,10.18,7.96l1.79,5.12c.63,1.81.87,3.68,1.54,5.45.74,1.93.32,7.08-1.61,8.23-.91.54-1.45-1.06-4.99,1.02-1.23.72-1.56,2.86-2.97,3.36-4.5,1.59-5.48,2.9-9.95,3.05l-5.44.18c-1.12.04-1.9.31-2.95.06l-9.32-2.19c-2.77-.65-5.3-1.04-7.89-2.32s-5.91-2.47-7.62-5.42c-.51-.88-2.51-4.51-2.53-5.14-.03-1.01-.44-1.6-.83-2.48-.7-1.59-.77-3.36-1.67-4.89-2.1-3.6-4.62-4.92-4.47-4.72-1.56-2.01-3.12-3.3-5.41-4.45-.18-.09-3.98-3.53-4.32-3.45-.19.05-.34.22-.5.36-1.8,1.59-3.76.85-5.25-.62-.84-.84-2.03-1.35-3.03-2.04l-4.92-3.42c-1.2-.84-2.24-1.71-3.44-2.58-.84-.6-1.66-1.07-2.49-1.68l-5.32-3.91c-.4-.29-1.09-.08-1.46-.4-1.52-1.3-3.31-2.2-4.65-3.65-.8-.87-1.82-1.34-2.6-2.06-1.01-.94-1.57-1.39-2.95-1.79-2.17-.64-6.91-4.86-7.57-5.27l-2.55-1.61c-1.39-.88-5.71-3.37-6.88-4.23l-2.66-1.95c-1.38-1.01-2.96-1.68-4.12-2.82l-1.17-1.15c-1.79-1.75-4.57-2.44-6.85-3.8l-3.76-2.24c-1.11-.66-2.01-1.36-3.13-1.99l-4.47-2.47c-1.26-.7-2.51-1.49-3.65-2.37l-2.6-2.01-2.99-1.64-5.6-3.63c-1.91-1.24-3.27-2.86-5.35-3.98-1.33-.72-2.29-2.03-3.9-2.54-1.94-.62-3.57-2.04-5.41-2.77-1.64-.66-2.64-1.6-3.95-2.62-1.86-1.44-3.9-2.47-5.68-4.07-.89-.8-2.17-1.2-3.14-1.91-1.2-.88-2.58-.75-3.68.22-5.25,4.66-4.16,1.38-6.44,3.19-1.65,1.31-3.82,1.57-5.79,2.24-.63.98.71,3.02,2.02,2.84,2.59-.35,3.38,1.14,3.33,1.76-.04.41-.2.85-.66,1.29,2.95,1.12,3.8,1.26,7.19,2.66.5.2.7.9.99,1.29.48.66-.65,1.56-.4,2.08.23.48,2.13.21,1.86,2.36l-.4,3.31-1.27,2.19c-.75,1.3.83,2.96-5.35,3.65-.62.07-.71.9-1.07,1.15-1.19.83-1.38,2.02-2.01,3.16-1.58,2.85-3.72,5.27-5.06,8.26-.45,1-.77,1.85-1.52,2.69-.7.79-.31,2.09-.77,2.97-.93,1.81-3.49,9.27-1.84,10.55.19.4-.26,1.07-.14,1.57,1.01,4.43-.77,5.49,1.88,9.15.54.74-.57,4.02,4.33,7.65,3.23,2.39,1.33,3.63,4.13,8.91,2.02,3.8,2.05,6.09,2.58,9.1.22,1.27,2,4.23,1.6,6.75-.12.78.82,1.98.94,3.12l.36,3.51c.16,1.59-.56,3.25-.03,4.89s.32,3.05-.45,4.52c-.29.55.1,1.29.14,1.87.11,1.4-.65,2.69-.69,4.08-.09,2.94-2.03,10.28-3.22,12.5-.63,1.16-.54,2.72-1.29,3.84-1.54,2.32-2.4,4.75-3.41,7.31-.2.52-2.92,3.41-2.89,5.38,0,.54-2.03,4.2-2.63,4.74-1.69,1.5.97,2.67,1.85,4,1.77,2.71-1.99,5.63-2.87,5.98-7.93,3.15-2.43,3.92-11.58,2.94-7.36-.79-6.33-2.09-8-2.25-.91-.08-2.41,1.03-2.87,1.87l-2.62,4.77c-.37.68.23,1.96.23,2.85,2.7,1.57,5.77,2.24,8.91,2.61,3.73.44,4.43,1.88,9.97.79,1.79-.35,3.66.28,5.45-.11l2.61-.56c2.75-.59,3.89-.91,3.9-3.59.01-1.89.79-3.58.7-5.38-.06-1.23-.71-2.31-.86-3.49-.28-2.27-1.87-2.57-.95-3.62,3.47-3.97,6.21,12.7,4.32,15.3-1.28,1.76,1.62,3.58-.35,7.04-1.29,2.26.85,2.78-1.53,6.78-.72,1.21-2.41,1.59-3.74,1.75l-4.11.48c-4.84.57-5.81,2.55-11.98,2.62-1.38.02-2.68-.32-4.17-.21-1,.07-1.77-.92-2.78-.9-4,.08-5.15-1.23-5.49-.61-.63,1.18-1.22,3.66-1.35,5.2-.17,1.98,1.21,3.32,1.96,4.85.87,1.8,2.07,2.67,3.56,3.9.67.55.85,1.68,2.09,1.62,1.41-.07,2.86.26,4.16.92.6.31,1.29.19,1.88.41,1.85.69,3.46.29,5.23-.06,3.67-.72,6.64-2.54,9.17-5.21,1.3-1.37,2.35-2.57,2.98-4.47.34-1.02.97-1.9,1-3.13.02-1.01.59-1.82.94-2.73.21-.56-.21-1.25.05-1.61.39-.55.86-.89,1.61-.94,2.36-.16-.46,5.97-.84,7.9-.29,1.49-.14,2.84-1.15,4.05-3.19,3.84-3.57,13.47-.35,15.72,1.85,1.29,3.45,2.2,5.08,3.88.7.72,1.71,1.87,2.54,2.41,3.45,2.24,7.4,3.24,11.25,4.28,3.35.91,4.73.58,9.21,1.23l2.86.42c6.11.89,3.21-.33,8.58,1.02,2.42.61,7.58,1.51,10.17,1.84,2.14.27,7.62-1.74,10.22,1.97,2.24,3.19,3.78,4.44,5.66,8.1.46.9-.11,2.11.18,3.05.77,2.5.38,4.97.07,7.46-.08.62.7,1.18.05,3.01-.11.31-.13.55-.04.87.01.04,3.68-.58,4.68.96,1.29,2.01-1.55,4.31.66,5.69,1.83,1.14,3.83-1.6,7.28,1.28.48.4,1.24.61,1.56,1.19,1.06,1.89.43,3.95-.9,5.57-6.52,7.91-7.29,3.94-12.36,7.56-2.28,1.63-3.18-.13-8.2,1.47-1.35.43-2.82.44-4.12.99-1.67.72-3.31-.43-4.85-.22-1.76.24-3.04.57-4.8,0-3.17-1.01-7.27-.83-8.92-1.67l-3.08-1.58c-2.98-1.53-7.25-1.09-10.21-1.37l-4.22-.39c-1.83-.17-3.52-.59-5.29-1.31-1.2-.49-4.2.56-5.21-.51-.26-.28-.32-.97.16-1.44,1.68-1.66,7.59-.7,9.32.56.64.46,1.7.06,2.49.21.59.11,4.2,1.21,3.78-.41-.46-1.76.82-2.51,1.35-3.73.6-1.38,1.35-2.63,2.04-4,.78-1.54,0-3.75,1.34-5.15.5-.52.9-1.01.62-1.83-.93-2.66,2.98-2.85,3.79-3.49,1.84-1.45,2.69-.18,2.88-1.71.24-1.94-.8-2.95-2.06-4.04-1-.87-1.59-2.1-2.9-2.68-1.67-.73-3.27-1.59-4.83-2.52-1.85-1.11-9.8-2.19-12.4-2.5l-3.7-.44c-1.98-.24-12.55-3-14.04-3.97-3.99-2.61-5.29-1.04-10.03-4.29-1.65-1.13-2.32-.76-3.09-1.99l-.35-.57c-.19-.31-.38-.5-.56-.54-.57-.11-3.61,2.78-3.26,2.31-1.85,2.47-7.15,3.63-9.69,4.35l-6.49,1.85c-1.1.31-2.11.62-3.38.78l-4.39.54c-4.88.6-2.66-.36-7.94,1.43-3.54,1.2-5.68.35-7.57,1.63-5.13,3.49-5.84,1.87-9.3,5.02-1.07.98-3.28,4.3-2.05,5.8,1.01,1.23,3.12-1.96,5.35.19,2.76,2.66-1.56,6.9.76,8.95,1.12.99.2,3.47.78,3.86,2.12,1.41,3.51,3.21,4.64,5.46,1.14.12,4.98.98,4.67,1.9-.06.19-.4.61-.76.63l-2.7.11c-4.33.17-6.04,1.68-7.56,2.15-1.96.6-4.36-.45-6.28.29-2.67,1.03-4.97,1.9-7.95,1.79-1.39-.05-2.71.76-4.22.05-.64-.15-1.58.71-2.34.72l-11.37.16c-1.1.02-2.2.29-3.27.16-6.9-.85-5.77-1.02-11.13-3.98-.54-.3-.95-.1-1.51-.02-4.66.66-3.16,1.18-8.54.32-.48-.27-.46-.6-.28-.8,1.61-1.89,3.34-.74,8.14-2.1,1.79-.51-.12-4.54,4.41-5.72.71-.19,2.14-2.9,2.53-3.49.58-.88,1.23-1.68.23-2.66-.33-.32.14-.52.54-.75,1.38-.81.57-1.78,2.16-3.41.44-.46,3.75-1.88,3.52-1.83.86-.2,1.08-1.35,1.2-2.7l.27-3.17c.16-1.87.55-3.35.63-5.19l.15-3.6c.12-2.87,3.21-5.81,5.9-7.44l7.49-4.54c1.78-1.08,3.46-1.24,5.41-1.63,2.61-.53,5-1.64,7.7-1.95,1.32-.15,9.54-2.4,10.17-2.77-.22.13,6.34-.86,7.94-1.83,1.86-1.12,3.53-1.71,5.73-1.76l3.44-.08c2.95-.07,5.64-1.93,8.15-3.43,1.11-.66,2.37-.95,3.28-1.81s2.04-1.38,2.77-2.28c.81-1,.8-2.44,1.73-3.41.8-.83.71-2.14-.25-2.8-1.31-.9-5.94-7.21-4.64-10.47l2.13-5.38c-.93-.26-1.53-.61-2.01-1.14-1.33-1.45,1.49-12.21-.36-16.05-.86-1.79,1.55-5.06,2.68-6.85l2.14-3.39c.69-1.1,1.92-1.82,2.48-3.09.6-1.38,1.55-4.24,3.55-5.2,1.36-.65-1.91-2.11-2.7-3.05-3.24-3.84-2.13-4.07-3.77-5.95-.83-.96-.77-2.29-1.23-3.44-2.66-6.66-1.14-2.53-2.78-9.16l-.92-3.71c-.82-3.31-.6-4.85-1.06-8.63-.22-1.83-.1-11.14.25-10.04-.66-2.1-.36-4.02.01-6.12.05-.3,0-6.6.25-7.3,1.01-2.91,1.07-6.02,1.36-8.81.82-7.66-1.01-1.59,1.1-8.1l.8-2.48,1.66-4.35c.51-1.35,1-2.63,1.61-3.95l1.71-3.69c.48-1.04,1.05-1.81,1.38-2.8l2.79-8.39c.84-2.53,3.26-11.99,2.53-14.3-.32-1-1.35-1.98-1.4-3.02-.09-1.94-.13-3.68-1.35-5.32-.72-.96-.98-2.3-1.97-3.12-1.08-.9-2.43-1.24-3.73-1.84-.93-.43-1.65-1.43-2.64-1.68l-2.3-.58c.35.09-6.58.24-5.63-3.27.87-3.22-.47-2.77-1.37-4.09.16-1.64,1.07-3.17,1.1-4.98.03-1.64-.17-3.26.98-4.61,1.77-2.07,3.3-.8,8.15-1.98,2.04-.5,4.02-1.27,4.89-3.45,1.18-2.93,1.73-5.47.51-8.68-.54-1.42-2.23-2.13-3.04-3.37-1.72-2.63-3.21-7.28-4.03-8.46-2.61-3.73,1.26-3.88-3.94-7.16-1.64-1.03-3-2.18-4.5-3.37-.91-.72-1.44-1.6-2.24-2.41s-1.94-1.42-2.86-2.22l-2.47-2.14c-1.61-1.39-3.31-2.51-5-3.82l-5.97-4.65c-1.04-.81-1.99-1.7-3.02-2.54l-4.02-3.26c-1.08-.87-2.03-1.28-3.14-2.05l-4.09-2.86c-1.83-1.28-3.64-2.49-4.77-4.53-.35-.63-1.03-.36-1.56-.48.05.01-4.74-3.64-4.49-3.53-1.65-.78-3.08-1.48-4.62-2.42l-4.83-2.98c-1.57-.97-3.17-1.61-4.36-3.1-1.1-1.38-2.83-1.84-4.34-2.6-1.31-.65-2.34-1.57-3.92-1.66-1.45-.09-.96-2.44-2.39-1.6-1.01.6-1.35-.76-1.95-.86-3.99-.63-8.62-3.7-11.77-5.94.43.3-4.73-2.06-5.32-2.5s-1.62-.12-2.28-.51c-2.19-1.3-4.47-1.95-6.83-2.92l-6.47-2.66c-1.41-.58-2.56-1.13-3.95-1.65l-3.38-1.28c8.2,3.1-21.43-9.28-13.72-5.79l-4.02-1.82c-1.16-.53-2.19-.84-3.31-1.35-2.55-1.17-5.11-2.82-7.04-3.6l-4.95-2.01c-.93-.38-1.89-.29-2.55-1.31-.4-.63-1.89-.87-2.5-.42-1.87,10.02-1.85,6.81-4.25,8.18-1.32.76-2.08,1.99-2.94,3.11-1.7,2.21-5.75,1.76-4.69,4.1l.27.6c.59,1.29,4.88,6.07,5.57,6.21.93.19,1.33-1.5,2.42-1.18,2.05.61,3.67,1.88,4.05,4.14.24,1.41-3.35.71-2.43,2.59l2.69,5.52c1.04,2.14,2.3,6,4.12,6.55.38.11.92-.25,1.23-.05,3.52,2.26.49,1.93,3.3,8.48l2.23,5.21c.53,1.23,1.32,2.14,1.72,3.48s2,2.05,2.56,3.32c.63,1.43,1.36,2.5,2.39,3.66-.2-.22,3.46,5.68,4.32,6.28,1.4.98,3.05,1.59,3.34,3.44.18,1.11-.09,1.97-1.24,2.56.92,2.07,1.09,4.23.75,6.42,3.08,6.37.93,2.95,1.21,6.13.21,2.41,1.61-.68,4.64,5.61.17.36.64.6.69.84.11.58-.29.63-.59.65-.41.02-.8-.06-.91-.53-.04-.16,0-.35.07-.55.23-.59-.26-.79-.81-.52-.39,3.06,3.25,2.29,3.59,3.1.51,1.2,1.33,1.17,2.33,1.44,3.74.99,1.01,4.56,2.77,9.29l1.73,4.64c.25.68.08,1.12.77,1.61,1.25.89,1.55,2.58,2.3,3.82.66,1.1,4.38,6.73,4.65,7.66.67,2.28,3.02,3.13,3.99,4.93,1.04,1.93.81,4.88,1.89,7.21l3.02,6.5c.48,1.04.98,1.72,1.82,2.64.51.56.25,2.52,1.31,2.75,3.95.86,2.49,5.97,4.38,9.67l1.25,2.44c1.29,2.52,1.89,4.44,4.49,4.27,1.53-.1,2.9.22,4.39-.3,1.14-.4,2.99-1.24,3.95-.26,1.17,1.19.84,3.19.94,4.65.14,1.98-.63,3.06-1.93,4.15-1.11.93-1.97,1.75-3.48,2.15-.96.26-1.77.89-2.99.69-.55-.09-1.37.16-1.55.68-.64,1.78-2.09,2.5-3.3,3.67-1.52,1.48-2.06,3.78-3.37,5.39-3.43,4.23-1.46,7.26-7.87,7.87-1.6.15-3.11.9-4.68.84-2.38-.1-4.24.34-5.99,1.98-.67.63-1.66,1.1-2.23,1.85-1.2,1.57-2.8,1.29-4.48,1.14-2.09-.18-5.95.83-7.21.19-.74-.38-4.95.37-6.52.38l-19.8.15c-5.48.04-5.59-.25-10.75-.43l-7.27-.26c-1.35-.05-2.35.21-3.56.2l-6.13-.02c-2.98-.01-5.82-.38-8.89-.6l-6.45-.46c-1.27-.09-2.4-.15-3.65-.26l-4.16-.37c4.88.43-10.13-.14-7.03-.1-4.29-.06-5.82.05-10.26-.94-.77-.17-3.23.62-6.53.07-2.2-.37-4.46-.1-6.72-.18-4.77-.16-9.94-.79-14.12-.21-1.24.17-2.03-.05-3.19-.28-1.37-.28-3.05.52-4.52-.49-1.37-.94-2.36-2.5-3.42-3.87-.36-.47.09-2.22-1.18-2.07s-2.22-.16-3.38-.32l-3.26-.44c-5.19-.71-3.38-2.76-4.92-4.34-1-1.03-.65-4.32-3.93-7.62-1.58-1.59-4.63-.2-5.58-3.27-.17-.56-1.19.89-3.11-.08-3.22-1.62-2.48-3.76-3.75-6.43-.92-1.92.37-3.8-1.24-3.4v-2.31c1.32-.04,2.26-1.59,3.08-.3.39.6.39,1.13,1.11,1.84.79-1.13,1.93-1.29,2.77-1.96,2.29-1.86,3.82-.21,4.47-2.17.23-.71-1.23-1.49-.97-1.87.67-1.02.86-2.09,1.21-3.3l1.05-3.63c1.04-3.59,3.37-4.19,6.31-5.15.54-.77,2.91-5.23,3.19-5.63,1.19-1.68,2.4-3.18,3.22-5.1.49-1.14,1.57-1.84,1.78-3.06-.73-.28-1.71-.12-2.08-.78-.69-1.25,1.5-5.45,3.8-6.46.55-.24,1.2.19,1.93-.03.71-1.77,2.77-4.31,3.85-5.82,1.26-1.76,7.04-10.17,7.89-11.09,1.24-1.35,1.17-3.28-.09-4.71l2.74-4.2,1.49-2.22c.95-1.41,1.3-2.95,2.18-4.37l2.96-4.78c.62-1,1.41-3.72,3.4-6.4,3.34-4.51,3.51-10.21,8.12-10.39l4.24-5.44c1.39-1.78,3.46-5.26,4.93-7.1,1.32-1.65,4.13-5.03,4.53-7.12.9-4.73,4.84-3.32,5.99-5.99.57-1.32,1.81-2.26,2.48-3.46,1.25-2.21,2.4-4.27,3.93-6.3,1.68-2.23,3.06-4.55,4.88-6.71.72-.85.62-2.41,1.47-3.08,1.38-1.08,4.22-5.48,5.25-7.37l1.43-2.63c.87-1.6-1.22-.8-2.55-3.21-.59-1.07-2.28-1.7-2.55-2.88-.31-1.33-1.02-2.1-1.38-3.32l-1.05-3.57c-1.27-4.32,1.68-4.57,1.86-8.46.05-1.11.78-2.02,1.8-2.33.66-.2,5.6-3.8,6.22-4.87.69-1.2,1.25-2.38,2.02-3.53,1.37-2.04.03-5.66,2.95-7.69.68-.48,1.42-1.24,2.18-1.45,4.38-1.22,4.82-2.1,10.26-.3,2.04.67,2.94,3.33,3.8,5.39.46,1.1.01,2.84.93,3.73,1.59.7,3.58.05,5.27.03,1.89-.02,3.63.6,5.57.68,1.25.05,2.59-.17,3.64.53,1.66,1.1,3.54,1.41,5.3,2.18l6.45,2.8c2.23.97,4.2,2.32,6.83,2.4,2.09.06,7.11,2.04,9.52,2.96l5.93,2.27c2.09.8,4.21,1.21,6.35,2.04l8.04,3.12c-.69-.27,8.4,4.53,8.11,4.36-.11-.06,1.92,2.12,3.64,3.29,2.4,1.63,4.59,3.35,6.89,5.16,1.83,1.44,4.29,1.77,6.27,3l4.76,2.97c2.18,1.36,4.56,2.12,6.78,3.47l4.61,2.8c2.03,1.23,3.95,2.4,5.86,3.86,1.52,1.17,3.91,1.63,5.04,3.21.73,1.03,1.38,1.25,2.33,1.92,5.75,4.02,7.5,3.43,10.74,6.35,2.36,2.13,4.68,3.93,7.32,5.67.7.46,1.14,1.28,1.97,1.74,1.75.96,3.18,2.34,4.84,3.48l4.11,2.81,2.77,1.84,2.78,1.85,2.76,1.87c2.91,1.97,6.12,3.24,8.83,5.52.95.8,6.08,2.44,5.83,2.48l7.01-1.16c1.38-3.16-1.54-2.65-2.37-4.63-.28-.67.24-1.21.47-1.83l1.1-2.99c.5-1.36,1.48-8.49,6.99-9.67-.05-2.3,1.53-5.98,2.93-6.89.7-.45,2.24-.87,3.18-.77,1.19.12,2.59,1.2,3.3,2.05,1.36,1.62.19,6.83,2.07,8.57,1.26,1.17,1.44,2.26,1.91,3.86,1.2,4.03,3.47,5.28,3.78,6.72.93,4.21-5.92,3.68-4.93,6.97.13.43,5.34,1.31,7.86,6.6.75,1.56,1.82.93,2.88,1.42,2.08.95,2.96,3.81,3.26,5.84.32,2.14,1.29,3.09,2.77,4.33,1.17.99,2.33,1.92,3.66,2.81l4.96,3.35c5.77,3.89,4.66,1.54,8.95,4.46,1.31.89,2.81,1.46,4,2.46s2.49,1.52,3.69,2.34c1.86,1.28,3.5,2.46,5.71,3.16,3.97,1.26,4.92,3.21,6.2,3.89,2.33,1.25,4.52,2.59,6.89,3.7,1.31.61,2.04,1.69,3.19,2.42l3.95,2.48c1.35.85,5.09,3.28,5.98,4.25,1.03,1.14,2.44,1.83,3.62,2.84,1.26,1.08,2.91,1.34,4.29,2.18.78.47,1.34,1.18,2.25,1.45s1.47.98,2.25,1.45l6.88,4.22c4.97,3.05,1.9-.05,6.62,4,1.16,1,7.36,5.11,8.84,5.98,1.03.61,1.66,1.75,2.61,2.48,1.17.9,2.55,1.07,3.8,1.79,3.66,2.09,1.21,2.49,2.9,3.08,1.44.5,2.61,1.29,3.79,2.24,1.07.86,2.54,1.04,3.56,1.97s1.93,1.75,3.02,2.54c1.51,1.08,2.39,2.93,4.06,3.75l2.8,1.38c1.18.58,2.06,1.24,3.16,1.99l3.53,2.41c1.17.8,1.51,1.76,2.96,2.3,4.82,1.79,4.11,2.82,9.71,5.06.81.32,1.36,1.12,2.39,1.27s4.31,4.22,5.62,4.07c-.16-.74-.18-1.4-.56-1.74-2.94-2.66-3.05-5.21-5.89-7.99-1.08-1.06-1.89-2.09-2.83-3.22-1.79-2.14-2.14-3.67-2.98-5.88-.34-.91-1.49-1.55-1.36-2.74.11-1.06-.94-1.24-1.33-1.86-1.16-1.84-2.15-3.73-3.06-5.72-.7-1.52-.56-3.11-1.37-4.56-1.33.6-1.47-.68-2.08-1.26-1.6-1.52-2.85-3.05-3.81-5.06-.86-1.77-1.9-3.38-2.55-5.29-.18-.53-.63-.9-.86-1.41-.9-2.02-1.15-4.24-2.23-6.16-3.98-7.04.73-4.71-2.83-10.51-.51-.82-.59-1.54-.95-2.35-3.32-7.48-2.36-7.69-4.03-15.43-.22-1.01-.57-1.84-.8-2.89l-1.23-5.52c-.12-.56.6-1.14.49-1.69-.29-1.53-3.77-4.47-4.25-6.11-.35-1.23-.35-2.17-1.07-3.24l-2.44-3.6c-.56-.83-1.05-2.27-1.37-3.21.78-1.59.26-2.47-.29-3.85-1.47-3.7-1.66-7.85-1.39-11.76.05-.71.93-1.2.73-2-.45-1.82-3.08-5.05-3.5-5.74l-4.57-7.43c-.46-.76-1.14-1.4-1.39-2.29-.39-1.44-.36-3.06-1.33-4.26s-1.57-2.4-2.2-3.85l-2.35-5.42c-.62-1.43-.85-2.91-2.09-3.99-.87-.75-1.41-1.63-2-2.63-1.69-2.86-.39-2.1-1.49-5.89-.58-2-.71-4.2-1.92-5.98-1.61-2.37-5.01-4.55-5.7-5.39-1.61-1.98-3.24-.8-7.57-1.69-1.95-.4-4.33-1.08-6.19-.14-.6.56-1.23,1.84-2.46,1.69-.75-.09-2.13-.37-2.24-1.66-.27-3.08,2.11-2.94,2.27-6.39.06-1.23.61-2.4.35-3.73-.19-.98.6-1.6.89-2.32,1.43-3.53,5-.81,8.24-.95,2.9-1.41,4.52-3.92,6.26-6.37.93-1.3,2.22-2.19,2.52-3.98.1-.61.89-1,1.14-1.55.79-1.71,2.15-2.73,3.37-4.07l1.98-2.18c.89-.98,1.23-2.4,2.37-3.14,3.59-2.33,8.89-1.27,12.85-.42.61-2.1,4.38-5.74,6.2-5.94-.19.02,7.43-.31,6.52-.43l5.07.71c2.63.37,5.85-.86,7.98.03.85.36,1.8-.04,2.66.1l1.9.31,3.53.25c.47.03,4.85-1.94,7.96-.53,1.05.47,2.06.1,3.06.23,1.27.17,2.28.39,3.45-.24,1.79-.95,3.92-.7,5.88-1.11,1.85-.38,3.48-1.03,5.4-.53,2.08.53,4.25.23,6.36-.07,1.53-.21,3.44.97,4.85.6,1.59-.78,2.67-.87,4.43-.53-.14-.03,6.21-.32,5.9-1.17h.93ZM508.72,10.57l24.59.02c1.7,0,3.24-.25,4.84-.86l16.52-.03c1.68.57,3.36.58,5.12.46,1.66-.11,3.1.36,4.69.39l8.68.2c1.89.04,3.37.52,5.31.06,3.08-.73,6.28.44,10.44.88l4.16.44c1.54.16,2.97.85,4.47.1-.53-.81-1.3-1.4-2.21-1.96-3.23-2.02.18-3-8.75-3.22l-6.39-.15c-.86-.02-6.89-1.22-7.36-1.15-2.39.35-10.44.71-12.66-.18-1.38.56-6.6.75-7.9.23s-2.85-.39-4.21-1.02c-.74-.34-5.65.88-8.97.18l-4.61-.97c-1.7-.36-6.37-.11-8.43-.36-1.95-.24-3.66-.11-5.59,0-3.41.18-6.76.15-10.16,0-1.56-.07-2.76.34-4.29.4l-7.21.26c-3.36.12-3.22-.07-6.44.14-1.28.08-2.15.21-3.5-.06-6.01-1.22-4.87.82-8.58.45-1.08-.11-2.17.73-3.32.74l-11.04.06c-2.63.01-4.08-.26-5.66.4-1.81-.62-3.65.04-5.39-.28l-2.39-.43c-1.7-.31-3.59.39-5.45.12l-3.23-.46c-1.54-.22-2.85-.57-4.37.07-2.77-.72-6.19.47-7.19,3.36.22,1.01,1.94.65,2.67.61,1.75-.11,3.33.69,5.06.71l12.39.08,3.27.24,3.81-.67,4.56-.46c1.97-.2,3.7.5,5.69.32l3.16-.29c4.81-.45,10.84.48,11.52.35.76-.14,7.35.64,8.41.85.92.19,1.94-.46,2.74.59l10.08-.19c1.03-.02,1.84.06,3.1.06ZM593.6,15.36c.06,1.47,1.29,6.3,1.46,6.78l.71,1.97c.42,1.17.6,4.39,2.94,4.1.51-.07,1.8.13,1.66.96-.19,1.08-1.94,1.85-2.94,1.58-3.6-1-3.47-4.25-4.09-5.09-1.49-2.03-3.31-8.05-3.53-10.81l-3.93-.26c-.93-.06-1.72.41-2.68-.07-.44-.22-.94-.14-1.19.08-1.31,1.13.35,3.91,1.25,4.52.72.49,1.7,2.11.69,2.44-2.7.87-4.45-1.15-4.88-3.39-.21-1.12-1.11-1.99-.84-3.29-1.8-.21-3.3.27-4.99-.1l-1.94-.42-17.02-.07c-1.66,0-5.12-1.35-12.5-.81-1.26.09-2.4.65-3.75.39-1.15-.22-2.17.4-3.27.42l-9.63.17c-1.04.02-1.83,0-2.87-.02l-17.49-.18c-1.04-.01-1.8-.21-2.88-.03-1.36.23-8.62-.24-9.2-.34l-2.76-.48c2.61.46-11.63-.93-9.32-.85l-4.05-.13c-1.24-.04-2.13-.18-3.36-.04s-5.38.6-6.24.41c-1.5-.33-2.52-.26-3.98-.06-.82.11-1.8-.03-2.71.08l-4.17.51-16.56.1-1.94-.45c.16.04-7.59-.44-9.26-.88-1.5-.4-2.98-.68-4.58-.5-1.03.12-5.33-1.05-6.45.82-1.2,2-2.35,3.76-4.08,5.29-3.16,2.78-5.68,8.46-8.25,11.79,2.99.21,5.45.12,8.11.08-.84.01,6.23-1.23,7.47-1.28,4.84-.17,9.94-.18,14.69.53,1.46.22,2.29.1,3.65-.25,3.12-.8,6.3.57,9.4.9,1.88.2,11.49.21,12.82-.07,3.75-.76,6.26.41,9.29-.01l4.71-.66c2.68-.37,7.21-.71,9.61-.56,1.7.1,3.16-.26,4.74-.37l5.5-.37c1.49-.1,3.06.68,4.68.33s3.12.34,4.67.36l18.87.2c1.58.02,3.02.46,4.69.42,2.11-.05,4.19-.25,6.21-.12-2.71-.17,15.42,1.71,11.41.81l3.92.88c3.66.83,5.67.86,7.49,1.27l5.24,1.19,7.78.16c-1.01-.02,13.41,1.11,10.66.4l3.28.85c-1.46-.38,11.66,1.38,11.13,1.33l4.63.41c1.63.15,2.78.92,4.25,1.35s2.82.11,4.26.85c1.36.7,3.23.16,4.63.07-1.05-2.03-2.48-3.65-3.7-5.59-1.8-2.88-3.45-5.67-5.46-8.41-.97-1.33-1.43-3.21-2.62-4.33-4.06-3.84-1.27-4.58-7.39-4.51ZM625.49,35.38c-.79-1.42-1.72-2.46-2.69-3.57l-2.55-2.92c-3.77-1.69-6.42-4.27-8.62-7.68-.73-1.14-1.68-1.98-2.18-3.36-.31-.87-2.06-.34-2.62-.64-1.38-.75-2.53-1.67-4.18-.61,1.49,1.55,2.11,3.14,2.86,4.83,1.88,4.25,4.65,7.82,7.2,11.65l1.65,2.47c1.51,2.26,4.69,2.59,7,2.89l6.26.79-2.13-3.85ZM496.7,255.09c1.12-.14,2.22.55,3.34.78l5.39,1.11c1.44.3,2.65-.11,3.9.03,2.52.29,7.99-.18,10.2-1.7.73-.51,2.07-.33,2.61-1.09l2.86-4.06c.66-.94,2.29-.24,3.19.18.85,1.32.4-3.75.47-3.65-2.04-3.21-2.46-8.99-3.74-11.18-.54-.92-1.41-1.57-1.92-2.65-1.33-2.79-4.41-3.13-6.67-3.49-8.25-1.34-5.15.64-9.27,1.9-.52.16-.46,1.21-.84,1.5l-3.65,2.83c-5.3,4.1-5.66.86-6.64,2.12s-2.11,4.59-.72,6.07c1.7,1.8,9.16.55,12.28.94,1.61.2,2.32-.39,3.29-1.41s2.03-1.59,2.67-2.9c.24-.51,1.18-.4,1.59-.25.14.05,1.28,1.48.94,1.74l-.62.46c-2.03,1.51-3.18,4.26-5.71,5.35-1.49.64-3.32-.11-4.89.22-3.21.67-11.63,1-12.85-2.42-.95-2.68-1-4.5-.37-7.09.16-.66.9-.99,1.18-1.59.63-1.36,1.96-1.45,2.2-2.1.38-.99-3.43-1.69-4.14-2.8-.84-1.31-1.13-1.83-2.65-2.19-3.95-.93-7-3.54-9.92-6.17-3.9-3.51-3.52-1.12-7.29-3.84-.95-.69-1.92-1.52-2.96-2.07-1.26-.68-2.52-.97-3.35-2.28.19.3-4.17-2.76-4.44-2.94l-3.6-2.4c-1.43-.95-2.89-1.38-4.27-2.25-.94-.6-1.67-1.74-2.56-2.49l-2.53-2.14-4.24-2.69c-.35-.22-4.41-3.33-4.97-3.8-1.03-.86-2.06-1.27-3.12-2.03l-4.01-2.86-2.89-2.15c-1.03-.77-7.04-4.37-7.68-4.91-1.45-1.21-3.14-2.47-4.66-3.53l-3.77-2.63c-.94-.66-.92.44-6.02-2.93l-3.36-2.21c-3.19-2.11-5.07-2.43-7.52-4.54-1.1-.94-2.48-1.4-3.49-2.54-1.49-1.7-3.89-2.23-5.71-3.51l-2.74-1.92c-1.79-1.26-3.28-2.95-5.32-3.88s-4.11-1.92-5.75-3.52c-1.88-1.83-4.31-2.21-6.39-3.4-.82-.47-1.52-1.11-2.53-1.67l-6.51-3.61-3.06-2.02c-4.21-2.78-2.97-.27-7.9-3.63l-3.29-2.24c-1.91-1.3-3.39-2.76-5.5-3.81-7.15-3.56-2.87-8.88-7.4-11.07-1.94-.94-4.77-5.86-6.72-6.59l-4.76-1.78c-1.39-.52-3.19-1.24-4.63-1.11l-3.77.34c-1.51.14-3.12.73-4.64.35-5.52-1.37-6.81,5.18-15.96-2.03-1.41-1.11-3-1.51-4.33-2.69-.7-.62-1.95-.4-2.58-1.09s-1.27-1.16-2.1-1.63l-3.25-1.83-3.75-2.72c-1.03-.74-2.11-1.18-3.05-2.05-.89-.82-1.91-1.48-2.88-2.23l-3.6-2.78c-1.2-.93-2.81-.98-3.77-2.34s-2.55-2.07-3.72-3.18-2.3-1.95-3.62-2.9l-2.42-1.74c-1.76-1.26-4.33-1.54-7.26-4.26-.87-.81-1.87-1.21-2.73-1.9-4.98-4.01-5.13-1.9-9.31-5.92-1.98-1.9-2.67-.9-5.61-3.24-1.73-1.38-3.42-2.55-5.53-3.28-1.88-.64-3.36-1.77-5.07-2.64-5.05-2.57-5.31-1.63-10.51-6.32-2.8-2.52-6.03-4.47-9.24-6.44-1.48-.91-2.99-1.49-4.04-2.95-.53-.75-1.41-.73-2.18-.81-1.64-.17-2.99-1.24-4.55-1.65l-1.87-.5-7.72-2.98c-3.15-1.22-4.23-2.23-7.87-3.17-1.02-.26-1.83-.93-2.72-1.4-1.82-.96-3.83-.93-5.79-1.19-1.79-.24-9.6-3.89-12.32-4.76l-4.25-1.35c-1.3-.42-2.36-1.44-3.9-1.16-1.77.32-3.19-.34-4.83-.64-.95-.17-2.38.2-3.42.32l-4.64.5c-2.22.24-5.1,7.13-8.16,8.82-1.11.61-2.38,1.15-3.63,1.34-.61.09-1.45-.97-1.67-1.64,1.1-1.28,2.81-2.03,4.03-3.24,1.29-1.29,1.96-2.93,3.09-4.34l2.26-2.83c.73-.91,2.33-1.14,2.89-2.2.69-1.32-.67-2.71-1.25-3.83-2.11-4.09-8.38-3.09-9.88-1.71-1.92,1.76-.16,3.66-2.96,8.11-1.07,1.69-1.76,3.65-3.42,4.91-1.07.81-2.08,1.55-3.01,2.56-.75.81-2.26.75-2.92,1.71-3.12,4.49-2.41,8.38-.15,13.24.29.61,4.03,4.82,5.03,3.69.9-1.09,4.59-7.4,5.81-5.98.17.19.63.54.29.97s-4.66,6.58-3.39,6.97l3.03.24c5,.39,1.49-2.47,5.43-2.15-2-4.15-.82-3.01-.29-4.45.49-1.34,1.32-2.04,2.66-2.16,1.01-.09,1.78.77,2.5,1.66,2.56,3.18-1.77,4.6.34,4.54,1.15-.03,1.72-1.08,2.57-1.55,4.48-2.46,2.05-4.78,3.94-5.84.26-.15.81.13,1.2-.17,1.65-1.23-.57-4,2.02-6.38.75-.7,1.74-.82,3.06-1.05,3.3-.57,5.62,1.94,7.3,2.3,2.25.48,3.84,1.19,5.79,2.24l5.42,2.92c1.24.66,2.4,1.71,3.69,2.25,2.02.84,4.32.69,6.24,1.73.8.43,1.5.94,2.36,1.33l5.12,2.29,3.25,1.86c1.34.77,2.7,1.97,4.37,1.95,1.37-.01,1.85,1.74,2.65,1.84,1.26.15,2.41.52,3.58.95.9.33,1.77.01,2.84.72.95.63,2.08,1.54,3.22,1.86l3.59,1.02c1.53.44,5.09,2.75,7.11,3.47.04.39-.14.8.22,1.1.91-.33,2.08-.57,2.6.33.33.58.64,1.4,1.29,1.62.45.15,1.08.03,1.7-.18,1.42.68,2.91,1.46,4.14,2.52.44.38.46,1,1.4.97,2.11-.07,1.37,3.79,2.18,1.16.83-1.05,1.78.5,3.02.57.44.02.51.31.3.61-.32.46-.89-.6-1.09.12-.09.31-.03.52.31.67.54.24.96.63,1.48.34.24-.13.43-.57.59-.98,2.36.48,3.96,2.41,6.09,3.48,1.22.62,2.21.97,3.27,1.79,2.53,1.97,5.86,2.85,7.93,4.68,1.57,1.39,3.66,2.14,5.12,3.62,1.94,1.97,1.85.63,6.25,3.96.65.49,1.03,1.63,1.89,1.79,2.41.45,3.17,2.68,4.79,3.92,1.46,1.12,3.29,1.47,4.56,3.02,1,1.23,2.94,1.59,4.14,2.69.92.84,1.62,1.79,2.65,2.5,1.17.81,2.78,1.12,3.69,2.28,1.14,1.45,2.39,2.49,3.8,3.62.77.62,1.22,1.54,2.28,1.88,1.14.36,1.67,1.39,2.5,2.1,1.88,1.6,3.45,1.89,4.7,3.2,1.99,2.08,4.39,3.61,6.76,5.24,4.6,3.17,2.01,4.97,4.64,8.79.98,1.42,1.79,3.04,2.23,4.67.39,1.45,1.47,1.86,2.33,2.77,2.32,2.45,4.87,4.1,7.82,5.65,1.24.65,2.13,1.61,3.65,2,1.73.44,3.36,2.16,5.31,1.82,1.18-.2,2.15-.23,3.3-.21,7.46.14,10.38-2.75,11.51-2.72.85.02,1.46.2,2.22-.38,4.29-3.25,3.73-3.6,11.28.11,1.18.58,1.95,1.37,2.89,2.22,1.21,1.09,2.95,1.33,4.26,2.22l2.48,1.68c1.72,1.17,6.95,4.27,8.6,4.99.63.27,1.05,1.02,1.91,1.23,1.56.38,2.68,1.58,3.82,2.55l2.52,2.13,7.38,5.1,2.02,1.19,6.03,3.7,3.35,2.13c.6.38,1.33,1,2,1.25,2.68,1.03,4.56,2.74,6.82,4.35,3.37,2.39,7.28,3.93,10.46,6.65.99.85,1.87,1.47,2.97,2.15l3.73,2.3c1.14.7,1.92,1.76,3.37,2.16,4.15,1.15,4.1,3.31,8.99,5.77,2.79,1.41,6.24,5.07,8.16,6.16,2.6,1.47,5.03,2.76,7.12,4.96-.34-.36,9.23,6.17,9.42,6.29.73.42,1.12,1.48,1.92,1.72,2.09.61,3.34,1.81,4.9,3.59.33-1.01.92-2.35,1.87-2.26,3.17,1.51,3.5,2.94,7.08,4.79,2.36,1.22,3.93,3.51,6.09,4.96,1.41.95,2.56,1.57,3.46,3.11,1.05,1.81,3.03,4.9,2.85,6.86s1.32,3.63,1.97,5.28c1.03,2.64,2.84,3.9,5.3,5.07,2,.95,7.87,3.5,9.63,3.28ZM489.64,225.13c.15.17,3.46,5.31,4.11,2.8.08-1.31-1.88-2.52-1.57-3.07.91-1.68.3-2.92.05-4.49-.3-1.84-4.99-13.93-5.7-14.81-.26-.33-1.66-5.07-1.94-6-.61-2.03-1.66-3.93-1.55-6.14.06-1.15,2.37-.54.67-5.87l-1.45-4.56c-.55-1.72-.27-3.75-1.15-5.33-.65-1.17-1.31-2.09-1.71-3.34-.32-.99-1.68-1.76-1.78-2.96-.07-.86.98-1.4,1.08-2.16.38-3.01-2.02-4.55-2.8-7.15-.43-1.42-1.36-2.26-2.34-3.22-1.11-1.09-1.57-2.7-2.51-3.95-.81-1.07-1.95-1.75-2.68-2.88-.51-.77-.73-1.61-1.47-2.26-.7-.61-.89-1.99.05-2.44s1.98-.22,2.9.01c-.05-1.36-.92-2.32-1.73-3.4-3.02-4.04-4.65-9.61-6.16-11.39-.85-1.01-.88-2.19-1.45-3.24-.93-1.71-2.45-2.99-2.8-5.05-.24-1.41.48-2.69,2.35-2.72-.33-.83.08-2.04-.4-2.92-.89-1.63-.83-3.35-1.53-4.99l-2.34-5.53-2.83-5.88c-.51-1.06-.33-2.28-.88-3.28-.36-.66-.75-1.2-.47-1.92.19-.49.76-.76,1.61-1.01-.72-1.33-.63-2.79-.89-4.29-.18-1.05-2.56-4.11-3.48-6.18-.53-1.2-.71-2.49-1.69-3.44-.77-.76-.82-1.94-1.43-2.73-1.18-1.54-2.99-5.24-3.65-7.1-.38-1.08-1.11-1.42-.97-2.39.16-1.15.44-1.81,1.27-2.58-.01-.78.03-2.41-.31-3.15-1.79-1.03-3-6.07-3.32-7.96-2.7-4.42-2.62-1.77-3.66-6.51-.7-3.15-3.14-5.6-4.6-8.29-.64-1.17-2.37-.75-3.47-.71l-4.15.12c-3.42.1-6.25,2.92-8.87,2.82-1.3-.05-2.53.23-3.86-.4-.61-.29-.7.42-.87.74-.22.42.18.62.52,1.06,1.46,1.88,1.38-1.34,4.12,0,1.56.76,2.52,1.68,3.38,3.23s.01,3.52-1.85,4.06c-.48.14-1.1.79-.85,1.34,1.92,4.36.62,4.08,2.08,7.24l.96-.82c.51-.43,1.06-.44,1.64-.29.33.09,2.7,2.84,2.09,4.42-1.09,2.84,1.19,7.65,2.35,10.31.76,1.74,1.21,3.52,2.36,5.11.66.91.93,2,1.01,3.13.06.87,2.98,4.58,3.44,5.33,1.18,1.92,2.33,3.69,3.94,5.32,1.13,1.15,1.56,2.68,2.46,4.04.85,1.28,1.72,3.29.55,4.61-3.2,3.59-.64.4-2.14,6.71-.22.92.55,1.61.62,2.35.18,1.99.76,3.71,1.58,5.54l1.14,2.55c.72,1.6,3.52,6.7,4.88,7.69.91.67,1.41,1.67,2,2.6.9,1.42,2.42,2.28,3.47,3.5,1.13,1.3-.32,2.65-.86,3.78-.88,1.84-.1,4.17.15,6.16l.58,4.54c.19,1.5,3.8,10.18,3.72,10.1,1.01.95,1.36,2.07,1.92,3.21.79,1.62.75,2.81.39,4.52s.76,3.43,1.05,5.01c.18,1,.76,1.45,1.14,2.21l2.46,4.92c.78,1.56.88,3.57,2.07,4.89,2.51,2.78.76,1.87,4.97,6.13,2.57,2.6,5.24,2.65,5.44,4.29.12.98-.87,1.94-.86,2.82l2.66,6.57c2.13,5.28-.02.43,3.03,5.76,1.15,2.02,5.14,3.11,5.84,5.15.74,2.16,1.46,4.16,2.68,6.13.23.36,3.92,5.62,4.24,5.98ZM108.29,207.51c2.86-.51,5.43-.23,8.29.04-4.23-.4,14.26-.03,11.18.01l3.43-.06c1.32-.02,2.78-.39,4.06.15.93.4,1.63.25,2.66.1,2.22-.33,6.63.05,8.75.17-.92-.05,7.55-.61,7.81-.59,1.38.09,2.46.36,3.88-.03s3.31.31,4.53-.55c1.39-2.2,2.95-3.98,2.46-7.21-.97-6.41-.66-6.62-3.7-11.99-1.47-2.6-6.28-2.96-3.8-7.11.79-1.33-.12-3.33-.03-4.75l.17-2.68c0-.07-1.56-5.54-1.99-6.63-.54-1.37-1.53-2.46-1.67-3.94.15-.42.88-.42,1.17-.9-2.16.28-3.76-3.75-4.17-5.27-.17-.65-.86-1.06-1.04-1.72l-1.2-4.38c-.46-1.68-1.41-3.29-1.09-5.02.07-.38.87-1.17.33-1.59-1.04-.8-1.59-1.61-1.37-3,.05-.33-.31-.95.35-1.07,2.25,2,1.77,2.49,2.06,3.27l1.56,4.22c.56,1.51.83,3.34,1.88,4.56,2.16,2.52.19,4.52,3.07,8.54.68.95.7,2.03,1.23,2.94,1.77,3,2.94,9.22,3.45,12.8.24,1.67,1.04,3.11,1.08,4.95.11,4.85,1.78,5.04,2.7,7.34.39.97.75,1.89,1.47,2.57-1.08,1.19,1.07,1.47.6,2.59-.34.8.16,1.31.18,1.89.05,1.54.89,1.02,1.23,5.73l.22,3.03c.07,1.01,1,1.68.25,3.03.88.23,1.69.48,2.59.49l4.8.07c1.55.02,2.84-.59,4.42.11.79.35,1.69-.59,2.48-.58l4.21.05c.9.01,1.67-.19,2.52-.25,1.1-.07,2.06.24,3.15.27.24,0,4.69-.25,4.6-1.51-.03-.4-.34-.58-.66-.95-1.78-2.08-2.38-5.88-2.4-5.91-1.49-2.19-2.5-4.4-3.35-6.86-.3-.86-.98-1.52-1.19-2.52-.31-1.53-1.12-3.1-2.33-4.06-1.29-1.02-1.01-2.71-1.77-3.86-1.78-2.72-2.93-5.42-4.06-8.5-.86-2.35-4.63-8.41-4.92-10.31-.14-.94-1.52-1.44-1.61-2.38-.12-1.22-1.22-1.69-1.58-2.57-.74-1.8-1.42-3.33-2.79-4.76l-.35-2.88-1.44-3.22-2.07-5.79c-.24-.68-2.15-.66-2.2-1.94l-2.09-.67-1.76-2.36c-1.57-2.11-2.18-2.63-3.04-5.85-.23-.88-1.12-1.74-.32-2.72.7-.85-.15-1.26-.29-2.03l-.73-4.01c.63,3.47-3.44-11.7-2.42-9.19-.43-1.05-1.17-1.88-1.84-2.77-.46-.62-.27-1.38-.55-1.9.89,1.7-5-6.4-4.78-5.72l-.78-2.38c-1.76-1.11-2.03-2.75-2.6-4.61-.3-.98-1.75-1.66-1.91-2.97-.2-1.67-1.53-2.84-2.1-4.3-.74-1.91-1.49-3.54-2.94-4.98-1.6-1.59-2.24-3.67-3.3-5.58-.69-1.24-1.37-2.27-1.95-3.63l-2.06-4.86c-1.84-4.34-.13-2.52-4.77-5.17-.07-1.51-.73-2.14-1.87-2.94-.86-.6-2.21-5.01-4.36-4.32s2.49,4.73,2.88,5.36c1.52,2.47,2.02,5.42,2.86,8.2l1.44,4.77c.34,1.11.33,1.99.92,3.07,2.01,3.73,1.63,8.18,1.74,8.47l1.77,4.61c.44,1.16,1.05,2.07,1.46,3.15,1.75,4.53,2.51,4.06,3.96,8.53.43,1.32,1.16,2.27,1.6,3.53l1.19,3.41-.32,2.22s4.95,11.8,5.25,12.7c-.54.46-.93.94-.5,1.73.33-.37.44-.82,1.08-.88.15,1.32.84,2.23,1.27,3.4,1.48,4,.6,4.12.97,7.33-.4.02-1.61.53-1.06,1.11,1.41,1.5,1.87,3.15,1.23,3.49-.8.43-1.21-2.03-1.46-2.78-.55-1.62-1.88-3.03-2.1-4.78-.29-2.28-.02-4.74-1.2-6.77-1.03-1.77-1.52-3.68-2.43-5.45l-4.68-9.15c-.37-.73-1.85-1.4-1.71-2.3.4-2.6-1.9-7.16-3.1-9.93l-2.94-6.79c-.66-1.54-1.18-3.11-2.03-4.53-1.95-3.23-.42-4.38-1.09-6.76-.46-1.65-.6-3.31-1.15-4.87-.43-1.22-1.36-6.79-1.8-8.33l-1.03-3.62c-.33-1.15-.87-1.8-1.71-2.49-1.43-1.17-2.13-3.08-3.43-4.38-1.09.31-2.48.05-3.48.23-1.63.29-3.11.54-4.25-.96-.41.29-.78.64-1.07,1.2l-3.46,6.72c-1.02,1.99-2.09,4.16-3.03,6.22-1.02,2.21-3.05,1.11-4.46,3.43-.86,1.42-1.82,2.75-2.98,3.93-.9.93-1.03,2.06-1.66,3.03l-3.82,5.88c-.62.96-1.61,1.57-1.76,2.89-.11.99-1.52,1.46-1.82,2.2-.78,1.94-2.63,2.14-3.82,3.26.16-.15-5.7,7.47-5.57,7.24-.99,1.69-1.53,3.17-3.05,4.49-.86.75-1.21,2.22-1.84,3.23-1.05,1.68-2.56,3.12-3.21,5-.43,1.25-.67,2.13-1.76,3-.94.76-1.72,1.87-3.12,1.9-1.26.02-1.45.96-1.97,1.79-1.03,1.63-3.97,7.39-4.92,9.38l-1.94,4.06-1.71,4.74c-.74,2.05-2.54,8.61-3.91,9.56s-2.07,2.54-3.21,3.72c-1.04,1.08-1.93,1.99-2.76,3.3l-1.63,2.56c-2.12,3.33-5.08,6.24-6.45,10.02-.61,1.69-.62,3.31-1.82,4.83-.46.59-1.13,1.44-1.5,2.09l-2.34,4.16-1.72,3.31c-1.06,2.05-2.07,3.66-3.55,5.36-1.16,1.34-3.15,8.2-4.29,9.54-.66.78-1.23,1.24-1.44,2.35-.17.9-1.21,1.31-1.03,2.59,2.52-.82,4.85-.46,7.37-.17l4.15.47c4.63.53,1.92-.61,7.65.72,1.88.44,3.75.12,5.66.38,4.86.67,5.45.07,8.49.69l4.25.86c5.36,1.09,12.5-.32,16.02.47.96.21,2.1-.49,3.06-.12,1.1.43,1.91,0,2.96-.06,2.78-.15,5.43-.12,8.18,0,.65.03,1.19.52,1.88.33.89-.24,1.84-.64,2.8-.38,5.42,1.46,6.64-.61,10.06,1.1,2.34-1.73,7.67.23,9.4-.45.97-.38,1.98.22,2.83.07ZM317.08,91.45c-.57-2.24.39-4.62-1.45-5.33-1.12-.44-3.67,1.59-3.54,3.84,1.74.8,2.72.33,4.99,1.5ZM320.06,98.95c-1.58-5.23-4.37-4.29-7.57-5.26-1.46-.45-2.83-.3-4.18.43-.44,1.38-2.02,4-1.34,4.86.21.26.61.46,1.15.46l4.59.04c2.56-1.48,7.76.84,7.34-.54ZM317.89,110.12c1.15-2.66,4.35-4.2,4.03-5.74s-6.26-2.42-9.31-1.85c-4.58.85-7.63-.99-7.74.91-.03.55.11,1.06.63,1.4,2.76,1.81,1.16,4.54,1.98,4.7,1.99.39.6-1.51,5.85-.52,1.57.3,3.07.17,4.56,1.1ZM320.14,157.69c-.04-2.47-2.55-3.4-4.64-2.8-3.38.97-11.54-4.98-14.71-5.89-.05,3.16-.71,5.94-2.19,8.61,1.8-.04,3.03.41,4.44.46.99.03,1.83-.38,2.89-.05,1.45.45,2.98-.46,4.47-.27,5.46.69,4.07-1.43,9.74-.06ZM320.35,166.88c1.08-.05,2.08-.05,2.82-.19,3.49-.67,3.84,1.17,7.58.63.85-.12,1.21-1.76.61-2.26-1.74-1.44-5.84-1.08-6.9-2.35-1.19-1.41-2.46-1.78-4.29-1.83-1.23-.04-2.37-.6-3.7-.37-1.54.26-3.07.93-4.61.83-1.03-.06-1.88.16-2.89.01l-4.08-.61c-2.01-.3-3.98.22-6.14-.13-.56-.09-10.79,1.51-12.69,1.44-.65,1.59-.62,3.19-.99,4.81,1.99.33,3.74.03,5.66,0,1.44-.03,2.88.45,4.24.32,1.26-.12,2.24.09,3.55.18l2.53.18c1.65.12,3.05.44,4.57-.28s8.43-.11,8.68-.12l6.05-.26ZM301.53,174.54c1.97.33,3.92.83,6,.61l3.74-.4c2.06-.22,3.69-.35,5.65-.2,1.47.11,6.36-.77,9.85.51,3.51-1.72,1.38-1.41,5.1-1.41.29-1.13.49-2.14.63-3.36-2.71.69-5.31.56-7.91-.41-.97-.36-1.78.11-2.72.22-1.93.22-3.78.21-5.71.17l-6.2-.12c-1.51-.03-2.78.25-4.22.4l-4.1.44c-1.4.15-2.78-.72-4.21-.75-2.09-.05-10.5-.29-11.73.72-.58.48-.34,2,.08,2.56.61.79,1.64.06,2.31.23,1.21.31,2.41.49,3.59.87,1.48.48,5.46-.83,9.84-.1ZM317.16,301.49c.78-1.64,1.53-3.2,2.09-4.83.27-.77.59-1.13,1.13-1.76.99-1.15.96-2.94,1.88-4.18.67-.9.98-1.75,1.42-2.77,2.51-5.76,3.6-10.09,4.61-16.24l.84-5.11c.34-2.08.16-3.73-.02-5.73-.15-1.71.85-3.58.07-5.38-.43-.99-.87-2.06-.84-3.17.07-2.62-.86-4.88-1.45-7.35s-.81-4.67-1.89-6.95c-.39-.83-.61-1.86-.87-2.76-.32-1.1-.87-1.9-1.3-2.91-1.29-3.06.29-3.17-4.36-7.71-.99-.97-1.77-1.81-2.3-3.26l-1.29-3.54c.64-2.71-.92-4.82-1.11-7.4l-.34-4.61.26-2.73c.12-1.29.37-2.29.65-3.44l.82-3.35c.42-1.71,1.13-3.06,1.83-4.63s.8-3.3,1.88-4.66c2.86-3.6,1.24-2.09,3.14-5.19.74-1.21,1.57-2.46,2.03-3.86-.37-1.15-4.29-.8-5.64-.67,1.12,3.14-1.54,4.04-1.79,6s-.57,5.59-2.01,7.34c-1.95,2.37.09,5.21-2.05,9.04-.53.95-.71,1.79-.84,2.89l-.46,3.7c-.25,1.98-.73,3.75.03,5.73.21.56.02,1.2-.25,1.5-.45.95-2.27-5.46-2.12-4.72-.29-1.5,1.5-1.6-.61-4.69.91-1.28,1.47-2.65,1.62-4.28.09-1.05.59-1.91.78-2.91.91-4.98,1.54-2.84,1.75-7.21-.01.24,2.04-6.84,2.12-7.03.38-.89-.73-1.54-.79-2.27-.1-1.34,1.31-2.01,2.2-2.55-2.11-.49-4.18-1.14-6.17-.32-.98.4-1.91-.2-2.74-.07-4.88.79-6.11-3.21-10.8-.66,2.51,2.79,3.5,1.01,5.35,5.11.56,1.24,1.67,2.25,1.71,3.8.05,2.24,1.01,4.21,1.4,6.39.37,2.06.23,7.94-.48,9.96l-1.08,3.05c-.35.98-.71,1.91-.61,3.05.06.67-.55,1.08-.69,1.62-.95,3.73-2.82,8.56-4.78,11.83s-3.32,9.4-4.18,10.63c-1.19,1.71-1.2,3.13-1.32,4.95-.18,2.68-.4,5.51-.86,8.23s-1.64,4.88-1.05,7.64c.26,1.24-.49,2.28-.71,3.38-.32,1.63,1.17,5.07.25,6.36-.66.92-.2,1.83-.26,2.74-.21,3.41-.2,7.79.6,11.13.36,1.49-.26,3.03.18,4.51.36,1.21.93,2.28,1.02,3.58.12,1.63,2.48,9.05,3.14,11.11.51,1.6,1.18,2.62,2.25,3.87,1.23,1.44,2.2,3.95,4.51,2.74s3.7-3.07,4.84-5.42c.85-1.75,2.05-3.25,2.63-5.19.14-.48,1.06-.77,1.35-.58.32.21.91.66.64,1.21-1.46,2.94-4.16,8.69-6.26,10.86-.63.66-1.75.44-2.31,1.53,3.47,3.14,8.95-5,8.62-4.02l1.04-3.16c.33-.99,1.69-1.43,1.87-2.75.33-2.52,3.27-5.7,3.34-6.04.21-.95.76-1.49,1.1-2.33.17-.42.77-3.63,2.01-5.5.56-.84.67-1.84,1.31-2.54-1.32-.89.04-3.8.64-4.12.81-.44,1.25.45,1.54.92.27.42-.07.8-.27,1.47-.38,1.32-.12,2.76-.57,4.15l-1.48,4.59c-.35,1.09-4.44,8.09-4.54,9.74-.09,1.45-1.29,2.6-1.59,3.81-.67,2.64-2.09,4.1-4.2,5.68-.65.49-.58,2.12-2.3,2,2.48,2.51,8.12-3.2,9.1-5.28ZM205.99,213.49c1.75-.11,2.75-2.02,1.99-3.27s-3.2,3.42-6.15,1.09c-1.44-1.14-2.84-1.76-4.71-1.89l-2.62-.17c-1.13-.07-1.97-.16-3.09.16-1.6.45-3.31-.15-4.95.17-1.9.36-3.61.03-5.46.13l-2.41.14-2.77-.17c4.13.26-10.55.26-9.01.24l-13.63.09-1.94.45-17.33-.11c-1.72-.01-3.46.41-5.17-.03-3.26-.84-11.22.84-17.1-.07-1.18-.18-1.93.08-3.05.08l-21.95.03c-1.06,0-1.93-.44-3-.33-2.18.22-4.48-.41-6.71.09s-4.43.42-6.7.05c-.87-.14-4.38-.12-5.91-.14l-13.84-.13-3.64-.52c-.87-.12-6.63-.64-6.56-.65-1.82.23-13.96-1.08-16.74-1.4l-4.14-.48-12.87-.15c-.81,0-1.41-.53-2.26-.32.15,1.71.81,3.16,1.56,4.69s2.41,2.11,4,1.22l15.63.03c2.95-.71,5.91-.7,8.87-.09,1.37.28,3.27.02,6.72.69,1.93.37,10.01.99,12.04.61,1.7-.32,3.12-.27,4.89.03l2.73.47c1.6.27,3.08-.21,4.54-.09,4.61.39,10.54-.09,14.33.29l5.03.51c1.7.17,3.01.57,4.76-.11.76-.29,1.81.58,2.68.48,1.76-.22,3.3.11,4.91.63,1.38.44,8.71-.65,8.53-.68l3.65.5c1.59.22,15.26.65,16.18.44l1.94-.45,9.63-.03,1.93-.42,6.86-.08c-1.62.02,8.81-.83,7.01-.82l11.96-.08c1.43,0,2.75-.97,4.19-.89,5.25.29,9.63-.87,17.92-.34,1.48.1,2.87.61,4.32.55,5-.17,3.24,1.19,5.53-.2.76.38,1.07.92,1.81,1.38,1.35-1.07,2.82.03,4.11-.22,1.06-.21,2.03-.84,3.44-.93ZM181.37,230.15l2.26-2.56c1.28-1.46,5.78-5.42,7.11-8.22.36-.76,1.45-.94,1.75-2.15-1.12-.33-2.76-.63-3.8.13-.87.64-.72,2.03-1.31,2.87-.97,1.37-2.41,2.21-3.78,3.12l-2.51,1.65c-.97.64-2.11-.06-2.22-.93,2.48-3.43,4.68-2.64,7.69-6.63-1.97-1.54-13.14-.81-15.84-.65l-3.66.22c-.66.04-1.26.39-1.93.4l-12.87.14c-.11,0-7.05.75-9.3.88s-4.49.86-6.74.17c-1.39-.42-2.61-.26-4.02.1-.49.12-13.45.35-13.43.36-1.49-1.06-2.71-.37-4.15-.24-5.85.53-6.39-1.14-13.37-.15-2.98.42-6.08.11-9.12.07-.77-.01-3.7-.7-6.62-.76l-4.54-.09c-1.57-.03-3.1-.07-4.56-.51-4.19-1.25-4.91.59-10.64-.04-1.59-.17-3.04-.6-4.68-.37-1.93.27-3.55-.3-5.37-.54-3.26-.44-6.93,1.4-9.93.1-1.47-.64-3.14-1-4.77-1.12l-3.07-.23c-1.33-.1-2.48.11-3.81-.43-.24,0-.58.52-.6.67.43.78,1.44,1.19,1.5,2,.05.85-.95.98-1.49.95-.44-.03-.7-.7-1.16-.85-1.22-.41-1.44-1.29-2.21-2.06-.58-.59-3.76-1.62-5.6-.74.28,1.69,1.67,2.53,2.51,3.85,1.46,2.29,2.61,1.27,1.87,3.76-1.04,1.13-3.94-2.01-4.7-2.73-3.53-3.32-2.29-4.96-5.46-4.27-1.03.22-2.18-.31-3.17.79,1.55,1.63,3.65,4.12,4.49,5.8l1.7,3.41c.72,1.45,2.63,1.57,3.95,1.99,1.64.52,2.86.21,4.43.07,1.89-.17,7.46,1.19,7.77,1.17,1.49-.11,2.77.38,4.21.42l4.53.12c2.55.07,12.23,2.07,13.47,1.77,1.31-.32,2.51.48,3.68.35,2.69-.29,9.94-.87,12.33-.07,5.4,1.8,2.94-1.39,7.1.47l2.25-.48c1.27.67,2.51.89,3.9.27,1.05-.47,2.12.45,3.09.3,1.21-.19,2.11-.31,3.33.02,1.31.35,2.72-.16,4.07.11,2.84.56,5.45,1.49,8.33,1.8.57.06,1.19-.46,1.71-.26,1.39.53,2.57.2,4-.05,4.73-.84,5.66,1.34,11.45-.17.85-.22,1.89.8,2.7.47,1.22-.49,2.37-.17,3.47-.36,1.31-.23,2.28-.78,3.69-.2,1.32.55,3.05-.27,4.4.18,2.13.73,3.98.19,6,.19,1.77,0,3.39.51,5.22-.06-.42.13,4.85.4,5.15.4,1.89,0,3.87-.45,5.8.01,2.7.64,7.17.89,9.98.47l3.62-.54c2.88-.43,2.57.33,5.97-3.52ZM189.5,230.89l1.82-2.59,1.98-3.56c.59-1.06,1.51-1.85,2.34-2.77l3.39-3.74c-3.85-1.79-5.32,2.39-6.79,4.07l-4.29,4.94c-1.69,1.95-2.13,1.19-4.07,4.73,1.82.43,4.34.73,5.61-1.08ZM174.86,237.02c-5.7-.77-4.89.6-8.91-.03-3-.47-6.02.06-9.08-.2-1.19-.1-2.24-.95-3.34-.77l-2.25.35c-1.3.2-2.47.38-3.75.4l-5.97.09c-.71.01-6.24-.5-6.73-.69-1.4-.53-2.64-.19-4.03.07-2.1.4-4.19-.07-6.33.17-3.25.38-1.09-.4-5.61-.12-1.13.07-10.14.06-10.55,0l-4.27-.76-3.57-.37c-1.2-.12-2.47.5-3.79.3l-8.1-1.24c-1.22-.19-1.8-.34-3.05-.28-4.93.24-13.11.21-17.91-.14-.38-.03-6.34.04-5.62.12-1.52-.16-2.7-.41-4.19-.12-1.33.26-2.8-.71-4.16-.53-2.25.29-6.17-.52-6.45-.46-1.99.44-3.37-.41-5.04-.59-1.2-.13-2.35.29-3.97.15l-4.73-.39c-.53,1.66.74,3.48,2.62,3.38,1.22-.06,2.52.55,3.56.34,1.46-.31,2.62-.09,3.99-.11,2.71-.02,5.34-.34,8.09-.01,1.25.15,2.83-.64,3.98.13.96.64,1.53.41,2.64.27,2.9-.37,2.31,1.1,8.36-.15,1.3-.27,5.76.81,5.69.84,1.41-.86,2.43.22,3.66.36,2.1.25,4.35-.74,6.54,0,1.51.51,2.95.14,4.45.16,4.62.06,4.32.64,8.7.59,1.53-.02,3.03.81,4.52.54,1.25-.23,2.49.1,3.68,0,1.67-.16,2.92-.14,4.49.59,1.34.63,3.07.14,4.49.08,1.21-.05,2.35.31,3.53.27l3.79-.15c2.72-.11,5.23-.76,7.93,0,1.13.32,2.47-.29,3.57.1,1.25.44,2.15.1,3.35.03,2.6-.16,5.18-.2,7.77.01,1.29.1,2.23.33,3.52.07,2.78-.56,5.02.16,8.15-.07,6.1-.46,11.63.79,16.21-.56,1.33-.39.04,1.06,4.09-1.67ZM305.18,315.15c5.66,1.54,4.57.33,7.27.07.83-.08,1.02-.78,1.52-1.19.6-.49,4.36-.86,3.63-3.07-2.12-6.41-4.51,2.49-13.97-1.58-.81.43-2.11.72-3.2.82-.95.08-.77,2.22-.4,2.88.76,1.36,2.69,1.4,5.15,2.08ZM323.58,330.78c-1.75-.42-1.86,1.34-4.33.88-1.67-.31-2.83.39-4.27.79-1.62.44-3.27-.07-4.94.21-4.31.73-3.3-.15-6.49-.66-5.21-.82-4.37.41-9.77-1.73-.55-.22-1.64-.85-2.05-.25-1,1.46-.62,3.27-.94,4.86-.37,1.81-.28,3.48.63,5.2,7.58,2.28,9.07,3.11,17.11,2.57,1.78-.12,6.64-1.26,8.15-2s2.78-.52,4.39-.81c1.22-.22,1.72-2.38,1.87-3.45.46-3.39,2.05-2.79.65-5.61ZM294.58,386.61c1.29-.65,3.18-.55,4.3-1.78l3.29-3.61c1.4-1.54,2.98-3.01,5.19-2.13,1.18,6.22,10.64,7.18,11.83,8.12.7.55,1.43,1.24,2.43,1.22,1.19-.02,1.92.99,2.9,1.23,2.1.52,4.15.66,6.03,1.93-.15-.1,6.64.95,7.12.92,1.05-.06,1.86-.35,2.96.05,4.88,1.78,6.71.02,11.78,3.05,1.56.93,3.28,1.51,4.62,2.79,1.51,1.44,2.98,2.84,4.37,4.4.32.36,2.27,5.56.51,7.18-.57.53-1.48,1-2.18,1.44-1.57.97-5.12-.98-4.29.29s2.5,1.3,3.83,1.59l3.12.68,4.61,1.3c1.42.4,2.25.35,3.64.22,2.57-.23,4.95-.07,7.48-.9,2.17-.71,9.16-1.17,7.79-5.76-.36-1.2.19-11.29-.12-11.88l-.94-1.82c-.77-1.49-1.77-1.96-2.58-2.95-.89-1.1-1.03-2.83-2.67-3.47-2.08-.81-4.2,1.26-11.39-.11-1.19-.22-2.39-.09-3.47-.71-1.82-1.05-7.98-1.15-7.94-1.14-2.38-.44-9.11-1.79-11.22-1.46-1.72.27-3.22-.29-4.8-.71l-4.76-1.27c-8.24-2.2-6.77-5.03-11.67-7.35-.82-.39-1.26-1.65-2.54-1.61-1.16.03-1.56-.89-1.88-1.82-.65-1.86-2.08-3.42-2.18-5.37l-.14-2.68c-.06-1.06.66-2.02.56-3.1-.91-.18-1.24.8-2,.97-6.97,1.6-2.42,2.96-12.1,2.48-1.41-.07-2.54-1.01-3.91-1.18-.96-.11-1.84-.04-2.7-.56-2.66-1.6-2.19,2.43-4.43,4.79-.43.46-1.15.43-1.6.99-.8,1.01-2.33,1.99-3.66,2.48-4.5,1.67-4.55,2.29-8.91,4.09.2-.08-7.81.59-8.13.7l-4.45,1.54c-.95.33-8.95,1.63-9.72,1.92-.95.35-1.74,1.08-2.75,1.32-1.83.43-3.67.44-5.44,1.09-2.12.79-6.1.92-8.56,2.15l-4.89,2.45c-1,.5-1.77,1.41-2.84,1.76-1.27.42-2.04,1.33-3,2.07-3.36,2.62-1.78,4.48-3.2,8.87-.63,1.94-1.2,5.21-.91,7.2.09.63-.57,1.99.2,2.42,2.31,1.3,4.86,1.35,7.55,1.4.59.01.44,1.09.18,1.32-1.07.91-4.13.47-5.82.01-.68-.18-.9.72-1.27.99-1.94,1.41-4.16-1-5.86.37-3.44,2.78,6.59,4.48,8,4.76l3.85.75,9.63.03c.05,0,11.26-3.33,11.85-4.33.12-.98,1.32-3.95.08-4.1-1.85-.22-3.85,1.12-5.65.75-2.32-.48.2-7.51-.6-6.1,1.38-2.43,3.98-6.64,6.67-7.6l2.42-.87c2.94-1.06,5.4-2.29,8.31-2.85,4.09-.78,7.95-2.07,12.15-2.54l3.32-.37c4.31-.48,11-2.15,14.59-3.96ZM360.55,423.84c4.69-.61,3.63,1.48,8.3.46,1.92-.42,3.83.09,5.8-.22,6.04-.97,3.77,1.9,10.71-2.23,1.24-.74,3.05-.46,4.16-1.45.97-.87.72-2.76.98-4.01l.41-1.94c.14-.67-.22-.89-.68-.9-1.05-.02-.43,1.39-1.45,1.75-.41.15-.82-.18-1.29-.22-1.99-.14-3.74.9-5.65,1.37l-4.07,1c-1.82.45-3.65,1.22-5.5,1.31-2.67.13-5.55.55-7.98-.33l-4.07-1.47c-1.73-.63-3.52-.92-5.22-1.24-1.34,0-1.74,3.98-.05,5.09s3.48,2.12,5.59,3.01ZM232.29,423.66c7.74,1.9,7.97-1.6,13.83-1.84,1.17-.05,2.46.31,3.54-.17,1.58-.7,3.12-1.4,4.55-2.31.69-.44-.2-1.51-.66-1.84-.62-.43-1.1.42-1.86.63l-6.59,1.81c-8.24,2.27-1.59,1.56-13.23.77-1.39-.09-2.64.52-4.1.11-1.56-.44-2.93-1.16-4.67-1.03,3.71,3.29,3.83,2.56,9.19,3.87ZM351.17,427.27c1.95.46,4.05.34,5.77,1.33,3.41,1.96,6.54,2.65,10.6,3.24l4.01.58c2.46.36,4.85-.02,7.34.1-.48-.02,5.43-1.65,7.45-1.75,2.5-.13,4.45-.93,6.27-2.61.86-.8,2.54-.08,3.55-.58,2.42-1.2,5.14-5.83,3.77-7.26-.96-1.01-2.59-.54-3.78-.89-1.01-.3-1.75-.19-2.33.69-.64.98-4.69,3.42-5.6,3.72l-3.46,1.16c-1.2.4-3.61,2.64-5.74,1.85-1.96-.73-3.75-.23-5.73-.02l-4.18.46c-6.79.74-6.14-1.32-12.71-1.91-1.64-.15-3.83-2.57-4.62-2.3s-2.32,3.78-.62,4.18ZM258.53,424.51c-.15-.92-2.45-2.8-3.11-2.57-4.01,1.35-4.29,3.31-10.67,3.18-2.23-.05-6.78,2.61-9.54,1.99l-4.97-1.11c-2.17-.48-4.68.38-7.91-2.95-.97-1-5.7-2.91-6.21-2.08-1.16,1.33-2.25,2.3-3.85,3.17-.7.38-.52,2.35-.03,2.88.96,1.05,2.05,2.28,3.45,2.52,1.08.18,1.98,1.17,2.87,1.18.93,0,2.28.76,3.02.66,3.56-.48,6.74-.32,10.26-.52l4.12-.23c.95-.05,7.74-.54,7.78-.56,7.95-3.36,15.62-.64,14.8-5.55Z"/>
        <g>
          <path d="M321.46,135.49c-2.46,4.83-9.96,6.92-15.05,5.81-2.18-.47-2.91-3.12-2.49-5.07-1.74-1.59-1.5-3.39-.88-5.31s1.1-4.09,3.04-5.32c.44-2.1,2.31-2.3,4.12-1.89,1.65.38,3.47-.71,5.16-.41,5.94,1.04,1.31.23,6.86,2.42-.55,2.89,1.28,5.78-.76,9.77ZM306.39,135.49c.59-1.05,1.03-1.31,1.55-1.52,2.58-1.06,4.74-2.52,7.03-4.08,1.39-.94,3.01-1.49,3.97-3.11-2.44-2.65-8.52-1.02-10.1.21-.99.77-.96,2.36-1.88,3.21-2.03,1.89-.58,2.02-.57,5.29ZM316.52,136.94c3.04-1.98,2.56-3.28,3.12-6.1.03-.3-.56-.59-.78-.74-.99,1.48-2.44,1.83-3.76,2.7l-3.62,2.39c-1.48.98-2.86,1.62-4.51,1.48,0,3.3,8.08,1.22,9.55.27Z"/>
          <path d="M324.57,144.09c-1.96,2.75-7.02,4.02-7.88,2.52-.92-1.63,2.81-2.14,4.62-2.99l3.76-1.76c.32-.15.57-.31.81-.2.16.08.33.38.23.83-.18.82-1.12,1.01-1.54,1.6Z"/>
          <path d="M328.62,129.98c-.99.94-2.64.41-2.97-.82-.29-1.09-.81-2.17-.67-3.15.09-.63.97-.72,1.33-.55,1.55.74.82,1.71,2.3,4.52Z"/>
        </g>
      </g>
    </g>
  </g>
</svg>