<?xml version="1.0" encoding="iso-8859-1"?>
<!-- Generator: Adobe Illustrator 30.3.0, SVG Export Plug-In . SVG Version: 9.03 Build 0)  -->
<svg version="1.1" id="Layer_1" xmlns="http://www.w3.org/2000/svg" xmlns:xlink="http://www.w3.org/1999/xlink" x="0px" y="0px"
	 viewBox="0 0 554.213 641.197" style="enable-background:new 0 0 554.213 641.197;" xml:space="preserve">
<g id="iwpfcz.tif">
	<g>
		<path d="M554.213,17.176v0.749c-1.225,0.844-2.673,2.445-3.525,3.915l-8.819,15.218l-9.374,18.955l-6.599,16.603
			c-2.506,6.305-5.243,12.098-7.985,18.286l-8.072,18.212l-9.306,20.37c0.467,1.927,0.383,4.387-0.962,5.965l-6.558,7.693
			l-5.288,0.051l-14.484,2.346c-2.694,0.436-5.104,0.097-8.59-0.401l-2.119,10.535c-0.642,3.191-2.486,6.965-4.346,9.867
			c-6.001,1.919-11.967,1.862-18.58,0.622c-1.509,3.467-3.358,7.6-3.436,11.278c-0.142,6.743,6.201,14.971-6.494,31.736
			c0.685,3.896,2.32,7.683,4.298,11.326l15.564,28.652l4.628,7.39l5.093,9.143l11.146,19.658c3.926,6.924,9.154,13.283,9.352,21.919
			c0.057,2.495-0.113,6.877-0.679,9.379l-3.325,14.72l-2.139,7.629c-4.967,14.292-9.456,28.482-11.461,43.29
			c1.657,4.542,0.759,8.563-2.103,12.224c-2.275,2.42-6.13,4.445-10.245,4.501l-15.365,0.209l-5.828-2.426l0.464,8.443
			c0.234,4.245,0.593,7.888,1.319,12.2l-0.297,6.656c-0.35,7.825-2.19,15.344-3.848,23.049l-2.412,11.21l-1.833,9.605
			c-0.721,3.777-0.941,7.166-0.587,11.023l-16.646,17.172l-4.072,4.212l5.34,2.255c4.127,1.743,8.084,5.176,10.623,8.611
			c5.411,7.322,4.438,14.602,1.135,23.501l-6.341,17.086l-7.282,9.656c-2.35,3.117-4.381,6.032-7.155,8.632l-6.188,5.799
			l-9.608,7.651c-3.982,3.171-8.395,5.136-12.922,7.449l-13.32,6.806l-36.054,14.778c-14.195,5.819-29.062,8.766-44.137,11.278
			l-27.651,4.608l-10.393-0.537l-11.624,0.29l-10.958,0.274c-11.757,0.294-22.875-0.238-34.402-2.257l-14.588-2.555
			c-12.404-2.173-24.277-4.027-35.775-9.255l-9.271-4.216l-14.709-6.285c-6.36-2.718-11.118-7.141-16.526-11.14
			c-6.316-4.67-11.857-9.164-15.32-16.406l-5.799-12.125c-1.196-2.5-1.425-4.837-1.336-7.65l0.477-15.126
			c0.168-5.328,4.523-11.71,7.678-15.629c0.558-0.693,3.237-2.395,2.585-3.031l-5.291-5.164l-10.236-11.662l-0.914-16.781
			l-1.233-13.361c-0.721-7.807-1.553-14.848-2.118-22.755l-0.585-8.192l-2.436-15.565c-0.308-1.97,0.066-3.75,0.822-5.49
			c-0.073-12.398,2.595-24.822,10.516-34.58c4.012-4.942,4.332-11.317,4.868-17.757c0.392-4.72,2.37-10.029,0.838-14.572
			c-1.377-4.081-2.531-7.731-3.115-11.982c-1.71-2.04-4.387-0.273-6.174-2.261c-0.396-0.44,0.135-2.308,0.723-2.38
			c0.588-0.072,1.817-0.023,2.41,0.102l1.798,0.378c0.322,0.068,0.216-1.147,0.036-1.436l-3.649-5.872
			c-0.338-0.543-0.464-1.94-0.313-2.522c0.151-0.583,2.256-0.748,2.557-0.227l4.518,7.839c1.54,2.671,4.921,0.867,6.544-0.19
			l6.025-3.924l6.451-4.003l7.984-6.41l4.476-4.362l10.118-10.029l9.842-10.483l9.802-10.4l7.296-7.706l7.013-6.646
			c1.559-1.478,4.058-5.611,6.178-5.68l6.308-0.206c1.687-0.055,4.757,0.451,6.602-0.256c9.661-3.699,19.29-5.334,28.982-8.711
			l24.897-8.674c12.21-4.254,24.073-7.641,35.532-13.904c5.679-3.104,7.11,1.735,10.729,1.819c4.749,0.11,9.187,0.343,13.399,1.7
			l17.023,5.483c4.992,1.608,10.393,2.385,15.246,4.365l25.547,10.424c10.239,4.178,20.493,7.232,31.199,9.868
			c2.73,0.672,4.439,2.67,5.757,4.826c2.796,4.575,6.591,8.246,10.358,12.072l7.794,7.918c4.33,4.399,8.242,8.509,13.164,12.358
			l4.28,3.347c2.272,1.777,5.173,5.413,8.451,5.303l13.341-0.445c0.704-0.023,2.045,0.76,2.451,1.198
			c0.302,0.325-0.563,1.806-1.11,1.811l-13.775,0.119c-3.641,5.582-5.065,11.354-6.496,17.737c-0.91,4.061-2.29,8.413-2.251,12.366
			c0.064,6.513,0.964,12.392,5.262,17.369l1.402,5.19l2.886,5.46c1.75,3.31,3.371,5.587,4.327,9.25l4.076,5.488
			c6.44,4.775,14.266,5.748,22.015,4.236c3.661-0.714,8.378-1.141,9.544-5.524l0.361-10.058l2.286-9.607l2.015-8.584l2.764-8.367
			l5.24-15.804l1.449-5.178l1.232-4.877l1.968-9.427c0.487-2.332,0.353-4.836,0.383-7.192c0.1-7.868-1.671-14.547-6.522-20.851
			c-3.032-3.94-4.974-8.473-7.376-12.782l-11.555-20.726l-17.248-30.846c-2.957-5.289-5.735-10.281-7.725-16.165
			c-0.85-2.513,1.909-4.644,3.007-6.432l3.428-5.586c3.479-5.669,1.937-13.045,0.375-19.086c-0.686-0.547-1.825-1.518-1.59-2.037
			l1.068-2.352l5.877-12.944c0.802-1.766,1.063-3.936,0.949-5.803c1.833-1.226,3.278-3.512,3.363-6.617l-19.477-9.345l-13.727-7.33
			c-4.934-2.635-10.335-5.452-14.95-9.092c-6.717-5.299-13.338-9.334-21.447-12.277c-5.221-1.895-10.011-5.255-15.359-6.88
			c-4.684-1.423-8.786-3.723-13.191-5.467c-9.103-3.603-17.953-6.74-26.8-10.838c-4.465-2.068-8.585-3.21-13.514-3.939
			c-5.7-0.844-11.537-5.161-12.266-4.048l-1.075,1.643l-7.258,9.906l-8.371,11.052l-10.346,12.175
			c-2.469,2.905-5.703,5.612-7.871,8.492c-2.796,3.714-5.367,4.906-9.77,6.621c-4.169,1.623-8.932,4.914-12.644,7.764
			c-5.621,4.315-11.646,6.299-17.822,9.452l-10.431,5.325l-10.411,6.498l-20.63,13.193c-4.613,2.95-9.797,5.083-14.685,7.752
			l-25.659,14.011c-8.193,4.474-17.152,7.515-24.122,14.297l-6.365,6.193L88.238,229.08c-6.306,5.649-12.128,11.033-18.551,16.692
			l-5.562,4.899c-5.112,4.503-9.311,9.475-14.591,13.898c-7.525,6.304-14.362,12.872-21.37,19.736
			c-5.321,5.211-8.856,10.464-9.745,18.235l-2.556,10.494l-0.967,9.671L9.24,381.993c-1.048,10.981,0.225,21.489-2.578,32.237
			l-3.046,11.678c-0.29,1.112-0.419,3.663-0.366,4.794l0.505,10.899l9.653,4.217c4.908,1.243,10.018,1.2,14.873-0.245
			c5.347,1.899,10.548,0.896,14.895-2.363c3.181-1.502,5.758-3.429,8.513-5.709l1.813-1.5c0.28-0.232,1.087,1.164,1.304,1.626
			l-6.297,6.298l-3.238,0.657c-2.465,2.172-5.958,4.584-9.308,4.682l-14.216,0.419c-7.138,0.21-20.191-4.157-21.189-5.893
			c-0.678-1.18-0.566-3.813-0.526-5.22l0.415-14.727c0.047-1.683,1.174-3.342,2.582-4.438l2.926-20.886l0.127-9.251l2.841-27.462
			l0.492-6.927l1.542-14.13l0.81-9.001l0.719-7.405l0.687-8.367l2.09-12.112l1.585-8.141l1.581-5.314l22.163-22.001l7.845-5.841
			l4.915-4.558l10.763-10.384l12.994-12.558c8.18-7.906,17.061-14.504,25.01-22.875c1.012-1.066,1.513-1.527,1.471-3.169
			c6.522-4.195,12.956-9.111,20.105-12.579l11.695-5.673l12.309-6.431l20.978-11.215c4.31-2.304,8.382-4.995,12.467-7.725
			l12.977-8.672l9.935-5.858l13.682-7.105l8.114-3.861l7.714-5.183l8.225-5.449l8.315-4.449c5.597-2.994,9.969-8.497,14.126-13.362
			l10.933-12.796l-7.45-6.49c-2.454-2.138-7.247-4.087-7.672-8.274c0.972-3.617,4.263-7.417,6.403-10.505l7.057-10.181
			c-1.505-3.581-5.42-6.076-6.914-8.948c-1.549-2.978-1.874-6.048-5.685-7.998L269.071,28l8.894-21.999L280.649,0l3.254,0.255
			c-3.021,6.101-5.289,11.138-7.585,16.917l-4.916,12.372c-1.986,4.999-4.051,10.646-5.641,15.696
			c2.689,2.17,3.77,4.573,4.308,7.634l3.803,4.803c0.372,0.47,1.82,1.989,2.1,1.518l1.277-2.149l3.986-6.709l-6.058-0.555
			c-0.703-0.064-1.77-0.926-2.064-1.437c-0.291-0.507,1.407-2.134,2.094-2.006c5.129,0.956,12.712,0.985,17.889,2.78
			c12.061,4.182,23.463,7.305,35.777,10.07l7.927,1.78l21.802,5.934c9.529,2.594,18.42,6.788,27.422,10.591l11.163,6.043
			l20.123,10.554l9.562,4.689l9.691,6.147l11.778,6.801c4.309,2.488,10.425,2.129,14.57,4.98l7.952,5.469l8.663,6.618
			c2.317,1.77,4.679,6.199,3.774,8.229c-1.059,2.374-8.024-2.111-15.154-1.606c-1.132,2.265-1.516,4.048-1.465,6.77l12.694-0.416
			l7.592-1.432l5.962-1.546c5.455-4.615,3.716-11.54-0.985-16.063c-3.396-3.268-4.319-6.53-9.723-7.841
			c-0.308-0.075,0.292-1.538,0.479-1.822l6.312-9.571l5.702-9.667c1.363-2.311,0.106-7.114,4.977-8.06l-4.23,10.464l-8.565,17.297
			l3.945,3.807l4.058-6.721l10.74-16.691c0.276-0.429,1.154-1.114,1.382-0.849c0.152,0.177,0.767,0.869,0.739,0.919l-0.631,1.115
			l-4.681,8.103l-6.78,11.205l-2.701,5.156l5.665,7.212l6.689-13.84l4.155-8.571l2.504-4.128c0.823-4.852,2.739-8.322,4.795-12.555
			l3.654-7.523l8.764-23.459l4.256-9.244l7.234-13.072l3.578-6.062l5.15-9.912c0.341-0.656,1.65-2.214,2.367-2.395
			C552.499,15.844,553.469,16.604,554.213,17.176z M443.427,157.515l-2.937,5.545c5.189,1.199,11.082,1.907,16.387-1.392
			c1.284-2.989,1.96-7.129,2.924-10.372l4.284-14.414l3.679-12.832c-4.936-3.815-10.362-6.225-16.311-7.825
			c-4.738-1.275-8.528-3.466-12.673-6.015l-9.287-5.713l-5.501-3.38l-20.064-10.721l-11.498-5.683l-7.244-4.128l-8.807-3.727
			l-9.246-3.687l-10.385-3.638l-18.166-4.852l-15.628-3.522L305.1,56.568l-3.954-1.336c-5.351-1.808-10.011-3.346-15.751-4.693
			c-4.009,4.755-6.272,9.353-9.527,14.185L265.603,79.96c-0.816,1.211-1.416,4.043-1.048,5.384c0.344,1.253,2.721,2.394,3.871,3.378
			l8.614,7.373l2.192-2.29c0.346-0.362-0.859-1.541-1.123-2.017l-5.573-10.069c-0.833-1.505-1.465-3.952-0.448-4.707
			c1.475-1.095,3.338-1.179,5.219-0.964c6.247,0.714,13.153-0.215,19.052,2.08c4.924,1.916,9.325,3.054,14.453,4.421
			c6.568,1.751,12.904,4.852,19.269,7.458l27.511,11.264l15.113,6.582c7.327,3.191,14.27,5.917,20.515,11.227l8.684,5.548
			c5.16,3.296,10.314,6.814,15.839,9.414l15.264,7.184l10.302,4.765l6.223,2.92c3.166,1.486,5.848,4.974,4.716,8.893
			L443.427,157.515z M288.555,79.56l-13.696-0.045l6.469,10.398L288.555,79.56z M478.34,132.876l-7.675-6.348l-1.672,5.275
			C471.993,132.335,474.854,132.868,478.34,132.876z M449.326,154.1c-0.958-1.188-2.305-2.631-2.582-2.152l-1.274,2.197
			L449.326,154.1z M229.518,300.413l21.604-6.391l6.165-12.055l8.984-26.219c2.505-7.309-2.404-9.329-0.634-13.67l-10.966-2.413
			c-8.572,4.817-17.123,8.086-26.933,10.947c5.113,2.172,8.414,4.817,10.624,9.076l5.044,9.72l-2.049,6.454l-8.146,16.62
			C231.888,295.184,229.643,297.61,229.518,300.413z M395.054,341.698l-0.082,11.775l-0.301,8.081l6.844,3.101
			c3.214,1.457,5.977,3.097,9.012,5.34l-3.697-9.955l-0.398-7.726c-0.126-2.438-0.548-4.039,0.492-6.08
			c0.731-1.435,0.537-2.898,0.898-4.603l1.651-7.794l4.072-14.56l-18.127-15.234l-2.805-3.099l-7.486-6.984l-4.951-5.95
			c-4.642-4.079-8.984-7.659-11.479-13.44l-6.488-2.211l-4.711-1.263c-8.135-2.181-15.2-4.79-22.871-7.878
			c-8.485-3.415-16.801-6.158-25.171-10.245l-4.955-1.576l-16.01-4.375c-6.784-1.854-12.546-4.241-19.723-5.34
			c-0.131,5.348,3.451,4.904,2.132,10.881c-0.688,3.117-1.647,5.024-2.991,7.752c-3.556,7.216-5.295,15.095-8.277,22.515
			l-5.5,13.681c-2.295,0.268-4.061,0.604-5.818,1.174l-11.384,3.695l-10.647,3.68l-4.569,4.966l-5.064,6.989
			c7.85-2.53,14.037-3.083,21.297-4.334l19.627-3.383l18.062-0.974l13.413-0.728c9.595-0.52,18.338,0.115,27.893,0.59l21.528,1.068
			l7.837,1.08l11.245,2.267c6.668,1.344,13.399,1.925,19.706,4.523c5.482,2.259,12.494,4.398,17.145,5.45
			c0.922,0.208,2.519,1.588,2.285,2.087l-1.133,2.413L395.054,341.698z M157.077,271.712c-4.289,0.514-6.479,1.396-8.912,3.847
			l-14.892,14.999l-10.476,11.321l-10.996,11.487l2.457,10.83c1.375,6.06,5.686,15.154,10.655,18.84l9.065,0.224
			c6.502,0.16,12.271,0.59,18.577,0.172l11.169-0.74c14.129-0.937,35.167-5.55,43.311-16.528l5.094-6.867l12.952-18.349
			c4.104-5.813,7.014-12.297,9.858-18.687l4.644-10.432c-0.112-3.865-3.008-8.176-4.52-11.922
			c-2.101-5.207-10.731-5.522-9.732-6.958l1.6-2.301l-10.105,3.612l-25.127,8.584l-9.017,2.324l-10.419,3.244
			c0.605,0.699,1.189,1.234,1.072,1.552l-0.618,1.68l-1.725,5.558l-0.167,10.699c4.271,0.992,3.065,5.76,7.908,8.358l0.157,1.932
			c-2.913,0.028-4.682-0.969-6.344-3.71c-1.172-1.932-6.876-1.949-10.427-0.874c-3.798,1.15,0.217,7.149-2.717,9.498
			c-1.795-2.314-2.078-3.425-3.483-7.035l-4.484,5.325c-0.505,0.599-1.592,1.608-2.202,1.966c-0.488,0.287-1.539-0.363-2.637-1.176
			c3.643-5.786,9.771-7.453,10.444-12.498l-0.13-8.209L157.077,271.712z M167.001,289.56c-0.469-5.446-0.301-10.172,1.164-14.878
			l1.606-5.156l-9.487,2.524l-0.993,18.605L167.001,289.56z M330.936,413.214l-5.38-10.021c-4.59-4.081-11.599-4.229-17.095-1.7
			c-1.472,0.678-3.108,0.2-4.398-0.626l-10.248,3.773l-11.614,3.113c-4.005,1.074-7.057,1.48-10.97,2.813l-11.351,3.867
			c-3.479,1.185-6.786,0.918-10.58,1.449l-13.036,1.825c-3.944,0.552-7.436,1.741-11.314,1.687
			c-5.928-0.082-12.311,1.211-18.024-1.229l-8.728-3.727c-4.33-1.849-5.899-6.634-5.655-10.894c0.24-4.196,2.803-7.368,6.433-9.851
			c3.934-2.691,7.985-5.989,12.624-7.34l19.823-5.773l7.867-2.083l12.912-2.188l10.721-1.148l32.18-3.795l18.674-1.471
			c6.211-0.489,12.208,0.175,18.303,1.271c6.128,1.101,12.52,0.987,18.257,2.68c8.867,2.617,17.105,6.35,24.196,11.64
			c5.07,3.782,6.869,8.992,8.019,14.751c0.709,3.548,1.142,6.753,0.344,10.322c-2.176,9.727-1.868,17.023-11.214,23.907
			l-7.028,5.177c-0.596,0.439-2.386,1.09-2.515,1.774l-0.497,2.631c-4.605-0.373-8.291,1.639-12.363,3.365l-7.338,3.111
			l-10.047,4.199c-2.956,1.235-6.835,2.285-8.996,4.293c-0.166,0.712-0.656,2.924-1.167,2.61l-2.523-1.551l-11.264,3.793
			l-8.97,2.364l-9.572,2.441l-9.001,2.844l-30.067,5.951l-16.558,3.06c-1.87,0.346-4.179,0.075-6.194-0.101l-14.957-1.302
			c-8.481-0.738-15.904-2.214-24.301-3.622l-15.384-2.581c-14.267-2.393-26.405-7.673-38.945-14.421
			c-2.756-1.483-11.378-3.752-16.682-8.856l-4.458-4.29l-3.613-4.889l-3.558-5.406c-1.424-2.164-2.589-6.216-3.238-8.651
			l2.222-16.266c0.555-4.063,3.78-8.307,5.293-12.42c1.807-4.909,4.321-8.685,8.135-12.253c3.876-3.627,7.239-8.671,11.888-10.996
			l10.605-5.303l13.336-6.015l11.526-5.064l10.278-4.096c2.401-0.957,4.383-1.545,6.916-2.243l12.139-3.343l28.109-7.783
			l36.149-6.629l17.356-2.839l11.179-0.249l10.303-0.91c8.097-1.606,15.19-2.381,23.433-1.339l14.082,0.297
			c8.912,1.144,17.228,3.024,25.761,5.569l5.732,1.709l9.713,2.294c5.721-3.177,10.623-7.39,14.185-13.098l-12.054-4.678
			l-6.038-2.332l-8.399-2.016c-8.322-1.997-16.512-4.346-25.048-4.625l-14.1-0.462l-15.122-0.976
			c-9.008-0.581-17.924-0.541-26.995-0.074l-15.001,0.772l-12.88,1.149l-15.408,3.003l-8.968,0.906
			c-4.949,0.5-9.99,2.7-14.334,4.854l-2.46-0.21c-1.152-0.098-4.907,10.165-8.831,12.416l-8.63,4.95
			c-6.574,3.771-14.489,5.321-22.105,6.17l-12.174,1.357l-8.754,0.645c-1.738,0.128-3.473,0.134-5.201,0.569
			c-2.651,0.668-4.892,0.203-7.549,0.163l-15.86-0.243c-1.21-0.019-3.161-1.395-4.374-2.731l-11.625,4.548l-4.298,2.457
			l-9.827,5.999l-12.782,9.032c-3.288,2.323-8.284,4.777-9.011,9.246l-1.378,8.466c-0.689,4.233-2.405,6.877-5.648,9.582
			l-3.473,6.84c-2.002,3.943-3.005,8.501-3.7,12.616c-1.352,8.004,0.915,20.684,4.844,27.576l3.509,6.155l6.211,7.363l12.092,12.633
			l7.737,7.208l12.122,9.668l10.456,5.941l9.634,3.803l23.195,6.723l15.593,3.296c12.351,3.373,24.532,5.383,37.226,7.153
			c9.547,1.331,18.126,1.29,27.84,0.766l9.006,0.413l12.5,0.012l12.881-0.534l15.794-2.326l20.647-5.603l33.289-12.483l32.199-14.07
			l18.885-11.068l13.228-9.426c10.01-7.134,25.529-31.025,27.253-39.973c1.523-7.9-0.039-15.869-1.657-23.48
			c-2.983-3.208-4.697-6.486-5.153-10.595c-6.779-7.635-14.713-13.627-24.149-17.275c-0.914,0.089-2.502,0.146-2.755-0.403
			l-0.912-1.982l-6.307-2.589l-6.937-3.054c-0.724,1.847-1.15,2.801-1.616,3.416c-0.427,0.563-2.475-0.425-2.315-1.093
			c0.237-0.988,0.846-2.699,0.319-3.181c-3.574-3.265-24.802-5.82-34.456-7.242l-16.242-2.393l-8.138-0.321
			c-5.483-0.216-10.38-0.572-15.806-0.035l-7.522,0.745l-17.117,0.415l-6.094,0.542c-10.9,0.97-21.246,3.596-31.696,6.368
			l-13.761,3.65c-16.964,4.5-33.862,8.606-49.895,15.763l-7.931,4.166c-7.352,3.862-14.266,8.462-18.918,15.499
			c-1.684,2.548-2.124,5.835-2.677,8.831c-2.094,11.339-1.079,23.57,4.781,33.747c1.927,3.347,5.596,6.156,7.877,9.226
			c2.337,3.144,6.344,3.905,9.006,6.021c8.008,6.367,16.573,9.791,26.929,10.9c14.649,1.569,28.999,3.664,43.809,2.383
			c18.381-1.591,35.86-5.369,53.23-11.531l17.215-7.901c10.112-4.641,22.114-11.538,23.698-22.768L330.936,413.214z M97.716,352.12
			l5.324-3.361l5.083-2.915l10.854-4.523l-4.937-9.752c-2.229-4.403-3.188-9.869-4.973-14.77
			c-6.112,6.158-12.319,11.962-19.785,16.696l-18.547,11.759c1.126,4.942,4.176,9.523,3.866,14.407l-0.51,8.023l3.957-1.955
			L97.716,352.12z M124.304,451.322l0.927-6.183c0.866-5.78,7.366-14.947,13.343-18.228l-0.664-12.759
			c-0.228-4.371,1.314-9.248,1.788-13.555c0.673-6.115,3.621-10.716,8.311-14.424l6.253-4.944l5.929-3.82l12.898-6.593
			c6.109-3.122,12.688-5.101,19.305-6.941l23.436-6.518l9.965-2.475l14.036-3.931c5.563-1.558,11.318-3.341,16.959-4.005
			l18.293-2.155l17.639-0.451l6.822-0.744c4.697-0.512,8.87-0.142,13.629-0.015l8.876,0.238l23.214,3.163l12.414,1.709l8.956,1.591
			l7.075,2.43c0.966-3.701,1.39-7.233,0.837-11.241l-10.386-3.208l-17.382-4.801l-14.146-2.186l-23.343-0.708
			c-4.551-0.138-9.586,1.64-14.122,1.94l-7.65,0.506c-9.995,0.661-19.366,1.255-29.255,3.099l-20.894,3.896l-14.625,2.796
			l-19.864,5.548l-9.925,2.793l-12.883,3.715c-5.33,1.537-10.35,4.754-15.513,6.772l-7.669,2.997l-7.956,3.78
			c-4.45,2.114-8.62,2.906-13.019,5.822c-3.147,2.085-8.636,2.851-9.87,7.217c-1.033,3.655,1.015,8.333-2.303,12.01l-0.425-9.761
			l-2.956,2.955c-0.455,0.455,0.031,2.079-0.041,2.737l-1.152,10.534l0.142,4.377c0.095,2.907,0.543,5.406,0.09,8.02
			c-3.272-7.455-1.611-14.632-1.269-22.261c-2.181,2.2-5.474,5.951-5.565,9.209l-0.355,12.618c-0.733,0.096-2.314-0.041-2.476-0.634
			l-0.839-3.078c-3.205,10.349-4.298,18.963,0.891,27.605c2.228-3.852-0.97-5.866-0.355-10.772l1.16-9.239
			c0.663,1.921,0.718,2.501,0.899,3.836l0.995,7.358C114.228,439.868,111.767,442.145,124.304,451.322z M388.527,340.35
			c-0.017,3.437-0.437,6.653-1.265,10.3c0.65,0.533,2.413,1.724,2.246,2.602l-0.665,3.497c-0.11,0.576-0.194,1.766,0.227,1.998
			c0.421,0.232,1.753,0.122,1.783-0.355l0.116-1.84l0.626-26.327l-7.391,7.406l-0.126,14.889c3.857-5.749-1.121-13.613,4.48-18.618
			L388.527,340.35z M377.9,354.089c0.051,0.429,2.155,1.382,2.237,0.957l0.435-2.236c0.837-4.308,2.164-8.472-0.465-13.001
			C377.638,342.587,377.384,349.785,377.9,354.089z M385.218,357.291c0.902-1.168,0.919-3.678-0.942-3.877L385.218,357.291z
			 M326.28,399.013c2.795,1.822,4.511,6.351,5.901,9.208c12.064-5.251,18.506-0.419,28.66,5.779l2.314-0.155
			c1.691,3.963,5.977,7.22,6.116,6.843c0.137-0.371,0.6-1.704,0.629-2.139l0.53-8.001l1.492-16.68l0.847-6.174l-4.35-3.555
			c-1.756,6.915,0.684,13.528-2.433,20.622l-2.561-1.394l1.594-9.385c0.402-2.364,0.109-4.908-0.064-7.499
			c-0.181-2.727-0.547-4.839-3.528-5.849c-4.66-1.579-9.979-5.044-14.642-5.585l-15.11-1.753l-8.925-0.835
			c-6.09-0.569-12.49-0.55-18.441,0.132l-22.075,2.531l-16.487,1.972l-13.593,1.545l-13.949,2.592l-18.53,5.57l-0.682,7.913
			l-0.946,0.052l-0.231-7.016c-2.804,0.26-6.001,1.021-8.133,1.954l-0.256,4.258c-0.177,2.941-0.908,6.588-0.081,9.233
			c0.231,0.737,1.549,2.689,0.833,2.855l-2.718,0.633l-0.049-15.039c-3.372,0.747-4.823,3.028-5.014,6.388l-0.572,10.06
			c-0.257,4.515,5.249,8.072,9.45,8.178c7.197,0.183,14.202,0.575,21.052-0.369l23.106-3.183c6.814-0.939,12.795-4.17,19.336-5.828
			c9.554-2.422,18.452-4.584,27.749-8.501C306.399,396.76,321.242,395.729,326.28,399.013z M376.108,425.49
			c1.778-4.629,2.531-11.01,3.452-15.97c0.618-3.33,0.856-5.509,0.109-8.58c-0.97-3.992-1.999-7.407-4.489-10.913
			c-1.979,6.065-1.257,10.485-0.903,16.108c0.469,7.456-4.353,15.602-1.569,23.517C373.799,428.363,375.596,426.483,376.108,425.49z
			 M199.776,401.555c-0.061-1.692-0.25-2.987-0.737-3.777c-3.532,4.708-4.044,10.378,1.123,14.477L199.776,401.555z
			 M351.356,426.378l12.047,1.925c1.35,0.216,5.082,1.848,4.784-0.427c-0.693-4.385-4.427-8.466-7.835-10.631l-8.36-5.311
			c-5.74-3.647-12.843-4.169-18.861-1.688l0.917,7.693l0.885,7.422l7.924,0.289L351.356,426.378z M71.267,500.563
			c-2.183-5.26-2.948-9.751-3.537-15.014l-0.967-8.643c0.291-3.582-0.181-7.129-1.36-10.425l-0.765-14.119
			c-0.124-2.294-0.763-4.638-1.858-6.452l-2.868-4.75l0.171,11.901l0.735,8.362l1.076,10.149l1.221,8.982l0.831,14.87
			c0.317,5.663,2.681,9.861,6.169,14.244l5.527,6.944l13.553,11.285c5.333,4.44,11.727,7.693,18.23,10.222l13.008,5.058
			c4.095,1.592,7.686,2.679,11.971,3.964l10.006,3.002l14.27,3.615l14.567,2.696l18.28,3.385l13.493,2.448
			c1.25,0.227,4.085,0.583,5.405,0.553l20.683-0.484l5.825-0.342l24.238-2.522l11.334-1.882c11.147-0.846,21.469-3.15,32.25-5.979
			l8.96-2.352c6.76-1.774,13.744-3.194,19.924-6.331l13.004-6.601l13.386-7.553l10.075-5.607l8.275-4.966
			c0.443-0.266,1.994,0.094,2.203-0.315l0.972-1.903c5.185-2.977,9.674-6.626,13.897-10.86l6.37-7.137l4.966-5.501l4.1-4.3
			c2.064-2.165,6.297-4.37,7.04-7.607l2.708-11.805l2.242-11.191l2.779-13.85c1.483-7.392,3.749-14.387,3.155-22.203l-5.377,9.409
			c0.081,2.087-0.358,4.608-0.779,6.952l-3.427,19.106c-1.004,5.6-1.658,10.905-5.077,16.181l2.346-14.354l2.725-13.188
			c0.469-2.271,0.539-4.881,0.452-7.686l-6.11,8.608l-2.25,13.195l-1.893,8.97c-2.038-4.301,1.877-10.903,0.649-17.839l-6.172,5.102
			c-25.008,20.672-52.022,30.94-82.071,42.145l-22.311,8.32l-11.74,3.111l-10.389,2.51l-10.318,1.214l-15.753,0.673l-7.442,0.08
			l-8.593,0.085c-4.531,0.045-8.512,0.463-13.094,0.325l-11.998-0.362l-11.366-1.588l-9.539-1.611l-16.476-3.15l-23.233-5.32
			l-22.705-6.48c-3.625-1.035-7.465-2.382-10.682-4.227l-12.385-7.102L87.13,472.242l-9.144-8.696l2.831,21.868
			c0.539,4.165,1.006,7.981,0.535,12.518c-2.735-2.401-1.409-4.844-1.78-7.16l-2.411-15.022c-0.53-3.302,0.097-5.558-1.52-8.446
			l0.088-5.995l-7.39-8.451l-0.446,11.326l1.478,11.169c0.583,4.402,1.209,7.908,1.909,12.373l1.419,9.058
			C72.867,497.857,72.192,499.663,71.267,500.563z M356.593,441.067l12.697-8.283c-3.721-1.745-6.907-1.631-10.347-2.516
			c-4.764-1.226-9.427-2.283-14.197-2.349l-10.357-0.143l-1.674,9.692l8.052,0.885l7.616,0.855L356.593,441.067z M327.74,453.653
			l1.751-9.455l0.601-6.737l0.858-9.236l-5.65,7.512c-1.524,7.146,1.547,12.27-1.086,19.579L327.74,453.653z M133.916,455.611
			l6.983,2.649l-1.018-10.135l-0.179-7.096l-0.551-11.104c-6.88,4.776-13.001,16.16-10.288,22.457
			C129.421,453.673,132.475,455.065,133.916,455.611z M320.967,456.741c1.104-6.399,1.195-12.074,0.826-18.037l-7.912,4.523
			l2.59,0.874c0.443,0.15,0.134,1.839,0.197,2.334l0.782,6.185l-1.796,1.188c-0.435,0.288-1.605-1.072-1.689-1.591l-1.358-8.353
			c-21.739,11.815-44.249,18.253-68.077,21.486l-9.882,0.937c-11.287,1.07-22.591,0.338-33.861-1.147l-16.551-2.181
			c-7.737-1.019-13.834-5.326-20.067-9c-6.27-3.696-11.441-7.045-15.931-12.843l-5.218-6.739l0.058,15.781
			c0.013,3.528,2.324,7.27,2.004,7.731l-1.593,2.298c13.286,7.391,29.767,10.659,44.927,12.151l13.656,3.097l12.017,1.007
			l7.628,0.87c6.707,0.765,13.37,0.999,20.125-0.367l11.834-2.393l15.675-3.125l7.529-1.335l28.614-8.008L320.967,456.741z
			 M353.229,442.983c-4.509-1.381-6.41-1.892-9.48-2.059l-10.9-0.591c-1.209,3.547-1.176,7.869-0.723,11.607l15.324-6.415
			L353.229,442.983z M414.151,514.313l-1.93-3.568l0.732,13.444l0.458,10.023c-0.645-0.381-1.877-1.223-2.193-1.502
			c-0.142-7.412-0.745-13.753-1.966-20.653c-2.728-3.389-1.034-7.712-7.185-7.136c-0.604,4.613-0.964,9.43-0.404,14.012
			c0.578,4.731,3.005,9.265,0.087,14.446l-3.287-21.029l-0.566-6.222l1.204-1.655c0.215-0.296-1.095-0.915-1.047-0.824
			c-7.811,8.758-17.68,15.384-27.794,20.66c0.768,4.377,0.068,8.421-0.165,12.764l-0.646,12.026l-0.795,6.031l-0.487,16.845
			l-2.07,16.909l6.444-2.741c3.615-1.538,6.333-3.999,9.368-6.308c8.155-6.206,14.829-12.804,21.185-20.876l4.916-6.243
			l5.621-15.514c1.847-5.098,3.05-9.958,3.29-15.329C417.061,518.722,415.673,517.128,414.151,514.313z M121.844,606.768
			l-1.898-16.591l0.311-6.239c-1.484-11.212,2.398-22.204-1.584-33.304c0.627-3.266-0.326-6.162-3.929-7.075
			c-5.348-1.355-10.509-3.545-15.339-6.281l-10.604-6.006l-9.38-6.223c-1.562,1.284-4.963,4.256-4.82,6.341l0.902,13.134
			l1.055,9.037c0.59,5.055,0.606,9.872,0.1,14.901l0.805,4.528c0.645,3.627,2.678,8.195,5.519,10.488l8.417,6.79l4.873,4.069
			C103.105,600.044,112.905,605.029,121.844,606.768z M123.54,553.685c-0.021,5.653,2.857,7.454,5.985,10.491
			c1.804,1.752,3.61,4.594,6.033,5.774c0.602,0.293,2.622-0.03,2.798,0.54l0.833,2.693c9.712,5.862,20.722,9.107,31.704,11.76
			c8.517,2.057,16.578,2.164,25.17,3.477l10.256,1.567l11.428,2.155l15.611,2.303c10.397,1.534,20.435-0.608,31.029-1.904
			c12.882-1.576,24.612-6.211,36.785-10.32l12.163-4.105c3.961-1.337,6.623-2.34,10.33-4.148l17.648-8.604
			c5.756-2.807,13.118-4.723,16.485-10.421l3.84-6.499l3.931-7.72c1.156-2.269,0.779-6.051,1.284-8.386
			c0.506-2.345,1.095-3.756,0.393-6.259l-22.391,12.763l-12.453,6.318l-11.08,3.787l-10.658,2.931l-17.266,4.535l-19.305,3.109
			l-18.236,2.666l-14.211,1.562l-10.927,0.843l-19.033,0.622c-2.235,0.073-4.501,0.33-6.676-0.066l-11.838-2.157l-11.834-1.944
			l-21.926-4.221l-6.264-1.329l-7.575-1.93c-4.651-1.185-8.32-2.588-13.103-3.698l-9.654-2.241L123.54,553.685z M75.483,565.818
			l-1.996-16.738l-1.869-12.593c-2.581,3.758-2.835,8.027-2.382,12.615c0.635,6.435,1.17,11.867,4.497,18.348L75.483,565.818z
			 M346.314,565.431l-13.959,6.676l-12.435,6.03l-21.563,7.257l-14.029,4.728l-11.272,3.004l-12.131,2.005l-13.767,1.624
			c-11.797,1.392-23.15-0.927-34.504-3.358l-6.551-1.403l-4.599-0.649l-9.768-1.312l-8.355-0.582
			c-12.913-0.899-25.16-5.211-37.026-9.91l-7.798-3.088l0.039,12.315c0.008,2.569,2.055,5.28-0.347,8.096l-1.759-9.639L135.9,573.75
			l-6.073-4.021l-0.901,10.668l0.843,8.403c0.384,3.834,0.431,7.207-0.163,11.17l-0.341,2.279c-0.062,0.416-1.676-0.332-1.626-0.747
			l0.151-1.233l-0.275-13.002l-0.227-15.814c-0.05-3.504-1.692-6.924-4.379-9.106l-0.29,9.993l0.46,11.014
			c0.179,4.278,0.711,7.664,0.962,11.868l0.432,7.229c0.106,1.779-0.414,6.363,1.251,7.1l6.967,3.083
			c4.844,2.144,9.323,3.82,14.432,5.071l8.176,2.003l19.261,3.272l7.446,1.005l13.917,2.026l25.545,0.048l11.204-0.189
			c3.898-0.066,7.816,0.278,11.629,0.014c9.558-0.662,19.32-1.807,28.8-3.836l16.607-3.554l14.329-3.537
			c10.161-2.508,19.378-6.495,28.965-10.679l30.127-13.148c-0.913-2.358-0.313-3.63,0.825-5.523
			c0.833-1.386,0.822-4.645,0.963-6.528l0.896-11.994l0.588-11.498l1.374-9.247c0.036-0.244-0.744-1.334-0.932-1.508
			c-0.171-0.158-0.353-0.139-0.441,0.103c-1.695,4.623-4.934,7.94-5.362,16.195l-0.37,7.132l0.756,11.102
			c-1.176-0.96-1.565-2.053-1.622-3.004l-0.436-7.322l-0.016-11.222l-12.571,7.426l0.417,0.253c0.578,0.042,2.808,0.658,2.924,1.497
			c0.097,0.699-0.01,2.007-0.123,3.055l-1.073,9.887c-1.444-0.161-2.159-0.187-2.102-0.51l0.299-1.695
			c0.687-3.889,0.271-8.08-0.35-11.774L346.314,565.431z"/>
		<path d="M367.701,641.197l-1.485,0l0.533-0.692c0.113-0.165,0.577-0.815,0.574-0.8
			C367.319,639.721,367.577,640.707,367.701,641.197z"/>
		<path d="M144.981,260.187c0.199,0.119-1.045,1.522-1.575,1.324c-3.085-1.155-7.894-8.453-3.528-11.458
			C141.418,248.994,140.152,256.288,144.981,260.187z"/>
		<path d="M72.276,508.215c-1.166-0.699-2.403-2.242-2.073-2.81l1.758-3.023C72.653,505.174,72.639,506.3,72.276,508.215z"/>
		<path d="M412.322,480.105l-1.211-2.371c-0.18-0.353,1.424-0.533,1.686-0.264C413.146,477.827,413.006,478.301,412.322,480.105z"/>
		<path d="M406.049,469.009c-0.017-0.292,1.405-0.021,1.396,0.271l-0.043,1.465c-0.008,0.292-1.211,0.714-1.228,0.422
			L406.049,469.009z"/>
		<path d="M217.495,398.631l0.842-3.178C218.77,396.454,218.641,397.679,217.495,398.631z"/>
		<path d="M120.297,437.066l1.104,2.463c0.251,0.561-1.455,1.084-2.109,1.025c-0.615-0.056-1.02-1.352-1.041-2.214l-0.163-6.694
			l0.115-14.017l0.322-5.349c3.17,2.365,2.662,6.059,2.287,9.462l-0.85,7.724C119.762,431.269,119.462,435.201,120.297,437.066z"/>
		<path d="M124.808,403.84c-2.986-0.597-2.361-4.129-0.764-6.807L124.808,403.84z"/>
		<path d="M110.951,413.536c0.099-0.209,0.981,0.993,1.173,0.864c-1.536,1.024-2.494,1.914-2.052,0.983L110.951,413.536z"/>
		<circle cx="124.293" cy="394.735" r="0.834"/>
		<path d="M81.391,542.501c-2.991-0.75-1.805-3.552-2.011-5.404l-0.825-7.445c-0.053-0.483,0.252-1.943,0.398-2.399
			c0.143-0.448,1.86,0.529,1.879,1.002L81.391,542.501z"/>
	</g>
</g>
</svg>
