<?xml version="1.0" encoding="iso-8859-1"?>
<!-- Generator: Adobe Illustrator 30.2.1, SVG Export Plug-In . SVG Version: 9.03 Build 0)  -->
<svg version="1.1" id="Layer_1" xmlns="http://www.w3.org/2000/svg" xmlns:xlink="http://www.w3.org/1999/xlink" x="0px" y="0px"
	 viewBox="0 0 484 145.143" style="enable-background:new 0 0 484 145.143;" xml:space="preserve">
<g id="Y2cxJm.tif">
	<g>
		<path d="M0.759,37.306c0.179-1.199,0.356-2.326,0.599-3.469l0.396-1.863l0.368-1.991c0.146-0.787,0.291-2.062,0.605-2.729
			l2.011-4.278c0.456-0.97,0.804-2.321,1.409-3.122l2.268-3.004c0.383-0.507,1.224-1.366,1.823-1.736l2.662-1.646
			c0.521-0.322,1.121-1.04,1.614-1.216l1.995-0.713c3.873-1.383,6.674-1.373,10.709-1.509l1.89-0.064l1.216-0.241l8.725-0.113
			l1.93-0.077l2.701-0.354l3.183-0.24l8.522-0.198c1.486-0.034,2.807-0.116,4.274-0.089c0.808,0.015,1.903-0.177,2.761-0.256
			c2.487-0.229,3.331,0.01,5.241-0.204l2.313-0.259c0.688-0.076,1.344-0.106,1.986-0.136l2.024-0.094l2.29-0.209
			c1.294-0.118,2.655-0.142,3.969-0.03l1.032,0.088c0.98-0.276,1.923-0.418,2.96-0.445l2.828-0.075
			c1.996-0.053,3.234-0.302,4.581-0.129l2.631,0.338c0.268,0.034,0.921-0.262,1.208-0.276l4.72-0.228
			c3.693-0.179,2.962,0.089,6.317-0.232l3.931-0.376l1.731-0.229c0.704-0.093,1.435-0.154,2.108-0.147l3.312,0.033
			c0.411-0.028,1.329-0.313,1.763-0.321l5.429-0.098l1.507-0.027c2.565-0.045,1.364-0.571,4.162-0.776l2.635-0.193
			c2.156-0.158,4.336-0.105,6.489-0.01c2.15,0.095,2.498-0.157,5.479-0.019c0.665,0.031,1.322,0.068,1.974,0.005l2.898-0.281
			l2.293-0.263l2.855-0.298l5.668-0.156l2.573-0.277l2.591-0.289l2.285-0.419l2.066-0.287c0.673-0.093,1.532-0.293,2.173-0.321
			l3.134-0.136c0.864-0.038,1.72-0.028,2.611-0.106l2.302-0.2l1.424-0.125l2.581-0.227l3.634-0.214
			c1.531-0.09,4.143-0.231,5.523,0.011l2.016,0.353c0.907,0.159,2.135-0.111,3.085-0.159l3.952-0.202l5.375-0.3
			c0.564-0.032,1.438,0.071,2.088,0.125l2.303,0.192l3.715,0.322c0.961,0.083,2.153,0.1,3.088-0.012l2.31-0.276l3.145-0.339
			c0.979-0.105,1.885-0.097,2.861,0.017l2.059,0.24l2.583,0.328c3.228,0.41,4.085,0.572,7.611,0.283
			c1.495-0.122,2.864-0.087,4.334-0.122l2.246-0.054l2.527,0.038c3.309,0.05,1.45,0.35,3.836,0.051
			c0.79-0.099,1.753-0.278,2.486-0.304l4.608-0.165c1.697-0.06,2.743,0.431,5.179,0.851l3.173,0.547
			c1.247,0.215,2.843,0.143,4.192,0.076c1.325-0.066,1.583-0.782,3.231-0.377l3.427,0.843c0.627,0.154,1.536,0.24,2.251,0.351
			c3.361,0.52,4.292,0.199,7.192,1.658l2.316,1.165c0.8,0.402,1.613,0.846,2.399,1.295c3.415,1.952,2.734,0.411,5.892,2.898
			l2.58,2.032l1.615,1.263c0.475,0.371,1.808,2.083,2.098,2.705l0.919,1.97l1.223,2.774l0.84,1.148
			c-0.069,0.345-0.416,1.351-0.304,1.734l1.087,3.724l0.812,2.743l0.637,1.887c0.118,0.349,0.174,0.892,0.202,1.307
			c0.023,0.335,0.338,1.12,0.349,1.456l0.148,4.526c0.028,0.851,0.299,1.944,0.134,2.692l-0.324,1.468
			c-0.197,0.201-0.428,0.436-0.197,0.201c0.312,0.883,0.465,1.338,0.5,1.94l0.166,2.847c0.031,0.523,0.197,1.321,0.292,1.901
			l0.333,2.024c0.443,2.691-0.359,2.706-0.237,4.322c0.155,2.043,0.294,2.868-0.577,5.095c-0.71,1.816,0.62,1.763-0.118,4.342
			l0.394,1.754c0.194,0.864,0.398,1.615,0.804,2.332l0.772,1.361c0.169,0.299,0.583,0.812,0.737,1.124
			c1.095,2.22,3.407,2.75,5.392,5.227l1.16,1.448c0.227,0.284,0.776,0.96,1.064,1.168l2.65,1.916l3.551,2.475l2.297,1.69
			c0.71,0.523,1.295,0.957,2.162,1.279c1.816,0.674,0.356,0.749,1.918,1.735l1.772,1.119c2.954,1.866,1.698,1.105,3.878,2.933
			l1.416,1.187l1.252,1.052c0.667,0.561,1.36,1.114,2.109,1.56l1.645,0.979c0.807,0.481,1.71,1.165,2.428,1.801l2.139,1.895
			c0.649,0.574,2.469,0.862,3.24,0.097c-0.454-1.125-0.401-2.7,0.427-3.469c0.244-0.227,1.049-0.514,1.369-0.554l2.364-0.298
			c0.261-0.033,0.792-0.835,1.04-0.776c0.452,0.107,1.181,0.527,1.672,0.894c1.627,1.218,0.542,1.881,1.893,2.612l0.473,0.256
			c0.11,0.06,0.008,0.288-0.07,0.631c0.583,0.758,1.364,1.616,2.278,2.176c0.922,0.565,1.6-1.049,3.647-2.304l2.655-1.629
			c0.667-0.409,1.319-0.744,1.879-1.236l1.708-1.501l1.319-0.927l3.344-2.671c1.128-0.9,2.17-1.839,3.459-2.507
			c0.882-0.457,1.593-1.026,2.343-1.646l2.365-1.955c0.697-0.575,1.405-1.263,2.064-1.892l1.353-1.29
			c0.791-0.754,1.365-1.378,1.278-2.208c-0.03-0.283-0.821-0.404-1.063-0.622l-3.441-3.102c-0.419-0.379-1.273-0.782-1.814-0.965
			l-1.205-0.407l-1.639-0.084c-2.294-0.117-3.104-0.509-4.507-1.612l-1.321-1.038l0.572-0.938c0.045-0.075-0.045-0.364-0.079-0.445
			c-0.034-0.081,0.257-0.061,0.474-0.074l1.817-0.105c3.977-0.231,0.587,0.237,3.274,0.221c2.147-0.013,4.341-0.047,6.235-1.143
			c0.662-0.383,1.461-1.34,2.068-1.956c-0.294-3.444-0.585-3.749-3.577-5.434l-1.259-1.603l-1.083-1.126
			c-0.724-0.752-1.909-2.952-2.902-4.262c-1.136-1.499-3.05-2.289-2.048-3.335c0.404-0.422,1.153-0.405,1.643-0.025l2.466,1.913
			c0.54,0.419,1.236,1.196,1.768,1.512l2.02,1.201c1.862,1.107,3.335,1.778,5.584,1.985c0.339,0.032,2.922,0.082,3.029-1.145
			l0.188-2.153c0.035-0.404-0.114-1.07-0.121-1.435l-0.038-1.945c-0.017-0.884,0-1.737-0.115-2.622l-0.273-2.103l-0.273-2.617
			c-0.043-0.418,0.007-1.011,0.047-1.542l-0.254-1.148l-0.008-1.97c-0.007-1.76-0.24-1.463-0.565-3.903l-0.344-2.584
			c-0.148-1.107-0.352-2.239-0.561-3.361l-0.544-2.925c-0.077-0.416-0.297-1.116-0.339-1.48l-0.366-3.161l-0.142-1.142l-0.313-2.519
			c-0.025-0.201,0.009-0.822-0.128-0.972c-0.462-0.506-0.927-1.928-0.246-2.627l0.385-0.395c0.009-0.01,1.227,0.183,1.465,1.173
			c0.196,0.814,0.528,1.803,0.824,2.572l0.665,1.73l1.314,3.249c0.205,0.506,0.393,1.144,0.553,1.7l0.899,3.121l0.76,2.402
			c0.288,0.911,0.96,1.901,1.385,2.783l1.126,2.335l1.478,3.088l0.922,1.926l0.841,1.736c0.603,1.247,1.302,3.181,1.762,4.56
			l0.337,1.01c0.596,1.786,1.25-0.954,2.379-2.556c0.236-0.336,0.432-1.324,0.7-1.659l1.995-2.495
			c0.188-0.236,0.41-0.606,0.574-0.873l1.535-2.492c0.255-0.414,0.645-1.115,0.658-1.596l0.05-1.796
			c0.082-2.983,2.864-7.017,4.238-5.276c0.252,0.319,0.236,1.227-0.031,1.58c-2.708,3.584-0.633,1.3-1.433,3.16
			c-0.195,0.455-0.619,1.331-0.706,1.767c-0.531,2.662,0.017,3.619,0.45,6.496l0.442,2.935c0.087,0.581,0.404,1.24,0.665,1.849
			c0.321,0.75,0.55,1.746,1.095,2.417c0.399,0.492,1.853,0.362,2.383,0.11l1.624-0.77c0.971-0.46,1.875-1.139,2.664-1.869
			l1.211-1.121c0.267-0.247,1.068-0.719,1.25-1.048l1.599-2.885c0.626-1.127,1.267-1.942,1.877-3.047
			c0.315-0.571,0.818-1.098,1.186-1.605l1.711-2.357c0.263-0.363,0.738-0.825,1.077-1.169l3.132-3.178
			c0.261-0.265,0.6-0.765,0.86-1.102l1.124-1.458c0.632-0.821,1.446-1.676,1.965-2.525l1.432-2.343
			c0.567-0.927,1.274-1.754,1.931-2.632l0.972-1.298c0.744-0.994,1.603-1.739,2.533-2.673c0.81-0.814,2.103-0.36,2.209,0.05
			c0.039,0.151-0.006,0.527-0.086,0.695l-1.118,2.362c-0.372,0.785-0.833,1.627-1.268,2.397l-1.033,1.829l-0.84,1.488
			c-0.947,1.678-1.283,1.867-1.94,3.126l-1.189,2.28c-0.328,0.628-0.642,1.463-0.893,2.181l-0.738,2.111l-0.921,2.888l-0.682,1.798
			l-0.743,2.127c-1.619,4.634-1.337,2.981-2.449,5.514l-0.71,1.618l-0.843,1.733l-0.865,1.779l-0.884,1.651l-0.782,1.457
			c-0.109,0.203-0.087,0.86-0.036,1.064c0.024,0.093,0.575,0.119,0.702,0.079l4.474-1.409c0.916-0.288,1.93-0.4,2.862-0.636
			c2.878-0.729,2.294-0.899,5.403-1.756l1.789-0.493l1.248-0.338l2.074-0.512c1.422-0.351,2.818-0.676,4.098-1.392
			c0.569-0.318,1.36-0.623,2.048-0.5c0.342,0.061,0.948,0.698,0.922,1.026s-0.385,0.911-0.637,1.165l-1.035,1.046
			c-1.63,1.646-1.965,2.467-3.315,2.711l-0.605,1.097l-1.789,1.315c-0.402,0.296-0.952,0.7-1.25,1.014l-1.695,1.787l-1.241,0.969
			l-1.192,1.143c-0.565,0.542-1.208,1.117-1.715,1.667c-0.729,0.792-1.349,1.486-2.168,2.152c-0.376,0.306-0.874,0.749-1.149,1.097
			l-1.138,1.44c-0.261,0.33-0.416,1.186-0.549,1.717c3.121,2.53,3.568,1.312,6.242,2.616c1.129,0.551,2.052,1.152,3.17,1.706
			l2.301,1.141c0.824,0.409,1.584,0.973,2.438,1.25l3.056,0.99l2.945,1.13l1.76,0.754l2.76,1.227
			c0.907,0.403,2.086,1.216,3.636,2.051l4.054,2.183l2.499,1.255c2.024,1.017,4.085,1.526,6.557,1.815L484,92.902
			c-0.337,0.656-1.231,1.074-1.864,0.906l-1.721-0.46c-0.555-0.147-1.223-0.373-1.777-0.441l-2.626-0.324
			c-1.385-0.171-2.879-0.688-4.224-1.116l-2.408-0.765c-2.946-0.936-5.957-1.627-9.086-1.576l-2.208,0.036
			c-1.478,0.024-0.682-0.332-4.963-0.029l-3.089,0.219c-1.664,0.118-2.066,0.261-4.333-0.309l-3.323-0.836l-0.777,0.439l1.623,1.747
			l1.247,1.282l1.448,1.397l2.05,1.955l1.561,1.58l1.593,1.552l2.208,2.085c0.789,0.745,2.119,1.827,2.985,2.35l2.176,1.316
			c0.395,0.239,1.008,0.544,1.513,0.775l2.354,1.078c0.295,0.135,1.921,1.7,1.399,1.898l-0.579,0.22
			c-0.24,0.091-0.885,0.04-1.125-0.061l-1.251-0.528l-2.441-1.033c-0.568-0.24-1.249-0.477-1.857-0.623l-2.309-0.557
			c-1.054-0.254-2.058-0.442-3.108-0.877l-1.784-0.738l-2.9-0.863l-2.54-0.698c-0.406-0.112-1.104-0.404-1.471-0.445l-2.97-0.336
			c-0.914-0.103-2.417,0.098-2.439,1.26c-0.028,1.463,0.735,2.924,1.489,4.111l1.449,2.28l1.088,1.728l0.796,1.231
			c1.579,2.443,0.669,1.287,1.911,3.153l1.398,2.1l1.017,1.585l2.059,3.031c0.37,0.544,0.771,1.175,1.08,1.715l1.465,2.557
			l0.755,1.285l2.135,3.602c1.711,2.888,1.329,1.148,2.739,3.456l1.239,2.029c0.743,1.216,0.434,2.79,0.143,2.83
			c-1.056,0.146-1.688-0.183-2.209-1.11l-1.261-2.243c-1.991-3.541-1.644-1.874-4.098-5.248c-0.577-0.794-0.769-0.42-2.335-1.96
			c-0.631-0.62-1.249-1.307-1.781-1.943c-0.222-0.266-0.847-0.585-1.168-0.837c-0.777-0.609-1.428-1.429-2.234-2.055l-1.252-0.972
			l-1.087-0.953l-1.397-1.201l-2.896-2.461c-0.165-0.141-0.477-0.644-0.62-0.874c-0.453-0.728-0.513,0.116-1.458-0.816
			c-2.981-2.941-0.681-0.565-3.661-2.911l-2.343-1.845c-0.141-0.11-0.655-0.062-0.755,0.059c-0.747,0.903-0.605,4.804-0.349,6.64
			l0.283,2.027l0.131,2.79c0.04,0.834,0.347,1.792,0.376,2.524l0.062,1.549c0.098,2.444,0.089,4.85-0.001,7.3
			c-0.02,0.529-0.026,1.001-0.01,1.548l0.14,4.713c0.009,0.292,0.264,1.012,0.302,1.279l0.154,1.947
			c0.022,0.285-0.351,0.906-0.516,1.119h-1.713l-0.221-1.736c-0.088-0.691-0.271-1.6-0.285-2.236l-0.099-4.571
			c-0.01-0.502-0.48-1.462-0.552-1.912c-0.571-3.587-0.746-4.135-2.15-7.579l-0.674-1.654c-0.178-0.436-0.417-0.992-0.62-1.373
			l-1.208-2.266c-0.136-0.254-0.472-0.701-0.685-0.98l-1.456-1.912c-0.819-1.076-1.419-2.27-2.842-2.547l-0.705,1.013
			c-1.773,1.12-2.139,2.503-3.929,4.954c-0.57,0.781-0.916,1.855-1.371,2.658l-1.555,2.743c-0.359,0.634-0.894,1.392-1.331,2.01
			l-1.315,1.859c-1.141,1.612-1.329,2.78-2.65,2.108c-0.283-0.144-0.81-0.799-0.712-1.076l0.412-1.169l1.039-2.927
			c0.28-0.788,1.095-0.953,1.583-3.728l0.489-2.782c0.109-0.622,0.279-1.352,0.296-1.95l0.058-2.04
			c0.025-0.869,0.022-1.72,0.093-2.608l0.159-1.984c0.258-3.217,1.07-2.988,0.882-5.104c-0.363-4.093,0.897-3.601-0.217-5.771
			l-1.248,0.48c-0.698,0.269-1.934,0.089-2.765,0.016c-2.137,0.931-0.487-0.062-3.387,0.822c-0.939,0.286-1.807,0.631-2.64,1.101
			l-1.626,0.921c-0.223,0.126-0.943,0.212-1.236,0.267c-0.845,1.026-2.158,1.096-3.363,1.219c-1.026,0.794-4.81,2.398-5.999,2.754
			l-3.805,1.14l-1.748,0.557c-1.156,0.369-3.402,2.2-6.38,3.269l-0.959,0.344c-0.223,0.08-0.135,0.976,0.013,1.175
			c1.296,1.741,1.951,2.643,2.705,4.972c0.723,2.232-0.85-0.113,0.8,4.522c0.307,0.863,0.599,2.35,0.662,3.296
			c0.032,0.481-0.651,1.667-1.116,1.687l-1.728,0.076l-3.103-2.357c-0.108-0.083-0.371-0.217-0.481-0.275
			c-0.11-0.058-0.133,0.459-0.129,0.607l0.059,1.96c0.015,0.517-0.056,1.368-0.104,2.065c-0.035,0.504-1.011,1.397-1.505,1.311
			c-0.303-0.052-0.999-0.234-1.208-0.354l-1.762-1.008c0.004-0.006-0.293,0.385-0.362,0.476c0.784,1.166,0.827,3.349,0.193,4.028
			c-1.149,1.231-3.038,1.212-4.603,0.786l-1.834-0.5c-0.268-0.072-0.768-0.407-1.042-0.586c-1.855-1.215-3.322-2.733-3.937-5.024
			c-0.477-0.018-1.383-0.052-1.818,0.062l-3.259,0.856c-0.485,0.127-1.564-0.466-2.086-0.518c-2.426-0.241-6.09,0.279-7.147-1.375
			c-0.403-0.63-0.101-1.965,0.168-2.533l0.527-1.113c0.16,0.06-0.319-0.119-0.468-0.177l-2.113-0.022
			c-1.461-0.015-3.177-2.555-2.358-3.959l-0.216-0.513c-1.065-0.274-2.06-0.633-2.898-1.241c-0.579-0.42-1.387-1.792-1.212-2.451
			c0.137-0.515,0.574-1.611,0.916-1.972c0.538-0.568,1.654-1.416,2.359-1.844c2.947-1.791,1.674-0.593,2.943-1.342l2.18-1.288
			l1.305-0.77c0.003-0.125,0.011-0.391,0.005-0.259l-2.098-0.957c-0.224-0.101-0.833-0.332-1.038-0.469l-4.229-2.832l-1.381-0.929
			l-1.554-1.045c-2.366-1.591-1.269-1.442-4.932-3.048l-2.197-0.963c-0.816-0.358-1.138-1.05-2.862-1.94
			c-2.088-1.078-1.825-1.308-3.74-1.849c-2.214,0.886-3.208-1.999-6.576-1.946l-1.701,0.654c-0.096,0.037-0.465-0.109-0.559-0.157
			c0.104,0.053-0.305,2.671-1.193,3.727l-0.181,1.376c-0.268,2.033,1.091,5.301-1.337,7.051c-1.621,1.168-0.259,1.127-2.796,2.706
			c-3.653,2.274-2.475,1.094-5.196,2.5c-3.89,2.01-1.823,0.577-6.509,2.052c-0.962,0.303-1.906,0.561-2.849,0.751l-1.011,0.204
			l-5.92,1.261c0.561-0.12-4.668,0.848-3.419,0.829l-9.024,0.136c-0.6,0.009-1.268,0.099-1.77,0.03l-2.886-0.397
			c-0.546-0.075-1.134-0.146-1.652-0.144l-2.349,0.01c-0.531,0.002-1.24-0.024-1.724,0.045l-2.287,0.325l-2.004,0.284
			c-6.315,0.896-7.803-0.164-11.976,0.262l-2.888,0.295c-0.519,0.053-1.464,0.331-1.93,0.331l-6.316-0.001
			c-0.419,0-1.04-0.064-1.381-0.021l-2.072,0.259l-2.226,0.158l-2.297,0.268l-2.877,0.319c-0.675,0.074-1.362,0.043-2.04,0.01
			l-3.956-0.19c-0.558-0.027-1.126-0.04-1.725,0.021l-3.015,0.305c-0.286,0.029-1.033-0.15-1.27-0.175
			c-1.045,0.179-2.279,0.213-3.341,0.117l-1.505-0.136c-1.19-0.108-2.488-0.07-3.677,0.026l-2.597,0.21l-2.085,0.184
			c-0.478,0.042-1.426,0.357-1.9,0.359l-5.361,0.028l-1.293-0.251l-4.204-0.101c-0.75-0.018-1.801-0.299-2.527-0.251l-2.336,0.153
			l-1.428,0.093l-2.25,0.153l-2.581,0.274l-2.311,0.245c-0.455,0.049-1.07,0.148-1.455,0.163l-4.814,0.186
			c-1.352,0.053-2.629,0.152-3.947,0.156l-1.199,0.003l-7.824,0.068c-0.324,0.392-0.801,0.837-1.119,0.979
			c-2.667,1.187-2.205-0.28-4.744-0.468c-2.974-0.22-0.222-0.428-3.745,0.241c-1.892,0.359-2.426,0.775-4.237,0.852l-3.186,0.136
			c-1.113,0.047-2.552,0.768-3.619,0.717l-1.807-0.086c-1.072-0.051-2.561-0.606-3.593-0.479l-3.519,0.433l-1.981,0.285
			c-0.505,0.073-1.142,0.066-1.671,0.076l-1.783,0.033c-0.667,0.012-1.362,0-2.034-0.08l-1.914-0.227
			c-0.716-0.085-1.475-0.141-2.166-0.066l-3.606,0.391l-2.843,0.299c-1.305,0.137-2.675,0.35-4.006,0.26l-3.125-0.21
			c-0.891-0.06-2.061-0.106-2.767-0.011l-2.648,0.358l-2.832,0.382c-0.939,0.127-2.162,0.755-3.111,0.678
			c-0.698-0.057-1.19-0.076-1.772-0.037l-2.62,0.175l-1.736-0.039c-0.632-0.014-1.288,0.059-1.936,0.142l-2.324,0.297l-2.587,0.481
			c-0.501,0.093-1.597-0.077-2.203-0.127l-2.62-0.214c-1.175-0.096-2.488-0.104-3.662-0.004l-2.309,0.197l-2.612,0.227
			c-0.501,0.043-1.494,0.299-1.935,0.258l-2.312-0.215l-3.705-0.311l-1.384-0.079c-1.901-0.109-2.103,0.277-3.609-0.273
			l-1.737-0.635c-0.527-0.192-1.178-0.304-1.801-0.442l-4.864-1.074c-0.538-0.119-1.743,0.074-2.215-0.142
			c-1.123-0.515-2.465-1.104-3.67-1.462c-2.852-0.848-3.604-0.417-6.298-2.224c-1.063-0.713-2.36-1.809-3.323-2.71
			c-3.432-3.212-3.525-2.102-5.556-4.087l-1.764-1.724c-0.522-0.51-2.716-1.568-2.503-2.751l0.193-1.072l1.481,0.631l-2.207-4.319
			c-0.625-1.223-1.068-2.555-1.533-3.876l-1.267-3.599c-1.213-3.445-0.503-2.769-1.208-6.479l-0.379-1.993l-0.37-1.815
			c-0.25-1.226-0.514-2.497-0.596-3.652l-0.147-2.075L2.58,79.3c-0.084-0.641-0.178-1.336-0.238-2.003L2.11,74.695l-0.184-2.791
			c-0.033-0.508,0.04-0.984-0.036-1.535L1.509,67.59l-0.122-7.155l-0.262-2.253l-0.093-1.677l-0.056-1.86l-0.037-1.039l-0.152-2.845
			l-0.222-2.55c-0.015-0.164-0.236-0.64-0.259-0.59v-6.559C0.823,40.701,0.438,39.5,0.759,37.306z M149.129,120.866l2.689-0.08
			l2.386-0.086l2.314-0.062l2.546-0.218l5.432-0.148l1.741-0.047c0.93-0.026,2.473-0.339,3.956-0.457l2.309-0.183l3.082-0.228
			c0.812-0.06,1.557-0.006,2.394,0.02l4.792,0.151l1.464,0.028l1.68,0.142l2.523,0.166c0.396,0.026,1.273-0.071,1.712-0.143
			l1.998-0.33c0.731-0.121,1.525-0.14,2.333-0.196l2.863-0.198c3.064-0.212,6.048-0.037,9.124-0.04l1.718-0.002l7.707-0.008
			l1.424,0.012c0.75,0.006,1.571-0.036,2.255-0.119l2.31-0.28l2.293-0.229l2.287-0.199c2.305-0.201,4.508-0.074,6.819-0.018
			c1.007,0.025,2.096-0.185,3.158-0.289l2.598-0.255c2.067-0.203,4.179-0.125,6.252-0.007l1.741,0.099
			c2.792,0.159,2.141-0.367,5.459-0.16c1.814-0.98,3.853-1.212,5.917-0.491c0.567,0.199,1.485,0.015,2.06,0.059l2.268,0.174
			c1.499,0.115,2.765-0.192,3.956-0.014l2.682,0.4c0.326-0.161,0.76-0.318,0.989-0.326l1.204-0.042
			c1.972-0.07,3.809-0.226,5.754-0.535c2.661-0.423,2.072-0.854,4.874-1.344c0.323-0.057,1.108,0.021,1.436-0.073l1.786-0.513
			l1.475-0.318l1.706-0.574c0.618-0.208,1.489-0.583,2.077-0.636c4.913-0.444,3.18-2.205,6.385-2.053l1.277-0.704
			c1.119-0.617,2.673-1.557,3.631-2.197c0.073-1.246,1.684-2.267,1.545-3.62c-0.079-0.771-0.439-1.911-0.4-2.502l0.143-2.167
			c0.03-0.455,0.215-1.017,0.43-1.518l0.934-2.179c0.081-0.188-0.089-0.917-0.114-0.977l1.56-0.694l2.257-1.008
			c0.454-0.202,1.375,0.048,1.939,0.315l2.73,1.293c0.995,0.471,1.907,1.057,2.854-0.108l1.14,0.98
			c0.544,0.468,1.344,0.98,2.009,1.337c2.56,1.376,2.573,1.734,4.636,2.775l2.117,1.068c0.999,0.504,2.002,0.968,2.903,1.68
			l1.703,1.347l2.47,1.581l1.576,1.01l1.574,1.009c0.622,0.399,1.498,0.908,2.148,1.179l2.381,0.992
			c1.279,0.533-0.099-0.558,4.53-0.604c0.599-0.006,1.353-0.86,1.88-1.138c2.481-1.31,3.124-0.915,5.726-3.243l-3.327-1.163
			c-0.401-0.14-1.223-0.688-1.404-1.072c-0.089-1.113-2.756-3.005-3.477-3.373l-1.769-0.903c-0.37-0.189-1.026-0.787-1.365-1.123
			l-2.156-2.136l-1.173-1.147c-0.372-0.364-1.095-0.963-1.519-1.23l-1.611-1.013l-2.13-1.279l-2.92-1.714
			c-0.399-0.234-0.783-0.714-1.186-1.124c-0.578-0.588-1.497-1.165-2.235-1.685l-1.53-1.079l-1.143-0.821l-3.447-2.33
			c-0.618-0.418-1.277-1.551-1.841-2.05c-0.429-0.38-0.852-0.723-1.196-1.086l-1.438-1.52l-1.71-1.062l-1.586-1.837
			c-1.777-2.059-2.067-2.538-2.842-5.238c-0.833-2.903-0.01-1.903-0.237-5.768c-0.16-2.728,0.398-3.863,0.328-5.114
			c-0.068-1.196-0.21-2.186-0.002-3.276l0.377-1.972c0.057-0.298-0.093-1.108-0.149-1.434l-0.436-2.547
			c-0.266-1.549,0.295-2.785-0.01-4.501l-0.396-2.227c-0.12-0.676-0.048-1.377,0.258-1.94l-0.055-3.371
			c-0.013-0.834,0.069-2.198-0.115-2.993l-1.134-4.91c-0.317-1.374-0.797-2.718-1.278-4.084c-0.59-1.677-0.456-2.772-1.343-4.614
			l-1.606-3.334c-0.611-1.269-1.936-2.287-3.017-3.169l-1.287-1.05c-0.984-0.803-2.019-1.664-3.179-2.198l-2.369-1.09l-1.413-0.608
			c-3.218-1.386-3.294-2.743-8.424-3.435l-2.318-0.313c-0.725-0.098-1.436-0.261-2.148-0.42l-3.054-0.684
			c-2.286-0.512-5.147,0.448-7.44,0.098l-2.527-0.386l-1.971-0.335l-2.08-0.45l-2.213-0.419c-0.551-0.103-1.603-0.056-2.19,0.023
			l-2.319,0.313c-0.822,0.111-1.733,0.226-2.553,0.208l-2.598-0.056l-3.201-0.089l-1.08-0.05c-1.047-0.049-2.069-0.014-3.154,0.093
			l-3.157,0.311c-1.26,0.124-2.669,0.101-3.949,0.028l-1.688-0.096c-2.081-0.118-3.925-0.597-5.152-0.651l-3.176-0.141
			c-0.544-0.024-1.193-0.089-1.697-0.013l-3.525,0.531c-1.644,0.247-3.599,0.195-5.253,0.029l-1.828-0.183
			c-0.372-0.038-1.106-0.202-1.475-0.212l-5.074-0.144c-0.556-0.016-1.155-0.039-1.691,0.012l-2.602,0.246l-3.714,0.32
			c-1.407,0.121-3.195,0.281-4.501,0.047l-1.233-0.221l-3.889-0.152c-0.746-0.029-1.408-0.075-2.108-0.017l-2.526,0.21
			c-1.572,0.131-2.286,0.378-3.975,0.468l-2.097,0.111l-1.65,0.098L174.2,3.791c-0.69,0.039-1.526,0.187-2.248,0.289l-5.99,0.845
			l-3.324,0.376c-2.062,0.233-5.01,0.08-8.124,0.34l-3.176,0.265c-0.679,0.057-1.619,0.283-2.233,0.299l-5.184,0.138
			c-1.03,0.027-2.05,0.044-3.1-0.021l-2.629-0.162c-0.449-0.028-1.36,0.157-1.949,0.168l-1.769,0.033
			c-0.949,0.018-2.088,0.139-3.026,0.321c-1.683,0.327-3.192,0.354-4.869,0.59l-1.755,0.247l-1.751,0.124
			c-4.037,0.285-2.856-0.073-6.559,0.219l-2.831,0.223l-2.295,0.185l-2.298,0.185l-3.074,0.207l-2.327,0.103l-2.026,0.103
			c-0.444,0.023-0.918-0.001-1.451-0.003L89.447,8.831l-1.253,0.275l-3.893,0.038l-1.249,0.241l-5.937,0.06l-1.654,0.242
			l-1.848,0.086c-1.527,0.072-2.574,0.344-3.62,0.405l-3.381,0.197l-2.111,0.105l-2.822,0.109l-1.63,0.097l-2.355,0.161
			c-0.939,0.064-1.85,0.085-2.729,0.089l-2.942,0.015c-0.362,0.002-2.622-0.204-3.163-0.248l-4.088,0.624
			c-0.687,0.105-1.564,0.26-2.184,0.287l-3.444,0.148c-0.412,0.018-0.885,0.057-1.228,0.047l-1.049-0.029
			c-1.902-0.053-3.252-0.08-5.197,0.103l-2.252,0.212l-1.432,0.12c-1.534,0.129-3.282-0.099-4.76,0.173l-2.645,0.486
			c-2.525,0.464-3.614,0.511-5.569,1.814l-2.739,1.826c-2.44,1.627-4.019,4.179-5.127,6.891l-0.818,2.004
			c-1.399,3.425-1.265,2.283-2.224,6.311c-0.126,0.529-0.073,1.591-0.216,2.05c-0.198,0.635-0.442,1.284-0.499,1.809l-0.317,2.903
			l-0.297,2.247C2.343,44,3.186,41.08,2.704,44.324C2.326,46.869,2.987,47.86,3.07,50.23l0.177,5.041l0.057,1.228l0.142,2.546
			l0.221,2.254l0.145,8.51l0.332,2.49l0.086,1.855c0.036,0.773,0.046,1.738,0.178,2.419l0.973,5.029
			c0.113,0.582,0.078,1.56,0.139,2.208l0.191,2.022c0.067,0.708,0.127,1.396,0.238,2.045l0.271,1.586l0.501,2.942l0.053,0.318
			l0.18,0.472c0.531,1.397,0.56,3.203,1.07,4.614l1.669,4.615l0.529,1.422c1.072,2.88,1.471,3.357,3.046,5.83
			c0.299,0.468,0.636,1.432,1.011,1.771l1.217,1.101l-0.365,1.229l2.433,1.108c1.819,0.829,2.927,2.831,3.704,3.296l2.729,1.632
			c3.218,1.925,2.123,0.555,4.993,1.818l1.572,0.692l1.684,0.658c0.584,0.228,1.58,0.365,2.327,0.455
			c3.79,0.457,2.381,1.201,4.35,1.057c2.387-0.175,1.573,0.733,4.606,1.244c2.972,0.5,0.329-0.032,2.304,0.181l1.857,0.201
			l2.571,0.277l2.871,0.311c0.856,0.093,1.729,0.149,2.566,0.009l3.221-0.538c1.479-0.247,3.227-0.257,4.79-0.105l2.258,0.22
			c1.219,0.119,2.498,0.052,3.649-0.062l2.15-0.212c0.374-0.037,0.981-0.279,1.503-0.422c0.904-0.248,2.195-0.029,3.144-0.034
			l2.126-0.01l2.371-0.011c3.547-0.016,4.385-0.815,5.29-0.93l1.793-0.228c1.681-0.214,3.112-0.316,4.803-0.209l3.201,0.202
			c1.24,0.078,2.441-0.097,3.704-0.241c0.944-0.108,2.156-0.105,2.944-0.244c0.308-0.054,0.99-0.38,1.272-0.408l2.412-0.24
			c1.072-0.107,3.59,0.607,4.024,0.591l1.303-0.047l4.036-0.089c0.709-0.016,1.788-0.355,2.546-0.463l1.792-0.254
			c4.99-0.708,4.501,0.855,8.624-0.182c1.797-0.452,3.571-0.357,5.637-0.644c2.638-0.367,2.024-0.486,3.804-0.766
			c2.336-0.368,0.406-0.426,1.941-0.317l1.972,0.14c1.209,0.086,2.453,0.871,2.591,0.522l0.21-0.53
			c0.016-0.043,0.429-0.289,0.513-0.29L149.129,120.866z M385.449,107.693c0.922-0.286,1.823-0.727,2.721-1.231
			c2.67-1.497,2.768-0.751,6.73-2.714c0.902-0.447,1.925-1.169,2.837-1.321c1.076-0.179,3.113-0.518,3.748-1.156
			c1.694-1.701,1.974,0.703,4.202-1.825c0.317-0.208,1.471-0.34,1.821-0.141c0.745,0.425,1.013,1.886,1.29,2.701
			c0.329,0.97,0.359,1.702,0.328,2.711c-0.026,0.839-0.012,1.614-0.209,2.481c-0.098,0.433-0.105,1.015-0.158,1.431
			c-0.599,4.704-1.226,4.469-1.213,10.216c0.001,0.582-0.018,1.46-0.106,2.006l-0.323,2.008c-0.092,0.574-0.123,1.097-0.12,1.834
			c2.127-2.529,1.3-3.03,2.889-5.346l1.074-1.565c1.256-1.831,1.516-1.463,3.117-2.948c0.532-0.492,2.203-0.843,2.794-0.203
			c0.668,0.723,1.276,1.471,1.817,2.214l2.058,2.829c0.313,0.431,0.625,0.912,0.871,1.388l1.562,3.022
			c1.285,2.485,0.843,1.684,1.626,4.097l0.769,2.369c0.245-0.057,0.659-0.171,0.24-0.168l-0.091-5.528
			c-0.008-0.509-0.306-1.514-0.378-2.1l-0.403-3.263l-0.233-2.076c-0.065-0.58-0.199-1.424-0.186-1.89l0.066-2.352
			c0.027-0.955,0.264-1.796,0.897-2.512l1.102-1.246c0.692,0.264,1.609,0.606,2.03,0.892l1.42,0.965
			c0.527,0.358,1.138,1.03,1.634,1.42l2.886,2.266c0.424,0.333,0.859,0.698,1.239,1.059l1.62,1.54
			c0.327,0.311,0.703,0.644,1.048,0.937l3.095,2.626l1.357,1.201l2.443,2.128l1.997,1.741c0.473,0.412,0.973,0.996,1.493,1.317
			l1.788,1.103c-0.289-0.833-0.485-1.539-0.701-1.898l-1.467-2.44c-0.089-0.147-0.526-0.537-0.6-0.669l-1-1.786l-2.035-2.577
			c-1.92-2.432-0.478-0.964-2.312-3.363c-0.431-0.563-0.839-1.093-1.206-1.672l-1.548-2.443l-0.767-1.26l-1.339-2.004l-1.438-2.312
			c-0.282-0.452-0.596-1.159-0.875-1.7c-0.944-1.834-1.209-3.506,0.857-4.87c0.51-0.337,1.387-0.412,1.944-0.205
			c0.349,0.129,1.308-0.236,1.687-0.153l3.389,0.738l2.079,0.516l1.936,0.573l2.639,0.841l2.799,0.911
			c0.296,0.096,0.874,0.012,1.252-0.107l-2.487-2.521l-0.894-0.653l-3.189-3.063c-0.269-0.259-1.149-0.597-1.36-0.93
			c-0.599-0.946-1.647-1.628-2.527-2.325l-1.761-1.395l-2.306-1.7l-0.751-1.779c0.049-0.592,0.454-1.801,0.788-2.331
			c1.053-1.673,3.119,0.849,5.175,1.119l2.596,0.341c0.823,0.108,1.955,0.07,2.79-0.015l2.33-0.238
			c2.579-0.263,3.084,0.063,4.364-0.126c4.302-0.634,0.771-0.082,3.939-0.025c0.523,0.009,1.037,0.016,1.457,0.087l1.36,0.23
			c0.985,0.167,1.991,0.522,2.989,0.814l2.508,0.735l2.171,0.68c2.188,0.685,1.849,0.717,3.916,0.54
			c-1.61-0.638-2.833-1.187-4.186-1.998l-1.985-1.19c-0.482-0.289-1.105-0.711-1.534-0.924l-1.599-0.795
			c-1.196-0.595-2.354-1.351-3.628-1.756l-3.728-1.183c-0.642-0.204-1.247-0.487-1.87-0.673l-3.173-0.947
			c-0.693-0.207-1.72-1.083-2.445-1.418l-2.361-1.091l-1.796-0.822c-2.177-0.996-1.916,0.287-3.801-0.939
			c-1.446-0.941-2.947-2.617-3.363-4.42c-0.139-0.603,0.711-1.612,1.178-1.978l2.595-2.038c0.332-0.261,1.038-0.668,1.301-0.926
			l5.358-5.25l1.376-1.141l2.197-2.146c0.961-0.939,2.44-2.543,3.047-3.774c-2.788-0.133-1.179,0.149-3.289,0.69l-3.502,0.898
			c-0.329,0.084-0.949,0.355-1.342,0.516l-1.637,0.668l-2.029,0.833l-2.631,0.865l-2.139,0.793
			c-1.867,0.693-3.932,1.779-5.742,1.218c-0.879-0.273-1.456-1.714-0.934-2.541l1.001-1.584l1.005-1.603
			c1.52-2.424,1.026-1.901,2.34-4.224l0.932-1.648l0.998-1.889c1.158-2.192,1.79-4.983,2.629-7.335
			c0.253-0.708,0.508-1.387,0.714-2.092l1.108-3.794l0.732-2.123c0.172-0.499,0.45-1.23,0.639-1.6l1.463-2.867
			c0.489-0.96,1.106-1.874,1.726-2.865c-0.153-0.304-0.325-0.647-0.219-0.436c-0.569,0.805-0.839,1.156-1.131,1.711l-1,1.9
			c-0.254,0.483-0.651,1.081-1.006,1.492l-1.489,1.723c-1.621,1.875,0.321,0.552-2.768,3.2l-1.537,1.318
			c-0.344,0.296-0.471,1.219-0.942,1.566c-1.548,1.141-2.227,2.25-3.161,3.763l-1.085,1.757l-1.48,2.543l-1.043,1.837
			c-0.463,0.815-1.298,1.806-2.008,2.432l-1.089,0.96c-0.2,0.176-0.623,0.751-0.875,0.903l-2.112,1.273
			c-0.789,0.475-2.067,0.75-3.138,0.863c-0.84,0.089-2.401-0.68-2.758-1.353l-1.314-2.476c-0.258-0.486-0.398-1.554-0.569-2.073
			l-0.646-1.962c-1.022-3.109,0.378-2.2-1.021-3.857l-0.74,0.956c-2.509,3.239-0.23,2.087-2.38,3.587l-0.595,1.371l-0.868,2.024
			c-0.459,1.071-0.864,2.854-1.537,3.849c-0.283,0.419-1.897,0.362-2.048-0.103l-0.792-2.445c-0.529-1.633-1.167-3.548-1.617-5.153
			c-0.143-0.511-0.786-1.383-0.994-1.824l-0.751-1.596l-0.925-1.953c-0.161-0.339-0.663-0.984-0.787-1.321
			c-0.347-0.942-0.64-1.619-1.047-2.457c-1.479-3.041-0.091-1.029-1.786-3.659c-0.277-0.431-0.646-1.155-0.847-1.717l-1.25-3.491
			c-0.065-0.181-0.425-0.604-0.634-0.873c0.001,0.51,0.035,1.203,0.123,1.824l0.225,1.584c0.05,0.348,0.136,0.726,0.229,1.147
			c0.24,1.082,0.059,2.565,0.381,3.679l0.493,1.704c0.227,0.784,0.367,1.618,0.442,2.331l0.271,2.589l0.316,3.158
			c0.052,0.514-0.174,1.546-0.027,2.003c0.177,0.554,0.336,1.121,0.37,1.618l0.182,2.626l0.212,3.129
			c0.072,1.069,0.073,2.074,0.065,3.147c-0.003,0.487,0.37,3.295-1.001,4.075c-2.172,1.236-4.784-0.084-5.792-0.232
			c-4.661-0.682-1.827-1.264-5.991-1.893c0.329,0.461,0.623,0.889,0.873,1.152l1.176,1.236c1.225,1.288,2.155,0.949,3.775,3.021
			c0.532,0.681,0.782,1.779,1.074,2.609c0.466,1.327,0.4,2.444-0.406,3.582c-0.374,0.529-0.877,1.12-1.383,1.403l-1.542,0.864
			c-0.546,0.306-1.646,0.526-2.388,0.685l-1.543,0.331c-0.464,0.099-1.404,0.005-1.875,0.035c0.226,0.267,0.411,0.496,0.405,0.484
			c-0.006-0.012,0.399-0.179,0.49-0.144l1.561,0.596c3.333,1.273,2.903,2.519,6.337,4.213c1.881,0.928,2.654,3.334,1.471,4.973
			l-1.244,0.514c-0.501,0.601-1.026,1.116-1.68,1.461c-0.843,0.445-1.416,0.993-2.169,1.577l-2.716,2.11
			c-0.644,0.5-1.103,0.805-1.743,1.216l-2.219,1.425c-0.286,0.184-0.79,0.627-1.095,0.871l-1.435,1.148l-3.351,2.651
			c-0.816,0.645-1.782,1.275-2.581,1.993l-1.171,1.053l-1.582,1.041l-1.988,1.227c-0.577,0.356-1.368,1.118-1.947,1.68
			c-2.236,2.17-1.685,0.074-2.548,2.382c-1.377,1.73-4.953,1.291-6.518,0.321l-1.935-1.199c-0.989,0.692-1.979,0.76-3.178,0.575
			l-1.851,1.289c-2.772,1.931-2.733,0.547-4.031,2.65c-0.302,0.49-1.375,0.686-2.106,0.634c-3.558-0.254-2.531,1.031-3.78,1.371
			c-1.554,0.422-3.168,1.35-4.54,2.232l-3.157,2.03c-0.814,0.524-1.804,1.214-2.26,2.039c-0.154,0.279,0.267,1.102,0.54,1.195
			l1.492,0.51l1.469-0.756l2.319-1.227l1.607,0.362c0.077,0.499,0.051,1.553-0.303,1.827l-1.667,1.293
			c-0.277,0.215-0.8,0.471-1.344,0.768c-0.159,0.56-0.066,1.559,0.236,2.299c0.839,0.183,3.161-0.154,3.916-0.391l3.388-1.065
			c0.458-0.144,1.49,0.865,1.522,1.241c-0.386,0.505-1.163,0.979-1.811,1.303l-1.696,0.848c-0.283,0.141-0.793,0.831-0.885,1.132
			l-0.513,1.684l1.863,0.582l1.196-0.023c4.843,1.083,3.951,0.086,7.918-0.629c-1.608-2.645-1.504-2.307-2.24-5.059l-0.606-2.264
			c-0.121-0.45-0.225-1.386-0.274-1.93c-0.037-0.413,0.487-1.357,0.825-1.6c0.462-0.332,1.506-0.936,2.073-1.036l2.968-0.522
			c0.208-0.037,0.751-0.048,0.753-0.204l0.011-0.68c0.021-1.301,0.995-2.454,2.302-2.873c1.774-0.569,3.502,0.002,5.029,1.373
			l0.313-1.154c0.913-1.444,2.48-1.931,4.212-1.879c2.043,0.061,2.037,1.331,3.044,1.127c0.556-0.112,1.77-0.225,2.277-0.476
			l3.497-1.731c2.754-1.364,3.802-1.721,6.932-2.693L385.449,107.693z M361.25,106.294l2.277,0.103
			c0.207-1.595-0.561-1.569-1.915-4.072c-0.598-1.105-1.216-1.993-2.077-2.717l-2.469,0.352c-0.313,0.044-0.882,0.249-1.06,0.465
			c-0.485,0.586,0.075,1.732,0.689,2.428l1.255,1.423C358.455,104.849,360.377,106.254,361.25,106.294z M373.599,129.282
			l-0.526-3.312l-0.359-2.266c-0.104-0.656-0.335-1.308-0.632-1.9c-0.388-0.773-0.708-1.656-1.13-2.329l-1.011-1.615
			c-0.217-0.347-0.82-1.073-1.139-1.336l-1.753-1.445c-0.22-0.182-0.935-0.477-1.243-0.55c-1.94-0.463-1.066,4.68-0.361,5.666
			l1.815,2.68c0.428,0.632,0.861,1.556,1.34,2.044l2.421,2.468l0.829,0.82C372.335,128.687,372.763,128.951,373.599,129.282z
			 M368.095,128.665l0.903-0.552c-0.584-0.608-0.874-0.915-1.297-1.417l-0.764-0.907l-0.978-1.594l-1.843-3.002l-1.736-2.883
			l-0.031-1.888c-0.482,0.158-1.355,0.275-1.708,0.032l-1.468-1.009c-0.657,0.071-1.907,0.976-1.792,1.597l0.593,3.193
			c0.186,1.004,0.566,2.046,0.943,3.059c0.229,0.618,0.899,1.454,1.225,2.085c0.621,1.204,1.215,2.08,2.107,3.053l1.099,1.198
			l1.396,1.523c0.558,0.608,1.586,1.259,2.521,1.5c0.431-0.265,0.859-1.219,0.854-1.68L368.095,128.665z M361.825,136.538
			c0.764-0.188,0.855-1.249,0.602-1.9l-1.146-2.944l0.558-1.143l-1.487-1.638c-1.494-1.646-4.199-6.625-4.746-9.031
			c-0.432-0.077-1.541-0.302-2.001-0.222l-2.574,0.448c-0.566,0.541-0.151,3.987-0.112,4.097c0.831,2.335,2.224,4.816,3.357,6.987
			l0.824,1.578c0.589,1.129,1.89,2.658,3.352,3.214l1.883,0.716C360.602,136.802,361.503,136.619,361.825,136.538z"/>
	</g>
</g>
</svg>
