<?xml version="1.0" encoding="UTF-8"?>
<svg id="Layer_1" xmlns="http://www.w3.org/2000/svg" version="1.1" viewBox="0 0 688.38 482.41">
  <!-- Generator: Adobe Illustrator 30.2.1, SVG Export Plug-In . SVG Version: 2.1.1 Build 1)  -->
  <g id="_x30_QRUrD.tif">
    <g>
      <path d="M0,464.01v-2.28c.49-.43.99-1.14,1.31-1.83l.73-1.59c.35-.76,1.11-1.2,1.98-.93.32.1.82.55.79.82-.02.22-.14.77-.15,1.04-.06,1.18,1.56,1.7,2.61,1.17.98-.49,2.22-.67,3.1.12.53.47.02,1.31-.44,1.64l-2.23,1.56c-1.78,1.24-.19,1.53-2.46,2.09l-2.56.63c-.33.08-1.17.13-1.36.11-.42-1.03-.79-1.85-1.31-2.54Z"/>
      <path d="M100.23,455.22c-2.4.03-4.08-2.2-3.22-2.93l2.09-1.75c.55-.46.66-1.8.95-3.51l.43-2.51c.11-.63.51-1.34,1-1.91.28-.33.01-1.24,0-1.78l-.14-4.16c0-.28-.32-1.11-.38-1.22-3.22.82-3.37.12-4.85-1.55-.82-.93-1.67.24-2.65-1.33l-1.24-1.54c.46-.34,1.06-.7,1.03-1.01l-.11-1.19,1.59-.81c1.65.38,1.83,2.28,3.26,2.54.38.07,1.26.1,1.58.22.8.29,1.97.71,2.7.19.47-.33,1.41-.46,1.53-.05,1.05,3.47.71,1.42.73,5.68-.51.6-.02,1.27.33,1.69.22.26.62,3.5.47,3.98-.27.89-.79,1.94-.72,2.86.04.54.51,1.5.41,2l-.62,3.13-.36,1.22c.04.62.19,1.81-.31,2.2l-1.55,1.2c-.36.28-1.3.35-1.94.36Z"/>
      <path d="M124.28,454.32c-1.1.54-2.15.28-3.02-.49-1.68-1.49-.25-1.99.21-5.23.7-4.88-.79-1.54-.28-5.74v-2.54c0,.21-.47-2.77-.8-3.32-1.23-2.04.46-1.56-1.25-3.72l.17-1.25-.28-2.32,2.01.05c.25,0,.87.51,1.06.68l1.19,3.91.19,1.9c.06.58.29,1.15.45,1.76l1.13,4.59c.17.7.29,1.53.39,2.28l.91,3.36.31,1.18-.56,3.14c-.12.67-1.23,1.45-1.84,1.76Z"/>
      <path d="M315.93,462.41l-1.76.48c-1.14.31-1.77-1.72-1.9-2.32l-.51-2.38c-.57-2.69-.26-2.18-.9-4.87-.17-.72-.2-1.9,0-2.57.76-2.55.21-2.48.8-2.88l1.39-.95c.99-.68,2.75-.4,3.36.53l-.18,1.63-.3,2.36c.2,1.07.23,2.12.13,3.15l.09,2.33c.09,2.38,1.19,2.75.78,3.56l-.99,1.94Z"/>
      <path d="M604.94,413.03c-2.4,3.67-5.33,2.27-6.23,3.87-.29.52-.63.87-1.04.99-1.35.39-2.35.12-3.16-1.03l.88-2.57c.12-.34.12-1.26.16-1.62.27-.64.53-1.3.66-1.91l.59-2.71-.14-2.13,1.11-.8c.59-.42,1.41-.55,2.24-.49.22.81.68,1.87.59,2.5l-.4,2.53c-.06.38-.21,1.33.14,1.39.49.09,1.27.17,1.59.27l1.76.56,1.26,1.14Z"/>
      <path d="M191.88,459.88c-1.5,1.86-3.57,1.88-4.24,1.34-.84-.68-1.62-2.83-1.64-3.28l-.14-4.13c-.01-.34-.18-.77-.01-.87l.97-.59-.59-.86c-.49-.72.88-.94.41-2.13-.51-1.28.64-2.02,1.58-2.48.47-.23.98-1.34,3.53.24.43.27.04,1.47-.26,1.86-.92,1.18-1.38,3.27-1.13,3.75,1.2,2.26-.64,1.49.45,4.04l.71,1.67c.15.36.58,1.16.36,1.43Z"/>
      <path d="M241.52,461.63l.43,1.1c.21.54-2.79,2.05-4.25,1.73-.66-.15-1.04-1.75-.88-2.36.78-3.04-.26-2.07-.29-3.79l-.04-2.36c-.05-3.17-1.42-1.32.39-4.33l.33-1.49c.67-1.16,3.62-1.22,4.75-.71-.2,3.1-1.66,3.68-1.28,6.56l.31,2.33.27,2.01c.05.36.15,1.01.26,1.29Z"/>
      <path d="M328.76,476.73c-2.52.53-4.74-2.3-4.88-3.28l-.24-1.78.53-.67c.69.09,1.52.18,2.12.1l2.45-.33c.35-.05,1.06-.04,1.42-.11l2.51-.52c.87-.18,1.66-.36,2.64-.48.83-.1,1.46.73,1.44,1.43l-.05,1.78c-.04,1.26-1.1,1.82-2.28,1.73-.88.7-1.9,1.35-2.99,1.58l-2.68.56Z"/>
      <path d="M343.76,458.47c-.38.44-2.96.9-3.43-.32-1.83-2.05-.59-1.82-1.24-4.75l-.58-2.64c-.18-.79-.1-2.09,0-3.02l.25-2.58.76-.63,1.74-1.44c1.15.48,1.66,1.18,1.76,2.34.06.62.28,1.5.21,2.01l-.2,1.47.36,4.78c.07.96,1.37,3.62.36,4.77Z"/>
      <path d="M398.15,455.16c-1.14.66-2.12,1.25-3.01.72l-1.26-.75-.47-3.4c-.1-.74,1.27-6.88,1.14-5.59l.23-2.33.62-1.7,1.7-.86c.73-.37,1.31-.52,2.04.04.47.36.7,1.07.55,1.59l-.91,3.24c-.15.52-.11,1.58-.18,2.26-.11,1.08-.78,2.62-.69,3.83l.23,2.95Z"/>
      <path d="M148.67,455.86c-.85.73-2.83,1.04-3.3.92-.32-.08-.79-.67-.9-.99l-.68-2.02c-.25-.74-.25-1.48-.25-2.38-.86-2.44-.94-1.02-1.21-3.11-.14-1.09-1.27-.85-.96-4.21.87-.72,1.93-.74,2.97-.45l1.18-.15.92,1.67c-.74,2.72.4,1.14,1.46,5.74.48,2.1,1.56,4.31.77,4.98Z"/>
      <path d="M172.19,459.8c.27,1.29-.07,2.59-1.02,2.77-1.98.39-3.07-2.36-3.26-4.31-.25-2.56-.9-.97-.9-4.71-3.33-3.2-1.18-1.82-2.2-3.81-.2-.39-.37-1.13-.2-1.43s.91-.65,1.29-.63l2.09.12c.58.03,1.31,1.33,1.45,1.83l-.77,1.13,1.67.71c.32,1.19.65,2.56.93,3.85l.44,2.09.51,2.39Z"/>
      <path d="M291.73,462.22c-1.57.57-2.67-1.47-2.9-2.65.44-.59.52-1.07.37-1.72-.58-2.41.66-.78-.22-3.23-.72-2,.5-1.27.34-3.11-.11-1.3.51-2.36,1.69-2.52l2.02.2.86.09c.8.08-.27,2.82-.27,2.8l-.03,6.16c.4,1.06.47,2.52-.07,3.33l-1.79.65Z"/>
      <path d="M276.74,460.31c-1.11,1.47-3.47,1.24-3.74.92-1.26-1.48-.46-3.08-.71-4.96-.04-.26.1-.9.11-1.19l.11-4.74c.01-.49,1.03-1.15,1.4-1.44l1.57-1.19,1.37,1.43c.8.84-.59,2.03.17,4.06.28.76.13,1.43.12,2.3-.01,2.36.91,3.09-.39,4.81Z"/>
      <path d="M431.21,472.78l-1.62-1.11-.18-1.35c-.11-.78-.07-1.56,0-2.37l.25-3.04c.06-.72.07-1.37-.05-2.15l.38-1.16c.17-.52.53-1.02,1.01-1.21l1.42-.57c.43-.17,1.37.8,1.48,1.26l.47,2c-.35,1.03-.28,1.89.05,2.9.75,2.3-.31.15.71,3.34.29.92-2.41,3.2-3.91,3.46Z"/>
      <path d="M303.16,475.38c-.2.22-3.42,2.8-4.02,2.66l-1.6-1.13c-.27-.19-.56-1.12-.47-1.46l.66-2.48c.13-.5,1.21-1.14,1.6-1.49,1.11-1.02-.29-1.08,3.66-2.64.63-.48,1.43-.69,2.1-.38l2.03.94c.46,1.7-.37,2.29-1.33,2.92-.43.28-.98,1.18-1.38,1.64l-1.25,1.43Z"/>
      <path d="M549.3,458.19l-1.33,1.1-2.05.57c-.39.11-1.15.24-1.5.25l-1.5-.29-1.88-.56c-4.13-1.24-3.18-2.25-3.45-3.18-.32-1.08.1-2.98,1.45-3.14l2,1.27,2.28,1.44c.35.22,4.37-.21,5.13-.75.43.03,1.15.74,1.45,1.28.39.72-.03,1.53-.61,2.01Z"/>
      <path d="M377.47,452.03l-2.14.99c-1.35.62-2.34-1.22-2.55-1.87-.31-.94.07-2.04.46-2.84-.24-3.14.73-3.7.63-4.76-.13-1.36.49-1.86,1.5-2.32l2.07-.94.62,1.31c.43.92,1.04,1.77.36,2.73-1.33,1.89-.24,1.52-.77,6.27l-.16,1.44Z"/>
      <path d="M220.58,459.71c-1.52.39-2.93.54-4.08-.59-1.57-1.56-2.39-3.46-2.05-5.65l.26-1.69c.09-.57.29-1.23.47-1.92l2.46-.7c.53-.15,1.8.29,2.23.58.02.84.03,1.76-.03,2.53l-.14,1.76c-.29,2.07.69,2.14,1.35,4.5.07.25-.22,1.12-.48,1.19Z"/>
      <path d="M181.52,468.51c-3.42,2.16-2.03,4.28-5.46,5.94-.56.27-1.86.12-2.51.04l-.98-2.41,1-2.46,1.28-.94c.28-1.24,3.09-5.26,4.36-4.23l1.69,1.37.33,1.49c.06.27.53,1.06.29,1.21Z"/>
      <path d="M352.07,454.32c-.23-.36-.44-1.16-.4-1.46.43-3.26.36-1.51.82-4.23l.4-2.38c.17-1.02.68-1.72,1.29-2.39.32-.35.53-1.39,1.09-1.63l1.19,1.22,2.63,2.13-1.53.95-1.2,2.59c.42,1.6.58,3.05-.02,4.49-.38.91-1.22,1.16-2.13,1.21-.62.03-1.76.08-2.13-.51Z"/>
      <path d="M215.07,478.83c-1.81.96.14,1.29-1.74,2.59-.39.27-.92.6-1.25.61-.69.02-1.93-1.13-1.43-3,1.65-6.16-1.91-5.47.8-6.98l2.14-1.19c.15-.09.91-.07.95.1l.19.89.54.47c.6-.12,1.59.11,1.69.55.55,2.35-.55,1.94-.68,3.17-.1.89-.32,2.31-1.2,2.77Z"/>
      <path d="M453.11,466.17c-.64.53-2.49,1.38-3.48.88-.48-.24-1.1-1.04-1.03-1.49.09-.51.42-1.25.64-1.79l.76-1.84c1.39-3.37.37-.64,3.96-2.86l1.27-.78c.57-.35,1.22-.6,1.98-.94l1.03,2.23c.24.52-.77,1.57-1.26,1.86-1.74,1.03-.86,2.22-3.87,4.74Z"/>
      <path d="M616.89,421.68c-.68.76-1.74,1.75-2.87,1.78-.88.02-1.38-1.07-1.61-1.79l-1.13-.82-.41-2.06,1.89-1.11,2.19-1.23c.38-.21,1.31-.86,1.76-.92,1.02-.06,2.88.59,3.98.97l.62,1.7c.06.47-1.13,1.01-1.64,1.2l-.74.98c-.68.35-1.59.81-2.04,1.31Z"/>
      <path d="M600.24,450.82c-.72,1.19-2.41,1.27-3.5.9-.25-.09-.46-.78-.5-1.07-.36-2.84-.53-3.04,1.34-4.29.58-.38,1.09-1.27,1.54-1.84l.75-.95c1.11-1.4,3.1-2.37,4.05-1.21l1.51,1.84c-.27.57-.94,1.2-1.66,1.57-1.32.68-1.73,2.1-2.45,3.29l-1.08,1.77Z"/>
      <path d="M252.63,476.68c.71,2.45-2.3,3.94-4.31,4.18-.3-.49-.79-1.15-.88-1.53-.59-2.59.23-3.87,1.02-5.9l.81-2.08c.36-.37,1.3-1.01,1.91-1.24,1.18-.43,3.69,1.88,3.01,2.29l-1.02.62-.58,2.05.38.84c.08.18-.26.56-.35.77Z"/>
      <path d="M46.15,447.01c-1.2.31-3.99.23-5.5-.29l-.3-2.1c0,.05.58-2.35,1.13-2.02l.59.36c.54-.05,1.44.07,2,.34.17,0,.87-.14,1.08-.09l2.13.45c1.22-1.26,3.08-1.39,4.55-1.67,2.48-.46-.14.09,1.95-.18.45-.06,1.27,0,1.24.36-.05.59-.75,1.16-1.19,1.39l-1.95,1c-.76.39-1.73,1.39-2.47,1.58l-3.28.86Z"/>
      <path d="M134.86,469.96c-.85.74-2.28,1.23-2.94.07l-.81-1.45c.36-.47.49-.87.21-1.45.4-1.89,1.2-4.49,2.41-5.9l1.49-.36c1-.24,2.61,1.48,2.62,1.54.4,1.24-.1,2.92-.63,3.98l-1.08,2.17c-.22.43-.74.94-1.28,1.41Z"/>
      <path d="M86.06,473.84l-2.93-1.89.62-1.13.74-.35c-.67-.61-1.17-1.46-1.42-2.47-.53-2.21.73-2.07-.45-2.87s-.65-1.95-.16-2.89l.36-.7c.4-.77,2.11,1.21,2.41,1.72l.96,1.69c1.21,2.12-.16,3.32,1.62,4.36,1.64.96,1.94,2.63,1.12,3.05l-2.86,1.47Z"/>
      <path d="M202.39,461.43c-.27,1.07-.59,1.91-1.47,2.47-.61.39-1.53.54-2.14.26s-1.1-1.39-.91-2.12l.84-3.22c-.26-1.3-.24-2.57-.03-3.94-.13-.26-.18-1.3.15-1.36,1.53-.29,3.89.22,4.41,1.78.36,1.07-.36,4.54-.84,6.13Z"/>
      <path d="M97.77,420.55l-2.63-.6c-1.17-.27.44,0-2.01-1.37l-1.75-.97.04-2.47c0-.52,1.4-.94,1.94-.87l2.35.31,1.31-.18,1.82,1.38c.71.54,1.5.77,2.46,1.04.79.22.3,1.82-.41,2.17l-3.14,1.57Z"/>
      <path d="M631.87,435.94c-1.1,1.67-2.44,1.77-4.59,1.43-.34-.05-.84-.9-.77-1.23.11-.46.39-1.01.65-1.51l1.17-2.27,1.4-.06c1.55-1.27,4.12-1.38,5.81-.95,1.06.27,1.34,1.41.9,2.2l-2.28,1.21-2.29,1.19Z"/>
      <path d="M79.28,427.21c-.88,1.72-2.21,3.15-4.08,3.27-.22.32-4.56-.33-4.29-.25l-2.23-.69c-.34-.73-.06-2.41.67-2.94l2.16-1.55,2.27,1.62.67-.98,1.94.4,2.9,1.13Z"/>
      <path d="M650.77,440.44c-2.32.67-1.06,1.4-5.1,2.7-.93.3-2.06-.31-2.56-1.09l.58-1.91c.19-.64,1.3-1.59,1.96-1.92,3.03-1.49,2.48-.1,3.51-1.6.28-.41.53-.75.78-.88s1.01.1,1.24.27l1.67,1.24c.09,1.27-.79,2.81-2.08,3.18Z"/>
      <path d="M232.95,476.73c-1.59,1.49.2.79-3.04,1.6l-2.76-2.71c-.26-.25-.79-.62-1.2-.92-.16-1.04.15-2.33.7-3.39l2.47-.78c.52-.16,1.42.38,1.64.84,1.2,2.6.38.37,2.54,3.28.17.23.41.92.36,1.2s-.45.63-.71.88Z"/>
      <path d="M258.1,461.79l-1.93-.33c-.78-.13-1.36-.56-1.47-1.49-.2-1.62,2.05-1.25,1.57-1.83l-.51-.62c-.21-.25-.49-.97-.34-1.33l.87-2.05c.22-.52.48-1.34.83-1.76.29-.34,1.2-.86,1.61-.81l1.47.2-.15,1.74-.12,1.66c-.27,3.81-1.23,1.13-.7,4.04l-.24,1.87c-.03.22-.62.76-.88.71Z"/>
      <path d="M274.29,478.07c-.06,1.07-1.94,3.54-2.87,3.32l-1.48-.34-.93-1.19.84-2.4c.38-1.08.76-2.01,1.25-3.07.36-.78.87-1.22,1.79-1.44.57-.13,1.25-.02,1.65.34l1.8,1.57c.09.08.21.64.13.72-.93.84-2.07.14-2.2,2.48Z"/>
      <path d="M193.56,482.41l-2.08-1.14-.33-2.02c.28-.48.38-1.06.28-1.62.11-.83,1.74-.32,1.99-2.07.21-1.42.86-2.22,2.2-2.68l1.91,1.71-.17,1.78-1.67,3.43c-.05.64-.35,1.37-.78,1.67l-1.36.96Z"/>
      <path d="M364.81,472.18c-.47.31-1.49.68-2.02.69l-2.18.03c-.81.01-.62-.53-1.09-2.6-.13-.55-.1-1.14-.11-1.79l-.03-1.23,1.31-1.63c.27-.34,1.29-.2,1.57.24l1.23,1.95,2.53,1.73c.36.25.98,1.18.64,1.41l-1.85,1.22Z"/>
      <path d="M385.14,467.86c-.09.43-2.62,2.37-3.26,2.61-2.58-2.41-.89-1.38-2.6-4.44-.75-1.34-.88-2.6.17-4,.85-1.14,2.88.85,3.09,1.25,1.35,2.55,1.34.43,2.93,3.04l-.32,1.55Z"/>
      <path d="M495.2,460.65l-1.61.4c-.72.18-1.75.09-2.22-.46-.58-.67-.48-1.67-.14-2.52.3-.6.68-1.29,1.24-1.71.81-.61,1.45.72,2.84.32l1.35-.39c.45-.13.76-.24,1.27-.41l1.08.29,1.34.96c.13.29-.23,1-.63,1.35l-1.28,1.1c-.42.36-1.45.72-1.98.86-.46-.03-.85.04-1.27.22Z"/>
      <path d="M581.34,442.31l-1.46.74c-.42.22-1.43.13-2.11.08l-1.18-4.43.8-2.45.97.58,2.05-1.64c.98,1.09,2.26.89,2.17,1.79l-1.3,1.64.79,2.23c.11.31-.44,1.31-.73,1.46Z"/>
      <path d="M121.3,416.21l-1.91.2-2.4.25c-1.41.15-2.66-2.34-3.06-3.22l1.08-1.53c.24-.34.76-.89,1.15-.99.36-.09,1.05.32,1.43.67,1.63,1.49.84-.48,3.04,1.47l1.3.28c.46.1.7,1.18.64,1.67-.05.45-.81,1.16-1.27,1.21Z"/>
      <path d="M62.94,466.33l-1.81-.31c-.33-.05-1.35.05-1.53-.21l-1.32-1.89c.34-2.63,4.42-3.97,6.81-3.62l.84,1.46c.18.31.08,1.29.05,1.69-.07,1-2.24.23-3.04,2.87Z"/>
      <path d="M407.38,458.72l-1.38.49-2.47-1.82c1.84-2.14,2.01-2.03,1.83-4.38l.9-1.21c.44-.59,1.42-.75,2.23-.44.41.16,1.03.75,1.12,1.12l.49,1.84c.04.16-1.1,2.97-1.47,3.3l-1.24,1.11Z"/>
      <path d="M686.63,446.34c-2.15.73-.6,2.04-3.95,1.58-.26-.16-.85-.73-1.02-1.01-.67-1.05-.32-2.66.54-3.55l.19-1.36c2.8-.99,3.9-.15,6,1.96l-.59,1.3c-.2.44-.65.89-1.16,1.06Z"/>
      <path d="M158.83,469.24c-.72,1.02-3.11,2.13-3.58,1.49-1.84-2.52-1.25-1.54-1.28-4.97.22-.13,1.04-.34,1.29-.5l1.83-1.23c.33-.22.75-.73.93-.52,1.46,1.68,1.94,1.33,1.94,2.17,0,.58.12,1.79-.16,2.18l-.97,1.38Z"/>
      <path d="M664.19,433.67c-.57-.17-1.06-1.76-.65-2.09l1.44-1.18c.17-.14.79.11,1.15.19.94.21,1.25-1.98,1.93-2.12l1.25-.27,2.17-1.54.52,1.4c.7.64.96,2.04-.04,2.44-1.41.56-2.56,1.14-3.55,2.31-.76.9-2.55,1.36-4.22.87Z"/>
      <path d="M519.99,459.91c-.42.35-1.95,1.16-3.05.08-.5-.5-.67-1.16-.42-1.76l.97-2.31c.27-.65,2.13-2.45,3.47-2.45.24.13.99.57,1.15.82l1.42,2.08c-2.36,1.68-1.31,1.68-3.56,3.54Z"/>
      <path d="M589.04,423.01c-.53,1.63-1,2.92-2.82,3.11-.54.06-1.65-.88-1.42-1.41l.86-1.95.78-1.76.61-1.4,1.09-1.41.69-1.95c.11-.31,1.15-.31,1.36-.07l1.05,1.19c-.67,2.36-1.25,2.74-2.2,5.64Z"/>
      <path d="M612.03,417.45c-1.21,1.14-2.6,1.14-4.1.35-.36-.19-.1-1.32.21-1.58l1.37-1.13c.42-.34.41-1.17.28-1.99-.09-.58.79-1.68,1.35-1.84l1.57-.47c.11-.03.28-.4.37-.46,1.08-.67.86,3.11.76,3.9-.12.98-.96,2.4-1.82,3.22Z"/>
      <path d="M592.03,433.6l-3.13,1.69c-1.16-.81-1.42-2.33-1.53-3.48-.04-.39-.55-1.05-.52-1.38.05-.51,1.32-2.66,2.59-2.69.42,0,1.45.35,1.71.64.95,1.07.22,2.23.95,3.27l.56.8c.16.23-.34.98-.64,1.14Z"/>
      <path d="M124.82,427.4l-3.67,1.18-1.9-1.32c-.36-1.03-.15-2.45.62-3.3s2.01-1.8,3.09-1.5c.51.14,1.35.6,1.74.79l.45,2.83c.06.38.06,1.2-.32,1.32Z"/>
      <path d="M629.31,420.48c.15.48.31,1.82-.07,2.2-1.37,1.41-4.04,1.28-5.94.66-.88-.29-2.16-1.32-1.4-2.33l1.21-1.61c.15-.2.56-.57.78-.55.96.11.88,1.48,1.69,1.52.9.04.88-1.72,1.81-1.12l1.9,1.23Z"/>
      <path d="M477.66,461.41c-1.18.41-2.6-.65-2.33-1.63.66-2.38.45-3.71,2.28-3.96l2.23-.3c.87.04,1.85,1.85,1.57,2.68l-.56,1.52c-.91.6-2.01,1.28-3.2,1.7Z"/>
      <path d="M590.88,449.08c-.59-.65-1.22-1.47-1.52-2.11l1.68-1.98c.52-.61,1.18-1.09,1.94-1.54.28-.34.6-1.04.93-1.73,1.34.06,2.32,1.96,2.25,2.78-.13,1.72-1.71,3.26-2.96,3.72l-2.33.86Z"/>
      <path d="M117.76,460.53c-.72,1.35-2.01,2.68-3.55,2.91-.62.09-2.01-.55-2.31-1.09-.64-1.17-.11-2.95.66-3.96.7-.91,1.96-1.21,2.85-.76l1.52,1.41.83,1.5Z"/>
      <path d="M642.13,430.05l-1.06-1.09,2.41-1.49c.27-.17.81-.86,1.11-.81l1.38.24.08-1.67.97-.68c.15-.68.36-1.43.64-2.02.16-.34,1.35-.25,1.42.11.13.66-.04,1.54-.27,2.06-.02.46-.11,1.33-.35,1.68l-1.09,1.58c-.38.55-.8,1.07-1.33,1.55-1.11,1.03-3.03,1.45-3.21,1.26l-.72-.73Z"/>
      <path d="M613.07,438c-.37.1-.8-.53-.85-1.05l-.23-2.62,1.35-.45c.64-.22,1.08-.66,1.5-1.4l1.74-.39c.41-.09,1.46.69,1.39,1.1l-.34,2.28c-.1.66-1.32,1.66-2.01,1.85l-2.56.69Z"/>
      <path d="M448.16,457.87c-.56.18-1.3.09-2.05-.18-.42-.15-.7-.91-.54-1.3l.98-2.32,2.72-.15c.51-.03.92-.14,1.58-.38,1.3-.47,2.28,1.84,2.14,2.89l-3.24.93-1.6.51Z"/>
      <path d="M81.77,449.48c-1.94,1.45-2.05,2.21-3.04,1.94l-1.21-1.83c-.2-.3.12-1.12.18-1.51.15-.98.12-2.28,1.08-2.99.46-.34,1.3-.46,2.07-.58.56,1.3,2,4.15.92,4.96Z"/>
      <path d="M74.21,439.48l-.95.72-1.47,1.15c-.57.45-1.47.73-2.21.71-.62-.02-1.73-.73-1.84-1.46-.06-.37.32-1.39.67-1.56l1.75-.86c1.08-.53,2.58-1.14,3.73-.96l2.08.32c.06.26-.11,1.49-.41,1.27l-1.02-.74-.32,1.43Z"/>
      <path d="M20.93,453.08l-1.49,1.3c-.68.6-2.09.06-2.55-.65l-.21-2.32c-.04-.42.59-1.32,1-1.35l1.72-.12,1.64-.11c.78-.05,2.03-.28,2.37.8.38,1.21-1.33,1.43-2.48,2.44Z"/>
      <path d="M667.54,445.31l-2.31-.48-.36-1.25c-.3-1.04,1.58-2.82,2.3-2.94l2.02-.33,1.3.87.37,1.84-1.86,1.36-.47.87c-.1.18-.68.11-.99.05Z"/>
      <path d="M602.33,425.64c-1.41,1.31-.87.71-3.52,1.79-.31.13-1.09-.24-1.17-.58-.28-1.13.85-4.26,2.92-4.37l2.62.51c.16.03.62.19.61.36-.08.83-.63,1.35-1.45,2.3Z"/>
      <path d="M411.23,467.44c1.13,1.5-1.75,2.78-3.37,3.04-.38.06-.79-.59-.87-1l-.44-2.24c-.14-.7.82-1.86,1.41-2.36l2.31,1.15c.37.57.68,1.03.96,1.41Z"/>
      <path d="M626.3,440.55c-.84.44-3.44,1.73-4.02,1-.47-.6-.74-1.58-.87-2.36l2.3-.84c.19-.07.61-.63.78-.8.49-.46,2.21.7,2.44,1.49.11.37-.29,1.33-.63,1.51Z"/>
      <path d="M635.74,452.48c-.5.93-1.24,1.4-2.18,1.19-1.56-.35-2.68-1.97-1.88-3.43.14-.26.61-.68.87-.77.31-.11,1.07.16,1.34.36l1.54,1.16c.38.29.54,1.08.32,1.5Z"/>
      <g>
        <path d="M464.17,421.29c-.55.39-1.89.73-2.29.21l-1.08-1.41c-.24-.32.05-1.22.2-1.67l1.02-2.96.2-1.64c.95-2.56-.08-1.95,1.12-4.73,1.07-.86,1.77-1.61,2.58-2.7l1.58-.05.08,2.48c0,.28.39,1.06.41,1.18-1.28,3.46-.06,2.22-1.57,5.4.32.66.9,1.86.74,2.45-.56,2.02-1.33,2.28-2.97,3.43Z"/>
        <path d="M456.1,428.09c-1.37.63-3.1-.37-3.32-1.14.56-1.52-1.09-1.75-.23-4.73.15-.51.51-1.4.24-1.76-.44-.59-.5-1.63,0-2.28.24-.31-.02-1.14-.07-1.71-.08-.83.62-2.41,1.28-3.05.37-.35,1.83-.44,2.12-.01.36.53.96,1.45,1.11,1.94l.51,1.7c.15.5-.03,1.2-.46,1.71-.07,1.26-.16,2.79.06,4.1.14.8,1.62,3.9-1.26,5.24Z"/>
        <path d="M449.7,439.38l-1.94.31c-.5.08-1.55-.48-2.11-.74.71-3.33-.84-2.99-.11-4.34.37-.68.18-1.2-.09-1.87l-.68-1.71c-.4-1,.11-2.16.63-3.18.27-.52-.01-1.69-.13-2.48-.08-.53.89-1.31,1.54-1.57.97.61,1.35,1.86,1.65,3.01l.58,2.21.68,2.61c.09.34.43,1.13.41,1.48l-.17,2.39c-.05.77,1.1,3.66-.28,3.88Z"/>
        <path d="M456.71,448.36c-1.85.86-2.46,2.61-4.92,2.24l-.85-.13c-.24-.04-.32-.77-.27-1.01.43-2.21.77-2.16,2.23-4.12.97-1.29.32-2.08,1.13-4.53.3-.9,1.39-1.33,2.2-.98,1.59.69,2.79,2.55,2.1,4.7l-.7,2.19-.92,1.61Z"/>
        <path d="M439.31,447.51c-.75.96-1.78,1.12-2.81.34-.85-.14-1.66-.43-2.37-.93l.46-1.79c2.25-2.52-2.46-2.28,2.35-6.25h2.59c.42.01.89.96.93,1.37l.29,2.63c.11.98.43,2.22-.17,2.98l-1.28,1.64Z"/>
        <path d="M468.69,430.1l-2.2,1.45c-.91.6-2.54.37-3.09-.47-.22-.34-.64-1.27-.66-1.68l-.16-3.87c-.05-1.27-.39-.46,2.08-2.42.63-.5,1.58-.08,2.18.43l.81.7.59,2.56c1.47,1.23.94,2.98.45,3.3Z"/>
        <path d="M472.98,416.02h-2.99c.23-2.89,1.02-2.65,1.27-4.8.11-.93.33-1.38,1.46-1.6l-.53-1.46c-.3-.82.57-1.76,1.5-2.03,1.52-.44.49.65,2.68.88.03,1.82-.43,6.21-1.71,7.63-.37.41-1.06.87-1.69,1.36Z"/>
        <path d="M467.74,441.23c.62,1.72-2.76,2.76-4.04,1.97-1.03-.63,1.07-2.32.54-3.18v-1.11c-.43-1.05.35-2.38,1.12-3.03.81-.68,1.68-.45,2.49.08.53.36,1.14.93,1.34,1.28l-1.12,1.68c-.47.71-.65,1.45-.34,2.31Z"/>
        <g>
          <path d="M526.66,352.85c-1.36-.9-1.14-2.63-3.64-2.29l-1.46.76c-.18.09-.59.31-.7.43-1.71,1.88-2.86.05-3.32,1.51-.18.57-.5.73-1.11.96-.96.37-1.62,1.4-2.38,2.16-1.25,1.26-1.26.88-2.9,2.49l-1.89,1.85c-.57.56-1.23,1.04-1.91,1.57-.76.58-1.38,1.87-2.42,2-2.48.32-.1,1.57-3.36,3.23l-1.43.73c-.46.23-1.06,1.07-1.45,1.65l-1.33.3c-1.25,2.18-3.31,1.42-4.55,2.8-.9,1.01-1.63,1.78-2.54,2.7-1.34,1.36-1.21,1.63-2.21,2.3-.59.39-1.29.78-1.71,1.15-2.45,2.16-2.67.77-2.87,1.32l-.36.97c-.42,1.13-.6,2.25-.54,3.46l.12,2.54.47.98.27,1.96c.11.77.24,1.37.53,2.11.64,1.64-1.38,1.03-1.43,2.58l-.07,1.92c-.02.52-.35,1.4-.54,2.15-.3,1.12.5,2.97.1,5.49l-.31,1.96c-.47,2.98.09.64-.61,3.92-.25,1.14-.11,2.58-.23,3.84-.1.97-.38,2.13-.06,3.02,1.06,2.99-.41,3.27.94,6.79s-.29.79,1.06,5.22c.09.3.74.93.69,1.23-.41,2.2-.53,3.54-.06,5.76l.49,2.32.38,2.58-.98,2.07-2.8.51c-.4-.1-.46-3.08-1.14-2.11l-.45.65c-.9,1.29-2.47,1.6-3.93,1.27-.44-.1-.78-1.4-.49-1.78,1.7-2.3.65-1.99,2.34-4.86.82-.18,1.74-.11,2.82.16l.46-.41-1.06-2.34-1.18-.56-.81-2.65c-.11-.37-.48-1.15-.71-1.47l-1.1-1.56c-.41-.59-.3-1.29.11-1.92l1.17-1.8.13-2.61c0-.16.48-.47.46-.63l-.14-.98s.34-3.81.34-4.49c-.02-2.9-.44-2.44.4-6.28-.19-1.26-.34-2.54-.09-3.74l.27-1.31c.53-2.53-1.19-3.74.68-4.5l-.85-1.05c-.39-.48-.72-1.22-.46-1.82.6-1.37.42-2.49.34-3.89-.04-.68.12-1.5-.18-2.21-.25-.59-.21-1.11.12-1.68.36-.62.25-1.87-.51-2.22-.44-.2-1.34.5-1.73.78l-1.38.98c-2.93,2.09-2.57,1.58-5.75,2.46l-1.45.4c-.4.15-1.09.4-1.44.34l-1.84-.3c-.43-.07-.84-.83-.96-1.27l-.63-2.36c-.35-1.31,1.2-1.98,1.5-2.92,1.03-3.18,1.22-1.41,1.9-4.1.45-1.76,1.05-3.39,1.91-4.97l1.11-2.07c.94-.39,1.4-1.07,1.58-2.2l2.06-1.89c2.17-1.99.54.5,3.35-3.12,1.35-.76,2.59-1.64,3.75-2.53.27-.19,1.03-.57,1.34-.69l2.49-.96c1.09-.42,2.52-.64,3.23-1.59,2.04-2.7,1.87-.39,3.43-2.63.34-.48.8-.89,1.25-1.3l1.94-1.75,2.49-2.41.67-1.01c1.51-.75,2.72-2.42,3.64-3.84,2.14-3.32,0-1.74,2.34-3.42.63-.46,1.26-1.43,1.78-2.11,1.67-2.18.91-2.06,3.81-3.94l1.72-1.12c1.81-1.17,2.45-2.09,3.63-2.59.72-.31,2.05-.44,2.41-.96.47-.68,1.02-1.62,1.6-1.77l1.91-.51c1.18-.31,2.26-.89,3.19-1.69,2.65-2.3,1.65-.07,2.6-2.43.32-.8.99-1.77,1.57-2.51l1.04-1.33,1.63-.65c.33-.13.94-.78,1.16-.94.73.2,1.66.32,2.07.05,2.58-1.66.84.2,2.14-1.4.78-.96,1.08.12,1.8-.83.6-.78,1.7-1.85,2.48-2.59.58-.55,1.13-1.22,1.72-1.67l1.52-1.16c.65-.49.84-.23,2.95-1.26l3.13-1.53,2.35-1.55c.73-.48,1.49-.98,2.16-1.57.41-.21,1.42-.5,1.81-.75l1.58-1.01c.39-.25,1.06-1.21,1.51-1.27l2.53-.25,1.8.73c1.47.6.59,1.1,1.49,2.47l.94,1.44c.56.86,1.51,1.66,2.32,2.49l.06,1.63,2.95,2.19c.34.25.91.95,1.21,1.3l1.44,1.73,1.6,1.85c1.83,2.13.94,1.95,2.05,3.6l1.64,2.43c.31.47,1.05,1.17,1.47,1.61l3.35,3.51,1.49,1.68.49,1.5c2.1,2.87,1.48,2.3,4.47,4.35,1.99,1.36.14.21,1.84,1.86.8.78,1.38,1.41,2.1,2.29.47.58,1.62,1.21,2.36,1.21h1.79c.86,1.13,1.38,2.24,1.94,3.54.76,1.77-.15,4.02-.44,4.2-.45.28-1.42.43-2.1.52-1.82.25-.25,1.6-2.36,2.99-.14.09-.33.21-.35.25l-.23.4c-.06.1-.24.42-.14.47l.5.29c.25.14.51.89.34,1.11-1.48,2.03-1.41-.13-2.38,3.79-.2.81.96,1.5.06,2.56l-1.26,1.48c-1.73,2.04.49.46-1.91,4.89-.18.34-.63.83-.95,1.01-.73.42-.83.97-.49,1.77.41.99-.65,1.13-1.38,3.15l-1.15,3.18-.48,1.32c-.66,1.12-1.54,2.48-1.39,3.79l.24,2.16c.09.83-.26,1.65-.88,2.42l.77,1.87c.14.35-.12,1.25-.28,1.65-.51,1.25,1.04.74-.09,2.62-.02.04-.04.45-.03.5l.62,2.59c.33,1.38-1.11,3.22-.54,3.57l.96.59c.08.05.23.07.25-.02l.12-.62c.02-.12.15-.46.15-.51l-.03-1.74c0-.17-.04-.39,0-.45l.64-.84c.74-.97.72-.13,1.5-1.04.15-.17.46-.81.64-.7l.84.54c.24.15.51.92.49,1.2l-.13,2.57.25,1.7c-.18,1.04.28,1.99.52,2.99l.61,2.54.33,1.5c.08.37.11,1.2-.03,1.53l-.5,1.26-.35.58-2.79-.11c-.62-.46-1.87-4.02-1.91-4.48l-.23-2.66c.32,3.67-.45-4.47-.46-1.01l-.63.61c-.07.55-.19,1.2-.12,1.5l.43,1.83-.27,2.85c-.12,1.25,1.99,1.79,1.62,3.11l-.42,1.5c-.19.67-.82,1.43-1.38,1.96l-1.5,1.42c-1.58,1.5-2.89,0-3.64,1.97l-.96,2.53-.99,2.49-1.41,3.65c-.13.2-.65.77-.72,1.01l-.69,2.48c-.11.39-.75,1.08-1.01,1.52-1.35,2.3.45,1.44-1.45,3.17-.97.89-.04,1.88-.82,2.78l-.71.83c-.22.25-.47,1-.31,1.29s.78.55,1.18.67l1.63.52c1.44.45,1.32,1.43,3.24,2.26.21.09.18.76.07.97-.5.94-1.45,1.43-2.48,1.56l-1.32.96c-.97.7-3.09-1.81-3.72-2.55-.43-.51-.29-1.69-.32-1.62l.55-1.35c.05-.12.39-.41.5-.48s-.48-.47-.61-.46l-2.36.27-.45-.23c-.07-.04-.34-.16-.4-.18l-1.6-.42c-.12-.03-.26.46-.26.59l-.04,1.8c0,.43-1.1.8-1.56.69-.83-.2-1.76-.39-2.69-.55-1.58-.28-.4-.65-1.84-1.54-.21-.13-.53-.64-.53-.87l.02-.76c0-.33.39-.95.64-1.25.9-1.1,2.58-1.05,3.36-.48.22.17.75.16,1.04.32l1.43.76.55-.57c.12-1.06.14-1.79-.14-2.61l-.75-2.26c-.58-1.72,1.16-1.47,1.42-6.9.06-1.24,1-1.49.52-2.31-.32-.55-.73-1.64-.65-2.21l.25-1.66c.24-1.57-.74-.23-.29-2.58.05-.26-.16-.76-.32-1.11l-.88-1.97c-.68-1.52.09-3.5.03-4.1l-.22-2.1c-.04-.39-.04-.98,0-1.38l.18-2.1c.08-.94.32-1.87.69-2.87.02-.65-.55-2.04-.48-2.7l.32-2.9.2-2.31c.21-2.36.87-2.8.43-3.34-1.91-2.33.57-3.07-1.05-4.34l-.79-1.47c-.44-.82.39-1.49-.19-2.04l-1.19-1.12c-1.68-.39-3.86-2.34-4.91-3.7l-1.12-1.45c-.15-.2-.74-.57-1-.76l-.37-1.38c-.09-.33-.74-.54-1.25-.77-.95-.44-1.8-1.65-2.54-2.48l-3.11-3.48-1.47-1.67-1.47-1.67-1.08-1.2c-1.83-2.03-2.76-2.55-3.77-3.61l-1.55-1.64c-.52-.55-1-1.01-1.61-1.56l-.69-1c-2.32-1.14-.45-2.33-3.41-3.74l-.73-.99-.96-1.27c-.07-.09-.38-.29-.49-.37l-1.08-.72ZM575.16,376.57c.62.72,1.08,1.71,1.61,2.57.4.66,2.08,1.02,2.63.29.71-.94.49-2.46.82-3.46.22-.64.55-1.5.22-1.86-.44-.48-.6-.72-.73-1.09l-.34-.97-.06-.64c2.23-1.09,1.93-.54,5.23-1.47.38-.11.61-1.13.63-1.6.06-1.78,1.56-2.08,2.51-3.97.1-1.15.69-2.27,1.4-2.96l-.03-1.32c.41-.82,1.42-2.16,1.5-3.08l.21-2.38c.05-.61-.08-1.37.09-1.93.42-1.39,1.13-2.17,2.33-2.82-.44-.36-.89-.59-1.44-.67-1.01-.16-1.61-1.1-2.3-1.66l-3-2.43-1.29-1.03c-2.92-2.31-3.55-1.33-4.06-4.53-.1-.61-.77-1.76-1.3-1.99l-1.21-.54-.97-1.66c-.38-.65-.94-1.5-1.56-1.77-2.22-.97-.28-1.52-2.05-2.57-.66-.39-1.12-.86-1.4-1.46l-1.14-2.39c-3.37-2.62-1.14-1.11-3.08-3.39l-1.6-1.89c-.38-.45-.95-1.02-1.42-1.38-2.96-2.29-1.76-2.67-6.51-6.35l-1.47-1.14c-.45-.35-1.09-.79-1.51-1.04l-1.09.79c-1.17.56-2.13,1.07-3.19,1.71l-1.01.41-1.62,1.29c-.74.59-1.52,1.16-2.36,1.62l-3.17,1.72-1.53,1.27-1.44,1.2-2.54,1.89c-.31.23-.72,1.14-.85,1.48l-.32.84-1.91,1.05c1.43,1.95,1.66.92,3.89,3.86.27.36.74,1.15.67,1.59-.11.69-.02,1.84,1.08,2.11.69.17,1.63.5,2.11.95,1.63,1.55,1.4.66,4.24,2.17.32.17,2.24,2.8,2.25,3.45.14.32.68,1.02.98,1.22,3.65,2.36.74,2.13,3.02,3.29.43.22.78.56,1.05.91l1.66,2.13,1.24,2.16c.49.86,1.33,1.48,2.12,2.21.37.33,1.41.66,1.86.93l1.97,1.22c.98,2.53.25,1.49,2.02,3.67,1.55,1.91.06,2.06,1.18,3.33l1.86,2.12c.23.27.63.98.83,1.28.75.27.23,1.52.5,1.94l1.89,3.01c1.82,2.89.51,1.86,2.2,3.81l1.68,1.95ZM521.59,344.18c1.85-1.35,3.39-1.4,4.89.38.57.67,1.31,1.39,1.98,1.98l2,1.75c.97.85,1.64,1.95,2.47,2.95s1.86,1.98,2.75,2.92l.41,1.07c3.01,2.84-.08,1.62,2.41,3.85l2.56,2.29c.36.32.65.61,1.05,1.03,1.3,1.37-.29-.39,1.92,1.4.74.6,1.46,1.23,2.02,2l1.46,2,1.38,1.76c1.44,1.84.88.57,3.47,3.39l2.17,2.36c.3.33.36,1.38.57,1.76l.7,1.26c.77,1.38,1.86.22,2.76,2.43.21.53.82.91,1.33,1.19l1.83,1.02c2.68,1.49,1.77,1.58,3.66,1.14.58-.13,1.6.66,2.22.94l2.62,1.19c1.43.65,2.77,1.65,3.38,1.59.54-.05,1.44-1.53,1.61-1.9.09-.2-1.1-2.22-1.8-2.57-1.32-.66-2.1-1.38-2.4-2.88-.14-.72-.8-1.46-1.26-2.14-.25-.37-.5-1.28-.77-1.74l-.89-1.47c-.26-.43-.55-1.21-.76-1.76l-.57-1.49c-.37-.98-1.01-1.97-1.65-2.91-1.05-1.52.08-1.87-1.06-2.3-.18-.07-.72-.28-.79-.42l-.9-1.93c-.15-.32-.82-.91-1.01-1.22-.12-.97-2.04-4.4-2.63-4.75l-1.84-1.07-1.66-.96c-.64-.37-1.61-1.12-1.88-1.78l-.6-1.48-1.18-1.9c-1.14-1.84-1.91-2.9-3.61-4.14l-2-1.45-.74-2.01c-.41-1.12-.62-.9-2.16-2.76-1.64-1.99-2.68-1.64-5.53-2.77-1.17-.46-.96-1.38-2.91-3.33l-1.4-1.4-.88.08c-.14.01-.36-.38-.43-.51-1.07-2.24-3.37-1.15-5.02-.23-2.43,1.35-2.57-.07-3.25,1.26-.88,1.71-.42-.22-2.61,1.46-.71.55-1.87.86-2.64,1.34l-1.01.62-2.5,1.3c-1.55.81-1.4,1.46-3.63,2.91-2.82,1.83-3.81,1.7-4.6,3.4-1.16,2.48-1.62.58-2.57,3.45l-1.13.93.56.72-2.48,1.92c-.31.24-1.73,2.59-4.89,5.07-.38.3-1.06.85-1.33,1.15l-1.64,1.86c-.63.71-1.22,1.39-1.91,2.06-.89,1.2-2.13,2.05-3.63,2.37-1.78,2.43-3.04,2.23-5.6,3.55-2.82,1.46-3.09,1.27-3.84,2.85-.5,1.05-2.97,1.88-3.96,5.11l-1.76,1.06c-.91.55-1.43,1.34-1.53,2.49-.17,2.02-1.79.8-1.83,3.58l-.73,1.14.7,1.67,2.19-1.18c.22-.12.7-.73.88-.86,1.1-.43,2.09-1.13,2.99-1.88.66-.55,1.7-1.08,2.18-1.81.52-.78,1.13-2.37,2.06-2.27,1,.11,1.79.24,2.49-.29l1.65-1.26,2.48-1.86c.85-.63,1.74-1.84,2.38-2.7,2.45-1.21.47-1.06,2.48-1.89l.89-.99c1.06-.45,4.94-2.51,5.65-2.98,2.88-1.91,3.81-3.42,6.85-4.9.31-.36.87-1.24,1.2-1.55l1.36-1.27,1.79-1.64,1.5-1.37c.39-.35.9-.92,1.34-1.18l1.79-1.06c1.33-1.87,3.57-4.27,5.48-5.42.2-.12.66-.53.55-.72l-.47-.88c-.42-.78,1.4-.72,2.81-1.75ZM571.94,426.05c.32-.53.67-.95,1.11-.94s.81.05.74-.06l-.31-.51c-.24-.39-.42-1.44-.21-1.87l1.9-3.85,1.42-.93c.12-3.5-.28-3.6.8-7.16.32-1.07,1.11-1.98.85-3.26-.17-.83-.74-2.13-.58-2.92.35-1.73.89-3.26,1.46-4.83l.13-1.62c1.99-3.88-.4-3.67.31-4.6.39-.51.89-1.71.77-2.59-.72-.04-1.1.27-1.42.87-1.03,1.92-.38-.07-2.16,2.18-.97,1.24-1.77.58-3.53.69-1.57.1-2.44-.87-2.71-2.23l-1.82-1.47c-.08-.07-.69,0-.66.09l.21.59-.64.8-.53,2.68c-.11.58-.08,1.44-.13,2.02-.03.41-.32,1.17-.45,1.74-.6,2.66.73.76-.33,4.19-.25.8-.43,1.57-.5,2.38l-.21,2.61-.17,2.3-.15,2.27c-1.62,2.36.88,2.73.65,7.12l-.11,2.03-.12,2.05c-.07,1.26-.12,2.62,0,3.85l.18,1.77.13,2.03.1,1.51c.04.58.39,1.29.75,1.66l1.42-1.61c.74-.7,1.03-1.02,1.09-2.18.04-.78.81-1.65,1.23-2.35l1.47-2.44Z"/>
          <path d="M518.83,402.49l-1.04-.41c-3.39,2.09-4.36.39-6.99,1.53l-1.7.28c-.49.73-.93,1.15-1.53,1.74-.47.46-1.02,1.27-1.59,1.76l-2.01,1.74c-.64.55-2.02,2.8-2.33,3.85l-.94,3.19c-.25.86-.3,1.77-.38,2.76-.19,2.49-.64,2.94-.55,5.32l.91.74-.23,2.56c-.07.77.03,1.69.08,2.49.13,1.87.82,3.07,1.95,4.48.42.52.37,1.88,1.31,2.05.4.08.84.19,1.05.31.61.37-.4.84-.35,2.43.03.93-1.99.52-2.09,1.79-.11,1.4-1.06,1.4-1.77,2.11l-1.83,1.83-.63.96-2.41-.31c-.89-.11-1.86-.36-2.81-.57-.54-2.32,2.72-3.54,4.53-3.81l-.34-1.81c-.05-.26-.4-.97-.42-1.26-.08-.83-.02-2.39-.22-3.18-.23-.87-.35-1.46-.37-2.22l-.04-1.97c-.02-.96.07-2.17-.12-3.05-.4-1.93-1.23-3.81-.66-5.75l.7-2.39c.1-.34.04-1.24.1-1.63l.47-3.17c.16-1.08.39-1.93.86-2.87l1-2c.18-.36.72-.99,1.01-1.43.43-.65.9-1.16,1.48-1.7.31-.29.81-1.13,1.18-1.36.79-.48,1.65-1.15,1.88-2.15l1.61-.64c.79-1.82,3.18-2.43,4.91-2.87l2.95-.74.9.64,1.5-.46c2.77-.85,1.97-1.36,4.45-1.49.35-.02,1.21.29,1.51.48,2.48,1.88,1.85-.09,5.17,3.12.35.33,1.42.71,1.66,1.12.31.53.76,1.29,1.15,1.72,2,2.15,1.2-.05,3.63,2.41l1.41,1.43c2.01,2.04.09.98,3.3,3.29l.57,1.62c.17.49.16,1.47.29,2.12.88,4.36,1.34,1.42,1.27,4.12-.02.52.38,1.37.61,1.94l-.21,1.09.3,2.6.44,3.16.3,2.01c.12.79-.03,2.01.17,2.75.57,2.17,1,2.91.65,5.62l-1.88,1.09c-1.02.59-2.42.62-3.47.27l-.48.15.07.44.19.61c.14.47,1.08-.25,2,.54.54.46-.16,2.83-1.14,2.98l-1.9.28c-.62.09-1.68-.85-2.26-1.16l-1.09-.58.58-2.27,1.77-1.03c.57.13,1.73.19,1.87-.28l.44-1.48c.69-2.3-.94-.81-.45-3.26.19-.97.05-2.02-.06-3.03l-.31-2.85-.18-1.67c-.06-.57-.04-1.18,0-1.79l.21-3.12c.05-.72-.07-1.54-.55-2.03l-1.15-1.18c-.24-.24-.06-1.25-.22-1.56l-1.33-2.68c-.26-.52-1.14-1.37-1.55-1.78l-2.46-2.54c-.56-.58-1.79-1.28-2.54-1.88-2.96-2.37-.38-1.69-3.28-3.88l-.44-1.22c-2.56.41-1.86-1.74-4.11-1.06Z"/>
          <path d="M513.83,379.49c-2.01,1.49.01,1.1-2.86,1.85-.42.11-1.41.12-1.57-.24l-.79-1.72c.12-1.6,1.36-2.72.98-4.23l2.28-.71,1.07-1.23c3.42-3.93,3.29-2.37,5.15-4.23.37-.37.83-1.16,1.21-1.32l1.91-.76c.92-.37,1.75-.24,2.71.15l1.66.67c.27.11.05.93.04,1.21,0,.37.35,1.42.06,1.66-.47.39-1.67.88-2.21,1.18-1.33,1.68-4.38,4.47-6.59,4.62-1.46.1-.11.93-1.55,2l-1.5,1.12Z"/>
          <path d="M529.07,383.34c-4.09,1.21-4.33,2.68-6.45,1.37l-1.6-.23c-.15-.91-.09-2.08.21-2.89,1.4-.93,2.3-1.87,3.13-3.28.36-.61,1.18-.93,1.71-1.38l2.51-2.14c1.43-1.22.83-2.23,2.55-2.83,2.95-1.02.94-1.34,2.91-1.4.93-.03,2.14.28,2.42.99.18.45.37,1.05.54,1.27.38.49,1.32,1.39.99,1.96-.39.65-1.5.75-2.19.72-2.29,2.01-3.44,1.62-4.61,3.4l-.02,1.44-1.7,1.64c-.1.1.3.71.22.83-.1.16-.43.47-.63.53Z"/>
          <path d="M527.73,444.8c-.51.51-1.31-.78-2.65-1.01l-1.43-1.34c-.72-.68-1.11-1.74-.32-2.64.43-.5,1.19-1.05,1.76-1.41,2.42.27,3.86,2.17,4.5,4.53l-1.86,1.87Z"/>
          <path d="M551.98,446.25l-2.26.24c-.35.04-1.21-.18-1.52-.33-1.34-1.51-2.67-.91-2.39-3.75l1.45-.59c.26-.11.99-.17,1.31-.2l2.17-.19c.92,1.79,1.69.9,2.47,2.25.28.48-1.09.73-.79,1.61l.19.57c.05.15-.46.35-.63.37Z"/>
          <path d="M519.31,443.12c-.67.44-1.15.77-1.8,1.31-.66.58-4.91-.1-3.97-1.74.6-1.04,1.37-1.65,2.4-2.27,1.41-.86.96-1.84,2.11-1.56l1.95.48c.07.63.16,1.72-.05,2.22l-.64,1.56Z"/>
          <path d="M507.86,446.16c-.53.14-1.06.01-1.67-.23-1.82-.73-2.07.25-3.28-2.5,1.06-2.4,7.75-1.34,7.53.48l-.2,1.64-2.38.62Z"/>
          <path d="M486.61,446.12c-.43.2-1.48.3-1.91.35-.92-.59-.88-2.18.09-2.82v-.58c0-.58,1.48.02,1.7-1.48.11-.77.54-1.27,1.33-1.33.6-.04,1.5.44,1.52.9l.07,1.83c-.02.5-.36,1.54-.56,2.08l-2.24,1.05Z"/>
        </g>
        <g>
          <path d="M366.77,218.73c-.37.41-.77.9-.99,1.34l-1.35,2.71-2.38,4.78-1.05,2.03-.98,1.02c-.17,1.07-.71,2.1-1.66,2.63l-.41,1.02-2.43,1.6c-.36.23-.94.74-1.26.9l-2.61,1.25c-.6.29-1.86.08-2.68-.09-3.22-.63-1.02-.86-3.44-2.09-1.17-.59.32-.02-1.31-2.66-.64-1.04-1.11-2.4-1.44-3.63l-.49-1.82-.29-1.73-.66-2.55c-.17-.64-.61-1.41-.66-2.08l-.16-2.14-.16-2.48c-.02-.33.33-.97.55-1.33l-.93-.94c-.21-.66-.28-2.23.12-2.82l1.47-2.17c.48-.7,2.81-1.51,3.74-1.21.23.07.19.62.15,1.03-.21,1.81,1.06,1.57.9,3.02-.1.85-.14,1.47-.17,2.18l-.11,2.8-.07,1.74c-.03.66-.27,1.78-.36,2.42.51.96.84,1.92.83,2.98-.03,2.61-1.66.03.49,3.94l.82,1.5,1.33,2.71c.25.5,1.6,1.18,2.07.91l2.59-1.46c1.17-1.47,2.63-2.99,3.45-4.73l1.1-2.32.92-1.73c.74-1.39,2.72-3.37,2.46-5.33l-.14-1.1,2.48-.35.19-1.58,1.79-.45,1,1.38c.2.27.47,1.1.48,1.36l-.75,1.53Z"/>
          <path d="M220.91,218.2c-.63.65-.95,1.7-1.29,2.53-1.28,3.09-1.69,1.46-2.81,3.11l-1.79,2.64-1.52,1.79-.92,1.49c-.76,1.23-3.02,2.64-4.28,3.03l-1.3.41-1.86.58c-.91-1.3-2.35-.55-3.21-1.32-.32-.28-.86-.92-1.16-1.12l-1.4-.96c-.29-.2-.86-.87-1.05-1.16l-.24-1.49c-.61-.84-1.08-1.62-1.48-2.59-1.01-2.48.29-1.26-.99-3.55-.47-.84-.68-1.84-.49-2.78l.54-2.79c-.5-.35-.98-.83-.91-1.18l.43-2.37c.08-.41,1.73-2.8,2.23-3.19l.97,1.28c.16.2.43.65.6.9.33.38,1.4,1.05,1.44,1.55l.16,2.25c.03.34.24,1.15.12,1.44-.22.54-.76,1.68-.68,2.23l.36,2.34.2,1.31c.1.66.26,1.73.72,2.13,2.18,1.92-.31.72,3.82,4.48.22.2,1.13-.06,1.41-.09l1.01.15c1.6-2.64,2.65-1.88,3.16-3.07l.82-1.91c.23-.39.98-1.08,1.24-1.48l1.15-1.74c.87-1.32,1.6-2.49,2.88-3.47l.67-1.8.53-1.55,1.53-.11,1.59-1.51c.63.74,1.37,1.65,1.52,2.5.22,1.32-.82,2.19-1.72,3.12Z"/>
          <path d="M398.69,0s.29.22.37.23l1.64.14c.53.05,2.53.55,2.9,1.39l.94,2.13c.63,1.42.64,1.61-.05,2.48-1.22,1.52-.09,1.05-2.47,2.68l-.15.43-.19.53c-.53,1.47.84.26.16,3.14-1.13,4.76.31,5.3-1.78,6.58l-1.35.83c-.05.03-.5.09-.59.1l-1.89.1-1.42.07c-.7.04.38-.94-1.99-.75l-1.2.09s-.28.11-.3.15l-.34.53s.18.43.18.49l-.1.91c0,.05-.53.25-.6.64l-.08.52-.09.56c-.34,2.16.42,1.55.1,3.12l-.32,1.56c-.27,1.34,1.49,1.56.75,3.41l-.53,1.32c-.09.21.13.8.2,1.09l.54,2.3c.03.11-.21.62-.27.71l-.24.32s-.17.48-.16.54l.55,2.23.13.5c.02.07.11.26.21.47.71,1.6.08,1.64.16,2.48l.21,2.23.3,3.22c.11,1.18-1.83,2.55-1.01,3.17l.76.57s.22.35.24.41l.15.43.37,1.02c.02.07,0,.43,0,.6v.61c-.01.12,0,.42.01.5l.07.5.06.44c-.06.98.06,1.8.19,2.78l.23,1.75c.13.96.29,1.89.29,2.83v2.05c0,.41.32,1.35.45,1.77.41,1.33-.57.69-.01,3.15.17.74.15,1.54-.15,2.17-.85,1.81.36,1.15.33,2.57-.06,3.11-.72,2.46-.58,3.67l.33,2.89.27,2.3.3,2.57.33,2.2c.26,1.75,0,2.65.52,2.88l1.46.63c.63.27,1.43.1,2.16.15l2.52.18c1.31,1.33,2.05,3.02,2.75,4.69l.45,1.06c.15.35.48.82.81,1.12,1.94,1.82.15.95.91,1.73l.95.97,2.16,2.21c1.27,1.3-.04.6,1.52,2.38l1.64,1.87,1.77,1.84c.6.62-.23.73.73,1.91l.44.54c.06.07.07.07.41.38l.47,1.47c.28.86.74.19,2.33,2.18l1.07,1.35c1.32,1.65-.44.79,1.22,3.22,3.32,4.84,1.87,5.11,2.88,6.29.42.5,1.41,1.75,1.27,1.63l1.2,1.05c.15.13.37.78.5.97l.94,1.3c.31.43.65.93,1,1.27,3.05,2.93,1.77,3.21,3.86,5.29,1.05,1.05,1.89,2.08,2.81,3.23.46.57,1.13,1.21,1.52,1.83l.66,1.05c-.12-.2.57.26.77.51l1.88,2.29c1.14,1.38,1.54,1.58,2.5,3.52l.88,1.78c.41.82,1.37,1.71,1.88,2.54l1,1.62c.45.73.92,1.34,1.36,2.07l1.09,1.81c1.12,1.85,1.47,1.17,1.02,2.61-.1.31.26.8.69,1.05.96.55,1.81,1.58,2.68,2.01.68.34,1.53.62,1.9,1l.34.35,4.56,4.62c.37.38.86,1.13,1.19,1.6l.73,1.02.71.98c.25.35-.6,1.01.18,1.53l1.85,1.24s.27.27.3.31l.3.36,1.36,1.64s.03.55.05.61l.19.37s.17.21.25.31c1.39,1.79-.39.24,1.82,2.14l2.17,1.87,1.72,1.43c.3.25.85.66,1.07.89l3.55,3.67c1.11,1.15,1.6.53,2.9,2.44l1.19,1.75c.12.18.48.5.67.7l.73.74.86.85c1.34,1.32-.03.56,1.11,1.44,2.47,1.93-.02.76,3.02,3.26,3.62,2.98,1.47,2.97,4.91,4.8,1.77.94.99,1.42,2.35,2.44l1.18.88c.63.48,1.37,1.02,1.61,1.76.25.78.71,1.75,1.27,2.1l1.13.72c.18.11.42.55.57.83,1.25,2.2,1.19,1.42,1.85,2.43l.22.35.23.34.23.34.25.36c.04.06.14.23.18.31l.23.43c.58,1.07.79.36,1.29.78l1.62,1.37.34.27c.09.07.29.21.31.25l.24.35.22.34.23.34c.83,1.25,2.09,1.69,3.3,4.06l.22.43.19.37c.05.1.17.32.18.38.59,2.94,2.08,2.04,2.22,2.63l.18.71c.03.1.23.44.31.51,1.57,1.64.77,1,2.3,1.75l1.18,1.05,1.22,1.09,1.17,1.12c.57.54,1.13.3,1.88.97,1.67,1.51.6.73,1.88,1.79.08.07.58.27.64.35l1.58,2.34c.71,1.05,2.5,1.51,1.54,3.69l-.43.99c-.2.46-.48,1.41-.87,1.64-1.65.99-1.48.4-4.29,1.18-2.6.73-2.81.13-4.28,2.24-.11.16-.5.47-.63.56-1.57,1.05-.45.83-1.99,1.36l-.51.18-.4.15s-.19.24-.27.34c-1.55,1.93-1.31.63-1.87,1.4-1.55,2.13-2.81,2.3-5.12,3.55-.26.14-.82.62-1.07.67l-2.1.41c-.05.01-.31.24-.38.29-2.19,1.48-1.38.65-3.29,1.84-.49.3-1.11.84-1.52.92l-.6.12c-.16.03-.58.27-.68.39-1.93,2.18-.55.22-2.39,1.89l-1.2,1.09c-.36.32-1.63.28-2.02.57l-1.62,1.23c-1.75,1.33-1.05.41-1.87,1.05l-1.25.99-.54.42s.14.37.57.72l.75.6c.16.13-.14.65-.14.9-.07,2.48.33,1.94.22,2.8l-.06.47-.03.33.13.41c.29.97.34,2.24.24,3.33l-.05.54-.05.62-.04.62c-.01.18-.03.44-.05.51l-.11.56-.09.48-.08.47c-.07.43-.2,1.11.03,1.56l.19.37c.17.34.45.88.27,1.39l-.15.43-.16.43c-.03.07-.21.39-.2.44l.17,1.06c.33,2.01-.63.22-.31,3.68.12,1.24.08,3.24.11,3.42l.09.55c.41,2.46-.54,1.45-.43,3.69l.13,2.75c.01.28.53,1.07.44,1.36-.32.99-.23,2.6.17,3.77.26.74.1,1.9.19,2.73l.18,1.76.15,1.95c.01.15.2.57.27.69l.22.43.03,2.01c0,.07.06.42.08.49l.12.46.13.45.13.47c.02.07.07.35.07.41v.59s.03.6.03.6c0,.1.04.41.05.48l.11.49c.12.53.13.15-.04.83l-.12.47c-.02.07,0,.37-.01.56v.61c-.04,1.14-.33.52-.24,1.84l.14,1.9.05.51.06.61c.14,1.42.59,1.44-.04,2.66-.68,1.31.02.92.01,2.66v2.97c0,.78.81,1.69,1.47,3.04.13.26.35,1.04.55,1.24,1.33,1.39-.16,1.85.35,2.54.31.43.05,1.74-.67,1.92s-3.23.61-3.53.34l-2.48-2.23c-.3-.27-.62-.99-.41-1.2l.37-.36c.12-.11.48-.31.29-.68l-.21-.39-.2-.37c-.19-.37-.21-.3-.38-.82.26-1.62.4-3.34.19-4.95l-.33-2.48c-.01-.08-.15-.49-.15-.55l.22-1.68c.05-.37-.24-1.29-.21-1.69s.18-1.02.15-1.28l-.17-1.26.24-.55-.15-1.5c-.07-.64-.23-1.47-.25-2.03l-.18-5.34c-.02-.52-.01-.97.02-1.54.05-.9-.06-1.93-.09-2.85-.05-1.17.5-2.32,0-3.25-.33-.62-.63-1.46-.57-2.03l.05-.42.18-2.69c0-.09.16-.47.14-.53l-.19-.51c-1.12-3.03-.17-1.75-.31-2.59l-.26-1.59.33-2.9c.11-1.01.88-1.08.38-1.69-.22-.27-.47-.42-.47-.85v-.57s0-.57,0-.57c0-1.07.04-2.07.12-3.07l.25-3.23.14-1.55c.04-.4-.74-1.03-.35-1.9l.48-1.08c.03-.06.04-.62-.02-.66l-1.05-.84c-.19-.15-.17-.88-.12-1.12l.41-1.7c.4-1.65-.37.34-.44-2.83v-.57c-.02-.16-.28-.66-.43-.6l-.7.29s-.64.47-.69.49l-1.34.6s-.25.2-.34.27l-.3.24s-.51.14-.55.18l-2.02,2.08c-.08.08-.31.28-.36.31l-1.33.73c-.6.33-1.04,1.21-1.42,1.91l-1.59,1.27c-1.68,1.34-.54,1.98-1.02,3.02-.24.52-.96,1.58-1.42,1.93l-2.2,1.72s-.21.38-.24.44l-.25.59s-.22.31-.26.34l-.31.25-.31.25c-1.07.85-1.64,3.07-3.2,2.86l-.52-.07c-.08-.01-.33-.11-.43-.15l-.43-.15-.41-.15s-.32,0-.39.02l-.43.09c-.46.1-1.08.18-1.5-.1l-.35-.23-.34-.22-.34-.22c-.33-.22-.38-.21-.56-.56l-.2-.4-.19-.39s-.19-.28-.25-.33l-.31-.26s-.32-.19-.38-.21l-.45-.11-.45-.1-.48-.1-2.38-.53c-.58.74-4.01.81-3.42.96l-2.74-.71c-1.9-.49-3.65-.59-5.58-.36l-2.34.27c-1.37.16-2.71.3-4.05.17l-1.66-.16-2.05-.23-1.66-.16-2.64-.43c-1.82-.29-2.79-.14-4.32.3-.74.21-1.75.42-2.25.87-.38.34-1,.85-1.2,1.15l-1.61,2.41c-.14.2-.17.73-.11,1.05.67,3.65-.73,3.58.23,4.74l.34.41c.62.75-.89,2.14-.54,3.81-.27.86-.62,1.71.17,2.59-.02.1-.05.41-.06.56l-.34,2.97c-.05.46.45,1.11.71,1.52l.91,1.48c.24.39.21,1.39.07,1.77l-.79-.04c-.22-.01-.78.33-.83.55-.09.42.12.79.22.99l.18.37c.31.62.14,3.53.33,5.38.13,1.21.06,2.41-.04,3.54l.52,1.75c.6,2,0,1.91.11,3.28.24,2.95.02,1.68.08,3.95l.09,2.97c0,.28.45,1.03.54,1.29l-.06,5.93c-.02,2.62.51,1.16.36,3.69l-.14,2.22c-.02.33-.05.78-.03,1l.07.81.29,2.87.17,1.32.16,1.18s-.04.34-.05.43l-.18,1.42-.17,1.66c-.05.48-.17,1.39-.02,1.78l.61,1.59-.21,1.93.26.54-.12,1.12c-.14,1.28-.06,2.65-.07,3.94l-.04,2.8c0,.15-.01.5,0,.57l.13.8.07.43c-.05.15-.17.46-.17.52v1.31c0,.06.1.36.13.47l.14.47c.02.06,0,.47-.04.52l-.25.41c-.19.31-.52.98-.57,1.26.26.58.61,1.41.68,1.89l.25,1.58c.39,2.48,0,1.7.41,4.64.84,6.01-.04,5.79.02,7.12l.13,2.8c.02.54.03.96-.02,1.55-.05.64.14,1.51.15,2.21l.11,6c0,.51.49,1.35.09,1.84l-.26.32c-.12.14-.84.45-.69.57l.66.56c.21.18.47.17.47.68v.6s0,.56,0,.56c0,.08.07.4.09.46l.13.47.12.45.13.46c.03.09.1.39.1.46v.55s0,.58,0,.58v.57s0,.58,0,.58v.59c0,.36.02.62-.23.9l-.31.35.67,2.91.11.43.12.45c.02.08.06.26.09.42l.46,2.13c.01.06.13.37.14.43l.03.59c.04.71.22,1.8.79,2.39l1.47,1.55c.21.22.54.91.59,1.17.53,2.66.45,1.95-.16,4.69-.2.9.59,2.39.92,2.49l.5.15s.22.26.24.31l.19.4c.4.83-.69,2.07-1.03,3.94-.1.57.63,2.07.12,2.75-.19.26-.66.85-.79,1.14l-.78,1.73c.28-.62-1.04,1.49-1.81,1.18l-.51-.21-.45-.17c-.5-.19-1.19-.72-1.26-1.15l-.09-.6c-.13-.87-1.93-.63-2.27-1.37-.27-.58-.34-1.79,0-2.18l1.22-1.36c.78-.87-.41-.11,1.02-2.25.34-.51.51-1.38.46-2.05l-.04-.58c-.02-.21-.52-.72-.52-.73l.13-1.42c.09-.94-.98-1.58-1.61-3.85l-.13-.48c-.02-.06-.15-.28-.24-.46-.57-1.09,1.41-1.77.96-2.61l-.75-1.39c-.05-.09-.24-.41-.25-.46l-.37-2.21c-.23-1.4.92-1.78.47-2.44-1.08-1.57-.58-.08-.88-1.95l-.07-.44-.09-.48c-.25-1.42.3-.88.42-1.41.49-2.26-.59-4-.71-6.21l-.15-2.89-.1-2.15-.06-1.57c-.06-1.51-.25-2.84-.51-4.37-.54-3.2.5-4.04.09-6.69-.58-3.75.55-1.46-.16-3.81-.19-.62-.32-1.31-.32-1.95l-.06-9.68c0-.45-.15-1.2-.13-1.61l.06-1.34c.03-.77.04-1.52-.04-2.26l-.24-2.16c-.02-.21-.05-.56.03-.68l.37-.57c-.06-.4-.24-.9-.04-1.06.15-.13.56-.31.88-.46v-.37s-.42-.21-.42-.21c-.18-.09-.52-.22-.59-.54l-.1-.48-.1-.5-.09-.46-.09-.44c-.01-.05.17-.39.21-.42l.92-.66c.17-.12-.18-.72-.31-.89l-.26-.34-.25-.33c-.04-.05-.25-.35-.25-.4l-.13-2.4-.22-2.59-.23-2.3c-.01-.11-.09-.52-.07-.59l.55-1.88c-.41-.94-.54-1.66-.57-2.64-.09-3.12-.5-2.76-.17-6.23.06-.62.05-1.16-.09-1.71l-.27-1.05c-.01-.05.21-.43.22-.49l.09-.52c.09-.56-.81-.81-.51-1.48l.42-.91c.12-.26.38-.94.26-1.19l-.73-1.5s.13-.43.12-.48l-.19-1.6-.09-.77-.04-.35.31-.39.26-.33s.17-.4.16-.46l-.06-.52-.3-2.45-.5-.41s-.25-.31-.25-.36l-.13-2.08-.04-.88c-.02-.42-.03-.86-.07-1.29l-.24-2.2v-1.26c.02-1.67.33-1.1.06-1.79l-.49-1.27c-.03-.07.04-.49.05-.69.02-.29-.5-.75-.79-.78l-.64-.06-.55-.05c-.28-.03-.84.04-1.29.06l-5.46.16c3.38-.1-5.26.96-1.72.2l-2.3.49c-1.36.29-1.84-.96-5.93.88-.55.25-1.48.32-2.13.46l-3.05.67c-1.58.35-.91,1.12-2.66,1.22l-2.94.16c-.61.03-1.5-.13-2.35-.15-1.21-.02-1.92-1.68-1.46-2.1l1.67-1.49c.36-.32.87-.49,1.31-.72l1.27-.69c.44-.24,1.48-.21,2.08-.26l1.78-.17,1.39-.12,2.13-.25c.43-.05-.08-.81,1.8-1.13l1.77-.31c2.51-.43,2.48-.83,4.94-1.24l1.98-.33,4.59-.83,1.77-.26c1.27-.19,1.2.7,3.19-.22,1.81-.84.68-.84,1.64-1.24l.53-.22c.1-.04-.07-.37-.18-.41l-.6-.23-.17-1.72c-.06-.64-.35-.58-.16-1.41l.11-.49c.01-.05,0-.3-.01-.41l-.08-2.42c0-.11,0-.39-.02-.48l-.27-2.32c-.1-.84.02-2.16-.22-2.86l-.69-2c-1-2.89.69-2.26-.37-4.04-.95-1.58.65-3.58,1.43-4.21,1.37-1.11.71-.26,1.41-.71,2.45-1.59.21-.24,2.62-.77l1.69-.37c2.23-.48.45.58,4.43-.04,3.59-.56,1.95.7,4.07-.21,1.2-.51,2.73-.61,3.9-.27l1.6.47,2.53.66c5,1.31,2.79-.88,7.23.05l1.76-.51c.19-.06.82.04.83-.15.07-1.63-.16-1.97-1.01-3.1l-.89-1.18c-.73-.96-1.18-2.04-1.59-3.26-.25-.73-.85-1.48-1.17-2.15l-1.13-2.43c-.28-.59-.69-1.55-1.02-2.05l-2.62-4.01c-.23-.36-.82-1.06-1.13-1.34l-1.21-1.14c-.35-.32-.67-.59-1.11-.94-1.26-1-.03-.43-2.3-2.21l-1.14-.9c-.17-.13-.44-.51-.68-.75l-1.66-1.63-2.54-3.03c-1.2-1.44-.91-2.71-2.46-4.37-.45-.49-.73-1.15-1.09-1.76-.56-.95-1.16-1.85-1.78-2.77-1.34-1.98-.21-1.17-1.14-2.27l-1.07-1.28c-1.49-1.78.12.74-3.24-2.13-.88-.76-1.74-1.5-2.43-2.41l-1.61-2.12c-.14-.19-.43-.67-.53-.88l-1.27-2.48c-.61-1.19-1.19-1.27-2.34-1.62l-2.89-.87c-2.56-.78-1.85-.17-2.49-.87-1.29-1.42-1.64-.87-2.5-1.52-.44-.33-1.09-1.07-1.47-1.31l-1.66-1.01c-.56-.34-1.1-.75-1.68-1.18-.53-.39-1.58-.91-1.93-1.39l-1.24-1.69-1.53-2.18c-2.75-3.9-1.75-.93-4.85-4.92-.51-.65-1.52-1.21-2.16-1.78l-1.68-1.48c-.99-.87-1.89-1.69-2.73-2.69l-1.7-2.02-1.48-1.65-1.61-1.85c-1.57-1.82-.5-1.83-1.14-1.94l-.51-.09c-.13-.02-.45-.06-.49-.1l-.73-.65c-.1-.09-.28-.25-.34-.32l-1.68-1.95c-.92-1.06-.14-1.65-.64-1.76l-.86-.19s-1.65-1.31-1.96-1.67c-.89-1.07-1.72-1.87-2.78-2.7l-1.78-1.4c-1.32-1.03-.66-1.15-1.31-1.52-.35-.2-1.17-.55-1.47-.83l-2.18-2.04-1.74-1.41c-1.08-.88-2.14-1.63-3.12-2.61l-1.15-1.16c-.72-.73-1.48-1.63-2.28-2.24l-2.31-1.77c-.1-.07-.37-.19-.46-.22l-.43-.15-.62-.92s-.25-.3-.3-.35l-1.97-1.65c-1.72-1.44-1.12-1.24-2.18-2.13l-2.03-1.69c-.9-.75-1.65-1.54-2.43-2.4l-1.9-2.11-1.53-1.64-.71-.98-1.34-1.85c-.68-.93-1.72-1.94-2.63-2.7l-1.58-1.32-.93-.78c-.58-.71-1.21-1.56-1.94-2.03l-2.14-1.35-2.28-1.44-2.26-1.46c-1.22-.79-.16-.6-1.1-1.22l-2.68-1.75c-.79-.52-1.76-.93-2.52-1.51l-2.47-1.85c-1.86-1.39-2.46-2.96-4.95-4.72l-3.56-2.51c-.51-.36-1.52-.75-1.89-1.16-.6-.64-1.03-1.09-1.59-1.61l-.9-.83c-.69-.63-1.32-1.33-1.92-2.06l-1.43-1.74c-.07-.08-.3-.42-.31-.38.02-.16-.63.8-1.18.98l-.18-1.24-.22-.33-.21-.33c-.03-.05-.05-.51-.09-.55l-.75-.67c-.19-.17-.51-.5-.67-.73l-1.29-1.85c-.13-.18-.93-.22-1.15-.3l-1.29-.46c-1.09-.39-.97-2.18-2.06-2.98l-1.85-1.37c-1.19-.88-2.11,2.94-2.37,3.75l-.95.89c-.18.17.01.9-.06,1.15-.74,2.58-1.55,2.14-1.5,2.8.02.24.05.82-.03.98l-1.14,2.25c-.25.49-.47.92-.61,1.38-.76,2.52-1.1,1.5-.67,3.72-.03,1.34-.9.71-1,1.75l-.22,2.29c-.32,3.3-.2.91-1.04,3.35-.44,1.28-.66,2.4-.88,3.77-.09.59-.46,1.43-.67,2.08-.15.48.05,1.71-.14,2.16l-.77,1.81c-.11.26-.52.83-.55,1.12-.31,3.26-.46.92-.97,4.24l-.3,1.98c-.03.22-.02.77,0,1.07.04,1.14-1.25.29-.58,2.54.32,1.08-.27,2.03-.61,3.17-.13.42-.22,5.27-.26,4.95l.36,2.65c.1.71.65,1.39.98,2.01.46.87.9,1.55,1.51,2.28,2.8,3.34,2.66,1.58,5.47,2.56.65.22,1.29-.07,3.79.13l2.58.21,1.49.09,3.02.17c.53.03,1.57.57,1.88.81l1.19,1.83c1.31,2.02.4,2.78-.24,3.99l-.92,1.73c-.48.91.15,2.53-.02,3.45s-.32,1.72-.46,2.71c-.16,1.15-.71,2.29-.99,3.46l-.3,1.25-.26,1.03-1.15,2.82c-.42,1.03-.42,2.22-.95,3.11l-1.1,1.84-.38,1.62c-.48,2.08.41,1.94-.17,2.31l-.58.37-.34,2.22-.51,1.65c-.27.86-.08,1.96-.26,2.69l-.38,1.58-.33,1.49c-.06.29-.04.72-.11,1.15l-.32,1.95.15,2.59c.02.33.26.95.45,1.2l.99,1.3c.47.43,1.1.91,1.18,1.35.08.48-.25,1.43-.58,1.84l-1.3,1.62c-.3.37-.9.98-1.12,1.31l-.76,1.56c-.52,1.07-.94,1.99-1.93,2.74-1.31,1,.16.83-1.34,2.01-.31.24-.7.61-.87.86l-1.72,2.59c-.67,1.01-1.46,1.87-2.38,2.76-.21.32-.6,1.11-.84,1.41l-1.18,1.42c-1.73,2.09-1.66,1.54-3.69,4.37-1.13,1.57-2.23.1-2.3,1.12-.14,2.21-2.72,3.18-4.29,5.16l1.69,1.98,1.82.65c1.01.36-.45-.1,1.3,1.82l1.24,1.37c.11.25.27,1.07.45,1.31l1.79,2.39c.75,1-.34.67.75,3.29l1.44,3.47c1.14,2.75,1.75,2.54.76,4.56-1.78,3.62-.19,1.85-1.64,4.37-.46.8-.95,1.98-1.02,2.94l-.21,2.91c-.02.32-.78.84-1.03,1.1-1.04,1.05,1.12,2.68-.59,4.7-1.04,1.23-.07,1.77-.66,3.61-.15.48-.34,1-.32,1.28l.14,1.8c.08,1.12.13,2.23-.45,3.22-.14.24-.12.8-.16,1.11l-.3,2.15c-.04.26.17.92.17,1.18v2.06c.01,1.59-.28,2.94-.7,4.42l-.4,1.39-.44,1.59c-.07.25-.17.5-.05.57.08.05.35.22.46.28l2.97,1.63c.43.23,1.1.77,1.51.94l1.91.8c.42.18,1.06.69,1.49.98.82.56,1.44,1.04,1.7,2.09.33,1.31.74-.16,3.31,2.07,1.78,1.55.04,1.62,1.63,1.77l1.37.13,2.25.27.86,1.51c.28.5.82,3.78.81,4.05l-.11,2.92c-.06,1.58-.65,2.82-.78,4.38l-.24,2.9c-.08.96-.51,1.79-.37,2.64s.1,1.36.03,2.15c-.19,2.27.05,5.63.07,5.5l-.14.89c-.01.09,1.2.88.74,1.34l-.95.95c-1.21,1.22-3.33-.95-3.47-1.87-.06-.43.64-1.35.73-1.78.24-1.14-.19-2.68-.44-3.71-.09-.39.17-1.18.3-1.67.34-1.31-.35-1.25-.2-2.41.07-.53.38-1.63.32-2.11l-.26-2.41c-.24-2.15,1.43-1.5.12-3.77-.76-1.31.38-1.21-.19-2.32l-.68-1.33c-.96-1.88-.42-.05-3.75-2.76l-1.79-1.46-1.97-1.63c-.09-.07-.64-.04-.73.02l-1.41.88c-.08.05-.28.29-.34.37l-.26.37-.53-.12-.46-.11-.62-.14-.55,1.38s-.54.81-.77.99c-.96.74-1.92,1.51-2.83,2.29-.4.34-.1.36-.78.15l-.49-.15c-.42,1.05-1.21,1.86-2.31,2.49-.54.31-1.04.85-1.54,1.31-1.2,1.11-.96-.08-1.55,3.84l-.31,2.04c-.51,3.4.2,1.35-.6,4.41l-.56,2.13c-.44,1.68.65.57-.26,2.6-.13.3-.19.95-.2,1.43-.05,4.07-.66.76-.57,5.48,0,.33-.26.9-.55,1.17-1.41,1.38,1.13,1.36.37,3.2-.39.95.09,2.38.38,3.33.44,1.45-1.53,1.08.55,3.74l1.04,1.33c1.28,1.63-.38,1.46,1.04,3.46l1.99,2.8c.18.25.37,1.07.49,1.34.44.33,2.78,3.94,2.85,4.14.31.9.57,1.73,1.18,2.32,2.09,2.05,1.57,3.63,1.09,3.57l-.85-.11c-.09-.01-1.37.75-2.58-2.02-.75-1.7-.64.23-1.54-3.02-.37-1.34-.81.26-2.04-3.06l-.76-2.06c-2.31-.7-1.01-1.24-2.37-3.05l-.6-.24-.27.51-.2.39-.21.39c-.97.3-1.41,1.05-1.65,1.96-.05.04-.36.32-.39.36l-1.02,1.79c-.26.45-.97,1.04-1.3,1.48-.58.79-1.1,1.59-1.6,2.4l-.99,1.61c-.35.57-.7,1.18-1.03,1.79l-1,1.83c-.51.94-1.07,1.71-2.19,1.91-1.33.24-2-.6-2.72-1.25l-.51-.47c-.64-.58-.13-.06,1.18-2.3l1.19-2.05,1.07-1.81c1.56-2.63,1.77-2.59,3.66-4.61l1.61-1.71c.83-1.83,1.97-2.88,3.85-3.74l.94-1.3c.19-.26.5-.85.44-1.12l-.22-1.04c-.07-.32-.3-.93-.55-1.11l-1.01-.76c-.64-.48-.6-1.61.06-2.07,1.01-.71.51-.98.41-3.58s.56-2.04-.02-3.31c-.39-.84-.28-1.42-.21-2.28l.25-3.26c.02-.21.06-.68.04-.85l-.25-1.8c-.64-4.66.54-2.07-.13-5.23-.46-2.19,1.52-2.23,0-4.6-1.01-1.58.1-2.17.97-3.93,1.04-2.11.42-.88,3.65-3.24.45-.33,1.5-.62,2.05-.86.38-.17.98-.98,1.35-1.13l1.47-.58c.77-1.62,2.47-2.71,4.08-3.72,1.31-.82-.16-1.26,1.54-2.11.91-.46,1.05-1.39.98-1.47-.06-.07-.32-.29-.41-.35l-3.04-2c-.21.11-.47.26-.52.23l-.63-.34c-3.34-1.8-3.12.05-5.61-2.36-.19-.18-.63-.6-.54-.8l.49-1.08c.67-1.46,1.91-.14,2.05-1.22.03-.23.02-.77.13-.85l.93-.7c.06-.33.15-1,.26-1.29l.71-1.87c.18-.48.17-1.29.23-1.84l.27-2.36.25-2.66c.03-.37.4-1.14.49-1.47l.4-1.6c1.29-1.35.17-.66.91-3.11.11-.37.21-.76.21-1.01l.03-1.05.15-5.9c.06-2.19-.25-2.68-.02-4.58l.28-2.33c.06-.54.23-1.36.38-1.84l.57-1.75.67-2.2c.42-1.38,1.28-2.57,1.15-3.33l-.35-1.97c-.31-1.73.49-2.98,0-4.44l-.66-2.01c-.63-1.93-.09.03-1.52-2.19l-.99-1.54c-.06-1.3-1.79-2.3-2.67-2.32l-1.38-.03c-.09,0-.44.03-.52,0l-1.42-.62c-.73-.32-1.68-.27-2.51-.27l-2.86-.02c-.8,0-2.15-.66-1.81-1.6l.59-1.66c.07-.2.51-.75.7-.82,3.56-1.27,2.03-.31,5.62-1.48,1.6-.52-.05-.73,2.34-1.64,1.33-.51.32-.99,1.57-1.83.51-.34,1.46-.74,1.86-1.11l2.33-2.17c2.48-2.31.75-3.52,3.07-4.12l1.31-1.79c.34-.46.63-1.08.91-1.68l.89-1.04c.19-.23.54-.78.78-.91.84-.48,1.04-1.24,1.45-2.11.5-1.05,1.47-2.13,2.14-3.17-.23-.86.42-2.4.76-2.99l.95-1.64c1.31-2.26-1.65-3.44.48-4.36,1.39-.6-.12-.77,1.07-3.51.71-1.63-.55-1.51-.38-2.4.03-.16.42-.48.43-.63l.16-1.34c.12-1.06.35-2.29.68-3.26l.67-1.97c.72-2.12-.09-.6.13-2.08.02-.12.36-.65.36-.76,0-3.2.66-1.05.33-2.62-.08-.36-.24-1.13-.08-1.38l.83-1.26c.13-.19.46-.71.47-.96.11-4.41.2-1.09.63-5.14.03-.32.5-.95.6-1.26l.8-2.4c.12-.35.19-.66.18-.86,0-.15-.59-.42-.64-.57-.63-1.92,1.07-2.87-.48-6.29l2.18-3.1c.43-.6.67-1.17,1-1.93.23-.52.69-1.38.65-1.96-.02-.43-.78-1.12-1.26-1.21l-3.38-.66c-.5-.1-1.52.36-1.99.51l-1.1-.21c-1.44.65-2.81.57-4.34.36l-3.11-.42c-3.42-.46-2.09-.04-5.27-1.81-.19-.11-.61-.59-.79-.68-.31-.15-1.29-.25-1.43-.56l-.82-1.85c-.43-.97.88-.34,1.22-2.84l.23-1.69c.62-4.64.74-3.45,1.3-7.34.15-1,.87-1.64.98-3.14l.18-2.47c.06-.86,1.27-2.66,1.38-3.54.06-.5-.16-1.45.03-1.82,1.17-2.39.3-.57,1.11-4.04.75-3.21.68-1.91,1.27-4.26l.8-3.22c.17-.67.31-1.37.45-2.08l.63-3.25c.26-1.34.52-2.5,1.18-3.77l.19-2.09c1.64-3.25-.08-1.58,1.46-5.13.51-1.18.8-2.5.75-3.8-.07-1.73,1.02-.23.34-3.16-.31-1.34.94,0,.41-3.03l-.75.17-2.43,1.05c-1.14.49-.24,1.88-1.34,2.11-.64.13-1.73.67-2.08,1.26l-1,1.69-1.32.67c-.99.51.19.82-.93,1.84-1.62,1.47-1.56,1.78-3.46,3.43-.6.52-1.36,1.07-1.69,1.67-1.09,2-.2-.11-2.18,1.56l-2.51,2.12c-1,.84-1.59,1.97-2.4,2.68l-1.26,1.1c-.48.42-1,.94-1.37,1.43l-.9,1.19c-1.21,1.59-1.36.15-1.98,1.36-.29.57-.8,1.22-1.24,1.6l-1.54,1.35-.77.69c-.53.56-1.17,1.21-1.83,1.55l-1.95,1-.9,1.56c-3.2,2.13-1.31,2.52-2.98,3.58l-1.24.79c-.32.2-.77.32-1.34.55l1.15.88-1.98,1.03c-.52.27-1.05.66-1.39,1.14-1.16,1.62-1.62.37-1.74,1.66-.23,2.58-2.35,1.43-2.84,2.94l-.49,1.52c-.1.3-.35.68-.57.76-1.58.59.13-.05-1.89,2.09-.36.39-.75.76-1,1.06-2.51,3-2.62,2.26-3.72,3.17-.79.64-1.26,2.1-2.42,2.42-.22.06-.74.46-.75.68l-.11,1.78c-.6.56-1.14,1.13-1.6,1.69l-1.46.56c-.23.09-.59.63-.8.86-1.94,2.09-2.71,2.32-3.77,3.66-1.96,2.49-1.81.86-3.13,2.6-2.3,3.05-2.76,1.1-3.72,4.27l-2.04,1.12c-.33.18-1.05.7-1.29.98l-1.42,1.7c-.49.59-.96,1.12-1.48,1.68-2.32,2.5-1.56,2.78-3.75,3.78v1.97c.02.29-.33.73-.67,1.01-.28.23-.63,1.04-.9,1.34-.94,1.04-1.97,2.06-2.98,3l-1.21,1.12c-.85.79-2.8,1.96-3.06,2.8-.65,2.12-2.34,1.41-3.3,2.13l-.35.27c-.41.31-.75.63-.99,1.06-1,1.81-.82.11-1.97,1.99-.51.84-.95,1.51-1.53,2.26l-1.86,2.41-.25,1.24-1.45,1.88c-.57.74-1.13,1.32-1.72,2l-1.34,1.52-.96,1.12c-1.38,1.6-.12,1.33-1.01,1.75-.34.16-1.09.48-1.3.75l-1.45,1.89c-.54.7-1.23,1.14-1.64,1.85-1.32,2.32-2.44,2.06-3.5,3.28-2.47,2.84-1.63,1.07-2.86,2.33l-1.86,1.9c-.64.66-1.18,1.42-1.83,2.2-.45.53-1.28.98-1.95,1.52-.61.49-1.08,1.83-2.54,3.01l-1.16.93c-1.31,1.06-2.35,2.43-3.35,3.75-2.27,1.73-3.16,1.32-4.31,3.16-.71,1.14-.85.23-1.61,1.22-2.04,2.67-1.25.57-2.45,2.71-.1.18-.57.62-.78.65-.76.12-.81,1.29-1.16,1.66l-4.33,4.55-1.75,2.23c-.23.3-.97.76-1.25,1.01-1.49,3.52-1.77,1.16-3.02,3.6-.41.81-1.23,1.52-2.02,1.92l-1.02.5c-.23.11-.59.58-.72.92-.33.8-.93,1.05-1.6,1.57-2.29,1.8-3.26,3.59-4.47,4.35-2.25,1.4-.57,1.64-2.81,3.21-1.98,1.39-.44,1.32-2.95,3.3-1.62,1.28-.21,1-.95,2.23l-1.16,1.92c-.05.09,0,.68.11.7.22.05.84.06,1.08,0l2.81-.63c.67-.15,1.26-.38,1.96-.7,1.56-.73.88.28,2.74-.06,1.07-.2,1.99-.23,3.01-.05,3.58.62,2.99,1.65,4.95,1.19l2.39-.56c.39-.09,1.1-.77,1.4-1.06-.11.11,2.07-1.02,2.13-1.04l2.04-.53c2.38-.62,2.08.53,4.61.02s.61.92,4.15.25l1.8.63c1.73.6,3.06.63,4.52,1.32l1.39,1.91c.33.45.75,1.38.66,1.83-.24.63-.39,1.23-.47,1.89l-.36,2.88-.51,1.92-.31,2.62-.26,1.95-.31,2.33-.29,1.98c-.09.61-.11,1.25-.1,1.86l.02,1.26c.67,2.34-.89,2.25-.24,4.1l.39,1.13.31.91c.05.15.54.11.68.05l1.25-.52c1.22-.51,1.08.23,2.28-.49,1.69-1,.81-.14,3.2-.04l2.83.13,2.02.27,2.01.27.6.08c.12.02-.18.38-.28.45l-.54.35-.34.22-.24.11,3.16.64c.07.02.43.07.49.05l1.52-.51c.35-.12.89-.58,1.32-.94,1.23-.62,5.2-.61,6.53-.36l2.63.49c.56.1,1.43.21,1.84.36l2.35.86c.33.12.98.52,1.29.62,2.84.9,2.54,1.07,5.95,1.93,1.53.39,2.89,4,2.47,4.19l-.91.42c-1.35.63-2.13,2.27-4.42.75-2.72-1.8-.3-1.06-4.37-1.87-1.51-.3-2.95-.42-4.28-1.23-1.99-1.21-2.23-.45-4.45-.61l-.74-.05c-.1,0-.03.1.06.41l-.02.55-2-1.27c-1.35-.86-.57.3-3.42-.19-.51-.09-1.68-.17-2.14.02-1.29.53-2.41.34-3.8.29l-4.54-.17c-.74-.03-1.88-.34-2.53-.44l-2.74,1.3c-.79.38-1.59.7-2.41.97l-1.15.38.31.72c.14.47.31,1.4.27,1.93l-.19,2.19-.23,3.84-.25,2.6c-.05.54-.05,1.14-.02,1.7l.2,3.95c.05.9.07,1.72-.02,2.63l-.31,2.9c-.11,1.05-.26,2.65-.06,3.61l.26,1.23c.16.77.06,2.04-.04,2.78l-.32,2.31c-.18,1.32.24.23.25,1.24l.05,1.92.17,5.72.11,2.73.1,2.63c.01.26.62.88.72,1.02-.13,1.09-.18,2.37-.08,3.5.22,2.36-.4.67.11,2.13l.39,1.11c.09.26.46.97.47,1.25l.14,3.31c.03.6.19,1.36.29,1.95l.3,1.74c.07.4.49,1.27.64,1.65.34.89-.34.14-.5,2.97-.1,1.77.9.74.39,2.3-.18.56-.42,1.44-.37,1.92l.22,2.12c.03.3-.1,1.05-.09,1.34,0,.43.69,1.38.61,1.82l-.56,3.17c.15.42.39,1.16.48,1.54l.28,1.21c.06.24.09.69.1.96l.06,1.33.14,2.89c.02.46.24,1.31.38,1.84.69,2.62.28,2.02.6,5.27.21,2.09.87,3.85.48,4.33-1.39,1.68-2.36,2.47-4.9,2.19-1.98-2.44-.23-3.38-.78-5.78-.68-2.96,1.41-1.9-.04-4.59-.26-.48-.33-1.23-.37-1.87l-.16-2.33.15-1.2-.02-4.99v-.97c0-.94-.04-1.88-.17-2.81l-.29-2.08c-.21-1.48.13-3.53.55-4.96l.41-1.41c.07-.23-.02-.75-.2-.85-.09-.05-.38-.19-.44-.23-.72-.43-.22-.22-.21-1.9,0-.29-1.06-.34-1.04-.05l.13,1.96c.03.41-.48,1.39-.41,1.81.81,4.69-.28,2.34.18,5.51.06.41-.05,1.5-.32,1.81l-1.47,1.64c-.14.16-.72.47-.91.4l-2.44-.92c-.38-.82-.53-1.86-.43-2.61l.24-1.83c.05-.38.12-.91.22-1.15.93-2.36-.36-1.7,1.02-3.89,1.25-1.97-.52-.53.89-4.25.14-.36.63-1.03.94-1.38.28-.32,1.39-.17,1.69.11l.79.75.43.41c.4-2.89-.47-3.73-.79-6.29l-.28-2.32c-.35-2.83-.79-1.95-.69-3.07l.15-1.65c.02-.2.58-.62.46-.78l-.51-.64c-.89-1.11.27-1.71-.24-2.98-.2-.51-.6-1.27-.62-1.66l-.12-2.87-.26-3.2-.32-2.36c-.06-.43.11-1.29.2-1.86.37-2.35-.94-1.71-.18-3.77.12-.32.33-.9.34-1.18l.11-6.73c.01-.77.06-1.39,0-2.13-.12-1.56-.19-3.21-.02-4.77l.26-2.47c.97-.8,1-2.24.31-2.97-.13-.14-.36-.71-.36-.92l-.04-5.9v-1.23c0-.89.13-2.17-.11-2.91l-.87-2.71,1.01-.72-.19-1.34-.21-3.92c-.04-.71-.09-1.4,0-2.09l.34-2.46c.07-.5-.34-1.53-.31-2.04l.11-1.92c.08-1.32-.23-2.95.12-4.26.25-.93,1.02-2.02.95-2.89l-.17-2.02c-.12-1.48-.26-3.33-.92-4.65s-2.59-1-3.71-1.16c-1.19-.17-2.58-.92-3.64-.77l-2.37.34c-.56.08-1.52.66-2.13.88-4.07,1.49.33.73-4.87,1.68l-3.25.6c-3.42.63-1.84-.17-4.15-.84l-1.85-.53-1.11-.43c-1.4.48-2.89.96-4.31,1.17l-2.03.3-1.99.31c-.46.07-1.48.41-1.91.54-1.07.32.79,1.45-.73,3.04-.75.78-.33,2.21-1.36,2.26-1.26.06-2.54.3-3.63.67l-2.03.69-2.03.72-2.23.73c-.69.23-1.41.51-2.14.61-3.12.42-3.03-.77-5.35-1.16-.95-.16-2.22-.34-3-.09l-2.02.65c-.48.15-1.35.72-1.84.71l-4.33-.09c-.88-.02-1.58-1.24-2-1.92-.91-1.47-1.43-1.16-1.75-2.29l-.75-2.65.39-1.95c.09-.46-.43-1.5-.43-1.98l-.03-4.29c0-.96,1.23-1.38,1.09-1.84l-.17-.54c-.07-.21.54-.44.81-.45,2.06-.04.74-1.33,2.62-3.08l1.24-1.16c.41-.38.68-1.21,1.05-1.78.38-.6,1.03-1.26,1.51-1.86s1.03-1.1,1.63-1.49l1.08-.69c.74-.47,1.47-1.25,1.97-1.97l1.07-1.57.81-1.14,1.33-1.85c.41-.57,1.05-1.04,1.54-1.61l1.84-2.13c.22-.26.83-.7,1.04-.99l2.81-3.75c.44-.59.87-1.27,1.26-1.87l2.31-3.51c1.1-1.67,2.59-2.78,3.21-3.73l1.37-2.1.57-.83c.65-.28,2.33-1.71,2.76-2.14l2.01-2,1.14-1.16c1.64-1.67.89-1.23,2.92-3.05l1.67-1.5c.54-.48,1.39-1.03,1.83-1.51,2.34-2.58,1.64-.76,2.42-2.61l1.72-1.28c.43-1.23,1.3-1.8,2.36-2.3l1.29-1.26c1.35-1.31.04-.58,2.41-2.68l1.07-.95,1.67-1.49c.46-.41,1.05-.88,1.55-1.25l1.33-1c.49-.37.91-.77,1.4-1.17l2.19-1.8,2.52-2.33c2.06-1.9.42-1,2.87-2.27.77-1.17,1.66-2.05,2.75-2.96,1.9-1.58,3.39-3.97,5.02-3.77l.54.06.35-1.53,1.38-1.16,2.07-1.66,1.92-1.51c1.43-1.12,1.89-1.57,3.11-2.87,1.92-2.04,1.08-1.87,3.5-3.7,1.04-.79.39-1.01,2.18-2.86l2.41-2.51c.29-.3.65-1,1.03-1.24l1.18-.78.78-.92,1.64-.97c.86-.51,1.59-1.26,2.24-2.05,1.6-1.95,1.93-.94,3.28-3.62l1.8-1.32c.11-1.05.74-2.1,1.71-2.52,1.74-.75.29-.46,1.95-2.38.62-.72,1.29-1.1,2.11-1.64.35-.27.96-.8,1.35-1.15l1.84-1.61c.55-.48,1.45-.96,1.86-1.49.65-.84,1.13-1.25,1.98-1.88.49-.36,1.07-1.28,1.54-1.78l1.79-1.94,2.2-2.39c1.9-2.05.25-.99,3.2-2.77l.67-1.01c.65-.55.91-1.1,1.55-1.69l1.69-1.56c.5-.46.73-1.13,1.21-1.4,1.42-.82.75-.9,3.26-3.16.95-.86.79-1.17,2.34-2.44l1.1-.9,1.46-1.15c.77-.6,1.27-1.28,1.96-2.09.43-.5,2.41-1.77,3.95-3.39l2.65-2.8,1.26-1.33,1.53-.65c.05-.97.33-1.46,1.16-1.82.52-.23.82-.83,1.29-1.29l1.54-1.51c.57-.56.85-1.01,1.49-1.43.48-.31,1.07-.74,1.44-1.09l1.47-1.41,3.24-3.05c.46-.43,1.29-.96,1.69-1.4l1.5-1.69c.68-.77,1.34-1.48,2.07-2.21l.71-.72,3.09-3.22c.58-.61,1.51-1.09,1.92-1.78l1.57-2.63c.69-1.16.46.02,2.19-2.18l1.51-1.92,1.53-.61c-.05-.4-.17-.73-.04-.86l.53-.53c.45-.46.96-1.18,1.52-1.54,2.65-1.7-.04-.54,3.09-2.67l3.9-2.66c.64-.43,1.14-.91,1.65-1.48l1.34-1.53,2-2.29c.41-.47.85-1.06,1.25-1.59l1.23-1.61c.61-.8,1.13-1.49,1.81-2.25,2.37-2.67,1.67-5.61,6.22-8.84l1.7-1.2c1.09-.77,2.1-.63,3.35-.6,3.49.08,4.34-.52,4.91-.55l3.32-.16,3.98-.71c1.29.39,2.66.93,4.01.81l1.7-.15c2.74-.24,5.02.07,7.22,1.74l2.64.44,2.81.43,2.04.31c.47.07,1.25.49,1.75.8.29.18.96.24,1.27.32l2.01.49c1.08.27,3.89-.26,5.17-.6.26-.07.98.32,1.25.36l2.43.34,3.39.4,2.42-.1c-.12,0,5,.91,5.5.8l2.43-.54,1.96-.45,1.99.33c.85.14,1.95.2,2.5.19l-.16-1.71-.21-2.33c-.1-1.07.1-2.61-.11-3.63l-.26-1.27.08-5.23c1.79-1.88,1.42-1.43.84-4.96l-.47-2.88c-.56-3.4.37-8.85-.59-12.13-.35-1.22-.71-2.36-.94-3.57l-.39-1.99c-.25-1.26-.2-2.44-.07-3.73l.35-3.41c.06-.63.02-1.78.29-2.32l1.25-2.51c-.82-1.86-.76-3.68-.51-5.67.47-3.8-1.05-.6.34-5.36.2-.67.3-1.17.19-1.87-.52-3.52-3.16-1.38-3.06-4.33,0-.28-.38-.82-.65-.85l-1.16-.13c-.8.17-1.57.17-2.3-.07l-3.28-1.08c-.34-.11-.93-.63-1-.94l-.43-1.71-.1-1.49c-.23-3.42-1.77-2.82-2.3-4.18l-.7-1.77c-.35-.88-.19-1.47.27-2.34,1.05-1.96.46-2.09,2.5-3.29l1.13.5c.2.09.57-.32.79-.54.69-.68,1.37-.53,2.34-.45,1.11.09,2.63-.67,3.82-.72l2.94-.12c2.63-.11,3.68.79,5.99.14l1.92.51,2.33-.35c1-.15,1.91-.08,2.92-.03l4.2.22,2.31.18,2.04.16c.47.04,1.37-.16,1.92-.23,2.93-.35,2.69-.04,4.93-.41l2.01-.33,1.64-.09,2-.37c2.22-.41,2,1.4,3.73.44.5-.27,1.32-.73,1.77-.72.66.02,1.83.11,2.41.27.42.12.83,1.16,1.27,1.22,1.94.27,1.54-1.03,5.35-.85l.7-1.07,2.7-.07.75-.71,2.44-.45c3.06-.57,1.5.21,3.87-.62l1.32-.47h2ZM396.14,13.41l-.15-1.89c-.17-2.13.67-3.55,2.07-5.45-.15-.55-2.31-.3-4.1-.46-2.54-.23-1.36.39-4.55,1.24-1.01-.37-1.67-.33-2.45.27-1.18,0-2.83-.03-3.66.83l-1.02,1.06c-.29.3-.15,1.31-.05,1.7l.35,1.45.73,2.99c.05.22.34.88.56.78,3.9-1.75,2.7-.14,6.03-.69,1.51-.25,6.35-.55,6.24-1.83ZM340.89,15.3l1.84,1.3c1.65,1.17,5.48-.19,8.09,1.24l4.78,1.03,2.5-.54,2.64-.27c.94-.1,2.13-.09,3.06-.12,1.38-.93,1.99-.25,2.65-1.05l1.17-1.42c.54.27.96.49,1.29.55l3.4.64,3.81-.13c.7-.02,1.62-1.29,1.46-1.87-.29-1.05-.55-1.82-.74-2.73-.29-1.36-.61-2.8-1.24-3.89l-2.68.3c-1.87.21-1.81-1.19-3.79-.83-1.52.28-2.91.55-4.41.71l-2.23.25c-.82-.15-1.59-.14-2.4-.03l-2.56.35c-3.34.46-3.66-.42-5.11-.75-.22-.05-.92.23-1.18.23h-7.59s-1.26-.28-1.26-.28c-.83-.18-2.38-.03-3.21.13-.28.05-.99.43-1.28.45l-2.34.16c-.72.05-1.92-.34-2.73-.48-1.13,1.83-.84,1.13-2.58,2.14l.28,2.41c1.65,2.53.38,3.78,2.75,3.82,1.58.03,2.92-.26,4.17-1.04,1.03-.64,2.4-1.04,3.47-.29ZM380.37,144.17c-.56-.81-.95-1.68-.87-2.5l.21-2.34c.04-.44-.5-1.35-.58-1.79l-.28-1.58c-.16-.92-.11-1.96.01-2.93l-.73-2.46.51-1.06-.6-2.91-.81-.95.1-3.24c0-.22.72-.88.55-1.02l-.75-.63.02-1.72c0-.54.66-1.6.58-2.16-.52-3.86.71-1.72-.17-5.22-.79-3.11.27-1.41-.67-4.39l-.69-2.2c1.53-2.8-.71-5.1.88-5.92,0-.1.03-.36.03-.3-.5-.48-1-1.02-1.29-1.49-.15-.25.26-1.06.46-1.28.02-.1,0-.61-.03-.75l-.54-1.8.32-2.33-.37-2.43-.18-4.79c-.03-.82-.2-1.73-.21-2.56l-.03-2.52c-.03-3.34-.44-3.92-.15-6.59.08-.7-.07-1.15-.22-1.9-.21-1.05-.18-2.35-.26-3.52-.18-2.6.35-.96-.68-3.22-.13-1.77-.19-3.85.09-5.51.08-.5.42-1.22.36-1.66-.54-3.99-.8-1.74-.76-5.16,0-.65-.05-1.48-.12-2.18l-.26-2.6-.18-1.76-.5-1.97-.21-5.96-.12-1.79c-.45-.79-1.2-1.9-1.13-2.66l.16-1.83.13-2.55c.05-.9.37-1.77-.86-3l-.16-2.44c-2.71-.84-.82.15-4.56-.18l-2.48-.22c-.35-.03-1.05-.15-1.36-.07l-2.09.58c-.41.11-1.31.02-1.75.04-3.94.25-2.12.08-6.25-.52-2.3-.34-3.1-.72-4.56-.8l-2.02-.12c-.37-.02-1.28.13-1.62.21l-1.26,1.64c-.98,1.28-1.18,1.44-.93,3.49.53,4.34-.95,4,.35,6.21.76,1.3.18,2.66-.27,3.96-.27.78-.42,1.74-.53,2.61-.43,3.31-.88.54-.69,3.48.11,1.77.11,3.53.03,5.32-.01.26-.12.85-.09,1.06.08.54.07,1.33-.18,1.69-.8,1.14.16,2.02.22,3.04.11,1.7.1,3.69.11,5.33l.57,1.26c0,1.68-.01,3.6-.1,5.3-.04.76-.2,1.34.16,1.97.85,1.5.39,3.15.61,6.04.06.85.09,1.56.04,2.4-.24,3.64.44.75-.03,4.6-.14,1.14-.12,2.44-.03,3.61l.21,2.88.18,2.85-.35,1.37c.45,1.01.52,2.1.2,3.14l.48,1.63c-.56.85-.54,1.58-.38,2.49l.45,2.52c.74,4.16-.09,6.2.69,8.72.34,1.09-.04,2.65.2,3.83.31,1.49.78,3,1.28,4.36,2.79,1.58,2.25,1.41,3.69,3.5.34.49.55.86.88,1.48.37.7,1.36,1.32,1.99,1.9.96.89,1.83,1.77,2.72,2.72l1.1,1.17c.15.16.36.76.5.97.52.8,1.21,1.71,1.67,2.51.26.46.49.97.75,1.28l1.45,1.77c.34.41.81,1.06,1.1,1.48s1.36.71,1.79,1l2.21,1.53c1,.69,1.87,1.54,2.8,2.31,2.53,2.08.35.58,2.64,3.09,1.68,1.84.87,2.09,2.39,2.46.75.18,1.26.86,1.3,1.57.07,1.15,1.37.12,2.89,1l1.33.76c.31.18,1.11.46,1.55.56.93.21.7-1.09.88-2.22s.16-2.1-.07-3.26l.21-1.69ZM390.55,149.94l.6-1.07c.77-1.38.32-2.07.6-4.46.5-4.27-.8-3.74-.37-4.66,1.22-2.63-.51-3.81-.36-6.08.09-1.32.55-2.7.04-3.81-.44-.97-.69-1.74-.67-2.78.07-3.84-.79-2.18.17-4.3l-.22-1.97-.3-2.6c-.51-4.49.56-.79.19-4.35-.6-5.66,1.4-6.54-.53-8.14-.34-.38.02-1.54.04-2.11l-.31-1.97c-.05-.32.03-1.14-.07-1.45l-.62-1.99c-.06-.19.3-.79.37-1.03.78-2.72-.86-2.32.33-5.47-.11-.27-.35-.86-.42-1.12l-.48-1.86c-.19-.72-.1-2.22-.14-3.02-.02-.31-.36-.98-.44-1.3-.78-2.94.86-2.66.29-4.85-.18-.67.07-1.51.09-2.22.1-2.95.12-5.82.04-8.79l-.04-1.47c-.08-2.95-1.35-2.93-1.26-4.4.04-.65.08-1.13.02-1.56l-.24-1.68c-.39-2.68.75-1.32.21-2.68-.18-.46-.21-.89-.17-1.39.36-4.31-.02-3.45-.36-6.52-.08-.75-.37-1.53-.59-2.38-.16-.64-.05-1.69-.09-2.52-.13-2.84-1.81-3-.28-7.37.48-1.36,0-2.62-.69-3.92-1.14-2.16.16-3.43.01-4.44l-.42-2.77c-.11-.75-.22-1.27-.52-1.76l-1-1.61c-3.19-.19-2.09-.97-5.66-.87-.25,0-.8.55-.76.6.21.47.4.94.44,1.26l.29,2.16c.07.52-.17,1.33-.4,1.84.07.28.42,1.16.42,1.53l-.05,4.55c0,.54-.22,1.38-.31,1.98-.73,4.49.28,2.77.36,6.34.05,2.24.88.81.74,2.81l.32,1.69c-.13,1.1-.18,2.09-.14,3.11-1.05,2.59.76,2.29-.49,6.32.03.64,0,1.38-.06,2.08l.67,1.21c1.67,2.99.64,5.86.56,7.94-.01.32.68,1.09.67,1.41l-.04,2.77v1.45c-.02,3.12.42,5.02.16,7.22-.08.63,0,3.43.06,4.25l.21,3.09.14,3.22.07,2.23.05,1.42.1,2.33.19,3.14c.03.5-.11,1.17-.24,1.64.31.74.36,1.5.39,2.36l.08,2.23.08,1.33c-.35,3.5.34-.72.34,3.55v2.89s.03,1.64.03,1.64c.08,4.82-.64,1.92.19,5.58.23,1.04.26,2.23.39,3.4.19,1.71-.88,1.36-.49,1.72l.42.39c1.14,1.04.5,1.34.93,4.65l.27,2,.32,2.59c.1.78-.05,2.06.14,2.72l.6,2.08c.65,2.24-.97.96.43,3.79.34.69.56,2.11.81,2.8,1.86,1.9.97,1.96,1.31,5.21.01.13.24.55.35.53,1.37-.24.55-.49,2.19-1.07.65-.23,1.12-.54,1.5-1.21ZM248.23,135.91c1.62-2.23,2.44-1.43,4.12-3.2l1.3-1.36c.37-.39,1.09-1.03,1.3-1.43.81-2.66,1.98-1.5,1.79-3.12-.11-.93.59-1.04,1.07-1.52,1.02-1.03,2.01-1.97,3.1-2.91l1.4-1.21c1.09-.94,1.26-.71,3.15-1.95,1.04-.68.52-1.67,2.04-2.48l.95-.51.94-.53c.33-.18.89-.57,1.05-.86,1.17-2.18,2.26-.62,3.81-1.4,1.43-.72,2.64-.22,3.44.91l1.45,2.03,1.16,1.67.56,1.51c.25.68,1.37,1.49,1.96,1.92l2.18,1.59c.37.27.8.59,1.13.88l1.85,1.59,1.05.91,2.07,3.38c.41.67.8,1.83,1.31,2.37.43.46,1.01,1,1.08,1.44l.11.74c.12.75.88-.93,1.3-.39.27.35.77,1.01,1.03,1.28l1.87,1.95c1.6,1.67,1.63.21,3.16,1.91,1.55.55,2.9,1.6,3.87,2.98.28.4.92.98,1.14,1.35,2.19,3.72,2.85,1.84,4.3,4.12.75,1.17.39-.05,2.4,1.19.48.3,1,.6,1.4.89l1.87,1.38c1.32.98.32,1.16,1.76,2.09l1.44.93,2.6,1.69c.4.26.99,1.02,1.35,1.45,1.36,1.6,2.08.55,2.84,1.72l1.04,1.61c1.37,2.1,2.26,1.09,3.3,3.81.13.34.85.88,1.08,1.16l1.19,1.44c.37.44,1.07.98,1.54,1.27.3.18.74.8,1,1.01l1.25,1.04,1.56,1.29.91.76,1.11,1.19,2.02,2.07c.42.43,1.25.88,1.95,1.19l.39,1.3c.06.22.42.72.66.76l2.16.39c.18.03.86.06.98.2l1.66,1.97c.56.66.95,1.12,1.41,1.83.59.9,1.66,1.96,2.68,2.34l1.68.63c.1.04.37.37.45.45l1.3,1.29c.27.26.68.99.85,1.38,1.26,2.86,2.81,1.7,3.13,3.15.43,2.01.78,1.14,2.19,2.38,2.18,1.91,2.33.85,2.95,2.49.71,1.88,1.05,1.07,3.29,2.43.91.55,2.15,1.24,2.87,1.93.24.23.53,1.14.83,1.28,2.21.97,1.78,1.92,2.93,3.51.63.55,1.27.89,1.71,1.56l1.23,1.87,1.48,1.39c1.53,1.44,1.66.98,3.08,2.28l1.97,1.8c.37.34.82.75,1.11,1.13l1,1.32c.2.26.84.6,1.19.83,1.91,1.22.2,1.13,2.3,2.24.91.48-.14,1.1.99,1.54,2.2.86.49.72,2.02,1.4,1.69.75.8,2.28,1.97,2.58l1.47.37c1.49.38.02.23,1.67,1.38l1.71,1.18c.19.13.56.49.73.67,1.49,1.64.11-.03,2.3,1.14l2.41,1.29c2.18,2.6,3.77,1.33,4.27,2.58l.42,1.06c.27.67.58,1.65.9,2.19l1.1,1.84c.23.39.98.83,1.43,1.09l1.24.72c.7.41.86,1.18,2.01,2.27.76.73,1.31,1.36,1.75,2.29,1.69,3.55,2.5,1.97,3.35,4.06,1.12,2.76.75.8,1.7,4.08.57,1.98.33,2.18.97,2.39.22.07.73.11.75.29l.1.88c.02.21.39.8.61.85l1.63.39,1.49,1.82c.5.36,1.64.75,2.02,1.18l2.02,2.3c.43.48.95,1.8,1.26,2.35.57,1.02,1.59-.03,1.88.97.74,2.56.43,1.24,1.5,3.05.95,2.54.82,1.04,1.8,2.49l.93,1.37c.52.77.12,1.09.72,1.33l1.66.65,1.18,2.52.91,1.99c1.93,4.21,3.22,3.38,3.69,5.43.18.81.82,1.14,1.54,1.62,2.26,1.5,2.02,1.15,3.29,2.95.92,1.3,1.79-.52,3.46.49.77.47,1,.71,1.91-.02,1.46-1.19,3.13-2.28,4.69-3.18.25-1.94,1.47-.98,1.12-2.66l.02-1.56c-1.69-3.23.42-4.77-1.3-5.79-.33-.19-.56-1.06-.8-1.32l-1.6-1.81c-.38-.43-1.12-1.3-1.24-1.83l-.33-1.45c-.16-.72-3.7-4.44-3.81-4.74l-.77-2.09c-1.45-3.91.05-2.19-1.1-3.96l-.7-1.08c-.1-.15-.42-.46-.58-.52l-1.11-.35c-.52-1.08-1.65-1.65-2.78-1.81l-1.15-1.38-1.06-1.27-1.01-1.24c-.86-1.06.56-1.04-1.3-2.41l-2.1-1.54c-.2-2.34,0,.08-2.47-3.05-1.42-1.8-2.97-2.67-3.24-3.32l-.79-1.89c-3.54-1.05-1.23-.12-2.76-1.72l-2.36-2.47c-1.41-1.48.44.18-1.61-1.84s-1.6-2.23-3.95-3.75c-.83-.54-1.7-.92-2.29-1.76l-1.17-1.65-2.37-2.14c-1.27-1.15-2.75-2.04-3.75-3.41-1.66-2.27-1.12-.22-2.74-2.99-1.84-3.16-1.38-1.47-3.11-2.62l-1.73-1.15c-2.42-1.61-3.02-3.95-4.32-4.8l-1.57-1.03c-1.39-.91-.07-1.7-1.02-1.87-.11-.02-.66,0-.74-.09l-1.92-1.95-1.32-1.35c-.37-.38-.96-.79-1.48-1.04-1.71-.81-.02-.56-1.57-2.08-1.91-1.89-2.62-2.14-3.87-4.26-.71-1.21-.93-.04-2.22-1.11l-1.12-.93c-1.7-1.41-.61-1.09-3.41-2.22-.32-.13-1.24-.11-1.58-.16-2.15-2.36-3.2-2.48-4.92-4.88l-1.66-1.4c-2.84-2.4-1.57.34-5.66-4.32-.42-.48-.82-.86-1.4-1.26-.26-.18-.6-.73-.88-1.06l-1.97-2.27c-.61-.7-1.01-1.49-1.71-2l-1.36-.98c-2.19-1.58-2.74-1.63-5.33-3.57-.59-.44-1.16-1.67-1.72-2.16l-1.39-1.22c-.53-.47-1.01-.89-1.48-1.4-3.47-3.77-3.05-2.63-4.65-4.15l-1.5-1.42c-2.87-2.72-2.57-1.58-4.42-3.29-1.95-1.81-.44-2.25-2.63-3.63l-.52-.91c-3.13-1.12-2.1-.94-4.95-3.39-3.27-2.81-1.82-2.27-3.95-4.25l-2.38-2.22c-.37-.35-.68-.59-1.29-.75-.3-.08-.83-.66-1.14-.83l-3.2-1.72c-.59-.32-1.16-1.11-1.65-1.72-1.06-1.34-.7-.35-2.87-2.84-1.36-1.56-2.88-3.06-4.52-4.29-.26-.2-1.03-.55-1.3-.81l-2.15-2.07c-2.81-2.71-1.95-3.23-4.05-5.36-.98-.99-1.66-2.18-2.35-3.45-3.59-1.67-2.46-2.32-3.51-2.99-.72-.46-1.17-1.4-1.61-2.08-.39-.61-1.13-.99-1.27-1.91-.1-.63-.68-.95-1.17-1.35l-1.45-1.19c-.71-.58-1.22-1.61-1.8-2.47l-2.36-3.52c-.32-.48-1.9-.91-2.72-2.17l-1.08-1.66-2.13-.95-.94-3.04c-2.03-1.75-.96-.41-3.27-2.65l-1.21-1.17c-1.74-1.69.18.55-2.55-1.19-.54-.34-1.86-.21-2.59-.02l-2.13.55c-.4.1-1.19.14-1.82.22-2.74,2.96.79,3.33-2.28,6.49-1.76,1.81-1.21,1.06-2.89,2.84-1.49,1.58-1.24,1.76-2.27,1.72-.25,0-.56.62-.74.77l-2.06,1.62-.04,1.67c0,.23-.35.72-.57.78-2.57.68-.4,1.16-2.99,2.75s-1.07,1.28-4.47,3.28l-2.15,1.26c-1.53.9-3.69,2.84-4.81,4.32l-.87.54c-.42.99-.71,2.1-1.52,2.8l-1.79,1.56c-.6.53-.99,1.46-1.63,2.09l-1.89,1.88c-1.38,1.37-2.2,1.56-2.24,2.92l-2.76,2.37c-.3.26-.74.9-1.1,1.14-1.98,1.3-.5,1.53-2.41,2.8l-.62,1.07c-.92.67-1.93,1.32-2.78,2.05l-1.7,1.44-1.54,1.33-1.08.97-2.13,2.01c-.17.16-.87.4-1.05.48l-.38,1.27c-2.81,1.51-2.86,3.02-5.06,4.37-.78.48-1.77.81-2.03,1.66-.2.64-.41,1.17-.84,1.47l-2.73,1.92c-1.44,1.02-2.6,2.52-3.97,3.7-.44.38-.73.77-1.07,1.23l-.97,1.32c-.62.83-1.41,1.37-2.29,1.99l-1.5,1.07c-.35.25-.49,1.36-.9,1.62l-4.99,3.12c-.52.33-1.13,1.22-1.63,1.71-3.33,3.28-1.01,1.89-2.66,3.29-3.14,2.65-1.93,1.03-4.13,3.64-.42.5-.88.78-1.04,1.59-.13.65-.86,1.23-1.46,1.6-.15.26-.39.94-.61,1.11l-.97.76c-.53.7-1.24,1.61-1.94,1.96l-1.75.88c-2.77,1.39-1.81,1.93-3.44,3.73l-1.35,1.49c-2.56,2.82-.6,1.98-3.34,4.42l-1.97,1.75c-.3.26-.94.74-1.28.91l-1.58.79c-.94.47-1.8,1.17-2.7,1.85-1.75,1.32.11.98-1.86,1.88-1.23.56-1.73,1.89-2.51,2.88l-1.29,1.63c-.3.38-1.23.72-1.48,1.32-.56,1.36-1.4.65-2.21,1.79-1.35,1.91-2.03,2.7-3.74,4.27-.32.29-.74,1.19-1.12,1.38-2.4,1.25-.76.56-3.34,2.46l-1.66,1.22c-1.33.98-1.99,1.79-2.73,3.24-2.47,2.14-1.41,2.1-4.09,3.92l-2.21,1.51-1.04,1.21-1.61,1.86c-.33.38-1.22,1.08-1.69,1.35l-4.22,2.42c-2,1.14-1.57,1.6-2.73,1.65l-.81.82c-1.99,2-.05,1.65-2.34,2.6l-1.85,2.53c-.78.34-1.68.74-2.09,1.33l-.73,1.04c-.73,1.04-1.59,1.9-2.72,2.43-1.27,2.19-2.52,1.54-3.22,2.71-1.59,2.66-.7.72-3.1,3.25-.06.27,0,1.13-.18,1.31l-1.27,1.22c-.72.69-1.3,1.42-2.07,1.94-.66.45-1.27.85-1.86,1.31l-2.23,1.74c-.2.25-.53,1.07-.8,1.23l-1.86,1.06c-.75.43-.23,1.54-1.08,2.8-.48.72-.93,1.43-1.41,2.03-1.82,2.27.36,1.19-1.42,2.6l-.09.73-1.13,1.46-1.24,1.65c-1.54,2.05-1.65,1.14-2.98,2.94-.14.19-.24.99-.4,1.16l-2.04,2.15c-.27.28-.67,1.04-.87,1.39-2.42,4.09-1.45,1.64-3.1,4.04l-.84,1.22c-.31.45-.87,1.51-1.38,1.67l-2.28.7c-.73.77-1.25,2.06-1.74,3.06l-.95,1.94c-.18.36-.64.9-.9,1.3-1.69,2.52-.73,2.49-2.35,3.39s-.47,1.46-1.29,2.96c-.13.24-.42.84-.25.99l.7.63.38,1.32c1.48,1.45.86,1.91,2.53,3.07l1.82-.28c.5-.08,1.35-.34,1.76-.33,3,.06,2.35.13,4.96.83,1.29.35,1.74-.19,4.65.23,2.05.29.5.24,3.42-.78,1.38-.48,2.67-.91,4.09-1.32.71-.2,1.94-.11,2.32-1.3.05-.16-.3-.65-.47-.69-1.92-.42-1.61.88-4.03.52l-.63-1.84c-.55-1.59,1.42-2.7,2.04-3.18l1.81-1.4c1.65-1.28,1.97-1.74,2.42-3.46,1.67-.16,2.45-1.32,3.26-2.53.65-.97,1.5-1.95,2.29-2.81l1.23-1.34,2.35-2.53c2.11-2.28.21-.05,2.03-1.91l1.99-2.04c.53-.54,1.05-1,1.55-1.62.37-.46.89-.84,1.3-1.23l2.05-1.97,1.42-1.41,2.28-2.3,2.7-2.73c.46-.46.75-.94,1.47-1.12,1.34-.32.15-.11,1.57-1.87l.89-1.11,3.7-4.21c.27-.31,1-.75,1.23-1.07.69-.96,2.59-2.97,3.5-3.68l1.46-1.14,1.62-1.23c.49-.37.94-.75,1.42-1.14l1.4-1.16,2.21-2.07,1.18-1.09,1.58-1.58c1.32-1.32,1.74-1.89,2.66-2.74l1.5-1.39c.38-.35.76-.79,1.08-1.19l1.82-2.23c.32-.39.84-1.28,1.28-1.51l2.68-1.37.78-1.46c1.18-.78,2.17-1.62,3.04-2.7,1.88-2.35.8-.34,2.4-2.84.84-1.31,2.13.1,2.33-1.22.22-1.44.38-2.91,1.48-3.75l1.75-1.33c.23-.18.33-1.06.48-1.32l.94-1.62,1.21-1.01c.21-.18.42-.94.57-1.19,2.04-1.7.55-2.39,2.53-3.18l.68-1.01,1.69-1.98c.59-.69.82-.24,2.58-2.01l2.01-2.03c.23-.23.92-.61,1.11-.87l1.09-1.5c.34-.47.8-1.31,1.14-1.65.78-.78,1.73-1.65,2.33-2.52l1.06-1.53,1.19-1.72c.29-.42.81-.9,1.27-1.33l.76-1.41c.69-.57,1.21-1.08,1.76-1.71l1.64-1.87c.31-.35,1.05-.91,1.48-1.27l1.73-1.44,2.54-2.27c.66-.59,1.39-1.12,2-1.73l3.43-3.44c2.36-2.36.28-.79,3.03-2.99.38-.31,1-.98,1.41-.96l2.01.08-1.47-1.32,1.43-1.25,1.7-1.49c.87-.76.86-1.52,3.09-3.47.6-.53,1.22-1.49,1.8-2.13.54-.61,1.15-1.2,1.61-1.8.65-.84,1.22-1.65,1.9-2.39l3.29-3.6,1.24-1.54c.73-.38,1.09-.79,1.37-1.56l1.34-.62.58-1.11,1.89-1.91,1.4-1.12,1.21-1.37,1.21-1.37,1.06-1.27c.35-.42.9-.8,1.31-1.2l2.6-2.59c.51-.51,1.56-1.09,2.01-1.62.97-1.15,1.8-2.19,2.82-3.21l1.15-1.14,4.57-4.58c1.3-1.3,1.3-.76,2.38-2.24ZM513.65,243.24l-1.78-2.09c-.9-1.07-1.97-2.88-2.29-4.11l-.32-1.24-1.94-1.44c-3.56-2.65-1.38-2.41-3.65-3.49-.28-.14-.67-.66-.88-.86l-1.17-1.12c-.69-.66-1.36-1.3-1.95-2.04l-1.41-1.74c-1.95-2.41-2.21-2.43-3.83-4.45-1.78-2.22-.29-1.03-1.89-2.63l-.48-.49c-.46-.46-1.11.45-1.87-.54l-1.16-1.52c-.56-.73-1.2-1.45-1.9-2.08l-1.64-1.49c-.15-.22-.5-.87-.68-1.06l-2.33-2.49c-1.53-1.64-1.82-2.54-2.99-3.57-.92-.8-1.81-1.66-2.51-2.6-.42-.56-.79-.87-1.24-1.46l-1.81-2.33-1.21-.85-1.82-1.88-1.16-1.18c-.66-.67-1.56-1.37-2.08-2.15-.4-.6-.66-1.84-1.23-2.11-.64-.3-1.24-.62-1.57-1.03l-1.2-1.5-1.91-2.53c-.26-.35-1.14-.87-1.44-1.16l-1.4-1.28c-.53-.49-.74-2.1-1.21-2.67l-1.73-2.06c-.42-.51-1.1-1.16-1.35-1.68-.36-.75-.66-1.29-1.17-1.72l-.98-.82c-.15-.13-.48-.41-.65-.43l-1.48-.19-1.73-2.34c-1.6-2.16-1.67-2.72-3.16-4.3-.81-.86-1.36-1.88-1.98-2.89l-1.19-1.94c-1.15-1.87-1.06-1.29-2.76-3.27-.53-.61-1.59-1.68-1.66-2.4l-.17-1.95c-2.75-.3-1.79-1.86-4.1-4.48-1.95-2.21.01-3.69-1.98-3.32l-1.27.23c-.28-.79-.47-1.63-.58-2.62-.07-.6-1.36-.95-1.57-1.43l-.69-1.57c-.52-1.18-1.55-1.64-2.77-1.28-1.13-1.27-2.26-2.62-3.08-4.08l-.52-.93c-1.08-1.94-1.46-.65-1.54-1.6-.55-6.69-1.59-2.5-2.8-6.66-.13-.43-.69-.78-1-1.27l-1.29-2.05-1.66-1.6c-.37-.36-.62-1.09-.92-1.62-.51-.87-1.33-1.7-2.03-2.51-2.07-2.37-1.67-4-4.02-4.56-2.99-3.7-.06-4.24-2.76-5.82-5.66-3.32-2.12-3.25-4.81-4.6-.47-.24-.91-.6-1.32-.92l-2.34-1.86-.7.59c0,.79,0,1.52.1,2.14l.57,3.16.29,1.74.31,1.77c.33,1.91-1.18,2.39-.73,6.95l.21,2.11c.3,3.01.77.45.35,2.9-.28,1.6,1.48-.44.5,5.38-.1.61.42,1.38.47,2.04l.19,2.68.89,3.48c.26,1.01.09,2.1-.03,3.23-.6,5.23.37,2.1.53,6.81.02.59.13,1.12.28,1.69.74,2.92-.34.63.71,3.64.15.44-.55,1.27-1.01,1.47-1.43.62-2.7,1.65-3.19,1.68l-1.89.14c-2.16,1.76-1.51,2.43-2.75,3.23-1.92,1.23-2.19.96-2.63,1.69l-1.79,2.98c-.63.05-1.29.07-1.63.18l-1.87.59c-1.22.39-.32-1-2.55-1.69-.44-.14-1.01-.98-1.36-1.39l-1.73-2-1.22-.47-1.83-1.34c-.56-1.15-1.1-2.25-2.49-2.68-.68-.21-1.31-.72-1.93-1.16-.57-.4-1.62-.87-1.99-1.34-.6-.75-1.03-1.33-1.58-1.94l-.97-1.07c-.79-.87-1.35-.08-3.06-2.93-.92-1.53-.77-.14-2.79-1.77-.95-.76-2.04-.27-4.32-4.21-.9-1.55-1.43-2.55-2.64-3.93l-1.5-1.72c-.28-.32-.91-.95-1.28-1.2l-1.56-1.07c-1.31-.89-3.5-3.7-4.57-5.13-.86-1.14-2.21.27-3.5-1.87l-.91-1.51c-.37-.62-.05-2,.02-2.84l.18-2.05.24-2.51c.03-.33.68-.72,1.12-1.06.35.11.32.1-.13-.04-.28-.28-.99-1.07-1-1.52l-.11-5.14-.24-3.99c-.12-2-.43-1.96-.06-2.66.55-1.03.51-2.34-.08-3.45l-.24-1.35c-.92.53-1.53.85-2.37,1.03-2.8.6-.83-.69-3.71.21-.93.29-1.82.48-2.84.7-2.44.53-.26-.52-3.38-.37-.55.03-1.36-.14-2.05-.24-.99-.15-2.18-.06-3.11-.12l-2.23-.15c-3.35-.23-4.36-1.5-6.51-1.09l-2.76.53c-1.23.23-2.32.53-3.54.28-3.93-.79-1.84-1.02-5.3-1.69-.96-.19-1.95-.34-2.86-.6l-3.55-.99c-.92-.26-3.08-1.03-4.39-.82l-1.64.27c-.24.25-.57.69-.22.4l.67.35c.75.39.46.55,1.63,1.47l2.7,2.12c.32.25.82.96,1.06,1.26l1.27,1.58c.94.28,2.49,2.55,2.9,3.42l.86,1.83c.56,1.19,2.84,2.56,3,2.82l1.02,1.63c2.18,3.47.51,2.83,2.22,3.76,1.57.85,4.14,3.45,5.1,4.88l1.16,1.71,1.83,2.51c1.47,2.01-.42,1.67,1.29,3.21l1.95,1.75c.81-.07,2.51.89,2.79,1.26l1.6,2.12.13,1.8,1.59,1.34c.39.33.88,1.46,1.3,1.78.62.47,1.43.94,2.07,1.37l2.56,1.71,3.08,2.1c1.04.71,1.52,1.67,2.17,2.38,1.95,2.13,2.92,3.08,5.14,4.86,1.97,1.57.5.81,3.2,3.1.99.84,2.05,1.82,2.83,2.81l1.79,2.27c.87,1.1,2.1,1.72,3.27,2.45,3.66,2.29,3.23,2.53,6.13,5.02,2.64,2.27,1.69,2.6,4.69,5,1.98,1.59,3.18,1.5,5.43,3.12,1.5,1.08,2.34,2.65,3.26,3.29,2.37,1.66-.07,1.67,3.42,4.3l.83.87,1.66,1.55,1.54,1.02c.41.27.91.67,1.3.89l1.7.97c1.75,1,.72,1.43,2.41,2.97l2.25,2.05,1.09,1c.96.87,3.66,1.36,4.23,1.74l4.6,3.05c.4.27,1.04,1.08,1.35,1.43l1.48,1.71,1.6,1.82,1.37,1.48,1.53,1.64c.49.52,1.08,1.01,1.66,1.45l1.79,1.37c.89.68,1.75,1.52,2.43,2.39l1.02,1.31c.35.45.88.82,1.33,1.27l1.83,1.86c.47.48,1.57.9,1.99,1.38.86.98,1.59,1.83,2.52,2.68l1.92,1.78,2.54,2.32,1.36,1.24c.39.36,1.01,1.08,1.42,1.38l2.83,2.07c.6.44,1.13,1.16,1.69,1.71l1.29,1.27c.65.63,1.21,1.24,1.91,1.87s1.09,2.8,3.5,4.38.1.2,2.77,3.31c.41.47.93,1.37,1.33,1.73l1.71,1.53c.48.43,1.08,1.17,1.54,1.51.89.66,1.4,1.16,1.96,2.16l1.84,1.52,1.42,1.18c2.5,2.07.55.48,3.13,3.7.86,1.08,2.48,3.38,4.35,3.45,2.05,2.33.32.89,2.76,3.45l1.41,1.48c.45.47,1.33,1.15,1.63,1.7.34.63.4,1.88.81,2.32l1.43,1.52c1.3.15,2.75.68,2.98,2.12.11.69.16,1.67.22,2.43l2.09,2.18c.24.26.67.9.87,1.19l-.47,1.09c-.54,1.27,1.02.26,1.86,2.91,1.12,3.54-1.2,1.61.17,4.27l.68,1.31,1.68-.72c.19-.08.51-.71.7-.84l2.36-1.52,3.85-2.46c1.05-.67,1.96-1.37,2.9-2.26l1.18-.53c.54-.62,1.29-1.55,1.84-1.79.69-.07,1-.2,1.54-.47l3.11-1.53c.41-.2,1.2-.47,1.53-.73l2.25-1.78c.64-.51,1.49-1.12,2.17-1.44l1.64-.76c.75-.34,1.24-.93,1.85-1.63.43-.5,1.77-.85,2.45-1.16l2.38-1.09,4.27-2.14-.99-.46.52-.51-1.61-.69c-.47-.32-.44-.36.05-.29l1.36-.3,1.66,1.77,1.41-1.86c.41-.54.95-.9,1.51-1.35l1.4-1.14,1.13-.84c.21-.16.5-.9.83-1.04,1.19-.51,3.16-1.48,4.58-2.55l-1.43-.93-.99-1.44c-1.13-.88-2.07-1.77-2.91-2.86l-1.44-1.88Z"/>
        </g>
      </g>
    </g>
  </g>
</svg>