<?xml version="1.0" encoding="UTF-8"?>
<svg id="svg1" xmlns="http://www.w3.org/2000/svg" xmlns:svg="http://www.w3.org/2000/svg" xmlns:sodipodi="http://sodipodi.sourceforge.net/DTD/sodipodi-0.dtd" xmlns:inkscape="http://www.inkscape.org/namespaces/inkscape" version="1.1" viewBox="0 0 371.81 304.6">
  <!-- Generator: Adobe Illustrator 30.2.1, SVG Export Plug-In . SVG Version: 2.1.1 Build 1)  -->
  <sodipodi:namedview id="namedview1" bordercolor="#000000" borderopacity="0.25" inkscape:current-layer="layer1" inkscape:cx="380.68182" inkscape:cy="569.31818" inkscape:deskcolor="#d1d1d1" inkscape:document-units="mm" inkscape:pagecheckerboard="0" inkscape:pageopacity="0.0" inkscape:showpageshadow="2" inkscape:window-height="754" inkscape:window-maximized="0" inkscape:window-width="1095" inkscape:window-x="186" inkscape:window-y="25" inkscape:zoom="0.44" pagecolor="#ffffff"/>
  <g id="layer1" inkscape:groupmode="layer" inkscape:label="Taso 1">
    <path id="path1" d="M149.54,304.48c-.41-.15-2.18-.71-3.94-1.23-1.75-.53-3.19-1.28-3.19-1.67s-.53-.51-1.17-.26c-.64.25-2.19-.07-3.43-.72-1.91-.99-2.11-1.34-1.3-2.32,1.13-1.36,5.39-.92,7.31.74,2.49,2.17,8.4,2.8,22.59,2.4,11.74-.33,15.09-.69,21.75-2.39,4.33-1.1,12.26-2.88,17.62-3.94l9.75-1.94,1.34-2.85c.74-1.57,1.14-3.17.9-3.56-.59-.96-17.09-.91-23.83.07-2.97.43-6.24.91-7.27,1.06-1.03.15-3.23.48-4.87.73-7.66,1.16-9.47,1.34-16.5,1.58-4.12.14-11.72.49-16.87.78-13.8.76-20.22-.97-21.38-5.77-.42-1.74-.15-2.09,2.39-3.1,1.58-.63,4.05-1.38,5.49-1.68s4.33-1.7,6.41-3.11c2.67-1.81,5.21-2.79,8.63-3.34,2.78-.44,6.04-1.55,7.64-2.61,1.54-1.01,3.16-1.84,3.61-1.84.53,0,.65-1.11.33-3.2-.4-2.66-.22-3.44,1.06-4.6.85-.77,1.35-1.71,1.11-2.09-1.09-1.76.62-4.48,3.67-5.86,4.05-1.83,8.37-5.61,7.68-6.71-.29-.47-.23-1.25.13-1.75s.64-2.25.63-3.89c-.03-2.76-.27-3.1-3.21-4.5-1.75-.84-3.7-2.27-4.34-3.19-1.06-1.51-1.05-1.89.07-4.05,1.19-2.31,5.39-6.66,6.42-6.66,2.19,0,3.95-30.65,2.2-38.41-.4-1.77-.46-3.47-.14-3.79.32-.32.29-2.85-.07-5.62-.92-7.25-.9-10.2.15-17.8.51-3.71.88-7.26.82-7.87-.36-3.47.17-19.24.67-19.88.32-.41.62-2.61.66-4.87s.27-5.81.5-7.88c.49-4.43.47-3.72.31-11.25-.15-6.61-.82-8.67-2.77-8.47-.71.07-2.74-.15-4.5-.49-2.66-.51-3.13-.85-2.76-2.01.24-.77.58-2.17.75-3.11l.31-1.72-10.67.18c-5.87.1-15.06.53-20.42.95-5.36.42-22.21.95-37.43,1.18-15.23.23-27.89.55-28.14.71-.25.16-3.18.05-6.51-.24l-6.05-.52-2.18,3.23c-1.2,1.78-2.94,3.73-3.87,4.35-.93.62-1.68,1.87-1.68,2.79,0,1.37,2.59,6.5,6.69,13.3,2.57,4.26,4.86,8.71,4.72,9.19-.09.31.13.56.49.56,1.27,0,6.28,8.09,5.65,9.13-.48.8-.38.82.53.09.96-.77,1.44-.22,3.14,3.63,1.11,2.5,2.02,4.85,2.02,5.23s.36.68.79.68,1.82,2.11,3.07,4.69c3.15,6.47,4.13,8.19,4.98,8.73.4.25,1.99,2.82,3.53,5.71s3.27,5.78,3.84,6.43c1.48,1.7,1.29,2.19-.85,2.19-1.45,0-2.19-.65-3.19-2.81-.72-1.55-1.72-3.08-2.24-3.41s-.94-1.24-.94-2.03-.59-1.75-1.31-2.16-1.07-.96-.79-1.25c.28-.28-.48-1.57-1.69-2.87-1.21-1.29-2.21-2.57-2.21-2.83,0-.26-1.35-2.79-3-5.61-1.65-2.82-3-5.56-3-6.08s-1.19-2.55-2.64-4.51c-1.45-1.96-3.14-4.24-3.74-5.07-.6-.83-1.62-2.17-2.26-3-2.26-2.92-4.86-7.2-4.86-8,0-.45-1.18-2.12-2.62-3.72s-2.62-3.41-2.62-4.03-.47-1.12-1.04-1.12-1.27-.59-1.55-1.31c-.76-1.98-1.51-.18-3.01,7.31-.7,3.51-2.59,10.59-4.2,15.75-1.61,5.16-4.34,13.93-6.06,19.5-1.72,5.57-3.34,10.46-3.6,10.87-.26.41-.57,1.76-.7,3-.13,1.24-.73,3.6-1.33,5.25-.6,1.65-1.43,4.18-1.84,5.62s-1.56,4.99-2.55,7.88c-.99,2.89-1.97,6.26-2.19,7.5l-.38,2.25,26.98-.2c22.52-.17,26.98-.03,26.98.83,0,.75,1.54,1.15,5.53,1.45,3.04.23,6.16.76,6.94,1.18,4.95,2.68,15.59,4.88,11.57,2.39-.58-.36-1.17-1.42-1.31-2.36s-.76-2.26-1.37-2.93c-.61-.67-1.11-1.73-1.11-2.35,0-1.67-3.55-10.09-5.66-13.44-1.01-1.6-1.84-3.39-1.84-3.96s-.51-1.47-1.12-1.98c-1.69-1.4-1.36-3,.61-3,1.82,0,2.94,1.92,5.68,9.7.71,2.02,1.64,4.12,2.07,4.67s1.34,2.46,2.03,4.24c.69,1.78,2.8,6.17,4.68,9.75,2.67,5.09,3.34,7.05,3.03,8.95-.37,2.35-.29,2.44,2.17,2.44,3.38,0,4.88,2.4,2.89,4.6-1.51,1.67-17.31,9.5-24.01,11.9-7.27,2.61-16.47,4.61-27.62,6-11.95,1.49-14.19,1.18-30.26-4.17-16.45-5.48-21.31-7.55-24.38-10.4-1.15-1.06-2.6-1.94-3.22-1.94s-.92-.34-.66-.76c.26-.42-.15-.97-.89-1.24-2.94-1.05-3.88-2.64-4.4-7.5-.48-4.49-.38-5.01,1.33-6.87,1.02-1.11,2.76-4.82,3.87-8.26,1.11-3.44,3.84-9.85,6.06-14.25,5.47-10.83,10.62-21.85,11.28-24.13.3-1.03.94-2.38,1.42-3s1.7-3.66,2.71-6.75c1.01-3.09,2.6-7.07,3.54-8.84,2.45-4.64,6.68-15.1,7.34-18.14.31-1.43,1.53-4.51,2.72-6.84,1.18-2.33,2.16-4.87,2.18-5.65.03-1.7,1.69-4.03,2.87-4.03,1.62,0,1.01,2.23-2.99,10.87-.38.83-1.89,4.87-3.36,9-3.79,10.68-5.11,14.09-5.94,15.38-1.22,1.88-4.86,11.54-4.86,12.89,0,.7-.38,1.5-.84,1.78-.46.28-1.6,2.24-2.53,4.36-3.56,8.04-12.48,27.18-13.62,29.23-.66,1.18-1.63,3.71-2.17,5.62s-1.33,4.61-1.75,5.99l-.78,2.51,7.5-.26c5.64-.19,7.67-.54,8.21-1.38.79-1.26,1.92-4.68,4.82-14.63,1.08-3.71,2.25-7.27,2.59-7.9s.86-2.32,1.14-3.75c.74-3.72,2.36-9.14,6.92-23.18,2.2-6.78,4.01-12.96,4.01-13.72s.67-2.7,1.5-4.32,1.84-5.33,2.25-8.26,1.43-6.72,2.25-8.42c.82-1.7,1.5-4.41,1.5-6.01s.35-3.56.78-4.36c.63-1.18.53-1.46-.56-1.48-2.08-.04-4.95-2.78-4.41-4.19.26-.67.13-1.63-.28-2.13-.54-.65-.22-1.19,1.11-1.91,1.03-.55,1.87-1.28,1.87-1.62,0-.54-2.98-.99-4.7-.71-.32.05-1.84-.47-3.37-1.15s-3.14-1.28-3.55-1.32c-1.65-.17-4.87-2.96-4.87-4.22,0-1.51,4.04-5.23,5.68-5.23,1.25,0,1.33-.71.35-3.29-1.21-3.19-1.82-8.72-1.86-17.06-.04-7.84,0-8.04,2.39-11.37,1.34-1.87,2.44-3.65,2.44-3.95,0-1.34,4.98-4.83,7.44-5.23,1.48-.24,4.88-1.05,7.56-1.81,2.68-.76,5.89-1.42,7.13-1.47,3.23-.13,4.27-.38,6.3-1.49,1.61-.88,6.32-1.76,14.42-2.69,1.49-.17,4.33-1.17,6.3-2.22,6.63-3.53,7.46-2.55,4.87,5.72-2.54,8.1-3.2,7.62,9.55,6.99,12.09-.6,12.76-.64,24-1.49,7.58-.57,7.69-.61,7.69-2.49,0-2.59,2.92-6.7,5.37-7.55,1.1-.39,2.15-.55,2.34-.36.19.19.76-.69,1.28-1.94,1.27-3.07,4.2-3.09,7.13-.03,2.37,2.48,2.78,2.42,3.09-.42.58-5.43,5.1-5.56,11.62-.32,2.69,2.16,5.44,3.75,6.47,3.75s2.52.38,3.39.85,4.23.95,7.46,1.07c3.23.12,7.8.63,10.17,1.13,2.38.5,10.19.92,17.43.93,10.51.02,13.78-.22,16.41-1.23,3.79-1.45,8.02-1.64,8.79-.39.61.98,17.77.4,25.43-.86,2.47-.41,7.22-.74,10.54-.74,4.15,0,6.5-.35,7.5-1.11.87-.66,3.17-1.11,5.72-1.13,2.35-.01,5.08-.33,6.07-.71,2-.76,15.24-10.61,23.11-17.19C320.57,6.98,331.36.18,333.46,0c1.19-.1,1.32.56,1.18,6.27-.09,3.51-.87,10.93-1.74,16.5s-1.69,10.8-1.82,11.63c-.13.82-.78,3.33-1.44,5.57-.67,2.24-1.23,5.45-1.24,7.13-.02,1.68-.51,4.4-1.1,6.04-1.03,2.89-1,3.06.92,5.06,1.09,1.14,2.42,2.07,2.95,2.07,1.85,0,2.41,2.75,2.03,9.98l-.38,7.27h2.87c1.58.02,4.52.46,6.54.98,4.53,1.17,5.64,3.19,3.35,6.1-1.34,1.7-2.06,1.92-6.24,1.92-2.6,0-5.74.2-6.97.45-2.16.43-2.23.57-1.87,3.74.23,2.02.02,3.72-.54,4.4-1.12,1.34-.28,4.22,3.38,11.62,1.36,2.75,2.71,6.33,3,7.96.29,1.63.8,3.29,1.11,3.71,1.54,1.99,6.1,15.14,7.8,22.5,1.05,4.54,2.8,10.27,3.89,12.75,1.09,2.47,2.24,5.17,2.55,6,2.24,5.93,3.28,9.08,3.14,9.56-.09.31.2.56.63.56s.63.26.44.58c-.2.32,1.15,2.09,3,3.94,2.35,2.35,3.27,3.83,3.06,4.94-.18.97.24,1.92,1.08,2.44.76.47,1.38,1.49,1.38,2.26,0,1.59,1.62,5.39,3.72,8.71,1.87,2.97,2.02,6.58.25,6.24-.73-.14-1.48-1.22-1.74-2.51-.25-1.24-1.51-3.71-2.8-5.49s-2.14-3.73-1.91-4.34c.23-.61-.3-1.88-1.19-2.83-.89-.95-1.42-2.22-1.19-2.83.26-.69-1.13-2.76-3.68-5.45-2.33-2.46-3.93-4.78-3.71-5.36.22-.57-.31-2.17-1.18-3.57-.87-1.4-1.57-3.05-1.57-3.68s-.51-1.55-1.12-2.07-1.13-1.8-1.13-2.86-.62-3.29-1.37-4.97c-2.18-4.84-3.37-8.73-4.01-13.17-.33-2.27-.69-4.66-.79-5.31-.11-.65-.79-1.77-1.51-2.49-.72-.72-1.35-1.88-1.39-2.57-.04-.69-.13-2.34-.19-3.65-.06-1.35-.8-3.04-1.69-3.87-1.38-1.28-3.03-6.75-2.62-8.65.08-.37-.56-1.42-1.43-2.34s-1.67-2.61-1.8-3.75c-.12-1.14-1-2.66-1.95-3.38-.95-.72-1.79-2.11-1.86-3.09-.13-1.79-3.53-3.76-4.61-2.68-.47.47.6,3.57,3.14,9.15.56,1.24,1.75,5.46,2.64,9.38.89,3.92,2.23,8.14,2.97,9.38,1.45,2.39,3.57,13.49,3.67,19.13.13,7.79,2.23,19.93,3.83,22.12.3.41.79,1.93,1.09,3.37.3,1.44,1.65,6.17,3.01,10.5,4.91,15.67,5.75,19.5,4.26,19.5-1.09,0-3.89-3.03-4.01-4.34-.06-.71-.15-1.68-.2-2.17s-.33-1.13-.64-1.44-.55-1.49-.55-2.63-.36-2.3-.8-2.58c-.44-.27-.62-.96-.41-1.52.22-.56.07-1.22-.32-1.47-.39-.24-.72-1.11-.72-1.93s-.73-2.91-1.62-4.64-1.71-4.34-1.83-5.78c-.32-3.82-1.56-9.79-2.58-12.38-.49-1.24-.85-3.71-.8-5.5.05-1.79-.16-3.64-.48-4.13-.31-.48-.58-3.07-.59-5.75-.03-5.88-1.53-14.54-2.98-17.19-2.82-5.14-4.19-9.28-3.75-11.3.34-1.54.07-2.5-.97-3.5-1.21-1.16-2.23-3.65-2.49-6.07-.12-1.09-1.47-3.19-2.06-3.19-.33,0-1.41,1.77-2.41,3.93s-2.92,5.62-4.26,7.68c-1.34,2.06-2.65,4.42-2.91,5.25-.26.83-1.05,2.35-1.76,3.38-.71,1.03-2.14,3.39-3.18,5.25-6.96,12.44-10.46,17.72-15.2,22.91-.83.9-1.84,2.15-2.25,2.77-.41.62-2.1,2.82-3.75,4.9s-4.18,5.52-5.62,7.65c-1.44,2.13-3.15,4.46-3.79,5.17s-3.41,4.69-6.17,8.84-5.56,8-6.23,8.56-1.52,1.79-1.88,2.74c-.72,1.89-2.94,2.36-2.94.62,0-.6,1.01-2.25,2.25-3.66,1.24-1.41,2.25-2.94,2.25-3.4s.27-.84.6-.84,2.35-2.62,4.5-5.81c5.31-7.91,9.35-13.39,24.13-32.81,2.51-3.3,6.42-9.38,8.69-13.5,2.27-4.12,4.42-8.01,4.79-8.62,6.03-10.19,7.85-13.49,10.88-19.73,3.4-7,3.51-7.41,2.19-8.37-1.26-.92-1.28-1.14-.22-2.39.64-.76,1.25-2.66,1.36-4.22l.2-2.84-6.25.45c-8.3.6-9.62.79-12.15,1.78-1.18.46-5.91,1.17-10.5,1.57-4.59.4-10.83,1.07-13.87,1.48s-5.84.55-6.23.31c-.39-.24-14.25-.52-30.81-.62-17.9-.11-30.2-.47-30.34-.89-.13-.39-1.58-.58-3.22-.42-1.64.16-3.95-.05-5.14-.47-3.23-1.13-4.16-.19-3.21,3.22,1.12,4.05-.44,6.37-4.28,6.37-1.11,0-1.26,1.26-1.33,11.06-.06,9.16-.45,17.99-1.31,29.94-.06.89-.3,1.81-.52,2.03-.22.22-.21,2.4.02,4.84.23,2.44.17,7.94-.14,12.22-1.93,26.72-1.78,54.11.3,56.69.96,1.18.12,2.47-1.6,2.47-2.8,0-3.32-1.91-3.23-11.86.09-9.93.81-31.5,1.32-39.89.35-5.72.54-22.64.27-23.67-.1-.39.23-2.73.74-5.21,1.99-9.64,2.15-11.07,1.5-13.74-.69-2.85-.84-11.55-.27-15.51.45-3.13-1.1-10.7-2.29-11.16-1.93-.74-2.42,1.59-2.95,14.15-.29,7.01-.64,12.92-.76,13.12-.13.21-.45,4.26-.73,9-.27,4.74-.65,11.16-.85,14.25-.48,7.65-.52,16.4-.23,45,.17,16.7-.02,25.26-.6,27.19-.76,2.5-.22,3.88.84,2.16.63-1.02,4.32-1.54,7.75-1.08,3.7.5,8.44,4.69,8.44,7.48,0,2.47-4.78,5.7-11.47,7.76l-5.5,1.69-.85,6.74c-.91,7.23-2.16,9.57-5.13,9.57-.94,0-1.92.34-2.18.75-.25.41-1.12.75-1.92.75-1.91,0-1.86,1.23.09,2.27,2.36,1.26,17.96-.86,17.96-2.44,0-.32.51-.58,1.13-.58s1.12-.17,1.12-.39c0-.68-1.84-3.69-3.3-5.41-.95-1.11-1.19-1.99-.73-2.63.38-.53.65-1.89.6-3.02-.13-2.86.77-2.58,2.34.75.73,1.55,2.81,4.5,4.63,6.56l3.3,3.75-.21,6.38c-.2,6.28-.18,6.38,1.65,6.6,3.04.36,17.39,4.76,20.31,6.22,2.69,1.35,5.02,5.1,4.1,6.59-.64,1.03-4.41-.34-6.11-2.22-1.25-1.38-4.75-2.69-16.07-6.02-4.81-1.41-4.92-1.41-7.87.02-6.57,3.18-10.95,4.55-14.6,4.55-2.71,0-3.95-.33-4.25-1.13-.28-.74-1.45-1.12-3.41-1.12-1.64,0-3.48-.5-4.1-1.13-1.48-1.48-3.21-1.42-7.55.28-1.97.77-5.11,1.66-6.97,1.96-1.86.3-4.79,1.5-6.52,2.66s-5.03,2.72-7.33,3.47c-3.37,1.1-4.15,1.66-3.98,2.84.27,1.91,7.48,3.52,13.33,2.96,2.27-.21,9.36-.51,15.75-.67,10.91-.26,17.17-.85,27-2.56,2.27-.39,10.63-.93,18.57-1.19,16.72-.55,16.43-.67,13.58,6.08-2.62,6.21-1.25,5.74-38.01,13.1-1.78.36-3.53.83-3.89,1.05-.75.47-29.23,1.24-30.37.83h0ZM184.23,272.42c4.69-1.39,5.31-1.77,4.5-2.75-.76-.92-.73-1.21.14-1.5.6-.2,1.89-1.18,2.89-2.17,1.52-1.52,1.72-2.25,1.29-4.57-.29-1.52-.68-3.03-.88-3.35-.44-.72-2.86-.35-5.88.89-4.85,2-11.49,3.36-16.5,3.4l-5.25.04.15,2.25c.19,2.85,3.08,5.3,8.94,7.56,5.47,2.11,4.23,2.09,10.6.2h0ZM185.54,233.37c2.06-.45,4.93-1.61,6.37-2.59,2.51-1.7,2.55-1.8.93-2.23-.93-.25-1.89-1.22-2.13-2.16-.47-1.88-2.21-2.58-6.45-2.6-2.27,0-3.43.61-6.34,3.36-2.5,2.37-3.8,3.13-4.35,2.57-.55-.56-.15-1.35,1.32-2.62,1.16-1,1.8-1.82,1.42-1.82-1.49,0-4.65,3.77-4.65,5.55,0,3.68,4.67,4.54,13.87,2.54h0ZM71.91,231.72c7.67-1.1,12.49-2.14,16.34-3.54,4.07-1.48,17.91-7.81,21.89-10.01,2.04-1.13,2.9-2.65,1.5-2.65-1.19,0-4.45-3.13-4.47-4.29-.01-.9-1.01-.76-4.14.56-.82.35-4.03,1.16-7.13,1.79-3.09.64-7.43,1.66-9.65,2.28-2.84.79-7.47,1.1-15.75,1.05-6.49-.04-12.84.29-14.21.73-2.63.85-14.95.36-16.27-.64-.41-.31-3.29-.61-6.4-.65-3.11-.04-8.17-.41-11.25-.83-12.6-1.69-15.2-1.81-14.83-.68.77,2.36,7.68,6.49,15.42,9.23,10.98,3.88,23.79,7.72,28.26,8.47,3.35.56,13.93.14,20.67-.83h0ZM90.94,212.89c12.56-2.87,14.1-3.36,13.77-4.34-.16-.49-.94-1.01-1.74-1.16-.79-.15-2.79-.87-4.44-1.61s-3.67-1.47-4.5-1.62c-.82-.15-1.5-.78-1.5-1.39,0-.7-.67-1.08-1.8-1.02-.99.05-5.2-.23-9.37-.62-4.17-.4-14.18-.81-22.26-.91-8.07-.1-15.04-.41-15.49-.69-.45-.28-1.56-.23-2.47.11-.97.36-3.1.24-5.13-.28-2.11-.54-3.97-.64-4.74-.24-.69.36-1.86.66-2.6.66s-2.1.93-3.05,2.06c-1.61,1.94-1.78,1.98-2.75.73-.85-1.09-1.41-1.19-3.09-.55-1.13.43-4.72.72-7.98.64-5.26-.13-6.09.04-7.47,1.52-1.96,2.1-1.37,3.74,1.56,4.32,1.25.25,2.27.78,2.27,1.19s-.59.51-1.31.24c-1-.38-1.1-.29-.45.37.92.93,6.03,1.65,21.26,3,5.16.46,10.56,1.09,12,1.41s11.69.46,22.78.33c18.38-.23,20.89-.42,28.5-2.17h0ZM54.67,95.54c.53.86.81.7,1.37-.78.94-2.48.51-2.98-2.53-2.98-2.1,0-2.65.34-3.03,1.83-.69,2.75.28,3.78,2.05,2.18,1.25-1.13,1.57-1.17,2.14-.25h0ZM193.28,93.39c.39-4.04-1.23-5.18-6.41-4.53-2.38.3-6.27.57-8.64.6-4.08.06-4.31.16-4.31,1.94,0,1.03.42,1.9.94,1.92.93.04,5.65.94,11.44,2.16,5.39,1.14,6.72.74,6.99-2.09h0ZM324.21,90.65c.78-.59,1.76-.87,2.17-.61.48.3.55-.33.2-1.71-.67-2.68-.41-2.49-2.86-2.02-1.77.34-2.06.76-2.06,2.93,0,2.79.42,3.02,2.55,1.41h0ZM110.58,88.49c12.81-.11,23.63-.4,24.04-.66.41-.25,8.49-.68,17.95-.94,9.46-.26,17.35-.62,17.52-.8,1.2-1.2-4.65-1.45-35.06-1.51-18.84-.04-34.59-.17-35-.3-2.84-.86-15.7-1.46-40.24-1.86-20.5-.33-23.79-.24-24.16.72-.29.76.22,1.27,1.61,1.62,1.12.28,3.48,1.15,5.24,1.92,2.53,1.12,5.7,1.5,15,1.81,6.49.22,11.95.55,12.15.74.19.19,4.24.14,9-.1,4.76-.25,19.13-.54,31.94-.65h0ZM237.29,87.83c10.94.11,8.07-.92-5.28-1.9-8.61-.63-28.93-.73-30.35-.14-.83.34,12.73,2.01,17.61,2.17,2.88.09,5.4.33,5.6.53.2.2,1.22.12,2.27-.19,1.04-.31,5.61-.52,10.15-.47h0ZM256.41,88.03c0-.41-.69-.75-1.54-.75s-1.34.34-1.08.75c.25.41.95.75,1.54.75s1.08-.34,1.08-.75ZM268.11,88.23c-.57-.57-9.52-.38-10.11.21-.19.19,2.14.34,5.16.34s5.25-.25,4.95-.55h0ZM280.81,88.07c3.29-.39,8.51-.87,11.61-1.08,3.09-.21,6.47-.73,7.5-1.16,1.46-.61.7-.7-3.37-.4-2.89.21-8.96.53-13.5.7-4.54.18-9.6.57-11.25.87-2.74.5-2.84.59-1.13,1.08,2.69.77,3.49.76,10.14-.02h0ZM252.08,87.4c-.9-.57-5.42-.29-5.42.34,0,.16,1.43.28,3.19.28,1.91,0,2.81-.25,2.23-.62h0ZM179.86,84.38c-.04-.78-.2-.89-.44-.29-.21.52-1.36.94-2.57.94s-2.19.27-2.19.6,1.18.46,2.62.29c1.84-.22,2.61-.67,2.57-1.54ZM182.5,84.96c-.24-.39-.76-.51-1.15-.27-.39.24-.51.76-.27,1.15.24.39.76.51,1.15.27.39-.24.51-.76.27-1.15h0ZM200.16,85.78c0-.41-.69-.75-1.54-.75s-1.34.34-1.08.75c.25.41.95.75,1.54.75s1.08-.34,1.08-.75ZM276.29,83.51c23.42-1.51,52.18-4.87,53.02-6.19.32-.51.59-3.27.6-6.14q.01-5.22-3.5-8.79l-3.51-3.56,1.22-5.46c.67-3.01,1.58-7.49,2.02-9.96.44-2.48,1.45-7.54,2.26-11.25,1.61-7.41,3.59-27.06,2.8-27.84-.27-.27-1.33.06-2.36.74-1.03.68-3.46,2.12-5.41,3.2-1.94,1.09-6.43,4.4-9.96,7.36-9.06,7.59-18.86,15.02-21.87,16.58-1.6.83-4.02,1.29-6.47,1.23-2.15-.05-5.02.37-6.38.93-1.41.59-6.81,1.23-12.59,1.51-5.57.26-11.98.62-14.25.79-2.27.17-5.98.45-8.25.63-2.27.17-6.15.03-8.62-.31-3.22-.45-5.84-.32-9.22.46-6.05,1.39-15.31,1.55-27.15.45-5.16-.48-11.64-1.08-14.4-1.34l-5.03-.47.43,6.21c.65,9.33-.96,13.73-6.5,17.81-4.87,3.58-11,5.98-12.21,4.77-1.04-1.04,2.08-3.58,5.08-4.16,1.24-.24,3.65-1.71,5.36-3.28,2.74-2.5,3.18-3.37,3.65-7.17.66-5.27.2-9.13-1.52-12.75-1.05-2.21-1.71-2.73-3.46-2.73-1.19,0-2.16-.34-2.16-.76,0-.81-7.69-5.99-8.89-5.99-.4,0-.54,1.29-.33,2.9.32,2.41.1,3.1-1.32,4.09-1.62,1.13-1.87,1.07-4.77-1.16-5.59-4.29-5.28-4.13-4.34-2.35.47.88,1.32,1.78,1.89,2,.79.3.98,1.75.78,6.09-.3,6.65-2.55,10.95-6.52,12.46-1.31.5-3.73,1.5-5.38,2.22-3.2,1.4-7.36,2.37-11.63,2.72-7.22.6-8.54.55-8.82-.3-.46-1.37,3.14-2.41,8.32-2.41,8,0,20.75-5.98,20.75-9.74,0-.78-.34-1.63-.75-1.89-1.19-.73-.87-2.08.38-1.6,1.37.53,1.48-1.04.19-2.64-.52-.64-2.16-2.06-3.65-3.15-2.33-1.72-2.84-1.85-3.62-.9-1.44,1.73-.63,4.44,1.65,5.53,1.68.8,1.93,1.24,1.34,2.35-.66,1.23-2.33,1.4-17.07,1.8-8.99.24-19.55.67-23.46.95-12.31.87-13.91.82-13.62-.44.14-.62.37-1.63.51-2.25s.78-2.81,1.42-4.87c2.09-6.72,1.57-6.95-6.64-3-5.55,2.67-8.68,3.31-8.68,1.77,0-1.03-6.48-.31-7.91.88-.52.43-3.08,1.13-5.7,1.57-6.48,1.08-6.16,1-7.08,1.58-.45.28-2.31.75-4.12,1.04-3.21.51-8.15,3.07-8.17,4.23,0,.32-.9,1.93-2,3.59-1.97,2.97-1.98,3.12-1.53,12.6.47,9.84.96,12.02,3.3,14.86,1.23,1.49,2.25,1.67,12.14,2.06,6.25.25,11.22.79,11.81,1.27.76.63,1.02.62,1.02-.06s.87-.75,3.19-.32c3.39.62,6.72.7,59.81,1.31,18.77.22,41.21.61,49.88.88,8.66.27,22.84.47,31.5.44,8.66-.02,20.31.39,25.88.92,13.92,1.32,23.67,1.44,38.63.48h0ZM57.16,52.08c-.1-3.45.14-4.54,1.06-4.9,1.67-.64,2.5.44,2.96,3.9.34,2.53.13,3.18-1.35,4.22-.96.67-1.93,1.23-2.15,1.23-.22,0-.45-2-.52-4.44h0ZM306.85,83.78c-.52-.21-1.36-.21-1.87,0s-.09.38.94.38,1.45-.17.94-.38h0ZM313.6,83.03c-.52-.21-1.36-.21-1.87,0s-.09.38.94.38,1.45-.17.94-.38h0ZM340.89,82.55c.29-.29-.35-.53-1.43-.53s-2.16-.34-2.42-.75c-.69-1.11-3.81-.91-4.83.32-.72.86-.56,1.12.85,1.36,2.6.43,7.23.2,7.83-.4h0ZM319.6,82.28c-.52-.21-1.36-.21-1.87,0s-.09.38.94.38,1.45-.17.94-.38h0ZM175.54,37.6c-.56-.56-.65-.26-.33.98.27,1.01.61,1.35.79.79.18-.54-.03-1.34-.46-1.78h0ZM277.79,229.39c-16.24-3.04-24.44-6.81-25.52-11.72-.31-1.39-.95-2.15-1.82-2.15-1.59,0-3.35-1.88-2.72-2.89.24-.39-1.08-1.33-2.93-2.1-5.3-2.18-4.43-3.31,4.5-5.86,2.47-.7,5.88-1.93,7.56-2.72,1.68-.79,6.32-1.89,10.31-2.45,6.39-.88,7.45-.87,8.9.15,1.33.93,3.7,1.12,12.19.98,5.8-.1,13.41-.5,16.92-.89,9.54-1.06,21.44-.85,27.37.49,4.26.96,23.59,1.96,36.51,1.9.69,0,1.69.51,2.22,1.15.79.95.74,1.32-.32,2.09-.71.52-1.28,1.51-1.28,2.2,0,1.53-6.08,8.16-9.3,10.14-1.28.79-4.19,1.93-6.45,2.55-2.27.61-8.15,2.53-13.07,4.26-6.66,2.34-11.25,3.41-18,4.21-12.89,1.52-38.46,1.9-45.06.66h0ZM309.29,227.19c1.65-.16,7.31-.66,12.59-1.1,8.02-.67,11.33-1.37,20.25-4.27,14.11-4.58,16.94-5.91,19.91-9.35,3.43-3.97,2.85-5.95-1.59-5.44-1.74.2-3.67.55-4.29.78-.62.23-3.82.53-7.12.66-3.3.13-6.84.44-7.87.69-1.03.25-4.07.74-6.75,1.09s-9.77,1.52-15.75,2.61c-19.83,3.6-20.95,3.67-30.38,1.8-2.47-.49-11.35-.96-19.71-1.04l-15.21-.15,1.16,1.59c.64.87,1.48,2.33,1.87,3.24.89,2.06,3.89,3.63,8.27,4.34,1.86.3,5.74,1.38,8.63,2.39s6.77,2.14,8.62,2.5c3.08.59,20.09.38,27.38-.34h0ZM310.79,211.94c2.06-.4,8.14-1.47,13.5-2.37,5.36-.9,11.99-2.12,14.73-2.72s7.1-1.08,9.69-1.08c7.01,0,4.87-.82-3.94-1.51-4.25-.33-9.53-.99-11.72-1.46-4.17-.9-27.76-.76-41.77.24-4.13.29-10.2.66-13.5.81-11.18.5-19.63,2.13-21.07,4.06-.66.89-.94.91-1.43.12-.37-.6-.13-1.32.64-1.88,1.69-1.24,1.57-2.1-.16-1.17-.77.41-1.58.57-1.79.36s-1.43.24-2.7,1.02l-2.31,1.41,3.16,1.41c2.68,1.19,5.39,1.44,17.79,1.61,9.46.13,16.35.59,19.5,1.3,5.22,1.18,14.98,1.12,21.37-.13h0Z"/>
  </g>
</svg>