<?xml version="1.0" encoding="UTF-8"?>
<svg id="svg1" xmlns="http://www.w3.org/2000/svg" xmlns:svg="http://www.w3.org/2000/svg" xmlns:sodipodi="http://sodipodi.sourceforge.net/DTD/sodipodi-0.dtd" xmlns:inkscape="http://www.inkscape.org/namespaces/inkscape" version="1.1" viewBox="0 0 368.64 337.64">
  <!-- Generator: Adobe Illustrator 30.2.1, SVG Export Plug-In . SVG Version: 2.1.1 Build 1)  -->
  <sodipodi:namedview id="namedview1" bordercolor="#000000" borderopacity="0.25" inkscape:current-layer="layer1" inkscape:cx="395.45455" inkscape:cy="369.31818" inkscape:deskcolor="#d1d1d1" inkscape:document-units="mm" inkscape:pagecheckerboard="0" inkscape:pageopacity="0.0" inkscape:showpageshadow="2" inkscape:window-height="872" inkscape:window-maximized="0" inkscape:window-width="1440" inkscape:window-x="0" inkscape:window-y="28" inkscape:zoom="0.44" pagecolor="#ffffff"/>
  <g id="layer1" inkscape:groupmode="layer" inkscape:label="Taso 1">
    <path id="path4" d="M159.28,336.99l-6-.46-3.37-1.87c-1.86-1.03-5.3-2.52-7.66-3.32l-4.28-1.44.05-3.87.05-3.87-1.36-2.55c-.75-1.4-1.27-2.84-1.17-3.19.1-.36-.35-1.04-1.01-1.52l-1.19-.87.53-1.39.53-1.39,5.32-2.45c2.93-1.34,8.15-4.34,11.61-6.65l6.29-4.21h1.31c1.89,0,2.78-1.41,3.37-5.33l.51-3.46-1.57-3.25c-.86-1.79-1.57-3.79-1.57-4.46s-.29-1.53-.66-1.92c-.36-.39-.83-2.13-1.05-3.87l-.39-3.16,1.9-1.9,1.9-1.9,3.08-.91,3.08-.91.9-1.15.9-1.15.42-3.75c.23-2.06.59-5.94.8-8.62.35-4.53.85-9.32,1.16-10.94.07-.38.09-1.75.04-3.04l-.09-2.35-2.52-.47-2.52-.47-1.26-1.39-1.26-1.39.47-5.16c.26-2.84.81-6.07,1.23-7.18l.77-2.03,1.71-1.12,1.71-1.12.45-2.48c.25-1.36.48-7.21.52-12.98l.07-10.5.7-5.25c.38-2.89,1.06-9.3,1.5-14.25.44-4.95.98-10.6,1.2-12.55l.4-3.55-1.85-.7-1.85-.7-.48-2.56-.48-2.56.43-5.93c.24-3.26.67-7.11.96-8.56l.53-2.62-.39-3-.39-3h-6l.14-8.21.14-8.21-1.4-.98-1.4-.98-.24-2.05-.24-2.05-3.96-2c-2.18-1.1-5.27-3.18-6.88-4.63-1.6-1.45-3.87-3.24-5.04-3.99s-3.71-2.59-5.65-4.1-5.99-4.36-9-6.33c-3.01-1.97-7.33-5.14-9.6-7.05-2.27-1.91-5.31-4.3-6.75-5.3-1.44-1-4.82-3.97-7.5-6.59l-4.87-4.77-6.8-3.28-6.8-3.28-2.4-2.64-2.4-2.64-2.06-.49c-2.27-.54-5.96-2.29-7.24-3.42-.45-.4-2.5-1.85-4.56-3.23l-3.74-2.5-1.51.78c-.83.43-1.61.86-1.73.96-.12.1,1.68,3.01,4,6.46,5.12,7.61,7.31,11.81,8.81,16.86.62,2.1,2.99,7.34,5.25,11.63,2.26,4.29,4.34,8.81,4.62,10.05.28,1.24,2.68,6.54,5.34,11.78s4.83,10,4.83,10.58c0,.97,2.86,7.58,8.18,18.89,1.16,2.47,2.88,6.36,3.82,8.63.93,2.27,1.98,4.8,2.32,5.62.34.82,1.69,3.86,2.99,6.75,1.31,2.89,3.27,7.95,4.36,11.25l1.99,6,2.47,4.31,2.47,4.31,1.62,1.13c.89.62,2.13,1.13,2.76,1.13h1.15l3.19,2.91,3.19,2.91v4.58l-.75.46-.75.46-.69-1.73c-.38-.95-.89-2.35-1.13-3.1l-.43-1.37-2.22,2.22-2.22,2.22-2.09.51c-2.58.63-13.81,4.96-14.84,5.73-.41.31-3.28.92-6.38,1.35-3.09.44-8.83,1.66-12.75,2.72-3.92,1.06-9.08,2.31-11.46,2.78l-4.34.86-8.79-.93-8.79-.93-12.37.23-12.37.23-.94-.61-.94-.61-5.81-.23c-6.3-.25-8.01-.7-10.31-2.73-4.03-3.56-10.49-4.31-9.7-1.13l.5,2,2.72,1.86,2.72,1.86,3.99,1.17,3.99,1.17,2.39,2.07c3.67,3.18,5.34,3.83,13.15,5.09l7.24,1.17,11.05.32,11.05.32,9.62-1.55,9.62-1.55,5.2-.02,5.2-.02,4.88-1.75c2.68-.96,6.56-2.46,8.63-3.33,2.06-.87,6.11-2.48,9-3.57,2.89-1.1,6.97-3.14,9.08-4.53,2.11-1.39,4.21-2.53,4.69-2.53h.86v1.31s-.03,1.31-.03,1.31l-2.98,2.48-2.98,2.48-4.32,1.92c-2.37,1.06-6,2.52-8.07,3.24-2.06.73-5.61,2.16-7.87,3.2-2.27,1.03-6.03,2.42-8.37,3.09l-4.24,1.21h-9.01l-5.83,1.12-5.83,1.12-14.29.47-14.29.47-6.75-1.28c-3.71-.7-8.14-1.53-9.83-1.83l-3.08-.54-3.29-2.62-3.29-2.62-7.26-3.52-7.26-3.52-.87-2.8c-.48-1.54-1.35-3.86-1.93-5.16-1.43-3.19-1.36-3.64.79-4.62l1.85-.84,5.51,1.41,5.51,1.41,4.5,2.36,4.5,2.36,7.45.74c6.67.67,33.45,1.62,48.32,1.72l5.62.04,7.5-2.36,7.5-2.36,4.54-.41,4.54-.41,4.46-1.96c2.45-1.08,5.64-2.57,7.09-3.31s3.59-1.57,4.78-1.85c2.18-.51,4.44-2.21,3.8-2.85-.19-.19-3.13.48-6.53,1.49-3.4,1.01-7.36,2.08-8.8,2.38-3.2.65-9.43,2.83-12.06,4.22l-1.94,1.02-14.94.47c-8.22.26-15.61.46-16.44.44-9.86-.24-25.48-.65-28.17-.73l-3.42-.11-2.45-2.03c-2.94-2.43-2.36-2.33-15.7-2.8l-10.73-.37-2.26-1.9c-1.24-1.05-2.55-1.9-2.89-1.9s-1.02-1.17-1.5-2.61l-.86-2.61.48-.77c.26-.42,1.43-1.26,2.59-1.86l2.11-1.09,1.66-3.21c.91-1.77,2.33-3.94,3.14-4.82.82-.88,1.55-2.06,1.64-2.62.23-1.54,3.63-9.92,4.35-10.73.35-.39.63-1.47.63-2.39v-1.68l.75-.46c.41-.25.75-1.01.75-1.67s.45-1.74,1-2.39c1.16-1.38,2.75-6.61,2.75-9.05,0-1.8,1.6-7.13,3.87-12.9.76-1.93,1.38-4.38,1.38-5.45s.33-2.52.73-3.24c1.03-1.83,3.77-11.3,3.77-13,0-.78.99-3.53,2.2-6.11,1.21-2.58,3.04-6.94,4.07-9.69l1.87-5-.42-.42-.42-.42.88-1.06c.49-.59.81-1.35.72-1.71s.45-1.99,1.21-3.64,1.49-3.67,1.62-4.5c.42-2.52,1.87-7.37,2.98-9.96.58-1.35,1.05-2.92,1.05-3.47s.88-2.99,1.96-5.41l1.96-4.41.26-3.64.26-3.64,1.2-1.84c.66-1.01,2.27-2.48,3.57-3.27l2.36-1.44,4.91.3c2.7.16,5.1.32,5.34.35.24.03,2.6,1.94,5.25,4.24,2.65,2.3,5.73,4.67,6.84,5.25l2.02,1.06,3.46,4.25,3.46,4.25,3.46,2.32c1.9,1.28,5.2,3.4,7.33,4.72,2.13,1.32,5.6,3.94,7.69,5.83l3.82,3.43,2.12-.14c5.34-.35,17.82,5.6,27.25,12.98,1.44,1.13,5.66,3.47,9.37,5.21l6.75,3.15,4.24,4.4,4.24,4.4,1.92-.88,1.92-.88,1.28,1.05,1.28,1.05-.47-1.81-.47-1.81,1.94-3.32,1.94-3.32,2.44-1.16,2.44-1.16,1.97.5c1.09.27,2.64,1.16,3.45,1.98l1.48,1.48v4.5h8.45l-.45,2.81c-.25,1.55-.97,5.34-1.6,8.44s-1.15,6.16-1.15,6.82v1.19s4.18.94,4.18.94l4.18.94,11.01,5.66c13.32,6.85,14.54,7.66,19.06,12.64l3.55,3.91,7.32,5.22c4.03,2.87,8.16,5.48,9.2,5.8,2.71.83,9.44,4.63,14.52,8.19,2.42,1.69,5.45,3.72,6.75,4.51,1.3.79,4.05,2.61,6.11,4.05l3.75,2.61-1.31-1.48c-.72-.82-1.31-1.72-1.31-2.01s-1.01-1.52-2.25-2.73l-2.25-2.2v-1.16c0-1.23-.07-1.41-3.41-8.08l-2.16-4.31h-2.58l-.48-1.5c-.26-.83-.79-1.5-1.18-1.5h-.7v-2.24l-1.5-.94-1.5-.94v-1.2c0-.66-1.07-3.34-2.38-5.96l-2.38-4.76-.14-1.92c-.08-1.06-.41-3.94-.73-6.41l-.59-4.49-2.14-2-2.14-2v-1.42c0-.78-.28-1.74-.62-2.14-.87-1-5.33-12.66-5.87-15.36-.25-1.23-.66-2.23-.92-2.23s-.95-1.1-1.53-2.44-2.35-4.4-3.93-6.8c-1.58-2.4-2.87-4.77-2.87-5.27s-.46-1.57-1.03-2.38c-1.21-1.74-2.17-5.59-2.38-9.53l-.15-2.8-2.59-3.2c-1.42-1.76-2.79-3.74-3.03-4.39l-.44-1.2-3.35-1.57c-6.27-2.95-7.15-4.82-3.07-6.52l2.72-1.14h4.6s4.6-.02,4.6-.02l4.5-1.09c2.47-.6,6.08-1.1,8-1.11l3.5-.03,4.62,1.18,4.62,1.18,4.25-.4,4.25-.4,7.5.91,7.5.91,6-.48c3.3-.26,11.91-.55,19.12-.63l13.12-.16,2.25.91c1.24.5,4.44,1.18,7.12,1.51,5.36.66,13.4,2.74,14.71,3.8,1.24,1,9.5,3.61,12.17,3.84l2.32.2.12-.74.12-.74-2.16-1.33c-3.2-1.96-6.84-3.57-8.08-3.57-.6,0-2.09-.84-3.31-1.87l-2.22-1.87-5.52-1.87c-3.04-1.03-6.17-1.88-6.96-1.88h-1.44s-1.34-1.22-1.34-1.22l-1.34-1.21-5.85-.26c-3.22-.14-9.22-.45-13.35-.67l-7.5-.41-4.5-1.11-4.5-1.11-5.62-.04c-3.09-.02-9.67-.5-14.62-1.05l-8.99-1.01-4.53.64c-2.49.35-7.12,1.51-10.29,2.58-7.12,2.39-14.97,4.09-18.98,4.11h-3.04s-.71.7-.71.7c-.39.38-2.32.92-4.28,1.21l-3.56.52v-2.16l1.88-1.76,1.88-1.76v-2.91l2.62-3.57,2.62-3.57,2.07-.81c10.97-4.3,16.12-6.13,17.24-6.13.73,0,3.02-.53,5.08-1.16,2.06-.64,5.61-1.66,7.87-2.28l4.13-1.12,8.25-.75c4.54-.41,11.63-1.04,15.75-1.38,4.13-.35,9.34-1.05,11.59-1.55l4.09-.92,4.72.44c2.6.24,5.35.78,6.13,1.19s3.06.9,5.08,1.09c21.69,1.97,46.03,12.88,46.03,20.63,0,.37,1.52,2.74,3.38,5.26,4.08,5.55,4.07,5.33.41,5.33h-2.96l-1.91-2.51c-1.05-1.38-1.91-2.83-1.91-3.23,0-1.07-8.16-10.76-9.05-10.76-.42,0-2.63-1.19-4.91-2.65l-4.14-2.65-4.64-1.42c-2.55-.78-8.18-1.97-12.52-2.65-6.6-1.03-12.03-1.96-17.04-2.92-.5-.1-1.15-.41-1.44-.7-.76-.76-6.13-.6-10.02.3-1.86.43-7.26,1.1-12,1.5s-12.17,1.02-16.5,1.4l-7.88.68-4.5,1.6c-2.47.88-6.36,1.95-8.62,2.38-2.27.43-5.62,1.46-7.45,2.29s-4.91,1.98-6.85,2.56l-3.52,1.05-1,1.21c-.55.67-1.4,2.36-1.88,3.76l-.88,2.55.73.45.73.45,4.62-.87c11.21-2.11,13.01-2.56,15.5-3.82l2.63-1.33,6.84-.83,6.84-.83,7.03.76c3.87.42,11.42,1.09,16.78,1.5,5.36.4,10.84,1.05,12.16,1.43,1.33.38,6.73.93,12,1.21,10.29.55,10.7.62,22.93,4.02l8.09,2.25,4.59,2.29c2.52,1.26,5.05,2.29,5.62,2.29,3.94,0,11.24,5.36,11.92,8.74l.44,2.22-1.01.83c-.55.46-2.16.95-3.57,1.08l-2.57.25-1.32,2.25c-3.42,5.81-10.91,19.81-12.04,22.5-1.84,4.38-16.61,32.87-21.14,40.76-1.5,2.62-2.73,4.91-2.73,5.1,0,.51-2.76,6.77-5.25,11.89-4.03,8.31-7.97,20.17-12.9,38.9l-2.35,8.9,2.83,2.38,2.83,2.38-.28,1.44-.28,1.44-2.47.5-2.47.5-1-1-1-1-1.95.52c-1.07.29-3.67.4-5.78.26l-3.83-.26-1.49-3.48-1.49-3.48.32-1.69.32-1.69h-2.67l-1.53-2.48-1.53-2.48-3.73-.96-3.73-.96-2.4-2.94-2.4-2.94h-1.4c-.77,0-1.4-.27-1.4-.59s-.72-.64-1.61-.71l-1.61-.12-2.7-2.14c-2.41-1.9-5.53-3.96-10.19-6.7-3.05-1.79-9.78-5.06-10.52-5.1-.42-.02-2.78-1.21-5.25-2.65-2.47-1.43-6.19-3.45-8.27-4.49-3.8-1.89-5.25-2.85-11.06-7.31l-3.16-2.43h-1.31s-1.31-.01-1.31-.01v-.68c0-.38-3.09-2.76-6.86-5.31l-6.86-4.63-.46.7c-.25.39-1.76,1.17-3.36,1.74l-2.91,1.04.43,5.63.43,5.63,1.92,3.69,1.92,3.69v5.52l-1.05,2.18-1.05,2.18-.59,18c-.72,21.97-.71,21.79-1.39,33.37l-.55,9.37,1.14,2.19,1.14,2.19-.4,2.02-.4,2.02,2.34.47,2.34.47.44,1.14.44,1.14-1.58,3.36c-.87,1.85-1.58,3.71-1.58,4.13,0,.85-1.6,3.91-2.36,4.5-.26.21-.65,2.06-.86,4.13-.21,2.06-.76,7.46-1.21,12l-.82,8.25.46,3.94.46,3.94h3.58v.66c0,.9-2.07,2.55-4.42,3.52l-1.95.81,5.63-.06,5.62-.06.22,1.9.22,1.9-2.13,3.18-2.13,3.18-3.34,1.79-3.34,1.79v13.82l4.88,2.5,4.87,2.5,7.13,1.61,7.13,1.61,1.31,1.17,1.31,1.17v2.61l1.13.43,1.12.43v10.42l-2.44,1.46c-1.34.81-3.63,1.64-5.08,1.86-1.46.22-6.35,1.99-10.88,3.93l-8.23,3.53-5.62,1.02-5.63,1.02-4.12-.09c-2.27-.05-6.82-.3-10.13-.55h0ZM183.03,331.5c2.33-.66,7.06-2.45,10.5-3.98,3.44-1.53,7.77-3.18,9.63-3.67l3.37-.89.04-2.06.04-2.06-1.09-.61-1.09-.61-4.44,1.04c-2.44.57-5.18,1.44-6.07,1.93l-1.63.89-15.37.26c-8.46.14-18.75.33-22.88.42l-7.5.16-2.44-.54-2.44-.54v4.21l2.44.82c1.34.45,4.47,1.67,6.96,2.71l4.52,1.9,5.98,1.01,5.98,1.01,5.62-.09,5.63-.09,4.25-1.2ZM199.83,315.5c1.9-.46,5.83-2.56,4.79-2.56-.2,0-2.21-.68-4.47-1.5l-4.1-1.5h-4.95l-3.64-1.84-3.64-1.84-.5-2-.5-2-3.01.4-3.01.4-.41-1.07-.41-1.07.75-3.17.75-3.17-.36-2.66-.36-2.66-4.62.06-4.62.06-1.62,4.72-1.62,4.72-1.38,1.04-1.38,1.04-1.88.04-1.88.04-7.87,5.22c-4.33,2.87-8.52,5.67-9.31,6.23l-1.44,1.01,2.69,2.05,2.69,2.05,6.25.09c3.44.05,13-.17,21.24-.49l15-.57,2.53-1.06c1.39-.58,3-1.06,3.56-1.06h1.03v.88c0,.48-.55,1.49-1.22,2.23l-1.22,1.35,2.96-1.43c1.63-.79,3.95-1.67,5.16-1.97h0ZM173.93,284.79l1.27-1.15,3.93-.47,3.93-.47,2.19-1.84c1.2-1.01,2.54-2.51,2.98-3.32l.79-1.47-7.88.53-7.88.53-1.28-.49-1.28-.49,1.34-1.48,1.34-1.48h5.61v-1.69c0-.93.24-5.06.53-9.19s.48-10.27.41-13.65l-.13-6.15.76-1.42.76-1.42-.85-.85-.85-.85,2.29-3.2c1.26-1.76,2.5-3.96,2.76-4.89.26-.93.68-2.41.93-3.29l.46-1.6-2.71.51-2.71.51v-.91c0-.5.56-1.53,1.25-2.3l1.25-1.38-1.26-.93-1.26-.93-.06-4.5c-.04-2.47.11-8.15.33-12.61l.4-8.11.99-1.2.99-1.2-.91-.31-.91-.31.34-7.26c.19-3.99.59-10.8.89-15.14s.44-10.24.3-13.13l-.25-5.25-.84-1.03-.84-1.03,2.09-1.66,2.09-1.66-.54-2.19c-.3-1.2-1.08-2.93-1.73-3.85l-1.19-1.66-2.06-.02-2.06-.02v-.85c0-.47.49-1.23,1.08-1.69l1.08-.83.52-5.44.52-5.44h-3.92l-.38,1.69c-.21.93-.73,5.79-1.17,10.8l-.79,9.12.49,1.97.49,1.97,1.38.74,1.38.74.49,2.61.49,2.61-1.21,8.86c-.66,4.87-1.22,10.7-1.23,12.95-.01,2.25-.34,5.48-.74,7.19l-.72,3.11-.31,14.51-.31,14.51-2.85,2.46-2.85,2.46-.32,4.41-.32,4.41,1.4.4c.77.22,2.52.62,3.89.9l2.49.5.4,1.05.4,1.05-.83,8.44c-.45,4.64-1.38,11.83-2.05,15.98l-1.23,7.54-1.39,1.72-1.39,1.72-3.57,1.28-3.57,1.28-.26,1.81-.26,1.81.85,2.85.85,2.85,1.85-.47,1.85-.47,1.12.93c.61.51,1.12,1.21,1.12,1.56v.63l-1.05-.4-1.05-.4-.5.8-.5.8.46.75.46.75h4.67l1.27-1.15ZM84.84,182.09c1.13-.12,4.06-.26,6.51-.31l4.45-.09-.74-2.44c-1.55-5.07-2.89-10.36-2.76-10.89.35-1.42-1.29-8.09-3.93-15.92-1.6-4.74-3.57-11.33-4.38-14.63-2.2-8.94-3.97-15.56-4.62-17.25-.32-.82-.98-4.03-1.47-7.13l-.9-5.62-1.54-2.92-1.54-2.92-.37-5.7c-.2-3.14-.41-6.89-.46-8.33-.05-1.44-.64-4.14-1.31-6-2.93-8.1-5.3-15.5-5.46-17.01-.09-.9-.6-2.16-1.13-2.81l-.97-1.17-.18-2.27c-.1-1.25-.4-2.49-.66-2.76s-.49-1.19-.5-2.05c-.01-2.05-1.65-6.7-2.89-8.19l-.97-1.17.22-2.1c.26-2.46-.51-3.97-2-3.97h-1.06l-1.62,3.56c-1.71,3.76-9.67,27.31-9.67,28.63,0,.42-.84,2.61-1.87,4.87-1.03,2.25-1.88,4.5-1.88,4.98s-.64,2.11-1.42,3.61-2.12,5.09-2.97,7.98-2.62,8.79-3.93,13.13-3.36,11.25-4.56,15.37c-1.2,4.12-3.91,12.89-6.03,19.48l-3.85,11.98-5.45,10.89-5.45,10.89,1.39,1.42,1.39,1.42,11.5.9,11.5.9,3.31,1.69,3.31,1.69,11.32.61,11.32.61,10.13-.38c5.57-.21,11.05-.48,12.19-.59h0ZM290.91,180.94c-.59-.37-1.25-.5-1.46-.29-.21.21.11.68.71,1.04.59.37,1.25.5,1.46.29s-.11-.68-.71-1.04ZM105.47,179.09l3.94-1.84,4.62-.84c2.54-.46,5.9-1.35,7.47-1.98l2.85-1.14-1.66-2.37c-.91-1.3-1.86-2.54-2.11-2.74-.25-.21-.86-1.64-1.37-3.18-.5-1.54-1.23-3-1.61-3.23-.38-.24-.7-1.06-.7-1.82s-.49-2.35-1.08-3.52c-.59-1.17-1.83-4.15-2.76-6.62-2.01-5.41-6.02-13.88-8.53-18l-1.82-3-.03-1.69-.03-1.69h-.67c-.37,0-1.4-1.43-2.3-3.19s-2.27-4.37-3.05-5.81-1.43-3.39-1.45-4.32c-.02-.93-.37-2.37-.79-3.19s-1.09-2.16-1.5-2.98-.75-1.81-.75-2.2-.39-1.66-.87-2.82c-.48-1.16-.93-2.45-1-2.86s-.59-1.83-1.15-3.14l-1.02-2.39-1.72-.92-1.72-.92-.32-1.19c-.18-.66-.72-3.44-1.21-6.19l-.89-4.99-1.38-.36-1.38-.36.4-1.53.4-1.53-2.31-1.2-2.31-1.2-.49-2.05c-.27-1.13-1-2.65-1.64-3.37l-1.15-1.33.08-3.67.08-3.67-1.08-.41-1.08-.41v-3.74l-1.56-.83-1.56-.83.4-1.04.4-1.04-.72-.44-.72-.44v5.4l1.48,2.89c.81,1.59,2.13,5.21,2.93,8.03.8,2.83,2,6.42,2.68,7.99l1.22,2.85,1.5,10.82c.82,5.95,2.2,13.44,3.06,16.65.86,3.21,1.99,8.57,2.53,11.93l.97,6.1,1.51,3.42c1.35,3.04,10.04,33.96,12.58,44.75.53,2.27,1.36,5.73,1.82,7.69l.85,3.56h.88c.48-.01,2.65-.84,4.82-1.85h0ZM293.91,179.81c0-.21-.17-.38-.38-.38s-.38.17-.38.38.17.38.38.38.38-.17.38-.38ZM290.16,176.86c0-.18-.39-.57-.87-.87l-.87-.54.54.87c.53.86,1.2,1.16,1.2.54h0ZM292.91,171.44l-.5-.5-.5.5-.5.5h2l-.5-.5ZM280.33,166.03l-.75-2.15-4.18-3.1c-2.3-1.7-4.52-3.1-4.93-3.1s-1.81-1.1-3.09-2.44c-1.29-1.34-3.18-2.86-4.21-3.37-1.03-.51-2.47-1.27-3.19-1.68-3-1.72-4.09-2.3-7.08-3.74-1.73-.83-3.35-1.85-3.61-2.26l-.46-.75h-3.36l-.9-.9c-2.33-2.33-.54.57,2.15,3.49l3.05,3.31,3.14,1.62c1.73.89,3.98,2.38,5.01,3.3,1.03.93,2.94,2.42,4.24,3.31l2.37,1.62h4.53l1.84,2.35,1.84,2.35,4.03,2.04c2.22,1.12,4.1,2.09,4.18,2.15.08.06-.19-.86-.6-2.04h0ZM294.03,165.38c.46-1.13.78-3.04.71-4.23l-.12-2.17,1.08-1.21,1.08-1.21,1.16-5.25c1.28-5.77,2.7-11.38,3.33-13.13.22-.62.82-3.15,1.32-5.62,1.53-7.53,3.46-14.96,4.09-15.75.33-.41.84-2.1,1.13-3.75.3-1.65.89-3.44,1.32-3.98.81-1.02,1.1-2.43,3.46-16.65,1.28-7.73,2.55-12.44,3.93-14.63.26-.41,1.71-4.46,3.23-9,1.51-4.54,4.07-10.95,5.68-14.25l2.93-6-.44-4.2-.44-4.2-5.72-1.42-5.72-1.42-14.63.27c-15.53.29-21.57.26-39.11-.16l-10.99-.26-2.33-.96-2.33-.96-3.93.47c-2.16.26-6.93.89-10.58,1.41l-6.65.94,2.52.93,2.52.93,2.81,4.82,2.81,4.82v1.59c0,.87.47,2.5,1.04,3.61.57,1.11,1.47,4.05,2.01,6.53l.97,4.5,1.98,3c1.09,1.65,3.18,5.19,4.64,7.87l2.65,4.88.83,3.41c1.01,4.17,5.66,14.5,7.67,17.05.81,1.03,1.96,3.43,2.55,5.33s1.76,5.21,2.6,7.34l1.53,3.88-.8.27-.8.27,2.41,5.74,2.41,5.74,4.13,4.3c5.05,5.26,7.9,9.65,14.24,21.93,2.69,5.21,5.04,9.73,5.22,10.04.67,1.15,1.8.5,2.61-1.5h0ZM299.91,161.81c0-.21-.17-.38-.38-.38s-.38.17-.38.38.17.38.38.38.38-.17.38-.38ZM300.66,158.81c0-.21-.17-.38-.38-.38s-.38.17-.38.38.17.38.38.38.38-.17.38-.38ZM301.16,154.94l-.5-.5v2l.5-.5.5-.5-.5-.5ZM301.92,152.3l-.39-.98-.06,1.44-.06,1.44.45-.45c.25-.25.28-.9.06-1.44ZM302.66,149.69l-.5-.5v2l.5-.5.5-.5-.5-.5ZM304.34,144.56l.04-.75-.73,1.12c-.4.62-.71,1.63-.69,2.25l.04,1.13.64-1.5c.35-.82.66-1.84.69-2.25h0ZM308.12,135.44c2.65-7.16,3.24-8.53,7.11-16.38,2.03-4.12,4.36-8.25,5.17-9.16,1.66-1.87,1.78-2.07,6.7-11.49,1.96-3.75,3.56-7.42,3.56-8.17v-1.35l1.5-1.91c.83-1.05,1.5-2.31,1.5-2.8s.66-1.81,1.46-2.94,2.14-3.71,2.96-5.74,4.2-9.09,7.5-15.69l6-12-1.27-.47c-.7-.26-3.97-1.53-7.27-2.82s-7.08-2.66-8.4-3.03l-2.4-.68-.49,3.5-.49,3.5-3.77,10.13c-8.16,21.92-10.05,28.09-11.5,37.5-.99,6.43-3.97,18.13-7.74,30.37-.76,2.47-1.79,6.69-2.28,9.37-.49,2.68-1.07,5.72-1.28,6.75l-.39,1.88,1.11-2c.61-1.1,1.84-3.97,2.73-6.37h0ZM237.66,142.37c0-.18-.43-.77-.95-1.31-.52-.55-1.57-1.96-2.33-3.15l-1.38-2.16,1.02-.64,1.02-.64h-.88c-.48-.02-2-1.27-3.37-2.8-4.33-4.81-7.67-7.8-10-8.95-1.24-.61-4.11-2.1-6.37-3.31-2.27-1.21-4.69-2.2-5.38-2.2-.69,0-2.21-.77-3.38-1.7-2.86-2.28-6.05-3.99-9.85-5.3l-3.17-1.09-.26.48c-.14.26-.48,1.37-.73,2.45l-.47,1.97,2.13.88c2.31.96,7.03,4.14,18.58,12.54l7.39,5.37,6,3.11c3.3,1.71,7.35,3.93,9,4.93,3.2,1.94,3.38,2.02,3.38,1.52h0ZM236.16,135.56c0-.21-.17-.38-.38-.38s-.38.17-.38.38.17.38.38.38.38-.17.38-.38ZM183.74,117.89l1.24-.66.32-2.15.32-2.15-1.74-2.75c-.96-1.51-2.03-2.75-2.39-2.75s-1.21-.85-1.9-1.9l-1.24-1.9,1.1-1.1c1.62-1.62,2.32-1.39,4.53,1.52l2,2.62h2.17v-2.06c0-1.14.67-4.43,1.5-7.31.82-2.88,1.5-5.5,1.5-5.81v-.56h-5.73l-3.53,1.2-3.53,1.2-2.61-.31-2.61-.31.09,2.29c.05,1.26-.27,4.14-.71,6.41-.75,3.85-1.19,12.97-.78,15.94l.18,1.31h.85c.47,0,1.2-.35,1.63-.78l.78-.78,1.01,1.21,1.01,1.21,2.66-.5c1.46-.27,3.22-.8,3.9-1.16h0ZM261.66,115.31c0-.21-.17-.38-.38-.38s-.38.17-.38.38.17.38.38.38.38-.17.38-.38ZM166.25,95.74l-.22-3.45-2.52-2.6-2.52-2.6-1.02.39-1.02.39-.58-.95c-.84-1.36-5.33-3.9-8.83-4.99-1.65-.51-3.58-1.44-4.28-2.06-.71-.62-3.02-1.93-5.15-2.91s-5.09-2.76-6.59-3.94c-1.5-1.18-4.08-2.87-5.73-3.75s-3.51-1.88-4.12-2.22-2.3-1.21-3.74-1.93l-2.61-1.32,1.49,1.66c2.2,2.45,15.25,12.01,28.28,20.71,2.77,1.85,6.7,4.86,8.73,6.68l3.69,3.32,3.27,1.45c1.8.8,3.37,1.47,3.49,1.5.12.03.12-1.5,0-3.4h0ZM182.54,87.92c.2-.32.15-1.65-.11-2.95l-.47-2.36-1.13.22c-.62.12-1.47.76-1.88,1.42l-.75,1.2.48,1.92.48,1.92,1.51-.4c.83-.22,1.68-.66,1.87-.98h0ZM66.66,47.81c0-.21-.17-.38-.38-.38s-.38.17-.38.38.17.38.38.38.38-.17.38-.38ZM81.66,39.56c0-.21-.17-.38-.38-.38s-.38.17-.38.38.17.38.38.38.38-.17.38-.38ZM78.66,37.69c-2.45-1.92-3.7-1.94-1.4-.02.97.81,2.11,1.48,2.52,1.48.41,0-.09-.65-1.12-1.46h0ZM60.66,33.81l-.38-.5,1.71-1.82,1.71-1.82-1.11-.92-1.11-.92-1.72.53c-.95.29-2.31,1.04-3.04,1.68l-1.31,1.15v1.26c0,.69.24,1.5.54,1.79l.54.54,2.28-.22,2.28-.22-.38-.5ZM72.66,33.61c0-.18-.39-.57-.87-.87l-.87-.54.54.87c.53.86,1.2,1.16,1.2.54Z"/>
  </g>
</svg>