<?xml version="1.0" encoding="UTF-8"?>
<svg id="Layer_1" xmlns="http://www.w3.org/2000/svg" version="1.1" viewBox="0 0 676.35 368.36">
  <!-- Generator: Adobe Illustrator 30.2.1, SVG Export Plug-In . SVG Version: 2.1.1 Build 1)  -->
  <g id="smJZGB.tif">
    <g>
      <g>
        <path d="M627.66,288.61l-1.81-1.81-1.25-1.2-1.61-1.55c-.55-.53-1.1-1.98-1.6-2.69-.42-.59-.76-1.08-1.1-1.63l-1.57-2.6c-.36-.6-.8-1.41-1.16-1.93l-1.93-2.83c-.25-.27-1.03-.86-1.24-1.17l-1.59-2.45-1.1-.63-1.46-2.01c-.94-1.3-1.99-2.78-2.79-4.07-.3-.47-.46-1.76-.87-2.13l-2.74-2.41c-3.32-2.93-.64-.4-3.5-4.64-1-.79-1.54-1.26-1.72-2.55-.13-.92-1.26-1.56-1.76-2.29-.72-1.06-1.38-2.28-1.99-3.42l-1.09-2.03c-.4-.75-.76-1.87-1.21-2.53-.62-.91-1.1-1.65-1.66-2.57-1.12-1.83-1.6-.88-3.2-3.6-.49-.83-.79-1.74-1.2-2.61-.83-1.77-2.07-4.05-3.11-5.76-.34-.56-1-1.61-.97-2.18l.12-2.48c.02-.49.29-1.42.39-1.95l.44-2.48c.07-.38-.09-1.28-.13-1.61l.54-1.1c.04-.62.11-1.36.22-1.89l.69-3.28c.13-.61.12-1.71.21-2.46.48-4.01-.6-1.81-.04-5.46l.42-2.76c.56-3.65-.77-2.87.04-8.6.99-7.08-.56-1.62.17-7.45l.34-2.71.38-3.15c.29-2.42,0-4.47.44-6.85l.78-4.33c.22-1.23.06-2.48.2-3.71l.51-4.3c.13-1.14.06-2.18.15-3.32l.23-3.01.26-2.76c.04-.4.26-1.19.34-1.52l.07-4.53.09-2.91c.16-4.96.77-2.14.29-6.87-.09-.89.7-2.45.78-3.38l.23-2.68.32-3.8.34-3.76.89-5.84c.15-.99.05-2.22.35-3.1,2.22-6.5.28-2.11.82-6.98l.36-3.23.49-3.13.37-3.06c.43-3.57.7-2.21,1.03-5.79l.19-2.04.37-4.52.25-3.05c.08-1.04.28-2.21.46-3.25l.42-2.41.62-3.42c.22-1.2.42-2.34.58-3.54l.58-4.47c.32-2.5-.04-5.02.14-8.07.03-.56.33-1.38.01-1.63l-.92-.7-.82.16-.62-.75c.82-2.21,2.33-1.68,2.28-3.13l-.12-3.27c-.02-.41.1-1.23.22-1.86s1.76-.64,2.36-.48l.66.19c.51.14,1.22.4,1.58.55-.02-.01-.17,1.2.11,1.03l.5-.31,1.31-1.03c1.55-.35,2.81-1.62,3.86-2.71l2.19-2.29c.37-.38,1.36-.92,1.89-1.14l2.72-1.14c.67-.28,1.49-1.37,2.07-1.93l2.23-2.13,1.41-.82,2.77-2.6c2.25-2.12,2.46-4,6.05-6.96l1.71-1.41c.54-.45,1.15-.9,1.81-1.25l2.73-1.46c.37-.2,1.43-.22,1.76-.48.63-.5,1.4-1.45,1.96-1.81l2.92-1.9,1.47-.95c.86-.56,1.91-1.12,2.62-1.79l2.33-2.19,3.16-2.92c2.18-1.01,1.03-1.61,3.99-3,.67-.32,2.43-.25,2.93.28.65.69,1.43,1.62,2.17,1.92l2.02.8c.29.12.94.65,1.2.87l3.96.75,2.68.51c.96.18,2.2-.1,3.35.41.42.19.77,1.25.67,1.74l-.68,3.51c-.19.98-.33,2.12-.36,3.12l-.07,2.58c-.11,3.83-.66,2.2-1.4,6.37,1.07,3.09.23,2.74.06,6.85l-.07,1.66c-.03.64-.45,1.39-1.01,1.94-.01.21.02.95-.02,1.23l-.56,4.37c-.24,1.85.44,2.09-.44,5.01-.2.67-.75-.04-.49,1.02.28,1.19.21,2.61.07,3.97l-.37,3.46-.25,2.11c-.34,2.8-.32,1.06-.59,3.75-.16,1.63-.37,3.37-.8,4.96-.23.86-.63,1.68-.57,2.53.13,1.8.07,3.35-.21,5.12-.54,3.36-1.49,1.34-.88,4.92s-.34,3.54-.51,5.62l-.26,3.17-.24,3.3-.13,2.15c-.24,3.92.57,2.88-.1,4.44-.07.17-.18.67-.17.89l.08,1.83c.04,1.05.04,2.11-.12,3.14l-.37,2.36-.35,3.1c-.1.9-.19,1.87-.24,2.74l-.11,2.01-.09,1.75-.11,2.71c-.04.92.28,2.36-.05,3.21-.21.54-.84,1.43-.85,1.93l-.03,5.4-.27,1.47-.11,5.08c-.01.62-.3,1.67-.37,2.35-.15,1.29-.18,2.5-.26,3.82l-.22,3.81c-.17,2.94-.13,5.86-.05,8.83.02.69.08,1.46.02,2.06l-.21,2c-.1.97-.17,1.93-.16,2.87l.02,2.67-.55,2.75-.07,3.48c-.09,4.34.56,4.65-.08,8.51-.75,4.5-.2,1.02-.11,5.72l.06,3.18.16,4.67.03,2.28c0,.64-.4,1.88-.46,2.62l-.3,3.74c-.2,2.5-.54,2.99-.39,3.54.88,3.23.36,3.03.3,7.5l-.05,3.74-.37,2.51c-.26,1.75.1,3.48-.09,5.22-.38,3.53.21,6.77-.08,8.61l-.61,4-.29,4.04-.18,3.64c-.06,1.28-.16,2.54-.34,3.78l-.38,2.72-.31,2.09c-.34,2.3.41.79-.68,3.14l.14,1.58c-1.51,4.11.1,2.34-.96,6.35-.2.76.51,2.38.36,3.24l-.98,5.88c-.17,1.04.22,4.25.77,5.27l-.51,1.29c0,.8.14,2.13.01,2.88l-.47,2.74c-.46,2.71.13.52,0,3.4-.02.53-.03,1.1,0,1.63l.11,3.3.1,6.82,1.09,1.54.26,2.46c.4,3.83.51.94,1.59,5.14.05.21-.23.78-.39.95-2.1,2.21-.95,2.12-5.32,3.87l-2.9,1.16-.67,1.63-2.33-.3c-1.49-.19-.22,0-2.75-1.96-.87-.67-1.85-1.45-2.41-2.29l-1.27-1.88-2.03-2.82c-1.18-1.64-1.56-1.55-3.49-4.06-.32-.42-.64-1.47-.9-2.14-1.06-2.77-.93-.14-3.03-4.5-.93-1.94-.25.03-1.49-1.65-.67-.92-1.59-2.09-2.53-3.03ZM628.78,284.5l1.78,2.18c1.86,2.27.22-.09,2.12,1.83,2.45,2.46,1.24,1.99,3.9,5.35,2.48,3.14.49,1.2,2.29,3.48l1.25,1.58c.39.49.93,1.33,1.28,1.69l1.58,1.63c.89.92,2.2,2.03,3.2,2.83l.72-.84c.14-.16.22-.74.2-.96l-.13-2.32-.26-3.77c-.23-3.34-.94-4.5-.71-6.02l.38-2.45c-.62-1.67-.8-3.37-.85-5.2l-.08-3.38v-2.36s.05-3.49.05-3.49l.05-3.09.29-6.83.21-3.46c.17-2.8.55-1.02.38-2.31l-.31-2.34c-.09-.7-.05-1.36-.05-2.02v-2.27s.29-6.74.29-6.74c.04-.83.13-1.68.1-2.46l-.11-2.42-.21-3.48c-.01-.22.35-.91.32-1.13l-.31-2.1c-.11-.76-.03-1.68-.05-2.44l-.09-3c-.12-4.16,2.26-2.43.6-4.93-.54-.81-.2-2.08-.11-3.12.14-1.5.11-3.04.04-4.52l-.1-2.45c-.03-.75-.03-1.48-.02-2.23l.04-1.96.05-2.18.15-6.63c.02-.34.58-1.3.58-1.64l.17-7.63.24-6.63.15-3.36-.39-2.14c.95-4.87-1.09-4.34-.05-6.8.25-.59-.04-1.76.04-2.33l.73-4.9c.06-.44.26-1.27.26-1.65l.02-2.45-.02-5.05c0-1.18,0-2.26.14-3.55.3-2.82,1.1-1.66.46-2.74-1.15-1.95-.01-.33-.27-3.7-.08-1.03-.19-2.28-.1-3.16l.45-4.32.13-2.39c.04-.69.86-2.01.84-2.68l-.11-3.51c-.02-.67,0-1.31.08-1.91l.44-3.16.34-2.78c.12-1.01.26-2.09.23-3.09l-.09-3.03-.08-4.22c-.01-.58.17-1.6.24-2.3l.35-3.48c.18-1.83.75-3.77.75-5.52v-3.73s-.01-2.78-.01-2.78c0-1.25-.07-2.51.76-3.44.16-.18.48-.7.39-.85l-.81-1.28c.14-.94.45-2.27.5-3.24l.22-3.81.13-2.41c.23-4.32-.21-3.01-.08-4.99l.21-3.15c.05-.72.1-1.7.08-2.41l-.06-3.47c-.04-2.41.49-3.33.52-4.44l.12-4.34c.13-.24.37-.96.43-1.12,0-.8.07-1.59.19-2.38l.27-1.67c.11-.68.57-5.08.59-5.8.12-4.57.38-.1.37-4.13v-2.54c-.01-2.44.25-1.72.27-2.9l.03-1.73.04-2.13.02-4.06c0-.73-.08-1.73-.04-2.41l.16-3.15c.08-1.6,1.16-.96.84-2.26l-.68-2.73c-.46-1.83-.85-3.21.17-5l.03-3.02c0-.41-.09-.97-.18-1.64l-.74-.1-4.61,3.14-1.77,1.53-3.22,2.02c-2.11,1.32-2.14.8-4.62,2.51l-2.48,1.71c-2.31,1.59-.96-.16-3.81,2.28l-3.51,3.01c-2.92,2.51-.75,1.47-3.74,4.13-.53.47-1.18.88-1.84,1.29-.53,1.69-2.16,3.24-3.61,4.49l-2.05,1.78-1.89,1.59c-1.15.96-4.01,1.06-5.72,3.1-3.1,3.71-4.25,2.84-8.49,7.28l-1.54,1.61c-.52.54-.15,2.28-.16,3.04l-.04,3.45-.04,3.1c-.02,1.58-.17,3.06-.58,4.57-1.1,4.04.56,2.4-.52,5.63-1.53,4.57.2,3.77-1.23,7.72-.36.99-.5,2.47-.58,3.6l-.22,2.76-.22,2.77-.27,3.63c-.07.98-.35,2-.65,3.07-.22.79-.15,1.64-.34,2.52l-.59,2.76-.23,2.39-.33,3.77c-.48,5.5-1.25,4.06-1.38,7.49l-.08,2.26c.02-.57-.74,3.7-.76,3.53l-.21,4.33c-.21,4.45-.55,3.99-1,8.77l-.41,4.37-.3,3.46-.24,2.29c-.58,5.43.76,1.35-.29,5.83-.24,1.04-.13,2.07-.09,3.23.03.82-.28,2.07-.4,3.01l-.37,2.77-.32,2.33c-.05.36.3,1.39.27,1.79-.33,1.79-.95,4.2-1.15,6.08-.09.89.07,1.95-.15,2.8-1.15,4.44.41,2.37-1,6.23-.18.49.17,1.72.15,2.3l-.13,2.63c-.02.5-.34,1.61-.33,2.11l.08,3.7c.02,1.06,0,1.94-.33,2.94v1.92c0,.8.08,1.38.26,2.22.3,1.41.13,3.05.1,4.51-.01.72,0,1.56-.1,2.25l-.68,4.49c-.2,1.34.03,2.89-.22,4.33l-.43,2.41c-.12.65.13,1.97.41,2.5l1.05,2c.77,1.45.46,2.64-.54,3.89-.7.87-1.06,3.06-.56,4.04,2.07,4.03-.46.65,1.81,4.75.53.96.67,2.86,1.35,3.68l1.91,2.3c.98,1.18,1.32,1.68,1.97,3.12l.88,1.94,1.4,3.07c.43.94,1.92,3.41,2.54,4.19l1.24,1.56c.92,1.16.14,2.39,2.54,4.22l.54,1.17c.49.49.96.95,1.34,1.41l1.59,1.92,1.81,1.85,3.11,4.14c.85,1.13.53,2.69,3.22,4.41.65.42,1.02,2.16,1.52,2.77l1.24,1.51,1.75,2.05c1.03,1.2,1.82,2.54,2.68,3.85.51.78,1.4,1.54,1.4,2.64,0,1.39.89,2.06,1.84,2.59.63,1.64,2.52,2.6,3.13,3.35ZM668.91,11.57l1.44.17.48-2.63-4.17-.96-3.74-.86c-.34-.08-1.03-.16-1.58-.23-.5.61-.48,1.38-.34,2.16l.08,1.81c1.92-.33,2.19-.14,4.61.15l3.2.39ZM652.36,287.12l-.05-2.5c-.04-1.75.38-3.44.67-5.35.1-.67-.46-1.91-.76-2.79-.23-.68.05-1.84.08-2.63l.16-3.4c.05-1.07.64-2.43.74-3.5s.05-2.18.08-3.25l.08-2.45c.04-1.29.1-2.56.36-3.79l.52-2.51c.17-.84.28-1.79.37-2.64l.3-2.92c.14-1.34.23-2.77.47-4.03.12-.65.43-1.46.33-1.95l-.43-2.25c-.17-.9,0-1.72.26-2.64.28-1.03.27-2.4.41-3.56l.6-4.85c.1-.85.27-1.65.49-2.46l.64-2.42c-.44-.98-.84-2.05-.69-3.06l1-6.43c.35-2.28-.49-4.85.13-6.94,1.2-4.01-.41-2.44.55-5.95l-.15-.54-.9-.36c.69-.15.75-2.7.77-3.65l.07-2.81c.01-.52-.12-1.5-.06-1.94l.31-2.25c-.28-.71-.37-1.29-.3-1.98l.33-3.13c.03-.33.51-1.19.35-1.54-1.06-2.25-.15-4.05-.02-7.29l.08-2-.4-1.33c.04-.93.06-1.86.04-2.78l-.04-1.84c-.04-1.73,1.05-.83-.03-2.67l.57-1.18.42-1.81c-.43-1.36-.35-3.01-.35-4.47l.03-4.75.03-1.82.02-1.28.12-3.29.41-4.57.3-2.42.11-2.01c-1.48-3.4,1.27-3.48-.27-5.72l.24-1.8c.83-6.36-.03-3.32.16-5.86.1-1.31.05-2.61.26-3.7l.43-2.29c.14-.74.25-1.53.3-2.24l.25-3.44c.12-1.7.33-3.31.1-5.01-.17-1.21.11-2.36.21-3.55.06-.72.03-1.72.14-2.44l.5-3.05c.1-.61.14-1.39.12-2.02l-.06-2.09-.21-4.35c-.04-.87-.1-1.71-.01-2.53l.19-1.81c.03-.27-.08-1.03.13-1.18l.84-.58-.92-.36c-.49-.19,1.13-5.02,1.01-7.72-.04-.85-.46-1.92-.26-2.7l1.11-4.47c.17-.7.22-1.94.34-2.74l.64-4.41c.21-1.47.33-2.8.99-4.53l.78-2.03-.32-1.81c.61-1.54.13-1.54.51-4.85l.33-2.8.3-2.8c.07-.61-.02-1.71.07-2.22l.78-4.48.31-1.47c.35-1.69.4-3.35.56-5.15l.2-2.4.2-6.83.29-6.68-2.48-.08c-1.1-.03-2.24-.09-3.28-.21l-3.86-.47c-.1-.04-.48-.38-.51-.24s-.18.75-.18.89l.02,2.37v3.22s-.27.73-.27.73v2.41s-.03,1.84-.03,1.84l-.14,5.44-.04,1.27v1.88c0,2.18-.45,1.16-.7,4.84l-.15,2.3c-.09,1.41-.21,2.7-.41,4.1-.21,1.5-.27,2.92-.4,4.45l-.4,4.7-.26,2.48-.43,6.47-.26,3.05c-.07.79-.21,1.73-.22,2.47l-.09,6.55c0,.32-.18,1.02-.28,1.39l-.04.33c.96,2.13-.17,3.88-.1,5.91.06,1.67.06,3.12-.1,4.71l-.27,2.68-.3,2.44c-.1.85.13,2.31-.07,3.16l-.44,1.85c-.12.49.06,1.48.15,2.2.22,1.79-.42,3.62-.48,5.4l-.22,6.78-.19,3.19c-.04.77-.24,1.92-.22,2.62.21,5.23-.4,4.55-.58,7.52l-.17,2.88-.22,3.65c-.04.58-.81,1.81-.73,2.39.19,1.41.13,2.96-.26,4.37-.19.68-.14,1.58-.2,2.33l-.28,3.52c-.09,1.11.26,2.36.22,3.46l-.12,3.23-.18,4.32c-.09,2.22,0,4.6-.96,6.51l.55,1.31-.39,1.81-.19,3.77c-.09,1.78-.22,3.61-.04,5.4l.25,2.48v10.22s-.05,2.39-.05,2.39l-.33,2.09c-.19,1.23.09,2.55-.24,3.75-.68,2.48.21,1.24-.48,5.69-.62,3.97.28.74-.03,4.64l-.16,2.01c-.08,1.06-.05,2.24,0,3.33l.09,2.06c.02.5-.07,1.18-.09,1.76-.11,3.15.08,3.45.02,6.15l-.18,7.77c-.08,3.36.18,1.94.15,4.7l-.04,4.29.08,2.7-.06,3.85-.05,3.51-.06,4.92.02,2.16.02,8.41c0,.31-.24,1.17-.2,1.5.12.93-.07,2.39-.49,3.22.1.24.4,1.09.4,1.47l.03,3.23c.01,1.35-.24,2.91-.11,4.2l.15,1.6.35,5.2.17,2.3.44,4.7c.13,1.41,0,2.99.05,4.47l.07,2.41.8,2.56.12,4.97c0,.29.29.84.46,1.01s.96-.28,1.02-.5l.71-2.43c.66-2.25-2-2.11-1.33-7l.27-2.01c-.41-.25-1.07-.64-1.3-.85-.63-.57.13-1.86.98-2.11,1.03-.31.5-2.09.46-4.35Z"/>
        <path d="M629.15,253.91c-.65-.68-.95-1-1.28-1.24l-1.61-1.18c-.19-.36-.51-1.33-.73-1.69l-1.29-2.18c-.28-.48-1.44-1.02-1.86-1.43l-1.61-1.56c-.58-.56-1.21-1.03-1.7-1.74l-1.22-1.79-1.59-1.88c-4.11-4.84-2.64-1.6-4.84-4-2.01-2.19-.64-1.31-2.68-3.84l-1.86-2.3c-.48-.59-1.07-1.21-1.46-1.97l-1.37-2.73c-.33-.65-1.86-1.19-2.27-1.73-2.25-2.96-1.56-2.79-3.89-5.44-.6-.68-1.28-1.55-1.31-2.33-.07-1.62,1.78-3.49,2.42-3.07s1.08,2.08.93,3.09l1.41,1.34,2.36,3.07c.73.95,2.17,1.61,3.26,2.17,3.11,1.58.24.72,2.1,3.36l1.44,2.04,1.55,2.19,1.9,2.67c.69.96,2.14,1.8,3.06,2.63l1.65,1.48c.38.34.92,1.3,1.24,1.77l1.52,2.28c1.64,2.47,1.8,1.36,4.89,4.05,1.92,1.67,1.14,3.61,4.27,5.29.93.5,1.2,1.59.69,2.5s-1.45,1.87-2.11,2.19Z"/>
        <path d="M618.69,55.12l-2.21,1.82-1.37,1.36c-.7.7-1.33,1.34-2.06,2.17l-2.1.59c-.51.14-1.75-.81-1.72-1.26l1.43-1.83c.89-1.13,1.89-1.91,3.12-2.69l3.33-2.11,2.95-1.9c.81-.52,1.54-.78,2.54-.57,1.03-.87,2.21-1.98,3.34-2.71l3.79-2.44c1.52-.98,2.96-2.1,4.63-2.88,1.31-.61,3.16.41,4.4.31l2.64-.23c.35-.03.99.07,1.26.24.33.21.07,1.28-.19,1.63-1.98,2.64-5.15,1.94-7.84.8l-1.87,1.48-3.43,2.72-.99,1.03-2.78,2.35-2.1,1.78c-1.42,1.2-3.6-.62-4.76.33Z"/>
        <path d="M627.85,91.67l-2.49.03c-1.02.01-2.72-1.82-3.82,0-.44.74-.85,1.21-1.44,1.73-2.89,2.59-3.68,3-7.24,2.03-.31-.08-.85-.75-.86-1.08,0-.39.44-1.19.77-1.4,3.56-2.19.67,1.46,7.6-4.06l1.95-1.56c.97-.78,2.43-1.23,3.6-1.39l.29,2.09c.73.35,1.77.31,2.67.16,4.96-.82,2.35.05,5.41-.47l2.66-.45c.13-.02.54.93.44,1-.63.42-1.96,1.09-2.76,1.5l-2.05,1.07c-2.09,1.09-3.03.02-4.73.78Z"/>
        <path d="M615.24,75.38c-1.22.67-2.34,1.04-3.65,1.42-.66.19-2.5-.24-2.53-1.03-.05-1.19,1.68-1.81,2.53-2.08l.85-.87c.71-.21,1.44-.47,1.94-.8l2.75-1.8c2.39-1.57,4.59-2.95,7.3-4.06.54-.22,1.01-.23,1.65.14.5.29,1.26-.07,1.89-.2l4.11-.83c.65-.13,2.06-.2,2.4.29.28.39-.06,1.9-.5,2.08-.6.25-1.86.36-2.59.43-.1.08-.56.65-.73.7l-2.74.7-2.16.65c-2.83.86-1.54-1.86-5.37,1.3-2.42,2,.23,1.03-5.13,3.96Z"/>
        <path d="M617.35,138.62c-.62.67-3.54,1.4-4.34,1.55-1.64.3-3.32.23-5.05.44-1.26.16-3.05-.07-3.61-1.24-.16-.34-.16-1.24-.1-1.58,1.2-.22,2.49-.4,3.65-.42l2.86-.06c4.18-.08,6.16-.58,9.76-2.8,4.19-2.58,3.25.1,5.52-.25,2.64-.41,3.87,1.08,3.5,1.61-.12.18-.4.44-.66.57-3.81,1.9-4.01.29-7.23.57-1.36.81-2.83,1.36-4.31,1.61Z"/>
        <path d="M616.88,117.9l-3.69-.11c2.9.08-6.95-1.23-5.24-1.29.09-.48.61-1.21.95-1.37l1.91-.92c1.46-.7,3.17.79,7.1-.04,5.17-1.09,4.52-4.69,9.64-4.16,1.34.14,2.44.42,2.78,1.95.09.39-.71,1.09-1.14,1.09h-3.18c-1.57,0-1.62.92-3.64,2.08l-2.89,1.66c-.7.4-1.75,1.12-2.6,1.1Z"/>
        <path d="M608.5,165.52l-2.73-1c-.38-.14-.85-.33-1.1-.45-.31-.14-.19-1.3.11-1.46l1.98-1.11c.5-.28,1.71.61,2.28.69l1.94.28c1.49.21,3.09.34,4.54.03l3.16-.68,3.23-.63c.61-.12,2.06-.38,2.52,0l1.59,1.35c-2.78,2.14-1.93.38-5.38,1.51l-4.9,1.61c-3.91-.98-4.99.68-7.24-.14Z"/>
        <path d="M630.25,177.72l-3.51-.05-3.15-.05c-1.29-.02-2.63-.03-3.45-.97-.21-.24-.24-1.25.06-1.36,4.72-1.79,4.47-.66,7.36-.3l2.89.36.96,2c-.06.08-.82.38-1.15.38Z"/>
        <path d="M623.86,123.56c-1.44,1.49-4.69,2.07-6.36.88-.37-.26-.74-1.27-.87-1.72.57-.8,1.47-.73,2.5-.63,2.72.28,4.01-1.38,6.31-1.45-.24,1.29-.75,2.02-1.58,2.92Z"/>
        <path d="M622.14,148.76c-.2.19-.62.47-.82.46l-2.41-.04c-.87-.02-1.77-.14-2.64-.22l-.41-1.94c.79,0,1.62-.03,2.27.04l2.83.3c.81.08,1.75.25,2.34.34l-1.15,1.07Z"/>
        <path d="M608.72,178.16l-2.24-.71-1,1.1c-.48.53-1.91,0-2.37-.78.86-2.08,5.22-2.48,6.69-1.57l-1.09,1.96Z"/>
      </g>
      <g>
        <path d="M170.47,368.36h-7.87s-.31-.25-.39-.33l-7.13-.04c-2.69-.02-3.46-.58-4.76-.61l-4.78-.1c-.74-.02-1.81.04-2.48-.17l-2.05-.62-3.09.08c-.69.02-1.82-.2-2.45-.37-.36-.1-1.23-.02-1.61-.05-1.2-.09-2.39-.17-3.65-.08-2.83.2-.35-.83-5.93-.8-5.25.03-1.31-.43-5.16-.4l-13.99.11-2.09.06c-1.22.03-4.53.48-6.03.71-4.02.63-.59-.47-5.87.33-.82.12-1.75.19-2.54.04l-3.72-.72c-.29-.06-.94-.6-1.14-.44l-1.05.8c-.22-.12-1.03-.5-1.41-.58l-4.88-1.02c-.29-.06-5.14-.65-5.53-.67-1.23-.06-2.28-.22-3.04-1.13l-1.52.61c-.68.27-1.3.82-2.28.47-.39-.14-1.09.41-1.43.44l-3.5.22c-4.03.25-4.8,1.04-7.9.03l-2.34-.76c-.33-.85-.76-2.03-.84-2.82l-.35-3.17c-.12-1.06.05-2.64-.2-3.58l-.67-2.55c-.21-.79-1.45-1.75-2.41-1.87l-1.93,1.25c-1.13.73-2.82,3.39-3.27,4.61l-1.21,3.26c-.12.34,0,1.09.13,1.45l-2.12,2.61c-1.04,0-2.29.3-3.03.12l-2.64-.64c-2.96-.71-8.1-1.38-10.73-.63l-3.37.95-4.98.8-2.75.36c-1.21.16-3.15.24-4.24-.06l-3.26-.9-.99-1.01v-1.37c2.39-2.17,3.06-2.06,4.61-4.93l1.84-3.41,1.13-1.87,1.71-3.13,1.24-2.2c.34-.61,1.86-1.98,2.24-2.51.23-1.92,2.38-3.9,3.94-6.26.79-1.19,1.41-2.46,2.37-3.48l1.19-1.28c2.22-2.38-.24-.73,1.74-2.96.47-.54.87-1.02,1.27-1.52l3.04-3.85c1-1.27,1.93-2.82,2.86-4.24,1.16-1.78,1.2-2.89,2.73-4.64,1.12-1.28-.59-.34.96-2.65.56-.83,2.59-4.08,2.82-4.62l1.27-2.94,1.13-2.25c.44-.87.72-2.16,1.19-2.96.61-1.04,1.06-1.88,1.61-2.92l.8-1.5c1.57-2.94,1.58-3.52,2.92-6.27l2.01-4.13c1.32-2.72,2.53-5.31,4.13-7.9l1.57-2.57c.45-.73.85-1.94,1.23-2.8l1.3-2.91,2.23-3.1c1.37-1.91,1.8-4.27,3.13-6.22l1.26-1.85c1.77-2.6,1.75-3.14,2.89-4.93l1.74-2.75,2.55-4.29.99-1.73,2.59-4.55,1.6-2.9,1.23-2.17c.55-.97.94-2,1.58-2.9l1.14-1.59,1.44-2.33c1.51-2.43,2.73-4.89,4.59-7.08s.75-1.93,3.77-5.44c1.81-2.1-.13-.9,1.39-2.46.84-.86,1.75-2.12,2.44-3.33.32-.38,1.25-1.09,1.49-1.5,1.69-2.88.71-2.15,1.98-3.85l2.65-3.56c2.12-2.85,2.14-2.18,3.17-4.72.8-1.98,1.89-3.66,3.07-5.49l1.81-2.81c.52-.81-1.49-.77-.7-2.16.36-.64.77-1.39,1.05-2.04,1.36-3.16,1.98-2.37,2.28-3,.36-.76.95-2.46,1.61-3.05l1.6-1.46c.99-.9,1.69-2.06,2.58-2.88.71-.65,1.36-1.2,1.91-1.88l1.69-2.1,2.9-3.6,1.8-2.31c.71-.91,1.41-1.77,2.17-2.64l2.23-2.55c.11-.12.33-.51.43-.69.92-1.63.05.03,2.08-2.27l2.41-2.74c.38-.43.79-1.06,1.16-1.56l1.33-1.77c2.45-3.27.81-.6,3.15-3.33.47-.55.98-1.11,1.5-1.57l4.02-3.53,2.52-2.27c3.96-3.57,3.63-1.35,5.32-2.86.59-.53,1.27-1.11,1.87-1.57l2.96-2.23c.71-.54,1.5-1.02,2.3-1.46,4.98-2.75,1.57.19,6.53-3.34l1.29-.92c.99-.7,2.65-.05,3.84-.41,1.85-.55,4.19-1.4,6.16-1.55l1.81-.13,2.26-.21,2.81-.27,3.29-.43c1.78-.23,3.61-.16,5.41-.11l1.98-.58,2.9-.87,2.49-.78c1.83-.57,3.5-.87,5.47-1.05,1.33-.12,2.78-.7,4.16-.82l1.98-.17c.9-.08,1.9-.29,2.68-.3l3.2-.04c.92-.01,1.86-.19,2.85-.37l4.66-.86,1.31.15,3.52-.18c.94-.05,2.49-.69,3.6-.83l2.18-.26c1.12-.13,2.37-.37,3.41-.38,3.76-.02,3.91-.07,7.63-.76,1.67-.31,3.61.04,5.36-.23l1.4-.22,4.41-.2c4.94-.23,8.17.48,13.34.02l4.09-.36,2.01-.12c4.64-.27,1.88.85,3.95.43.88-.18,1.97-.4,2.57-.44.28-.02.99.6,1.17.39,1.2-1.39,2.99-.64,6.36-.92l3.19-.26,2.79-.24c3.95-.34,5.71.5,7.24-.28,2.3-1.17,1.86.36,3.23-.33,3.28-1.65,2.66.99,5.78-.31.83-.35,1.94-.33,2.85-.42l2.34-.24c1.06-.11,2.03-.18,3.1-.19,3.34-.05.98.58,3.75.38l.6-.04c.43-.21,1.31-.65,1.77-.72l.75-.11c2.41-.35,4.77-.25,7.21.09l.69.1.65.09c.89.12,1.76.06,2.86-.11l2.15.76,1.24-.25,1.5-.38c1.11-.29,2.66-.06,3.85-.05l3.49.04c1,.01,1.81.14,2.84.44-.05,1.27.15.62.36-.22l1.58.22c1.24-.19,2.35-.24,3.57-.07,3.36.47,3.99-.02,5.84.53.3.44.37.55.34.42-.02-.08.38-.65.46-.65l1.56.11c2.75.19.33-.39,3.54-.13,5.12.42,3.2-.1,8.03-.09h4.67c.81.01,1.82-.1,2.57-.06l1.42.07,1.89.1c.32.02,1,.17,1.32.25.26.07.87-.06,1.16-.06l2.36-.03c.38,0,1.31.22,1.65.41,2.75,1.63,1.48.15,4.25.41.59.06,1.44.28,1.92.29,1.34,0,3.03.01,4.43.29,3.15.63,1.26-.88,4.12.04.57.18,1.21.08,1.88.15l2.2.24,3.03-.27h2.18s4.06-.26,4.06-.26c1.07-.07,2.04-.06,3.1-.08l1.82-.03,4.07-.1c.73-.02,2.04.33,2.84.5,2.05.44-.88.14,2.59-.03.5-.02,1.26-.09,1.61-.06l2.87.23c2.13.17,3.23,1.25,6.36.57l2.37-.51c.25-.05.79-.28,1.02-.36.6-.18.73,1.06,1.33.88l.66-.19,3.14-.09c.91-.03,2.08.09,3,.14l1.56-.32,1.64-.03.59-.41h3.51c.06,0,.41.35.44.41l.26.53c.3.61.09-.78,1.81-.86l.5-.03.55-.02.66-.02.69-.02.69-.02c3.22-.11,2.41.13,4.38.5,4.11.78,2.38-1.12,6.28-.63,2.44.31-.87-.56,2.7.19,2.02.43,2.08-.46,4.48-.66l1.6-.13,1.91-.19c1.35-.13,2.82.24,4.2.74,2.9,1.05,1.7-1.23,4.37-.64,1.04.23,2.19,0,3.3-.09.54-.04,1.73.46,2.25.34l1.9-.43,1.28.7c.65.36.91-1.73,3.22-1.93l3.26.69c1.28.27,3.02,1.07,4.02,2.02,1.53,1.45,2.08,3.57,2.8,5.47,1.21,3.23,1.69,1.98,1.31,4.55-.09.62-.12,1.26-.13,1.82l-.05,3.04c-.06,3.7.49.74.14,5.59l-.09,1.21c-.08,1.16,0,2.32.06,3.53l.1,2.08c.02.47-.49,1.57-.52,2.06l-.15,3.06-.54,3.44-.21,3.29c-.03.4-.49,1.29-.57,1.7l-.62,2.94-.27,1.66c-.27,1.64-1.4,3.24-1.92,4.89-.21.65-.14,1.98-.57,2.51l-1.63,1.98c-.43.52-2.1.22-2.77.27s-1.51.16-1.99.12c-4.22-.38-.36.59-4.51.09-.73-.09-1.97.18-2.85.25l-2.64.21c-1.47.12-2.95.33-4.35.16l-2.65-.33c-.46-.06-1.46.67-1.51,1.14l-.42,3.55c-.18,1.5-.06,3.24.07,4.96.08,1.11,1.9,1.54,2.73,1.98,2.7,1.43,3.35,3.1,3.79,6.13l.36,2.53c.06.42.43,1.35.44,1.77l.22,11.75c.02,1.2.2,2.21,0,3.28l-.6,3.29c-.18,1-.44,2.07-.71,3.06l-.71,2.57-.25.9c-.1.35-.08,1.14-.08,1.58-.44.23-1.33.73-1.74.88l-3.1,1.18c-3.48,1.33-1.53.33-5.76,1.5-.9.25-2.37.13-3.34.32l-2.29.46-4.2.96c-1.36.31-2.89.18-4.42.34l-2.73.28-9.18.04-4.74.14c-.66.02-1.62-.09-2.2.08l-2.5.71c-.83.23-2.27-.02-3.2-.02h-2.54s-3.9.36-3.9.36l-2.59-.07c-.56-.01-1.44-.09-1.9-.05l-3.2.29c-1.33.12-3.11.65-4.37.52-2.01-.21-3.42.14-5.34.17l-4.99.09-2.75.12c-4.3.18-3.26,1.32-6.14,1.4l-5.14.14c-.92.03-2.02.25-3.01.39-2.81.39-2.44-.43-6.94-.56s-3.38.7-6.56.12c-7.48-1.35-5.75-.28-10.18-.29-1.13,0-2.04,0-3.2.15-1.31.16-7.1-.61-7.33-.59l-7.96.38-4.37.04-4.25.04c-.69,0-1.88-.28-2.73-.39-.59-.08-1.81.71-2.4.69l-2.93-.09c-.53-.02-1.32-.17-1.86-.11l-3.76.42c-4.72.52-2.78-.27-6.11-.27-1.47,0-2.78-.12-3.98-.85-2.19-1.35-1.11.12-5.03-.36-1.55-.19-3.02-.51-4.43-1.07l-2.27.3c-5.02.65-4.03.14-8.29-.33l-3.14-.35c-.69-.08-2.01-.57-2.66-.56l-3.31.07-4.52.13-2.43.07c-4.45.14-1.71-.24-6.54.07-3.05.2-6.08.16-9.17.05-.93-.03-2.14-.35-3.08-.32-.85.03-10.37.37-9.25,1.94l.4.56c1.33,1.87-.42.24,2.04,4,.3.46.68,1.36.97,1.75.96,1.29,1.74,2.46,2.37,3.87l1.17,2.6c.38.84.77,1.73,1.21,2.54l1.42,2.63,1.33,2.5,1.42,2.62,1.24,2.25c1.31,2.39.36.9,1.69,3.72l2.07,4.39,1.21,2.91c.23.55.67,1.16,1.03,1.69,1.86,2.76.85,2.02,2.22,3.27,2.08,1.9-.35.12,1.83,2.27l1.73,1.7,3.75,4.11c1.17,1.28,2.16,2.62,3.29,3.96l2.96,3.5,1.59,1.9c.42.5,1,1.5,1.43,1.94,1.02,1.03,2.17,2.18,3.17,3.33l1.45,1.66c.61.7,1.25,1.49,1.83,2.23l3.16,4.04,1.57,1.86,2.11,2.35c.68.75,1.26,1.42,1.85,2.3,1.32,1.97.18-.07,2.25,1.81l4.13,3.75c2.76,2.5,2.42,2.56,4.47,4.42l2.7,2.46c3.17,2.88,2.69,3.06,5.26,6.02l2.71,3.12,1.27,1.49c3.05,3.58,3.83,2.68,7.23,7.44.54.76,3.32,4.32,3.61,4.53l2.23,1.62c2.54,1.85,1.4,1.24,4,2.99.58.39.54,1.79-.02,2.37-1.81,1.88-2.77,1.09-5.06.93-2.93-.22-4.99-.19-7.8.31l-6.43,1.14c-2.71.48-2.39-.18-6.58.25l-3.43.35-3.43.35-2.77.31-3.78.55-2.47.32-3.43.63c-.52.1-7.72.66-8.44.28-.31.09-1.11.38-1.44.42l-3.05.41-2.42.33c-.9.12-1.83.27-2.72.32l-3.7.2-2.26.16c-.94.07-1.97.04-2.92,0l-3.51-.12-4.97-.28-3.15-.07-3.07-.14-4.06-.05-2.81.04-2.7.19h-2.42c-.56,0-1.59-.24-2.28-.39s-1.44-.18-2.15-.28l-4.39-.64-2.39-.37-4.46-.67-2.8-.31c-4.21-.46-4.15-1.27-7.18-1.58l-2.53-.27c-1.12-.12-2.31-.31-3.42-.76-.68-.28-1.83-1.48-1.97-2.17-.19-.93-.11-2.69-.52-3.42-2.08-3.68-.95-2.4-2.84-5.41-.1-.16-.74-.45-.84-.28l-.34.58c-.45.76-1.1,1.89-1.24,2.76l-1.22,7.38c-.44,2.67-.1,6.24-3.69,7.04-.54.12-1.27-.46-1.8-.69l-2.29-.96c-4.84-2.03-1.3.27-6-1.23-5.64-1.8-3.73,1.1-6.38.41l-2.24-.58c-.82-.21.07-3.44.21-4.78.1-.93-.74-3.04-.78-4.1l-.09-3.14c-.04-1.5-.09-2.9-.5-4.37-.3-1.06.12-2.51-.04-3.46-.62-3.79-1.67-7.03-1.94-10.56l-.17-2.3c-.12-1.54-.03-3.11-.06-4.65l-.05-3.07-.04-4.05c-.02-1.62-.07-3.2-.23-4.87l-.32-3.46-.19-3.36c-.04-.69-.24-1.6-.38-2.31l-.92-4.88-.9-5.87-.46-3.37-.4-3.04-.38-3.07-.31-2.37-.29-2.58c-.24-2.12-.98-3.95-2.44-5.58l-.91-1.01c-.72-.14-1.86,2.99-1.94,3.38l-.7,3.14-.97,2.97-.82,3.5-.38,1.49c-.1.39-.58,1.17-.78,1.55.23,2.18-.47,3.09-1.12,5.8l-.94,3.95c-.28,1.18-.56,2.46-.91,3.59l-1.12,3.63-.83,2.86-.64,2.43-.71,2.74c-.24.91-.51,1.74-.83,2.65-.64,1.79-.86,3.79-1.36,5.64-.2.75-.77,1.61-.75,2.52.03,1.37-.07,2.53-.29,3.75l-.81,4.53c.1-.54-.54,6.01-.54,5.79l.02,19.83c0,1.01.26,2.32.43,3.4.25,1.53,1.06,2.25,1.24,4.8l.19,2.84c.25,3.69,2.37,1.5,3.05,9.86.04.5-.53,1.69-.99,1.86-2.26.82-3.51-1.08-4.67.53ZM273.22,348.47l3.74-.17c.57-.03,1.77.3,2.34.34,1.42-.07,2.74-.03,4.17.08l3.36.26c1.14.09,2.28.2,3.44.22l4.08.07c.56,0,1.42-.07,2.05-.14l2.76-.34,3.08-.36,3.08-.35,2.78-.31,3.77-.54,3.46-.37,2.41-.27,4.06-.46,3.79-.47,2-.23,1.43-.17,2.79-.33,2.51-.24,2.26-.22,2.99-.32c2.09-.22.38.79,3.59-.13,1.28-.37,2.59-.33,4.86-.85.64-.15,1.44-.44,2.03-.53l1.59-.23c.13-.02.66-.23.8-.27s-.33-.39-.44-.52l-2.18-2.33c-.41-.43-.88-1.61-1.23-2.07l-1.52-1.99c-1.95-2.55-2.85-2.91-5.47-5.52s-1.03-1.8-2.67-3.16c-.21-.17-.63-.62-.78-.87l-1.53-2.56c-.7-1.17-2.47-3.55-3.43-4.42l-1.65-1.5c-2.16-1.96-2.56-1.75-4.93-4.26l-2.36-2.5c-.55-.58-1.15-2.02-1.82-2.46-.72-.48-1.38-.88-1.78-1.35l-1.62-1.88-1.44-1.63-2.43-2.69-1.92-2.2c-.79-.9-1.53-1.89-2.29-2.84l-2.42-3.05-1.71-2.06-1.87-2.24-1.76-2.05-2.12-2.91-2.2-2.33c-.54-.57-1.08-1.21-1.51-1.87l-1.21-1.85c-.43-.66-1.28-.92-2.52-2.29l-2.16-2.38c-.67-.74-1.23-2.34-2.13-2.84-3.44-1.9-2.09-3.11-3.96-5.02-1.71-1.75-.23-2.1-.9-2.79l-1.09-1.12.12-.43c.05-.11.14-.22.07-.29-.07-.07-.26-.23-.4-.35l-.37-.34c-.05-.05-.28-.32-.28-.38l-.14-1.6-2.37-4.47-1.4-2.65-1.06-2.13-.61-1.81c-.05-.14-2.09-3.32-2.23-3.51-3.79-5.06-2.54-5.24-4.97-8.71-1.64-2.34-2.92-4.62-4.21-7.12-.26-.5-.67-1.09-.77-1.6-.15-.83-.46-1.54-.97-2.03l-1.81-1.7c-.37-.35-.59-1.8-.12-1.96l2.01-.7,1.73.87c1.14-.08,2.07-.04,3.25.01.99.04,2.61-.86,3.69-.85l7.52.03c.89,0,2.17.4,3.05.32l3.23-.29c1.27-.12,4.98-.35,6.06.4l3.33-.26c.87-.07,1.64-.04,2.48-.06l2.33-.05c1.44-.03,2.76,0,4.21.09l4.05.24c.96.06,3.56.53,4.09.55l3.88.15c.45.02,1.2.08,1.5.3,1.76,1.31.27-.15,3.3.05l2.32.15c1.41.09,2.77.16,4.12.34l2.12.29,2.7.37c1.43.2,2.74.53,4.14.79l2.95.54c.15.03.54.21.65.26s.39-.49.51-.52c.71-.17,2.11-.37,3.02-.45,3.56-.3,1.64.98,4.31.05,1.38-.48-.11.48,3.79-.02,1.04-.13,1.84-.1,2.97-.01,1.25.1,3.22-.97,9.04-.42,1.92.18,3.66.02,5.58.08l5.09.17h2.73c1.61,0,3.17-.04,4.77.05.97.05,2.13.38,3.08.3l3.5-.29c4.21-.34,4.7.33,6.93.04,1.59-.2,3.11,0,4.7.08l4.34.24c3.42.19,1.82-.71,4.2.49l1.73-.25c.27-.04.88-.35,1.25-.49.54-.21,1.73-.11,2.37-.2,1.66-.23,3.12-.29,4.8-.3l2.15-.33,3.17-.56c1.32-.23,2.89-.14,4.29-.32,1.04-.14,2.55-.22,3.27.14.09.05.36.77.41.68l.32-.5s.42-.45.47-.45l4.61-.04.68.28c.36.15,1.14-.11,1.6-.15l4.13-.41,4.57-.42c.11-.01.76-.28.85-.28l8.43-.17,2.85-.27c.09,0,.57-.16.67-.16l2.38-.08,2.86-.09,2.24-.15c1.31.12,2.38.13,3.63.01l2.65-.24c3.32-.3,7.92-1.18,11.06-2.27,4.75-1.65,4.14.08,6.73-1.34l.97-.53c.44-.24,1.1-.55,1.61-.79,1.92-.9,1.11-1.46,1.96-2.08.35-.25,1.15-.77,1.26-1.17l.9-3.24c.2-.71.35-1.45.33-2.1l-.05-1.6c-.08-2.93.33-1.03.15-3.31l-.22-2.72-.2-3.14c-.09-1.42.3-3.08-.07-4.48-1.16-4.4.69-1.85-.72-4.38-2.81-5.02-1.51-1.35-4.84-4.19-.27-.23-.99-.47-1.51-.63-1.98-.61-.3-2.8-6.84-2.47l-4.06.2c-1.1.05-2.32.35-3.5.52-1.46.21-3.17-.08-4.62.05-2.1.19-4.17.67-6.3,1.01l-3.3.52c-.25.08-.85.32-1.18.46l-1.64.7c-.11.05-.31.48-.24.57l.34.47.35.49c.16.22.62.35,1.03.41,1.53.21,4.13,1.14,6.62,1.76l1.41.35c2.48.62.32.6,2.79.83l2.82.26,2.56.24c.96.09,1.24-1.04,3.75.21l.43,2.08c-1.32,2.48-3.73,1.06-4.66,2.41-.63.9-.92,2.46-.68,3.68.18.89,1.47,1.25,2.3,1.4l2.28.41c.22.04.84.75.83.99l-.05,2.18c-.02.79-1.52.36-2.73,2.57s3.15,3.14,4.35,2.89,2.27.04,3.06,1.08c.26.34.61,1.32.41,1.68-.83,1.55-2,1.14-3.81,1.05l-1.98-.1c-3.06-.16-1.49-.59-4.74-1.88-.89-.35-2.27-1.23-2.27-2.35,0-2.72,1.91-3.89,1.26-5.24-.95-1.98-2.26-1.32-2.73-2.03-.37-.57-1.13-1.9-1.21-2.58-.06-.52.11-1.87.33-2.33l1.2-2.52c.14-.12.16-.11.07-.15l-.65-.25-1.71-.65-2.57-.96c-1.9-.71-1.34.06-5.79-1.29l-4.55-1.38-2.36-.72c-.49-.15-1.21-.43-1.43-.75-.76-1.06,2.2-4.95,3.63-5.66l1.71-.86c.93-.47,2.2-.68,3.28-.8l2.5-.29c3.39-.39,1.62-.73,4.06-.94l3.19-.28c3.12-.27,3.97.18,5.46.02l3.08-.34,5.75-.19,2.28-.13,1.33-.08c.47-.03.53-.69.93-2.4s-.03.02.22-2.45l.33-3.14c.06-.58.3-1.99.78-2.28.7-.42,2.3-1.05,3.05-.89l4.44.95,2.11.15c2.88.2,3-.32,6.1-.51.65-.04,1.46.03,1.9-.11.4-.12.99-.32,1.28-.32h3.72c1.78.02,3.31-4.97,3.74-6.53l.93-3.41c.05-.17.75-.55.9-.64.11-.07-.04-.18-.29-.49l-.13-.56c-.02-.08.02-.5.04-.59l.14-.62c.02-.11.05-.37.07-.56l.27-2.7c.01-.11.22-.64.22-.72l-.06-2.04c-.09-3.01,1.16-5.02,1.07-6.08l-.32-3.53c-.44-4.98.94-3.15-.1-9.08-.19-1.1.28-2.95-.17-3.96-.6-1.35-1.13-2.46-1.44-3.76-.44-1.86-.38-2.89-1.02-3.46l-1.98-1.76c-.21-.19-.76-.49-1-.43l-1.19.27c-1.65.37-1.86-.69-3.02-.25-.55.21-1.59.66-2.08.64l-3.79-.12c-.73-.02-1.41-.05-2.11-.03l-2.7.09-2.92.14c-1.11.05-2.28.03-3.39,0l-2.35-.06c-1.84-.05-3.97,1.14-6.44.37l-1.01-.31c-.06-.02-.52.42-.58.43l-3.14.43c-.28.04-.53.07-.7.08l-3.17.27-.72.07c-2.57.24-1.96-1.87-2.39-1l-.31.63c-.46.93-3.9-.58-6.24.5-4.26-.65-4.54-.17-8.84-.21-3.62-.04-2.17-.28-5.15-.08-3.56.25-7-.13-7.42-.1-1.33.09-2.8.14-4.11.16l-3.1.05c-1.32.02-2.62-.03-3.85-.12l-2.01-.15c-1.04-.08-2.25-.07-3.28.05-4.8.58-.99-.44-5.39.07-1.19.14-2.43.06-3.61.08l-3.43.06-3.44-.08-2.32-.05-1.09.12c-1.7.18-3.42.08-5.07-.07l-3.82-.33-3.37-.36-3.58-.43-2.72-.32c-.54-.06-1.35-.08-1.98-.11l-3.73-.16-2.46-.09c-.57-.02-1.29-.13-2.02-.26-2.42-.42.87.29-2.74.31l-5.03.03c-3.82.03-2.62.64-6.17.3-4.08-.4-2.23.28-4.93-.09-4.84-.66-4.1.21-7.74-.49-3.96-.77-.06.43-4.26-.34-.7-.13-2.19.34-2.89.27-1.15-.11-2.1-.27-3.18-.25l-3.14.06-5.27-.24-2.68-.07-1.56-.08h-6.38c-1.25.01-2.55.02-3.81.1l-2.84.2c-1.19.08-2.31.14-3.45.29l-2.41.32-3.09.35-6.74.21-4.81.66c-1.01.14-2.04.15-3.13.25l-2.73.26-8.89.14-2.36.29-2.79.14-2.74.1-3.79.31-3.35.23c-1.1.08-2.33.28-3.42.24l-3.4-.14-1.82-.07-2.03-.08c-2.13-.08-4.27-.09-6.37.05l-2.22.15c-.71.05-1.57.08-2.27.17l-2.73.37c-.92.13-1.81.18-2.84.22s-2.14.33-3.22.49c-1.95.28-4,.29-5.98.41l-3.45.21-2.05.2-3.47.33c-5.71.54-2.34.68-7.09,1.23l-2.76.32-3.1.31-4.77.41-4.14.52c-2.25.28-4.38.78-6.36,1.82-.51.2-1.71.29-2.3.45l-2.46.68c-2.58.72-4.03.43-7.05.78l-2.77.32c-.99.12-2.36.04-3.26.25-1.26.29-2.24.55-3.53.52-2.91-.07-1.33.74-5.38,1.86l-2.41.67c-.84.23-4.66,1.36-4.98,1.52-.99.49-1.95,1.99-2.97,2.36-3.41,1.23-1.6,1.32-4.93,2.47-.43.38-1.2,1.26-1.72,1.51l-2.79,1.33c-.76.36-1.98.64-2.56,1.19-.97.91-1.75,1.72-2.68,2.51l-1.87,1.59c-.53.45-1.11.97-1.58,1.46l-1.34,1.42-3.17,3.36-1.35,1.69c-1.14,1.43-2.33,2.36-3.93,4.27l-2.19,2.62-2.51,3.01-1.74,2c-2.36,2.72-1.65,2.39-4.49,5.4-.53.56-.97,1.08-1.43,1.66l-2.28,2.87-1.73,2.33-1.6,2.19-1.47,1.96c-2.08,2.78-.27,2.11-2.45,6.04l-1.49,2.69c-.91,1.65-2.05,3.16-3.06,4.78l-1.05,1.69c-.4.64-.8,1.23-1.23,1.85l-4.03,5.91-1.46,2.3-2.39,3.08-3.08,4.14c-.39.52-.81,1.27-1.19,1.84l-2.06,3.1-1.23,1.86-2.28,3.21c-.72,1-1.37,2.03-2.02,3.1l-2.22,3.63-2.12,3.33c-.5.79-.85,1.63-1.37,2.45l-1.55,2.45-2.52,4.39-1.16,1.91-1.63,3.23c-1.4,2.79-1.34,1.95-2.74,4.36l-2.15,3.7-.86,1.45-1.7,2.82c-.58.96-1.07,2.19-1.54,3.31-.24.58-1.33,1.43-1.64,1.96l-1.16,1.97c-.22.37-.47,1.37-.73,1.69-1.89,2.24-.95,1.55-2.86,5.01l-1.82,3.31-1.04,2.34-1.28,2.5-2.33,4.56-.71,1.31-3.09,6.5-.99,2.14c-.85,1.84-1.32,2.89-2.73,4.48-.5.57.34.51-1,3.01l-1.57,2.93c-1.38,2.57-1.78.59-2.96,4.66-.3,1.02-3.04,5.33-3.89,6.64-.43.66-.75,2.19-1.31,2.71-1.17,1.09-2.57,2.75-3.09,4.25l-1.21,1.13-1.88,3.55c-.53.99-.6,2.38-1.95,2.95-.77.33-.81,1.05-1.08,1.82-.55,1.6-1.94,2.98-2.9,4.39l-1.25,1.85-.71,1.05c-.86,1.27-1.63,2.46-2.38,3.8l-.84,1.06-1.8,3.08-.74,1.64-1.25,2.23-1.62,2.81c-.27.46-1.04,1.21-.99,1.68.25,2.41-1.28,3.05-.28,3.19,2.68.36,1.6.28,4.78-.05,4.46-.46,2.18-.63,5.3-1.11,4.84-.75,2.41.22,7.17-.39,5.7-.74,3.59,1.17,7.91.32.4-.08,1.04-.65,1.3-1.04l2.74-4.15c1.99-3.01,2.09-3.32,4.72-5.17l1.85-1.29c2.31-1.62,5.9-1.67,6.86.36l1.45,3.08c.32.68-.03,2.47.13,3.22l.5,2.41c.17.83.68,1.88.69,2.66,0,.36-.19,1.51.12,1.68,1.67.76,5.95.87,7.94.64l3.11-.36c4.8-.55,2.19-.25,6.14-.11.71.02,1.48.25,2.1.64,1.93,1.23,1.68-.87,4.07-.09l3.24,1.05c.75.24,1.38.36,2.2.36l1.71.21,2.11.17c1.04.08,2.05.15,3.09.33l3.01.51c.7.12,7.48-.81,9.27-.25l1.11-.57,2.4-.16,4.66-.28c1.9-.11,3.59,0,5.51-.01l2.05-.03,2.08.11,5.45.13c.5.01,1.27,0,1.67.06l3.2.49,3.63.24c.75.05,1.42.27,2.07.32l3.79.32,3.12.23c1.07.08,2.07.15,3.11.27l2.77.32,3.02.17c.72.04,1.99.5,2.64.46l2.81-.18-.59.81c-.06.08.53.08.63.04,1.17-.46,2.77-.48,4.07-.45l3.12.09h2.72c.74.02,3.7-.11,4.06-.76.59-1.04-1.03-1.14-1.03-3.09v-3.13c0-2.55-.07-4.78-.46-7.34-.42-2.81-.01-5.82-.29-8.68-.09-.89-.15-1.7-.1-2.54l.13-2.38.32-3.81c.03-.34-.35-2.92-.13-5.65l.22-2.85c.08-1.02.25-1.97.41-2.97.24-1.52.33-3.09.47-4.68.17-1.85.63-3.58,1-5.43l.56-2.77c.2-.98.36-1.97.64-2.94l.79-2.74c.31-1.08.9-2.36,1.13-3.44s.31-2.05.62-2.94l1.08-3.03.65-1.03.84-4.11.5-2.36.98-4.14.87-3.76c.33-1.43-.08-2.07.93-4.8l1.03-2.8c1.13-3.06.27-5.05,2.45-9.49.41-.83.69-1.54.99-2.42l1.36-4,.99-3.19c.28-.91.83-1.9,1.34-2.72.52-4.01.52-.76,2.15-5.48.47-1.37.97-2.67,1.57-3.88l.67-1.34,1.06-2.34c.43-.95.85-1.86,1.51-2.65.97-1.16.06-2.91,1-3.8s3.77-1.1,4.85-.45c-.41,2.93-.49.99-1.2,2.65-.21.5-.48,1.07-.69,1.4l-2.67,4.26c-1.93,3.08-.96,2.18-2.62,5.83l-1.3,2.86c-1.31,2.87-.58,2.36-2.27,5-.36.56-.45,1.55-.11,2.11l1.23,1.99,1.58,2.57c.52.85.71,2.08,1.02,2.95.57,1.61,1.34,3.1,1.41,4.88l.08,2.06c.03.73.14,1.61.24,2.39l.41,3.37.28,2.08c.44,3.3-.48,1.04.25,5.09.25,1.39.5,2.62.89,4.05.17.62.2,1.18.17,1.96-.03.71.34,1.67.46,2.38l.58,3.37c.13.72.07,1.58.16,2.34l.26,2.09.03,3.11c0,.82-.06,1.8-.02,2.62l.14,3.17c.26,5.87-.64,3.54-.04,9.61.45,4.62.73,3.43,1.36,6.88l1.11,6.17c.13.71.22,1.65.27,2.36l.23,3.2c.02.34-.03,1.14.02,1.46l.39,2.72.73.94c.13.86.3,1.79.36,2.63l.22,2.97c.81-.13,2.5-.52,3.17-.14l2.68,1.51c.99-.12,1.49.03,2.33.26l2.26.32c.62.38,2.23,1.01,2.83.22.53-.71.64-2.1.83-3.02.66-3.17-.21-.62.73-4.63.34-1.44,1.55-5.36,2.26-6.25l1.56-1.94c1.5-.68,3.49-.85,5.04-.44,1.16.31,4.7,6.99,4.85,7.96.76,4.91,4.21,3.43,8.12,4.65l.67.74,4.68,1.09,2.43-.03,3.14.6,1.71.36,4.32.84,3.84.63c.4.07,4.53.42,5.29.3,3.88-.59,1.97.3,7.02.07Z"/>
        <path d="M503.92,140.45c.84.81-.24,3.13-1.71,3.15-1.33.02-2.7-.69-2.99-1.8l-.57-2.18c.05-2.41.97-5.19,1.83-7.41.16-.4.08-1.3.23-1.65.35-.78,2.4-1.2,3.15-.91,1.48.59.52,5.71-.83,6.92l-.22,2.23c-.04.4.51,1.08,1.11,1.65Z"/>
      </g>
    </g>
  </g>
</svg>