<?xml version="1.0" encoding="UTF-8"?>
<svg id="Layer_1" xmlns="http://www.w3.org/2000/svg" version="1.1" viewBox="0 0 716.91 513.43">
  <!-- Generator: Adobe Illustrator 30.2.1, SVG Export Plug-In . SVG Version: 2.1.1 Build 1)  -->
  <g id="IJ1Woh.tif">
    <g>
      <g>
        <path d="M716.91,139.08v9.65l-.66.73c-2.64,2.89-5.09.22-6.52,1.57-1.1-.04-2.63,0-3.84.17l-2.68.4-9.17,1.41c-3.48.53-4.79,1.35-6.45,1.45l-2.8.16-4.73-.03c-1.77-.01-3.5-.08-5.28.14l-3.57.46c-6.75.86-3.92-.09-9.28.35l-2.89-.39c-.67-.06-2.17.6-2.71,1.01-.88.66-1.94,1.09-2.97.92l-2.65-.42c-.92-.15-2.55-.56-3.34-.42-.42.78-.98,1.76-1.16,2.29l-.63,1.85c-1.03,3.04-.19,2.47-3.64,5.52-.33.29-.83.51-.94.76-.49,1.08.47.62.54,3.19l.1,3.24c.06,1.9-2.57,5.71-4,7.39l-2.45,2.88-2.14,2.18c-.7.71-1.28,1.61-2.32,2.11-.66.32-1.72,1.19-1.62,1.77.13.74.53,2.15.41,2.72l-.58,3.01c-.26,1.36-.23,2.73,0,4.09l-.54,1.65c.3,1.65.29,3.32-.03,4.97l-1.86,9.57-.6,3.26-.58,3.1c-1.29,2.3-.1,1.94-.87,5.59-.5,2.39-1.31,4.48-1.99,6.78-1.02,3.48-1.63,7.29-2.31,9.51l-.96,3.12c-.5,1.63-2.06,5.14-2.2,6.82l-.55,6.59c-.09,1.05-.15,2.14-.36,3.16l-.75,3.57-.99,5.66-.5,3.5c-.49,3.46-.67-1.39-1.87,4.8-.26,1.35-1.59,2.49-2.72,3.36-.3.77-.74,2.44-1.24,3.06-2.93,3.52-3.52,4.78-5.04,9.17-1.2,3.48-1.12,1.8-3.34,4.98-.82,1.17-2.23,2.72-3.43,3.38l-4.01,2.21c-.64.35-1.69.9-2.32,1.13l-2.7.98c-.66.24-1.93,1.04-2.65,1.22l-4.21,1.1-1.6-.23c-2.88.62-1.48.16-5.37-.57l-2.7-.51c-2.7.39-5.97-.7-7.97-2.35l-2.49-2.05c-.79-.65-2.95-1.11-3.62-1.86l-1.75-1.98c-.48-.54-1-2.24-1.57-2.7l-1.95-1.58-2.96-2.38-2.05-1.39c-.82-.55-1.42-1.15-2.17-1.81l-1.27-.9-2.31-3.38c-.74-1.08-1.49-1.97-2.49-2.81l-3.78-3.16-3.3-2.46-1.9-1.25c-.74-.49-2.98-3.08-3.52-3.82l-1.9-2.55c-.87-1.18-1.78-2.22-2.8-3.38-3.69-4.2-.37-2.31-3.32-4.94-1.59-1.42-2.31-2.67-3.04-4.51-.84-2.15-1.01.48-2.26-2.66-.23-.59-1.4-1.39-1.73-2.07l-1.15-2.33c.13.27-3.94-5.69-4.63-6.42-.42-.45-1.52-1.17-1.69-1.74-1.32-4.34-2.91-3.43-5.31-6.94-.66-.96-1.25-1.67-1.95-2.51l-1.82-2.18c-.45-.54-.93-.97-1.62-1.56-.8-.68-1.22-2.19-2.11-3.18l-2.34-2.61-3.29-5.39-2.79,2.84-5.38,5.19-2.38,2.44-3.65,3.83-1.87,2.08c-3.16,3.52-1.61.84-4.84,4.78l-1.42,1.72c-.45.55-1.16,1.17-1.73,1.72l-6.49,6.25c-.58.56-1.26,1.15-1.75,1.72l-1.81,2.16-1.59,1.96c-.66.81-1.37,1.54-2.09,2.27l-1.53,1.55-3.96,4c-.74.74-1.86,2.25-1.57,3.08.37,1.04.41,1.61.45,2.53l1.31,4.02c.71,2.2,1.03,4.38,2.03,6.37l1.2,2.37c.65,1.28,1.49,2.67,2.43,3.67,2.21,2.34.93,1.45,2.73,6.25.32.86,2.13,2.03,2.51,2.9.43,1,.81,1.9,1.33,2.66l1.66,2.42c.88,1.29,1.9,2.88,3.06,3.9,1.46,1.28,3.37,2.37,4.27,4.01l1.61,2.91c.33.59.78,1.21,1.21,1.86s.96,1.9,1.4,2.46l1.97,2.52c.63.8,1.52,1.84,2.21,2.51l3.2,3.11c.41.4.95,1.46,1.45,2.08.7.89,2.68,1.66,3.45,2.47.9.94,1.6,1.69,2.46,2.45l2.38,2.1c2.94,2.6.8,2.83,3.35,3.55,1.21.34,2.05.8,3.01,1.4l2.47,1.54c1.06.66,2.65,1.26,3.45,2.11.58.61,1.11,1.2,1.65,1.51,6.26,3.64,3.61,1.37,7.04,2.99l1.79.85,2.11,2.01c1.02.97,2.38.93,3.75,1.16,1.59.27,3.39,1.24,4.97,1.81,1.24.45,2.24.94,3.3,1.54l2.04,1.16c2.8,2.57,4.97,1.79,9.76,2.95,1.1.27,2.19.5,3.31.58l3.59.28,4.72.25c.75.04,2.1-.09,2.77.28l2.77,1.54c.66.37,2.5.59,3.27.61l8.39.2c.95.02,2.87,1.09,3.8.92l3.69-.7,2.05-.08,3.63-.62,3.2-.52c1.03-.17,1.96-.35,3.18-.67l3.67.03c.59,0,1.3-.1,2.01-.11l4.35-.04c.55,0,1.77-.33,2.43-.48l9.3-2.11c.94-.21,2.44-.36,3.43-.44l3.9-.31c4.38-.35,2.9.63,7.93.08,2.96-.32,9.69-1.39,10.39,2.59-2.75,6.56-3.88,3.28-6.47,8.07-.46.85-1.57,1.66-2.35,2.37l-2.78,2.54c-.53.48-1.63,1.17-2.12,1.7l-2.42,2.59c-.36.39-1.16.98-1.49,1.44-.89,1.27-1.9,2.18-3.1,3.09l-.51.39-.49.39-2.59,2.17c-.08.07-.43.28-.57.36-5.2,2.74-6.74,5.16-7.83,5.79-.32.18-.86.49-1.05.35l-.87-.66c-.15-.11-.85-.15-.78.03.73,2.04,2.2.54,1.07,1.56l-2.16,1.96c-.39.35-1.4.87-1.89,1.19-3.2,2.12-7.03,4.46-10.39,6.22l-5.52,2.88c-1.03.54-1.98,1.41-4.59,2.87-1.39.78-2.6,1.74-3.85,2.63l-2.38,1.69-2.17,1.5c-2.62,1.81-2.49,1.73-5.58,3.1-3.91,1.74-2.51.45-7.73,1.37-4.04.72-5.06,1-8.8,3.07l-3.33,1.84c-.37.2-1.2.5-1.61.67-3.16,1.36-4.24,2.03-7.68,2.16-2.68.11-5.74,2.43-7.57,2.35l-2.6-.1-3.22.63-1.97-1.05c-2.62-1.4-5.15-2.49-8.02-3.42l-1.69-1.27c.1.08-1.91-.36-1.41.54l1.84,3.31,1.75,3.15,1.24,2.32c.94,1.76,3.17,6.74,1.84,8.4s-4.61,1.95-6.69,1.23c-.44-.15-1.7.12-2.22.19-8.17,1.18-2.56,1.75-11.06,4-.79.21-2.04,1.41-2.8,1.5l-3.61.47c-2.19.28-2.22.24-4.02,1.08-2.35-.07-6.88,1.72-8.1,3.87l-3.53,1.34c-2.38.9-2.15-.73-4.03-2.06-1.18-.84-1.95-1.86-2.88-2.89l-3.13-3.5c-3-3.35-3.21-2.08-3.33-5.11l-1.66-.65c-1.44-3.16-1.01-.64-3.63-3.54-.58-.64-1.14-1.06-2.07-1.53-.56-.29-1.24-1.27-1.7-1.66l-2.43-2.06c-.48-.4-.86-1.4-1.07-2.1l-2.39-1.48c-.46-.29-1.35-1.25-1.68-1.7l-.92-1.37c-2.7-3.17-1.06-3.35-4.42-5.66l-.91-1.66c-4.49-1.83-1.88-1.49-5.11-4.62-.66-.64-1.72-1.9-2.43-2.22-1.39-.55-2.69-1.09-3.7-2.1-4.25-4.24-1.29-.71-4.8-3.48l-2.28-1.8c-3.43-2.71-.12-.3-2.78-3.3-3.69-4.15-2.8-1.68-5.03-3.65l-3.1-2.74-1.88-1.66-2.48-1.89-2.18-1.81c-.7-.58-1.97-1.55-2.5-2.22l-3.12-3.91-.95-1.37-2.16-1.68-1.89-2.55c-.53-.72-1.16-1.53-1.75-2.18l-3.31-3.68c-.95-1.06-1.7-2.07-2.79-2.96-.9-.73-2.34-1.48-3.05-2.13l-2.77-2.56-3.34-2.87c-1.06-.91-2.59-1.18-3.94-.77l-2.52-1.58-3.06,3.29c-3.45,3.71-1.32.83-4.73,4.51-2.03,2.19-.75,1.22-3.16,4.27l-1.77,2.24c-1,1.26-2.35,2.33-3.21,3.76-.67,1.11-1.23,2.78-1.95,3.68l-2.58,3.22-1.56,1.98c-2.2,2.8-3.05,3.47-4.56,5.5l-2.09,2.81c-1.49,2-1.03.81-3.28,4.19-.66.99-1.91,1.91-2.72,2.89l-2.8,3.37-2.81,3.32-2.17,2.68-.81,1.34-2.21,2.7c-.53.65-1.09,1.58-1.57,2.34l-1.41,2.26c-.84,1.34-2.66,2.62-4.16,4.81l-2.19,3.19c-.57.83-1.06,1.9-1.61,2.79l-3.34,5.41c-.44.71-.88,1.78-1.3,2.6-2.31,4.52-1.93,2.39-3.22,6.52l-.8,2.55c-.58,1.84,1.07,3.46,1.89,4.89l1.96,1.07,1.98,2.83,2.55,3.63,1.94,2.93c.81,1.22,4.33,4.91,5.81,6.79,1.78,2.27,3.19,4.65,5.68,6.29l2.41,1.59,2.11,2.12c.81.43,1.92.94,2.49,1.44l2.63,2.31c1.09.96,2.12,2,3.01,3.12l1.76,2.24c.67.85,1.42,1.8,2.21,2.64,1.1,1.18,3.41,2.61,2.51,4.69l-1.03,2.39-1.71.92c-.13.07-.66,0-.78-.04l-1-.38c-1.32.4-2.69.66-4.06.69l-4.02.11c-.86.02-1.77.06-2.68.14l-3.86.31-4.04.33c-4.23.34-.7-.85-5.58,0l-8.96,1.58c-1.38.24-3.18.1-4.67.2l-2.66.16c-.81.05-2.15.46-3.11.58l-2.56.32-4.03.44c-4.56.5-2.59.78-5.81.32-.47-.07-1.62.13-2.11.13h-2.61c-1.39-.02-2.66.4-4.17.78-1.97.49-4.56.04-6.73.34l-2.16.31-3.06.18-2.32.21-14.02.18c-.92.01-2.44.41-3.43.49l-4.44.34-3.98.28c-2.76.19-5.52.14-8.31.07s-3.75.21-5.57.15l-4.12-.13c-2.12-.06-4.13.37-6.25.7-2,.32-4.28.24-6.37.34l-2.34.1-3.9.1-4.32-.72-3.96-.11c-1.43-.04-3.85-.67-4.77-1.81-3.46-4.29-2.03-4.8-3.55-8.18-.46-1.01-.95-2.21-1.46-2.93l-.96-1.35-.38-.54c-.71-1.01-2.78.05-3.67,1.42-2.37,3.62-5.18,8.86-6.57,12.77l-1.49,4.24c-.79,2.24-1.83,2.07-4.95,2.02l-5.21-.09-3.11-.11-2.87.62c-1.07-.13-1.91-.16-2.88.07-5.14,1.19-2.28-.16-6.12.99-.65.19-3.49-.08-6.07.06-4.83.26-2.34-.26-5.25-.45l-3.37-.22c-2.56,1.51-3.14-.47-6.63,1.46-.7.39-1.24.64-1.87.92l-.89.39h-5.71c-.45-1.37-3.89-.15-4.01-3.04-.11-2.64.66-1.29,2.09-4.12.91-1.81,1.65-3.34,2.4-5.11l1.15-2.73,1.26-3.23c1.22-3.12,1.44-.66,3.11-3.78l1.27-2.38,1.98-2.75c1.6-2.22,4-8.3,5.48-10.78.69-1.16,1.33-2.19,1.89-3.37l1.57-3.31,1.33-2.07,2.66-5.32c.4-.8.83-1.87,1.17-2.73l.76-1.91c2.09-2.68.47-1.19,1.92-3.78l.98-1.75c2.31-1.85,3.32-4.01,4.83-6.48l2.36-3.85c.79-1.3,1.42-2.68,2.12-4.04l2.08-4.05,1.32-1.65,1.76-2.66,1.23-1.86c.76-1.14,1.51-2.3,2.35-3.35l2.16-2.7c.99-1.23,1.98-2.88,3.03-3.94s2.11-1.99,3.04-3.12l2-2.44,2.92-3.71,3.01-3.43.72-1.11,1.24-1.43c1.01-1.17,2.42-2.4,3.28-3.61l2.2-3.11c2.63-3.72,1.57-1.83,4.17-5.1.56-.7,3.69-4.98,3.31-4.57l4.2-4.55,2.03-2.38,3.03-3.55,3-3.58,3.56-4.35,4.62-5.93,5.87-7.32c.42-.52,1.12-1.5,1.57-1.87,4.7-3.93,2.01-3.45,4.39-5.28.78-.59,1.42-1.27,1.88-2.06,1-1.72,2.21-2.98,3.44-4.5l2.95-3.64c.63-.78,1.36-1.64,2-2.33l1.94-2.07c1.36-1.45,4.77-5.63,4.37-5.23l4.87-4.87c.57-.57.96-1.28,1.62-1.94l3.44-3.45c.78-.78,1.34-2.02,2.1-2.72l2.05-1.9c1.52-1.4,2.73-2.79,4.31-4.12.74-.62,1.53-1.46,2.13-2.19l2.2-2.65,2.45-2.87c.67-.78,1.71-1.55,2.37-2.38,2.78-3.46,3.09-2.44,4.27-4.04l1.7-2.31c1.27-1.73,3.08-3.73,5.06-4.66l1.57-1.43c.35-.24.72-.5.59-.4-.08-.73-.21-1.14-.14-1.24l.39-.59.36-.53c1.03-1.49,2.87-1.47,3.2-3.31.29-1.61,1.63-2.52,2.9-3.18.1-.68.34-1.7.67-2.07l2.42-2.77c.17-.2.89-.68,1.07-.86l4.7-4.66.86-1.32,4.76-4.61c.27-.27,1.19-.65,1.28-.96.21-.7.86-1.64,1.4-2.08l4.63-3.81,2.1-1.8,2.15-1.86,3.1-2.89,1.38-1.03,6.77-6.73c2.11-2.09,2.1-.69,4.04-2.9l2.51-2.87c.45-.51.99-1.03,1.5-1.52l3.81-3.69c2.56-2.48.49.46,2.32-2.1.84-1.17,2.14-2.2,3.3-3.19l3.78-3.25,2.36-2.11c.66-.59,1.41-1.54,2.08-2.24l8.23-8.44,2.37-2.5,2.82-3.28,2.3-2.54,1.63-1.87,1.62-1.92c.88-1.04,1.91-2.25,2.89-3.2l3.8-3.71c3.38-3.3,1.96-1.33,5.33-4.27l2.83-2.47,2.64-2.15,2.18-1.76,3.44-2.75,5.03-3.75c3.02-2.25,2.56-1.33,6.45-4.5l3.14-2.55,2.74-2.13-.08-.81c-.01-.14-.57-.27-.73-.29l-5.7-.44c-1.41-.11-2.88.13-4.32.25l-3.47.3-1.89.13c-.2.01-.75.07-.86.05l-2.55-.31-4.04-.42c-.68-.07-1.84-.21-2.35-.39-3.15-1.17.36-.38-5.05-.15-1.35.06-2.72.17-3.86.16l-3.18-.02c-4.88-.04-4.38.76-6.94.37l-2.57-.39c-2.31-.35.38-.13-3.05.62l-1.53.34c-.9.2-1.96.35-2.67.57l-3.43,1.06c-1.69.52-3.61.33-5.35.08l-3.98-.58c-.95-.14-2.95.42-4,.71-4.54,1.27-4.74,2.13-9.74.74-1.12-.31-1.97-.49-2.95-.43l-2.16.15-3,.18-2.67.12c-1.69.07-3.45.32-5.12.1-1.5-.19-2.68-.11-4.16-.04l-6.5.3c-.88.04-2.08.23-3.02.39l-3.47.59c-1.51.25-2.92.56-4.44.69l-3.58.31c-1.13.1-2.68.09-3.68-.01-.64-.37-1.21-.77-1.52-.57-.26.17-.89.57-1.05.59l-3.81.41c-4.3.46-4.49,1.67-9.19,2.26-1.38.17-2.34.38-3.67.88l-2.17-.31c-3.23-.46-1.34-.97-2.79-.78l-1.49.2-3.14.41c-1.22.16-3.12-.02-4.18.29-8.22,2.38-9.47.15-12.27.08l-3.43-.08c-1.17-.03-2.88.4-4.23.6l-3.02.45-2.18-.65c-1.05.17-2.55.49-3.43.51l-2.83.08-5.61.27c-.47.02-1.16-.06-1.7-.19-7.28-1.67-4.42-.99-10.15-.81l-4.25.13c-4.35.14-.65.33-4.99.57-4.06.22-.9-1.07-8.3-.7-1.61.08-3.76,2.29-10.67-.43l-2.6.36c-4.68.66.45.94-6.92.38-3.94-.3-4.89.49-6.14.38-7.8-.69-2.67.5-10.59.69-.32,0-.96-.06-.89.11l.36.91c.13.33-.14,1.3-.45,1.44-4.73,2.31-3.1.61-5.86,2.45-2.59,1.73-2.94-.12-4.97.06l-3.37.31c-.06-.14.06.15.16.39l.44.9.18.81c.05.21.14.54.18.68l1.35,4.36c.25.82.52,2.43.51,3.3-.04,6.04,4.38,2.23,3.22,7.51.05.83.29,2.09.5,2.92l1.43,5.66c2.14,8.52.44,1.38,2.42,6.74l1.55,4.2c1.37,3.72-.32.55,1.68,5.63l.88,2.23,1.01,2.51c1.92,4.78.4.39,2.67,4.81l1.22,2.37c.48.94.89,2.04,1.32,3.05l2.91,6.72,1.22,2.73.98,2.1c.93,1.99,1.2-.06,2.77,2.45l2.22,3.55c2.85,4.56-.24,2.88,5.92,9.34.54.56,1.86,3.29.82,3.96-.28.46-.35.59-.29.46s1.38.08,1.45.21c.97,2.07,1.74,6.19,2.19,8.8l.85,4.95c.14.79,1.08,2.4,1,3.16l-.35,3.22c-.22,2-2.07,4.96-3.33,6.66l-1.93,2.59c-1.14,1.54-3.84,10.64-4.41,11.68l-2.5,4.54-1.25,2.28-1.58,2.9c-.6,1.09-.97,2.61-1.56,3.72l-1.18,2.2-.98,2.67-1.19,3.03-1.75,4.44c-1.86,4.73-.52,3.63-2.14,7.48l-1.45,3.45c-.4.94-1.04,2.35-1.76,2.95l-3.22,2.66c-.69.57-1.51,1.2-2.34,1.56-5.54,2.41-4.69-.8-8.43,2.55-.52.47-1.61,1.43-2.2,1.67l-3.52,1.38c-1.93.75-4.12.97-6.22,1.29-2.82.43-.9-.24-6.04-.1l-3.04.08c-.7.02-5.77.77-5.94.85-1.31.57-3.19,1.43-4.39,2.14-1.78,1.06-3.24,3.11-5.17,3.93l-4.34,1.84c-3.84,1.63-2.07,1.8-3.78,2.14l-5.36,1.08c-2.57.52-2.77,4.73-7.4,4.78l-2.14.03c-1.74.02-2.54-2.31-5.16-2.52l-3.68-.29c-.82-.07-2.45.65-3.47.73-1.83.15-3.67-.52-5.39-.89-1.11-.24-1.86-.64-2.81-1.38-1.47-1.16-3.06-2.19-4.22-3.69-.81-1.05-1.35-2.29-2-3.33l-1.16-1.86c-.62-.98-1.31-1.8-2.09-2.69-2.85-3.24-2.35-.07-4.64-2.4-.34-.35-.71-1.1-.67-1.47.11-1.03-.99-2.84-1.01-3.77l-.2-10.55-.02-1.87c0-.57-.04-1.66-.21-2.15l-1.13-3.24c-.95-2.71-1.75-6.52-1.95-9.4l-.3-4.39c-.13-1.94-.15-3.75-.16-5.66,0-1.3-.03-3.06.5-4.09.69-1.34-1-.54-.93-1.16l.24-2.28c.19-1.73-.07-3.58-.17-5.28-.22-3.65-.61-6.92-1.32-10.45-.12-.59-.16-2.01-.1-2.59l.24-2.28c.22-2.09.41-3.95,1.26-5.72l-.18-1.27,1.89-3.76c.51-1.02,2.38-1.79,3.28-2.39l1.71-1.13c1.41-.93,1.95-3.4,2.87-4.42l3.5-3.92,2.32-2.99,2.18-2.77c1.71-2.17,1.1-3.87,1.63-5.75l.88-3.14c.26-.94.58-2,.94-2.94l1.12-2.87,1.17-2.82c.37-.89,1.08-2.26,1.63-3.04l1.83-2.61c.19-.27.76-.88,1.01-1.16l1.34-1.49c1.06-1.18,1.49-3.15,4.16-6.17s.31-.36,3.04-6.16l1.12-2.38c2.53-2.22-.18-1.05,3.05-4.66.67.13.57.11-.11-.02-.07-.64-.09-.77-.09-.99,0-.15.54-.52.63-.66l1.76-2.9c.56-.92,1.13-1.94,1.56-2.82l1.47-3.05,1.55-2.67,1.78-3.59c.71-1.44,1.56-2.94,2.12-4.39l1.23-3.19,2.1-5.43c2.86-7.39.72-4.63-.51-9.35-.07-.25-.2-.89-.38-.85l-3.32.8c-1.69.4-3.49.44-5.13.13-3.26-.62-1.15.25-6.7,1.29-1.02.19-2.16.11-3.23-.04l-3.45-.47c-3.52-.48-7.4,3.83-14.08,2.67l-2.09-.36c-3.72-.64-6.1.64-8.14-.51l-2.31-1.31c-2.4-1.36-6.37-.24-7.1-.41l-4.96-1.15c-.87-.2-2.58.59-3.44.73-5.91,1.01-2.17,2.31-6.51,2.96l-2.22.33c-.16.02-.74-.5-.75-.53,1.3-5.7-2.15-3.62.09-11.41.73-2.52,2.89-9.3,5.13-10.17l4.28-1.66c3.36-1.3,2.51-3.14,9.2-3.63,1.37-.1,2.57-.25,3.89.22,2.53.89.5-.14,5.76.1,4.71.22,5,1.44,6.19,1.49l8.18.31c1.49.06,2.6.21,4.01-.19,3.93-1.11,7.13-1.23,11.18-1.2,2.95.02,5.17-1.86,7.7.93l3.06.86c.69.19,1.87.32,2.64.33h1.12c.19.02.38-.71.34-.9l-.44-2.02c-.19-.86.25-1.96.96-2.55l1.75-1.44c.42-.35,2.15-.02,2.3.51.86,2.91-.75,3.28-.11,7.4l.19,1.25c.25.4.45,1.09.2,1.33-2.83,2.63-.36,2.76-1.13,6.98l1.08,3.35,1.01,3.39.94,3.14,2.48.42c5.76.97,7.6,2.67,12.84,1.75,2.63-.46,2.36-1.96,4.88-2.1l-2.32-4.49c-1.8-3.49-.13-2.81-1.17-4.86-.7-1.38-.56-2.66-.49-4.17.15-3.17-1.65-2.72,1.8-7.94.15-.22.99-.45,1.26-.46,2.19-.11.06,7.7.79,9.64l1.09,2.89c1.39,3.7,3.14,5.76,5.85,8.67,1.01,1.08,4.02,2.32,5.44,2.01l4.77-1.05c7.03-1.55,7.1.67,8.81-.3l2.59-1.47c2.05-1.17.38.43,1.67-4.01.13-.46,1.23-1.22,1.72-1.28l3.09-.36,2.11.6,4.39-.95c.88-.19,2.27.04,3.16-.03l3.89-.32c1.11-.09,2.1-.13,3.14-.06l5.17.35c3.56.24.55-1.28,5.86-.35l4.65.81c.57.1,2.04-.16,2.7-.27l3.04-.53c.6-.1,1.66-.16,2.31-.03l4.78.93c.37.07,1.46-.08,1.84-.11,4.67,1.16,7.82-1.37,10.61-.43.68.23,1.84,1.12,2.39,1l2.56-.58,1.35,1.15c1.76-.5,4.37-.55,6.11-.6l4.18-.11,8.46-.37c-.27.01,4.38-1.73,7.8-.85,1.32.34,2.41.66,3.73.77l3.4.29c5.2.44-1.2.57,4.07-.12,4.08-.53,1.33-1.24,5.42-.5l1.56-.04c3.29-.08,4.44-.55,8.35-.06,1.6.2,2.83.18,4.34-.23l5.98-1.61c1.34-.36,2.82-.54,4.25-.67l3.1-.29,2.52-.2c.41.21,1.37.71,1.78.83,1.54-.68,7.63-.92,7.95-1.1,3.34-1.87.2-.02,5.6-1.41,3.88-1,7.43-.98,11.53-.6,7.22.68,5.54-.49,10.97-.31l4.08.14,4.03.72c1.28.23,3.17-.44,4.7-.74l6.05-1.19c.71-.14,2.33.46,3.03.53l3.7.34c1.11.1,2.51-.46,3.6-.69l6.91-1.5,6.5-.13,5.39-.9c.8-.13,2.18.43,2.96.81l2.56-.46c1.69-.3,3.61-.87,5.2-.91.77-.02,2.34.73,3.07.55,1.38-.33,2.45-.16,3.77-.1l5.61.26,1.24.03c.82.02,2.02-.05,2.76.17l2.67.79,5.69-.96c1.57-.26,3.68.51,5.28-.13l3.87-1.55,4.66-.3c2.87-2.82,1.75-1.29,5.14-4.1l2.13-1.77,2.27-1.78c.47-.37,1.18-1,1.57-1.45l3.29-3.76c1.31-1.5,8.38-4.97,5.48-5.5-.72-.13-2.22-.54-3.11-.76l-1.78,1.19-1.11.74c-1.87-.43-4.47-.2-6.4.46-2.39.83-4.5.44-6.93.33l-5.21-.25-4-.7c-1.21-.21-3.16-.31-4.29-.07l-1.89.41-6.11.02c-.95,0-2.55-1.16-3.38-1.09l-2.71.25-2.58.2-4.86.84c-.72.13-2.26-.22-2.98-.38-6.58-1.39-3.65.02-8.72-1.37-1.12-.31-3.25-.36-4.47-.15l-4.1.71c-.95.17-2.08.34-3,.41l-3.07.26-3.54.3-3.51.29c.09,0-2.77-.14-3.4-.34-.87-.28-2.33-.79-3.12-.79l-8.44.03c-.49,0-6.39,1.24-6.1,1.24l-9.7-.04c-1.38,0-2.61.08-3.99.31l-3.11.51c-.86.14-2.12.47-2.95.48l-5.56.07-2.01-.39-9.97-.12c-4.28-.05-1.07-.15-6.57.64l-3.5.5c-.85.12-1.8.04-2.77-.04-1.4-.11-6.96-.17-7.8-.03l-5.56.97-2.85,1.26-1.53.08-3.2.75c-3.91.92-9.6-.85-12.24.05l-2.61.89-4.56.88c-.51.1-1.67.16-2.19.12l-3.03-.27c-.98-.09-2.22-.21-3.16-.23-2.21-.05-4.62,1.31-6.94,1.45-1.88.11-4.36.45-6.06.08l-1.87-.41c-2.43-.53-8.23.44-10.93,1.3-6.86,2.2-5.75-.19-11.28.54l-3.23.43-4.78.7c-.46.07-1.66-.03-2.15-.09l-3.56-.41c-1.64-.19-3.2-.72-4.86-.41l-3.6.67c-3.56-.51-5.45-1.09-9.2.02-4.16-.21-1.02.84-6.61.03-1.1-.16-2.4-.13-3.48-.03l-1.17.1c-1.9.17-3.81.11-5.71.06-1.43-.03-2.85.36-4.18-.59-.77-.55-2.06-.63-2.7-.08l-2.22,1.9c-1.44,1.23-2.64,2.23-4.47,3.03-2.46,1.07-.57,1.22-4.26,4.23-.26.01-1.12-.68-1.36-1l-1.31-1.76c-.12.19.07-.11.2-.31l1.84-2.73c.63-.93,2.76-2.16,3.89-2.36,1.41-.26,2.45-.41,3.2-1.26l2.53-2.89c.51-.59,1.03-1.28,1.53-1.95l1.34-1.77,1.52-2.01c.87-1.15,1.67-2.54,2.22-3.85l1.06-2.5,1.56-3.7c1.07-2.53,1.87-4.05,3.24-6.41.33-.57.67-1.88.99-2.54.69-1.44,1.47-2.84,1.77-4.34l.94-4.74c.86-4.35.03-3.74,1.12-8.09.89-3.53,2.63-1.17.97-6.47-.08-.25-1.02-.99-1.28-.9-.85.28-2.21,1.54-2.86,2.4l-1.86.75c-1.06.86-2.05,1.52-3.22,2.09l-3.61,1.76c-1.53.74-3.02,1.62-4.71,2.19-1.26.43-2.35,1.07-3.23,1.98l-2.83,2.95c-3.1,3.22.02.79-2.99,4.44-.23.28-.47,1.18-.64,1.56l-1.76,3.96c-.34.76-.8,2.45-1.52,2.67-.93.27-2.65,1.1-2.57,1.86.17,1.6.7,3.5,1.5,4.54l1.59,2.07,1.34,1.75c.17.22.78-.36,1-.6l2.72-3.07c.67-.75,1.32-2.3,1.95-3.24,1.21-1.79,2.08-3.4,3-5.39s3.46-6.27,4.87-7.78l1.73-1.85,1.56-1.66c.48-.51,2.13.39,2.87.96-2.92,4.19-2.75,1.36-5.21,6.16l-2.82,5.51-.99,2.06c-.68,1.41-1.39,3.06-2.22,4.31l-2.67,4c-.81,1.21-3.09,3.53-1.56,5.33l1.98,2.32.04.52-1.37,1.77c-.51.66-2.84,1.21-3.4.46l-1.48-1.97c-3.37-4.48-.83-2.16-2.59-4.31-.76-.92-1.17-1.49-1.7-2.41-2.5-4.34-3.05-2.12-3.77-5.95-.61-3.28-.68.6-2.45-6.17-.56-2.13-1.03-4.71-3.62-5.36l-1.7-3c-.46-.82-1.26-2.88-2.21-2.9l-6.28-.15c-.76-.02-2.37-.42-3.05-.73l-2.98-1.34-3.78,1.03c.34,1.32.58,2.58.97,3.38l2.48,4.97.89,1.32c.44.66.89,2,1.35,2.61,1.11,1.47,1.6,3.2,2.5,4.65,1.26,2.05,3.1,4.32,3.57,6.75.04.21.37.79.53.73s.67-.25.82-.35l2.61-1.67c.33-.21,1.51-.27,1.95-.35l1.11-1.6,1.81.26c.36.05.89,1.05.82,1.41-.13.66-.48,1.31-.8,1.5l-2.24,1.34-2.17,1.31c-2.03,1.22-4.01-.19-6.34,7.01l-2.78,1.53c-.75.41-2.27-1.17-1.89-1.64.09-.11.67-.44.72-.58,1.2-2.88,2.11-3.62.5-5.31-1.09-1.14.15-1.38-1.16-6.1-.28-1.01-.71-1.82-1.33-2.72l-.39-2.28-1.37-1.62c-.81-4.23-1.95-3.18-2.65-5.56-.36-1.22-.7-2.31-1.24-3.3-1.67-3.06-1.52-4.02-2.51-3.96-.23.01-.84.04-.95-.05l-1.69-1.21c.5-3.74,1.61-4.82,4.85-5.75,1.33.17,3.09.15,4.48,0l3.04-.33.78,1.29,4.36.73,2.73.4c.92.13,2.01.35,2.88.58l2.04.55c.95.25,2.29.75,2.83,1.41l1.43,1.76,1.58,2.01c1.81,2.31,2.39,1.41,3.03,6.62.04.35.59,1.25.9,1.11,2.36-1.05,2.01-2.57,3.2-4.58l4.78-8.04c.56-.94,1.44-2.2,2.13-3.01l2.12-2.48c1.36-1.59,1.1-.14,4.91-1.42l3.15-1.06c.63-.21,1.9-.88,2.51-1.29l2.09-1.41c2.85-1.92.48.44,3.93-2.31.67-.54,1.84-1.07,2.76-1.55l2.24-1.17c.45-.24,1.75-.23,2.21,0,2.39,1.81,2.7.68,3.43,2.21l1.28,2.7c.39.82-.63,2.64-.81,3.6-1.02,5.54-2.2.57-2.9,7.85l-.26,2.69c-.12,1.21-.44,2.37-.91,3.47l-1.87,4.29-2.24,5.29c-.29.69-.86,1.52-1.26,2.28-.68,1.29-1.11,2.95-1.67,4.47-.52,1.39-1.33,2.75-1.97,4.1-.77,1.63-1.39,3.32-2.08,5.02l-1.05,2.6.08.71c1.22.43,2.16.56,3.39.56l2.45.59c1.21.29,2.67.47,3.94.4l3.4-.17h4.93c2.78-.02.23-.69,7.48-.77.43,0,1.55.83,1.97.76l3.1-.55c.82-.15,1.98.04,2.93.11l4.29.31c2.81.2,4.73,1,6.81.6,1.11-.21,2.35-.54,3.16-.53l3.11.03h3.29c9.98.02,6.45-2.89,17.39-1.84,2.03.2,3.79.29,5.76,0l2.12-.31c1-.14,2.03-.14,3.16-.27l3.98-.46,4.27-.18c.4-.02,1.07-.02,1.45.03,7.22.85,8.35-2.61,15.35-1.3l1.28-.68,3.44.58c2.22.37,4.6-.27,6.81-.89,3.4-.95,3.05-.49,6.66-1.32,5.46-1.26,3.59,0,7.59-.33l4.06-.34,3.37-.49,4.03-.45,4.69-.35c1.81-.13,2.89-.44,4.83.2,1.7.56,4.26.13,6.18.41.86.13,2.02.34,2.64.3l2.23-.17c.98-.08,2.1-.16,3.15-.36l5.23-.98c1.4-.26,3.25,1.12,5.65.09,1.81-.78-.39.31,4.12-.13l3.02-.29,3.49-.63,5.41-.63c1.06-.12,2.99.02,4.17.17l4.01.5c1.83.23,3.45.08,5.3,0l6.14-.27c2.2-.1,4.38-.96,5.63-1.05,5.72-.41,2.34-1.13,6.39-.06l2.25.59c.63.17,1.93.18,2.82.21l3.54.09,4.85.13c1.19.03,3.03-.57,4.29-.63l3.53-.18c.5-.03,1.52-.03,2.3.11l2.31.41h12.04c.48-.02,1.54-.25,1.96-.19,4.72.73,5.76,1.85,9.83.64,2.58-.77,3.22.23,7.36-1.11,3.26-1.05,1.86.64,6.1-1.34,1.65-.77,2.94-.62,4.7-.81,2.31-.24,8.48-2.38,8.3-2.37.56-.02,2.08.35,2.59.1,1.14-.57,2.85-2.33,3.94-3.15l2.59-1.93c.7-.52,1.35-1,2.05-1.47l3.13-2.12,2.3-1.64,3.06-2.25c1.63-1.2,3.17-2.77,4.55-4.13.44-.43,1.56-1.08,2.04-1.47l2.45-2.01,2.18-1.75,3.23-2.53c.71-.56,1.48-1.19,2.3-1.63l4.59-2.5,4.79-3.06c.54-.34,1.74-.91,2.1-1.35l1.93-2.4.88-3.95-.1-2.07.54-3.13c1.13-6.58,1.83-5.22,2.62-8.8l1.04-4.76.72-3.09,1.83-7.52c1.1-4.53.95-1.03,1.77-5.84l.83-4.93.85-4.97c.19-1.1.91-2.94,1.37-4.04l1.84-4.4c1.77-4.23.04-4.33,2.27-7.72,3.01-2.67,1.85-5.03,4.54-8.6l1.75-2.32c.55-.73,1.25-2.17,1.74-2.93.82-.13,1.76-1.44,2.42-1.67,3.45-1.24,6.54-1.69,10.53-2.95l4.72-1.48c1.31-.41,4.69-1.01,6.33-1.24l3.91-.56c1.15-.16,2.36-.56,3.53-.66l3.58-.3,3.44-.26,3.1-.39,3.96-.48c1.02-.12,2.01-.2,2.97-.25,2.75-.13,15.88.79,18.07.36l1.86-.37c1.32-.26,3.36-.02,4.71-.17l4.03-.44c1-.11,2.02-.08,3.05-.02l5.27.28,3.49.37,2.48.22,4.88.44c.5.05,1.75-.25,2.24-.15,3.57.69,2.91-.23,6.63-.46l4.34-.27,2.37-.15c1.47-.09,7.17-.95,6.89-.95L638.38,0c4.16-.01,3.6.67,7.21.19.44.23,1.52.87,2.04.96l2.69.45c.85.14,1.83.46,2.72.73,5.26,1.59,4.12,1.43,7.14,4.31s1.93,5.39,2.61,9.63l.49,3.06c.23,1.41.07,3.25-.03,4.72l-.36,4.89-.21,4.29c-.08,1.68-.21,3.31.07,5.04.99,6.2,1.48.08.22,8.65l-.39,2.7c1.29,5.65-1.14,5.87.73,8.5l.15,11.08c0,.64.69,2.14.81,2.77-1.05,4.63-.18,4.52.21,8.73-.21,1.61-.18,3.21.14,4.82l-.8,1.44c.41,1.71.05,4.01-1.42,5.01l-2.38.41-1.52-.89c-4.42.53-1.5-.14-7.07-.02-2.41.05-4.39.35-6.71,1.32-.83.35-2.21.4-3.09.56l-3.67.64c-7.88,1.37-3.13.1-9.55,2.23l-4.29,1.42c-.88.29-1.83,1.03-2.6,1.26-1.95.59-3.47,1.32-4.87,2.69l-3.12,3.07c-3.63,3.58-4.39,2.89-8.87,6.42l-2.52,1.98c-.51.4-1.97.91-2.45,1.36l-1.82,1.74-2.88,2.88c-.7.69-1.54,1.39-2.33,2.02l-2.18,1.77-5.09,4.18c-2.89,2.37-4.33,4.62-7.41,7.47l-2.22,2.05c-.04-.08.11.26.21.48,2.38-1.08,4.71-1.19,7-.62.57-.12,1.85-.6,2.37-.53l3.32.44,4.38-.88c.85-.17,1.83-.26,2.72-.3l2.65-.11c1.25-.05,3.06.22,4.48,0,.85-.14.6-2.52.62-3.4.04-1.61.7-4.25.77-5.88.05-1.15-.36-2.92.21-3.6l1.68-2c1.14-.27,2.56-.81,3.9-1.28l3.42-1.2c.93-.33,2.71.92,3.54,1.41l1.98,1.14c.99-.6,2.18-1.26,3.15-1.44l2.35-.44c2.55-.48,5.1,1.51,6.66,3.34.96,1.13,2,.82,3.21.26,1.37-.63,3.16-.76,4.75-1.01,2.26-.36,4.02-.21,5.84,1.85l1.69,1.92c4.1,4.66.9,9.39,3.2,10.29.78.31,2.49.25,3.21.02,4.83-1.53,6.54-.3,11.05-.07,1.81-1.44,3.07-1.85,5.37-2l5.34-.35c3.79-.25,1.86-1.33,5.98-1.03,6.33.46,3.47-.92,7.65-.5,1.25.13,2.66.15,3.82.33,5.97.94,5.49-.89,9.51-1.65,4.49-.85,4.56-1.01,9.03-.67,2.25.17,3.63,3.13,4.51,5.04.72,1.55,1.02,4.99,1.58,5.02ZM200.35,500.43l2.65.03c1.78.02,0-.07,3-.36l1.81-.17c4.79-.45,3.84.27,7.86.05l3.95-.22c2.19-.12,2.06,1.1,4.33.69l4.67-.85c3.8-.69,2.97.97,4.97-.03.38-.19,1.11-.57,1.36-.59l3.36-.21c1.35-.09,2.41-.13,3.71-.03l1.73-.16c6.96-.63,4.51,1.33,8.99-.28.97-.35,2.88-.14,4.12-.25l6.09-.56c.78-.07,1.84-.23,2.65-.37l3.04-.54c6.71-1.19,4.36,1.66,9.06-.04,1.28-.46,2.81-.57,4.19-.76l5.28-.72,2.72-.37,3.47-.48,4.67-.25c-.19.01,10.4-1.92,10.6-1.93l6.98-.27,3.26-.16c.9-.04,1.98-.11,2.93-.23l3.12-.37c.33-.04.92.02.89-.16l-.14-.97c-.01-.08-.27-.42-.35-.53l-2.44-3.28-.38-.48-1.56-1.97c-1.28-1.61-2.74-3.12-4.4-4.34l-3.82-2.82-2.96-2.3c-1.03-.8-2.01-1.83-2.81-2.87l-1.74-2.26-1.61-2.34-2.41-2.85c-.75-.88-1.73-1.85-2.77-2.6-.13-.39-.22-1.5-.26-2.38l-.61-.81-.94-.11c-.08,0-.48-.33-.51-.4l-.28-.59c-1.75-3.71-1.8-2.04-2.44-3.47-1.38-3.07-3.68-2.07-4.6-3.57l-1.84-3.01c-.29-.47-.06-1.84.03-2.44.97-6.64,1.06-4.55,3.14-8.82,2.45-5.05.78-1.37,2.98-5.42.96-1.77,2.15-3.72,3.45-5.24l2.46-2.88c.96-1.12,1.7-2.33,2.49-3.69.5-.85,1.49-1.77,2.11-2.59l2.67-3.53c2.34-3.1.2.01,2.97-3.14,4.13-4.7.49-1.32,3.88-5.34l3.43-4.06,2.17-2.59c.94-1.12,1.94-2.25,2.79-3.38l1.91-2.52,1.55-1.99c.61-.79,1.5-1.38,2.16-2.28l1.99-2.7c-1.42,1.92,5.35-6.6,4.11-5.13l2.64-3.13c.73-.86,1.79-1.91,2.33-2.74l1.43-2.22,1.73-2.66c.51-.78,1.06-1.61,1.61-2.33l1.71-2.23,2.89-3.79c.52-.68,1.25-1.3,1.98-1.94,5.23-4.55,3.73-4.71,6.54-7.04l2.67-2.21,1.85-2.41c.97-.61,2.08-1.31,2.79-2.04l2.64-2.74c.96-.99,2.08-2,3.15-2.95,3.75-3.32.45-.94,4.12-4.25.79-.71,1.41-1.41,2.18-2.28s2.48-1.87,3.18-2.77l3.34-4.24c1.95-2.47,1.43-1.99,3.36-4.51l3.06-3.97,1.74-2.24c.7-.9,1.43-1.71,2.25-2.6.73-.79,1.38-1.89,2.08-2.73,1.59-1.91,3.37-3.6,5.1-5.41,2.33-2.44,1.44-.49,2.14-2.17.48-1.15,1.22-2.06,2.18-2.71l2.64-1.81c1.29-.89.38-.94,2.58-3.54,4.26-5.04,4.71-3.01,7.32-8.15l3.24-3.16,2.14-2.29,2.77-2.97c.63-.68,1.27-1.29,2-1.98,3.97-3.78,1.38-2.23,4.44-5.16,1.7-1.62,3.09-3.33,4.65-5.05l3.75-4.14c1.8-1.98,3.69-3.87,5.68-5.69.78-.71,1.56-1.39,2.2-2.16l1.82-2.2c3.5-4.22,1.19-.59,5.45-5.43l2.08-2.36c1.09-1.24,2.13-2.51,3.35-3.68l3.36-3.23,1.8-1.71,4.53-4.27c.37-.34,1.33-1,1.59-1.4.54-.86,1.33-2.27,1.95-2.81l3.39-2.92c.2-.17,2-2.3,3.39-3.57l2.07-1.91c.59-.54,1.23-1.16,1.76-1.74l2.35-2.54c.77-.83,1.75-1.34,2.64-2.2l2.59-2.52c.82-.8,1.44-1.13,2.06-2.03,1.23-1.77,3.11-3.01,4.73-4.43l2.34-2.06,2.35-2.07,2.86-2.4,3.33-2.83,2.93-2.63c.28-.25,1.2-.68,1.44-.96l2.34-2.78c2.26-2.69,1.36-1.07,4.69-4.11l2.78-2.54,2.09-1.93c.68-.63,1.64-2.24,2.46-2.57,1.17-.48,2.05-.88,2.87-1.62l3.49-3.15,2.27-2.14c1.29-1.22,2.97-2.43,3.87-3.9.39-.63.75-1.23,1.12-1.53,4.22-3.3,2.47-3.19,6.38-6.41,1.18-.97,2.13-1.94,3.11-3.07l2.25-2.6c.66-.76,1.42-1.46,2.18-2.17l4.11-3.82c5.31-4.93,3.61-4.69,11.07-9.6.8-.53,1.65-1.69,2.36-2.37l2.06-1.95,1.83-1.66c1.01-.92,1.99-2.23,3.14-2.94,3.67-2.27,1.85-1.97,5.22-4.86l3.34-2.87,1.03-.89-.56-1.01-4.16-.23-3.58-.28c-5.24-.41-6.5-1.56-12-.72l-3.62.55-2.31.37c-1.19.19-3.28.53-3.89-.56-.64-1.14.35-2.4,1.26-2.66,3.14-.91,1.51-.24,5.73-.81l3.5-.47c5.39-.73,5.48.82,9.71.02,1.26-.24,2.93.23,4.16.15l2.64-.17c1.2-.08,2.48-.02,3.67.2l2.75.52c.8.15,2.04.37,2.62.45,1.05-1.52,2.28-2.88,3.8-3.4,2.19-.74,1.61-1.09,4.74-3.63l2.67-2.16,2.18-1.32c3.38-2.04,2.1-3.14,4.11-4.61l3.34-2.44c2.03-1.48,3.47-1.19,5.66-1.94,7.25-2.47,5.52.31,7.78-2.19l4-.79,3.84-.03,4.81-1.01c1.11-.23,2.48-.55,3.57-.82.48-.12,1.68.02,2.2-.02l4.54-.37c.82-.07,1.61-.2,2.45-.41l1.19-.29c.3-.07.95-.11.9-.3l-.23-.85-.16-.62c-.02-.07.16-.35.23-.45.74-1.18.41-.78.84-3.16l.14-.77c.02-.11-.01-.66-.04-.77l-.19-.69-.19-.73c-.03-.12.01-.66.04-.85,1-8.44-.2-11,.19-16.11l.25-3.22c.17-2.17-.2-4.2-.64-6.32-.58-2.75.36-3.15.35-6.16v-2.85c-.02-1.88-.52-2.17-.75-5.62-.15-2.26.83-4.68.79-6.82l-.08-3.81c-.11-5.55,1.94-6.84,1.41-7.48-.12-.14-.59-.66-.61-.65,0,0,.33-.35.49-.52l.73-.78c.15-.16-1.4-.8-1.63-1.64l-.17-.63c-.94-3.46-1.94-7.34-5.55-8.58-5.53-1.89-1.82-2.22-10.48-2.45l-3.3-.09c-.85-.02-2.55-.67-3.35-.63-1.04.05-2.4.27-3.39.27h-6.28c-.48.01-1.29.1-1.76.16l-3.07.34-2.54.16-6.69.79c-1.95.23-3.81.17-5.77-.03l-4.81-.51c-8.33-.88-5.9.47-12.34-.38-1.57-.21-3.61-.26-5.14-.06l-3.15.42c-1.27.17-3.15.76-4.31.68-2.4-.17-4.34-.27-6.58-.22l-2.15-.21-3.54-.05-3.27-.05-9.02.76c-1.21.1-2.37.08-3.62.31-1.51.28-2.83.43-4.4.47-4.56.12-1.79.72-7.7,1.09-3.47.22.9-.15-3.06.42-2.55.36.49,1.11-6.5,2.67l-6.1,1.35c-.61.13-1.71.31-2.13.59l-2.37,1.61c-.53.36-1.63,1-2.02,1.45-4.29,5.01-1.88,4.99-3.25,6.35-.8.8-2.43,1.94-2.8,2.82-1.03,2.46-1.72,6-2.53,7.7l-1.86,3.94c-.44.92-1.01,2.06-1.26,3.07l-2.3,9.1v3.5s-1.59,4.9-1.59,4.9c-.27.85-.63,1.88-.81,2.59l-.91,3.67c-1.29,5.17-.08,4.07-2.46,10.68-.47,1.31-1.46,5.28-1.65,6.65l-.39,2.81c-.19,1.39.15,3.72-.25,4.96l-1.42,4.49c-.32,1-2.4,1.63-3.23,2.22-2.6,1.85-1.86,1.53-4.98,3.03l-3.61,1.74-2.78,1.51c-.63.34-1.82.81-2.28,1.17l-2.26,1.77c-5.14,4.02-1.7,2.39-5.1,4.49-.8.5-1.68,1.09-2.3,1.61l-2.16,1.85c-.96.83-1.76,1.64-2.65,2.66l-1.77,1.22c-.77.96-1.55,1.7-2.55,2.28l-2.57,1.51c-.56.33-1.47,1.31-2.06,1.76-2.31,1.78-3.97,3.86-5.81,6.07-.58.69-1.18,1.47-1.74,2.34-2.42,2.02-4.09,2.65-6.92,4.82-4.27,3.28-2.99,1.54-6.53,4.81l-3.69,3.41-3.42,3.12-2.07,1.91-2.16,1.73-4.1,3.91c-.84.8-2.43,1.53-3.34,2.26l-2.7,2.19c-.52.42-1.19.93-1.74,1.28l-1.9,1.24-3.74,2.43c-1.26.82-2.61,1.77-3.79,2.69l-5.2,4.06-1.77,1.31c-1.45,1.07-2.85,2.1-4.26,3.19l-2.48,1.91-3.09,2.27c-.55.41-1.28,1.04-1.88,1.54l-2.42,2.01c-1,.83-2.09,1.78-2.99,2.64l-2.96,2.84c-.73.7-1.96,1.35-2.76,2.02-2.13,1.78-4.11,3.8-5.93,5.87l-2.27,2.59-2.14,2.27c-.59.63-1.71,1.55-2.15,2.11-1.19,1.55-2.26,3.02-3.55,4.45l-3.35,3.68-2.16,2.24-1.53,1.52-7.79,7.62c-.43.42-1.46,1.05-1.95,1.49l-3.04,2.68-2.52,2.33-1.55,1.51-1.56,1.5-3.45,3.19c-2.69,2.48-1.54.77-4.84,4.34l-1.26,1.37c-.84.91-1.82,1.7-2.72,2.54l-4.77,4.46-2.24,2.19c-.51.52-1.22,1.1-1.83,1.62l-2.15,1.84-3,2.7c-.68.61-1.28,1.27-1.99,2.01-.87.91-2.43,1.87-3.15,2.81-3.17,4.08-1.7,1.36-5.47,5.6l-1.86,2.09-1.91,2.06c-.85.92-1.74,1.77-2.54,2.7l-5.08,5.93-1.68,2.25-1.99,2.42-2.41,2.86-2.5,3.26c-.95,1.24-2.22,2.45-3.29,3.65l-1.47,1.65c-2.7,3.03-3.62,3.34-4.9,4.72l-1.91,2.06-3.12,3.46-2.98,3.17-1.09,1.11-7.2,7.31-2.31,2.85c-.9,1.12-1.93,1.89-2.89,2.89l-2.8,2.93-1.91,2.03c-.79.83-1.5,1.71-2.23,2.59l-1.99,2.42c-.58.7-1.21,1.46-1.81,2.11l-1.88,2.06-2.22,2.63-2.22,2.64c-2.55,3.05-1.51,2.49-3.76,4.98-1.51,1.67-2.84,3.27-4.24,5.02l-.96,1.2-2.58,3.13-1.4,1.66-3.32,4.18-2.58,3.07-3.06,3.55-2.01,2.37-1.99,2.41-2.19,2.64-1.99,2.4-2.79,3.35-1.81,2.17c-2.57,3.08-2.91,2.81-4.37,4.76l-2.08,2.78-1.51,2-2.09,2.75c-.88,1.16-1.8,2.26-2.76,3.37l-2.66,3.06-2.89,3.28c-.43.49-1.04,1.36-1.5,1.95l-2.72,3.48-1.38,1.63-4.3,5.34-3,3.63c-.55.67-1.22,1.51-1.68,2.21l-1.77,2.66c-.58.88-1.2,1.71-1.83,2.56l-1.67,2.25-1.63,2.37c-1.24,1.81-2.55,3.64-3.61,5.54l-2.08,3.73c-.49.88-1.05,1.94-1.57,2.76l-3.6,5.62c-.44.69-.92,1.46-1.32,2.17l-1.7,3.1-1.53,2.9c-.54,1.02-1.14,2.15-1.78,3.03-2.82,3.88,0,2.51-3.13,4.53l-.43,2.58c-.12.69-1.55,1.67-2.07,2.17-.28.27-.31,1.43-.47,1.78-2.64,5.71-2.02,3.32-4.86,8.28l-1.72,3-3.13,5.72c-.24.45-1.17,1.34-1.31,1.82l-.95,3.36c-1.39,4.93-2.73,5.67-3.91,11.27l3.97-.66c1.13-.19,2.41-.28,3.63-.39l4.11-.38c.81-.08,2.2.41,3.17.69l3.73,1.07c.3.09,1.17-.7,1.49-.71l5.04-.18c.87-.03,1.8-.11,2.48-.2l3.72-.52c5.03-.7,4.28-1.41,9.98-.79.97.1,1.96.18,2.77.04l2.18-.39,1.75-3.71,1.91-3.81,1.23-2.59c1.99-4.21,2.18-4.59,5.52-8.22.98-1.06,2.13-2.06,3.54-2.14l3.69-.2c1.35-.07,2.98,2.26,3.74,3.35l1.62.75,1.36,5.69c.38,1.58,2.92,4.5,3.42,4.7l2.16.86,3.71-.19,1.16,1.2,2.34.28c.99-.46,1.81-.47,2.87-.52l4.39-.19c.75-.03,1.38.1,2.17.38l1.39-.55ZM612.61,155.57c2.42-8.2.36-4.03,1.59-8.51.33-1.21.63-2.43.8-3.59l.39-2.75c.56-3.99-.2-3.81,1.29-5.39l-.64-1.58.48-2.92c.09-.57.57-2.16.19-2.59-.6-.69-1.74-1.29-2.68-1.81l1.64-1.88c-1.53-1.97-1.58-2.57-4.46-2.05-.23.04-.47.83-.4,1.05l.25.76c-.04-.11-2.44,1.33-2.77,6.3-.2,2.96.32,5.68,1.78,8.19.06.35-1.03,1.1-1.27,1.5l-1.51,2.58c1.12,2,.82,4.35,0,6.26,1.37,2.25.76,4.79,1.99,6.59l1.67,2.46c.08.12.39.65.41.65.03,0,.45-.53.48-.66l.77-2.6ZM622.56,157.74c2.36-1.22,4.22-3.68,4.95-5.39l1.85-4.39c.3-.96.65-2.07.76-3.02l.4-3.24.74-4.77c-1.11-4.2.46-4.15.06-9.13l-3.08-2.82c-.54-.5-.94-.94-1.51-1.72-.8-.9-3.05-1.19-4.13-.47-1.66,1.09-2.11,2.81-1.41,4.4-2.68,3.81.65,2.94-2.12,8.45l.75,1.19-.54,1.85-.02,2.36c-.04,3.8-1.02,3.57-.67,7.36,4.36.95-2.03,6.8,3.96,9.34ZM642.69,157.41c2.11-4.77-.15-1.94,1.51-6.73.26-.75.57-2.01.65-2.79l.36-3.58.41-4.07-1.45-1.3-.37-2.9c-.06-.48,1.17-.97,1.72-1.34,1.23-.83-.94-3.14-.49-5.43l.35-1.8c-1.05-.42-1.91-.75-2.59-1.14l-3.08-1.77-1.4.76-3.48.73-.03,4.67-.6,2.77.04,3.31c0,.62-.5,2-.56,2.56l.18,3.64c.17,3.45-.25,2.44-.9,7.43l-.51,3.92c-.13,1.01-.15,2.11.16,3.07l.89,2.69,2.58,3.52c2.58.78,5.76-4.29,6.63-6.24ZM658.89,151.6c5.3-.48,12.69.22,15.79-.41,1.5-.3,3.2-1.09,4.57-.86,1.47.25,2.47.32,3.81.35l2.71.08c3.86.11,6.23-1.41,10.58-2.27l8.99-1.77,3.12-.78c.7-.18,2.24-.85,2.2-1.51l-.1-1.91c.95-.64,1.28-1.73.85-2.67-1.57-3.5.28-1.58-1.95-4.68l-.98-1.72-4.35.43c-4.3.42-3.51,1.03-7.93,2.11-3.75.92-5.6-1.9-12.25-.44-1.69.37-3.51.22-5.27.54l-7.97,1.46c-2.92.53-5.57.85-8.5,1.71l-4.16-.2c-1.25-.06-2.7.25-3.93.34l-3.44.25c-.41.03-1.42.29-1.4.65.05.8.21,2.15.19,2.72l-.07,2.73-.11,3.92c-.05,1.93-.73,3.73-.25,3.49l.88-.44c2.55-1.26,2.7.72,5.72-.18,1.14-.34,2.38-.87,3.21-.94ZM588.86,150.17l3.81-.22,2.31-.14c1.5-.09,2.88.4,4.42.96.87.32,2.69.07,3.74.07.67,0,1.64-.12,1.85-.57.62-1.33-1.81-1.64-1.7-2.22l.23-1.19c.15-.77.38-2.23.33-2.93l-.23-3.47-6.77-1.17c-1.81-.31-5.64.63-6.81.68l-6.19.27c-.86.04-2.64.59-3.46.49l-6.15-.72-.58-1.71-2.1,1.61-3.27,2.51c-2.61,2-3.99,4.06-6.39,6.3l-2.43,2.26c-.82.76-1.13,1.55-1.97,2.73l4.91-1.17c1.37-.33,3.28-.2,4.68-.42l2.67-.42,3.11-.48c.72-.11,1.63-.24,2.36-.17l2.51.26,6.56.1,1.43-.85c.78-.11,2.27-.33,3.15-.38ZM54.68,168.15c7.15,1.58,7.27-2.57,14.34-1.81l1.87-1.77c1.86-1.76,3.47-.38,3.26-1.71l-.42-2.66c-.72-4.62.19-4.53-1.58-4.87l-5.96-1.16c-1.44-.28-2.97-1.08-4.25-1.85-1.15.19-2.72.45-3.87.39l-4.26-.21-4.51.87c-1.42.28-4.5.97-6.18.88l-3.99-.23c-3.16-.18-5.94-.4-8.86-1.72-6.49-.69-5.85,1.44-11-.56l-3.32-.14-2.05.91-3.67,1.64-1.21.89c-2.48,1.34-3.44,2.95-3.81,5.49l-.5,3.49c-.2,1.38-.37,2.87,1.04,3.65l2.44-.43c5.55,2.38,3.91-.82,7.81.18l3.35.85c2.14.54,3.88-.83,6.04-.09l3.02,1.03,2.17.84c.61.24,2.16.52,2.85.51,1.62-.23,3.67-.39,5.31-.06l3.12.62c1.18.24,2.68-.34,3.86-.79l2.96-1.13c1.89-.72,3.66-1.55,5.98-1.04ZM517.71,258.56l1.49,2.2,1.61,2.04,1.62,2.3c.56.8,2.27,1.85,2.83,2.7,2.16,3.32,5.22,6.61,8.4,8.86l1.51,1.07c2.33.82,4.06,2.25,5.49,4.27,2.69,3.77-.77.36,4.57,5.45.5.47,1.42,1.08,2,1.49l2.58,1.84,2.72,2.05c4.38,3.3,1.33,2.03,6.95,7.16.31.28,1.48.57,1.67.93l.85,1.63c3.32.24,3.81,2.32,7.93,2.66,1.06.09,2.77-.42,3.65-.09,1.21.45,2.58,1.01,3.48.95l4.28-.3c2.38-.16,4.73-1.19,7.11-2,.45-.15,1.12-.71,1.64-1.06.85-.57,2.32-1.32,3.36-1.88.53-.29,1.05-1.43,1.48-2.03.7-.96,1.93-2.07,2.75-2.91.69-.71.52-3.03.94-3.89,3.67-7.54,2.42-3.44,5.76-8.78.57-.91.96-2.08,1.27-3.15l.88-3.05,1.34-.73.94-2.57,1.31-3.62c1.23-3.4,1.23-2.6,1.96-6.83l.41-2.37c.85-4.94-.88-5.24.41-7.17.53-.79.73-1.35,1.05-2.23l1.69-4.65.22-1.4c.24-1.54.65-3.23.9-4.82l.44-2.88c.12-.76.38-1.81.64-2.44l1.93-4.71,1-2.58c1.21-3.13-.14-.34.35-4.28l.32-2.58.8-4.51c.09-.5.22-1.5.41-1.89l1.1-2.4c.12-2.3.56-4.35,1.67-6.35l-.46-1.02c.03-.96.03-1.84,0-2.76l-.1-2.12-.16-6.18c-.02-.58-.34-1.84-.47-2.44-1.4-.33-3-.62-4.13-1.17l-2.43-1.2c-.5-.25-1.79-.17-2.45-.17-.53,0-.74-1.66-.52-2.14s1.06-.85,1.78-1.05l2.88-.8c2.36-.66,2.16,3.38,6.67.69,3.72-2.22,3.51-2.15,6.68-5.68,2.69-3,2.2-1.82,3.28-3.7l1.19-2.08c.46-.81.42-2.63.53-3.76l.19-1.87c-4.32.02-4.82-.24-7.38-3.59-2.91-3.81-1.39-4.63-2.45-4.78-.45-.07-1.57.16-1.96.43l-2.47,1.67-5.01-.74-2.16-.32-1.16,1.37c-.5.32-1.84.91-2.42.99l-2.69.4c-.62.09-3.59-2.08-4.28-4.22l-1.39-4.31c-4.76-.72-3.16,1.29-8.07-.34s-6.43-.24-11.24.63c-6.12,1.1-2.26-.5-7.77.21.85.84,1.56,1.33,2.39,1.84-.3.31-.7,1.47-.58,2.03l1.07,4.85.21,2.9c.1,1.37.91,3.08,1.48,4.28.71,1.5,3.1,3.15,4.71,4.06,2.98,1.68,4.69,2.01,8.17,1.64l2.01,1.76c.47.41.36,2.08-.02,2.57-.2.26-.88.89-.96,1.18l-.72,2.68c0,.25.23,1.39.13,1.77l-1.35,5.12-.27,2.89-.63,2.82c-.95,4.26.41,3.21-.95,5.76.04.86.08,2.44-.44,3.13l-1.67,2.27,1.51.63-.65,2.61c-.13.53-.13,1.64-.25,2.32l-.7,4.12-.48,2.82c-.26,1.53-.85,3.26-.85,4.69,0,1.07-.03,1.93-.16,2.91l-.46,3.31-.24,2.28-.2,2.24c-.18,2.04-1.47,8.49-2.13,10.31-.36,1-.92,2.48-1.41,3.36l-2.91,5.27c-.27.48-1.15,1.42-1.52,1.71l-2.84,2.27c-.2.16-.49,1.14-.71,1.25l-2.63,1.28-2.14-1.4c-.2-.13-2.27-2.01-2.96-3.2-1.86-3.2.06,1.54-4.31-5.23l-1.61-2.49c-.3-.47-1.17-1.15-1.76-1.77s-1.16-2.17-1.63-3.06l-1.27-2.37c-.85-1.59-2.44-2.62-2.73-4.7-.09-.63-.68-1.27-1.34-1.68-1.04-.65-1.51-1.7-2.14-2.74-2.2-3.61-4.25-5.79-4.74-10.05-3.15-2.92-.97-2.12-2.49-3.77-2.04-2.22-2.9-4.46-4.03-7.36l-.98-2.53-1.8-5.02c-.33-.92-1.19-2.22-1.69-3.23-.75-1.53-1.42-2.96-2.24-4.42-.44-.78-.81-1.51-1.18-2.35l-1.72-3.91-2.11-5.35-1.89-5.3-3.2,2.99c-2.32,2.16-2.05.73-5,4.56-.33.42-1.56.94-1.95,1.3l-4.47,4.2-2.13,1.82-1.92,1.64-4.3,3.97c-1.54,1.43-3.38,2.44-4.7,4.1-3.37,4.25-5.2,4.29-8.58,8.59-1.54,1.96,1.46,7.16,2.64,9.28,4.42,7.9,4.64,4.45,8.25,10.76.24.43.91,1.21,1.23,1.68l3.01,4.48c.53.79,1.13,1.84,1.66,2.81l1.79,3.36,4.35,4.48-.38,1.58c1.08.88,1.5,1.38,2.12,2.47.68,1.18,1.82,2.24,2.72,3.56ZM564.45,245.76c.78.82,1.42,1.96,2.04,2.97,1.79,2.94,3.47,2.77,6.04,6.21,4.85.07,4.52-3.62,7.67-6.79.45-3.83,1.25-3.69,1.86-7.69l.42-2.76c.7-4.59.63-.55,1.22-6.54.53-5.41.88-1.98,1.1-6.92.05-1.19.52-7.47.62-7.78l.94-3.06c.39-1.28.63-2.68.64-4.09.04-4.82,1.09-1.02,1.31-4.81.29-4.79,1.39-.55.25-6.48-.32-1.64-.24-2.78.4-4.3l.44-3.07c1.5-2.53.32-8.62-3.41-9.33-5.55-1.05-1.23-.84-5.78-3.47-3.37-1.95-2.09-1.71-3.12-3.41-2.77-4.56-.63-4.55-2.01-8.08-2.3-5.87-.18-2.35-1.7-7.8-.05-.19-.57-.69-.44-.78,2.01-1.31.99-.57,1.42-1.36.12-.22-.73-.71-1.04-.71l-6.11.11c-2.1.04-3.69,1.04-6.51,1.27l-2.52.21c-3.14.26-3.98-.44-4.2-.18l-.71.87-3.9,4.07c-.54.57-1.11,1.21-1.66,1.84-2.9,3.35-1.89.58-5.22,3.5l-2.85,2.5c-.74.65-1.45,1.46-2.18,2.19-1.42,1.41-2.84,2.59-4.47,3.94-2.49,2.05.29,9.69,2,11.98l-.03,1.65-.04,2.81,2.4,2.44c.2.2.6.72.44.88l-.74.71c.66.86,1.1,1.54,1.58,2.42l2.22,4.07c1.37,2.51-1.01-.47,1.16,4.84.54,1.33,1.44,2.61,2.28,3.88l.28,2.3,1.36,1.14,1.34,1.91c.67.96,1.21,2.29,1.85,3.42l1.54,2.72,1.38,2.71c.38.76.6,2.48,1,3.42.3.72,1.75,1.79,2.22,2.44l2.97,4.15,1.87,2.65c.38.54.38,1.84.29,2.63.64.79,1.51,1.83,2.23,2.58l1.89,1.98ZM126.67,344.2c.53.03,1.3-.79,1.86-1.19l3.1-2.21c.33-.61.84-2.12,1.2-2.69l1.01-1.63c.47-.76,1.12-1.83,1.4-2.49l2.01-4.67c.37-.86.53-2.58.99-3.35.98-1.63,1.86-2.9,2.53-4.63l1.46-3.79,2.55-5.36,2.31-5.15,1.49-3.33c.26-.58.74-1.44.93-1.95l1.31-3.61c.32-.88.52-2.07.84-3.2.23-.83,1.16-1.91,1.55-2.68.5-.99.9-2.45,1.53-3.37.74-1.09,1.01-1.92,1.3-3.21l.71-3.1-1.08-6.89c-.11-.67-.23-1.27-.44-2.12-.24-.98-.02-3.1-.35-4.03l-1.73-4.91c-1.47-4.17-2.89-2.43-4.32-5.53-.66-1.43-1.42-2.3-1.86-3.52l-1.04-2.93c-.58-1.65-1.63-3.16-2.58-4.46l-2.46-3.36c-.67-.91-.63-2.82-1.01-3.79l-1.83-4.73-.93-2.51-.88-2.27c-.3-.78-.93-1.65-1.47-2.37l-1.74-2.32c-.41-.54-.09-2.43-.6-2.88l-2.08-1.83,1-1.41c-.79-.69-1.36-1.41-1.61-2.3l-1.12-4.02c-.12-.45-.31-1.36-.65-1.67-2.75-2.5-.16-1.83-2.43-5.63-.85-1.42-1-3.83-1.55-5.5-.26-.78-1.21-2.37-1.63-3.14-.21-.39-1.44.22-1.6.64l-.71,1.89c-4.7,3.49-2.77,6.33-6.15,9.38.3.29.77.6.66.8l-.43.79-1.02,2.94c-.27.79-.62,1.54-1.02,2.5-.21.52-.39,1.72-.54,2.28l-.8,2.93-1.09,2.62-1.72,6.29-1.01,3.48-.77,2.3c-1.8,5.37-1.03,6.49-3.09,10.49-1.16,2.25-.32,2.77-1.98,7.64-.81,2.38-2.82,10.55-3.41,13.41-.28,1.37-1.03,3.07-1.72,4.3l-1.94,3.48c-.54.96-2.51,2.33-3.49,2.82-.24.12-1.25.01-1.54-.01-1.69-.13-1.88-2.48-1.8-3.8l.23-3.66.57-2.53.17-2.72.26-4.33.11-3.04c.03-.72.66-2.3.58-3.01-.14-1.16-.3-2.5-.24-3.46l.18-3.22.1-2.73c.01-.41.56-1.28.79-1.52l-1.08-.31.55-1.48c.28-.74,1.32-1.66,1.91-1.82l-.38,4.25c-.1,1.06-.31,2.2-.22,3.3l.31,3.43c.08.93.06,2.03-.02,2.98l-.28,3.12c.64,2.22.61,4.27.55,6.61l-.07,2.93-.22,2.83,1.69-1.36.99-2.92c.74-2.19,1.34-4.37,2.41-6.41l1.22-2.33.57-2.08c2.72-2.41-.96-2.24,1.34-4.89.91-1.05.69-4.54,1.26-5.69l1.36-2.74c.34-.68.45-1.9.66-2.77l.97-4.06c.14-.6.52-1.44.74-2.02.21-.53-.2-1.94.22-2.32l1.29-1.2c.31-.29-.94-1.21.58-4.09,2.36-4.45-.5-1.56,1.84-7.32l1.4-3.43,1.42-3.88.76-2.32,1.02-3.93c.18-.68.93-1.89,1.18-2.55,2.58-6.85,2.96-3.65,4.42-8.88l-1.01-1.47c.25-1.14.69-2.76.64-3.67l-.14-2.81-.57-2.69c-.19-.92,0-2.24-.12-2.9l-.89-5.11-2.23.71c-.96.3-2.7.74-3.56.64l-3.29-.38c-.53-.06-.98-.55-1.65-1.31l-.58,3.03-.62,3.22c-.86,4.45-2,6.47-2.27,9.55-.15,1.62-.63,3.07-.91,4.52l-.67,3.52c-.24,1.29-.52,2.5-.73,3.8-.73,4.43-.97,3.7-1.94,8.69l-.47,2.41c-.3,1.53-.75,2.88-1.36,4.38l-.36,3.18c-.57,1.42-1.02,2.65-1.33,4.05l-1.24,5.71-.52,2.72c-.1.5-.45,1.49-.48,1.98l-.19,2.94c-.05.85-.31,1.96-.47,2.55-.58-.29-1.13-.42-1.16-.61l-.36-2.66c1.32-2.98.32-2.9,1.31-6.61l1.41-5.29c.23-.87.69-2.03.8-2.86.15-1.19.41-2.18.82-3.25.42-4.61-.95-.4.92-5.65l.94-2.63c-.02-.28-.18-1.21-.12-1.53l.47-2.57.88-4.64c.1-.55.29-1.45.32-1.92l.22-3.28.29-4.35c.07-.97.26-2.45.47-3.36l.93-3.95c.19-.79.64-2.04.85-2.76.12-.4-.04-1.5.16-1.9,1.23-2.42.17-1.2-.05-4.71-.01-.23-.53-.81-.68-.8-1.03.61-2.75,1.34-3.88,1.32l-6.09-.1-1.38-1.24c-2.99.95-3.3-.72-5.6-.4-.58.6-1.71,1.55-1.96,2.12l-1.84,4.21c-.36.83-.73,1.37-1.05,2.1l-1.48,3.31-1.78,3.95c-.47,1.04-.9,2.44-1.49,3.32-3.72,5.54-.61,1.59-3.35,5.88l-2.42,3.78-2.18,3.96-1.55,2.39-1.74,3.09-1.83,3.4-1.84,3.44c-1.53,2.87-4.2,7-6.16,9.62l-2.49,3.33c-.73.98-1.23,2.99-1.89,4.12-1.34,2.33-1.95,2.92-2.68,5.66l-.83,3.09-1.36,5.3c-.79,3.09-2.24,6.02-4.22,8.48l-2.96,3.69c-2.41,3-2.42,3.46-4.59,5.49.67,1.07-1.87,3.95-2.63,4.79-3,3.31-.51,2.09-2.29,5.26-1.47,2.63.16.11-1.29,5.2-.21.72-.37,2.01-.36,2.72l.07,4.47c.02,1.01-.24,2.29-.54,3.3.08.59.73,2.1.66,2.88l-.39,4.01c-.31,3.19.02,3.92-.03,7.47l-.1,6.44.43,1.97.07,6.74c0,.36.51,1.4.64,1.84l2.16,7.11.19,3.03c.1,1.62.37,3.01.41,4.53l.09,3.96c.02.76.42,2.44.67,3.11l1.92,2.16c3.06,3.45,3.37.18,6.54,7.83.35.44.89,1.09,1.13,1.45l3.03,4.5c2.04,3.03,1.77-.08,4.02,2.57l2.84-.03,5.24-.02c3.62-.01,4.66-1.32,8.02,1.17,1.11-.08,2.81-.77,3.69-1.49,3.91-3.18,1.91-2.72,6.59-3.15,5.12-.47,4.82-2.21,8.07-3.27l2.91-.94c3.81-1.24.21.14,4.55-2.65.89-.57,2.19-1.34,3.09-1.57l3.18-.81c4.85-1.23,10.04-.26,13.04-.55l2.71-.26c.6-.06,1.93.02,2.48-.21l4.49-1.89c.91-.38,1.86-.71,3-1.02l.92-1.56,2.15-1.76c3.52-2.88,2.26-2.55,4.2-2.42ZM508.77,418.06c.83.25,1.74.86,2.32,1.34l1.72,1.44c2.94.09,5.4-.11,8.23-.68l3.62-.72,2.39-.56c4.18-.98,3.73.08,4.94-.45l5.77-2.54,3.07-1.7c1.31-.73,5.07-1.64,6.61-1.82l5.54-.63c1.04-.12,2.91-1.22,3.89-1.71l4.71-2.37s5.81-4.53,7.54-5.56l3.62-2.16c6.06-3.62,1.56.59,5.64-2.69,2.71-2.17,1.9-.41,6.32-3.73,5.53-4.16,2.82-.97,8.15-5.89l2.74-2.54c1.09-1.01,2.25-1.88,3.45-2.68l4.25-2.84c.79-.53,2.04-1.42,2.65-2l2.55-2.42c.59-.56,1.25-1.34,1.91-2.05,2.8-3.02.51-2.06,3.36-4.5.97-.83,1.78-1.92,2.29-3,.15-.53.28-.9.29-.67-.21,1.01,3.97-4.06,3.34-3.68-1.61-.4-2.46-.56-3.69-.67l-3-.26-2.65-.24c-1.24.57-2.31.67-3.8.2-5.9.85-10.9,2.62-17.39,3.13-2.13.17-5.29-.38-8.29.01l-3.45.45-2.8.32c-2.46.28-4.63,2-9.96,1.22l-3.51-.52c-3.99-.59-1.59.35-7.57.7-.63.04-1.83-.1-2.16-.46-2.3-2.6-1.75.65-5.13-1.07-.72-.37-1.47-.55-2.22-.65-.79-.11-2.02-.44-2.7-.45l-5.82-.17c-2.6-.08-4.44-1.46-11.45-1.81-1.28-.06-6.83-3.15-7.66-4.41l-4.06-1.68c-.86-.35-1.66-.65-2.58-.95l-3.02-1c-.94-.31-1.97-2.04-2.74-2.88-1.5-1.62-5.76-.76-11.08-6-3.31-3.26-.53.51-6.55-4.39-.74-.6-1.49-1.25-2.09-1.85l-2.24-2.24c-.82-.82-1.22-2.27-2.56-2.66-1.56-.45-4.32-3.27-4.62-3.66l-3.8-5.04-1.81-.75-3.65-5.9-1.17-2.32c-.83-1.64-1.82-2.88-2.84-4.35-3.01-4.3.89-.48-5.07-3.68-1.3-.7-2.51-1.81-3.11-3.09l-1.98-4.27c-.31-.68-1.2-1.96-1.71-2.56s-2.71-.93-3.06-1.69c-2.05-4.37-1.4-5.03-3.84-6.9-.78-.6-1.27-2.47-1.86-3.28l-2.6-3.6c-1.23-1.69-2.34-4.06-2.99-6.14l-1.41-4.5-3.36,3.84-3.26,3.72-2.48,2.78-2.14,2.29-2.11,2.28c-.86.93-1.78,2.17-2.63,3l-4.03,3.94-1.72,1.76-2.22,2.18-2.45,2.41-1.97,1.94-1.22,1.92-3.61,3.81c-.56.59-1.2,1.52-1.74,2.18l-1.79,2.18-3.69,4.21-2.23,2.6c-.92,1.08-1.9,2.24-2.73,3.35l-2.08,2.79-2.1,2.79c-.57.76-1.33,1.66-1.97,2.36l-2.74,3.02c-.48.53-1.21,1.25-1.73,1.75-.24.23-.71,1-.94,1.26l-2.9,3.25c-1.24,1.39-2.62,2.62-3.96,3.93l-1.99,1.93-2.03,2.03c-.89.89-2.39,2.34-2.18,3.72l4.59,2.82c-.7,1.67,2.72,3.77,3.72,4.45.76.52,1.61,1.3,2.36,1.93l3.14,2.62c1.4,1.17,2.35,2.56,3.44,4.07l2.21,3.07c.47.65,1.82,1.72,2.19,2.46,1.49,3.04,2.34,2.34,5.08,5.93,1.35,1.77-.91,1.87,5.46,5.56,5.18,3,.97,1.86,4.46,4.26l2.38,1.64c6.12,4.21,1.15.82,5.73,4.8.81.7,1.43,1.39,2.17,2.28l1.52.69.13,1.04,3.38,2.15c.1.37.32,1.16.59,1.35l1.83,1.29c2.37,1.66,5.14,3.07,6.7,5.53.68,1.07,1.19,1.66,2.39,2.18l1.24,1.3c.64.63,1.39,1.31,1.93,1.96l3.18,3.92c.45.56,1.15,1.26,1.72,1.75l2.36,2.01c.2.4.6,1.5.91,1.8l2.17,2.14c.43.43,1.1,1.32,1.47,1.61,3.72,2.92,5.68,3.24,8.02,6.54,3.23,4.56,2.35,1.42,5.09,5.89.34.55,1,1.63,1.38,2.02l4,4.02c.79.2,2.36.51,3.13.52,4.95.1,3.33-1.38,5.99-2.04l4.46-1.1,1.91.79,4.97-1.55c2.77-.86,4.44-.96,6.12-1.75l2.99-1.42,3.3-1.57c.6-.29,2.07-.71,2.73-.73l5.29-.12c1.9-1.76-2.25-7.97-3.35-9.45l.67-1.09c-2.72-2.03-.44-.35-2.94-4-.67-.97-1.13-2.17-1.44-3.15l-1.24-2.07c-.27-.45-.74-1.17-1.06-1.61-.48-.65-.34-2.91.48-3.02,2.89-.38,5-.2,7.13,1.54l2.27,1.86c.76.62,1.85,1.1,2.86,1.41l3.57,1.08Z"/>
        <path d="M600.35,54.84l.33-3.95c.06-.76,2.63-2.59,3.6-2.74.5-.08,1.43.91,1.53,1.42l.39,2.08c-.37,1.25-.29,2.39.11,3.52l1.03,2.92c3.6,1.96,9.34-2.66,10.17-7.34l.66-3.69,2.61-.6,2.06,1.37-.41,2.64c-.11.69-.75,1.87-1.2,2.55l-3.94,5.82c-.51.75-1.66,1.82-2.37,2.29l-2.04,1.32c-3.56.97-4.53,1.5-7.78-.26-1.48-.45-2.46-1.36-3.06-2.73-.8-1.46-1.48-2.99-1.7-4.62Z"/>
      </g>
      <g>
        <path d="M112.24,338.64c-1.25,1.05-4.22-1.06-3.7-1.44l.88-.66c.64-.47,1.81-1.42,2.23-1.99,1.07-1.6,2.1-2.9,3.65-3.91l2.1-1.36c1.01-2.25,4.33-4.19,6.87-4.31l-.16-1.91c1.91-3.54.52-3.37,1.4-5.35,1.97-4.43,2.27-3.44,3.43-7.08l.98-3.09c1.23-3.88,1.4-6.15,2.33-8.58l1.48-3.83c.42-1.08.99-2.38,1.28-3.38l.92-3.18,1.28-4.41c.36-1.23.67-2.62,1.17-3.68l.79-1.67c.52-1.09,1.25-2.4,1.31-3.65.05-1.01.85-2.38,1.64-2.22.36.08,1.19.76,1.47,1.02l-1.65,1.88c.87,1.39-.96,3.89-1.99,7.03l-1.27,3.87-1.39,4.84-.9,3.07-.82,2.75c-.71,2.38-1.4,4.74-1.85,7.17-.1.54-.13,1.52-.31,2-.37.99-.76,1.97-1.04,2.89l-.92,3.08-1.28,4.53-.94,3.04c-1.13,3.64,0,5.56-1.33,6.47l-2.89,1.96c-.55.25-2.25,0-2.78.32l-3.2,1.93c-.16.09-.97.02-1.03.19l-.44,1.21c-.46,1.28-1.77,2.55-2.74,3.69-.81.95-1.56,1.91-2.59,2.78Z"/>
        <path d="M62.48,351.37c-2.22-.34-4.58-.5-6.66.03l-3.88.99-1.11,1.78c-3.33-.81-2.5.03-4.45-2.84-4.16-6.12-1.63-1.49-4.53-8.65l-1.57-3.86c-.37-.92-.7-1.99-.86-2.99l-.35-2.17,1.91-.72,3.17,7.95c.56,1.4.98,2.75,1.38,4.32l1.55,1.9c.61.74,1.62,1.89,2.39,2.07.69-.29,1.9-1.06,2.45-1.1l3.78-.25,2.76-.15c.82-.05,2.14-.1,2.83.07l2.89.73c.45.11,1.12.34,1.32.62.25.35-.46,1.34-.87,1.48l-2.16.78Z"/>
        <path d="M53.01,262.82c-.33.94-2.64,7.81-3.75,4.7-.55-1.54.08-2.9.63-4.39l1.33-3.57c2.1-5.63.93-5.3,2.31-9.24l1.11-3.16c.13-.36.64-.86,1.03-1.29.31-.34-.12-1.38-.2-2.05-.16-1.22,1.3-2.46,2.32-3.02.3-.17,1.12.67,1.15,1.03.12,1.13-.46,2.73-1.08,3.6l-.71.99c-.18.26.8,1.08.87,1.38l-2.27,4.38c-.31.6-.68,2.1-.75,2.74.86,3.09-.13,2.6-1.99,7.91Z"/>
        <path d="M34.2,287.84l1.3-3.16c.58-1.41,1.2-2.85,1.98-4.13l1.84-3.02c1.07-1.75,2.02-3.5,3.22-5.14,1.92-2.6.76-2.52,2.25-4.65l1.13-1.62,2.2-3.3c.51.32.72,1.32.46,1.87l-2.36,4.89-.98,1.97c-1.09,2.19-2.07,4.28-3.26,6.39-2.44,4.3-1.81,1.58-3.95,6.62-.37.87-1.19,3.96-3.83,3.28Z"/>
        <path d="M50.99,285.34c-.57.65-2.41,1.12-3.72,1.24-.52-.76-.1-2.68.66-3.46l1.74-1.79c2.41-2.49,3.64-6.33,6.29-6.88.54.95,1,2.4.61,3.04l-1.9,3.16c-.52.86-1.3,1.99-1.96,2.74l-1.72,1.96Z"/>
      </g>
    </g>
  </g>
</svg>