<?xml version="1.0" encoding="iso-8859-1"?>
<!-- Generator: Adobe Illustrator 30.2.1, SVG Export Plug-In . SVG Version: 9.03 Build 0)  -->
<svg version="1.1" id="Layer_1" xmlns="http://www.w3.org/2000/svg" xmlns:xlink="http://www.w3.org/1999/xlink" x="0px" y="0px"
	 viewBox="0 0 260.857 273.429" style="enable-background:new 0 0 260.857 273.429;" xml:space="preserve">
<g id="ljbxfY.tif">
	<g>
		<g>
			<path d="M122.368,99.198l-1.612-1.067l-0.56-2.846c-0.107-0.542-0.243-1.42-0.261-1.925l-0.122-3.46
				c-0.033-0.95-0.345-2.587-1.357-3.3c0.66-0.689,1.586-1.595,2.581-2.079c0.79-0.385,2.038,0.449,2.082,1.113
				c-0.126,1.305-0.102,2.449,0.102,3.709l0.142,2.582c0.03,0.539,0.154,1.374,0.262,1.933l0.502,2.601l-0.429,1.359
				C123.575,98.208,122.836,98.766,122.368,99.198z"/>
			<path d="M137.564,0l0.701,0.466c0.293,0.195,0.869,0.645,1.006,0.97c0.413,0.983,1.887,1.324,2.404,2.098l1.731,2.593
				l0.871,1.465c1.375,2.311,2.403,2.054,2.894,2.978c0.455,0.854,1.013,1.887,1.322,2.683l1.087,2.806
				c3.093-0.797,1.289-1.069,3.918-1.308l2.367-0.215c0.313-0.028,0.917-0.306,1.241-0.397c2.504-0.698,2.884-0.483,4.864-1.16
				l0.906,0.357c2.097-1.903,1.048-0.578,2.691-0.996l1.802-0.459l3.419-0.863c0.525-0.132,1.639,0.109,2.102-0.159
				c0.743-0.431,1.535-0.81,2.286-0.919l2.286-0.331l1.771-0.267l2.487-0.405c0.153-0.025,0.729,0.131,0.873,0.079
				c0.445-0.159,1.347-0.818,1.806-0.912l2.599-0.53c1.508-0.307,3.484-0.505,5.052-0.374l2.595,0.217l2.6,0.204
				c0.652,0.051,1.638,0.312,2.221,0.32l5.809,0.076c0.542,0.007,1.52-0.503,2.063-0.675l2.884-0.918l1.983-0.295
				c1.179-0.175,2.283-0.612,3.363-0.258l3.462,1.137l1.942,0.622l2.05,0.193l1.698,0.998l0.408,1.293
				c0.285,0.902,0.328,1.841,0.292,2.812c-0.021,0.572,0.086,1.562-0.11,2.027c-1.102,2.617,0.29,0.763-0.322,3.397
				c-0.03,0.38,0.408,1.248,0.419,1.66l0.103,3.861c0.008,0.307,0.405,0.977,0.566,1.331l-1.035,0.804
				c1.046,0.807,1.89,2.011,1.413,3.151l-0.703,0.448c-0.186,0.118,0.204,0.696,0.367,0.855c1.196,1.16,1.234,1.473,1.625,3.218
				l0.419,1.868c0.251,1.12,0.042,2.593,0.227,3.813l0.395,2.601l0.124,1.504c0.059,0.724,0.488,1.604,0.628,2.317l1.326,6.771
				c0.623,3.18-0.393,1.08,0.367,3.542l0.701,2.273c0.276,0.894-0.176,2.357-0.03,3.18l0.728,4.104l1.056,5.449l0.263,1.748
				c0.118,0.782,0.323,1.588,0.497,2.317c-0.071,0.887,0.007,1.727,0.231,2.666l1.116,4.675c0.192,0.804-0.365,1.787-0.908,2.296
				c2.292,2.616,0.819,0.969,1.835,5.228c0.155,0.649,0.356,1.483,0.389,2.177l0.158,3.33c0.02,0.411,0.507,1.26,0.589,1.642
				l0.67,3.115c0.176,0.818,0.284,1.573,0.403,2.475c0.139,1.057,0.546,2.091,0.706,3.191l0.26,1.778
				c0.093,0.64,0.396,1.257,0.426,1.815l0.154,2.87c0.062,1.16-0.463,2.116,0.433,3.213c0.254,0.311,0.548,1.177,0.463,1.596
				c-0.493,2.43,0.612-0.222,0.383,4.338l-0.617,0.883l0.674,0.887l0.336,1.178l0.587,2.056c0.228,0.8,0.635,1.88,0.659,2.721
				l0.096,3.353c0.01,0.339,0.551,1.05,0.733,1.341c0.158,0.253-0.187,1.063-0.122,1.361l0.477,2.214
				c0.044,0.205-0.399,0.692-0.589,0.93l0.855,0.897l-0.418,0.533l0.622,2.281l0.624,2.286l-0.445,2.083
				c1.242,1.099,0.475,1.352,1.24,4.77l0.72,3.221c0.284,1.27-0.364,2.454,0.654,3.831c0.47,0.636,0.005,2.262,0.037,3.06
				c0.159,3.965-0.867,0.893,0.456,4.311c0.397,1.026,1.297,4.715,0.326,5.746c1.047,2.614-0.081,0.664,1.167,3.962
				c0.793,2.095-1.021,1.668,0.559,4.303c0.819,1.365-0.58,0.691,0.256,3.102c0.189,0.546,0.454,1.508,0.471,2.026l0.087,2.665
				c0.015,0.456-0.002,1.459,0.122,1.897c0.204,0.722,1.328,2.993,0.465,4.638c-1.307,2.491,1.077-0.463,0.884,5.756
				c-0.019,0.609,0.225,1.628,0.393,2.302l0.455,1.834l0.943,4.268c0.124,0.563,0.049,1.51-0.035,2.074
				c0.062,0.133,0.384,0.696,0.406,0.898l0.249,2.25c0.12,1.083,0.006,2.342,0.228,3.271l0.378,1.584l0.441,1.847l0.016,0.964
				c0.604,2.718-0.822,1.827,0.356,3.361l-0.123,1.209c0.326,1.046,0.509,2.041,0.489,3.18c-0.059,3.285,0.348,1.134,0.468,5.437
				c0.011,0.402-0.138,1.218-0.034,1.569c0.701,2.373,0.34,1.964,0.844,4.281l0.624,2.871c0.061,0.28,0.252,0.859,0.366,1.246
				l0.412,1.39c0.566,1.911-0.503,0.991,0.132,2.619c0.366,0.938,0.354,1.683,0.077,2.653l0.524,1.961
				c0.175,0.655,0.472,1.816,0.198,2.351c-0.695,1.353-2.456,1.742-3.511,0.989c-1.034-0.739-1.318-1.975-0.968-3.079l-0.435-0.74
				c0.746-1.054,0.336-0.782,0.108-3.274l-0.313-3.429c-0.055-0.602-0.126-1.407-0.229-1.985l-0.775-4.341
				c-0.495-2.774,0.153-2.348-0.319-3.4c-0.874-1.949,0.896-2.133-0.174-2.964c-0.551-0.428-0.539-1.357-0.131-1.771l0.667-0.677
				c-0.35-0.261-0.875-0.59-0.905-0.845l-0.241-2.027l-0.236-1.995c-0.328-2.775,0.467-0.811-0.186-3.057l-0.789-2.71
				c-0.109-0.373,0.431-1.14,0.649-1.601c0.487-1.03-1.527-1.248-0.865-4.557l-0.341-1.495c-0.217-0.95,0.175-2.499-0.183-3.292
				l-0.896-1.987c-1.069-2.37,0.365-1.501-0.274-3.933c-0.328-1.248-0.355-2.317-0.447-3.645c-0.082-1.178-0.345-2.452-0.545-3.655
				l-0.485-2.918c-0.161-0.968,0.036-2.366-0.183-3.306c-0.221-0.945-0.539-1.661-0.557-2.651l-0.031-1.765l-0.695-4.197
				l-0.236-2.082l-0.203-1.908c-0.063-0.593-0.117-1.005-0.261-1.623c-0.265-1.138-0.042-2.542-0.25-3.826l-0.404-2.5
				c-0.049-0.302,0.259-1.209,0.092-1.517c-0.764-1.401-1.224-3.34-0.38-4.404c-0.288-0.328-0.661-1.037-0.7-1.493l-0.184-2.134
				l-0.512-4.476c-0.192-1.68,0.465-1.415-0.201-2.766c-1.078-2.186-0.105-1.499-0.628-3.398c-0.371-1.346-0.692-2.474-0.828-3.802
				l-0.144-1.401l-0.425-2.694c-0.254-1.612-0.602-3.148-1.08-4.785c-0.173-0.595-0.162-1.169-0.125-1.89
				c0.032-0.623-0.327-1.69-0.346-2.413l-0.074-2.847c-0.01-0.369-0.404-1.024-0.623-1.399c-0.425-0.727-0.052-1.102-0.415-3.223
				l-0.421-2.459c-0.141-0.826,0.196-2.265-0.057-3.122l-0.602-2.036c-0.399-1.351-0.81-4.28-0.869-5.674
				c-0.031-0.74-0.189-1.152-0.267-1.931l-0.236-2.337l-0.658-2.574c-0.151-0.591-0.739-1.569-0.78-2.139
				c-0.295-4.024-1.146-2.599-0.696-5.849l0.147-1.062c-1.527-0.899-0.919-1.857-1.167-4.328c-0.028-0.275-0.455-0.97-0.388-1.229
				c0.533-2.05-1.082-1.298-0.555-3.025c0.293-0.96,0.104-1.676-0.218-2.55l-0.368-1.481c-0.717-2.88-0.058-1.555-0.854-4.774
				l-0.512-2.07c-0.518-2.095-0.637-4.171-0.928-6.286l-0.245-1.785l-0.295-2.402l-0.173-2.495c-0.039-0.563-0.202-1.355-0.33-1.919
				l-0.894-3.957l-0.259-2.068c-0.054-0.433-0.494-1.221-0.547-1.627l-0.239-1.817l-0.323-2.608
				c-0.072-0.585-0.263-1.355-0.407-1.993l-0.482-2.135c-0.788-3.492,0.217-1.805-0.454-4.079l-0.782-2.65l-0.131-1.923
				c-0.046-0.675-0.439-1.55-0.646-2.2l-1.865-5.869c-0.252-0.793-0.28-1.952-0.361-2.795l-0.225-2.338
				c-0.058-0.606,0.144-1.668,0.055-2.17c-0.604-3.395,0.048-2.572-0.783-4.417l-0.245-1.693c-0.046-0.32,0.109-0.841,0.247-1.29
				c0.287-0.93-1.061-1.78-1.879-2.004l-2.029-0.556c-0.619-0.17-1.193-0.448-1.773-0.775l-1.709-0.962
				c-1.011,0.163-2.393,0.358-3.425,0.674c-1.748,0.535-3.364,1.543-5.251,1.528l-5.417-0.043c-0.426-0.003-1.312-0.193-1.757-0.257
				c-1.006-0.145-0.648-0.421-1.261-0.82c-0.015-0.01-0.339,0.413-0.425,0.43c-2.781,0.543-2.949-0.962-9.825,0.5l-2.637,0.56
				c-4.356,0.926-2.364,1.053-6.855,1.449c-0.428,0.038-1.276,0.552-1.669,0.637l-2.882,0.622l-1.788,0.439
				c-0.7,0.172-1.391,0.174-2.209-0.005c-1.339-0.293-0.15,0.523-1.797,0.816l-2.412,0.429c-0.521,0.093-1.176,0.34-1.739,0.511
				c-3.247,0.986-2.716,0.386-4.904,1.105c-0.706,0.232-2.125,0.28-2.631,0.707l-1.453,1.225c0.32,0.79,1.019,1.735,1.721,2.491
				l0.617,1.432c0.348,0.773,0.623,1.449,0.896,2.242l0.934,2.71l0.5,1.45l0.605,1.747c0.339,0.978,0.576,1.953,1.152,2.867
				l1.081,1.714l0.971,2.211c0.291,0.664,0.608,1.552,0.801,2.252l0.502,1.819l0.638,2.312l0.852,2.844
				c0.66,2.204,1.211,5.338,1.996,7.154l0.829,1.92c0.147,0.34,0.218,1.116,0.316,1.476l0.49,1.795l0.656,2.525
				c0.092,0.353-0.005,1.24,0.045,1.611c0.106,0.779,0.623,1.884,0.626,2.736c0.008,2.125,0.165,4.237-0.129,6.231l-0.551,3.737
				c-0.129,0.872-0.071,1.729-0.064,2.64c0.006,0.704-0.278,1.745-0.338,2.531c-0.332,4.363-0.397,1.924-0.651,5.473
				c-0.061,0.845-0.293,1.725-0.428,2.614c-0.264,1.734,0.09,2.448-0.436,5.032l-0.727,3.569c-0.149,0.731-0.276,1.391-0.399,2.185
				c-0.151,0.97-0.462,1.954-0.681,2.894l-0.547,2.346l-0.798,3.214l-0.98,3.285c-0.056,0.288-0.144,1.039-0.178,1.333l-1.206,2.493
				l-0.605,1.356c-0.183,1.497-0.621,3.19-1.447,4.191c-0.901,1.093-4.026,0.562-5.237,2.884c-0.196,0.375,0.717,1.073,1.102,1.157
				c1.06,0.23,0.244,0.285,0.495,1.954l0.238,1.583c0.694,1.275,1.231,2.383,1.811,3.683c1.365,3.061-0.001,2.243,2.15,3.313
				c0.182,0.398,0.524,1.193,0.721,1.711l0.783,2.055l0.509,1.491l1.245,3.045l0.863,2.043c-0.263,0.277-0.122,0.129,0.127-0.134
				c5.129-2.139,6.511-0.739,11.391-0.468c0.612,0.034,1.555,0.291,2.133,0.29c1.163-0.002,2.379-0.023,3.515-0.149l2.615-0.291
				c0.718-0.08,1.39-0.082,1.901,0.399l1.529,1.438c0.396,0.372,0.875,1.288,1.273,1.842c0.638,0.887,0.805,2.145,1.244,3.075
				l1.182,2.505c1.538,3.259,1.118,1.286,2.501,5.225l0.742,2.113c0.223,0.636,0.511,1.337,0.8,1.959l1.193,2.562
				c1.307,2.806,0.659,2.309,1.894,4.39c0.518,0.873,0.952,1.77,1.414,2.651c0.601,1.149,1.136,2.197,1.336,3.521
				c0.552,0.621,1.6,1.637,1.965,2.417l0.772,1.648c0.064,0.137,0.14,0.537,0.053,0.652l-0.756,1.005
				c-0.079,0.105-0.286,0.383-0.36,0.332l-0.419-0.29c-0.688-0.477-1.374-1.169-1.757-1.913l-1.195-2.319
				c-0.355-0.688-1.582-1.512-1.841-2.322c-0.18-0.564,0.033-1.853-0.347-2.229c-3.703-3.667-0.247-0.142-2.411-3.583
				c-0.431-0.685-0.898-1.51-1.176-2.192l-1.009-2.473c-0.246-0.602-0.528-1.198-0.816-1.776l-2.11-4.232l-1.232-2.471
				c-0.418-0.839-0.821-1.681-1.127-2.552l-0.621-1.765c-0.136-0.386-0.71-1.108-0.875-1.485c-0.036-0.083,0.251-0.489,0.177-0.54
				c-0.911-0.617-1.19-0.393-1.236-0.658l-0.204-1.162l-3.912,0.088c-0.589,0.013-1.154,0.048-1.716,0.009
				c-3.17-0.22-2.278-0.759-3.372-0.567c-0.56,0.099-1.605,0.202-2.103,0.095l-1.344-0.287c-1.008-0.215-2.12-0.101-3.19,0.004
				c-1.349,0.132-2.52,0.216-3.565,1.081c-0.46,0.381-0.93,0.879-1.17,1.396c-1.161,2.499-3.789,0.628-5.534-0.036l-1.193,0.488
				c-4.434,0.25-2.572-0.562-6.434,0.93l-2.426,0.937c-0.799,0.308-1.301,0.451-1.784,1.169l-1.004,0.953
				c-2.311,3.141-1.03-0.349-3.329,3.538l-1.398,2.363c-0.566,0.957-0.679,1.625-0.618,2.724c0.054,0.968-0.262,2.054,0.903,2.83
				c1.205,0.803,4.267,0.78,5.879,0.684l3.616-0.215c1.739-1.59,0.303-0.009,3.275-1.205l3.499-1.408l2.344-1.036
				c0.337-0.149,1.043-0.29,1.403-0.402l2.877-0.901l2.995-1.206c0.478-0.192,1.76,0.084,1.977,0.515
				c0.645,1.285-0.103,1.942,0.548,2.031l0.805,0.11c0.087-0.055-0.185,0.118-0.442,0.281l-2.038,0.603
				c-2.1,0.622-2.373-0.979-3.116,0.409l-0.921,1.72c-2.17-0.373-5.976,1.332-7.639,2.338l-3.037,1.838l-1.568,0.94
				c-1.803,2.331-0.654,0.33-2.843,2.925l-1.593,1.887c-0.43,0.509-1.158,1.426-1.236,2.092c-0.049,0.421,0.919,0.927,1.337,0.958
				l2.924,0.213c1.105,0.08,5.387-0.903,6.715-1.259l2.246-0.603c1.103-0.296,2.484-0.78,3.326-1.134
				c0.547-0.23,3.125-0.075,5.3-1.369l0.837-1.182l1.787-0.615c0.482-0.166,1.429-0.074,1.789,0.332
				c1.259,1.419,0.06,3.335-0.797,3.915l-3.545,2.399l-1.68,1.224l-1.628,0.693c-0.47,0.2-1.029,0.865-1.521,1.328
				c-1.514,1.424-0.607-0.542-4.683,3.26l-1.338,1.248l-1.329,1.286c-0.452,0.437-0.935,1.288-1.161,1.917l-0.687,1.921
				c-0.083,0.232,0.199,1.018,0.421,1.069c2.344,0.539,1.52,0.726,4.45,0.319l2.826-0.393l2.644-0.449
				c1.231-0.209,2.415-0.971,3.584-1.447c1.114-0.454,2.504-0.613,3.442-1.434c0.447-0.392,0.907-0.734,1.432-0.885
				c3.621-1.039,3.184,1.532,4.661,1.779l-0.476,1.087c-0.3,0.685,0.143,1.838,0.462,2.655c0.518,1.328,0.992,2.686,1.317,4.053
				c0.662,2.784,0.807,1.014,2.882,4.619l0.177,1.483l1.05,1.311c3.063,3.825,0.6,3.078,2.46,4.082
				c0.918,0.495-0.222,0.602,1.364,2.009c0.56,0.497,0.95,0.938,1.386,1.514c1.802,2.382,0.608-0.015,2.533,3.173
				c1.008,1.67,0.609,2.53,1.88,3.353l0.15,1.525c0.092,0.933-1.126,0.14-1.321,2.225l-3.207,0.157
				c-0.343,0.017-0.977,0.007-1.155,0.235c-1.347,1.729-2.263-0.278-4.944,2.434l-1.184,1.197c-0.479,0.484-0.95,0.903-1.54,1.342
				c-1.707,1.272-1.956,1.389-3.904,1.034l-1.412-2.047c-0.325-0.472-0.93-0.941-0.898-1.582c0.137-2.729-0.682-1.466-1.454-4.585
				c-0.22-0.888-0.429-1.736-0.663-2.533l-0.727-2.474c-0.086-0.292-0.323-0.762-0.481-1.138c-0.532-1.264-0.778-2.635-1.095-4.05
				c-0.183-0.817-0.607-1.663-0.906-2.427l-1.454-3.715l-0.78-2.101c-0.382-1.029-0.707-2.194-1.179-3.098
				c-0.352-0.675-0.735-1.282-0.763-1.947l-0.082-1.932l-0.484-0.447l-3.28,0.58c-0.725,0.128-1.248,0.308-1.835,0.738
				c-1.053-1.164-0.854,0.454-4.134-0.302c-0.513-0.118-2.035,0.62-4.081-1.154c-0.285-0.247-0.117-1.265-0.052-1.648l0.425-2.469
				c0.073-0.422-0.092-1.506,0.139-1.866l1.011-1.579c0.263-0.411,0.776-1.013,1.123-1.409l1.506-1.719
				c1.19-1.358,1.487,0.19,3.119-2.493c1.354-2.227,2.446-0.902,2.203-2.59l-1.452,0.147l-2.34,0.236l-1.795,0.899
				c-0.524,0.263-1.422,0.417-2.06,0.457l-1.953,0.123c-1.112,0.07-2.964-0.302-4.201-0.585c-1.335-0.306-3.023-0.684-3.467-2.308
				c-0.221-0.808-0.055-2.182,0.048-3.057c0.269-0.198,0.84-0.562,1.035-0.751l4.47-4.348c0.609-0.592,1.313-1.03,1.206-1.965
				c-1.413,0.363-2.613,0.633-4.003,0.592l-2.443-0.072c-0.839-0.707-1.515-1.064-2.568-0.596l-1.137-0.889
				c-1.01-2.148-1.725-1.421-1.898-2.969c-0.068-0.606-0.195-1.347-0.163-1.716l0.184-2.178c0.124-1.474,1.01-0.41,0.994-1.686
				c-0.016-1.278,0.88-2.344,1.791-3.154c2.789-2.48,0.207-1.18,2.804-3.509c0.398-0.357,0.904-0.842,1.265-1.228l1.135-1.214
				c0.389-0.416,0.878-0.783,1.469-1.094c1.949-1.026-0.124-1.318,0.28-3.675c0.201-1.17-0.072-1.95-0.434-2.949l-0.634-1.747
				l-0.906-3.162l-0.659-2.122l-0.705-2.679c-0.827-3.144-0.608-0.581-2.019-4.197c-0.564-0.029-1.891,0.292-2.601,0.342
				l-2.105,0.147c-3.191,0.223-4.441-0.559-5.766-0.092l-1.773,0.625c-0.635,0.224-1.375,0.385-2.076,0.432l-1.798,0.121
				c-0.689,0.046-1.972-0.316-2.635-0.566l-2.128-0.804l-1.209-0.513c-0.489-0.208-1.128-0.85-1.605-1.157
				c-2.126-1.368-2.538-1.17-4.007-2.601c-0.4-0.389-0.843-0.682-1.372-0.93c-1.423-0.666,0.216-0.007-2.245-2.303
				c-0.728-0.679-1.37-1.483-2.014-2.248l-0.812-0.964l-0.672-1.308l-1.109-0.289l-1.511-2.797c-0.205-0.38-0.655-0.881-1.003-1.262
				l-0.365-1.018l-1.247-0.841c0.007-0.018-0.082,0.219-0.254,0.676l-0.485,0.604c-1.167,1.454,0.606,0.634-1.239,2.799
				c-0.314,0.368-0.723,1.333-0.899,1.848l-1.105,3.234c-0.294,0.86-0.731,1.691-1.199,2.454l-0.892,1.455
				c-0.414,0.675-0.935,1.438-1.246,2.119l-0.914,2.001c-0.461,1.009-1.069,1.886-1.675,2.899c-0.292,0.489-0.603,1.33-0.893,1.898
				l-0.889,1.736l-1.201,2.31c-0.816,1.57-1.006,0.942-2.055,2.72l-2.351,3.983c-0.523,0.885-1.411,1.884-2.055,2.746
				c-1.407,1.885-0.122,0.677-1.194,1.919l-1.318,1.526c-0.537,0.621,0.275,1.223-2.85,4.342c-1.098,1.095,0.097,0.127-1.257,2.392
				l-0.972,1.627c-1.034,1.729-1.289,1.64-2.003,2.84l-1.274,2.143l-2.111,2.864c-0.401,0.544-1.122,1.562-1.382,2.184
				c-0.616,1.476-0.171-1.07-2.172,2.734c-1.045,1.986-0.578-0.332-2.647,3.576c-0.055,0.105,0.263,0.675,0.376,0.634
				c0.934-0.338,2.725,0.76,3.619,0.668l4.563-0.466l2.916-0.428l3.063-0.132l2.654-0.443c0.799-0.133,1.97,0.017,2.763-0.172
				c0.665-0.158,1.627-0.801,2.189-0.689c0.822,0.163,1.135,0.114,1.755-0.149c1.545-0.657,3.062-1.225,4.696-1.603l3.278-0.76
				l2.283-0.53l3.719-0.896l1.976-0.544l3.104-0.927c2.784-0.831,2.633,0.057,3.952-0.563c0.791-0.371,1.738-0.506,2.429-0.099
				c1.139,0.671,1.273,1.52,1.065,2.733l-0.256,1.494c-0.102,0.596-0.548,1.348-0.623,1.846l-0.341,2.279
				c-0.369,2.467-1.264,2.575-1.65,4.352c-0.816,3.751,0.17,2.993-1.206,5.348c-1.163,1.991-1.185,2.204-1.628,4.557l-0.292,1.549
				l-0.586,2.923c-0.213,1.061-0.405,2.046-0.429,3.122l1.316,1.181c0.284,0.255,1.132-0.492,1.524-0.59l3.886-0.968
				c2.77-0.69,1.865-0.214,4.871-0.857c0.918-0.196,1.743-0.346,2.678-0.431l1.805-0.163c0.592-0.053,1.653-0.315,2.159-0.275
				l2.304,0.182c0.302,0.024,1.109,0.291,1.206,0.546l0.721,1.9c-0.45,1.017-1.555,1.862-2.652,1.392
				c-0.815-0.349-1.622-0.431-2.488-0.335l-0.921,0.103c-1.076,0.354-2.084,0.587-3.184,0.802l-3.92,0.765
				c0.007-0.076-0.027,0.303-0.035,0.411c0.877,2.193,0.239,5.137,0.272,5.521c0.155,1.817,0.19,3.383-0.018,5.153l-0.304,2.597
				c-0.126,1.081-0.482,2.066-0.544,3.201l-0.165,3.015l-0.321,2.024c-0.072,0.451-0.097,1.354-0.08,1.8
				c0.041,1.052-1.111,0.977-0.457,1.701c0.523,0.579,0.384,1.768-0.021,2.41c-0.451,0.713,0.062,0.285-0.109,2.725
				c-0.016,0.227-0.458,4.886,0.904,3.874c0.291-0.216,0.857-0.58,1.128-0.557c0.27,0.023,0.659,0.569,0.827,0.807
				c0.621,0.879-0.269,0.657-0.512,2.303c-0.337,2.292,0.275,2.176-0.027,4.024l-0.478,2.924c-0.066,0.405-0.432,1.324-0.442,1.755
				l-0.087,3.663c-0.035,1.477-0.799,1.278,0.287,2.247l-0.486,2.044l0.462,1.141l0.257,2.823c0.092,1.016,0.169,1.89,0.38,2.864
				c0.449,2.072-0.304-0.012,0.089,2.457l0.305,1.919c0.114-0.004,0.14-0.005-0.177,0.009l-1.424,1.204
				c-0.881,0.745-1.816,0.195-3.59,0.87l-0.671,1.22l-1.994,0.072c-4.029,0.145-1.214-1.25-6.465-0.738
				c-0.583,0.057-1.712-0.306-2.377-0.403c-0.433-0.063-1.429,0.229-1.777,0.041l-1.208-0.655c-0.077-0.042-0.756,0.554-0.788,0.578
				c-0.709,0.53,0.103-0.056-1.839-0.381c-0.728-0.122-1.628-0.195-2.285-0.348c-1.214-0.283-2.221-0.51-3.454-0.549l-1.502-0.302
				l-1.696-0.105l-1.701-0.131l-1.76-0.055l-1.032-0.031c-2.25-0.068-0.862,0.985-2.594,0.071l-2.406,0.308
				c-0.908,0.116-2.114,0.151-3.012,0.03l-2.031-0.274l-2.563-0.318l-2.321-0.272l-1.664-0.047l-2.63-0.222
				c-0.792-0.067-1.648-0.22-2.488-0.348c-2.281-0.348-2.53,0.396-6.542,0.027c-3.562-0.327-1.015,0.518-3.467-0.213
				c-4.354-1.299-2.394,0.255-4.988-0.416l-3.054-0.791c-1.045-0.27-0.89,1.442-1.759,0.808l-0.454-0.331
				c-0.156-0.114-0.6,0.08-0.833,0.207c-0.807,0.439-1.562,0.191-3.411,0.351c-0.687,0.059-1.383,0.167-1.934,0.08
				c-2.368-0.373-0.498,0.285-2.943,0.753c-4.647,0.891-4.882-1.169-6.472,0.382c-1.156,1.127-4.053,0.644-6.938,1.691l-2.279,0.827
				c-0.862,0.313-1.679,0.575-2.57,0.83l-2.663,0.764l-3.541,1.079c-0.499,0.152-1.154,0.392-1.687,0.239
				c-0.676-0.194-1.59-0.948-1.589-1.505l0.005-2.409c0.001-0.543-0.164-3.576-0.578-3.4v-14.556l0.278-0.271
				c0.049-0.447,0.158-1.133,0.134-1.438L0.25,247.41c-0.033-0.414,0.339-1.387,0.428-1.802c-0.077-1.064-0.094-2.412,0.131-3.618
				l-0.242-1.652c1.828-2.356-1.113-1.79-0.089-6.654c0.09-0.426,0.263-1.274,0.228-1.64l-0.216-2.298
				c-0.054-0.574-0.007-1.009,0.156-1.527l-0.072-1.59l-0.168-2.549c-0.033-0.507,0.241-3.765,0.791-3.722
				c0.045-0.142,0.204-0.636,0.153-0.477l-0.957-0.375c-0.165-0.065-0.098-0.671-0.067-0.87c0.254-1.603,0.2-2.976,0.14-4.555
				c-0.045-1.188,0.397-3.645,0.245-4.708c-0.041-0.284-0.417-0.961-0.402-1.244l0.139-2.656c0.02-0.374-0.121-1.215-0.066-1.623
				c0.083-0.609,0.068-1.188-0.384-1.49v-2.854l0.265-0.277c0.865-4.077,0.019-3.236,0.437-6.458
				c0.363-2.796-0.195-0.827,0.227-5.248c0.227-2.37-0.377-1.687-0.125-3.953l0.263-2.37c0.538-4.845-0.086-1.577-0.012-4.27
				l0.179-6.491l0.092-1.759c0.1-1.908-0.334-2.736-0.573-5.69l-0.185-2.293l-0.118-2.043c-0.124-2.147,0.994-3.268-0.098-4.657
				l0.166-1.269c-0.386-0.836-0.273-1.591,0.645-2.141L0,149.558v-5.423l0.41-1.382l1.078-0.767l-0.764-1.225
				c-0.44-0.705-0.012-2.199,0.168-3.169c0.127-0.682,0.076-1.384,0.09-2.05c0.021-0.992,0.176-2.077,0.086-3.035
				c-0.272-2.877-0.092-2.568,0.178-4.995c0.229-2.055-0.168-2.669,0.906-3.714c0.245-0.239,0.466-0.424,0.389-0.557
				c-0.052-0.088-0.26-0.391-0.31-0.499l-0.769-1.65l1.236-1.517l-0.986-0.64c-0.288-3.784,1.261-1.87,0.203-4.447
				c-0.723-1.761,0.418-3.989,0.295-5.673c-0.097-1.188-0.106-2.107-0.12-3.189c-0.014-1.043-0.684-2.183-0.195-3.254
				c0.262-0.572,0.37-1.23,0.459-1.873l0.315-2.264c0.607-4.367-0.043-1.841,0.373-6.326c0.339-3.648,0.471-1.965,0.8-5.74
				l0.109-1.25c-1.8-1.527,0.03-0.793-1.033-4.521c-0.142-0.498-0.16-0.878-0.147-1.374l0.141-5.415
				c0.008-0.296,0.792-4.488,0.357-5.685l2.53-1.656l1.843-0.164c0.846-0.075,1.598-0.098,2.414-0.12
				c2.018-0.056,2.396-0.323,3.66-0.17l1.932,0.235c0.807,0.098,1.663,0.169,2.425,0.029l3.671-0.671
				c0.666-0.122,1.757-0.045,2.484-0.118l2.021-0.203l2.33-0.21c0.312-0.028,1.02-0.014,1.359,0.014l2.639,0.216
				c0.723,0.059,1.773-0.239,2.538-0.255l6.489-0.136c0.552-0.012,1.629-0.61,2.173-0.736l4.635-1.075l1.81-0.441
				c1.953-0.475,3.944-0.657,5.941-0.456l2.065,0.208l2.655,0.321c1.493,0.181,2.975-0.153,4.391-0.543l3.968-1.093
				c0.659-0.182,1.47-0.475,2.084-0.584c3.202-0.566,2.672-0.801,5.726-1.203c3.472-0.457,0.809-0.541,3.705-0.771
				c3.86-0.307,0.95-0.306,4.588-0.735c2.99-0.353,3.542-1.172,5.137-0.674l0.75,0.415c0.359-1.517,0.788-5.706,0.544-6.672
				c-0.666-2.643,0.586-2.333,1.181-6.719c0.138-1.017,0.193-1.691,0.671-2.61c0.946-1.82-1.063-0.524,1.106-4.531l-0.277-1.388
				c2.382-3.535-0.344-1.867,2.329-5.983c0.517-0.796,0.608-1.908,0.293-2.907c1.185-2.766,0.578-1.978,1.315-3.994l0.645-1.763
				c0.169-0.462,0.908-1.141,1.254-1.482l0.826-3.471c0.44-1.851,1.505-1.557,2.033-2.963c-0.83-0.481-1.64-1.449-1.123-2.169
				c2.044-2.847,3.806-1.361,6.088-3.278l1.447-1.216l1.52-0.514c0.589-0.199,1.329-0.217,2.001-0.115
				c4.946,0.748,0.564,1.084,7.158-0.072c0.726-0.127,1.435-0.622,2.023-1.09l1.191-0.266l1.845-1.278
				c0.319-0.221,1.393,0.206,1.774,0.216c2.563,0.063,3.202-0.925,3.778-1.148c0.966-0.374,2.06-0.679,3.048-0.97l1.827-0.538
				c0.291-0.086,0.792-0.316,0.979-0.428H137.564z M140.185,126.846l2.993-0.489c0.644-0.105,1.414-0.534,2-0.796l3.001-1.345
				l2.464-1.213c0.87-0.428,1.4-0.953,2.081-1.728c0.645-0.733,1.868-1.503,2.353-2.347l0.758-1.319
				c0.628-1.093,1.352-2.357,2.059-3.308c0.142-0.191,0.655-0.555,0.719-0.761l0.591-1.918l0.496-1.606l0.612-1.977
				c0.15-0.484,0.309-1.036,0.392-1.548l0.431-2.674c0.178-1.104,0.343-2.237,0.786-3.243c0.956-2.169,0.087-0.939,0.782-4.599
				c0.09-0.477,0.331-1.325,0.336-1.756l0.032-2.62c0.004-0.343,0.177-0.971,0.224-1.316l0.362-2.617
				c0.501-3.627-0.706-1.051,0.241-3.702c0.151-0.421,0.217-1.187,0.243-1.758l0.169-3.715c0.038-0.838,0.154-1.312,0.478-2.217
				c0.276-0.771,0.138-2.199,0.248-3.178c0.139-1.23,0.362-4.893,0.269-5.589l-0.37-2.747c-0.287-2.132-0.82-2.824-1.378-5.681
				c-0.058-0.296,0.008-1.144-0.101-1.396l-0.689-1.589c-0.413-0.952-0.631-1.913-0.825-2.956l-0.445-2.39
				c-0.354-1.9-2.101-1.621-1.199-4.635c0.564-1.886-1.1-1.969-1.703-3.777l-0.806-2.415c-0.172-0.516-0.507-1.181-0.817-1.717
				c-0.299-0.517-0.369-1.031-0.695-1.655l-0.903-1.733l-0.528-1.829l-1.15-3.993l-0.338-1.172c-0.092-0.32-0.325-1.198-0.528-1.519
				l-2.386-3.758c-2.009-3.165-3.802-3.122-4.961-6.414l-0.534-1.519l-0.964-1.999c-0.758-1.572-0.373,0.341-3.137-2.776
				c-1.02-1.151-1.772-2.421-2.05-3.882l-2.203-1.241c-0.324-0.182-1.282-0.106-1.643,0l-2.008,0.589l-1.78,0.53l-2.656,0.805
				c-0.758,0.23-1.505,0.421-2.306,0.618l-2.464,0.606c-0.288,0.071-0.882,0.435-1.151,0.626l1.598,1.763l1.236,1.362l1.051,1.651
				l2.302,0.939c2.971,1.213,1.537-0.176,2.884,0.727l1.789,1.199c0.8,0.536,2.147,1.323,2.447,2.291l0.745,2.399
				c0.758,0.584,2.35,2.476,2.88,3.197l1.069,1.456c0.716,0.58,1.046,0.971,1.443,1.802c1.009,2.111,1.772,2.575,1.578,4.926
				c-0.068,0.829,0.346,1.32,1.005,1.891c0.289,2.965,0.475,1.581-0.309,4.552c-0.251,0.241-0.489,0.406-0.364,0.463l0.501,0.228
				l1.062,0.477c-0.038,0.817-0.053,1.263-0.019,1.845l0.129,2.219l1.023,1.01l0.132,2.065c2.821,1.89,1.294,1.439,2.704,3.914
				c0.848,1.488,1.629,2.873,2.142,4.46l0.77,2.383c0.305,0.943,0.516,1.712-0.271,2.496l0.704,1.305
				c0.201,0.374,0.412,1.389,0.415,1.863l0.077,9.922c0.003,0.439,0.211,1.161,0,1.437c-0.526,0.688-0.194,1.334,0.073,1.887
				c0.149,0.319,0.127,1.132,0.164,1.58l0.209,2.578c0.097,1.19,0.124,7.283-0.009,8.012l-0.677,3.713
				c-0.256,1.405,0.024,2.875-0.805,4.154c-1.018,1.57,0.63,0.458-0.871,2.465c0.402,1.538,0.135,3.442-1.216,4.572
				c0.073,1.47-0.422,3.323-1.034,4.627l-1.466,3.126c-0.609,1.297-1.457,2.521-2.159,3.782l-0.824,1.48l-0.928,1.666
				c-1.249,2.243-0.779,1.058-2.224,3.184c-2.015,2.964-1.848,2.969-4.551,5.649C137.755,128.185,138.958,127.047,140.185,126.846z
				 M127.224,128.263l2.09-0.47c1.647-0.37,3.148-1.474,4.642-2.401c0.415-0.258,0.753-0.771,1.104-1.178l1.216-1.411
				c0.311-0.361,1.141-0.841,1.585-1.188c-0.267-0.88,0.487-1.541,0.988-1.848c0.409-0.251,0.868-1.862,1.695-2.88l1.758-2.164
				c-0.829-2.519,1.868-1.35,2.515-5.594l0.916-1.044l0.215-1.525c0.034-0.244,0.761-0.635,0.904-0.845l1.104-2.854
				c-0.305-4.038,1.471-2.201,1.236-5.044c-0.221-2.671,0.711-1.24,0.747-3.62c0.008-0.542,0.531-2.179,0.708-3.978l0.258-2.629
				c0.133-1.349,0.094-2.861-0.008-4.226l-0.214-2.879l-0.186-2.349c-0.085-1.081,0.072-2.152-0.024-3.275l-0.175-2.044l0.074-2.066
				c0.034-0.958,0.242-1.9,0.515-2.83l-0.457-1.667c0.81-3.344-0.214-4.287-0.203-6.91c-0.303-0.81-0.549-1.836-0.567-2.663
				l-2.689-4.179c-0.437-0.679-0.728-1.336-1.015-2.175l-1.132-1.364l-0.387-1.888c-0.084-0.411-0.7-1.012-0.74-1.366
				c-0.243-2.152-0.407-0.637-0.698-3.769c-0.259-2.792-0.624,0.335-1.268-4.21c-0.183-1.288,0.05-2.839,0.008-2.967l-0.869-2.627
				c-0.246-0.745-0.477-1.761-0.828-2.299l-1.636-2.512c-1.143-1.755-2.947-2.419-3.5-3.488l-1.382-2.669
				c-0.385-0.743-0.732-1.815-1.459-2.163l-3.118-1.49l-1.983-0.531c-5.206-1.395-4.312-4.808-8.375-6.616
				c-1.056-0.47-1.9-0.352-2.973-0.097l-4.022,0.954c-1.655-1.682-2.191,0.076-3.889,0.339l-0.851,0.782
				c-0.829,0.359-1.343,0.906-1.778,1.68l-0.99,1.764l-1.31,3.392c-0.196,0.508-0.611,1.137-0.855,1.679
				c-0.52,1.157-0.673,2.602-1.066,3.84c-0.646,2.039-1.292,2.896-1.328,4.67c-0.762,1.165-1.118,2.528-1.143,4.004
				c-0.009,0.544-0.9,1.516-0.965,2.032c-0.111,0.882-0.107,2.193-0.26,2.97l-0.413,2.093l-0.658,2.27
				c-1.104,3.81-0.175,2.636-0.682,6.356l-0.281,2.059c-0.237,1.735-0.084,3.38-0.307,3.914c-0.173,0.416-0.655,1.095-0.585,1.46
				c0.791,4.161-0.466,1.722,0.149,5.518c0.076,0.471-0.051,1.306-0.115,1.888l-0.319,2.918l0.182,1.593
				c-0.664,3.216,0.286,1.4,0.001,5.718c-0.016,0.237-0.252,0.872-0.15,1.079l0.758,1.537c-0.575,2.817-0.648,1.825,0.112,4.701
				c0.056,0.214,0.451,0.871,0.459,1.085c0.126,3.424-0.263,1.942-0.175,5.157c0.012,0.449,0.182,0.858,0.559,1.297
				c0.272,0.317-0.006,1.332,0.087,1.741l0.452,1.998c0.132,0.585,0.17,1.704,0.352,2.183l1.278,3.36
				c0.25,0.658,0.178,2.101,0.489,2.652c0.43,0.762,1.287,1.45,1.391,2.529c0.094,0.978,0.546,1.81,1.159,2.526
				c0.156,0.743,0.361,2.049,0.807,2.512l0.952,0.988c-0.107,0.682,0,1.018,0.388,1.452c2.436,2.727,0.782,1.441,2.447,3.077
				c0.628,0.617,1.16,1.848,1.612,2.564c0.289,0.373,1.353,0.954,1.487,1.397c0.193,1.064,0.88,2.177,1.871,2.688
				c0.715,1.671,0.888,0.493,3.066,2.35c0.282,0.241,0.664,1.142,1.013,1.256c0.591,0.193,1.53,0.552,2.032,0.821l2.281,1.219
				l2.526,1.208C123.115,128.37,125.259,128.705,127.224,128.263z M59.538,264.151l2.386,0.105c1.342,0.059,2.323,0.237,3.591,0.773
				c0.667,0.282,1.95-0.047,2.666,0.007l2.864,0.215c1.108,0.083,2.16,0.171,3.222,0.129l1.477-0.059
				c0.235-0.009,0.727,0.042,1.026,0.053l4.24,0.153c2.546,0.092,1.154-0.245,4.013-0.023l2.345,0.182
				c1.043,0.081,2.228,0.381,3.19,0.649c3.329-0.43,2.425,1.167,3.356,1.072l1.402-0.144l1.744-0.056
				c0.779-0.025,1.838-0.223,2.501-0.198l2.996,0.113c1.703,0.064,0.968,1.657,2.102,1.112l1.439-0.691
				c0.501-0.241,1.198-1.177,1.655-1.691l1.357-0.503c0.312-0.116,0.751-0.306,0.987-0.451c0.223-0.137,0.133-0.848,0.191-1.118
				c0.641-2.97,0.609-2.143,0.227-5.53c-0.45-3.989,0.633-3.486,0.45-4.191c-0.78-3.001,0.505-1.074,0.677-4.572l0.084-1.701
				c0.063-1.283-2.055,0.529-1.919-4.036l0.16-5.379l0.04-1.856c0.031-1.426,0.315-1.783,0.383-3.902l0.156-4.836l0.174-2.586
				l0.233-3.135c0.059-0.798,0.282-1.822,0.293-2.551l0.101-6.896c0.007-0.485,0.425-1.475,0.382-1.946l-0.179-1.979
				c-0.068-0.747-0.167-1.378-0.408-2.104l0.176-1.986c0.018-0.201,0.105-0.519,0.253-1.1c0.048,0.043-0.214-0.19-0.536-0.476
				c-3.823,0.711-4.164,2.221-8.251,1.888c-0.311-0.025-0.97-0.654-1.109-0.965c-0.662-1.484-0.066-5.208,0.326-6.817l0.691-2.845
				c0.126-0.52,0.244-1.044,0.346-1.623c0.64-3.65,0.596-1.808,1.239-5.076c0.071-0.362,0.181-1.092,0.315-1.384l1.296-2.814
				c-0.41-1.139-0.282-1.83,0.153-2.88l0.243-2.345c0.133-1.285,0.589-2.763,0.42-4.083c-0.159-1.244-3.314,0.144-3.447,0.17
				l-4.297,0.86c-1.07,0.214-3.365,0.381-3.953,0.641c-0.187,0.083-0.697,0.522-0.917,0.55c-0.838,0.106-2.264,0.482-3.143,0.73
				l-1.672,0.471c-1.071,0.302-3.125,1.269-4.83,0.695l-0.732,0.405l-0.996-0.556l-0.575,0.826
				c-2.834,0.186-1.004,0.442-3.313,0.712l-2.63,0.308l-3.78,0.441l-1.898,0.429c-0.731,0.165-1.835,0.009-2.631,0.076l-2.522,0.211
				l-2.309,0.194c-3.322,0.279-3.808-0.191-7.23-1.039c-1.348-0.334-1.217-2.466-0.683-2.873l1.627-1.238
				c2.689-2.047,0.566-1.067,3.244-3.091c0.418-0.316,0.857-0.855,1.247-1.251l1.856-1.885c0.258-0.262,1.094-0.655,1.24-1.006
				c0.209-0.502,0.582-1.251,0.986-1.583c1.402-1.151-0.153-0.893,2.774-4.654l1.261-1.621l1.221-1.641
				c0.66-0.887,2.202-3.329,2.572-4.186c0.611-1.417,1.114-2.57,2.601-3.202l0.303-1.593l1.289-1.378l1.622-1.785
				c0.506-0.556,0.99-1.18,1.304-1.848l1.377-2.933c0.287-0.612,0.693-1.109,1.179-1.621l1.49-1.57
				c-0.024-0.365-0.035-1.083,0.1-1.366l0.74-1.553c0.368-0.773,0.659-1.293,1.369-1.839c0.12-0.412,0.297-1.122,0.447-1.535
				l0.782-2.156c0.304-0.838,1.102-1.751,1.746-2.454l-0.084-0.913l1.121-1.781c0.177-0.281,0.846-2.184,1.98-4.223l0.84-1.509
				c0.569-1.022,0.883-1.85,1.205-2.999l0.389-1.392c0.647-1.066,0.933-2.089,1.027-3.326l0.179-2.365
				c0.045-0.593,0.469-1.056,1.128-1.176c0.404-0.074,0.682-1.029,0.5-1.432l-0.747-1.653c-0.328-0.725-0.56-1.57-0.813-2.387
				c-1.04-3.347,0.568,0.19-1.392-4.775c-0.177-0.45-0.392-1.047-0.511-1.469l-0.64-2.267l-0.244-2.038l-0.537-2.108
				c-0.243-0.955-0.566-2.08-0.527-2.985c0.238-5.448-0.289-3.771-0.514-6.145l-0.174-1.837c-0.122-1.285-0.086-2.55-0.094-3.97
				c-0.013-2.337-1.185-1.619-0.193-3.895c0.36-0.826,0.038-1.947-0.019-2.912l-0.119-2.014c-0.04-0.67-0.032-1.296-0.023-1.95
				l0.02-1.448l0.031-4.352c-0.497,0.478-1.008,1.457-1.487,1.617c-2.086,0.693-2.402,0.207-5.051,0.715l-2.267,0.435l-2.288,0.081
				l-2.86,0.412l-2.319,0.314c-0.589,0.08-1.337,0.306-2.003,0.432c-0.464,0.088-1.395,0.068-1.775,0.261
				c-4.339,2.21-3.592,0.457-5.477,1.696c-0.425,0.279-1.043,0.301-1.603,0.222c-0.19,0.071-0.854,0.397-1.112,0.42l-2.085,0.184
				c-0.496,0.044-1.52-0.216-2.119-0.248l-1.791-0.098c-0.679-0.037-1.531-0.235-2.315-0.321c-5.128-0.567-4.238,1.242-6.023,0.255
				c-0.224-0.124-0.875-0.19-1.072-0.07c-3.289,2.005-2.396,1.081-6.928,1.915c-0.628,0.116-1.585,0.332-2.205,0.347l-4.503,0.109
				l-1.561,0.486c-0.429,0.133-2.866-0.064-4.206-0.031l-4.89,0.123c-0.55,0.014-1.52,0.255-2.124,0.372l-2.643,0.51l-1.713,0.285
				c-0.268,0.045-0.99,0.418-1.284,0.43l-3.029,0.126l-1.962,0.098c-0.893,0.045-1.932,0.328-2.816,0.489
				c-0.157,0.426-0.504,1.259-0.57,1.669l-0.537,3.316c0.076,0.472,0.442,1.521,0.459,1.998l0.108,3.099
				C7.19,81.01,6.897,81.856,6.93,82.22l0.204,2.227l0.12,2.345c0.043,0.844-0.43,2.194-0.338,3.036
				c0.118,1.088,0.329,2.101,0.073,3.023l-0.62,2.233c-0.203,0.731-0.049,2.353-0.112,3.063c-0.028,0.321-0.716,0.79-1.022,1.058
				c-0.234,0.206,0.08,1.006,0.094,1.362l0.102,2.639l-0.871,0.892l0.35,2.057l0.336,1.969c0.652,3.823-0.533,2.871,0.021,5.055
				c0.615,2.427-0.849,2.699-0.534,5.15c0.081,0.633,0.54,1.736,0.315,2.225c-1.301,2.822,0.328,1.625-0.378,4.515l0.16,1.383
				c0.046,0.398-0.485,1.319-0.496,1.763l-0.131,5.578l-0.036,1.546l-0.11,1.159c-0.081,0.852-0.462,1.742-0.86,2.559l0.035,1.301
				c0.847,4.074-0.6,1.196,0.006,3.669c0.143,0.582,0.036,1.54,0.035,2.041c1.254,2.921-0.367,1.762-0.063,4.227l0.328,2.661
				c0.098,0.793,0.087,1.852,0.101,2.618c0.074,0.459,0.378,1.368,0.434,1.912l0.279,2.709c0.057,0.55-0.293,1.416-0.591,1.916
				l0.384,0.803l0.058,1.569c0.062,1.682-0.867,1.003-0.307,2.252c0.301,0.672,0.321,1.412,0.313,1.995
				c-0.025,1.785,0.782,1.281-0.015,2.745c0.452,3.316-0.517,3.697-0.027,6.095l-0.392,0.991c-0.271,0.686,0.01,2.207,0.072,3.149
				c0.057,0.868-0.211,1.867-0.221,2.648l-0.035,2.883l0.077,4.453c0.015,0.895-0.229,1.69-0.55,2.492
				c-0.475,3.471,1.961,5.045-0.152,8.345c0.62,0.583,0.787,1.39,0.679,2.366l-0.214,1.942c-0.124,1.127-0.416,2.152,0.123,3.408
				c0.507,1.18-0.492,5.964,0.062,8.729l0.379,1.891c0.05,0.249-0.675,0.813-0.801,0.993l0.223,1.54
				c0.178,1.228,0.407,3.525,0.101,4.992l0.474,2.324c0.08,0.391-0.381,1.124-0.73,1.517c-0.673,0.758,0.6,0.712,0.518,3.224
				l-0.121,3.714c-0.008,0.255-0.133,0.905-0.167,1.15c0.246,1.257,0.16,2.422,0.022,3.737c-0.152,1.456-0.096,3.019-0.015,4.479
				l0.085,1.544c0.02,0.371-0.672,1.135-0.622,1.469l0.327,2.184c0.055,0.366,0.052,0.926,0.002,1.293
				c-0.39,2.854,0.842,1.452-0.325,3.857c0.147,0.366,0.465,1.22,0.492,1.626l0.096,1.488c-0.19,1.18-0.047,2.06,0.312,3.227
				c0.265,0.861,0.055,2.321,0.709,3.071c0.368,0.421,1.783,0.289,2.318,0.117l1.536-0.492l2.843-0.913
				c2.083-0.669,2.521-0.103,2.903-0.3l1.681-0.867c1.371-0.707,2.126-0.323,3.408-0.844c1.366-0.555,2.745-0.743,3.832,0.522
				l2.335-0.849c0.559-0.203,1.866-0.053,2.415-0.181c0.918-0.519,1.895-0.72,2.761,0.041l0.904-0.479
				c2.304-1.22,0.685,0.916,4.38-0.703c1.065-0.467,2.574,0.023,3.664-0.033c1.062-0.054,1.969-0.427,2.851,0.333l2.38-0.466
				l1.171,0.48l1.42,0.03c2.205,0.047,4.322,0.044,6.511-0.036c0.506-0.018,1.325-0.176,1.679,0.057
				C56.924,264.605,57.979,264.082,59.538,264.151z M150.353,147.409l2.643-1.015c1.021-0.392,1.986-0.316,2.995,0.211
				c0.495,0.259,1.732-0.462,1.755-1.075c0.073-1.915,0.049-3.186-0.562-4.681l-0.84-2.057l-0.685-1.609
				c-0.793-1.863-1.205-1.614-1.727-3.627l-0.558-2.15c-0.153-0.589-0.712-1.389-1.05-1.979c-0.188-0.327-1.38-2.713-2.058-2.412
				l-0.85,0.377l-2.023,0.825l-2.473,0.995l-1.171,0.481c0.613,0.715,0.807,0.912,1.109,1.435l0.912,1.58l0.239,2.116
				c0.041,0.359,0.491,1.237,0.404,1.589l-0.484,1.968c0.376,0.659,1.136,1.545,1.399,2.184l1.005,2.442
				c0.071,0.173-0.038,0.663-0.2,0.705l-0.979,0.259l1.383,2.057l-0.047,0.915C148.833,147.524,149.675,147.669,150.353,147.409z
				 M183.164,224.198c1.34-1.637,2.522,0.175,3.361-1.384c0.217-0.404,0.381-0.918,0.303-1.181l-0.595-2.031l-0.891-0.51
				l-1.109-2.037l-0.825-1.438c-0.627-1.092-2.144-2.898-2.319-3.4l-0.661-1.899c-0.1-0.289-1.033-0.587-1.085-0.892l-0.257-1.51
				c-0.4-0.611-0.584-1.046-0.835-1.836c-0.362-1.14-0.987-1.17-2.058-3.474l-0.913-1.963l-1.265-2.838
				c-0.679-1.524-2.935-2.321-4.596-1.901c-1.889,0.478-2.037,0.506-3.932,1.359l0.814,2.61c0.559,1.794,1.105,1.794,1.67,3.646
				l0.488,1.602l1.241,3.593c0.223,0.644,0.445,1.174,0.765,1.726l0.032,0.687l0.592,1.45c0.548,1.342,1.602,4.911,1.121,6.237
				c0.289,0.36,1.108,1.13,1.186,1.593l0.301,1.788l0.512,2.166c0.202,0.854,1.549,3.519,2.639,3.632l1.72-1.68
				c0.157-0.153,0.827-0.407,1.033-0.516C180.44,224.806,181.805,224.275,183.164,224.198z"/>
		</g>
		<g>
			<path d="M83.888,248.791l-3.392,0.17l-1.667,0.11l-0.723,0.187c-1.491-0.001-4.899,1.016-5.545,0.945l-2.042-0.225l-0.906-0.465
				l-2.293-0.275c-1.179,0.544-2.884-0.839-3.239-1.985l2.12-0.907c2.55,1.327,1.813,1.325,4.84,0.915
				c0.73,0.033,1.332,0.033,2.016-0.004l3.137-0.172l2.618-0.248c1.712-0.162,3.411-1.007,5.161-1.29
				c2.069-0.335,1.988,0.32,4.314-0.507l1.788-0.636c1.94,0.631,0.898,2.421,3.393,2.959c3.466,0.748,3.221,0.002,6.613,1.388
				c0.188-0.117,0.696-0.394,0.925-0.365l2.016,0.255c0.991,0.125,1.922,0.316,2.864,0.493l2.471-0.413l1.261,1.015
				c0.031,0.192-0.324,0.9-0.758,1.348c-0.343,0.354-1.083,0.203-1.581,0.182l-3.716-0.163c-0.591-0.026-1.577-0.345-2.247-0.493
				c-0.724,0.159-1.873,0.414-2.527,0.29l-4.355-0.831l-2.118-0.436c-0.868-0.179-1.501-0.688-1.996-1.55l-1.168,0.094
				c-0.86-0.242-1.691-0.115-2.408,0.363L83.888,248.791z"/>
			<path d="M57.877,97.451l-2.08-0.553c-3.236-0.86-3.013,1.378-6.621,0.077c-0.59-0.213-1.332-0.474-1.9-0.618l-2.385-0.603
				c-0.965-0.244-2.167-0.081-3.259,0.014l-2.01,0.583l-2.303-0.165c-1.981-0.142-0.107-0.843-2.349-0.725
				c-1.102,0.058-2.336-0.653-3.304-1.175c-2.105-0.221-1.458-0.552-3.889-0.986c-0.723-0.129-1.824-0.136-2.336-0.474l-0.945-0.624
				c-0.274-0.181-0.713-0.508-0.807-0.763c-0.093-0.256,0.238-0.857,0.441-1.053c0.845-0.814,1.71-0.819,2.755-0.608l1.297,0.262
				l2.943,0.735c0.838,0.209,1.543,0.624,2.092,1.313l1.864,0.227c2.007,1.014,1.842-0.028,4.362,0.729l5-0.753
				c0.492-0.074,1.549,0.592,1.865,0.865l2.351,0.649c0.591,0.163,1.197,0.362,1.81,0.446l2.563,0.35
				c3.427,0.468,1.033-0.606,4.642,0.087c0.577,0.111,1.059,0.252,1.448,0.396L57.877,97.451z"/>
			<path d="M73.251,224.613c-1.117,0.013-2.496,0.082-3.548-0.127l-2.625-0.522l-1.269-0.734l-3.872-0.051
				c-0.29-0.004-0.918,0.357-1.274,0.542c-0.505,0.263-1.278,0.089-1.901,0.222l-2.306,0.492c-0.574,0.122-1.645-0.056-2.155-0.215
				l-1.734-0.542c-0.354-0.111-0.733-0.243-0.951-0.326c-0.273-0.103-0.349-1.077-0.201-1.352c0.287-0.533,1.454-0.579,2.046-0.414
				l2.58,0.718c0.633,0.176,1.559-0.166,2.236-0.39c0.604-0.2,1.528-0.395,1.936-0.663c2.79-1.834,0.436-0.226,4.229-1.266
				c1.133-0.311,2.182-0.259,3.26,0.269l2.221,1.088c0.973-0.054,2.266-0.143,3.232-0.058l1.958,0.172
				c2.112,0.186,1.038,2.528,3.569,2.958l5.196,0.882l2.109,0.521c0.582,0.144,0.917,0.225,1.426,0.734l-1.597-0.095
				c-0.65-0.039-1.754,0.346-2.56,0.381c-1.894,0.081-4.346,0.078-6.092,0.054c-0.334-0.005-3.218-1.744-3.649-2.66
				C73.673,224.006,73.55,224.183,73.251,224.613z"/>
			<path d="M42.646,109.164c-2.341-0.841-3.034,0.815-4.81,0.639l-2.384,1.068c-0.195,0.087-0.764,0.313-0.996,0.352l-1.97,0.331
				c-0.963,0.162-2.011,0.661-2.833,1.107c-0.692-0.099-1.228-0.132-2.055,0.036l-1.938-1.112c0.107-0.456,0.309-1.224,0.578-1.399
				c2.818-1.832,5.243-0.448,8.438-2.442c0.328-0.07,1.19-0.141,1.513-0.238l2.201-0.659l2.681-0.803
				c0.992-0.297,2.483-0.039,3.551,0.261l2.066,0.58c0.123,0.034,4.283,0.495,4.8,0.506c0.497,0.01,1.658-0.596,2.008-0.254
				c0.469,0.458,0.918,0.731,1.548,0.842c0.356,0.063,1.071,0.591,1.037,0.926l-0.196,1.881c-2.705,0.066-1.476-0.872-3.463-0.517
				l-1.342-0.319l-2.63,0.446c-0.748,0.127-2.099-0.481-2.864-0.626C44.528,109.753,43.716,109.548,42.646,109.164z"/>
			<path d="M30.787,198.386c-3.346,0.291-2.468,1.275-4.881,0.664c-0.403-0.102-1.222-0.858-1.085-1.229
				c0.476-1.298,2.982-1.426,4.238-1.512c0.725-0.05,1.168-0.104,1.857-0.36c2.931-1.087,2.073,1.257,4.923-0.337
				c0.451-0.252,1.643,0.154,2.151,0.074l3.847-0.606c0.504-0.079,1.23-0.12,1.557,0.068l2.285,1.321
				c0.473,0.274,1.314,0.076,1.829-0.167l1.676-0.789c0.35-0.165,1.176-0.151,1.638-0.167l1.318-0.466l2.309-0.539l2.386,1.109
				c0.417,0.194,0.282,1.54-0.092,1.681l-2.81,0.311l-2.187,0.238l-1.107-0.049c-0.492,0.397-1.119,0.642-1.818,0.841l-1.899,1.512
				c-0.428,0.341-1.66-0.147-2.192-0.289l-1.462-0.389l-0.859-1.305l-2.538,0.605c-0.639,0.152-1.332,0.351-1.93,0.189l-1.817-0.493
				l-1.385-0.027c-0.406-0.008-1.232-0.125-1.644-0.089L30.787,198.386z"/>
			<path d="M32.059,212.54l-2.801,1.128c-0.831,0.335-1.501,0.632-2.274-0.053l-1.855-0.417l0.013-0.744l1.448-0.738
				c0.55-0.281,1.6-0.2,2.288-0.006c0.519-0.805,1.387-1.206,2.355-1.562c1.544-0.567,2.846-0.819,4.471-0.47l1.981,0.425
				c1.036,0.222,2.093,0.251,3.124,0.135l2.377,0.118c0.853-1.84-0.051-0.015,2.131-1.415l1.476-0.947
				c0.362-0.232,1.055-0.894,1.445-0.986l2.12-0.5c0.498-0.117,1.682,0.152,2.151,0.408l2.247,1.227
				c1.353,0.739,2.699,1.313,4.15,1.528c0.351,0.305,0.798,0.602,1.203,0.766l0.714,0.288l-1.244,1.295
				c-1.432,0.206-2.746-0.084-4.05-0.665c-2.912-0.279-3.983-3.191-7.324-1.247c-0.839,0.488-3.607,1.978-4.453,1.97l-3.861-0.035
				c-1.548-0.014-2.761-1.053-4.006-0.216l-1.438,0.148C33.762,212.048,32.789,212.246,32.059,212.54z"/>
			<path d="M73.615,101.128l-2.354,0.525l-2.068-0.98c-0.291-0.144-0.21-1.32,0.076-1.459c0.408-0.199,1.233-0.484,1.706-0.575
				l3.046-0.591l2.564-0.431c1.237-0.208,2.189,1.594,1.787,2.082c-1.254,1.526-1.265,0.667-2.746,0.99L73.615,101.128z"/>
			<path d="M70.773,114.399l-1.801,0.812l-2.397-0.843c-0.428-0.151-1.16-0.508-1.436-0.849c-0.287-0.353,0.162-1.767,0.609-1.829
				c2.439-0.336,2.085,0.136,4.501-0.051c0.954-0.074,1.503,1.342,1.381,2.023C71.579,113.94,71.082,114.26,70.773,114.399z"/>
		</g>
	</g>
</g>
</svg>
